999
dxfrw 0.6.3
  0
SECTION
  2
HEADER
  9
$ACADVER
  1
AC1021
  9
$DWGCODEPAGE
  3
ANSI_1252
  9
$INSBASE
 10
0
 20
0
 30
0
  9
$EXTMIN
 10
47.8311
 20
-142.795
 30
0
  9
$EXTMAX
 10
352.599
 20
-49.7964
 30
0
  9
$LIMMIN
 10
0
 20
0
  9
$LIMMAX
 10
420
 20
297
  9
$ORTHOMODE
 70
    0
  9
$REGENMODE
 70
    1
  9
$FILLMODE
 70
    1
  9
$QTEXTMODE
 70
    0
  9
$MIRRTEXT
 70
    0
  9
$LTSCALE
 40
1
  9
$ATTMODE
 70
    0
  9
$TEXTSIZE
 40
2.5
  9
$TRACEWID
 40
15.68
  9
$TEXTSTYLE
  7
STANDARD
  9
$CLAYER
  8
0
  9
$CELTYPE
  6
BYLAYER
  9
$CECOLOR
 62
  256
  9
$CELTSCALE
 40
1
  9
$DISPSILH
 70
    0
  9
$DIMSCALE
 40
2.5
  9
$DIMASZ
 40
2.5
  9
$DIMEXO
 40
0.625
  9
$DIMDLI
 40
3.75
  9
$DIMRND
 40
0
  9
$DIMDLE
 40
0
  9
$DIMEXE
 40
1.25
  9
$DIMTP
 40
0
  9
$DIMTM
 40
0
  9
$DIMTXT
 40
2.5
  9
$DIMCEN
 40
2.5
  9
$DIMTSZ
 40
0
  9
$DIMTOL
 70
    0
  9
$DIMLIM
 70
    0
  9
$DIMTIH
 70
    0
  9
$DIMTOH
 70
    0
  9
$DIMSE1
 70
    0
  9
$DIMSE2
 70
    0
  9
$DIMTAD
 70
    1
  9
$DIMZIN
 70
    8
  9
$DIMBLK
  1

  9
$DIMASO
 70
    1
  9
$DIMSHO
 70
    1
  9
$DIMPOST
  1

  9
$DIMAPOST
  1

  9
$DIMALT
 70
    0
  9
$DIMALTD
 70
    3
  9
$DIMALTF
 40
0.03937
  9
$DIMLFAC
 40
1
  9
$DIMTOFL
 70
    1
  9
$DIMTVP
 40
0
  9
$DIMTIX
 70
    0
  9
$DIMSOXD
 70
    0
  9
$DIMSAH
 70
    0
  9
$DIMBLK1
  1

  9
$DIMBLK2
  1

  9
$DIMSTYLE
  2
Standard
  9
$DIMCLRD
 70
    0
  9
$DIMCLRE
 70
    0
  9
$DIMCLRT
 70
    0
  9
$DIMTFAC
 40
1
  9
$DIMGAP
 40
0.625
  9
$DIMJUST
 70
    0
  9
$DIMSD1
 70
    0
  9
$DIMSD2
 70
    0
  9
$DIMTOLJ
 70
    0
  9
$DIMTZIN
 70
    8
  9
$DIMALTZ
 70
    0
  9
$DIMALTTZ
 70
    0
  9
$DIMUPT
 70
    0
  9
$DIMDEC
 70
    2
  9
$DIMTDEC
 70
    2
  9
$DIMALTU
 70
    2
  9
$DIMALTTD
 70
    3
  9
$DIMTXSTY
  7
STANDARD
  9
$DIMAUNIT
 70
    0
  9
$DIMADEC
 70
    0
  9
$DIMALTRND
 40
0
  9
$DIMAZIN
 70
    0
  9
$DIMDSEP
 70
   44
  9
$DIMATFIT
 70
    3
  9
$DIMFRAC
 70
    0
  9
$DIMLDRBLK
  1
STANDARD
  9
$DIMLUNIT
 70
    2
  9
$DIMLWD
 70
   -2
  9
$DIMLWE
 70
   -2
  9
$DIMTMOVE
 70
    0
  9
$DIMFXL
 40
1
  9
$DIMFXLON
 70
    0
  9
$DIMJOGANG
 40
0.7854
  9
$DIMTFILL
 70
    0
  9
$DIMTFILLCLR
 70
    0
  9
$DIMARCSYM
 70
    0
  9
$DIMLTYPE
  6

  9
$DIMLTEX1
  6

  9
$DIMLTEX2
  6

  9
$LUNITS
 70
    2
  9
$LUPREC
 70
    4
  9
$SKETCHINC
 40
1
  9
$FILLETRAD
 40
0
  9
$AUNITS
 70
    0
  9
$AUPREC
 70
    2
  9
$MENU
  1
.
  9
$ELEVATION
 40
0
  9
$PELEVATION
 40
0
  9
$THICKNESS
 40
0
  9
$LIMCHECK
 70
    0
  9
$CHAMFERA
 40
0
  9
$CHAMFERB
 40
0
  9
$CHAMFERC
 40
0
  9
$CHAMFERD
 40
0
  9
$SKPOLY
 70
    0
  9
$USRTIMER
 70
    1
  9
$ANGBASE
 50
0
  9
$ANGDIR
 70
    1
  9
$PDMODE
 70
   34
  9
$PDSIZE
 40
0
  9
$PLINEWID
 40
0
  9
$SPLFRAME
 70
    0
  9
$SPLINETYPE
 70
    2
  9
$SPLINESEGS
 70
    8
  9
$HANDSEED
  5
20000
  9
$SURFTAB1
 70
    6
  9
$SURFTAB2
 70
    6
  9
$SURFTYPE
 70
    6
  9
$SURFU
 70
    6
  9
$SURFV
 70
    6
  9
$UCSBASE
  2

  9
$UCSNAME
  2

  9
$UCSORG
 10
0
 20
0
 30
0
  9
$UCSXDIR
 10
1
 20
0
 30
0
  9
$UCSYDIR
 10
0
 20
1
 30
0
  9
$UCSORTHOREF
  2

  9
$UCSORTHOVIEW
 70
    0
  9
$UCSORGTOP
 10
0
 20
0
 30
0
  9
$UCSORGBOTTOM
 10
0
 20
0
 30
0
  9
$UCSORGLEFT
 10
0
 20
0
 30
0
  9
$UCSORGRIGHT
 10
0
 20
0
 30
0
  9
$UCSORGFRONT
 10
0
 20
0
 30
0
  9
$UCSORGBACK
 10
0
 20
0
 30
0
  9
$PUCSBASE
  2

  9
$PUCSNAME
  2

  9
$PUCSORG
 10
0
 20
0
 30
0
  9
$PUCSXDIR
 10
1
 20
0
 30
0
  9
$PUCSYDIR
 10
0
 20
1
 30
0
  9
$PUCSORTHOREF
  2

  9
$PUCSORTHOVIEW
 70
    0
  9
$PUCSORGTOP
 10
0
 20
0
 30
0
  9
$PUCSORGBOTTOM
 10
0
 20
0
 30
0
  9
$PUCSORGLEFT
 10
0
 20
0
 30
0
  9
$PUCSORGRIGHT
 10
0
 20
0
 30
0
  9
$PUCSORGFRONT
 10
0
 20
0
 30
0
  9
$PUCSORGBACK
 10
0
 20
0
 30
0
  9
$USERI1
 70
    0
  9
$USERI2
 70
    0
  9
$USERI3
 70
    0
  9
$USERI4
 70
    0
  9
$USERI5
 70
    0
  9
$USERR1
 40
0
  9
$USERR2
 40
0
  9
$USERR3
 40
0
  9
$USERR4
 40
0
  9
$USERR5
 40
0
  9
$WORLDVIEW
 70
    1
  9
$SHADEDGE
 70
    3
  9
$SHADEDIF
 70
   70
  9
$TILEMODE
 70
    1
  9
$MAXACTVP
 70
   64
  9
$PINSBASE
 10
0
 20
0
 30
0
  9
$PLIMCHECK
 70
    0
  9
$PEXTMIN
 10
0
 20
0
 30
0
  9
$PEXTMAX
 10
0
 20
0
 30
0
  9
$SNAPSTYLE
 70
    0
  9
$PLIMMIN
 10
0
 20
0
  9
$PLIMMAX
 10
210
 20
297
  9
$UNITMODE
 70
    0
  9
$VISRETAIN
 70
    1
  9
$PLINEGEN
 70
    0
  9
$PSLTSCALE
 70
    1
  9
$TREEDEPTH
 70
 3020
  9
$CMLSTYLE
  2
Standard
  9
$CMLJUST
 70
    0
  9
$CMLSCALE
 40
20
  9
$PROXYGRAPHICS
 70
    1
  9
$MEASUREMENT
 70
    0
  9
$CELWEIGHT
370
   -1
  9
$ENDCAPS
280
    0
  9
$JOINSTYLE
280
    0
  9
$LWDISPLAY
290
    0
  9
$INSUNITS
 70
    4
  9
$HYPERLINKBASE
  1

  9
$STYLESHEET
  1

  9
$XEDIT
290
    1
  9
$CEPSNTYPE
380
    0
  9
$PSTYLEMODE
290
    1
  9
$EXTNAMES
290
    1
  9
$PSVPSCALE
 40
1
  9
$OLESTARTUP
290
    0
  9
$SORTENTS
280
  127
  9
$INDEXCTL
280
    0
  9
$HIDETEXT
280
    1
  9
$XCLIPFRAME
290
    0
  9
$HALOGAP
280
    0
  9
$OBSCOLOR
 70
  257
  9
$OBSLTYPE
280
    0
  9
$INTERSECTIONDISPLAY
280
    0
  9
$INTERSECTIONCOLOR
 70
  257
  9
$DIMASSOC
280
    1
  9
$PROJECTNAME
  1

  9
$CAMERADISPLAY
290
    0
  9
$LENSLENGTH
 40
50
  9
$CAMERAHEIGHT
 40
0
  9
$STEPSPERSEC
 40
2
  9
$STEPSIZE
 40
50
  9
$3DDWFPREC
 40
2
  9
$PSOLWIDTH
 40
5
  9
$PSOLHEIGHT
 40
80
  9
$LOFTANG1
 40
1.570796326794897
  9
$LOFTANG2
 40
1.570796326794897
  9
$LOFTMAG1
 40
0
  9
$LOFTMAG2
 40
0
  9
$LOFTPARAM
 70
    7
  9
$LOFTNORMALS
280
    1
  9
$LATITUDE
 40
1
  9
$LONGITUDE
 40
1
  9
$NORTHDIRECTION
 40
0
  9
$TIMEZONE
 70
-8000
  9
$LIGHTGLYPHDISPLAY
280
    1
  9
$TILEMODELIGHTSYNCH
280
    1
  9
$SOLIDHIST
280
    1
  9
$SHOWHIST
280
    1
  9
$DWFFRAME
280
    2
  9
$DGNFRAME
280
    0
  9
$REALWORLDSCALE
290
    1
  9
$INTERFERECOLOR
 62
    1
  9
$CSHADOW
280
    0
  9
$SHADOWPLANELOCATION
 40
0
  0
ENDSEC
  0
SECTION
  2
CLASSES
  0
ENDSEC
  0
SECTION
  2
TABLES
  0
TABLE
  2
VPORT
  5
8
330
0
100
AcDbSymbolTable
 70
    1
  0
VPORT
  5
31
330
2
100
AcDbSymbolTableRecord
100
AcDbViewportTableRecord
  2
*ACTIVE
 70
    0
 10
0
 20
0
 11
1
 21
1
 12
184.5077275339199
 22
-32.5152889945325
 13
0
 23
0
 14
10
 24
10
 15
10
 25
10
 16
0
 26
0
 36
1
 17
0
 27
0
 37
0
 40
113.9816077429621
 41
1.899107142857143
 42
50
 43
0
 44
0
 50
0
 51
0
 71
    0
 72
  100
 73
    1
 74
    3
 75
    0
 76
    1
 77
    0
 78
    0
281
    0
 65
    1
110
0
120
0
130
0
111
1
121
0
131
0
112
0
122
1
132
0
 79
    0
146
0
348
10020
 60
    7
 61
    5
292
1
282
    1
141
0
142
0
 63
  250
421
3358443
  0
ENDTAB
  0
TABLE
  2
LTYPE
  5
5
330
0
100
AcDbSymbolTable
 70
    4
  0
LTYPE
  5
14
330
5
100
AcDbSymbolTableRecord
100
AcDbLinetypeTableRecord
  2
ByBlock
 70
    0
  3

 72
   65
 73
    0
 40
0
  0
LTYPE
  5
15
330
5
100
AcDbSymbolTableRecord
100
AcDbLinetypeTableRecord
  2
ByLayer
 70
    0
  3

 72
   65
 73
    0
 40
0
  0
LTYPE
  5
16
330
5
100
AcDbSymbolTableRecord
100
AcDbLinetypeTableRecord
  2
Continuous
 70
    0
  3
Solid line
 72
   65
 73
    0
 40
0
  0
LTYPE
  5
32
330
5
100
AcDbSymbolTableRecord
100
AcDbLinetypeTableRecord
  2
DOT
 70
    0
  3
Dot . . . . . . . . . . . . . . . . . . . . . .
 72
   65
 73
    2
 40
6.35
 49
0
 74
    0
 49
-6.35
 74
    0
  0
LTYPE
  5
33
330
5
100
AcDbSymbolTableRecord
100
AcDbLinetypeTableRecord
  2
DOTTINY
 70
    0
  3
Dot (.15x) .....................................
 72
   65
 73
    2
 40
0.9525
 49
0
 74
    0
 49
-0.9525
 74
    0
  0
LTYPE
  5
34
330
5
100
AcDbSymbolTableRecord
100
AcDbLinetypeTableRecord
  2
DOT2
 70
    0
  3
Dot (.5x) .....................................
 72
   65
 73
    2
 40
3.175
 49
0
 74
    0
 49
-3.175
 74
    0
  0
LTYPE
  5
35
330
5
100
AcDbSymbolTableRecord
100
AcDbLinetypeTableRecord
  2
DOTX2
 70
    0
  3
Dot (2x) .  .  .  .  .  .  .  .  .  .  .  .  .
 72
   65
 73
    2
 40
12.7
 49
0
 74
    0
 49
-12.7
 74
    0
  0
LTYPE
  5
36
330
5
100
AcDbSymbolTableRecord
100
AcDbLinetypeTableRecord
  2
DASHED
 70
    0
  3
Dashed _ _ _ _ _ _ _ _ _ _ _ _ _ _ _ _ _
 72
   65
 73
    2
 40
19.05
 49
12.7
 74
    0
 49
-6.35
 74
    0
  0
LTYPE
  5
37
330
5
100
AcDbSymbolTableRecord
100
AcDbLinetypeTableRecord
  2
DASHEDTINY
 70
    0
  3
Dashed (.15x) _ _ _ _ _ _ _ _ _ _ _ _ _ _ _ _ _
 72
   65
 73
    2
 40
2.8575
 49
1.905
 74
    0
 49
-0.9525
 74
    0
  0
LTYPE
  5
38
330
5
100
AcDbSymbolTableRecord
100
AcDbLinetypeTableRecord
  2
DASHED2
 70
    0
  3
Dashed (.5x) _ _ _ _ _ _ _ _ _ _ _ _ _ _ _ _ _
 72
   65
 73
    2
 40
9.524999999999999
 49
6.35
 74
    0
 49
-3.175
 74
    0
  0
LTYPE
  5
39
330
5
100
AcDbSymbolTableRecord
100
AcDbLinetypeTableRecord
  2
DASHEDX2
 70
    0
  3
Dashed (2x) ____  ____  ____  ____  ____  ___
 72
   65
 73
    2
 40
38.09999999999999
 49
25.4
 74
    0
 49
-12.7
 74
    0
  0
LTYPE
  5
3A
330
5
100
AcDbSymbolTableRecord
100
AcDbLinetypeTableRecord
  2
DASHDOT
 70
    0
  3
Dash dot __ . __ . __ . __ . __ . __ . __ . __
 72
   65
 73
    4
 40
25.4
 49
12.7
 74
    0
 49
-6.35
 74
    0
 49
0
 74
    0
 49
-6.35
 74
    0
  0
LTYPE
  5
3B
330
5
100
AcDbSymbolTableRecord
100
AcDbLinetypeTableRecord
  2
DASHDOTTINY
 70
    0
  3
Dash dot (.15x) _._._._._._._._._._._._._._._.
 72
   65
 73
    4
 40
3.81
 49
1.905
 74
    0
 49
-0.9525
 74
    0
 49
0
 74
    0
 49
-0.9525
 74
    0
  0
LTYPE
  5
3C
330
5
100
AcDbSymbolTableRecord
100
AcDbLinetypeTableRecord
  2
DASHDOT2
 70
    0
  3
Dash dot (.5x) _._._._._._._._._._._._._._._.
 72
   65
 73
    4
 40
12.7
 49
6.35
 74
    0
 49
-3.175
 74
    0
 49
0
 74
    0
 49
-3.175
 74
    0
  0
LTYPE
  5
3D
330
5
100
AcDbSymbolTableRecord
100
AcDbLinetypeTableRecord
  2
DASHDOTX2
 70
    0
  3
Dash dot (2x) ____  .  ____  .  ____  .  ___
 72
   65
 73
    4
 40
50.8
 49
25.4
 74
    0
 49
-12.7
 74
    0
 49
0
 74
    0
 49
-12.7
 74
    0
  0
LTYPE
  5
3E
330
5
100
AcDbSymbolTableRecord
100
AcDbLinetypeTableRecord
  2
DIVIDE
 70
    0
  3
Divide ____ . . ____ . . ____ . . ____ . . ____
 72
   65
 73
    6
 40
31.75
 49
12.7
 74
    0
 49
-6.35
 74
    0
 49
0
 74
    0
 49
-6.35
 74
    0
 49
0
 74
    0
 49
-6.35
 74
    0
  0
LTYPE
  5
3F
330
5
100
AcDbSymbolTableRecord
100
AcDbLinetypeTableRecord
  2
DIVIDETINY
 70
    0
  3
Divide (.15x) __..__..__..__..__..__..__..__.._
 72
   65
 73
    6
 40
4.7625
 49
1.905
 74
    0
 49
-0.9525
 74
    0
 49
0
 74
    0
 49
-0.9525
 74
    0
 49
0
 74
    0
 49
-0.9525
 74
    0
  0
LTYPE
  5
40
330
5
100
AcDbSymbolTableRecord
100
AcDbLinetypeTableRecord
  2
DIVIDE2
 70
    0
  3
Divide (.5x) __..__..__..__..__..__..__..__.._
 72
   65
 73
    6
 40
15.875
 49
6.35
 74
    0
 49
-3.175
 74
    0
 49
0
 74
    0
 49
-3.175
 74
    0
 49
0
 74
    0
 49
-3.175
 74
    0
  0
LTYPE
  5
41
330
5
100
AcDbSymbolTableRecord
100
AcDbLinetypeTableRecord
  2
DIVIDEX2
 70
    0
  3
Divide (2x) ________  .  .  ________  .  .  _
 72
   65
 73
    6
 40
63.5
 49
25.4
 74
    0
 49
-12.7
 74
    0
 49
0
 74
    0
 49
-12.7
 74
    0
 49
0
 74
    0
 49
-12.7
 74
    0
  0
LTYPE
  5
42
330
5
100
AcDbSymbolTableRecord
100
AcDbLinetypeTableRecord
  2
BORDER
 70
    0
  3
Border __ __ . __ __ . __ __ . __ __ . __ __ .
 72
   65
 73
    6
 40
44.45
 49
12.7
 74
    0
 49
-6.35
 74
    0
 49
12.7
 74
    0
 49
-6.35
 74
    0
 49
0
 74
    0
 49
-6.35
 74
    0
  0
LTYPE
  5
43
330
5
100
AcDbSymbolTableRecord
100
AcDbLinetypeTableRecord
  2
BORDERTINY
 70
    0
  3
Border (.15x) __.__.__.__.__.__.__.__.__.__.__.
 72
   65
 73
    6
 40
6.6675
 49
1.905
 74
    0
 49
-0.9525
 74
    0
 49
1.905
 74
    0
 49
-0.9525
 74
    0
 49
0
 74
    0
 49
-0.9525
 74
    0
  0
LTYPE
  5
44
330
5
100
AcDbSymbolTableRecord
100
AcDbLinetypeTableRecord
  2
BORDER2
 70
    0
  3
Border (.5x) __.__.__.__.__.__.__.__.__.__.__.
 72
   65
 73
    6
 40
22.225
 49
6.35
 74
    0
 49
-3.175
 74
    0
 49
6.35
 74
    0
 49
-3.175
 74
    0
 49
0
 74
    0
 49
-3.175
 74
    0
  0
LTYPE
  5
45
330
5
100
AcDbSymbolTableRecord
100
AcDbLinetypeTableRecord
  2
BORDERX2
 70
    0
  3
Border (2x) ____  ____  .  ____  ____  .  ___
 72
   65
 73
    6
 40
88.89999999999999
 49
25.4
 74
    0
 49
-12.7
 74
    0
 49
25.4
 74
    0
 49
-12.7
 74
    0
 49
0
 74
    0
 49
-12.7
 74
    0
  0
LTYPE
  5
46
330
5
100
AcDbSymbolTableRecord
100
AcDbLinetypeTableRecord
  2
CENTER
 70
    0
  3
Center ____ _ ____ _ ____ _ ____ _ ____ _ ____
 72
   65
 73
    4
 40
50.8
 49
31.75
 74
    0
 49
-6.35
 74
    0
 49
6.35
 74
    0
 49
-6.35
 74
    0
  0
LTYPE
  5
47
330
5
100
AcDbSymbolTableRecord
100
AcDbLinetypeTableRecord
  2
CENTERTINY
 70
    0
  3
Center (.15x) ___ _ ___ _ ___ _ ___ _ ___ _ ___
 72
   65
 73
    4
 40
7.62
 49
4.7625
 74
    0
 49
-0.9525
 74
    0
 49
0.9525
 74
    0
 49
-0.9525
 74
    0
  0
LTYPE
  5
48
330
5
100
AcDbSymbolTableRecord
100
AcDbLinetypeTableRecord
  2
CENTER2
 70
    0
  3
Center (.5x) ___ _ ___ _ ___ _ ___ _ ___ _ ___
 72
   65
 73
    4
 40
28.575
 49
19.05
 74
    0
 49
-3.175
 74
    0
 49
3.175
 74
    0
 49
-3.175
 74
    0
  0
LTYPE
  5
49
330
5
100
AcDbSymbolTableRecord
100
AcDbLinetypeTableRecord
  2
CENTERX2
 70
    0
  3
Center (2x) ________  __  ________  __  _____
 72
   65
 73
    4
 40
101.6
 49
63.5
 74
    0
 49
-12.7
 74
    0
 49
12.7
 74
    0
 49
-12.7
 74
    0
  0
ENDTAB
  0
TABLE
  2
LAYER
  5
2
330
0
100
AcDbSymbolTable
 70
    1
  0
LAYER
  5
10
330
2
100
AcDbSymbolTableRecord
100
AcDbLayerTableRecord
  2
0
 70
    0
 62
    7
  6
CONTINUOUS
370
    0
390
F
  0
LAYER
  5
4A
330
2
100
AcDbSymbolTableRecord
100
AcDbLayerTableRecord
  2
BLACK
 70
    0
 62
    7
  6
CONTINUOUS
370
   -3
390
F
  0
LAYER
  5
4B
330
2
100
AcDbSymbolTableRecord
100
AcDbLayerTableRecord
  2
BLUE1
 70
    0
 62
  178
  6
CONTINUOUS
370
   -3
390
F
  0
LAYER
  5
4C
330
2
100
AcDbSymbolTableRecord
100
AcDbLayerTableRecord
  2
BLUE2
 70
    0
 62
    5
  6
CONTINUOUS
370
   -3
390
F
  0
LAYER
  5
4D
330
2
100
AcDbSymbolTableRecord
100
AcDbLayerTableRecord
  2
BLUE3
 70
    0
 62
  171
  6
CONTINUOUS
370
   -3
390
F
  0
LAYER
  5
4E
330
2
100
AcDbSymbolTableRecord
100
AcDbLayerTableRecord
  2
BLUE4
 70
    0
 62
    5
  6
CONTINUOUS
370
   -3
390
F
  0
LAYER
  5
4F
330
2
100
AcDbSymbolTableRecord
100
AcDbLayerTableRecord
  2
BROWN1
 70
    0
 62
   58
  6
CONTINUOUS
370
   -3
390
F
  0
LAYER
  5
50
330
2
100
AcDbSymbolTableRecord
100
AcDbLayerTableRecord
  2
BROWN2
 70
    0
 62
   54
  6
CONTINUOUS
370
   -3
390
F
  0
LAYER
  5
51
330
2
100
AcDbSymbolTableRecord
100
AcDbLayerTableRecord
  2
Black
 70
    0
 62
    7
  6
CONTINUOUS
370
   -3
390
F
  0
LAYER
  5
52
330
2
100
AcDbSymbolTableRecord
100
AcDbLayerTableRecord
  2
CYAN1
 70
    0
 62
  138
  6
CONTINUOUS
370
   -3
390
F
  0
LAYER
  5
53
330
2
100
AcDbSymbolTableRecord
100
AcDbLayerTableRecord
  2
CYAN2
 70
    0
 62
    4
  6
CONTINUOUS
370
   -3
390
F
  0
LAYER
  5
54
330
2
100
AcDbSymbolTableRecord
100
AcDbLayerTableRecord
  2
CYAN3
 70
    0
 62
  131
  6
CONTINUOUS
370
   -3
390
F
  0
LAYER
  5
55
330
2
100
AcDbSymbolTableRecord
100
AcDbLayerTableRecord
  2
CYAN4
 70
    0
 62
    4
  6
CONTINUOUS
370
   -3
390
F
  0
LAYER
  5
56
330
2
100
AcDbSymbolTableRecord
100
AcDbLayerTableRecord
  2
GRAY1
 70
    0
 62
  251
  6
CONTINUOUS
370
   -3
390
F
  0
LAYER
  5
57
330
2
100
AcDbSymbolTableRecord
100
AcDbLayerTableRecord
  2
GRAY2
 70
    0
 62
    8
  6
CONTINUOUS
370
   -3
390
F
  0
LAYER
  5
58
330
2
100
AcDbSymbolTableRecord
100
AcDbLayerTableRecord
  2
GRAY3
 70
    0
 62
    9
  6
CONTINUOUS
370
   -3
390
F
  0
LAYER
  5
59
330
2
100
AcDbSymbolTableRecord
100
AcDbLayerTableRecord
  2
GREEN1
 70
    0
 62
   98
  6
CONTINUOUS
370
   -3
390
F
  0
LAYER
  5
5A
330
2
100
AcDbSymbolTableRecord
100
AcDbLayerTableRecord
  2
GREEN2
 70
    0
 62
    3
  6
CONTINUOUS
370
   -3
390
F
  0
LAYER
  5
5B
330
2
100
AcDbSymbolTableRecord
100
AcDbLayerTableRecord
  2
GREEN3
 70
    0
 62
   91
  6
CONTINUOUS
370
   -3
390
F
  0
LAYER
  5
5C
330
2
100
AcDbSymbolTableRecord
100
AcDbLayerTableRecord
  2
GREEN4
 70
    0
 62
    3
  6
CONTINUOUS
370
   -3
390
F
  0
LAYER
  5
5D
330
2
100
AcDbSymbolTableRecord
100
AcDbLayerTableRecord
  2
LYELLOW
 70
    0
 62
   51
  6
CONTINUOUS
370
   -3
390
F
  0
LAYER
  5
5E
330
2
100
AcDbSymbolTableRecord
100
AcDbLayerTableRecord
  2
MAGENTA1
 70
    0
 62
  228
  6
CONTINUOUS
370
   -3
390
F
  0
LAYER
  5
5F
330
2
100
AcDbSymbolTableRecord
100
AcDbLayerTableRecord
  2
MAGENTA2
 70
    0
 62
    6
  6
CONTINUOUS
370
   -3
390
F
  0
LAYER
  5
60
330
2
100
AcDbSymbolTableRecord
100
AcDbLayerTableRecord
  2
MAGENTA3
 70
    0
 62
  221
  6
CONTINUOUS
370
   -3
390
F
  0
LAYER
  5
61
330
2
100
AcDbSymbolTableRecord
100
AcDbLayerTableRecord
  2
MAGENTA4
 70
    0
 62
    6
  6
CONTINUOUS
370
   -3
390
F
  0
LAYER
  5
62
330
2
100
AcDbSymbolTableRecord
100
AcDbLayerTableRecord
  2
RED1
 70
    0
 62
   18
  6
CONTINUOUS
370
   -3
390
F
  0
LAYER
  5
63
330
2
100
AcDbSymbolTableRecord
100
AcDbLayerTableRecord
  2
RED2
 70
    0
 62
    1
  6
CONTINUOUS
370
   -3
390
F
  0
LAYER
  5
64
330
2
100
AcDbSymbolTableRecord
100
AcDbLayerTableRecord
  2
RED3
 70
    0
 62
   11
  6
CONTINUOUS
370
   -3
390
F
  0
LAYER
  5
65
330
2
100
AcDbSymbolTableRecord
100
AcDbLayerTableRecord
  2
RED4
 70
    0
 62
    1
  6
CONTINUOUS
370
   -3
390
F
  0
LAYER
  5
66
330
2
100
AcDbSymbolTableRecord
100
AcDbLayerTableRecord
  2
WHITE
 70
    0
 62
    7
  6
CONTINUOUS
370
   -3
390
F
  0
LAYER
  5
67
330
2
100
AcDbSymbolTableRecord
100
AcDbLayerTableRecord
  2
YELLOW3
 70
    0
 62
    2
  6
CONTINUOUS
370
   -3
390
F
  0
LAYER
  5
68
330
2
100
AcDbSymbolTableRecord
100
AcDbLayerTableRecord
  2
YELLOW4
 70
    0
 62
    2
  6
CONTINUOUS
370
   -3
390
F
  0
ENDTAB
  0
TABLE
  2
STYLE
  5
3
330
0
100
AcDbSymbolTable
 70
    3
  0
STYLE
  5
69
330
2
100
AcDbSymbolTableRecord
100
AcDbTextStyleTableRecord
  2
Standard
 70
    0
 40
0
 41
1
 50
0
 71
    0
 42
1
  3
txt
  4

  0
ENDTAB
  0
TABLE
  2
VIEW
  5
6
330
0
100
AcDbSymbolTable
 70
    0
  0
ENDTAB
  0
TABLE
  2
UCS
  5
7
330
0
100
AcDbSymbolTable
 70
    0
  0
ENDTAB
  0
TABLE
  2
APPID
  5
9
330
0
100
AcDbSymbolTable
 70
    1
  0
APPID
  5
12
330
9
100
AcDbSymbolTableRecord
100
AcDbRegAppTableRecord
  2
ACAD
 70
    0
  0
APPID
  5
6A
330
9
100
AcDbSymbolTableRecord
100
AcDbRegAppTableRecord
  2
LibreCad
 70
    0
  0
ENDTAB
  0
TABLE
  2
DIMSTYLE
  5
A
330
0
100
AcDbSymbolTable
 70
    1
100
AcDbDimStyleTable
 71
    1
  0
DIMSTYLE
105
6B
330
A
100
AcDbSymbolTableRecord
100
AcDbDimStyleTableRecord
  2
Standard
 70
    0
 40
1
 41
2.5
 42
0.625
 43
0.38
 44
1.25
 45
0
 46
0
 47
0
 48
0
 49
1
140
2.5
141
0.09
142
2.5
143
25.4
144
1
145
0
146
1
147
0.625
148
0
 71
    0
 72
    0
 73
    0
 74
    1
 75
    0
 76
    0
 77
    0
 78
    1
 79
    0
170
    0
171
    2
172
    0
173
    0
174
    0
175
    0
176
    0
177
    0
178
    0
179
    0
271
    2
272
    4
273
    2
274
    2
275
    0
276
    0
277
    2
278
    0
279
    0
280
    0
281
    0
282
    0
283
    1
284
    0
285
    0
286
    0
288
    0
289
    3
340
standard
341

371
   -2
372
   -2
  0
ENDTAB
  0
TABLE
  2
BLOCK_RECORD
  5
1
330
0
100
AcDbSymbolTable
 70
    2
  0
BLOCK_RECORD
  5
1F
330
1
100
AcDbSymbolTableRecord
100
AcDbBlockTableRecord
  2
*Model_Space
 70
    0
280
    1
281
    0
  0
BLOCK_RECORD
  5
1E
330
1
100
AcDbSymbolTableRecord
100
AcDbBlockTableRecord
  2
*Paper_Space
 70
    0
280
    1
281
    0
  0
ENDTAB
  0
ENDSEC
  0
SECTION
  2
BLOCKS
  0
BLOCK
  5
20
330
1F
100
AcDbEntity
  8
0
100
AcDbBlockBegin
  2
*Model_Space
 70
    0
 10
0
 20
0
 30
0
  3
*Model_Space
  1

  0
ENDBLK
  5
21
330
1F
100
AcDbEntity
  8
0
100
AcDbBlockEnd
  0
BLOCK
  5
1C
330
1B
100
AcDbEntity
  8
0
100
AcDbBlockBegin
  2
*Paper_Space
 70
    0
 10
0
 20
0
 30
0
  3
*Paper_Space
  1

  0
ENDBLK
  5
1D
330
1F
100
AcDbEntity
  8
0
100
AcDbBlockEnd
  0
ENDSEC
  0
SECTION
  2
ENTITIES
  0
LINE
  5
6C
100
AcDbEntity
  8
Black
  6
ByLayer
 62
  256
370
   -1
100
AcDbLine
 10
225.399
 20
-102.511
 11
225.427
 21
-102.511
  0
LINE
  5
6D
100
AcDbEntity
  8
Black
  6
ByLayer
 62
  256
370
   -1
100
AcDbLine
 10
225.427
 20
-102.511
 11
225.454
 21
-102.52
  0
LINE
  5
6E
100
AcDbEntity
  8
Black
  6
ByLayer
 62
  256
370
   -1
100
AcDbLine
 10
225.454
 20
-102.52
 11
225.482
 21
-102.525
  0
LINE
  5
6F
100
AcDbEntity
  8
Black
  6
ByLayer
 62
  256
370
   -1
100
AcDbLine
 10
225.482
 20
-102.525
 11
225.507
 21
-102.539
  0
LINE
  5
70
100
AcDbEntity
  8
Black
  6
ByLayer
 62
  256
370
   -1
100
AcDbLine
 10
225.507
 20
-102.539
 11
225.533
 21
-102.549
  0
LINE
  5
71
100
AcDbEntity
  8
Black
  6
ByLayer
 62
  256
370
   -1
100
AcDbLine
 10
225.533
 20
-102.549
 11
225.555
 21
-102.567
  0
LINE
  5
72
100
AcDbEntity
  8
Black
  6
ByLayer
 62
  256
370
   -1
100
AcDbLine
 10
225.555
 20
-102.567
 11
225.58
 21
-102.582
  0
LINE
  5
73
100
AcDbEntity
  8
Black
  6
ByLayer
 62
  256
370
   -1
100
AcDbLine
 10
225.58
 20
-102.582
 11
225.598
 21
-102.603
  0
LINE
  5
74
100
AcDbEntity
  8
Black
  6
ByLayer
 62
  256
370
   -1
100
AcDbLine
 10
225.598
 20
-102.603
 11
225.62
 21
-102.622
  0
LINE
  5
75
100
AcDbEntity
  8
Black
  6
ByLayer
 62
  256
370
   -1
100
AcDbLine
 10
225.62
 20
-102.622
 11
225.634
 21
-102.646
  0
LINE
  5
76
100
AcDbEntity
  8
Black
  6
ByLayer
 62
  256
370
   -1
100
AcDbLine
 10
225.634
 20
-102.646
 11
225.652
 21
-102.668
  0
LINE
  5
77
100
AcDbEntity
  8
Black
  6
ByLayer
 62
  256
370
   -1
100
AcDbLine
 10
225.652
 20
-102.668
 11
225.662
 21
-102.695
  0
LINE
  5
78
100
AcDbEntity
  8
Black
  6
ByLayer
 62
  256
370
   -1
100
AcDbLine
 10
225.662
 20
-102.695
 11
225.676
 21
-102.719
  0
LINE
  5
79
100
AcDbEntity
  8
Black
  6
ByLayer
 62
  256
370
   -1
100
AcDbLine
 10
225.676
 20
-102.719
 11
225.681
 21
-102.747
  0
LINE
  5
7A
100
AcDbEntity
  8
Black
  6
ByLayer
 62
  256
370
   -1
100
AcDbLine
 10
225.681
 20
-102.747
 11
225.691
 21
-102.774
  0
LINE
  5
7B
100
AcDbEntity
  8
Black
  6
ByLayer
 62
  256
370
   -1
100
AcDbLine
 10
225.691
 20
-102.774
 11
225.691
 21
-102.803
  0
LINE
  5
7C
100
AcDbEntity
  8
Black
  6
ByLayer
 62
  256
370
   -1
100
AcDbLine
 10
225.691
 20
-102.803
 11
225.696
 21
-102.831
  0
LINE
  5
7D
100
AcDbEntity
  8
Black
  6
ByLayer
 62
  256
370
   -1
100
AcDbLine
 10
225.696
 20
-102.831
 11
225.696
 21
-107.831
  0
LINE
  5
7E
100
AcDbEntity
  8
Black
  6
ByLayer
 62
  256
370
   -1
100
AcDbLine
 10
225.696
 20
-107.831
 11
225.691
 21
-107.859
  0
LINE
  5
7F
100
AcDbEntity
  8
Black
  6
ByLayer
 62
  256
370
   -1
100
AcDbLine
 10
225.691
 20
-107.859
 11
225.691
 21
-107.887
  0
LINE
  5
80
100
AcDbEntity
  8
Black
  6
ByLayer
 62
  256
370
   -1
100
AcDbLine
 10
225.691
 20
-107.887
 11
225.681
 21
-107.914
  0
LINE
  5
81
100
AcDbEntity
  8
Black
  6
ByLayer
 62
  256
370
   -1
100
AcDbLine
 10
225.681
 20
-107.914
 11
225.676
 21
-107.942
  0
LINE
  5
82
100
AcDbEntity
  8
Black
  6
ByLayer
 62
  256
370
   -1
100
AcDbLine
 10
225.676
 20
-107.942
 11
225.662
 21
-107.966
  0
LINE
  5
83
100
AcDbEntity
  8
Black
  6
ByLayer
 62
  256
370
   -1
100
AcDbLine
 10
225.662
 20
-107.966
 11
225.652
 21
-107.993
  0
LINE
  5
84
100
AcDbEntity
  8
Black
  6
ByLayer
 62
  256
370
   -1
100
AcDbLine
 10
225.652
 20
-107.993
 11
225.634
 21
-108.015
  0
LINE
  5
85
100
AcDbEntity
  8
Black
  6
ByLayer
 62
  256
370
   -1
100
AcDbLine
 10
225.634
 20
-108.015
 11
225.62
 21
-108.04
  0
LINE
  5
86
100
AcDbEntity
  8
Black
  6
ByLayer
 62
  256
370
   -1
100
AcDbLine
 10
225.62
 20
-108.04
 11
225.598
 21
-108.058
  0
LINE
  5
87
100
AcDbEntity
  8
Black
  6
ByLayer
 62
  256
370
   -1
100
AcDbLine
 10
225.598
 20
-108.058
 11
225.58
 21
-108.08
  0
LINE
  5
88
100
AcDbEntity
  8
Black
  6
ByLayer
 62
  256
370
   -1
100
AcDbLine
 10
225.58
 20
-108.08
 11
225.555
 21
-108.094
  0
LINE
  5
89
100
AcDbEntity
  8
Black
  6
ByLayer
 62
  256
370
   -1
100
AcDbLine
 10
225.555
 20
-108.094
 11
225.533
 21
-108.112
  0
LINE
  5
8A
100
AcDbEntity
  8
Black
  6
ByLayer
 62
  256
370
   -1
100
AcDbLine
 10
225.533
 20
-108.112
 11
225.507
 21
-108.122
  0
LINE
  5
8B
100
AcDbEntity
  8
Black
  6
ByLayer
 62
  256
370
   -1
100
AcDbLine
 10
225.507
 20
-108.122
 11
225.482
 21
-108.136
  0
LINE
  5
8C
100
AcDbEntity
  8
Black
  6
ByLayer
 62
  256
370
   -1
100
AcDbLine
 10
225.482
 20
-108.136
 11
225.454
 21
-108.141
  0
LINE
  5
8D
100
AcDbEntity
  8
Black
  6
ByLayer
 62
  256
370
   -1
100
AcDbLine
 10
225.454
 20
-108.141
 11
225.427
 21
-108.151
  0
LINE
  5
8E
100
AcDbEntity
  8
Black
  6
ByLayer
 62
  256
370
   -1
100
AcDbLine
 10
225.427
 20
-108.151
 11
225.399
 21
-108.151
  0
LINE
  5
8F
100
AcDbEntity
  8
Black
  6
ByLayer
 62
  256
370
   -1
100
AcDbLine
 10
225.399
 20
-108.151
 11
225.371
 21
-108.156
  0
LINE
  5
90
100
AcDbEntity
  8
Black
  6
ByLayer
 62
  256
370
   -1
100
AcDbLine
 10
225.371
 20
-108.156
 11
222.037
 21
-108.156
  0
LINE
  5
91
100
AcDbEntity
  8
Black
  6
ByLayer
 62
  256
370
   -1
100
AcDbLine
 10
222.037
 20
-108.156
 11
221.926
 21
-108.136
  0
LINE
  5
92
100
AcDbEntity
  8
Black
  6
ByLayer
 62
  256
370
   -1
100
AcDbLine
 10
221.926
 20
-108.136
 11
221.829
 21
-108.08
  0
LINE
  5
93
100
AcDbEntity
  8
Black
  6
ByLayer
 62
  256
370
   -1
100
AcDbLine
 10
221.829
 20
-108.08
 11
221.756
 21
-107.993
  0
LINE
  5
94
100
AcDbEntity
  8
Black
  6
ByLayer
 62
  256
370
   -1
100
AcDbLine
 10
221.756
 20
-107.993
 11
221.717
 21
-107.887
  0
LINE
  5
95
100
AcDbEntity
  8
Black
  6
ByLayer
 62
  256
370
   -1
100
AcDbLine
 10
221.717
 20
-107.887
 11
221.717
 21
-107.774
  0
LINE
  5
96
100
AcDbEntity
  8
Black
  6
ByLayer
 62
  256
370
   -1
100
AcDbLine
 10
221.717
 20
-107.774
 11
221.756
 21
-107.668
  0
LINE
  5
97
100
AcDbEntity
  8
Black
  6
ByLayer
 62
  256
370
   -1
100
AcDbLine
 10
221.756
 20
-107.668
 11
221.829
 21
-107.582
  0
LINE
  5
98
100
AcDbEntity
  8
Black
  6
ByLayer
 62
  256
370
   -1
100
AcDbLine
 10
221.829
 20
-107.582
 11
221.926
 21
-107.525
  0
LINE
  5
99
100
AcDbEntity
  8
Black
  6
ByLayer
 62
  256
370
   -1
100
AcDbLine
 10
221.926
 20
-107.525
 11
222.037
 21
-107.506
  0
LINE
  5
9A
100
AcDbEntity
  8
Black
  6
ByLayer
 62
  256
370
   -1
100
AcDbLine
 10
222.037
 20
-107.506
 11
225.046
 21
-107.506
  0
LINE
  5
9B
100
AcDbEntity
  8
Black
  6
ByLayer
 62
  256
370
   -1
100
AcDbLine
 10
225.046
 20
-107.506
 11
225.046
 21
-105.537
  0
LINE
  5
9C
100
AcDbEntity
  8
Black
  6
ByLayer
 62
  256
370
   -1
100
AcDbLine
 10
225.046
 20
-105.537
 11
223.037
 21
-105.537
  0
LINE
  5
9D
100
AcDbEntity
  8
Black
  6
ByLayer
 62
  256
370
   -1
100
AcDbLine
 10
223.037
 20
-105.537
 11
222.926
 21
-105.517
  0
LINE
  5
9E
100
AcDbEntity
  8
Black
  6
ByLayer
 62
  256
370
   -1
100
AcDbLine
 10
222.926
 20
-105.517
 11
222.829
 21
-105.461
  0
LINE
  5
9F
100
AcDbEntity
  8
Black
  6
ByLayer
 62
  256
370
   -1
100
AcDbLine
 10
222.829
 20
-105.461
 11
222.756
 21
-105.374
  0
LINE
  5
A0
100
AcDbEntity
  8
Black
  6
ByLayer
 62
  256
370
   -1
100
AcDbLine
 10
222.756
 20
-105.374
 11
222.717
 21
-105.268
  0
LINE
  5
A1
100
AcDbEntity
  8
Black
  6
ByLayer
 62
  256
370
   -1
100
AcDbLine
 10
222.717
 20
-105.268
 11
222.717
 21
-105.155
  0
LINE
  5
A2
100
AcDbEntity
  8
Black
  6
ByLayer
 62
  256
370
   -1
100
AcDbLine
 10
222.717
 20
-105.155
 11
222.756
 21
-105.049
  0
LINE
  5
A3
100
AcDbEntity
  8
Black
  6
ByLayer
 62
  256
370
   -1
100
AcDbLine
 10
222.756
 20
-105.049
 11
222.829
 21
-104.963
  0
LINE
  5
A4
100
AcDbEntity
  8
Black
  6
ByLayer
 62
  256
370
   -1
100
AcDbLine
 10
222.829
 20
-104.963
 11
222.926
 21
-104.906
  0
LINE
  5
A5
100
AcDbEntity
  8
Black
  6
ByLayer
 62
  256
370
   -1
100
AcDbLine
 10
222.926
 20
-104.906
 11
223.037
 21
-104.887
  0
LINE
  5
A6
100
AcDbEntity
  8
Black
  6
ByLayer
 62
  256
370
   -1
100
AcDbLine
 10
223.037
 20
-104.887
 11
225.046
 21
-104.887
  0
LINE
  5
A7
100
AcDbEntity
  8
Black
  6
ByLayer
 62
  256
370
   -1
100
AcDbLine
 10
225.046
 20
-104.887
 11
225.046
 21
-103.156
  0
LINE
  5
A8
100
AcDbEntity
  8
Black
  6
ByLayer
 62
  256
370
   -1
100
AcDbLine
 10
225.046
 20
-103.156
 11
222.037
 21
-103.156
  0
LINE
  5
A9
100
AcDbEntity
  8
Black
  6
ByLayer
 62
  256
370
   -1
100
AcDbLine
 10
222.037
 20
-103.156
 11
221.926
 21
-103.136
  0
LINE
  5
AA
100
AcDbEntity
  8
Black
  6
ByLayer
 62
  256
370
   -1
100
AcDbLine
 10
221.926
 20
-103.136
 11
221.829
 21
-103.08
  0
LINE
  5
AB
100
AcDbEntity
  8
Black
  6
ByLayer
 62
  256
370
   -1
100
AcDbLine
 10
221.829
 20
-103.08
 11
221.756
 21
-102.993
  0
LINE
  5
AC
100
AcDbEntity
  8
Black
  6
ByLayer
 62
  256
370
   -1
100
AcDbLine
 10
221.756
 20
-102.993
 11
221.717
 21
-102.887
  0
LINE
  5
AD
100
AcDbEntity
  8
Black
  6
ByLayer
 62
  256
370
   -1
100
AcDbLine
 10
221.717
 20
-102.887
 11
221.717
 21
-102.774
  0
LINE
  5
AE
100
AcDbEntity
  8
Black
  6
ByLayer
 62
  256
370
   -1
100
AcDbLine
 10
221.717
 20
-102.774
 11
221.756
 21
-102.668
  0
LINE
  5
AF
100
AcDbEntity
  8
Black
  6
ByLayer
 62
  256
370
   -1
100
AcDbLine
 10
221.756
 20
-102.668
 11
221.829
 21
-102.582
  0
LINE
  5
B0
100
AcDbEntity
  8
Black
  6
ByLayer
 62
  256
370
   -1
100
AcDbLine
 10
221.829
 20
-102.582
 11
221.926
 21
-102.525
  0
LINE
  5
B1
100
AcDbEntity
  8
Black
  6
ByLayer
 62
  256
370
   -1
100
AcDbLine
 10
221.926
 20
-102.525
 11
222.037
 21
-102.506
  0
LINE
  5
B2
100
AcDbEntity
  8
Black
  6
ByLayer
 62
  256
370
   -1
100
AcDbLine
 10
222.037
 20
-102.506
 11
225.371
 21
-102.506
  0
LINE
  5
B3
100
AcDbEntity
  8
Black
  6
ByLayer
 62
  256
370
   -1
100
AcDbLine
 10
225.371
 20
-102.506
 11
225.399
 21
-102.511
  0
LINE
  5
B4
100
AcDbEntity
  8
Black
  6
ByLayer
 62
  256
370
   -1
100
AcDbLine
 10
230.408
 20
-102.512
 11
230.446
 21
-102.514
  0
LINE
  5
B5
100
AcDbEntity
  8
Black
  6
ByLayer
 62
  256
370
   -1
100
AcDbLine
 10
230.446
 20
-102.514
 11
231.446
 21
-102.753
  0
LINE
  5
B6
100
AcDbEntity
  8
Black
  6
ByLayer
 62
  256
370
   -1
100
AcDbLine
 10
231.446
 20
-102.753
 11
231.452
 21
-102.755
  0
LINE
  5
B7
100
AcDbEntity
  8
Black
  6
ByLayer
 62
  256
370
   -1
100
AcDbLine
 10
231.452
 20
-102.755
 11
231.458
 21
-102.756
  0
LINE
  5
B8
100
AcDbEntity
  8
Black
  6
ByLayer
 62
  256
370
   -1
100
AcDbLine
 10
231.458
 20
-102.756
 11
231.503
 21
-102.777
  0
LINE
  5
B9
100
AcDbEntity
  8
Black
  6
ByLayer
 62
  256
370
   -1
100
AcDbLine
 10
231.503
 20
-102.777
 11
231.55
 21
-102.797
  0
LINE
  5
BA
100
AcDbEntity
  8
Black
  6
ByLayer
 62
  256
370
   -1
100
AcDbLine
 10
231.55
 20
-102.797
 11
231.554
 21
-102.802
  0
LINE
  5
BB
100
AcDbEntity
  8
Black
  6
ByLayer
 62
  256
370
   -1
100
AcDbLine
 10
231.554
 20
-102.802
 11
231.56
 21
-102.804
  0
LINE
  5
BC
100
AcDbEntity
  8
Black
  6
ByLayer
 62
  256
370
   -1
100
AcDbLine
 10
231.56
 20
-102.804
 11
232.226
 21
-103.28
  0
LINE
  5
BD
100
AcDbEntity
  8
Black
  6
ByLayer
 62
  256
370
   -1
100
AcDbLine
 10
232.226
 20
-103.28
 11
232.265
 21
-103.32
  0
LINE
  5
BE
100
AcDbEntity
  8
Black
  6
ByLayer
 62
  256
370
   -1
100
AcDbLine
 10
232.265
 20
-103.32
 11
232.304
 21
-103.359
  0
LINE
  5
BF
100
AcDbEntity
  8
Black
  6
ByLayer
 62
  256
370
   -1
100
AcDbLine
 10
232.304
 20
-103.359
 11
232.637
 21
-103.835
  0
LINE
  5
C0
100
AcDbEntity
  8
Black
  6
ByLayer
 62
  256
370
   -1
100
AcDbLine
 10
232.637
 20
-103.835
 11
232.656
 21
-103.875
  0
LINE
  5
C1
100
AcDbEntity
  8
Black
  6
ByLayer
 62
  256
370
   -1
100
AcDbLine
 10
232.656
 20
-103.875
 11
232.678
 21
-103.914
  0
LINE
  5
C2
100
AcDbEntity
  8
Black
  6
ByLayer
 62
  256
370
   -1
100
AcDbLine
 10
232.678
 20
-103.914
 11
233.011
 21
-104.866
  0
LINE
  5
C3
100
AcDbEntity
  8
Black
  6
ByLayer
 62
  256
370
   -1
100
AcDbLine
 10
233.011
 20
-104.866
 11
233.02
 21
-104.92
  0
LINE
  5
C4
100
AcDbEntity
  8
Black
  6
ByLayer
 62
  256
370
   -1
100
AcDbLine
 10
233.02
 20
-104.92
 11
233.029
 21
-104.974
  0
LINE
  5
C5
100
AcDbEntity
  8
Black
  6
ByLayer
 62
  256
370
   -1
100
AcDbLine
 10
233.029
 20
-104.974
 11
233.029
 21
-105.688
  0
LINE
  5
C6
100
AcDbEntity
  8
Black
  6
ByLayer
 62
  256
370
   -1
100
AcDbLine
 10
233.029
 20
-105.688
 11
233.02
 21
-105.741
  0
LINE
  5
C7
100
AcDbEntity
  8
Black
  6
ByLayer
 62
  256
370
   -1
100
AcDbLine
 10
233.02
 20
-105.741
 11
233.011
 21
-105.795
  0
LINE
  5
C8
100
AcDbEntity
  8
Black
  6
ByLayer
 62
  256
370
   -1
100
AcDbLine
 10
233.011
 20
-105.795
 11
232.678
 21
-106.748
  0
LINE
  5
C9
100
AcDbEntity
  8
Black
  6
ByLayer
 62
  256
370
   -1
100
AcDbLine
 10
232.678
 20
-106.748
 11
232.656
 21
-106.786
  0
LINE
  5
CA
100
AcDbEntity
  8
Black
  6
ByLayer
 62
  256
370
   -1
100
AcDbLine
 10
232.656
 20
-106.786
 11
232.637
 21
-106.827
  0
LINE
  5
CB
100
AcDbEntity
  8
Black
  6
ByLayer
 62
  256
370
   -1
100
AcDbLine
 10
232.637
 20
-106.827
 11
232.304
 21
-107.303
  0
LINE
  5
CC
100
AcDbEntity
  8
Black
  6
ByLayer
 62
  256
370
   -1
100
AcDbLine
 10
232.304
 20
-107.303
 11
232.265
 21
-107.342
  0
LINE
  5
CD
100
AcDbEntity
  8
Black
  6
ByLayer
 62
  256
370
   -1
100
AcDbLine
 10
232.265
 20
-107.342
 11
232.226
 21
-107.381
  0
LINE
  5
CE
100
AcDbEntity
  8
Black
  6
ByLayer
 62
  256
370
   -1
100
AcDbLine
 10
232.226
 20
-107.381
 11
231.56
 21
-107.857
  0
LINE
  5
CF
100
AcDbEntity
  8
Black
  6
ByLayer
 62
  256
370
   -1
100
AcDbLine
 10
231.56
 20
-107.857
 11
231.554
 21
-107.86
  0
LINE
  5
D0
100
AcDbEntity
  8
Black
  6
ByLayer
 62
  256
370
   -1
100
AcDbLine
 10
231.554
 20
-107.86
 11
231.55
 21
-107.864
  0
LINE
  5
D1
100
AcDbEntity
  8
Black
  6
ByLayer
 62
  256
370
   -1
100
AcDbLine
 10
231.55
 20
-107.864
 11
231.503
 21
-107.884
  0
LINE
  5
D2
100
AcDbEntity
  8
Black
  6
ByLayer
 62
  256
370
   -1
100
AcDbLine
 10
231.503
 20
-107.884
 11
231.458
 21
-107.906
  0
LINE
  5
D3
100
AcDbEntity
  8
Black
  6
ByLayer
 62
  256
370
   -1
100
AcDbLine
 10
231.458
 20
-107.906
 11
231.452
 21
-107.906
  0
LINE
  5
D4
100
AcDbEntity
  8
Black
  6
ByLayer
 62
  256
370
   -1
100
AcDbLine
 10
231.452
 20
-107.906
 11
231.446
 21
-107.909
  0
LINE
  5
D5
100
AcDbEntity
  8
Black
  6
ByLayer
 62
  256
370
   -1
100
AcDbLine
 10
231.446
 20
-107.909
 11
230.446
 21
-108.147
  0
LINE
  5
D6
100
AcDbEntity
  8
Black
  6
ByLayer
 62
  256
370
   -1
100
AcDbLine
 10
230.446
 20
-108.147
 11
230.408
 21
-108.149
  0
LINE
  5
D7
100
AcDbEntity
  8
Black
  6
ByLayer
 62
  256
370
   -1
100
AcDbLine
 10
230.408
 20
-108.149
 11
230.371
 21
-108.156
  0
LINE
  5
D8
100
AcDbEntity
  8
Black
  6
ByLayer
 62
  256
370
   -1
100
AcDbLine
 10
230.371
 20
-108.156
 11
229.704
 21
-108.156
  0
LINE
  5
D9
100
AcDbEntity
  8
Black
  6
ByLayer
 62
  256
370
   -1
100
AcDbLine
 10
229.704
 20
-108.156
 11
229.667
 21
-108.149
  0
LINE
  5
DA
100
AcDbEntity
  8
Black
  6
ByLayer
 62
  256
370
   -1
100
AcDbLine
 10
229.667
 20
-108.149
 11
229.629
 21
-108.147
  0
LINE
  5
DB
100
AcDbEntity
  8
Black
  6
ByLayer
 62
  256
370
   -1
100
AcDbLine
 10
229.629
 20
-108.147
 11
228.629
 21
-107.909
  0
LINE
  5
DC
100
AcDbEntity
  8
Black
  6
ByLayer
 62
  256
370
   -1
100
AcDbLine
 10
228.629
 20
-107.909
 11
228.623
 21
-107.906
  0
LINE
  5
DD
100
AcDbEntity
  8
Black
  6
ByLayer
 62
  256
370
   -1
100
AcDbLine
 10
228.623
 20
-107.906
 11
228.617
 21
-107.906
  0
LINE
  5
DE
100
AcDbEntity
  8
Black
  6
ByLayer
 62
  256
370
   -1
100
AcDbLine
 10
228.617
 20
-107.906
 11
228.572
 21
-107.884
  0
LINE
  5
DF
100
AcDbEntity
  8
Black
  6
ByLayer
 62
  256
370
   -1
100
AcDbLine
 10
228.572
 20
-107.884
 11
228.525
 21
-107.864
  0
LINE
  5
E0
100
AcDbEntity
  8
Black
  6
ByLayer
 62
  256
370
   -1
100
AcDbLine
 10
228.525
 20
-107.864
 11
228.521
 21
-107.86
  0
LINE
  5
E1
100
AcDbEntity
  8
Black
  6
ByLayer
 62
  256
370
   -1
100
AcDbLine
 10
228.521
 20
-107.86
 11
228.515
 21
-107.857
  0
LINE
  5
E2
100
AcDbEntity
  8
Black
  6
ByLayer
 62
  256
370
   -1
100
AcDbLine
 10
228.515
 20
-107.857
 11
228.182
 21
-107.619
  0
LINE
  5
E3
100
AcDbEntity
  8
Black
  6
ByLayer
 62
  256
370
   -1
100
AcDbLine
 10
228.182
 20
-107.619
 11
228.153
 21
-107.59
  0
LINE
  5
E4
100
AcDbEntity
  8
Black
  6
ByLayer
 62
  256
370
   -1
100
AcDbLine
 10
228.153
 20
-107.59
 11
228.122
 21
-107.563
  0
LINE
  5
E5
100
AcDbEntity
  8
Black
  6
ByLayer
 62
  256
370
   -1
100
AcDbLine
 10
228.122
 20
-107.563
 11
228.114
 21
-107.55
  0
LINE
  5
E6
100
AcDbEntity
  8
Black
  6
ByLayer
 62
  256
370
   -1
100
AcDbLine
 10
228.114
 20
-107.55
 11
228.103
 21
-107.538
  0
LINE
  5
E7
100
AcDbEntity
  8
Black
  6
ByLayer
 62
  256
370
   -1
100
AcDbLine
 10
228.103
 20
-107.538
 11
228.086
 21
-107.501
  0
LINE
  5
E8
100
AcDbEntity
  8
Black
  6
ByLayer
 62
  256
370
   -1
100
AcDbLine
 10
228.086
 20
-107.501
 11
228.065
 21
-107.466
  0
LINE
  5
E9
100
AcDbEntity
  8
Black
  6
ByLayer
 62
  256
370
   -1
100
AcDbLine
 10
228.065
 20
-107.466
 11
228.063
 21
-107.45
  0
LINE
  5
EA
100
AcDbEntity
  8
Black
  6
ByLayer
 62
  256
370
   -1
100
AcDbLine
 10
228.063
 20
-107.45
 11
228.056
 21
-107.436
  0
LINE
  5
EB
100
AcDbEntity
  8
Black
  6
ByLayer
 62
  256
370
   -1
100
AcDbLine
 10
228.056
 20
-107.436
 11
228.053
 21
-107.395
  0
LINE
  5
EC
100
AcDbEntity
  8
Black
  6
ByLayer
 62
  256
370
   -1
100
AcDbLine
 10
228.053
 20
-107.395
 11
228.046
 21
-107.354
  0
LINE
  5
ED
100
AcDbEntity
  8
Black
  6
ByLayer
 62
  256
370
   -1
100
AcDbLine
 10
228.046
 20
-107.354
 11
228.046
 21
-105.688
  0
LINE
  5
EE
100
AcDbEntity
  8
Black
  6
ByLayer
 62
  256
370
   -1
100
AcDbLine
 10
228.046
 20
-105.688
 11
228.051
 21
-105.66
  0
LINE
  5
EF
100
AcDbEntity
  8
Black
  6
ByLayer
 62
  256
370
   -1
100
AcDbLine
 10
228.051
 20
-105.66
 11
228.051
 21
-105.631
  0
LINE
  5
F0
100
AcDbEntity
  8
Black
  6
ByLayer
 62
  256
370
   -1
100
AcDbLine
 10
228.051
 20
-105.631
 11
228.06
 21
-105.605
  0
LINE
  5
F1
100
AcDbEntity
  8
Black
  6
ByLayer
 62
  256
370
   -1
100
AcDbLine
 10
228.06
 20
-105.605
 11
228.065
 21
-105.577
  0
LINE
  5
F2
100
AcDbEntity
  8
Black
  6
ByLayer
 62
  256
370
   -1
100
AcDbLine
 10
228.065
 20
-105.577
 11
228.08
 21
-105.552
  0
LINE
  5
F3
100
AcDbEntity
  8
Black
  6
ByLayer
 62
  256
370
   -1
100
AcDbLine
 10
228.08
 20
-105.552
 11
228.089
 21
-105.525
  0
LINE
  5
F4
100
AcDbEntity
  8
Black
  6
ByLayer
 62
  256
370
   -1
100
AcDbLine
 10
228.089
 20
-105.525
 11
228.108
 21
-105.504
  0
LINE
  5
F5
100
AcDbEntity
  8
Black
  6
ByLayer
 62
  256
370
   -1
100
AcDbLine
 10
228.108
 20
-105.504
 11
228.122
 21
-105.479
  0
LINE
  5
F6
100
AcDbEntity
  8
Black
  6
ByLayer
 62
  256
370
   -1
100
AcDbLine
 10
228.122
 20
-105.479
 11
228.144
 21
-105.461
  0
LINE
  5
F7
100
AcDbEntity
  8
Black
  6
ByLayer
 62
  256
370
   -1
100
AcDbLine
 10
228.144
 20
-105.461
 11
228.162
 21
-105.439
  0
LINE
  5
F8
100
AcDbEntity
  8
Black
  6
ByLayer
 62
  256
370
   -1
100
AcDbLine
 10
228.162
 20
-105.439
 11
228.187
 21
-105.425
  0
LINE
  5
F9
100
AcDbEntity
  8
Black
  6
ByLayer
 62
  256
370
   -1
100
AcDbLine
 10
228.187
 20
-105.425
 11
228.208
 21
-105.406
  0
LINE
  5
FA
100
AcDbEntity
  8
Black
  6
ByLayer
 62
  256
370
   -1
100
AcDbLine
 10
228.208
 20
-105.406
 11
228.235
 21
-105.397
  0
LINE
  5
FB
100
AcDbEntity
  8
Black
  6
ByLayer
 62
  256
370
   -1
100
AcDbLine
 10
228.235
 20
-105.397
 11
228.26
 21
-105.382
  0
LINE
  5
FC
100
AcDbEntity
  8
Black
  6
ByLayer
 62
  256
370
   -1
100
AcDbLine
 10
228.26
 20
-105.382
 11
228.288
 21
-105.377
  0
LINE
  5
FD
100
AcDbEntity
  8
Black
  6
ByLayer
 62
  256
370
   -1
100
AcDbLine
 10
228.288
 20
-105.377
 11
228.314
 21
-105.368
  0
LINE
  5
FE
100
AcDbEntity
  8
Black
  6
ByLayer
 62
  256
370
   -1
100
AcDbLine
 10
228.314
 20
-105.368
 11
228.343
 21
-105.368
  0
LINE
  5
FF
100
AcDbEntity
  8
Black
  6
ByLayer
 62
  256
370
   -1
100
AcDbLine
 10
228.343
 20
-105.368
 11
228.371
 21
-105.363
  0
LINE
  5
100
100
AcDbEntity
  8
Black
  6
ByLayer
 62
  256
370
   -1
100
AcDbLine
 10
228.371
 20
-105.363
 11
229.704
 21
-105.363
  0
LINE
  5
101
100
AcDbEntity
  8
Black
  6
ByLayer
 62
  256
370
   -1
100
AcDbLine
 10
229.704
 20
-105.363
 11
229.815
 21
-105.382
  0
LINE
  5
102
100
AcDbEntity
  8
Black
  6
ByLayer
 62
  256
370
   -1
100
AcDbLine
 10
229.815
 20
-105.382
 11
229.913
 21
-105.439
  0
LINE
  5
103
100
AcDbEntity
  8
Black
  6
ByLayer
 62
  256
370
   -1
100
AcDbLine
 10
229.913
 20
-105.439
 11
229.986
 21
-105.525
  0
LINE
  5
104
100
AcDbEntity
  8
Black
  6
ByLayer
 62
  256
370
   -1
100
AcDbLine
 10
229.986
 20
-105.525
 11
230.024
 21
-105.631
  0
LINE
  5
105
100
AcDbEntity
  8
Black
  6
ByLayer
 62
  256
370
   -1
100
AcDbLine
 10
230.024
 20
-105.631
 11
230.024
 21
-105.744
  0
LINE
  5
106
100
AcDbEntity
  8
Black
  6
ByLayer
 62
  256
370
   -1
100
AcDbLine
 10
230.024
 20
-105.744
 11
229.986
 21
-105.85
  0
LINE
  5
107
100
AcDbEntity
  8
Black
  6
ByLayer
 62
  256
370
   -1
100
AcDbLine
 10
229.986
 20
-105.85
 11
229.913
 21
-105.937
  0
LINE
  5
108
100
AcDbEntity
  8
Black
  6
ByLayer
 62
  256
370
   -1
100
AcDbLine
 10
229.913
 20
-105.937
 11
229.815
 21
-105.993
  0
LINE
  5
109
100
AcDbEntity
  8
Black
  6
ByLayer
 62
  256
370
   -1
100
AcDbLine
 10
229.815
 20
-105.993
 11
229.704
 21
-106.013
  0
LINE
  5
10A
100
AcDbEntity
  8
Black
  6
ByLayer
 62
  256
370
   -1
100
AcDbLine
 10
229.704
 20
-106.013
 11
228.696
 21
-106.013
  0
LINE
  5
10B
100
AcDbEntity
  8
Black
  6
ByLayer
 62
  256
370
   -1
100
AcDbLine
 10
228.696
 20
-106.013
 11
228.696
 21
-107.187
  0
LINE
  5
10C
100
AcDbEntity
  8
Black
  6
ByLayer
 62
  256
370
   -1
100
AcDbLine
 10
228.696
 20
-107.187
 11
228.841
 21
-107.291
  0
LINE
  5
10D
100
AcDbEntity
  8
Black
  6
ByLayer
 62
  256
370
   -1
100
AcDbLine
 10
228.841
 20
-107.291
 11
229.742
 21
-107.506
  0
LINE
  5
10E
100
AcDbEntity
  8
Black
  6
ByLayer
 62
  256
370
   -1
100
AcDbLine
 10
229.742
 20
-107.506
 11
230.333
 21
-107.506
  0
LINE
  5
10F
100
AcDbEntity
  8
Black
  6
ByLayer
 62
  256
370
   -1
100
AcDbLine
 10
230.333
 20
-107.506
 11
231.234
 21
-107.291
  0
LINE
  5
110
100
AcDbEntity
  8
Black
  6
ByLayer
 62
  256
370
   -1
100
AcDbLine
 10
231.234
 20
-107.291
 11
231.803
 21
-106.884
  0
LINE
  5
111
100
AcDbEntity
  8
Black
  6
ByLayer
 62
  256
370
   -1
100
AcDbLine
 10
231.803
 20
-106.884
 11
232.079
 21
-106.491
  0
LINE
  5
112
100
AcDbEntity
  8
Black
  6
ByLayer
 62
  256
370
   -1
100
AcDbLine
 10
232.079
 20
-106.491
 11
232.379
 21
-105.633
  0
LINE
  5
113
100
AcDbEntity
  8
Black
  6
ByLayer
 62
  256
370
   -1
100
AcDbLine
 10
232.379
 20
-105.633
 11
232.379
 21
-105.029
  0
LINE
  5
114
100
AcDbEntity
  8
Black
  6
ByLayer
 62
  256
370
   -1
100
AcDbLine
 10
232.379
 20
-105.029
 11
232.079
 21
-104.171
  0
LINE
  5
115
100
AcDbEntity
  8
Black
  6
ByLayer
 62
  256
370
   -1
100
AcDbLine
 10
232.079
 20
-104.171
 11
231.803
 21
-103.777
  0
LINE
  5
116
100
AcDbEntity
  8
Black
  6
ByLayer
 62
  256
370
   -1
100
AcDbLine
 10
231.803
 20
-103.777
 11
231.234
 21
-103.37
  0
LINE
  5
117
100
AcDbEntity
  8
Black
  6
ByLayer
 62
  256
370
   -1
100
AcDbLine
 10
231.234
 20
-103.37
 11
230.333
 21
-103.156
  0
LINE
  5
118
100
AcDbEntity
  8
Black
  6
ByLayer
 62
  256
370
   -1
100
AcDbLine
 10
230.333
 20
-103.156
 11
229.427
 21
-103.156
  0
LINE
  5
119
100
AcDbEntity
  8
Black
  6
ByLayer
 62
  256
370
   -1
100
AcDbLine
 10
229.427
 20
-103.156
 11
228.813
 21
-103.375
  0
LINE
  5
11A
100
AcDbEntity
  8
Black
  6
ByLayer
 62
  256
370
   -1
100
AcDbLine
 10
228.813
 20
-103.375
 11
228.702
 21
-103.394
  0
LINE
  5
11B
100
AcDbEntity
  8
Black
  6
ByLayer
 62
  256
370
   -1
100
AcDbLine
 10
228.702
 20
-103.394
 11
228.591
 21
-103.373
  0
LINE
  5
11C
100
AcDbEntity
  8
Black
  6
ByLayer
 62
  256
370
   -1
100
AcDbLine
 10
228.591
 20
-103.373
 11
228.494
 21
-103.316
  0
LINE
  5
11D
100
AcDbEntity
  8
Black
  6
ByLayer
 62
  256
370
   -1
100
AcDbLine
 10
228.494
 20
-103.316
 11
228.422
 21
-103.23
  0
LINE
  5
11E
100
AcDbEntity
  8
Black
  6
ByLayer
 62
  256
370
   -1
100
AcDbLine
 10
228.422
 20
-103.23
 11
228.384
 21
-103.123
  0
LINE
  5
11F
100
AcDbEntity
  8
Black
  6
ByLayer
 62
  256
370
   -1
100
AcDbLine
 10
228.384
 20
-103.123
 11
228.384
 21
-103.01
  0
LINE
  5
120
100
AcDbEntity
  8
Black
  6
ByLayer
 62
  256
370
   -1
100
AcDbLine
 10
228.384
 20
-103.01
 11
228.424
 21
-102.905
  0
LINE
  5
121
100
AcDbEntity
  8
Black
  6
ByLayer
 62
  256
370
   -1
100
AcDbLine
 10
228.424
 20
-102.905
 11
228.497
 21
-102.819
  0
LINE
  5
122
100
AcDbEntity
  8
Black
  6
ByLayer
 62
  256
370
   -1
100
AcDbLine
 10
228.497
 20
-102.819
 11
228.595
 21
-102.763
  0
LINE
  5
123
100
AcDbEntity
  8
Black
  6
ByLayer
 62
  256
370
   -1
100
AcDbLine
 10
228.595
 20
-102.763
 11
229.262
 21
-102.525
  0
LINE
  5
124
100
AcDbEntity
  8
Black
  6
ByLayer
 62
  256
370
   -1
100
AcDbLine
 10
229.262
 20
-102.525
 11
229.316
 21
-102.515
  0
LINE
  5
125
100
AcDbEntity
  8
Black
  6
ByLayer
 62
  256
370
   -1
100
AcDbLine
 10
229.316
 20
-102.515
 11
229.371
 21
-102.506
  0
LINE
  5
126
100
AcDbEntity
  8
Black
  6
ByLayer
 62
  256
370
   -1
100
AcDbLine
 10
229.371
 20
-102.506
 11
230.371
 21
-102.506
  0
LINE
  5
127
100
AcDbEntity
  8
Black
  6
ByLayer
 62
  256
370
   -1
100
AcDbLine
 10
230.371
 20
-102.506
 11
230.408
 21
-102.512
  0
LINE
  5
128
100
AcDbEntity
  8
Black
  6
ByLayer
 62
  256
370
   -1
100
AcDbLine
 10
250.425
 20
-102.515
 11
250.48
 21
-102.525
  0
LINE
  5
129
100
AcDbEntity
  8
Black
  6
ByLayer
 62
  256
370
   -1
100
AcDbLine
 10
250.48
 20
-102.525
 11
251.147
 21
-102.763
  0
LINE
  5
12A
100
AcDbEntity
  8
Black
  6
ByLayer
 62
  256
370
   -1
100
AcDbLine
 10
251.147
 20
-102.763
 11
251.186
 21
-102.785
  0
LINE
  5
12B
100
AcDbEntity
  8
Black
  6
ByLayer
 62
  256
370
   -1
100
AcDbLine
 10
251.186
 20
-102.785
 11
251.226
 21
-102.804
  0
LINE
  5
12C
100
AcDbEntity
  8
Black
  6
ByLayer
 62
  256
370
   -1
100
AcDbLine
 10
251.226
 20
-102.804
 11
251.893
 21
-103.28
  0
LINE
  5
12D
100
AcDbEntity
  8
Black
  6
ByLayer
 62
  256
370
   -1
100
AcDbLine
 10
251.893
 20
-103.28
 11
251.923
 21
-103.311
  0
LINE
  5
12E
100
AcDbEntity
  8
Black
  6
ByLayer
 62
  256
370
   -1
100
AcDbLine
 10
251.923
 20
-103.311
 11
251.956
 21
-103.339
  0
LINE
  5
12F
100
AcDbEntity
  8
Black
  6
ByLayer
 62
  256
370
   -1
100
AcDbLine
 10
251.956
 20
-103.339
 11
251.962
 21
-103.351
  0
LINE
  5
130
100
AcDbEntity
  8
Black
  6
ByLayer
 62
  256
370
   -1
100
AcDbLine
 10
251.962
 20
-103.351
 11
251.972
 21
-103.361
  0
LINE
  5
131
100
AcDbEntity
  8
Black
  6
ByLayer
 62
  256
370
   -1
100
AcDbLine
 10
251.972
 20
-103.361
 11
251.99
 21
-103.4
  0
LINE
  5
132
100
AcDbEntity
  8
Black
  6
ByLayer
 62
  256
370
   -1
100
AcDbLine
 10
251.99
 20
-103.4
 11
252.011
 21
-103.438
  0
LINE
  5
133
100
AcDbEntity
  8
Black
  6
ByLayer
 62
  256
370
   -1
100
AcDbLine
 10
252.011
 20
-103.438
 11
252.344
 21
-104.39
  0
LINE
  5
134
100
AcDbEntity
  8
Black
  6
ByLayer
 62
  256
370
   -1
100
AcDbLine
 10
252.344
 20
-104.39
 11
252.353
 21
-104.444
  0
LINE
  5
135
100
AcDbEntity
  8
Black
  6
ByLayer
 62
  256
370
   -1
100
AcDbLine
 10
252.353
 20
-104.444
 11
252.362
 21
-104.497
  0
LINE
  5
136
100
AcDbEntity
  8
Black
  6
ByLayer
 62
  256
370
   -1
100
AcDbLine
 10
252.362
 20
-104.497
 11
252.362
 21
-106.164
  0
LINE
  5
137
100
AcDbEntity
  8
Black
  6
ByLayer
 62
  256
370
   -1
100
AcDbLine
 10
252.362
 20
-106.164
 11
252.353
 21
-106.218
  0
LINE
  5
138
100
AcDbEntity
  8
Black
  6
ByLayer
 62
  256
370
   -1
100
AcDbLine
 10
252.353
 20
-106.218
 11
252.344
 21
-106.271
  0
LINE
  5
139
100
AcDbEntity
  8
Black
  6
ByLayer
 62
  256
370
   -1
100
AcDbLine
 10
252.344
 20
-106.271
 11
252.011
 21
-107.224
  0
LINE
  5
13A
100
AcDbEntity
  8
Black
  6
ByLayer
 62
  256
370
   -1
100
AcDbLine
 10
252.011
 20
-107.224
 11
251.99
 21
-107.261
  0
LINE
  5
13B
100
AcDbEntity
  8
Black
  6
ByLayer
 62
  256
370
   -1
100
AcDbLine
 10
251.99
 20
-107.261
 11
251.972
 21
-107.3
  0
LINE
  5
13C
100
AcDbEntity
  8
Black
  6
ByLayer
 62
  256
370
   -1
100
AcDbLine
 10
251.972
 20
-107.3
 11
251.962
 21
-107.31
  0
LINE
  5
13D
100
AcDbEntity
  8
Black
  6
ByLayer
 62
  256
370
   -1
100
AcDbLine
 10
251.962
 20
-107.31
 11
251.956
 21
-107.322
  0
LINE
  5
13E
100
AcDbEntity
  8
Black
  6
ByLayer
 62
  256
370
   -1
100
AcDbLine
 10
251.956
 20
-107.322
 11
251.923
 21
-107.35
  0
LINE
  5
13F
100
AcDbEntity
  8
Black
  6
ByLayer
 62
  256
370
   -1
100
AcDbLine
 10
251.923
 20
-107.35
 11
251.893
 21
-107.381
  0
LINE
  5
140
100
AcDbEntity
  8
Black
  6
ByLayer
 62
  256
370
   -1
100
AcDbLine
 10
251.893
 20
-107.381
 11
251.226
 21
-107.857
  0
LINE
  5
141
100
AcDbEntity
  8
Black
  6
ByLayer
 62
  256
370
   -1
100
AcDbLine
 10
251.226
 20
-107.857
 11
251.186
 21
-107.876
  0
LINE
  5
142
100
AcDbEntity
  8
Black
  6
ByLayer
 62
  256
370
   -1
100
AcDbLine
 10
251.186
 20
-107.876
 11
251.147
 21
-107.899
  0
LINE
  5
143
100
AcDbEntity
  8
Black
  6
ByLayer
 62
  256
370
   -1
100
AcDbLine
 10
251.147
 20
-107.899
 11
250.48
 21
-108.137
  0
LINE
  5
144
100
AcDbEntity
  8
Black
  6
ByLayer
 62
  256
370
   -1
100
AcDbLine
 10
250.48
 20
-108.137
 11
250.425
 21
-108.146
  0
LINE
  5
145
100
AcDbEntity
  8
Black
  6
ByLayer
 62
  256
370
   -1
100
AcDbLine
 10
250.425
 20
-108.146
 11
250.371
 21
-108.156
  0
LINE
  5
146
100
AcDbEntity
  8
Black
  6
ByLayer
 62
  256
370
   -1
100
AcDbLine
 10
250.371
 20
-108.156
 11
249.037
 21
-108.156
  0
LINE
  5
147
100
AcDbEntity
  8
Black
  6
ByLayer
 62
  256
370
   -1
100
AcDbLine
 10
249.037
 20
-108.156
 11
248.983
 21
-108.146
  0
LINE
  5
148
100
AcDbEntity
  8
Black
  6
ByLayer
 62
  256
370
   -1
100
AcDbLine
 10
248.983
 20
-108.146
 11
248.928
 21
-108.137
  0
LINE
  5
149
100
AcDbEntity
  8
Black
  6
ByLayer
 62
  256
370
   -1
100
AcDbLine
 10
248.928
 20
-108.137
 11
248.262
 21
-107.899
  0
LINE
  5
14A
100
AcDbEntity
  8
Black
  6
ByLayer
 62
  256
370
   -1
100
AcDbLine
 10
248.262
 20
-107.899
 11
248.222
 21
-107.876
  0
LINE
  5
14B
100
AcDbEntity
  8
Black
  6
ByLayer
 62
  256
370
   -1
100
AcDbLine
 10
248.222
 20
-107.876
 11
248.182
 21
-107.857
  0
LINE
  5
14C
100
AcDbEntity
  8
Black
  6
ByLayer
 62
  256
370
   -1
100
AcDbLine
 10
248.182
 20
-107.857
 11
247.515
 21
-107.381
  0
LINE
  5
14D
100
AcDbEntity
  8
Black
  6
ByLayer
 62
  256
370
   -1
100
AcDbLine
 10
247.515
 20
-107.381
 11
247.485
 21
-107.35
  0
LINE
  5
14E
100
AcDbEntity
  8
Black
  6
ByLayer
 62
  256
370
   -1
100
AcDbLine
 10
247.485
 20
-107.35
 11
247.453
 21
-107.322
  0
LINE
  5
14F
100
AcDbEntity
  8
Black
  6
ByLayer
 62
  256
370
   -1
100
AcDbLine
 10
247.453
 20
-107.322
 11
247.446
 21
-107.31
  0
LINE
  5
150
100
AcDbEntity
  8
Black
  6
ByLayer
 62
  256
370
   -1
100
AcDbLine
 10
247.446
 20
-107.31
 11
247.436
 21
-107.3
  0
LINE
  5
151
100
AcDbEntity
  8
Black
  6
ByLayer
 62
  256
370
   -1
100
AcDbLine
 10
247.436
 20
-107.3
 11
247.418
 21
-107.261
  0
LINE
  5
152
100
AcDbEntity
  8
Black
  6
ByLayer
 62
  256
370
   -1
100
AcDbLine
 10
247.418
 20
-107.261
 11
247.397
 21
-107.224
  0
LINE
  5
153
100
AcDbEntity
  8
Black
  6
ByLayer
 62
  256
370
   -1
100
AcDbLine
 10
247.397
 20
-107.224
 11
247.064
 21
-106.271
  0
LINE
  5
154
100
AcDbEntity
  8
Black
  6
ByLayer
 62
  256
370
   -1
100
AcDbLine
 10
247.064
 20
-106.271
 11
247.055
 21
-106.218
  0
LINE
  5
155
100
AcDbEntity
  8
Black
  6
ByLayer
 62
  256
370
   -1
100
AcDbLine
 10
247.055
 20
-106.218
 11
247.046
 21
-106.164
  0
LINE
  5
156
100
AcDbEntity
  8
Black
  6
ByLayer
 62
  256
370
   -1
100
AcDbLine
 10
247.046
 20
-106.164
 11
247.046
 21
-104.497
  0
LINE
  5
157
100
AcDbEntity
  8
Black
  6
ByLayer
 62
  256
370
   -1
100
AcDbLine
 10
247.046
 20
-104.497
 11
247.055
 21
-104.444
  0
LINE
  5
158
100
AcDbEntity
  8
Black
  6
ByLayer
 62
  256
370
   -1
100
AcDbLine
 10
247.055
 20
-104.444
 11
247.064
 21
-104.39
  0
LINE
  5
159
100
AcDbEntity
  8
Black
  6
ByLayer
 62
  256
370
   -1
100
AcDbLine
 10
247.064
 20
-104.39
 11
247.397
 21
-103.438
  0
LINE
  5
15A
100
AcDbEntity
  8
Black
  6
ByLayer
 62
  256
370
   -1
100
AcDbLine
 10
247.397
 20
-103.438
 11
247.418
 21
-103.4
  0
LINE
  5
15B
100
AcDbEntity
  8
Black
  6
ByLayer
 62
  256
370
   -1
100
AcDbLine
 10
247.418
 20
-103.4
 11
247.436
 21
-103.361
  0
LINE
  5
15C
100
AcDbEntity
  8
Black
  6
ByLayer
 62
  256
370
   -1
100
AcDbLine
 10
247.436
 20
-103.361
 11
247.446
 21
-103.351
  0
LINE
  5
15D
100
AcDbEntity
  8
Black
  6
ByLayer
 62
  256
370
   -1
100
AcDbLine
 10
247.446
 20
-103.351
 11
247.453
 21
-103.339
  0
LINE
  5
15E
100
AcDbEntity
  8
Black
  6
ByLayer
 62
  256
370
   -1
100
AcDbLine
 10
247.453
 20
-103.339
 11
247.485
 21
-103.311
  0
LINE
  5
15F
100
AcDbEntity
  8
Black
  6
ByLayer
 62
  256
370
   -1
100
AcDbLine
 10
247.485
 20
-103.311
 11
247.515
 21
-103.28
  0
LINE
  5
160
100
AcDbEntity
  8
Black
  6
ByLayer
 62
  256
370
   -1
100
AcDbLine
 10
247.515
 20
-103.28
 11
248.182
 21
-102.804
  0
LINE
  5
161
100
AcDbEntity
  8
Black
  6
ByLayer
 62
  256
370
   -1
100
AcDbLine
 10
248.182
 20
-102.804
 11
248.222
 21
-102.785
  0
LINE
  5
162
100
AcDbEntity
  8
Black
  6
ByLayer
 62
  256
370
   -1
100
AcDbLine
 10
248.222
 20
-102.785
 11
248.262
 21
-102.763
  0
LINE
  5
163
100
AcDbEntity
  8
Black
  6
ByLayer
 62
  256
370
   -1
100
AcDbLine
 10
248.262
 20
-102.763
 11
248.928
 21
-102.525
  0
LINE
  5
164
100
AcDbEntity
  8
Black
  6
ByLayer
 62
  256
370
   -1
100
AcDbLine
 10
248.928
 20
-102.525
 11
248.983
 21
-102.515
  0
LINE
  5
165
100
AcDbEntity
  8
Black
  6
ByLayer
 62
  256
370
   -1
100
AcDbLine
 10
248.983
 20
-102.515
 11
249.037
 21
-102.506
  0
LINE
  5
166
100
AcDbEntity
  8
Black
  6
ByLayer
 62
  256
370
   -1
100
AcDbLine
 10
249.037
 20
-102.506
 11
250.371
 21
-102.506
  0
LINE
  5
167
100
AcDbEntity
  8
Black
  6
ByLayer
 62
  256
370
   -1
100
AcDbLine
 10
250.371
 20
-102.506
 11
250.425
 21
-102.515
  0
LINE
  5
168
100
AcDbEntity
  8
Black
  6
ByLayer
 62
  256
370
   -1
100
AcDbLine
 10
249.094
 20
-103.156
 11
248.523
 21
-103.36
  0
LINE
  5
169
100
AcDbEntity
  8
Black
  6
ByLayer
 62
  256
370
   -1
100
AcDbLine
 10
248.523
 20
-103.36
 11
247.977
 21
-103.75
  0
LINE
  5
16A
100
AcDbEntity
  8
Black
  6
ByLayer
 62
  256
370
   -1
100
AcDbLine
 10
247.977
 20
-103.75
 11
247.696
 21
-104.553
  0
LINE
  5
16B
100
AcDbEntity
  8
Black
  6
ByLayer
 62
  256
370
   -1
100
AcDbLine
 10
247.696
 20
-104.553
 11
247.696
 21
-106.109
  0
LINE
  5
16C
100
AcDbEntity
  8
Black
  6
ByLayer
 62
  256
370
   -1
100
AcDbLine
 10
247.696
 20
-106.109
 11
247.977
 21
-106.912
  0
LINE
  5
16D
100
AcDbEntity
  8
Black
  6
ByLayer
 62
  256
370
   -1
100
AcDbLine
 10
247.977
 20
-106.912
 11
248.523
 21
-107.302
  0
LINE
  5
16E
100
AcDbEntity
  8
Black
  6
ByLayer
 62
  256
370
   -1
100
AcDbLine
 10
248.523
 20
-107.302
 11
249.094
 21
-107.506
  0
LINE
  5
16F
100
AcDbEntity
  8
Black
  6
ByLayer
 62
  256
370
   -1
100
AcDbLine
 10
249.094
 20
-107.506
 11
250.315
 21
-107.506
  0
LINE
  5
170
100
AcDbEntity
  8
Black
  6
ByLayer
 62
  256
370
   -1
100
AcDbLine
 10
250.315
 20
-107.506
 11
250.885
 21
-107.302
  0
LINE
  5
171
100
AcDbEntity
  8
Black
  6
ByLayer
 62
  256
370
   -1
100
AcDbLine
 10
250.885
 20
-107.302
 11
251.431
 21
-106.912
  0
LINE
  5
172
100
AcDbEntity
  8
Black
  6
ByLayer
 62
  256
370
   -1
100
AcDbLine
 10
251.431
 20
-106.912
 11
251.712
 21
-106.109
  0
LINE
  5
173
100
AcDbEntity
  8
Black
  6
ByLayer
 62
  256
370
   -1
100
AcDbLine
 10
251.712
 20
-106.109
 11
251.712
 21
-104.553
  0
LINE
  5
174
100
AcDbEntity
  8
Black
  6
ByLayer
 62
  256
370
   -1
100
AcDbLine
 10
251.712
 20
-104.553
 11
251.431
 21
-103.75
  0
LINE
  5
175
100
AcDbEntity
  8
Black
  6
ByLayer
 62
  256
370
   -1
100
AcDbLine
 10
251.431
 20
-103.75
 11
250.885
 21
-103.36
  0
LINE
  5
176
100
AcDbEntity
  8
Black
  6
ByLayer
 62
  256
370
   -1
100
AcDbLine
 10
250.885
 20
-103.36
 11
250.315
 21
-103.156
  0
LINE
  5
177
100
AcDbEntity
  8
Black
  6
ByLayer
 62
  256
370
   -1
100
AcDbLine
 10
250.315
 20
-103.156
 11
249.094
 21
-103.156
  0
LINE
  5
178
100
AcDbEntity
  8
Black
  6
ByLayer
 62
  256
370
   -1
100
AcDbLine
 10
237.093
 20
-102.514
 11
237.122
 21
-102.517
  0
LINE
  5
179
100
AcDbEntity
  8
Black
  6
ByLayer
 62
  256
370
   -1
100
AcDbLine
 10
237.122
 20
-102.517
 11
237.147
 21
-102.529
  0
LINE
  5
17A
100
AcDbEntity
  8
Black
  6
ByLayer
 62
  256
370
   -1
100
AcDbLine
 10
237.147
 20
-102.529
 11
237.175
 21
-102.536
  0
LINE
  5
17B
100
AcDbEntity
  8
Black
  6
ByLayer
 62
  256
370
   -1
100
AcDbLine
 10
237.175
 20
-102.536
 11
237.198
 21
-102.552
  0
LINE
  5
17C
100
AcDbEntity
  8
Black
  6
ByLayer
 62
  256
370
   -1
100
AcDbLine
 10
237.198
 20
-102.552
 11
237.224
 21
-102.564
  0
LINE
  5
17D
100
AcDbEntity
  8
Black
  6
ByLayer
 62
  256
370
   -1
100
AcDbLine
 10
237.224
 20
-102.564
 11
237.244
 21
-102.585
  0
LINE
  5
17E
100
AcDbEntity
  8
Black
  6
ByLayer
 62
  256
370
   -1
100
AcDbLine
 10
237.244
 20
-102.585
 11
237.267
 21
-102.601
  0
LINE
  5
17F
100
AcDbEntity
  8
Black
  6
ByLayer
 62
  256
370
   -1
100
AcDbLine
 10
237.267
 20
-102.601
 11
237.284
 21
-102.624
  0
LINE
  5
180
100
AcDbEntity
  8
Black
  6
ByLayer
 62
  256
370
   -1
100
AcDbLine
 10
237.284
 20
-102.624
 11
237.304
 21
-102.644
  0
LINE
  5
181
100
AcDbEntity
  8
Black
  6
ByLayer
 62
  256
370
   -1
100
AcDbLine
 10
237.304
 20
-102.644
 11
237.316
 21
-102.67
  0
LINE
  5
182
100
AcDbEntity
  8
Black
  6
ByLayer
 62
  256
370
   -1
100
AcDbLine
 10
237.316
 20
-102.67
 11
237.332
 21
-102.693
  0
LINE
  5
183
100
AcDbEntity
  8
Black
  6
ByLayer
 62
  256
370
   -1
100
AcDbLine
 10
237.332
 20
-102.693
 11
239.665
 21
-107.693
  0
LINE
  5
184
100
AcDbEntity
  8
Black
  6
ByLayer
 62
  256
370
   -1
100
AcDbLine
 10
239.665
 20
-107.693
 11
239.695
 21
-107.802
  0
LINE
  5
185
100
AcDbEntity
  8
Black
  6
ByLayer
 62
  256
370
   -1
100
AcDbLine
 10
239.695
 20
-107.802
 11
239.685
 21
-107.915
  0
LINE
  5
186
100
AcDbEntity
  8
Black
  6
ByLayer
 62
  256
370
   -1
100
AcDbLine
 10
239.685
 20
-107.915
 11
239.637
 21
-108.017
  0
LINE
  5
187
100
AcDbEntity
  8
Black
  6
ByLayer
 62
  256
370
   -1
100
AcDbLine
 10
239.637
 20
-108.017
 11
239.557
 21
-108.097
  0
LINE
  5
188
100
AcDbEntity
  8
Black
  6
ByLayer
 62
  256
370
   -1
100
AcDbLine
 10
239.557
 20
-108.097
 11
239.455
 21
-108.145
  0
LINE
  5
189
100
AcDbEntity
  8
Black
  6
ByLayer
 62
  256
370
   -1
100
AcDbLine
 10
239.455
 20
-108.145
 11
239.343
 21
-108.154
  0
LINE
  5
18A
100
AcDbEntity
  8
Black
  6
ByLayer
 62
  256
370
   -1
100
AcDbLine
 10
239.343
 20
-108.154
 11
239.234
 21
-108.125
  0
LINE
  5
18B
100
AcDbEntity
  8
Black
  6
ByLayer
 62
  256
370
   -1
100
AcDbLine
 10
239.234
 20
-108.125
 11
239.141
 21
-108.061
  0
LINE
  5
18C
100
AcDbEntity
  8
Black
  6
ByLayer
 62
  256
370
   -1
100
AcDbLine
 10
239.141
 20
-108.061
 11
239.076
 21
-107.968
  0
LINE
  5
18D
100
AcDbEntity
  8
Black
  6
ByLayer
 62
  256
370
   -1
100
AcDbLine
 10
239.076
 20
-107.968
 11
238.497
 21
-106.727
  0
LINE
  5
18E
100
AcDbEntity
  8
Black
  6
ByLayer
 62
  256
370
   -1
100
AcDbLine
 10
238.497
 20
-106.727
 11
235.578
 21
-106.727
  0
LINE
  5
18F
100
AcDbEntity
  8
Black
  6
ByLayer
 62
  256
370
   -1
100
AcDbLine
 10
235.578
 20
-106.727
 11
234.999
 21
-107.968
  0
LINE
  5
190
100
AcDbEntity
  8
Black
  6
ByLayer
 62
  256
370
   -1
100
AcDbLine
 10
234.999
 20
-107.968
 11
234.934
 21
-108.061
  0
LINE
  5
191
100
AcDbEntity
  8
Black
  6
ByLayer
 62
  256
370
   -1
100
AcDbLine
 10
234.934
 20
-108.061
 11
234.841
 21
-108.125
  0
LINE
  5
192
100
AcDbEntity
  8
Black
  6
ByLayer
 62
  256
370
   -1
100
AcDbLine
 10
234.841
 20
-108.125
 11
234.732
 21
-108.154
  0
LINE
  5
193
100
AcDbEntity
  8
Black
  6
ByLayer
 62
  256
370
   -1
100
AcDbLine
 10
234.732
 20
-108.154
 11
234.62
 21
-108.145
  0
LINE
  5
194
100
AcDbEntity
  8
Black
  6
ByLayer
 62
  256
370
   -1
100
AcDbLine
 10
234.62
 20
-108.145
 11
234.518
 21
-108.097
  0
LINE
  5
195
100
AcDbEntity
  8
Black
  6
ByLayer
 62
  256
370
   -1
100
AcDbLine
 10
234.518
 20
-108.097
 11
234.438
 21
-108.017
  0
LINE
  5
196
100
AcDbEntity
  8
Black
  6
ByLayer
 62
  256
370
   -1
100
AcDbLine
 10
234.438
 20
-108.017
 11
234.39
 21
-107.915
  0
LINE
  5
197
100
AcDbEntity
  8
Black
  6
ByLayer
 62
  256
370
   -1
100
AcDbLine
 10
234.39
 20
-107.915
 11
234.38
 21
-107.802
  0
LINE
  5
198
100
AcDbEntity
  8
Black
  6
ByLayer
 62
  256
370
   -1
100
AcDbLine
 10
234.38
 20
-107.802
 11
234.41
 21
-107.693
  0
LINE
  5
199
100
AcDbEntity
  8
Black
  6
ByLayer
 62
  256
370
   -1
100
AcDbLine
 10
234.41
 20
-107.693
 11
236.743
 21
-102.693
  0
LINE
  5
19A
100
AcDbEntity
  8
Black
  6
ByLayer
 62
  256
370
   -1
100
AcDbLine
 10
236.743
 20
-102.693
 11
236.759
 21
-102.67
  0
LINE
  5
19B
100
AcDbEntity
  8
Black
  6
ByLayer
 62
  256
370
   -1
100
AcDbLine
 10
236.759
 20
-102.67
 11
236.771
 21
-102.644
  0
LINE
  5
19C
100
AcDbEntity
  8
Black
  6
ByLayer
 62
  256
370
   -1
100
AcDbLine
 10
236.771
 20
-102.644
 11
236.791
 21
-102.624
  0
LINE
  5
19D
100
AcDbEntity
  8
Black
  6
ByLayer
 62
  256
370
   -1
100
AcDbLine
 10
236.791
 20
-102.624
 11
236.808
 21
-102.601
  0
LINE
  5
19E
100
AcDbEntity
  8
Black
  6
ByLayer
 62
  256
370
   -1
100
AcDbLine
 10
236.808
 20
-102.601
 11
236.831
 21
-102.585
  0
LINE
  5
19F
100
AcDbEntity
  8
Black
  6
ByLayer
 62
  256
370
   -1
100
AcDbLine
 10
236.831
 20
-102.585
 11
236.851
 21
-102.564
  0
LINE
  5
1A0
100
AcDbEntity
  8
Black
  6
ByLayer
 62
  256
370
   -1
100
AcDbLine
 10
236.851
 20
-102.564
 11
236.877
 21
-102.552
  0
LINE
  5
1A1
100
AcDbEntity
  8
Black
  6
ByLayer
 62
  256
370
   -1
100
AcDbLine
 10
236.877
 20
-102.552
 11
236.9
 21
-102.536
  0
LINE
  5
1A2
100
AcDbEntity
  8
Black
  6
ByLayer
 62
  256
370
   -1
100
AcDbLine
 10
236.9
 20
-102.536
 11
236.928
 21
-102.529
  0
LINE
  5
1A3
100
AcDbEntity
  8
Black
  6
ByLayer
 62
  256
370
   -1
100
AcDbLine
 10
236.928
 20
-102.529
 11
236.953
 21
-102.517
  0
LINE
  5
1A4
100
AcDbEntity
  8
Black
  6
ByLayer
 62
  256
370
   -1
100
AcDbLine
 10
236.953
 20
-102.517
 11
236.982
 21
-102.514
  0
LINE
  5
1A5
100
AcDbEntity
  8
Black
  6
ByLayer
 62
  256
370
   -1
100
AcDbLine
 10
236.982
 20
-102.514
 11
237.009
 21
-102.507
  0
LINE
  5
1A6
100
AcDbEntity
  8
Black
  6
ByLayer
 62
  256
370
   -1
100
AcDbLine
 10
237.009
 20
-102.507
 11
237.037
 21
-102.509
  0
LINE
  5
1A7
100
AcDbEntity
  8
Black
  6
ByLayer
 62
  256
370
   -1
100
AcDbLine
 10
237.037
 20
-102.509
 11
237.066
 21
-102.507
  0
LINE
  5
1A8
100
AcDbEntity
  8
Black
  6
ByLayer
 62
  256
370
   -1
100
AcDbLine
 10
237.066
 20
-102.507
 11
237.093
 21
-102.514
  0
LINE
  5
1A9
100
AcDbEntity
  8
Black
  6
ByLayer
 62
  256
370
   -1
100
AcDbLine
 10
235.881
 20
-106.077
 11
238.194
 21
-106.077
  0
LINE
  5
1AA
100
AcDbEntity
  8
Black
  6
ByLayer
 62
  256
370
   -1
100
AcDbLine
 10
238.194
 20
-106.077
 11
237.037
 21
-103.599
  0
LINE
  5
1AB
100
AcDbEntity
  8
Black
  6
ByLayer
 62
  256
370
   -1
100
AcDbLine
 10
237.037
 20
-103.599
 11
235.881
 21
-106.077
  0
LINE
  5
1AC
100
AcDbEntity
  8
Black
  6
ByLayer
 62
  256
370
   -1
100
AcDbLine
 10
258.788
 20
-102.517
 11
258.891
 21
-102.564
  0
LINE
  5
1AD
100
AcDbEntity
  8
Black
  6
ByLayer
 62
  256
370
   -1
100
AcDbLine
 10
258.891
 20
-102.564
 11
258.97
 21
-102.644
  0
LINE
  5
1AE
100
AcDbEntity
  8
Black
  6
ByLayer
 62
  256
370
   -1
100
AcDbLine
 10
258.97
 20
-102.644
 11
259.018
 21
-102.747
  0
LINE
  5
1AF
100
AcDbEntity
  8
Black
  6
ByLayer
 62
  256
370
   -1
100
AcDbLine
 10
259.018
 20
-102.747
 11
259.028
 21
-102.859
  0
LINE
  5
1B0
100
AcDbEntity
  8
Black
  6
ByLayer
 62
  256
370
   -1
100
AcDbLine
 10
259.028
 20
-102.859
 11
258.999
 21
-102.968
  0
LINE
  5
1B1
100
AcDbEntity
  8
Black
  6
ByLayer
 62
  256
370
   -1
100
AcDbLine
 10
258.999
 20
-102.968
 11
256.665
 21
-107.968
  0
LINE
  5
1B2
100
AcDbEntity
  8
Black
  6
ByLayer
 62
  256
370
   -1
100
AcDbLine
 10
256.665
 20
-107.968
 11
256.649
 21
-107.991
  0
LINE
  5
1B3
100
AcDbEntity
  8
Black
  6
ByLayer
 62
  256
370
   -1
100
AcDbLine
 10
256.649
 20
-107.991
 11
256.637
 21
-108.017
  0
LINE
  5
1B4
100
AcDbEntity
  8
Black
  6
ByLayer
 62
  256
370
   -1
100
AcDbLine
 10
256.637
 20
-108.017
 11
256.617
 21
-108.037
  0
LINE
  5
1B5
100
AcDbEntity
  8
Black
  6
ByLayer
 62
  256
370
   -1
100
AcDbLine
 10
256.617
 20
-108.037
 11
256.601
 21
-108.061
  0
LINE
  5
1B6
100
AcDbEntity
  8
Black
  6
ByLayer
 62
  256
370
   -1
100
AcDbLine
 10
256.601
 20
-108.061
 11
256.577
 21
-108.077
  0
LINE
  5
1B7
100
AcDbEntity
  8
Black
  6
ByLayer
 62
  256
370
   -1
100
AcDbLine
 10
256.577
 20
-108.077
 11
256.557
 21
-108.097
  0
LINE
  5
1B8
100
AcDbEntity
  8
Black
  6
ByLayer
 62
  256
370
   -1
100
AcDbLine
 10
256.557
 20
-108.097
 11
256.531
 21
-108.109
  0
LINE
  5
1B9
100
AcDbEntity
  8
Black
  6
ByLayer
 62
  256
370
   -1
100
AcDbLine
 10
256.531
 20
-108.109
 11
256.508
 21
-108.125
  0
LINE
  5
1BA
100
AcDbEntity
  8
Black
  6
ByLayer
 62
  256
370
   -1
100
AcDbLine
 10
256.508
 20
-108.125
 11
256.481
 21
-108.133
  0
LINE
  5
1BB
100
AcDbEntity
  8
Black
  6
ByLayer
 62
  256
370
   -1
100
AcDbLine
 10
256.481
 20
-108.133
 11
256.455
 21
-108.145
  0
LINE
  5
1BC
100
AcDbEntity
  8
Black
  6
ByLayer
 62
  256
370
   -1
100
AcDbLine
 10
256.455
 20
-108.145
 11
256.427
 21
-108.147
  0
LINE
  5
1BD
100
AcDbEntity
  8
Black
  6
ByLayer
 62
  256
370
   -1
100
AcDbLine
 10
256.427
 20
-108.147
 11
256.399
 21
-108.154
  0
LINE
  5
1BE
100
AcDbEntity
  8
Black
  6
ByLayer
 62
  256
370
   -1
100
AcDbLine
 10
256.399
 20
-108.154
 11
256.371
 21
-108.152
  0
LINE
  5
1BF
100
AcDbEntity
  8
Black
  6
ByLayer
 62
  256
370
   -1
100
AcDbLine
 10
256.371
 20
-108.152
 11
256.343
 21
-108.154
  0
LINE
  5
1C0
100
AcDbEntity
  8
Black
  6
ByLayer
 62
  256
370
   -1
100
AcDbLine
 10
256.343
 20
-108.154
 11
256.315
 21
-108.147
  0
LINE
  5
1C1
100
AcDbEntity
  8
Black
  6
ByLayer
 62
  256
370
   -1
100
AcDbLine
 10
256.315
 20
-108.147
 11
256.287
 21
-108.145
  0
LINE
  5
1C2
100
AcDbEntity
  8
Black
  6
ByLayer
 62
  256
370
   -1
100
AcDbLine
 10
256.287
 20
-108.145
 11
256.261
 21
-108.133
  0
LINE
  5
1C3
100
AcDbEntity
  8
Black
  6
ByLayer
 62
  256
370
   -1
100
AcDbLine
 10
256.261
 20
-108.133
 11
256.234
 21
-108.125
  0
LINE
  5
1C4
100
AcDbEntity
  8
Black
  6
ByLayer
 62
  256
370
   -1
100
AcDbLine
 10
256.234
 20
-108.125
 11
256.21
 21
-108.109
  0
LINE
  5
1C5
100
AcDbEntity
  8
Black
  6
ByLayer
 62
  256
370
   -1
100
AcDbLine
 10
256.21
 20
-108.109
 11
256.184
 21
-108.097
  0
LINE
  5
1C6
100
AcDbEntity
  8
Black
  6
ByLayer
 62
  256
370
   -1
100
AcDbLine
 10
256.184
 20
-108.097
 11
256.164
 21
-108.077
  0
LINE
  5
1C7
100
AcDbEntity
  8
Black
  6
ByLayer
 62
  256
370
   -1
100
AcDbLine
 10
256.164
 20
-108.077
 11
256.141
 21
-108.061
  0
LINE
  5
1C8
100
AcDbEntity
  8
Black
  6
ByLayer
 62
  256
370
   -1
100
AcDbLine
 10
256.141
 20
-108.061
 11
256.125
 21
-108.037
  0
LINE
  5
1C9
100
AcDbEntity
  8
Black
  6
ByLayer
 62
  256
370
   -1
100
AcDbLine
 10
256.125
 20
-108.037
 11
256.105
 21
-108.017
  0
LINE
  5
1CA
100
AcDbEntity
  8
Black
  6
ByLayer
 62
  256
370
   -1
100
AcDbLine
 10
256.105
 20
-108.017
 11
256.093
 21
-107.991
  0
LINE
  5
1CB
100
AcDbEntity
  8
Black
  6
ByLayer
 62
  256
370
   -1
100
AcDbLine
 10
256.093
 20
-107.991
 11
256.076
 21
-107.968
  0
LINE
  5
1CC
100
AcDbEntity
  8
Black
  6
ByLayer
 62
  256
370
   -1
100
AcDbLine
 10
256.076
 20
-107.968
 11
253.743
 21
-102.968
  0
LINE
  5
1CD
100
AcDbEntity
  8
Black
  6
ByLayer
 62
  256
370
   -1
100
AcDbLine
 10
253.743
 20
-102.968
 11
253.714
 21
-102.859
  0
LINE
  5
1CE
100
AcDbEntity
  8
Black
  6
ByLayer
 62
  256
370
   -1
100
AcDbLine
 10
253.714
 20
-102.859
 11
253.724
 21
-102.747
  0
LINE
  5
1CF
100
AcDbEntity
  8
Black
  6
ByLayer
 62
  256
370
   -1
100
AcDbLine
 10
253.724
 20
-102.747
 11
253.771
 21
-102.644
  0
LINE
  5
1D0
100
AcDbEntity
  8
Black
  6
ByLayer
 62
  256
370
   -1
100
AcDbLine
 10
253.771
 20
-102.644
 11
253.851
 21
-102.564
  0
LINE
  5
1D1
100
AcDbEntity
  8
Black
  6
ByLayer
 62
  256
370
   -1
100
AcDbLine
 10
253.851
 20
-102.564
 11
253.953
 21
-102.517
  0
LINE
  5
1D2
100
AcDbEntity
  8
Black
  6
ByLayer
 62
  256
370
   -1
100
AcDbLine
 10
253.953
 20
-102.517
 11
254.066
 21
-102.507
  0
LINE
  5
1D3
100
AcDbEntity
  8
Black
  6
ByLayer
 62
  256
370
   -1
100
AcDbLine
 10
254.066
 20
-102.507
 11
254.175
 21
-102.536
  0
LINE
  5
1D4
100
AcDbEntity
  8
Black
  6
ByLayer
 62
  256
370
   -1
100
AcDbLine
 10
254.175
 20
-102.536
 11
254.267
 21
-102.601
  0
LINE
  5
1D5
100
AcDbEntity
  8
Black
  6
ByLayer
 62
  256
370
   -1
100
AcDbLine
 10
254.267
 20
-102.601
 11
254.332
 21
-102.693
  0
LINE
  5
1D6
100
AcDbEntity
  8
Black
  6
ByLayer
 62
  256
370
   -1
100
AcDbLine
 10
254.332
 20
-102.693
 11
256.371
 21
-107.062
  0
LINE
  5
1D7
100
AcDbEntity
  8
Black
  6
ByLayer
 62
  256
370
   -1
100
AcDbLine
 10
256.371
 20
-107.062
 11
258.41
 21
-102.693
  0
LINE
  5
1D8
100
AcDbEntity
  8
Black
  6
ByLayer
 62
  256
370
   -1
100
AcDbLine
 10
258.41
 20
-102.693
 11
258.474
 21
-102.601
  0
LINE
  5
1D9
100
AcDbEntity
  8
Black
  6
ByLayer
 62
  256
370
   -1
100
AcDbLine
 10
258.474
 20
-102.601
 11
258.567
 21
-102.536
  0
LINE
  5
1DA
100
AcDbEntity
  8
Black
  6
ByLayer
 62
  256
370
   -1
100
AcDbLine
 10
258.567
 20
-102.536
 11
258.676
 21
-102.507
  0
LINE
  5
1DB
100
AcDbEntity
  8
Black
  6
ByLayer
 62
  256
370
   -1
100
AcDbLine
 10
258.676
 20
-102.507
 11
258.788
 21
-102.517
  0
LINE
  5
1DC
100
AcDbEntity
  8
Black
  6
ByLayer
 62
  256
370
   -1
100
AcDbLine
 10
219.065
 20
-102.511
 11
219.094
 21
-102.511
  0
LINE
  5
1DD
100
AcDbEntity
  8
Black
  6
ByLayer
 62
  256
370
   -1
100
AcDbLine
 10
219.094
 20
-102.511
 11
219.121
 21
-102.52
  0
LINE
  5
1DE
100
AcDbEntity
  8
Black
  6
ByLayer
 62
  256
370
   -1
100
AcDbLine
 10
219.121
 20
-102.52
 11
219.149
 21
-102.525
  0
LINE
  5
1DF
100
AcDbEntity
  8
Black
  6
ByLayer
 62
  256
370
   -1
100
AcDbLine
 10
219.149
 20
-102.525
 11
219.173
 21
-102.539
  0
LINE
  5
1E0
100
AcDbEntity
  8
Black
  6
ByLayer
 62
  256
370
   -1
100
AcDbLine
 10
219.173
 20
-102.539
 11
219.2
 21
-102.549
  0
LINE
  5
1E1
100
AcDbEntity
  8
Black
  6
ByLayer
 62
  256
370
   -1
100
AcDbLine
 10
219.2
 20
-102.549
 11
219.222
 21
-102.567
  0
LINE
  5
1E2
100
AcDbEntity
  8
Black
  6
ByLayer
 62
  256
370
   -1
100
AcDbLine
 10
219.222
 20
-102.567
 11
219.246
 21
-102.582
  0
LINE
  5
1E3
100
AcDbEntity
  8
Black
  6
ByLayer
 62
  256
370
   -1
100
AcDbLine
 10
219.246
 20
-102.582
 11
219.265
 21
-102.603
  0
LINE
  5
1E4
100
AcDbEntity
  8
Black
  6
ByLayer
 62
  256
370
   -1
100
AcDbLine
 10
219.265
 20
-102.603
 11
219.286
 21
-102.622
  0
LINE
  5
1E5
100
AcDbEntity
  8
Black
  6
ByLayer
 62
  256
370
   -1
100
AcDbLine
 10
219.286
 20
-102.622
 11
219.301
 21
-102.646
  0
LINE
  5
1E6
100
AcDbEntity
  8
Black
  6
ByLayer
 62
  256
370
   -1
100
AcDbLine
 10
219.301
 20
-102.646
 11
219.319
 21
-102.668
  0
LINE
  5
1E7
100
AcDbEntity
  8
Black
  6
ByLayer
 62
  256
370
   -1
100
AcDbLine
 10
219.319
 20
-102.668
 11
219.329
 21
-102.695
  0
LINE
  5
1E8
100
AcDbEntity
  8
Black
  6
ByLayer
 62
  256
370
   -1
100
AcDbLine
 10
219.329
 20
-102.695
 11
219.343
 21
-102.719
  0
LINE
  5
1E9
100
AcDbEntity
  8
Black
  6
ByLayer
 62
  256
370
   -1
100
AcDbLine
 10
219.343
 20
-102.719
 11
219.348
 21
-102.747
  0
LINE
  5
1EA
100
AcDbEntity
  8
Black
  6
ByLayer
 62
  256
370
   -1
100
AcDbLine
 10
219.348
 20
-102.747
 11
219.358
 21
-102.774
  0
LINE
  5
1EB
100
AcDbEntity
  8
Black
  6
ByLayer
 62
  256
370
   -1
100
AcDbLine
 10
219.358
 20
-102.774
 11
219.358
 21
-102.803
  0
LINE
  5
1EC
100
AcDbEntity
  8
Black
  6
ByLayer
 62
  256
370
   -1
100
AcDbLine
 10
219.358
 20
-102.803
 11
219.362
 21
-102.831
  0
LINE
  5
1ED
100
AcDbEntity
  8
Black
  6
ByLayer
 62
  256
370
   -1
100
AcDbLine
 10
219.362
 20
-102.831
 11
219.362
 21
-107.831
  0
LINE
  5
1EE
100
AcDbEntity
  8
Black
  6
ByLayer
 62
  256
370
   -1
100
AcDbLine
 10
219.362
 20
-107.831
 11
219.343
 21
-107.942
  0
LINE
  5
1EF
100
AcDbEntity
  8
Black
  6
ByLayer
 62
  256
370
   -1
100
AcDbLine
 10
219.343
 20
-107.942
 11
219.286
 21
-108.04
  0
LINE
  5
1F0
100
AcDbEntity
  8
Black
  6
ByLayer
 62
  256
370
   -1
100
AcDbLine
 10
219.286
 20
-108.04
 11
219.2
 21
-108.112
  0
LINE
  5
1F1
100
AcDbEntity
  8
Black
  6
ByLayer
 62
  256
370
   -1
100
AcDbLine
 10
219.2
 20
-108.112
 11
219.094
 21
-108.151
  0
LINE
  5
1F2
100
AcDbEntity
  8
Black
  6
ByLayer
 62
  256
370
   -1
100
AcDbLine
 10
219.094
 20
-108.151
 11
218.981
 21
-108.151
  0
LINE
  5
1F3
100
AcDbEntity
  8
Black
  6
ByLayer
 62
  256
370
   -1
100
AcDbLine
 10
218.981
 20
-108.151
 11
218.875
 21
-108.112
  0
LINE
  5
1F4
100
AcDbEntity
  8
Black
  6
ByLayer
 62
  256
370
   -1
100
AcDbLine
 10
218.875
 20
-108.112
 11
218.789
 21
-108.04
  0
LINE
  5
1F5
100
AcDbEntity
  8
Black
  6
ByLayer
 62
  256
370
   -1
100
AcDbLine
 10
218.789
 20
-108.04
 11
218.732
 21
-107.942
  0
LINE
  5
1F6
100
AcDbEntity
  8
Black
  6
ByLayer
 62
  256
370
   -1
100
AcDbLine
 10
218.732
 20
-107.942
 11
218.712
 21
-107.831
  0
LINE
  5
1F7
100
AcDbEntity
  8
Black
  6
ByLayer
 62
  256
370
   -1
100
AcDbLine
 10
218.712
 20
-107.831
 11
218.712
 21
-105.775
  0
LINE
  5
1F8
100
AcDbEntity
  8
Black
  6
ByLayer
 62
  256
370
   -1
100
AcDbLine
 10
218.712
 20
-105.775
 11
217.507
 21
-105.775
  0
LINE
  5
1F9
100
AcDbEntity
  8
Black
  6
ByLayer
 62
  256
370
   -1
100
AcDbLine
 10
217.507
 20
-105.775
 11
215.27
 21
-108.058
  0
LINE
  5
1FA
100
AcDbEntity
  8
Black
  6
ByLayer
 62
  256
370
   -1
100
AcDbLine
 10
215.27
 20
-108.058
 11
215.178
 21
-108.124
  0
LINE
  5
1FB
100
AcDbEntity
  8
Black
  6
ByLayer
 62
  256
370
   -1
100
AcDbLine
 10
215.178
 20
-108.124
 11
215.069
 21
-108.154
  0
LINE
  5
1FC
100
AcDbEntity
  8
Black
  6
ByLayer
 62
  256
370
   -1
100
AcDbLine
 10
215.069
 20
-108.154
 11
214.957
 21
-108.145
  0
LINE
  5
1FD
100
AcDbEntity
  8
Black
  6
ByLayer
 62
  256
370
   -1
100
AcDbLine
 10
214.957
 20
-108.145
 11
214.854
 21
-108.099
  0
LINE
  5
1FE
100
AcDbEntity
  8
Black
  6
ByLayer
 62
  256
370
   -1
100
AcDbLine
 10
214.854
 20
-108.099
 11
214.773
 21
-108.02
  0
LINE
  5
1FF
100
AcDbEntity
  8
Black
  6
ByLayer
 62
  256
370
   -1
100
AcDbLine
 10
214.773
 20
-108.02
 11
214.724
 21
-107.918
  0
LINE
  5
200
100
AcDbEntity
  8
Black
  6
ByLayer
 62
  256
370
   -1
100
AcDbLine
 10
214.724
 20
-107.918
 11
214.713
 21
-107.806
  0
LINE
  5
201
100
AcDbEntity
  8
Black
  6
ByLayer
 62
  256
370
   -1
100
AcDbLine
 10
214.713
 20
-107.806
 11
214.742
 21
-107.696
  0
LINE
  5
202
100
AcDbEntity
  8
Black
  6
ByLayer
 62
  256
370
   -1
100
AcDbLine
 10
214.742
 20
-107.696
 11
214.805
 21
-107.603
  0
LINE
  5
203
100
AcDbEntity
  8
Black
  6
ByLayer
 62
  256
370
   -1
100
AcDbLine
 10
214.805
 20
-107.603
 11
216.597
 21
-105.775
  0
LINE
  5
204
100
AcDbEntity
  8
Black
  6
ByLayer
 62
  256
370
   -1
100
AcDbLine
 10
216.597
 20
-105.775
 11
216.371
 21
-105.775
  0
LINE
  5
205
100
AcDbEntity
  8
Black
  6
ByLayer
 62
  256
370
   -1
100
AcDbLine
 10
216.371
 20
-105.775
 11
216.316
 21
-105.765
  0
LINE
  5
206
100
AcDbEntity
  8
Black
  6
ByLayer
 62
  256
370
   -1
100
AcDbLine
 10
216.316
 20
-105.765
 11
216.262
 21
-105.756
  0
LINE
  5
207
100
AcDbEntity
  8
Black
  6
ByLayer
 62
  256
370
   -1
100
AcDbLine
 10
216.262
 20
-105.756
 11
215.595
 21
-105.518
  0
LINE
  5
208
100
AcDbEntity
  8
Black
  6
ByLayer
 62
  256
370
   -1
100
AcDbLine
 10
215.595
 20
-105.518
 11
215.556
 21
-105.495
  0
LINE
  5
209
100
AcDbEntity
  8
Black
  6
ByLayer
 62
  256
370
   -1
100
AcDbLine
 10
215.556
 20
-105.495
 11
215.515
 21
-105.476
  0
LINE
  5
20A
100
AcDbEntity
  8
Black
  6
ByLayer
 62
  256
370
   -1
100
AcDbLine
 10
215.515
 20
-105.476
 11
215.182
 21
-105.238
  0
LINE
  5
20B
100
AcDbEntity
  8
Black
  6
ByLayer
 62
  256
370
   -1
100
AcDbLine
 10
215.182
 20
-105.238
 11
215.143
 21
-105.199
  0
LINE
  5
20C
100
AcDbEntity
  8
Black
  6
ByLayer
 62
  256
370
   -1
100
AcDbLine
 10
215.143
 20
-105.199
 11
215.105
 21
-105.16
  0
LINE
  5
20D
100
AcDbEntity
  8
Black
  6
ByLayer
 62
  256
370
   -1
100
AcDbLine
 10
215.105
 20
-105.16
 11
214.771
 21
-104.684
  0
LINE
  5
20E
100
AcDbEntity
  8
Black
  6
ByLayer
 62
  256
370
   -1
100
AcDbLine
 10
214.771
 20
-104.684
 11
214.753
 21
-104.645
  0
LINE
  5
20F
100
AcDbEntity
  8
Black
  6
ByLayer
 62
  256
370
   -1
100
AcDbLine
 10
214.753
 20
-104.645
 11
214.732
 21
-104.608
  0
LINE
  5
210
100
AcDbEntity
  8
Black
  6
ByLayer
 62
  256
370
   -1
100
AcDbLine
 10
214.732
 20
-104.608
 11
214.73
 21
-104.594
  0
LINE
  5
211
100
AcDbEntity
  8
Black
  6
ByLayer
 62
  256
370
   -1
100
AcDbLine
 10
214.73
 20
-104.594
 11
214.724
 21
-104.581
  0
LINE
  5
212
100
AcDbEntity
  8
Black
  6
ByLayer
 62
  256
370
   -1
100
AcDbLine
 10
214.724
 20
-104.581
 11
214.72
 21
-104.539
  0
LINE
  5
213
100
AcDbEntity
  8
Black
  6
ByLayer
 62
  256
370
   -1
100
AcDbLine
 10
214.72
 20
-104.539
 11
214.712
 21
-104.497
  0
LINE
  5
214
100
AcDbEntity
  8
Black
  6
ByLayer
 62
  256
370
   -1
100
AcDbLine
 10
214.712
 20
-104.497
 11
214.712
 21
-103.783
  0
LINE
  5
215
100
AcDbEntity
  8
Black
  6
ByLayer
 62
  256
370
   -1
100
AcDbLine
 10
214.712
 20
-103.783
 11
214.72
 21
-103.741
  0
LINE
  5
216
100
AcDbEntity
  8
Black
  6
ByLayer
 62
  256
370
   -1
100
AcDbLine
 10
214.72
 20
-103.741
 11
214.724
 21
-103.699
  0
LINE
  5
217
100
AcDbEntity
  8
Black
  6
ByLayer
 62
  256
370
   -1
100
AcDbLine
 10
214.724
 20
-103.699
 11
214.73
 21
-103.686
  0
LINE
  5
218
100
AcDbEntity
  8
Black
  6
ByLayer
 62
  256
370
   -1
100
AcDbLine
 10
214.73
 20
-103.686
 11
214.732
 21
-103.672
  0
LINE
  5
219
100
AcDbEntity
  8
Black
  6
ByLayer
 62
  256
370
   -1
100
AcDbLine
 10
214.732
 20
-103.672
 11
214.753
 21
-103.635
  0
LINE
  5
21A
100
AcDbEntity
  8
Black
  6
ByLayer
 62
  256
370
   -1
100
AcDbLine
 10
214.753
 20
-103.635
 11
214.771
 21
-103.597
  0
LINE
  5
21B
100
AcDbEntity
  8
Black
  6
ByLayer
 62
  256
370
   -1
100
AcDbLine
 10
214.771
 20
-103.597
 11
215.105
 21
-103.12
  0
LINE
  5
21C
100
AcDbEntity
  8
Black
  6
ByLayer
 62
  256
370
   -1
100
AcDbLine
 10
215.105
 20
-103.12
 11
215.143
 21
-103.082
  0
LINE
  5
21D
100
AcDbEntity
  8
Black
  6
ByLayer
 62
  256
370
   -1
100
AcDbLine
 10
215.143
 20
-103.082
 11
215.182
 21
-103.042
  0
LINE
  5
21E
100
AcDbEntity
  8
Black
  6
ByLayer
 62
  256
370
   -1
100
AcDbLine
 10
215.182
 20
-103.042
 11
215.515
 21
-102.804
  0
LINE
  5
21F
100
AcDbEntity
  8
Black
  6
ByLayer
 62
  256
370
   -1
100
AcDbLine
 10
215.515
 20
-102.804
 11
215.556
 21
-102.785
  0
LINE
  5
220
100
AcDbEntity
  8
Black
  6
ByLayer
 62
  256
370
   -1
100
AcDbLine
 10
215.556
 20
-102.785
 11
215.595
 21
-102.763
  0
LINE
  5
221
100
AcDbEntity
  8
Black
  6
ByLayer
 62
  256
370
   -1
100
AcDbLine
 10
215.595
 20
-102.763
 11
216.262
 21
-102.525
  0
LINE
  5
222
100
AcDbEntity
  8
Black
  6
ByLayer
 62
  256
370
   -1
100
AcDbLine
 10
216.262
 20
-102.525
 11
216.316
 21
-102.515
  0
LINE
  5
223
100
AcDbEntity
  8
Black
  6
ByLayer
 62
  256
370
   -1
100
AcDbLine
 10
216.316
 20
-102.515
 11
216.371
 21
-102.506
  0
LINE
  5
224
100
AcDbEntity
  8
Black
  6
ByLayer
 62
  256
370
   -1
100
AcDbLine
 10
216.371
 20
-102.506
 11
219.037
 21
-102.506
  0
LINE
  5
225
100
AcDbEntity
  8
Black
  6
ByLayer
 62
  256
370
   -1
100
AcDbLine
 10
219.037
 20
-102.506
 11
219.065
 21
-102.511
  0
LINE
  5
226
100
AcDbEntity
  8
Black
  6
ByLayer
 62
  256
370
   -1
100
AcDbLine
 10
216.427
 20
-103.156
 11
215.856
 21
-103.36
  0
LINE
  5
227
100
AcDbEntity
  8
Black
  6
ByLayer
 62
  256
370
   -1
100
AcDbLine
 10
215.856
 20
-103.36
 11
215.605
 21
-103.539
  0
LINE
  5
228
100
AcDbEntity
  8
Black
  6
ByLayer
 62
  256
370
   -1
100
AcDbLine
 10
215.605
 20
-103.539
 11
215.362
 21
-103.885
  0
LINE
  5
229
100
AcDbEntity
  8
Black
  6
ByLayer
 62
  256
370
   -1
100
AcDbLine
 10
215.362
 20
-103.885
 11
215.362
 21
-104.395
  0
LINE
  5
22A
100
AcDbEntity
  8
Black
  6
ByLayer
 62
  256
370
   -1
100
AcDbLine
 10
215.362
 20
-104.395
 11
215.605
 21
-104.741
  0
LINE
  5
22B
100
AcDbEntity
  8
Black
  6
ByLayer
 62
  256
370
   -1
100
AcDbLine
 10
215.605
 20
-104.741
 11
215.856
 21
-104.921
  0
LINE
  5
22C
100
AcDbEntity
  8
Black
  6
ByLayer
 62
  256
370
   -1
100
AcDbLine
 10
215.856
 20
-104.921
 11
216.427
 21
-105.125
  0
LINE
  5
22D
100
AcDbEntity
  8
Black
  6
ByLayer
 62
  256
370
   -1
100
AcDbLine
 10
216.427
 20
-105.125
 11
218.712
 21
-105.125
  0
LINE
  5
22E
100
AcDbEntity
  8
Black
  6
ByLayer
 62
  256
370
   -1
100
AcDbLine
 10
218.712
 20
-105.125
 11
218.712
 21
-103.156
  0
LINE
  5
22F
100
AcDbEntity
  8
Black
  6
ByLayer
 62
  256
370
   -1
100
AcDbLine
 10
218.712
 20
-103.156
 11
216.427
 21
-103.156
  0
LINE
  5
230
100
AcDbEntity
  8
Black
  6
ByLayer
 62
  256
370
   -1
100
AcDbLine
 10
245.437
 20
-102.512
 11
245.542
 21
-102.554
  0
LINE
  5
231
100
AcDbEntity
  8
Black
  6
ByLayer
 62
  256
370
   -1
100
AcDbLine
 10
245.542
 20
-102.554
 11
245.626
 21
-102.629
  0
LINE
  5
232
100
AcDbEntity
  8
Black
  6
ByLayer
 62
  256
370
   -1
100
AcDbLine
 10
245.626
 20
-102.629
 11
245.679
 21
-102.729
  0
LINE
  5
233
100
AcDbEntity
  8
Black
  6
ByLayer
 62
  256
370
   -1
100
AcDbLine
 10
245.679
 20
-102.729
 11
245.696
 21
-102.84
  0
LINE
  5
234
100
AcDbEntity
  8
Black
  6
ByLayer
 62
  256
370
   -1
100
AcDbLine
 10
245.696
 20
-102.84
 11
245.673
 21
-102.951
  0
LINE
  5
235
100
AcDbEntity
  8
Black
  6
ByLayer
 62
  256
370
   -1
100
AcDbLine
 10
245.673
 20
-102.951
 11
245.613
 21
-103.047
  0
LINE
  5
236
100
AcDbEntity
  8
Black
  6
ByLayer
 62
  256
370
   -1
100
AcDbLine
 10
245.613
 20
-103.047
 11
243.362
 21
-105.573
  0
LINE
  5
237
100
AcDbEntity
  8
Black
  6
ByLayer
 62
  256
370
   -1
100
AcDbLine
 10
243.362
 20
-105.573
 11
243.362
 21
-107.831
  0
LINE
  5
238
100
AcDbEntity
  8
Black
  6
ByLayer
 62
  256
370
   -1
100
AcDbLine
 10
243.362
 20
-107.831
 11
243.343
 21
-107.942
  0
LINE
  5
239
100
AcDbEntity
  8
Black
  6
ByLayer
 62
  256
370
   -1
100
AcDbLine
 10
243.343
 20
-107.942
 11
243.286
 21
-108.04
  0
LINE
  5
23A
100
AcDbEntity
  8
Black
  6
ByLayer
 62
  256
370
   -1
100
AcDbLine
 10
243.286
 20
-108.04
 11
243.2
 21
-108.112
  0
LINE
  5
23B
100
AcDbEntity
  8
Black
  6
ByLayer
 62
  256
370
   -1
100
AcDbLine
 10
243.2
 20
-108.112
 11
243.094
 21
-108.151
  0
LINE
  5
23C
100
AcDbEntity
  8
Black
  6
ByLayer
 62
  256
370
   -1
100
AcDbLine
 10
243.094
 20
-108.151
 11
242.981
 21
-108.151
  0
LINE
  5
23D
100
AcDbEntity
  8
Black
  6
ByLayer
 62
  256
370
   -1
100
AcDbLine
 10
242.981
 20
-108.151
 11
242.875
 21
-108.112
  0
LINE
  5
23E
100
AcDbEntity
  8
Black
  6
ByLayer
 62
  256
370
   -1
100
AcDbLine
 10
242.875
 20
-108.112
 11
242.789
 21
-108.04
  0
LINE
  5
23F
100
AcDbEntity
  8
Black
  6
ByLayer
 62
  256
370
   -1
100
AcDbLine
 10
242.789
 20
-108.04
 11
242.732
 21
-107.942
  0
LINE
  5
240
100
AcDbEntity
  8
Black
  6
ByLayer
 62
  256
370
   -1
100
AcDbLine
 10
242.732
 20
-107.942
 11
242.712
 21
-107.831
  0
LINE
  5
241
100
AcDbEntity
  8
Black
  6
ByLayer
 62
  256
370
   -1
100
AcDbLine
 10
242.712
 20
-107.831
 11
242.712
 21
-105.573
  0
LINE
  5
242
100
AcDbEntity
  8
Black
  6
ByLayer
 62
  256
370
   -1
100
AcDbLine
 10
242.712
 20
-105.573
 11
240.462
 21
-103.047
  0
LINE
  5
243
100
AcDbEntity
  8
Black
  6
ByLayer
 62
  256
370
   -1
100
AcDbLine
 10
240.462
 20
-103.047
 11
240.402
 21
-102.951
  0
LINE
  5
244
100
AcDbEntity
  8
Black
  6
ByLayer
 62
  256
370
   -1
100
AcDbLine
 10
240.402
 20
-102.951
 11
240.379
 21
-102.84
  0
LINE
  5
245
100
AcDbEntity
  8
Black
  6
ByLayer
 62
  256
370
   -1
100
AcDbLine
 10
240.379
 20
-102.84
 11
240.396
 21
-102.729
  0
LINE
  5
246
100
AcDbEntity
  8
Black
  6
ByLayer
 62
  256
370
   -1
100
AcDbLine
 10
240.396
 20
-102.729
 11
240.449
 21
-102.629
  0
LINE
  5
247
100
AcDbEntity
  8
Black
  6
ByLayer
 62
  256
370
   -1
100
AcDbLine
 10
240.449
 20
-102.629
 11
240.533
 21
-102.554
  0
LINE
  5
248
100
AcDbEntity
  8
Black
  6
ByLayer
 62
  256
370
   -1
100
AcDbLine
 10
240.533
 20
-102.554
 11
240.638
 21
-102.512
  0
LINE
  5
249
100
AcDbEntity
  8
Black
  6
ByLayer
 62
  256
370
   -1
100
AcDbLine
 10
240.638
 20
-102.512
 11
240.751
 21
-102.509
  0
LINE
  5
24A
100
AcDbEntity
  8
Black
  6
ByLayer
 62
  256
370
   -1
100
AcDbLine
 10
240.751
 20
-102.509
 11
240.858
 21
-102.545
  0
LINE
  5
24B
100
AcDbEntity
  8
Black
  6
ByLayer
 62
  256
370
   -1
100
AcDbLine
 10
240.858
 20
-102.545
 11
240.947
 21
-102.614
  0
LINE
  5
24C
100
AcDbEntity
  8
Black
  6
ByLayer
 62
  256
370
   -1
100
AcDbLine
 10
240.947
 20
-102.614
 11
243.037
 21
-104.961
  0
LINE
  5
24D
100
AcDbEntity
  8
Black
  6
ByLayer
 62
  256
370
   -1
100
AcDbLine
 10
243.037
 20
-104.961
 11
245.128
 21
-102.614
  0
LINE
  5
24E
100
AcDbEntity
  8
Black
  6
ByLayer
 62
  256
370
   -1
100
AcDbLine
 10
245.128
 20
-102.614
 11
245.217
 21
-102.545
  0
LINE
  5
24F
100
AcDbEntity
  8
Black
  6
ByLayer
 62
  256
370
   -1
100
AcDbLine
 10
245.217
 20
-102.545
 11
245.324
 21
-102.509
  0
LINE
  5
250
100
AcDbEntity
  8
Black
  6
ByLayer
 62
  256
370
   -1
100
AcDbLine
 10
245.324
 20
-102.509
 11
245.437
 21
-102.512
  0
LINE
  5
251
100
AcDbEntity
  8
Black
  6
ByLayer
 62
  256
370
   -1
100
AcDbLine
 10
212.178
 20
-102.535
 11
212.186
 21
-102.535
  0
LINE
  5
252
100
AcDbEntity
  8
Black
  6
ByLayer
 62
  256
370
   -1
100
AcDbLine
 10
212.186
 20
-102.535
 11
212.203
 21
-102.54
  0
LINE
  5
253
100
AcDbEntity
  8
Black
  6
ByLayer
 62
  256
370
   -1
100
AcDbLine
 10
212.203
 20
-102.54
 11
212.221
 21
-102.543
  0
LINE
  5
254
100
AcDbEntity
  8
Black
  6
ByLayer
 62
  256
370
   -1
100
AcDbLine
 10
212.221
 20
-102.543
 11
212.228
 21
-102.547
  0
LINE
  5
255
100
AcDbEntity
  8
Black
  6
ByLayer
 62
  256
370
   -1
100
AcDbLine
 10
212.228
 20
-102.547
 11
212.236
 21
-102.549
  0
LINE
  5
256
100
AcDbEntity
  8
Black
  6
ByLayer
 62
  256
370
   -1
100
AcDbLine
 10
212.236
 20
-102.549
 11
212.379
 21
-102.621
  0
LINE
  5
257
100
AcDbEntity
  8
Black
  6
ByLayer
 62
  256
370
   -1
100
AcDbLine
 10
212.379
 20
-102.621
 11
212.399
 21
-102.635
  0
LINE
  5
258
100
AcDbEntity
  8
Black
  6
ByLayer
 62
  256
370
   -1
100
AcDbLine
 10
212.399
 20
-102.635
 11
212.418
 21
-102.649
  0
LINE
  5
259
100
AcDbEntity
  8
Black
  6
ByLayer
 62
  256
370
   -1
100
AcDbLine
 10
212.418
 20
-102.649
 11
212.49
 21
-102.72
  0
LINE
  5
25A
100
AcDbEntity
  8
Black
  6
ByLayer
 62
  256
370
   -1
100
AcDbLine
 10
212.49
 20
-102.72
 11
212.498
 21
-102.733
  0
LINE
  5
25B
100
AcDbEntity
  8
Black
  6
ByLayer
 62
  256
370
   -1
100
AcDbLine
 10
212.498
 20
-102.733
 11
212.508
 21
-102.743
  0
LINE
  5
25C
100
AcDbEntity
  8
Black
  6
ByLayer
 62
  256
370
   -1
100
AcDbLine
 10
212.508
 20
-102.743
 11
212.651
 21
-102.958
  0
LINE
  5
25D
100
AcDbEntity
  8
Black
  6
ByLayer
 62
  256
370
   -1
100
AcDbLine
 10
212.651
 20
-102.958
 11
212.662
 21
-102.981
  0
LINE
  5
25E
100
AcDbEntity
  8
Black
  6
ByLayer
 62
  256
370
   -1
100
AcDbLine
 10
212.662
 20
-102.981
 11
212.672
 21
-103.004
  0
LINE
  5
25F
100
AcDbEntity
  8
Black
  6
ByLayer
 62
  256
370
   -1
100
AcDbLine
 10
212.672
 20
-103.004
 11
212.743
 21
-103.29
  0
LINE
  5
260
100
AcDbEntity
  8
Black
  6
ByLayer
 62
  256
370
   -1
100
AcDbLine
 10
212.743
 20
-103.29
 11
212.745
 21
-103.308
  0
LINE
  5
261
100
AcDbEntity
  8
Black
  6
ByLayer
 62
  256
370
   -1
100
AcDbLine
 10
212.745
 20
-103.308
 11
212.748
 21
-103.326
  0
LINE
  5
262
100
AcDbEntity
  8
Black
  6
ByLayer
 62
  256
370
   -1
100
AcDbLine
 10
212.748
 20
-103.326
 11
212.748
 21
-103.898
  0
LINE
  5
263
100
AcDbEntity
  8
Black
  6
ByLayer
 62
  256
370
   -1
100
AcDbLine
 10
212.748
 20
-103.898
 11
212.746
 21
-103.906
  0
LINE
  5
264
100
AcDbEntity
  8
Black
  6
ByLayer
 62
  256
370
   -1
100
AcDbLine
 10
212.746
 20
-103.906
 11
212.747
 21
-103.915
  0
LINE
  5
265
100
AcDbEntity
  8
Black
  6
ByLayer
 62
  256
370
   -1
100
AcDbLine
 10
212.747
 20
-103.915
 11
212.742
 21
-103.932
  0
LINE
  5
266
100
AcDbEntity
  8
Black
  6
ByLayer
 62
  256
370
   -1
100
AcDbLine
 10
212.742
 20
-103.932
 11
212.739
 21
-103.949
  0
LINE
  5
267
100
AcDbEntity
  8
Black
  6
ByLayer
 62
  256
370
   -1
100
AcDbLine
 10
212.739
 20
-103.949
 11
212.734
 21
-103.957
  0
LINE
  5
268
100
AcDbEntity
  8
Black
  6
ByLayer
 62
  256
370
   -1
100
AcDbLine
 10
212.734
 20
-103.957
 11
212.732
 21
-103.965
  0
LINE
  5
269
100
AcDbEntity
  8
Black
  6
ByLayer
 62
  256
370
   -1
100
AcDbLine
 10
212.732
 20
-103.965
 11
212.661
 21
-104.108
  0
LINE
  5
26A
100
AcDbEntity
  8
Black
  6
ByLayer
 62
  256
370
   -1
100
AcDbLine
 10
212.661
 20
-104.108
 11
212.646
 21
-104.127
  0
LINE
  5
26B
100
AcDbEntity
  8
Black
  6
ByLayer
 62
  256
370
   -1
100
AcDbLine
 10
212.646
 20
-104.127
 11
212.632
 21
-104.147
  0
LINE
  5
26C
100
AcDbEntity
  8
Black
  6
ByLayer
 62
  256
370
   -1
100
AcDbLine
 10
212.632
 20
-104.147
 11
212.561
 21
-104.218
  0
LINE
  5
26D
100
AcDbEntity
  8
Black
  6
ByLayer
 62
  256
370
   -1
100
AcDbLine
 10
212.561
 20
-104.218
 11
212.541
 21
-104.232
  0
LINE
  5
26E
100
AcDbEntity
  8
Black
  6
ByLayer
 62
  256
370
   -1
100
AcDbLine
 10
212.541
 20
-104.232
 11
212.522
 21
-104.246
  0
LINE
  5
26F
100
AcDbEntity
  8
Black
  6
ByLayer
 62
  256
370
   -1
100
AcDbLine
 10
212.522
 20
-104.246
 11
212.379
 21
-104.318
  0
LINE
  5
270
100
AcDbEntity
  8
Black
  6
ByLayer
 62
  256
370
   -1
100
AcDbLine
 10
212.379
 20
-104.318
 11
212.371
 21
-104.32
  0
LINE
  5
271
100
AcDbEntity
  8
Black
  6
ByLayer
 62
  256
370
   -1
100
AcDbLine
 10
212.371
 20
-104.32
 11
212.363
 21
-104.325
  0
LINE
  5
272
100
AcDbEntity
  8
Black
  6
ByLayer
 62
  256
370
   -1
100
AcDbLine
 10
212.363
 20
-104.325
 11
212.346
 21
-104.328
  0
LINE
  5
273
100
AcDbEntity
  8
Black
  6
ByLayer
 62
  256
370
   -1
100
AcDbLine
 10
212.346
 20
-104.328
 11
212.329
 21
-104.333
  0
LINE
  5
274
100
AcDbEntity
  8
Black
  6
ByLayer
 62
  256
370
   -1
100
AcDbLine
 10
212.329
 20
-104.333
 11
212.321
 21
-104.332
  0
LINE
  5
275
100
AcDbEntity
  8
Black
  6
ByLayer
 62
  256
370
   -1
100
AcDbLine
 10
212.321
 20
-104.332
 11
212.312
 21
-104.334
  0
LINE
  5
276
100
AcDbEntity
  8
Black
  6
ByLayer
 62
  256
370
   -1
100
AcDbLine
 10
212.312
 20
-104.334
 11
212.026
 21
-104.334
  0
LINE
  5
277
100
AcDbEntity
  8
Black
  6
ByLayer
 62
  256
370
   -1
100
AcDbLine
 10
212.026
 20
-104.334
 11
212.018
 21
-104.332
  0
LINE
  5
278
100
AcDbEntity
  8
Black
  6
ByLayer
 62
  256
370
   -1
100
AcDbLine
 10
212.018
 20
-104.332
 11
212.009
 21
-104.333
  0
LINE
  5
279
100
AcDbEntity
  8
Black
  6
ByLayer
 62
  256
370
   -1
100
AcDbLine
 10
212.009
 20
-104.333
 11
211.992
 21
-104.328
  0
LINE
  5
27A
100
AcDbEntity
  8
Black
  6
ByLayer
 62
  256
370
   -1
100
AcDbLine
 10
211.992
 20
-104.328
 11
211.975
 21
-104.325
  0
LINE
  5
27B
100
AcDbEntity
  8
Black
  6
ByLayer
 62
  256
370
   -1
100
AcDbLine
 10
211.975
 20
-104.325
 11
211.968
 21
-104.32
  0
LINE
  5
27C
100
AcDbEntity
  8
Black
  6
ByLayer
 62
  256
370
   -1
100
AcDbLine
 10
211.968
 20
-104.32
 11
211.959
 21
-104.318
  0
LINE
  5
27D
100
AcDbEntity
  8
Black
  6
ByLayer
 62
  256
370
   -1
100
AcDbLine
 10
211.959
 20
-104.318
 11
211.816
 21
-104.246
  0
LINE
  5
27E
100
AcDbEntity
  8
Black
  6
ByLayer
 62
  256
370
   -1
100
AcDbLine
 10
211.816
 20
-104.246
 11
211.797
 21
-104.232
  0
LINE
  5
27F
100
AcDbEntity
  8
Black
  6
ByLayer
 62
  256
370
   -1
100
AcDbLine
 10
211.797
 20
-104.232
 11
211.778
 21
-104.218
  0
LINE
  5
280
100
AcDbEntity
  8
Black
  6
ByLayer
 62
  256
370
   -1
100
AcDbLine
 10
211.778
 20
-104.218
 11
211.706
 21
-104.147
  0
LINE
  5
281
100
AcDbEntity
  8
Black
  6
ByLayer
 62
  256
370
   -1
100
AcDbLine
 10
211.706
 20
-104.147
 11
211.692
 21
-104.127
  0
LINE
  5
282
100
AcDbEntity
  8
Black
  6
ByLayer
 62
  256
370
   -1
100
AcDbLine
 10
211.692
 20
-104.127
 11
211.678
 21
-104.108
  0
LINE
  5
283
100
AcDbEntity
  8
Black
  6
ByLayer
 62
  256
370
   -1
100
AcDbLine
 10
211.678
 20
-104.108
 11
211.607
 21
-103.965
  0
LINE
  5
284
100
AcDbEntity
  8
Black
  6
ByLayer
 62
  256
370
   -1
100
AcDbLine
 10
211.607
 20
-103.965
 11
211.604
 21
-103.957
  0
LINE
  5
285
100
AcDbEntity
  8
Black
  6
ByLayer
 62
  256
370
   -1
100
AcDbLine
 10
211.604
 20
-103.957
 11
211.6
 21
-103.949
  0
LINE
  5
286
100
AcDbEntity
  8
Black
  6
ByLayer
 62
  256
370
   -1
100
AcDbLine
 10
211.6
 20
-103.949
 11
211.597
 21
-103.932
  0
LINE
  5
287
100
AcDbEntity
  8
Black
  6
ByLayer
 62
  256
370
   -1
100
AcDbLine
 10
211.597
 20
-103.932
 11
211.592
 21
-103.915
  0
LINE
  5
288
100
AcDbEntity
  8
Black
  6
ByLayer
 62
  256
370
   -1
100
AcDbLine
 10
211.592
 20
-103.915
 11
211.592
 21
-103.906
  0
LINE
  5
289
100
AcDbEntity
  8
Black
  6
ByLayer
 62
  256
370
   -1
100
AcDbLine
 10
211.592
 20
-103.906
 11
211.591
 21
-103.898
  0
LINE
  5
28A
100
AcDbEntity
  8
Black
  6
ByLayer
 62
  256
370
   -1
100
AcDbLine
 10
211.591
 20
-103.898
 11
211.591
 21
-103.541
  0
LINE
  5
28B
100
AcDbEntity
  8
Black
  6
ByLayer
 62
  256
370
   -1
100
AcDbLine
 10
211.591
 20
-103.541
 11
211.592
 21
-103.532
  0
LINE
  5
28C
100
AcDbEntity
  8
Black
  6
ByLayer
 62
  256
370
   -1
100
AcDbLine
 10
211.592
 20
-103.532
 11
211.592
 21
-103.524
  0
LINE
  5
28D
100
AcDbEntity
  8
Black
  6
ByLayer
 62
  256
370
   -1
100
AcDbLine
 10
211.592
 20
-103.524
 11
211.597
 21
-103.507
  0
LINE
  5
28E
100
AcDbEntity
  8
Black
  6
ByLayer
 62
  256
370
   -1
100
AcDbLine
 10
211.597
 20
-103.507
 11
211.6
 21
-103.489
  0
LINE
  5
28F
100
AcDbEntity
  8
Black
  6
ByLayer
 62
  256
370
   -1
100
AcDbLine
 10
211.6
 20
-103.489
 11
211.604
 21
-103.482
  0
LINE
  5
290
100
AcDbEntity
  8
Black
  6
ByLayer
 62
  256
370
   -1
100
AcDbLine
 10
211.604
 20
-103.482
 11
211.607
 21
-103.474
  0
LINE
  5
291
100
AcDbEntity
  8
Black
  6
ByLayer
 62
  256
370
   -1
100
AcDbLine
 10
211.607
 20
-103.474
 11
211.678
 21
-103.331
  0
LINE
  5
292
100
AcDbEntity
  8
Black
  6
ByLayer
 62
  256
370
   -1
100
AcDbLine
 10
211.678
 20
-103.331
 11
211.692
 21
-103.311
  0
LINE
  5
293
100
AcDbEntity
  8
Black
  6
ByLayer
 62
  256
370
   -1
100
AcDbLine
 10
211.692
 20
-103.311
 11
211.706
 21
-103.292
  0
LINE
  5
294
100
AcDbEntity
  8
Black
  6
ByLayer
 62
  256
370
   -1
100
AcDbLine
 10
211.706
 20
-103.292
 11
211.778
 21
-103.22
  0
LINE
  5
295
100
AcDbEntity
  8
Black
  6
ByLayer
 62
  256
370
   -1
100
AcDbLine
 10
211.778
 20
-103.22
 11
211.797
 21
-103.207
  0
LINE
  5
296
100
AcDbEntity
  8
Black
  6
ByLayer
 62
  256
370
   -1
100
AcDbLine
 10
211.797
 20
-103.207
 11
211.816
 21
-103.192
  0
LINE
  5
297
100
AcDbEntity
  8
Black
  6
ByLayer
 62
  256
370
   -1
100
AcDbLine
 10
211.816
 20
-103.192
 11
211.959
 21
-103.121
  0
LINE
  5
298
100
AcDbEntity
  8
Black
  6
ByLayer
 62
  256
370
   -1
100
AcDbLine
 10
211.959
 20
-103.121
 11
211.968
 21
-103.118
  0
LINE
  5
299
100
AcDbEntity
  8
Black
  6
ByLayer
 62
  256
370
   -1
100
AcDbLine
 10
211.968
 20
-103.118
 11
211.975
 21
-103.114
  0
LINE
  5
29A
100
AcDbEntity
  8
Black
  6
ByLayer
 62
  256
370
   -1
100
AcDbLine
 10
211.975
 20
-103.114
 11
211.992
 21
-103.111
  0
LINE
  5
29B
100
AcDbEntity
  8
Black
  6
ByLayer
 62
  256
370
   -1
100
AcDbLine
 10
211.992
 20
-103.111
 11
212.009
 21
-103.106
  0
LINE
  5
29C
100
AcDbEntity
  8
Black
  6
ByLayer
 62
  256
370
   -1
100
AcDbLine
 10
212.009
 20
-103.106
 11
212.018
 21
-103.107
  0
LINE
  5
29D
100
AcDbEntity
  8
Black
  6
ByLayer
 62
  256
370
   -1
100
AcDbLine
 10
212.018
 20
-103.107
 11
212.026
 21
-103.105
  0
LINE
  5
29E
100
AcDbEntity
  8
Black
  6
ByLayer
 62
  256
370
   -1
100
AcDbLine
 10
212.026
 20
-103.105
 11
212.312
 21
-103.105
  0
LINE
  5
29F
100
AcDbEntity
  8
Black
  6
ByLayer
 62
  256
370
   -1
100
AcDbLine
 10
212.312
 20
-103.105
 11
212.321
 21
-103.107
  0
LINE
  5
2A0
100
AcDbEntity
  8
Black
  6
ByLayer
 62
  256
370
   -1
100
AcDbLine
 10
212.321
 20
-103.107
 11
212.329
 21
-103.106
  0
LINE
  5
2A1
100
AcDbEntity
  8
Black
  6
ByLayer
 62
  256
370
   -1
100
AcDbLine
 10
212.329
 20
-103.106
 11
212.346
 21
-103.111
  0
LINE
  5
2A2
100
AcDbEntity
  8
Black
  6
ByLayer
 62
  256
370
   -1
100
AcDbLine
 10
212.346
 20
-103.111
 11
212.363
 21
-103.114
  0
LINE
  5
2A3
100
AcDbEntity
  8
Black
  6
ByLayer
 62
  256
370
   -1
100
AcDbLine
 10
212.363
 20
-103.114
 11
212.371
 21
-103.118
  0
LINE
  5
2A4
100
AcDbEntity
  8
Black
  6
ByLayer
 62
  256
370
   -1
100
AcDbLine
 10
212.371
 20
-103.118
 11
212.379
 21
-103.121
  0
LINE
  5
2A5
100
AcDbEntity
  8
Black
  6
ByLayer
 62
  256
370
   -1
100
AcDbLine
 10
212.379
 20
-103.121
 11
212.394
 21
-103.128
  0
LINE
  5
2A6
100
AcDbEntity
  8
Black
  6
ByLayer
 62
  256
370
   -1
100
AcDbLine
 10
212.394
 20
-103.128
 11
212.387
 21
-103.102
  0
LINE
  5
2A7
100
AcDbEntity
  8
Black
  6
ByLayer
 62
  256
370
   -1
100
AcDbLine
 10
212.387
 20
-103.102
 11
212.267
 21
-102.922
  0
LINE
  5
2A8
100
AcDbEntity
  8
Black
  6
ByLayer
 62
  256
370
   -1
100
AcDbLine
 10
212.267
 20
-102.922
 11
212.223
 21
-102.878
  0
LINE
  5
2A9
100
AcDbEntity
  8
Black
  6
ByLayer
 62
  256
370
   -1
100
AcDbLine
 10
212.223
 20
-102.878
 11
212.134
 21
-102.834
  0
LINE
  5
2AA
100
AcDbEntity
  8
Black
  6
ByLayer
 62
  256
370
   -1
100
AcDbLine
 10
212.134
 20
-102.834
 11
211.884
 21
-102.834
  0
LINE
  5
2AB
100
AcDbEntity
  8
Black
  6
ByLayer
 62
  256
370
   -1
100
AcDbLine
 10
211.884
 20
-102.834
 11
211.832
 21
-102.825
  0
LINE
  5
2AC
100
AcDbEntity
  8
Black
  6
ByLayer
 62
  256
370
   -1
100
AcDbLine
 10
211.832
 20
-102.825
 11
211.787
 21
-102.798
  0
LINE
  5
2AD
100
AcDbEntity
  8
Black
  6
ByLayer
 62
  256
370
   -1
100
AcDbLine
 10
211.787
 20
-102.798
 11
211.754
 21
-102.759
  0
LINE
  5
2AE
100
AcDbEntity
  8
Black
  6
ByLayer
 62
  256
370
   -1
100
AcDbLine
 10
211.754
 20
-102.759
 11
211.736
 21
-102.71
  0
LINE
  5
2AF
100
AcDbEntity
  8
Black
  6
ByLayer
 62
  256
370
   -1
100
AcDbLine
 10
211.736
 20
-102.71
 11
211.736
 21
-102.658
  0
LINE
  5
2B0
100
AcDbEntity
  8
Black
  6
ByLayer
 62
  256
370
   -1
100
AcDbLine
 10
211.736
 20
-102.658
 11
211.754
 21
-102.609
  0
LINE
  5
2B1
100
AcDbEntity
  8
Black
  6
ByLayer
 62
  256
370
   -1
100
AcDbLine
 10
211.754
 20
-102.609
 11
211.787
 21
-102.569
  0
LINE
  5
2B2
100
AcDbEntity
  8
Black
  6
ByLayer
 62
  256
370
   -1
100
AcDbLine
 10
211.787
 20
-102.569
 11
211.832
 21
-102.543
  0
LINE
  5
2B3
100
AcDbEntity
  8
Black
  6
ByLayer
 62
  256
370
   -1
100
AcDbLine
 10
211.832
 20
-102.543
 11
211.884
 21
-102.534
  0
LINE
  5
2B4
100
AcDbEntity
  8
Black
  6
ByLayer
 62
  256
370
   -1
100
AcDbLine
 10
211.884
 20
-102.534
 11
212.169
 21
-102.534
  0
LINE
  5
2B5
100
AcDbEntity
  8
Black
  6
ByLayer
 62
  256
370
   -1
100
AcDbLine
 10
212.169
 20
-102.534
 11
212.178
 21
-102.535
  0
LINE
  5
2B6
100
AcDbEntity
  8
Black
  6
ByLayer
 62
  256
370
   -1
100
AcDbLine
 10
212.062
 20
-103.405
 11
211.972
 21
-103.45
  0
LINE
  5
2B7
100
AcDbEntity
  8
Black
  6
ByLayer
 62
  256
370
   -1
100
AcDbLine
 10
211.972
 20
-103.45
 11
211.935
 21
-103.487
  0
LINE
  5
2B8
100
AcDbEntity
  8
Black
  6
ByLayer
 62
  256
370
   -1
100
AcDbLine
 10
211.935
 20
-103.487
 11
211.891
 21
-103.576
  0
LINE
  5
2B9
100
AcDbEntity
  8
Black
  6
ByLayer
 62
  256
370
   -1
100
AcDbLine
 10
211.891
 20
-103.576
 11
211.891
 21
-103.862
  0
LINE
  5
2BA
100
AcDbEntity
  8
Black
  6
ByLayer
 62
  256
370
   -1
100
AcDbLine
 10
211.891
 20
-103.862
 11
211.935
 21
-103.952
  0
LINE
  5
2BB
100
AcDbEntity
  8
Black
  6
ByLayer
 62
  256
370
   -1
100
AcDbLine
 10
211.935
 20
-103.952
 11
211.972
 21
-103.989
  0
LINE
  5
2BC
100
AcDbEntity
  8
Black
  6
ByLayer
 62
  256
370
   -1
100
AcDbLine
 10
211.972
 20
-103.989
 11
212.062
 21
-104.034
  0
LINE
  5
2BD
100
AcDbEntity
  8
Black
  6
ByLayer
 62
  256
370
   -1
100
AcDbLine
 10
212.062
 20
-104.034
 11
212.277
 21
-104.034
  0
LINE
  5
2BE
100
AcDbEntity
  8
Black
  6
ByLayer
 62
  256
370
   -1
100
AcDbLine
 10
212.277
 20
-104.034
 11
212.366
 21
-103.989
  0
LINE
  5
2BF
100
AcDbEntity
  8
Black
  6
ByLayer
 62
  256
370
   -1
100
AcDbLine
 10
212.366
 20
-103.989
 11
212.403
 21
-103.952
  0
LINE
  5
2C0
100
AcDbEntity
  8
Black
  6
ByLayer
 62
  256
370
   -1
100
AcDbLine
 10
212.403
 20
-103.952
 11
212.448
 21
-103.862
  0
LINE
  5
2C1
100
AcDbEntity
  8
Black
  6
ByLayer
 62
  256
370
   -1
100
AcDbLine
 10
212.448
 20
-103.862
 11
212.448
 21
-103.576
  0
LINE
  5
2C2
100
AcDbEntity
  8
Black
  6
ByLayer
 62
  256
370
   -1
100
AcDbLine
 10
212.448
 20
-103.576
 11
212.403
 21
-103.487
  0
LINE
  5
2C3
100
AcDbEntity
  8
Black
  6
ByLayer
 62
  256
370
   -1
100
AcDbLine
 10
212.403
 20
-103.487
 11
212.366
 21
-103.45
  0
LINE
  5
2C4
100
AcDbEntity
  8
Black
  6
ByLayer
 62
  256
370
   -1
100
AcDbLine
 10
212.366
 20
-103.45
 11
212.277
 21
-103.405
  0
LINE
  5
2C5
100
AcDbEntity
  8
Black
  6
ByLayer
 62
  256
370
   -1
100
AcDbLine
 10
212.277
 20
-103.405
 11
212.062
 21
-103.405
  0
LINE
  5
2C6
100
AcDbEntity
  8
Black
  6
ByLayer
 62
  256
370
   -1
100
AcDbLine
 10
211.103
 20
-102.535
 11
211.109
 21
-102.534
  0
LINE
  5
2C7
100
AcDbEntity
  8
Black
  6
ByLayer
 62
  256
370
   -1
100
AcDbLine
 10
211.109
 20
-102.534
 11
211.129
 21
-102.539
  0
LINE
  5
2C8
100
AcDbEntity
  8
Black
  6
ByLayer
 62
  256
370
   -1
100
AcDbLine
 10
211.129
 20
-102.539
 11
211.149
 21
-102.543
  0
LINE
  5
2C9
100
AcDbEntity
  8
Black
  6
ByLayer
 62
  256
370
   -1
100
AcDbLine
 10
211.149
 20
-102.543
 11
211.154
 21
-102.545
  0
LINE
  5
2CA
100
AcDbEntity
  8
Black
  6
ByLayer
 62
  256
370
   -1
100
AcDbLine
 10
211.154
 20
-102.545
 11
211.16
 21
-102.547
  0
LINE
  5
2CB
100
AcDbEntity
  8
Black
  6
ByLayer
 62
  256
370
   -1
100
AcDbLine
 10
211.16
 20
-102.547
 11
211.177
 21
-102.558
  0
LINE
  5
2CC
100
AcDbEntity
  8
Black
  6
ByLayer
 62
  256
370
   -1
100
AcDbLine
 10
211.177
 20
-102.558
 11
211.194
 21
-102.569
  0
LINE
  5
2CD
100
AcDbEntity
  8
Black
  6
ByLayer
 62
  256
370
   -1
100
AcDbLine
 10
211.194
 20
-102.569
 11
211.198
 21
-102.573
  0
LINE
  5
2CE
100
AcDbEntity
  8
Black
  6
ByLayer
 62
  256
370
   -1
100
AcDbLine
 10
211.198
 20
-102.573
 11
211.203
 21
-102.576
  0
LINE
  5
2CF
100
AcDbEntity
  8
Black
  6
ByLayer
 62
  256
370
   -1
100
AcDbLine
 10
211.203
 20
-102.576
 11
211.215
 21
-102.593
  0
LINE
  5
2D0
100
AcDbEntity
  8
Black
  6
ByLayer
 62
  256
370
   -1
100
AcDbLine
 10
211.215
 20
-102.593
 11
211.228
 21
-102.609
  0
LINE
  5
2D1
100
AcDbEntity
  8
Black
  6
ByLayer
 62
  256
370
   -1
100
AcDbLine
 10
211.228
 20
-102.609
 11
211.23
 21
-102.614
  0
LINE
  5
2D2
100
AcDbEntity
  8
Black
  6
ByLayer
 62
  256
370
   -1
100
AcDbLine
 10
211.23
 20
-102.614
 11
211.233
 21
-102.618
  0
LINE
  5
2D3
100
AcDbEntity
  8
Black
  6
ByLayer
 62
  256
370
   -1
100
AcDbLine
 10
211.233
 20
-102.618
 11
211.239
 21
-102.638
  0
LINE
  5
2D4
100
AcDbEntity
  8
Black
  6
ByLayer
 62
  256
370
   -1
100
AcDbLine
 10
211.239
 20
-102.638
 11
211.246
 21
-102.658
  0
LINE
  5
2D5
100
AcDbEntity
  8
Black
  6
ByLayer
 62
  256
370
   -1
100
AcDbLine
 10
211.246
 20
-102.658
 11
211.246
 21
-102.663
  0
LINE
  5
2D6
100
AcDbEntity
  8
Black
  6
ByLayer
 62
  256
370
   -1
100
AcDbLine
 10
211.246
 20
-102.663
 11
211.247
 21
-102.669
  0
LINE
  5
2D7
100
AcDbEntity
  8
Black
  6
ByLayer
 62
  256
370
   -1
100
AcDbLine
 10
211.247
 20
-102.669
 11
211.319
 21
-103.383
  0
LINE
  5
2D8
100
AcDbEntity
  8
Black
  6
ByLayer
 62
  256
370
   -1
100
AcDbLine
 10
211.319
 20
-103.383
 11
211.318
 21
-103.384
  0
LINE
  5
2D9
100
AcDbEntity
  8
Black
  6
ByLayer
 62
  256
370
   -1
100
AcDbLine
 10
211.318
 20
-103.384
 11
211.319
 21
-103.385
  0
LINE
  5
2DA
100
AcDbEntity
  8
Black
  6
ByLayer
 62
  256
370
   -1
100
AcDbLine
 10
211.319
 20
-103.385
 11
211.317
 21
-103.41
  0
LINE
  5
2DB
100
AcDbEntity
  8
Black
  6
ByLayer
 62
  256
370
   -1
100
AcDbLine
 10
211.317
 20
-103.41
 11
211.315
 21
-103.435
  0
LINE
  5
2DC
100
AcDbEntity
  8
Black
  6
ByLayer
 62
  256
370
   -1
100
AcDbLine
 10
211.315
 20
-103.435
 11
211.314
 21
-103.436
  0
LINE
  5
2DD
100
AcDbEntity
  8
Black
  6
ByLayer
 62
  256
370
   -1
100
AcDbLine
 10
211.314
 20
-103.436
 11
211.314
 21
-103.437
  0
LINE
  5
2DE
100
AcDbEntity
  8
Black
  6
ByLayer
 62
  256
370
   -1
100
AcDbLine
 10
211.314
 20
-103.437
 11
211.304
 21
-103.459
  0
LINE
  5
2DF
100
AcDbEntity
  8
Black
  6
ByLayer
 62
  256
370
   -1
100
AcDbLine
 10
211.304
 20
-103.459
 11
211.293
 21
-103.482
  0
LINE
  5
2E0
100
AcDbEntity
  8
Black
  6
ByLayer
 62
  256
370
   -1
100
AcDbLine
 10
211.293
 20
-103.482
 11
211.293
 21
-103.483
  0
LINE
  5
2E1
100
AcDbEntity
  8
Black
  6
ByLayer
 62
  256
370
   -1
100
AcDbLine
 10
211.293
 20
-103.483
 11
211.292
 21
-103.484
  0
LINE
  5
2E2
100
AcDbEntity
  8
Black
  6
ByLayer
 62
  256
370
   -1
100
AcDbLine
 10
211.292
 20
-103.484
 11
211.274
 21
-103.502
  0
LINE
  5
2E3
100
AcDbEntity
  8
Black
  6
ByLayer
 62
  256
370
   -1
100
AcDbLine
 10
211.274
 20
-103.502
 11
211.257
 21
-103.52
  0
LINE
  5
2E4
100
AcDbEntity
  8
Black
  6
ByLayer
 62
  256
370
   -1
100
AcDbLine
 10
211.257
 20
-103.52
 11
211.256
 21
-103.52
  0
LINE
  5
2E5
100
AcDbEntity
  8
Black
  6
ByLayer
 62
  256
370
   -1
100
AcDbLine
 10
211.256
 20
-103.52
 11
211.255
 21
-103.521
  0
LINE
  5
2E6
100
AcDbEntity
  8
Black
  6
ByLayer
 62
  256
370
   -1
100
AcDbLine
 10
211.255
 20
-103.521
 11
211.233
 21
-103.531
  0
LINE
  5
2E7
100
AcDbEntity
  8
Black
  6
ByLayer
 62
  256
370
   -1
100
AcDbLine
 10
211.233
 20
-103.531
 11
211.21
 21
-103.542
  0
LINE
  5
2E8
100
AcDbEntity
  8
Black
  6
ByLayer
 62
  256
370
   -1
100
AcDbLine
 10
211.21
 20
-103.542
 11
211.209
 21
-103.542
  0
LINE
  5
2E9
100
AcDbEntity
  8
Black
  6
ByLayer
 62
  256
370
   -1
100
AcDbLine
 10
211.209
 20
-103.542
 11
211.208
 21
-103.543
  0
LINE
  5
2EA
100
AcDbEntity
  8
Black
  6
ByLayer
 62
  256
370
   -1
100
AcDbLine
 10
211.208
 20
-103.543
 11
211.183
 21
-103.545
  0
LINE
  5
2EB
100
AcDbEntity
  8
Black
  6
ByLayer
 62
  256
370
   -1
100
AcDbLine
 10
211.183
 20
-103.545
 11
211.158
 21
-103.547
  0
LINE
  5
2EC
100
AcDbEntity
  8
Black
  6
ByLayer
 62
  256
370
   -1
100
AcDbLine
 10
211.158
 20
-103.547
 11
211.157
 21
-103.547
  0
LINE
  5
2ED
100
AcDbEntity
  8
Black
  6
ByLayer
 62
  256
370
   -1
100
AcDbLine
 10
211.157
 20
-103.547
 11
211.156
 21
-103.547
  0
LINE
  5
2EE
100
AcDbEntity
  8
Black
  6
ByLayer
 62
  256
370
   -1
100
AcDbLine
 10
211.156
 20
-103.547
 11
211.132
 21
-103.541
  0
LINE
  5
2EF
100
AcDbEntity
  8
Black
  6
ByLayer
 62
  256
370
   -1
100
AcDbLine
 10
211.132
 20
-103.541
 11
211.108
 21
-103.535
  0
LINE
  5
2F0
100
AcDbEntity
  8
Black
  6
ByLayer
 62
  256
370
   -1
100
AcDbLine
 10
211.108
 20
-103.535
 11
211.107
 21
-103.534
  0
LINE
  5
2F1
100
AcDbEntity
  8
Black
  6
ByLayer
 62
  256
370
   -1
100
AcDbLine
 10
211.107
 20
-103.534
 11
211.106
 21
-103.534
  0
LINE
  5
2F2
100
AcDbEntity
  8
Black
  6
ByLayer
 62
  256
370
   -1
100
AcDbLine
 10
211.106
 20
-103.534
 11
211.085
 21
-103.519
  0
LINE
  5
2F3
100
AcDbEntity
  8
Black
  6
ByLayer
 62
  256
370
   -1
100
AcDbLine
 10
211.085
 20
-103.519
 11
211.065
 21
-103.505
  0
LINE
  5
2F4
100
AcDbEntity
  8
Black
  6
ByLayer
 62
  256
370
   -1
100
AcDbLine
 10
211.065
 20
-103.505
 11
211.064
 21
-103.504
  0
LINE
  5
2F5
100
AcDbEntity
  8
Black
  6
ByLayer
 62
  256
370
   -1
100
AcDbLine
 10
211.064
 20
-103.504
 11
211.063
 21
-103.504
  0
LINE
  5
2F6
100
AcDbEntity
  8
Black
  6
ByLayer
 62
  256
370
   -1
100
AcDbLine
 10
211.063
 20
-103.504
 11
211.009
 21
-103.45
  0
LINE
  5
2F7
100
AcDbEntity
  8
Black
  6
ByLayer
 62
  256
370
   -1
100
AcDbLine
 10
211.009
 20
-103.45
 11
210.92
 21
-103.405
  0
LINE
  5
2F8
100
AcDbEntity
  8
Black
  6
ByLayer
 62
  256
370
   -1
100
AcDbLine
 10
210.92
 20
-103.405
 11
210.633
 21
-103.405
  0
LINE
  5
2F9
100
AcDbEntity
  8
Black
  6
ByLayer
 62
  256
370
   -1
100
AcDbLine
 10
210.633
 20
-103.405
 11
210.544
 21
-103.45
  0
LINE
  5
2FA
100
AcDbEntity
  8
Black
  6
ByLayer
 62
  256
370
   -1
100
AcDbLine
 10
210.544
 20
-103.45
 11
210.507
 21
-103.487
  0
LINE
  5
2FB
100
AcDbEntity
  8
Black
  6
ByLayer
 62
  256
370
   -1
100
AcDbLine
 10
210.507
 20
-103.487
 11
210.462
 21
-103.576
  0
LINE
  5
2FC
100
AcDbEntity
  8
Black
  6
ByLayer
 62
  256
370
   -1
100
AcDbLine
 10
210.462
 20
-103.576
 11
210.462
 21
-103.862
  0
LINE
  5
2FD
100
AcDbEntity
  8
Black
  6
ByLayer
 62
  256
370
   -1
100
AcDbLine
 10
210.462
 20
-103.862
 11
210.507
 21
-103.952
  0
LINE
  5
2FE
100
AcDbEntity
  8
Black
  6
ByLayer
 62
  256
370
   -1
100
AcDbLine
 10
210.507
 20
-103.952
 11
210.544
 21
-103.989
  0
LINE
  5
2FF
100
AcDbEntity
  8
Black
  6
ByLayer
 62
  256
370
   -1
100
AcDbLine
 10
210.544
 20
-103.989
 11
210.633
 21
-104.034
  0
LINE
  5
300
100
AcDbEntity
  8
Black
  6
ByLayer
 62
  256
370
   -1
100
AcDbLine
 10
210.633
 20
-104.034
 11
210.92
 21
-104.034
  0
LINE
  5
301
100
AcDbEntity
  8
Black
  6
ByLayer
 62
  256
370
   -1
100
AcDbLine
 10
210.92
 20
-104.034
 11
211.009
 21
-103.989
  0
LINE
  5
302
100
AcDbEntity
  8
Black
  6
ByLayer
 62
  256
370
   -1
100
AcDbLine
 10
211.009
 20
-103.989
 11
211.063
 21
-103.935
  0
LINE
  5
303
100
AcDbEntity
  8
Black
  6
ByLayer
 62
  256
370
   -1
100
AcDbLine
 10
211.063
 20
-103.935
 11
211.106
 21
-103.905
  0
LINE
  5
304
100
AcDbEntity
  8
Black
  6
ByLayer
 62
  256
370
   -1
100
AcDbLine
 10
211.106
 20
-103.905
 11
211.156
 21
-103.891
  0
LINE
  5
305
100
AcDbEntity
  8
Black
  6
ByLayer
 62
  256
370
   -1
100
AcDbLine
 10
211.156
 20
-103.891
 11
211.208
 21
-103.896
  0
LINE
  5
306
100
AcDbEntity
  8
Black
  6
ByLayer
 62
  256
370
   -1
100
AcDbLine
 10
211.208
 20
-103.896
 11
211.255
 21
-103.918
  0
LINE
  5
307
100
AcDbEntity
  8
Black
  6
ByLayer
 62
  256
370
   -1
100
AcDbLine
 10
211.255
 20
-103.918
 11
211.292
 21
-103.955
  0
LINE
  5
308
100
AcDbEntity
  8
Black
  6
ByLayer
 62
  256
370
   -1
100
AcDbLine
 10
211.292
 20
-103.955
 11
211.314
 21
-104.002
  0
LINE
  5
309
100
AcDbEntity
  8
Black
  6
ByLayer
 62
  256
370
   -1
100
AcDbLine
 10
211.314
 20
-104.002
 11
211.319
 21
-104.054
  0
LINE
  5
30A
100
AcDbEntity
  8
Black
  6
ByLayer
 62
  256
370
   -1
100
AcDbLine
 10
211.319
 20
-104.054
 11
211.305
 21
-104.104
  0
LINE
  5
30B
100
AcDbEntity
  8
Black
  6
ByLayer
 62
  256
370
   -1
100
AcDbLine
 10
211.305
 20
-104.104
 11
211.275
 21
-104.147
  0
LINE
  5
30C
100
AcDbEntity
  8
Black
  6
ByLayer
 62
  256
370
   -1
100
AcDbLine
 10
211.275
 20
-104.147
 11
211.204
 21
-104.218
  0
LINE
  5
30D
100
AcDbEntity
  8
Black
  6
ByLayer
 62
  256
370
   -1
100
AcDbLine
 10
211.204
 20
-104.218
 11
211.184
 21
-104.232
  0
LINE
  5
30E
100
AcDbEntity
  8
Black
  6
ByLayer
 62
  256
370
   -1
100
AcDbLine
 10
211.184
 20
-104.232
 11
211.165
 21
-104.246
  0
LINE
  5
30F
100
AcDbEntity
  8
Black
  6
ByLayer
 62
  256
370
   -1
100
AcDbLine
 10
211.165
 20
-104.246
 11
211.022
 21
-104.318
  0
LINE
  5
310
100
AcDbEntity
  8
Black
  6
ByLayer
 62
  256
370
   -1
100
AcDbLine
 10
211.022
 20
-104.318
 11
211.014
 21
-104.32
  0
LINE
  5
311
100
AcDbEntity
  8
Black
  6
ByLayer
 62
  256
370
   -1
100
AcDbLine
 10
211.014
 20
-104.32
 11
211.006
 21
-104.325
  0
LINE
  5
312
100
AcDbEntity
  8
Black
  6
ByLayer
 62
  256
370
   -1
100
AcDbLine
 10
211.006
 20
-104.325
 11
210.989
 21
-104.328
  0
LINE
  5
313
100
AcDbEntity
  8
Black
  6
ByLayer
 62
  256
370
   -1
100
AcDbLine
 10
210.989
 20
-104.328
 11
210.972
 21
-104.333
  0
LINE
  5
314
100
AcDbEntity
  8
Black
  6
ByLayer
 62
  256
370
   -1
100
AcDbLine
 10
210.972
 20
-104.333
 11
210.964
 21
-104.332
  0
LINE
  5
315
100
AcDbEntity
  8
Black
  6
ByLayer
 62
  256
370
   -1
100
AcDbLine
 10
210.964
 20
-104.332
 11
210.955
 21
-104.334
  0
LINE
  5
316
100
AcDbEntity
  8
Black
  6
ByLayer
 62
  256
370
   -1
100
AcDbLine
 10
210.955
 20
-104.334
 11
210.598
 21
-104.334
  0
LINE
  5
317
100
AcDbEntity
  8
Black
  6
ByLayer
 62
  256
370
   -1
100
AcDbLine
 10
210.598
 20
-104.334
 11
210.589
 21
-104.332
  0
LINE
  5
318
100
AcDbEntity
  8
Black
  6
ByLayer
 62
  256
370
   -1
100
AcDbLine
 10
210.589
 20
-104.332
 11
210.581
 21
-104.333
  0
LINE
  5
319
100
AcDbEntity
  8
Black
  6
ByLayer
 62
  256
370
   -1
100
AcDbLine
 10
210.581
 20
-104.333
 11
210.564
 21
-104.328
  0
LINE
  5
31A
100
AcDbEntity
  8
Black
  6
ByLayer
 62
  256
370
   -1
100
AcDbLine
 10
210.564
 20
-104.328
 11
210.547
 21
-104.325
  0
LINE
  5
31B
100
AcDbEntity
  8
Black
  6
ByLayer
 62
  256
370
   -1
100
AcDbLine
 10
210.547
 20
-104.325
 11
210.539
 21
-104.32
  0
LINE
  5
31C
100
AcDbEntity
  8
Black
  6
ByLayer
 62
  256
370
   -1
100
AcDbLine
 10
210.539
 20
-104.32
 11
210.531
 21
-104.318
  0
LINE
  5
31D
100
AcDbEntity
  8
Black
  6
ByLayer
 62
  256
370
   -1
100
AcDbLine
 10
210.531
 20
-104.318
 11
210.388
 21
-104.246
  0
LINE
  5
31E
100
AcDbEntity
  8
Black
  6
ByLayer
 62
  256
370
   -1
100
AcDbLine
 10
210.388
 20
-104.246
 11
210.369
 21
-104.232
  0
LINE
  5
31F
100
AcDbEntity
  8
Black
  6
ByLayer
 62
  256
370
   -1
100
AcDbLine
 10
210.369
 20
-104.232
 11
210.349
 21
-104.218
  0
LINE
  5
320
100
AcDbEntity
  8
Black
  6
ByLayer
 62
  256
370
   -1
100
AcDbLine
 10
210.349
 20
-104.218
 11
210.278
 21
-104.147
  0
LINE
  5
321
100
AcDbEntity
  8
Black
  6
ByLayer
 62
  256
370
   -1
100
AcDbLine
 10
210.278
 20
-104.147
 11
210.264
 21
-104.127
  0
LINE
  5
322
100
AcDbEntity
  8
Black
  6
ByLayer
 62
  256
370
   -1
100
AcDbLine
 10
210.264
 20
-104.127
 11
210.249
 21
-104.108
  0
LINE
  5
323
100
AcDbEntity
  8
Black
  6
ByLayer
 62
  256
370
   -1
100
AcDbLine
 10
210.249
 20
-104.108
 11
210.178
 21
-103.965
  0
LINE
  5
324
100
AcDbEntity
  8
Black
  6
ByLayer
 62
  256
370
   -1
100
AcDbLine
 10
210.178
 20
-103.965
 11
210.176
 21
-103.957
  0
LINE
  5
325
100
AcDbEntity
  8
Black
  6
ByLayer
 62
  256
370
   -1
100
AcDbLine
 10
210.176
 20
-103.957
 11
210.171
 21
-103.949
  0
LINE
  5
326
100
AcDbEntity
  8
Black
  6
ByLayer
 62
  256
370
   -1
100
AcDbLine
 10
210.171
 20
-103.949
 11
210.168
 21
-103.932
  0
LINE
  5
327
100
AcDbEntity
  8
Black
  6
ByLayer
 62
  256
370
   -1
100
AcDbLine
 10
210.168
 20
-103.932
 11
210.163
 21
-103.915
  0
LINE
  5
328
100
AcDbEntity
  8
Black
  6
ByLayer
 62
  256
370
   -1
100
AcDbLine
 10
210.163
 20
-103.915
 11
210.164
 21
-103.906
  0
LINE
  5
329
100
AcDbEntity
  8
Black
  6
ByLayer
 62
  256
370
   -1
100
AcDbLine
 10
210.164
 20
-103.906
 11
210.162
 21
-103.898
  0
LINE
  5
32A
100
AcDbEntity
  8
Black
  6
ByLayer
 62
  256
370
   -1
100
AcDbLine
 10
210.162
 20
-103.898
 11
210.162
 21
-103.541
  0
LINE
  5
32B
100
AcDbEntity
  8
Black
  6
ByLayer
 62
  256
370
   -1
100
AcDbLine
 10
210.162
 20
-103.541
 11
210.164
 21
-103.532
  0
LINE
  5
32C
100
AcDbEntity
  8
Black
  6
ByLayer
 62
  256
370
   -1
100
AcDbLine
 10
210.164
 20
-103.532
 11
210.163
 21
-103.524
  0
LINE
  5
32D
100
AcDbEntity
  8
Black
  6
ByLayer
 62
  256
370
   -1
100
AcDbLine
 10
210.163
 20
-103.524
 11
210.168
 21
-103.507
  0
LINE
  5
32E
100
AcDbEntity
  8
Black
  6
ByLayer
 62
  256
370
   -1
100
AcDbLine
 10
210.168
 20
-103.507
 11
210.171
 21
-103.489
  0
LINE
  5
32F
100
AcDbEntity
  8
Black
  6
ByLayer
 62
  256
370
   -1
100
AcDbLine
 10
210.171
 20
-103.489
 11
210.176
 21
-103.482
  0
LINE
  5
330
100
AcDbEntity
  8
Black
  6
ByLayer
 62
  256
370
   -1
100
AcDbLine
 10
210.176
 20
-103.482
 11
210.178
 21
-103.474
  0
LINE
  5
331
100
AcDbEntity
  8
Black
  6
ByLayer
 62
  256
370
   -1
100
AcDbLine
 10
210.178
 20
-103.474
 11
210.249
 21
-103.331
  0
LINE
  5
332
100
AcDbEntity
  8
Black
  6
ByLayer
 62
  256
370
   -1
100
AcDbLine
 10
210.249
 20
-103.331
 11
210.264
 21
-103.311
  0
LINE
  5
333
100
AcDbEntity
  8
Black
  6
ByLayer
 62
  256
370
   -1
100
AcDbLine
 10
210.264
 20
-103.311
 11
210.278
 21
-103.292
  0
LINE
  5
334
100
AcDbEntity
  8
Black
  6
ByLayer
 62
  256
370
   -1
100
AcDbLine
 10
210.278
 20
-103.292
 11
210.349
 21
-103.22
  0
LINE
  5
335
100
AcDbEntity
  8
Black
  6
ByLayer
 62
  256
370
   -1
100
AcDbLine
 10
210.349
 20
-103.22
 11
210.369
 21
-103.207
  0
LINE
  5
336
100
AcDbEntity
  8
Black
  6
ByLayer
 62
  256
370
   -1
100
AcDbLine
 10
210.369
 20
-103.207
 11
210.388
 21
-103.192
  0
LINE
  5
337
100
AcDbEntity
  8
Black
  6
ByLayer
 62
  256
370
   -1
100
AcDbLine
 10
210.388
 20
-103.192
 11
210.531
 21
-103.121
  0
LINE
  5
338
100
AcDbEntity
  8
Black
  6
ByLayer
 62
  256
370
   -1
100
AcDbLine
 10
210.531
 20
-103.121
 11
210.539
 21
-103.118
  0
LINE
  5
339
100
AcDbEntity
  8
Black
  6
ByLayer
 62
  256
370
   -1
100
AcDbLine
 10
210.539
 20
-103.118
 11
210.547
 21
-103.114
  0
LINE
  5
33A
100
AcDbEntity
  8
Black
  6
ByLayer
 62
  256
370
   -1
100
AcDbLine
 10
210.547
 20
-103.114
 11
210.564
 21
-103.111
  0
LINE
  5
33B
100
AcDbEntity
  8
Black
  6
ByLayer
 62
  256
370
   -1
100
AcDbLine
 10
210.564
 20
-103.111
 11
210.581
 21
-103.106
  0
LINE
  5
33C
100
AcDbEntity
  8
Black
  6
ByLayer
 62
  256
370
   -1
100
AcDbLine
 10
210.581
 20
-103.106
 11
210.589
 21
-103.107
  0
LINE
  5
33D
100
AcDbEntity
  8
Black
  6
ByLayer
 62
  256
370
   -1
100
AcDbLine
 10
210.589
 20
-103.107
 11
210.598
 21
-103.105
  0
LINE
  5
33E
100
AcDbEntity
  8
Black
  6
ByLayer
 62
  256
370
   -1
100
AcDbLine
 10
210.598
 20
-103.105
 11
210.955
 21
-103.105
  0
LINE
  5
33F
100
AcDbEntity
  8
Black
  6
ByLayer
 62
  256
370
   -1
100
AcDbLine
 10
210.955
 20
-103.105
 11
210.964
 21
-103.107
  0
LINE
  5
340
100
AcDbEntity
  8
Black
  6
ByLayer
 62
  256
370
   -1
100
AcDbLine
 10
210.964
 20
-103.107
 11
210.972
 21
-103.106
  0
LINE
  5
341
100
AcDbEntity
  8
Black
  6
ByLayer
 62
  256
370
   -1
100
AcDbLine
 10
210.972
 20
-103.106
 11
210.989
 21
-103.111
  0
LINE
  5
342
100
AcDbEntity
  8
Black
  6
ByLayer
 62
  256
370
   -1
100
AcDbLine
 10
210.989
 20
-103.111
 11
210.99
 21
-103.111
  0
LINE
  5
343
100
AcDbEntity
  8
Black
  6
ByLayer
 62
  256
370
   -1
100
AcDbLine
 10
210.99
 20
-103.111
 11
210.962
 21
-102.834
  0
LINE
  5
344
100
AcDbEntity
  8
Black
  6
ByLayer
 62
  256
370
   -1
100
AcDbLine
 10
210.962
 20
-102.834
 11
210.384
 21
-102.834
  0
LINE
  5
345
100
AcDbEntity
  8
Black
  6
ByLayer
 62
  256
370
   -1
100
AcDbLine
 10
210.384
 20
-102.834
 11
210.332
 21
-102.825
  0
LINE
  5
346
100
AcDbEntity
  8
Black
  6
ByLayer
 62
  256
370
   -1
100
AcDbLine
 10
210.332
 20
-102.825
 11
210.287
 21
-102.798
  0
LINE
  5
347
100
AcDbEntity
  8
Black
  6
ByLayer
 62
  256
370
   -1
100
AcDbLine
 10
210.287
 20
-102.798
 11
210.254
 21
-102.759
  0
LINE
  5
348
100
AcDbEntity
  8
Black
  6
ByLayer
 62
  256
370
   -1
100
AcDbLine
 10
210.254
 20
-102.759
 11
210.236
 21
-102.71
  0
LINE
  5
349
100
AcDbEntity
  8
Black
  6
ByLayer
 62
  256
370
   -1
100
AcDbLine
 10
210.236
 20
-102.71
 11
210.236
 21
-102.658
  0
LINE
  5
34A
100
AcDbEntity
  8
Black
  6
ByLayer
 62
  256
370
   -1
100
AcDbLine
 10
210.236
 20
-102.658
 11
210.254
 21
-102.609
  0
LINE
  5
34B
100
AcDbEntity
  8
Black
  6
ByLayer
 62
  256
370
   -1
100
AcDbLine
 10
210.254
 20
-102.609
 11
210.287
 21
-102.569
  0
LINE
  5
34C
100
AcDbEntity
  8
Black
  6
ByLayer
 62
  256
370
   -1
100
AcDbLine
 10
210.287
 20
-102.569
 11
210.332
 21
-102.543
  0
LINE
  5
34D
100
AcDbEntity
  8
Black
  6
ByLayer
 62
  256
370
   -1
100
AcDbLine
 10
210.332
 20
-102.543
 11
210.384
 21
-102.534
  0
LINE
  5
34E
100
AcDbEntity
  8
Black
  6
ByLayer
 62
  256
370
   -1
100
AcDbLine
 10
210.384
 20
-102.534
 11
211.098
 21
-102.534
  0
LINE
  5
34F
100
AcDbEntity
  8
Black
  6
ByLayer
 62
  256
370
   -1
100
AcDbLine
 10
211.098
 20
-102.534
 11
211.103
 21
-102.535
  0
ENDSEC
  0
SECTION
  2
OBJECTS
  0
DICTIONARY
  5
C
330
0
100
AcDbDictionary
281
    1
  3
ACAD_GROUP
350
D
  0
DICTIONARY
  5
D
330
C
100
AcDbDictionary
281
    1
  0
ENDSEC
  0
EOF
