0
SECTION
2
HEADER
9
$INSUNITS
70
4
9
$ACADVER
1
AC1014
9
$HANDSEED
5
FFFF
0
ENDSEC
0
SECTION
2
TABLES
0
TABLE
2
VPORT
5
8
100
AcDbSymbolTable
0
ENDTAB
0
TABLE
2
LTYPE
5
5
100
AcDbSymbolTable
0
LTYPE
5
14
100
AcDbSymbolTableRecord
100
AcDbLinetypeTableRecord
2
BYBLOCK
70
0
0
LTYPE
5
15
100
AcDbSymbolTableRecord
100
AcDbLinetypeTableRecord
2
BYLAYER
70
0
0
ENDTAB
0
TABLE
2
LAYER
5
2
100
AcDbSymbolTable
70
2
0
LAYER
5
50
100
AcDbSymbolTableRecord
100
AcDbLayerTableRecord
2
0
70
0
6
CONTINUOUS
0
ENDTAB
0
TABLE
2
STYLE
5
3
100
AcDbSymbolTable
70
1
0
STYLE
5
11
100
AcDbSymbolTableRecord
100
AcDbTextStyleTableRecord
2
STANDARD
70
0
0
ENDTAB
0
TABLE
2
VIEW
5
6
100
AcDbSymbolTable
70
0
0
ENDTAB
0
TABLE
2
UCS
5
7
100
AcDbSymbolTable
70
0
0
ENDTAB
0
TABLE
2
APPID
5
9
100
AcDbSymbolTable
70
2
0
APPID
5
12
100
AcDbSymbolTableRecord
100
AcDbRegAppTableRecord
2
ACAD
70
0
0
ENDTAB
0
TABLE
2
DIMSTYLE
5
A
100
AcDbSymbolTable
70
1
0
ENDTAB
0
TABLE
2
BLOCK_RECORD
5
1
100
AcDbSymbolTable
70
1
0
BLOCK_RECORD
5
1F
100
AcDbSymbolTableRecord
100
AcDbBlockTableRecord
2
*MODEL_SPACE
0
BLOCK_RECORD
5
1B
100
AcDbSymbolTableRecord
100
AcDbBlockTableRecord
2
*PAPER_SPACE
0
ENDTAB
0
ENDSEC
0
SECTION
2
BLOCKS
0
BLOCK
5
20
100
AcDbEntity
100
AcDbBlockBegin
2
*MODEL_SPACE
0
ENDBLK
5
21
100
AcDbEntity
100
AcDbBlockEnd
0
BLOCK
5
1C
100
AcDbEntity
100
AcDbBlockBegin
2
*PAPER_SPACE
0
ENDBLK
5
1D
100
AcDbEntity
100
AcDbBlockEnd
0
ENDSEC
0
SECTION
2
ENTITIES
0
LWPOLYLINE
5
100
100
AcDbEntity
8
0
100
AcDbPolyline
90
16
70
1
43
0.0
10
202.50694571627815
20
-103.95200000000003
10
202.54394571627816
20
-103.98899999999999
10
202.63294571627813
20
-104.03399999999999
10
202.84794571627813
20
-104.03399999999999
10
202.93794571627814
20
-103.98899999999999
10
202.97494571627817
20
-103.95200000000003
10
203.01894571627815
20
-103.86200000000002
10
203.01894571627815
20
-103.57600000000002
10
202.97494571627817
20
-103.48700000000001
10
202.93794571627814
20
-103.45
10
202.84794571627813
20
-103.405
10
202.63294571627813
20
-103.405
10
202.54394571627816
20
-103.45
10
202.50694571627815
20
-103.48700000000001
10
202.46194571627819
20
-103.57600000000002
10
202.46194571627819
20
-103.86200000000002
0
LWPOLYLINE
5
101
100
AcDbEntity
8
0
100
AcDbPolyline
90
48
70
1
43
0.0
10
158.35294571627813
20
-108.09700000000001
10
158.33294571627815
20
-108.07700000000003
10
158.30894571627817
20
-108.06100000000001
10
158.29294571627813
20
-108.03700000000001
10
158.27294571627814
20
-108.01700000000002
10
158.26094571627812
20
-107.99100000000001
10
158.24494571627812
20
-107.96799999999999
10
155.91094571627815
20
-102.96799999999999
10
155.88194571627812
20
-102.85899999999999
10
155.89194571627817
20
-102.74700000000003
10
155.93994571627809
20
-102.64400000000001
10
156.01894571627815
20
-102.56399999999999
10
156.12194571627813
20
-102.51700000000001
10
156.23394571627816
20
-102.50700000000002
10
156.34294571627811
20
-102.536
10
156.43594571627816
20
-102.60100000000001
10
156.49994571627812
20
-102.69300000000001
10
158.53894571627816
20
-107.06200000000003
10
160.57794571627818
20
-102.69300000000001
10
160.64294571627815
20
-102.60100000000001
10
160.73494571627811
20
-102.536
10
160.8439457162782
20
-102.50700000000002
10
160.95694571627814
20
-102.51700000000001
10
161.05894571627815
20
-102.56399999999999
10
161.13894571627816
20
-102.64400000000001
10
161.18594571627813
20
-102.74700000000003
10
161.19594571627812
20
-102.85899999999999
10
161.16694571627815
20
-102.96799999999999
10
158.83394571627818
20
-107.96799999999999
10
158.8169457162781
20
-107.99100000000001
10
158.80494571627816
20
-108.01700000000002
10
158.78494571627814
20
-108.03700000000001
10
158.76894571627818
20
-108.06100000000001
10
158.74594571627819
20
-108.07700000000003
10
158.72594571627812
20
-108.09700000000001
10
158.69994571627817
20
-108.10900000000001
10
158.67594571627814
20
-108.125
10
158.64894571627818
20
-108.133
10
158.62294571627811
20
-108.14500000000001
10
158.59494571627812
20
-108.14700000000002
10
158.56694571627813
20
-108.154
10
158.53894571627816
20
-108.15200000000002
10
158.51094571627814
20
-108.154
10
158.4829457162781
20
-108.14700000000002
10
158.45494571627819
20
-108.14500000000001
10
158.42894571627818
20
-108.133
10
158.40194571627816
20
-108.125
10
158.37894571627814
20
-108.10900000000001
0
LWPOLYLINE
5
102
100
AcDbEntity
8
0
100
AcDbPolyline
90
101
70
1
43
0.0
10
203.09394571627817
20
-104.24600000000001
10
202.95094571627814
20
-104.31800000000001
10
202.94194571627816
20
-104.32000000000001
10
202.93494571627815
20
-104.32500000000002
10
202.9179457162781
20
-104.328
10
202.9009457162781
20
-104.33300000000001
10
202.89194571627814
20
-104.33200000000001
10
202.88394571627816
20
-104.334
10
202.59794571627816
20
-104.334
10
202.58894571627815
20
-104.33200000000001
10
202.58094571627817
20
-104.33300000000001
10
202.56394571627817
20
-104.328
10
202.54694571627817
20
-104.32500000000002
10
202.53894571627819
20
-104.32000000000001
10
202.53094571627813
20
-104.31800000000001
10
202.38794571627813
20
-104.24600000000001
10
202.36894571627815
20
-104.23200000000001
10
202.34894571627817
20
-104.21799999999999
10
202.27794571627814
20
-104.14700000000002
10
202.26394571627816
20
-104.12700000000001
10
202.24894571627817
20
-104.108
10
202.17794571627815
20
-103.96500000000002
10
202.17594571627814
20
-103.95700000000002
10
202.17094571627814
20
-103.949
10
202.16794571627813
20
-103.932
10
202.16294571627813
20
-103.91500000000001
10
202.16394571627816
20
-103.90600000000001
10
202.16194571627818
20
-103.89800000000001
10
202.16194571627818
20
-103.32600000000001
10
202.16494571627811
20
-103.30799999999999
10
202.16694571627815
20
-103.29000000000001
10
202.23794571627815
20
-103.00399999999999
10
202.24794571627814
20
-102.98100000000002
10
202.25894571627816
20
-102.958
10
202.40194571627819
20
-102.74299999999999
10
202.41194571627815
20
-102.73299999999999
10
202.41994571627814
20
-102.72
10
202.49194571627814
20
-102.649
10
202.51094571627814
20
-102.63500000000001
10
202.53094571627813
20
-102.62100000000002
10
202.67394571627815
20
-102.54899999999999
10
202.68194571627816
20
-102.54700000000001
10
202.68894571627817
20
-102.54300000000001
10
202.70694571627814
20
-102.54000000000002
10
202.72394571627817
20
-102.53500000000001
10
202.73194571627815
20
-102.53500000000001
10
202.74094571627813
20
-102.53399999999999
10
203.02594571627816
20
-102.53399999999999
10
203.07794571627818
20
-102.54300000000001
10
203.12294571627814
20
-102.56900000000002
10
203.15594571627813
20
-102.60899999999999
10
203.17394571627815
20
-102.65799999999999
10
203.17394571627815
20
-102.71000000000001
10
203.15594571627813
20
-102.759
10
203.12294571627814
20
-102.798
10
203.07794571627818
20
-102.825
10
203.02594571627816
20
-102.834
10
202.77594571627813
20
-102.834
10
202.68694571627816
20
-102.87799999999999
10
202.64294571627815
20
-102.92200000000001
10
202.52294571627814
20
-103.10200000000002
10
202.51594571627811
20
-103.12799999999999
10
202.53094571627813
20
-103.12100000000001
10
202.53894571627819
20
-103.11799999999999
10
202.54694571627817
20
-103.11399999999999
10
202.56394571627817
20
-103.11100000000002
10
202.58094571627817
20
-103.10600000000001
10
202.58894571627815
20
-103.10700000000003
10
202.59794571627816
20
-103.10500000000002
10
202.88394571627816
20
-103.10500000000002
10
202.89194571627814
20
-103.10700000000003
10
202.9009457162781
20
-103.10600000000001
10
202.9179457162781
20
-103.11100000000002
10
202.93494571627815
20
-103.11399999999999
10
202.94194571627816
20
-103.11799999999999
10
202.95094571627814
20
-103.12100000000001
10
203.09394571627817
20
-103.19200000000002
10
203.11294571627815
20
-103.20700000000002
10
203.13194571627815
20
-103.22000000000001
10
203.20394571627816
20
-103.292
10
203.21794571627811
20
-103.31100000000001
10
203.23194571627818
20
-103.33100000000002
10
203.30294571627815
20
-103.474
10
203.30594571627813
20
-103.48200000000003
10
203.30994571627815
20
-103.489
10
203.31294571627814
20
-103.50700000000002
10
203.31794571627813
20
-103.52400000000002
10
203.31794571627813
20
-103.53200000000001
10
203.31894571627817
20
-103.54100000000001
10
203.31894571627817
20
-103.89800000000001
10
203.31794571627813
20
-103.90600000000001
10
203.31794571627813
20
-103.91500000000001
10
203.31294571627814
20
-103.932
10
203.30994571627815
20
-103.949
10
203.30594571627813
20
-103.95700000000002
10
203.30294571627815
20
-103.96500000000002
10
203.23194571627818
20
-104.108
10
203.21794571627811
20
-104.12700000000001
10
203.20394571627816
20
-104.14700000000002
10
203.13194571627815
20
-104.21799999999999
10
203.11294571627815
20
-104.23200000000001
0
LWPOLYLINE
5
103
100
AcDbEntity
8
0
100
AcDbPolyline
90
116
70
1
43
0.0
10
186.28094571627813
20
-107.90900000000001
10
185.2809457162781
20
-108.14700000000002
10
185.24294571627814
20
-108.14900000000002
10
185.20594571627814
20
-108.15600000000002
10
184.53894571627816
20
-108.15600000000002
10
184.50194571627816
20
-108.14900000000002
10
184.46394571627815
20
-108.14700000000002
10
183.46394571627815
20
-107.90900000000001
10
183.45794571627812
20
-107.90600000000001
10
183.45194571627815
20
-107.90600000000001
10
183.40694571627813
20
-107.88400000000001
10
183.35994571627816
20
-107.864
10
183.35594571627814
20
-107.86000000000001
10
183.34994571627814
20
-107.85700000000003
10
182.68394571627817
20
-107.38100000000001
10
182.64494571627813
20
-107.34200000000001
10
182.60594571627814
20
-107.303
10
182.27294571627817
20
-106.82700000000003
10
182.25394571627817
20
-106.78600000000002
10
182.23194571627815
20
-106.74799999999999
10
181.89894571627815
20
-105.79500000000002
10
181.88994571627813
20
-105.74100000000001
10
181.88094571627812
20
-105.68799999999999
10
181.88094571627812
20
-104.97399999999999
10
181.88994571627813
20
-104.92000000000002
10
181.89894571627815
20
-104.86600000000001
10
182.23194571627815
20
-103.91400000000002
10
182.25394571627817
20
-103.87500000000001
10
182.27294571627817
20
-103.83499999999999
10
182.60594571627814
20
-103.35900000000001
10
182.64494571627813
20
-103.32000000000001
10
182.68394571627817
20
-103.28000000000002
10
183.34994571627814
20
-102.804
10
183.35594571627814
20
-102.80200000000001
10
183.35994571627816
20
-102.79700000000003
10
183.40694571627813
20
-102.77700000000002
10
183.45194571627815
20
-102.756
10
183.45794571627812
20
-102.75500000000001
10
183.46394571627815
20
-102.753
10
184.46394571627815
20
-102.51400000000001
10
184.50194571627816
20
-102.512
10
184.53894571627816
20
-102.506
10
185.53894571627814
20
-102.506
10
185.59394571627817
20
-102.515
10
185.64794571627814
20
-102.52500000000001
10
186.31494571627815
20
-102.76299999999999
10
186.41294571627813
20
-102.819
10
186.48594571627814
20
-102.90500000000002
10
186.52594571627813
20
-103.01000000000002
10
186.52594571627813
20
-103.123
10
186.48794571627815
20
-103.23
10
186.41594571627815
20
-103.31600000000002
10
186.31894571627817
20
-103.37299999999999
10
186.20794571627815
20
-103.39399999999999
10
186.09694571627816
20
-103.375
10
185.48294571627815
20
-103.15600000000002
10
184.57694571627815
20
-103.15600000000002
10
183.67594571627814
20
-103.37000000000002
10
183.10694571627812
20
-103.77700000000002
10
182.83094571627814
20
-104.17100000000002
10
182.53094571627813
20
-105.029
10
182.53094571627813
20
-105.633
10
182.83094571627814
20
-106.49100000000001
10
183.10694571627812
20
-106.88400000000001
10
183.67594571627814
20
-107.29100000000001
10
184.57694571627815
20
-107.506
10
185.16794571627813
20
-107.506
10
186.06894571627817
20
-107.29100000000001
10
186.21394571627815
20
-107.18700000000001
10
186.21394571627815
20
-106.01300000000001
10
185.20594571627814
20
-106.01300000000001
10
185.09494571627815
20
-105.99299999999999
10
184.99694571627816
20
-105.93700000000001
10
184.92394571627815
20
-105.85000000000001
10
184.88594571627814
20
-105.744
10
184.88594571627814
20
-105.631
10
184.92394571627815
20
-105.52500000000002
10
184.99694571627816
20
-105.43900000000001
10
185.09494571627815
20
-105.38200000000002
10
185.20594571627814
20
-105.363
10
186.53894571627816
20
-105.363
10
186.56694571627816
20
-105.36799999999999
10
186.59594571627815
20
-105.36799999999999
10
186.62194571627816
20
-105.37700000000001
10
186.64994571627815
20
-105.38200000000002
10
186.67494571627813
20
-105.39700000000002
10
186.70194571627815
20
-105.40600000000001
10
186.72294571627813
20
-105.42500000000001
10
186.74794571627814
20
-105.43900000000001
10
186.76594571627814
20
-105.46100000000001
10
186.7879457162781
20
-105.479
10
186.80194571627817
20
-105.50399999999999
10
186.82094571627812
20
-105.52500000000002
10
186.82994571627813
20
-105.55200000000001
10
186.84494571627818
20
-105.57700000000003
10
186.84994571627814
20
-105.60500000000002
10
186.85894571627816
20
-105.631
10
186.85894571627816
20
-105.66000000000001
10
186.86394571627815
20
-105.68799999999999
10
186.86394571627815
20
-107.354
10
186.85694571627812
20
-107.395
10
186.85394571627819
20
-107.43600000000001
10
186.84694571627816
20
-107.45000000000002
10
186.84494571627818
20
-107.46600000000001
10
186.82394571627816
20
-107.50100000000002
10
186.80694571627816
20
-107.538
10
186.79594571627814
20
-107.55000000000001
10
186.7879457162781
20
-107.56299999999999
10
186.75694571627815
20
-107.59
10
186.7279457162781
20
-107.619
10
186.39494571627813
20
-107.85700000000003
10
186.38894571627816
20
-107.86000000000001
10
186.38494571627814
20
-107.864
10
186.33794571627814
20
-107.88400000000001
10
186.29294571627813
20
-107.90600000000001
10
186.28694571627815
20
-107.90600000000001
0
LWPOLYLINE
5
104
100
AcDbEntity
8
0
100
AcDbPolyline
90
74
70
1
43
0.0
10
195.64494571627816
20
-102.60300000000001
10
195.66394571627819
20
-102.58200000000002
10
195.68794571627814
20
-102.56700000000002
10
195.70994571627813
20
-102.54899999999999
10
195.73694571627814
20
-102.53900000000002
10
195.76094571627812
20
-102.52500000000001
10
195.78894571627816
20
-102.52000000000001
10
195.81594571627812
20
-102.51100000000001
10
195.84494571627815
20
-102.51100000000001
10
195.87294571627814
20
-102.506
10
198.53894571627816
20
-102.506
10
198.59394571627817
20
-102.515
10
198.64794571627814
20
-102.52500000000001
10
199.31494571627815
20
-102.76299999999999
10
199.35394571627819
20
-102.78500000000001
10
199.39494571627816
20
-102.804
10
199.72794571627813
20
-103.04200000000002
10
199.76694571627814
20
-103.08200000000001
10
199.80494571627816
20
-103.12
10
200.13894571627816
20
-103.59700000000002
10
200.15694571627816
20
-103.63500000000002
10
200.17794571627815
20
-103.67200000000003
10
200.17994571627816
20
-103.68600000000001
10
200.18594571627813
20
-103.69900000000001
10
200.18994571627815
20
-103.741
10
200.19794571627813
20
-103.78299999999999
10
200.19794571627813
20
-104.49700000000001
10
200.18994571627815
20
-104.53900000000002
10
200.18594571627813
20
-104.58100000000002
10
200.17994571627816
20
-104.59400000000001
10
200.17794571627815
20
-104.60799999999999
10
200.15694571627816
20
-104.64500000000001
10
200.13894571627816
20
-104.68400000000001
10
199.80494571627816
20
-105.16
10
199.76694571627814
20
-105.199
10
199.72794571627813
20
-105.23800000000001
10
199.39494571627816
20
-105.47600000000001
10
199.35394571627819
20
-105.49500000000002
10
199.31494571627815
20
-105.518
10
198.64794571627814
20
-105.75600000000001
10
198.59394571627817
20
-105.76500000000001
10
198.53894571627816
20
-105.77500000000001
10
198.31294571627814
20
-105.77500000000001
10
200.10494571627814
20
-107.60300000000001
10
200.16794571627813
20
-107.696
10
200.19694571627815
20
-107.806
10
200.18594571627813
20
-107.91800000000001
10
200.13694571627815
20
-108.02
10
200.05594571627813
20
-108.09899999999999
10
199.95294571627818
20
-108.14500000000001
10
199.84094571627816
20
-108.154
10
199.73194571627815
20
-108.124
10
199.63994571627813
20
-108.05799999999999
10
197.40294571627814
20
-105.77500000000001
10
196.19794571627813
20
-105.77500000000001
10
196.19794571627813
20
-107.83100000000002
10
196.17794571627815
20
-107.94200000000002
10
196.12094571627813
20
-108.04000000000002
10
196.03494571627812
20
-108.11200000000001
10
195.92894571627818
20
-108.15100000000001
10
195.81594571627812
20
-108.15100000000001
10
195.70994571627813
20
-108.11200000000001
10
195.62394571627817
20
-108.04000000000002
10
195.56694571627816
20
-107.94200000000002
10
195.54794571627815
20
-107.83100000000002
10
195.54794571627815
20
-102.83100000000002
10
195.55194571627817
20
-102.803
10
195.55194571627817
20
-102.774
10
195.56194571627816
20
-102.74700000000003
10
195.56694571627816
20
-102.71900000000001
10
195.58094571627811
20
-102.69500000000001
10
195.59094571627813
20
-102.66800000000001
10
195.60894571627816
20
-102.64600000000002
10
195.62394571627817
20
-102.62200000000001
0
LWPOLYLINE
5
105
100
AcDbEntity
8
0
100
AcDbPolyline
90
138
70
1
43
0.0
10
204.74194571627811
20
-103.932
10
204.73894571627818
20
-103.949
10
204.73394571627813
20
-103.95700000000002
10
204.73194571627815
20
-103.96500000000002
10
204.66094571627815
20
-104.108
10
204.64594571627813
20
-104.12700000000001
10
204.63194571627815
20
-104.14700000000002
10
204.56094571627813
20
-104.21799999999999
10
204.54094571627815
20
-104.23200000000001
10
204.52194571627814
20
-104.24600000000001
10
204.37894571627817
20
-104.31800000000001
10
204.37094571627813
20
-104.32000000000001
10
204.36294571627815
20
-104.32500000000002
10
204.34594571627812
20
-104.328
10
204.32894571627816
20
-104.33300000000001
10
204.32094571627812
20
-104.33200000000001
10
204.31194571627816
20
-104.334
10
203.95494571627813
20
-104.334
10
203.94594571627812
20
-104.33200000000001
10
203.93794571627814
20
-104.33300000000001
10
203.92094571627814
20
-104.328
10
203.90394571627814
20
-104.32500000000002
10
203.89594571627813
20
-104.32000000000001
10
203.88794571627813
20
-104.31800000000001
10
203.74494571627815
20
-104.24600000000001
10
203.72594571627812
20
-104.23200000000001
10
203.70594571627811
20
-104.21799999999999
10
203.63494571627814
20
-104.14700000000002
10
203.60494571627814
20
-104.10400000000001
10
203.59094571627816
20
-104.054
10
203.59594571627812
20
-104.00200000000001
10
203.61794571627814
20
-103.955
10
203.65494571627812
20
-103.91800000000001
10
203.70194571627815
20
-103.89600000000002
10
203.75394571627817
20
-103.89100000000001
10
203.80394571627815
20
-103.90500000000002
10
203.84694571627816
20
-103.93500000000002
10
203.90094571627813
20
-103.98899999999999
10
203.98994571627816
20
-104.03399999999999
10
204.27694571627819
20
-104.03399999999999
10
204.36594571627813
20
-103.98899999999999
10
204.40294571627814
20
-103.95200000000003
10
204.44794571627813
20
-103.86200000000002
10
204.44794571627813
20
-103.57600000000002
10
204.40294571627814
20
-103.48700000000001
10
204.36594571627813
20
-103.45
10
204.27694571627819
20
-103.405
10
203.98994571627816
20
-103.405
10
203.90094571627813
20
-103.45
10
203.84694571627816
20
-103.504
10
203.84594571627812
20
-103.504
10
203.84494571627815
20
-103.505
10
203.82494571627814
20
-103.51900000000001
10
203.80394571627815
20
-103.53400000000001
10
203.80294571627815
20
-103.53400000000001
10
203.80194571627814
20
-103.535
10
203.77794571627814
20
-103.54100000000001
10
203.75394571627817
20
-103.54700000000001
10
203.75294571627813
20
-103.54700000000001
10
203.75194571627816
20
-103.54700000000001
10
203.72694571627815
20
-103.54500000000002
10
203.70194571627815
20
-103.54300000000001
10
203.70094571627814
20
-103.542
10
203.69994571627814
20
-103.542
10
203.67694571627817
20
-103.53100000000001
10
203.65494571627812
20
-103.521
10
203.65394571627817
20
-103.52000000000001
10
203.65294571627814
20
-103.52000000000001
10
203.63594571627814
20
-103.50200000000001
10
203.61794571627814
20
-103.48399999999999
10
203.61694571627817
20
-103.483
10
203.61694571627817
20
-103.48200000000003
10
203.60594571627814
20
-103.459
10
203.59594571627812
20
-103.43700000000001
10
203.59594571627812
20
-103.43600000000002
10
203.59494571627812
20
-103.435
10
203.59294571627814
20
-103.41000000000001
10
203.59094571627816
20
-103.38500000000002
10
203.59194571627819
20
-103.384
10
203.59094571627816
20
-103.38300000000001
10
203.6629457162781
20
-102.669
10
203.66394571627814
20
-102.66300000000001
10
203.66394571627814
20
-102.65799999999999
10
203.67094571627814
20
-102.63800000000001
10
203.67694571627817
20
-102.61800000000001
10
203.67994571627816
20
-102.614
10
203.68194571627816
20
-102.60899999999999
10
203.69494571627814
20
-102.59299999999999
10
203.70694571627814
20
-102.57600000000002
10
203.71194571627819
20
-102.57300000000001
10
203.71594571627813
20
-102.56900000000002
10
203.73294571627812
20
-102.55800000000001
10
203.74994571627815
20
-102.54700000000001
10
203.75594571627812
20
-102.545
10
203.76094571627814
20
-102.54300000000001
10
203.78094571627813
20
-102.53900000000002
10
203.80094571627814
20
-102.53399999999999
10
203.80694571627816
20
-102.53500000000001
10
203.81194571627816
20
-102.53399999999999
10
204.52594571627813
20
-102.53399999999999
10
204.57794571627815
20
-102.54300000000001
10
204.62294571627814
20
-102.56900000000002
10
204.6559457162781
20
-102.60899999999999
10
204.67394571627813
20
-102.65799999999999
10
204.67394571627813
20
-102.71000000000001
10
204.6559457162781
20
-102.759
10
204.62294571627814
20
-102.798
10
204.57794571627815
20
-102.825
10
204.52594571627813
20
-102.834
10
203.94794571627813
20
-102.834
10
203.91994571627811
20
-103.11100000000002
10
203.92094571627814
20
-103.11100000000002
10
203.93794571627814
20
-103.10600000000001
10
203.94594571627812
20
-103.10700000000003
10
203.95494571627813
20
-103.10500000000002
10
204.31194571627816
20
-103.10500000000002
10
204.32094571627812
20
-103.10700000000003
10
204.32894571627816
20
-103.10600000000001
10
204.34594571627812
20
-103.11100000000002
10
204.36294571627815
20
-103.11399999999999
10
204.37094571627813
20
-103.11799999999999
10
204.37894571627817
20
-103.12100000000001
10
204.52194571627814
20
-103.19200000000002
10
204.54094571627815
20
-103.20700000000002
10
204.56094571627813
20
-103.22000000000001
10
204.63194571627815
20
-103.292
10
204.64594571627813
20
-103.31100000000001
10
204.66094571627815
20
-103.33100000000002
10
204.73194571627815
20
-103.474
10
204.73394571627813
20
-103.48200000000003
10
204.73894571627818
20
-103.489
10
204.74194571627811
20
-103.50700000000002
10
204.74694571627816
20
-103.52400000000002
10
204.74594571627813
20
-103.53200000000001
10
204.74794571627814
20
-103.54100000000001
10
204.74794571627814
20
-103.89800000000001
10
204.74594571627813
20
-103.90600000000001
10
204.74694571627816
20
-103.91500000000001
0
LWPOLYLINE
5
106
100
AcDbEntity
8
0
100
AcDbPolyline
90
72
70
1
43
0.0
10
191.98394571627816
20
-105.51700000000002
10
191.87294571627814
20
-105.53700000000001
10
189.86394571627815
20
-105.53700000000001
10
189.86394571627815
20
-107.506
10
192.87294571627814
20
-107.506
10
192.98394571627819
20
-107.52500000000001
10
193.08094571627811
20
-107.58200000000002
10
193.15394571627817
20
-107.66800000000001
10
193.19294571627813
20
-107.774
10
193.19294571627813
20
-107.887
10
193.15394571627817
20
-107.99300000000001
10
193.08094571627811
20
-108.08
10
192.98394571627819
20
-108.13600000000001
10
192.87294571627814
20
-108.15600000000002
10
189.53894571627816
20
-108.15600000000002
10
189.51094571627812
20
-108.15100000000001
10
189.48294571627812
20
-108.15100000000001
10
189.45594571627817
20
-108.14100000000002
10
189.42794571627815
20
-108.13600000000001
10
189.40294571627814
20
-108.12200000000003
10
189.37694571627816
20
-108.11200000000001
10
189.35494571627814
20
-108.09399999999999
10
189.32994571627813
20
-108.08
10
189.31194571627816
20
-108.05799999999999
10
189.28994571627814
20
-108.04000000000002
10
189.27594571627816
20
-108.01500000000001
10
189.25794571627813
20
-107.99300000000001
10
189.24794571627814
20
-107.96600000000001
10
189.23394571627819
20
-107.94200000000002
10
189.22894571627813
20
-107.91400000000002
10
189.21894571627817
20
-107.887
10
189.21894571627817
20
-107.85899999999999
10
189.21394571627815
20
-107.83100000000002
10
189.21394571627815
20
-102.83100000000002
10
189.21894571627817
20
-102.803
10
189.21894571627817
20
-102.774
10
189.22894571627813
20
-102.74700000000003
10
189.23394571627819
20
-102.71900000000001
10
189.24794571627814
20
-102.69500000000001
10
189.25794571627813
20
-102.66800000000001
10
189.27594571627816
20
-102.64600000000002
10
189.28994571627814
20
-102.62200000000001
10
189.31194571627816
20
-102.60300000000001
10
189.32994571627813
20
-102.58200000000002
10
189.35494571627814
20
-102.56700000000002
10
189.37694571627816
20
-102.54899999999999
10
189.40294571627814
20
-102.53900000000002
10
189.42794571627815
20
-102.52500000000001
10
189.45594571627817
20
-102.52000000000001
10
189.48294571627812
20
-102.51100000000001
10
189.51094571627812
20
-102.51100000000001
10
189.53894571627816
20
-102.506
10
192.87294571627814
20
-102.506
10
192.98394571627819
20
-102.52500000000001
10
193.08094571627811
20
-102.58200000000002
10
193.15394571627817
20
-102.66800000000001
10
193.19294571627813
20
-102.774
10
193.19294571627813
20
-102.887
10
193.15394571627817
20
-102.99300000000001
10
193.08094571627811
20
-103.08
10
192.98394571627819
20
-103.13600000000001
10
192.87294571627814
20
-103.15600000000002
10
189.86394571627815
20
-103.15600000000002
10
189.86394571627815
20
-104.88700000000001
10
191.87294571627814
20
-104.88700000000001
10
191.98394571627816
20
-104.90600000000001
10
192.08094571627814
20
-104.96299999999999
10
192.1539457162782
20
-105.04899999999999
10
192.19294571627813
20
-105.15500000000002
10
192.19294571627813
20
-105.268
10
192.1539457162782
20
-105.374
10
192.08094571627814
20
-105.46100000000001
0
LWPOLYLINE
5
107
100
AcDbEntity
8
0
100
AcDbPolyline
90
64
70
1
43
0.0
10
165.98194571627815
20
-108.137
10
165.92694571627814
20
-108.146
10
165.87294571627814
20
-108.15600000000002
10
164.53894571627816
20
-108.15600000000002
10
164.48494571627811
20
-108.146
10
164.42994571627816
20
-108.137
10
163.76294571627813
20
-107.89900000000002
10
163.72394571627814
20
-107.876
10
163.68394571627815
20
-107.85700000000003
10
163.01694571627814
20
-107.38100000000001
10
162.98694571627811
20
-107.34999999999999
10
162.95394571627816
20
-107.322
10
162.94794571627813
20
-107.31000000000002
10
162.93794571627814
20
-107.30000000000001
10
162.91994571627814
20
-107.26100000000002
10
162.89894571627815
20
-107.224
10
162.56594571627812
20
-106.271
10
162.55694571627816
20
-106.218
10
162.54794571627815
20
-106.164
10
162.54794571627815
20
-104.49700000000001
10
162.55694571627816
20
-104.44400000000002
10
162.56594571627812
20
-104.39
10
162.89894571627815
20
-103.438
10
162.91994571627814
20
-103.40000000000002
10
162.93794571627814
20
-103.36100000000002
10
162.94794571627813
20
-103.351
10
162.95394571627816
20
-103.339
10
162.98694571627811
20
-103.31100000000001
10
163.01694571627814
20
-103.28000000000002
10
163.68394571627815
20
-102.804
10
163.72394571627814
20
-102.78500000000001
10
163.76294571627813
20
-102.76299999999999
10
164.42994571627816
20
-102.52500000000001
10
164.48494571627811
20
-102.515
10
164.53894571627816
20
-102.506
10
165.87294571627814
20
-102.506
10
165.92694571627814
20
-102.515
10
165.98194571627815
20
-102.52500000000001
10
166.64794571627817
20
-102.76299999999999
10
166.68794571627814
20
-102.78500000000001
10
166.7279457162781
20
-102.804
10
167.39494571627816
20
-103.28000000000002
10
167.42494571627813
20
-103.31100000000001
10
167.45694571627814
20
-103.339
10
167.46394571627815
20
-103.351
10
167.47394571627814
20
-103.36100000000002
10
167.49194571627814
20
-103.40000000000002
10
167.51294571627813
20
-103.438
10
167.84594571627815
20
-104.39
10
167.85494571627817
20
-104.44400000000002
10
167.86394571627818
20
-104.49700000000001
10
167.86394571627818
20
-106.164
10
167.85494571627817
20
-106.218
10
167.84594571627815
20
-106.271
10
167.51294571627813
20
-107.224
10
167.49194571627814
20
-107.26100000000002
10
167.47394571627814
20
-107.30000000000001
10
167.46394571627815
20
-107.31000000000002
10
167.45694571627814
20
-107.322
10
167.42494571627813
20
-107.34999999999999
10
167.39494571627816
20
-107.38100000000001
10
166.7279457162781
20
-107.85700000000003
10
166.68794571627814
20
-107.876
10
166.64794571627817
20
-107.89900000000002
0
LWPOLYLINE
5
108
100
AcDbEntity
8
0
100
AcDbPolyline
90
49
70
1
43
0.0
10
175.83394571627815
20
-107.96799999999999
10
175.76894571627815
20
-108.06100000000001
10
175.67594571627814
20
-108.125
10
175.56694571627816
20
-108.154
10
175.45494571627813
20
-108.14500000000001
10
175.35294571627813
20
-108.09700000000001
10
175.27294571627812
20
-108.01700000000002
10
175.22494571627814
20
-107.91500000000001
10
175.21494571627815
20
-107.80200000000001
10
175.24494571627815
20
-107.69300000000001
10
177.57794571627815
20
-102.69300000000001
10
177.59394571627814
20
-102.67000000000002
10
177.60594571627814
20
-102.64400000000001
10
177.62594571627812
20
-102.624
10
177.64294571627815
20
-102.60100000000001
10
177.66594571627815
20
-102.58499999999999
10
177.68594571627813
20
-102.56399999999999
10
177.71194571627817
20
-102.55200000000002
10
177.73494571627816
20
-102.536
10
177.76294571627813
20
-102.529
10
177.78794571627813
20
-102.51700000000001
10
177.81694571627816
20
-102.51400000000001
10
177.84394571627817
20
-102.50700000000002
10
177.87294571627814
20
-102.50900000000001
10
177.9009457162781
20
-102.50700000000002
10
177.92794571627815
20
-102.51400000000001
10
177.95694571627814
20
-102.51700000000001
10
177.98194571627815
20
-102.529
10
178.00994571627814
20
-102.536
10
178.03294571627814
20
-102.55200000000002
10
178.05894571627815
20
-102.56399999999999
10
178.07894571627816
20
-102.58499999999999
10
178.10194571627815
20
-102.60100000000001
10
178.11894571627815
20
-102.624
10
178.13894571627816
20
-102.64400000000001
10
178.15094571627813
20
-102.67000000000002
10
178.16694571627812
20
-102.69300000000001
10
180.49994571627815
20
-107.69300000000001
10
180.52994571627812
20
-107.80200000000001
10
180.51994571627816
20
-107.91500000000001
10
180.47194571627816
20
-108.01700000000002
10
180.39194571627814
20
-108.09700000000001
10
180.28994571627811
20
-108.14500000000001
10
180.17794571627815
20
-108.154
10
180.06894571627817
20
-108.125
10
179.97594571627812
20
-108.06100000000001
10
179.91094571627812
20
-107.96799999999999
10
179.33194571627814
20
-106.727
10
176.41294571627813
20
-106.727
0
LWPOLYLINE
5
109
100
AcDbEntity
8
0
100
AcDbPolyline
90
16
70
1
43
0.0
10
166.38694571627815
20
-107.30200000000002
10
166.93294571627814
20
-106.91200000000002
10
167.21394571627815
20
-106.10900000000001
10
167.21394571627815
20
-104.55300000000001
10
166.93294571627814
20
-103.75
10
166.38694571627815
20
-103.36
10
165.81594571627812
20
-103.15600000000002
10
164.59494571627815
20
-103.15600000000002
10
164.02494571627815
20
-103.36
10
163.47894571627816
20
-103.75
10
163.19794571627813
20
-104.55300000000001
10
163.19794571627813
20
-106.10900000000001
10
163.47894571627816
20
-106.91200000000002
10
164.02494571627815
20
-107.30200000000002
10
164.59494571627815
20
-107.506
10
165.81594571627812
20
-107.506
0
LWPOLYLINE
5
110
100
AcDbEntity
8
0
100
AcDbPolyline
90
3
70
1
43
0.0
10
179.0289457162782
20
-106.07700000000001
10
177.87294571627814
20
-103.59899999999999
10
176.71594571627816
20
-106.07700000000001
0
LWPOLYLINE
5
111
100
AcDbEntity
8
0
100
AcDbPolyline
90
10
70
1
43
0.0
10
196.19794571627813
20
-103.15600000000002
10
196.19794571627813
20
-105.12500000000001
10
198.4829457162781
20
-105.12500000000001
10
199.05394571627818
20
-104.92100000000001
10
199.30494571627816
20
-104.741
10
199.54794571627815
20
-104.39500000000001
10
199.54794571627815
20
-103.88500000000001
10
199.30494571627816
20
-103.53900000000002
10
199.05394571627818
20
-103.36
10
198.4829457162781
20
-103.15600000000002
0
LWPOLYLINE
5
112
100
AcDbEntity
8
0
100
AcDbPolyline
90
33
70
1
43
0.0
10
174.27194571627814
20
-102.512
10
174.37694571627816
20
-102.55400000000002
10
174.46094571627813
20
-102.629
10
174.51394571627816
20
-102.729
10
174.53094571627813
20
-102.84
10
174.50794571627813
20
-102.95100000000002
10
174.44794571627813
20
-103.04700000000003
10
172.19794571627813
20
-105.57299999999999
10
172.19794571627813
20
-107.83100000000002
10
172.17794571627815
20
-107.94200000000002
10
172.12094571627813
20
-108.04000000000002
10
172.03494571627814
20
-108.11200000000001
10
171.92894571627815
20
-108.15100000000001
10
171.81594571627812
20
-108.15100000000001
10
171.70994571627816
20
-108.11200000000001
10
171.62394571627817
20
-108.04000000000002
10
171.56694571627816
20
-107.94200000000002
10
171.54794571627815
20
-107.83100000000002
10
171.54794571627815
20
-105.57299999999999
10
169.29694571627812
20
-103.04700000000003
10
169.23694571627811
20
-102.95100000000002
10
169.21394571627815
20
-102.84
10
169.23094571627814
20
-102.729
10
169.28394571627817
20
-102.629
10
169.36794571627814
20
-102.55400000000002
10
169.47294571627816
20
-102.512
10
169.58594571627813
20
-102.50900000000001
10
169.69294571627813
20
-102.545
10
169.78194571627819
20
-102.614
10
171.87294571627814
20
-104.961
10
173.96294571627811
20
-102.614
10
174.05194571627814
20
-102.545
10
174.15894571627817
20
-102.50900000000001
0
ENDSEC
0
SECTION
2
OBJECTS
0
DICTIONARY
5
C
100
AcDbDictionary
3
ACAD_GROUP
350
D
3
ACAD_MLINESTYLE
350
17
0
DICTIONARY
5
D
100
AcDbDictionary
0
DICTIONARY
5
1A
330
C
100
AcDbDictionary
0
DICTIONARY
5
17
100
AcDbDictionary
0
ENDSEC
0
EOF
