<?xml version="1.0" encoding="UTF-8" standalone="no"?>
<svg
   xmlns:dc="http://purl.org/dc/elements/1.1/"
   xmlns:cc="http://creativecommons.org/ns#"
   xmlns:rdf="http://www.w3.org/1999/02/22-rdf-syntax-ns#"
   xmlns:svg="http://www.w3.org/2000/svg"
   xmlns="http://www.w3.org/2000/svg"
   xmlns:sodipodi="http://sodipodi.sourceforge.net/DTD/sodipodi-0.dtd"
   xmlns:inkscape="http://www.inkscape.org/namespaces/inkscape"
   width="793.700787402"
   height="1122.51968504"
   version="1.1"
   id="svg46"
   sodipodi:docname="LogoDXF-CorrectOrientation.svg"
   inkscape:version="0.92.2 (5c3e80d, 2017-08-06)">
  <metadata
     id="metadata50">
    <rdf:RDF>
      <cc:Work
         rdf:about="">
        <dc:format>image/svg+xml</dc:format>
        <dc:type
           rdf:resource="http://purl.org/dc/dcmitype/StillImage" />
        <dc:title />
      </cc:Work>
    </rdf:RDF>
  </metadata>
  <sodipodi:namedview
     pagecolor="#ffffff"
     bordercolor="#666666"
     borderopacity="1"
     objecttolerance="10"
     gridtolerance="10"
     guidetolerance="10"
     inkscape:pageopacity="0"
     inkscape:pageshadow="2"
     inkscape:window-width="2560"
     inkscape:window-height="1360"
     id="namedview48"
     showgrid="false"
     inkscape:zoom="1.6819305"
     inkscape:cx="515.37389"
     inkscape:cy="769.96358"
     inkscape:window-x="-11"
     inkscape:window-y="-11"
     inkscape:window-maximized="1"
     inkscape:current-layer="g44" />
  <desc
     id="desc2">C:\Users\Ryota\Documents\GitHub\Voyager65\LogoDXF\LogoDXF-CorrectOrientation.dxf - scale = 1.000000, origin = (0.000000, 0.000000), method = manual</desc>
  <defs
     id="defs16">
    <marker
       id="DistanceX"
       orient="auto"
       refX="0.0"
       refY="0.0"
       style="overflow:visible">
      <path
         d="M 3,-3 L -3,3 M 0,-5 L  0,5"
         style="stroke:#000000; stroke-width:0.5"
         id="path4" />
    </marker>
    <pattern
       height="8"
       id="Hatch"
       patternUnits="userSpaceOnUse"
       width="8"
       x="0"
       y="0">
      <path
         d="M8 4 l-4,4"
         linecap="square"
         stroke="#000000"
         stroke-width="0.25"
         id="path7" />
      <path
         d="M6 2 l-4,4"
         linecap="square"
         stroke="#000000"
         stroke-width="0.25"
         id="path9" />
      <path
         d="M4 0 l-4,4"
         linecap="square"
         stroke="#000000"
         stroke-width="0.25"
         id="path11" />
    </pattern>
    <symbol
       id="*MODEL_SPACE" />
    <symbol
       id="*PAPER_SPACE" />
  </defs>
  <g
     inkscape:groupmode="layer"
     inkscape:label="0"
     id="g44">
    <path
       d="m 706.93508,524.16717 0.51328,0.51324 1.23455,0.62423 h 2.98242 l 1.24846,-0.62423 0.51324,-0.51324 0.61036,-1.24846 v -3.96729 l -0.61036,-1.23459 -0.51324,-0.51324 -1.24846,-0.62423 h -2.98242 l -1.23455,0.62423 -0.51328,0.51324 -0.62423,1.23459 v 3.96729 z"
       style="fill:none;stroke:#000000;stroke-width:1;stroke-miterlimit:4;stroke-dasharray:none"
       id="path18"
       inkscape:connector-curvature="0" />
    <path
       d="m 94.444792,581.66529 -0.277432,-0.27747 -0.332925,-0.22205 -0.221938,-0.33289 -0.277432,-0.27747 -0.166444,-0.36078 -0.221938,-0.31894 -32.376507,-69.35839 -0.402278,-1.51202 0.138698,-1.55364 0.66584,-1.42877 1.095864,-1.10973 1.428782,-0.65198 1.553628,-0.13873 1.512015,0.40229 1.290066,0.90166 0.887789,1.27621 28.284363,60.60536 28.284357,-60.60536 0.90167,-1.27621 1.27619,-0.90166 1.51201,-0.40229 1.5675,0.13873 1.41492,0.65198 1.10973,1.10973 0.65197,1.42877 0.13873,1.55364 -0.40227,1.51202 -32.36264,69.35839 -0.23582,0.31894 -0.16644,0.36078 -0.27743,0.27747 -0.22194,0.33289 -0.319052,0.22205 -0.277432,0.27747 -0.360672,0.16662 -0.332925,0.22205 -0.374535,0.11084 -0.360672,0.16626 -0.388408,0.0294 -0.388408,0.0973 -0.388404,-0.0294 -0.388408,0.0294 -0.388408,-0.0973 -0.388408,-0.0294 -0.360672,-0.16626 -0.374534,-0.11084 -0.319052,-0.22205 z"
       style="fill:none;stroke:#000000;stroke-width:1;stroke-miterlimit:4;stroke-dasharray:none"
       id="path20"
       inkscape:connector-curvature="0" />
    <path
       d="m 715.07778,528.24544 -1.98368,0.99877 -0.12478,0.0294 -0.0973,0.0694 -0.236,0.0415 -0.23563,0.0694 -0.12478,-0.0147 -0.11084,0.0294 h -3.96729 l -0.12479,-0.0294 -0.11084,0.0147 -0.23562,-0.0694 -0.236,-0.0415 -0.11084,-0.0694 -0.11084,-0.0294 -1.98364,-0.99877 -0.26352,-0.19416 -0.27747,-0.19415 -0.9849,-0.98487 -0.19416,-0.27747 -0.2081,-0.26352 -0.98486,-1.98368 -0.0294,-0.11084 -0.0694,-0.11084 -0.0415,-0.23599 -0.0694,-0.236 0.0147,-0.12478 -0.0294,-0.11085 v -7.9346 l 0.0415,-0.24957 0.0294,-0.24958 0.9849,-3.96728 0.13874,-0.31894 0.15268,-0.31894 1.98364,-2.98242 0.13873,-0.13874 0.11084,-0.1802 0.99878,-0.98487 0.26352,-0.19415 0.27747,-0.19416 1.98364,-0.99877 0.11084,-0.0294 0.0973,-0.0554 0.24958,-0.0415 0.23563,-0.0694 h 0.11084 l 0.12478,-0.0147 h 3.95345 l 0.72131,0.12479 0.62423,0.36078 0.45778,0.55486 0.24958,0.67973 v 0.72134 l -0.24958,0.67969 -0.45778,0.54103 -0.62423,0.37451 -0.72131,0.12478 h -3.46791 l -1.23459,0.61036 -0.61036,0.61036 -1.66459,2.49688 -0.0973,0.36078 0.2081,-0.0973 0.11084,-0.0415 0.11084,-0.0554 0.236,-0.0415 0.23563,-0.0694 0.11084,0.0147 0.12478,-0.0294 h 3.96729 l 0.11084,0.0294 0.12479,-0.0147 0.23562,0.0694 0.236,0.0415 0.0973,0.0554 0.12479,0.0415 1.98367,0.98491 0.26353,0.2081 0.26352,0.1802 0.99874,0.99874 0.19415,0.26353 0.19416,0.27746 0.9849,1.98368 0.0415,0.11084 0.0554,0.0973 0.0415,0.24958 0.0694,0.23599 v 0.11084 l 0.0147,0.12479 v 4.95222 l -0.0147,0.11084 v 0.12479 l -0.0694,0.236 -0.0415,0.23599 -0.0554,0.11084 -0.0415,0.11084 -0.9849,1.98368 -0.19416,0.26352 -0.19415,0.27747 -0.99874,0.98487 -0.26352,0.19415 z"
       style="fill:none;stroke:#000000;stroke-width:1;stroke-miterlimit:4;stroke-dasharray:none"
       id="path22"
       inkscape:connector-curvature="0" />
    <path
       d="m 481.85317,579.05741 -13.8717,3.30147 -0.52711,0.0294 -0.51325,0.0969 h -9.25243 l -0.51324,-0.0969 -0.52712,-0.0294 -13.87169,-3.30147 -0.0833,-0.0415 h -0.0833 l -0.62423,-0.30536 -0.65197,-0.27747 -0.0554,-0.0554 -0.0833,-0.0415 -9.23852,-6.60294 -0.54099,-0.54099 -0.54103,-0.54099 -4.61926,-6.60294 -0.26352,-0.56874 -0.30499,-0.52711 -4.61926,-13.21972 -0.12479,-0.74905 -0.12479,-0.73522 v -9.90437 l 0.12479,-0.74909 0.12479,-0.74906 4.61926,-13.20584 0.30499,-0.54099 0.26352,-0.55486 4.61926,-6.60294 0.54103,-0.54099 0.54099,-0.55487 9.23852,-6.60293 0.0833,-0.0294 0.0554,-0.0694 0.65197,-0.27747 0.62423,-0.29142 0.0833,-0.0147 0.0833,-0.0294 13.87169,-3.31534 0.52712,-0.0294 0.51324,-0.0833 h 13.87169 l 0.76293,0.12479 0.74909,0.13873 9.2524,3.30147 1.35945,0.77684 1.01261,1.19297 0.55486,1.45652 v 1.56748 l -0.52711,1.48427 -0.99878,1.19297 -1.34554,0.79067 -1.53976,0.29142 -1.53973,-0.26352 -8.51722,-3.03788 H 458.2158 l -12.49837,2.96855 -7.89298,5.64574 -3.82859,5.46547 -4.16151,11.90189 v 8.37851 l 4.16151,11.90189 3.82859,5.45159 7.89298,5.64575 12.49837,2.98241 h 8.19816 l 12.49841,-2.98241 2.01139,-1.44265 v -16.28534 h -13.98265 l -1.53976,-0.27747 -1.35941,-0.77684 -1.01265,-1.20684 -0.52712,-1.4704 v -1.56747 l 0.52712,-1.4704 1.01265,-1.19297 1.35941,-0.79071 1.53976,-0.26352 h 18.49096 l 0.38838,0.0694 h 0.40229 l 0.36078,0.12478 0.38839,0.0694 0.34683,0.2081 0.37455,0.12479 0.29141,0.26352 0.34684,0.19416 0.24957,0.30536 0.305,0.24957 0.19415,0.34684 0.26352,0.29141 0.12479,0.37451 0.2081,0.34684 0.0694,0.38842 0.12479,0.36078 v 0.40225 l 0.0694,0.38842 v 23.11022 l -0.0973,0.56873 -0.0415,0.56874 -0.0973,0.19415 -0.0294,0.22205 -0.29142,0.4855 -0.23563,0.51328 -0.15268,0.16626 -0.11084,0.18021 -0.43004,0.37454 -0.40225,0.40229 -4.6193,3.30147 -0.0833,0.0415 -0.0554,0.0554 -0.65198,0.27747 -0.62423,0.30536 h -0.0833 z"
       style="fill:none;stroke:#000000;stroke-width:1;stroke-miterlimit:4;stroke-dasharray:none"
       id="path24"
       inkscape:connector-curvature="0" />
    <path
       d="m 611.74758,505.45428 0.26352,-0.29142 0.33289,-0.2081 0.305,-0.24958 0.37454,-0.13873 0.33289,-0.19415 0.38842,-0.0694 0.37451,-0.12479 h 0.40229 l 0.38842,-0.0694 h 36.98191 l 0.76292,0.12479 0.74909,0.13874 9.2524,3.30147 0.54099,0.30536 0.56874,0.26352 4.61929,3.30147 0.54099,0.55486 0.52712,0.52712 4.63313,6.61681 0.24958,0.52712 0.29141,0.51324 0.0294,0.19415 0.0833,0.18021 0.0554,0.58261 0.11084,0.58261 v 9.90437 l -0.11084,0.58261 -0.0554,0.58261 -0.0833,0.18021 -0.0294,0.19416 -0.29141,0.51324 -0.24958,0.54099 -4.63313,6.60294 -0.52712,0.54099 -0.54099,0.54099 -4.61929,3.30147 -0.56874,0.26352 -0.54099,0.31894 -9.2524,3.30147 -0.74909,0.12479 -0.76292,0.13873 h -3.13503 l 24.85808,25.35745 0.87392,1.29005 0.40225,1.52589 -0.15268,1.55364 -0.67972,1.4149 -1.1236,1.09586 -1.42878,0.6381 -1.55364,0.12479 -1.51202,-0.41617 -1.27617,-0.91553 -31.03098,-31.66905 h -16.71538 v 28.52018 l -0.27746,1.53977 -0.79068,1.35941 -1.19297,0.99878 -1.47039,0.54099 h -1.56752 l -1.4704,-0.54099 -1.19296,-0.99878 -0.79068,-1.35941 -0.26352,-1.53977 v -69.35842 l 0.0554,-0.38842 v -0.40225 l 0.13874,-0.37455 0.0694,-0.38842 0.19416,-0.33289 0.13873,-0.37451 0.24958,-0.30499 0.2081,-0.33289 z"
       style="fill:none;stroke:#000000;stroke-width:1;stroke-miterlimit:4;stroke-dasharray:none"
       id="path26"
       inkscape:connector-curvature="0" />
    <path
       d="m 737.93831,523.88973 -0.0415,0.236 -0.0694,0.11084 -0.0294,0.11084 -0.98487,1.98368 -0.2081,0.26352 -0.19415,0.27747 -0.98491,0.98486 -0.27746,0.19416 -0.26352,0.19415 -1.98365,0.99878 -0.11084,0.0294 -0.11084,0.0694 -0.23599,0.0415 -0.23563,0.0694 -0.11084,-0.0147 -0.12479,0.0294 h -4.95218 l -0.12479,-0.0294 -0.11084,0.0147 -0.236,-0.0694 -0.23562,-0.0415 -0.11085,-0.0694 -0.11084,-0.0294 -1.98364,-0.99878 -0.26352,-0.19415 -0.27747,-0.19416 -0.9849,-0.98486 -0.41617,-0.59649 -0.19415,-0.69359 0.0694,-0.72131 0.30536,-0.65198 0.51324,-0.51324 0.65198,-0.30536 0.72131,-0.0694 0.69359,0.19416 0.59649,0.41616 0.74905,0.74906 1.23459,0.62423 h 3.98119 l 1.23455,-0.62423 0.51328,-0.51325 0.62423,-1.24846 v -3.96728 l -0.62423,-1.23459 -0.51328,-0.51324 -1.23455,-0.62423 h -3.98119 l -1.23459,0.62423 -0.74905,0.74905 h -0.0147 l -0.0147,0.0147 -0.27747,0.19416 -0.29142,0.2081 h -0.0147 l -0.0147,0.0147 -0.33289,0.0833 -0.33289,0.0833 h -0.0147 -0.0147 l -0.34683,-0.0294 -0.34684,-0.0294 -0.0147,-0.0147 h -0.0147 l -0.31894,-0.15268 -0.305,-0.13873 -0.0147,-0.0147 h -0.0147 l -0.23563,-0.24958 -0.24957,-0.24957 -0.0147,-0.0147 v -0.0147 l -0.15268,-0.31895 -0.13874,-0.30499 v -0.0147 l -0.0147,-0.0147 -0.0294,-0.34684 -0.0294,-0.34683 0.0147,-0.0147 -0.0147,-0.0147 0.99877,-9.90437 0.0147,-0.0833 v -0.0694 l 0.0973,-0.27747 0.0833,-0.27746 0.0415,-0.0554 0.0294,-0.0694 0.18021,-0.22205 0.16663,-0.23599 0.0694,-0.0415 0.0554,-0.0554 0.23599,-0.15268 0.236,-0.15268 0.0833,-0.0294 0.0694,-0.0294 0.27747,-0.0554 0.27746,-0.0694 0.0833,0.0147 0.0694,-0.0147 h 9.90437 l 0.7213,0.12479 0.62424,0.36078 0.45778,0.55486 0.24958,0.67973 v 0.72134 l -0.24958,0.67969 -0.45778,0.54102 -0.62424,0.37451 -0.7213,0.12479 h -8.01785 l -0.38838,3.84246 h 0.0147 l 0.236,-0.0694 0.11084,0.0147 0.12478,-0.0294 h 4.95219 l 0.12479,0.0294 0.11084,-0.0147 0.23563,0.0694 0.23599,0.0415 0.11084,0.0554 0.11084,0.0415 1.98364,0.9849 0.26353,0.2081 0.27746,0.18021 0.98491,0.99874 0.19415,0.26352 0.2081,0.27747 0.98487,1.98368 0.0294,0.11084 0.0694,0.0973 0.0415,0.24957 0.0694,0.236 -0.0147,0.11084 0.0294,0.12478 v 4.95223 l -0.0294,0.11084 0.0147,0.12478 z"
       style="fill:none;stroke:#000000;stroke-width:1;stroke-miterlimit:4;stroke-dasharray:none"
       id="path28"
       inkscape:connector-curvature="0" />
    <path
       d="m 560.96335,545.87635 -1.53973,0.27747 h -27.8682 v 27.31334 h 41.73986 l 1.53976,0.26352 1.34558,0.79071 1.01261,1.19293 0.54099,1.4704 v 1.56751 l -0.54099,1.4704 -1.01261,1.20684 -1.34558,0.77681 -1.53976,0.27746 h -46.24817 l -0.38842,-0.0694 h -0.38839 l -0.37454,-0.13874 -0.38842,-0.0694 -0.34684,-0.19416 -0.36078,-0.13873 -0.30536,-0.24958 -0.34684,-0.19415 -0.24957,-0.305 -0.30499,-0.24957 -0.19416,-0.34684 -0.24957,-0.30536 -0.13874,-0.37455 -0.19415,-0.33288 -0.0694,-0.38842 -0.13873,-0.37455 v -0.38842 l -0.0694,-0.38838 v -69.35842 l 0.0694,-0.38842 v -0.40226 l 0.13873,-0.37454 0.0694,-0.38842 0.19415,-0.33289 0.13874,-0.37451 0.24957,-0.30499 0.19416,-0.33289 0.30499,-0.26352 0.24957,-0.29142 0.34684,-0.2081 0.30536,-0.24958 0.36078,-0.13873 0.34684,-0.19415 0.38842,-0.0694 0.37454,-0.12479 h 0.38839 l 0.38842,-0.0694 h 46.24817 l 1.53976,0.26353 1.34558,0.79071 1.01261,1.19296 0.54099,1.4704 v 1.56748 l -0.54099,1.4704 -1.01261,1.20684 -1.34558,0.77684 -1.53976,0.27746 h -41.73986 v 24.01188 h 27.8682 l 1.53973,0.26352 1.34558,0.79068 1.01261,1.19296 0.54103,1.4704 v 1.56751 l -0.54103,1.4704 -1.01261,1.20684 z"
       style="fill:none;stroke:#000000;stroke-width:1;stroke-miterlimit:4;stroke-dasharray:none"
       id="path30"
       inkscape:connector-curvature="0" />
    <path
       d="m 200.27187,582.22015 -0.76295,0.12479 -0.74907,0.13873 h -18.50482 l -0.74908,-0.13873 -0.76294,-0.12479 -9.25241,-3.30143 -0.54099,-0.31895 -0.55487,-0.26352 -9.25241,-6.60294 -0.41616,-0.43 -0.45776,-0.38842 -0.0832,-0.16663 -0.13873,-0.13873 -0.24969,-0.54099 -0.2913,-0.51328 -4.61928,-13.21971 -0.12486,-0.73519 -0.12486,-0.74905 v -23.12412 l 0.12486,-0.73518 0.12486,-0.74909 4.61928,-13.20585 0.2913,-0.52711 0.24969,-0.54099 0.13873,-0.13874 0.0832,-0.16626 0.45776,-0.38842 0.41616,-0.43 9.25241,-6.60294 0.55487,-0.26352 0.54099,-0.30536 9.25241,-3.30147 0.76294,-0.13874 0.74908,-0.12478 h 18.50482 l 0.74907,0.12478 0.76295,0.13874 9.23853,3.30147 0.55488,0.30536 0.55486,0.26352 9.25242,6.60294 0.41614,0.43 0.4439,0.38842 0.0971,0.16626 0.13874,0.13874 0.24968,0.54099 0.2913,0.52711 4.61928,13.20585 0.12482,0.74909 0.12486,0.73518 v 23.12412 l -0.12486,0.74905 -0.12482,0.73519 -4.61928,13.21971 -0.2913,0.51328 -0.24968,0.54099 -0.13874,0.13873 -0.0971,0.16663 -0.4439,0.38842 -0.41614,0.43 -9.25242,6.60294 -0.55486,0.26352 -0.55488,0.31895 z"
       style="fill:none;stroke:#000000;stroke-width:1;stroke-miterlimit:4;stroke-dasharray:none"
       id="path32"
       inkscape:connector-curvature="0" />
    <path
       d="m 336.93567,579.87583 -0.90166,1.29009 -1.29004,0.88778 -1.51202,0.4023 -1.55364,-0.12479 -1.41491,-0.66585 -1.10972,-1.10973 -0.66585,-1.4149 -0.13874,-1.56752 0.41613,-1.51201 32.36265,-69.35839 0.22204,-0.31894 0.16663,-0.36078 0.27747,-0.27747 0.23563,-0.31894 0.31894,-0.22205 0.27747,-0.29142 0.36078,-0.16663 0.31894,-0.22204 0.38838,-0.0973 0.34684,-0.16627 0.40229,-0.0415 0.37451,-0.0973 0.40229,0.0294 0.38842,-0.0294 0.37451,0.0973 0.40229,0.0415 0.34684,0.16627 0.38842,0.0973 0.31894,0.22204 0.36078,0.16663 0.27747,0.29142 0.31894,0.22205 0.236,0.31894 0.27747,0.27747 0.16626,0.36078 0.22204,0.31894 32.36265,69.35839 0.41616,1.51201 -0.13873,1.56752 -0.66585,1.4149 -1.10973,1.10973 -1.4149,0.66585 -1.55364,0.12479 -1.51202,-0.4023 -1.29004,-0.88778 -0.90167,-1.29009 -8.03171,-17.21474 h -40.49144 z"
       style="fill:none;stroke:#000000;stroke-width:1;stroke-miterlimit:4;stroke-dasharray:none"
       id="path34"
       inkscape:connector-curvature="0" />
    <path
       d="m 205.8899,570.63731 7.57394,-5.40997 3.89794,-11.13896 v -21.58432 l -3.89794,-11.13896 -7.57394,-5.40997 -7.92073,-2.82981 h -16.93733 l -7.90686,2.82981 -7.57394,5.40997 -3.89794,11.13896 v 21.58432 l 3.89794,11.13896 7.57394,5.40997 7.90686,2.82981 h 16.93733 z"
       style="fill:none;stroke:#000000;stroke-width:1;stroke-miterlimit:4;stroke-dasharray:none"
       id="path36"
       inkscape:connector-curvature="0" />
    <path
       d="m 381.2557,553.64451 -16.03565,-34.37404 -16.04953,34.37404 z"
       style="fill:none;stroke:#000000;stroke-width:1;stroke-miterlimit:4;stroke-dasharray:none"
       id="path38"
       inkscape:connector-curvature="0" />
    <path
       d="m 619.41863,513.12532 v 27.31335 h 31.69679 l 7.92073,-2.82985 3.48183,-2.49689 3.3708,-4.79961 v -7.07456 l -3.3708,-4.79958 -3.48183,-2.48305 -7.92073,-2.82981 z"
       style="fill:none;stroke:#000000;stroke-width:1;stroke-miterlimit:4;stroke-dasharray:none"
       id="path40"
       inkscape:connector-curvature="0" />
    <path
       d="m 315.26811,504.19194 1.45653,0.58261 1.16522,1.0404 0.73521,1.38716 0.236,1.53976 -0.31894,1.53973 -0.8323,1.3317 -31.21129,35.03985 v 31.32228 l -0.27747,1.53977 -0.79068,1.35941 -1.19296,0.99878 -1.4704,0.54099 h -1.56752 l -1.47039,-0.54099 -1.19297,-0.99878 -0.79068,-1.35941 -0.26352,-1.53977 v -31.32228 l -31.22516,-35.03985 -0.8323,-1.3317 -0.31906,-1.53973 0.23582,-1.53976 0.73519,-1.38716 1.16523,-1.0404 1.45652,-0.58261 1.5675,-0.0415 1.48427,0.4994 1.23458,0.95712 29.00571,32.55684 28.99181,-32.55684 1.23459,-0.95712 1.48427,-0.4994 z"
       style="fill:none;stroke:#000000;stroke-width:1;stroke-miterlimit:4;stroke-dasharray:none"
       id="path42"
       inkscape:connector-curvature="0" />
  </g>
</svg>
