G04 #@! TF.FileFunction,Profile,NP*
%FSLAX46Y46*%
G04 Gerber Fmt 4.6, Leading zero omitted, Abs format (unit mm)*
G04 Created by KiCad (PCBNEW 4.0.7) date 04/19/18 16:53:26*
%MOMM*%
%LPD*%
G01*
G04 APERTURE LIST*
%ADD10C,0.100000*%
G04 APERTURE END LIST*
D10*
X173650000Y-79496000D02*
X173650000Y-78995700D01*
X250150000Y-88395400D02*
G75*
G02X250650000Y-88895400I0J-500000D01*
G01*
X235049000Y-79996000D02*
G75*
G02X235549000Y-79496000I500000J0D01*
G01*
X276844000Y-90996000D02*
X276844000Y-88895400D01*
X276043000Y-82595200D02*
X276344000Y-82595200D01*
X140600000Y-79496000D02*
X140299000Y-79496000D01*
X140600000Y-78995700D02*
G75*
G02X141100000Y-78495700I500000J0D01*
G01*
X235049000Y-88895400D02*
X235049000Y-90996000D01*
X276844000Y-82095200D02*
G75*
G02X276344000Y-82595200I-500000J0D01*
G01*
X250650000Y-90996000D02*
G75*
G02X250150000Y-91496000I-500000J0D01*
G01*
X276844000Y-82095200D02*
X276844000Y-79996000D01*
X276344000Y-79496000D02*
G75*
G02X276844000Y-79996000I0J-500000D01*
G01*
X275543000Y-78495700D02*
G75*
G02X276043000Y-78995700I0J-500000D01*
G01*
X249850000Y-79496000D02*
X249850000Y-78995700D01*
X236350000Y-92495000D02*
X249350000Y-92495000D01*
X250650000Y-90996000D02*
X250650000Y-88895400D01*
X275543000Y-78495700D02*
X262544000Y-78495700D01*
X249850000Y-91496000D02*
X250150000Y-91496000D01*
X140299000Y-82595200D02*
X140600000Y-82595200D01*
X250150000Y-88395400D02*
X249850000Y-88395400D01*
X235049000Y-79996000D02*
X235049000Y-82095200D01*
X249850000Y-91995000D02*
G75*
G02X249350000Y-92495000I-500000J0D01*
G01*
X235850000Y-79496000D02*
X235549000Y-79496000D01*
X276344000Y-88395400D02*
G75*
G02X276844000Y-88895400I0J-500000D01*
G01*
X139799000Y-79996000D02*
G75*
G02X140299000Y-79496000I500000J0D01*
G01*
X235549000Y-82595200D02*
G75*
G02X235049000Y-82095200I0J500000D01*
G01*
X276043000Y-79496000D02*
X276043000Y-78995700D01*
X261243000Y-79996000D02*
G75*
G02X261743000Y-79496000I500000J0D01*
G01*
X140600000Y-82595200D02*
X140600000Y-88395400D01*
X250650000Y-82095200D02*
G75*
G02X250150000Y-82595200I-500000J0D01*
G01*
X249850000Y-91995000D02*
X249850000Y-91496000D01*
X235549000Y-91496000D02*
G75*
G02X235049000Y-90996000I0J500000D01*
G01*
X276344000Y-88395400D02*
X276043000Y-88395400D01*
X262044000Y-78995700D02*
G75*
G02X262544000Y-78495700I500000J0D01*
G01*
X262044000Y-78995700D02*
X262044000Y-79496000D01*
X140600000Y-78995700D02*
X140600000Y-79496000D01*
X140600000Y-88395400D02*
X140299000Y-88395400D01*
X262044000Y-79496000D02*
X261743000Y-79496000D01*
X261243000Y-79996000D02*
X261243000Y-82095200D01*
X140299000Y-82595200D02*
G75*
G02X139799000Y-82095200I0J500000D01*
G01*
X261743000Y-82595200D02*
G75*
G02X261243000Y-82095200I0J500000D01*
G01*
X261743000Y-82595200D02*
X262044000Y-82595200D01*
X235850000Y-88395400D02*
X235549000Y-88395400D01*
X249850000Y-88395400D02*
X249850000Y-82595200D01*
X249850000Y-82595200D02*
X250150000Y-82595200D01*
X250650000Y-82095200D02*
X250650000Y-79996000D01*
X250150000Y-79496000D02*
X249850000Y-79496000D01*
X276043000Y-88395400D02*
X276043000Y-82595200D01*
X276344000Y-79496000D02*
X276043000Y-79496000D01*
X262044000Y-82595200D02*
X262044000Y-88395400D01*
X235850000Y-78995700D02*
G75*
G02X236350000Y-78495700I500000J0D01*
G01*
X249350000Y-78495700D02*
G75*
G02X249850000Y-78995700I0J-500000D01*
G01*
X262044000Y-88395400D02*
X261743000Y-88395400D01*
X235549000Y-91496000D02*
X235850000Y-91496000D01*
X235850000Y-91496000D02*
X235850000Y-91995000D01*
X235549000Y-82595200D02*
X235850000Y-82595200D01*
X249350000Y-78495700D02*
X236350000Y-78495700D01*
X250150000Y-79496000D02*
G75*
G02X250650000Y-79996000I0J-500000D01*
G01*
X235850000Y-78995700D02*
X235850000Y-79496000D01*
X276844000Y-90996000D02*
G75*
G02X276344000Y-91496000I-500000J0D01*
G01*
X236350000Y-92495000D02*
G75*
G02X235850000Y-91995000I0J500000D01*
G01*
X235850000Y-82595200D02*
X235850000Y-88395400D01*
X235049000Y-88895400D02*
G75*
G02X235549000Y-88395400I500000J0D01*
G01*
X139799000Y-79996000D02*
X139799000Y-82095200D01*
X192344000Y-110076050D02*
G75*
G02X191844000Y-109576050I0J500000D01*
G01*
X169175000Y-59945700D02*
G75*
G02X169675000Y-59445700I500000J0D01*
G01*
X168874000Y-63545300D02*
G75*
G02X168374000Y-63045300I0J500000D01*
G01*
X168874000Y-72445900D02*
X169175000Y-72445900D01*
X168374000Y-69845400D02*
G75*
G02X168874000Y-69345400I500000J0D01*
G01*
X191844000Y-97075400D02*
G75*
G02X192344000Y-96575400I500000J0D01*
G01*
X169175000Y-72445900D02*
X169175000Y-72945000D01*
X264938000Y-110045950D02*
X264938000Y-107945350D01*
X169675000Y-73445000D02*
G75*
G02X169175000Y-72945000I0J500000D01*
G01*
X169675000Y-73445000D02*
X182675000Y-73445000D01*
X183175000Y-69345400D02*
X183175000Y-63545300D01*
X182675000Y-59445700D02*
X169675000Y-59445700D01*
X183975000Y-71945900D02*
X183975000Y-69845400D01*
X201637000Y-96574000D02*
X202863000Y-96574000D01*
X183175000Y-72945000D02*
X183175000Y-72445900D01*
X183975000Y-63045300D02*
G75*
G02X183475000Y-63545300I-500000J0D01*
G01*
X183975000Y-63045300D02*
X183975000Y-60945800D01*
X183475000Y-60445800D02*
G75*
G02X183975000Y-60945800I0J-500000D01*
G01*
X169175000Y-63545300D02*
X169175000Y-69345400D01*
X183475000Y-60445800D02*
X183175000Y-60445800D01*
X264938000Y-110045950D02*
G75*
G02X264438000Y-110545950I-500000J0D01*
G01*
X169175000Y-69345400D02*
X168874000Y-69345400D01*
X169175000Y-60445800D02*
X168874000Y-60445800D01*
X168374000Y-60945800D02*
X168374000Y-63045300D01*
X182675000Y-59445700D02*
G75*
G02X183175000Y-59945700I0J-500000D01*
G01*
X168374000Y-60945800D02*
G75*
G02X168874000Y-60445800I500000J0D01*
G01*
X203363000Y-97074000D02*
X203363000Y-97774300D01*
X203363000Y-109576050D02*
X203363000Y-106844540D01*
X168874000Y-63545300D02*
X169175000Y-63545300D01*
X130774000Y-72445900D02*
G75*
G02X130274000Y-71945900I0J500000D01*
G01*
X130774000Y-72445900D02*
X131075000Y-72445900D01*
X183175000Y-72945000D02*
G75*
G02X182675000Y-73445000I-500000J0D01*
G01*
X183175000Y-60445800D02*
X183175000Y-59945700D01*
X131075000Y-72445900D02*
X131075000Y-72945000D01*
X145075000Y-72945000D02*
G75*
G02X144575000Y-73445000I-500000J0D01*
G01*
X145075000Y-72945000D02*
X145075000Y-72445900D01*
X145375000Y-69345400D02*
G75*
G02X145875000Y-69845400I0J-500000D01*
G01*
X183175000Y-72445900D02*
X183475000Y-72445900D01*
X203363000Y-109576050D02*
G75*
G02X202863000Y-110076050I-500000J0D01*
G01*
X193569000Y-96575400D02*
X192344000Y-96575400D01*
X191844000Y-106844540D02*
X191844000Y-109576050D01*
X183975000Y-71945900D02*
G75*
G02X183475000Y-72445900I-500000J0D01*
G01*
X183475000Y-69345400D02*
G75*
G02X183975000Y-69845400I0J-500000D01*
G01*
X130274000Y-69845400D02*
X130274000Y-71945900D01*
X145375000Y-69345400D02*
X145075000Y-69345400D01*
X264137000Y-110545950D02*
X264438000Y-110545950D01*
X192344000Y-110076050D02*
X202863000Y-110076050D01*
X264438000Y-107445350D02*
G75*
G02X264938000Y-107945350I0J-500000D01*
G01*
X145875000Y-71945900D02*
G75*
G02X145375000Y-72445900I-500000J0D01*
G01*
X145875000Y-71945900D02*
X145875000Y-69845400D01*
X183475000Y-69345400D02*
X183175000Y-69345400D01*
X131575000Y-73445000D02*
X144575000Y-73445000D01*
X130274000Y-69845400D02*
G75*
G02X130774000Y-69345400I500000J0D01*
G01*
X145075000Y-69345400D02*
X145075000Y-68245350D01*
X145075000Y-68245350D02*
G75*
G02X145375000Y-67945350I300000J0D01*
G01*
X183175000Y-63545300D02*
X183475000Y-63545300D01*
X202863000Y-96574000D02*
G75*
G02X203363000Y-97074000I0J-500000D01*
G01*
X145075000Y-72445900D02*
X145375000Y-72445900D01*
X191844000Y-97075400D02*
X191844000Y-97775700D01*
X169175000Y-59945700D02*
X169175000Y-60445800D01*
X131575000Y-73445000D02*
G75*
G02X131075000Y-72945000I0J500000D01*
G01*
X145375000Y-67945350D02*
X145363932Y-67945350D01*
X168374000Y-69845400D02*
X168374000Y-71945900D01*
X168874000Y-72445900D02*
G75*
G02X168374000Y-71945900I0J500000D01*
G01*
X150125000Y-72445900D02*
X150125000Y-72945000D01*
X149824000Y-72445900D02*
X150125000Y-72445900D01*
X144575000Y-59445700D02*
X131575000Y-59445700D01*
X131075000Y-59945700D02*
G75*
G02X131575000Y-59445700I500000J0D01*
G01*
X131075000Y-59945700D02*
X131075000Y-60445800D01*
X131075000Y-60445800D02*
X130774000Y-60445800D01*
X164125000Y-72945000D02*
G75*
G02X163625000Y-73445000I-500000J0D01*
G01*
X149836068Y-67945350D02*
X149825000Y-67945350D01*
X130274000Y-60945800D02*
G75*
G02X130774000Y-60445800I500000J0D01*
G01*
X130274000Y-60945800D02*
X130274000Y-63045300D01*
X164425000Y-60445800D02*
G75*
G02X164925000Y-60945800I0J-500000D01*
G01*
X131075000Y-69345400D02*
X130774000Y-69345400D01*
X130774000Y-63545300D02*
G75*
G02X130274000Y-63045300I0J500000D01*
G01*
X130774000Y-63545300D02*
X131075000Y-63545300D01*
X131075000Y-63545300D02*
X131075000Y-69345400D01*
X150625000Y-73445000D02*
G75*
G02X150125000Y-72945000I0J500000D01*
G01*
X164125000Y-63545300D02*
X164425000Y-63545300D01*
X164925000Y-63045300D02*
X164925000Y-60945800D01*
X149324000Y-69845400D02*
G75*
G02X149824000Y-69345400I500000J0D01*
G01*
X163625000Y-59445700D02*
G75*
G02X164125000Y-59945700I0J-500000D01*
G01*
X149463390Y-68112017D02*
G75*
G02X149836068Y-67945350I372678J-333333D01*
G01*
X163625000Y-59445700D02*
X150625000Y-59445700D01*
X149324000Y-60945800D02*
G75*
G02X149824000Y-60445800I500000J0D01*
G01*
X149324000Y-60945800D02*
X149324000Y-63045300D01*
X149324000Y-69845400D02*
X149324000Y-71945900D01*
X150125000Y-69345400D02*
X149824000Y-69345400D01*
X149825000Y-64945350D02*
X149836068Y-64945350D01*
X149836068Y-64945350D02*
G75*
G02X149463390Y-64778683I0J500000D01*
G01*
X145736610Y-64778683D02*
G75*
G02X145363932Y-64945350I-372678J333333D01*
G01*
X164925000Y-71945900D02*
G75*
G02X164425000Y-72445900I-500000J0D01*
G01*
X164125000Y-60445800D02*
X164125000Y-59945700D01*
X149824000Y-72445900D02*
G75*
G02X149324000Y-71945900I0J500000D01*
G01*
X164425000Y-60445800D02*
X164125000Y-60445800D01*
X149824000Y-63545300D02*
X150125000Y-63545300D01*
X145375000Y-64945350D02*
G75*
G02X145075000Y-64645350I0J300000D01*
G01*
X150125000Y-59945700D02*
X150125000Y-60445800D01*
X150125000Y-68245350D02*
X150125000Y-69345400D01*
X145363932Y-64945350D02*
X145375000Y-64945350D01*
X150625000Y-73445000D02*
X163625000Y-73445000D01*
X164425000Y-69345400D02*
G75*
G02X164925000Y-69845400I0J-500000D01*
G01*
X150125000Y-60445800D02*
X149824000Y-60445800D01*
X149824000Y-63545300D02*
G75*
G02X149324000Y-63045300I0J500000D01*
G01*
X150125000Y-63545300D02*
X150125000Y-64645350D01*
X164125000Y-72945000D02*
X164125000Y-72445900D01*
X149463390Y-68112016D02*
G75*
G02X145736610Y-68112017I-1863390J1666666D01*
G01*
X150125000Y-64645350D02*
G75*
G02X149825000Y-64945350I-300000J0D01*
G01*
X149825000Y-67945350D02*
G75*
G02X150125000Y-68245350I0J-300000D01*
G01*
X164925000Y-71945900D02*
X164925000Y-69845400D01*
X145736610Y-64778684D02*
G75*
G02X149463390Y-64778683I1863390J-1666666D01*
G01*
X145075000Y-64645350D02*
X145075000Y-63545300D01*
X145875000Y-63045300D02*
X145875000Y-60945800D01*
X164425000Y-69345400D02*
X164125000Y-69345400D01*
X164125000Y-69345400D02*
X164125000Y-63545300D01*
X164925000Y-63045300D02*
G75*
G02X164425000Y-63545300I-500000J0D01*
G01*
X164125000Y-72445900D02*
X164425000Y-72445900D01*
X145075000Y-63545300D02*
X145375000Y-63545300D01*
X145375000Y-60445800D02*
G75*
G02X145875000Y-60945800I0J-500000D01*
G01*
X145375000Y-60445800D02*
X145075000Y-60445800D01*
X145875000Y-63045300D02*
G75*
G02X145375000Y-63545300I-500000J0D01*
G01*
X150125000Y-59945700D02*
G75*
G02X150625000Y-59445700I500000J0D01*
G01*
X145075000Y-60445800D02*
X145075000Y-59945700D01*
X144575000Y-59445700D02*
G75*
G02X145075000Y-59945700I0J-500000D01*
G01*
X145363932Y-67945350D02*
G75*
G02X145736610Y-68112017I0J-500000D01*
G01*
X159349000Y-82595200D02*
G75*
G02X158849000Y-82095200I0J500000D01*
G01*
X196949000Y-79996000D02*
X196949000Y-82095200D01*
X159650000Y-82595200D02*
X159650000Y-88395400D01*
X159349000Y-91496000D02*
X159650000Y-91496000D01*
X173650000Y-91496000D02*
X173950000Y-91496000D01*
X197750000Y-82595200D02*
X197750000Y-88395400D01*
X160150000Y-92495000D02*
X173150000Y-92495000D01*
X173650000Y-91995000D02*
G75*
G02X173150000Y-92495000I-500000J0D01*
G01*
X174450000Y-90996000D02*
G75*
G02X173950000Y-91496000I-500000J0D01*
G01*
X173950000Y-88395400D02*
X173650000Y-88395400D01*
X212050000Y-88395400D02*
G75*
G02X212550000Y-88895400I0J-500000D01*
G01*
X173650000Y-91995000D02*
X173650000Y-91496000D01*
X198250000Y-92495000D02*
X211250000Y-92495000D01*
X212050000Y-88395400D02*
X211750000Y-88395400D01*
X211250000Y-78495700D02*
G75*
G02X211750000Y-78995700I0J-500000D01*
G01*
X158849000Y-88895400D02*
X158849000Y-90996000D01*
X211750000Y-91995000D02*
G75*
G02X211250000Y-92495000I-500000J0D01*
G01*
X174450000Y-82095200D02*
X174450000Y-79996000D01*
X212550000Y-82095200D02*
X212550000Y-79996000D01*
X211750000Y-82595200D02*
X212050000Y-82595200D01*
X196949000Y-88895400D02*
X196949000Y-90996000D01*
X173950000Y-88395400D02*
G75*
G02X174450000Y-88895400I0J-500000D01*
G01*
X211250000Y-78495700D02*
X198250000Y-78495700D01*
X211750000Y-91496000D02*
X212050000Y-91496000D01*
X173950000Y-79496000D02*
G75*
G02X174450000Y-79996000I0J-500000D01*
G01*
X173950000Y-79496000D02*
X173650000Y-79496000D01*
X197750000Y-88395400D02*
X197449000Y-88395400D01*
X197750000Y-91496000D02*
X197750000Y-91995000D01*
X212550000Y-82095200D02*
G75*
G02X212050000Y-82595200I-500000J0D01*
G01*
X212050000Y-79496000D02*
G75*
G02X212550000Y-79996000I0J-500000D01*
G01*
X198250000Y-92495000D02*
G75*
G02X197750000Y-91995000I0J500000D01*
G01*
X211750000Y-91995000D02*
X211750000Y-91496000D01*
X196949000Y-88895400D02*
G75*
G02X197449000Y-88395400I500000J0D01*
G01*
X212550000Y-90996000D02*
G75*
G02X212050000Y-91496000I-500000J0D01*
G01*
X212550000Y-90996000D02*
X212550000Y-88895400D01*
X211750000Y-88395400D02*
X211750000Y-82595200D01*
X197750000Y-78995700D02*
G75*
G02X198250000Y-78495700I500000J0D01*
G01*
X196949000Y-79996000D02*
G75*
G02X197449000Y-79496000I500000J0D01*
G01*
X197449000Y-82595200D02*
G75*
G02X196949000Y-82095200I0J500000D01*
G01*
X197449000Y-91496000D02*
G75*
G02X196949000Y-90996000I0J500000D01*
G01*
X197449000Y-91496000D02*
X197750000Y-91496000D01*
X159349000Y-82595200D02*
X159650000Y-82595200D01*
X159650000Y-88395400D02*
X159349000Y-88395400D01*
X197750000Y-78995700D02*
X197750000Y-79496000D01*
X159650000Y-91496000D02*
X159650000Y-91995000D01*
X212050000Y-79496000D02*
X211750000Y-79496000D01*
X159349000Y-91496000D02*
G75*
G02X158849000Y-90996000I0J500000D01*
G01*
X158849000Y-88895400D02*
G75*
G02X159349000Y-88395400I500000J0D01*
G01*
X197449000Y-82595200D02*
X197750000Y-82595200D01*
X211750000Y-79496000D02*
X211750000Y-78995700D01*
X160150000Y-92495000D02*
G75*
G02X159650000Y-91995000I0J500000D01*
G01*
X174450000Y-90996000D02*
X174450000Y-88895400D01*
X173650000Y-88395400D02*
X173650000Y-82595200D01*
X173650000Y-82595200D02*
X173950000Y-82595200D01*
X174450000Y-82095200D02*
G75*
G02X173950000Y-82595200I-500000J0D01*
G01*
X197750000Y-79496000D02*
X197449000Y-79496000D01*
X176319000Y-98045500D02*
X176319000Y-98546000D01*
X190318000Y-111045030D02*
X190318000Y-110545950D01*
X190318000Y-111045030D02*
G75*
G02X189818000Y-111545030I-500000J0D01*
G01*
X175518000Y-99046000D02*
X175518000Y-101145200D01*
X191119000Y-110045950D02*
X191119000Y-107945350D01*
X176018000Y-101645200D02*
X176319000Y-101645200D01*
X176319000Y-101645200D02*
X176319000Y-102244600D01*
X176319000Y-106844540D02*
X176319000Y-107445350D01*
X176319000Y-107445350D02*
X176018000Y-107445350D01*
X175518000Y-107945350D02*
G75*
G02X176018000Y-107445350I500000J0D01*
G01*
X176319000Y-110545950D02*
X176319000Y-111045030D01*
X125431000Y-96575400D02*
X122130000Y-96575400D01*
X156981000Y-106844540D02*
X156981000Y-102244600D01*
X191119000Y-101145200D02*
G75*
G02X190619000Y-101645200I-500000J0D01*
G01*
X190318000Y-110545950D02*
X190619000Y-110545950D01*
X176319000Y-98546000D02*
X176018000Y-98546000D01*
X127156000Y-109576050D02*
G75*
G02X126656000Y-110076050I-500000J0D01*
G01*
X157280000Y-107445350D02*
X156981000Y-107445350D01*
X156981000Y-102244600D02*
X156981000Y-101645200D01*
X175518000Y-107945350D02*
X175518000Y-110045950D01*
X120407000Y-97075400D02*
X120407000Y-97775700D01*
X176018000Y-110545950D02*
G75*
G02X175518000Y-110045950I0J500000D01*
G01*
X168544000Y-110076050D02*
X174294000Y-110076050D01*
X174794000Y-109576050D02*
G75*
G02X174294000Y-110076050I-500000J0D01*
G01*
X120907000Y-110076050D02*
G75*
G02X120407000Y-109576050I0J500000D01*
G01*
X176819000Y-111545030D02*
G75*
G02X176319000Y-111045030I0J500000D01*
G01*
X127156000Y-102246000D02*
X127156000Y-97775700D01*
X190318000Y-107445350D02*
X190318000Y-106844540D01*
X176319000Y-98045500D02*
G75*
G02X176819000Y-97545500I500000J0D01*
G01*
X120407000Y-97775700D02*
X120407000Y-102246000D01*
X176319000Y-102244600D02*
X176319000Y-106844540D01*
X176018000Y-110545950D02*
X176319000Y-110545950D01*
X176819000Y-111545030D02*
X189818000Y-111545030D01*
X174794000Y-109576050D02*
X174794000Y-106844540D01*
X190619000Y-98546000D02*
X190318000Y-98546000D01*
X174794000Y-106844540D02*
X174794000Y-102244600D01*
X174794000Y-102244600D02*
X174794000Y-97775700D01*
X191119000Y-110045950D02*
G75*
G02X190619000Y-110545950I-500000J0D01*
G01*
X157780000Y-110045950D02*
X157780000Y-107945350D01*
X120407000Y-106845910D02*
X120407000Y-109576050D01*
X190318000Y-102244600D02*
X190318000Y-101645200D01*
X127156000Y-109576050D02*
X127156000Y-106845910D01*
X127156000Y-106845910D02*
X127156000Y-102246000D01*
X127156000Y-97775700D02*
X127156000Y-97075400D01*
X126656000Y-96575400D02*
X125431000Y-96575400D01*
X190619000Y-107445350D02*
G75*
G02X191119000Y-107945350I0J-500000D01*
G01*
X190318000Y-106844540D02*
X190318000Y-102244600D01*
X156981000Y-107445350D02*
X156981000Y-106844540D01*
X190619000Y-98546000D02*
G75*
G02X191119000Y-99046000I0J-500000D01*
G01*
X189818000Y-97545500D02*
X176819000Y-97545500D01*
X156981000Y-101645200D02*
X157280000Y-101645200D01*
X120907000Y-110076050D02*
X126656000Y-110076050D01*
X122130000Y-96575400D02*
X120907000Y-96575400D01*
X190619000Y-107445350D02*
X190318000Y-107445350D01*
X175518000Y-99046000D02*
G75*
G02X176018000Y-98546000I500000J0D01*
G01*
X120407000Y-97075400D02*
G75*
G02X120907000Y-96575400I500000J0D01*
G01*
X126656000Y-96575400D02*
G75*
G02X127156000Y-97075400I0J-500000D01*
G01*
X176018000Y-101645200D02*
G75*
G02X175518000Y-101145200I0J500000D01*
G01*
X190318000Y-101645200D02*
X190619000Y-101645200D01*
X120407000Y-102246000D02*
X120407000Y-106845910D01*
X191119000Y-101145200D02*
X191119000Y-99046000D01*
X190318000Y-98546000D02*
X190318000Y-98045500D01*
X157280000Y-107445350D02*
G75*
G02X157780000Y-107945350I0J-500000D01*
G01*
X189818000Y-97545500D02*
G75*
G02X190318000Y-98045500I0J-500000D01*
G01*
X104080700Y-99046000D02*
X104080700Y-101145200D01*
X104580700Y-110545950D02*
X104881500Y-110545950D01*
X119680000Y-110045950D02*
X119680000Y-107945350D01*
X119180000Y-98546000D02*
X118880800Y-98546000D01*
X157780000Y-101145200D02*
X157780000Y-99046000D01*
X118880800Y-102246000D02*
X118880800Y-101645200D01*
X104080700Y-107945350D02*
X104080700Y-110045950D01*
X119180000Y-98546000D02*
G75*
G02X119680000Y-99046000I0J-500000D01*
G01*
X135037000Y-107945350D02*
G75*
G02X135537000Y-107445350I500000J0D01*
G01*
X135037000Y-107945350D02*
X135037000Y-110045950D01*
X104881500Y-98045500D02*
X104881500Y-98546000D01*
X104580700Y-101645200D02*
X104881500Y-101645200D01*
X104881500Y-98546000D02*
X104580700Y-98546000D01*
X118880800Y-110545950D02*
X119180000Y-110545950D01*
X119680000Y-110045950D02*
G75*
G02X119180000Y-110545950I-500000J0D01*
G01*
X157780000Y-101145200D02*
G75*
G02X157280000Y-101645200I-500000J0D01*
G01*
X135836000Y-98546000D02*
X135537000Y-98546000D01*
X135037000Y-99046000D02*
X135037000Y-101145200D01*
X156481000Y-97545500D02*
X136336000Y-97545500D01*
X104580700Y-101645200D02*
G75*
G02X104080700Y-101145200I0J500000D01*
G01*
X119680000Y-101145200D02*
G75*
G02X119180000Y-101645200I-500000J0D01*
G01*
X104881500Y-107445350D02*
X104580700Y-107445350D01*
X119680000Y-101145200D02*
X119680000Y-99046000D01*
X157280000Y-98546000D02*
X156981000Y-98546000D01*
X119180000Y-107445350D02*
X118880800Y-107445350D01*
X104881500Y-98045500D02*
G75*
G02X105381500Y-97545500I500000J0D01*
G01*
X104881500Y-102246000D02*
X104881500Y-106845910D01*
X104080700Y-107945350D02*
G75*
G02X104580700Y-107445350I500000J0D01*
G01*
X118880800Y-107445350D02*
X118880800Y-106845910D01*
X118880800Y-106845910D02*
X118880800Y-102246000D01*
X118880800Y-101645200D02*
X119180000Y-101645200D01*
X135537000Y-101645200D02*
G75*
G02X135037000Y-101145200I0J500000D01*
G01*
X135537000Y-101645200D02*
X135836000Y-101645200D01*
X135836000Y-101645200D02*
X135836000Y-102246000D01*
X118880800Y-111045030D02*
X118880800Y-110545950D01*
X135836000Y-106845910D02*
X135836000Y-107445350D01*
X135537000Y-110545950D02*
G75*
G02X135037000Y-110045950I0J500000D01*
G01*
X104881500Y-106845910D02*
X104881500Y-107445350D01*
X104580700Y-110545950D02*
G75*
G02X104080700Y-110045950I0J500000D01*
G01*
X157280000Y-98546000D02*
G75*
G02X157780000Y-99046000I0J-500000D01*
G01*
X135836000Y-102246000D02*
X135836000Y-106845910D01*
X105381500Y-111545030D02*
X118380800Y-111545030D01*
X135537000Y-110545950D02*
X135836000Y-110545950D01*
X135836000Y-110545950D02*
X135836000Y-111045030D01*
X156981000Y-98546000D02*
X156981000Y-98045500D01*
X135836000Y-98045500D02*
G75*
G02X136336000Y-97545500I500000J0D01*
G01*
X136336000Y-111545030D02*
G75*
G02X135836000Y-111045030I0J500000D01*
G01*
X156481000Y-97545500D02*
G75*
G02X156981000Y-98045500I0J-500000D01*
G01*
X136336000Y-111545030D02*
X156481000Y-111545030D01*
X156981000Y-111045030D02*
G75*
G02X156481000Y-111545030I-500000J0D01*
G01*
X118880800Y-111045030D02*
G75*
G02X118380800Y-111545030I-500000J0D01*
G01*
X156981000Y-111045030D02*
X156981000Y-110545950D01*
X104881500Y-101645200D02*
X104881500Y-102246000D01*
X104881500Y-110545950D02*
X104881500Y-111045030D01*
X135836000Y-107445350D02*
X135537000Y-107445350D01*
X156981000Y-110545950D02*
X157280000Y-110545950D01*
X157780000Y-110045950D02*
G75*
G02X157280000Y-110545950I-500000J0D01*
G01*
X135836000Y-98045500D02*
X135836000Y-98546000D01*
X104080700Y-99046000D02*
G75*
G02X104580700Y-98546000I500000J0D01*
G01*
X105381500Y-111545030D02*
G75*
G02X104881500Y-111045030I0J500000D01*
G01*
X119180000Y-107445350D02*
G75*
G02X119680000Y-107945350I0J-500000D01*
G01*
X118380800Y-97545500D02*
X105381500Y-97545500D01*
X135037000Y-99046000D02*
G75*
G02X135537000Y-98546000I500000J0D01*
G01*
X71243200Y-110545950D02*
X71544000Y-110545950D01*
X103356100Y-109576050D02*
X103356100Y-106845910D01*
X71544000Y-110545950D02*
X71544000Y-111045030D01*
X96606400Y-97775700D02*
X96606400Y-102246000D01*
X96606400Y-106845910D02*
X96606400Y-109576050D01*
X72044000Y-111545030D02*
G75*
G02X71544000Y-111045030I0J500000D01*
G01*
X85543300Y-111045030D02*
X85543300Y-110545950D01*
X85543300Y-110545950D02*
X85844100Y-110545950D01*
X86299550Y-110252263D02*
G75*
G02X85844100Y-110545950I-455450J206313D01*
G01*
X98330000Y-96575400D02*
X97106400Y-96575400D01*
X86299551Y-110252263D02*
G75*
G02X86572821Y-110076050I273270J-123787D01*
G01*
X86572821Y-110076050D02*
X88561500Y-110076050D01*
X96606400Y-97075400D02*
X96606400Y-97775700D01*
X40600300Y-98546000D02*
X40299700Y-98546000D01*
X102856100Y-96575400D02*
X101630600Y-96575400D01*
X89061500Y-109576050D02*
X89061500Y-106845910D01*
X96606400Y-97075400D02*
G75*
G02X97106400Y-96575400I500000J0D01*
G01*
X82312200Y-97545500D02*
X72044000Y-97545500D01*
X88561500Y-96575400D02*
G75*
G02X89061500Y-97075400I0J-500000D01*
G01*
X71544000Y-98045500D02*
G75*
G02X72044000Y-97545500I500000J0D01*
G01*
X71544000Y-107445350D02*
X71243200Y-107445350D01*
X88561500Y-96575400D02*
X87336100Y-96575400D01*
X85543300Y-111045030D02*
G75*
G02X85043300Y-111545030I-500000J0D01*
G01*
X89061500Y-109576050D02*
G75*
G02X88561500Y-110076050I-500000J0D01*
G01*
X71544000Y-98546000D02*
X71243200Y-98546000D01*
X70743200Y-99046000D02*
X70743200Y-101145200D01*
X118880800Y-98546000D02*
X118880800Y-98045500D01*
X40299700Y-101645200D02*
X40600300Y-101645200D01*
X84037200Y-96575400D02*
X82812200Y-96575400D01*
X70743200Y-107945350D02*
G75*
G02X71243200Y-107445350I500000J0D01*
G01*
X72044000Y-111545030D02*
X85043300Y-111545030D01*
X102856100Y-96575400D02*
G75*
G02X103356100Y-97075400I0J-500000D01*
G01*
X96606400Y-102246000D02*
X96606400Y-106845910D01*
X118380800Y-97545500D02*
G75*
G02X118880800Y-98045500I0J-500000D01*
G01*
X39799700Y-97545500D02*
X24418910Y-97545500D01*
X89061500Y-102246000D02*
X89061500Y-97775700D01*
X70743200Y-99046000D02*
G75*
G02X71243200Y-98546000I500000J0D01*
G01*
X39799700Y-97545500D02*
G75*
G02X40299700Y-98045500I0J-500000D01*
G01*
X41100300Y-101145200D02*
X41100300Y-99046000D01*
X101630600Y-96575400D02*
X98330000Y-96575400D01*
X89061500Y-97775700D02*
X89061500Y-97075400D01*
X87336100Y-96575400D02*
X84037200Y-96575400D01*
X40600300Y-107445350D02*
X40299700Y-107445350D01*
X103356100Y-97775700D02*
X103356100Y-97075400D01*
X103356100Y-102246000D02*
X103356100Y-97775700D01*
X82312200Y-97075400D02*
G75*
G02X82812200Y-96575400I500000J0D01*
G01*
X41100300Y-101145200D02*
G75*
G02X40600300Y-101645200I-500000J0D01*
G01*
X97106400Y-110076050D02*
G75*
G02X96606400Y-109576050I0J500000D01*
G01*
X82312200Y-97075400D02*
X82312200Y-97545500D01*
X71544000Y-98045500D02*
X71544000Y-98546000D01*
X103356100Y-106845910D02*
X103356100Y-102246000D01*
X71243200Y-101645200D02*
G75*
G02X70743200Y-101145200I0J500000D01*
G01*
X97106400Y-110076050D02*
X102856100Y-110076050D01*
X40299700Y-107445350D02*
X40299700Y-101645200D01*
X71243200Y-101645200D02*
X71544000Y-101645200D01*
X70743200Y-107945350D02*
X70743200Y-110045950D01*
X103356100Y-109576050D02*
G75*
G02X102856100Y-110076050I-500000J0D01*
G01*
X71544000Y-101645200D02*
X71544000Y-107445350D01*
X40600300Y-98546000D02*
G75*
G02X41100300Y-99046000I0J-500000D01*
G01*
X40299700Y-98546000D02*
X40299700Y-98045500D01*
X23918910Y-98045500D02*
X23918910Y-98546000D01*
X23918910Y-98045500D02*
G75*
G02X24418910Y-97545500I500000J0D01*
G01*
X89061500Y-106845910D02*
X89061500Y-102246000D01*
X71243200Y-110545950D02*
G75*
G02X70743200Y-110045950I0J500000D01*
G01*
X288238000Y-82595200D02*
X288238000Y-88395400D01*
X68874500Y-111045030D02*
G75*
G02X68374500Y-111545030I-500000J0D01*
G01*
X69175300Y-98546000D02*
X68874500Y-98546000D01*
X287938000Y-82595200D02*
G75*
G02X287438000Y-82095200I0J500000D01*
G01*
X47731400Y-98546000D02*
X47430800Y-98546000D01*
X46930800Y-107945350D02*
X46930800Y-110045950D01*
X287938000Y-82595200D02*
X288238000Y-82595200D01*
X47430800Y-110545950D02*
X47731400Y-110545950D01*
X47731400Y-98045500D02*
G75*
G02X48231400Y-97545500I500000J0D01*
G01*
X48231400Y-111545030D02*
G75*
G02X47731400Y-111045030I0J500000D01*
G01*
X47731400Y-101645200D02*
X47731400Y-107445350D01*
X287938000Y-91496000D02*
X288238000Y-91496000D01*
X69675300Y-101145200D02*
X69675300Y-99046000D01*
X69675300Y-110045950D02*
G75*
G02X69175300Y-110545950I-500000J0D01*
G01*
X23118280Y-99046000D02*
X23118280Y-101145200D01*
X287438000Y-88895400D02*
G75*
G02X287938000Y-88395400I500000J0D01*
G01*
X23918910Y-101645200D02*
X23918910Y-107445350D01*
X23918910Y-107445350D02*
X23618280Y-107445350D01*
X68874500Y-111045030D02*
X68874500Y-110545950D01*
X69675300Y-110045950D02*
X69675300Y-107945350D01*
X23618280Y-110545950D02*
G75*
G02X23118280Y-110045950I0J500000D01*
G01*
X40299700Y-110545950D02*
X40600300Y-110545950D01*
X46930800Y-99046000D02*
X46930800Y-101145200D01*
X69175300Y-107445350D02*
X68874500Y-107445350D01*
X68374500Y-97545500D02*
X48231400Y-97545500D01*
X47731400Y-110545950D02*
X47731400Y-111045030D01*
X40299700Y-111045030D02*
X40299700Y-110545950D01*
X47731400Y-98045500D02*
X47731400Y-98546000D01*
X23118280Y-107945350D02*
X23118280Y-110045950D01*
X41100300Y-110045950D02*
G75*
G02X40600300Y-110545950I-500000J0D01*
G01*
X47430800Y-110545950D02*
G75*
G02X46930800Y-110045950I0J500000D01*
G01*
X41100300Y-110045950D02*
X41100300Y-107945350D01*
X288238000Y-88395400D02*
X287938000Y-88395400D01*
X47430800Y-101645200D02*
G75*
G02X46930800Y-101145200I0J500000D01*
G01*
X68874500Y-101645200D02*
X69175300Y-101645200D01*
X69675300Y-101145200D02*
G75*
G02X69175300Y-101645200I-500000J0D01*
G01*
X40600300Y-107445350D02*
G75*
G02X41100300Y-107945350I0J-500000D01*
G01*
X287438000Y-88895400D02*
X287438000Y-90996000D01*
X288238000Y-91496000D02*
X288238000Y-91995000D01*
X48231400Y-111545030D02*
X68374500Y-111545030D01*
X287938000Y-91496000D02*
G75*
G02X287438000Y-90996000I0J500000D01*
G01*
X47430800Y-101645200D02*
X47731400Y-101645200D01*
X23918910Y-98546000D02*
X23618280Y-98546000D01*
X68874500Y-107445350D02*
X68874500Y-101645200D01*
X68374500Y-97545500D02*
G75*
G02X68874500Y-98045500I0J-500000D01*
G01*
X46930800Y-99046000D02*
G75*
G02X47430800Y-98546000I500000J0D01*
G01*
X23918910Y-110545950D02*
X23918910Y-111045030D01*
X23618280Y-101645200D02*
X23918910Y-101645200D01*
X68874500Y-110545950D02*
X69175300Y-110545950D01*
X46930800Y-107945350D02*
G75*
G02X47430800Y-107445350I500000J0D01*
G01*
X288738000Y-92495000D02*
G75*
G02X288238000Y-91995000I0J500000D01*
G01*
X69175300Y-107445350D02*
G75*
G02X69675300Y-107945350I0J-500000D01*
G01*
X68874500Y-98546000D02*
X68874500Y-98045500D01*
X69175300Y-98546000D02*
G75*
G02X69675300Y-99046000I0J-500000D01*
G01*
X47731400Y-107445350D02*
X47430800Y-107445350D01*
X23118280Y-99046000D02*
G75*
G02X23618280Y-98546000I500000J0D01*
G01*
X23618280Y-101645200D02*
G75*
G02X23118280Y-101145200I0J500000D01*
G01*
X23618280Y-110545950D02*
X23918910Y-110545950D01*
X24418910Y-111545030D02*
G75*
G02X23918910Y-111045030I0J500000D01*
G01*
X23118280Y-107945350D02*
G75*
G02X23618280Y-107445350I500000J0D01*
G01*
X24418910Y-111545030D02*
X39799700Y-111545030D01*
X40299700Y-111045030D02*
G75*
G02X39799700Y-111545030I-500000J0D01*
G01*
X287438000Y-79996000D02*
X287438000Y-82095200D01*
X268888000Y-101645200D02*
X269188000Y-101645200D01*
X245375000Y-97545500D02*
X245087000Y-97545500D01*
X263637000Y-97545500D02*
G75*
G02X264137000Y-98045500I0J-500000D01*
G01*
X211238000Y-99046000D02*
G75*
G02X211738000Y-98546000I500000J0D01*
G01*
X211738000Y-101645200D02*
G75*
G02X211238000Y-101145200I0J500000D01*
G01*
X264438000Y-107445350D02*
X264137000Y-107445350D01*
X264438000Y-98546000D02*
X264137000Y-98546000D01*
X212038000Y-101645200D02*
X212038000Y-107445350D01*
X211238000Y-107945350D02*
G75*
G02X211738000Y-107445350I500000J0D01*
G01*
X211238000Y-107945350D02*
X211238000Y-110045950D01*
X211738000Y-110545950D02*
G75*
G02X211238000Y-110045950I0J500000D01*
G01*
X269188000Y-98045500D02*
G75*
G02X269688000Y-97545500I500000J0D01*
G01*
X211738000Y-110545950D02*
X212038000Y-110545950D01*
X287874761Y-103045275D02*
G75*
G02X287644965Y-102938132I0J300000D01*
G01*
X212538000Y-111545030D02*
G75*
G02X212038000Y-111045030I0J500000D01*
G01*
X212538000Y-111545030D02*
X230800000Y-111545030D01*
X283988000Y-101145200D02*
G75*
G02X283488000Y-101645200I-500000J0D01*
G01*
X269188000Y-101645200D02*
X269188000Y-107445350D01*
X212038000Y-107445350D02*
X211738000Y-107445350D01*
X245087000Y-111545030D02*
X245375000Y-111545030D01*
X283815035Y-102938132D02*
G75*
G02X287644965Y-102938132I1914965J-1607143D01*
G01*
X268888000Y-101645200D02*
G75*
G02X268388000Y-101145200I0J500000D01*
G01*
X269188000Y-107445350D02*
X268888000Y-107445350D01*
X264938000Y-101145200D02*
G75*
G02X264438000Y-101645200I-500000J0D01*
G01*
X283187000Y-102745275D02*
X283187000Y-101645200D01*
X231088000Y-111545030D02*
X245087000Y-111545030D01*
X283488000Y-98546000D02*
X283187000Y-98546000D01*
X212038000Y-110545950D02*
X212038000Y-111045030D01*
X245375000Y-111545030D02*
X263637000Y-111545030D01*
X283815035Y-102938132D02*
G75*
G02X283585239Y-103045275I-229796J192857D01*
G01*
X211738000Y-101645200D02*
X212038000Y-101645200D01*
X264137000Y-111045030D02*
G75*
G02X263637000Y-111545030I-500000J0D01*
G01*
X231088000Y-97545500D02*
X230800000Y-97545500D01*
X264137000Y-107445350D02*
X264137000Y-101645200D01*
X264438000Y-98546000D02*
G75*
G02X264938000Y-99046000I0J-500000D01*
G01*
X264137000Y-111045030D02*
X264137000Y-110545950D01*
X212038000Y-98045500D02*
G75*
G02X212538000Y-97545500I500000J0D01*
G01*
X268388000Y-107945350D02*
X268388000Y-110045950D01*
X211238000Y-99046000D02*
X211238000Y-101145200D01*
X283487000Y-103045275D02*
G75*
G02X283187000Y-102745275I0J300000D01*
G01*
X264137000Y-101645200D02*
X264438000Y-101645200D01*
X283988000Y-101145200D02*
X283988000Y-99046000D01*
X283488000Y-98546000D02*
G75*
G02X283988000Y-99046000I0J-500000D01*
G01*
X283187000Y-98546000D02*
X283187000Y-98045500D01*
X282687000Y-97545500D02*
X269688000Y-97545500D01*
X264938000Y-101145200D02*
X264938000Y-99046000D01*
X212038000Y-98045500D02*
X212038000Y-98546000D01*
X212038000Y-98546000D02*
X211738000Y-98546000D01*
X230800000Y-111545030D02*
X231088000Y-111545030D01*
X268388000Y-99046000D02*
G75*
G02X268888000Y-98546000I500000J0D01*
G01*
X283187000Y-101645200D02*
X283488000Y-101645200D01*
X269188000Y-98045500D02*
X269188000Y-98546000D01*
X230800000Y-97545500D02*
X212538000Y-97545500D01*
X288238000Y-101645200D02*
X288238000Y-102745275D01*
X288238000Y-102745275D02*
G75*
G02X287938000Y-103045275I-300000J0D01*
G01*
X269188000Y-98546000D02*
X268888000Y-98546000D01*
X282687000Y-97545500D02*
G75*
G02X283187000Y-98045500I0J-500000D01*
G01*
X268388000Y-99046000D02*
X268388000Y-101145200D01*
X268388000Y-107945350D02*
G75*
G02X268888000Y-107445350I500000J0D01*
G01*
X283585239Y-103045275D02*
X283487000Y-103045275D01*
X287938000Y-103045275D02*
X287874761Y-103045275D01*
X264137000Y-98546000D02*
X264137000Y-98045500D01*
X263637000Y-97545500D02*
X245375000Y-97545500D01*
X245087000Y-97545500D02*
X231088000Y-97545500D01*
X288238000Y-110545950D02*
X288238000Y-111045030D01*
X268888000Y-110545950D02*
G75*
G02X268388000Y-110045950I0J500000D01*
G01*
X268888000Y-110545950D02*
X269188000Y-110545950D01*
X269188000Y-110545950D02*
X269188000Y-111045030D01*
X287938000Y-110545950D02*
X288238000Y-110545950D01*
X302538000Y-107445350D02*
X302237000Y-107445350D01*
X302237000Y-101645200D02*
X302538000Y-101645200D01*
X287874761Y-106045275D02*
X287938000Y-106045275D01*
X303038000Y-101145200D02*
X303038000Y-99046000D01*
X302237000Y-111045030D02*
G75*
G02X301737000Y-111545030I-500000J0D01*
G01*
X302538000Y-98546000D02*
G75*
G02X303038000Y-99046000I0J-500000D01*
G01*
X302538000Y-98546000D02*
X302237000Y-98546000D01*
X302237000Y-98546000D02*
X302237000Y-98045500D01*
X301737000Y-97545500D02*
G75*
G02X302237000Y-98045500I0J-500000D01*
G01*
X301737000Y-97545500D02*
X288738000Y-97545500D01*
X288238000Y-98045500D02*
X288238000Y-98546000D01*
X168044000Y-106844540D02*
X168044000Y-109576050D01*
X288238000Y-98546000D02*
X287938000Y-98546000D01*
X287438000Y-107945350D02*
G75*
G02X287938000Y-107445350I500000J0D01*
G01*
X288738000Y-111545030D02*
G75*
G02X288238000Y-111045030I0J500000D01*
G01*
X302237000Y-107445350D02*
X302237000Y-101645200D01*
X287438000Y-99046000D02*
G75*
G02X287938000Y-98546000I500000J0D01*
G01*
X287438000Y-99046000D02*
X287438000Y-101145200D01*
X287938000Y-101645200D02*
X288238000Y-101645200D01*
X283488000Y-107445350D02*
G75*
G02X283988000Y-107945350I0J-500000D01*
G01*
X288238000Y-107445350D02*
X287938000Y-107445350D01*
X283187000Y-111045030D02*
X283187000Y-110545950D01*
X287438000Y-107945350D02*
X287438000Y-110045950D01*
X288238000Y-98045500D02*
G75*
G02X288738000Y-97545500I500000J0D01*
G01*
X287938000Y-101645200D02*
G75*
G02X287438000Y-101145200I0J500000D01*
G01*
X168044000Y-97775700D02*
X168044000Y-102244600D01*
X283187000Y-111045030D02*
G75*
G02X282687000Y-111545030I-500000J0D01*
G01*
X283487000Y-106045275D02*
X283585239Y-106045275D01*
X287938000Y-110545950D02*
G75*
G02X287438000Y-110045950I0J500000D01*
G01*
X303038000Y-110045950D02*
G75*
G02X302538000Y-110545950I-500000J0D01*
G01*
X174294000Y-96575400D02*
G75*
G02X174794000Y-97075400I0J-500000D01*
G01*
X288238000Y-106345275D02*
X288238000Y-107445350D01*
X168044000Y-97075400D02*
G75*
G02X168544000Y-96575400I500000J0D01*
G01*
X283488000Y-107445350D02*
X283187000Y-107445350D01*
X283187000Y-106345275D02*
G75*
G02X283487000Y-106045275I300000J0D01*
G01*
X174294000Y-96575400D02*
X173068000Y-96575400D01*
X287644965Y-106152418D02*
G75*
G02X287874761Y-106045275I229796J-192857D01*
G01*
X288738000Y-111545030D02*
X301737000Y-111545030D01*
X302538000Y-107445350D02*
G75*
G02X303038000Y-107945350I0J-500000D01*
G01*
X173068000Y-96575400D02*
X169769000Y-96575400D01*
X283988000Y-110045950D02*
G75*
G02X283488000Y-110545950I-500000J0D01*
G01*
X283988000Y-110045950D02*
X283988000Y-107945350D01*
X283585239Y-106045275D02*
G75*
G02X283815035Y-106152418I0J-300000D01*
G01*
X287938000Y-106045275D02*
G75*
G02X288238000Y-106345275I0J-300000D01*
G01*
X302237000Y-111045030D02*
X302237000Y-110545950D01*
X168544000Y-110076050D02*
G75*
G02X168044000Y-109576050I0J500000D01*
G01*
X174794000Y-97775700D02*
X174794000Y-97075400D01*
X168044000Y-102244600D02*
X168044000Y-106844540D01*
X269688000Y-111545030D02*
X282687000Y-111545030D01*
X283187000Y-107445350D02*
X283187000Y-106345275D01*
X283187000Y-110545950D02*
X283488000Y-110545950D01*
X303038000Y-110045950D02*
X303038000Y-107945350D01*
X302237000Y-110545950D02*
X302538000Y-110545950D01*
X287644965Y-106152418D02*
G75*
G02X283815035Y-106152418I-1914965J1607143D01*
G01*
X269688000Y-111545030D02*
G75*
G02X269188000Y-111045030I0J500000D01*
G01*
X303038000Y-101145200D02*
G75*
G02X302538000Y-101645200I-500000J0D01*
G01*
X168044000Y-97075400D02*
X168044000Y-97775700D01*
X169769000Y-96575400D02*
X168544000Y-96575400D01*
X321588000Y-88395400D02*
G75*
G02X322088000Y-88895400I0J-500000D01*
G01*
X288738000Y-92495000D02*
X301737000Y-92495000D01*
X303038000Y-82095200D02*
G75*
G02X302538000Y-82595200I-500000J0D01*
G01*
X302538000Y-79496000D02*
X302237000Y-79496000D01*
X302237000Y-79496000D02*
X302237000Y-78995700D01*
X301737000Y-78495700D02*
G75*
G02X302237000Y-78995700I0J-500000D01*
G01*
X288238000Y-78995700D02*
X288238000Y-79496000D01*
X276043000Y-91995000D02*
X276043000Y-91496000D01*
X306988000Y-82595200D02*
G75*
G02X306488000Y-82095200I0J500000D01*
G01*
X302237000Y-88395400D02*
X302237000Y-82595200D01*
X287438000Y-79996000D02*
G75*
G02X287938000Y-79496000I500000J0D01*
G01*
X307788000Y-92495000D02*
X320787000Y-92495000D01*
X321588000Y-79496000D02*
X321287000Y-79496000D01*
X306988000Y-82595200D02*
X307288000Y-82595200D01*
X302237000Y-91995000D02*
X302237000Y-91496000D01*
X288238000Y-79496000D02*
X287938000Y-79496000D01*
X306488000Y-79996000D02*
X306488000Y-82095200D01*
X307288000Y-88395400D02*
X306988000Y-88395400D01*
X321588000Y-88395400D02*
X321287000Y-88395400D01*
X307288000Y-78995700D02*
G75*
G02X307788000Y-78495700I500000J0D01*
G01*
X307288000Y-79496000D02*
X306988000Y-79496000D01*
X322088000Y-90996000D02*
X322088000Y-88895400D01*
X302237000Y-91995000D02*
G75*
G02X301737000Y-92495000I-500000J0D01*
G01*
X321287000Y-88395400D02*
X321287000Y-82595200D01*
X261243000Y-88895400D02*
G75*
G02X261743000Y-88395400I500000J0D01*
G01*
X302538000Y-88395400D02*
G75*
G02X303038000Y-88895400I0J-500000D01*
G01*
X306988000Y-91496000D02*
G75*
G02X306488000Y-90996000I0J500000D01*
G01*
X322088000Y-82095200D02*
X322088000Y-79996000D01*
X303038000Y-90996000D02*
G75*
G02X302538000Y-91496000I-500000J0D01*
G01*
X306488000Y-79996000D02*
G75*
G02X306988000Y-79496000I500000J0D01*
G01*
X302538000Y-88395400D02*
X302237000Y-88395400D01*
X262044000Y-91496000D02*
X262044000Y-91995000D01*
X321287000Y-79496000D02*
X321287000Y-78995700D01*
X307288000Y-78995700D02*
X307288000Y-79496000D01*
X301737000Y-78495700D02*
X288738000Y-78495700D01*
X321588000Y-79496000D02*
G75*
G02X322088000Y-79996000I0J-500000D01*
G01*
X288238000Y-78995700D02*
G75*
G02X288738000Y-78495700I500000J0D01*
G01*
X261243000Y-88895400D02*
X261243000Y-90996000D01*
X322088000Y-82095200D02*
G75*
G02X321588000Y-82595200I-500000J0D01*
G01*
X261743000Y-91496000D02*
X262044000Y-91496000D01*
X276043000Y-91995000D02*
G75*
G02X275543000Y-92495000I-500000J0D01*
G01*
X306488000Y-88895400D02*
G75*
G02X306988000Y-88395400I500000J0D01*
G01*
X306488000Y-88895400D02*
X306488000Y-90996000D01*
X306988000Y-91496000D02*
X307288000Y-91496000D01*
X307788000Y-92495000D02*
G75*
G02X307288000Y-91995000I0J500000D01*
G01*
X303038000Y-90996000D02*
X303038000Y-88895400D01*
X262544000Y-92495000D02*
G75*
G02X262044000Y-91995000I0J500000D01*
G01*
X276043000Y-91496000D02*
X276344000Y-91496000D01*
X321287000Y-91496000D02*
X321588000Y-91496000D01*
X321287000Y-91995000D02*
G75*
G02X320787000Y-92495000I-500000J0D01*
G01*
X320787000Y-78495700D02*
X307788000Y-78495700D01*
X261743000Y-91496000D02*
G75*
G02X261243000Y-90996000I0J500000D01*
G01*
X302237000Y-82595200D02*
X302538000Y-82595200D01*
X321287000Y-82595200D02*
X321588000Y-82595200D01*
X321287000Y-91995000D02*
X321287000Y-91496000D01*
X307288000Y-91496000D02*
X307288000Y-91995000D01*
X322088000Y-90996000D02*
G75*
G02X321588000Y-91496000I-500000J0D01*
G01*
X320787000Y-78495700D02*
G75*
G02X321287000Y-78995700I0J-500000D01*
G01*
X262544000Y-92495000D02*
X275543000Y-92495000D01*
X302237000Y-91496000D02*
X302538000Y-91496000D01*
X303038000Y-82095200D02*
X303038000Y-79996000D01*
X302538000Y-79496000D02*
G75*
G02X303038000Y-79996000I0J-500000D01*
G01*
X307288000Y-82595200D02*
X307288000Y-88395400D01*
X139799000Y-88895400D02*
G75*
G02X140299000Y-88395400I500000J0D01*
G01*
X155400000Y-90996000D02*
G75*
G02X154900000Y-91496000I-500000J0D01*
G01*
X154600000Y-82595200D02*
X154900000Y-82595200D01*
X155400000Y-82095200D02*
X155400000Y-79996000D01*
X154900000Y-79496000D02*
G75*
G02X155400000Y-79996000I0J-500000D01*
G01*
X154900000Y-79496000D02*
X154600000Y-79496000D01*
X154100000Y-78495700D02*
G75*
G02X154600000Y-78995700I0J-500000D01*
G01*
X178700000Y-78995700D02*
G75*
G02X179200000Y-78495700I500000J0D01*
G01*
X141100000Y-92495000D02*
G75*
G02X140600000Y-91995000I0J500000D01*
G01*
X178700000Y-79496000D02*
X178399000Y-79496000D01*
X177899000Y-79996000D02*
G75*
G02X178399000Y-79496000I500000J0D01*
G01*
X155400000Y-90996000D02*
X155400000Y-88895400D01*
X154900000Y-88395400D02*
X154600000Y-88395400D01*
X154600000Y-88395400D02*
X154600000Y-82595200D01*
X155400000Y-82095200D02*
G75*
G02X154900000Y-82595200I-500000J0D01*
G01*
X177899000Y-79996000D02*
X177899000Y-82095200D01*
X140600000Y-91496000D02*
X140600000Y-91995000D01*
X154600000Y-79496000D02*
X154600000Y-78995700D01*
X154100000Y-78495700D02*
X141100000Y-78495700D01*
X178700000Y-82595200D02*
X178700000Y-88395400D01*
X141100000Y-92495000D02*
X154100000Y-92495000D01*
X140299000Y-91496000D02*
X140600000Y-91496000D01*
X178700000Y-78995700D02*
X178700000Y-79496000D01*
X178399000Y-82595200D02*
G75*
G02X177899000Y-82095200I0J500000D01*
G01*
X140299000Y-91496000D02*
G75*
G02X139799000Y-90996000I0J500000D01*
G01*
X139799000Y-88895400D02*
X139799000Y-90996000D01*
X154600000Y-91995000D02*
G75*
G02X154100000Y-92495000I-500000J0D01*
G01*
X154600000Y-91995000D02*
X154600000Y-91496000D01*
X178399000Y-82595200D02*
X178700000Y-82595200D01*
X154600000Y-91496000D02*
X154900000Y-91496000D01*
X154900000Y-88395400D02*
G75*
G02X155400000Y-88895400I0J-500000D01*
G01*
X41100300Y-43995300D02*
X41100300Y-41895800D01*
X26300160Y-41395800D02*
X25999530Y-41395800D01*
X47744000Y-79496000D02*
G75*
G02X48244000Y-79996000I0J-500000D01*
G01*
X47744000Y-79496000D02*
X47443400Y-79496000D01*
X47443400Y-79496000D02*
X47443400Y-78995700D01*
X26300160Y-44495300D02*
X26300160Y-50295400D01*
X40299700Y-44495300D02*
X40600300Y-44495300D01*
X25999530Y-53395900D02*
G75*
G02X25499530Y-52895900I0J500000D01*
G01*
X26300160Y-53395900D02*
X26300160Y-54395000D01*
X26300160Y-54395000D02*
X39799700Y-54395000D01*
X40299700Y-53895000D02*
G75*
G02X39799700Y-54395000I-500000J0D01*
G01*
X26300160Y-40895700D02*
X26300160Y-41395800D01*
X26300160Y-40895700D02*
G75*
G02X26800160Y-40395700I500000J0D01*
G01*
X47443400Y-83196000D02*
X47443400Y-82595200D01*
X40299700Y-53895000D02*
X40299700Y-53395900D01*
X40299700Y-53395900D02*
X40600300Y-53395900D01*
X41100300Y-52895900D02*
X41100300Y-50795400D01*
X196868000Y-96575400D02*
X193569000Y-96575400D01*
X25499530Y-50795400D02*
G75*
G02X25999530Y-50295400I500000J0D01*
G01*
X203363000Y-104044400D02*
X203363000Y-97774300D01*
X47443400Y-82595200D02*
X47744000Y-82595200D01*
X40600300Y-50295400D02*
X40299700Y-50295400D01*
X191844000Y-106844540D02*
X191844000Y-102244600D01*
X25499530Y-41895800D02*
X25499530Y-43995300D01*
X25999530Y-44495300D02*
X26300160Y-44495300D01*
X33143300Y-82595200D02*
G75*
G02X32643300Y-82095200I0J500000D01*
G01*
X40299700Y-50295400D02*
X40299700Y-44495300D01*
X33443900Y-78995700D02*
X33443900Y-79496000D01*
X25999530Y-44495300D02*
G75*
G02X25499530Y-43995300I0J500000D01*
G01*
X26300160Y-50295400D02*
X25999530Y-50295400D01*
X25499530Y-50795400D02*
X25499530Y-52895900D01*
X33443900Y-78995700D02*
G75*
G02X33943900Y-78495700I500000J0D01*
G01*
X47443400Y-87795900D02*
X47443400Y-83196000D01*
X39799700Y-40395700D02*
X26800160Y-40395700D01*
X64112000Y-41395800D02*
X64112000Y-40895700D01*
X63612000Y-40395700D02*
G75*
G02X64112000Y-40895700I0J-500000D01*
G01*
X41100300Y-52895900D02*
G75*
G02X40600300Y-53395900I-500000J0D01*
G01*
X41100300Y-43995300D02*
G75*
G02X40600300Y-44495300I-500000J0D01*
G01*
X48244000Y-90996000D02*
X48244000Y-88895400D01*
X48244000Y-82095200D02*
X48244000Y-79996000D01*
X33143300Y-82595200D02*
X33443900Y-82595200D01*
X40299700Y-41395800D02*
X40299700Y-40895700D01*
X63612000Y-40395700D02*
X50612700Y-40395700D01*
X50112700Y-40895700D02*
G75*
G02X50612700Y-40395700I500000J0D01*
G01*
X50112700Y-40895700D02*
X50112700Y-41395800D01*
X32643300Y-79996000D02*
G75*
G02X33143300Y-79496000I500000J0D01*
G01*
X50112700Y-41395800D02*
X49813400Y-41395800D01*
X32643300Y-79996000D02*
X32643300Y-82095200D01*
X203356000Y-110074680D02*
X203363000Y-110074680D01*
X39799700Y-40395700D02*
G75*
G02X40299700Y-40895700I0J-500000D01*
G01*
X47744000Y-88395400D02*
G75*
G02X48244000Y-88895400I0J-500000D01*
G01*
X46943400Y-78495700D02*
X33943900Y-78495700D01*
X48244000Y-82095200D02*
G75*
G02X47744000Y-82595200I-500000J0D01*
G01*
X33443900Y-82595200D02*
X33443900Y-83196000D01*
X47443400Y-88395400D02*
X47443400Y-87795900D01*
X203356000Y-110076050D02*
X203356000Y-110074680D01*
X33443900Y-79496000D02*
X33143300Y-79496000D01*
X40600300Y-41395800D02*
G75*
G02X41100300Y-41895800I0J-500000D01*
G01*
X40600300Y-41395800D02*
X40299700Y-41395800D01*
X47744000Y-88395400D02*
X47443400Y-88395400D01*
X46943400Y-78495700D02*
G75*
G02X47443400Y-78995700I0J-500000D01*
G01*
X25499530Y-41895800D02*
G75*
G02X25999530Y-41395800I500000J0D01*
G01*
X25999530Y-53395900D02*
X26300160Y-53395900D01*
X40600300Y-50295400D02*
G75*
G02X41100300Y-50795400I0J-500000D01*
G01*
X83162000Y-50295400D02*
X83162000Y-44495300D01*
X83162000Y-44495300D02*
X83462800Y-44495300D01*
X83162000Y-53895000D02*
G75*
G02X82662000Y-54395000I-500000J0D01*
G01*
X83162000Y-53895000D02*
X83162000Y-53395900D01*
X83162000Y-53395900D02*
X83462800Y-53395900D01*
X83962800Y-43995300D02*
G75*
G02X83462800Y-44495300I-500000J0D01*
G01*
X201637000Y-96574000D02*
X198337000Y-96574000D01*
X203363000Y-104044400D02*
X203363000Y-106844540D01*
X64112000Y-53895000D02*
G75*
G02X63612000Y-54395000I-500000J0D01*
G01*
X198337000Y-96574000D02*
X196868000Y-96575400D01*
X49313400Y-41895800D02*
X49313400Y-43995300D01*
X121262000Y-53395900D02*
X121563000Y-53395900D01*
X122063000Y-52895900D02*
X122063000Y-50795400D01*
X50612700Y-54395000D02*
X63612000Y-54395000D01*
X64912800Y-52895900D02*
X64912800Y-50795400D01*
X50112700Y-50295400D02*
X49813400Y-50295400D01*
X50112700Y-53395900D02*
X50112700Y-53895000D01*
X64912800Y-52895900D02*
G75*
G02X64412800Y-53395900I-500000J0D01*
G01*
X64112000Y-44495300D02*
X64412800Y-44495300D01*
X83462800Y-41395800D02*
X83162000Y-41395800D01*
X83162000Y-41395800D02*
X83162000Y-40895700D01*
X64912800Y-43995300D02*
G75*
G02X64412800Y-44495300I-500000J0D01*
G01*
X68863300Y-53395900D02*
X69162700Y-53395900D01*
X69162700Y-53395900D02*
X69162700Y-53895000D01*
X82662000Y-40395700D02*
X69662700Y-40395700D01*
X69162700Y-40895700D02*
X69162700Y-41395800D01*
X122063000Y-52895900D02*
G75*
G02X121563000Y-53395900I-500000J0D01*
G01*
X64112000Y-53395900D02*
X64412800Y-53395900D01*
X64412800Y-41395800D02*
G75*
G02X64912800Y-41895800I0J-500000D01*
G01*
X68863300Y-44495300D02*
X69162700Y-44495300D01*
X49813400Y-44495300D02*
G75*
G02X49313400Y-43995300I0J500000D01*
G01*
X49313400Y-50795400D02*
G75*
G02X49813400Y-50295400I500000J0D01*
G01*
X64112000Y-53895000D02*
X64112000Y-53395900D01*
X68863300Y-53395900D02*
G75*
G02X68363300Y-52895900I0J500000D01*
G01*
X64412800Y-50295400D02*
X64112000Y-50295400D01*
X49313400Y-41895800D02*
G75*
G02X49813400Y-41395800I500000J0D01*
G01*
X49313400Y-50795400D02*
X49313400Y-52895900D01*
X64112000Y-50295400D02*
X64112000Y-44495300D01*
X64912800Y-43995300D02*
X64912800Y-41895800D01*
X69162700Y-40895700D02*
G75*
G02X69662700Y-40395700I500000J0D01*
G01*
X64412800Y-41395800D02*
X64112000Y-41395800D01*
X83962800Y-43995300D02*
X83962800Y-41895800D01*
X83462800Y-41395800D02*
G75*
G02X83962800Y-41895800I0J-500000D01*
G01*
X82662000Y-40395700D02*
G75*
G02X83162000Y-40895700I0J-500000D01*
G01*
X69162700Y-41395800D02*
X68863300Y-41395800D01*
X69162700Y-44495300D02*
X69162700Y-50295400D01*
X69662700Y-54395000D02*
X82662000Y-54395000D01*
X50112700Y-44495300D02*
X50112700Y-50295400D01*
X68863300Y-44495300D02*
G75*
G02X68363300Y-43995300I0J500000D01*
G01*
X83462800Y-50295400D02*
G75*
G02X83962800Y-50795400I0J-500000D01*
G01*
X49813400Y-53395900D02*
G75*
G02X49313400Y-52895900I0J500000D01*
G01*
X49813400Y-53395900D02*
X50112700Y-53395900D01*
X50612700Y-54395000D02*
G75*
G02X50112700Y-53895000I0J500000D01*
G01*
X69162700Y-50295400D02*
X68863300Y-50295400D01*
X49813400Y-44495300D02*
X50112700Y-44495300D01*
X68363300Y-50795400D02*
X68363300Y-52895900D01*
X69662700Y-54395000D02*
G75*
G02X69162700Y-53895000I0J500000D01*
G01*
X83962800Y-52895900D02*
X83962800Y-50795400D01*
X64412800Y-50295400D02*
G75*
G02X64912800Y-50795400I0J-500000D01*
G01*
X68363300Y-50795400D02*
G75*
G02X68863300Y-50295400I500000J0D01*
G01*
X83962800Y-52895900D02*
G75*
G02X83462800Y-53395900I-500000J0D01*
G01*
X68363300Y-41895800D02*
G75*
G02X68863300Y-41395800I500000J0D01*
G01*
X68363300Y-41895800D02*
X68363300Y-43995300D01*
X83462800Y-50295400D02*
X83162000Y-50295400D01*
X121262000Y-41395800D02*
X121262000Y-40895700D01*
X107262700Y-40895700D02*
G75*
G02X107762700Y-40395700I500000J0D01*
G01*
X121563000Y-50295400D02*
X121262000Y-50295400D01*
X120762000Y-40395700D02*
G75*
G02X121262000Y-40895700I0J-500000D01*
G01*
X122063000Y-43995300D02*
X122063000Y-41895800D01*
X107262700Y-50295400D02*
X106963300Y-50295400D01*
X120762000Y-40395700D02*
X107762700Y-40395700D01*
X107262700Y-53395900D02*
X107262700Y-53895000D01*
X107762700Y-54395000D02*
X120762000Y-54395000D01*
X106463300Y-50795400D02*
X106463300Y-52895900D01*
X121262000Y-53895000D02*
X121262000Y-53395900D01*
X106963300Y-44495300D02*
G75*
G02X106463300Y-43995300I0J500000D01*
G01*
X106963300Y-53395900D02*
X107262700Y-53395900D01*
X87913300Y-53395900D02*
G75*
G02X87413300Y-52895900I0J500000D01*
G01*
X107262700Y-41395800D02*
X106963300Y-41395800D01*
X87413300Y-50795400D02*
G75*
G02X87913300Y-50295400I500000J0D01*
G01*
X106963300Y-53395900D02*
G75*
G02X106463300Y-52895900I0J500000D01*
G01*
X87913300Y-53395900D02*
X88212700Y-53395900D01*
X121262000Y-44495300D02*
X121563000Y-44495300D01*
X88712700Y-54395000D02*
X101712000Y-54395000D01*
X122063000Y-43995300D02*
G75*
G02X121563000Y-44495300I-500000J0D01*
G01*
X102212000Y-53895000D02*
G75*
G02X101712000Y-54395000I-500000J0D01*
G01*
X121563000Y-50295400D02*
G75*
G02X122063000Y-50795400I0J-500000D01*
G01*
X103012800Y-52895900D02*
X103012800Y-50795400D01*
X102512800Y-50295400D02*
G75*
G02X103012800Y-50795400I0J-500000D01*
G01*
X103012800Y-43995300D02*
X103012800Y-41895800D01*
X102512800Y-41395800D02*
G75*
G02X103012800Y-41895800I0J-500000D01*
G01*
X121262000Y-50295400D02*
X121262000Y-44495300D01*
X88712700Y-54395000D02*
G75*
G02X88212700Y-53895000I0J500000D01*
G01*
X102212000Y-50295400D02*
X102212000Y-44495300D01*
X88212700Y-53395900D02*
X88212700Y-53895000D01*
X107262700Y-40895700D02*
X107262700Y-41395800D01*
X107762700Y-54395000D02*
G75*
G02X107262700Y-53895000I0J500000D01*
G01*
X87913300Y-44495300D02*
G75*
G02X87413300Y-43995300I0J500000D01*
G01*
X102212000Y-53395900D02*
X102512800Y-53395900D01*
X87913300Y-44495300D02*
X88212700Y-44495300D01*
X102212000Y-41395800D02*
X102212000Y-40895700D01*
X106463300Y-41895800D02*
G75*
G02X106963300Y-41395800I500000J0D01*
G01*
X106963300Y-44495300D02*
X107262700Y-44495300D01*
X103012800Y-52895900D02*
G75*
G02X102512800Y-53395900I-500000J0D01*
G01*
X106463300Y-41895800D02*
X106463300Y-43995300D01*
X102512800Y-50295400D02*
X102212000Y-50295400D01*
X102212000Y-44495300D02*
X102512800Y-44495300D01*
X103012800Y-43995300D02*
G75*
G02X102512800Y-44495300I-500000J0D01*
G01*
X102512800Y-41395800D02*
X102212000Y-41395800D01*
X101712000Y-40395700D02*
G75*
G02X102212000Y-40895700I0J-500000D01*
G01*
X101712000Y-40395700D02*
X88712700Y-40395700D01*
X121262000Y-53895000D02*
G75*
G02X120762000Y-54395000I-500000J0D01*
G01*
X88212700Y-40895700D02*
G75*
G02X88712700Y-40395700I500000J0D01*
G01*
X88212700Y-41395800D02*
X87913300Y-41395800D01*
X107262700Y-44495300D02*
X107262700Y-50295400D01*
X88212700Y-44495300D02*
X88212700Y-50295400D01*
X88212700Y-50295400D02*
X87913300Y-50295400D01*
X87413300Y-50795400D02*
X87413300Y-52895900D01*
X87413300Y-41895800D02*
G75*
G02X87913300Y-41395800I500000J0D01*
G01*
X106463300Y-50795400D02*
G75*
G02X106963300Y-50295400I500000J0D01*
G01*
X87413300Y-41895800D02*
X87413300Y-43995300D01*
X140312000Y-50295400D02*
X140312000Y-44495300D01*
X102212000Y-53895000D02*
X102212000Y-53395900D01*
X140312000Y-44495300D02*
X140613000Y-44495300D01*
X141113000Y-43995300D02*
G75*
G02X140613000Y-44495300I-500000J0D01*
G01*
X88212700Y-40895700D02*
X88212700Y-41395800D01*
X121563000Y-41395800D02*
G75*
G02X122063000Y-41895800I0J-500000D01*
G01*
X121563000Y-41395800D02*
X121262000Y-41395800D01*
X145363000Y-40895700D02*
G75*
G02X145863000Y-40395700I500000J0D01*
G01*
X126013000Y-53395900D02*
G75*
G02X125513000Y-52895900I0J500000D01*
G01*
X126013000Y-53395900D02*
X126313000Y-53395900D01*
X126313000Y-53395900D02*
X126313000Y-53895000D01*
X144562000Y-50795400D02*
X144562000Y-52895900D01*
X145062000Y-53395900D02*
X145363000Y-53395900D01*
X145363000Y-53395900D02*
X145363000Y-53895000D01*
X145863000Y-54395000D02*
G75*
G02X145363000Y-53895000I0J500000D01*
G01*
X145863000Y-54395000D02*
X158862000Y-54395000D01*
X159362000Y-53895000D02*
G75*
G02X158862000Y-54395000I-500000J0D01*
G01*
X158862000Y-40395700D02*
G75*
G02X159362000Y-40895700I0J-500000D01*
G01*
X159362000Y-50295400D02*
X159362000Y-44495300D01*
X126313000Y-44495300D02*
X126313000Y-50295400D01*
X145062000Y-53395900D02*
G75*
G02X144562000Y-52895900I0J500000D01*
G01*
X159362000Y-53395900D02*
X159663000Y-53395900D01*
X182663000Y-41895800D02*
G75*
G02X183163000Y-41395800I500000J0D01*
G01*
X159663000Y-50295400D02*
G75*
G02X160163000Y-50795400I0J-500000D01*
G01*
X159362000Y-44495300D02*
X159663000Y-44495300D01*
X183463000Y-41395800D02*
X183163000Y-41395800D01*
X126313000Y-50295400D02*
X126013000Y-50295400D01*
X160163000Y-52895900D02*
G75*
G02X159663000Y-53395900I-500000J0D01*
G01*
X160163000Y-43995300D02*
X160163000Y-41895800D01*
X145363000Y-50295400D02*
X145062000Y-50295400D01*
X140613000Y-41395800D02*
X140312000Y-41395800D01*
X141113000Y-43995300D02*
X141113000Y-41895800D01*
X140613000Y-50295400D02*
G75*
G02X141113000Y-50795400I0J-500000D01*
G01*
X140312000Y-53895000D02*
X140312000Y-53395900D01*
X126313000Y-40895700D02*
X126313000Y-41395800D01*
X144562000Y-41895800D02*
G75*
G02X145062000Y-41395800I500000J0D01*
G01*
X159362000Y-53895000D02*
X159362000Y-53395900D01*
X140312000Y-53895000D02*
G75*
G02X139812000Y-54395000I-500000J0D01*
G01*
X126013000Y-44495300D02*
X126313000Y-44495300D01*
X159663000Y-41395800D02*
X159362000Y-41395800D01*
X140613000Y-41395800D02*
G75*
G02X141113000Y-41895800I0J-500000D01*
G01*
X159362000Y-41395800D02*
X159362000Y-40895700D01*
X145363000Y-44495300D02*
X145363000Y-50295400D01*
X144562000Y-50795400D02*
G75*
G02X145062000Y-50295400I500000J0D01*
G01*
X140312000Y-41395800D02*
X140312000Y-40895700D01*
X125513000Y-50795400D02*
X125513000Y-52895900D01*
X140613000Y-50295400D02*
X140312000Y-50295400D01*
X145062000Y-44495300D02*
G75*
G02X144562000Y-43995300I0J500000D01*
G01*
X159663000Y-41395800D02*
G75*
G02X160163000Y-41895800I0J-500000D01*
G01*
X126313000Y-41395800D02*
X126013000Y-41395800D01*
X145062000Y-44495300D02*
X145363000Y-44495300D01*
X141113000Y-52895900D02*
G75*
G02X140613000Y-53395900I-500000J0D01*
G01*
X145363000Y-41395800D02*
X145062000Y-41395800D01*
X141113000Y-52895900D02*
X141113000Y-50795400D01*
X126313000Y-40895700D02*
G75*
G02X126813000Y-40395700I500000J0D01*
G01*
X159663000Y-50295400D02*
X159362000Y-50295400D01*
X125513000Y-41895800D02*
G75*
G02X126013000Y-41395800I500000J0D01*
G01*
X126813000Y-54395000D02*
X139812000Y-54395000D01*
X125513000Y-50795400D02*
G75*
G02X126013000Y-50295400I500000J0D01*
G01*
X160163000Y-43995300D02*
G75*
G02X159663000Y-44495300I-500000J0D01*
G01*
X126013000Y-44495300D02*
G75*
G02X125513000Y-43995300I0J500000D01*
G01*
X158862000Y-40395700D02*
X145863000Y-40395700D01*
X140312000Y-53395900D02*
X140613000Y-53395900D01*
X145363000Y-40895700D02*
X145363000Y-41395800D01*
X144562000Y-41895800D02*
X144562000Y-43995300D01*
X125513000Y-41895800D02*
X125513000Y-43995300D01*
X126813000Y-54395000D02*
G75*
G02X126313000Y-53895000I0J500000D01*
G01*
X139812000Y-40395700D02*
G75*
G02X140312000Y-40895700I0J-500000D01*
G01*
X139812000Y-40395700D02*
X126813000Y-40395700D01*
X160163000Y-52895900D02*
X160163000Y-50795400D01*
X158849000Y-79996000D02*
X158849000Y-82095200D01*
X215999000Y-88895400D02*
G75*
G02X216499000Y-88395400I500000J0D01*
G01*
X230800000Y-91995000D02*
X230800000Y-91496000D01*
X231100000Y-79496000D02*
G75*
G02X231600000Y-79996000I0J-500000D01*
G01*
X231100000Y-79496000D02*
X230800000Y-79496000D01*
X231100000Y-88395400D02*
X230800000Y-88395400D01*
X216800000Y-82595200D02*
X216800000Y-88395400D01*
X231600000Y-82095200D02*
X231600000Y-79996000D01*
X178399000Y-91496000D02*
G75*
G02X177899000Y-90996000I0J500000D01*
G01*
X192700000Y-91995000D02*
G75*
G02X192200000Y-92495000I-500000J0D01*
G01*
X192700000Y-91496000D02*
X193000000Y-91496000D01*
X159650000Y-79496000D02*
X159349000Y-79496000D01*
X158849000Y-79996000D02*
G75*
G02X159349000Y-79496000I500000J0D01*
G01*
X216800000Y-78995700D02*
X216800000Y-79496000D01*
X217300000Y-92495000D02*
X230300000Y-92495000D01*
X230800000Y-91995000D02*
G75*
G02X230300000Y-92495000I-500000J0D01*
G01*
X230800000Y-79496000D02*
X230800000Y-78995700D01*
X193000000Y-88395400D02*
G75*
G02X193500000Y-88895400I0J-500000D01*
G01*
X193500000Y-82095200D02*
X193500000Y-79996000D01*
X216800000Y-78995700D02*
G75*
G02X217300000Y-78495700I500000J0D01*
G01*
X230800000Y-82595200D02*
X231100000Y-82595200D01*
X216499000Y-82595200D02*
G75*
G02X215999000Y-82095200I0J500000D01*
G01*
X231600000Y-82095200D02*
G75*
G02X231100000Y-82595200I-500000J0D01*
G01*
X192700000Y-88395400D02*
X192700000Y-82595200D01*
X231600000Y-90996000D02*
G75*
G02X231100000Y-91496000I-500000J0D01*
G01*
X215999000Y-79996000D02*
G75*
G02X216499000Y-79496000I500000J0D01*
G01*
X231100000Y-88395400D02*
G75*
G02X231600000Y-88895400I0J-500000D01*
G01*
X216499000Y-82595200D02*
X216800000Y-82595200D01*
X231600000Y-90996000D02*
X231600000Y-88895400D01*
X230800000Y-88395400D02*
X230800000Y-82595200D01*
X178399000Y-91496000D02*
X178700000Y-91496000D01*
X178700000Y-88395400D02*
X178399000Y-88395400D01*
X159650000Y-78995700D02*
X159650000Y-79496000D01*
X193500000Y-90996000D02*
X193500000Y-88895400D01*
X217300000Y-92495000D02*
G75*
G02X216800000Y-91995000I0J500000D01*
G01*
X192700000Y-82595200D02*
X193000000Y-82595200D01*
X230300000Y-78495700D02*
X217300000Y-78495700D01*
X215999000Y-79996000D02*
X215999000Y-82095200D01*
X216800000Y-88395400D02*
X216499000Y-88395400D01*
X173150000Y-78495700D02*
X160150000Y-78495700D01*
X178700000Y-91496000D02*
X178700000Y-91995000D01*
X216499000Y-91496000D02*
X216800000Y-91496000D01*
X193500000Y-82095200D02*
G75*
G02X193000000Y-82595200I-500000J0D01*
G01*
X177899000Y-88895400D02*
G75*
G02X178399000Y-88395400I500000J0D01*
G01*
X193000000Y-79496000D02*
G75*
G02X193500000Y-79996000I0J-500000D01*
G01*
X193000000Y-79496000D02*
X192700000Y-79496000D01*
X192700000Y-79496000D02*
X192700000Y-78995700D01*
X230300000Y-78495700D02*
G75*
G02X230800000Y-78995700I0J-500000D01*
G01*
X159650000Y-78995700D02*
G75*
G02X160150000Y-78495700I500000J0D01*
G01*
X193500000Y-90996000D02*
G75*
G02X193000000Y-91496000I-500000J0D01*
G01*
X216800000Y-91496000D02*
X216800000Y-91995000D01*
X179200000Y-92495000D02*
G75*
G02X178700000Y-91995000I0J500000D01*
G01*
X216800000Y-79496000D02*
X216499000Y-79496000D01*
X215999000Y-88895400D02*
X215999000Y-90996000D01*
X192700000Y-91995000D02*
X192700000Y-91496000D01*
X193000000Y-88395400D02*
X192700000Y-88395400D01*
X192200000Y-78495700D02*
G75*
G02X192700000Y-78995700I0J-500000D01*
G01*
X173150000Y-78495700D02*
G75*
G02X173650000Y-78995700I0J-500000D01*
G01*
X179200000Y-92495000D02*
X192200000Y-92495000D01*
X216499000Y-91496000D02*
G75*
G02X215999000Y-90996000I0J500000D01*
G01*
X230800000Y-91496000D02*
X231100000Y-91496000D01*
X177899000Y-88895400D02*
X177899000Y-90996000D01*
X192200000Y-78495700D02*
X179200000Y-78495700D01*
X298606000Y-73215000D02*
X298606000Y-66946100D01*
X292357000Y-74415100D02*
G75*
G02X291857000Y-73915100I0J500000D01*
G01*
X307288000Y-69345400D02*
X306988000Y-69345400D01*
X321588000Y-69345400D02*
X321287000Y-69345400D01*
X322088000Y-63045300D02*
X322088000Y-60945800D01*
X321588000Y-60445800D02*
X321287000Y-60445800D01*
X291857000Y-68746000D02*
X291857000Y-73215000D01*
X322088000Y-71945900D02*
G75*
G02X321588000Y-72445900I-500000J0D01*
G01*
X320787000Y-59445700D02*
X307788000Y-59445700D01*
X25168800Y-80465900D02*
X25168800Y-83196000D01*
X306988000Y-63545300D02*
X307288000Y-63545300D01*
X31418400Y-79965900D02*
G75*
G02X31918400Y-80465900I0J-500000D01*
G01*
X25168800Y-85996200D02*
X25168800Y-92266300D01*
X298606000Y-64146100D02*
X298606000Y-61415700D01*
X322088000Y-63045300D02*
G75*
G02X321588000Y-63545300I-500000J0D01*
G01*
X306488000Y-60945800D02*
X306488000Y-63045300D01*
X298106000Y-60915700D02*
X292357000Y-60915700D01*
X321287000Y-72945000D02*
G75*
G02X320787000Y-73445000I-500000J0D01*
G01*
X298606000Y-66946100D02*
X298606000Y-64146100D01*
X25168800Y-92266300D02*
X25168800Y-92965200D01*
X291857000Y-61415700D02*
X291857000Y-64146100D01*
X306988000Y-72445900D02*
G75*
G02X306488000Y-71945900I0J500000D01*
G01*
X25668800Y-93465200D02*
G75*
G02X25168800Y-92965200I0J500000D01*
G01*
X321287000Y-69345400D02*
X321287000Y-63545300D01*
X307288000Y-60445800D02*
X306988000Y-60445800D01*
X25668800Y-93465200D02*
X26894090Y-93465200D01*
X291857000Y-64146100D02*
X291857000Y-68746000D01*
X307788000Y-73445000D02*
X320787000Y-73445000D01*
X321287000Y-72945000D02*
X321287000Y-72445900D01*
X30193100Y-93465200D02*
X31418400Y-93465200D01*
X31918400Y-92965200D02*
X31918400Y-92266300D01*
X31918400Y-92266300D02*
X31918400Y-87795900D01*
X26894090Y-93465200D02*
X30193100Y-93465200D01*
X307288000Y-59945700D02*
G75*
G02X307788000Y-59445700I500000J0D01*
G01*
X306988000Y-63545300D02*
G75*
G02X306488000Y-63045300I0J500000D01*
G01*
X307288000Y-72445900D02*
X307288000Y-72945000D01*
X298106000Y-60915700D02*
G75*
G02X298606000Y-61415700I0J-500000D01*
G01*
X291857000Y-73215000D02*
X291857000Y-73915100D01*
X307788000Y-73445000D02*
G75*
G02X307288000Y-72945000I0J500000D01*
G01*
X321287000Y-72445900D02*
X321588000Y-72445900D01*
X321588000Y-60445800D02*
G75*
G02X322088000Y-60945800I0J-500000D01*
G01*
X306488000Y-69845400D02*
X306488000Y-71945900D01*
X307288000Y-59945700D02*
X307288000Y-60445800D01*
X306488000Y-60945800D02*
G75*
G02X306988000Y-60445800I500000J0D01*
G01*
X321287000Y-60445800D02*
X321287000Y-59945700D01*
X321588000Y-69345400D02*
G75*
G02X322088000Y-69845400I0J-500000D01*
G01*
X31918400Y-83196000D02*
X31918400Y-80465900D01*
X31418400Y-79965900D02*
X25668800Y-79965900D01*
X31918400Y-92965200D02*
G75*
G02X31418400Y-93465200I-500000J0D01*
G01*
X306488000Y-69845400D02*
G75*
G02X306988000Y-69345400I500000J0D01*
G01*
X322088000Y-71945900D02*
X322088000Y-69845400D01*
X25168800Y-80465900D02*
G75*
G02X25668800Y-79965900I500000J0D01*
G01*
X307288000Y-63545300D02*
X307288000Y-69345400D01*
X306988000Y-72445900D02*
X307288000Y-72445900D01*
X55718400Y-83196000D02*
X55718400Y-80465900D01*
X25168800Y-83196000D02*
X25168800Y-85996200D01*
X320787000Y-59445700D02*
G75*
G02X321287000Y-59945700I0J-500000D01*
G01*
X31918400Y-87795900D02*
X31918400Y-83196000D01*
X55218400Y-79965900D02*
G75*
G02X55718400Y-80465900I0J-500000D01*
G01*
X55218400Y-79965900D02*
X49468900Y-79965900D01*
X48968900Y-80465900D02*
G75*
G02X49468900Y-79965900I500000J0D01*
G01*
X48968900Y-80465900D02*
X48968900Y-83196000D01*
X321287000Y-63545300D02*
X321588000Y-63545300D01*
X291857000Y-61415700D02*
G75*
G02X292357000Y-60915700I500000J0D01*
G01*
X77899500Y-78495700D02*
X64900200Y-78495700D01*
X79200300Y-90996000D02*
X79200300Y-88895400D01*
X97449500Y-79496000D02*
X97449500Y-78995700D01*
X96949500Y-78495700D02*
X83950200Y-78495700D01*
X83450200Y-78995700D02*
G75*
G02X83950200Y-78495700I500000J0D01*
G01*
X83450200Y-78995700D02*
X83450200Y-79496000D01*
X83450200Y-79496000D02*
X83149400Y-79496000D01*
X82649400Y-79996000D02*
G75*
G02X83149400Y-79496000I500000J0D01*
G01*
X82649400Y-79996000D02*
X82649400Y-82095200D01*
X83149400Y-82595200D02*
G75*
G02X82649400Y-82095200I0J500000D01*
G01*
X64099400Y-82595200D02*
X64400200Y-82595200D01*
X78700300Y-79496000D02*
X78399500Y-79496000D01*
X83149400Y-82595200D02*
X83450200Y-82595200D01*
X78399500Y-91995000D02*
X78399500Y-91496000D01*
X78700300Y-88395400D02*
X78399500Y-88395400D01*
X63599400Y-88895400D02*
X63599400Y-90996000D01*
X64900200Y-92495000D02*
X77899500Y-92495000D01*
X55718400Y-92266300D02*
X55718400Y-85996200D01*
X64400200Y-78995700D02*
G75*
G02X64900200Y-78495700I500000J0D01*
G01*
X79200300Y-82095200D02*
X79200300Y-79996000D01*
X98250300Y-90996000D02*
G75*
G02X97750300Y-91496000I-500000J0D01*
G01*
X49468900Y-93465200D02*
X50694200Y-93465200D01*
X77899500Y-78495700D02*
G75*
G02X78399500Y-78995700I0J-500000D01*
G01*
X64400200Y-78995700D02*
X64400200Y-79496000D01*
X78700300Y-79496000D02*
G75*
G02X79200300Y-79996000I0J-500000D01*
G01*
X97449500Y-82595200D02*
X97750300Y-82595200D01*
X63599400Y-79996000D02*
X63599400Y-82095200D01*
X55718400Y-92965200D02*
X55718400Y-92266300D01*
X55718400Y-85996200D02*
X55718400Y-83196000D01*
X79200300Y-90996000D02*
G75*
G02X78700300Y-91496000I-500000J0D01*
G01*
X64400200Y-82595200D02*
X64400200Y-88395400D01*
X64099400Y-91496000D02*
G75*
G02X63599400Y-90996000I0J500000D01*
G01*
X78399500Y-79496000D02*
X78399500Y-78995700D01*
X98250300Y-90996000D02*
X98250300Y-88895400D01*
X78399500Y-82595200D02*
X78700300Y-82595200D01*
X53993200Y-93465200D02*
X55218400Y-93465200D01*
X55718400Y-92965200D02*
G75*
G02X55218400Y-93465200I-500000J0D01*
G01*
X63599400Y-79996000D02*
G75*
G02X64099400Y-79496000I500000J0D01*
G01*
X64099400Y-82595200D02*
G75*
G02X63599400Y-82095200I0J500000D01*
G01*
X64099400Y-91496000D02*
X64400200Y-91496000D01*
X78399500Y-91496000D02*
X78700300Y-91496000D01*
X49468900Y-93465200D02*
G75*
G02X48968900Y-92965200I0J500000D01*
G01*
X79200300Y-82095200D02*
G75*
G02X78700300Y-82595200I-500000J0D01*
G01*
X78700300Y-88395400D02*
G75*
G02X79200300Y-88895400I0J-500000D01*
G01*
X97750300Y-88395400D02*
G75*
G02X98250300Y-88895400I0J-500000D01*
G01*
X98250300Y-82095200D02*
X98250300Y-79996000D01*
X97750300Y-79496000D02*
G75*
G02X98250300Y-79996000I0J-500000D01*
G01*
X63599400Y-88895400D02*
G75*
G02X64099400Y-88395400I500000J0D01*
G01*
X97449500Y-91496000D02*
X97750300Y-91496000D01*
X48968900Y-92266300D02*
X48968900Y-92965200D01*
X64400200Y-91496000D02*
X64400200Y-91995000D01*
X64900200Y-92495000D02*
G75*
G02X64400200Y-91995000I0J500000D01*
G01*
X48968900Y-83196000D02*
X48968900Y-87795900D01*
X50694200Y-93465200D02*
X53993200Y-93465200D01*
X64400200Y-79496000D02*
X64099400Y-79496000D01*
X64400200Y-88395400D02*
X64099400Y-88395400D01*
X78399500Y-91995000D02*
G75*
G02X77899500Y-92495000I-500000J0D01*
G01*
X97750300Y-88395400D02*
X97449500Y-88395400D01*
X78399500Y-88395400D02*
X78399500Y-82595200D01*
X97449500Y-88395400D02*
X97449500Y-82595200D01*
X98250300Y-82095200D02*
G75*
G02X97750300Y-82595200I-500000J0D01*
G01*
X97750300Y-79496000D02*
X97449500Y-79496000D01*
X96949500Y-78495700D02*
G75*
G02X97449500Y-78995700I0J-500000D01*
G01*
X48968900Y-87795900D02*
X48968900Y-92266300D01*
X164413000Y-40895700D02*
G75*
G02X164913000Y-40395700I500000J0D01*
G01*
X164413000Y-40895700D02*
X164413000Y-41395800D01*
X183963000Y-54395000D02*
X196962000Y-54395000D01*
X198263000Y-52895900D02*
X198263000Y-50795400D01*
X182663000Y-41895800D02*
X182663000Y-43995300D01*
X197763000Y-50295400D02*
X197462000Y-50295400D01*
X164413000Y-53395900D02*
X164413000Y-53895000D01*
X183463000Y-44495300D02*
X183463000Y-50295400D01*
X164913000Y-54395000D02*
G75*
G02X164413000Y-53895000I0J500000D01*
G01*
X197462000Y-53895000D02*
X197462000Y-53395900D01*
X164913000Y-54395000D02*
X177912000Y-54395000D01*
X183163000Y-53395900D02*
X183463000Y-53395900D01*
X198263000Y-52895900D02*
G75*
G02X197763000Y-53395900I-500000J0D01*
G01*
X196962000Y-40395700D02*
G75*
G02X197462000Y-40895700I0J-500000D01*
G01*
X182663000Y-50795400D02*
G75*
G02X183163000Y-50295400I500000J0D01*
G01*
X163613000Y-50795400D02*
G75*
G02X164113000Y-50295400I500000J0D01*
G01*
X197462000Y-53395900D02*
X197763000Y-53395900D01*
X177912000Y-40395700D02*
X164913000Y-40395700D01*
X164113000Y-44495300D02*
X164413000Y-44495300D01*
X183163000Y-44495300D02*
G75*
G02X182663000Y-43995300I0J500000D01*
G01*
X183463000Y-40895700D02*
X183463000Y-41395800D01*
X163613000Y-50795400D02*
X163613000Y-52895900D01*
X177912000Y-40395700D02*
G75*
G02X178412000Y-40895700I0J-500000D01*
G01*
X163613000Y-41895800D02*
G75*
G02X164113000Y-41395800I500000J0D01*
G01*
X164413000Y-44495300D02*
X164413000Y-50295400D01*
X178412000Y-50295400D02*
X178412000Y-44495300D01*
X164413000Y-41395800D02*
X164113000Y-41395800D01*
X198263000Y-43995300D02*
X198263000Y-41895800D01*
X179213000Y-52895900D02*
G75*
G02X178713000Y-53395900I-500000J0D01*
G01*
X163613000Y-41895800D02*
X163613000Y-43995300D01*
X164413000Y-50295400D02*
X164113000Y-50295400D01*
X183463000Y-50295400D02*
X183163000Y-50295400D01*
X197763000Y-50295400D02*
G75*
G02X198263000Y-50795400I0J-500000D01*
G01*
X178412000Y-53395900D02*
X178713000Y-53395900D01*
X164113000Y-44495300D02*
G75*
G02X163613000Y-43995300I0J500000D01*
G01*
X201713000Y-41895800D02*
X201713000Y-43995300D01*
X202213000Y-44495300D02*
G75*
G02X201713000Y-43995300I0J500000D01*
G01*
X182663000Y-50795400D02*
X182663000Y-52895900D01*
X183463000Y-53395900D02*
X183463000Y-53895000D01*
X197763000Y-41395800D02*
X197462000Y-41395800D01*
X183163000Y-53395900D02*
G75*
G02X182663000Y-52895900I0J500000D01*
G01*
X164113000Y-53395900D02*
X164413000Y-53395900D01*
X197462000Y-44495300D02*
X197763000Y-44495300D01*
X178412000Y-44495300D02*
X178713000Y-44495300D01*
X179213000Y-43995300D02*
X179213000Y-41895800D01*
X178713000Y-50295400D02*
G75*
G02X179213000Y-50795400I0J-500000D01*
G01*
X197763000Y-41395800D02*
G75*
G02X198263000Y-41895800I0J-500000D01*
G01*
X197462000Y-50295400D02*
X197462000Y-44495300D01*
X178713000Y-50295400D02*
X178412000Y-50295400D01*
X178713000Y-41395800D02*
G75*
G02X179213000Y-41895800I0J-500000D01*
G01*
X183963000Y-54395000D02*
G75*
G02X183463000Y-53895000I0J500000D01*
G01*
X178412000Y-53895000D02*
X178412000Y-53395900D01*
X164113000Y-53395900D02*
G75*
G02X163613000Y-52895900I0J500000D01*
G01*
X198263000Y-43995300D02*
G75*
G02X197763000Y-44495300I-500000J0D01*
G01*
X179213000Y-43995300D02*
G75*
G02X178713000Y-44495300I-500000J0D01*
G01*
X183163000Y-44495300D02*
X183463000Y-44495300D01*
X197462000Y-53895000D02*
G75*
G02X196962000Y-54395000I-500000J0D01*
G01*
X179213000Y-52895900D02*
X179213000Y-50795400D01*
X197462000Y-41395800D02*
X197462000Y-40895700D01*
X196962000Y-40395700D02*
X183963000Y-40395700D01*
X183463000Y-40895700D02*
G75*
G02X183963000Y-40395700I500000J0D01*
G01*
X178412000Y-53895000D02*
G75*
G02X177912000Y-54395000I-500000J0D01*
G01*
X178412000Y-41395800D02*
X178412000Y-40895700D01*
X178713000Y-41395800D02*
X178412000Y-41395800D01*
X202513000Y-44495300D02*
X202513000Y-50295400D01*
X216813000Y-50295400D02*
G75*
G02X217313000Y-50795400I0J-500000D01*
G01*
X216813000Y-50295400D02*
X216512000Y-50295400D01*
X216512000Y-50295400D02*
X216512000Y-44495300D01*
X216813000Y-41395800D02*
X216512000Y-41395800D01*
X202513000Y-40895700D02*
X202513000Y-41395800D01*
X235863000Y-41395800D02*
G75*
G02X236363000Y-41895800I0J-500000D01*
G01*
X235863000Y-41395800D02*
X235562000Y-41395800D01*
X235562000Y-41395800D02*
X235562000Y-40895700D01*
X220763000Y-50795400D02*
X220763000Y-52895900D01*
X217313000Y-43995300D02*
G75*
G02X216813000Y-44495300I-500000J0D01*
G01*
X221563000Y-53395900D02*
X221563000Y-53895000D01*
X217313000Y-43995300D02*
X217313000Y-41895800D01*
X216012000Y-40395700D02*
G75*
G02X216512000Y-40895700I0J-500000D01*
G01*
X235562000Y-50295400D02*
X235562000Y-44495300D01*
X236363000Y-52895900D02*
X236363000Y-50795400D01*
X217313000Y-52895900D02*
G75*
G02X216813000Y-53395900I-500000J0D01*
G01*
X202513000Y-40895700D02*
G75*
G02X203013000Y-40395700I500000J0D01*
G01*
X216512000Y-41395800D02*
X216512000Y-40895700D01*
X235562000Y-53895000D02*
X235562000Y-53395900D01*
X202513000Y-41395800D02*
X202213000Y-41395800D01*
X235562000Y-44495300D02*
X235863000Y-44495300D01*
X221263000Y-53395900D02*
X221563000Y-53395900D01*
X235863000Y-50295400D02*
G75*
G02X236363000Y-50795400I0J-500000D01*
G01*
X235863000Y-50295400D02*
X235562000Y-50295400D01*
X221263000Y-44495300D02*
G75*
G02X220763000Y-43995300I0J500000D01*
G01*
X216512000Y-44495300D02*
X216813000Y-44495300D01*
X201713000Y-41895800D02*
G75*
G02X202213000Y-41395800I500000J0D01*
G01*
X221563000Y-40895700D02*
X221563000Y-41395800D01*
X235562000Y-53895000D02*
G75*
G02X235062000Y-54395000I-500000J0D01*
G01*
X216512000Y-53895000D02*
X216512000Y-53395900D01*
X221563000Y-40895700D02*
G75*
G02X222063000Y-40395700I500000J0D01*
G01*
X201713000Y-50795400D02*
G75*
G02X202213000Y-50295400I500000J0D01*
G01*
X235562000Y-53395900D02*
X235863000Y-53395900D01*
X236363000Y-52895900D02*
G75*
G02X235863000Y-53395900I-500000J0D01*
G01*
X254612000Y-53395900D02*
X254913000Y-53395900D01*
X202213000Y-53395900D02*
G75*
G02X201713000Y-52895900I0J500000D01*
G01*
X216012000Y-40395700D02*
X203013000Y-40395700D01*
X203013000Y-54395000D02*
X216012000Y-54395000D01*
X236363000Y-43995300D02*
X236363000Y-41895800D01*
X221263000Y-44495300D02*
X221563000Y-44495300D01*
X202213000Y-53395900D02*
X202513000Y-53395900D01*
X221563000Y-50295400D02*
X221263000Y-50295400D01*
X222063000Y-54395000D02*
X235062000Y-54395000D01*
X220763000Y-50795400D02*
G75*
G02X221263000Y-50295400I500000J0D01*
G01*
X202513000Y-53395900D02*
X202513000Y-53895000D01*
X220763000Y-41895800D02*
G75*
G02X221263000Y-41395800I500000J0D01*
G01*
X220763000Y-41895800D02*
X220763000Y-43995300D01*
X221263000Y-53395900D02*
G75*
G02X220763000Y-52895900I0J500000D01*
G01*
X222063000Y-54395000D02*
G75*
G02X221563000Y-53895000I0J500000D01*
G01*
X255413000Y-52895900D02*
G75*
G02X254913000Y-53395900I-500000J0D01*
G01*
X217313000Y-52895900D02*
X217313000Y-50795400D01*
X201713000Y-50795400D02*
X201713000Y-52895900D01*
X216512000Y-53395900D02*
X216813000Y-53395900D01*
X236363000Y-43995300D02*
G75*
G02X235863000Y-44495300I-500000J0D01*
G01*
X235062000Y-40395700D02*
X222063000Y-40395700D01*
X202513000Y-50295400D02*
X202213000Y-50295400D01*
X202213000Y-44495300D02*
X202513000Y-44495300D01*
X221563000Y-41395800D02*
X221263000Y-41395800D01*
X216813000Y-41395800D02*
G75*
G02X217313000Y-41895800I0J-500000D01*
G01*
X235062000Y-40395700D02*
G75*
G02X235562000Y-40895700I0J-500000D01*
G01*
X221563000Y-44495300D02*
X221563000Y-50295400D01*
X216512000Y-53895000D02*
G75*
G02X216012000Y-54395000I-500000J0D01*
G01*
X203013000Y-54395000D02*
G75*
G02X202513000Y-53895000I0J500000D01*
G01*
X306488000Y-99046000D02*
X306488000Y-101145200D01*
X241113000Y-54395000D02*
G75*
G02X240613000Y-53895000I0J500000D01*
G01*
X255413000Y-52895900D02*
X255413000Y-50795400D01*
X254913000Y-50295400D02*
G75*
G02X255413000Y-50795400I0J-500000D01*
G01*
X254913000Y-50295400D02*
X254612000Y-50295400D01*
X240613000Y-53395900D02*
X240613000Y-53895000D01*
X254612000Y-53895000D02*
X254612000Y-53395900D01*
X240313000Y-44495300D02*
X240613000Y-44495300D01*
X306988000Y-110545950D02*
X307288000Y-110545950D01*
X322088000Y-110045950D02*
G75*
G02X321588000Y-110545950I-500000J0D01*
G01*
X322088000Y-110045950D02*
X322088000Y-107945350D01*
X321287000Y-107445350D02*
X321287000Y-101645200D01*
X321588000Y-98546000D02*
X321287000Y-98546000D01*
X321287000Y-98546000D02*
X321287000Y-98045500D01*
X241113000Y-54395000D02*
X254112000Y-54395000D01*
X321588000Y-107445350D02*
G75*
G02X322088000Y-107945350I0J-500000D01*
G01*
X320787000Y-97545500D02*
G75*
G02X321287000Y-98045500I0J-500000D01*
G01*
X306988000Y-101645200D02*
G75*
G02X306488000Y-101145200I0J500000D01*
G01*
X306988000Y-110545950D02*
G75*
G02X306488000Y-110045950I0J500000D01*
G01*
X239813000Y-50795400D02*
X239813000Y-52895900D01*
X240313000Y-44495300D02*
G75*
G02X239813000Y-43995300I0J500000D01*
G01*
X321287000Y-111045030D02*
G75*
G02X320787000Y-111545030I-500000J0D01*
G01*
X306488000Y-99046000D02*
G75*
G02X306988000Y-98546000I500000J0D01*
G01*
X306988000Y-101645200D02*
X307288000Y-101645200D01*
X323813000Y-20820900D02*
X323813000Y-112070971D01*
X254112000Y-40395700D02*
G75*
G02X254612000Y-40895700I0J-500000D01*
G01*
X239813000Y-50795400D02*
G75*
G02X240313000Y-50295400I500000J0D01*
G01*
X255413000Y-43995300D02*
X255413000Y-41895800D01*
X240313000Y-53395900D02*
G75*
G02X239813000Y-52895900I0J500000D01*
G01*
X307788000Y-111545030D02*
X320787000Y-111545030D01*
X321287000Y-111045030D02*
X321287000Y-110545950D01*
X255413000Y-43995300D02*
G75*
G02X254913000Y-44495300I-500000J0D01*
G01*
X240313000Y-53395900D02*
X240613000Y-53395900D01*
X321287000Y-110545950D02*
X321588000Y-110545950D01*
X322088000Y-101145200D02*
X322088000Y-99046000D01*
X306488000Y-107945350D02*
G75*
G02X306988000Y-107445350I500000J0D01*
G01*
X306488000Y-107945350D02*
X306488000Y-110045950D01*
X240613000Y-50295400D02*
X240313000Y-50295400D01*
X254112000Y-40395700D02*
X241113000Y-40395700D01*
X254612000Y-53895000D02*
G75*
G02X254112000Y-54395000I-500000J0D01*
G01*
X240613000Y-40895700D02*
X240613000Y-41395800D01*
X307788000Y-111545030D02*
G75*
G02X307288000Y-111045030I0J500000D01*
G01*
X321588000Y-107445350D02*
X321287000Y-107445350D01*
X321287000Y-101645200D02*
X321588000Y-101645200D01*
X240613000Y-41395800D02*
X240313000Y-41395800D01*
X254913000Y-41395800D02*
X254612000Y-41395800D01*
X239813000Y-41895800D02*
X239813000Y-43995300D01*
X254612000Y-41395800D02*
X254612000Y-40895700D01*
X240613000Y-44495300D02*
X240613000Y-50295400D01*
X307288000Y-110545950D02*
X307288000Y-111045030D01*
X322088000Y-101145200D02*
G75*
G02X321588000Y-101645200I-500000J0D01*
G01*
X254612000Y-44495300D02*
X254913000Y-44495300D01*
X240613000Y-40895700D02*
G75*
G02X241113000Y-40395700I500000J0D01*
G01*
X321588000Y-98546000D02*
G75*
G02X322088000Y-99046000I0J-500000D01*
G01*
X320787000Y-97545500D02*
X307788000Y-97545500D01*
X307288000Y-98045500D02*
G75*
G02X307788000Y-97545500I500000J0D01*
G01*
X254913000Y-41395800D02*
G75*
G02X255413000Y-41895800I0J-500000D01*
G01*
X307288000Y-98045500D02*
X307288000Y-98546000D01*
X307288000Y-98546000D02*
X306988000Y-98546000D01*
X307288000Y-101645200D02*
X307288000Y-107445350D01*
X254612000Y-50295400D02*
X254612000Y-44495300D01*
X307288000Y-107445350D02*
X306988000Y-107445350D01*
X321813000Y-18820900D02*
G75*
G02X323813000Y-20820900I0J-2000000D01*
G01*
X239813000Y-41895800D02*
G75*
G02X240313000Y-41395800I500000J0D01*
G01*
X202225000Y-60445800D02*
X202225000Y-59945700D01*
X188225000Y-59945700D02*
X188225000Y-60445800D01*
X187424000Y-60945800D02*
G75*
G02X187924000Y-60445800I500000J0D01*
G01*
X188725000Y-73445000D02*
G75*
G02X188225000Y-72945000I0J500000D01*
G01*
X202225000Y-72945000D02*
G75*
G02X201725000Y-73445000I-500000J0D01*
G01*
X187924000Y-63545300D02*
X188225000Y-63545300D01*
X203025000Y-63045300D02*
X203025000Y-60945800D01*
X222075000Y-71945900D02*
G75*
G02X221575000Y-72445900I-500000J0D01*
G01*
X222075000Y-71945900D02*
X222075000Y-69845400D01*
X221575000Y-69345400D02*
G75*
G02X222075000Y-69845400I0J-500000D01*
G01*
X323813000Y-112070971D02*
G75*
G02X321813000Y-114070971I-2000000J0D01*
G01*
X221575000Y-69345400D02*
X221275000Y-69345400D01*
X221275000Y-63545300D02*
X221575000Y-63545300D01*
X187924000Y-72445900D02*
G75*
G02X187424000Y-71945900I0J500000D01*
G01*
X188225000Y-59945700D02*
G75*
G02X188725000Y-59445700I500000J0D01*
G01*
X188225000Y-72445900D02*
X188225000Y-72945000D01*
X222075000Y-63045300D02*
G75*
G02X221575000Y-63545300I-500000J0D01*
G01*
X202225000Y-69345400D02*
X202225000Y-63545300D01*
X220775000Y-59445700D02*
X207775000Y-59445700D01*
X221575000Y-60445800D02*
X221275000Y-60445800D01*
X221275000Y-69345400D02*
X221275000Y-63545300D01*
X21013085Y-18820900D02*
X321813000Y-18820900D01*
X207275000Y-59945700D02*
G75*
G02X207775000Y-59445700I500000J0D01*
G01*
X201725000Y-59445700D02*
G75*
G02X202225000Y-59945700I0J-500000D01*
G01*
X187424000Y-69845400D02*
G75*
G02X187924000Y-69345400I500000J0D01*
G01*
X221275000Y-72945000D02*
G75*
G02X220775000Y-73445000I-500000J0D01*
G01*
X221575000Y-60445800D02*
G75*
G02X222075000Y-60945800I0J-500000D01*
G01*
X206974000Y-72445900D02*
X207275000Y-72445900D01*
X202225000Y-63545300D02*
X202525000Y-63545300D01*
X221275000Y-60445800D02*
X221275000Y-59945700D01*
X207275000Y-59945700D02*
X207275000Y-60445800D01*
X206974000Y-72445900D02*
G75*
G02X206474000Y-71945900I0J500000D01*
G01*
X202525000Y-69345400D02*
X202225000Y-69345400D01*
X188225000Y-63545300D02*
X188225000Y-69345400D01*
X220775000Y-59445700D02*
G75*
G02X221275000Y-59945700I0J-500000D01*
G01*
X207275000Y-60445800D02*
X206974000Y-60445800D01*
X203025000Y-63045300D02*
G75*
G02X202525000Y-63545300I-500000J0D01*
G01*
X222075000Y-63045300D02*
X222075000Y-60945800D01*
X221275000Y-72945000D02*
X221275000Y-72445900D01*
X188225000Y-69345400D02*
X187924000Y-69345400D01*
X188225000Y-60445800D02*
X187924000Y-60445800D01*
X19013085Y-20820900D02*
G75*
G02X21013085Y-18820900I2000000J0D01*
G01*
X187424000Y-69845400D02*
X187424000Y-71945900D01*
X202225000Y-72445900D02*
X202525000Y-72445900D01*
X187424000Y-60945800D02*
X187424000Y-63045300D01*
X202525000Y-60445800D02*
X202225000Y-60445800D01*
X207775000Y-73445000D02*
G75*
G02X207275000Y-72945000I0J500000D01*
G01*
X187924000Y-72445900D02*
X188225000Y-72445900D01*
X207775000Y-73445000D02*
X220775000Y-73445000D01*
X19013085Y-112070971D02*
X19013085Y-20820900D01*
X203025000Y-71945900D02*
G75*
G02X202525000Y-72445900I-500000J0D01*
G01*
X202525000Y-60445800D02*
G75*
G02X203025000Y-60945800I0J-500000D01*
G01*
X321813000Y-114070971D02*
X21013085Y-114070971D01*
X206474000Y-69845400D02*
X206474000Y-71945900D01*
X202525000Y-69345400D02*
G75*
G02X203025000Y-69845400I0J-500000D01*
G01*
X221275000Y-72445900D02*
X221575000Y-72445900D01*
X187924000Y-63545300D02*
G75*
G02X187424000Y-63045300I0J500000D01*
G01*
X188725000Y-73445000D02*
X201725000Y-73445000D01*
X202225000Y-72945000D02*
X202225000Y-72445900D01*
X203025000Y-71945900D02*
X203025000Y-69845400D01*
X206474000Y-69845400D02*
G75*
G02X206974000Y-69345400I500000J0D01*
G01*
X207275000Y-72445900D02*
X207275000Y-72945000D01*
X201725000Y-59445700D02*
X188725000Y-59445700D01*
X21013085Y-114070971D02*
G75*
G02X19013085Y-112070971I0J2000000D01*
G01*
X259675000Y-60445800D02*
G75*
G02X260175000Y-60945800I0J-500000D01*
G01*
X240625000Y-60445800D02*
X240325000Y-60445800D01*
X240625000Y-60445800D02*
G75*
G02X241125000Y-60945800I0J-500000D01*
G01*
X258875000Y-59445700D02*
X245875000Y-59445700D01*
X206474000Y-60945800D02*
G75*
G02X206974000Y-60445800I500000J0D01*
G01*
X226024000Y-72445900D02*
G75*
G02X225524000Y-71945900I0J500000D01*
G01*
X239825000Y-59445700D02*
X226825000Y-59445700D01*
X241125000Y-71945900D02*
X241125000Y-69845400D01*
X245375000Y-59945700D02*
G75*
G02X245875000Y-59445700I500000J0D01*
G01*
X245375000Y-59945700D02*
X245375000Y-60445800D01*
X245375000Y-60445800D02*
X245074000Y-60445800D01*
X244574000Y-60945800D02*
X244574000Y-63045300D01*
X245074000Y-63545300D02*
G75*
G02X244574000Y-63045300I0J500000D01*
G01*
X226024000Y-63545300D02*
X226325000Y-63545300D01*
X240325000Y-72945000D02*
G75*
G02X239825000Y-73445000I-500000J0D01*
G01*
X240325000Y-60445800D02*
X240325000Y-59945700D01*
X258875000Y-59445700D02*
G75*
G02X259375000Y-59945700I0J-500000D01*
G01*
X245074000Y-63545300D02*
X245375000Y-63545300D01*
X245375000Y-63545300D02*
X245375000Y-69345400D01*
X240325000Y-63545300D02*
X240625000Y-63545300D01*
X226325000Y-63545300D02*
X226325000Y-69345400D01*
X240325000Y-72945000D02*
X240325000Y-72445900D01*
X245375000Y-69345400D02*
X245074000Y-69345400D01*
X244574000Y-69845400D02*
G75*
G02X245074000Y-69345400I500000J0D01*
G01*
X245074000Y-72445900D02*
G75*
G02X244574000Y-71945900I0J500000D01*
G01*
X240325000Y-69345400D02*
X240325000Y-63545300D01*
X225524000Y-60945800D02*
X225524000Y-63045300D01*
X206974000Y-63545300D02*
X207275000Y-63545300D01*
X241125000Y-63045300D02*
G75*
G02X240625000Y-63545300I-500000J0D01*
G01*
X240325000Y-72445900D02*
X240625000Y-72445900D01*
X226024000Y-72445900D02*
X226325000Y-72445900D01*
X226325000Y-60445800D02*
X226024000Y-60445800D01*
X241125000Y-63045300D02*
X241125000Y-60945800D01*
X260175000Y-71945900D02*
X260175000Y-69845400D01*
X259675000Y-60445800D02*
X259375000Y-60445800D01*
X244574000Y-60945800D02*
G75*
G02X245074000Y-60445800I500000J0D01*
G01*
X259675000Y-69345400D02*
X259375000Y-69345400D01*
X225524000Y-69845400D02*
X225524000Y-71945900D01*
X207275000Y-69345400D02*
X206974000Y-69345400D01*
X240625000Y-69345400D02*
X240325000Y-69345400D01*
X239825000Y-59445700D02*
G75*
G02X240325000Y-59945700I0J-500000D01*
G01*
X259375000Y-69345400D02*
X259375000Y-63545300D01*
X206474000Y-60945800D02*
X206474000Y-63045300D01*
X225524000Y-60945800D02*
G75*
G02X226024000Y-60445800I500000J0D01*
G01*
X226325000Y-59945700D02*
G75*
G02X226825000Y-59445700I500000J0D01*
G01*
X259375000Y-63545300D02*
X259675000Y-63545300D01*
X207275000Y-63545300D02*
X207275000Y-69345400D01*
X240625000Y-69345400D02*
G75*
G02X241125000Y-69845400I0J-500000D01*
G01*
X260175000Y-63045300D02*
X260175000Y-60945800D01*
X244574000Y-69845400D02*
X244574000Y-71945900D01*
X245074000Y-72445900D02*
X245375000Y-72445900D01*
X226325000Y-69345400D02*
X226024000Y-69345400D01*
X259675000Y-69345400D02*
G75*
G02X260175000Y-69845400I0J-500000D01*
G01*
X206974000Y-63545300D02*
G75*
G02X206474000Y-63045300I0J500000D01*
G01*
X226325000Y-72445900D02*
X226325000Y-72945000D01*
X226825000Y-73445000D02*
G75*
G02X226325000Y-72945000I0J500000D01*
G01*
X226325000Y-59945700D02*
X226325000Y-60445800D01*
X260175000Y-71945900D02*
G75*
G02X259675000Y-72445900I-500000J0D01*
G01*
X259375000Y-60445800D02*
X259375000Y-59945700D01*
X241125000Y-71945900D02*
G75*
G02X240625000Y-72445900I-500000J0D01*
G01*
X226024000Y-63545300D02*
G75*
G02X225524000Y-63045300I0J500000D01*
G01*
X226825000Y-73445000D02*
X239825000Y-73445000D01*
X225524000Y-69845400D02*
G75*
G02X226024000Y-69345400I500000J0D01*
G01*
X260175000Y-63045300D02*
G75*
G02X259675000Y-63545300I-500000J0D01*
G01*
X259375000Y-72945000D02*
X259375000Y-72445900D01*
X268056000Y-61415700D02*
X268056000Y-64146100D01*
X268056000Y-66946100D02*
X268056000Y-73215000D01*
X273079000Y-74415100D02*
X274306000Y-74415100D01*
X274806000Y-73915100D02*
G75*
G02X274306000Y-74415100I-500000J0D01*
G01*
X245875000Y-73445000D02*
X258875000Y-73445000D01*
X274806000Y-73915100D02*
X274806000Y-73215000D01*
X289831000Y-59445700D02*
G75*
G02X290331000Y-59945700I0J-500000D01*
G01*
X276331000Y-60445800D02*
X276029000Y-60445800D01*
X276331000Y-64146100D02*
X276331000Y-68746000D01*
X274806000Y-64146100D02*
X274806000Y-61415700D01*
X275529000Y-69845400D02*
X275529000Y-71945900D01*
X276331000Y-72445900D02*
X276331000Y-72945000D01*
X290630000Y-69345400D02*
X290331000Y-69345400D01*
X275529000Y-60945800D02*
X275529000Y-63045300D01*
X291130000Y-63045300D02*
X291130000Y-60945800D01*
X290630000Y-69345400D02*
G75*
G02X291130000Y-69845400I0J-500000D01*
G01*
X291130000Y-71945900D02*
G75*
G02X290630000Y-72445900I-500000J0D01*
G01*
X290331000Y-69345400D02*
X290331000Y-68746000D01*
X268556000Y-74415100D02*
X269780000Y-74415100D01*
X245375000Y-72445900D02*
X245375000Y-72945000D01*
X289831000Y-59445700D02*
X276831000Y-59445700D01*
X290630000Y-60445800D02*
G75*
G02X291130000Y-60945800I0J-500000D01*
G01*
X290331000Y-68746000D02*
X290331000Y-64146100D01*
X276331000Y-68746000D02*
X276331000Y-69345400D01*
X291130000Y-71945900D02*
X291130000Y-69845400D01*
X245875000Y-73445000D02*
G75*
G02X245375000Y-72945000I0J500000D01*
G01*
X274806000Y-68746000D02*
X274806000Y-64146100D01*
X276331000Y-59945700D02*
G75*
G02X276831000Y-59445700I500000J0D01*
G01*
X276831000Y-73445000D02*
G75*
G02X276331000Y-72945000I0J500000D01*
G01*
X290331000Y-64146100D02*
X290331000Y-63545300D01*
X276331000Y-69345400D02*
X276029000Y-69345400D01*
X274806000Y-73215000D02*
X274806000Y-68746000D01*
X268056000Y-73215000D02*
X268056000Y-73915100D01*
X290331000Y-60445800D02*
X290331000Y-59945700D01*
X291130000Y-63045300D02*
G75*
G02X290630000Y-63545300I-500000J0D01*
G01*
X259375000Y-72945000D02*
G75*
G02X258875000Y-73445000I-500000J0D01*
G01*
X274306000Y-60915700D02*
G75*
G02X274806000Y-61415700I0J-500000D01*
G01*
X276029000Y-72445900D02*
X276331000Y-72445900D01*
X268056000Y-64146100D02*
X268056000Y-66946100D01*
X276029000Y-63545300D02*
G75*
G02X275529000Y-63045300I0J500000D01*
G01*
X274306000Y-60915700D02*
X268556000Y-60915700D01*
X275529000Y-69845400D02*
G75*
G02X276029000Y-69345400I500000J0D01*
G01*
X290331000Y-72945000D02*
X290331000Y-72445900D01*
X292357000Y-74415100D02*
X293580000Y-74415100D01*
X268056000Y-61415700D02*
G75*
G02X268556000Y-60915700I500000J0D01*
G01*
X275529000Y-60945800D02*
G75*
G02X276029000Y-60445800I500000J0D01*
G01*
X293580000Y-74415100D02*
X296881000Y-74415100D01*
X298606000Y-73915100D02*
G75*
G02X298106000Y-74415100I-500000J0D01*
G01*
X290630000Y-60445800D02*
X290331000Y-60445800D01*
X276029000Y-72445900D02*
G75*
G02X275529000Y-71945900I0J500000D01*
G01*
X259375000Y-72445900D02*
X259675000Y-72445900D01*
X298606000Y-73915100D02*
X298606000Y-73215000D01*
X269780000Y-74415100D02*
X273079000Y-74415100D01*
X268556000Y-74415100D02*
G75*
G02X268056000Y-73915100I0J500000D01*
G01*
X276831000Y-73445000D02*
X289831000Y-73445000D01*
X290331000Y-72945000D02*
G75*
G02X289831000Y-73445000I-500000J0D01*
G01*
X290331000Y-63545300D02*
X290630000Y-63545300D01*
X276331000Y-59945700D02*
X276331000Y-60445800D01*
X296881000Y-74415100D02*
X298106000Y-74415100D01*
X290331000Y-72445900D02*
X290630000Y-72445900D01*
X276029000Y-63545300D02*
X276331000Y-63545300D01*
X276331000Y-63545300D02*
X276331000Y-64146100D01*
X92987800Y-22345800D02*
G75*
G02X93487800Y-22845800I0J-500000D01*
G01*
X92187000Y-21345700D02*
X79187700Y-21345700D01*
X130287000Y-21345700D02*
G75*
G02X130787000Y-21845700I0J-500000D01*
G01*
X130287000Y-21345700D02*
X117286300Y-21345700D01*
X78687700Y-21845700D02*
X78687700Y-22345800D01*
X77888300Y-22845800D02*
X77888300Y-24945300D01*
X92687000Y-25445300D02*
X92987800Y-25445300D01*
X188738000Y-33845900D02*
G75*
G02X188238000Y-34345900I-500000J0D01*
G01*
X188238000Y-31245400D02*
G75*
G02X188738000Y-31745400I0J-500000D01*
G01*
X187937000Y-25445300D02*
X188238000Y-25445300D01*
X78388300Y-34345900D02*
G75*
G02X77888300Y-33845900I0J500000D01*
G01*
X174438000Y-35345000D02*
X187437000Y-35345000D01*
X188238000Y-22345800D02*
G75*
G02X188738000Y-22845800I0J-500000D01*
G01*
X77888300Y-31745400D02*
G75*
G02X78388300Y-31245400I500000J0D01*
G01*
X92187000Y-21345700D02*
G75*
G02X92687000Y-21845700I0J-500000D01*
G01*
X188238000Y-22345800D02*
X187937000Y-22345800D01*
X173938000Y-31245400D02*
X173638000Y-31245400D01*
X92987800Y-31245400D02*
G75*
G02X93487800Y-31745400I0J-500000D01*
G01*
X188238000Y-31245400D02*
X187937000Y-31245400D01*
X187437000Y-21345700D02*
G75*
G02X187937000Y-21845700I0J-500000D01*
G01*
X187437000Y-21345700D02*
X174438000Y-21345700D01*
X92687000Y-34845000D02*
G75*
G02X92187000Y-35345000I-500000J0D01*
G01*
X188738000Y-33845900D02*
X188738000Y-31745400D01*
X92987800Y-22345800D02*
X92687000Y-22345800D01*
X78687700Y-25445300D02*
X78687700Y-31245400D01*
X173638000Y-25445300D02*
X173938000Y-25445300D01*
X173638000Y-34345900D02*
G75*
G02X173138000Y-33845900I0J500000D01*
G01*
X93487800Y-33845900D02*
X93487800Y-31745400D01*
X92987800Y-31245400D02*
X92687000Y-31245400D01*
X187937000Y-31245400D02*
X187937000Y-25445300D01*
X188738000Y-24945300D02*
X188738000Y-22845800D01*
X187937000Y-22345800D02*
X187937000Y-21845700D01*
X173938000Y-21845700D02*
G75*
G02X174438000Y-21345700I500000J0D01*
G01*
X78388300Y-25445300D02*
G75*
G02X77888300Y-24945300I0J500000D01*
G01*
X173938000Y-21845700D02*
X173938000Y-22345800D01*
X92687000Y-34345900D02*
X92987800Y-34345900D01*
X93487800Y-33845900D02*
G75*
G02X92987800Y-34345900I-500000J0D01*
G01*
X92687000Y-31245400D02*
X92687000Y-25445300D01*
X188738000Y-24945300D02*
G75*
G02X188238000Y-25445300I-500000J0D01*
G01*
X78388300Y-25445300D02*
X78687700Y-25445300D01*
X78687700Y-21845700D02*
G75*
G02X79187700Y-21345700I500000J0D01*
G01*
X79187700Y-35345000D02*
X92187000Y-35345000D01*
X78687700Y-31245400D02*
X78388300Y-31245400D01*
X173638000Y-25445300D02*
G75*
G02X173138000Y-24945300I0J500000D01*
G01*
X78687700Y-22345800D02*
X78388300Y-22345800D01*
X93487800Y-24945300D02*
X93487800Y-22845800D01*
X173138000Y-31745400D02*
G75*
G02X173638000Y-31245400I500000J0D01*
G01*
X77888300Y-31745400D02*
X77888300Y-33845900D01*
X173138000Y-31745400D02*
X173138000Y-33845900D01*
X79187700Y-35345000D02*
G75*
G02X78687700Y-34845000I0J500000D01*
G01*
X93487800Y-24945300D02*
G75*
G02X92987800Y-25445300I-500000J0D01*
G01*
X173938000Y-25445300D02*
X173938000Y-31245400D01*
X78388300Y-34345900D02*
X78687700Y-34345900D01*
X92687000Y-34845000D02*
X92687000Y-34345900D01*
X173638000Y-34345900D02*
X173938000Y-34345900D01*
X174438000Y-35345000D02*
G75*
G02X173938000Y-34845000I0J500000D01*
G01*
X77888300Y-22845800D02*
G75*
G02X78388300Y-22345800I500000J0D01*
G01*
X173938000Y-34345900D02*
X173938000Y-34845000D01*
X187937000Y-34845000D02*
G75*
G02X187437000Y-35345000I-500000J0D01*
G01*
X173138000Y-22845800D02*
X173138000Y-24945300D01*
X187937000Y-34845000D02*
X187937000Y-34345900D01*
X187937000Y-34345900D02*
X188238000Y-34345900D01*
X92687000Y-22345800D02*
X92687000Y-21845700D01*
X78687700Y-34345900D02*
X78687700Y-34845000D01*
X154888000Y-31245400D02*
X154588000Y-31245400D01*
X154588000Y-34345900D02*
X154888000Y-34345900D01*
X97737700Y-25445300D02*
X97737700Y-31245400D01*
X97737700Y-31245400D02*
X97438300Y-31245400D01*
X96938300Y-31745400D02*
G75*
G02X97438300Y-31245400I500000J0D01*
G01*
X155388000Y-35345000D02*
G75*
G02X154888000Y-34845000I0J500000D01*
G01*
X154588000Y-25445300D02*
G75*
G02X154088000Y-24945300I0J500000D01*
G01*
X112536400Y-24945300D02*
G75*
G02X112036400Y-25445300I-500000J0D01*
G01*
X155388000Y-35345000D02*
X168387000Y-35345000D01*
X168887000Y-34845000D02*
G75*
G02X168387000Y-35345000I-500000J0D01*
G01*
X168887000Y-34845000D02*
X168887000Y-34345900D01*
X169688000Y-33845900D02*
G75*
G02X169188000Y-34345900I-500000J0D01*
G01*
X169188000Y-31245400D02*
G75*
G02X169688000Y-31745400I0J-500000D01*
G01*
X96938300Y-22845800D02*
G75*
G02X97438300Y-22345800I500000J0D01*
G01*
X154588000Y-34345900D02*
G75*
G02X154088000Y-33845900I0J500000D01*
G01*
X169188000Y-31245400D02*
X168887000Y-31245400D01*
X168887000Y-31245400D02*
X168887000Y-25445300D01*
X154888000Y-22345800D02*
X154588000Y-22345800D01*
X168887000Y-25445300D02*
X169188000Y-25445300D01*
X169688000Y-24945300D02*
G75*
G02X169188000Y-25445300I-500000J0D01*
G01*
X112036400Y-22345800D02*
X111737000Y-22345800D01*
X96938300Y-22845800D02*
X96938300Y-24945300D01*
X111737000Y-25445300D02*
X112036400Y-25445300D01*
X168887000Y-22345800D02*
X168887000Y-21845700D01*
X154088000Y-31745400D02*
G75*
G02X154588000Y-31245400I500000J0D01*
G01*
X111737000Y-34845000D02*
X111737000Y-34345900D01*
X169688000Y-33845900D02*
X169688000Y-31745400D01*
X97737700Y-34345900D02*
X97737700Y-34845000D01*
X111737000Y-22345800D02*
X111737000Y-21845700D01*
X154888000Y-21845700D02*
X154888000Y-22345800D01*
X154088000Y-22845800D02*
G75*
G02X154588000Y-22345800I500000J0D01*
G01*
X97438300Y-34345900D02*
X97737700Y-34345900D01*
X97737700Y-22345800D02*
X97438300Y-22345800D01*
X168887000Y-34345900D02*
X169188000Y-34345900D01*
X169688000Y-24945300D02*
X169688000Y-22845800D01*
X173938000Y-22345800D02*
X173638000Y-22345800D01*
X168387000Y-21345700D02*
X155388000Y-21345700D01*
X154888000Y-21845700D02*
G75*
G02X155388000Y-21345700I500000J0D01*
G01*
X97438300Y-25445300D02*
X97737700Y-25445300D01*
X111737000Y-34345900D02*
X112036400Y-34345900D01*
X112536400Y-33845900D02*
X112536400Y-31745400D01*
X154088000Y-22845800D02*
X154088000Y-24945300D01*
X154888000Y-34345900D02*
X154888000Y-34845000D01*
X111237000Y-21345700D02*
G75*
G02X111737000Y-21845700I0J-500000D01*
G01*
X112036400Y-31245400D02*
G75*
G02X112536400Y-31745400I0J-500000D01*
G01*
X98237700Y-35345000D02*
X111237000Y-35345000D01*
X111737000Y-31245400D02*
X111737000Y-25445300D01*
X111737000Y-34845000D02*
G75*
G02X111237000Y-35345000I-500000J0D01*
G01*
X112536400Y-24945300D02*
X112536400Y-22845800D01*
X154888000Y-25445300D02*
X154888000Y-31245400D01*
X173138000Y-22845800D02*
G75*
G02X173638000Y-22345800I500000J0D01*
G01*
X111237000Y-21345700D02*
X98237700Y-21345700D01*
X97438300Y-25445300D02*
G75*
G02X96938300Y-24945300I0J500000D01*
G01*
X97438300Y-34345900D02*
G75*
G02X96938300Y-33845900I0J500000D01*
G01*
X97737700Y-21845700D02*
X97737700Y-22345800D01*
X112536400Y-33845900D02*
G75*
G02X112036400Y-34345900I-500000J0D01*
G01*
X98237700Y-35345000D02*
G75*
G02X97737700Y-34845000I0J500000D01*
G01*
X112036400Y-22345800D02*
G75*
G02X112536400Y-22845800I0J-500000D01*
G01*
X168387000Y-21345700D02*
G75*
G02X168887000Y-21845700I0J-500000D01*
G01*
X97737700Y-21845700D02*
G75*
G02X98237700Y-21345700I500000J0D01*
G01*
X96938300Y-31745400D02*
X96938300Y-33845900D01*
X154588000Y-25445300D02*
X154888000Y-25445300D01*
X154088000Y-31745400D02*
X154088000Y-33845900D01*
X112036400Y-31245400D02*
X111737000Y-31245400D01*
X169188000Y-22345800D02*
G75*
G02X169688000Y-22845800I0J-500000D01*
G01*
X149837000Y-25445300D02*
X150138000Y-25445300D01*
X135537000Y-25445300D02*
X135836000Y-25445300D01*
X135037000Y-31745400D02*
X135037000Y-33845900D01*
X192988000Y-31245400D02*
X192688000Y-31245400D01*
X192188000Y-31745400D02*
X192188000Y-33845900D01*
X135037000Y-22845800D02*
G75*
G02X135537000Y-22345800I500000J0D01*
G01*
X206987000Y-34345900D02*
X207288000Y-34345900D01*
X207788000Y-33845900D02*
X207788000Y-31745400D01*
X192988000Y-21845700D02*
G75*
G02X193488000Y-21345700I500000J0D01*
G01*
X150138000Y-31245400D02*
X149837000Y-31245400D01*
X207288000Y-31245400D02*
G75*
G02X207788000Y-31745400I0J-500000D01*
G01*
X136336000Y-35345000D02*
X149337000Y-35345000D01*
X207288000Y-22345800D02*
X206987000Y-22345800D01*
X192688000Y-25445300D02*
G75*
G02X192188000Y-24945300I0J500000D01*
G01*
X192988000Y-21845700D02*
X192988000Y-22345800D01*
X206987000Y-34845000D02*
G75*
G02X206487000Y-35345000I-500000J0D01*
G01*
X135836000Y-34345900D02*
X135836000Y-34845000D01*
X149837000Y-34845000D02*
G75*
G02X149337000Y-35345000I-500000J0D01*
G01*
X135836000Y-21845700D02*
G75*
G02X136336000Y-21345700I500000J0D01*
G01*
X135537000Y-34345900D02*
G75*
G02X135037000Y-33845900I0J500000D01*
G01*
X150138000Y-22345800D02*
G75*
G02X150638000Y-22845800I0J-500000D01*
G01*
X149837000Y-34345900D02*
X150138000Y-34345900D01*
X135836000Y-25445300D02*
X135836000Y-31245400D01*
X206487000Y-21345700D02*
X193488000Y-21345700D01*
X192688000Y-25445300D02*
X192988000Y-25445300D01*
X192188000Y-22845800D02*
G75*
G02X192688000Y-22345800I500000J0D01*
G01*
X149337000Y-21345700D02*
X136336000Y-21345700D01*
X135836000Y-21845700D02*
X135836000Y-22345800D01*
X206987000Y-25445300D02*
X207288000Y-25445300D01*
X192688000Y-34345900D02*
G75*
G02X192188000Y-33845900I0J500000D01*
G01*
X193488000Y-35345000D02*
G75*
G02X192988000Y-34845000I0J500000D01*
G01*
X207788000Y-33845900D02*
G75*
G02X207288000Y-34345900I-500000J0D01*
G01*
X150638000Y-33845900D02*
X150638000Y-31745400D01*
X150138000Y-31245400D02*
G75*
G02X150638000Y-31745400I0J-500000D01*
G01*
X149837000Y-22345800D02*
X149837000Y-21845700D01*
X135037000Y-31745400D02*
G75*
G02X135537000Y-31245400I500000J0D01*
G01*
X149337000Y-21345700D02*
G75*
G02X149837000Y-21845700I0J-500000D01*
G01*
X135836000Y-22345800D02*
X135537000Y-22345800D01*
X207788000Y-24945300D02*
X207788000Y-22845800D01*
X192188000Y-31745400D02*
G75*
G02X192688000Y-31245400I500000J0D01*
G01*
X150638000Y-24945300D02*
X150638000Y-22845800D01*
X150638000Y-33845900D02*
G75*
G02X150138000Y-34345900I-500000J0D01*
G01*
X192988000Y-22345800D02*
X192688000Y-22345800D01*
X192988000Y-34345900D02*
X192988000Y-34845000D01*
X135537000Y-25445300D02*
G75*
G02X135037000Y-24945300I0J500000D01*
G01*
X207788000Y-24945300D02*
G75*
G02X207288000Y-25445300I-500000J0D01*
G01*
X136336000Y-35345000D02*
G75*
G02X135836000Y-34845000I0J500000D01*
G01*
X206987000Y-34845000D02*
X206987000Y-34345900D01*
X150638000Y-24945300D02*
G75*
G02X150138000Y-25445300I-500000J0D01*
G01*
X149837000Y-34845000D02*
X149837000Y-34345900D01*
X135037000Y-22845800D02*
X135037000Y-24945300D01*
X149837000Y-31245400D02*
X149837000Y-25445300D01*
X150138000Y-22345800D02*
X149837000Y-22345800D01*
X192988000Y-25445300D02*
X192988000Y-31245400D01*
X192688000Y-34345900D02*
X192988000Y-34345900D01*
X169188000Y-22345800D02*
X168887000Y-22345800D01*
X193488000Y-35345000D02*
X206487000Y-35345000D01*
X207288000Y-22345800D02*
G75*
G02X207788000Y-22845800I0J-500000D01*
G01*
X206987000Y-22345800D02*
X206987000Y-21845700D01*
X206487000Y-21345700D02*
G75*
G02X206987000Y-21845700I0J-500000D01*
G01*
X192188000Y-22845800D02*
X192188000Y-24945300D01*
X135836000Y-31245400D02*
X135537000Y-31245400D01*
X135537000Y-34345900D02*
X135836000Y-34345900D01*
X73637000Y-31245400D02*
X73637000Y-25445300D01*
X130787000Y-34345900D02*
X131086000Y-34345900D01*
X131586000Y-33845900D02*
G75*
G02X131086000Y-34345900I-500000J0D01*
G01*
X131586000Y-33845900D02*
X131586000Y-31745400D01*
X131086000Y-31245400D02*
G75*
G02X131586000Y-31745400I0J-500000D01*
G01*
X131086000Y-31245400D02*
X130787000Y-31245400D01*
X130787000Y-31245400D02*
X130787000Y-25445300D01*
X130787000Y-25445300D02*
X131086000Y-25445300D01*
X131586000Y-24945300D02*
G75*
G02X131086000Y-25445300I-500000J0D01*
G01*
X131586000Y-24945300D02*
X131586000Y-22845800D01*
X131086000Y-22345800D02*
G75*
G02X131586000Y-22845800I0J-500000D01*
G01*
X73637000Y-34845000D02*
X73637000Y-34345900D01*
X73137000Y-21345700D02*
G75*
G02X73637000Y-21845700I0J-500000D01*
G01*
X131086000Y-22345800D02*
X130787000Y-22345800D01*
X116786300Y-21845700D02*
G75*
G02X117286300Y-21345700I500000J0D01*
G01*
X130787000Y-22345800D02*
X130787000Y-21845700D01*
X58838300Y-31745400D02*
X58838300Y-33845900D01*
X59637700Y-22345800D02*
X59338300Y-22345800D01*
X73637000Y-25445300D02*
X73937800Y-25445300D01*
X115988300Y-22845800D02*
X115988300Y-24945300D01*
X58838300Y-22845800D02*
X58838300Y-24945300D01*
X73937800Y-31245400D02*
X73637000Y-31245400D01*
X116488300Y-25445300D02*
G75*
G02X115988300Y-24945300I0J500000D01*
G01*
X74437800Y-24945300D02*
G75*
G02X73937800Y-25445300I-500000J0D01*
G01*
X59637700Y-31245400D02*
X59338300Y-31245400D01*
X115988300Y-31745400D02*
X115988300Y-33845900D01*
X59637700Y-34345900D02*
X59637700Y-34845000D01*
X73937800Y-22345800D02*
X73637000Y-22345800D01*
X116488300Y-34345900D02*
G75*
G02X115988300Y-33845900I0J500000D01*
G01*
X59338300Y-25445300D02*
G75*
G02X58838300Y-24945300I0J500000D01*
G01*
X116786300Y-25445300D02*
X116786300Y-31245400D01*
X73137000Y-21345700D02*
X60137700Y-21345700D01*
X58838300Y-22845800D02*
G75*
G02X59338300Y-22345800I500000J0D01*
G01*
X116786300Y-34345900D02*
X116786300Y-34845000D01*
X116786300Y-22345800D02*
X116488300Y-22345800D01*
X73637000Y-22345800D02*
X73637000Y-21845700D01*
X117286300Y-35345000D02*
G75*
G02X116786300Y-34845000I0J500000D01*
G01*
X73937800Y-22345800D02*
G75*
G02X74437800Y-22845800I0J-500000D01*
G01*
X59637700Y-25445300D02*
X59637700Y-31245400D01*
X115988300Y-22845800D02*
G75*
G02X116488300Y-22345800I500000J0D01*
G01*
X59338300Y-34345900D02*
G75*
G02X58838300Y-33845900I0J500000D01*
G01*
X59338300Y-34345900D02*
X59637700Y-34345900D01*
X60137700Y-35345000D02*
G75*
G02X59637700Y-34845000I0J500000D01*
G01*
X73637000Y-34845000D02*
G75*
G02X73137000Y-35345000I-500000J0D01*
G01*
X116488300Y-25445300D02*
X116786300Y-25445300D01*
X116786300Y-31245400D02*
X116488300Y-31245400D01*
X115988300Y-31745400D02*
G75*
G02X116488300Y-31245400I500000J0D01*
G01*
X59637700Y-21845700D02*
X59637700Y-22345800D01*
X74437800Y-33845900D02*
X74437800Y-31745400D01*
X58838300Y-31745400D02*
G75*
G02X59338300Y-31245400I500000J0D01*
G01*
X73637000Y-34345900D02*
X73937800Y-34345900D01*
X116488300Y-34345900D02*
X116786300Y-34345900D01*
X117286300Y-35345000D02*
X130287000Y-35345000D01*
X74437800Y-24945300D02*
X74437800Y-22845800D01*
X74437800Y-33845900D02*
G75*
G02X73937800Y-34345900I-500000J0D01*
G01*
X60137700Y-35345000D02*
X73137000Y-35345000D01*
X73937800Y-31245400D02*
G75*
G02X74437800Y-31745400I0J-500000D01*
G01*
X59637700Y-21845700D02*
G75*
G02X60137700Y-21345700I500000J0D01*
G01*
X59338300Y-25445300D02*
X59637700Y-25445300D01*
X116786300Y-21845700D02*
X116786300Y-22345800D01*
X130787000Y-34845000D02*
G75*
G02X130287000Y-35345000I-500000J0D01*
G01*
X130787000Y-34845000D02*
X130787000Y-34345900D01*
X273662000Y-53895000D02*
G75*
G02X273162000Y-54395000I-500000J0D01*
G01*
X269188000Y-31245400D02*
X268888000Y-31245400D01*
X268388000Y-31745400D02*
X268388000Y-33845900D01*
X272661000Y-36315100D02*
G75*
G02X272161000Y-35815100I0J500000D01*
G01*
X296463000Y-36315100D02*
X298763000Y-36315100D01*
X299263000Y-35815100D02*
G75*
G02X298763000Y-36315100I-500000J0D01*
G01*
X269188000Y-21845700D02*
G75*
G02X269688000Y-21345700I500000J0D01*
G01*
X299263000Y-35815100D02*
X299263000Y-35345000D01*
X191844000Y-97775700D02*
X191844000Y-102244600D01*
X35037200Y-21345700D02*
G75*
G02X35537200Y-21845700I0J-500000D01*
G01*
X21537650Y-21845700D02*
G75*
G02X22037650Y-21345700I500000J0D01*
G01*
X303038000Y-33845900D02*
G75*
G02X302538000Y-34345900I-500000J0D01*
G01*
X302237000Y-34845000D02*
G75*
G02X301737000Y-35345000I-500000J0D01*
G01*
X302237000Y-34845000D02*
X302237000Y-34345900D01*
X268888000Y-25445300D02*
G75*
G02X268388000Y-24945300I0J500000D01*
G01*
X269188000Y-25445300D02*
X269188000Y-31245400D01*
X21537650Y-22345800D02*
X21238390Y-22345800D01*
X295963000Y-35345000D02*
X295963000Y-35815100D01*
X302237000Y-22345800D02*
X302237000Y-21845700D01*
X198337000Y-96574000D02*
X198337000Y-96575400D01*
X20738390Y-22845800D02*
G75*
G02X21238390Y-22345800I500000J0D01*
G01*
X35837800Y-22345800D02*
X35537200Y-22345800D01*
X249838000Y-34345900D02*
X250138000Y-34345900D01*
X302237000Y-25445300D02*
X302538000Y-25445300D01*
X268388000Y-22845800D02*
G75*
G02X268888000Y-22345800I500000J0D01*
G01*
X20738390Y-22845800D02*
X20738390Y-24945300D01*
X21238390Y-25445300D02*
G75*
G02X20738390Y-24945300I0J500000D01*
G01*
X299263000Y-35345000D02*
X301737000Y-35345000D01*
X302538000Y-22345800D02*
X302237000Y-22345800D01*
X21238390Y-25445300D02*
X21537650Y-25445300D01*
X21537650Y-25445300D02*
X21537650Y-31245400D01*
X275463000Y-35815100D02*
X275463000Y-35345000D01*
X21537650Y-21845700D02*
X21537650Y-22345800D01*
X268888000Y-34345900D02*
X269188000Y-34345900D01*
X269188000Y-21845700D02*
X269188000Y-22345800D01*
X21537650Y-31245400D02*
X21238390Y-31245400D01*
X303038000Y-24945300D02*
X303038000Y-22845800D01*
X302538000Y-22345800D02*
G75*
G02X303038000Y-22845800I0J-500000D01*
G01*
X269688000Y-35345000D02*
G75*
G02X269188000Y-34845000I0J500000D01*
G01*
X272661000Y-36315100D02*
X274963000Y-36315100D01*
X269188000Y-22345800D02*
X268888000Y-22345800D01*
X268388000Y-22845800D02*
X268388000Y-24945300D01*
X249838000Y-34345900D02*
G75*
G02X249338000Y-33845900I0J500000D01*
G01*
X302237000Y-31245400D02*
X302237000Y-25445300D01*
X269688000Y-35345000D02*
X272161000Y-35345000D01*
X301737000Y-21345700D02*
G75*
G02X302237000Y-21845700I0J-500000D01*
G01*
X272161000Y-35345000D02*
X272161000Y-35815100D01*
X35037200Y-21345700D02*
X22037650Y-21345700D01*
X268888000Y-25445300D02*
X269188000Y-25445300D01*
X20738390Y-31745400D02*
G75*
G02X21238390Y-31245400I500000J0D01*
G01*
X249338000Y-31745400D02*
X249338000Y-33845900D01*
X302538000Y-31245400D02*
X302237000Y-31245400D01*
X296463000Y-36315100D02*
G75*
G02X295963000Y-35815100I0J500000D01*
G01*
X303038000Y-33845900D02*
X303038000Y-31745400D01*
X303038000Y-24945300D02*
G75*
G02X302538000Y-25445300I-500000J0D01*
G01*
X269188000Y-34345900D02*
X269188000Y-34845000D01*
X275463000Y-35345000D02*
X295963000Y-35345000D01*
X301737000Y-21345700D02*
X269688000Y-21345700D01*
X268388000Y-31745400D02*
G75*
G02X268888000Y-31245400I500000J0D01*
G01*
X268888000Y-34345900D02*
G75*
G02X268388000Y-33845900I0J500000D01*
G01*
X302237000Y-34345900D02*
X302538000Y-34345900D01*
X198337000Y-96575400D02*
X198330000Y-96575400D01*
X35537200Y-22345800D02*
X35537200Y-21845700D01*
X275463000Y-35815100D02*
G75*
G02X274963000Y-36315100I-500000J0D01*
G01*
X302538000Y-31245400D02*
G75*
G02X303038000Y-31745400I0J-500000D01*
G01*
X36337800Y-24945300D02*
G75*
G02X35837800Y-25445300I-500000J0D01*
G01*
X36337800Y-33845900D02*
G75*
G02X35837800Y-34345900I-500000J0D01*
G01*
X55387800Y-24945300D02*
G75*
G02X54887800Y-25445300I-500000J0D01*
G01*
X55387800Y-24945300D02*
X55387800Y-22845800D01*
X35537200Y-34845000D02*
X35537200Y-34345900D01*
X54587000Y-22345800D02*
X54587000Y-21845700D01*
X33143300Y-91496000D02*
G75*
G02X32643300Y-90996000I0J500000D01*
G01*
X54587000Y-34345900D02*
X54887800Y-34345900D01*
X33443900Y-91496000D02*
X33443900Y-91995000D01*
X33943900Y-92495000D02*
G75*
G02X33443900Y-91995000I0J500000D01*
G01*
X47443400Y-91995000D02*
X47443400Y-91496000D01*
X47443400Y-91496000D02*
X47744000Y-91496000D01*
X48244000Y-90996000D02*
G75*
G02X47744000Y-91496000I-500000J0D01*
G01*
X35537200Y-34345900D02*
X35837800Y-34345900D01*
X54887800Y-22345800D02*
G75*
G02X55387800Y-22845800I0J-500000D01*
G01*
X40587700Y-22345800D02*
X40288400Y-22345800D01*
X21238390Y-34345900D02*
X21537650Y-34345900D01*
X36337800Y-24945300D02*
X36337800Y-22845800D01*
X32643300Y-88895400D02*
G75*
G02X33143300Y-88395400I500000J0D01*
G01*
X54887800Y-31245400D02*
X54587000Y-31245400D01*
X54587000Y-34845000D02*
X54587000Y-34345900D01*
X35537200Y-25445300D02*
X35837800Y-25445300D01*
X35837800Y-22345800D02*
G75*
G02X36337800Y-22845800I0J-500000D01*
G01*
X32643300Y-88895400D02*
X32643300Y-90996000D01*
X20738390Y-31745400D02*
X20738390Y-33845900D01*
X39788400Y-31745400D02*
X39788400Y-33845900D01*
X22037650Y-35345000D02*
X35037200Y-35345000D01*
X40288400Y-25445300D02*
X40587700Y-25445300D01*
X54887800Y-31245400D02*
G75*
G02X55387800Y-31745400I0J-500000D01*
G01*
X54587000Y-31245400D02*
X54587000Y-25445300D01*
X40587700Y-21845700D02*
G75*
G02X41087700Y-21345700I500000J0D01*
G01*
X40288400Y-25445300D02*
G75*
G02X39788400Y-24945300I0J500000D01*
G01*
X54587000Y-25445300D02*
X54887800Y-25445300D01*
X33143300Y-91496000D02*
X33443900Y-91496000D01*
X33443900Y-87795900D02*
X33443900Y-88395400D01*
X33943900Y-92495000D02*
X46943400Y-92495000D01*
X47443400Y-91995000D02*
G75*
G02X46943400Y-92495000I-500000J0D01*
G01*
X55387800Y-33845900D02*
X55387800Y-31745400D01*
X40288400Y-34345900D02*
G75*
G02X39788400Y-33845900I0J500000D01*
G01*
X54887800Y-22345800D02*
X54587000Y-22345800D01*
X40587700Y-34345900D02*
X40587700Y-34845000D01*
X21537650Y-34345900D02*
X21537650Y-34845000D01*
X22037650Y-35345000D02*
G75*
G02X21537650Y-34845000I0J500000D01*
G01*
X54087000Y-21345700D02*
G75*
G02X54587000Y-21845700I0J-500000D01*
G01*
X41087700Y-35345000D02*
G75*
G02X40587700Y-34845000I0J500000D01*
G01*
X40587700Y-31245400D02*
X40288400Y-31245400D01*
X54587000Y-34845000D02*
G75*
G02X54087000Y-35345000I-500000J0D01*
G01*
X39788400Y-31745400D02*
G75*
G02X40288400Y-31245400I500000J0D01*
G01*
X35537200Y-34845000D02*
G75*
G02X35037200Y-35345000I-500000J0D01*
G01*
X35837800Y-31245400D02*
X35537200Y-31245400D01*
X21238390Y-34345900D02*
G75*
G02X20738390Y-33845900I0J500000D01*
G01*
X36337800Y-33845900D02*
X36337800Y-31745400D01*
X39788400Y-22845800D02*
X39788400Y-24945300D01*
X40288400Y-34345900D02*
X40587700Y-34345900D01*
X55387800Y-33845900D02*
G75*
G02X54887800Y-34345900I-500000J0D01*
G01*
X35837800Y-31245400D02*
G75*
G02X36337800Y-31745400I0J-500000D01*
G01*
X35537200Y-31245400D02*
X35537200Y-25445300D01*
X40587700Y-25445300D02*
X40587700Y-31245400D01*
X54087000Y-21345700D02*
X41087700Y-21345700D01*
X40587700Y-21845700D02*
X40587700Y-22345800D01*
X39788400Y-22845800D02*
G75*
G02X40288400Y-22345800I500000J0D01*
G01*
X33443900Y-83196000D02*
X33443900Y-87795900D01*
X33443900Y-88395400D02*
X33143300Y-88395400D01*
X41087700Y-35345000D02*
X54087000Y-35345000D01*
X212038000Y-21845700D02*
G75*
G02X212538000Y-21345700I500000J0D01*
G01*
X207288000Y-31245400D02*
X206987000Y-31245400D01*
X212038000Y-31245400D02*
X211738000Y-31245400D01*
X212038000Y-34345900D02*
X212038000Y-34845000D01*
X226037000Y-34845000D02*
X226037000Y-34345900D01*
X226838000Y-33845900D02*
X226838000Y-31745400D01*
X226338000Y-31245400D02*
G75*
G02X226838000Y-31745400I0J-500000D01*
G01*
X231088000Y-21845700D02*
X231088000Y-22345800D01*
X230288000Y-22845800D02*
G75*
G02X230788000Y-22345800I500000J0D01*
G01*
X230288000Y-31745400D02*
G75*
G02X230788000Y-31245400I500000J0D01*
G01*
X230788000Y-34345900D02*
X231088000Y-34345900D01*
X212038000Y-25445300D02*
X212038000Y-31245400D01*
X211738000Y-25445300D02*
X212038000Y-25445300D01*
X245388000Y-31245400D02*
G75*
G02X245888000Y-31745400I0J-500000D01*
G01*
X231088000Y-22345800D02*
X230788000Y-22345800D01*
X245087000Y-34845000D02*
G75*
G02X244587000Y-35345000I-500000J0D01*
G01*
X226338000Y-31245400D02*
X226037000Y-31245400D01*
X226037000Y-31245400D02*
X226037000Y-25445300D01*
X212538000Y-35345000D02*
X225537000Y-35345000D01*
X245388000Y-22345800D02*
X245087000Y-22345800D01*
X226037000Y-34845000D02*
G75*
G02X225537000Y-35345000I-500000J0D01*
G01*
X225537000Y-21345700D02*
X212538000Y-21345700D01*
X211238000Y-31745400D02*
X211238000Y-33845900D01*
X211738000Y-34345900D02*
X212038000Y-34345900D01*
X226838000Y-24945300D02*
G75*
G02X226338000Y-25445300I-500000J0D01*
G01*
X211738000Y-34345900D02*
G75*
G02X211238000Y-33845900I0J500000D01*
G01*
X226338000Y-22345800D02*
G75*
G02X226838000Y-22845800I0J-500000D01*
G01*
X212538000Y-35345000D02*
G75*
G02X212038000Y-34845000I0J500000D01*
G01*
X245388000Y-31245400D02*
X245087000Y-31245400D01*
X245087000Y-31245400D02*
X245087000Y-25445300D01*
X245888000Y-24945300D02*
X245888000Y-22845800D01*
X244587000Y-21345700D02*
X231588000Y-21345700D01*
X231088000Y-31245400D02*
X230788000Y-31245400D01*
X211738000Y-25445300D02*
G75*
G02X211238000Y-24945300I0J500000D01*
G01*
X226838000Y-24945300D02*
X226838000Y-22845800D01*
X230288000Y-31745400D02*
X230288000Y-33845900D01*
X226338000Y-22345800D02*
X226037000Y-22345800D01*
X230788000Y-34345900D02*
G75*
G02X230288000Y-33845900I0J500000D01*
G01*
X231088000Y-34345900D02*
X231088000Y-34845000D01*
X245888000Y-24945300D02*
G75*
G02X245388000Y-25445300I-500000J0D01*
G01*
X211238000Y-22845800D02*
G75*
G02X211738000Y-22345800I500000J0D01*
G01*
X226037000Y-25445300D02*
X226338000Y-25445300D01*
X245087000Y-22345800D02*
X245087000Y-21845700D01*
X244587000Y-21345700D02*
G75*
G02X245087000Y-21845700I0J-500000D01*
G01*
X231588000Y-35345000D02*
G75*
G02X231088000Y-34845000I0J500000D01*
G01*
X231588000Y-35345000D02*
X244587000Y-35345000D01*
X245087000Y-34845000D02*
X245087000Y-34345900D01*
X245087000Y-34345900D02*
X245388000Y-34345900D01*
X231088000Y-21845700D02*
G75*
G02X231588000Y-21345700I500000J0D01*
G01*
X211238000Y-22845800D02*
X211238000Y-24945300D01*
X206987000Y-31245400D02*
X206987000Y-25445300D01*
X212038000Y-21845700D02*
X212038000Y-22345800D01*
X245388000Y-22345800D02*
G75*
G02X245888000Y-22845800I0J-500000D01*
G01*
X226037000Y-22345800D02*
X226037000Y-21845700D01*
X230288000Y-22845800D02*
X230288000Y-24945300D01*
X230788000Y-25445300D02*
G75*
G02X230288000Y-24945300I0J500000D01*
G01*
X230788000Y-25445300D02*
X231088000Y-25445300D01*
X225537000Y-21345700D02*
G75*
G02X226037000Y-21845700I0J-500000D01*
G01*
X212038000Y-22345800D02*
X211738000Y-22345800D01*
X211238000Y-31745400D02*
G75*
G02X211738000Y-31245400I500000J0D01*
G01*
X245087000Y-25445300D02*
X245388000Y-25445300D01*
X231088000Y-25445300D02*
X231088000Y-31245400D01*
X226037000Y-34345900D02*
X226338000Y-34345900D01*
X226838000Y-33845900D02*
G75*
G02X226338000Y-34345900I-500000J0D01*
G01*
X307788000Y-35345000D02*
X320787000Y-35345000D01*
X307788000Y-35345000D02*
G75*
G02X307288000Y-34845000I0J500000D01*
G01*
X307288000Y-21845700D02*
X307288000Y-22345800D01*
X264938000Y-33845900D02*
G75*
G02X264438000Y-34345900I-500000J0D01*
G01*
X264938000Y-24945300D02*
G75*
G02X264438000Y-25445300I-500000J0D01*
G01*
X250638000Y-35345000D02*
X263637000Y-35345000D01*
X321287000Y-34345900D02*
X321588000Y-34345900D01*
X307288000Y-25445300D02*
X307288000Y-31245400D01*
X250138000Y-34345900D02*
X250138000Y-34845000D01*
X264137000Y-22345800D02*
X264137000Y-21845700D01*
X321287000Y-22345800D02*
X321287000Y-21845700D01*
X250138000Y-22345800D02*
X249838000Y-22345800D01*
X264438000Y-22345800D02*
G75*
G02X264938000Y-22845800I0J-500000D01*
G01*
X249338000Y-22845800D02*
X249338000Y-24945300D01*
X322088000Y-24945300D02*
G75*
G02X321588000Y-25445300I-500000J0D01*
G01*
X245888000Y-33845900D02*
X245888000Y-31745400D01*
X321287000Y-34845000D02*
G75*
G02X320787000Y-35345000I-500000J0D01*
G01*
X320787000Y-21345700D02*
G75*
G02X321287000Y-21845700I0J-500000D01*
G01*
X306988000Y-34345900D02*
G75*
G02X306488000Y-33845900I0J500000D01*
G01*
X307288000Y-22345800D02*
X306988000Y-22345800D01*
X306988000Y-25445300D02*
X307288000Y-25445300D01*
X321588000Y-22345800D02*
X321287000Y-22345800D01*
X264137000Y-25445300D02*
X264438000Y-25445300D01*
X250138000Y-21845700D02*
G75*
G02X250638000Y-21345700I500000J0D01*
G01*
X306988000Y-34345900D02*
X307288000Y-34345900D01*
X306488000Y-31745400D02*
X306488000Y-33845900D01*
X249838000Y-25445300D02*
G75*
G02X249338000Y-24945300I0J500000D01*
G01*
X307288000Y-21845700D02*
G75*
G02X307788000Y-21345700I500000J0D01*
G01*
X263637000Y-21345700D02*
G75*
G02X264137000Y-21845700I0J-500000D01*
G01*
X321588000Y-31245400D02*
G75*
G02X322088000Y-31745400I0J-500000D01*
G01*
X264438000Y-22345800D02*
X264137000Y-22345800D01*
X307288000Y-34345900D02*
X307288000Y-34845000D01*
X250138000Y-21845700D02*
X250138000Y-22345800D01*
X249838000Y-25445300D02*
X250138000Y-25445300D01*
X250638000Y-35345000D02*
G75*
G02X250138000Y-34845000I0J500000D01*
G01*
X264137000Y-31245400D02*
X264137000Y-25445300D01*
X306488000Y-31745400D02*
G75*
G02X306988000Y-31245400I500000J0D01*
G01*
X249338000Y-22845800D02*
G75*
G02X249838000Y-22345800I500000J0D01*
G01*
X321287000Y-34845000D02*
X321287000Y-34345900D01*
X321287000Y-31245400D02*
X321287000Y-25445300D01*
X250138000Y-25445300D02*
X250138000Y-31245400D01*
X250138000Y-31245400D02*
X249838000Y-31245400D01*
X249338000Y-31745400D02*
G75*
G02X249838000Y-31245400I500000J0D01*
G01*
X306488000Y-22845800D02*
G75*
G02X306988000Y-22345800I500000J0D01*
G01*
X306988000Y-25445300D02*
G75*
G02X306488000Y-24945300I0J500000D01*
G01*
X322088000Y-33845900D02*
G75*
G02X321588000Y-34345900I-500000J0D01*
G01*
X245888000Y-33845900D02*
G75*
G02X245388000Y-34345900I-500000J0D01*
G01*
X307288000Y-31245400D02*
X306988000Y-31245400D01*
X321588000Y-31245400D02*
X321287000Y-31245400D01*
X320787000Y-21345700D02*
X307788000Y-21345700D01*
X264137000Y-34845000D02*
G75*
G02X263637000Y-35345000I-500000J0D01*
G01*
X264438000Y-31245400D02*
G75*
G02X264938000Y-31745400I0J-500000D01*
G01*
X264438000Y-31245400D02*
X264137000Y-31245400D01*
X264938000Y-33845900D02*
X264938000Y-31745400D01*
X322088000Y-33845900D02*
X322088000Y-31745400D01*
X264137000Y-34845000D02*
X264137000Y-34345900D01*
X264938000Y-24945300D02*
X264938000Y-22845800D01*
X263637000Y-21345700D02*
X250638000Y-21345700D01*
X264137000Y-34345900D02*
X264438000Y-34345900D01*
X321287000Y-25445300D02*
X321588000Y-25445300D01*
X322088000Y-24945300D02*
X322088000Y-22845800D01*
X321588000Y-22345800D02*
G75*
G02X322088000Y-22845800I0J-500000D01*
G01*
X306488000Y-22845800D02*
X306488000Y-24945300D01*
X23918910Y-59945700D02*
X23918910Y-60445800D01*
X54574500Y-63545300D02*
G75*
G02X54074500Y-63045300I0J500000D01*
G01*
X54074500Y-69845400D02*
G75*
G02X54574500Y-69345400I500000J0D01*
G01*
X54074500Y-69845400D02*
X54074500Y-71945900D01*
X54574500Y-72445900D02*
G75*
G02X54074500Y-71945900I0J500000D01*
G01*
X54875200Y-63545300D02*
X54875200Y-69345400D01*
X55375200Y-73445000D02*
X68374500Y-73445000D01*
X68874500Y-72445900D02*
X69175300Y-72445900D01*
X68874500Y-63545300D02*
X69175300Y-63545300D01*
X69675300Y-63045300D02*
G75*
G02X69175300Y-63545300I-500000J0D01*
G01*
X23918910Y-69345400D02*
X23618280Y-69345400D01*
X42980200Y-60445800D02*
G75*
G02X43480200Y-60945800I0J-500000D01*
G01*
X69675300Y-63045300D02*
X69675300Y-60945800D01*
X43480200Y-71945900D02*
G75*
G02X42980200Y-72445900I-500000J0D01*
G01*
X54875200Y-60445800D02*
X54574500Y-60445800D01*
X23618280Y-72445900D02*
X23918910Y-72445900D01*
X42680900Y-72945000D02*
X42680900Y-72445900D01*
X23918910Y-60445800D02*
X23618280Y-60445800D01*
X54574500Y-72445900D02*
X54875200Y-72445900D01*
X69675300Y-71945900D02*
G75*
G02X69175300Y-72445900I-500000J0D01*
G01*
X54074500Y-60945800D02*
G75*
G02X54574500Y-60445800I500000J0D01*
G01*
X23918910Y-59945700D02*
G75*
G02X24418910Y-59445700I500000J0D01*
G01*
X23118280Y-60945800D02*
G75*
G02X23618280Y-60445800I500000J0D01*
G01*
X54875200Y-72445900D02*
X54875200Y-72945000D01*
X68874500Y-72945000D02*
X68874500Y-72445900D01*
X69175300Y-60445800D02*
G75*
G02X69675300Y-60945800I0J-500000D01*
G01*
X43480200Y-71945900D02*
X43480200Y-69845400D01*
X42680900Y-69345400D02*
X42680900Y-63545300D01*
X23618280Y-63545300D02*
X23918910Y-63545300D01*
X54875200Y-59945700D02*
G75*
G02X55375200Y-59445700I500000J0D01*
G01*
X23118280Y-69845400D02*
G75*
G02X23618280Y-69345400I500000J0D01*
G01*
X23918910Y-72445900D02*
X23918910Y-72945000D01*
X54875200Y-69345400D02*
X54574500Y-69345400D01*
X55375200Y-73445000D02*
G75*
G02X54875200Y-72945000I0J500000D01*
G01*
X69175300Y-69345400D02*
X68874500Y-69345400D01*
X23918910Y-63545300D02*
X23918910Y-69345400D01*
X24418910Y-73445000D02*
G75*
G02X23918910Y-72945000I0J500000D01*
G01*
X23618280Y-63545300D02*
G75*
G02X23118280Y-63045300I0J500000D01*
G01*
X54574500Y-63545300D02*
X54875200Y-63545300D01*
X68874500Y-72945000D02*
G75*
G02X68374500Y-73445000I-500000J0D01*
G01*
X69175300Y-60445800D02*
X68874500Y-60445800D01*
X42980200Y-69345400D02*
X42680900Y-69345400D01*
X69675300Y-71945900D02*
X69675300Y-69845400D01*
X42680900Y-63545300D02*
X42980200Y-63545300D01*
X43480200Y-63045300D02*
X43480200Y-60945800D01*
X68374500Y-59445700D02*
X55375200Y-59445700D01*
X69175300Y-69345400D02*
G75*
G02X69675300Y-69845400I0J-500000D01*
G01*
X23618280Y-72445900D02*
G75*
G02X23118280Y-71945900I0J500000D01*
G01*
X68874500Y-69345400D02*
X68874500Y-63545300D01*
X42180900Y-59445700D02*
G75*
G02X42680900Y-59945700I0J-500000D01*
G01*
X42980200Y-60445800D02*
X42680900Y-60445800D01*
X24418910Y-73445000D02*
X42180900Y-73445000D01*
X42680900Y-72945000D02*
G75*
G02X42180900Y-73445000I-500000J0D01*
G01*
X23118280Y-60945800D02*
X23118280Y-63045300D01*
X23118280Y-69845400D02*
X23118280Y-71945900D01*
X42680900Y-60445800D02*
X42680900Y-59945700D01*
X43480200Y-63045300D02*
G75*
G02X42980200Y-63545300I-500000J0D01*
G01*
X42180900Y-59445700D02*
X24418910Y-59445700D01*
X42680900Y-72445900D02*
X42980200Y-72445900D01*
X68374500Y-59445700D02*
G75*
G02X68874500Y-59945700I0J-500000D01*
G01*
X42980200Y-69345400D02*
G75*
G02X43480200Y-69845400I0J-500000D01*
G01*
X306488000Y-41895800D02*
G75*
G02X306988000Y-41395800I500000J0D01*
G01*
X54875200Y-59945700D02*
X54875200Y-60445800D01*
X54074500Y-60945800D02*
X54074500Y-63045300D01*
X106974500Y-63545300D02*
X107275300Y-63545300D01*
X92975200Y-60445800D02*
X92674400Y-60445800D01*
X73124400Y-60945800D02*
X73124400Y-63045300D01*
X73925200Y-69345400D02*
X73624400Y-69345400D01*
X73124400Y-69845400D02*
X73124400Y-71945900D01*
X73925200Y-72445900D02*
X73925200Y-72945000D01*
X92975200Y-59945700D02*
G75*
G02X93475200Y-59445700I500000J0D01*
G01*
X73925200Y-59945700D02*
X73925200Y-60445800D01*
X88725300Y-71945900D02*
G75*
G02X88225300Y-72445900I-500000J0D01*
G01*
X88225300Y-69345400D02*
G75*
G02X88725300Y-69845400I0J-500000D01*
G01*
X92674400Y-72445900D02*
X92975200Y-72445900D01*
X107775300Y-63045300D02*
X107775300Y-60945800D01*
X92674400Y-63545300D02*
G75*
G02X92174400Y-63045300I0J500000D01*
G01*
X87924500Y-69345400D02*
X87924500Y-63545300D01*
X73925200Y-63545300D02*
X73925200Y-69345400D01*
X87924500Y-63545300D02*
X88225300Y-63545300D01*
X88725300Y-63045300D02*
X88725300Y-60945800D01*
X92674400Y-63545300D02*
X92975200Y-63545300D01*
X107275300Y-69345400D02*
X106974500Y-69345400D01*
X107775300Y-63045300D02*
G75*
G02X107275300Y-63545300I-500000J0D01*
G01*
X106474500Y-59445700D02*
G75*
G02X106974500Y-59945700I0J-500000D01*
G01*
X106974500Y-72945000D02*
X106974500Y-72445900D01*
X92975200Y-69345400D02*
X92674400Y-69345400D01*
X73624400Y-63545300D02*
G75*
G02X73124400Y-63045300I0J500000D01*
G01*
X87924500Y-72945000D02*
G75*
G02X87424500Y-73445000I-500000J0D01*
G01*
X107275300Y-60445800D02*
X106974500Y-60445800D01*
X106474500Y-59445700D02*
X93475200Y-59445700D01*
X107275300Y-69345400D02*
G75*
G02X107775300Y-69845400I0J-500000D01*
G01*
X87424500Y-59445700D02*
X74425200Y-59445700D01*
X88225300Y-60445800D02*
G75*
G02X88725300Y-60945800I0J-500000D01*
G01*
X88225300Y-60445800D02*
X87924500Y-60445800D01*
X87924500Y-60445800D02*
X87924500Y-59945700D01*
X88725300Y-63045300D02*
G75*
G02X88225300Y-63545300I-500000J0D01*
G01*
X92174400Y-69845400D02*
X92174400Y-71945900D01*
X92674400Y-72445900D02*
G75*
G02X92174400Y-71945900I0J500000D01*
G01*
X107775300Y-71945900D02*
G75*
G02X107275300Y-72445900I-500000J0D01*
G01*
X107775300Y-71945900D02*
X107775300Y-69845400D01*
X106974500Y-60445800D02*
X106974500Y-59945700D01*
X92975200Y-59945700D02*
X92975200Y-60445800D01*
X73925200Y-59945700D02*
G75*
G02X74425200Y-59445700I500000J0D01*
G01*
X73124400Y-69845400D02*
G75*
G02X73624400Y-69345400I500000J0D01*
G01*
X106974500Y-72945000D02*
G75*
G02X106474500Y-73445000I-500000J0D01*
G01*
X92174400Y-69845400D02*
G75*
G02X92674400Y-69345400I500000J0D01*
G01*
X74425200Y-73445000D02*
G75*
G02X73925200Y-72945000I0J500000D01*
G01*
X73624400Y-72445900D02*
G75*
G02X73124400Y-71945900I0J500000D01*
G01*
X73124400Y-60945800D02*
G75*
G02X73624400Y-60445800I500000J0D01*
G01*
X74425200Y-73445000D02*
X87424500Y-73445000D01*
X92174400Y-60945800D02*
X92174400Y-63045300D01*
X87924500Y-72945000D02*
X87924500Y-72445900D01*
X68874500Y-60445800D02*
X68874500Y-59945700D01*
X92975200Y-63545300D02*
X92975200Y-69345400D01*
X93475200Y-73445000D02*
X106474500Y-73445000D01*
X92975200Y-72445900D02*
X92975200Y-72945000D01*
X106974500Y-72445900D02*
X107275300Y-72445900D01*
X107275300Y-60445800D02*
G75*
G02X107775300Y-60945800I0J-500000D01*
G01*
X92174400Y-60945800D02*
G75*
G02X92674400Y-60445800I500000J0D01*
G01*
X73925200Y-60445800D02*
X73624400Y-60445800D01*
X73624400Y-72445900D02*
X73925200Y-72445900D01*
X87924500Y-72445900D02*
X88225300Y-72445900D01*
X106974500Y-69345400D02*
X106974500Y-63545300D01*
X88725300Y-71945900D02*
X88725300Y-69845400D01*
X88225300Y-69345400D02*
X87924500Y-69345400D01*
X73624400Y-63545300D02*
X73925200Y-63545300D01*
X93475200Y-73445000D02*
G75*
G02X92975200Y-72945000I0J500000D01*
G01*
X112025200Y-63545300D02*
X112025200Y-69345400D01*
X273662000Y-53395900D02*
X273963000Y-53395900D01*
X273162000Y-40395700D02*
G75*
G02X273662000Y-40895700I0J-500000D01*
G01*
X259663000Y-40895700D02*
G75*
G02X260163000Y-40395700I500000J0D01*
G01*
X259663000Y-41395800D02*
X259363000Y-41395800D01*
X112025200Y-60445800D02*
X111724400Y-60445800D01*
X273662000Y-41395800D02*
X273662000Y-40895700D01*
X258863000Y-41895800D02*
X258863000Y-43995300D01*
X259363000Y-44495300D02*
X259663000Y-44495300D01*
X259663000Y-50295400D02*
X259363000Y-50295400D01*
X112525200Y-73445000D02*
G75*
G02X112025200Y-72945000I0J500000D01*
G01*
X258863000Y-50795400D02*
G75*
G02X259363000Y-50295400I500000J0D01*
G01*
X259663000Y-53395900D02*
X259663000Y-53895000D01*
X126825000Y-63045300D02*
G75*
G02X126325000Y-63545300I-500000J0D01*
G01*
X126025000Y-60445800D02*
X126025000Y-59945700D01*
X126025000Y-72445900D02*
X126325000Y-72445900D01*
X126025000Y-69345400D02*
X126025000Y-63545300D01*
X112025200Y-69345400D02*
X111724400Y-69345400D01*
X274463000Y-43995300D02*
X274463000Y-41895800D01*
X258863000Y-41895800D02*
G75*
G02X259363000Y-41395800I500000J0D01*
G01*
X125525000Y-59445700D02*
G75*
G02X126025000Y-59945700I0J-500000D01*
G01*
X111724400Y-63545300D02*
X112025200Y-63545300D01*
X111224400Y-69845400D02*
G75*
G02X111724400Y-69345400I500000J0D01*
G01*
X273963000Y-50295400D02*
G75*
G02X274463000Y-50795400I0J-500000D01*
G01*
X259663000Y-40895700D02*
X259663000Y-41395800D01*
X259363000Y-53395900D02*
X259663000Y-53395900D01*
X111724400Y-72445900D02*
X112025200Y-72445900D01*
X126325000Y-60445800D02*
G75*
G02X126825000Y-60945800I0J-500000D01*
G01*
X274463000Y-43995300D02*
G75*
G02X273963000Y-44495300I-500000J0D01*
G01*
X273963000Y-41395800D02*
G75*
G02X274463000Y-41895800I0J-500000D01*
G01*
X112525200Y-73445000D02*
X125525000Y-73445000D01*
X126825000Y-71945900D02*
G75*
G02X126325000Y-72445900I-500000J0D01*
G01*
X260163000Y-54395000D02*
X273162000Y-54395000D01*
X258863000Y-50795400D02*
X258863000Y-52895900D01*
X260163000Y-54395000D02*
G75*
G02X259663000Y-53895000I0J500000D01*
G01*
X112025200Y-72445900D02*
X112025200Y-72945000D01*
X126825000Y-71945900D02*
X126825000Y-69845400D01*
X111724400Y-72445900D02*
G75*
G02X111224400Y-71945900I0J500000D01*
G01*
X112025200Y-59945700D02*
X112025200Y-60445800D01*
X273662000Y-50295400D02*
X273662000Y-44495300D01*
X273662000Y-44495300D02*
X273963000Y-44495300D01*
X274463000Y-52895900D02*
X274463000Y-50795400D01*
X273963000Y-41395800D02*
X273662000Y-41395800D01*
X126825000Y-63045300D02*
X126825000Y-60945800D01*
X259363000Y-44495300D02*
G75*
G02X258863000Y-43995300I0J500000D01*
G01*
X273162000Y-40395700D02*
X260163000Y-40395700D01*
X259663000Y-44495300D02*
X259663000Y-50295400D01*
X126025000Y-72945000D02*
X126025000Y-72445900D01*
X259363000Y-53395900D02*
G75*
G02X258863000Y-52895900I0J500000D01*
G01*
X111224400Y-60945800D02*
X111224400Y-63045300D01*
X126325000Y-69345400D02*
G75*
G02X126825000Y-69845400I0J-500000D01*
G01*
X126325000Y-69345400D02*
X126025000Y-69345400D01*
X126025000Y-63545300D02*
X126325000Y-63545300D01*
X111224400Y-69845400D02*
X111224400Y-71945900D01*
X126025000Y-72945000D02*
G75*
G02X125525000Y-73445000I-500000J0D01*
G01*
X111224400Y-60945800D02*
G75*
G02X111724400Y-60445800I500000J0D01*
G01*
X111724400Y-63545300D02*
G75*
G02X111224400Y-63045300I0J500000D01*
G01*
X125525000Y-59445700D02*
X112525200Y-59445700D01*
X273662000Y-53895000D02*
X273662000Y-53395900D01*
X274463000Y-52895900D02*
G75*
G02X273963000Y-53395900I-500000J0D01*
G01*
X126325000Y-60445800D02*
X126025000Y-60445800D01*
X273963000Y-50295400D02*
X273662000Y-50295400D01*
X112025200Y-59945700D02*
G75*
G02X112525200Y-59445700I500000J0D01*
G01*
X87424500Y-59445700D02*
G75*
G02X87924500Y-59945700I0J-500000D01*
G01*
X283975000Y-54395000D02*
G75*
G02X283475000Y-53895000I0J500000D01*
G01*
X298275000Y-52895900D02*
X298275000Y-50795400D01*
X297775000Y-50295400D02*
G75*
G02X298275000Y-50795400I0J-500000D01*
G01*
X297775000Y-50295400D02*
X297475000Y-50295400D01*
X283475000Y-53395900D02*
X283475000Y-53895000D01*
X306488000Y-50795400D02*
X306488000Y-52895900D01*
X321588000Y-50295400D02*
G75*
G02X322088000Y-50795400I0J-500000D01*
G01*
X283174000Y-44495300D02*
X283475000Y-44495300D01*
X322088000Y-52895900D02*
X322088000Y-50795400D01*
X322088000Y-43995300D02*
X322088000Y-41895800D01*
X321588000Y-41395800D02*
X321287000Y-41395800D01*
X321287000Y-41395800D02*
X321287000Y-40895700D01*
X297475000Y-53895000D02*
G75*
G02X296975000Y-54395000I-500000J0D01*
G01*
X307288000Y-53395900D02*
X307288000Y-53895000D01*
X321287000Y-44495300D02*
X321588000Y-44495300D01*
X320787000Y-40395700D02*
G75*
G02X321287000Y-40895700I0J-500000D01*
G01*
X307288000Y-40895700D02*
G75*
G02X307788000Y-40395700I500000J0D01*
G01*
X307288000Y-40895700D02*
X307288000Y-41395800D01*
X282674000Y-50795400D02*
X282674000Y-52895900D01*
X297475000Y-53895000D02*
X297475000Y-53395900D01*
X283174000Y-44495300D02*
G75*
G02X282674000Y-43995300I0J500000D01*
G01*
X283975000Y-54395000D02*
X296975000Y-54395000D01*
X321588000Y-50295400D02*
X321287000Y-50295400D01*
X307288000Y-41395800D02*
X306988000Y-41395800D01*
X296975000Y-40395700D02*
G75*
G02X297475000Y-40895700I0J-500000D01*
G01*
X282674000Y-50795400D02*
G75*
G02X283174000Y-50295400I500000J0D01*
G01*
X298275000Y-43995300D02*
X298275000Y-41895800D01*
X283174000Y-53395900D02*
G75*
G02X282674000Y-52895900I0J500000D01*
G01*
X306988000Y-53395900D02*
X307288000Y-53395900D01*
X306988000Y-44495300D02*
G75*
G02X306488000Y-43995300I0J500000D01*
G01*
X298275000Y-43995300D02*
G75*
G02X297775000Y-44495300I-500000J0D01*
G01*
X283174000Y-53395900D02*
X283475000Y-53395900D01*
X321287000Y-53895000D02*
G75*
G02X320787000Y-54395000I-500000J0D01*
G01*
X321287000Y-53895000D02*
X321287000Y-53395900D01*
X321287000Y-53395900D02*
X321588000Y-53395900D01*
X320787000Y-40395700D02*
X307788000Y-40395700D01*
X283475000Y-50295400D02*
X283174000Y-50295400D01*
X298275000Y-52895900D02*
G75*
G02X297775000Y-53395900I-500000J0D01*
G01*
X296975000Y-40395700D02*
X283975000Y-40395700D01*
X283475000Y-40895700D02*
X283475000Y-41395800D01*
X322088000Y-52895900D02*
G75*
G02X321588000Y-53395900I-500000J0D01*
G01*
X321588000Y-41395800D02*
G75*
G02X322088000Y-41895800I0J-500000D01*
G01*
X306988000Y-44495300D02*
X307288000Y-44495300D01*
X283475000Y-41395800D02*
X283174000Y-41395800D01*
X297775000Y-41395800D02*
X297475000Y-41395800D01*
X282674000Y-41895800D02*
X282674000Y-43995300D01*
X297475000Y-41395800D02*
X297475000Y-40895700D01*
X283475000Y-44495300D02*
X283475000Y-50295400D01*
X307288000Y-50295400D02*
X306988000Y-50295400D01*
X306488000Y-50795400D02*
G75*
G02X306988000Y-50295400I500000J0D01*
G01*
X297475000Y-44495300D02*
X297775000Y-44495300D01*
X297475000Y-53395900D02*
X297775000Y-53395900D01*
X283475000Y-40895700D02*
G75*
G02X283975000Y-40395700I500000J0D01*
G01*
X306488000Y-41895800D02*
X306488000Y-43995300D01*
X306988000Y-53395900D02*
G75*
G02X306488000Y-52895900I0J500000D01*
G01*
X297775000Y-41395800D02*
G75*
G02X298275000Y-41895800I0J-500000D01*
G01*
X307288000Y-44495300D02*
X307288000Y-50295400D01*
X307788000Y-54395000D02*
G75*
G02X307288000Y-53895000I0J500000D01*
G01*
X307788000Y-54395000D02*
X320787000Y-54395000D01*
X297475000Y-50295400D02*
X297475000Y-44495300D01*
X321287000Y-50295400D02*
X321287000Y-44495300D01*
X322088000Y-43995300D02*
G75*
G02X321588000Y-44495300I-500000J0D01*
G01*
X282674000Y-41895800D02*
G75*
G02X283174000Y-41395800I500000J0D01*
G01*
X136350000Y-90996000D02*
X136350000Y-88895400D01*
X136350000Y-82095200D02*
X136350000Y-79996000D01*
X135550000Y-79496000D02*
X135550000Y-78995700D01*
X135550000Y-88395400D02*
X135550000Y-82595200D01*
X209490000Y-104545275D02*
G75*
G03X209490000Y-104545275I-2500000J0D01*
G01*
X281960000Y-47395350D02*
G75*
G03X281960000Y-47395350I-2500000J0D01*
G01*
X135850000Y-88395400D02*
G75*
G02X136350000Y-88895400I0J-500000D01*
G01*
X135050000Y-78495700D02*
G75*
G02X135550000Y-78995700I0J-500000D01*
G01*
X136350000Y-82095200D02*
G75*
G02X135850000Y-82595200I-500000J0D01*
G01*
X135850000Y-79496000D02*
G75*
G02X136350000Y-79996000I0J-500000D01*
G01*
X136350000Y-90996000D02*
G75*
G02X135850000Y-91496000I-500000J0D01*
G01*
X46510000Y-104545275D02*
G75*
G03X46510000Y-104545275I-2500000J0D01*
G01*
X46510000Y-47395350D02*
G75*
G03X46510000Y-47395350I-2500000J0D01*
G01*
X135850000Y-79496000D02*
X135550000Y-79496000D01*
X135850000Y-88395400D02*
X135550000Y-88395400D01*
X135550000Y-82595200D02*
X135850000Y-82595200D01*
X83450200Y-82595200D02*
X83450200Y-88395400D01*
X97449500Y-91995000D02*
X97449500Y-91496000D01*
X101699400Y-79996000D02*
X101699400Y-82095200D01*
X116499500Y-91995000D02*
X116499500Y-91496000D01*
X83950200Y-92495000D02*
X96949500Y-92495000D01*
X102199400Y-82595200D02*
X102500200Y-82595200D01*
X116499500Y-91496000D02*
X116800300Y-91496000D01*
X117300300Y-90996000D02*
G75*
G02X116800300Y-91496000I-500000J0D01*
G01*
X101699400Y-88895400D02*
G75*
G02X102199400Y-88395400I500000J0D01*
G01*
X117300300Y-90996000D02*
X117300300Y-88895400D01*
X83450200Y-88395400D02*
X83149400Y-88395400D01*
X82649400Y-88895400D02*
G75*
G02X83149400Y-88395400I500000J0D01*
G01*
X116800300Y-88395400D02*
X116499500Y-88395400D01*
X117300300Y-82095200D02*
X117300300Y-79996000D01*
X116800300Y-79496000D02*
X116499500Y-79496000D01*
X101699400Y-79996000D02*
G75*
G02X102199400Y-79496000I500000J0D01*
G01*
X103000200Y-92495000D02*
G75*
G02X102500200Y-91995000I0J500000D01*
G01*
X116499500Y-91995000D02*
G75*
G02X115999500Y-92495000I-500000J0D01*
G01*
X115999500Y-78495700D02*
G75*
G02X116499500Y-78995700I0J-500000D01*
G01*
X102500200Y-78995700D02*
G75*
G02X103000200Y-78495700I500000J0D01*
G01*
X102500200Y-78995700D02*
X102500200Y-79496000D01*
X102500200Y-79496000D02*
X102199400Y-79496000D01*
X135050000Y-78495700D02*
X122050000Y-78495700D01*
X121550000Y-78995700D02*
X121550000Y-79496000D01*
X83450200Y-91496000D02*
X83450200Y-91995000D01*
X83149400Y-91496000D02*
G75*
G02X82649400Y-90996000I0J500000D01*
G01*
X102199400Y-91496000D02*
X102500200Y-91496000D01*
X121249000Y-82595200D02*
G75*
G02X120749000Y-82095200I0J500000D01*
G01*
X121249000Y-82595200D02*
X121550000Y-82595200D01*
X121550000Y-82595200D02*
X121550000Y-88395400D01*
X121550000Y-88395400D02*
X121249000Y-88395400D01*
X120749000Y-88895400D02*
X120749000Y-90996000D01*
X121249000Y-91496000D02*
G75*
G02X120749000Y-90996000I0J500000D01*
G01*
X121249000Y-91496000D02*
X121550000Y-91496000D01*
X83149400Y-91496000D02*
X83450200Y-91496000D01*
X101699400Y-88895400D02*
X101699400Y-90996000D01*
X115999500Y-78495700D02*
X103000200Y-78495700D01*
X120749000Y-79996000D02*
X120749000Y-82095200D01*
X83950200Y-92495000D02*
G75*
G02X83450200Y-91995000I0J500000D01*
G01*
X121550000Y-91496000D02*
X121550000Y-91995000D01*
X82649400Y-88895400D02*
X82649400Y-90996000D01*
X102199400Y-91496000D02*
G75*
G02X101699400Y-90996000I0J500000D01*
G01*
X102199400Y-82595200D02*
G75*
G02X101699400Y-82095200I0J500000D01*
G01*
X102500200Y-91496000D02*
X102500200Y-91995000D01*
X116800300Y-88395400D02*
G75*
G02X117300300Y-88895400I0J-500000D01*
G01*
X121550000Y-78995700D02*
G75*
G02X122050000Y-78495700I500000J0D01*
G01*
X102500200Y-82595200D02*
X102500200Y-88395400D01*
X122050000Y-92495000D02*
G75*
G02X121550000Y-91995000I0J500000D01*
G01*
X116499500Y-88395400D02*
X116499500Y-82595200D01*
X103000200Y-92495000D02*
X115999500Y-92495000D01*
X116499500Y-79496000D02*
X116499500Y-78995700D01*
X116800300Y-79496000D02*
G75*
G02X117300300Y-79996000I0J-500000D01*
G01*
X120749000Y-88895400D02*
G75*
G02X121249000Y-88395400I500000J0D01*
G01*
X116499500Y-82595200D02*
X116800300Y-82595200D01*
X122050000Y-92495000D02*
X135050000Y-92495000D01*
X135550000Y-91995000D02*
G75*
G02X135050000Y-92495000I-500000J0D01*
G01*
X135550000Y-91496000D02*
X135850000Y-91496000D01*
X117300300Y-82095200D02*
G75*
G02X116800300Y-82595200I-500000J0D01*
G01*
X102500200Y-88395400D02*
X102199400Y-88395400D01*
X121550000Y-79496000D02*
X121249000Y-79496000D01*
X120749000Y-79996000D02*
G75*
G02X121249000Y-79496000I500000J0D01*
G01*
X135550000Y-91995000D02*
X135550000Y-91496000D01*
X97449500Y-91995000D02*
G75*
G02X96949500Y-92495000I-500000J0D01*
G01*
M02*
