999
dxfrw 0.6.3
  0
SECTION
  2
HEADER
  9
$ACADVER
  1
AC1021
  9
$DWGCODEPAGE
  3
ANSI_1252
  9
$INSBASE
 10
0
 20
0
 30
0
  9
$EXTMIN
 10
81.002
 20
-126.029
 30
0
  9
$EXTMAX
 10
182.419
 20
-100.579
 30
0
  9
$LIMMIN
 10
0
 20
0
  9
$LIMMAX
 10
420
 20
297
  9
$ORTHOMODE
 70
    0
  9
$REGENMODE
 70
    1
  9
$FILLMODE
 70
    1
  9
$QTEXTMODE
 70
    0
  9
$MIRRTEXT
 70
    0
  9
$LTSCALE
 40
1
  9
$ATTMODE
 70
    0
  9
$TEXTSIZE
 40
2.5
  9
$TRACEWID
 40
15.68
  9
$TEXTSTYLE
  7
STANDARD
  9
$CLAYER
  8
0
  9
$CELTYPE
  6
BYLAYER
  9
$CECOLOR
 62
  256
  9
$CELTSCALE
 40
1
  9
$DISPSILH
 70
    0
  9
$DIMSCALE
 40
2.5
  9
$DIMASZ
 40
2.5
  9
$DIMEXO
 40
0.625
  9
$DIMDLI
 40
3.75
  9
$DIMRND
 40
0
  9
$DIMDLE
 40
0
  9
$DIMEXE
 40
1.25
  9
$DIMTP
 40
0
  9
$DIMTM
 40
0
  9
$DIMTXT
 40
2.5
  9
$DIMCEN
 40
2.5
  9
$DIMTSZ
 40
0
  9
$DIMTOL
 70
    0
  9
$DIMLIM
 70
    0
  9
$DIMTIH
 70
    0
  9
$DIMTOH
 70
    0
  9
$DIMSE1
 70
    0
  9
$DIMSE2
 70
    0
  9
$DIMTAD
 70
    1
  9
$DIMZIN
 70
    8
  9
$DIMBLK
  1

  9
$DIMASO
 70
    1
  9
$DIMSHO
 70
    1
  9
$DIMPOST
  1

  9
$DIMAPOST
  1

  9
$DIMALT
 70
    0
  9
$DIMALTD
 70
    3
  9
$DIMALTF
 40
0.03937
  9
$DIMLFAC
 40
1
  9
$DIMTOFL
 70
    1
  9
$DIMTVP
 40
0
  9
$DIMTIX
 70
    0
  9
$DIMSOXD
 70
    0
  9
$DIMSAH
 70
    0
  9
$DIMBLK1
  1

  9
$DIMBLK2
  1

  9
$DIMSTYLE
  2
Standard
  9
$DIMCLRD
 70
    0
  9
$DIMCLRE
 70
    0
  9
$DIMCLRT
 70
    0
  9
$DIMTFAC
 40
1
  9
$DIMGAP
 40
0.625
  9
$DIMJUST
 70
    0
  9
$DIMSD1
 70
    0
  9
$DIMSD2
 70
    0
  9
$DIMTOLJ
 70
    0
  9
$DIMTZIN
 70
    8
  9
$DIMALTZ
 70
    0
  9
$DIMALTTZ
 70
    0
  9
$DIMUPT
 70
    0
  9
$DIMDEC
 70
    2
  9
$DIMTDEC
 70
    2
  9
$DIMALTU
 70
    2
  9
$DIMALTTD
 70
    3
  9
$DIMTXSTY
  7
STANDARD
  9
$DIMAUNIT
 70
    0
  9
$DIMADEC
 70
    0
  9
$DIMALTRND
 40
0
  9
$DIMAZIN
 70
    0
  9
$DIMDSEP
 70
   44
  9
$DIMATFIT
 70
    3
  9
$DIMFRAC
 70
    0
  9
$DIMLDRBLK
  1
STANDARD
  9
$DIMLUNIT
 70
    2
  9
$DIMLWD
 70
   -2
  9
$DIMLWE
 70
   -2
  9
$DIMTMOVE
 70
    0
  9
$DIMFXL
 40
1
  9
$DIMFXLON
 70
    0
  9
$DIMJOGANG
 40
0.7854
  9
$DIMTFILL
 70
    0
  9
$DIMTFILLCLR
 70
    0
  9
$DIMARCSYM
 70
    0
  9
$DIMLTYPE
  6

  9
$DIMLTEX1
  6

  9
$DIMLTEX2
  6

  9
$LUNITS
 70
    2
  9
$LUPREC
 70
    4
  9
$SKETCHINC
 40
1
  9
$FILLETRAD
 40
0
  9
$AUNITS
 70
    0
  9
$AUPREC
 70
    2
  9
$MENU
  1
.
  9
$ELEVATION
 40
0
  9
$PELEVATION
 40
0
  9
$THICKNESS
 40
0
  9
$LIMCHECK
 70
    0
  9
$CHAMFERA
 40
0
  9
$CHAMFERB
 40
0
  9
$CHAMFERC
 40
0
  9
$CHAMFERD
 40
0
  9
$SKPOLY
 70
    0
  9
$USRTIMER
 70
    1
  9
$ANGBASE
 50
0
  9
$ANGDIR
 70
    1
  9
$PDMODE
 70
   34
  9
$PDSIZE
 40
0
  9
$PLINEWID
 40
0
  9
$SPLFRAME
 70
    0
  9
$SPLINETYPE
 70
    2
  9
$SPLINESEGS
 70
    8
  9
$HANDSEED
  5
20000
  9
$SURFTAB1
 70
    6
  9
$SURFTAB2
 70
    6
  9
$SURFTYPE
 70
    6
  9
$SURFU
 70
    6
  9
$SURFV
 70
    6
  9
$UCSBASE
  2

  9
$UCSNAME
  2

  9
$UCSORG
 10
0
 20
0
 30
0
  9
$UCSXDIR
 10
1
 20
0
 30
0
  9
$UCSYDIR
 10
0
 20
1
 30
0
  9
$UCSORTHOREF
  2

  9
$UCSORTHOVIEW
 70
    0
  9
$UCSORGTOP
 10
0
 20
0
 30
0
  9
$UCSORGBOTTOM
 10
0
 20
0
 30
0
  9
$UCSORGLEFT
 10
0
 20
0
 30
0
  9
$UCSORGRIGHT
 10
0
 20
0
 30
0
  9
$UCSORGFRONT
 10
0
 20
0
 30
0
  9
$UCSORGBACK
 10
0
 20
0
 30
0
  9
$PUCSBASE
  2

  9
$PUCSNAME
  2

  9
$PUCSORG
 10
0
 20
0
 30
0
  9
$PUCSXDIR
 10
1
 20
0
 30
0
  9
$PUCSYDIR
 10
0
 20
1
 30
0
  9
$PUCSORTHOREF
  2

  9
$PUCSORTHOVIEW
 70
    0
  9
$PUCSORGTOP
 10
0
 20
0
 30
0
  9
$PUCSORGBOTTOM
 10
0
 20
0
 30
0
  9
$PUCSORGLEFT
 10
0
 20
0
 30
0
  9
$PUCSORGRIGHT
 10
0
 20
0
 30
0
  9
$PUCSORGFRONT
 10
0
 20
0
 30
0
  9
$PUCSORGBACK
 10
0
 20
0
 30
0
  9
$USERI1
 70
    0
  9
$USERI2
 70
    0
  9
$USERI3
 70
    0
  9
$USERI4
 70
    0
  9
$USERI5
 70
    0
  9
$USERR1
 40
0
  9
$USERR2
 40
0
  9
$USERR3
 40
0
  9
$USERR4
 40
0
  9
$USERR5
 40
0
  9
$WORLDVIEW
 70
    1
  9
$SHADEDGE
 70
    3
  9
$SHADEDIF
 70
   70
  9
$TILEMODE
 70
    1
  9
$MAXACTVP
 70
   64
  9
$PINSBASE
 10
0
 20
0
 30
0
  9
$PLIMCHECK
 70
    0
  9
$PEXTMIN
 10
0
 20
0
 30
0
  9
$PEXTMAX
 10
0
 20
0
 30
0
  9
$SNAPSTYLE
 70
    0
  9
$PLIMMIN
 10
0
 20
0
  9
$PLIMMAX
 10
210
 20
297
  9
$UNITMODE
 70
    0
  9
$VISRETAIN
 70
    1
  9
$PLINEGEN
 70
    0
  9
$PSLTSCALE
 70
    1
  9
$TREEDEPTH
 70
 3020
  9
$CMLSTYLE
  2
Standard
  9
$CMLJUST
 70
    0
  9
$CMLSCALE
 40
20
  9
$PROXYGRAPHICS
 70
    1
  9
$MEASUREMENT
 70
    0
  9
$CELWEIGHT
370
   -1
  9
$ENDCAPS
280
    0
  9
$JOINSTYLE
280
    0
  9
$LWDISPLAY
290
    0
  9
$INSUNITS
 70
    4
  9
$HYPERLINKBASE
  1

  9
$STYLESHEET
  1

  9
$XEDIT
290
    1
  9
$CEPSNTYPE
380
    0
  9
$PSTYLEMODE
290
    1
  9
$EXTNAMES
290
    1
  9
$PSVPSCALE
 40
1
  9
$OLESTARTUP
290
    0
  9
$SORTENTS
280
  127
  9
$INDEXCTL
280
    0
  9
$HIDETEXT
280
    1
  9
$XCLIPFRAME
290
    0
  9
$HALOGAP
280
    0
  9
$OBSCOLOR
 70
  257
  9
$OBSLTYPE
280
    0
  9
$INTERSECTIONDISPLAY
280
    0
  9
$INTERSECTIONCOLOR
 70
  257
  9
$DIMASSOC
280
    1
  9
$PROJECTNAME
  1

  9
$CAMERADISPLAY
290
    0
  9
$LENSLENGTH
 40
50
  9
$CAMERAHEIGHT
 40
0
  9
$STEPSPERSEC
 40
2
  9
$STEPSIZE
 40
50
  9
$3DDWFPREC
 40
2
  9
$PSOLWIDTH
 40
5
  9
$PSOLHEIGHT
 40
80
  9
$LOFTANG1
 40
1.570796326794897
  9
$LOFTANG2
 40
1.570796326794897
  9
$LOFTMAG1
 40
0
  9
$LOFTMAG2
 40
0
  9
$LOFTPARAM
 70
    7
  9
$LOFTNORMALS
280
    1
  9
$LATITUDE
 40
1
  9
$LONGITUDE
 40
1
  9
$NORTHDIRECTION
 40
0
  9
$TIMEZONE
 70
-8000
  9
$LIGHTGLYPHDISPLAY
280
    1
  9
$TILEMODELIGHTSYNCH
280
    1
  9
$SOLIDHIST
280
    1
  9
$SHOWHIST
280
    1
  9
$DWFFRAME
280
    2
  9
$DGNFRAME
280
    0
  9
$REALWORLDSCALE
290
    1
  9
$INTERFERECOLOR
 62
    1
  9
$CSHADOW
280
    0
  9
$SHADOWPLANELOCATION
 40
0
  0
ENDSEC
  0
SECTION
  2
CLASSES
  0
ENDSEC
  0
SECTION
  2
TABLES
  0
TABLE
  2
VPORT
  5
8
330
0
100
AcDbSymbolTable
 70
    1
  0
VPORT
  5
31
330
2
100
AcDbSymbolTableRecord
100
AcDbViewportTableRecord
  2
*ACTIVE
 70
    0
 10
0
 20
0
 11
1
 21
1
 12
88.85069278828459
 22
-39.33745259372817
 13
0
 23
0
 14
10
 24
10
 15
10
 25
10
 16
0
 26
0
 36
1
 17
0
 27
0
 37
0
 40
60.25137395227256
 41
1.895111111111111
 42
50
 43
0
 44
0
 50
0
 51
0
 71
    0
 72
  100
 73
    1
 74
    3
 75
    0
 76
    1
 77
    0
 78
    0
281
    0
 65
    1
110
0
120
0
130
0
111
1
121
0
131
0
112
0
122
1
132
0
 79
    0
146
0
348
10020
 60
    7
 61
    5
292
1
282
    1
141
0
142
0
 63
  250
421
3358443
  0
ENDTAB
  0
TABLE
  2
LTYPE
  5
5
330
0
100
AcDbSymbolTable
 70
    4
  0
LTYPE
  5
14
330
5
100
AcDbSymbolTableRecord
100
AcDbLinetypeTableRecord
  2
ByBlock
 70
    0
  3

 72
   65
 73
    0
 40
0
  0
LTYPE
  5
15
330
5
100
AcDbSymbolTableRecord
100
AcDbLinetypeTableRecord
  2
ByLayer
 70
    0
  3

 72
   65
 73
    0
 40
0
  0
LTYPE
  5
16
330
5
100
AcDbSymbolTableRecord
100
AcDbLinetypeTableRecord
  2
Continuous
 70
    0
  3
Solid line
 72
   65
 73
    0
 40
0
  0
LTYPE
  5
32
330
5
100
AcDbSymbolTableRecord
100
AcDbLinetypeTableRecord
  2
DOT
 70
    0
  3
Dot . . . . . . . . . . . . . . . . . . . . . .
 72
   65
 73
    2
 40
6.35
 49
0
 74
    0
 49
-6.35
 74
    0
  0
LTYPE
  5
33
330
5
100
AcDbSymbolTableRecord
100
AcDbLinetypeTableRecord
  2
DOTTINY
 70
    0
  3
Dot (.15x) .....................................
 72
   65
 73
    2
 40
0.9525
 49
0
 74
    0
 49
-0.9525
 74
    0
  0
LTYPE
  5
34
330
5
100
AcDbSymbolTableRecord
100
AcDbLinetypeTableRecord
  2
DOT2
 70
    0
  3
Dot (.5x) .....................................
 72
   65
 73
    2
 40
3.175
 49
0
 74
    0
 49
-3.175
 74
    0
  0
LTYPE
  5
35
330
5
100
AcDbSymbolTableRecord
100
AcDbLinetypeTableRecord
  2
DOTX2
 70
    0
  3
Dot (2x) .  .  .  .  .  .  .  .  .  .  .  .  .
 72
   65
 73
    2
 40
12.7
 49
0
 74
    0
 49
-12.7
 74
    0
  0
LTYPE
  5
36
330
5
100
AcDbSymbolTableRecord
100
AcDbLinetypeTableRecord
  2
DASHED
 70
    0
  3
Dashed _ _ _ _ _ _ _ _ _ _ _ _ _ _ _ _ _
 72
   65
 73
    2
 40
19.05
 49
12.7
 74
    0
 49
-6.35
 74
    0
  0
LTYPE
  5
37
330
5
100
AcDbSymbolTableRecord
100
AcDbLinetypeTableRecord
  2
DASHEDTINY
 70
    0
  3
Dashed (.15x) _ _ _ _ _ _ _ _ _ _ _ _ _ _ _ _ _
 72
   65
 73
    2
 40
2.8575
 49
1.905
 74
    0
 49
-0.9525
 74
    0
  0
LTYPE
  5
38
330
5
100
AcDbSymbolTableRecord
100
AcDbLinetypeTableRecord
  2
DASHED2
 70
    0
  3
Dashed (.5x) _ _ _ _ _ _ _ _ _ _ _ _ _ _ _ _ _
 72
   65
 73
    2
 40
9.524999999999999
 49
6.35
 74
    0
 49
-3.175
 74
    0
  0
LTYPE
  5
39
330
5
100
AcDbSymbolTableRecord
100
AcDbLinetypeTableRecord
  2
DASHEDX2
 70
    0
  3
Dashed (2x) ____  ____  ____  ____  ____  ___
 72
   65
 73
    2
 40
38.09999999999999
 49
25.4
 74
    0
 49
-12.7
 74
    0
  0
LTYPE
  5
3A
330
5
100
AcDbSymbolTableRecord
100
AcDbLinetypeTableRecord
  2
DASHDOT
 70
    0
  3
Dash dot __ . __ . __ . __ . __ . __ . __ . __
 72
   65
 73
    4
 40
25.4
 49
12.7
 74
    0
 49
-6.35
 74
    0
 49
0
 74
    0
 49
-6.35
 74
    0
  0
LTYPE
  5
3B
330
5
100
AcDbSymbolTableRecord
100
AcDbLinetypeTableRecord
  2
DASHDOTTINY
 70
    0
  3
Dash dot (.15x) _._._._._._._._._._._._._._._.
 72
   65
 73
    4
 40
3.81
 49
1.905
 74
    0
 49
-0.9525
 74
    0
 49
0
 74
    0
 49
-0.9525
 74
    0
  0
LTYPE
  5
3C
330
5
100
AcDbSymbolTableRecord
100
AcDbLinetypeTableRecord
  2
DASHDOT2
 70
    0
  3
Dash dot (.5x) _._._._._._._._._._._._._._._.
 72
   65
 73
    4
 40
12.7
 49
6.35
 74
    0
 49
-3.175
 74
    0
 49
0
 74
    0
 49
-3.175
 74
    0
  0
LTYPE
  5
3D
330
5
100
AcDbSymbolTableRecord
100
AcDbLinetypeTableRecord
  2
DASHDOTX2
 70
    0
  3
Dash dot (2x) ____  .  ____  .  ____  .  ___
 72
   65
 73
    4
 40
50.8
 49
25.4
 74
    0
 49
-12.7
 74
    0
 49
0
 74
    0
 49
-12.7
 74
    0
  0
LTYPE
  5
3E
330
5
100
AcDbSymbolTableRecord
100
AcDbLinetypeTableRecord
  2
DIVIDE
 70
    0
  3
Divide ____ . . ____ . . ____ . . ____ . . ____
 72
   65
 73
    6
 40
31.75
 49
12.7
 74
    0
 49
-6.35
 74
    0
 49
0
 74
    0
 49
-6.35
 74
    0
 49
0
 74
    0
 49
-6.35
 74
    0
  0
LTYPE
  5
3F
330
5
100
AcDbSymbolTableRecord
100
AcDbLinetypeTableRecord
  2
DIVIDETINY
 70
    0
  3
Divide (.15x) __..__..__..__..__..__..__..__.._
 72
   65
 73
    6
 40
4.7625
 49
1.905
 74
    0
 49
-0.9525
 74
    0
 49
0
 74
    0
 49
-0.9525
 74
    0
 49
0
 74
    0
 49
-0.9525
 74
    0
  0
LTYPE
  5
40
330
5
100
AcDbSymbolTableRecord
100
AcDbLinetypeTableRecord
  2
DIVIDE2
 70
    0
  3
Divide (.5x) __..__..__..__..__..__..__..__.._
 72
   65
 73
    6
 40
15.875
 49
6.35
 74
    0
 49
-3.175
 74
    0
 49
0
 74
    0
 49
-3.175
 74
    0
 49
0
 74
    0
 49
-3.175
 74
    0
  0
LTYPE
  5
41
330
5
100
AcDbSymbolTableRecord
100
AcDbLinetypeTableRecord
  2
DIVIDEX2
 70
    0
  3
Divide (2x) ________  .  .  ________  .  .  _
 72
   65
 73
    6
 40
63.5
 49
25.4
 74
    0
 49
-12.7
 74
    0
 49
0
 74
    0
 49
-12.7
 74
    0
 49
0
 74
    0
 49
-12.7
 74
    0
  0
LTYPE
  5
42
330
5
100
AcDbSymbolTableRecord
100
AcDbLinetypeTableRecord
  2
BORDER
 70
    0
  3
Border __ __ . __ __ . __ __ . __ __ . __ __ .
 72
   65
 73
    6
 40
44.45
 49
12.7
 74
    0
 49
-6.35
 74
    0
 49
12.7
 74
    0
 49
-6.35
 74
    0
 49
0
 74
    0
 49
-6.35
 74
    0
  0
LTYPE
  5
43
330
5
100
AcDbSymbolTableRecord
100
AcDbLinetypeTableRecord
  2
BORDERTINY
 70
    0
  3
Border (.15x) __.__.__.__.__.__.__.__.__.__.__.
 72
   65
 73
    6
 40
6.6675
 49
1.905
 74
    0
 49
-0.9525
 74
    0
 49
1.905
 74
    0
 49
-0.9525
 74
    0
 49
0
 74
    0
 49
-0.9525
 74
    0
  0
LTYPE
  5
44
330
5
100
AcDbSymbolTableRecord
100
AcDbLinetypeTableRecord
  2
BORDER2
 70
    0
  3
Border (.5x) __.__.__.__.__.__.__.__.__.__.__.
 72
   65
 73
    6
 40
22.225
 49
6.35
 74
    0
 49
-3.175
 74
    0
 49
6.35
 74
    0
 49
-3.175
 74
    0
 49
0
 74
    0
 49
-3.175
 74
    0
  0
LTYPE
  5
45
330
5
100
AcDbSymbolTableRecord
100
AcDbLinetypeTableRecord
  2
BORDERX2
 70
    0
  3
Border (2x) ____  ____  .  ____  ____  .  ___
 72
   65
 73
    6
 40
88.89999999999999
 49
25.4
 74
    0
 49
-12.7
 74
    0
 49
25.4
 74
    0
 49
-12.7
 74
    0
 49
0
 74
    0
 49
-12.7
 74
    0
  0
LTYPE
  5
46
330
5
100
AcDbSymbolTableRecord
100
AcDbLinetypeTableRecord
  2
CENTER
 70
    0
  3
Center ____ _ ____ _ ____ _ ____ _ ____ _ ____
 72
   65
 73
    4
 40
50.8
 49
31.75
 74
    0
 49
-6.35
 74
    0
 49
6.35
 74
    0
 49
-6.35
 74
    0
  0
LTYPE
  5
47
330
5
100
AcDbSymbolTableRecord
100
AcDbLinetypeTableRecord
  2
CENTERTINY
 70
    0
  3
Center (.15x) ___ _ ___ _ ___ _ ___ _ ___ _ ___
 72
   65
 73
    4
 40
7.62
 49
4.7625
 74
    0
 49
-0.9525
 74
    0
 49
0.9525
 74
    0
 49
-0.9525
 74
    0
  0
LTYPE
  5
48
330
5
100
AcDbSymbolTableRecord
100
AcDbLinetypeTableRecord
  2
CENTER2
 70
    0
  3
Center (.5x) ___ _ ___ _ ___ _ ___ _ ___ _ ___
 72
   65
 73
    4
 40
28.575
 49
19.05
 74
    0
 49
-3.175
 74
    0
 49
3.175
 74
    0
 49
-3.175
 74
    0
  0
LTYPE
  5
49
330
5
100
AcDbSymbolTableRecord
100
AcDbLinetypeTableRecord
  2
CENTERX2
 70
    0
  3
Center (2x) ________  __  ________  __  _____
 72
   65
 73
    4
 40
101.6
 49
63.5
 74
    0
 49
-12.7
 74
    0
 49
12.7
 74
    0
 49
-12.7
 74
    0
  0
ENDTAB
  0
TABLE
  2
LAYER
  5
2
330
0
100
AcDbSymbolTable
 70
    1
  0
LAYER
  5
10
330
2
100
AcDbSymbolTableRecord
100
AcDbLayerTableRecord
  2
0
 70
    0
 62
    7
  6
CONTINUOUS
370
    0
390
F
  0
LAYER
  5
4A
330
2
100
AcDbSymbolTableRecord
100
AcDbLayerTableRecord
  2
BLACK
 70
    0
 62
    7
  6
CONTINUOUS
370
   -3
390
F
  0
LAYER
  5
4B
330
2
100
AcDbSymbolTableRecord
100
AcDbLayerTableRecord
  2
BLUE1
 70
    0
 62
  178
  6
CONTINUOUS
370
   -3
390
F
  0
LAYER
  5
4C
330
2
100
AcDbSymbolTableRecord
100
AcDbLayerTableRecord
  2
BLUE2
 70
    0
 62
    5
  6
CONTINUOUS
370
   -3
390
F
  0
LAYER
  5
4D
330
2
100
AcDbSymbolTableRecord
100
AcDbLayerTableRecord
  2
BLUE3
 70
    0
 62
  171
  6
CONTINUOUS
370
   -3
390
F
  0
LAYER
  5
4E
330
2
100
AcDbSymbolTableRecord
100
AcDbLayerTableRecord
  2
BLUE4
 70
    0
 62
    5
  6
CONTINUOUS
370
   -3
390
F
  0
LAYER
  5
4F
330
2
100
AcDbSymbolTableRecord
100
AcDbLayerTableRecord
  2
BROWN1
 70
    0
 62
   58
  6
CONTINUOUS
370
   -3
390
F
  0
LAYER
  5
50
330
2
100
AcDbSymbolTableRecord
100
AcDbLayerTableRecord
  2
BROWN2
 70
    0
 62
   54
  6
CONTINUOUS
370
   -3
390
F
  0
LAYER
  5
51
330
2
100
AcDbSymbolTableRecord
100
AcDbLayerTableRecord
  2
Black
 70
    0
 62
    7
  6
CONTINUOUS
370
   -3
390
F
  0
LAYER
  5
52
330
2
100
AcDbSymbolTableRecord
100
AcDbLayerTableRecord
  2
CYAN1
 70
    0
 62
  138
  6
CONTINUOUS
370
   -3
390
F
  0
LAYER
  5
53
330
2
100
AcDbSymbolTableRecord
100
AcDbLayerTableRecord
  2
CYAN2
 70
    0
 62
    4
  6
CONTINUOUS
370
   -3
390
F
  0
LAYER
  5
54
330
2
100
AcDbSymbolTableRecord
100
AcDbLayerTableRecord
  2
CYAN3
 70
    0
 62
  131
  6
CONTINUOUS
370
   -3
390
F
  0
LAYER
  5
55
330
2
100
AcDbSymbolTableRecord
100
AcDbLayerTableRecord
  2
CYAN4
 70
    0
 62
    4
  6
CONTINUOUS
370
   -3
390
F
  0
LAYER
  5
56
330
2
100
AcDbSymbolTableRecord
100
AcDbLayerTableRecord
  2
GRAY1
 70
    0
 62
  251
  6
CONTINUOUS
370
   -3
390
F
  0
LAYER
  5
57
330
2
100
AcDbSymbolTableRecord
100
AcDbLayerTableRecord
  2
GRAY2
 70
    0
 62
    8
  6
CONTINUOUS
370
   -3
390
F
  0
LAYER
  5
58
330
2
100
AcDbSymbolTableRecord
100
AcDbLayerTableRecord
  2
GRAY3
 70
    0
 62
    9
  6
CONTINUOUS
370
   -3
390
F
  0
LAYER
  5
59
330
2
100
AcDbSymbolTableRecord
100
AcDbLayerTableRecord
  2
GREEN1
 70
    0
 62
   98
  6
CONTINUOUS
370
   -3
390
F
  0
LAYER
  5
5A
330
2
100
AcDbSymbolTableRecord
100
AcDbLayerTableRecord
  2
GREEN2
 70
    0
 62
    3
  6
CONTINUOUS
370
   -3
390
F
  0
LAYER
  5
5B
330
2
100
AcDbSymbolTableRecord
100
AcDbLayerTableRecord
  2
GREEN3
 70
    0
 62
   91
  6
CONTINUOUS
370
   -3
390
F
  0
LAYER
  5
5C
330
2
100
AcDbSymbolTableRecord
100
AcDbLayerTableRecord
  2
GREEN4
 70
    0
 62
    3
  6
CONTINUOUS
370
   -3
390
F
  0
LAYER
  5
5D
330
2
100
AcDbSymbolTableRecord
100
AcDbLayerTableRecord
  2
LYELLOW
 70
    0
 62
   51
  6
CONTINUOUS
370
   -3
390
F
  0
LAYER
  5
5E
330
2
100
AcDbSymbolTableRecord
100
AcDbLayerTableRecord
  2
MAGENTA1
 70
    0
 62
  228
  6
CONTINUOUS
370
   -3
390
F
  0
LAYER
  5
5F
330
2
100
AcDbSymbolTableRecord
100
AcDbLayerTableRecord
  2
MAGENTA2
 70
    0
 62
    6
  6
CONTINUOUS
370
   -3
390
F
  0
LAYER
  5
60
330
2
100
AcDbSymbolTableRecord
100
AcDbLayerTableRecord
  2
MAGENTA3
 70
    0
 62
  221
  6
CONTINUOUS
370
   -3
390
F
  0
LAYER
  5
61
330
2
100
AcDbSymbolTableRecord
100
AcDbLayerTableRecord
  2
MAGENTA4
 70
    0
 62
    6
  6
CONTINUOUS
370
   -3
390
F
  0
LAYER
  5
62
330
2
100
AcDbSymbolTableRecord
100
AcDbLayerTableRecord
  2
RED1
 70
    0
 62
   18
  6
CONTINUOUS
370
   -3
390
F
  0
LAYER
  5
63
330
2
100
AcDbSymbolTableRecord
100
AcDbLayerTableRecord
  2
RED2
 70
    0
 62
    1
  6
CONTINUOUS
370
   -3
390
F
  0
LAYER
  5
64
330
2
100
AcDbSymbolTableRecord
100
AcDbLayerTableRecord
  2
RED3
 70
    0
 62
   11
  6
CONTINUOUS
370
   -3
390
F
  0
LAYER
  5
65
330
2
100
AcDbSymbolTableRecord
100
AcDbLayerTableRecord
  2
RED4
 70
    0
 62
    1
  6
CONTINUOUS
370
   -3
390
F
  0
LAYER
  5
66
330
2
100
AcDbSymbolTableRecord
100
AcDbLayerTableRecord
  2
WHITE
 70
    0
 62
    7
  6
CONTINUOUS
370
   -3
390
F
  0
LAYER
  5
67
330
2
100
AcDbSymbolTableRecord
100
AcDbLayerTableRecord
  2
YELLOW3
 70
    0
 62
    2
  6
CONTINUOUS
370
   -3
390
F
  0
LAYER
  5
68
330
2
100
AcDbSymbolTableRecord
100
AcDbLayerTableRecord
  2
YELLOW4
 70
    0
 62
    2
  6
CONTINUOUS
370
   -3
390
F
  0
ENDTAB
  0
TABLE
  2
STYLE
  5
3
330
0
100
AcDbSymbolTable
 70
    3
  0
STYLE
  5
69
330
2
100
AcDbSymbolTableRecord
100
AcDbTextStyleTableRecord
  2
Standard
 70
    0
 40
0
 41
1
 50
0
 71
    0
 42
1
  3
txt
  4

  0
ENDTAB
  0
TABLE
  2
VIEW
  5
6
330
0
100
AcDbSymbolTable
 70
    0
  0
ENDTAB
  0
TABLE
  2
UCS
  5
7
330
0
100
AcDbSymbolTable
 70
    0
  0
ENDTAB
  0
TABLE
  2
APPID
  5
9
330
0
100
AcDbSymbolTable
 70
    1
  0
APPID
  5
12
330
9
100
AcDbSymbolTableRecord
100
AcDbRegAppTableRecord
  2
ACAD
 70
    0
  0
APPID
  5
6A
330
9
100
AcDbSymbolTableRecord
100
AcDbRegAppTableRecord
  2
LibreCad
 70
    0
  0
ENDTAB
  0
TABLE
  2
DIMSTYLE
  5
A
330
0
100
AcDbSymbolTable
 70
    1
100
AcDbDimStyleTable
 71
    1
  0
DIMSTYLE
105
6B
330
A
100
AcDbSymbolTableRecord
100
AcDbDimStyleTableRecord
  2
Standard
 70
    0
 40
1
 41
2.5
 42
0.625
 43
0.38
 44
1.25
 45
0
 46
0
 47
0
 48
0
 49
1
140
2.5
141
0.09
142
2.5
143
25.4
144
1
145
0
146
1
147
0.625
148
0
 71
    0
 72
    0
 73
    0
 74
    1
 75
    0
 76
    0
 77
    0
 78
    1
 79
    0
170
    0
171
    2
172
    0
173
    0
174
    0
175
    0
176
    0
177
    0
178
    0
179
    0
271
    2
272
    4
273
    2
274
    2
275
    0
276
    0
277
    2
278
    0
279
    0
280
    0
281
    0
282
    0
283
    1
284
    0
285
    0
286
    0
288
    0
289
    3
340
standard
341

371
   -2
372
   -2
  0
ENDTAB
  0
TABLE
  2
BLOCK_RECORD
  5
1
330
0
100
AcDbSymbolTable
 70
    2
  0
BLOCK_RECORD
  5
1F
330
1
100
AcDbSymbolTableRecord
100
AcDbBlockTableRecord
  2
*Model_Space
 70
    0
280
    1
281
    0
  0
BLOCK_RECORD
  5
1E
330
1
100
AcDbSymbolTableRecord
100
AcDbBlockTableRecord
  2
*Paper_Space
 70
    0
280
    1
281
    0
  0
ENDTAB
  0
ENDSEC
  0
SECTION
  2
BLOCKS
  0
BLOCK
  5
20
330
1F
100
AcDbEntity
  8
0
100
AcDbBlockBegin
  2
*Model_Space
 70
    0
 10
0
 20
0
 30
0
  3
*Model_Space
  1

  0
ENDBLK
  5
21
330
1F
100
AcDbEntity
  8
0
100
AcDbBlockEnd
  0
BLOCK
  5
1C
330
1B
100
AcDbEntity
  8
0
100
AcDbBlockBegin
  2
*Paper_Space
 70
    0
 10
0
 20
0
 30
0
  3
*Paper_Space
  1

  0
ENDBLK
  5
1D
330
1F
100
AcDbEntity
  8
0
100
AcDbBlockEnd
  0
ENDSEC
  0
SECTION
  2
ENTITIES
  0
LINE
  5
6C
100
AcDbEntity
  8
Black
  6
ByLayer
 62
  256
370
   -1
100
AcDbLine
 10
148.133
 20
-100.606
 11
148.269
 21
-100.685
  0
LINE
  5
6D
100
AcDbEntity
  8
Black
  6
ByLayer
 62
  256
370
   -1
100
AcDbLine
 10
148.269
 20
-100.685
 11
148.37
 21
-100.806
  0
LINE
  5
6E
100
AcDbEntity
  8
Black
  6
ByLayer
 62
  256
370
   -1
100
AcDbLine
 10
148.37
 20
-100.806
 11
148.424
 21
-100.954
  0
LINE
  5
6F
100
AcDbEntity
  8
Black
  6
ByLayer
 62
  256
370
   -1
100
AcDbLine
 10
148.424
 20
-100.954
 11
148.424
 21
-101.111
  0
LINE
  5
70
100
AcDbEntity
  8
Black
  6
ByLayer
 62
  256
370
   -1
100
AcDbLine
 10
148.424
 20
-101.111
 11
148.37
 21
-101.259
  0
LINE
  5
71
100
AcDbEntity
  8
Black
  6
ByLayer
 62
  256
370
   -1
100
AcDbLine
 10
148.37
 20
-101.259
 11
148.269
 21
-101.38
  0
LINE
  5
72
100
AcDbEntity
  8
Black
  6
ByLayer
 62
  256
370
   -1
100
AcDbLine
 10
148.269
 20
-101.38
 11
148.133
 21
-101.459
  0
LINE
  5
73
100
AcDbEntity
  8
Black
  6
ByLayer
 62
  256
370
   -1
100
AcDbLine
 10
148.133
 20
-101.459
 11
147.978
 21
-101.486
  0
LINE
  5
74
100
AcDbEntity
  8
Black
  6
ByLayer
 62
  256
370
   -1
100
AcDbLine
 10
147.978
 20
-101.486
 11
142.384
 21
-101.486
  0
LINE
  5
75
100
AcDbEntity
  8
Black
  6
ByLayer
 62
  256
370
   -1
100
AcDbLine
 10
142.384
 20
-101.486
 11
142.384
 21
-104.898
  0
LINE
  5
76
100
AcDbEntity
  8
Black
  6
ByLayer
 62
  256
370
   -1
100
AcDbLine
 10
142.384
 20
-104.898
 11
146.163
 21
-104.898
  0
LINE
  5
77
100
AcDbEntity
  8
Black
  6
ByLayer
 62
  256
370
   -1
100
AcDbLine
 10
146.163
 20
-104.898
 11
146.319
 21
-104.926
  0
LINE
  5
78
100
AcDbEntity
  8
Black
  6
ByLayer
 62
  256
370
   -1
100
AcDbLine
 10
146.319
 20
-104.926
 11
146.455
 21
-105.005
  0
LINE
  5
79
100
AcDbEntity
  8
Black
  6
ByLayer
 62
  256
370
   -1
100
AcDbLine
 10
146.455
 20
-105.005
 11
146.556
 21
-105.125
  0
LINE
  5
7A
100
AcDbEntity
  8
Black
  6
ByLayer
 62
  256
370
   -1
100
AcDbLine
 10
146.556
 20
-105.125
 11
146.61
 21
-105.273
  0
LINE
  5
7B
100
AcDbEntity
  8
Black
  6
ByLayer
 62
  256
370
   -1
100
AcDbLine
 10
146.61
 20
-105.273
 11
146.61
 21
-105.431
  0
LINE
  5
7C
100
AcDbEntity
  8
Black
  6
ByLayer
 62
  256
370
   -1
100
AcDbLine
 10
146.61
 20
-105.431
 11
146.556
 21
-105.579
  0
LINE
  5
7D
100
AcDbEntity
  8
Black
  6
ByLayer
 62
  256
370
   -1
100
AcDbLine
 10
146.556
 20
-105.579
 11
146.455
 21
-105.699
  0
LINE
  5
7E
100
AcDbEntity
  8
Black
  6
ByLayer
 62
  256
370
   -1
100
AcDbLine
 10
146.455
 20
-105.699
 11
146.319
 21
-105.778
  0
LINE
  5
7F
100
AcDbEntity
  8
Black
  6
ByLayer
 62
  256
370
   -1
100
AcDbLine
 10
146.319
 20
-105.778
 11
146.163
 21
-105.806
  0
LINE
  5
80
100
AcDbEntity
  8
Black
  6
ByLayer
 62
  256
370
   -1
100
AcDbLine
 10
146.163
 20
-105.806
 11
142.384
 21
-105.806
  0
LINE
  5
81
100
AcDbEntity
  8
Black
  6
ByLayer
 62
  256
370
   -1
100
AcDbLine
 10
142.384
 20
-105.806
 11
142.384
 21
-109.65
  0
LINE
  5
82
100
AcDbEntity
  8
Black
  6
ByLayer
 62
  256
370
   -1
100
AcDbLine
 10
142.384
 20
-109.65
 11
147.978
 21
-109.65
  0
LINE
  5
83
100
AcDbEntity
  8
Black
  6
ByLayer
 62
  256
370
   -1
100
AcDbLine
 10
147.978
 20
-109.65
 11
148.133
 21
-109.678
  0
LINE
  5
84
100
AcDbEntity
  8
Black
  6
ByLayer
 62
  256
370
   -1
100
AcDbLine
 10
148.133
 20
-109.678
 11
148.269
 21
-109.756
  0
LINE
  5
85
100
AcDbEntity
  8
Black
  6
ByLayer
 62
  256
370
   -1
100
AcDbLine
 10
148.269
 20
-109.756
 11
148.37
 21
-109.877
  0
LINE
  5
86
100
AcDbEntity
  8
Black
  6
ByLayer
 62
  256
370
   -1
100
AcDbLine
 10
148.37
 20
-109.877
 11
148.424
 21
-110.025
  0
LINE
  5
87
100
AcDbEntity
  8
Black
  6
ByLayer
 62
  256
370
   -1
100
AcDbLine
 10
148.424
 20
-110.025
 11
148.424
 21
-110.183
  0
LINE
  5
88
100
AcDbEntity
  8
Black
  6
ByLayer
 62
  256
370
   -1
100
AcDbLine
 10
148.424
 20
-110.183
 11
148.37
 21
-110.331
  0
LINE
  5
89
100
AcDbEntity
  8
Black
  6
ByLayer
 62
  256
370
   -1
100
AcDbLine
 10
148.37
 20
-110.331
 11
148.269
 21
-110.451
  0
LINE
  5
8A
100
AcDbEntity
  8
Black
  6
ByLayer
 62
  256
370
   -1
100
AcDbLine
 10
148.269
 20
-110.451
 11
148.133
 21
-110.53
  0
LINE
  5
8B
100
AcDbEntity
  8
Black
  6
ByLayer
 62
  256
370
   -1
100
AcDbLine
 10
148.133
 20
-110.53
 11
147.978
 21
-110.557
  0
LINE
  5
8C
100
AcDbEntity
  8
Black
  6
ByLayer
 62
  256
370
   -1
100
AcDbLine
 10
147.978
 20
-110.557
 11
141.93
 21
-110.557
  0
LINE
  5
8D
100
AcDbEntity
  8
Black
  6
ByLayer
 62
  256
370
   -1
100
AcDbLine
 10
141.93
 20
-110.557
 11
141.891
 21
-110.55
  0
LINE
  5
8E
100
AcDbEntity
  8
Black
  6
ByLayer
 62
  256
370
   -1
100
AcDbLine
 10
141.891
 20
-110.55
 11
141.851
 21
-110.55
  0
LINE
  5
8F
100
AcDbEntity
  8
Black
  6
ByLayer
 62
  256
370
   -1
100
AcDbLine
 10
141.851
 20
-110.55
 11
141.814
 21
-110.537
  0
LINE
  5
90
100
AcDbEntity
  8
Black
  6
ByLayer
 62
  256
370
   -1
100
AcDbLine
 10
141.814
 20
-110.537
 11
141.775
 21
-110.53
  0
LINE
  5
91
100
AcDbEntity
  8
Black
  6
ByLayer
 62
  256
370
   -1
100
AcDbLine
 10
141.775
 20
-110.53
 11
141.741
 21
-110.51
  0
LINE
  5
92
100
AcDbEntity
  8
Black
  6
ByLayer
 62
  256
370
   -1
100
AcDbLine
 10
141.741
 20
-110.51
 11
141.703
 21
-110.497
  0
LINE
  5
93
100
AcDbEntity
  8
Black
  6
ByLayer
 62
  256
370
   -1
100
AcDbLine
 10
141.703
 20
-110.497
 11
141.673
 21
-110.471
  0
LINE
  5
94
100
AcDbEntity
  8
Black
  6
ByLayer
 62
  256
370
   -1
100
AcDbLine
 10
141.673
 20
-110.471
 11
141.639
 21
-110.451
  0
LINE
  5
95
100
AcDbEntity
  8
Black
  6
ByLayer
 62
  256
370
   -1
100
AcDbLine
 10
141.639
 20
-110.451
 11
141.613
 21
-110.421
  0
LINE
  5
96
100
AcDbEntity
  8
Black
  6
ByLayer
 62
  256
370
   -1
100
AcDbLine
 10
141.613
 20
-110.421
 11
141.583
 21
-110.395
  0
LINE
  5
97
100
AcDbEntity
  8
Black
  6
ByLayer
 62
  256
370
   -1
100
AcDbLine
 10
141.583
 20
-110.395
 11
141.563
 21
-110.361
  0
LINE
  5
98
100
AcDbEntity
  8
Black
  6
ByLayer
 62
  256
370
   -1
100
AcDbLine
 10
141.563
 20
-110.361
 11
141.537
 21
-110.331
  0
LINE
  5
99
100
AcDbEntity
  8
Black
  6
ByLayer
 62
  256
370
   -1
100
AcDbLine
 10
141.537
 20
-110.331
 11
141.524
 21
-110.293
  0
LINE
  5
9A
100
AcDbEntity
  8
Black
  6
ByLayer
 62
  256
370
   -1
100
AcDbLine
 10
141.524
 20
-110.293
 11
141.504
 21
-110.259
  0
LINE
  5
9B
100
AcDbEntity
  8
Black
  6
ByLayer
 62
  256
370
   -1
100
AcDbLine
 10
141.504
 20
-110.259
 11
141.497
 21
-110.22
  0
LINE
  5
9C
100
AcDbEntity
  8
Black
  6
ByLayer
 62
  256
370
   -1
100
AcDbLine
 10
141.497
 20
-110.22
 11
141.483
 21
-110.183
  0
LINE
  5
9D
100
AcDbEntity
  8
Black
  6
ByLayer
 62
  256
370
   -1
100
AcDbLine
 10
141.483
 20
-110.183
 11
141.483
 21
-110.143
  0
LINE
  5
9E
100
AcDbEntity
  8
Black
  6
ByLayer
 62
  256
370
   -1
100
AcDbLine
 10
141.483
 20
-110.143
 11
141.476
 21
-110.104
  0
LINE
  5
9F
100
AcDbEntity
  8
Black
  6
ByLayer
 62
  256
370
   -1
100
AcDbLine
 10
141.476
 20
-110.104
 11
141.476
 21
-101.032
  0
LINE
  5
A0
100
AcDbEntity
  8
Black
  6
ByLayer
 62
  256
370
   -1
100
AcDbLine
 10
141.476
 20
-101.032
 11
141.483
 21
-100.993
  0
LINE
  5
A1
100
AcDbEntity
  8
Black
  6
ByLayer
 62
  256
370
   -1
100
AcDbLine
 10
141.483
 20
-100.993
 11
141.483
 21
-100.954
  0
LINE
  5
A2
100
AcDbEntity
  8
Black
  6
ByLayer
 62
  256
370
   -1
100
AcDbLine
 10
141.483
 20
-100.954
 11
141.497
 21
-100.916
  0
LINE
  5
A3
100
AcDbEntity
  8
Black
  6
ByLayer
 62
  256
370
   -1
100
AcDbLine
 10
141.497
 20
-100.916
 11
141.504
 21
-100.877
  0
LINE
  5
A4
100
AcDbEntity
  8
Black
  6
ByLayer
 62
  256
370
   -1
100
AcDbLine
 10
141.504
 20
-100.877
 11
141.524
 21
-100.843
  0
LINE
  5
A5
100
AcDbEntity
  8
Black
  6
ByLayer
 62
  256
370
   -1
100
AcDbLine
 10
141.524
 20
-100.843
 11
141.537
 21
-100.806
  0
LINE
  5
A6
100
AcDbEntity
  8
Black
  6
ByLayer
 62
  256
370
   -1
100
AcDbLine
 10
141.537
 20
-100.806
 11
141.563
 21
-100.775
  0
LINE
  5
A7
100
AcDbEntity
  8
Black
  6
ByLayer
 62
  256
370
   -1
100
AcDbLine
 10
141.563
 20
-100.775
 11
141.583
 21
-100.741
  0
LINE
  5
A8
100
AcDbEntity
  8
Black
  6
ByLayer
 62
  256
370
   -1
100
AcDbLine
 10
141.583
 20
-100.741
 11
141.613
 21
-100.715
  0
LINE
  5
A9
100
AcDbEntity
  8
Black
  6
ByLayer
 62
  256
370
   -1
100
AcDbLine
 10
141.613
 20
-100.715
 11
141.639
 21
-100.685
  0
LINE
  5
AA
100
AcDbEntity
  8
Black
  6
ByLayer
 62
  256
370
   -1
100
AcDbLine
 10
141.639
 20
-100.685
 11
141.673
 21
-100.665
  0
LINE
  5
AB
100
AcDbEntity
  8
Black
  6
ByLayer
 62
  256
370
   -1
100
AcDbLine
 10
141.673
 20
-100.665
 11
141.703
 21
-100.64
  0
LINE
  5
AC
100
AcDbEntity
  8
Black
  6
ByLayer
 62
  256
370
   -1
100
AcDbLine
 10
141.703
 20
-100.64
 11
141.741
 21
-100.626
  0
LINE
  5
AD
100
AcDbEntity
  8
Black
  6
ByLayer
 62
  256
370
   -1
100
AcDbLine
 10
141.741
 20
-100.626
 11
141.775
 21
-100.606
  0
LINE
  5
AE
100
AcDbEntity
  8
Black
  6
ByLayer
 62
  256
370
   -1
100
AcDbLine
 10
141.775
 20
-100.606
 11
141.814
 21
-100.599
  0
LINE
  5
AF
100
AcDbEntity
  8
Black
  6
ByLayer
 62
  256
370
   -1
100
AcDbLine
 10
141.814
 20
-100.599
 11
141.851
 21
-100.586
  0
LINE
  5
B0
100
AcDbEntity
  8
Black
  6
ByLayer
 62
  256
370
   -1
100
AcDbLine
 10
141.851
 20
-100.586
 11
141.891
 21
-100.586
  0
LINE
  5
B1
100
AcDbEntity
  8
Black
  6
ByLayer
 62
  256
370
   -1
100
AcDbLine
 10
141.891
 20
-100.586
 11
141.93
 21
-100.579
  0
LINE
  5
B2
100
AcDbEntity
  8
Black
  6
ByLayer
 62
  256
370
   -1
100
AcDbLine
 10
141.93
 20
-100.579
 11
147.978
 21
-100.579
  0
LINE
  5
B3
100
AcDbEntity
  8
Black
  6
ByLayer
 62
  256
370
   -1
100
AcDbLine
 10
147.978
 20
-100.579
 11
148.133
 21
-100.606
  0
LINE
  5
B4
100
AcDbEntity
  8
Black
  6
ByLayer
 62
  256
370
   -1
100
AcDbLine
 10
134.749
 20
-100.592
 11
134.825
 21
-100.605
  0
LINE
  5
B5
100
AcDbEntity
  8
Black
  6
ByLayer
 62
  256
370
   -1
100
AcDbLine
 10
134.825
 20
-100.605
 11
136.035
 21
-101.037
  0
LINE
  5
B6
100
AcDbEntity
  8
Black
  6
ByLayer
 62
  256
370
   -1
100
AcDbLine
 10
136.035
 20
-101.037
 11
136.172
 21
-101.115
  0
LINE
  5
B7
100
AcDbEntity
  8
Black
  6
ByLayer
 62
  256
370
   -1
100
AcDbLine
 10
136.172
 20
-101.115
 11
136.274
 21
-101.235
  0
LINE
  5
B8
100
AcDbEntity
  8
Black
  6
ByLayer
 62
  256
370
   -1
100
AcDbLine
 10
136.274
 20
-101.235
 11
136.329
 21
-101.383
  0
LINE
  5
B9
100
AcDbEntity
  8
Black
  6
ByLayer
 62
  256
370
   -1
100
AcDbLine
 10
136.329
 20
-101.383
 11
136.33
 21
-101.54
  0
LINE
  5
BA
100
AcDbEntity
  8
Black
  6
ByLayer
 62
  256
370
   -1
100
AcDbLine
 10
136.33
 20
-101.54
 11
136.277
 21
-101.689
  0
LINE
  5
BB
100
AcDbEntity
  8
Black
  6
ByLayer
 62
  256
370
   -1
100
AcDbLine
 10
136.277
 20
-101.689
 11
136.176
 21
-101.81
  0
LINE
  5
BC
100
AcDbEntity
  8
Black
  6
ByLayer
 62
  256
370
   -1
100
AcDbLine
 10
136.176
 20
-101.81
 11
136.04
 21
-101.89
  0
LINE
  5
BD
100
AcDbEntity
  8
Black
  6
ByLayer
 62
  256
370
   -1
100
AcDbLine
 10
136.04
 20
-101.89
 11
135.885
 21
-101.918
  0
LINE
  5
BE
100
AcDbEntity
  8
Black
  6
ByLayer
 62
  256
370
   -1
100
AcDbLine
 10
135.885
 20
-101.918
 11
135.73
 21
-101.891
  0
LINE
  5
BF
100
AcDbEntity
  8
Black
  6
ByLayer
 62
  256
370
   -1
100
AcDbLine
 10
135.73
 20
-101.891
 11
134.594
 21
-101.486
  0
LINE
  5
C0
100
AcDbEntity
  8
Black
  6
ByLayer
 62
  256
370
   -1
100
AcDbLine
 10
134.594
 20
-101.486
 11
132.912
 21
-101.486
  0
LINE
  5
C1
100
AcDbEntity
  8
Black
  6
ByLayer
 62
  256
370
   -1
100
AcDbLine
 10
132.912
 20
-101.486
 11
131.236
 21
-101.885
  0
LINE
  5
C2
100
AcDbEntity
  8
Black
  6
ByLayer
 62
  256
370
   -1
100
AcDbLine
 10
131.236
 20
-101.885
 11
130.162
 21
-102.652
  0
LINE
  5
C3
100
AcDbEntity
  8
Black
  6
ByLayer
 62
  256
370
   -1
100
AcDbLine
 10
130.162
 20
-102.652
 11
129.638
 21
-103.401
  0
LINE
  5
C4
100
AcDbEntity
  8
Black
  6
ByLayer
 62
  256
370
   -1
100
AcDbLine
 10
129.638
 20
-103.401
 11
129.079
 21
-104.997
  0
LINE
  5
C5
100
AcDbEntity
  8
Black
  6
ByLayer
 62
  256
370
   -1
100
AcDbLine
 10
129.079
 20
-104.997
 11
129.079
 21
-106.139
  0
LINE
  5
C6
100
AcDbEntity
  8
Black
  6
ByLayer
 62
  256
370
   -1
100
AcDbLine
 10
129.079
 20
-106.139
 11
129.638
 21
-107.735
  0
LINE
  5
C7
100
AcDbEntity
  8
Black
  6
ByLayer
 62
  256
370
   -1
100
AcDbLine
 10
129.638
 20
-107.735
 11
130.162
 21
-108.484
  0
LINE
  5
C8
100
AcDbEntity
  8
Black
  6
ByLayer
 62
  256
370
   -1
100
AcDbLine
 10
130.162
 20
-108.484
 11
131.236
 21
-109.251
  0
LINE
  5
C9
100
AcDbEntity
  8
Black
  6
ByLayer
 62
  256
370
   -1
100
AcDbLine
 10
131.236
 20
-109.251
 11
132.912
 21
-109.65
  0
LINE
  5
CA
100
AcDbEntity
  8
Black
  6
ByLayer
 62
  256
370
   -1
100
AcDbLine
 10
132.912
 20
-109.65
 11
134.015
 21
-109.65
  0
LINE
  5
CB
100
AcDbEntity
  8
Black
  6
ByLayer
 62
  256
370
   -1
100
AcDbLine
 10
134.015
 20
-109.65
 11
135.691
 21
-109.251
  0
LINE
  5
CC
100
AcDbEntity
  8
Black
  6
ByLayer
 62
  256
370
   -1
100
AcDbLine
 10
135.691
 20
-109.251
 11
136.034
 21
-109.006
  0
LINE
  5
CD
100
AcDbEntity
  8
Black
  6
ByLayer
 62
  256
370
   -1
100
AcDbLine
 10
136.034
 20
-109.006
 11
136.034
 21
-106.67
  0
LINE
  5
CE
100
AcDbEntity
  8
Black
  6
ByLayer
 62
  256
370
   -1
100
AcDbLine
 10
136.034
 20
-106.67
 11
134.068
 21
-106.67
  0
LINE
  5
CF
100
AcDbEntity
  8
Black
  6
ByLayer
 62
  256
370
   -1
100
AcDbLine
 10
134.068
 20
-106.67
 11
133.913
 21
-106.642
  0
LINE
  5
D0
100
AcDbEntity
  8
Black
  6
ByLayer
 62
  256
370
   -1
100
AcDbLine
 10
133.913
 20
-106.642
 11
133.777
 21
-106.563
  0
LINE
  5
D1
100
AcDbEntity
  8
Black
  6
ByLayer
 62
  256
370
   -1
100
AcDbLine
 10
133.777
 20
-106.563
 11
133.675
 21
-106.443
  0
LINE
  5
D2
100
AcDbEntity
  8
Black
  6
ByLayer
 62
  256
370
   -1
100
AcDbLine
 10
133.675
 20
-106.443
 11
133.621
 21
-106.295
  0
LINE
  5
D3
100
AcDbEntity
  8
Black
  6
ByLayer
 62
  256
370
   -1
100
AcDbLine
 10
133.621
 20
-106.295
 11
133.621
 21
-106.137
  0
LINE
  5
D4
100
AcDbEntity
  8
Black
  6
ByLayer
 62
  256
370
   -1
100
AcDbLine
 10
133.621
 20
-106.137
 11
133.675
 21
-105.989
  0
LINE
  5
D5
100
AcDbEntity
  8
Black
  6
ByLayer
 62
  256
370
   -1
100
AcDbLine
 10
133.675
 20
-105.989
 11
133.777
 21
-105.869
  0
LINE
  5
D6
100
AcDbEntity
  8
Black
  6
ByLayer
 62
  256
370
   -1
100
AcDbLine
 10
133.777
 20
-105.869
 11
133.913
 21
-105.79
  0
LINE
  5
D7
100
AcDbEntity
  8
Black
  6
ByLayer
 62
  256
370
   -1
100
AcDbLine
 10
133.913
 20
-105.79
 11
134.068
 21
-105.762
  0
LINE
  5
D8
100
AcDbEntity
  8
Black
  6
ByLayer
 62
  256
370
   -1
100
AcDbLine
 10
134.068
 20
-105.762
 11
136.487
 21
-105.762
  0
LINE
  5
D9
100
AcDbEntity
  8
Black
  6
ByLayer
 62
  256
370
   -1
100
AcDbLine
 10
136.487
 20
-105.762
 11
136.526
 21
-105.769
  0
LINE
  5
DA
100
AcDbEntity
  8
Black
  6
ByLayer
 62
  256
370
   -1
100
AcDbLine
 10
136.526
 20
-105.769
 11
136.566
 21
-105.769
  0
LINE
  5
DB
100
AcDbEntity
  8
Black
  6
ByLayer
 62
  256
370
   -1
100
AcDbLine
 10
136.566
 20
-105.769
 11
136.603
 21
-105.783
  0
LINE
  5
DC
100
AcDbEntity
  8
Black
  6
ByLayer
 62
  256
370
   -1
100
AcDbLine
 10
136.603
 20
-105.783
 11
136.642
 21
-105.79
  0
LINE
  5
DD
100
AcDbEntity
  8
Black
  6
ByLayer
 62
  256
370
   -1
100
AcDbLine
 10
136.642
 20
-105.79
 11
136.677
 21
-105.81
  0
LINE
  5
DE
100
AcDbEntity
  8
Black
  6
ByLayer
 62
  256
370
   -1
100
AcDbLine
 10
136.677
 20
-105.81
 11
136.714
 21
-105.823
  0
LINE
  5
DF
100
AcDbEntity
  8
Black
  6
ByLayer
 62
  256
370
   -1
100
AcDbLine
 10
136.714
 20
-105.823
 11
136.744
 21
-105.849
  0
LINE
  5
E0
100
AcDbEntity
  8
Black
  6
ByLayer
 62
  256
370
   -1
100
AcDbLine
 10
136.744
 20
-105.849
 11
136.779
 21
-105.869
  0
LINE
  5
E1
100
AcDbEntity
  8
Black
  6
ByLayer
 62
  256
370
   -1
100
AcDbLine
 10
136.779
 20
-105.869
 11
136.804
 21
-105.899
  0
LINE
  5
E2
100
AcDbEntity
  8
Black
  6
ByLayer
 62
  256
370
   -1
100
AcDbLine
 10
136.804
 20
-105.899
 11
136.835
 21
-105.924
  0
LINE
  5
E3
100
AcDbEntity
  8
Black
  6
ByLayer
 62
  256
370
   -1
100
AcDbLine
 10
136.835
 20
-105.924
 11
136.855
 21
-105.959
  0
LINE
  5
E4
100
AcDbEntity
  8
Black
  6
ByLayer
 62
  256
370
   -1
100
AcDbLine
 10
136.855
 20
-105.959
 11
136.88
 21
-105.989
  0
LINE
  5
E5
100
AcDbEntity
  8
Black
  6
ByLayer
 62
  256
370
   -1
100
AcDbLine
 10
136.88
 20
-105.989
 11
136.894
 21
-106.026
  0
LINE
  5
E6
100
AcDbEntity
  8
Black
  6
ByLayer
 62
  256
370
   -1
100
AcDbLine
 10
136.894
 20
-106.026
 11
136.913
 21
-106.061
  0
LINE
  5
E7
100
AcDbEntity
  8
Black
  6
ByLayer
 62
  256
370
   -1
100
AcDbLine
 10
136.913
 20
-106.061
 11
136.92
 21
-106.1
  0
LINE
  5
E8
100
AcDbEntity
  8
Black
  6
ByLayer
 62
  256
370
   -1
100
AcDbLine
 10
136.92
 20
-106.1
 11
136.934
 21
-106.137
  0
LINE
  5
E9
100
AcDbEntity
  8
Black
  6
ByLayer
 62
  256
370
   -1
100
AcDbLine
 10
136.934
 20
-106.137
 11
136.934
 21
-106.177
  0
LINE
  5
EA
100
AcDbEntity
  8
Black
  6
ByLayer
 62
  256
370
   -1
100
AcDbLine
 10
136.934
 20
-106.177
 11
136.941
 21
-106.216
  0
LINE
  5
EB
100
AcDbEntity
  8
Black
  6
ByLayer
 62
  256
370
   -1
100
AcDbLine
 10
136.941
 20
-106.216
 11
136.941
 21
-109.24
  0
LINE
  5
EC
100
AcDbEntity
  8
Black
  6
ByLayer
 62
  256
370
   -1
100
AcDbLine
 10
136.941
 20
-109.24
 11
136.931
 21
-109.296
  0
LINE
  5
ED
100
AcDbEntity
  8
Black
  6
ByLayer
 62
  256
370
   -1
100
AcDbLine
 10
136.931
 20
-109.296
 11
136.926
 21
-109.353
  0
LINE
  5
EE
100
AcDbEntity
  8
Black
  6
ByLayer
 62
  256
370
   -1
100
AcDbLine
 10
136.926
 20
-109.353
 11
136.917
 21
-109.373
  0
LINE
  5
EF
100
AcDbEntity
  8
Black
  6
ByLayer
 62
  256
370
   -1
100
AcDbLine
 10
136.917
 20
-109.373
 11
136.913
 21
-109.395
  0
LINE
  5
F0
100
AcDbEntity
  8
Black
  6
ByLayer
 62
  256
370
   -1
100
AcDbLine
 10
136.913
 20
-109.395
 11
136.885
 21
-109.444
  0
LINE
  5
F1
100
AcDbEntity
  8
Black
  6
ByLayer
 62
  256
370
   -1
100
AcDbLine
 10
136.885
 20
-109.444
 11
136.861
 21
-109.496
  0
LINE
  5
F2
100
AcDbEntity
  8
Black
  6
ByLayer
 62
  256
370
   -1
100
AcDbLine
 10
136.861
 20
-109.496
 11
136.846
 21
-109.512
  0
LINE
  5
F3
100
AcDbEntity
  8
Black
  6
ByLayer
 62
  256
370
   -1
100
AcDbLine
 10
136.846
 20
-109.512
 11
136.835
 21
-109.531
  0
LINE
  5
F4
100
AcDbEntity
  8
Black
  6
ByLayer
 62
  256
370
   -1
100
AcDbLine
 10
136.835
 20
-109.531
 11
136.791
 21
-109.568
  0
LINE
  5
F5
100
AcDbEntity
  8
Black
  6
ByLayer
 62
  256
370
   -1
100
AcDbLine
 10
136.791
 20
-109.568
 11
136.751
 21
-109.609
  0
LINE
  5
F6
100
AcDbEntity
  8
Black
  6
ByLayer
 62
  256
370
   -1
100
AcDbLine
 10
136.751
 20
-109.609
 11
136.146
 21
-110.041
  0
LINE
  5
F7
100
AcDbEntity
  8
Black
  6
ByLayer
 62
  256
370
   -1
100
AcDbLine
 10
136.146
 20
-110.041
 11
136.138
 21
-110.045
  0
LINE
  5
F8
100
AcDbEntity
  8
Black
  6
ByLayer
 62
  256
370
   -1
100
AcDbLine
 10
136.138
 20
-110.045
 11
136.132
 21
-110.05
  0
LINE
  5
F9
100
AcDbEntity
  8
Black
  6
ByLayer
 62
  256
370
   -1
100
AcDbLine
 10
136.132
 20
-110.05
 11
136.067
 21
-110.078
  0
LINE
  5
FA
100
AcDbEntity
  8
Black
  6
ByLayer
 62
  256
370
   -1
100
AcDbLine
 10
136.067
 20
-110.078
 11
136.004
 21
-110.109
  0
LINE
  5
FB
100
AcDbEntity
  8
Black
  6
ByLayer
 62
  256
370
   -1
100
AcDbLine
 10
136.004
 20
-110.109
 11
135.995
 21
-110.11
  0
LINE
  5
FC
100
AcDbEntity
  8
Black
  6
ByLayer
 62
  256
370
   -1
100
AcDbLine
 10
135.995
 20
-110.11
 11
135.987
 21
-110.113
  0
LINE
  5
FD
100
AcDbEntity
  8
Black
  6
ByLayer
 62
  256
370
   -1
100
AcDbLine
 10
135.987
 20
-110.113
 11
134.173
 21
-110.545
  0
LINE
  5
FE
100
AcDbEntity
  8
Black
  6
ByLayer
 62
  256
370
   -1
100
AcDbLine
 10
134.173
 20
-110.545
 11
134.12
 21
-110.548
  0
LINE
  5
FF
100
AcDbEntity
  8
Black
  6
ByLayer
 62
  256
370
   -1
100
AcDbLine
 10
134.12
 20
-110.548
 11
134.068
 21
-110.557
  0
LINE
  5
100
100
AcDbEntity
  8
Black
  6
ByLayer
 62
  256
370
   -1
100
AcDbLine
 10
134.068
 20
-110.557
 11
132.859
 21
-110.557
  0
LINE
  5
101
100
AcDbEntity
  8
Black
  6
ByLayer
 62
  256
370
   -1
100
AcDbLine
 10
132.859
 20
-110.557
 11
132.806
 21
-110.548
  0
LINE
  5
102
100
AcDbEntity
  8
Black
  6
ByLayer
 62
  256
370
   -1
100
AcDbLine
 10
132.806
 20
-110.548
 11
132.754
 21
-110.545
  0
LINE
  5
103
100
AcDbEntity
  8
Black
  6
ByLayer
 62
  256
370
   -1
100
AcDbLine
 10
132.754
 20
-110.545
 11
130.939
 21
-110.113
  0
LINE
  5
104
100
AcDbEntity
  8
Black
  6
ByLayer
 62
  256
370
   -1
100
AcDbLine
 10
130.939
 20
-110.113
 11
130.931
 21
-110.11
  0
LINE
  5
105
100
AcDbEntity
  8
Black
  6
ByLayer
 62
  256
370
   -1
100
AcDbLine
 10
130.931
 20
-110.11
 11
130.923
 21
-110.109
  0
LINE
  5
106
100
AcDbEntity
  8
Black
  6
ByLayer
 62
  256
370
   -1
100
AcDbLine
 10
130.923
 20
-110.109
 11
130.859
 21
-110.078
  0
LINE
  5
107
100
AcDbEntity
  8
Black
  6
ByLayer
 62
  256
370
   -1
100
AcDbLine
 10
130.859
 20
-110.078
 11
130.795
 21
-110.05
  0
LINE
  5
108
100
AcDbEntity
  8
Black
  6
ByLayer
 62
  256
370
   -1
100
AcDbLine
 10
130.795
 20
-110.05
 11
130.788
 21
-110.045
  0
LINE
  5
109
100
AcDbEntity
  8
Black
  6
ByLayer
 62
  256
370
   -1
100
AcDbLine
 10
130.788
 20
-110.045
 11
130.781
 21
-110.041
  0
LINE
  5
10A
100
AcDbEntity
  8
Black
  6
ByLayer
 62
  256
370
   -1
100
AcDbLine
 10
130.781
 20
-110.041
 11
129.571
 21
-109.177
  0
LINE
  5
10B
100
AcDbEntity
  8
Black
  6
ByLayer
 62
  256
370
   -1
100
AcDbLine
 10
129.571
 20
-109.177
 11
129.517
 21
-109.122
  0
LINE
  5
10C
100
AcDbEntity
  8
Black
  6
ByLayer
 62
  256
370
   -1
100
AcDbLine
 10
129.517
 20
-109.122
 11
129.463
 21
-109.068
  0
LINE
  5
10D
100
AcDbEntity
  8
Black
  6
ByLayer
 62
  256
370
   -1
100
AcDbLine
 10
129.463
 20
-109.068
 11
128.858
 21
-108.204
  0
LINE
  5
10E
100
AcDbEntity
  8
Black
  6
ByLayer
 62
  256
370
   -1
100
AcDbLine
 10
128.858
 20
-108.204
 11
128.832
 21
-108.148
  0
LINE
  5
10F
100
AcDbEntity
  8
Black
  6
ByLayer
 62
  256
370
   -1
100
AcDbLine
 10
128.832
 20
-108.148
 11
128.802
 21
-108.094
  0
LINE
  5
110
100
AcDbEntity
  8
Black
  6
ByLayer
 62
  256
370
   -1
100
AcDbLine
 10
128.802
 20
-108.094
 11
128.197
 21
-106.366
  0
LINE
  5
111
100
AcDbEntity
  8
Black
  6
ByLayer
 62
  256
370
   -1
100
AcDbLine
 10
128.197
 20
-106.366
 11
128.185
 21
-106.291
  0
LINE
  5
112
100
AcDbEntity
  8
Black
  6
ByLayer
 62
  256
370
   -1
100
AcDbLine
 10
128.185
 20
-106.291
 11
128.172
 21
-106.216
  0
LINE
  5
113
100
AcDbEntity
  8
Black
  6
ByLayer
 62
  256
370
   -1
100
AcDbLine
 10
128.172
 20
-106.216
 11
128.172
 21
-104.92
  0
LINE
  5
114
100
AcDbEntity
  8
Black
  6
ByLayer
 62
  256
370
   -1
100
AcDbLine
 10
128.172
 20
-104.92
 11
128.185
 21
-104.845
  0
LINE
  5
115
100
AcDbEntity
  8
Black
  6
ByLayer
 62
  256
370
   -1
100
AcDbLine
 10
128.185
 20
-104.845
 11
128.197
 21
-104.77
  0
LINE
  5
116
100
AcDbEntity
  8
Black
  6
ByLayer
 62
  256
370
   -1
100
AcDbLine
 10
128.197
 20
-104.77
 11
128.802
 21
-103.042
  0
LINE
  5
117
100
AcDbEntity
  8
Black
  6
ByLayer
 62
  256
370
   -1
100
AcDbLine
 10
128.802
 20
-103.042
 11
128.832
 21
-102.988
  0
LINE
  5
118
100
AcDbEntity
  8
Black
  6
ByLayer
 62
  256
370
   -1
100
AcDbLine
 10
128.832
 20
-102.988
 11
128.858
 21
-102.932
  0
LINE
  5
119
100
AcDbEntity
  8
Black
  6
ByLayer
 62
  256
370
   -1
100
AcDbLine
 10
128.858
 20
-102.932
 11
129.463
 21
-102.068
  0
LINE
  5
11A
100
AcDbEntity
  8
Black
  6
ByLayer
 62
  256
370
   -1
100
AcDbLine
 10
129.463
 20
-102.068
 11
129.517
 21
-102.014
  0
LINE
  5
11B
100
AcDbEntity
  8
Black
  6
ByLayer
 62
  256
370
   -1
100
AcDbLine
 10
129.517
 20
-102.014
 11
129.571
 21
-101.959
  0
LINE
  5
11C
100
AcDbEntity
  8
Black
  6
ByLayer
 62
  256
370
   -1
100
AcDbLine
 10
129.571
 20
-101.959
 11
130.781
 21
-101.095
  0
LINE
  5
11D
100
AcDbEntity
  8
Black
  6
ByLayer
 62
  256
370
   -1
100
AcDbLine
 10
130.781
 20
-101.095
 11
130.788
 21
-101.091
  0
LINE
  5
11E
100
AcDbEntity
  8
Black
  6
ByLayer
 62
  256
370
   -1
100
AcDbLine
 10
130.788
 20
-101.091
 11
130.795
 21
-101.086
  0
LINE
  5
11F
100
AcDbEntity
  8
Black
  6
ByLayer
 62
  256
370
   -1
100
AcDbLine
 10
130.795
 20
-101.086
 11
130.859
 21
-101.058
  0
LINE
  5
120
100
AcDbEntity
  8
Black
  6
ByLayer
 62
  256
370
   -1
100
AcDbLine
 10
130.859
 20
-101.058
 11
130.923
 21
-101.027
  0
LINE
  5
121
100
AcDbEntity
  8
Black
  6
ByLayer
 62
  256
370
   -1
100
AcDbLine
 10
130.923
 20
-101.027
 11
130.931
 21
-101.026
  0
LINE
  5
122
100
AcDbEntity
  8
Black
  6
ByLayer
 62
  256
370
   -1
100
AcDbLine
 10
130.931
 20
-101.026
 11
130.939
 21
-101.023
  0
LINE
  5
123
100
AcDbEntity
  8
Black
  6
ByLayer
 62
  256
370
   -1
100
AcDbLine
 10
130.939
 20
-101.023
 11
132.754
 21
-100.591
  0
LINE
  5
124
100
AcDbEntity
  8
Black
  6
ByLayer
 62
  256
370
   -1
100
AcDbLine
 10
132.754
 20
-100.591
 11
132.806
 21
-100.588
  0
LINE
  5
125
100
AcDbEntity
  8
Black
  6
ByLayer
 62
  256
370
   -1
100
AcDbLine
 10
132.806
 20
-100.588
 11
132.859
 21
-100.579
  0
LINE
  5
126
100
AcDbEntity
  8
Black
  6
ByLayer
 62
  256
370
   -1
100
AcDbLine
 10
132.859
 20
-100.579
 11
134.673
 21
-100.579
  0
LINE
  5
127
100
AcDbEntity
  8
Black
  6
ByLayer
 62
  256
370
   -1
100
AcDbLine
 10
134.673
 20
-100.579
 11
134.749
 21
-100.592
  0
LINE
  5
128
100
AcDbEntity
  8
Black
  6
ByLayer
 62
  256
370
   -1
100
AcDbLine
 10
99.0682
 20
-100.592
 11
99.14449999999999
 21
-100.605
  0
LINE
  5
129
100
AcDbEntity
  8
Black
  6
ByLayer
 62
  256
370
   -1
100
AcDbLine
 10
99.14449999999999
 20
-100.605
 11
100.354
 21
-101.037
  0
LINE
  5
12A
100
AcDbEntity
  8
Black
  6
ByLayer
 62
  256
370
   -1
100
AcDbLine
 10
100.354
 20
-101.037
 11
100.409
 21
-101.068
  0
LINE
  5
12B
100
AcDbEntity
  8
Black
  6
ByLayer
 62
  256
370
   -1
100
AcDbLine
 10
100.409
 20
-101.068
 11
100.465
 21
-101.095
  0
LINE
  5
12C
100
AcDbEntity
  8
Black
  6
ByLayer
 62
  256
370
   -1
100
AcDbLine
 10
100.465
 20
-101.095
 11
101.675
 21
-101.959
  0
LINE
  5
12D
100
AcDbEntity
  8
Black
  6
ByLayer
 62
  256
370
   -1
100
AcDbLine
 10
101.675
 20
-101.959
 11
101.717
 21
-102.002
  0
LINE
  5
12E
100
AcDbEntity
  8
Black
  6
ByLayer
 62
  256
370
   -1
100
AcDbLine
 10
101.717
 20
-102.002
 11
101.762
 21
-102.041
  0
LINE
  5
12F
100
AcDbEntity
  8
Black
  6
ByLayer
 62
  256
370
   -1
100
AcDbLine
 10
101.762
 20
-102.041
 11
101.771
 21
-102.058
  0
LINE
  5
130
100
AcDbEntity
  8
Black
  6
ByLayer
 62
  256
370
   -1
100
AcDbLine
 10
101.771
 20
-102.058
 11
101.785
 21
-102.072
  0
LINE
  5
131
100
AcDbEntity
  8
Black
  6
ByLayer
 62
  256
370
   -1
100
AcDbLine
 10
101.785
 20
-102.072
 11
101.81
 21
-102.126
  0
LINE
  5
132
100
AcDbEntity
  8
Black
  6
ByLayer
 62
  256
370
   -1
100
AcDbLine
 10
101.81
 20
-102.126
 11
101.839
 21
-102.178
  0
LINE
  5
133
100
AcDbEntity
  8
Black
  6
ByLayer
 62
  256
370
   -1
100
AcDbLine
 10
101.839
 20
-102.178
 11
102.444
 21
-103.906
  0
LINE
  5
134
100
AcDbEntity
  8
Black
  6
ByLayer
 62
  256
370
   -1
100
AcDbLine
 10
102.444
 20
-103.906
 11
102.456
 21
-103.981
  0
LINE
  5
135
100
AcDbEntity
  8
Black
  6
ByLayer
 62
  256
370
   -1
100
AcDbLine
 10
102.456
 20
-103.981
 11
102.469
 21
-104.056
  0
LINE
  5
136
100
AcDbEntity
  8
Black
  6
ByLayer
 62
  256
370
   -1
100
AcDbLine
 10
102.469
 20
-104.056
 11
102.469
 21
-107.08
  0
LINE
  5
137
100
AcDbEntity
  8
Black
  6
ByLayer
 62
  256
370
   -1
100
AcDbLine
 10
102.469
 20
-107.08
 11
102.456
 21
-107.155
  0
LINE
  5
138
100
AcDbEntity
  8
Black
  6
ByLayer
 62
  256
370
   -1
100
AcDbLine
 10
102.456
 20
-107.155
 11
102.444
 21
-107.23
  0
LINE
  5
139
100
AcDbEntity
  8
Black
  6
ByLayer
 62
  256
370
   -1
100
AcDbLine
 10
102.444
 20
-107.23
 11
101.839
 21
-108.958
  0
LINE
  5
13A
100
AcDbEntity
  8
Black
  6
ByLayer
 62
  256
370
   -1
100
AcDbLine
 10
101.839
 20
-108.958
 11
101.81
 21
-109.01
  0
LINE
  5
13B
100
AcDbEntity
  8
Black
  6
ByLayer
 62
  256
370
   -1
100
AcDbLine
 10
101.81
 20
-109.01
 11
101.785
 21
-109.064
  0
LINE
  5
13C
100
AcDbEntity
  8
Black
  6
ByLayer
 62
  256
370
   -1
100
AcDbLine
 10
101.785
 20
-109.064
 11
101.771
 21
-109.078
  0
LINE
  5
13D
100
AcDbEntity
  8
Black
  6
ByLayer
 62
  256
370
   -1
100
AcDbLine
 10
101.771
 20
-109.078
 11
101.762
 21
-109.095
  0
LINE
  5
13E
100
AcDbEntity
  8
Black
  6
ByLayer
 62
  256
370
   -1
100
AcDbLine
 10
101.762
 20
-109.095
 11
101.717
 21
-109.134
  0
LINE
  5
13F
100
AcDbEntity
  8
Black
  6
ByLayer
 62
  256
370
   -1
100
AcDbLine
 10
101.717
 20
-109.134
 11
101.675
 21
-109.177
  0
LINE
  5
140
100
AcDbEntity
  8
Black
  6
ByLayer
 62
  256
370
   -1
100
AcDbLine
 10
101.675
 20
-109.177
 11
100.465
 21
-110.041
  0
LINE
  5
141
100
AcDbEntity
  8
Black
  6
ByLayer
 62
  256
370
   -1
100
AcDbLine
 10
100.465
 20
-110.041
 11
100.409
 21
-110.068
  0
LINE
  5
142
100
AcDbEntity
  8
Black
  6
ByLayer
 62
  256
370
   -1
100
AcDbLine
 10
100.409
 20
-110.068
 11
100.354
 21
-110.099
  0
LINE
  5
143
100
AcDbEntity
  8
Black
  6
ByLayer
 62
  256
370
   -1
100
AcDbLine
 10
100.354
 20
-110.099
 11
99.14449999999999
 21
-110.531
  0
LINE
  5
144
100
AcDbEntity
  8
Black
  6
ByLayer
 62
  256
370
   -1
100
AcDbLine
 10
99.14449999999999
 20
-110.531
 11
99.0682
 21
-110.544
  0
LINE
  5
145
100
AcDbEntity
  8
Black
  6
ByLayer
 62
  256
370
   -1
100
AcDbLine
 10
99.0682
 20
-110.544
 11
98.992
 21
-110.557
  0
LINE
  5
146
100
AcDbEntity
  8
Black
  6
ByLayer
 62
  256
370
   -1
100
AcDbLine
 10
98.992
 20
-110.557
 11
96.5729
 21
-110.557
  0
LINE
  5
147
100
AcDbEntity
  8
Black
  6
ByLayer
 62
  256
370
   -1
100
AcDbLine
 10
96.5729
 20
-110.557
 11
96.4967
 21
-110.544
  0
LINE
  5
148
100
AcDbEntity
  8
Black
  6
ByLayer
 62
  256
370
   -1
100
AcDbLine
 10
96.4967
 20
-110.544
 11
96.4204
 21
-110.531
  0
LINE
  5
149
100
AcDbEntity
  8
Black
  6
ByLayer
 62
  256
370
   -1
100
AcDbLine
 10
96.4204
 20
-110.531
 11
95.21080000000001
 21
-110.099
  0
LINE
  5
14A
100
AcDbEntity
  8
Black
  6
ByLayer
 62
  256
370
   -1
100
AcDbLine
 10
95.21080000000001
 20
-110.099
 11
95.1563
 21
-110.068
  0
LINE
  5
14B
100
AcDbEntity
  8
Black
  6
ByLayer
 62
  256
370
   -1
100
AcDbLine
 10
95.1563
 20
-110.068
 11
95.0998
 21
-110.041
  0
LINE
  5
14C
100
AcDbEntity
  8
Black
  6
ByLayer
 62
  256
370
   -1
100
AcDbLine
 10
95.0998
 20
-110.041
 11
93.89019999999999
 21
-109.177
  0
LINE
  5
14D
100
AcDbEntity
  8
Black
  6
ByLayer
 62
  256
370
   -1
100
AcDbLine
 10
93.89019999999999
 20
-109.177
 11
93.84829999999999
 21
-109.134
  0
LINE
  5
14E
100
AcDbEntity
  8
Black
  6
ByLayer
 62
  256
370
   -1
100
AcDbLine
 10
93.84829999999999
 20
-109.134
 11
93.8028
 21
-109.095
  0
LINE
  5
14F
100
AcDbEntity
  8
Black
  6
ByLayer
 62
  256
370
   -1
100
AcDbLine
 10
93.8028
 20
-109.095
 11
93.79340000000001
 21
-109.078
  0
LINE
  5
150
100
AcDbEntity
  8
Black
  6
ByLayer
 62
  256
370
   -1
100
AcDbLine
 10
93.79340000000001
 20
-109.078
 11
93.7799
 21
-109.064
  0
LINE
  5
151
100
AcDbEntity
  8
Black
  6
ByLayer
 62
  256
370
   -1
100
AcDbLine
 10
93.7799
 20
-109.064
 11
93.7551
 21
-109.01
  0
LINE
  5
152
100
AcDbEntity
  8
Black
  6
ByLayer
 62
  256
370
   -1
100
AcDbLine
 10
93.7551
 20
-109.01
 11
93.72580000000001
 21
-108.958
  0
LINE
  5
153
100
AcDbEntity
  8
Black
  6
ByLayer
 62
  256
370
   -1
100
AcDbLine
 10
93.72580000000001
 20
-108.958
 11
93.121
 21
-107.23
  0
LINE
  5
154
100
AcDbEntity
  8
Black
  6
ByLayer
 62
  256
370
   -1
100
AcDbLine
 10
93.121
 20
-107.23
 11
93.1087
 21
-107.155
  0
LINE
  5
155
100
AcDbEntity
  8
Black
  6
ByLayer
 62
  256
370
   -1
100
AcDbLine
 10
93.1087
 20
-107.155
 11
93.0955
 21
-107.08
  0
LINE
  5
156
100
AcDbEntity
  8
Black
  6
ByLayer
 62
  256
370
   -1
100
AcDbLine
 10
93.0955
 20
-107.08
 11
93.0955
 21
-104.056
  0
LINE
  5
157
100
AcDbEntity
  8
Black
  6
ByLayer
 62
  256
370
   -1
100
AcDbLine
 10
93.0955
 20
-104.056
 11
93.1087
 21
-103.981
  0
LINE
  5
158
100
AcDbEntity
  8
Black
  6
ByLayer
 62
  256
370
   -1
100
AcDbLine
 10
93.1087
 20
-103.981
 11
93.121
 21
-103.906
  0
LINE
  5
159
100
AcDbEntity
  8
Black
  6
ByLayer
 62
  256
370
   -1
100
AcDbLine
 10
93.121
 20
-103.906
 11
93.72580000000001
 21
-102.178
  0
LINE
  5
15A
100
AcDbEntity
  8
Black
  6
ByLayer
 62
  256
370
   -1
100
AcDbLine
 10
93.72580000000001
 20
-102.178
 11
93.7551
 21
-102.126
  0
LINE
  5
15B
100
AcDbEntity
  8
Black
  6
ByLayer
 62
  256
370
   -1
100
AcDbLine
 10
93.7551
 20
-102.126
 11
93.7799
 21
-102.072
  0
LINE
  5
15C
100
AcDbEntity
  8
Black
  6
ByLayer
 62
  256
370
   -1
100
AcDbLine
 10
93.7799
 20
-102.072
 11
93.79340000000001
 21
-102.058
  0
LINE
  5
15D
100
AcDbEntity
  8
Black
  6
ByLayer
 62
  256
370
   -1
100
AcDbLine
 10
93.79340000000001
 20
-102.058
 11
93.8028
 21
-102.041
  0
LINE
  5
15E
100
AcDbEntity
  8
Black
  6
ByLayer
 62
  256
370
   -1
100
AcDbLine
 10
93.8028
 20
-102.041
 11
93.84829999999999
 21
-102.002
  0
LINE
  5
15F
100
AcDbEntity
  8
Black
  6
ByLayer
 62
  256
370
   -1
100
AcDbLine
 10
93.84829999999999
 20
-102.002
 11
93.89019999999999
 21
-101.959
  0
LINE
  5
160
100
AcDbEntity
  8
Black
  6
ByLayer
 62
  256
370
   -1
100
AcDbLine
 10
93.89019999999999
 20
-101.959
 11
95.0998
 21
-101.095
  0
LINE
  5
161
100
AcDbEntity
  8
Black
  6
ByLayer
 62
  256
370
   -1
100
AcDbLine
 10
95.0998
 20
-101.095
 11
95.1563
 21
-101.068
  0
LINE
  5
162
100
AcDbEntity
  8
Black
  6
ByLayer
 62
  256
370
   -1
100
AcDbLine
 10
95.1563
 20
-101.068
 11
95.21080000000001
 21
-101.037
  0
LINE
  5
163
100
AcDbEntity
  8
Black
  6
ByLayer
 62
  256
370
   -1
100
AcDbLine
 10
95.21080000000001
 20
-101.037
 11
96.4204
 21
-100.605
  0
LINE
  5
164
100
AcDbEntity
  8
Black
  6
ByLayer
 62
  256
370
   -1
100
AcDbLine
 10
96.4204
 20
-100.605
 11
96.4967
 21
-100.592
  0
LINE
  5
165
100
AcDbEntity
  8
Black
  6
ByLayer
 62
  256
370
   -1
100
AcDbLine
 10
96.4967
 20
-100.592
 11
96.5729
 21
-100.579
  0
LINE
  5
166
100
AcDbEntity
  8
Black
  6
ByLayer
 62
  256
370
   -1
100
AcDbLine
 10
96.5729
 20
-100.579
 11
98.992
 21
-100.579
  0
LINE
  5
167
100
AcDbEntity
  8
Black
  6
ByLayer
 62
  256
370
   -1
100
AcDbLine
 10
98.992
 20
-100.579
 11
99.0682
 21
-100.592
  0
LINE
  5
168
100
AcDbEntity
  8
Black
  6
ByLayer
 62
  256
370
   -1
100
AcDbLine
 10
96.6515
 20
-101.486
 11
95.57550000000001
 21
-101.87
  0
LINE
  5
169
100
AcDbEntity
  8
Black
  6
ByLayer
 62
  256
370
   -1
100
AcDbLine
 10
95.57550000000001
 20
-101.87
 11
94.53449999999999
 21
-102.614
  0
LINE
  5
16A
100
AcDbEntity
  8
Black
  6
ByLayer
 62
  256
370
   -1
100
AcDbLine
 10
94.53449999999999
 20
-102.614
 11
94.0027
 21
-104.133
  0
LINE
  5
16B
100
AcDbEntity
  8
Black
  6
ByLayer
 62
  256
370
   -1
100
AcDbLine
 10
94.0027
 20
-104.133
 11
94.0027
 21
-107.003
  0
LINE
  5
16C
100
AcDbEntity
  8
Black
  6
ByLayer
 62
  256
370
   -1
100
AcDbLine
 10
94.0027
 20
-107.003
 11
94.53449999999999
 21
-108.522
  0
LINE
  5
16D
100
AcDbEntity
  8
Black
  6
ByLayer
 62
  256
370
   -1
100
AcDbLine
 10
94.53449999999999
 20
-108.522
 11
95.57550000000001
 21
-109.266
  0
LINE
  5
16E
100
AcDbEntity
  8
Black
  6
ByLayer
 62
  256
370
   -1
100
AcDbLine
 10
95.57550000000001
 20
-109.266
 11
96.6515
 21
-109.65
  0
LINE
  5
16F
100
AcDbEntity
  8
Black
  6
ByLayer
 62
  256
370
   -1
100
AcDbLine
 10
96.6515
 20
-109.65
 11
98.9134
 21
-109.65
  0
LINE
  5
170
100
AcDbEntity
  8
Black
  6
ByLayer
 62
  256
370
   -1
100
AcDbLine
 10
98.9134
 20
-109.65
 11
99.9893
 21
-109.266
  0
LINE
  5
171
100
AcDbEntity
  8
Black
  6
ByLayer
 62
  256
370
   -1
100
AcDbLine
 10
99.9893
 20
-109.266
 11
101.03
 21
-108.522
  0
LINE
  5
172
100
AcDbEntity
  8
Black
  6
ByLayer
 62
  256
370
   -1
100
AcDbLine
 10
101.03
 20
-108.522
 11
101.562
 21
-107.003
  0
LINE
  5
173
100
AcDbEntity
  8
Black
  6
ByLayer
 62
  256
370
   -1
100
AcDbLine
 10
101.562
 20
-107.003
 11
101.562
 21
-104.133
  0
LINE
  5
174
100
AcDbEntity
  8
Black
  6
ByLayer
 62
  256
370
   -1
100
AcDbLine
 10
101.562
 20
-104.133
 11
101.03
 21
-102.614
  0
LINE
  5
175
100
AcDbEntity
  8
Black
  6
ByLayer
 62
  256
370
   -1
100
AcDbLine
 10
101.03
 20
-102.614
 11
99.9893
 21
-101.87
  0
LINE
  5
176
100
AcDbEntity
  8
Black
  6
ByLayer
 62
  256
370
   -1
100
AcDbLine
 10
99.9893
 20
-101.87
 11
98.9134
 21
-101.486
  0
LINE
  5
177
100
AcDbEntity
  8
Black
  6
ByLayer
 62
  256
370
   -1
100
AcDbLine
 10
98.9134
 20
-101.486
 11
96.6515
 21
-101.486
  0
LINE
  5
178
100
AcDbEntity
  8
Black
  6
ByLayer
 62
  256
370
   -1
100
AcDbLine
 10
120.841
 20
-100.591
 11
120.881
 21
-100.594
  0
LINE
  5
179
100
AcDbEntity
  8
Black
  6
ByLayer
 62
  256
370
   -1
100
AcDbLine
 10
120.881
 20
-100.594
 11
120.917
 21
-100.611
  0
LINE
  5
17A
100
AcDbEntity
  8
Black
  6
ByLayer
 62
  256
370
   -1
100
AcDbLine
 10
120.917
 20
-100.611
 11
120.955
 21
-100.621
  0
LINE
  5
17B
100
AcDbEntity
  8
Black
  6
ByLayer
 62
  256
370
   -1
100
AcDbLine
 10
120.955
 20
-100.621
 11
120.988
 21
-100.644
  0
LINE
  5
17C
100
AcDbEntity
  8
Black
  6
ByLayer
 62
  256
370
   -1
100
AcDbLine
 10
120.988
 20
-100.644
 11
121.024
 21
-100.661
  0
LINE
  5
17D
100
AcDbEntity
  8
Black
  6
ByLayer
 62
  256
370
   -1
100
AcDbLine
 10
121.024
 20
-100.661
 11
121.052
 21
-100.689
  0
LINE
  5
17E
100
AcDbEntity
  8
Black
  6
ByLayer
 62
  256
370
   -1
100
AcDbLine
 10
121.052
 20
-100.689
 11
121.084
 21
-100.711
  0
LINE
  5
17F
100
AcDbEntity
  8
Black
  6
ByLayer
 62
  256
370
   -1
100
AcDbLine
 10
121.084
 20
-100.711
 11
121.107
 21
-100.744
  0
LINE
  5
180
100
AcDbEntity
  8
Black
  6
ByLayer
 62
  256
370
   -1
100
AcDbLine
 10
121.107
 20
-100.744
 11
121.135
 21
-100.772
  0
LINE
  5
181
100
AcDbEntity
  8
Black
  6
ByLayer
 62
  256
370
   -1
100
AcDbLine
 10
121.135
 20
-100.772
 11
121.152
 21
-100.808
  0
LINE
  5
182
100
AcDbEntity
  8
Black
  6
ByLayer
 62
  256
370
   -1
100
AcDbLine
 10
121.152
 20
-100.808
 11
121.174
 21
-100.841
  0
LINE
  5
183
100
AcDbEntity
  8
Black
  6
ByLayer
 62
  256
370
   -1
100
AcDbLine
 10
121.174
 20
-100.841
 11
125.408
 21
-109.912
  0
LINE
  5
184
100
AcDbEntity
  8
Black
  6
ByLayer
 62
  256
370
   -1
100
AcDbLine
 10
125.408
 20
-109.912
 11
125.449
 21
-110.064
  0
LINE
  5
185
100
AcDbEntity
  8
Black
  6
ByLayer
 62
  256
370
   -1
100
AcDbLine
 10
125.449
 20
-110.064
 11
125.435
 21
-110.221
  0
LINE
  5
186
100
AcDbEntity
  8
Black
  6
ByLayer
 62
  256
370
   -1
100
AcDbLine
 10
125.435
 20
-110.221
 11
125.368
 21
-110.364
  0
LINE
  5
187
100
AcDbEntity
  8
Black
  6
ByLayer
 62
  256
370
   -1
100
AcDbLine
 10
125.368
 20
-110.364
 11
125.257
 21
-110.475
  0
LINE
  5
188
100
AcDbEntity
  8
Black
  6
ByLayer
 62
  256
370
   -1
100
AcDbLine
 10
125.257
 20
-110.475
 11
125.114
 21
-110.542
  0
LINE
  5
189
100
AcDbEntity
  8
Black
  6
ByLayer
 62
  256
370
   -1
100
AcDbLine
 10
125.114
 20
-110.542
 11
124.957
 21
-110.556
  0
LINE
  5
18A
100
AcDbEntity
  8
Black
  6
ByLayer
 62
  256
370
   -1
100
AcDbLine
 10
124.957
 20
-110.556
 11
124.805
 21
-110.515
  0
LINE
  5
18B
100
AcDbEntity
  8
Black
  6
ByLayer
 62
  256
370
   -1
100
AcDbLine
 10
124.805
 20
-110.515
 11
124.676
 21
-110.425
  0
LINE
  5
18C
100
AcDbEntity
  8
Black
  6
ByLayer
 62
  256
370
   -1
100
AcDbLine
 10
124.676
 20
-110.425
 11
124.586
 21
-110.296
  0
LINE
  5
18D
100
AcDbEntity
  8
Black
  6
ByLayer
 62
  256
370
   -1
100
AcDbLine
 10
124.586
 20
-110.296
 11
123.498
 21
-107.965
  0
LINE
  5
18E
100
AcDbEntity
  8
Black
  6
ByLayer
 62
  256
370
   -1
100
AcDbLine
 10
123.498
 20
-107.965
 11
118.028
 21
-107.965
  0
LINE
  5
18F
100
AcDbEntity
  8
Black
  6
ByLayer
 62
  256
370
   -1
100
AcDbLine
 10
118.028
 20
-107.965
 11
116.941
 21
-110.296
  0
LINE
  5
190
100
AcDbEntity
  8
Black
  6
ByLayer
 62
  256
370
   -1
100
AcDbLine
 10
116.941
 20
-110.296
 11
116.851
 21
-110.425
  0
LINE
  5
191
100
AcDbEntity
  8
Black
  6
ByLayer
 62
  256
370
   -1
100
AcDbLine
 10
116.851
 20
-110.425
 11
116.722
 21
-110.515
  0
LINE
  5
192
100
AcDbEntity
  8
Black
  6
ByLayer
 62
  256
370
   -1
100
AcDbLine
 10
116.722
 20
-110.515
 11
116.569
 21
-110.556
  0
LINE
  5
193
100
AcDbEntity
  8
Black
  6
ByLayer
 62
  256
370
   -1
100
AcDbLine
 10
116.569
 20
-110.556
 11
116.413
 21
-110.542
  0
LINE
  5
194
100
AcDbEntity
  8
Black
  6
ByLayer
 62
  256
370
   -1
100
AcDbLine
 10
116.413
 20
-110.542
 11
116.27
 21
-110.475
  0
LINE
  5
195
100
AcDbEntity
  8
Black
  6
ByLayer
 62
  256
370
   -1
100
AcDbLine
 10
116.27
 20
-110.475
 11
116.158
 21
-110.364
  0
LINE
  5
196
100
AcDbEntity
  8
Black
  6
ByLayer
 62
  256
370
   -1
100
AcDbLine
 10
116.158
 20
-110.364
 11
116.092
 21
-110.221
  0
LINE
  5
197
100
AcDbEntity
  8
Black
  6
ByLayer
 62
  256
370
   -1
100
AcDbLine
 10
116.092
 20
-110.221
 11
116.078
 21
-110.064
  0
LINE
  5
198
100
AcDbEntity
  8
Black
  6
ByLayer
 62
  256
370
   -1
100
AcDbLine
 10
116.078
 20
-110.064
 11
116.119
 21
-109.912
  0
LINE
  5
199
100
AcDbEntity
  8
Black
  6
ByLayer
 62
  256
370
   -1
100
AcDbLine
 10
116.119
 20
-109.912
 11
120.352
 21
-100.841
  0
LINE
  5
19A
100
AcDbEntity
  8
Black
  6
ByLayer
 62
  256
370
   -1
100
AcDbLine
 10
120.352
 20
-100.841
 11
120.375
 21
-100.808
  0
LINE
  5
19B
100
AcDbEntity
  8
Black
  6
ByLayer
 62
  256
370
   -1
100
AcDbLine
 10
120.375
 20
-100.808
 11
120.392
 21
-100.772
  0
LINE
  5
19C
100
AcDbEntity
  8
Black
  6
ByLayer
 62
  256
370
   -1
100
AcDbLine
 10
120.392
 20
-100.772
 11
120.42
 21
-100.744
  0
LINE
  5
19D
100
AcDbEntity
  8
Black
  6
ByLayer
 62
  256
370
   -1
100
AcDbLine
 10
120.42
 20
-100.744
 11
120.443
 21
-100.711
  0
LINE
  5
19E
100
AcDbEntity
  8
Black
  6
ByLayer
 62
  256
370
   -1
100
AcDbLine
 10
120.443
 20
-100.711
 11
120.475
 21
-100.689
  0
LINE
  5
19F
100
AcDbEntity
  8
Black
  6
ByLayer
 62
  256
370
   -1
100
AcDbLine
 10
120.475
 20
-100.689
 11
120.503
 21
-100.661
  0
LINE
  5
1A0
100
AcDbEntity
  8
Black
  6
ByLayer
 62
  256
370
   -1
100
AcDbLine
 10
120.503
 20
-100.661
 11
120.539
 21
-100.644
  0
LINE
  5
1A1
100
AcDbEntity
  8
Black
  6
ByLayer
 62
  256
370
   -1
100
AcDbLine
 10
120.539
 20
-100.644
 11
120.572
 21
-100.621
  0
LINE
  5
1A2
100
AcDbEntity
  8
Black
  6
ByLayer
 62
  256
370
   -1
100
AcDbLine
 10
120.572
 20
-100.621
 11
120.61
 21
-100.611
  0
LINE
  5
1A3
100
AcDbEntity
  8
Black
  6
ByLayer
 62
  256
370
   -1
100
AcDbLine
 10
120.61
 20
-100.611
 11
120.646
 21
-100.594
  0
LINE
  5
1A4
100
AcDbEntity
  8
Black
  6
ByLayer
 62
  256
370
   -1
100
AcDbLine
 10
120.646
 20
-100.594
 11
120.686
 21
-100.591
  0
LINE
  5
1A5
100
AcDbEntity
  8
Black
  6
ByLayer
 62
  256
370
   -1
100
AcDbLine
 10
120.686
 20
-100.591
 11
120.724
 21
-100.58
  0
LINE
  5
1A6
100
AcDbEntity
  8
Black
  6
ByLayer
 62
  256
370
   -1
100
AcDbLine
 10
120.724
 20
-100.58
 11
120.763
 21
-100.584
  0
LINE
  5
1A7
100
AcDbEntity
  8
Black
  6
ByLayer
 62
  256
370
   -1
100
AcDbLine
 10
120.763
 20
-100.584
 11
120.803
 21
-100.58
  0
LINE
  5
1A8
100
AcDbEntity
  8
Black
  6
ByLayer
 62
  256
370
   -1
100
AcDbLine
 10
120.803
 20
-100.58
 11
120.841
 21
-100.591
  0
LINE
  5
1A9
100
AcDbEntity
  8
Black
  6
ByLayer
 62
  256
370
   -1
100
AcDbLine
 10
118.452
 20
-107.058
 11
123.075
 21
-107.058
  0
LINE
  5
1AA
100
AcDbEntity
  8
Black
  6
ByLayer
 62
  256
370
   -1
100
AcDbLine
 10
123.075
 20
-107.058
 11
120.763
 21
-102.105
  0
LINE
  5
1AB
100
AcDbEntity
  8
Black
  6
ByLayer
 62
  256
370
   -1
100
AcDbLine
 10
120.763
 20
-102.105
 11
118.452
 21
-107.058
  0
LINE
  5
1AC
100
AcDbEntity
  8
Black
  6
ByLayer
 62
  256
370
   -1
100
AcDbLine
 10
81.6454
 20
-100.621
 11
81.7745
 21
-100.711
  0
LINE
  5
1AD
100
AcDbEntity
  8
Black
  6
ByLayer
 62
  256
370
   -1
100
AcDbLine
 10
81.7745
 20
-100.711
 11
81.86490000000001
 21
-100.841
  0
LINE
  5
1AE
100
AcDbEntity
  8
Black
  6
ByLayer
 62
  256
370
   -1
100
AcDbLine
 10
81.86490000000001
 20
-100.841
 11
85.6872
 21
-109.031
  0
LINE
  5
1AF
100
AcDbEntity
  8
Black
  6
ByLayer
 62
  256
370
   -1
100
AcDbLine
 10
85.6872
 20
-109.031
 11
89.5095
 21
-100.841
  0
LINE
  5
1B0
100
AcDbEntity
  8
Black
  6
ByLayer
 62
  256
370
   -1
100
AcDbLine
 10
89.5095
 20
-100.841
 11
89.59990000000001
 21
-100.711
  0
LINE
  5
1B1
100
AcDbEntity
  8
Black
  6
ByLayer
 62
  256
370
   -1
100
AcDbLine
 10
89.59990000000001
 20
-100.711
 11
89.729
 21
-100.621
  0
LINE
  5
1B2
100
AcDbEntity
  8
Black
  6
ByLayer
 62
  256
370
   -1
100
AcDbLine
 10
89.729
 20
-100.621
 11
89.8811
 21
-100.58
  0
LINE
  5
1B3
100
AcDbEntity
  8
Black
  6
ByLayer
 62
  256
370
   -1
100
AcDbLine
 10
89.8811
 20
-100.58
 11
90.0381
 21
-100.594
  0
LINE
  5
1B4
100
AcDbEntity
  8
Black
  6
ByLayer
 62
  256
370
   -1
100
AcDbLine
 10
90.0381
 20
-100.594
 11
90.1808
 21
-100.661
  0
LINE
  5
1B5
100
AcDbEntity
  8
Black
  6
ByLayer
 62
  256
370
   -1
100
AcDbLine
 10
90.1808
 20
-100.661
 11
90.29219999999999
 21
-100.772
  0
LINE
  5
1B6
100
AcDbEntity
  8
Black
  6
ByLayer
 62
  256
370
   -1
100
AcDbLine
 10
90.29219999999999
 20
-100.772
 11
90.3587
 21
-100.915
  0
LINE
  5
1B7
100
AcDbEntity
  8
Black
  6
ByLayer
 62
  256
370
   -1
100
AcDbLine
 10
90.3587
 20
-100.915
 11
90.3724
 21
-101.072
  0
LINE
  5
1B8
100
AcDbEntity
  8
Black
  6
ByLayer
 62
  256
370
   -1
100
AcDbLine
 10
90.3724
 20
-101.072
 11
90.33159999999999
 21
-101.224
  0
LINE
  5
1B9
100
AcDbEntity
  8
Black
  6
ByLayer
 62
  256
370
   -1
100
AcDbLine
 10
90.33159999999999
 20
-101.224
 11
86.09820000000001
 21
-110.296
  0
LINE
  5
1BA
100
AcDbEntity
  8
Black
  6
ByLayer
 62
  256
370
   -1
100
AcDbLine
 10
86.09820000000001
 20
-110.296
 11
86.07550000000001
 21
-110.328
  0
LINE
  5
1BB
100
AcDbEntity
  8
Black
  6
ByLayer
 62
  256
370
   -1
100
AcDbLine
 10
86.07550000000001
 20
-110.328
 11
86.05880000000001
 21
-110.364
  0
LINE
  5
1BC
100
AcDbEntity
  8
Black
  6
ByLayer
 62
  256
370
   -1
100
AcDbLine
 10
86.05880000000001
 20
-110.364
 11
86.0307
 21
-110.392
  0
LINE
  5
1BD
100
AcDbEntity
  8
Black
  6
ByLayer
 62
  256
370
   -1
100
AcDbLine
 10
86.0307
 20
-110.392
 11
86.0078
 21
-110.425
  0
LINE
  5
1BE
100
AcDbEntity
  8
Black
  6
ByLayer
 62
  256
370
   -1
100
AcDbLine
 10
86.0078
 20
-110.425
 11
85.97539999999999
 21
-110.447
  0
LINE
  5
1BF
100
AcDbEntity
  8
Black
  6
ByLayer
 62
  256
370
   -1
100
AcDbLine
 10
85.97539999999999
 20
-110.447
 11
85.94750000000001
 21
-110.475
  0
LINE
  5
1C0
100
AcDbEntity
  8
Black
  6
ByLayer
 62
  256
370
   -1
100
AcDbLine
 10
85.94750000000001
 20
-110.475
 11
85.9114
 21
-110.492
  0
LINE
  5
1C1
100
AcDbEntity
  8
Black
  6
ByLayer
 62
  256
370
   -1
100
AcDbLine
 10
85.9114
 20
-110.492
 11
85.8788
 21
-110.515
  0
LINE
  5
1C2
100
AcDbEntity
  8
Black
  6
ByLayer
 62
  256
370
   -1
100
AcDbLine
 10
85.8788
 20
-110.515
 11
85.84059999999999
 21
-110.525
  0
LINE
  5
1C3
100
AcDbEntity
  8
Black
  6
ByLayer
 62
  256
370
   -1
100
AcDbLine
 10
85.84059999999999
 20
-110.525
 11
85.8047
 21
-110.542
  0
LINE
  5
1C4
100
AcDbEntity
  8
Black
  6
ByLayer
 62
  256
370
   -1
100
AcDbLine
 10
85.8047
 20
-110.542
 11
85.7651
 21
-110.545
  0
LINE
  5
1C5
100
AcDbEntity
  8
Black
  6
ByLayer
 62
  256
370
   -1
100
AcDbLine
 10
85.7651
 20
-110.545
 11
85.7266
 21
-110.556
  0
LINE
  5
1C6
100
AcDbEntity
  8
Black
  6
ByLayer
 62
  256
370
   -1
100
AcDbLine
 10
85.7266
 20
-110.556
 11
85.6872
 21
-110.552
  0
LINE
  5
1C7
100
AcDbEntity
  8
Black
  6
ByLayer
 62
  256
370
   -1
100
AcDbLine
 10
85.6872
 20
-110.552
 11
85.6478
 21
-110.556
  0
LINE
  5
1C8
100
AcDbEntity
  8
Black
  6
ByLayer
 62
  256
370
   -1
100
AcDbLine
 10
85.6478
 20
-110.556
 11
85.6093
 21
-110.545
  0
LINE
  5
1C9
100
AcDbEntity
  8
Black
  6
ByLayer
 62
  256
370
   -1
100
AcDbLine
 10
85.6093
 20
-110.545
 11
85.5697
 21
-110.542
  0
LINE
  5
1CA
100
AcDbEntity
  8
Black
  6
ByLayer
 62
  256
370
   -1
100
AcDbLine
 10
85.5697
 20
-110.542
 11
85.5338
 21
-110.525
  0
LINE
  5
1CB
100
AcDbEntity
  8
Black
  6
ByLayer
 62
  256
370
   -1
100
AcDbLine
 10
85.5338
 20
-110.525
 11
85.4956
 21
-110.515
  0
LINE
  5
1CC
100
AcDbEntity
  8
Black
  6
ByLayer
 62
  256
370
   -1
100
AcDbLine
 10
85.4956
 20
-110.515
 11
85.46299999999999
 21
-110.492
  0
LINE
  5
1CD
100
AcDbEntity
  8
Black
  6
ByLayer
 62
  256
370
   -1
100
AcDbLine
 10
85.46299999999999
 20
-110.492
 11
85.4269
 21
-110.475
  0
LINE
  5
1CE
100
AcDbEntity
  8
Black
  6
ByLayer
 62
  256
370
   -1
100
AcDbLine
 10
85.4269
 20
-110.475
 11
85.399
 21
-110.447
  0
LINE
  5
1CF
100
AcDbEntity
  8
Black
  6
ByLayer
 62
  256
370
   -1
100
AcDbLine
 10
85.399
 20
-110.447
 11
85.36660000000001
 21
-110.425
  0
LINE
  5
1D0
100
AcDbEntity
  8
Black
  6
ByLayer
 62
  256
370
   -1
100
AcDbLine
 10
85.36660000000001
 20
-110.425
 11
85.3437
 21
-110.392
  0
LINE
  5
1D1
100
AcDbEntity
  8
Black
  6
ByLayer
 62
  256
370
   -1
100
AcDbLine
 10
85.3437
 20
-110.392
 11
85.3156
 21
-110.364
  0
LINE
  5
1D2
100
AcDbEntity
  8
Black
  6
ByLayer
 62
  256
370
   -1
100
AcDbLine
 10
85.3156
 20
-110.364
 11
85.2989
 21
-110.328
  0
LINE
  5
1D3
100
AcDbEntity
  8
Black
  6
ByLayer
 62
  256
370
   -1
100
AcDbLine
 10
85.2989
 20
-110.328
 11
85.2762
 21
-110.296
  0
LINE
  5
1D4
100
AcDbEntity
  8
Black
  6
ByLayer
 62
  256
370
   -1
100
AcDbLine
 10
85.2762
 20
-110.296
 11
81.0429
 21
-101.224
  0
LINE
  5
1D5
100
AcDbEntity
  8
Black
  6
ByLayer
 62
  256
370
   -1
100
AcDbLine
 10
81.0429
 20
-101.224
 11
81.002
 21
-101.072
  0
LINE
  5
1D6
100
AcDbEntity
  8
Black
  6
ByLayer
 62
  256
370
   -1
100
AcDbLine
 10
81.002
 20
-101.072
 11
81.0157
 21
-100.915
  0
LINE
  5
1D7
100
AcDbEntity
  8
Black
  6
ByLayer
 62
  256
370
   -1
100
AcDbLine
 10
81.0157
 20
-100.915
 11
81.0823
 21
-100.772
  0
LINE
  5
1D8
100
AcDbEntity
  8
Black
  6
ByLayer
 62
  256
370
   -1
100
AcDbLine
 10
81.0823
 20
-100.772
 11
81.1936
 21
-100.661
  0
LINE
  5
1D9
100
AcDbEntity
  8
Black
  6
ByLayer
 62
  256
370
   -1
100
AcDbLine
 10
81.1936
 20
-100.661
 11
81.33629999999999
 21
-100.594
  0
LINE
  5
1DA
100
AcDbEntity
  8
Black
  6
ByLayer
 62
  256
370
   -1
100
AcDbLine
 10
81.33629999999999
 20
-100.594
 11
81.4933
 21
-100.58
  0
LINE
  5
1DB
100
AcDbEntity
  8
Black
  6
ByLayer
 62
  256
370
   -1
100
AcDbLine
 10
81.4933
 20
-100.58
 11
81.6454
 21
-100.621
  0
LINE
  5
1DC
100
AcDbEntity
  8
Black
  6
ByLayer
 62
  256
370
   -1
100
AcDbLine
 10
158.335
 20
-100.592
 11
158.411
 21
-100.605
  0
LINE
  5
1DD
100
AcDbEntity
  8
Black
  6
ByLayer
 62
  256
370
   -1
100
AcDbLine
 10
158.411
 20
-100.605
 11
159.621
 21
-101.037
  0
LINE
  5
1DE
100
AcDbEntity
  8
Black
  6
ByLayer
 62
  256
370
   -1
100
AcDbLine
 10
159.621
 20
-101.037
 11
159.675
 21
-101.068
  0
LINE
  5
1DF
100
AcDbEntity
  8
Black
  6
ByLayer
 62
  256
370
   -1
100
AcDbLine
 10
159.675
 20
-101.068
 11
159.732
 21
-101.095
  0
LINE
  5
1E0
100
AcDbEntity
  8
Black
  6
ByLayer
 62
  256
370
   -1
100
AcDbLine
 10
159.732
 20
-101.095
 11
160.337
 21
-101.527
  0
LINE
  5
1E1
100
AcDbEntity
  8
Black
  6
ByLayer
 62
  256
370
   -1
100
AcDbLine
 10
160.337
 20
-101.527
 11
160.39
 21
-101.582
  0
LINE
  5
1E2
100
AcDbEntity
  8
Black
  6
ByLayer
 62
  256
370
   -1
100
AcDbLine
 10
160.39
 20
-101.582
 11
160.444
 21
-101.636
  0
LINE
  5
1E3
100
AcDbEntity
  8
Black
  6
ByLayer
 62
  256
370
   -1
100
AcDbLine
 10
160.444
 20
-101.636
 11
161.049
 21
-102.5
  0
LINE
  5
1E4
100
AcDbEntity
  8
Black
  6
ByLayer
 62
  256
370
   -1
100
AcDbLine
 10
161.049
 20
-102.5
 11
161.074
 21
-102.554
  0
LINE
  5
1E5
100
AcDbEntity
  8
Black
  6
ByLayer
 62
  256
370
   -1
100
AcDbLine
 10
161.074
 20
-102.554
 11
161.104
 21
-102.605
  0
LINE
  5
1E6
100
AcDbEntity
  8
Black
  6
ByLayer
 62
  256
370
   -1
100
AcDbLine
 10
161.104
 20
-102.605
 11
161.107
 21
-102.625
  0
LINE
  5
1E7
100
AcDbEntity
  8
Black
  6
ByLayer
 62
  256
370
   -1
100
AcDbLine
 10
161.107
 20
-102.625
 11
161.116
 21
-102.643
  0
LINE
  5
1E8
100
AcDbEntity
  8
Black
  6
ByLayer
 62
  256
370
   -1
100
AcDbLine
 10
161.116
 20
-102.643
 11
161.121
 21
-102.702
  0
LINE
  5
1E9
100
AcDbEntity
  8
Black
  6
ByLayer
 62
  256
370
   -1
100
AcDbLine
 10
161.121
 20
-102.702
 11
161.131
 21
-102.76
  0
LINE
  5
1EA
100
AcDbEntity
  8
Black
  6
ByLayer
 62
  256
370
   -1
100
AcDbLine
 10
161.131
 20
-102.76
 11
161.131
 21
-104.056
  0
LINE
  5
1EB
100
AcDbEntity
  8
Black
  6
ByLayer
 62
  256
370
   -1
100
AcDbLine
 10
161.131
 20
-104.056
 11
161.121
 21
-104.114
  0
LINE
  5
1EC
100
AcDbEntity
  8
Black
  6
ByLayer
 62
  256
370
   -1
100
AcDbLine
 10
161.121
 20
-104.114
 11
161.116
 21
-104.173
  0
LINE
  5
1ED
100
AcDbEntity
  8
Black
  6
ByLayer
 62
  256
370
   -1
100
AcDbLine
 10
161.116
 20
-104.173
 11
161.107
 21
-104.192
  0
LINE
  5
1EE
100
AcDbEntity
  8
Black
  6
ByLayer
 62
  256
370
   -1
100
AcDbLine
 10
161.107
 20
-104.192
 11
161.104
 21
-104.211
  0
LINE
  5
1EF
100
AcDbEntity
  8
Black
  6
ByLayer
 62
  256
370
   -1
100
AcDbLine
 10
161.104
 20
-104.211
 11
161.074
 21
-104.263
  0
LINE
  5
1F0
100
AcDbEntity
  8
Black
  6
ByLayer
 62
  256
370
   -1
100
AcDbLine
 10
161.074
 20
-104.263
 11
161.049
 21
-104.316
  0
LINE
  5
1F1
100
AcDbEntity
  8
Black
  6
ByLayer
 62
  256
370
   -1
100
AcDbLine
 10
161.049
 20
-104.316
 11
160.444
 21
-105.18
  0
LINE
  5
1F2
100
AcDbEntity
  8
Black
  6
ByLayer
 62
  256
370
   -1
100
AcDbLine
 10
160.444
 20
-105.18
 11
160.39
 21
-105.234
  0
LINE
  5
1F3
100
AcDbEntity
  8
Black
  6
ByLayer
 62
  256
370
   -1
100
AcDbLine
 10
160.39
 20
-105.234
 11
160.337
 21
-105.289
  0
LINE
  5
1F4
100
AcDbEntity
  8
Black
  6
ByLayer
 62
  256
370
   -1
100
AcDbLine
 10
160.337
 20
-105.289
 11
159.732
 21
-105.721
  0
LINE
  5
1F5
100
AcDbEntity
  8
Black
  6
ByLayer
 62
  256
370
   -1
100
AcDbLine
 10
159.732
 20
-105.721
 11
159.675
 21
-105.748
  0
LINE
  5
1F6
100
AcDbEntity
  8
Black
  6
ByLayer
 62
  256
370
   -1
100
AcDbLine
 10
159.675
 20
-105.748
 11
159.621
 21
-105.779
  0
LINE
  5
1F7
100
AcDbEntity
  8
Black
  6
ByLayer
 62
  256
370
   -1
100
AcDbLine
 10
159.621
 20
-105.779
 11
158.411
 21
-106.211
  0
LINE
  5
1F8
100
AcDbEntity
  8
Black
  6
ByLayer
 62
  256
370
   -1
100
AcDbLine
 10
158.411
 20
-106.211
 11
158.335
 21
-106.224
  0
LINE
  5
1F9
100
AcDbEntity
  8
Black
  6
ByLayer
 62
  256
370
   -1
100
AcDbLine
 10
158.335
 20
-106.224
 11
158.259
 21
-106.238
  0
LINE
  5
1FA
100
AcDbEntity
  8
Black
  6
ByLayer
 62
  256
370
   -1
100
AcDbLine
 10
158.259
 20
-106.238
 11
157.524
 21
-106.238
  0
LINE
  5
1FB
100
AcDbEntity
  8
Black
  6
ByLayer
 62
  256
370
   -1
100
AcDbLine
 10
157.524
 20
-106.238
 11
161.002
 21
-109.786
  0
LINE
  5
1FC
100
AcDbEntity
  8
Black
  6
ByLayer
 62
  256
370
   -1
100
AcDbLine
 10
161.002
 20
-109.786
 11
161.091
 21
-109.916
  0
LINE
  5
1FD
100
AcDbEntity
  8
Black
  6
ByLayer
 62
  256
370
   -1
100
AcDbLine
 10
161.091
 20
-109.916
 11
161.13
 21
-110.069
  0
LINE
  5
1FE
100
AcDbEntity
  8
Black
  6
ByLayer
 62
  256
370
   -1
100
AcDbLine
 10
161.13
 20
-110.069
 11
161.115
 21
-110.226
  0
LINE
  5
1FF
100
AcDbEntity
  8
Black
  6
ByLayer
 62
  256
370
   -1
100
AcDbLine
 10
161.115
 20
-110.226
 11
161.047
 21
-110.368
  0
LINE
  5
200
100
AcDbEntity
  8
Black
  6
ByLayer
 62
  256
370
   -1
100
AcDbLine
 10
161.047
 20
-110.368
 11
160.934
 21
-110.478
  0
LINE
  5
201
100
AcDbEntity
  8
Black
  6
ByLayer
 62
  256
370
   -1
100
AcDbLine
 10
160.934
 20
-110.478
 11
160.791
 21
-110.543
  0
LINE
  5
202
100
AcDbEntity
  8
Black
  6
ByLayer
 62
  256
370
   -1
100
AcDbLine
 10
160.791
 20
-110.543
 11
160.634
 21
-110.555
  0
LINE
  5
203
100
AcDbEntity
  8
Black
  6
ByLayer
 62
  256
370
   -1
100
AcDbLine
 10
160.634
 20
-110.555
 11
160.482
 21
-110.513
  0
LINE
  5
204
100
AcDbEntity
  8
Black
  6
ByLayer
 62
  256
370
   -1
100
AcDbLine
 10
160.482
 20
-110.513
 11
160.354
 21
-110.421
  0
LINE
  5
205
100
AcDbEntity
  8
Black
  6
ByLayer
 62
  256
370
   -1
100
AcDbLine
 10
160.354
 20
-110.421
 11
156.254
 21
-106.238
  0
LINE
  5
206
100
AcDbEntity
  8
Black
  6
ByLayer
 62
  256
370
   -1
100
AcDbLine
 10
156.254
 20
-106.238
 11
153.874
 21
-106.238
  0
LINE
  5
207
100
AcDbEntity
  8
Black
  6
ByLayer
 62
  256
370
   -1
100
AcDbLine
 10
153.874
 20
-106.238
 11
153.874
 21
-110.104
  0
LINE
  5
208
100
AcDbEntity
  8
Black
  6
ByLayer
 62
  256
370
   -1
100
AcDbLine
 10
153.874
 20
-110.104
 11
153.847
 21
-110.259
  0
LINE
  5
209
100
AcDbEntity
  8
Black
  6
ByLayer
 62
  256
370
   -1
100
AcDbLine
 10
153.847
 20
-110.259
 11
153.768
 21
-110.395
  0
LINE
  5
20A
100
AcDbEntity
  8
Black
  6
ByLayer
 62
  256
370
   -1
100
AcDbLine
 10
153.768
 20
-110.395
 11
153.647
 21
-110.497
  0
LINE
  5
20B
100
AcDbEntity
  8
Black
  6
ByLayer
 62
  256
370
   -1
100
AcDbLine
 10
153.647
 20
-110.497
 11
153.499
 21
-110.55
  0
LINE
  5
20C
100
AcDbEntity
  8
Black
  6
ByLayer
 62
  256
370
   -1
100
AcDbLine
 10
153.499
 20
-110.55
 11
153.342
 21
-110.55
  0
LINE
  5
20D
100
AcDbEntity
  8
Black
  6
ByLayer
 62
  256
370
   -1
100
AcDbLine
 10
153.342
 20
-110.55
 11
153.194
 21
-110.497
  0
LINE
  5
20E
100
AcDbEntity
  8
Black
  6
ByLayer
 62
  256
370
   -1
100
AcDbLine
 10
153.194
 20
-110.497
 11
153.073
 21
-110.395
  0
LINE
  5
20F
100
AcDbEntity
  8
Black
  6
ByLayer
 62
  256
370
   -1
100
AcDbLine
 10
153.073
 20
-110.395
 11
152.994
 21
-110.259
  0
LINE
  5
210
100
AcDbEntity
  8
Black
  6
ByLayer
 62
  256
370
   -1
100
AcDbLine
 10
152.994
 20
-110.259
 11
152.967
 21
-110.104
  0
LINE
  5
211
100
AcDbEntity
  8
Black
  6
ByLayer
 62
  256
370
   -1
100
AcDbLine
 10
152.967
 20
-110.104
 11
152.967
 21
-101.032
  0
LINE
  5
212
100
AcDbEntity
  8
Black
  6
ByLayer
 62
  256
370
   -1
100
AcDbLine
 10
152.967
 20
-101.032
 11
152.974
 21
-100.993
  0
LINE
  5
213
100
AcDbEntity
  8
Black
  6
ByLayer
 62
  256
370
   -1
100
AcDbLine
 10
152.974
 20
-100.993
 11
152.974
 21
-100.954
  0
LINE
  5
214
100
AcDbEntity
  8
Black
  6
ByLayer
 62
  256
370
   -1
100
AcDbLine
 10
152.974
 20
-100.954
 11
152.987
 21
-100.916
  0
LINE
  5
215
100
AcDbEntity
  8
Black
  6
ByLayer
 62
  256
370
   -1
100
AcDbLine
 10
152.987
 20
-100.916
 11
152.994
 21
-100.877
  0
LINE
  5
216
100
AcDbEntity
  8
Black
  6
ByLayer
 62
  256
370
   -1
100
AcDbLine
 10
152.994
 20
-100.877
 11
153.014
 21
-100.843
  0
LINE
  5
217
100
AcDbEntity
  8
Black
  6
ByLayer
 62
  256
370
   -1
100
AcDbLine
 10
153.014
 20
-100.843
 11
153.028
 21
-100.806
  0
LINE
  5
218
100
AcDbEntity
  8
Black
  6
ByLayer
 62
  256
370
   -1
100
AcDbLine
 10
153.028
 20
-100.806
 11
153.053
 21
-100.775
  0
LINE
  5
219
100
AcDbEntity
  8
Black
  6
ByLayer
 62
  256
370
   -1
100
AcDbLine
 10
153.053
 20
-100.775
 11
153.073
 21
-100.741
  0
LINE
  5
21A
100
AcDbEntity
  8
Black
  6
ByLayer
 62
  256
370
   -1
100
AcDbLine
 10
153.073
 20
-100.741
 11
153.103
 21
-100.715
  0
LINE
  5
21B
100
AcDbEntity
  8
Black
  6
ByLayer
 62
  256
370
   -1
100
AcDbLine
 10
153.103
 20
-100.715
 11
153.129
 21
-100.685
  0
LINE
  5
21C
100
AcDbEntity
  8
Black
  6
ByLayer
 62
  256
370
   -1
100
AcDbLine
 10
153.129
 20
-100.685
 11
153.163
 21
-100.665
  0
LINE
  5
21D
100
AcDbEntity
  8
Black
  6
ByLayer
 62
  256
370
   -1
100
AcDbLine
 10
153.163
 20
-100.665
 11
153.194
 21
-100.64
  0
LINE
  5
21E
100
AcDbEntity
  8
Black
  6
ByLayer
 62
  256
370
   -1
100
AcDbLine
 10
153.194
 20
-100.64
 11
153.231
 21
-100.626
  0
LINE
  5
21F
100
AcDbEntity
  8
Black
  6
ByLayer
 62
  256
370
   -1
100
AcDbLine
 10
153.231
 20
-100.626
 11
153.265
 21
-100.606
  0
LINE
  5
220
100
AcDbEntity
  8
Black
  6
ByLayer
 62
  256
370
   -1
100
AcDbLine
 10
153.265
 20
-100.606
 11
153.304
 21
-100.599
  0
LINE
  5
221
100
AcDbEntity
  8
Black
  6
ByLayer
 62
  256
370
   -1
100
AcDbLine
 10
153.304
 20
-100.599
 11
153.342
 21
-100.586
  0
LINE
  5
222
100
AcDbEntity
  8
Black
  6
ByLayer
 62
  256
370
   -1
100
AcDbLine
 10
153.342
 20
-100.586
 11
153.381
 21
-100.586
  0
LINE
  5
223
100
AcDbEntity
  8
Black
  6
ByLayer
 62
  256
370
   -1
100
AcDbLine
 10
153.381
 20
-100.586
 11
153.421
 21
-100.579
  0
LINE
  5
224
100
AcDbEntity
  8
Black
  6
ByLayer
 62
  256
370
   -1
100
AcDbLine
 10
153.421
 20
-100.579
 11
158.259
 21
-100.579
  0
LINE
  5
225
100
AcDbEntity
  8
Black
  6
ByLayer
 62
  256
370
   -1
100
AcDbLine
 10
158.259
 20
-100.579
 11
158.335
 21
-100.592
  0
LINE
  5
226
100
AcDbEntity
  8
Black
  6
ByLayer
 62
  256
370
   -1
100
AcDbLine
 10
153.874
 20
-101.486
 11
153.874
 21
-105.33
  0
LINE
  5
227
100
AcDbEntity
  8
Black
  6
ByLayer
 62
  256
370
   -1
100
AcDbLine
 10
153.874
 20
-105.33
 11
158.18
 21
-105.33
  0
LINE
  5
228
100
AcDbEntity
  8
Black
  6
ByLayer
 62
  256
370
   -1
100
AcDbLine
 10
158.18
 20
-105.33
 11
159.256
 21
-104.946
  0
LINE
  5
229
100
AcDbEntity
  8
Black
  6
ByLayer
 62
  256
370
   -1
100
AcDbLine
 10
159.256
 20
-104.946
 11
159.746
 21
-104.596
  0
LINE
  5
22A
100
AcDbEntity
  8
Black
  6
ByLayer
 62
  256
370
   -1
100
AcDbLine
 10
159.746
 20
-104.596
 11
160.224
 21
-103.913
  0
LINE
  5
22B
100
AcDbEntity
  8
Black
  6
ByLayer
 62
  256
370
   -1
100
AcDbLine
 10
160.224
 20
-103.913
 11
160.224
 21
-102.903
  0
LINE
  5
22C
100
AcDbEntity
  8
Black
  6
ByLayer
 62
  256
370
   -1
100
AcDbLine
 10
160.224
 20
-102.903
 11
159.746
 21
-102.22
  0
LINE
  5
22D
100
AcDbEntity
  8
Black
  6
ByLayer
 62
  256
370
   -1
100
AcDbLine
 10
159.746
 20
-102.22
 11
159.256
 21
-101.87
  0
LINE
  5
22E
100
AcDbEntity
  8
Black
  6
ByLayer
 62
  256
370
   -1
100
AcDbLine
 10
159.256
 20
-101.87
 11
158.18
 21
-101.486
  0
LINE
  5
22F
100
AcDbEntity
  8
Black
  6
ByLayer
 62
  256
370
   -1
100
AcDbLine
 10
158.18
 20
-101.486
 11
153.874
 21
-101.486
  0
LINE
  5
230
100
AcDbEntity
  8
Black
  6
ByLayer
 62
  256
370
   -1
100
AcDbLine
 10
182.071
 20
-100.64
 11
182.192
 21
-100.741
  0
LINE
  5
231
100
AcDbEntity
  8
Black
  6
ByLayer
 62
  256
370
   -1
100
AcDbLine
 10
182.192
 20
-100.741
 11
182.271
 21
-100.877
  0
LINE
  5
232
100
AcDbEntity
  8
Black
  6
ByLayer
 62
  256
370
   -1
100
AcDbLine
 10
182.271
 20
-100.877
 11
182.298
 21
-101.032
  0
LINE
  5
233
100
AcDbEntity
  8
Black
  6
ByLayer
 62
  256
370
   -1
100
AcDbLine
 10
182.298
 20
-101.032
 11
182.298
 21
-110.104
  0
LINE
  5
234
100
AcDbEntity
  8
Black
  6
ByLayer
 62
  256
370
   -1
100
AcDbLine
 10
182.298
 20
-110.104
 11
182.271
 21
-110.259
  0
LINE
  5
235
100
AcDbEntity
  8
Black
  6
ByLayer
 62
  256
370
   -1
100
AcDbLine
 10
182.271
 20
-110.259
 11
182.192
 21
-110.395
  0
LINE
  5
236
100
AcDbEntity
  8
Black
  6
ByLayer
 62
  256
370
   -1
100
AcDbLine
 10
182.192
 20
-110.395
 11
182.071
 21
-110.497
  0
LINE
  5
237
100
AcDbEntity
  8
Black
  6
ByLayer
 62
  256
370
   -1
100
AcDbLine
 10
182.071
 20
-110.497
 11
181.923
 21
-110.55
  0
LINE
  5
238
100
AcDbEntity
  8
Black
  6
ByLayer
 62
  256
370
   -1
100
AcDbLine
 10
181.923
 20
-110.55
 11
181.766
 21
-110.55
  0
LINE
  5
239
100
AcDbEntity
  8
Black
  6
ByLayer
 62
  256
370
   -1
100
AcDbLine
 10
181.766
 20
-110.55
 11
181.618
 21
-110.497
  0
LINE
  5
23A
100
AcDbEntity
  8
Black
  6
ByLayer
 62
  256
370
   -1
100
AcDbLine
 10
181.618
 20
-110.497
 11
181.497
 21
-110.395
  0
LINE
  5
23B
100
AcDbEntity
  8
Black
  6
ByLayer
 62
  256
370
   -1
100
AcDbLine
 10
181.497
 20
-110.395
 11
181.418
 21
-110.259
  0
LINE
  5
23C
100
AcDbEntity
  8
Black
  6
ByLayer
 62
  256
370
   -1
100
AcDbLine
 10
181.418
 20
-110.259
 11
181.391
 21
-110.104
  0
LINE
  5
23D
100
AcDbEntity
  8
Black
  6
ByLayer
 62
  256
370
   -1
100
AcDbLine
 10
181.391
 20
-110.104
 11
181.391
 21
-101.032
  0
LINE
  5
23E
100
AcDbEntity
  8
Black
  6
ByLayer
 62
  256
370
   -1
100
AcDbLine
 10
181.391
 20
-101.032
 11
181.418
 21
-100.877
  0
LINE
  5
23F
100
AcDbEntity
  8
Black
  6
ByLayer
 62
  256
370
   -1
100
AcDbLine
 10
181.418
 20
-100.877
 11
181.497
 21
-100.741
  0
LINE
  5
240
100
AcDbEntity
  8
Black
  6
ByLayer
 62
  256
370
   -1
100
AcDbLine
 10
181.497
 20
-100.741
 11
181.618
 21
-100.64
  0
LINE
  5
241
100
AcDbEntity
  8
Black
  6
ByLayer
 62
  256
370
   -1
100
AcDbLine
 10
181.618
 20
-100.64
 11
181.766
 21
-100.586
  0
LINE
  5
242
100
AcDbEntity
  8
Black
  6
ByLayer
 62
  256
370
   -1
100
AcDbLine
 10
181.766
 20
-100.586
 11
181.923
 21
-100.586
  0
LINE
  5
243
100
AcDbEntity
  8
Black
  6
ByLayer
 62
  256
370
   -1
100
AcDbLine
 10
181.923
 20
-100.586
 11
182.071
 21
-100.64
  0
LINE
  5
244
100
AcDbEntity
  8
Black
  6
ByLayer
 62
  256
370
   -1
100
AcDbLine
 10
176.024
 20
-100.64
 11
176.144
 21
-100.741
  0
LINE
  5
245
100
AcDbEntity
  8
Black
  6
ByLayer
 62
  256
370
   -1
100
AcDbLine
 10
176.144
 20
-100.741
 11
176.223
 21
-100.877
  0
LINE
  5
246
100
AcDbEntity
  8
Black
  6
ByLayer
 62
  256
370
   -1
100
AcDbLine
 10
176.223
 20
-100.877
 11
176.25
 21
-101.032
  0
LINE
  5
247
100
AcDbEntity
  8
Black
  6
ByLayer
 62
  256
370
   -1
100
AcDbLine
 10
176.25
 20
-101.032
 11
176.25
 21
-110.104
  0
LINE
  5
248
100
AcDbEntity
  8
Black
  6
ByLayer
 62
  256
370
   -1
100
AcDbLine
 10
176.25
 20
-110.104
 11
176.223
 21
-110.259
  0
LINE
  5
249
100
AcDbEntity
  8
Black
  6
ByLayer
 62
  256
370
   -1
100
AcDbLine
 10
176.223
 20
-110.259
 11
176.144
 21
-110.395
  0
LINE
  5
24A
100
AcDbEntity
  8
Black
  6
ByLayer
 62
  256
370
   -1
100
AcDbLine
 10
176.144
 20
-110.395
 11
176.024
 21
-110.497
  0
LINE
  5
24B
100
AcDbEntity
  8
Black
  6
ByLayer
 62
  256
370
   -1
100
AcDbLine
 10
176.024
 20
-110.497
 11
175.875
 21
-110.55
  0
LINE
  5
24C
100
AcDbEntity
  8
Black
  6
ByLayer
 62
  256
370
   -1
100
AcDbLine
 10
175.875
 20
-110.55
 11
175.718
 21
-110.55
  0
LINE
  5
24D
100
AcDbEntity
  8
Black
  6
ByLayer
 62
  256
370
   -1
100
AcDbLine
 10
175.718
 20
-110.55
 11
175.57
 21
-110.497
  0
LINE
  5
24E
100
AcDbEntity
  8
Black
  6
ByLayer
 62
  256
370
   -1
100
AcDbLine
 10
175.57
 20
-110.497
 11
175.449
 21
-110.395
  0
LINE
  5
24F
100
AcDbEntity
  8
Black
  6
ByLayer
 62
  256
370
   -1
100
AcDbLine
 10
175.449
 20
-110.395
 11
175.371
 21
-110.259
  0
LINE
  5
250
100
AcDbEntity
  8
Black
  6
ByLayer
 62
  256
370
   -1
100
AcDbLine
 10
175.371
 20
-110.259
 11
175.343
 21
-110.104
  0
LINE
  5
251
100
AcDbEntity
  8
Black
  6
ByLayer
 62
  256
370
   -1
100
AcDbLine
 10
175.343
 20
-110.104
 11
175.343
 21
-101.032
  0
LINE
  5
252
100
AcDbEntity
  8
Black
  6
ByLayer
 62
  256
370
   -1
100
AcDbLine
 10
175.343
 20
-101.032
 11
175.371
 21
-100.877
  0
LINE
  5
253
100
AcDbEntity
  8
Black
  6
ByLayer
 62
  256
370
   -1
100
AcDbLine
 10
175.371
 20
-100.877
 11
175.449
 21
-100.741
  0
LINE
  5
254
100
AcDbEntity
  8
Black
  6
ByLayer
 62
  256
370
   -1
100
AcDbLine
 10
175.449
 20
-100.741
 11
175.57
 21
-100.64
  0
LINE
  5
255
100
AcDbEntity
  8
Black
  6
ByLayer
 62
  256
370
   -1
100
AcDbLine
 10
175.57
 20
-100.64
 11
175.718
 21
-100.586
  0
LINE
  5
256
100
AcDbEntity
  8
Black
  6
ByLayer
 62
  256
370
   -1
100
AcDbLine
 10
175.718
 20
-100.586
 11
175.875
 21
-100.586
  0
LINE
  5
257
100
AcDbEntity
  8
Black
  6
ByLayer
 62
  256
370
   -1
100
AcDbLine
 10
175.875
 20
-100.586
 11
176.024
 21
-100.64
  0
LINE
  5
258
100
AcDbEntity
  8
Black
  6
ByLayer
 62
  256
370
   -1
100
AcDbLine
 10
105.859
 20
-100.633
 11
105.983
 21
-100.731
  0
LINE
  5
259
100
AcDbEntity
  8
Black
  6
ByLayer
 62
  256
370
   -1
100
AcDbLine
 10
105.983
 20
-100.731
 11
109.878
 21
-105.102
  0
LINE
  5
25A
100
AcDbEntity
  8
Black
  6
ByLayer
 62
  256
370
   -1
100
AcDbLine
 10
109.878
 20
-105.102
 11
113.772
 21
-100.731
  0
LINE
  5
25B
100
AcDbEntity
  8
Black
  6
ByLayer
 62
  256
370
   -1
100
AcDbLine
 10
113.772
 20
-100.731
 11
113.896
 21
-100.633
  0
LINE
  5
25C
100
AcDbEntity
  8
Black
  6
ByLayer
 62
  256
370
   -1
100
AcDbLine
 10
113.896
 20
-100.633
 11
114.046
 21
-100.583
  0
LINE
  5
25D
100
AcDbEntity
  8
Black
  6
ByLayer
 62
  256
370
   -1
100
AcDbLine
 10
114.046
 20
-100.583
 11
114.203
 21
-100.588
  0
LINE
  5
25E
100
AcDbEntity
  8
Black
  6
ByLayer
 62
  256
370
   -1
100
AcDbLine
 10
114.203
 20
-100.588
 11
114.349
 21
-100.646
  0
LINE
  5
25F
100
AcDbEntity
  8
Black
  6
ByLayer
 62
  256
370
   -1
100
AcDbLine
 10
114.349
 20
-100.646
 11
114.467
 21
-100.751
  0
LINE
  5
260
100
AcDbEntity
  8
Black
  6
ByLayer
 62
  256
370
   -1
100
AcDbLine
 10
114.467
 20
-100.751
 11
114.542
 21
-100.89
  0
LINE
  5
261
100
AcDbEntity
  8
Black
  6
ByLayer
 62
  256
370
   -1
100
AcDbLine
 10
114.542
 20
-100.89
 11
114.564
 21
-101.046
  0
LINE
  5
262
100
AcDbEntity
  8
Black
  6
ByLayer
 62
  256
370
   -1
100
AcDbLine
 10
114.564
 20
-101.046
 11
114.532
 21
-101.2
  0
LINE
  5
263
100
AcDbEntity
  8
Black
  6
ByLayer
 62
  256
370
   -1
100
AcDbLine
 10
114.532
 20
-101.2
 11
114.45
 21
-101.334
  0
LINE
  5
264
100
AcDbEntity
  8
Black
  6
ByLayer
 62
  256
370
   -1
100
AcDbLine
 10
114.45
 20
-101.334
 11
110.331
 21
-105.957
  0
LINE
  5
265
100
AcDbEntity
  8
Black
  6
ByLayer
 62
  256
370
   -1
100
AcDbLine
 10
110.331
 20
-105.957
 11
110.331
 21
-110.104
  0
LINE
  5
266
100
AcDbEntity
  8
Black
  6
ByLayer
 62
  256
370
   -1
100
AcDbLine
 10
110.331
 20
-110.104
 11
110.304
 21
-110.259
  0
LINE
  5
267
100
AcDbEntity
  8
Black
  6
ByLayer
 62
  256
370
   -1
100
AcDbLine
 10
110.304
 20
-110.259
 11
110.225
 21
-110.395
  0
LINE
  5
268
100
AcDbEntity
  8
Black
  6
ByLayer
 62
  256
370
   -1
100
AcDbLine
 10
110.225
 20
-110.395
 11
110.104
 21
-110.497
  0
LINE
  5
269
100
AcDbEntity
  8
Black
  6
ByLayer
 62
  256
370
   -1
100
AcDbLine
 10
110.104
 20
-110.497
 11
109.956
 21
-110.55
  0
LINE
  5
26A
100
AcDbEntity
  8
Black
  6
ByLayer
 62
  256
370
   -1
100
AcDbLine
 10
109.956
 20
-110.55
 11
109.799
 21
-110.55
  0
LINE
  5
26B
100
AcDbEntity
  8
Black
  6
ByLayer
 62
  256
370
   -1
100
AcDbLine
 10
109.799
 20
-110.55
 11
109.651
 21
-110.497
  0
LINE
  5
26C
100
AcDbEntity
  8
Black
  6
ByLayer
 62
  256
370
   -1
100
AcDbLine
 10
109.651
 20
-110.497
 11
109.53
 21
-110.395
  0
LINE
  5
26D
100
AcDbEntity
  8
Black
  6
ByLayer
 62
  256
370
   -1
100
AcDbLine
 10
109.53
 20
-110.395
 11
109.451
 21
-110.259
  0
LINE
  5
26E
100
AcDbEntity
  8
Black
  6
ByLayer
 62
  256
370
   -1
100
AcDbLine
 10
109.451
 20
-110.259
 11
109.424
 21
-110.104
  0
LINE
  5
26F
100
AcDbEntity
  8
Black
  6
ByLayer
 62
  256
370
   -1
100
AcDbLine
 10
109.424
 20
-110.104
 11
109.424
 21
-105.957
  0
LINE
  5
270
100
AcDbEntity
  8
Black
  6
ByLayer
 62
  256
370
   -1
100
AcDbLine
 10
109.424
 20
-105.957
 11
105.306
 21
-101.334
  0
LINE
  5
271
100
AcDbEntity
  8
Black
  6
ByLayer
 62
  256
370
   -1
100
AcDbLine
 10
105.306
 20
-101.334
 11
105.223
 21
-101.2
  0
LINE
  5
272
100
AcDbEntity
  8
Black
  6
ByLayer
 62
  256
370
   -1
100
AcDbLine
 10
105.223
 20
-101.2
 11
105.191
 21
-101.046
  0
LINE
  5
273
100
AcDbEntity
  8
Black
  6
ByLayer
 62
  256
370
   -1
100
AcDbLine
 10
105.191
 20
-101.046
 11
105.214
 21
-100.89
  0
LINE
  5
274
100
AcDbEntity
  8
Black
  6
ByLayer
 62
  256
370
   -1
100
AcDbLine
 10
105.214
 20
-100.89
 11
105.288
 21
-100.751
  0
LINE
  5
275
100
AcDbEntity
  8
Black
  6
ByLayer
 62
  256
370
   -1
100
AcDbLine
 10
105.288
 20
-100.751
 11
105.406
 21
-100.646
  0
LINE
  5
276
100
AcDbEntity
  8
Black
  6
ByLayer
 62
  256
370
   -1
100
AcDbLine
 10
105.406
 20
-100.646
 11
105.552
 21
-100.588
  0
LINE
  5
277
100
AcDbEntity
  8
Black
  6
ByLayer
 62
  256
370
   -1
100
AcDbLine
 10
105.552
 20
-100.588
 11
105.71
 21
-100.583
  0
LINE
  5
278
100
AcDbEntity
  8
Black
  6
ByLayer
 62
  256
370
   -1
100
AcDbLine
 10
105.71
 20
-100.583
 11
105.859
 21
-100.633
  0
ENDSEC
  0
SECTION
  2
OBJECTS
  0
DICTIONARY
  5
C
330
0
100
AcDbDictionary
281
    1
  3
ACAD_GROUP
350
D
  0
DICTIONARY
  5
D
330
C
100
AcDbDictionary
281
    1
  0
ENDSEC
  0
EOF
