M48
;DRILL file {KiCad 4.0.7} date 04/22/18 00:18:51
;FORMAT={-:-/ absolute / inch / decimal}
FMAT,2
INCH,TZ
T1C0.016
T2C0.024
T3C0.030
T4C0.041
T5C0.058
T6C0.087
%
G90
G05
M72
T1
X2.07Y-4.325
X2.125Y-3.23
X2.15Y-2.525
X2.15Y-3.84
X2.19Y-3.06
X2.21Y-2.74
X2.22Y-3.2
X2.26Y-3.22
X2.305Y-3.35
X2.365Y-4.95
X2.37Y-2.32
X2.37Y-2.355
X2.415Y-4.075
X2.43Y-2.605
X2.45Y-2.47
X2.535Y-4.835
X2.57Y-2.19
X2.57Y-2.225
X2.59Y-2.47
X2.59Y-4.135
X2.61Y-3.44
X2.615Y-3.115
X2.63Y-2.47
X2.635Y-4.245
X2.66Y-3.83
X2.6875Y-3.9688
X2.69Y-3.86
X2.695Y-2.295
X2.705Y-2.185
X2.72Y-3.305
X2.72Y-4.12
X2.725Y-3.895
X2.75Y-2.9
X2.755Y-3.645
X2.755Y-3.685
X2.76Y-4.225
X2.765Y-3.14
X2.78Y-3.33
X2.78Y-3.41
X2.78Y-4.12
X2.79Y-2.675
X2.79Y-2.775
X2.82Y-4.12
X2.825Y-3.775
X2.825Y-3.815
X2.85Y-3.895
X2.855Y-3.75
X2.88Y-3.48
X2.9Y-3.295
X2.9Y-3.36
X2.91Y-2.645
X2.91Y-3.46
X2.915Y-3.845
X2.915Y-3.97
X2.92Y-4.6
X2.94Y-4.365
X2.975Y-4.005
X2.975Y-4.405
X2.99Y-4.69
X2.99Y-5.11
X2.995Y-2.615
X2.995Y-2.895
X2.995Y-3.43
X3.01Y-4.005
X3.03Y-4.175
X3.03Y-4.28
X3.03Y-4.73
X3.045Y-4.005
X3.05Y-4.465
X3.05Y-4.7
X3.06Y-2.85
X3.06Y-3.225
X3.06Y-3.93
X3.065Y-5.05
X3.085Y-3.83
X3.085Y-4.335
X3.095Y-2.92
X3.095Y-3.16
X3.11Y-3.32
X3.11Y-3.375
X3.11Y-4.685
X3.14Y-3.82
X3.155Y-2.435
X3.155Y-2.625
X3.155Y-4.14
X3.185Y-4.375
X3.215Y-2.325
X3.215Y-3.875
X3.215Y-3.9688
X3.22Y-3.815
X3.27Y-4.65
X3.29Y-4.12
X3.315Y-3.635
X3.325Y-2.57
X3.33Y-3.81
X3.33Y-3.875
X3.34Y-4.64
X3.3438Y-3.9375
X3.35Y-2.415
X3.365Y-4.735
X3.38Y-4.64
X3.445Y-2.48
X3.505Y-4.59
X3.51Y-4.155
X3.51Y-4.195
X3.535Y-2.495
X3.54Y-4.73
X3.56Y-4.435
X3.66Y-4.545
X3.66Y-4.635
X3.69Y-4.885
X3.75Y-3.2
X3.75Y-4.965
X3.94Y-3.95
X3.9688Y-3.6562
X3.99Y-2.585
X4.23Y-4.89
X4.365Y-4.955
X4.5Y-3.2
X4.69Y-3.95
X4.715Y-5.01
X4.845Y-5.475
X4.98Y-4.7
X5.075Y-2.735
X5.105Y-4.825
X5.16Y-4.78
X5.25Y-3.2
X5.44Y-3.95
X5.72Y-5.42
X5.72Y-5.48
X6.Y-3.2
X6.065Y-2.695
X6.19Y-3.95
X6.415Y-2.45
X6.435Y-4.755
X6.435Y-4.8
X6.46Y-5.425
X6.53Y-5.015
X6.75Y-3.2
X6.795Y-4.855
X6.9Y-4.795
X6.91Y-3.52
X6.94Y-3.95
X7.035Y-5.01
X7.035Y-5.145
X7.17Y-5.315
X7.5Y-3.2
X7.69Y-3.585
X7.69Y-3.95
X7.91Y-2.45
X8.195Y-5.315
X8.25Y-3.2
X8.44Y-3.95
X8.51Y-4.83
X8.575Y-5.1
X8.625Y-5.425
X8.625Y-5.495
X8.655Y-4.765
X9.Y-3.2
X9.19Y-3.95
X9.215Y-5.085
X9.545Y-4.695
X9.75Y-3.2
X9.94Y-3.95
X10.365Y-4.7
X10.5Y-3.2
X10.69Y-3.95
X10.71Y-4.81
X10.81Y-5.095
X10.86Y-2.45
X10.885Y-4.73
X10.94Y-5.31
X11.01Y-4.93
X11.25Y-3.2
X11.415Y-2.66
X11.44Y-3.95
X11.495Y-3.31
X12.Y-3.2
X12.005Y-4.135
X12.125Y-4.175
X12.19Y-2.395
X12.22Y-2.67
X12.76Y-2.69
X12.865Y-4.81
T2
X2.7804Y-3.
X2.8001Y-2.9409
X2.8001Y-3.0591
X2.8099Y-5.1807
X2.8099Y-5.3185
X2.8592Y-2.9213
X2.8592Y-3.0787
X2.8592Y-5.1807
X2.8592Y-5.3185
X2.9084Y-5.1807
X2.9084Y-5.3185
X2.9182Y-2.9409
X2.9182Y-3.0591
X2.9379Y-3.
X4.9838Y-5.25
X5.0034Y-5.1909
X5.0034Y-5.3091
X5.0625Y-5.1713
X5.0625Y-5.3287
X5.1216Y-5.1909
X5.1216Y-5.3091
X5.1412Y-5.25
X6.14Y-2.625
X6.1597Y-2.5659
X6.1597Y-2.6841
X6.2188Y-2.5463
X6.2188Y-2.7037
X6.2778Y-2.5659
X6.2778Y-2.6841
X6.2975Y-2.625
X6.8883Y-3.6811
X6.8883Y-3.8189
X6.9375Y-3.6811
X6.9375Y-3.8189
X6.9867Y-3.6811
X6.9867Y-3.8189
X9.2265Y-5.1811
X9.2265Y-5.3189
X9.2757Y-5.1811
X9.2757Y-5.3189
X9.3249Y-5.1811
X9.3249Y-5.3189
X9.89Y-2.625
X9.9097Y-2.5659
X9.9097Y-2.6841
X9.9688Y-2.5463
X9.9688Y-2.7037
X10.0278Y-2.5659
X10.0278Y-2.6841
X10.0475Y-2.625
X12.0796Y-2.9311
X12.0796Y-3.0689
X12.1288Y-2.9311
X12.1288Y-3.0689
X12.1781Y-2.9311
X12.1781Y-3.0689
X12.3265Y-5.1811
X12.3265Y-5.3189
X12.3757Y-5.1811
X12.3757Y-5.3189
X12.4249Y-5.1811
X12.4249Y-5.3189
T3
X2.025Y-3.325
X2.025Y-3.425
X2.225Y-3.325
X2.225Y-3.425
T4
X2.2Y-2.45
X2.2937Y-3.95
X2.2937Y-5.45
X2.3Y-2.45
X2.3875Y-3.2
X2.3875Y-5.45
X2.3937Y-3.95
X2.3937Y-5.45
X2.4812Y-3.95
X2.4875Y-3.2
X2.4875Y-5.45
X2.5812Y-3.95
X2.6687Y-4.7
X2.7687Y-4.7
X2.95Y-2.45
X3.05Y-2.45
X3.2312Y-5.45
X3.325Y-3.2
X3.3312Y-5.45
X3.4187Y-5.45
X3.425Y-3.2
X3.5125Y-3.95
X3.5125Y-5.45
X3.5187Y-5.45
X3.6125Y-3.95
X3.6125Y-5.45
X3.7Y-2.45
X3.8Y-2.45
X3.8875Y-4.7
X3.9875Y-4.7
X4.075Y-3.2
X4.1688Y-5.45
X4.175Y-3.2
X4.2625Y-3.95
X4.2687Y-5.45
X4.3625Y-3.95
X4.45Y-2.45
X4.45Y-5.45
X4.55Y-2.45
X4.55Y-5.45
X4.6375Y-4.7
X4.7375Y-4.7
X4.825Y-3.2
X4.925Y-3.2
X5.0125Y-3.95
X5.1125Y-3.95
X5.2Y-2.45
X5.3Y-2.45
X5.3875Y-4.7
X5.4813Y-5.45
X5.4875Y-4.7
X5.575Y-3.2
X5.5812Y-5.45
X5.675Y-3.2
X5.7625Y-3.95
X5.8563Y-5.45
X5.8625Y-3.95
X5.95Y-2.45
X5.9562Y-5.45
X6.05Y-2.45
X6.1375Y-4.7
X6.2375Y-4.7
X6.325Y-3.2
X6.425Y-3.2
X6.5125Y-3.95
X6.6125Y-3.95
X6.7Y-2.45
X6.7Y-5.45
X6.7938Y-5.45
X6.8Y-2.45
X6.8Y-5.45
X6.8875Y-4.7
X6.8937Y-5.45
X6.9813Y-5.45
X6.9875Y-4.7
X7.075Y-3.2
X7.0812Y-5.45
X7.175Y-3.2
X7.2625Y-3.95
X7.2625Y-5.45
X7.3625Y-3.95
X7.3625Y-5.45
X7.45Y-2.45
X7.45Y-5.45
X7.55Y-2.45
X7.55Y-5.45
X7.6375Y-4.7
X7.7375Y-4.7
X7.825Y-3.2
X7.925Y-3.2
X8.0125Y-3.95
X8.1125Y-3.95
X8.2Y-2.45
X8.2937Y-5.45
X8.3Y-2.45
X8.3875Y-4.7
X8.3937Y-5.45
X8.4875Y-4.7
X8.575Y-3.2
X8.675Y-3.2
X8.7625Y-3.95
X8.8562Y-5.45
X8.8625Y-3.95
X8.95Y-2.45
X8.9562Y-5.45
X9.05Y-2.45
X9.1375Y-4.7
X9.2375Y-4.7
X9.325Y-3.2
X9.425Y-3.2
X9.5125Y-3.95
X9.6125Y-3.95
X9.7Y-2.45
X9.7Y-5.45
X9.8Y-2.45
X9.8Y-5.45
X9.8875Y-4.7
X9.8875Y-5.45
X9.9875Y-4.7
X9.9875Y-5.45
X10.075Y-3.2
X10.175Y-3.2
X10.2625Y-3.95
X10.3562Y-5.45
X10.3625Y-3.95
X10.45Y-2.45
X10.45Y-5.45
X10.4562Y-5.45
X10.55Y-2.45
X10.55Y-5.45
X10.6375Y-4.7
X10.7375Y-4.7
X10.825Y-3.2
X10.925Y-3.2
X11.0125Y-3.95
X11.0125Y-5.45
X11.1125Y-3.95
X11.1125Y-5.45
X11.2Y-2.45
X11.2Y-5.45
X11.3Y-2.45
X11.3Y-5.45
X11.575Y-3.2
X11.6687Y-4.7
X11.675Y-3.2
X11.7687Y-4.7
X11.95Y-2.45
X11.95Y-5.45
X12.05Y-2.45
X12.05Y-5.45
X12.2312Y-3.95
X12.325Y-2.45
X12.3312Y-3.95
X12.425Y-2.45
X12.5125Y-3.2
X12.6125Y-3.2
X12.7Y-2.45
X12.7Y-4.7
X12.7Y-5.45
X12.8Y-2.45
X12.8Y-4.7
X12.8Y-5.45
X13.45Y-2.45
X13.45Y-3.2
X13.45Y-3.95
X13.45Y-4.7
X13.45Y-5.45
X13.55Y-2.45
X13.55Y-3.2
X13.55Y-3.95
X13.55Y-4.7
X13.55Y-5.45
T5
X2.1Y-2.15
X2.1516Y-2.0925
X2.1938Y-3.65
X2.1938Y-5.15
X2.2453Y-3.5925
X2.2453Y-5.0925
X2.2875Y-2.9
X2.2875Y-5.15
X2.3391Y-2.8425
X2.3391Y-5.0925
X2.3484Y-2.0728
X2.35Y-2.05
X2.3813Y-3.65
X2.4328Y-3.5925
X2.4422Y-3.5728
X2.4422Y-5.0728
X2.4438Y-3.55
X2.4438Y-5.05
X2.5359Y-2.8228
X2.5359Y-5.0728
X2.5375Y-2.8
X2.5375Y-5.05
X2.5688Y-4.4
X2.6203Y-4.3425
X2.6297Y-3.5728
X2.6313Y-3.55
X2.8172Y-4.3228
X2.8188Y-4.3
X2.85Y-2.15
X2.9016Y-2.0925
X3.0984Y-2.0728
X3.1Y-2.05
X3.1313Y-5.15
X3.1828Y-5.0925
X3.225Y-2.9
X3.2766Y-2.8425
X3.3188Y-5.15
X3.3703Y-5.0925
X3.3797Y-5.0728
X3.3813Y-5.05
X3.4125Y-3.65
X3.4125Y-5.15
X3.4641Y-3.5925
X3.4641Y-5.0925
X3.4734Y-2.8228
X3.475Y-2.8
X3.5672Y-5.0728
X3.5688Y-5.05
X3.6Y-2.15
X3.6516Y-2.0925
X3.6609Y-3.5728
X3.6609Y-5.0728
X3.6625Y-3.55
X3.6625Y-5.05
X3.7875Y-4.4
X3.8391Y-4.3425
X3.8484Y-2.0728
X3.85Y-2.05
X3.975Y-2.9
X4.0266Y-2.8425
X4.0359Y-4.3228
X4.0375Y-4.3
X4.0687Y-5.15
X4.1203Y-5.0925
X4.1625Y-3.65
X4.2141Y-3.5925
X4.2234Y-2.8228
X4.225Y-2.8
X4.3172Y-5.0728
X4.3187Y-5.05
X4.35Y-2.15
X4.35Y-5.15
X4.4016Y-2.0925
X4.4016Y-5.0925
X4.4109Y-3.5728
X4.4125Y-3.55
X4.5375Y-4.4
X4.5891Y-4.3425
X4.5984Y-2.0728
X4.5984Y-5.0728
X4.6Y-2.05
X4.6Y-5.05
X4.725Y-2.9
X4.7766Y-2.8425
X4.7859Y-4.3228
X4.7875Y-4.3
X4.9125Y-3.65
X4.9641Y-3.5925
X4.9734Y-2.8228
X4.975Y-2.8
X5.1Y-2.15
X5.1516Y-2.0925
X5.1609Y-3.5728
X5.1625Y-3.55
X5.2875Y-4.4
X5.3391Y-4.3425
X5.3484Y-2.0728
X5.35Y-2.05
X5.3812Y-5.15
X5.4328Y-5.0925
X5.475Y-2.9
X5.5266Y-2.8425
X5.5359Y-4.3228
X5.5375Y-4.3
X5.6297Y-5.0728
X5.6312Y-5.05
X5.6625Y-3.65
X5.7141Y-3.5925
X5.7234Y-2.8228
X5.725Y-2.8
X5.7562Y-5.15
X5.8078Y-5.0925
X5.85Y-2.15
X5.9016Y-2.0925
X5.9109Y-3.5728
X5.9125Y-3.55
X6.0047Y-5.0728
X6.0062Y-5.05
X6.0375Y-4.4
X6.0891Y-4.3425
X6.0984Y-2.0728
X6.1Y-2.05
X6.225Y-2.9
X6.2766Y-2.8425
X6.2859Y-4.3228
X6.2875Y-4.3
X6.4125Y-3.65
X6.4641Y-3.5925
X6.4734Y-2.8228
X6.475Y-2.8
X6.6Y-2.15
X6.6Y-5.15
X6.6516Y-2.0925
X6.6516Y-5.0925
X6.6609Y-3.5728
X6.6625Y-3.55
X6.6937Y-5.15
X6.7453Y-5.0925
X6.7875Y-4.4
X6.8391Y-4.3425
X6.8484Y-2.0728
X6.8484Y-5.0728
X6.85Y-2.05
X6.85Y-5.05
X6.8812Y-5.15
X6.9328Y-5.0925
X6.9422Y-5.0728
X6.9437Y-5.05
X6.975Y-2.9
X7.0266Y-2.8425
X7.0359Y-4.3228
X7.0375Y-4.3
X7.1297Y-5.0728
X7.1312Y-5.05
X7.1625Y-3.65
X7.1625Y-5.15
X7.2141Y-3.5925
X7.2141Y-5.0925
X7.2234Y-2.8228
X7.225Y-2.8
X7.35Y-2.15
X7.35Y-5.15
X7.4016Y-2.0925
X7.4016Y-5.0925
X7.4109Y-3.5728
X7.4109Y-5.0728
X7.4125Y-3.55
X7.4125Y-5.05
X7.5375Y-4.4
X7.5891Y-4.3425
X7.5984Y-2.0728
X7.5984Y-5.0728
X7.6Y-2.05
X7.6Y-5.05
X7.725Y-2.9
X7.7766Y-2.8425
X7.7859Y-4.3228
X7.7875Y-4.3
X7.9125Y-3.65
X7.9641Y-3.5925
X7.9734Y-2.8228
X7.975Y-2.8
X8.1Y-2.15
X8.1516Y-2.0925
X8.1609Y-3.5728
X8.1625Y-3.55
X8.1937Y-5.15
X8.2453Y-5.0925
X8.2875Y-4.4
X8.3391Y-4.3425
X8.3484Y-2.0728
X8.35Y-2.05
X8.4422Y-5.0728
X8.4437Y-5.05
X8.475Y-2.9
X8.5266Y-2.8425
X8.5359Y-4.3228
X8.5375Y-4.3
X8.6625Y-3.65
X8.7141Y-3.5925
X8.7234Y-2.8228
X8.725Y-2.8
X8.7562Y-5.15
X8.8078Y-5.0925
X8.85Y-2.15
X8.9016Y-2.0925
X8.9109Y-3.5728
X8.9125Y-3.55
X9.0047Y-5.0728
X9.0062Y-5.05
X9.0375Y-4.4
X9.0891Y-4.3425
X9.0984Y-2.0728
X9.1Y-2.05
X9.225Y-2.9
X9.2766Y-2.8425
X9.2859Y-4.3228
X9.2875Y-4.3
X9.4125Y-3.65
X9.4641Y-3.5925
X9.4734Y-2.8228
X9.475Y-2.8
X9.6Y-2.15
X9.6Y-5.15
X9.6516Y-2.0925
X9.6516Y-5.0925
X9.6609Y-3.5728
X9.6625Y-3.55
X9.7875Y-4.4
X9.7875Y-5.15
X9.8391Y-4.3425
X9.8391Y-5.0925
X9.8484Y-2.0728
X9.8484Y-5.0728
X9.85Y-2.05
X9.85Y-5.05
X9.975Y-2.9
X10.0266Y-2.8425
X10.0359Y-4.3228
X10.0359Y-5.0728
X10.0375Y-4.3
X10.0375Y-5.05
X10.1625Y-3.65
X10.2141Y-3.5925
X10.2234Y-2.8228
X10.225Y-2.8
X10.2562Y-5.15
X10.3078Y-5.0925
X10.35Y-2.15
X10.35Y-5.15
X10.4016Y-2.0925
X10.4016Y-5.0925
X10.4109Y-3.5728
X10.4125Y-3.55
X10.5047Y-5.0728
X10.5062Y-5.05
X10.5375Y-4.4
X10.5891Y-4.3425
X10.5984Y-2.0728
X10.5984Y-5.0728
X10.6Y-2.05
X10.6Y-5.05
X10.725Y-2.9
X10.7766Y-2.8425
X10.7859Y-4.3228
X10.7875Y-4.3
X10.9125Y-3.65
X10.9125Y-5.15
X10.9641Y-3.5925
X10.9641Y-5.0925
X10.9734Y-2.8228
X10.975Y-2.8
X11.1Y-2.15
X11.1Y-5.15
X11.1516Y-2.0925
X11.1516Y-5.0925
X11.1609Y-3.5728
X11.1609Y-5.0728
X11.1625Y-3.55
X11.1625Y-5.05
X11.3484Y-2.0728
X11.3484Y-5.0728
X11.35Y-2.05
X11.35Y-5.05
X11.475Y-2.9
X11.5266Y-2.8425
X11.5687Y-4.4
X11.6203Y-4.3425
X11.7234Y-2.8228
X11.725Y-2.8
X11.8172Y-4.3228
X11.8187Y-4.3
X11.85Y-2.15
X11.85Y-5.15
X11.9016Y-2.0925
X11.9016Y-5.0925
X12.0984Y-2.0728
X12.0984Y-5.0728
X12.1Y-2.05
X12.1Y-5.05
X12.1312Y-3.65
X12.1828Y-3.5925
X12.225Y-2.15
X12.2766Y-2.0925
X12.3797Y-3.5728
X12.3812Y-3.55
X12.4125Y-2.9
X12.4641Y-2.8425
X12.4734Y-2.0728
X12.475Y-2.05
X12.6Y-2.15
X12.6Y-4.4
X12.6Y-5.15
X12.6516Y-2.0925
X12.6516Y-4.3425
X12.6516Y-5.0925
X12.6609Y-2.8228
X12.6625Y-2.8
X12.8484Y-2.0728
X12.8484Y-4.3228
X12.8484Y-5.0728
X12.85Y-2.05
X12.85Y-4.3
X12.85Y-5.05
X13.35Y-2.15
X13.35Y-2.9
X13.35Y-3.65
X13.35Y-4.4
X13.35Y-5.15
X13.4016Y-2.0925
X13.4016Y-2.8425
X13.4016Y-3.5925
X13.4016Y-4.3425
X13.4016Y-5.0925
X13.5984Y-2.0728
X13.5984Y-2.8228
X13.5984Y-3.5728
X13.5984Y-4.3228
X13.5984Y-5.0728
X13.6Y-2.05
X13.6Y-2.8
X13.6Y-3.55
X13.6Y-4.3
X13.6Y-5.05
T2
X2.4377Y-1.9016G85X2.4377Y-1.9252
G05
X2.4377Y-2.0563G85X2.4377Y-2.0996
G05
X2.7779Y-1.9016G85X2.7779Y-1.9252
G05
X2.7779Y-2.0563G85X2.7779Y-2.0996
G05
T6
X2.8592Y-3.G85X2.8592Y-3.
G05
X2.804Y-5.2496G85X2.9143Y-5.2496
G05
X5.0625Y-5.25G85X5.0625Y-5.25
G05
X6.2188Y-2.625G85X6.2188Y-2.625
G05
X6.8824Y-3.75G85X6.9926Y-3.75
G05
X9.2206Y-5.25G85X9.3308Y-5.25
G05
X9.9688Y-2.625G85X9.9688Y-2.625
G05
X12.0737Y-3.G85X12.184Y-3.
G05
X12.3206Y-5.25G85X12.4308Y-5.25
G05
T0
M30
