  0
SECTION
  2
HEADER
  9
$ANGBASE
  50
0.0
  9
$ANGDIR
  70
  1
  9
$MEASUREMENT
  70
0
  0
ENDSEC
  0
SECTION
  2
TABLES
  0
TABLE
  2
LTYPE
  70
1
  0
LTYPE
  2
CONTINUOUS
  70
0
  3
Solid line
  72
65
  73
0
  40
0.0
  0
ENDTAB
  0
TABLE
  2
STYLE
  70
4
  0
STYLE
  2
KICAD
  70
0
  40
0
  41
1
  42
1
  50
0
  71
0
  3
isocp.shx
  0
STYLE
  2
KICADB
  70
0
  40
0
  41
1
  42
1
  50
0
  71
0
  3
isocp.shx
  0
STYLE
  2
KICADI
  70
0
  40
0
  41
1
  42
1
  50
15
  71
0
  3
isocp.shx
  0
STYLE
  2
KICADBI
  70
0
  40
0
  41
1
  42
1
  50
15
  71
0
  3
isocp.shx
  0
ENDTAB
  0
TABLE
  2
LAYER
  70
30
  0
LAYER
  2
BLACK
  70
0
  62
7
  6
CONTINUOUS
  0
LAYER
  2
GRAY1
  70
0
  62
251
  6
CONTINUOUS
  0
LAYER
  2
GRAY2
  70
0
  62
8
  6
CONTINUOUS
  0
LAYER
  2
GRAY3
  70
0
  62
9
  6
CONTINUOUS
  0
LAYER
  2
WHITE
  70
0
  62
7
  6
CONTINUOUS
  0
LAYER
  2
LYELLOW
  70
0
  62
51
  6
CONTINUOUS
  0
LAYER
  2
BLUE1
  70
0
  62
178
  6
CONTINUOUS
  0
LAYER
  2
GREEN1
  70
0
  62
98
  6
CONTINUOUS
  0
LAYER
  2
CYAN1
  70
0
  62
138
  6
CONTINUOUS
  0
LAYER
  2
RED1
  70
0
  62
18
  6
CONTINUOUS
  0
LAYER
  2
MAGENTA1
  70
0
  62
228
  6
CONTINUOUS
  0
LAYER
  2
BROWN1
  70
0
  62
58
  6
CONTINUOUS
  0
LAYER
  2
BLUE2
  70
0
  62
5
  6
CONTINUOUS
  0
LAYER
  2
GREEN2
  70
0
  62
3
  6
CONTINUOUS
  0
LAYER
  2
CYAN2
  70
0
  62
4
  6
CONTINUOUS
  0
LAYER
  2
RED2
  70
0
  62
1
  6
CONTINUOUS
  0
LAYER
  2
MAGENTA2
  70
0
  62
6
  6
CONTINUOUS
  0
LAYER
  2
BROWN2
  70
0
  62
54
  6
CONTINUOUS
  0
LAYER
  2
BLUE3
  70
0
  62
171
  6
CONTINUOUS
  0
LAYER
  2
GREEN3
  70
0
  62
91
  6
CONTINUOUS
  0
LAYER
  2
CYAN3
  70
0
  62
131
  6
CONTINUOUS
  0
LAYER
  2
RED3
  70
0
  62
11
  6
CONTINUOUS
  0
LAYER
  2
MAGENTA3
  70
0
  62
221
  6
CONTINUOUS
  0
LAYER
  2
YELLOW3
  70
0
  62
2
  6
CONTINUOUS
  0
LAYER
  2
BLUE4
  70
0
  62
5
  6
CONTINUOUS
  0
LAYER
  2
GREEN4
  70
0
  62
3
  6
CONTINUOUS
  0
LAYER
  2
CYAN4
  70
0
  62
4
  6
CONTINUOUS
  0
LAYER
  2
RED4
  70
0
  62
1
  6
CONTINUOUS
  0
LAYER
  2
MAGENTA4
  70
0
  62
6
  6
CONTINUOUS
  0
LAYER
  2
YELLOW4
  70
0
  62
2
  6
CONTINUOUS
  0
ENDTAB
  0
ENDSEC
  0
SECTION
  2
ENTITIES
0
LINE
8
Black
10
71.4407
20
-47.5506
11
71.444
21
-47.5503
0
LINE
8
Black
10
71.444
20
-47.5503
11
71.4535
21
-47.5528
0
LINE
8
Black
10
71.4535
20
-47.5528
11
71.4632
21
-47.5545
0
LINE
8
Black
10
71.4632
20
-47.5545
11
71.466
21
-47.5562
0
LINE
8
Black
10
71.466
20
-47.5562
11
71.4692
21
-47.557
0
LINE
8
Black
10
71.4692
20
-47.557
11
71.4772
21
-47.5626
0
LINE
8
Black
10
71.4772
20
-47.5626
11
71.4857
21
-47.5675
0
LINE
8
Black
10
71.4857
20
-47.5675
11
71.4878
21
-47.5701
0
LINE
8
Black
10
71.4878
20
-47.5701
11
71.4905
21
-47.572
0
LINE
8
Black
10
71.4905
20
-47.572
11
71.4962
21
-47.58
0
LINE
8
Black
10
71.4962
20
-47.58
11
71.5025
21
-47.5875
0
LINE
8
Black
10
71.5025
20
-47.5875
11
71.5036
21
-47.5906
0
LINE
8
Black
10
71.5036
20
-47.5906
11
71.5055
21
-47.5933
0
LINE
8
Black
10
71.5055
20
-47.5933
11
71.508
21
-47.6028
0
LINE
8
Black
10
71.508
20
-47.6028
11
71.5114
21
-47.612
0
LINE
8
Black
10
71.5114
20
-47.612
11
71.5114
21
-47.6153
0
LINE
8
Black
10
71.5114
20
-47.6153
11
71.5122
21
-47.6185
0
LINE
8
Black
10
71.5122
20
-47.6185
11
71.5234
21
-47.7465
0
LINE
8
Black
10
71.5234
20
-47.7465
11
71.6098
21
-47.9838
0
LINE
8
Black
10
71.6098
20
-47.9838
11
71.77
21
-48.1747
0
LINE
8
Black
10
71.77
20
-48.1747
11
71.9858
21
-48.2993
0
LINE
8
Black
10
71.9858
20
-48.2993
11
72.2378
21
-48.3438
0
LINE
8
Black
10
72.2378
20
-48.3438
11
347.662
21
-48.3438
0
LINE
8
Black
10
347.662
20
-48.3438
11
347.669
21
-48.3449
0
LINE
8
Black
10
347.669
20
-48.3449
11
347.676
21
-48.3449
0
LINE
8
Black
10
347.676
20
-48.3449
11
349.033
21
-48.5842
0
LINE
8
Black
10
349.033
20
-48.5842
11
349.057
21
-48.5931
0
LINE
8
Black
10
349.057
20
-48.5931
11
349.057
21
-48.5931
0
LINE
8
Black
10
349.057
20
-48.5931
11
350.251
21
-49.2823
0
LINE
8
Black
10
350.251
20
-49.2823
11
350.271
21
-49.2991
0
LINE
8
Black
10
350.271
20
-49.2991
11
351.157
21
-50.3549
0
LINE
8
Black
10
351.157
20
-50.3549
11
351.17
21
-50.3775
0
LINE
8
Black
10
351.17
20
-50.3775
11
351.17
21
-50.3775
0
LINE
8
Black
10
351.17
20
-50.3775
11
351.641
21
-51.6727
0
LINE
8
Black
10
351.641
20
-51.6727
11
351.643
21
-51.6823
0
LINE
8
Black
10
351.643
20
-51.6823
11
351.646
21
-51.6918
0
LINE
8
Black
10
351.646
20
-51.6918
11
351.706
21
-52.381
0
LINE
8
Black
10
351.706
20
-52.381
11
351.706
21
-52.3843
0
LINE
8
Black
10
351.706
20
-52.3843
11
351.706
21
-52.3875
0
LINE
8
Black
10
351.706
20
-52.3875
11
351.706
21
-138.112
0
LINE
8
Black
10
351.706
20
-138.112
11
351.705
21
-138.119
0
LINE
8
Black
10
351.705
20
-138.119
11
351.705
21
-138.126
0
LINE
8
Black
10
351.705
20
-138.126
11
351.466
21
-139.483
0
LINE
8
Black
10
351.466
20
-139.483
11
351.457
21
-139.507
0
LINE
8
Black
10
351.457
20
-139.507
11
350.768
21
-140.701
0
LINE
8
Black
10
350.768
20
-140.701
11
350.751
21
-140.721
0
LINE
8
Black
10
350.751
20
-140.721
11
350.751
21
-140.721
0
LINE
8
Black
10
350.751
20
-140.721
11
349.695
21
-141.607
0
LINE
8
Black
10
349.695
20
-141.607
11
349.695
21
-141.607
0
LINE
8
Black
10
349.695
20
-141.607
11
349.673
21
-141.62
0
LINE
8
Black
10
349.673
20
-141.62
11
348.377
21
-142.091
0
LINE
8
Black
10
348.377
20
-142.091
11
348.368
21
-142.093
0
LINE
8
Black
10
348.368
20
-142.093
11
348.358
21
-142.096
0
LINE
8
Black
10
348.358
20
-142.096
11
347.669
21
-142.156
0
LINE
8
Black
10
347.669
20
-142.156
11
347.666
21
-142.156
0
LINE
8
Black
10
347.666
20
-142.156
11
347.662
21
-142.156
0
LINE
8
Black
10
347.662
20
-142.156
11
52.3875
21
-142.156
0
LINE
8
Black
10
52.3875
20
-142.156
11
52.381
21
-142.155
0
LINE
8
Black
10
52.381
20
-142.155
11
52.3745
21
-142.155
0
LINE
8
Black
10
52.3745
20
-142.155
11
51.0171
21
-141.916
0
LINE
8
Black
10
51.0171
20
-141.916
11
50.9926
21
-141.907
0
LINE
8
Black
10
50.9926
20
-141.907
11
49.7989
21
-141.218
0
LINE
8
Black
10
49.7989
20
-141.218
11
49.7989
21
-141.218
0
LINE
8
Black
10
49.7989
20
-141.218
11
49.7957
21
-141.215
0
LINE
8
Black
10
49.7957
20
-141.215
11
49.779
21
-141.201
0
LINE
8
Black
10
49.779
20
-141.201
11
49.779
21
-141.201
0
LINE
8
Black
10
49.779
20
-141.201
11
48.893
21
-140.145
0
LINE
8
Black
10
48.893
20
-140.145
11
48.893
21
-140.145
0
LINE
8
Black
10
48.893
20
-140.145
11
48.88
21
-140.123
0
LINE
8
Black
10
48.88
20
-140.123
11
48.4086
21
-138.827
0
LINE
8
Black
10
48.4086
20
-138.827
11
48.4069
21
-138.818
0
LINE
8
Black
10
48.4069
20
-138.818
11
48.4043
21
-138.808
0
LINE
8
Black
10
48.4043
20
-138.808
11
48.344
21
-138.119
0
LINE
8
Black
10
48.344
20
-138.119
11
48.3443
21
-138.116
0
LINE
8
Black
10
48.3443
20
-138.116
11
48.3438
21
-138.112
0
LINE
8
Black
10
48.3438
20
-138.112
11
48.3438
21
-52.3875
0
LINE
8
Black
10
48.3438
20
-52.3875
11
48.3449
21
-52.381
0
LINE
8
Black
10
48.3449
20
-52.381
11
48.3449
21
-52.3745
0
LINE
8
Black
10
48.3449
20
-52.3745
11
48.5842
21
-51.0171
0
LINE
8
Black
10
48.5842
20
-51.0171
11
48.5931
21
-50.9926
0
LINE
8
Black
10
48.5931
20
-50.9926
11
48.5931
21
-50.9926
0
LINE
8
Black
10
48.5931
20
-50.9926
11
49.2823
21
-49.7989
0
LINE
8
Black
10
49.2823
20
-49.7989
11
49.2991
21
-49.779
0
LINE
8
Black
10
49.2991
20
-49.779
11
50.3549
21
-48.893
0
LINE
8
Black
10
50.3549
20
-48.893
11
50.3775
21
-48.88
0
LINE
8
Black
10
50.3775
20
-48.88
11
50.3775
21
-48.88
0
LINE
8
Black
10
50.3775
20
-48.88
11
51.6727
21
-48.4086
0
LINE
8
Black
10
51.6727
20
-48.4086
11
51.6823
21
-48.4069
0
LINE
8
Black
10
51.6823
20
-48.4069
11
51.6918
21
-48.4043
0
LINE
8
Black
10
51.6918
20
-48.4043
11
52.381
21
-48.344
0
LINE
8
Black
10
52.381
20
-48.344
11
52.3843
21
-48.3443
0
LINE
8
Black
10
52.3843
20
-48.3443
11
52.3875
21
-48.3438
0
LINE
8
Black
10
52.3875
20
-48.3438
11
60.3217
21
-48.3438
0
LINE
8
Black
10
60.3217
20
-48.3438
11
60.4465
21
-48.3328
0
LINE
8
Black
10
60.4465
20
-48.3328
11
60.6838
21
-48.2465
0
LINE
8
Black
10
60.6838
20
-48.2465
11
60.8747
21
-48.0863
0
LINE
8
Black
10
60.8747
20
-48.0863
11
60.9993
21
-47.8704
0
LINE
8
Black
10
60.9993
20
-47.8704
11
61.0449
21
-47.612
0
LINE
8
Black
10
61.0449
20
-47.612
11
61.0538
21
-47.5875
0
LINE
8
Black
10
61.0538
20
-47.5875
11
61.0705
21
-47.5675
0
LINE
8
Black
10
61.0705
20
-47.5675
11
61.0931
21
-47.5545
0
LINE
8
Black
10
61.0931
20
-47.5545
11
61.1187
21
-47.55
0
LINE
8
Black
10
61.1187
20
-47.55
11
71.4375
21
-47.55
0
LINE
8
Black
10
71.4375
20
-47.55
11
71.4407
21
-47.5506
0
LINE
8
Black
10
61.1817
20
-47.7
11
61.1447
21
-47.9095
0
LINE
8
Black
10
61.1447
20
-47.9095
11
61.1358
21
-47.934
0
LINE
8
Black
10
61.1358
20
-47.934
11
61.1358
21
-47.934
0
LINE
8
Black
10
61.1358
20
-47.934
11
60.998
21
-48.1727
0
LINE
8
Black
10
60.998
20
-48.1727
11
60.998
21
-48.1727
0
LINE
8
Black
10
60.998
20
-48.1727
11
60.9889
21
-48.1836
0
LINE
8
Black
10
60.9889
20
-48.1836
11
60.9813
21
-48.1927
0
LINE
8
Black
10
60.9813
20
-48.1927
11
60.9813
21
-48.1927
0
LINE
8
Black
10
60.9813
20
-48.1927
11
60.7701
21
-48.3699
0
LINE
8
Black
10
60.7701
20
-48.3699
11
60.7701
21
-48.3699
0
LINE
8
Black
10
60.7701
20
-48.3699
11
60.7475
21
-48.3829
0
LINE
8
Black
10
60.7475
20
-48.3829
11
60.4885
21
-48.4772
0
LINE
8
Black
10
60.4885
20
-48.4772
11
60.4788
21
-48.4789
0
LINE
8
Black
10
60.4788
20
-48.4789
11
60.4694
21
-48.4814
0
LINE
8
Black
10
60.4694
20
-48.4814
11
60.3315
21
-48.4935
0
LINE
8
Black
10
60.3315
20
-48.4935
11
60.3282
21
-48.4932
0
LINE
8
Black
10
60.3282
20
-48.4932
11
60.325
21
-48.4937
0
LINE
8
Black
10
60.325
20
-48.4937
11
52.3908
21
-48.4937
0
LINE
8
Black
10
52.3908
20
-48.4937
11
51.7147
21
-48.5529
0
LINE
8
Black
10
51.7147
20
-48.5529
11
50.4412
21
-49.0164
0
LINE
8
Black
10
50.4412
20
-49.0164
11
49.4056
21
-49.8854
0
LINE
8
Black
10
49.4056
20
-49.8854
11
48.7297
21
-51.0562
0
LINE
8
Black
10
48.7297
20
-51.0562
11
48.4937
21
-52.3941
0
LINE
8
Black
10
48.4937
20
-52.3941
11
48.4937
21
-138.109
0
LINE
8
Black
10
48.4937
20
-138.109
11
48.5529
21
-138.785
0
LINE
8
Black
10
48.5529
20
-138.785
11
49.0164
21
-140.059
0
LINE
8
Black
10
49.0164
20
-140.059
11
49.8854
21
-141.094
0
LINE
8
Black
10
49.8854
20
-141.094
11
51.0562
21
-141.77
0
LINE
8
Black
10
51.0562
20
-141.77
11
52.3941
21
-142.006
0
LINE
8
Black
10
52.3941
20
-142.006
11
347.659
21
-142.006
0
LINE
8
Black
10
347.659
20
-142.006
11
348.335
21
-141.947
0
LINE
8
Black
10
348.335
20
-141.947
11
349.609
21
-141.484
0
LINE
8
Black
10
349.609
20
-141.484
11
350.644
21
-140.615
0
LINE
8
Black
10
350.644
20
-140.615
11
351.32
21
-139.444
0
LINE
8
Black
10
351.32
20
-139.444
11
351.556
21
-138.106
0
LINE
8
Black
10
351.556
20
-138.106
11
351.556
21
-52.3908
0
LINE
8
Black
10
351.556
20
-52.3908
11
351.497
21
-51.7147
0
LINE
8
Black
10
351.497
20
-51.7147
11
351.034
21
-50.4412
0
LINE
8
Black
10
351.034
20
-50.4412
11
350.165
21
-49.4056
0
LINE
8
Black
10
350.165
20
-49.4056
11
348.994
21
-48.7297
0
LINE
8
Black
10
348.994
20
-48.7297
11
347.656
21
-48.4937
0
LINE
8
Black
10
347.656
20
-48.4937
11
72.2313
21
-48.4937
0
LINE
8
Black
10
72.2313
20
-48.4937
11
72.2248
21
-48.4926
0
LINE
8
Black
10
72.2248
20
-48.4926
11
72.2182
21
-48.4926
0
LINE
8
Black
10
72.2182
20
-48.4926
11
71.9467
21
-48.4447
0
LINE
8
Black
10
71.9467
20
-48.4447
11
71.9223
21
-48.4358
0
LINE
8
Black
10
71.9223
20
-48.4358
11
71.9223
21
-48.4358
0
LINE
8
Black
10
71.9223
20
-48.4358
11
71.6835
21
-48.298
0
LINE
8
Black
10
71.6835
20
-48.298
11
71.6835
21
-48.298
0
LINE
8
Black
10
71.6835
20
-48.298
11
71.6727
21
-48.2889
0
LINE
8
Black
10
71.6727
20
-48.2889
11
71.6636
21
-48.2813
0
LINE
8
Black
10
71.6636
20
-48.2813
11
71.6636
21
-48.2813
0
LINE
8
Black
10
71.6636
20
-48.2813
11
71.4864
21
-48.0701
0
LINE
8
Black
10
71.4864
20
-48.0701
11
71.4864
21
-48.0701
0
LINE
8
Black
10
71.4864
20
-48.0701
11
71.4734
21
-48.0475
0
LINE
8
Black
10
71.4734
20
-48.0475
11
71.3791
21
-47.7885
0
LINE
8
Black
10
71.3791
20
-47.7885
11
71.3774
21
-47.7788
0
LINE
8
Black
10
71.3774
20
-47.7788
11
71.3748
21
-47.7694
0
LINE
8
Black
10
71.3748
20
-47.7694
11
71.3688
21
-47.7
0
LINE
8
Black
10
71.3688
20
-47.7
11
61.1817
21
-47.7
  0
ENDSEC
  0
EOF
