  0
SECTION
  2
HEADER
  9
$ANGBASE
  50
0.0
  9
$ANGDIR
  70
  1
  9
$MEASUREMENT
  70
0
  0
ENDSEC
  0
SECTION
  2
TABLES
  0
TABLE
  2
LTYPE
  70
1
  0
LTYPE
  2
CONTINUOUS
  70
0
  3
Solid line
  72
65
  73
0
  40
0.0
  0
ENDTAB
  0
TABLE
  2
STYLE
  70
4
  0
STYLE
  2
KICAD
  70
0
  40
0
  41
1
  42
1
  50
0
  71
0
  3
isocp.shx
  0
STYLE
  2
KICADB
  70
0
  40
0
  41
1
  42
1
  50
0
  71
0
  3
isocp.shx
  0
STYLE
  2
KICADI
  70
0
  40
0
  41
1
  42
1
  50
15
  71
0
  3
isocp.shx
  0
STYLE
  2
KICADBI
  70
0
  40
0
  41
1
  42
1
  50
15
  71
0
  3
isocp.shx
  0
ENDTAB
  0
TABLE
  2
LAYER
  70
30
  0
LAYER
  2
BLACK
  70
0
  62
7
  6
CONTINUOUS
  0
LAYER
  2
GRAY1
  70
0
  62
251
  6
CONTINUOUS
  0
LAYER
  2
GRAY2
  70
0
  62
8
  6
CONTINUOUS
  0
LAYER
  2
GRAY3
  70
0
  62
9
  6
CONTINUOUS
  0
LAYER
  2
WHITE
  70
0
  62
7
  6
CONTINUOUS
  0
LAYER
  2
LYELLOW
  70
0
  62
51
  6
CONTINUOUS
  0
LAYER
  2
BLUE1
  70
0
  62
178
  6
CONTINUOUS
  0
LAYER
  2
GREEN1
  70
0
  62
98
  6
CONTINUOUS
  0
LAYER
  2
CYAN1
  70
0
  62
138
  6
CONTINUOUS
  0
LAYER
  2
RED1
  70
0
  62
18
  6
CONTINUOUS
  0
LAYER
  2
MAGENTA1
  70
0
  62
228
  6
CONTINUOUS
  0
LAYER
  2
BROWN1
  70
0
  62
58
  6
CONTINUOUS
  0
LAYER
  2
BLUE2
  70
0
  62
5
  6
CONTINUOUS
  0
LAYER
  2
GREEN2
  70
0
  62
3
  6
CONTINUOUS
  0
LAYER
  2
CYAN2
  70
0
  62
4
  6
CONTINUOUS
  0
LAYER
  2
RED2
  70
0
  62
1
  6
CONTINUOUS
  0
LAYER
  2
MAGENTA2
  70
0
  62
6
  6
CONTINUOUS
  0
LAYER
  2
BROWN2
  70
0
  62
54
  6
CONTINUOUS
  0
LAYER
  2
BLUE3
  70
0
  62
171
  6
CONTINUOUS
  0
LAYER
  2
GREEN3
  70
0
  62
91
  6
CONTINUOUS
  0
LAYER
  2
CYAN3
  70
0
  62
131
  6
CONTINUOUS
  0
LAYER
  2
RED3
  70
0
  62
11
  6
CONTINUOUS
  0
LAYER
  2
MAGENTA3
  70
0
  62
221
  6
CONTINUOUS
  0
LAYER
  2
YELLOW3
  70
0
  62
2
  6
CONTINUOUS
  0
LAYER
  2
BLUE4
  70
0
  62
5
  6
CONTINUOUS
  0
LAYER
  2
GREEN4
  70
0
  62
3
  6
CONTINUOUS
  0
LAYER
  2
CYAN4
  70
0
  62
4
  6
CONTINUOUS
  0
LAYER
  2
RED4
  70
0
  62
1
  6
CONTINUOUS
  0
LAYER
  2
MAGENTA4
  70
0
  62
6
  6
CONTINUOUS
  0
LAYER
  2
YELLOW4
  70
0
  62
2
  6
CONTINUOUS
  0
ENDTAB
  0
ENDSEC
  0
SECTION
  2
ENTITIES
0
LINE
8
Black
10
293.494
20
-135.45
11
292.294
21
-135.45
0
LINE
8
Black
10
292.294
20
-135.45
11
292.294
21
-134.55
0
LINE
8
Black
10
292.294
20
-134.55
11
293.494
21
-134.55
0
LINE
8
Black
10
293.494
20
-134.55
11
293.494
21
-135.45
0
LINE
8
Black
10
52.1937
20
-135.45
11
50.9937
21
-135.45
0
LINE
8
Black
10
50.9937
20
-135.45
11
50.9937
21
-134.55
0
LINE
8
Black
10
50.9937
20
-134.55
11
52.1937
21
-134.55
0
LINE
8
Black
10
52.1937
20
-134.55
11
52.1937
21
-135.45
0
LINE
8
Black
10
335.562
20
-135.45
11
334.363
21
-135.45
0
LINE
8
Black
10
334.363
20
-135.45
11
334.363
21
-134.55
0
LINE
8
Black
10
334.363
20
-134.55
11
335.562
21
-134.55
0
LINE
8
Black
10
335.562
20
-134.55
11
335.562
21
-135.45
0
LINE
8
Black
10
98.2312
20
-135.45
11
97.0312
21
-135.45
0
LINE
8
Black
10
97.0312
20
-135.45
11
97.0312
21
-134.55
0
LINE
8
Black
10
97.0312
20
-134.55
11
98.2312
21
-134.55
0
LINE
8
Black
10
98.2312
20
-134.55
11
98.2312
21
-135.45
0
LINE
8
Black
10
331.594
20
-135.45
11
330.394
21
-135.45
0
LINE
8
Black
10
330.394
20
-135.45
11
330.394
21
-134.55
0
LINE
8
Black
10
330.394
20
-134.55
11
331.594
21
-134.55
0
LINE
8
Black
10
331.594
20
-134.55
11
331.594
21
-135.45
0
LINE
8
Black
10
122.044
20
-135.45
11
120.844
21
-135.45
0
LINE
8
Black
10
120.844
20
-135.45
11
120.844
21
-134.55
0
LINE
8
Black
10
120.844
20
-134.55
11
122.044
21
-134.55
0
LINE
8
Black
10
122.044
20
-134.55
11
122.044
21
-135.45
0
LINE
8
Black
10
274.444
20
-135.45
11
273.244
21
-135.45
0
LINE
8
Black
10
273.244
20
-135.45
11
273.244
21
-134.55
0
LINE
8
Black
10
273.244
20
-134.55
11
274.444
21
-134.55
0
LINE
8
Black
10
274.444
20
-134.55
11
274.444
21
-135.45
0
LINE
8
Black
10
200.625
20
-135.45
11
199.425
21
-135.45
0
LINE
8
Black
10
199.425
20
-135.45
11
199.425
21
-134.55
0
LINE
8
Black
10
199.425
20
-134.55
11
200.625
21
-134.55
0
LINE
8
Black
10
200.625
20
-134.55
11
200.625
21
-135.45
0
LINE
8
Black
10
157.762
20
-135.45
11
156.562
21
-135.45
0
LINE
8
Black
10
156.562
20
-135.45
11
156.562
21
-134.55
0
LINE
8
Black
10
156.562
20
-134.55
11
157.762
21
-134.55
0
LINE
8
Black
10
157.762
20
-134.55
11
157.762
21
-135.45
0
LINE
8
Black
10
164.112
20
-135.45
11
162.912
21
-135.45
0
LINE
8
Black
10
162.912
20
-135.45
11
162.912
21
-134.55
0
LINE
8
Black
10
162.912
20
-134.55
11
164.112
21
-134.55
0
LINE
8
Black
10
164.112
20
-134.55
11
164.112
21
-135.45
0
LINE
8
Black
10
204.594
20
-135.45
11
203.394
21
-135.45
0
LINE
8
Black
10
203.394
20
-135.45
11
203.394
21
-134.55
0
LINE
8
Black
10
203.394
20
-134.55
11
204.594
21
-134.55
0
LINE
8
Black
10
204.594
20
-134.55
11
204.594
21
-135.45
0
LINE
8
Black
10
297.462
20
-135.45
11
296.262
21
-135.45
0
LINE
8
Black
10
296.262
20
-135.45
11
296.262
21
-134.55
0
LINE
8
Black
10
296.262
20
-134.55
11
297.462
21
-134.55
0
LINE
8
Black
10
297.462
20
-134.55
11
297.462
21
-135.45
0
LINE
8
Black
10
204.594
20
-132.15
11
203.394
21
-132.15
0
LINE
8
Black
10
203.394
20
-132.15
11
203.394
21
-131.25
0
LINE
8
Black
10
203.394
20
-131.25
11
204.594
21
-131.25
0
LINE
8
Black
10
204.594
20
-131.25
11
204.594
21
-132.15
0
LINE
8
Black
10
200.625
20
-132.15
11
199.425
21
-132.15
0
LINE
8
Black
10
199.425
20
-132.15
11
199.425
21
-131.25
0
LINE
8
Black
10
199.425
20
-131.25
11
200.625
21
-131.25
0
LINE
8
Black
10
200.625
20
-131.25
11
200.625
21
-132.15
0
LINE
8
Black
10
164.112
20
-132.15
11
162.912
21
-132.15
0
LINE
8
Black
10
162.912
20
-132.15
11
162.912
21
-131.25
0
LINE
8
Black
10
162.912
20
-131.25
11
164.112
21
-131.25
0
LINE
8
Black
10
164.112
20
-131.25
11
164.112
21
-132.15
0
LINE
8
Black
10
293.494
20
-132.15
11
292.294
21
-132.15
0
LINE
8
Black
10
292.294
20
-132.15
11
292.294
21
-131.25
0
LINE
8
Black
10
292.294
20
-131.25
11
293.494
21
-131.25
0
LINE
8
Black
10
293.494
20
-131.25
11
293.494
21
-132.15
0
LINE
8
Black
10
122.044
20
-132.15
11
120.844
21
-132.15
0
LINE
8
Black
10
120.844
20
-132.15
11
120.844
21
-131.25
0
LINE
8
Black
10
120.844
20
-131.25
11
122.044
21
-131.25
0
LINE
8
Black
10
122.044
20
-131.25
11
122.044
21
-132.15
0
LINE
8
Black
10
157.762
20
-132.15
11
156.562
21
-132.15
0
LINE
8
Black
10
156.562
20
-132.15
11
156.562
21
-131.25
0
LINE
8
Black
10
156.562
20
-131.25
11
157.762
21
-131.25
0
LINE
8
Black
10
157.762
20
-131.25
11
157.762
21
-132.15
0
LINE
8
Black
10
274.444
20
-132.15
11
273.244
21
-132.15
0
LINE
8
Black
10
273.244
20
-132.15
11
273.244
21
-131.25
0
LINE
8
Black
10
273.244
20
-131.25
11
274.444
21
-131.25
0
LINE
8
Black
10
274.444
20
-131.25
11
274.444
21
-132.15
0
LINE
8
Black
10
98.2312
20
-132.15
11
97.0312
21
-132.15
0
LINE
8
Black
10
97.0312
20
-132.15
11
97.0312
21
-131.25
0
LINE
8
Black
10
97.0312
20
-131.25
11
98.2312
21
-131.25
0
LINE
8
Black
10
98.2312
20
-131.25
11
98.2312
21
-132.15
0
LINE
8
Black
10
52.1937
20
-132.15
11
50.9937
21
-132.15
0
LINE
8
Black
10
50.9937
20
-132.15
11
50.9937
21
-131.25
0
LINE
8
Black
10
50.9937
20
-131.25
11
52.1937
21
-131.25
0
LINE
8
Black
10
52.1937
20
-131.25
11
52.1937
21
-132.15
0
LINE
8
Black
10
335.562
20
-132.15
11
334.363
21
-132.15
0
LINE
8
Black
10
334.363
20
-132.15
11
334.363
21
-131.25
0
LINE
8
Black
10
334.363
20
-131.25
11
335.562
21
-131.25
0
LINE
8
Black
10
335.562
20
-131.25
11
335.562
21
-132.15
0
LINE
8
Black
10
331.594
20
-132.15
11
330.394
21
-132.15
0
LINE
8
Black
10
330.394
20
-132.15
11
330.394
21
-131.25
0
LINE
8
Black
10
330.394
20
-131.25
11
331.594
21
-131.25
0
LINE
8
Black
10
331.594
20
-131.25
11
331.594
21
-132.15
0
LINE
8
Black
10
297.462
20
-132.15
11
296.262
21
-132.15
0
LINE
8
Black
10
296.262
20
-132.15
11
296.262
21
-131.25
0
LINE
8
Black
10
296.262
20
-131.25
11
297.462
21
-131.25
0
LINE
8
Black
10
297.462
20
-131.25
11
297.462
21
-132.15
0
LINE
8
Black
10
120.737
20
-126.175
11
118.938
21
-126.175
0
LINE
8
Black
10
118.938
20
-126.175
11
118.938
21
-124.775
0
LINE
8
Black
10
118.938
20
-124.775
11
120.737
21
-124.775
0
LINE
8
Black
10
120.737
20
-124.775
11
120.737
21
-126.175
0
LINE
8
Black
10
325.525
20
-126.175
11
323.725
21
-126.175
0
LINE
8
Black
10
323.725
20
-126.175
11
323.725
21
-124.775
0
LINE
8
Black
10
323.725
20
-124.775
11
325.525
21
-124.775
0
LINE
8
Black
10
325.525
20
-124.775
11
325.525
21
-126.175
0
LINE
8
Black
10
274.762
20
-126.175
11
272.962
21
-126.175
0
LINE
8
Black
10
272.962
20
-126.175
11
272.962
21
-124.775
0
LINE
8
Black
10
272.962
20
-124.775
11
274.762
21
-124.775
0
LINE
8
Black
10
274.762
20
-124.775
11
274.762
21
-126.175
0
LINE
8
Black
10
269.962
20
-126.175
11
268.162
21
-126.175
0
LINE
8
Black
10
268.162
20
-126.175
11
268.162
21
-124.775
0
LINE
8
Black
10
268.162
20
-124.775
11
269.962
21
-124.775
0
LINE
8
Black
10
269.962
20
-124.775
11
269.962
21
-126.175
0
LINE
8
Black
10
76.325
20
-126.175
11
74.525
21
-126.175
0
LINE
8
Black
10
74.525
20
-126.175
11
74.525
21
-124.775
0
LINE
8
Black
10
74.525
20
-124.775
11
76.325
21
-124.775
0
LINE
8
Black
10
76.325
20
-124.775
11
76.325
21
-126.175
0
LINE
8
Black
10
71.525
20
-126.175
11
69.725
21
-126.175
0
LINE
8
Black
10
69.725
20
-126.175
11
69.725
21
-124.775
0
LINE
8
Black
10
69.725
20
-124.775
11
71.525
21
-124.775
0
LINE
8
Black
10
71.525
20
-124.775
11
71.525
21
-126.175
0
LINE
8
Black
10
330.325
20
-126.175
11
328.525
21
-126.175
0
LINE
8
Black
10
328.525
20
-126.175
11
328.525
21
-124.775
0
LINE
8
Black
10
328.525
20
-124.775
11
330.325
21
-124.775
0
LINE
8
Black
10
330.325
20
-124.775
11
330.325
21
-126.175
0
LINE
8
Black
10
211.262
20
-126.175
11
209.462
21
-126.175
0
LINE
8
Black
10
209.462
20
-126.175
11
209.462
21
-124.775
0
LINE
8
Black
10
209.462
20
-124.775
11
211.262
21
-124.775
0
LINE
8
Black
10
211.262
20
-124.775
11
211.262
21
-126.175
0
LINE
8
Black
10
206.462
20
-126.175
11
204.662
21
-126.175
0
LINE
8
Black
10
204.662
20
-126.175
11
204.662
21
-124.775
0
LINE
8
Black
10
204.662
20
-124.775
11
206.462
21
-124.775
0
LINE
8
Black
10
206.462
20
-124.775
11
206.462
21
-126.175
0
LINE
8
Black
10
166.775
20
-126.175
11
164.975
21
-126.175
0
LINE
8
Black
10
164.975
20
-126.175
11
164.975
21
-124.775
0
LINE
8
Black
10
164.975
20
-124.775
11
166.775
21
-124.775
0
LINE
8
Black
10
166.775
20
-124.775
11
166.775
21
-126.175
0
LINE
8
Black
10
171.575
20
-126.175
11
169.775
21
-126.175
0
LINE
8
Black
10
169.775
20
-126.175
11
169.775
21
-124.775
0
LINE
8
Black
10
169.775
20
-124.775
11
171.575
21
-124.775
0
LINE
8
Black
10
171.575
20
-124.775
11
171.575
21
-126.175
0
LINE
8
Black
10
125.537
20
-126.175
11
123.737
21
-126.175
0
LINE
8
Black
10
123.737
20
-126.175
11
123.737
21
-124.775
0
LINE
8
Black
10
123.737
20
-124.775
11
125.537
21
-124.775
0
LINE
8
Black
10
125.537
20
-124.775
11
125.537
21
-126.175
0
LINE
8
Black
10
174.206
20
-124.975
11
173.456
21
-124.975
0
LINE
8
Black
10
173.456
20
-124.975
11
173.456
21
-124.175
0
LINE
8
Black
10
173.456
20
-124.175
11
174.206
21
-124.175
0
LINE
8
Black
10
174.206
20
-124.175
11
174.206
21
-124.975
0
LINE
8
Black
10
132.137
20
-124.975
11
131.387
21
-124.975
0
LINE
8
Black
10
131.387
20
-124.975
11
131.387
21
-124.175
0
LINE
8
Black
10
131.387
20
-124.175
11
132.137
21
-124.175
0
LINE
8
Black
10
132.137
20
-124.175
11
132.137
21
-124.975
0
LINE
8
Black
10
332.956
20
-124.975
11
332.206
21
-124.975
0
LINE
8
Black
10
332.206
20
-124.975
11
332.206
21
-124.175
0
LINE
8
Black
10
332.206
20
-124.175
11
332.956
21
-124.175
0
LINE
8
Black
10
332.956
20
-124.175
11
332.956
21
-124.975
0
LINE
8
Black
10
217.862
20
-124.975
11
217.112
21
-124.975
0
LINE
8
Black
10
217.112
20
-124.975
11
217.112
21
-124.175
0
LINE
8
Black
10
217.112
20
-124.175
11
217.862
21
-124.175
0
LINE
8
Black
10
217.862
20
-124.175
11
217.862
21
-124.975
0
LINE
8
Black
10
277.394
20
-124.975
11
276.644
21
-124.975
0
LINE
8
Black
10
276.644
20
-124.975
11
276.644
21
-124.175
0
LINE
8
Black
10
276.644
20
-124.175
11
277.394
21
-124.175
0
LINE
8
Black
10
277.394
20
-124.175
11
277.394
21
-124.975
0
LINE
8
Black
10
67.8438
20
-124.975
11
67.0938
21
-124.975
0
LINE
8
Black
10
67.0938
20
-124.975
11
67.0938
21
-124.175
0
LINE
8
Black
10
67.0938
20
-124.175
11
67.8438
21
-124.175
0
LINE
8
Black
10
67.8438
20
-124.175
11
67.8438
21
-124.975
0
LINE
8
Black
10
67.8438
20
-123.475
11
67.0938
21
-123.475
0
LINE
8
Black
10
67.0938
20
-123.475
11
67.0938
21
-122.675
0
LINE
8
Black
10
67.0938
20
-122.675
11
67.8438
21
-122.675
0
LINE
8
Black
10
67.8438
20
-122.675
11
67.8438
21
-123.475
0
LINE
8
Black
10
132.137
20
-123.475
11
131.387
21
-123.475
0
LINE
8
Black
10
131.387
20
-123.475
11
131.387
21
-122.675
0
LINE
8
Black
10
131.387
20
-122.675
11
132.137
21
-122.675
0
LINE
8
Black
10
132.137
20
-122.675
11
132.137
21
-123.475
0
LINE
8
Black
10
174.206
20
-123.475
11
173.456
21
-123.475
0
LINE
8
Black
10
173.456
20
-123.475
11
173.456
21
-122.675
0
LINE
8
Black
10
173.456
20
-122.675
11
174.206
21
-122.675
0
LINE
8
Black
10
174.206
20
-122.675
11
174.206
21
-123.475
0
LINE
8
Black
10
217.862
20
-123.475
11
217.112
21
-123.475
0
LINE
8
Black
10
217.112
20
-123.475
11
217.112
21
-122.675
0
LINE
8
Black
10
217.112
20
-122.675
11
217.862
21
-122.675
0
LINE
8
Black
10
217.862
20
-122.675
11
217.862
21
-123.475
0
LINE
8
Black
10
277.394
20
-123.475
11
276.644
21
-123.475
0
LINE
8
Black
10
276.644
20
-123.475
11
276.644
21
-122.675
0
LINE
8
Black
10
276.644
20
-122.675
11
277.394
21
-122.675
0
LINE
8
Black
10
277.394
20
-122.675
11
277.394
21
-123.475
0
LINE
8
Black
10
332.956
20
-123.475
11
332.206
21
-123.475
0
LINE
8
Black
10
332.206
20
-123.475
11
332.206
21
-122.675
0
LINE
8
Black
10
332.206
20
-122.675
11
332.956
21
-122.675
0
LINE
8
Black
10
332.956
20
-122.675
11
332.956
21
-123.475
0
LINE
8
Black
10
120.737
20
-122.875
11
118.938
21
-122.875
0
LINE
8
Black
10
118.938
20
-122.875
11
118.938
21
-121.475
0
LINE
8
Black
10
118.938
20
-121.475
11
120.737
21
-121.475
0
LINE
8
Black
10
120.737
20
-121.475
11
120.737
21
-122.875
0
LINE
8
Black
10
330.325
20
-122.875
11
328.525
21
-122.875
0
LINE
8
Black
10
328.525
20
-122.875
11
328.525
21
-121.475
0
LINE
8
Black
10
328.525
20
-121.475
11
330.325
21
-121.475
0
LINE
8
Black
10
330.325
20
-121.475
11
330.325
21
-122.875
0
LINE
8
Black
10
325.525
20
-122.875
11
323.725
21
-122.875
0
LINE
8
Black
10
323.725
20
-122.875
11
323.725
21
-121.475
0
LINE
8
Black
10
323.725
20
-121.475
11
325.525
21
-121.475
0
LINE
8
Black
10
325.525
20
-121.475
11
325.525
21
-122.875
0
LINE
8
Black
10
274.762
20
-122.875
11
272.962
21
-122.875
0
LINE
8
Black
10
272.962
20
-122.875
11
272.962
21
-121.475
0
LINE
8
Black
10
272.962
20
-121.475
11
274.762
21
-121.475
0
LINE
8
Black
10
274.762
20
-121.475
11
274.762
21
-122.875
0
LINE
8
Black
10
269.962
20
-122.875
11
268.162
21
-122.875
0
LINE
8
Black
10
268.162
20
-122.875
11
268.162
21
-121.475
0
LINE
8
Black
10
268.162
20
-121.475
11
269.962
21
-121.475
0
LINE
8
Black
10
269.962
20
-121.475
11
269.962
21
-122.875
0
LINE
8
Black
10
211.262
20
-122.875
11
209.462
21
-122.875
0
LINE
8
Black
10
209.462
20
-122.875
11
209.462
21
-121.475
0
LINE
8
Black
10
209.462
20
-121.475
11
211.262
21
-121.475
0
LINE
8
Black
10
211.262
20
-121.475
11
211.262
21
-122.875
0
LINE
8
Black
10
206.462
20
-122.875
11
204.662
21
-122.875
0
LINE
8
Black
10
204.662
20
-122.875
11
204.662
21
-121.475
0
LINE
8
Black
10
204.662
20
-121.475
11
206.462
21
-121.475
0
LINE
8
Black
10
206.462
20
-121.475
11
206.462
21
-122.875
0
LINE
8
Black
10
171.575
20
-122.875
11
169.775
21
-122.875
0
LINE
8
Black
10
169.775
20
-122.875
11
169.775
21
-121.475
0
LINE
8
Black
10
169.775
20
-121.475
11
171.575
21
-121.475
0
LINE
8
Black
10
171.575
20
-121.475
11
171.575
21
-122.875
0
LINE
8
Black
10
125.537
20
-122.875
11
123.737
21
-122.875
0
LINE
8
Black
10
123.737
20
-122.875
11
123.737
21
-121.475
0
LINE
8
Black
10
123.737
20
-121.475
11
125.537
21
-121.475
0
LINE
8
Black
10
125.537
20
-121.475
11
125.537
21
-122.875
0
LINE
8
Black
10
76.325
20
-122.875
11
74.525
21
-122.875
0
LINE
8
Black
10
74.525
20
-122.875
11
74.525
21
-121.475
0
LINE
8
Black
10
74.525
20
-121.475
11
76.325
21
-121.475
0
LINE
8
Black
10
76.325
20
-121.475
11
76.325
21
-122.875
0
LINE
8
Black
10
71.525
20
-122.875
11
69.725
21
-122.875
0
LINE
8
Black
10
69.725
20
-122.875
11
69.725
21
-121.475
0
LINE
8
Black
10
69.725
20
-121.475
11
71.525
21
-121.475
0
LINE
8
Black
10
71.525
20
-121.475
11
71.525
21
-122.875
0
LINE
8
Black
10
166.775
20
-122.875
11
164.975
21
-122.875
0
LINE
8
Black
10
164.975
20
-122.875
11
164.975
21
-121.475
0
LINE
8
Black
10
164.975
20
-121.475
11
166.775
21
-121.475
0
LINE
8
Black
10
166.775
20
-121.475
11
166.775
21
-122.875
0
LINE
8
Black
10
89.288
20
-121.66
11
88.488
21
-121.66
0
LINE
8
Black
10
88.488
20
-121.66
11
88.488
21
-120.91
0
LINE
8
Black
10
88.488
20
-120.91
11
89.288
21
-120.91
0
LINE
8
Black
10
89.288
20
-120.91
11
89.288
21
-121.66
0
LINE
8
Black
10
87.788
20
-121.66
11
86.988
21
-121.66
0
LINE
8
Black
10
86.988
20
-121.66
11
86.988
21
-120.91
0
LINE
8
Black
10
86.988
20
-120.91
11
87.788
21
-120.91
0
LINE
8
Black
10
87.788
20
-120.91
11
87.788
21
-121.66
0
LINE
8
Black
10
84.651
20
-120.634
11
83.751
21
-120.634
0
LINE
8
Black
10
83.751
20
-120.634
11
83.751
21
-120.134
0
LINE
8
Black
10
83.751
20
-120.134
11
84.651
21
-120.134
0
LINE
8
Black
10
84.651
20
-120.134
11
84.651
21
-120.634
0
LINE
8
Black
10
89.288
20
-119.374
11
88.488
21
-119.374
0
LINE
8
Black
10
88.488
20
-119.374
11
88.488
21
-118.624
0
LINE
8
Black
10
88.488
20
-118.624
11
89.288
21
-118.624
0
LINE
8
Black
10
89.288
20
-118.624
11
89.288
21
-119.374
0
LINE
8
Black
10
82.176
20
-119.374
11
81.376
21
-119.374
0
LINE
8
Black
10
81.376
20
-119.374
11
81.376
21
-118.624
0
LINE
8
Black
10
81.376
20
-118.624
11
82.176
21
-118.624
0
LINE
8
Black
10
82.176
20
-118.624
11
82.176
21
-119.374
0
LINE
8
Black
10
80.676
20
-119.374
11
79.876
21
-119.374
0
LINE
8
Black
10
79.876
20
-119.374
11
79.876
21
-118.624
0
LINE
8
Black
10
79.876
20
-118.624
11
80.676
21
-118.624
0
LINE
8
Black
10
80.676
20
-118.624
11
80.676
21
-119.374
0
LINE
8
Black
10
87.788
20
-119.374
11
86.988
21
-119.374
0
LINE
8
Black
10
86.988
20
-119.374
11
86.988
21
-118.624
0
LINE
8
Black
10
86.988
20
-118.624
11
87.788
21
-118.624
0
LINE
8
Black
10
87.788
20
-118.624
11
87.788
21
-119.374
0
LINE
8
Black
10
94.519
20
-119.247
11
93.719
21
-119.247
0
LINE
8
Black
10
93.719
20
-119.247
11
93.719
21
-118.497
0
LINE
8
Black
10
93.719
20
-118.497
11
94.519
21
-118.497
0
LINE
8
Black
10
94.519
20
-118.497
11
94.519
21
-119.247
0
LINE
8
Black
10
96.019
20
-119.247
11
95.219
21
-119.247
0
LINE
8
Black
10
95.219
20
-119.247
11
95.219
21
-118.497
0
LINE
8
Black
10
95.219
20
-118.497
11
96.019
21
-118.497
0
LINE
8
Black
10
96.019
20
-118.497
11
96.019
21
-119.247
0
LINE
8
Black
10
92.065
20
-119.229
11
90.815
21
-119.229
0
LINE
8
Black
10
90.815
20
-119.229
11
90.815
21
-118.229
0
LINE
8
Black
10
90.815
20
-118.229
11
92.065
21
-118.229
0
LINE
8
Black
10
92.065
20
-118.229
11
92.065
21
-119.229
0
LINE
8
Black
10
84.651
20
-119.134
11
83.751
21
-119.134
0
LINE
8
Black
10
83.751
20
-119.134
11
83.751
21
-118.634
0
LINE
8
Black
10
83.751
20
-118.634
11
84.651
21
-118.634
0
LINE
8
Black
10
84.651
20
-118.634
11
84.651
21
-119.134
0
LINE
8
Black
10
56.375
20
-119.094
11
55.275
21
-119.094
0
LINE
8
Black
10
55.275
20
-119.094
11
55.275
21
-117.294
0
LINE
8
Black
10
55.275
20
-117.294
11
56.375
21
-117.294
0
LINE
8
Black
10
56.375
20
-117.294
11
56.375
21
-119.094
0
LINE
8
Black
10
52.675
20
-119.094
11
51.575
21
-119.094
0
LINE
8
Black
10
51.575
20
-119.094
11
51.575
21
-117.294
0
LINE
8
Black
10
51.575
20
-117.294
11
52.675
21
-117.294
0
LINE
8
Black
10
52.675
20
-117.294
11
52.675
21
-119.094
0
LINE
8
Black
10
92.065
20
-117.229
11
90.815
21
-117.229
0
LINE
8
Black
10
90.815
20
-117.229
11
90.815
21
-116.229
0
LINE
8
Black
10
90.815
20
-116.229
11
92.065
21
-116.229
0
LINE
8
Black
10
92.065
20
-116.229
11
92.065
21
-117.229
0
LINE
8
Black
10
94.519
20
-116.961
11
93.719
21
-116.961
0
LINE
8
Black
10
93.719
20
-116.961
11
93.719
21
-116.211
0
LINE
8
Black
10
93.719
20
-116.211
11
94.519
21
-116.211
0
LINE
8
Black
10
94.519
20
-116.211
11
94.519
21
-116.961
0
LINE
8
Black
10
96.019
20
-116.961
11
95.219
21
-116.961
0
LINE
8
Black
10
95.219
20
-116.961
11
95.219
21
-116.211
0
LINE
8
Black
10
95.219
20
-116.211
11
96.019
21
-116.211
0
LINE
8
Black
10
96.019
20
-116.211
11
96.019
21
-116.961
0
LINE
8
Black
10
78.367
20
-116.909
11
77.867
21
-116.909
0
LINE
8
Black
10
77.867
20
-116.909
11
77.867
21
-116.009
0
LINE
8
Black
10
77.867
20
-116.009
11
78.367
21
-116.009
0
LINE
8
Black
10
78.367
20
-116.009
11
78.367
21
-116.909
0
LINE
8
Black
10
79.867
20
-116.909
11
79.367
21
-116.909
0
LINE
8
Black
10
79.367
20
-116.909
11
79.367
21
-116.009
0
LINE
8
Black
10
79.367
20
-116.009
11
79.867
21
-116.009
0
LINE
8
Black
10
79.867
20
-116.009
11
79.867
21
-116.909
0
LINE
8
Black
10
82.888
20
-116.738
11
82.638
21
-116.738
0
LINE
8
Black
10
82.638
20
-116.738
11
82.638
21
-116.058
0
LINE
8
Black
10
82.638
20
-116.058
11
82.888
21
-116.058
0
LINE
8
Black
10
82.888
20
-116.058
11
82.888
21
-116.738
0
LINE
8
Black
10
83.288
20
-116.738
11
83.038
21
-116.738
0
LINE
8
Black
10
83.038
20
-116.738
11
83.038
21
-116.058
0
LINE
8
Black
10
83.038
20
-116.058
11
83.288
21
-116.058
0
LINE
8
Black
10
83.288
20
-116.058
11
83.288
21
-116.738
0
LINE
8
Black
10
83.688
20
-116.738
11
83.438
21
-116.738
0
LINE
8
Black
10
83.438
20
-116.738
11
83.438
21
-116.058
0
LINE
8
Black
10
83.438
20
-116.058
11
83.688
21
-116.058
0
LINE
8
Black
10
83.688
20
-116.058
11
83.688
21
-116.738
0
LINE
8
Black
10
84.088
20
-116.738
11
83.838
21
-116.738
0
LINE
8
Black
10
83.838
20
-116.738
11
83.838
21
-116.058
0
LINE
8
Black
10
83.838
20
-116.058
11
84.088
21
-116.058
0
LINE
8
Black
10
84.088
20
-116.058
11
84.088
21
-116.738
0
LINE
8
Black
10
84.488
20
-116.738
11
84.238
21
-116.738
0
LINE
8
Black
10
84.238
20
-116.738
11
84.238
21
-116.058
0
LINE
8
Black
10
84.238
20
-116.058
11
84.488
21
-116.058
0
LINE
8
Black
10
84.488
20
-116.058
11
84.488
21
-116.738
0
LINE
8
Black
10
87.288
20
-116.738
11
87.038
21
-116.738
0
LINE
8
Black
10
87.038
20
-116.738
11
87.038
21
-116.058
0
LINE
8
Black
10
87.038
20
-116.058
11
87.288
21
-116.058
0
LINE
8
Black
10
87.288
20
-116.058
11
87.288
21
-116.738
0
LINE
8
Black
10
86.888
20
-116.738
11
86.638
21
-116.738
0
LINE
8
Black
10
86.638
20
-116.738
11
86.638
21
-116.058
0
LINE
8
Black
10
86.638
20
-116.058
11
86.888
21
-116.058
0
LINE
8
Black
10
86.888
20
-116.058
11
86.888
21
-116.738
0
LINE
8
Black
10
86.488
20
-116.738
11
86.238
21
-116.738
0
LINE
8
Black
10
86.238
20
-116.738
11
86.238
21
-116.058
0
LINE
8
Black
10
86.238
20
-116.058
11
86.488
21
-116.058
0
LINE
8
Black
10
86.488
20
-116.058
11
86.488
21
-116.738
0
LINE
8
Black
10
86.088
20
-116.738
11
85.838
21
-116.738
0
LINE
8
Black
10
85.838
20
-116.738
11
85.838
21
-116.058
0
LINE
8
Black
10
85.838
20
-116.058
11
86.088
21
-116.058
0
LINE
8
Black
10
86.088
20
-116.058
11
86.088
21
-116.738
0
LINE
8
Black
10
84.888
20
-116.738
11
84.638
21
-116.738
0
LINE
8
Black
10
84.638
20
-116.738
11
84.638
21
-116.058
0
LINE
8
Black
10
84.638
20
-116.058
11
84.888
21
-116.058
0
LINE
8
Black
10
84.888
20
-116.058
11
84.888
21
-116.738
0
LINE
8
Black
10
85.288
20
-116.738
11
85.038
21
-116.738
0
LINE
8
Black
10
85.038
20
-116.738
11
85.038
21
-116.058
0
LINE
8
Black
10
85.038
20
-116.058
11
85.288
21
-116.058
0
LINE
8
Black
10
85.288
20
-116.058
11
85.288
21
-116.738
0
LINE
8
Black
10
85.688
20
-116.738
11
85.438
21
-116.738
0
LINE
8
Black
10
85.438
20
-116.738
11
85.438
21
-116.058
0
LINE
8
Black
10
85.438
20
-116.058
11
85.688
21
-116.058
0
LINE
8
Black
10
85.688
20
-116.058
11
85.688
21
-116.738
0
LINE
8
Black
10
305.4
20
-116.4
11
304.2
21
-116.4
0
LINE
8
Black
10
304.2
20
-116.4
11
304.2
21
-115.5
0
LINE
8
Black
10
304.2
20
-115.5
11
305.4
21
-115.5
0
LINE
8
Black
10
305.4
20
-115.5
11
305.4
21
-116.4
0
LINE
8
Black
10
331.594
20
-116.4
11
330.394
21
-116.4
0
LINE
8
Black
10
330.394
20
-116.4
11
330.394
21
-115.5
0
LINE
8
Black
10
330.394
20
-115.5
11
331.594
21
-115.5
0
LINE
8
Black
10
331.594
20
-115.5
11
331.594
21
-116.4
0
LINE
8
Black
10
61.7188
20
-116.4
11
60.5187
21
-116.4
0
LINE
8
Black
10
60.5187
20
-116.4
11
60.5187
21
-115.5
0
LINE
8
Black
10
60.5187
20
-115.5
11
61.7188
21
-115.5
0
LINE
8
Black
10
61.7188
20
-115.5
11
61.7188
21
-116.4
0
LINE
8
Black
10
222.056
20
-116.4
11
220.856
21
-116.4
0
LINE
8
Black
10
220.856
20
-116.4
11
220.856
21
-115.5
0
LINE
8
Black
10
220.856
20
-115.5
11
222.056
21
-115.5
0
LINE
8
Black
10
222.056
20
-115.5
11
222.056
21
-116.4
0
LINE
8
Black
10
107.756
20
-116.4
11
106.556
21
-116.4
0
LINE
8
Black
10
106.556
20
-116.4
11
106.556
21
-115.5
0
LINE
8
Black
10
106.556
20
-115.5
11
107.756
21
-115.5
0
LINE
8
Black
10
107.756
20
-115.5
11
107.756
21
-116.4
0
LINE
8
Black
10
260.156
20
-116.4
11
258.956
21
-116.4
0
LINE
8
Black
10
258.956
20
-116.4
11
258.956
21
-115.5
0
LINE
8
Black
10
258.956
20
-115.5
11
260.156
21
-115.5
0
LINE
8
Black
10
260.156
20
-115.5
11
260.156
21
-116.4
0
LINE
8
Black
10
126.806
20
-116.4
11
125.606
21
-116.4
0
LINE
8
Black
10
125.606
20
-116.4
11
125.606
21
-115.5
0
LINE
8
Black
10
125.606
20
-115.5
11
126.806
21
-115.5
0
LINE
8
Black
10
126.806
20
-115.5
11
126.806
21
-116.4
0
LINE
8
Black
10
203.006
20
-116.4
11
201.806
21
-116.4
0
LINE
8
Black
10
201.806
20
-116.4
11
201.806
21
-115.5
0
LINE
8
Black
10
201.806
20
-115.5
11
203.006
21
-115.5
0
LINE
8
Black
10
203.006
20
-115.5
11
203.006
21
-116.4
0
LINE
8
Black
10
145.856
20
-116.4
11
144.656
21
-116.4
0
LINE
8
Black
10
144.656
20
-116.4
11
144.656
21
-115.5
0
LINE
8
Black
10
144.656
20
-115.5
11
145.856
21
-115.5
0
LINE
8
Black
10
145.856
20
-115.5
11
145.856
21
-116.4
0
LINE
8
Black
10
164.906
20
-116.4
11
163.706
21
-116.4
0
LINE
8
Black
10
163.706
20
-116.4
11
163.706
21
-115.5
0
LINE
8
Black
10
163.706
20
-115.5
11
164.906
21
-115.5
0
LINE
8
Black
10
164.906
20
-115.5
11
164.906
21
-116.4
0
LINE
8
Black
10
183.956
20
-116.4
11
182.756
21
-116.4
0
LINE
8
Black
10
182.756
20
-116.4
11
182.756
21
-115.5
0
LINE
8
Black
10
182.756
20
-115.5
11
183.956
21
-115.5
0
LINE
8
Black
10
183.956
20
-115.5
11
183.956
21
-116.4
0
LINE
8
Black
10
280
20
-116.4
11
278.8
21
-116.4
0
LINE
8
Black
10
278.8
20
-116.4
11
278.8
21
-115.5
0
LINE
8
Black
10
278.8
20
-115.5
11
280
21
-115.5
0
LINE
8
Black
10
280
20
-115.5
11
280
21
-116.4
0
LINE
8
Black
10
335.562
20
-116.4
11
334.363
21
-116.4
0
LINE
8
Black
10
334.363
20
-116.4
11
334.363
21
-115.5
0
LINE
8
Black
10
334.363
20
-115.5
11
335.562
21
-115.5
0
LINE
8
Black
10
335.562
20
-115.5
11
335.562
21
-116.4
0
LINE
8
Black
10
241.106
20
-116.4
11
239.906
21
-116.4
0
LINE
8
Black
10
239.906
20
-116.4
11
239.906
21
-115.5
0
LINE
8
Black
10
239.906
20
-115.5
11
241.106
21
-115.5
0
LINE
8
Black
10
241.106
20
-115.5
11
241.106
21
-116.4
0
LINE
8
Black
10
82.443
20
-115.863
11
81.763
21
-115.863
0
LINE
8
Black
10
81.763
20
-115.863
11
81.763
21
-115.613
0
LINE
8
Black
10
81.763
20
-115.613
11
82.443
21
-115.613
0
LINE
8
Black
10
82.443
20
-115.613
11
82.443
21
-115.863
0
LINE
8
Black
10
88.163
20
-115.863
11
87.483
21
-115.863
0
LINE
8
Black
10
87.483
20
-115.863
11
87.483
21
-115.613
0
LINE
8
Black
10
87.483
20
-115.613
11
88.163
21
-115.613
0
LINE
8
Black
10
88.163
20
-115.613
11
88.163
21
-115.863
0
LINE
8
Black
10
83.688
20
-115.713
11
82.788
21
-115.713
0
LINE
8
Black
10
82.788
20
-115.713
11
82.788
21
-114.813
0
LINE
8
Black
10
82.788
20
-114.813
11
83.688
21
-114.813
0
LINE
8
Black
10
83.688
20
-114.813
11
83.688
21
-115.713
0
LINE
8
Black
10
87.138
20
-115.713
11
86.238
21
-115.713
0
LINE
8
Black
10
86.238
20
-115.713
11
86.238
21
-114.813
0
LINE
8
Black
10
86.238
20
-114.813
11
87.138
21
-114.813
0
LINE
8
Black
10
87.138
20
-114.813
11
87.138
21
-115.713
0
LINE
8
Black
10
85.988
20
-115.713
11
85.088
21
-115.713
0
LINE
8
Black
10
85.088
20
-115.713
11
85.088
21
-114.813
0
LINE
8
Black
10
85.088
20
-114.813
11
85.988
21
-114.813
0
LINE
8
Black
10
85.988
20
-114.813
11
85.988
21
-115.713
0
LINE
8
Black
10
84.838
20
-115.713
11
83.938
21
-115.713
0
LINE
8
Black
10
83.938
20
-115.713
11
83.938
21
-114.813
0
LINE
8
Black
10
83.938
20
-114.813
11
84.838
21
-114.813
0
LINE
8
Black
10
84.838
20
-114.813
11
84.838
21
-115.713
0
LINE
8
Black
10
88.163
20
-115.463
11
87.483
21
-115.463
0
LINE
8
Black
10
87.483
20
-115.463
11
87.483
21
-115.213
0
LINE
8
Black
10
87.483
20
-115.213
11
88.163
21
-115.213
0
LINE
8
Black
10
88.163
20
-115.213
11
88.163
21
-115.463
0
LINE
8
Black
10
82.443
20
-115.463
11
81.763
21
-115.463
0
LINE
8
Black
10
81.763
20
-115.463
11
81.763
21
-115.213
0
LINE
8
Black
10
81.763
20
-115.213
11
82.443
21
-115.213
0
LINE
8
Black
10
82.443
20
-115.213
11
82.443
21
-115.463
0
LINE
8
Black
10
88.163
20
-115.063
11
87.483
21
-115.063
0
LINE
8
Black
10
87.483
20
-115.063
11
87.483
21
-114.813
0
LINE
8
Black
10
87.483
20
-114.813
11
88.163
21
-114.813
0
LINE
8
Black
10
88.163
20
-114.813
11
88.163
21
-115.063
0
LINE
8
Black
10
82.443
20
-115.063
11
81.763
21
-115.063
0
LINE
8
Black
10
81.763
20
-115.063
11
81.763
21
-114.813
0
LINE
8
Black
10
81.763
20
-114.813
11
82.443
21
-114.813
0
LINE
8
Black
10
82.443
20
-114.813
11
82.443
21
-115.063
0
LINE
8
Black
10
82.443
20
-114.663
11
81.763
21
-114.663
0
LINE
8
Black
10
81.763
20
-114.663
11
81.763
21
-114.413
0
LINE
8
Black
10
81.763
20
-114.413
11
82.443
21
-114.413
0
LINE
8
Black
10
82.443
20
-114.413
11
82.443
21
-114.663
0
LINE
8
Black
10
88.163
20
-114.663
11
87.483
21
-114.663
0
LINE
8
Black
10
87.483
20
-114.663
11
87.483
21
-114.413
0
LINE
8
Black
10
87.483
20
-114.413
11
88.163
21
-114.413
0
LINE
8
Black
10
88.163
20
-114.413
11
88.163
21
-114.663
0
LINE
8
Black
10
85.988
20
-114.563
11
85.088
21
-114.563
0
LINE
8
Black
10
85.088
20
-114.563
11
85.088
21
-113.663
0
LINE
8
Black
10
85.088
20
-113.663
11
85.988
21
-113.663
0
LINE
8
Black
10
85.988
20
-113.663
11
85.988
21
-114.563
0
LINE
8
Black
10
84.838
20
-114.563
11
83.938
21
-114.563
0
LINE
8
Black
10
83.938
20
-114.563
11
83.938
21
-113.663
0
LINE
8
Black
10
83.938
20
-113.663
11
84.838
21
-113.663
0
LINE
8
Black
10
84.838
20
-113.663
11
84.838
21
-114.563
0
LINE
8
Black
10
87.138
20
-114.563
11
86.238
21
-114.563
0
LINE
8
Black
10
86.238
20
-114.563
11
86.238
21
-113.663
0
LINE
8
Black
10
86.238
20
-113.663
11
87.138
21
-113.663
0
LINE
8
Black
10
87.138
20
-113.663
11
87.138
21
-114.563
0
LINE
8
Black
10
83.688
20
-114.563
11
82.788
21
-114.563
0
LINE
8
Black
10
82.788
20
-114.563
11
82.788
21
-113.663
0
LINE
8
Black
10
82.788
20
-113.663
11
83.688
21
-113.663
0
LINE
8
Black
10
83.688
20
-113.663
11
83.688
21
-114.563
0
LINE
8
Black
10
82.443
20
-114.263
11
81.763
21
-114.263
0
LINE
8
Black
10
81.763
20
-114.263
11
81.763
21
-114.013
0
LINE
8
Black
10
81.763
20
-114.013
11
82.443
21
-114.013
0
LINE
8
Black
10
82.443
20
-114.013
11
82.443
21
-114.263
0
LINE
8
Black
10
88.163
20
-114.263
11
87.483
21
-114.263
0
LINE
8
Black
10
87.483
20
-114.263
11
87.483
21
-114.013
0
LINE
8
Black
10
87.483
20
-114.013
11
88.163
21
-114.013
0
LINE
8
Black
10
88.163
20
-114.013
11
88.163
21
-114.263
0
LINE
8
Black
10
88.163
20
-113.863
11
87.483
21
-113.863
0
LINE
8
Black
10
87.483
20
-113.863
11
87.483
21
-113.613
0
LINE
8
Black
10
87.483
20
-113.613
11
88.163
21
-113.613
0
LINE
8
Black
10
88.163
20
-113.613
11
88.163
21
-113.863
0
LINE
8
Black
10
82.443
20
-113.863
11
81.763
21
-113.863
0
LINE
8
Black
10
81.763
20
-113.863
11
81.763
21
-113.613
0
LINE
8
Black
10
81.763
20
-113.613
11
82.443
21
-113.613
0
LINE
8
Black
10
82.443
20
-113.613
11
82.443
21
-113.863
0
LINE
8
Black
10
82.443
20
-113.463
11
81.763
21
-113.463
0
LINE
8
Black
10
81.763
20
-113.463
11
81.763
21
-113.213
0
LINE
8
Black
10
81.763
20
-113.213
11
82.443
21
-113.213
0
LINE
8
Black
10
82.443
20
-113.213
11
82.443
21
-113.463
0
LINE
8
Black
10
88.163
20
-113.463
11
87.483
21
-113.463
0
LINE
8
Black
10
87.483
20
-113.463
11
87.483
21
-113.213
0
LINE
8
Black
10
87.483
20
-113.213
11
88.163
21
-113.213
0
LINE
8
Black
10
88.163
20
-113.213
11
88.163
21
-113.463
0
LINE
8
Black
10
87.138
20
-113.413
11
86.238
21
-113.413
0
LINE
8
Black
10
86.238
20
-113.413
11
86.238
21
-112.513
0
LINE
8
Black
10
86.238
20
-112.513
11
87.138
21
-112.513
0
LINE
8
Black
10
87.138
20
-112.513
11
87.138
21
-113.413
0
LINE
8
Black
10
85.988
20
-113.413
11
85.088
21
-113.413
0
LINE
8
Black
10
85.088
20
-113.413
11
85.088
21
-112.513
0
LINE
8
Black
10
85.088
20
-112.513
11
85.988
21
-112.513
0
LINE
8
Black
10
85.988
20
-112.513
11
85.988
21
-113.413
0
LINE
8
Black
10
84.838
20
-113.413
11
83.938
21
-113.413
0
LINE
8
Black
10
83.938
20
-113.413
11
83.938
21
-112.513
0
LINE
8
Black
10
83.938
20
-112.513
11
84.838
21
-112.513
0
LINE
8
Black
10
84.838
20
-112.513
11
84.838
21
-113.413
0
LINE
8
Black
10
83.688
20
-113.413
11
82.788
21
-113.413
0
LINE
8
Black
10
82.788
20
-113.413
11
82.788
21
-112.513
0
LINE
8
Black
10
82.788
20
-112.513
11
83.688
21
-112.513
0
LINE
8
Black
10
83.688
20
-112.513
11
83.688
21
-113.413
0
LINE
8
Black
10
335.562
20
-113.1
11
334.363
21
-113.1
0
LINE
8
Black
10
334.363
20
-113.1
11
334.363
21
-112.2
0
LINE
8
Black
10
334.363
20
-112.2
11
335.562
21
-112.2
0
LINE
8
Black
10
335.562
20
-112.2
11
335.562
21
-113.1
0
LINE
8
Black
10
331.594
20
-113.1
11
330.394
21
-113.1
0
LINE
8
Black
10
330.394
20
-113.1
11
330.394
21
-112.2
0
LINE
8
Black
10
330.394
20
-112.2
11
331.594
21
-112.2
0
LINE
8
Black
10
331.594
20
-112.2
11
331.594
21
-113.1
0
LINE
8
Black
10
61.7188
20
-113.1
11
60.5187
21
-113.1
0
LINE
8
Black
10
60.5187
20
-113.1
11
60.5187
21
-112.2
0
LINE
8
Black
10
60.5187
20
-112.2
11
61.7188
21
-112.2
0
LINE
8
Black
10
61.7188
20
-112.2
11
61.7188
21
-113.1
0
LINE
8
Black
10
107.756
20
-113.1
11
106.556
21
-113.1
0
LINE
8
Black
10
106.556
20
-113.1
11
106.556
21
-112.2
0
LINE
8
Black
10
106.556
20
-112.2
11
107.756
21
-112.2
0
LINE
8
Black
10
107.756
20
-112.2
11
107.756
21
-113.1
0
LINE
8
Black
10
126.806
20
-113.1
11
125.606
21
-113.1
0
LINE
8
Black
10
125.606
20
-113.1
11
125.606
21
-112.2
0
LINE
8
Black
10
125.606
20
-112.2
11
126.806
21
-112.2
0
LINE
8
Black
10
126.806
20
-112.2
11
126.806
21
-113.1
0
LINE
8
Black
10
145.856
20
-113.1
11
144.656
21
-113.1
0
LINE
8
Black
10
144.656
20
-113.1
11
144.656
21
-112.2
0
LINE
8
Black
10
144.656
20
-112.2
11
145.856
21
-112.2
0
LINE
8
Black
10
145.856
20
-112.2
11
145.856
21
-113.1
0
LINE
8
Black
10
164.906
20
-113.1
11
163.706
21
-113.1
0
LINE
8
Black
10
163.706
20
-113.1
11
163.706
21
-112.2
0
LINE
8
Black
10
163.706
20
-112.2
11
164.906
21
-112.2
0
LINE
8
Black
10
164.906
20
-112.2
11
164.906
21
-113.1
0
LINE
8
Black
10
183.956
20
-113.1
11
182.756
21
-113.1
0
LINE
8
Black
10
182.756
20
-113.1
11
182.756
21
-112.2
0
LINE
8
Black
10
182.756
20
-112.2
11
183.956
21
-112.2
0
LINE
8
Black
10
183.956
20
-112.2
11
183.956
21
-113.1
0
LINE
8
Black
10
203.006
20
-113.1
11
201.806
21
-113.1
0
LINE
8
Black
10
201.806
20
-113.1
11
201.806
21
-112.2
0
LINE
8
Black
10
201.806
20
-112.2
11
203.006
21
-112.2
0
LINE
8
Black
10
203.006
20
-112.2
11
203.006
21
-113.1
0
LINE
8
Black
10
222.056
20
-113.1
11
220.856
21
-113.1
0
LINE
8
Black
10
220.856
20
-113.1
11
220.856
21
-112.2
0
LINE
8
Black
10
220.856
20
-112.2
11
222.056
21
-112.2
0
LINE
8
Black
10
222.056
20
-112.2
11
222.056
21
-113.1
0
LINE
8
Black
10
241.106
20
-113.1
11
239.906
21
-113.1
0
LINE
8
Black
10
239.906
20
-113.1
11
239.906
21
-112.2
0
LINE
8
Black
10
239.906
20
-112.2
11
241.106
21
-112.2
0
LINE
8
Black
10
241.106
20
-112.2
11
241.106
21
-113.1
0
LINE
8
Black
10
260.156
20
-113.1
11
258.956
21
-113.1
0
LINE
8
Black
10
258.956
20
-113.1
11
258.956
21
-112.2
0
LINE
8
Black
10
258.956
20
-112.2
11
260.156
21
-112.2
0
LINE
8
Black
10
260.156
20
-112.2
11
260.156
21
-113.1
0
LINE
8
Black
10
280
20
-113.1
11
278.8
21
-113.1
0
LINE
8
Black
10
278.8
20
-113.1
11
278.8
21
-112.2
0
LINE
8
Black
10
278.8
20
-112.2
11
280
21
-112.2
0
LINE
8
Black
10
280
20
-112.2
11
280
21
-113.1
0
LINE
8
Black
10
305.4
20
-113.1
11
304.2
21
-113.1
0
LINE
8
Black
10
304.2
20
-113.1
11
304.2
21
-112.2
0
LINE
8
Black
10
304.2
20
-112.2
11
305.4
21
-112.2
0
LINE
8
Black
10
305.4
20
-112.2
11
305.4
21
-113.1
0
LINE
8
Black
10
88.163
20
-113.063
11
87.483
21
-113.063
0
LINE
8
Black
10
87.483
20
-113.063
11
87.483
21
-112.813
0
LINE
8
Black
10
87.483
20
-112.813
11
88.163
21
-112.813
0
LINE
8
Black
10
88.163
20
-112.813
11
88.163
21
-113.063
0
LINE
8
Black
10
82.443
20
-113.063
11
81.763
21
-113.063
0
LINE
8
Black
10
81.763
20
-113.063
11
81.763
21
-112.813
0
LINE
8
Black
10
81.763
20
-112.813
11
82.443
21
-112.813
0
LINE
8
Black
10
82.443
20
-112.813
11
82.443
21
-113.063
0
LINE
8
Black
10
52.675
20
-112.894
11
51.575
21
-112.894
0
LINE
8
Black
10
51.575
20
-112.894
11
51.575
21
-111.094
0
LINE
8
Black
10
51.575
20
-111.094
11
52.675
21
-111.094
0
LINE
8
Black
10
52.675
20
-111.094
11
52.675
21
-112.894
0
LINE
8
Black
10
56.375
20
-112.894
11
55.275
21
-112.894
0
LINE
8
Black
10
55.275
20
-112.894
11
55.275
21
-111.094
0
LINE
8
Black
10
55.275
20
-111.094
11
56.375
21
-111.094
0
LINE
8
Black
10
56.375
20
-111.094
11
56.375
21
-112.894
0
LINE
8
Black
10
88.163
20
-112.663
11
87.483
21
-112.663
0
LINE
8
Black
10
87.483
20
-112.663
11
87.483
21
-112.413
0
LINE
8
Black
10
87.483
20
-112.413
11
88.163
21
-112.413
0
LINE
8
Black
10
88.163
20
-112.413
11
88.163
21
-112.663
0
LINE
8
Black
10
82.443
20
-112.663
11
81.763
21
-112.663
0
LINE
8
Black
10
81.763
20
-112.663
11
81.763
21
-112.413
0
LINE
8
Black
10
81.763
20
-112.413
11
82.443
21
-112.413
0
LINE
8
Black
10
82.443
20
-112.413
11
82.443
21
-112.663
0
LINE
8
Black
10
85.988
20
-112.263
11
85.088
21
-112.263
0
LINE
8
Black
10
85.088
20
-112.263
11
85.088
21
-111.363
0
LINE
8
Black
10
85.088
20
-111.363
11
85.988
21
-111.363
0
LINE
8
Black
10
85.988
20
-111.363
11
85.988
21
-112.263
0
LINE
8
Black
10
87.138
20
-112.263
11
86.238
21
-112.263
0
LINE
8
Black
10
86.238
20
-112.263
11
86.238
21
-111.363
0
LINE
8
Black
10
86.238
20
-111.363
11
87.138
21
-111.363
0
LINE
8
Black
10
87.138
20
-111.363
11
87.138
21
-112.263
0
LINE
8
Black
10
88.163
20
-112.263
11
87.483
21
-112.263
0
LINE
8
Black
10
87.483
20
-112.263
11
87.483
21
-112.013
0
LINE
8
Black
10
87.483
20
-112.013
11
88.163
21
-112.013
0
LINE
8
Black
10
88.163
20
-112.013
11
88.163
21
-112.263
0
LINE
8
Black
10
82.443
20
-112.263
11
81.763
21
-112.263
0
LINE
8
Black
10
81.763
20
-112.263
11
81.763
21
-112.013
0
LINE
8
Black
10
81.763
20
-112.013
11
82.443
21
-112.013
0
LINE
8
Black
10
82.443
20
-112.013
11
82.443
21
-112.263
0
LINE
8
Black
10
84.838
20
-112.263
11
83.938
21
-112.263
0
LINE
8
Black
10
83.938
20
-112.263
11
83.938
21
-111.363
0
LINE
8
Black
10
83.938
20
-111.363
11
84.838
21
-111.363
0
LINE
8
Black
10
84.838
20
-111.363
11
84.838
21
-112.263
0
LINE
8
Black
10
83.688
20
-112.263
11
82.788
21
-112.263
0
LINE
8
Black
10
82.788
20
-112.263
11
82.788
21
-111.363
0
LINE
8
Black
10
82.788
20
-111.363
11
83.688
21
-111.363
0
LINE
8
Black
10
83.688
20
-111.363
11
83.688
21
-112.263
0
LINE
8
Black
10
82.443
20
-111.863
11
81.763
21
-111.863
0
LINE
8
Black
10
81.763
20
-111.863
11
81.763
21
-111.613
0
LINE
8
Black
10
81.763
20
-111.613
11
82.443
21
-111.613
0
LINE
8
Black
10
82.443
20
-111.613
11
82.443
21
-111.863
0
LINE
8
Black
10
88.163
20
-111.863
11
87.483
21
-111.863
0
LINE
8
Black
10
87.483
20
-111.863
11
87.483
21
-111.613
0
LINE
8
Black
10
87.483
20
-111.613
11
88.163
21
-111.613
0
LINE
8
Black
10
88.163
20
-111.613
11
88.163
21
-111.863
0
LINE
8
Black
10
88.163
20
-111.463
11
87.483
21
-111.463
0
LINE
8
Black
10
87.483
20
-111.463
11
87.483
21
-111.213
0
LINE
8
Black
10
87.483
20
-111.213
11
88.163
21
-111.213
0
LINE
8
Black
10
88.163
20
-111.213
11
88.163
21
-111.463
0
LINE
8
Black
10
82.443
20
-111.463
11
81.763
21
-111.463
0
LINE
8
Black
10
81.763
20
-111.463
11
81.763
21
-111.213
0
LINE
8
Black
10
81.763
20
-111.213
11
82.443
21
-111.213
0
LINE
8
Black
10
82.443
20
-111.213
11
82.443
21
-111.463
0
LINE
8
Black
10
87.288
20
-111.018
11
87.038
21
-111.018
0
LINE
8
Black
10
87.038
20
-111.018
11
87.038
21
-110.338
0
LINE
8
Black
10
87.038
20
-110.338
11
87.288
21
-110.338
0
LINE
8
Black
10
87.288
20
-110.338
11
87.288
21
-111.018
0
LINE
8
Black
10
85.288
20
-111.018
11
85.038
21
-111.018
0
LINE
8
Black
10
85.038
20
-111.018
11
85.038
21
-110.338
0
LINE
8
Black
10
85.038
20
-110.338
11
85.288
21
-110.338
0
LINE
8
Black
10
85.288
20
-110.338
11
85.288
21
-111.018
0
LINE
8
Black
10
84.888
20
-111.018
11
84.638
21
-111.018
0
LINE
8
Black
10
84.638
20
-111.018
11
84.638
21
-110.338
0
LINE
8
Black
10
84.638
20
-110.338
11
84.888
21
-110.338
0
LINE
8
Black
10
84.888
20
-110.338
11
84.888
21
-111.018
0
LINE
8
Black
10
86.888
20
-111.018
11
86.638
21
-111.018
0
LINE
8
Black
10
86.638
20
-111.018
11
86.638
21
-110.338
0
LINE
8
Black
10
86.638
20
-110.338
11
86.888
21
-110.338
0
LINE
8
Black
10
86.888
20
-110.338
11
86.888
21
-111.018
0
LINE
8
Black
10
84.488
20
-111.018
11
84.238
21
-111.018
0
LINE
8
Black
10
84.238
20
-111.018
11
84.238
21
-110.338
0
LINE
8
Black
10
84.238
20
-110.338
11
84.488
21
-110.338
0
LINE
8
Black
10
84.488
20
-110.338
11
84.488
21
-111.018
0
LINE
8
Black
10
84.088
20
-111.018
11
83.838
21
-111.018
0
LINE
8
Black
10
83.838
20
-111.018
11
83.838
21
-110.338
0
LINE
8
Black
10
83.838
20
-110.338
11
84.088
21
-110.338
0
LINE
8
Black
10
84.088
20
-110.338
11
84.088
21
-111.018
0
LINE
8
Black
10
86.488
20
-111.018
11
86.238
21
-111.018
0
LINE
8
Black
10
86.238
20
-111.018
11
86.238
21
-110.338
0
LINE
8
Black
10
86.238
20
-110.338
11
86.488
21
-110.338
0
LINE
8
Black
10
86.488
20
-110.338
11
86.488
21
-111.018
0
LINE
8
Black
10
85.688
20
-111.018
11
85.438
21
-111.018
0
LINE
8
Black
10
85.438
20
-111.018
11
85.438
21
-110.338
0
LINE
8
Black
10
85.438
20
-110.338
11
85.688
21
-110.338
0
LINE
8
Black
10
85.688
20
-110.338
11
85.688
21
-111.018
0
LINE
8
Black
10
83.688
20
-111.018
11
83.438
21
-111.018
0
LINE
8
Black
10
83.438
20
-111.018
11
83.438
21
-110.338
0
LINE
8
Black
10
83.438
20
-110.338
11
83.688
21
-110.338
0
LINE
8
Black
10
83.688
20
-110.338
11
83.688
21
-111.018
0
LINE
8
Black
10
83.288
20
-111.018
11
83.038
21
-111.018
0
LINE
8
Black
10
83.038
20
-111.018
11
83.038
21
-110.338
0
LINE
8
Black
10
83.038
20
-110.338
11
83.288
21
-110.338
0
LINE
8
Black
10
83.288
20
-110.338
11
83.288
21
-111.018
0
LINE
8
Black
10
86.088
20
-111.018
11
85.838
21
-111.018
0
LINE
8
Black
10
85.838
20
-111.018
11
85.838
21
-110.338
0
LINE
8
Black
10
85.838
20
-110.338
11
86.088
21
-110.338
0
LINE
8
Black
10
86.088
20
-110.338
11
86.088
21
-111.018
0
LINE
8
Black
10
82.888
20
-111.018
11
82.638
21
-111.018
0
LINE
8
Black
10
82.638
20
-111.018
11
82.638
21
-110.338
0
LINE
8
Black
10
82.638
20
-110.338
11
82.888
21
-110.338
0
LINE
8
Black
10
82.888
20
-110.338
11
82.888
21
-111.018
0
LINE
8
Black
10
86.1
20
-108.211
11
85.35
21
-108.211
0
LINE
8
Black
10
85.35
20
-108.211
11
85.35
21
-107.411
0
LINE
8
Black
10
85.35
20
-107.411
11
86.1
21
-107.411
0
LINE
8
Black
10
86.1
20
-107.411
11
86.1
21
-108.211
0
LINE
8
Black
10
88.259
20
-107.461
11
87.509
21
-107.461
0
LINE
8
Black
10
87.509
20
-107.461
11
87.509
21
-106.661
0
LINE
8
Black
10
87.509
20
-106.661
11
88.259
21
-106.661
0
LINE
8
Black
10
88.259
20
-106.661
11
88.259
21
-107.461
0
LINE
8
Black
10
86.1
20
-106.711
11
85.35
21
-106.711
0
LINE
8
Black
10
85.35
20
-106.711
11
85.35
21
-105.911
0
LINE
8
Black
10
85.35
20
-105.911
11
86.1
21
-105.911
0
LINE
8
Black
10
86.1
20
-105.911
11
86.1
21
-106.711
0
LINE
8
Black
10
88.259
20
-105.961
11
87.509
21
-105.961
0
LINE
8
Black
10
87.509
20
-105.961
11
87.509
21
-105.161
0
LINE
8
Black
10
87.509
20
-105.161
11
88.259
21
-105.161
0
LINE
8
Black
10
88.259
20
-105.161
11
88.259
21
-105.961
0
LINE
8
Black
10
72.84
20
-101.838
11
71.94
21
-101.838
0
LINE
8
Black
10
71.94
20
-101.838
11
71.94
21
-101.338
0
LINE
8
Black
10
71.94
20
-101.338
11
72.84
21
-101.338
0
LINE
8
Black
10
72.84
20
-101.338
11
72.84
21
-101.838
0
LINE
8
Black
10
70.3
20
-101.838
11
69.4
21
-101.838
0
LINE
8
Black
10
69.4
20
-101.838
11
69.4
21
-101.338
0
LINE
8
Black
10
69.4
20
-101.338
11
70.3
21
-101.338
0
LINE
8
Black
10
70.3
20
-101.338
11
70.3
21
-101.838
0
LINE
8
Black
10
70.3
20
-100.338
11
69.4
21
-100.338
0
LINE
8
Black
10
69.4
20
-100.338
11
69.4
21
-99.838
0
LINE
8
Black
10
69.4
20
-99.838
11
70.3
21
-99.838
0
LINE
8
Black
10
70.3
20
-99.838
11
70.3
21
-100.338
0
LINE
8
Black
10
72.84
20
-100.338
11
71.94
21
-100.338
0
LINE
8
Black
10
71.94
20
-100.338
11
71.94
21
-99.838
0
LINE
8
Black
10
71.94
20
-99.838
11
72.84
21
-99.838
0
LINE
8
Black
10
72.84
20
-99.838
11
72.84
21
-100.338
0
LINE
8
Black
10
78.747
20
-98.8
11
77.947
21
-98.8
0
LINE
8
Black
10
77.947
20
-98.8
11
77.947
21
-98.05
0
LINE
8
Black
10
77.947
20
-98.05
11
78.747
21
-98.05
0
LINE
8
Black
10
78.747
20
-98.05
11
78.747
21
-98.8
0
LINE
8
Black
10
77.247
20
-98.8
11
76.447
21
-98.8
0
LINE
8
Black
10
76.447
20
-98.8
11
76.447
21
-98.05
0
LINE
8
Black
10
76.447
20
-98.05
11
77.247
21
-98.05
0
LINE
8
Black
10
77.247
20
-98.05
11
77.247
21
-98.8
0
LINE
8
Black
10
319.688
20
-97.35
11
318.488
21
-97.35
0
LINE
8
Black
10
318.488
20
-97.35
11
318.488
21
-96.45
0
LINE
8
Black
10
318.488
20
-96.45
11
319.688
21
-96.45
0
LINE
8
Black
10
319.688
20
-96.45
11
319.688
21
-97.35
0
LINE
8
Black
10
288.731
20
-97.35
11
287.531
21
-97.35
0
LINE
8
Black
10
287.531
20
-97.35
11
287.531
21
-96.45
0
LINE
8
Black
10
287.531
20
-96.45
11
288.731
21
-96.45
0
LINE
8
Black
10
288.731
20
-96.45
11
288.731
21
-97.35
0
LINE
8
Black
10
269.681
20
-97.35
11
268.481
21
-97.35
0
LINE
8
Black
10
268.481
20
-97.35
11
268.481
21
-96.45
0
LINE
8
Black
10
268.481
20
-96.45
11
269.681
21
-96.45
0
LINE
8
Black
10
269.681
20
-96.45
11
269.681
21
-97.35
0
LINE
8
Black
10
250.631
20
-97.35
11
249.431
21
-97.35
0
LINE
8
Black
10
249.431
20
-97.35
11
249.431
21
-96.45
0
LINE
8
Black
10
249.431
20
-96.45
11
250.631
21
-96.45
0
LINE
8
Black
10
250.631
20
-96.45
11
250.631
21
-97.35
0
LINE
8
Black
10
231.581
20
-97.35
11
230.381
21
-97.35
0
LINE
8
Black
10
230.381
20
-97.35
11
230.381
21
-96.45
0
LINE
8
Black
10
230.381
20
-96.45
11
231.581
21
-96.45
0
LINE
8
Black
10
231.581
20
-96.45
11
231.581
21
-97.35
0
LINE
8
Black
10
212.531
20
-97.35
11
211.331
21
-97.35
0
LINE
8
Black
10
211.331
20
-97.35
11
211.331
21
-96.45
0
LINE
8
Black
10
211.331
20
-96.45
11
212.531
21
-96.45
0
LINE
8
Black
10
212.531
20
-96.45
11
212.531
21
-97.35
0
LINE
8
Black
10
193.481
20
-97.35
11
192.281
21
-97.35
0
LINE
8
Black
10
192.281
20
-97.35
11
192.281
21
-96.45
0
LINE
8
Black
10
192.281
20
-96.45
11
193.481
21
-96.45
0
LINE
8
Black
10
193.481
20
-96.45
11
193.481
21
-97.35
0
LINE
8
Black
10
159.35
20
-97.35
11
158.15
21
-97.35
0
LINE
8
Black
10
158.15
20
-97.35
11
158.15
21
-96.45
0
LINE
8
Black
10
158.15
20
-96.45
11
159.35
21
-96.45
0
LINE
8
Black
10
159.35
20
-96.45
11
159.35
21
-97.35
0
LINE
8
Black
10
155.381
20
-97.35
11
154.181
21
-97.35
0
LINE
8
Black
10
154.181
20
-97.35
11
154.181
21
-96.45
0
LINE
8
Black
10
154.181
20
-96.45
11
155.381
21
-96.45
0
LINE
8
Black
10
155.381
20
-96.45
11
155.381
21
-97.35
0
LINE
8
Black
10
335.562
20
-97.35
11
334.363
21
-97.35
0
LINE
8
Black
10
334.363
20
-97.35
11
334.363
21
-96.45
0
LINE
8
Black
10
334.363
20
-96.45
11
335.562
21
-96.45
0
LINE
8
Black
10
335.562
20
-96.45
11
335.562
21
-97.35
0
LINE
8
Black
10
136.331
20
-97.35
11
135.131
21
-97.35
0
LINE
8
Black
10
135.131
20
-97.35
11
135.131
21
-96.45
0
LINE
8
Black
10
135.131
20
-96.45
11
136.331
21
-96.45
0
LINE
8
Black
10
136.331
20
-96.45
11
136.331
21
-97.35
0
LINE
8
Black
10
117.281
20
-97.35
11
116.081
21
-97.35
0
LINE
8
Black
10
116.081
20
-97.35
11
116.081
21
-96.45
0
LINE
8
Black
10
116.081
20
-96.45
11
117.281
21
-96.45
0
LINE
8
Black
10
117.281
20
-96.45
11
117.281
21
-97.35
0
LINE
8
Black
10
98.2312
20
-97.35
11
97.0312
21
-97.35
0
LINE
8
Black
10
97.0312
20
-97.35
11
97.0312
21
-96.45
0
LINE
8
Black
10
97.0312
20
-96.45
11
98.2312
21
-96.45
0
LINE
8
Black
10
98.2312
20
-96.45
11
98.2312
21
-97.35
0
LINE
8
Black
10
52.9875
20
-97.35
11
51.7875
21
-97.35
0
LINE
8
Black
10
51.7875
20
-97.35
11
51.7875
21
-96.45
0
LINE
8
Black
10
51.7875
20
-96.45
11
52.9875
21
-96.45
0
LINE
8
Black
10
52.9875
20
-96.45
11
52.9875
21
-97.35
0
LINE
8
Black
10
76.4592
20
-96.0877
11
76.2092
21
-96.0877
0
LINE
8
Black
10
76.2092
20
-96.0877
11
76.2092
21
-95.3877
0
LINE
8
Black
10
76.2092
20
-95.3877
11
76.4592
21
-95.3877
0
LINE
8
Black
10
76.4592
20
-95.3877
11
76.4592
21
-96.0877
0
LINE
8
Black
10
74.9592
20
-96.0877
11
74.7092
21
-96.0877
0
LINE
8
Black
10
74.7092
20
-96.0877
11
74.7092
21
-95.3877
0
LINE
8
Black
10
74.7092
20
-95.3877
11
74.9592
21
-95.3877
0
LINE
8
Black
10
74.9592
20
-95.3877
11
74.9592
21
-96.0877
0
LINE
8
Black
10
78.4592
20
-96.0877
11
78.2092
21
-96.0877
0
LINE
8
Black
10
78.2092
20
-96.0877
11
78.2092
21
-95.3877
0
LINE
8
Black
10
78.2092
20
-95.3877
11
78.4592
21
-95.3877
0
LINE
8
Black
10
78.4592
20
-95.3877
11
78.4592
21
-96.0877
0
LINE
8
Black
10
79.9592
20
-96.0877
11
79.7092
21
-96.0877
0
LINE
8
Black
10
79.7092
20
-96.0877
11
79.7092
21
-95.3877
0
LINE
8
Black
10
79.7092
20
-95.3877
11
79.9592
21
-95.3877
0
LINE
8
Black
10
79.9592
20
-95.3877
11
79.9592
21
-96.0877
0
LINE
8
Black
10
75.9592
20
-96.0877
11
75.7092
21
-96.0877
0
LINE
8
Black
10
75.7092
20
-96.0877
11
75.7092
21
-95.3877
0
LINE
8
Black
10
75.7092
20
-95.3877
11
75.9592
21
-95.3877
0
LINE
8
Black
10
75.9592
20
-95.3877
11
75.9592
21
-96.0877
0
LINE
8
Black
10
75.4592
20
-96.0877
11
75.2092
21
-96.0877
0
LINE
8
Black
10
75.2092
20
-96.0877
11
75.2092
21
-95.3877
0
LINE
8
Black
10
75.2092
20
-95.3877
11
75.4592
21
-95.3877
0
LINE
8
Black
10
75.4592
20
-95.3877
11
75.4592
21
-96.0877
0
LINE
8
Black
10
77.9592
20
-96.0877
11
77.7092
21
-96.0877
0
LINE
8
Black
10
77.7092
20
-96.0877
11
77.7092
21
-95.3877
0
LINE
8
Black
10
77.7092
20
-95.3877
11
77.9592
21
-95.3877
0
LINE
8
Black
10
77.9592
20
-95.3877
11
77.9592
21
-96.0877
0
LINE
8
Black
10
78.9592
20
-96.0877
11
78.7092
21
-96.0877
0
LINE
8
Black
10
78.7092
20
-96.0877
11
78.7092
21
-95.3877
0
LINE
8
Black
10
78.7092
20
-95.3877
11
78.9592
21
-95.3877
0
LINE
8
Black
10
78.9592
20
-95.3877
11
78.9592
21
-96.0877
0
LINE
8
Black
10
77.4592
20
-96.0877
11
77.2092
21
-96.0877
0
LINE
8
Black
10
77.2092
20
-96.0877
11
77.2092
21
-95.3877
0
LINE
8
Black
10
77.2092
20
-95.3877
11
77.4592
21
-95.3877
0
LINE
8
Black
10
77.4592
20
-95.3877
11
77.4592
21
-96.0877
0
LINE
8
Black
10
76.9592
20
-96.0877
11
76.7092
21
-96.0877
0
LINE
8
Black
10
76.7092
20
-96.0877
11
76.7092
21
-95.3877
0
LINE
8
Black
10
76.7092
20
-95.3877
11
76.9592
21
-95.3877
0
LINE
8
Black
10
76.9592
20
-95.3877
11
76.9592
21
-96.0877
0
LINE
8
Black
10
79.4592
20
-96.0877
11
79.2092
21
-96.0877
0
LINE
8
Black
10
79.2092
20
-96.0877
11
79.2092
21
-95.3877
0
LINE
8
Black
10
79.2092
20
-95.3877
11
79.4592
21
-95.3877
0
LINE
8
Black
10
79.4592
20
-95.3877
11
79.4592
21
-96.0877
0
LINE
8
Black
10
83.687
20
-95.638
11
82.937
21
-95.638
0
LINE
8
Black
10
82.937
20
-95.638
11
82.937
21
-94.838
0
LINE
8
Black
10
82.937
20
-94.838
11
83.687
21
-94.838
0
LINE
8
Black
10
83.687
20
-94.838
11
83.687
21
-95.638
0
LINE
8
Black
10
74.2843
20
-94.9627
11
73.5842
21
-94.9627
0
LINE
8
Black
10
73.5842
20
-94.9627
11
73.5842
21
-94.7127
0
LINE
8
Black
10
73.5842
20
-94.7127
11
74.2843
21
-94.7127
0
LINE
8
Black
10
74.2843
20
-94.7127
11
74.2843
21
-94.9627
0
LINE
8
Black
10
81.0842
20
-94.9627
11
80.3842
21
-94.9627
0
LINE
8
Black
10
80.3842
20
-94.9627
11
80.3842
21
-94.7127
0
LINE
8
Black
10
80.3842
20
-94.7127
11
81.0842
21
-94.7127
0
LINE
8
Black
10
81.0842
20
-94.7127
11
81.0842
21
-94.9627
0
LINE
8
Black
10
78.3642
20
-94.6552
11
77.5917
21
-94.6552
0
LINE
8
Black
10
77.5917
20
-94.6552
11
77.5917
21
-93.8828
0
LINE
8
Black
10
77.5917
20
-93.8828
11
78.3642
21
-93.8828
0
LINE
8
Black
10
78.3642
20
-93.8828
11
78.3642
21
-94.6552
0
LINE
8
Black
10
79.6517
20
-94.6552
11
78.8792
21
-94.6552
0
LINE
8
Black
10
78.8792
20
-94.6552
11
78.8792
21
-93.8828
0
LINE
8
Black
10
78.8792
20
-93.8828
11
79.6517
21
-93.8828
0
LINE
8
Black
10
79.6517
20
-93.8828
11
79.6517
21
-94.6552
0
LINE
8
Black
10
77.0767
20
-94.6552
11
76.3042
21
-94.6552
0
LINE
8
Black
10
76.3042
20
-94.6552
11
76.3042
21
-93.8828
0
LINE
8
Black
10
76.3042
20
-93.8828
11
77.0767
21
-93.8828
0
LINE
8
Black
10
77.0767
20
-93.8828
11
77.0767
21
-94.6552
0
LINE
8
Black
10
75.7892
20
-94.6552
11
75.0168
21
-94.6552
0
LINE
8
Black
10
75.0168
20
-94.6552
11
75.0168
21
-93.8828
0
LINE
8
Black
10
75.0168
20
-93.8828
11
75.7892
21
-93.8828
0
LINE
8
Black
10
75.7892
20
-93.8828
11
75.7892
21
-94.6552
0
LINE
8
Black
10
81.0842
20
-94.4627
11
80.3842
21
-94.4627
0
LINE
8
Black
10
80.3842
20
-94.4627
11
80.3842
21
-94.2127
0
LINE
8
Black
10
80.3842
20
-94.2127
11
81.0842
21
-94.2127
0
LINE
8
Black
10
81.0842
20
-94.2127
11
81.0842
21
-94.4627
0
LINE
8
Black
10
74.2843
20
-94.4627
11
73.5842
21
-94.4627
0
LINE
8
Black
10
73.5842
20
-94.4627
11
73.5842
21
-94.2127
0
LINE
8
Black
10
73.5842
20
-94.2127
11
74.2843
21
-94.2127
0
LINE
8
Black
10
74.2843
20
-94.2127
11
74.2843
21
-94.4627
0
LINE
8
Black
10
83.687
20
-94.138
11
82.937
21
-94.138
0
LINE
8
Black
10
82.937
20
-94.138
11
82.937
21
-93.338
0
LINE
8
Black
10
82.937
20
-93.338
11
83.687
21
-93.338
0
LINE
8
Black
10
83.687
20
-93.338
11
83.687
21
-94.138
0
LINE
8
Black
10
288.731
20
-94.05
11
287.531
21
-94.05
0
LINE
8
Black
10
287.531
20
-94.05
11
287.531
21
-93.15
0
LINE
8
Black
10
287.531
20
-93.15
11
288.731
21
-93.15
0
LINE
8
Black
10
288.731
20
-93.15
11
288.731
21
-94.05
0
LINE
8
Black
10
269.681
20
-94.05
11
268.481
21
-94.05
0
LINE
8
Black
10
268.481
20
-94.05
11
268.481
21
-93.15
0
LINE
8
Black
10
268.481
20
-93.15
11
269.681
21
-93.15
0
LINE
8
Black
10
269.681
20
-93.15
11
269.681
21
-94.05
0
LINE
8
Black
10
250.631
20
-94.05
11
249.431
21
-94.05
0
LINE
8
Black
10
249.431
20
-94.05
11
249.431
21
-93.15
0
LINE
8
Black
10
249.431
20
-93.15
11
250.631
21
-93.15
0
LINE
8
Black
10
250.631
20
-93.15
11
250.631
21
-94.05
0
LINE
8
Black
10
319.688
20
-94.05
11
318.488
21
-94.05
0
LINE
8
Black
10
318.488
20
-94.05
11
318.488
21
-93.15
0
LINE
8
Black
10
318.488
20
-93.15
11
319.688
21
-93.15
0
LINE
8
Black
10
319.688
20
-93.15
11
319.688
21
-94.05
0
LINE
8
Black
10
231.581
20
-94.05
11
230.381
21
-94.05
0
LINE
8
Black
10
230.381
20
-94.05
11
230.381
21
-93.15
0
LINE
8
Black
10
230.381
20
-93.15
11
231.581
21
-93.15
0
LINE
8
Black
10
231.581
20
-93.15
11
231.581
21
-94.05
0
LINE
8
Black
10
155.381
20
-94.05
11
154.181
21
-94.05
0
LINE
8
Black
10
154.181
20
-94.05
11
154.181
21
-93.15
0
LINE
8
Black
10
154.181
20
-93.15
11
155.381
21
-93.15
0
LINE
8
Black
10
155.381
20
-93.15
11
155.381
21
-94.05
0
LINE
8
Black
10
212.531
20
-94.05
11
211.331
21
-94.05
0
LINE
8
Black
10
211.331
20
-94.05
11
211.331
21
-93.15
0
LINE
8
Black
10
211.331
20
-93.15
11
212.531
21
-93.15
0
LINE
8
Black
10
212.531
20
-93.15
11
212.531
21
-94.05
0
LINE
8
Black
10
193.481
20
-94.05
11
192.281
21
-94.05
0
LINE
8
Black
10
192.281
20
-94.05
11
192.281
21
-93.15
0
LINE
8
Black
10
192.281
20
-93.15
11
193.481
21
-93.15
0
LINE
8
Black
10
193.481
20
-93.15
11
193.481
21
-94.05
0
LINE
8
Black
10
159.35
20
-94.05
11
158.15
21
-94.05
0
LINE
8
Black
10
158.15
20
-94.05
11
158.15
21
-93.15
0
LINE
8
Black
10
158.15
20
-93.15
11
159.35
21
-93.15
0
LINE
8
Black
10
159.35
20
-93.15
11
159.35
21
-94.05
0
LINE
8
Black
10
136.331
20
-94.05
11
135.131
21
-94.05
0
LINE
8
Black
10
135.131
20
-94.05
11
135.131
21
-93.15
0
LINE
8
Black
10
135.131
20
-93.15
11
136.331
21
-93.15
0
LINE
8
Black
10
136.331
20
-93.15
11
136.331
21
-94.05
0
LINE
8
Black
10
117.281
20
-94.05
11
116.081
21
-94.05
0
LINE
8
Black
10
116.081
20
-94.05
11
116.081
21
-93.15
0
LINE
8
Black
10
116.081
20
-93.15
11
117.281
21
-93.15
0
LINE
8
Black
10
117.281
20
-93.15
11
117.281
21
-94.05
0
LINE
8
Black
10
98.2312
20
-94.05
11
97.0312
21
-94.05
0
LINE
8
Black
10
97.0312
20
-94.05
11
97.0312
21
-93.15
0
LINE
8
Black
10
97.0312
20
-93.15
11
98.2312
21
-93.15
0
LINE
8
Black
10
98.2312
20
-93.15
11
98.2312
21
-94.05
0
LINE
8
Black
10
52.9875
20
-94.05
11
51.7875
21
-94.05
0
LINE
8
Black
10
51.7875
20
-94.05
11
51.7875
21
-93.15
0
LINE
8
Black
10
51.7875
20
-93.15
11
52.9875
21
-93.15
0
LINE
8
Black
10
52.9875
20
-93.15
11
52.9875
21
-94.05
0
LINE
8
Black
10
335.562
20
-94.05
11
334.363
21
-94.05
0
LINE
8
Black
10
334.363
20
-94.05
11
334.363
21
-93.15
0
LINE
8
Black
10
334.363
20
-93.15
11
335.562
21
-93.15
0
LINE
8
Black
10
335.562
20
-93.15
11
335.562
21
-94.05
0
LINE
8
Black
10
74.2843
20
-93.9627
11
73.5842
21
-93.9627
0
LINE
8
Black
10
73.5842
20
-93.9627
11
73.5842
21
-93.7127
0
LINE
8
Black
10
73.5842
20
-93.7127
11
74.2843
21
-93.7127
0
LINE
8
Black
10
74.2843
20
-93.7127
11
74.2843
21
-93.9627
0
LINE
8
Black
10
81.0842
20
-93.9627
11
80.3842
21
-93.9627
0
LINE
8
Black
10
80.3842
20
-93.9627
11
80.3842
21
-93.7127
0
LINE
8
Black
10
80.3842
20
-93.7127
11
81.0842
21
-93.7127
0
LINE
8
Black
10
81.0842
20
-93.7127
11
81.0842
21
-93.9627
0
LINE
8
Black
10
74.2843
20
-93.4627
11
73.5842
21
-93.4627
0
LINE
8
Black
10
73.5842
20
-93.4627
11
73.5842
21
-93.2127
0
LINE
8
Black
10
73.5842
20
-93.2127
11
74.2843
21
-93.2127
0
LINE
8
Black
10
74.2843
20
-93.2127
11
74.2843
21
-93.4627
0
LINE
8
Black
10
81.0842
20
-93.4627
11
80.3842
21
-93.4627
0
LINE
8
Black
10
80.3842
20
-93.4627
11
80.3842
21
-93.2127
0
LINE
8
Black
10
80.3842
20
-93.2127
11
81.0842
21
-93.2127
0
LINE
8
Black
10
81.0842
20
-93.2127
11
81.0842
21
-93.4627
0
LINE
8
Black
10
78.3642
20
-93.3678
11
77.5917
21
-93.3678
0
LINE
8
Black
10
77.5917
20
-93.3678
11
77.5917
21
-92.5952
0
LINE
8
Black
10
77.5917
20
-92.5952
11
78.3642
21
-92.5952
0
LINE
8
Black
10
78.3642
20
-92.5952
11
78.3642
21
-93.3678
0
LINE
8
Black
10
79.6517
20
-93.3678
11
78.8792
21
-93.3678
0
LINE
8
Black
10
78.8792
20
-93.3678
11
78.8792
21
-92.5952
0
LINE
8
Black
10
78.8792
20
-92.5952
11
79.6517
21
-92.5952
0
LINE
8
Black
10
79.6517
20
-92.5952
11
79.6517
21
-93.3678
0
LINE
8
Black
10
75.7892
20
-93.3678
11
75.0168
21
-93.3678
0
LINE
8
Black
10
75.0168
20
-93.3678
11
75.0168
21
-92.5952
0
LINE
8
Black
10
75.0168
20
-92.5952
11
75.7892
21
-92.5952
0
LINE
8
Black
10
75.7892
20
-92.5952
11
75.7892
21
-93.3678
0
LINE
8
Black
10
77.0767
20
-93.3678
11
76.3042
21
-93.3678
0
LINE
8
Black
10
76.3042
20
-93.3678
11
76.3042
21
-92.5952
0
LINE
8
Black
10
76.3042
20
-92.5952
11
77.0767
21
-92.5952
0
LINE
8
Black
10
77.0767
20
-92.5952
11
77.0767
21
-93.3678
0
LINE
8
Black
10
81.0842
20
-92.9627
11
80.3842
21
-92.9627
0
LINE
8
Black
10
80.3842
20
-92.9627
11
80.3842
21
-92.7127
0
LINE
8
Black
10
80.3842
20
-92.7127
11
81.0842
21
-92.7127
0
LINE
8
Black
10
81.0842
20
-92.7127
11
81.0842
21
-92.9627
0
LINE
8
Black
10
74.2843
20
-92.9627
11
73.5842
21
-92.9627
0
LINE
8
Black
10
73.5842
20
-92.9627
11
73.5842
21
-92.7127
0
LINE
8
Black
10
73.5842
20
-92.7127
11
74.2843
21
-92.7127
0
LINE
8
Black
10
74.2843
20
-92.7127
11
74.2843
21
-92.9627
0
LINE
8
Black
10
81.0842
20
-92.4627
11
80.3842
21
-92.4627
0
LINE
8
Black
10
80.3842
20
-92.4627
11
80.3842
21
-92.2127
0
LINE
8
Black
10
80.3842
20
-92.2127
11
81.0842
21
-92.2127
0
LINE
8
Black
10
81.0842
20
-92.2127
11
81.0842
21
-92.4627
0
LINE
8
Black
10
74.2843
20
-92.4627
11
73.5842
21
-92.4627
0
LINE
8
Black
10
73.5842
20
-92.4627
11
73.5842
21
-92.2127
0
LINE
8
Black
10
73.5842
20
-92.2127
11
74.2843
21
-92.2127
0
LINE
8
Black
10
74.2843
20
-92.2127
11
74.2843
21
-92.4627
0
LINE
8
Black
10
79.6517
20
-92.0802
11
78.8792
21
-92.0802
0
LINE
8
Black
10
78.8792
20
-92.0802
11
78.8792
21
-91.3077
0
LINE
8
Black
10
78.8792
20
-91.3077
11
79.6517
21
-91.3077
0
LINE
8
Black
10
79.6517
20
-91.3077
11
79.6517
21
-92.0802
0
LINE
8
Black
10
78.3642
20
-92.0802
11
77.5917
21
-92.0802
0
LINE
8
Black
10
77.5917
20
-92.0802
11
77.5917
21
-91.3077
0
LINE
8
Black
10
77.5917
20
-91.3077
11
78.3642
21
-91.3077
0
LINE
8
Black
10
78.3642
20
-91.3077
11
78.3642
21
-92.0802
0
LINE
8
Black
10
75.7892
20
-92.0802
11
75.0168
21
-92.0802
0
LINE
8
Black
10
75.0168
20
-92.0802
11
75.0168
21
-91.3077
0
LINE
8
Black
10
75.0168
20
-91.3077
11
75.7892
21
-91.3077
0
LINE
8
Black
10
75.7892
20
-91.3077
11
75.7892
21
-92.0802
0
LINE
8
Black
10
77.0767
20
-92.0802
11
76.3042
21
-92.0802
0
LINE
8
Black
10
76.3042
20
-92.0802
11
76.3042
21
-91.3077
0
LINE
8
Black
10
76.3042
20
-91.3077
11
77.0767
21
-91.3077
0
LINE
8
Black
10
77.0767
20
-91.3077
11
77.0767
21
-92.0802
0
LINE
8
Black
10
74.2843
20
-91.9627
11
73.5842
21
-91.9627
0
LINE
8
Black
10
73.5842
20
-91.9627
11
73.5842
21
-91.7127
0
LINE
8
Black
10
73.5842
20
-91.7127
11
74.2843
21
-91.7127
0
LINE
8
Black
10
74.2843
20
-91.7127
11
74.2843
21
-91.9627
0
LINE
8
Black
10
81.0842
20
-91.9627
11
80.3842
21
-91.9627
0
LINE
8
Black
10
80.3842
20
-91.9627
11
80.3842
21
-91.7127
0
LINE
8
Black
10
80.3842
20
-91.7127
11
81.0842
21
-91.7127
0
LINE
8
Black
10
81.0842
20
-91.7127
11
81.0842
21
-91.9627
0
LINE
8
Black
10
74.2843
20
-91.4627
11
73.5842
21
-91.4627
0
LINE
8
Black
10
73.5842
20
-91.4627
11
73.5842
21
-91.2127
0
LINE
8
Black
10
73.5842
20
-91.2127
11
74.2843
21
-91.2127
0
LINE
8
Black
10
74.2843
20
-91.2127
11
74.2843
21
-91.4627
0
LINE
8
Black
10
81.0842
20
-91.4627
11
80.3842
21
-91.4627
0
LINE
8
Black
10
80.3842
20
-91.4627
11
80.3842
21
-91.2127
0
LINE
8
Black
10
80.3842
20
-91.2127
11
81.0842
21
-91.2127
0
LINE
8
Black
10
81.0842
20
-91.2127
11
81.0842
21
-91.4627
0
LINE
8
Black
10
74.2843
20
-90.9627
11
73.5842
21
-90.9627
0
LINE
8
Black
10
73.5842
20
-90.9627
11
73.5842
21
-90.7127
0
LINE
8
Black
10
73.5842
20
-90.7127
11
74.2843
21
-90.7127
0
LINE
8
Black
10
74.2843
20
-90.7127
11
74.2843
21
-90.9627
0
LINE
8
Black
10
81.0842
20
-90.9627
11
80.3842
21
-90.9627
0
LINE
8
Black
10
80.3842
20
-90.9627
11
80.3842
21
-90.7127
0
LINE
8
Black
10
80.3842
20
-90.7127
11
81.0842
21
-90.7127
0
LINE
8
Black
10
81.0842
20
-90.7127
11
81.0842
21
-90.9627
0
LINE
8
Black
10
75.7892
20
-90.7927
11
75.0168
21
-90.7927
0
LINE
8
Black
10
75.0168
20
-90.7927
11
75.0168
21
-90.0202
0
LINE
8
Black
10
75.0168
20
-90.0202
11
75.7892
21
-90.0202
0
LINE
8
Black
10
75.7892
20
-90.0202
11
75.7892
21
-90.7927
0
LINE
8
Black
10
79.6517
20
-90.7927
11
78.8792
21
-90.7927
0
LINE
8
Black
10
78.8792
20
-90.7927
11
78.8792
21
-90.0202
0
LINE
8
Black
10
78.8792
20
-90.0202
11
79.6517
21
-90.0202
0
LINE
8
Black
10
79.6517
20
-90.0202
11
79.6517
21
-90.7927
0
LINE
8
Black
10
78.3642
20
-90.7927
11
77.5917
21
-90.7927
0
LINE
8
Black
10
77.5917
20
-90.7927
11
77.5917
21
-90.0202
0
LINE
8
Black
10
77.5917
20
-90.0202
11
78.3642
21
-90.0202
0
LINE
8
Black
10
78.3642
20
-90.0202
11
78.3642
21
-90.7927
0
LINE
8
Black
10
77.0767
20
-90.7927
11
76.3042
21
-90.7927
0
LINE
8
Black
10
76.3042
20
-90.7927
11
76.3042
21
-90.0202
0
LINE
8
Black
10
76.3042
20
-90.0202
11
77.0767
21
-90.0202
0
LINE
8
Black
10
77.0767
20
-90.0202
11
77.0767
21
-90.7927
0
LINE
8
Black
10
72.143
20
-90.672
11
71.343
21
-90.672
0
LINE
8
Black
10
71.343
20
-90.672
11
71.343
21
-89.922
0
LINE
8
Black
10
71.343
20
-89.922
11
72.143
21
-89.922
0
LINE
8
Black
10
72.143
20
-89.922
11
72.143
21
-90.672
0
LINE
8
Black
10
70.643
20
-90.672
11
69.843
21
-90.672
0
LINE
8
Black
10
69.843
20
-90.672
11
69.843
21
-89.922
0
LINE
8
Black
10
69.843
20
-89.922
11
70.643
21
-89.922
0
LINE
8
Black
10
70.643
20
-89.922
11
70.643
21
-90.672
0
LINE
8
Black
10
81.0842
20
-90.4627
11
80.3842
21
-90.4627
0
LINE
8
Black
10
80.3842
20
-90.4627
11
80.3842
21
-90.2127
0
LINE
8
Black
10
80.3842
20
-90.2127
11
81.0842
21
-90.2127
0
LINE
8
Black
10
81.0842
20
-90.2127
11
81.0842
21
-90.4627
0
LINE
8
Black
10
74.2843
20
-90.4627
11
73.5842
21
-90.4627
0
LINE
8
Black
10
73.5842
20
-90.4627
11
73.5842
21
-90.2127
0
LINE
8
Black
10
73.5842
20
-90.2127
11
74.2843
21
-90.2127
0
LINE
8
Black
10
74.2843
20
-90.2127
11
74.2843
21
-90.4627
0
LINE
8
Black
10
81.0842
20
-89.9627
11
80.3842
21
-89.9627
0
LINE
8
Black
10
80.3842
20
-89.9627
11
80.3842
21
-89.7127
0
LINE
8
Black
10
80.3842
20
-89.7127
11
81.0842
21
-89.7127
0
LINE
8
Black
10
81.0842
20
-89.7127
11
81.0842
21
-89.9627
0
LINE
8
Black
10
74.2843
20
-89.9627
11
73.5842
21
-89.9627
0
LINE
8
Black
10
73.5842
20
-89.9627
11
73.5842
21
-89.7127
0
LINE
8
Black
10
73.5842
20
-89.7127
11
74.2843
21
-89.7127
0
LINE
8
Black
10
74.2843
20
-89.7127
11
74.2843
21
-89.9627
0
LINE
8
Black
10
75.4592
20
-89.2878
11
75.2092
21
-89.2878
0
LINE
8
Black
10
75.2092
20
-89.2878
11
75.2092
21
-88.5877
0
LINE
8
Black
10
75.2092
20
-88.5877
11
75.4592
21
-88.5877
0
LINE
8
Black
10
75.4592
20
-88.5877
11
75.4592
21
-89.2878
0
LINE
8
Black
10
74.9592
20
-89.2878
11
74.7092
21
-89.2878
0
LINE
8
Black
10
74.7092
20
-89.2878
11
74.7092
21
-88.5877
0
LINE
8
Black
10
74.7092
20
-88.5877
11
74.9592
21
-88.5877
0
LINE
8
Black
10
74.9592
20
-88.5877
11
74.9592
21
-89.2878
0
LINE
8
Black
10
75.9592
20
-89.2878
11
75.7092
21
-89.2878
0
LINE
8
Black
10
75.7092
20
-89.2878
11
75.7092
21
-88.5877
0
LINE
8
Black
10
75.7092
20
-88.5877
11
75.9592
21
-88.5877
0
LINE
8
Black
10
75.9592
20
-88.5877
11
75.9592
21
-89.2878
0
LINE
8
Black
10
76.4592
20
-89.2878
11
76.2092
21
-89.2878
0
LINE
8
Black
10
76.2092
20
-89.2878
11
76.2092
21
-88.5877
0
LINE
8
Black
10
76.2092
20
-88.5877
11
76.4592
21
-88.5877
0
LINE
8
Black
10
76.4592
20
-88.5877
11
76.4592
21
-89.2878
0
LINE
8
Black
10
76.9592
20
-89.2878
11
76.7092
21
-89.2878
0
LINE
8
Black
10
76.7092
20
-89.2878
11
76.7092
21
-88.5877
0
LINE
8
Black
10
76.7092
20
-88.5877
11
76.9592
21
-88.5877
0
LINE
8
Black
10
76.9592
20
-88.5877
11
76.9592
21
-89.2878
0
LINE
8
Black
10
77.9592
20
-89.2878
11
77.7092
21
-89.2878
0
LINE
8
Black
10
77.7092
20
-89.2878
11
77.7092
21
-88.5877
0
LINE
8
Black
10
77.7092
20
-88.5877
11
77.9592
21
-88.5877
0
LINE
8
Black
10
77.9592
20
-88.5877
11
77.9592
21
-89.2878
0
LINE
8
Black
10
78.4592
20
-89.2878
11
78.2092
21
-89.2878
0
LINE
8
Black
10
78.2092
20
-89.2878
11
78.2092
21
-88.5877
0
LINE
8
Black
10
78.2092
20
-88.5877
11
78.4592
21
-88.5877
0
LINE
8
Black
10
78.4592
20
-88.5877
11
78.4592
21
-89.2878
0
LINE
8
Black
10
78.9592
20
-89.2878
11
78.7092
21
-89.2878
0
LINE
8
Black
10
78.7092
20
-89.2878
11
78.7092
21
-88.5877
0
LINE
8
Black
10
78.7092
20
-88.5877
11
78.9592
21
-88.5877
0
LINE
8
Black
10
78.9592
20
-88.5877
11
78.9592
21
-89.2878
0
LINE
8
Black
10
79.4592
20
-89.2878
11
79.2092
21
-89.2878
0
LINE
8
Black
10
79.2092
20
-89.2878
11
79.2092
21
-88.5877
0
LINE
8
Black
10
79.2092
20
-88.5877
11
79.4592
21
-88.5877
0
LINE
8
Black
10
79.4592
20
-88.5877
11
79.4592
21
-89.2878
0
LINE
8
Black
10
79.9592
20
-89.2878
11
79.7092
21
-89.2878
0
LINE
8
Black
10
79.7092
20
-89.2878
11
79.7092
21
-88.5877
0
LINE
8
Black
10
79.7092
20
-88.5877
11
79.9592
21
-88.5877
0
LINE
8
Black
10
79.9592
20
-88.5877
11
79.9592
21
-89.2878
0
LINE
8
Black
10
77.4592
20
-89.2878
11
77.2092
21
-89.2878
0
LINE
8
Black
10
77.2092
20
-89.2878
11
77.2092
21
-88.5877
0
LINE
8
Black
10
77.2092
20
-88.5877
11
77.4592
21
-88.5877
0
LINE
8
Black
10
77.4592
20
-88.5877
11
77.4592
21
-89.2878
0
LINE
8
Black
10
71.993
20
-88.334
11
71.493
21
-88.334
0
LINE
8
Black
10
71.493
20
-88.334
11
71.493
21
-87.434
0
LINE
8
Black
10
71.493
20
-87.434
11
71.993
21
-87.434
0
LINE
8
Black
10
71.993
20
-87.434
11
71.993
21
-88.334
0
LINE
8
Black
10
70.493
20
-88.334
11
69.993
21
-88.334
0
LINE
8
Black
10
69.993
20
-88.334
11
69.993
21
-87.434
0
LINE
8
Black
10
69.993
20
-87.434
11
70.493
21
-87.434
0
LINE
8
Black
10
70.493
20
-87.434
11
70.493
21
-88.334
0
LINE
8
Black
10
78.099
20
-86.367
11
77.349
21
-86.367
0
LINE
8
Black
10
77.349
20
-86.367
11
77.349
21
-85.567
0
LINE
8
Black
10
77.349
20
-85.567
11
78.099
21
-85.567
0
LINE
8
Black
10
78.099
20
-85.567
11
78.099
21
-86.367
0
LINE
8
Black
10
75.686
20
-86.367
11
74.936
21
-86.367
0
LINE
8
Black
10
74.936
20
-86.367
11
74.936
21
-85.567
0
LINE
8
Black
10
74.936
20
-85.567
11
75.686
21
-85.567
0
LINE
8
Black
10
75.686
20
-85.567
11
75.686
21
-86.367
0
LINE
8
Black
10
78.099
20
-84.867
11
77.349
21
-84.867
0
LINE
8
Black
10
77.349
20
-84.867
11
77.349
21
-84.067
0
LINE
8
Black
10
77.349
20
-84.067
11
78.099
21
-84.067
0
LINE
8
Black
10
78.099
20
-84.067
11
78.099
21
-84.867
0
LINE
8
Black
10
75.686
20
-84.867
11
74.936
21
-84.867
0
LINE
8
Black
10
74.936
20
-84.867
11
74.936
21
-84.067
0
LINE
8
Black
10
74.936
20
-84.067
11
75.686
21
-84.067
0
LINE
8
Black
10
75.686
20
-84.067
11
75.686
21
-84.867
0
LINE
8
Black
10
72.697
20
-83.519
11
71.797
21
-83.519
0
LINE
8
Black
10
71.797
20
-83.519
11
71.797
21
-82.719
0
LINE
8
Black
10
71.797
20
-82.719
11
72.697
21
-82.719
0
LINE
8
Black
10
72.697
20
-82.719
11
72.697
21
-83.519
0
LINE
8
Black
10
70.697
20
-82.569
11
69.797
21
-82.569
0
LINE
8
Black
10
69.797
20
-82.569
11
69.797
21
-81.769
0
LINE
8
Black
10
69.797
20
-81.769
11
70.697
21
-81.769
0
LINE
8
Black
10
70.697
20
-81.769
11
70.697
21
-82.569
0
LINE
8
Black
10
72.697
20
-81.619
11
71.797
21
-81.619
0
LINE
8
Black
10
71.797
20
-81.619
11
71.797
21
-80.819
0
LINE
8
Black
10
71.797
20
-80.819
11
72.697
21
-80.819
0
LINE
8
Black
10
72.697
20
-80.819
11
72.697
21
-81.619
0
LINE
8
Black
10
75.215
20
-81.528
11
74.415
21
-81.528
0
LINE
8
Black
10
74.415
20
-81.528
11
74.415
21
-80.778
0
LINE
8
Black
10
74.415
20
-80.778
11
75.215
21
-80.778
0
LINE
8
Black
10
75.215
20
-80.778
11
75.215
21
-81.528
0
LINE
8
Black
10
76.715
20
-81.528
11
75.915
21
-81.528
0
LINE
8
Black
10
75.915
20
-81.528
11
75.915
21
-80.778
0
LINE
8
Black
10
75.915
20
-80.778
11
76.715
21
-80.778
0
LINE
8
Black
10
76.715
20
-80.778
11
76.715
21
-81.528
0
LINE
8
Black
10
169.669
20
-78.3
11
168.469
21
-78.3
0
LINE
8
Black
10
168.469
20
-78.3
11
168.469
21
-77.4
0
LINE
8
Black
10
168.469
20
-77.4
11
169.669
21
-77.4
0
LINE
8
Black
10
169.669
20
-77.4
11
169.669
21
-78.3
0
LINE
8
Black
10
335.562
20
-78.3
11
334.363
21
-78.3
0
LINE
8
Black
10
334.363
20
-78.3
11
334.363
21
-77.4
0
LINE
8
Black
10
334.363
20
-77.4
11
335.562
21
-77.4
0
LINE
8
Black
10
335.562
20
-77.4
11
335.562
21
-78.3
0
LINE
8
Black
10
54.1781
20
-78.3
11
52.9781
21
-78.3
0
LINE
8
Black
10
52.9781
20
-78.3
11
52.9781
21
-77.4
0
LINE
8
Black
10
52.9781
20
-77.4
11
54.1781
21
-77.4
0
LINE
8
Black
10
54.1781
20
-77.4
11
54.1781
21
-78.3
0
LINE
8
Black
10
93.4688
20
-78.3
11
92.2687
21
-78.3
0
LINE
8
Black
10
92.2687
20
-78.3
11
92.2687
21
-77.4
0
LINE
8
Black
10
92.2687
20
-77.4
11
93.4688
21
-77.4
0
LINE
8
Black
10
93.4688
20
-77.4
11
93.4688
21
-78.3
0
LINE
8
Black
10
112.519
20
-78.3
11
111.319
21
-78.3
0
LINE
8
Black
10
111.319
20
-78.3
11
111.319
21
-77.4
0
LINE
8
Black
10
111.319
20
-77.4
11
112.519
21
-77.4
0
LINE
8
Black
10
112.519
20
-77.4
11
112.519
21
-78.3
0
LINE
8
Black
10
131.569
20
-78.3
11
130.369
21
-78.3
0
LINE
8
Black
10
130.369
20
-78.3
11
130.369
21
-77.4
0
LINE
8
Black
10
130.369
20
-77.4
11
131.569
21
-77.4
0
LINE
8
Black
10
131.569
20
-77.4
11
131.569
21
-78.3
0
LINE
8
Black
10
150.619
20
-78.3
11
149.419
21
-78.3
0
LINE
8
Black
10
149.419
20
-78.3
11
149.419
21
-77.4
0
LINE
8
Black
10
149.419
20
-77.4
11
150.619
21
-77.4
0
LINE
8
Black
10
150.619
20
-77.4
11
150.619
21
-78.3
0
LINE
8
Black
10
326.831
20
-78.3
11
325.631
21
-78.3
0
LINE
8
Black
10
325.631
20
-78.3
11
325.631
21
-77.4
0
LINE
8
Black
10
325.631
20
-77.4
11
326.831
21
-77.4
0
LINE
8
Black
10
326.831
20
-77.4
11
326.831
21
-78.3
0
LINE
8
Black
10
188.719
20
-78.3
11
187.519
21
-78.3
0
LINE
8
Black
10
187.519
20
-78.3
11
187.519
21
-77.4
0
LINE
8
Black
10
187.519
20
-77.4
11
188.719
21
-77.4
0
LINE
8
Black
10
188.719
20
-77.4
11
188.719
21
-78.3
0
LINE
8
Black
10
207.769
20
-78.3
11
206.569
21
-78.3
0
LINE
8
Black
10
206.569
20
-78.3
11
206.569
21
-77.4
0
LINE
8
Black
10
206.569
20
-77.4
11
207.769
21
-77.4
0
LINE
8
Black
10
207.769
20
-77.4
11
207.769
21
-78.3
0
LINE
8
Black
10
226.819
20
-78.3
11
225.619
21
-78.3
0
LINE
8
Black
10
225.619
20
-78.3
11
225.619
21
-77.4
0
LINE
8
Black
10
225.619
20
-77.4
11
226.819
21
-77.4
0
LINE
8
Black
10
226.819
20
-77.4
11
226.819
21
-78.3
0
LINE
8
Black
10
245.869
20
-78.3
11
244.669
21
-78.3
0
LINE
8
Black
10
244.669
20
-78.3
11
244.669
21
-77.4
0
LINE
8
Black
10
244.669
20
-77.4
11
245.869
21
-77.4
0
LINE
8
Black
10
245.869
20
-77.4
11
245.869
21
-78.3
0
LINE
8
Black
10
264.919
20
-78.3
11
263.719
21
-78.3
0
LINE
8
Black
10
263.719
20
-78.3
11
263.719
21
-77.4
0
LINE
8
Black
10
263.719
20
-77.4
11
264.919
21
-77.4
0
LINE
8
Black
10
264.919
20
-77.4
11
264.919
21
-78.3
0
LINE
8
Black
10
283.969
20
-78.3
11
282.769
21
-78.3
0
LINE
8
Black
10
282.769
20
-78.3
11
282.769
21
-77.4
0
LINE
8
Black
10
282.769
20
-77.4
11
283.969
21
-77.4
0
LINE
8
Black
10
283.969
20
-77.4
11
283.969
21
-78.3
0
LINE
8
Black
10
303.019
20
-78.3
11
301.819
21
-78.3
0
LINE
8
Black
10
301.819
20
-78.3
11
301.819
21
-77.4
0
LINE
8
Black
10
301.819
20
-77.4
11
303.019
21
-77.4
0
LINE
8
Black
10
303.019
20
-77.4
11
303.019
21
-78.3
0
LINE
8
Black
10
335.562
20
-75
11
334.363
21
-75
0
LINE
8
Black
10
334.363
20
-75
11
334.363
21
-74.1
0
LINE
8
Black
10
334.363
20
-74.1
11
335.562
21
-74.1
0
LINE
8
Black
10
335.562
20
-74.1
11
335.562
21
-75
0
LINE
8
Black
10
245.869
20
-75
11
244.669
21
-75
0
LINE
8
Black
10
244.669
20
-75
11
244.669
21
-74.1
0
LINE
8
Black
10
244.669
20
-74.1
11
245.869
21
-74.1
0
LINE
8
Black
10
245.869
20
-74.1
11
245.869
21
-75
0
LINE
8
Black
10
226.819
20
-75
11
225.619
21
-75
0
LINE
8
Black
10
225.619
20
-75
11
225.619
21
-74.1
0
LINE
8
Black
10
225.619
20
-74.1
11
226.819
21
-74.1
0
LINE
8
Black
10
226.819
20
-74.1
11
226.819
21
-75
0
LINE
8
Black
10
207.769
20
-75
11
206.569
21
-75
0
LINE
8
Black
10
206.569
20
-75
11
206.569
21
-74.1
0
LINE
8
Black
10
206.569
20
-74.1
11
207.769
21
-74.1
0
LINE
8
Black
10
207.769
20
-74.1
11
207.769
21
-75
0
LINE
8
Black
10
188.719
20
-75
11
187.519
21
-75
0
LINE
8
Black
10
187.519
20
-75
11
187.519
21
-74.1
0
LINE
8
Black
10
187.519
20
-74.1
11
188.719
21
-74.1
0
LINE
8
Black
10
188.719
20
-74.1
11
188.719
21
-75
0
LINE
8
Black
10
169.669
20
-75
11
168.469
21
-75
0
LINE
8
Black
10
168.469
20
-75
11
168.469
21
-74.1
0
LINE
8
Black
10
168.469
20
-74.1
11
169.669
21
-74.1
0
LINE
8
Black
10
169.669
20
-74.1
11
169.669
21
-75
0
LINE
8
Black
10
150.619
20
-75
11
149.419
21
-75
0
LINE
8
Black
10
149.419
20
-75
11
149.419
21
-74.1
0
LINE
8
Black
10
149.419
20
-74.1
11
150.619
21
-74.1
0
LINE
8
Black
10
150.619
20
-74.1
11
150.619
21
-75
0
LINE
8
Black
10
131.569
20
-75
11
130.369
21
-75
0
LINE
8
Black
10
130.369
20
-75
11
130.369
21
-74.1
0
LINE
8
Black
10
130.369
20
-74.1
11
131.569
21
-74.1
0
LINE
8
Black
10
131.569
20
-74.1
11
131.569
21
-75
0
LINE
8
Black
10
112.519
20
-75
11
111.319
21
-75
0
LINE
8
Black
10
111.319
20
-75
11
111.319
21
-74.1
0
LINE
8
Black
10
111.319
20
-74.1
11
112.519
21
-74.1
0
LINE
8
Black
10
112.519
20
-74.1
11
112.519
21
-75
0
LINE
8
Black
10
93.4688
20
-75
11
92.2687
21
-75
0
LINE
8
Black
10
92.2687
20
-75
11
92.2687
21
-74.1
0
LINE
8
Black
10
92.2687
20
-74.1
11
93.4688
21
-74.1
0
LINE
8
Black
10
93.4688
20
-74.1
11
93.4688
21
-75
0
LINE
8
Black
10
54.1781
20
-75
11
52.9781
21
-75
0
LINE
8
Black
10
52.9781
20
-75
11
52.9781
21
-74.1
0
LINE
8
Black
10
52.9781
20
-74.1
11
54.1781
21
-74.1
0
LINE
8
Black
10
54.1781
20
-74.1
11
54.1781
21
-75
0
LINE
8
Black
10
264.919
20
-75
11
263.719
21
-75
0
LINE
8
Black
10
263.719
20
-75
11
263.719
21
-74.1
0
LINE
8
Black
10
263.719
20
-74.1
11
264.919
21
-74.1
0
LINE
8
Black
10
264.919
20
-74.1
11
264.919
21
-75
0
LINE
8
Black
10
326.831
20
-75
11
325.631
21
-75
0
LINE
8
Black
10
325.631
20
-75
11
325.631
21
-74.1
0
LINE
8
Black
10
325.631
20
-74.1
11
326.831
21
-74.1
0
LINE
8
Black
10
326.831
20
-74.1
11
326.831
21
-75
0
LINE
8
Black
10
283.969
20
-75
11
282.769
21
-75
0
LINE
8
Black
10
282.769
20
-75
11
282.769
21
-74.1
0
LINE
8
Black
10
282.769
20
-74.1
11
283.969
21
-74.1
0
LINE
8
Black
10
283.969
20
-74.1
11
283.969
21
-75
0
LINE
8
Black
10
303.019
20
-75
11
301.819
21
-75
0
LINE
8
Black
10
301.819
20
-75
11
301.819
21
-74.1
0
LINE
8
Black
10
301.819
20
-74.1
11
303.019
21
-74.1
0
LINE
8
Black
10
303.019
20
-74.1
11
303.019
21
-75
0
LINE
8
Black
10
228.725
20
-69.025
11
226.925
21
-69.025
0
LINE
8
Black
10
226.925
20
-69.025
11
226.925
21
-67.625
0
LINE
8
Black
10
226.925
20
-67.625
11
228.725
21
-67.625
0
LINE
8
Black
10
228.725
20
-67.625
11
228.725
21
-69.025
0
LINE
8
Black
10
122.325
20
-69.025
11
120.525
21
-69.025
0
LINE
8
Black
10
120.525
20
-69.025
11
120.525
21
-67.625
0
LINE
8
Black
10
120.525
20
-67.625
11
122.325
21
-67.625
0
LINE
8
Black
10
122.325
20
-67.625
11
122.325
21
-69.025
0
LINE
8
Black
10
177.925
20
-69.025
11
176.125
21
-69.025
0
LINE
8
Black
10
176.125
20
-69.025
11
176.125
21
-67.625
0
LINE
8
Black
10
176.125
20
-67.625
11
177.925
21
-67.625
0
LINE
8
Black
10
177.925
20
-67.625
11
177.925
21
-69.025
0
LINE
8
Black
10
173.125
20
-69.025
11
171.325
21
-69.025
0
LINE
8
Black
10
171.325
20
-69.025
11
171.325
21
-67.625
0
LINE
8
Black
10
171.325
20
-67.625
11
173.125
21
-67.625
0
LINE
8
Black
10
173.125
20
-67.625
11
173.125
21
-69.025
0
LINE
8
Black
10
323.181
20
-69.025
11
321.381
21
-69.025
0
LINE
8
Black
10
321.381
20
-69.025
11
321.381
21
-67.625
0
LINE
8
Black
10
321.381
20
-67.625
11
323.181
21
-67.625
0
LINE
8
Black
10
323.181
20
-67.625
11
323.181
21
-69.025
0
LINE
8
Black
10
318.381
20
-69.025
11
316.581
21
-69.025
0
LINE
8
Black
10
316.581
20
-69.025
11
316.581
21
-67.625
0
LINE
8
Black
10
316.581
20
-67.625
11
318.381
21
-67.625
0
LINE
8
Black
10
318.381
20
-67.625
11
318.381
21
-69.025
0
LINE
8
Black
10
78.6688
20
-69.025
11
76.8687
21
-69.025
0
LINE
8
Black
10
76.8687
20
-69.025
11
76.8687
21
-67.625
0
LINE
8
Black
10
76.8687
20
-67.625
11
78.6688
21
-67.625
0
LINE
8
Black
10
78.6688
20
-67.625
11
78.6688
21
-69.025
0
LINE
8
Black
10
223.925
20
-69.025
11
222.125
21
-69.025
0
LINE
8
Black
10
222.125
20
-69.025
11
222.125
21
-67.625
0
LINE
8
Black
10
222.125
20
-67.625
11
223.925
21
-67.625
0
LINE
8
Black
10
223.925
20
-67.625
11
223.925
21
-69.025
0
LINE
8
Black
10
274.725
20
-69.025
11
272.925
21
-69.025
0
LINE
8
Black
10
272.925
20
-69.025
11
272.925
21
-67.625
0
LINE
8
Black
10
272.925
20
-67.625
11
274.725
21
-67.625
0
LINE
8
Black
10
274.725
20
-67.625
11
274.725
21
-69.025
0
LINE
8
Black
10
127.125
20
-69.025
11
125.325
21
-69.025
0
LINE
8
Black
10
125.325
20
-69.025
11
125.325
21
-67.625
0
LINE
8
Black
10
125.325
20
-67.625
11
127.125
21
-67.625
0
LINE
8
Black
10
127.125
20
-67.625
11
127.125
21
-69.025
0
LINE
8
Black
10
279.525
20
-69.025
11
277.725
21
-69.025
0
LINE
8
Black
10
277.725
20
-69.025
11
277.725
21
-67.625
0
LINE
8
Black
10
277.725
20
-67.625
11
279.525
21
-67.625
0
LINE
8
Black
10
279.525
20
-67.625
11
279.525
21
-69.025
0
LINE
8
Black
10
83.4688
20
-69.025
11
81.6688
21
-69.025
0
LINE
8
Black
10
81.6688
20
-69.025
11
81.6688
21
-67.625
0
LINE
8
Black
10
81.6688
20
-67.625
11
83.4688
21
-67.625
0
LINE
8
Black
10
83.4688
20
-67.625
11
83.4688
21
-69.025
0
LINE
8
Black
10
231.356
20
-67.825
11
230.606
21
-67.825
0
LINE
8
Black
10
230.606
20
-67.825
11
230.606
21
-67.025
0
LINE
8
Black
10
230.606
20
-67.025
11
231.356
21
-67.025
0
LINE
8
Black
10
231.356
20
-67.025
11
231.356
21
-67.825
0
LINE
8
Black
10
314.7
20
-67.825
11
313.95
21
-67.825
0
LINE
8
Black
10
313.95
20
-67.825
11
313.95
21
-67.025
0
LINE
8
Black
10
313.95
20
-67.025
11
314.7
21
-67.025
0
LINE
8
Black
10
314.7
20
-67.025
11
314.7
21
-67.825
0
LINE
8
Black
10
282.156
20
-67.825
11
281.406
21
-67.825
0
LINE
8
Black
10
281.406
20
-67.825
11
281.406
21
-67.025
0
LINE
8
Black
10
281.406
20
-67.025
11
282.156
21
-67.025
0
LINE
8
Black
10
282.156
20
-67.025
11
282.156
21
-67.825
0
LINE
8
Black
10
180.556
20
-67.825
11
179.806
21
-67.825
0
LINE
8
Black
10
179.806
20
-67.825
11
179.806
21
-67.025
0
LINE
8
Black
10
179.806
20
-67.025
11
180.556
21
-67.025
0
LINE
8
Black
10
180.556
20
-67.025
11
180.556
21
-67.825
0
LINE
8
Black
10
86.1
20
-67.825
11
85.35
21
-67.825
0
LINE
8
Black
10
85.35
20
-67.825
11
85.35
21
-67.025
0
LINE
8
Black
10
85.35
20
-67.025
11
86.1
21
-67.025
0
LINE
8
Black
10
86.1
20
-67.025
11
86.1
21
-67.825
0
LINE
8
Black
10
129.756
20
-67.825
11
129.006
21
-67.825
0
LINE
8
Black
10
129.006
20
-67.825
11
129.006
21
-67.025
0
LINE
8
Black
10
129.006
20
-67.025
11
129.756
21
-67.025
0
LINE
8
Black
10
129.756
20
-67.025
11
129.756
21
-67.825
0
LINE
8
Black
10
180.556
20
-66.325
11
179.806
21
-66.325
0
LINE
8
Black
10
179.806
20
-66.325
11
179.806
21
-65.525
0
LINE
8
Black
10
179.806
20
-65.525
11
180.556
21
-65.525
0
LINE
8
Black
10
180.556
20
-65.525
11
180.556
21
-66.325
0
LINE
8
Black
10
86.1
20
-66.325
11
85.35
21
-66.325
0
LINE
8
Black
10
85.35
20
-66.325
11
85.35
21
-65.525
0
LINE
8
Black
10
85.35
20
-65.525
11
86.1
21
-65.525
0
LINE
8
Black
10
86.1
20
-65.525
11
86.1
21
-66.325
0
LINE
8
Black
10
231.356
20
-66.325
11
230.606
21
-66.325
0
LINE
8
Black
10
230.606
20
-66.325
11
230.606
21
-65.525
0
LINE
8
Black
10
230.606
20
-65.525
11
231.356
21
-65.525
0
LINE
8
Black
10
231.356
20
-65.525
11
231.356
21
-66.325
0
LINE
8
Black
10
129.756
20
-66.325
11
129.006
21
-66.325
0
LINE
8
Black
10
129.006
20
-66.325
11
129.006
21
-65.525
0
LINE
8
Black
10
129.006
20
-65.525
11
129.756
21
-65.525
0
LINE
8
Black
10
129.756
20
-65.525
11
129.756
21
-66.325
0
LINE
8
Black
10
282.156
20
-66.325
11
281.406
21
-66.325
0
LINE
8
Black
10
281.406
20
-66.325
11
281.406
21
-65.525
0
LINE
8
Black
10
281.406
20
-65.525
11
282.156
21
-65.525
0
LINE
8
Black
10
282.156
20
-65.525
11
282.156
21
-66.325
0
LINE
8
Black
10
314.7
20
-66.325
11
313.95
21
-66.325
0
LINE
8
Black
10
313.95
20
-66.325
11
313.95
21
-65.525
0
LINE
8
Black
10
313.95
20
-65.525
11
314.7
21
-65.525
0
LINE
8
Black
10
314.7
20
-65.525
11
314.7
21
-66.325
0
LINE
8
Black
10
83.4688
20
-65.725
11
81.6688
21
-65.725
0
LINE
8
Black
10
81.6688
20
-65.725
11
81.6688
21
-64.325
0
LINE
8
Black
10
81.6688
20
-64.325
11
83.4688
21
-64.325
0
LINE
8
Black
10
83.4688
20
-64.325
11
83.4688
21
-65.725
0
LINE
8
Black
10
78.6688
20
-65.725
11
76.8687
21
-65.725
0
LINE
8
Black
10
76.8687
20
-65.725
11
76.8687
21
-64.325
0
LINE
8
Black
10
76.8687
20
-64.325
11
78.6688
21
-64.325
0
LINE
8
Black
10
78.6688
20
-64.325
11
78.6688
21
-65.725
0
LINE
8
Black
10
318.381
20
-65.725
11
316.581
21
-65.725
0
LINE
8
Black
10
316.581
20
-65.725
11
316.581
21
-64.325
0
LINE
8
Black
10
316.581
20
-64.325
11
318.381
21
-64.325
0
LINE
8
Black
10
318.381
20
-64.325
11
318.381
21
-65.725
0
LINE
8
Black
10
122.325
20
-65.725
11
120.525
21
-65.725
0
LINE
8
Black
10
120.525
20
-65.725
11
120.525
21
-64.325
0
LINE
8
Black
10
120.525
20
-64.325
11
122.325
21
-64.325
0
LINE
8
Black
10
122.325
20
-64.325
11
122.325
21
-65.725
0
LINE
8
Black
10
177.925
20
-65.725
11
176.125
21
-65.725
0
LINE
8
Black
10
176.125
20
-65.725
11
176.125
21
-64.325
0
LINE
8
Black
10
176.125
20
-64.325
11
177.925
21
-64.325
0
LINE
8
Black
10
177.925
20
-64.325
11
177.925
21
-65.725
0
LINE
8
Black
10
173.125
20
-65.725
11
171.325
21
-65.725
0
LINE
8
Black
10
171.325
20
-65.725
11
171.325
21
-64.325
0
LINE
8
Black
10
171.325
20
-64.325
11
173.125
21
-64.325
0
LINE
8
Black
10
173.125
20
-64.325
11
173.125
21
-65.725
0
LINE
8
Black
10
228.725
20
-65.725
11
226.925
21
-65.725
0
LINE
8
Black
10
226.925
20
-65.725
11
226.925
21
-64.325
0
LINE
8
Black
10
226.925
20
-64.325
11
228.725
21
-64.325
0
LINE
8
Black
10
228.725
20
-64.325
11
228.725
21
-65.725
0
LINE
8
Black
10
127.125
20
-65.725
11
125.325
21
-65.725
0
LINE
8
Black
10
125.325
20
-65.725
11
125.325
21
-64.325
0
LINE
8
Black
10
125.325
20
-64.325
11
127.125
21
-64.325
0
LINE
8
Black
10
127.125
20
-64.325
11
127.125
21
-65.725
0
LINE
8
Black
10
223.925
20
-65.725
11
222.125
21
-65.725
0
LINE
8
Black
10
222.125
20
-65.725
11
222.125
21
-64.325
0
LINE
8
Black
10
222.125
20
-64.325
11
223.925
21
-64.325
0
LINE
8
Black
10
223.925
20
-64.325
11
223.925
21
-65.725
0
LINE
8
Black
10
279.525
20
-65.725
11
277.725
21
-65.725
0
LINE
8
Black
10
277.725
20
-65.725
11
277.725
21
-64.325
0
LINE
8
Black
10
277.725
20
-64.325
11
279.525
21
-64.325
0
LINE
8
Black
10
279.525
20
-64.325
11
279.525
21
-65.725
0
LINE
8
Black
10
274.725
20
-65.725
11
272.925
21
-65.725
0
LINE
8
Black
10
272.925
20
-65.725
11
272.925
21
-64.325
0
LINE
8
Black
10
272.925
20
-64.325
11
274.725
21
-64.325
0
LINE
8
Black
10
274.725
20
-64.325
11
274.725
21
-65.725
0
LINE
8
Black
10
323.181
20
-65.725
11
321.381
21
-65.725
0
LINE
8
Black
10
321.381
20
-65.725
11
321.381
21
-64.325
0
LINE
8
Black
10
321.381
20
-64.325
11
323.181
21
-64.325
0
LINE
8
Black
10
323.181
20
-64.325
11
323.181
21
-65.725
0
LINE
8
Black
10
52.9875
20
-62.8219
11
51.7875
21
-62.8219
0
LINE
8
Black
10
51.7875
20
-62.8219
11
51.7875
21
-61.9219
0
LINE
8
Black
10
51.7875
20
-61.9219
11
52.9875
21
-61.9219
0
LINE
8
Black
10
52.9875
20
-61.9219
11
52.9875
21
-62.8219
0
LINE
8
Black
10
91.382
20
-62.214
11
90.482
21
-62.214
0
LINE
8
Black
10
90.482
20
-62.214
11
90.482
21
-61.714
0
LINE
8
Black
10
90.482
20
-61.714
11
91.382
21
-61.714
0
LINE
8
Black
10
91.382
20
-61.714
11
91.382
21
-62.214
0
LINE
8
Black
10
86.878
20
-62.0957
11
86.228
21
-62.0957
0
LINE
8
Black
10
86.228
20
-62.0957
11
86.228
21
-61.6957
0
LINE
8
Black
10
86.228
20
-61.6957
11
86.878
21
-61.6957
0
LINE
8
Black
10
86.878
20
-61.6957
11
86.878
21
-62.0957
0
LINE
8
Black
10
88.778
20
-62.0957
11
88.128
21
-62.0957
0
LINE
8
Black
10
88.128
20
-62.0957
11
88.128
21
-61.6957
0
LINE
8
Black
10
88.128
20
-61.6957
11
88.778
21
-61.6957
0
LINE
8
Black
10
88.778
20
-61.6957
11
88.778
21
-62.0957
0
LINE
8
Black
10
62.88
20
-61.625
11
61.58
21
-61.625
0
LINE
8
Black
10
61.58
20
-61.625
11
61.58
21
-60.925
0
LINE
8
Black
10
61.58
20
-60.925
11
62.88
21
-60.925
0
LINE
8
Black
10
62.88
20
-60.925
11
62.88
21
-61.625
0
LINE
8
Black
10
86.878
20
-61.4457
11
86.228
21
-61.4457
0
LINE
8
Black
10
86.228
20
-61.4457
11
86.228
21
-61.0457
0
LINE
8
Black
10
86.228
20
-61.0457
11
86.878
21
-61.0457
0
LINE
8
Black
10
86.878
20
-61.0457
11
86.878
21
-61.4457
0
LINE
8
Black
10
86.878
20
-60.7957
11
86.228
21
-60.7957
0
LINE
8
Black
10
86.228
20
-60.7957
11
86.228
21
-60.3957
0
LINE
8
Black
10
86.228
20
-60.3957
11
86.878
21
-60.3957
0
LINE
8
Black
10
86.878
20
-60.3957
11
86.878
21
-60.7957
0
LINE
8
Black
10
88.778
20
-60.7957
11
88.128
21
-60.7957
0
LINE
8
Black
10
88.128
20
-60.7957
11
88.128
21
-60.3957
0
LINE
8
Black
10
88.128
20
-60.3957
11
88.778
21
-60.3957
0
LINE
8
Black
10
88.778
20
-60.3957
11
88.778
21
-60.7957
0
LINE
8
Black
10
91.382
20
-60.714
11
90.482
21
-60.714
0
LINE
8
Black
10
90.482
20
-60.714
11
90.482
21
-60.214
0
LINE
8
Black
10
90.482
20
-60.214
11
91.382
21
-60.214
0
LINE
8
Black
10
91.382
20
-60.214
11
91.382
21
-60.714
0
LINE
8
Black
10
70.554
20
-60.69
11
69.654
21
-60.69
0
LINE
8
Black
10
69.654
20
-60.69
11
69.654
21
-60.19
0
LINE
8
Black
10
69.654
20
-60.19
11
70.554
21
-60.19
0
LINE
8
Black
10
70.554
20
-60.19
11
70.554
21
-60.69
0
LINE
8
Black
10
67.644
20
-60.305
11
66.944
21
-60.305
0
LINE
8
Black
10
66.944
20
-60.305
11
66.944
21
-59.705
0
LINE
8
Black
10
66.944
20
-59.705
11
67.644
21
-59.705
0
LINE
8
Black
10
67.644
20
-59.705
11
67.644
21
-60.305
0
LINE
8
Black
10
65.644
20
-60.305
11
64.944
21
-60.305
0
LINE
8
Black
10
64.944
20
-60.305
11
64.944
21
-59.705
0
LINE
8
Black
10
64.944
20
-59.705
11
65.644
21
-59.705
0
LINE
8
Black
10
65.644
20
-59.705
11
65.644
21
-60.305
0
LINE
8
Black
10
62.88
20
-59.725
11
61.58
21
-59.725
0
LINE
8
Black
10
61.58
20
-59.725
11
61.58
21
-59.025
0
LINE
8
Black
10
61.58
20
-59.025
11
62.88
21
-59.025
0
LINE
8
Black
10
62.88
20
-59.025
11
62.88
21
-59.725
0
LINE
8
Black
10
52.9875
20
-59.5219
11
51.7875
21
-59.5219
0
LINE
8
Black
10
51.7875
20
-59.5219
11
51.7875
21
-58.6219
0
LINE
8
Black
10
51.7875
20
-58.6219
11
52.9875
21
-58.6219
0
LINE
8
Black
10
52.9875
20
-58.6219
11
52.9875
21
-59.5219
0
LINE
8
Black
10
297.066
20
-59.25
11
295.866
21
-59.25
0
LINE
8
Black
10
295.866
20
-59.25
11
295.866
21
-58.35
0
LINE
8
Black
10
295.866
20
-58.35
11
297.066
21
-58.35
0
LINE
8
Black
10
297.066
20
-58.35
11
297.066
21
-59.25
0
LINE
8
Black
10
335.562
20
-59.25
11
334.363
21
-59.25
0
LINE
8
Black
10
334.363
20
-59.25
11
334.363
21
-58.35
0
LINE
8
Black
10
334.363
20
-58.35
11
335.562
21
-58.35
0
LINE
8
Black
10
335.562
20
-58.35
11
335.562
21
-59.25
0
LINE
8
Black
10
83.9437
20
-59.25
11
82.7437
21
-59.25
0
LINE
8
Black
10
82.7437
20
-59.25
11
82.7437
21
-58.35
0
LINE
8
Black
10
82.7437
20
-58.35
11
83.9437
21
-58.35
0
LINE
8
Black
10
83.9437
20
-58.35
11
83.9437
21
-59.25
0
LINE
8
Black
10
102.994
20
-59.25
11
101.794
21
-59.25
0
LINE
8
Black
10
101.794
20
-59.25
11
101.794
21
-58.35
0
LINE
8
Black
10
101.794
20
-58.35
11
102.994
21
-58.35
0
LINE
8
Black
10
102.994
20
-58.35
11
102.994
21
-59.25
0
LINE
8
Black
10
122.044
20
-59.25
11
120.844
21
-59.25
0
LINE
8
Black
10
120.844
20
-59.25
11
120.844
21
-58.35
0
LINE
8
Black
10
120.844
20
-58.35
11
122.044
21
-58.35
0
LINE
8
Black
10
122.044
20
-58.35
11
122.044
21
-59.25
0
LINE
8
Black
10
141.094
20
-59.25
11
139.894
21
-59.25
0
LINE
8
Black
10
139.894
20
-59.25
11
139.894
21
-58.35
0
LINE
8
Black
10
139.894
20
-58.35
11
141.094
21
-58.35
0
LINE
8
Black
10
141.094
20
-58.35
11
141.094
21
-59.25
0
LINE
8
Black
10
160.144
20
-59.25
11
158.944
21
-59.25
0
LINE
8
Black
10
158.944
20
-59.25
11
158.944
21
-58.35
0
LINE
8
Black
10
158.944
20
-58.35
11
160.144
21
-58.35
0
LINE
8
Black
10
160.144
20
-58.35
11
160.144
21
-59.25
0
LINE
8
Black
10
179.194
20
-59.25
11
177.994
21
-59.25
0
LINE
8
Black
10
177.994
20
-59.25
11
177.994
21
-58.35
0
LINE
8
Black
10
177.994
20
-58.35
11
179.194
21
-58.35
0
LINE
8
Black
10
179.194
20
-58.35
11
179.194
21
-59.25
0
LINE
8
Black
10
198.244
20
-59.25
11
197.044
21
-59.25
0
LINE
8
Black
10
197.044
20
-59.25
11
197.044
21
-58.35
0
LINE
8
Black
10
197.044
20
-58.35
11
198.244
21
-58.35
0
LINE
8
Black
10
198.244
20
-58.35
11
198.244
21
-59.25
0
LINE
8
Black
10
217.294
20
-59.25
11
216.094
21
-59.25
0
LINE
8
Black
10
216.094
20
-59.25
11
216.094
21
-58.35
0
LINE
8
Black
10
216.094
20
-58.35
11
217.294
21
-58.35
0
LINE
8
Black
10
217.294
20
-58.35
11
217.294
21
-59.25
0
LINE
8
Black
10
236.344
20
-59.25
11
235.144
21
-59.25
0
LINE
8
Black
10
235.144
20
-59.25
11
235.144
21
-58.35
0
LINE
8
Black
10
235.144
20
-58.35
11
236.344
21
-58.35
0
LINE
8
Black
10
236.344
20
-58.35
11
236.344
21
-59.25
0
LINE
8
Black
10
255.394
20
-59.25
11
254.194
21
-59.25
0
LINE
8
Black
10
254.194
20
-59.25
11
254.194
21
-58.35
0
LINE
8
Black
10
254.194
20
-58.35
11
255.394
21
-58.35
0
LINE
8
Black
10
255.394
20
-58.35
11
255.394
21
-59.25
0
LINE
8
Black
10
274.444
20
-59.25
11
273.244
21
-59.25
0
LINE
8
Black
10
273.244
20
-59.25
11
273.244
21
-58.35
0
LINE
8
Black
10
273.244
20
-58.35
11
274.444
21
-58.35
0
LINE
8
Black
10
274.444
20
-58.35
11
274.444
21
-59.25
0
LINE
8
Black
10
293.494
20
-59.25
11
292.294
21
-59.25
0
LINE
8
Black
10
292.294
20
-59.25
11
292.294
21
-58.35
0
LINE
8
Black
10
292.294
20
-58.35
11
293.494
21
-58.35
0
LINE
8
Black
10
293.494
20
-58.35
11
293.494
21
-59.25
0
LINE
8
Black
10
331.594
20
-59.25
11
330.394
21
-59.25
0
LINE
8
Black
10
330.394
20
-59.25
11
330.394
21
-58.35
0
LINE
8
Black
10
330.394
20
-58.35
11
331.594
21
-58.35
0
LINE
8
Black
10
331.594
20
-58.35
11
331.594
21
-59.25
0
LINE
8
Black
10
70.554
20
-59.19
11
69.654
21
-59.19
0
LINE
8
Black
10
69.654
20
-59.19
11
69.654
21
-58.69
0
LINE
8
Black
10
69.654
20
-58.69
11
70.554
21
-58.69
0
LINE
8
Black
10
70.554
20
-58.69
11
70.554
21
-59.19
0
LINE
8
Black
10
67.644
20
-58.805
11
66.944
21
-58.805
0
LINE
8
Black
10
66.944
20
-58.805
11
66.944
21
-57.805
0
LINE
8
Black
10
66.944
20
-57.805
11
67.644
21
-57.805
0
LINE
8
Black
10
67.644
20
-57.805
11
67.644
21
-58.805
0
LINE
8
Black
10
65.644
20
-58.405
11
64.944
21
-58.405
0
LINE
8
Black
10
64.944
20
-58.405
11
64.944
21
-57.805
0
LINE
8
Black
10
64.944
20
-57.805
11
65.644
21
-57.805
0
LINE
8
Black
10
65.644
20
-57.805
11
65.644
21
-58.405
0
LINE
8
Black
10
60.648
20
-58.15
11
59.748
21
-58.15
0
LINE
8
Black
10
59.748
20
-58.15
11
59.748
21
-57.65
0
LINE
8
Black
10
59.748
20
-57.65
11
60.648
21
-57.65
0
LINE
8
Black
10
60.648
20
-57.65
11
60.648
21
-58.15
0
LINE
8
Black
10
60.648
20
-56.65
11
59.748
21
-56.65
0
LINE
8
Black
10
59.748
20
-56.65
11
59.748
21
-56.15
0
LINE
8
Black
10
59.748
20
-56.15
11
60.648
21
-56.15
0
LINE
8
Black
10
60.648
20
-56.15
11
60.648
21
-56.65
0
LINE
8
Black
10
255.394
20
-55.95
11
254.194
21
-55.95
0
LINE
8
Black
10
254.194
20
-55.95
11
254.194
21
-55.05
0
LINE
8
Black
10
254.194
20
-55.05
11
255.394
21
-55.05
0
LINE
8
Black
10
255.394
20
-55.05
11
255.394
21
-55.95
0
LINE
8
Black
10
297.066
20
-55.95
11
295.866
21
-55.95
0
LINE
8
Black
10
295.866
20
-55.95
11
295.866
21
-55.05
0
LINE
8
Black
10
295.866
20
-55.05
11
297.066
21
-55.05
0
LINE
8
Black
10
297.066
20
-55.05
11
297.066
21
-55.95
0
LINE
8
Black
10
335.562
20
-55.95
11
334.363
21
-55.95
0
LINE
8
Black
10
334.363
20
-55.95
11
334.363
21
-55.05
0
LINE
8
Black
10
334.363
20
-55.05
11
335.562
21
-55.05
0
LINE
8
Black
10
335.562
20
-55.05
11
335.562
21
-55.95
0
LINE
8
Black
10
83.9437
20
-55.95
11
82.7437
21
-55.95
0
LINE
8
Black
10
82.7437
20
-55.95
11
82.7437
21
-55.05
0
LINE
8
Black
10
82.7437
20
-55.05
11
83.9437
21
-55.05
0
LINE
8
Black
10
83.9437
20
-55.05
11
83.9437
21
-55.95
0
LINE
8
Black
10
102.994
20
-55.95
11
101.794
21
-55.95
0
LINE
8
Black
10
101.794
20
-55.95
11
101.794
21
-55.05
0
LINE
8
Black
10
101.794
20
-55.05
11
102.994
21
-55.05
0
LINE
8
Black
10
102.994
20
-55.05
11
102.994
21
-55.95
0
LINE
8
Black
10
122.044
20
-55.95
11
120.844
21
-55.95
0
LINE
8
Black
10
120.844
20
-55.95
11
120.844
21
-55.05
0
LINE
8
Black
10
120.844
20
-55.05
11
122.044
21
-55.05
0
LINE
8
Black
10
122.044
20
-55.05
11
122.044
21
-55.95
0
LINE
8
Black
10
141.094
20
-55.95
11
139.894
21
-55.95
0
LINE
8
Black
10
139.894
20
-55.95
11
139.894
21
-55.05
0
LINE
8
Black
10
139.894
20
-55.05
11
141.094
21
-55.05
0
LINE
8
Black
10
141.094
20
-55.05
11
141.094
21
-55.95
0
LINE
8
Black
10
160.144
20
-55.95
11
158.944
21
-55.95
0
LINE
8
Black
10
158.944
20
-55.95
11
158.944
21
-55.05
0
LINE
8
Black
10
158.944
20
-55.05
11
160.144
21
-55.05
0
LINE
8
Black
10
160.144
20
-55.05
11
160.144
21
-55.95
0
LINE
8
Black
10
198.244
20
-55.95
11
197.044
21
-55.95
0
LINE
8
Black
10
197.044
20
-55.95
11
197.044
21
-55.05
0
LINE
8
Black
10
197.044
20
-55.05
11
198.244
21
-55.05
0
LINE
8
Black
10
198.244
20
-55.05
11
198.244
21
-55.95
0
LINE
8
Black
10
217.294
20
-55.95
11
216.094
21
-55.95
0
LINE
8
Black
10
216.094
20
-55.95
11
216.094
21
-55.05
0
LINE
8
Black
10
216.094
20
-55.05
11
217.294
21
-55.05
0
LINE
8
Black
10
217.294
20
-55.05
11
217.294
21
-55.95
0
LINE
8
Black
10
236.344
20
-55.95
11
235.144
21
-55.95
0
LINE
8
Black
10
235.144
20
-55.95
11
235.144
21
-55.05
0
LINE
8
Black
10
235.144
20
-55.05
11
236.344
21
-55.05
0
LINE
8
Black
10
236.344
20
-55.05
11
236.344
21
-55.95
0
LINE
8
Black
10
274.444
20
-55.95
11
273.244
21
-55.95
0
LINE
8
Black
10
273.244
20
-55.95
11
273.244
21
-55.05
0
LINE
8
Black
10
273.244
20
-55.05
11
274.444
21
-55.05
0
LINE
8
Black
10
274.444
20
-55.05
11
274.444
21
-55.95
0
LINE
8
Black
10
293.494
20
-55.95
11
292.294
21
-55.95
0
LINE
8
Black
10
292.294
20
-55.95
11
292.294
21
-55.05
0
LINE
8
Black
10
292.294
20
-55.05
11
293.494
21
-55.05
0
LINE
8
Black
10
293.494
20
-55.05
11
293.494
21
-55.95
0
LINE
8
Black
10
331.594
20
-55.95
11
330.394
21
-55.95
0
LINE
8
Black
10
330.394
20
-55.95
11
330.394
21
-55.05
0
LINE
8
Black
10
330.394
20
-55.05
11
331.594
21
-55.05
0
LINE
8
Black
10
331.594
20
-55.05
11
331.594
21
-55.95
0
LINE
8
Black
10
179.194
20
-55.95
11
177.994
21
-55.95
0
LINE
8
Black
10
177.994
20
-55.95
11
177.994
21
-55.05
0
LINE
8
Black
10
177.994
20
-55.05
11
179.194
21
-55.05
0
LINE
8
Black
10
179.194
20
-55.05
11
179.194
21
-55.95
0
LINE
8
Black
10
69.7626
20
-54.42
11
69.1626
21
-54.42
0
LINE
8
Black
10
69.1626
20
-54.42
11
69.1626
21
-52.97
0
LINE
8
Black
10
69.1626
20
-52.97
11
69.7626
21
-52.97
0
LINE
8
Black
10
69.7626
20
-52.97
11
69.7626
21
-54.42
0
LINE
8
Black
10
63.3126
20
-54.42
11
62.7126
21
-54.42
0
LINE
8
Black
10
62.7126
20
-54.42
11
62.7126
21
-52.97
0
LINE
8
Black
10
62.7126
20
-52.97
11
63.3126
21
-52.97
0
LINE
8
Black
10
63.3126
20
-52.97
11
63.3126
21
-54.42
0
LINE
8
Black
10
68.9876
20
-54.42
11
68.3876
21
-54.42
0
LINE
8
Black
10
68.3876
20
-54.42
11
68.3876
21
-52.97
0
LINE
8
Black
10
68.3876
20
-52.97
11
68.9876
21
-52.97
0
LINE
8
Black
10
68.9876
20
-52.97
11
68.9876
21
-54.42
0
LINE
8
Black
10
64.0876
20
-54.42
11
63.4876
21
-54.42
0
LINE
8
Black
10
63.4876
20
-54.42
11
63.4876
21
-52.97
0
LINE
8
Black
10
63.4876
20
-52.97
11
64.0876
21
-52.97
0
LINE
8
Black
10
64.0876
20
-52.97
11
64.0876
21
-54.42
0
LINE
8
Black
10
64.6376
20
-54.42
11
64.3376
21
-54.42
0
LINE
8
Black
10
64.3376
20
-54.42
11
64.3376
21
-52.97
0
LINE
8
Black
10
64.3376
20
-52.97
11
64.6376
21
-52.97
0
LINE
8
Black
10
64.6376
20
-52.97
11
64.6376
21
-54.42
0
LINE
8
Black
10
68.1376
20
-54.42
11
67.8376
21
-54.42
0
LINE
8
Black
10
67.8376
20
-54.42
11
67.8376
21
-52.97
0
LINE
8
Black
10
67.8376
20
-52.97
11
68.1376
21
-52.97
0
LINE
8
Black
10
68.1376
20
-52.97
11
68.1376
21
-54.42
0
LINE
8
Black
10
65.1376
20
-54.42
11
64.8376
21
-54.42
0
LINE
8
Black
10
64.8376
20
-54.42
11
64.8376
21
-52.97
0
LINE
8
Black
10
64.8376
20
-52.97
11
65.1376
21
-52.97
0
LINE
8
Black
10
65.1376
20
-52.97
11
65.1376
21
-54.42
0
LINE
8
Black
10
67.6376
20
-54.42
11
67.3376
21
-54.42
0
LINE
8
Black
10
67.3376
20
-54.42
11
67.3376
21
-52.97
0
LINE
8
Black
10
67.3376
20
-52.97
11
67.6376
21
-52.97
0
LINE
8
Black
10
67.6376
20
-52.97
11
67.6376
21
-54.42
0
LINE
8
Black
10
65.6376
20
-54.42
11
65.3376
21
-54.42
0
LINE
8
Black
10
65.3376
20
-54.42
11
65.3376
21
-52.97
0
LINE
8
Black
10
65.3376
20
-52.97
11
65.6376
21
-52.97
0
LINE
8
Black
10
65.6376
20
-52.97
11
65.6376
21
-54.42
0
LINE
8
Black
10
67.1376
20
-54.42
11
66.8376
21
-54.42
0
LINE
8
Black
10
66.8376
20
-54.42
11
66.8376
21
-52.97
0
LINE
8
Black
10
66.8376
20
-52.97
11
67.1376
21
-52.97
0
LINE
8
Black
10
67.1376
20
-52.97
11
67.1376
21
-54.42
0
LINE
8
Black
10
66.6376
20
-54.42
11
66.3376
21
-54.42
0
LINE
8
Black
10
66.3376
20
-54.42
11
66.3376
21
-52.97
0
LINE
8
Black
10
66.3376
20
-52.97
11
66.6376
21
-52.97
0
LINE
8
Black
10
66.6376
20
-52.97
11
66.6376
21
-54.42
0
LINE
8
Black
10
66.1376
20
-54.42
11
65.8376
21
-54.42
0
LINE
8
Black
10
65.8376
20
-54.42
11
65.8376
21
-52.97
0
LINE
8
Black
10
65.8376
20
-52.97
11
66.1376
21
-52.97
0
LINE
8
Black
10
66.1376
20
-52.97
11
66.1376
21
-54.42
  0
ENDSEC
  0
EOF
