G04 #@! TF.FileFunction,Profile,NP*
%FSLAX46Y46*%
G04 Gerber Fmt 4.6, Leading zero omitted, Abs format (unit mm)*
G04 Created by KiCad (PCBNEW 4.0.7) date 04/18/18 22:22:27*
%MOMM*%
%LPD*%
G01*
G04 APERTURE LIST*
%ADD10C,0.100000*%
G04 APERTURE END LIST*
D10*
X299050000Y-32196000D02*
X300717000Y-32196000D01*
X299050000Y-37403700D02*
G75*
G02X298550000Y-36903700I0J500000D01*
G01*
X298550000Y-36903700D02*
X298550000Y-32696000D01*
X298550000Y-32696000D02*
G75*
G02X299050000Y-32196000I500000J0D01*
G01*
X120824000Y-79572700D02*
G75*
G02X121324000Y-79072700I500000J0D01*
G01*
X54649500Y-60022800D02*
X69250300Y-60022800D01*
X298335000Y-70296000D02*
G75*
G02X298835000Y-70796000I0J-500000D01*
G01*
X268477000Y-75503700D02*
G75*
G02X267977000Y-75003700I0J500000D01*
G01*
X97825300Y-79072700D02*
G75*
G02X98325300Y-79572700I0J-500000D01*
G01*
X267977000Y-70796000D02*
G75*
G02X268477000Y-70296000I500000J0D01*
G01*
X298335000Y-75503700D02*
X296669000Y-75503700D01*
X136425000Y-91373300D02*
G75*
G02X135925000Y-91873300I-500000J0D01*
G01*
X296169000Y-70796000D02*
G75*
G02X296669000Y-70296000I500000J0D01*
G01*
X261318000Y-91373300D02*
X261318000Y-79572700D01*
X135925000Y-91873300D02*
X121324000Y-91873300D01*
X111799400Y-60022800D02*
X126400000Y-60022800D01*
X82724400Y-91373300D02*
X82724400Y-79572700D01*
X43055200Y-60022800D02*
G75*
G02X43555200Y-60522800I0J-500000D01*
G01*
X298835000Y-75003700D02*
G75*
G02X298335000Y-75503700I-500000J0D01*
G01*
X296169000Y-75003700D02*
X296169000Y-70796000D01*
X296669000Y-70296000D02*
X298335000Y-70296000D01*
X121324000Y-91873300D02*
G75*
G02X120824000Y-91373300I0J500000D01*
G01*
X54149500Y-60522800D02*
G75*
G02X54649500Y-60022800I500000J0D01*
G01*
X270642000Y-70796000D02*
X270642000Y-75003700D01*
X69250300Y-60022800D02*
G75*
G02X69750300Y-60522800I0J-500000D01*
G01*
X268477000Y-70296000D02*
X270142000Y-70296000D01*
X276919000Y-79572700D02*
X276919000Y-91373300D01*
X276419000Y-79072700D02*
G75*
G02X276919000Y-79572700I0J-500000D01*
G01*
X98325300Y-79572700D02*
X98325300Y-91373300D01*
X270142000Y-75503700D02*
X268477000Y-75503700D01*
X43555200Y-60522800D02*
X43555200Y-72323300D01*
X98325300Y-91373300D02*
G75*
G02X97825300Y-91873300I-500000J0D01*
G01*
X270142000Y-70296000D02*
G75*
G02X270642000Y-70796000I0J-500000D01*
G01*
X298835000Y-70796000D02*
X298835000Y-75003700D01*
X296669000Y-75503700D02*
G75*
G02X296169000Y-75003700I0J500000D01*
G01*
X83224400Y-91873300D02*
G75*
G02X82724400Y-91373300I0J500000D01*
G01*
X120824000Y-91373300D02*
X120824000Y-79572700D01*
X135925000Y-79072700D02*
G75*
G02X136425000Y-79572700I0J-500000D01*
G01*
X136425000Y-79572700D02*
X136425000Y-91373300D01*
X69750300Y-60522800D02*
X69750300Y-72323300D01*
X69250300Y-72823300D02*
X54649500Y-72823300D01*
X54649500Y-72823300D02*
G75*
G02X54149500Y-72323300I0J500000D01*
G01*
X54149500Y-72323300D02*
X54149500Y-60522800D01*
X111299400Y-72323300D02*
X111299400Y-60522800D01*
X111299400Y-60522800D02*
G75*
G02X111799400Y-60022800I500000J0D01*
G01*
X126400000Y-60022800D02*
G75*
G02X126900000Y-60522800I0J-500000D01*
G01*
X126900000Y-60522800D02*
X126900000Y-72323300D01*
X270642000Y-75003700D02*
G75*
G02X270142000Y-75503700I-500000J0D01*
G01*
X69750300Y-72323300D02*
G75*
G02X69250300Y-72823300I-500000J0D01*
G01*
X261318000Y-79572700D02*
G75*
G02X261818000Y-79072700I500000J0D01*
G01*
X126400000Y-72823300D02*
X111799400Y-72823300D01*
X111799400Y-72823300D02*
G75*
G02X111299400Y-72323300I0J500000D01*
G01*
X267977000Y-75003700D02*
X267977000Y-70796000D01*
X306563000Y-91373300D02*
X306563000Y-79572700D01*
X306563000Y-79572700D02*
G75*
G02X307063000Y-79072700I500000J0D01*
G01*
X307063000Y-79072700D02*
X321663000Y-79072700D01*
X321663000Y-79072700D02*
G75*
G02X322163000Y-79572700I0J-500000D01*
G01*
X322163000Y-79572700D02*
X322163000Y-91373300D01*
X261818000Y-79072700D02*
X276419000Y-79072700D01*
X82724400Y-79572700D02*
G75*
G02X83224400Y-79072700I500000J0D01*
G01*
X83224400Y-79072700D02*
X97825300Y-79072700D01*
X97825300Y-91873300D02*
X83224400Y-91873300D01*
X126900000Y-72323300D02*
G75*
G02X126400000Y-72823300I-500000J0D01*
G01*
X307063000Y-91873300D02*
G75*
G02X306563000Y-91373300I0J500000D01*
G01*
X261818000Y-91873300D02*
G75*
G02X261318000Y-91373300I0J500000D01*
G01*
X276919000Y-91373300D02*
G75*
G02X276419000Y-91873300I-500000J0D01*
G01*
X276419000Y-91873300D02*
X261818000Y-91873300D01*
X121324000Y-79072700D02*
X135925000Y-79072700D01*
X40675300Y-53773300D02*
X26074530Y-53773300D01*
X26074530Y-53773300D02*
G75*
G02X25574530Y-53273300I0J500000D01*
G01*
X164500000Y-72823300D02*
X149899000Y-72823300D01*
X41175300Y-41472800D02*
X41175300Y-45573050D01*
X46360800Y-70796000D02*
G75*
G02X46860800Y-70296000I500000J0D01*
G01*
X183550000Y-60022800D02*
G75*
G02X184050000Y-60522800I0J-500000D01*
G01*
X184050000Y-72323300D02*
G75*
G02X183550000Y-72823300I-500000J0D01*
G01*
X48527300Y-75503700D02*
X46860800Y-75503700D01*
X24650070Y-75503700D02*
X22984950Y-75503700D01*
X168949000Y-72823300D02*
G75*
G02X168449000Y-72323300I0J500000D01*
G01*
X183550000Y-72823300D02*
X168949000Y-72823300D01*
X165000000Y-72323300D02*
G75*
G02X164500000Y-72823300I-500000J0D01*
G01*
X25150070Y-75003700D02*
G75*
G02X24650070Y-75503700I-500000J0D01*
G01*
X322163000Y-91373300D02*
G75*
G02X321663000Y-91873300I-500000J0D01*
G01*
X149399000Y-72323300D02*
X149399000Y-68833610D01*
X145950000Y-68833610D02*
X145950000Y-72323300D01*
X149399000Y-60522800D02*
G75*
G02X149899000Y-60022800I500000J0D01*
G01*
X149899000Y-72823300D02*
G75*
G02X149399000Y-72323300I0J500000D01*
G01*
X22484950Y-75003700D02*
X22484950Y-70796000D01*
X148946375Y-68575336D02*
G75*
G02X146402625Y-68575336I-1271875J2152286D01*
G01*
X22984950Y-75503700D02*
G75*
G02X22484950Y-75003700I0J500000D01*
G01*
X130349000Y-72323300D02*
X130349000Y-60522800D01*
X49027300Y-70796000D02*
X49027300Y-75003700D01*
X22484950Y-70796000D02*
G75*
G02X22984950Y-70296000I500000J0D01*
G01*
X145450000Y-72823300D02*
X130849000Y-72823300D01*
X164500000Y-60022800D02*
G75*
G02X165000000Y-60522800I0J-500000D01*
G01*
X46360800Y-75003700D02*
X46360800Y-70796000D01*
X49027300Y-75003700D02*
G75*
G02X48527300Y-75503700I-500000J0D01*
G01*
X40675300Y-40972800D02*
G75*
G02X41175300Y-41472800I0J-500000D01*
G01*
X41475300Y-45873050D02*
G75*
G02X41175300Y-45573050I0J300000D01*
G01*
X42221110Y-45706383D02*
G75*
G02X41848432Y-45873050I-372678J333333D01*
G01*
X168449000Y-60522800D02*
G75*
G02X168949000Y-60022800I500000J0D01*
G01*
X130349000Y-60522800D02*
G75*
G02X130849000Y-60022800I500000J0D01*
G01*
X25574530Y-41472800D02*
G75*
G02X26074530Y-40972800I500000J0D01*
G01*
X146402625Y-64270764D02*
G75*
G02X145950000Y-64012490I-152625J258274D01*
G01*
X145950000Y-72323300D02*
G75*
G02X145450000Y-72823300I-500000J0D01*
G01*
X130849000Y-60022800D02*
X145450000Y-60022800D01*
X146402625Y-64270764D02*
G75*
G02X148946375Y-64270764I1271875J-2152286D01*
G01*
X145950000Y-60522800D02*
X145950000Y-64012490D01*
X184050000Y-60522800D02*
X184050000Y-72323300D01*
X48527300Y-70296000D02*
G75*
G02X49027300Y-70796000I0J-500000D01*
G01*
X148946375Y-68575336D02*
G75*
G02X149399000Y-68833610I152625J-258274D01*
G01*
X22984950Y-70296000D02*
X24650070Y-70296000D01*
X145950000Y-68833610D02*
G75*
G02X146402625Y-68575336I300000J0D01*
G01*
X168449000Y-72323300D02*
X168449000Y-60522800D01*
X25150070Y-70796000D02*
X25150070Y-75003700D01*
X165000000Y-60522800D02*
X165000000Y-72323300D01*
X145450000Y-60022800D02*
G75*
G02X145950000Y-60522800I0J-500000D01*
G01*
X41175300Y-53273300D02*
G75*
G02X40675300Y-53773300I-500000J0D01*
G01*
X321663000Y-91873300D02*
X307063000Y-91873300D01*
X25574530Y-53273300D02*
X25574530Y-41472800D01*
X26074530Y-40972800D02*
X40675300Y-40972800D01*
X41475300Y-45873050D02*
X41848432Y-45873050D01*
X42221110Y-45706383D02*
G75*
G02X42221110Y-49039716I1863390J-1666667D01*
G01*
X41848432Y-48873050D02*
G75*
G02X42221110Y-49039716I0J-500000D01*
G01*
X46860800Y-70296000D02*
X48527300Y-70296000D01*
X149399000Y-64012490D02*
G75*
G02X148946375Y-64270764I-300000J0D01*
G01*
X46860800Y-75503700D02*
G75*
G02X46360800Y-75003700I0J500000D01*
G01*
X149899000Y-60022800D02*
X164500000Y-60022800D01*
X168949000Y-60022800D02*
X183550000Y-60022800D01*
X24650070Y-70296000D02*
G75*
G02X25150070Y-70796000I0J-500000D01*
G01*
X149399000Y-64012490D02*
X149399000Y-60522800D01*
X130849000Y-72823300D02*
G75*
G02X130349000Y-72323300I0J500000D01*
G01*
X235124000Y-79572700D02*
G75*
G02X235624000Y-79072700I500000J0D01*
G01*
X197024000Y-91373300D02*
X197024000Y-79572700D01*
X250725000Y-91373300D02*
G75*
G02X250225000Y-91873300I-500000J0D01*
G01*
X193575000Y-79572700D02*
X193575000Y-91373300D01*
X212625000Y-79572700D02*
X212625000Y-91373300D01*
X197024000Y-79572700D02*
G75*
G02X197524000Y-79072700I500000J0D01*
G01*
X197524000Y-79072700D02*
X212125000Y-79072700D01*
X43555200Y-72323300D02*
G75*
G02X43055200Y-72823300I-500000J0D01*
G01*
X25589460Y-89345900D02*
X27255930Y-89345900D01*
X27755930Y-94053600D02*
G75*
G02X27255930Y-94553600I-500000J0D01*
G01*
X25589460Y-94553600D02*
G75*
G02X25089460Y-94053600I0J500000D01*
G01*
X212125000Y-91873300D02*
X197524000Y-91873300D01*
X258514000Y-89845900D02*
X258514000Y-94053600D01*
X197524000Y-91873300D02*
G75*
G02X197024000Y-91373300I0J500000D01*
G01*
X43055200Y-72823300D02*
X28455780Y-72823300D01*
X28455780Y-72823300D02*
G75*
G02X27955780Y-72323300I0J500000D01*
G01*
X27955780Y-72323300D02*
X27955780Y-60522800D01*
X27955780Y-60522800D02*
G75*
G02X28455780Y-60022800I500000J0D01*
G01*
X28455780Y-60022800D02*
X43055200Y-60022800D01*
X231175000Y-91873300D02*
X216574000Y-91873300D01*
X193075000Y-79072700D02*
G75*
G02X193575000Y-79572700I0J-500000D01*
G01*
X231675000Y-91373300D02*
G75*
G02X231175000Y-91873300I-500000J0D01*
G01*
X178474000Y-91873300D02*
G75*
G02X177974000Y-91373300I0J500000D01*
G01*
X280223000Y-89345900D02*
X281890000Y-89345900D01*
X53281300Y-94053600D02*
X53281300Y-89845900D01*
X53781300Y-94553600D02*
G75*
G02X53281300Y-94053600I0J500000D01*
G01*
X178474000Y-79072700D02*
X193075000Y-79072700D01*
X212125000Y-79072700D02*
G75*
G02X212625000Y-79572700I0J-500000D01*
G01*
X235624000Y-91873300D02*
G75*
G02X235124000Y-91373300I0J500000D01*
G01*
X250225000Y-91873300D02*
X235624000Y-91873300D01*
X256347000Y-94553600D02*
G75*
G02X255847000Y-94053600I0J500000D01*
G01*
X255847000Y-89845900D02*
G75*
G02X256347000Y-89345900I500000J0D01*
G01*
X27255930Y-89345900D02*
G75*
G02X27755930Y-89845900I0J-500000D01*
G01*
X27755930Y-89845900D02*
X27755930Y-94053600D01*
X25089460Y-89845900D02*
G75*
G02X25589460Y-89345900I500000J0D01*
G01*
X177974000Y-91373300D02*
X177974000Y-79572700D01*
X55947900Y-94053600D02*
G75*
G02X55447900Y-94553600I-500000J0D01*
G01*
X279723000Y-89845900D02*
G75*
G02X280223000Y-89345900I500000J0D01*
G01*
X55447900Y-94553600D02*
X53781300Y-94553600D01*
X193575000Y-91373300D02*
G75*
G02X193075000Y-91873300I-500000J0D01*
G01*
X53781300Y-89345900D02*
X55447900Y-89345900D01*
X280223000Y-94553600D02*
G75*
G02X279723000Y-94053600I0J500000D01*
G01*
X193075000Y-91873300D02*
X178474000Y-91873300D01*
X281890000Y-94553600D02*
X280223000Y-94553600D01*
X256347000Y-89345900D02*
X258014000Y-89345900D01*
X258014000Y-89345900D02*
G75*
G02X258514000Y-89845900I0J-500000D01*
G01*
X258514000Y-94053600D02*
G75*
G02X258014000Y-94553600I-500000J0D01*
G01*
X235624000Y-79072700D02*
X250225000Y-79072700D01*
X279723000Y-94053600D02*
X279723000Y-89845900D01*
X281890000Y-89345900D02*
G75*
G02X282390000Y-89845900I0J-500000D01*
G01*
X255847000Y-94053600D02*
X255847000Y-89845900D01*
X250225000Y-79072700D02*
G75*
G02X250725000Y-79572700I0J-500000D01*
G01*
X177974000Y-79572700D02*
G75*
G02X178474000Y-79072700I500000J0D01*
G01*
X53281300Y-89845900D02*
G75*
G02X53781300Y-89345900I500000J0D01*
G01*
X55447900Y-89345900D02*
G75*
G02X55947900Y-89845900I0J-500000D01*
G01*
X25089460Y-94053600D02*
X25089460Y-89845900D01*
X55947900Y-89845900D02*
X55947900Y-94053600D01*
X258014000Y-94553600D02*
X256347000Y-94553600D01*
X235124000Y-91373300D02*
X235124000Y-79572700D01*
X250725000Y-79572700D02*
X250725000Y-91373300D01*
X282390000Y-94053600D02*
G75*
G02X281890000Y-94553600I-500000J0D01*
G01*
X282390000Y-89845900D02*
X282390000Y-94053600D01*
X212625000Y-91373300D02*
G75*
G02X212125000Y-91873300I-500000J0D01*
G01*
X27255930Y-94553600D02*
X25589460Y-94553600D01*
X33218300Y-91873300D02*
G75*
G02X32718300Y-91373300I0J500000D01*
G01*
X154163000Y-98622700D02*
G75*
G02X154663000Y-98122700I500000J0D01*
G01*
X321663000Y-98122700D02*
G75*
G02X322163000Y-98622700I0J-500000D01*
G01*
X41175300Y-110423280D02*
G75*
G02X40675300Y-110923280I-500000J0D01*
G01*
X48319000Y-91373300D02*
G75*
G02X47819000Y-91873300I-500000J0D01*
G01*
X216574000Y-79072700D02*
X231175000Y-79072700D01*
X158924000Y-79572700D02*
G75*
G02X159424000Y-79072700I500000J0D01*
G01*
X40675300Y-98122700D02*
G75*
G02X41175300Y-98622700I0J-500000D01*
G01*
X154163000Y-110423280D02*
X154163000Y-98622700D01*
X117375300Y-79572700D02*
X117375300Y-91373300D01*
X32718300Y-79572700D02*
G75*
G02X33218300Y-79072700I500000J0D01*
G01*
X78775300Y-91873300D02*
X64174400Y-91873300D01*
X169763000Y-98622700D02*
X169763000Y-110423280D01*
X64174400Y-91873300D02*
G75*
G02X63674400Y-91373300I0J500000D01*
G01*
X102274400Y-91873300D02*
G75*
G02X101774400Y-91373300I0J500000D01*
G01*
X47819000Y-91873300D02*
X33218300Y-91873300D01*
X154663000Y-110923280D02*
G75*
G02X154163000Y-110423280I0J500000D01*
G01*
X47819000Y-79072700D02*
G75*
G02X48319000Y-79572700I0J-500000D01*
G01*
X158924000Y-91373300D02*
X158924000Y-79572700D01*
X41475300Y-103022990D02*
X41848432Y-103022990D01*
X48319000Y-79572700D02*
X48319000Y-91373300D01*
X41175300Y-106322990D02*
X41175300Y-110423280D01*
X64174400Y-79072700D02*
X78775300Y-79072700D01*
X33218300Y-79072700D02*
X47819000Y-79072700D01*
X63674400Y-91373300D02*
X63674400Y-79572700D01*
X169263000Y-98122700D02*
G75*
G02X169763000Y-98622700I0J-500000D01*
G01*
X216074000Y-91373300D02*
X216074000Y-79572700D01*
X322163000Y-98622700D02*
X322163000Y-110423280D01*
X42084500Y-106022990D02*
X41475300Y-106022990D01*
X40675300Y-110923280D02*
X26074530Y-110923280D01*
X25574530Y-110423280D02*
X25574530Y-98122700D01*
X25574530Y-98122700D02*
X40675300Y-98122700D01*
X42221110Y-102856323D02*
G75*
G02X42084500Y-106022990I1863390J-1666667D01*
G01*
X116875300Y-91873300D02*
X102274400Y-91873300D01*
X159424000Y-79072700D02*
X174025000Y-79072700D01*
X174525000Y-79572700D02*
X174525000Y-91373300D01*
X174025000Y-91873300D02*
X159424000Y-91873300D01*
X78775300Y-79072700D02*
G75*
G02X79275300Y-79572700I0J-500000D01*
G01*
X41475300Y-103022990D02*
G75*
G02X41175300Y-102722990I0J300000D01*
G01*
X102274400Y-79072700D02*
X116875300Y-79072700D01*
X32718300Y-91373300D02*
X32718300Y-79572700D01*
X79275300Y-79572700D02*
X79275300Y-91373300D01*
X41175300Y-106322990D02*
G75*
G02X41475300Y-106022990I300000J0D01*
G01*
X159424000Y-91873300D02*
G75*
G02X158924000Y-91373300I0J500000D01*
G01*
X216074000Y-79572700D02*
G75*
G02X216574000Y-79072700I500000J0D01*
G01*
X231175000Y-79072700D02*
G75*
G02X231675000Y-79572700I0J-500000D01*
G01*
X322163000Y-110423280D02*
G75*
G02X321663000Y-110923280I-500000J0D01*
G01*
X41175300Y-98622700D02*
X41175300Y-102722990D01*
X101774400Y-91373300D02*
X101774400Y-79572700D01*
X116875300Y-79072700D02*
G75*
G02X117375300Y-79572700I0J-500000D01*
G01*
X117375300Y-91373300D02*
G75*
G02X116875300Y-91873300I-500000J0D01*
G01*
X169763000Y-110423280D02*
G75*
G02X169263000Y-110923280I-500000J0D01*
G01*
X63674400Y-79572700D02*
G75*
G02X64174400Y-79072700I500000J0D01*
G01*
X26074530Y-110923280D02*
G75*
G02X25574530Y-110423280I0J500000D01*
G01*
X79275300Y-91373300D02*
G75*
G02X78775300Y-91873300I-500000J0D01*
G01*
X42221110Y-102856323D02*
G75*
G02X41848432Y-103022990I-372678J333333D01*
G01*
X154663000Y-98122700D02*
X169263000Y-98122700D01*
X101774400Y-79572700D02*
G75*
G02X102274400Y-79072700I500000J0D01*
G01*
X169263000Y-110923280D02*
X154663000Y-110923280D01*
X174025000Y-79072700D02*
G75*
G02X174525000Y-79572700I0J-500000D01*
G01*
X174525000Y-91373300D02*
G75*
G02X174025000Y-91873300I-500000J0D01*
G01*
X216574000Y-91873300D02*
G75*
G02X216074000Y-91373300I0J500000D01*
G01*
X231675000Y-79572700D02*
X231675000Y-91373300D01*
X222150000Y-72323300D02*
G75*
G02X221650000Y-72823300I-500000J0D01*
G01*
X244649000Y-72323300D02*
X244649000Y-60522800D01*
X216888000Y-53773300D02*
X202288000Y-53773300D01*
X179288000Y-41472800D02*
X179288000Y-53273300D01*
X87488300Y-41472800D02*
G75*
G02X87988300Y-40972800I500000J0D01*
G01*
X83537800Y-40972800D02*
G75*
G02X84037800Y-41472800I0J-500000D01*
G01*
X197838000Y-40972800D02*
G75*
G02X198338000Y-41472800I0J-500000D01*
G01*
X87488300Y-53273300D02*
X87488300Y-41472800D01*
X198338000Y-53273300D02*
G75*
G02X197838000Y-53773300I-500000J0D01*
G01*
X122138000Y-53273300D02*
G75*
G02X121638000Y-53773300I-500000J0D01*
G01*
X207049000Y-60022800D02*
X221650000Y-60022800D01*
X222150000Y-60522800D02*
X222150000Y-72323300D01*
X103087800Y-53273300D02*
G75*
G02X102587800Y-53773300I-500000J0D01*
G01*
X207049000Y-72823300D02*
G75*
G02X206549000Y-72323300I0J500000D01*
G01*
X260250000Y-72323300D02*
G75*
G02X259750000Y-72823300I-500000J0D01*
G01*
X259750000Y-60022800D02*
G75*
G02X260250000Y-60522800I0J-500000D01*
G01*
X217388000Y-41472800D02*
X217388000Y-53273300D01*
X84037800Y-53273300D02*
G75*
G02X83537800Y-53773300I-500000J0D01*
G01*
X245149000Y-72823300D02*
G75*
G02X244649000Y-72323300I0J500000D01*
G01*
X201788000Y-53273300D02*
X201788000Y-41472800D01*
X106538300Y-53273300D02*
X106538300Y-41472800D01*
X201788000Y-41472800D02*
G75*
G02X202288000Y-40972800I500000J0D01*
G01*
X202288000Y-40972800D02*
X216888000Y-40972800D01*
X206549000Y-60522800D02*
G75*
G02X207049000Y-60022800I500000J0D01*
G01*
X58913300Y-22422800D02*
G75*
G02X59413300Y-21922800I500000J0D01*
G01*
X59413300Y-21922800D02*
X74012800Y-21922800D01*
X260250000Y-60522800D02*
X260250000Y-72323300D01*
X102587800Y-40972800D02*
G75*
G02X103087800Y-41472800I0J-500000D01*
G01*
X107038300Y-40972800D02*
X121638000Y-40972800D01*
X121638000Y-40972800D02*
G75*
G02X122138000Y-41472800I0J-500000D01*
G01*
X182738000Y-41472800D02*
G75*
G02X183238000Y-40972800I500000J0D01*
G01*
X221650000Y-72823300D02*
X207049000Y-72823300D01*
X206549000Y-72323300D02*
X206549000Y-60522800D01*
X259750000Y-72823300D02*
X245149000Y-72823300D01*
X122138000Y-41472800D02*
X122138000Y-53273300D01*
X68938300Y-40972800D02*
X83537800Y-40972800D01*
X83537800Y-53773300D02*
X68938300Y-53773300D01*
X197838000Y-53773300D02*
X183238000Y-53773300D01*
X245149000Y-60022800D02*
X259750000Y-60022800D01*
X217388000Y-53273300D02*
G75*
G02X216888000Y-53773300I-500000J0D01*
G01*
X102587800Y-53773300D02*
X87988300Y-53773300D01*
X202288000Y-53773300D02*
G75*
G02X201788000Y-53273300I0J500000D01*
G01*
X68438300Y-53273300D02*
X68438300Y-41472800D01*
X182738000Y-53273300D02*
X182738000Y-41472800D01*
X68438300Y-41472800D02*
G75*
G02X68938300Y-40972800I500000J0D01*
G01*
X183238000Y-40972800D02*
X197838000Y-40972800D01*
X221650000Y-60022800D02*
G75*
G02X222150000Y-60522800I0J-500000D01*
G01*
X244649000Y-60522800D02*
G75*
G02X245149000Y-60022800I500000J0D01*
G01*
X103087800Y-41472800D02*
X103087800Y-53273300D01*
X87988300Y-40972800D02*
X102587800Y-40972800D01*
X164188000Y-40972800D02*
X178788000Y-40972800D01*
X107038300Y-53773300D02*
G75*
G02X106538300Y-53273300I0J500000D01*
G01*
X216888000Y-40972800D02*
G75*
G02X217388000Y-41472800I0J-500000D01*
G01*
X74012800Y-21922800D02*
G75*
G02X74512800Y-22422800I0J-500000D01*
G01*
X74512800Y-22422800D02*
X74512800Y-34223300D01*
X68938300Y-53773300D02*
G75*
G02X68438300Y-53273300I0J500000D01*
G01*
X183238000Y-53773300D02*
G75*
G02X182738000Y-53273300I0J500000D01*
G01*
X106538300Y-41472800D02*
G75*
G02X107038300Y-40972800I500000J0D01*
G01*
X179288000Y-53273300D02*
G75*
G02X178788000Y-53773300I-500000J0D01*
G01*
X84037800Y-41472800D02*
X84037800Y-53273300D01*
X87988300Y-53773300D02*
G75*
G02X87488300Y-53273300I0J500000D01*
G01*
X198338000Y-41472800D02*
X198338000Y-53273300D01*
X178788000Y-40972800D02*
G75*
G02X179288000Y-41472800I0J-500000D01*
G01*
X121638000Y-53773300D02*
X107038300Y-53773300D01*
X187999000Y-72823300D02*
G75*
G02X187499000Y-72323300I0J500000D01*
G01*
X49388400Y-53273300D02*
X49388400Y-41472800D01*
X307063000Y-72823300D02*
G75*
G02X306563000Y-72323300I0J500000D01*
G01*
X306563000Y-72323300D02*
X306563000Y-60522800D01*
X306563000Y-60522800D02*
G75*
G02X307063000Y-60022800I500000J0D01*
G01*
X92249400Y-72323300D02*
X92249400Y-60522800D01*
X307063000Y-60022800D02*
X321663000Y-60022800D01*
X321663000Y-60022800D02*
G75*
G02X322163000Y-60522800I0J-500000D01*
G01*
X88800300Y-60522800D02*
X88800300Y-72323300D01*
X178788000Y-53773300D02*
X164188000Y-53773300D01*
X164188000Y-53773300D02*
G75*
G02X163688000Y-53273300I0J500000D01*
G01*
X41175300Y-49173050D02*
X41175300Y-53273300D01*
X202600000Y-72823300D02*
X187999000Y-72823300D01*
X163688000Y-53273300D02*
X163688000Y-41472800D01*
X303113000Y-91373300D02*
G75*
G02X302613000Y-91873300I-500000J0D01*
G01*
X49388400Y-41472800D02*
G75*
G02X49888400Y-40972800I500000J0D01*
G01*
X322163000Y-60522800D02*
X322163000Y-72323300D01*
X163688000Y-41472800D02*
G75*
G02X164188000Y-40972800I500000J0D01*
G01*
X92749400Y-60022800D02*
X107350300Y-60022800D01*
X49888400Y-53773300D02*
G75*
G02X49388400Y-53273300I0J500000D01*
G01*
X187499000Y-60522800D02*
G75*
G02X187999000Y-60022800I500000J0D01*
G01*
X287513000Y-79572700D02*
G75*
G02X288013000Y-79072700I500000J0D01*
G01*
X107350300Y-72823300D02*
X92749400Y-72823300D01*
X187999000Y-60022800D02*
X202600000Y-60022800D01*
X288013000Y-79072700D02*
X302613000Y-79072700D01*
X302613000Y-91873300D02*
X288013000Y-91873300D01*
X64487800Y-40972800D02*
G75*
G02X64987800Y-41472800I0J-500000D01*
G01*
X187499000Y-72323300D02*
X187499000Y-60522800D01*
X202600000Y-60022800D02*
G75*
G02X203100000Y-60522800I0J-500000D01*
G01*
X88300300Y-72823300D02*
X73699400Y-72823300D01*
X241200000Y-72323300D02*
G75*
G02X240700000Y-72823300I-500000J0D01*
G01*
X225599000Y-72323300D02*
X225599000Y-60522800D01*
X49888400Y-40972800D02*
X64487800Y-40972800D01*
X287513000Y-91373300D02*
X287513000Y-79572700D01*
X92249400Y-60522800D02*
G75*
G02X92749400Y-60022800I500000J0D01*
G01*
X73199400Y-60522800D02*
G75*
G02X73699400Y-60022800I500000J0D01*
G01*
X88800300Y-72323300D02*
G75*
G02X88300300Y-72823300I-500000J0D01*
G01*
X41175300Y-49173050D02*
G75*
G02X41475300Y-48873050I300000J0D01*
G01*
X41848432Y-48873050D02*
X41475300Y-48873050D01*
X303113000Y-79572700D02*
X303113000Y-91373300D01*
X64987800Y-41472800D02*
X64987800Y-53273300D01*
X73199400Y-72323300D02*
X73199400Y-60522800D01*
X240700000Y-60022800D02*
G75*
G02X241200000Y-60522800I0J-500000D01*
G01*
X241200000Y-60522800D02*
X241200000Y-72323300D01*
X73699400Y-72823300D02*
G75*
G02X73199400Y-72323300I0J500000D01*
G01*
X73699400Y-60022800D02*
X88300300Y-60022800D01*
X203100000Y-60522800D02*
X203100000Y-72323300D01*
X322163000Y-72323300D02*
G75*
G02X321663000Y-72823300I-500000J0D01*
G01*
X302613000Y-79072700D02*
G75*
G02X303113000Y-79572700I0J-500000D01*
G01*
X288013000Y-91873300D02*
G75*
G02X287513000Y-91373300I0J500000D01*
G01*
X226099000Y-60022800D02*
X240700000Y-60022800D01*
X64987800Y-53273300D02*
G75*
G02X64487800Y-53773300I-500000J0D01*
G01*
X321663000Y-72823300D02*
X307063000Y-72823300D01*
X64487800Y-53773300D02*
X49888400Y-53773300D01*
X107350300Y-60022800D02*
G75*
G02X107850300Y-60522800I0J-500000D01*
G01*
X107850300Y-72323300D02*
G75*
G02X107350300Y-72823300I-500000J0D01*
G01*
X240700000Y-72823300D02*
X226099000Y-72823300D01*
X203100000Y-72323300D02*
G75*
G02X202600000Y-72823300I-500000J0D01*
G01*
X226099000Y-72823300D02*
G75*
G02X225599000Y-72323300I0J500000D01*
G01*
X92749400Y-72823300D02*
G75*
G02X92249400Y-72323300I0J500000D01*
G01*
X88300300Y-60022800D02*
G75*
G02X88800300Y-60522800I0J-500000D01*
G01*
X225599000Y-60522800D02*
G75*
G02X226099000Y-60022800I500000J0D01*
G01*
X107850300Y-60522800D02*
X107850300Y-72323300D01*
X117495500Y-108395940D02*
G75*
G02X117995500Y-108895940I0J-500000D01*
G01*
X228481000Y-110923280D02*
G75*
G02X227981000Y-110423280I0J500000D01*
G01*
X287513000Y-102103046D02*
X287513000Y-98622700D01*
X249913000Y-21922800D02*
X264513000Y-21922800D01*
X249413000Y-34223300D02*
X249413000Y-22422800D01*
X264513000Y-34723300D02*
X249913000Y-34723300D01*
X115330300Y-113102188D02*
X115330300Y-108895940D01*
X249913000Y-34723300D02*
G75*
G02X249413000Y-34223300I0J500000D01*
G01*
X140374000Y-91873300D02*
G75*
G02X139874000Y-91373300I0J500000D01*
G01*
X307063000Y-110923280D02*
G75*
G02X306563000Y-110423280I0J500000D01*
G01*
X154975000Y-91873300D02*
X140374000Y-91873300D01*
X228481000Y-98122700D02*
X243080000Y-98122700D01*
X268963000Y-98122700D02*
X283563000Y-98122700D01*
X117495500Y-113602188D02*
X115830300Y-113602188D01*
X306563000Y-110423280D02*
X306563000Y-98622700D01*
X306563000Y-98622700D02*
G75*
G02X307063000Y-98122700I500000J0D01*
G01*
X307063000Y-98122700D02*
X321663000Y-98122700D01*
X302613000Y-98122700D02*
G75*
G02X303113000Y-98622700I0J-500000D01*
G01*
X243080000Y-110923280D02*
X228481000Y-110923280D01*
X287513000Y-98622700D02*
G75*
G02X288013000Y-98122700I500000J0D01*
G01*
X303113000Y-98622700D02*
X303113000Y-110423280D01*
X115830300Y-113602188D02*
G75*
G02X115330300Y-113102188I0J500000D01*
G01*
X284517446Y-102379746D02*
G75*
G02X284063000Y-102122557I-154446J257189D01*
G01*
X284063000Y-106923424D02*
G75*
G02X284517446Y-106666233I300000J1D01*
G01*
X264513000Y-21922800D02*
G75*
G02X265013000Y-22422800I0J-500000D01*
G01*
X284063000Y-98622700D02*
X284063000Y-102122557D01*
X265013000Y-34223300D02*
G75*
G02X264513000Y-34723300I-500000J0D01*
G01*
X67369100Y-110423280D02*
G75*
G02X66869100Y-110923280I-500000J0D01*
G01*
X303113000Y-110423280D02*
G75*
G02X302613000Y-110923280I-500000J0D01*
G01*
X287062089Y-106683654D02*
G75*
G02X284517446Y-106666233I-1257589J2160664D01*
G01*
X243080000Y-98122700D02*
G75*
G02X243580000Y-98622700I0J-500000D01*
G01*
X243580000Y-110423280D02*
G75*
G02X243080000Y-110923280I-500000J0D01*
G01*
X284517446Y-102379747D02*
G75*
G02X287062089Y-102362326I1287054J-2143243D01*
G01*
X284063000Y-106923423D02*
X284063000Y-110423280D01*
X268463000Y-110423280D02*
X268463000Y-98622700D01*
X268463000Y-98622700D02*
G75*
G02X268963000Y-98122700I500000J0D01*
G01*
X287513000Y-110423280D02*
X287513000Y-106942934D01*
X265013000Y-22422800D02*
X265013000Y-34223300D01*
X154975000Y-79072700D02*
G75*
G02X155475000Y-79572700I0J-500000D01*
G01*
X287513000Y-102103046D02*
G75*
G02X287062089Y-102362326I-300000J0D01*
G01*
X287062089Y-106683654D02*
G75*
G02X287513000Y-106942934I150911J-259280D01*
G01*
X288013000Y-110923280D02*
G75*
G02X287513000Y-110423280I0J500000D01*
G01*
X249413000Y-22422800D02*
G75*
G02X249913000Y-21922800I500000J0D01*
G01*
X155475000Y-79572700D02*
X155475000Y-91373300D01*
X155475000Y-91373300D02*
G75*
G02X154975000Y-91873300I-500000J0D01*
G01*
X139874000Y-91373300D02*
X139874000Y-79572700D01*
X243580000Y-98622700D02*
X243580000Y-110423280D01*
X283563000Y-110923280D02*
X268963000Y-110923280D01*
X115330300Y-108895940D02*
G75*
G02X115830300Y-108395940I500000J0D01*
G01*
X268963000Y-110923280D02*
G75*
G02X268463000Y-110423280I0J500000D01*
G01*
X115830300Y-108395940D02*
X117495500Y-108395940D01*
X288013000Y-98122700D02*
X302613000Y-98122700D01*
X117995500Y-113102188D02*
G75*
G02X117495500Y-113602188I-500000J0D01*
G01*
X227981000Y-98622700D02*
G75*
G02X228481000Y-98122700I500000J0D01*
G01*
X302613000Y-110923280D02*
X288013000Y-110923280D01*
X139874000Y-79572700D02*
G75*
G02X140374000Y-79072700I500000J0D01*
G01*
X284063000Y-110423280D02*
G75*
G02X283563000Y-110923280I-500000J0D01*
G01*
X140374000Y-79072700D02*
X154975000Y-79072700D01*
X321663000Y-110923280D02*
X307063000Y-110923280D01*
X66869100Y-110923280D02*
X52268300Y-110923280D01*
X117995500Y-108895940D02*
X117995500Y-113102188D01*
X227981000Y-110423280D02*
X227981000Y-98622700D01*
X283563000Y-98122700D02*
G75*
G02X284063000Y-98622700I0J-500000D01*
G01*
X40363400Y-34723300D02*
G75*
G02X39863400Y-34223300I0J500000D01*
G01*
X226413000Y-34723300D02*
X211813000Y-34723300D01*
X192263000Y-22422800D02*
G75*
G02X192763000Y-21922800I500000J0D01*
G01*
X307063000Y-34723300D02*
G75*
G02X306563000Y-34223300I0J500000D01*
G01*
X306563000Y-34223300D02*
X306563000Y-22422800D01*
X307063000Y-21922800D02*
X321663000Y-21922800D01*
X211813000Y-34723300D02*
G75*
G02X211313000Y-34223300I0J500000D01*
G01*
X211313000Y-22422800D02*
G75*
G02X211813000Y-21922800I500000J0D01*
G01*
X321663000Y-21922800D02*
G75*
G02X322163000Y-22422800I0J-500000D01*
G01*
X54962800Y-34723300D02*
X40363400Y-34723300D01*
X112611400Y-34223300D02*
G75*
G02X112111400Y-34723300I-500000J0D01*
G01*
X211313000Y-34223300D02*
X211313000Y-22422800D01*
X293588000Y-22422800D02*
X293588000Y-34223300D01*
X131661000Y-22422800D02*
X131661000Y-34223300D01*
X131161000Y-34723300D02*
X116563300Y-34723300D01*
X116563300Y-34723300D02*
G75*
G02X116063300Y-34223300I0J500000D01*
G01*
X116063300Y-22422800D02*
G75*
G02X116563300Y-21922800I500000J0D01*
G01*
X93562800Y-34223300D02*
G75*
G02X93062800Y-34723300I-500000J0D01*
G01*
X93062800Y-34723300D02*
X78463300Y-34723300D01*
X97513300Y-21922800D02*
X112111400Y-21922800D01*
X55462800Y-34223300D02*
G75*
G02X54962800Y-34723300I-500000J0D01*
G01*
X322163000Y-22422800D02*
X322163000Y-34223300D01*
X40363400Y-21922800D02*
X54962800Y-21922800D01*
X97013300Y-22422800D02*
G75*
G02X97513300Y-21922800I500000J0D01*
G01*
X278488000Y-21922800D02*
X293088000Y-21922800D01*
X293588000Y-34223300D02*
G75*
G02X293088000Y-34723300I-500000J0D01*
G01*
X112111400Y-21922800D02*
G75*
G02X112611400Y-22422800I0J-500000D01*
G01*
X116063300Y-34223300D02*
X116063300Y-22422800D01*
X78463300Y-34723300D02*
G75*
G02X77963300Y-34223300I0J500000D01*
G01*
X77963300Y-34223300D02*
X77963300Y-22422800D01*
X77963300Y-22422800D02*
G75*
G02X78463300Y-21922800I500000J0D01*
G01*
X78463300Y-21922800D02*
X93062800Y-21922800D01*
X93062800Y-21922800D02*
G75*
G02X93562800Y-22422800I0J-500000D01*
G01*
X192263000Y-34223300D02*
X192263000Y-22422800D01*
X306563000Y-22422800D02*
G75*
G02X307063000Y-21922800I500000J0D01*
G01*
X112611400Y-22422800D02*
X112611400Y-34223300D01*
X321663000Y-34723300D02*
X307063000Y-34723300D01*
X278488000Y-34723300D02*
G75*
G02X277988000Y-34223300I0J500000D01*
G01*
X97013300Y-34223300D02*
X97013300Y-22422800D01*
X293088000Y-34723300D02*
X278488000Y-34723300D01*
X277988000Y-22422800D02*
G75*
G02X278488000Y-21922800I500000J0D01*
G01*
X293088000Y-21922800D02*
G75*
G02X293588000Y-22422800I0J-500000D01*
G01*
X54962800Y-21922800D02*
G75*
G02X55462800Y-22422800I0J-500000D01*
G01*
X207863000Y-22422800D02*
X207863000Y-34223300D01*
X207863000Y-34223300D02*
G75*
G02X207363000Y-34723300I-500000J0D01*
G01*
X192763000Y-21922800D02*
X207363000Y-21922800D01*
X322163000Y-34223300D02*
G75*
G02X321663000Y-34723300I-500000J0D01*
G01*
X226913000Y-22422800D02*
X226913000Y-34223300D01*
X211813000Y-21922800D02*
X226413000Y-21922800D01*
X226913000Y-34223300D02*
G75*
G02X226413000Y-34723300I-500000J0D01*
G01*
X277988000Y-34223300D02*
X277988000Y-22422800D01*
X112111400Y-34723300D02*
X97513300Y-34723300D01*
X97513300Y-34723300D02*
G75*
G02X97013300Y-34223300I0J500000D01*
G01*
X39863400Y-34223300D02*
X39863400Y-22422800D01*
X116563300Y-21922800D02*
X131161000Y-21922800D01*
X131161000Y-21922800D02*
G75*
G02X131661000Y-22422800I0J-500000D01*
G01*
X131661000Y-34223300D02*
G75*
G02X131161000Y-34723300I-500000J0D01*
G01*
X207363000Y-34723300D02*
X192763000Y-34723300D01*
X192763000Y-34723300D02*
G75*
G02X192263000Y-34223300I0J500000D01*
G01*
X207363000Y-21922800D02*
G75*
G02X207863000Y-22422800I0J-500000D01*
G01*
X55462800Y-22422800D02*
X55462800Y-34223300D01*
X39863400Y-22422800D02*
G75*
G02X40363400Y-21922800I500000J0D01*
G01*
X226413000Y-21922800D02*
G75*
G02X226913000Y-22422800I0J-500000D01*
G01*
X169263000Y-34723300D02*
X154663000Y-34723300D01*
X135112000Y-34223300D02*
X135112000Y-22422800D01*
X206429000Y-113602188D02*
G75*
G02X205929000Y-113102188I0J500000D01*
G01*
X205929000Y-113102188D02*
X205929000Y-108895940D01*
X205929000Y-108895940D02*
G75*
G02X206429000Y-108395940I500000J0D01*
G01*
X77963300Y-110423280D02*
X77963300Y-98622700D01*
X93062800Y-98122700D02*
G75*
G02X93562800Y-98622700I0J-500000D01*
G01*
X135612000Y-21922800D02*
X150213000Y-21922800D01*
X188313000Y-34723300D02*
X173713000Y-34723300D01*
X230363000Y-34223300D02*
X230363000Y-22422800D01*
X206429000Y-108395940D02*
X208094000Y-108395940D01*
X208594000Y-113102188D02*
G75*
G02X208094000Y-113602188I-500000J0D01*
G01*
X135112000Y-22422800D02*
G75*
G02X135612000Y-21922800I500000J0D01*
G01*
X173213000Y-34223300D02*
X173213000Y-22422800D01*
X78463300Y-98122700D02*
X93062800Y-98122700D01*
X208094000Y-113602188D02*
X206429000Y-113602188D01*
X265013000Y-98622700D02*
X265013000Y-110423280D01*
X51768300Y-98622700D02*
G75*
G02X52268300Y-98122700I500000J0D01*
G01*
X93562800Y-110423280D02*
G75*
G02X93062800Y-110923280I-500000J0D01*
G01*
X78463300Y-110923280D02*
G75*
G02X77963300Y-110423280I0J500000D01*
G01*
X52268300Y-110923280D02*
G75*
G02X51768300Y-110423280I0J500000D01*
G01*
X169263000Y-21922800D02*
G75*
G02X169763000Y-22422800I0J-500000D01*
G01*
X245463000Y-21922800D02*
G75*
G02X245963000Y-22422800I0J-500000D01*
G01*
X245963000Y-34223300D02*
G75*
G02X245463000Y-34723300I-500000J0D01*
G01*
X208094000Y-108395940D02*
G75*
G02X208594000Y-108895940I0J-500000D01*
G01*
X93562800Y-22422800D02*
X93562800Y-34223300D01*
X154663000Y-21922800D02*
X169263000Y-21922800D01*
X169763000Y-34223300D02*
G75*
G02X169263000Y-34723300I-500000J0D01*
G01*
X154163000Y-34223300D02*
X154163000Y-22422800D01*
X188813000Y-34223300D02*
G75*
G02X188313000Y-34723300I-500000J0D01*
G01*
X245963000Y-22422800D02*
X245963000Y-34223300D01*
X230363000Y-22422800D02*
G75*
G02X230863000Y-21922800I500000J0D01*
G01*
X150213000Y-34723300D02*
X135612000Y-34723300D01*
X249913000Y-110923280D02*
G75*
G02X249413000Y-110423280I0J500000D01*
G01*
X230863000Y-34723300D02*
G75*
G02X230363000Y-34223300I0J500000D01*
G01*
X249413000Y-110423280D02*
X249413000Y-98622700D01*
X264513000Y-98122700D02*
G75*
G02X265013000Y-98622700I0J-500000D01*
G01*
X265013000Y-110423280D02*
G75*
G02X264513000Y-110923280I-500000J0D01*
G01*
X150713000Y-22422800D02*
X150713000Y-34223300D01*
X188313000Y-21922800D02*
G75*
G02X188813000Y-22422800I0J-500000D01*
G01*
X208594000Y-108895940D02*
X208594000Y-113102188D01*
X245463000Y-34723300D02*
X230863000Y-34723300D01*
X150213000Y-21922800D02*
G75*
G02X150713000Y-22422800I0J-500000D01*
G01*
X173713000Y-21922800D02*
X188313000Y-21922800D01*
X93062800Y-110923280D02*
X78463300Y-110923280D01*
X135612000Y-34723300D02*
G75*
G02X135112000Y-34223300I0J500000D01*
G01*
X249413000Y-98622700D02*
G75*
G02X249913000Y-98122700I500000J0D01*
G01*
X264513000Y-110923280D02*
X249913000Y-110923280D01*
X51768300Y-110423280D02*
X51768300Y-98622700D01*
X52268300Y-98122700D02*
X66869100Y-98122700D01*
X66869100Y-98122700D02*
G75*
G02X67369100Y-98622700I0J-500000D01*
G01*
X67369100Y-98622700D02*
X67369100Y-110423280D01*
X249913000Y-98122700D02*
X264513000Y-98122700D01*
X173713000Y-34723300D02*
G75*
G02X173213000Y-34223300I0J500000D01*
G01*
X154663000Y-34723300D02*
G75*
G02X154163000Y-34223300I0J500000D01*
G01*
X169763000Y-22422800D02*
X169763000Y-34223300D01*
X188813000Y-22422800D02*
X188813000Y-34223300D01*
X173213000Y-22422800D02*
G75*
G02X173713000Y-21922800I500000J0D01*
G01*
X77963300Y-98622700D02*
G75*
G02X78463300Y-98122700I500000J0D01*
G01*
X154163000Y-22422800D02*
G75*
G02X154663000Y-21922800I500000J0D01*
G01*
X93562800Y-98622700D02*
X93562800Y-110423280D01*
X230863000Y-21922800D02*
X245463000Y-21922800D01*
X150713000Y-34223300D02*
G75*
G02X150213000Y-34723300I-500000J0D01*
G01*
X290705000Y-72823300D02*
X276104000Y-72823300D01*
X323888000Y-112048671D02*
G75*
G02X321888000Y-114048671I-2000000J0D01*
G01*
X321888000Y-114048671D02*
X21088084Y-114048671D01*
X126887900Y-104522990D02*
G75*
G03X126887900Y-104522990I-3025000J0D01*
G01*
X236438000Y-41472800D02*
X236438000Y-53273300D01*
X291205000Y-60522800D02*
X291205000Y-72323300D01*
X144637000Y-41472800D02*
G75*
G02X145137000Y-40972800I500000J0D01*
G01*
X19088084Y-20798600D02*
G75*
G02X21088084Y-18798600I2000000J0D01*
G01*
X209564500Y-104522990D02*
G75*
G03X209564500Y-104522990I-2500000J0D01*
G01*
X282034500Y-47373050D02*
G75*
G03X282034500Y-47373050I-2500000J0D01*
G01*
X117287900Y-105647990D02*
G75*
G02X116787900Y-105147990I0J500000D01*
G01*
X119037900Y-103897990D02*
X119037900Y-105147990D01*
X130937900Y-103897990D02*
X130937900Y-105147990D01*
X130937900Y-105147990D02*
G75*
G02X130437900Y-105647990I-500000J0D01*
G01*
X129187900Y-105647990D02*
G75*
G02X128687900Y-105147990I0J500000D01*
G01*
X119037900Y-105147990D02*
G75*
G02X118537900Y-105647990I-500000J0D01*
G01*
X116787900Y-105147990D02*
X116787900Y-103897990D01*
X235938000Y-40972800D02*
G75*
G02X236438000Y-41472800I0J-500000D01*
G01*
X117287900Y-103397990D02*
X118537900Y-103397990D01*
X220838000Y-53273300D02*
X220838000Y-41472800D01*
X128687900Y-105147990D02*
X128687900Y-103897990D01*
X140688000Y-40972800D02*
G75*
G02X141188000Y-41472800I0J-500000D01*
G01*
X129187900Y-103397990D02*
X130437900Y-103397990D01*
X236438000Y-53273300D02*
G75*
G02X235938000Y-53773300I-500000J0D01*
G01*
X141188000Y-41472800D02*
X141188000Y-53273300D01*
X126088000Y-40972800D02*
X140688000Y-40972800D01*
X290705000Y-60022800D02*
G75*
G02X291205000Y-60522800I0J-500000D01*
G01*
X130437900Y-103397990D02*
G75*
G02X130937900Y-103897990I0J-500000D01*
G01*
X220838000Y-41472800D02*
G75*
G02X221338000Y-40972800I500000J0D01*
G01*
X221338000Y-40972800D02*
X235938000Y-40972800D01*
X140688000Y-53773300D02*
X126088000Y-53773300D01*
X276104000Y-72823300D02*
G75*
G02X275604000Y-72323300I0J500000D01*
G01*
X145137000Y-40972800D02*
X159738000Y-40972800D01*
X125588000Y-53273300D02*
X125588000Y-41472800D01*
X145137000Y-53773300D02*
G75*
G02X144637000Y-53273300I0J500000D01*
G01*
X128687900Y-103897990D02*
G75*
G02X129187900Y-103397990I500000J0D01*
G01*
X116787900Y-103897990D02*
G75*
G02X117287900Y-103397990I500000J0D01*
G01*
X118537900Y-103397990D02*
G75*
G02X119037900Y-103897990I0J-500000D01*
G01*
X221338000Y-53773300D02*
G75*
G02X220838000Y-53273300I0J500000D01*
G01*
X126088000Y-53773300D02*
G75*
G02X125588000Y-53273300I0J500000D01*
G01*
X291205000Y-72323300D02*
G75*
G02X290705000Y-72823300I-500000J0D01*
G01*
X144637000Y-53273300D02*
X144637000Y-41472800D01*
X275604000Y-72323300D02*
X275604000Y-60522800D01*
X74012800Y-34723300D02*
X59413300Y-34723300D01*
X159738000Y-53773300D02*
X145137000Y-53773300D01*
X74512800Y-34223300D02*
G75*
G02X74012800Y-34723300I-500000J0D01*
G01*
X58913300Y-34223300D02*
X58913300Y-22422800D01*
X160238000Y-41472800D02*
X160238000Y-53273300D01*
X19088084Y-112048671D02*
X19088084Y-20798600D01*
X276104000Y-60022800D02*
X290705000Y-60022800D01*
X160238000Y-53273300D02*
G75*
G02X159738000Y-53773300I-500000J0D01*
G01*
X59413300Y-34723300D02*
G75*
G02X58913300Y-34223300I0J500000D01*
G01*
X130437900Y-105647990D02*
X129187900Y-105647990D01*
X118537900Y-105647990D02*
X117287900Y-105647990D01*
X235938000Y-53773300D02*
X221338000Y-53773300D01*
X275604000Y-60522800D02*
G75*
G02X276104000Y-60022800I500000J0D01*
G01*
X21088084Y-114048671D02*
G75*
G02X19088084Y-112048671I0J2000000D01*
G01*
X159738000Y-40972800D02*
G75*
G02X160238000Y-41472800I0J-500000D01*
G01*
X21088084Y-18798600D02*
X321888000Y-18798600D01*
X141188000Y-53273300D02*
G75*
G02X140688000Y-53773300I-500000J0D01*
G01*
X125588000Y-41472800D02*
G75*
G02X126088000Y-40972800I500000J0D01*
G01*
X321888000Y-18798600D02*
G75*
G02X323888000Y-20798600I0J-2000000D01*
G01*
X323888000Y-20798600D02*
X323888000Y-112048671D01*
X274538000Y-41472800D02*
X274538000Y-53273300D01*
X258938000Y-41472800D02*
G75*
G02X259438000Y-40972800I500000J0D01*
G01*
X307063000Y-40972800D02*
X321663000Y-40972800D01*
X301217000Y-32696000D02*
X301217000Y-36903700D01*
X20813390Y-22422800D02*
G75*
G02X21313390Y-21922800I500000J0D01*
G01*
X254988000Y-40972800D02*
G75*
G02X255488000Y-41472800I0J-500000D01*
G01*
X259438000Y-53773300D02*
G75*
G02X258938000Y-53273300I0J500000D01*
G01*
X274538000Y-53273300D02*
G75*
G02X274038000Y-53773300I-500000J0D01*
G01*
X274038000Y-40972800D02*
G75*
G02X274538000Y-41472800I0J-500000D01*
G01*
X21313390Y-21922800D02*
X35912800Y-21922800D01*
X36412800Y-34223300D02*
G75*
G02X35912800Y-34723300I-500000J0D01*
G01*
X35912800Y-34723300D02*
X21313390Y-34723300D01*
X322163000Y-41472800D02*
X322163000Y-53273300D01*
X240388000Y-53773300D02*
G75*
G02X239888000Y-53273300I0J500000D01*
G01*
X239888000Y-41472800D02*
G75*
G02X240388000Y-40972800I500000J0D01*
G01*
X21313390Y-34723300D02*
G75*
G02X20813390Y-34223300I0J500000D01*
G01*
X321663000Y-40972800D02*
G75*
G02X322163000Y-41472800I0J-500000D01*
G01*
X274038000Y-53773300D02*
X259438000Y-53773300D01*
X297850000Y-53773300D02*
X283249000Y-53773300D01*
X240388000Y-40972800D02*
X254988000Y-40972800D01*
X282749000Y-41472800D02*
G75*
G02X283249000Y-40972800I500000J0D01*
G01*
X255488000Y-53273300D02*
G75*
G02X254988000Y-53773300I-500000J0D01*
G01*
X283249000Y-40972800D02*
X297850000Y-40972800D01*
X298350000Y-53273300D02*
G75*
G02X297850000Y-53773300I-500000J0D01*
G01*
X283249000Y-53773300D02*
G75*
G02X282749000Y-53273300I0J500000D01*
G01*
X270858000Y-37403700D02*
G75*
G02X270358000Y-36903700I0J500000D01*
G01*
X36412800Y-22422800D02*
X36412800Y-34223300D01*
X306563000Y-41472800D02*
G75*
G02X307063000Y-40972800I500000J0D01*
G01*
X270358000Y-32696000D02*
G75*
G02X270858000Y-32196000I500000J0D01*
G01*
X322163000Y-53273300D02*
G75*
G02X321663000Y-53773300I-500000J0D01*
G01*
X272525000Y-37403700D02*
X270858000Y-37403700D01*
X258938000Y-53273300D02*
X258938000Y-41472800D01*
X270358000Y-36903700D02*
X270358000Y-32696000D01*
X321663000Y-53773300D02*
X307063000Y-53773300D01*
X20813390Y-34223300D02*
X20813390Y-22422800D01*
X298350000Y-41472800D02*
X298350000Y-53273300D01*
X273025000Y-32696000D02*
X273025000Y-36903700D01*
X273025000Y-36903700D02*
G75*
G02X272525000Y-37403700I-500000J0D01*
G01*
X301217000Y-36903700D02*
G75*
G02X300717000Y-37403700I-500000J0D01*
G01*
X255488000Y-41472800D02*
X255488000Y-53273300D01*
X300717000Y-37403700D02*
X299050000Y-37403700D01*
X35912800Y-21922800D02*
G75*
G02X36412800Y-22422800I0J-500000D01*
G01*
X307063000Y-53773300D02*
G75*
G02X306563000Y-53273300I0J500000D01*
G01*
X306563000Y-53273300D02*
X306563000Y-41472800D01*
X270858000Y-32196000D02*
X272525000Y-32196000D01*
X239888000Y-53273300D02*
X239888000Y-41472800D01*
X282749000Y-53273300D02*
X282749000Y-41472800D01*
X297850000Y-40972800D02*
G75*
G02X298350000Y-41472800I0J-500000D01*
G01*
X254988000Y-53773300D02*
X240388000Y-53773300D01*
X259438000Y-40972800D02*
X274038000Y-40972800D01*
X272525000Y-32196000D02*
G75*
G02X273025000Y-32696000I0J-500000D01*
G01*
X300717000Y-32196000D02*
G75*
G02X301217000Y-32696000I0J-500000D01*
G01*
M02*
