G04 #@! TF.FileFunction,Soldermask,Top*
%FSLAX46Y46*%
G04 Gerber Fmt 4.6, Leading zero omitted, Abs format (unit mm)*
G04 Created by KiCad (PCBNEW 4.0.7) date 04/18/18 22:22:27*
%MOMM*%
%LPD*%
G01*
G04 APERTURE LIST*
%ADD10C,0.100000*%
%ADD11C,0.200000*%
%ADD12C,0.500000*%
%ADD13C,2.600000*%
%ADD14C,0.254000*%
G04 APERTURE END LIST*
D10*
D11*
X200190143Y-102847857D02*
X199961572Y-102847857D01*
X199847286Y-102905000D01*
X199790143Y-102962143D01*
X199675857Y-103133571D01*
X199618714Y-103362143D01*
X199618714Y-103819286D01*
X199675857Y-103933571D01*
X199733000Y-103990714D01*
X199847286Y-104047857D01*
X200075857Y-104047857D01*
X200190143Y-103990714D01*
X200247286Y-103933571D01*
X200304429Y-103819286D01*
X200304429Y-103533571D01*
X200247286Y-103419286D01*
X200190143Y-103362143D01*
X200075857Y-103305000D01*
X199847286Y-103305000D01*
X199733000Y-103362143D01*
X199675857Y-103419286D01*
X199618714Y-103533571D01*
X201390143Y-102847857D02*
X200818714Y-102847857D01*
X200761571Y-103419286D01*
X200818714Y-103362143D01*
X200933000Y-103305000D01*
X201218714Y-103305000D01*
X201333000Y-103362143D01*
X201390143Y-103419286D01*
X201447286Y-103533571D01*
X201447286Y-103819286D01*
X201390143Y-103933571D01*
X201333000Y-103990714D01*
X201218714Y-104047857D01*
X200933000Y-104047857D01*
X200818714Y-103990714D01*
X200761571Y-103933571D01*
D12*
X173261334Y-103005143D02*
X174594668Y-106005143D01*
X175928001Y-103005143D01*
X178023239Y-103005143D02*
X178785143Y-103005143D01*
X179166096Y-103148000D01*
X179547048Y-103433714D01*
X179737524Y-104005143D01*
X179737524Y-105005143D01*
X179547048Y-105576571D01*
X179166096Y-105862286D01*
X178785143Y-106005143D01*
X178023239Y-106005143D01*
X177642286Y-105862286D01*
X177261334Y-105576571D01*
X177070858Y-105005143D01*
X177070858Y-104005143D01*
X177261334Y-103433714D01*
X177642286Y-103148000D01*
X178023239Y-103005143D01*
X182213715Y-104576571D02*
X182213715Y-106005143D01*
X180880381Y-103005143D02*
X182213715Y-104576571D01*
X183547048Y-103005143D01*
X184689905Y-105148000D02*
X186594667Y-105148000D01*
X184308952Y-106005143D02*
X185642286Y-103005143D01*
X186975619Y-106005143D01*
X190404190Y-103148000D02*
X190023238Y-103005143D01*
X189451809Y-103005143D01*
X188880381Y-103148000D01*
X188499428Y-103433714D01*
X188308952Y-103719429D01*
X188118476Y-104290857D01*
X188118476Y-104719429D01*
X188308952Y-105290857D01*
X188499428Y-105576571D01*
X188880381Y-105862286D01*
X189451809Y-106005143D01*
X189832761Y-106005143D01*
X190404190Y-105862286D01*
X190594666Y-105719429D01*
X190594666Y-104719429D01*
X189832761Y-104719429D01*
X192308952Y-104433714D02*
X193642285Y-104433714D01*
X194213714Y-106005143D02*
X192308952Y-106005143D01*
X192308952Y-103005143D01*
X194213714Y-103005143D01*
X198213714Y-106005143D02*
X196880381Y-104576571D01*
X195928000Y-106005143D02*
X195928000Y-103005143D01*
X197451809Y-103005143D01*
X197832762Y-103148000D01*
X198023238Y-103290857D01*
X198213714Y-103576571D01*
X198213714Y-104005143D01*
X198023238Y-104290857D01*
X197832762Y-104433714D01*
X197451809Y-104576571D01*
X195928000Y-104576571D01*
D13*
X137287000Y-66675000D03*
D14*
G36*
X141605000Y-102997000D02*
X141351000Y-102997000D01*
X141351000Y-102743000D01*
X141605000Y-102743000D01*
X141605000Y-102997000D01*
X141605000Y-102997000D01*
G37*
X141605000Y-102997000D02*
X141351000Y-102997000D01*
X141351000Y-102743000D01*
X141605000Y-102743000D01*
X141605000Y-102997000D01*
G36*
X141097000Y-104013000D02*
X140843000Y-104013000D01*
X140843000Y-103759000D01*
X141097000Y-103759000D01*
X141097000Y-104013000D01*
X141097000Y-104013000D01*
G37*
X141097000Y-104013000D02*
X140843000Y-104013000D01*
X140843000Y-103759000D01*
X141097000Y-103759000D01*
X141097000Y-104013000D01*
G36*
X140589000Y-105029000D02*
X140335000Y-105029000D01*
X140335000Y-104775000D01*
X140589000Y-104775000D01*
X140589000Y-105029000D01*
X140589000Y-105029000D01*
G37*
X140589000Y-105029000D02*
X140335000Y-105029000D01*
X140335000Y-104775000D01*
X140589000Y-104775000D01*
X140589000Y-105029000D01*
G36*
X140081000Y-106045000D02*
X139827000Y-106045000D01*
X139827000Y-105791000D01*
X140081000Y-105791000D01*
X140081000Y-106045000D01*
X140081000Y-106045000D01*
G37*
X140081000Y-106045000D02*
X139827000Y-106045000D01*
X139827000Y-105791000D01*
X140081000Y-105791000D01*
X140081000Y-106045000D01*
G36*
X142113000Y-104013000D02*
X141859000Y-104013000D01*
X141859000Y-103759000D01*
X142113000Y-103759000D01*
X142113000Y-104013000D01*
X142113000Y-104013000D01*
G37*
X142113000Y-104013000D02*
X141859000Y-104013000D01*
X141859000Y-103759000D01*
X142113000Y-103759000D01*
X142113000Y-104013000D01*
G36*
X142621000Y-105029000D02*
X142367000Y-105029000D01*
X142367000Y-104775000D01*
X142621000Y-104775000D01*
X142621000Y-105029000D01*
X142621000Y-105029000D01*
G37*
X142621000Y-105029000D02*
X142367000Y-105029000D01*
X142367000Y-104775000D01*
X142621000Y-104775000D01*
X142621000Y-105029000D01*
G36*
X143129000Y-106045000D02*
X142875000Y-106045000D01*
X142875000Y-105791000D01*
X143129000Y-105791000D01*
X143129000Y-106045000D01*
X143129000Y-106045000D01*
G37*
X143129000Y-106045000D02*
X142875000Y-106045000D01*
X142875000Y-105791000D01*
X143129000Y-105791000D01*
X143129000Y-106045000D01*
G36*
X141605000Y-105029000D02*
X141351000Y-105029000D01*
X141351000Y-104775000D01*
X141605000Y-104775000D01*
X141605000Y-105029000D01*
X141605000Y-105029000D01*
G37*
X141605000Y-105029000D02*
X141351000Y-105029000D01*
X141351000Y-104775000D01*
X141605000Y-104775000D01*
X141605000Y-105029000D01*
M02*
