M48
;DRILL file {KiCad 4.0.7} date 05/29/18 00:16:55
;FORMAT={-:-/ absolute / inch / decimal}
FMAT,2
INCH,TZ
T1C0.016
T2C0.024
T3C0.030
T4C0.058
T5C0.087
%
G90
G05
M72
T1
X2.05Y-4.32
X2.18Y-3.495
X2.305Y-3.48
X2.365Y-2.31
X2.505Y-2.39
X2.505Y-3.115
X2.555Y-2.245
X2.56Y-2.185
X2.59Y-2.42
X2.615Y-4.15
X2.63Y-2.42
X2.635Y-3.195
X2.655Y-2.205
X2.67Y-2.055
X2.695Y-2.445
X2.8Y-3.405
X2.82Y-2.365
X2.82Y-3.82
X2.875Y-3.9
X2.88Y-3.735
X2.89Y-3.67
X2.895Y-4.045
X2.915Y-2.845
X2.915Y-3.645
X2.93Y-4.045
X2.945Y-3.305
X2.975Y-3.765
X2.995Y-4.585
X3.025Y-5.335
X3.08Y-3.94
X3.09Y-3.285
X3.17Y-3.515
X3.17Y-3.74
X3.2Y-3.905
X3.205Y-3.705
X3.255Y-3.905
X3.26Y-3.815
X3.28Y-3.86
X11.51Y-3.315
T2
X2.7804Y-3.
X2.8001Y-2.9409
X2.8001Y-3.0591
X2.8099Y-5.1807
X2.8099Y-5.3185
X2.8592Y-2.9213
X2.8592Y-3.0787
X2.8592Y-5.1807
X2.8592Y-5.3185
X2.9084Y-5.1807
X2.9084Y-5.3185
X2.9182Y-2.9409
X2.9182Y-3.0591
X2.9379Y-3.
X4.9838Y-5.25
X5.0034Y-5.1909
X5.0034Y-5.3091
X5.0625Y-5.1713
X5.0625Y-5.3287
X5.1216Y-5.1909
X5.1216Y-5.3091
X5.1412Y-5.25
X6.14Y-2.625
X6.1597Y-2.5659
X6.1597Y-2.6841
X6.2188Y-2.5463
X6.2188Y-2.7037
X6.2778Y-2.5659
X6.2778Y-2.6841
X6.2975Y-2.625
X6.8883Y-3.6811
X6.8883Y-3.8189
X6.9375Y-3.6811
X6.9375Y-3.8189
X6.9867Y-3.6811
X6.9867Y-3.8189
X9.2265Y-5.1811
X9.2265Y-5.3189
X9.2757Y-5.1811
X9.2757Y-5.3189
X9.3249Y-5.1811
X9.3249Y-5.3189
X9.89Y-2.625
X9.9097Y-2.5659
X9.9097Y-2.6841
X9.9688Y-2.5463
X9.9688Y-2.7037
X10.0278Y-2.5659
X10.0278Y-2.6841
X10.0475Y-2.625
X12.0796Y-2.9311
X12.0796Y-3.0689
X12.1288Y-2.9311
X12.1288Y-3.0689
X12.1781Y-2.9311
X12.1781Y-3.0689
X12.3265Y-5.1811
X12.3265Y-5.3189
X12.3757Y-5.1811
X12.3757Y-5.3189
X12.4249Y-5.1811
X12.4249Y-5.3189
T3
X2.025Y-3.325
X2.025Y-3.425
X2.225Y-3.325
X2.225Y-3.425
T4
X2.1516Y-2.0925
X2.2453Y-3.5925
X2.2453Y-5.0925
X2.3391Y-2.8425
X2.3391Y-5.0925
X2.3484Y-2.0728
X2.4328Y-3.5925
X2.4422Y-3.5728
X2.4422Y-5.0728
X2.5359Y-2.8228
X2.5359Y-5.0728
X2.6203Y-4.3425
X2.6297Y-3.5728
X2.8172Y-4.3228
X2.9016Y-2.0925
X3.0984Y-2.0728
X3.1828Y-5.0925
X3.2766Y-2.8425
X3.3703Y-5.0925
X3.3797Y-5.0728
X3.4641Y-3.5925
X3.4641Y-5.0925
X3.4734Y-2.8228
X3.5672Y-5.0728
X3.6516Y-2.0925
X3.6609Y-3.5728
X3.6609Y-5.0728
X3.8391Y-4.3425
X3.8484Y-2.0728
X4.0266Y-2.8425
X4.0359Y-4.3228
X4.1203Y-5.0925
X4.2141Y-3.5925
X4.2234Y-2.8228
X4.3172Y-5.0728
X4.4016Y-2.0925
X4.4016Y-5.0925
X4.4109Y-3.5728
X4.5891Y-4.3425
X4.5984Y-2.0728
X4.5984Y-5.0728
X4.7766Y-2.8425
X4.7859Y-4.3228
X4.9641Y-3.5925
X4.9734Y-2.8228
X5.1516Y-2.0925
X5.1609Y-3.5728
X5.3391Y-4.3425
X5.3484Y-2.0728
X5.4328Y-5.0925
X5.5266Y-2.8425
X5.5359Y-4.3228
X5.6297Y-5.0728
X5.7141Y-3.5925
X5.7234Y-2.8228
X5.8078Y-5.0925
X5.9016Y-2.0925
X5.9109Y-3.5728
X6.0047Y-5.0728
X6.0891Y-4.3425
X6.0984Y-2.0728
X6.2766Y-2.8425
X6.2859Y-4.3228
X6.4641Y-3.5925
X6.4734Y-2.8228
X6.6516Y-2.0925
X6.6516Y-5.0925
X6.6609Y-3.5728
X6.7453Y-5.0925
X6.8391Y-4.3425
X6.8484Y-2.0728
X6.8484Y-5.0728
X6.9328Y-5.0925
X6.9422Y-5.0728
X7.0266Y-2.8425
X7.0359Y-4.3228
X7.1297Y-5.0728
X7.2141Y-3.5925
X7.2141Y-5.0925
X7.2234Y-2.8228
X7.4016Y-2.0925
X7.4016Y-5.0925
X7.4109Y-3.5728
X7.4109Y-5.0728
X7.5891Y-4.3425
X7.5984Y-2.0728
X7.5984Y-5.0728
X7.7766Y-2.8425
X7.7859Y-4.3228
X7.9641Y-3.5925
X7.9734Y-2.8228
X8.1516Y-2.0925
X8.1609Y-3.5728
X8.2453Y-5.0925
X8.3391Y-4.3425
X8.3484Y-2.0728
X8.4422Y-5.0728
X8.5266Y-2.8425
X8.5359Y-4.3228
X8.7141Y-3.5925
X8.7234Y-2.8228
X8.8078Y-5.0925
X8.9016Y-2.0925
X8.9109Y-3.5728
X9.0047Y-5.0728
X9.0891Y-4.3425
X9.0984Y-2.0728
X9.2766Y-2.8425
X9.2859Y-4.3228
X9.4641Y-3.5925
X9.4734Y-2.8228
X9.6516Y-2.0925
X9.6516Y-5.0925
X9.6609Y-3.5728
X9.8391Y-4.3425
X9.8391Y-5.0925
X9.8484Y-2.0728
X9.8484Y-5.0728
X10.0266Y-2.8425
X10.0359Y-4.3228
X10.0359Y-5.0728
X10.2141Y-3.5925
X10.2234Y-2.8228
X10.3078Y-5.0925
X10.4016Y-2.0925
X10.4016Y-5.0925
X10.4109Y-3.5728
X10.5047Y-5.0728
X10.5891Y-4.3425
X10.5984Y-2.0728
X10.5984Y-5.0728
X10.7766Y-2.8425
X10.7859Y-4.3228
X10.9641Y-3.5925
X10.9641Y-5.0925
X10.9734Y-2.8228
X11.1516Y-2.0925
X11.1516Y-5.0925
X11.1609Y-3.5728
X11.1609Y-5.0728
X11.3484Y-2.0728
X11.3484Y-5.0728
X11.5266Y-2.8425
X11.6203Y-4.3425
X11.7234Y-2.8228
X11.8172Y-4.3228
X11.9016Y-2.0925
X11.9016Y-5.0925
X12.0984Y-2.0728
X12.0984Y-5.0728
X12.1828Y-3.5925
X12.2766Y-2.0925
X12.3797Y-3.5728
X12.4641Y-2.8425
X12.4734Y-2.0728
X12.6516Y-2.0925
X12.6516Y-4.3425
X12.6516Y-5.0925
X12.6609Y-2.8228
X12.8484Y-2.0728
X12.8484Y-4.3228
X12.8484Y-5.0728
X13.4016Y-2.0925
X13.4016Y-2.8425
X13.4016Y-3.5925
X13.4016Y-4.3425
X13.4016Y-5.0925
X13.5984Y-2.0728
X13.5984Y-2.8228
X13.5984Y-3.5728
X13.5984Y-4.3228
X13.5984Y-5.0728
T2
X2.4377Y-1.9016G85X2.4377Y-1.9252
G05
X2.4377Y-2.0563G85X2.4377Y-2.0996
G05
X2.7779Y-1.9016G85X2.7779Y-1.9252
G05
X2.7779Y-2.0563G85X2.7779Y-2.0996
G05
T5
X2.8592Y-3.G85X2.8592Y-3.
G05
X2.804Y-5.2496G85X2.9143Y-5.2496
G05
X5.0625Y-5.25G85X5.0625Y-5.25
G05
X6.2188Y-2.625G85X6.2188Y-2.625
G05
X6.8824Y-3.75G85X6.9926Y-3.75
G05
X9.2206Y-5.25G85X9.3308Y-5.25
G05
X9.9688Y-2.625G85X9.9688Y-2.625
G05
X12.0737Y-3.G85X12.184Y-3.
G05
X12.3206Y-5.25G85X12.4308Y-5.25
G05
T0
M30
