%TF.GenerationSoftware,KiCad,Pcbnew,4.0.7*%
%TF.CreationDate,2018-04-07T01:42:40-07:00*%
%TF.ProjectId,VoyagerII,566F796167657249492E6B696361645F,rev?*%
%TF.FileFunction,Legend,Bot*%
%FSLAX46Y46*%
G04 Gerber Fmt 4.6, Leading zero omitted, Abs format (unit mm)*
G04 Created by KiCad (PCBNEW 4.0.7) date 04/07/18 01:42:40*
%MOMM*%
%LPD*%
G01*
G04 APERTURE LIST*
%ADD10C,0.100000*%
%ADD11C,0.150000*%
%ADD12C,0.350000*%
%ADD13C,0.650000*%
%ADD14C,0.120000*%
%ADD15C,0.200000*%
%ADD16C,0.127000*%
G04 APERTURE END LIST*
D10*
D11*
X295021000Y-103378000D02*
X295783000Y-103378000D01*
X292354000Y-100457000D02*
X293116000Y-100457000D01*
X292735000Y-100838000D02*
X292735000Y-100076000D01*
X68238428Y-50871381D02*
X68571762Y-50395190D01*
X68809857Y-50871381D02*
X68809857Y-49871381D01*
X68428904Y-49871381D01*
X68333666Y-49919000D01*
X68286047Y-49966619D01*
X68238428Y-50061857D01*
X68238428Y-50204714D01*
X68286047Y-50299952D01*
X68333666Y-50347571D01*
X68428904Y-50395190D01*
X68809857Y-50395190D01*
X67428904Y-50823762D02*
X67524142Y-50871381D01*
X67714619Y-50871381D01*
X67809857Y-50823762D01*
X67857476Y-50728524D01*
X67857476Y-50347571D01*
X67809857Y-50252333D01*
X67714619Y-50204714D01*
X67524142Y-50204714D01*
X67428904Y-50252333D01*
X67381285Y-50347571D01*
X67381285Y-50442810D01*
X67857476Y-50538048D01*
X67047952Y-50204714D02*
X66809857Y-50871381D01*
X66571761Y-50204714D01*
X65476523Y-49966619D02*
X65428904Y-49919000D01*
X65333666Y-49871381D01*
X65095570Y-49871381D01*
X65000332Y-49919000D01*
X64952713Y-49966619D01*
X64905094Y-50061857D01*
X64905094Y-50157095D01*
X64952713Y-50299952D01*
X65524142Y-50871381D01*
X64905094Y-50871381D01*
X64476523Y-50776143D02*
X64428904Y-50823762D01*
X64476523Y-50871381D01*
X64524142Y-50823762D01*
X64476523Y-50776143D01*
X64476523Y-50871381D01*
X63476523Y-50871381D02*
X64047952Y-50871381D01*
X63762238Y-50871381D02*
X63762238Y-49871381D01*
X63857476Y-50014238D01*
X63952714Y-50109476D01*
X64047952Y-50157095D01*
X164679238Y-140311143D02*
X164726857Y-140358762D01*
X164869714Y-140406381D01*
X164964952Y-140406381D01*
X165107810Y-140358762D01*
X165203048Y-140263524D01*
X165250667Y-140168286D01*
X165298286Y-139977810D01*
X165298286Y-139834952D01*
X165250667Y-139644476D01*
X165203048Y-139549238D01*
X165107810Y-139454000D01*
X164964952Y-139406381D01*
X164869714Y-139406381D01*
X164726857Y-139454000D01*
X164679238Y-139501619D01*
X163774476Y-140406381D02*
X164250667Y-140406381D01*
X164250667Y-139406381D01*
X163441143Y-140406381D02*
X163441143Y-139406381D01*
X162869714Y-140406381D02*
X163298286Y-139834952D01*
X162869714Y-139406381D02*
X163441143Y-139977810D01*
X165099904Y-133231000D02*
X165195142Y-133183381D01*
X165337999Y-133183381D01*
X165480857Y-133231000D01*
X165576095Y-133326238D01*
X165623714Y-133421476D01*
X165671333Y-133611952D01*
X165671333Y-133754810D01*
X165623714Y-133945286D01*
X165576095Y-134040524D01*
X165480857Y-134135762D01*
X165337999Y-134183381D01*
X165242761Y-134183381D01*
X165099904Y-134135762D01*
X165052285Y-134088143D01*
X165052285Y-133754810D01*
X165242761Y-133754810D01*
X164623714Y-134183381D02*
X164623714Y-133183381D01*
X164052285Y-134183381D01*
X164052285Y-133183381D01*
X163576095Y-134183381D02*
X163576095Y-133183381D01*
X163338000Y-133183381D01*
X163195142Y-133231000D01*
X163099904Y-133326238D01*
X163052285Y-133421476D01*
X163004666Y-133611952D01*
X163004666Y-133754810D01*
X163052285Y-133945286D01*
X163099904Y-134040524D01*
X163195142Y-134135762D01*
X163338000Y-134183381D01*
X163576095Y-134183381D01*
X173339000Y-138501381D02*
X173339000Y-137501381D01*
X172958047Y-137501381D01*
X172862809Y-137549000D01*
X172815190Y-137596619D01*
X172767571Y-137691857D01*
X172767571Y-137834714D01*
X172815190Y-137929952D01*
X172862809Y-137977571D01*
X172958047Y-138025190D01*
X173339000Y-138025190D01*
X172339000Y-138501381D02*
X172339000Y-137501381D01*
X172100905Y-137501381D01*
X171958047Y-137549000D01*
X171862809Y-137644238D01*
X171815190Y-137739476D01*
X171767571Y-137929952D01*
X171767571Y-138072810D01*
X171815190Y-138263286D01*
X171862809Y-138358524D01*
X171958047Y-138453762D01*
X172100905Y-138501381D01*
X172339000Y-138501381D01*
X171339000Y-138501381D02*
X171339000Y-137501381D01*
X173926333Y-134961381D02*
X173593000Y-135961381D01*
X173259666Y-134961381D01*
X172354904Y-135866143D02*
X172402523Y-135913762D01*
X172545380Y-135961381D01*
X172640618Y-135961381D01*
X172783476Y-135913762D01*
X172878714Y-135818524D01*
X172926333Y-135723286D01*
X172973952Y-135532810D01*
X172973952Y-135389952D01*
X172926333Y-135199476D01*
X172878714Y-135104238D01*
X172783476Y-135009000D01*
X172640618Y-134961381D01*
X172545380Y-134961381D01*
X172402523Y-135009000D01*
X172354904Y-135056619D01*
X171354904Y-135866143D02*
X171402523Y-135913762D01*
X171545380Y-135961381D01*
X171640618Y-135961381D01*
X171783476Y-135913762D01*
X171878714Y-135818524D01*
X171926333Y-135723286D01*
X171973952Y-135532810D01*
X171973952Y-135389952D01*
X171926333Y-135199476D01*
X171878714Y-135104238D01*
X171783476Y-135009000D01*
X171640618Y-134961381D01*
X171545380Y-134961381D01*
X171402523Y-135009000D01*
X171354904Y-135056619D01*
D12*
X73152000Y-75946000D02*
X48006000Y-65278000D01*
X72898000Y-75946000D02*
X48006000Y-81534000D01*
D13*
X256862666Y-102290905D02*
X254529333Y-107290905D01*
X252196000Y-102290905D01*
X248529333Y-102290905D02*
X247196000Y-102290905D01*
X246529333Y-102529000D01*
X245862666Y-103005190D01*
X245529333Y-103957571D01*
X245529333Y-105624238D01*
X245862666Y-106576619D01*
X246529333Y-107052810D01*
X247196000Y-107290905D01*
X248529333Y-107290905D01*
X249196000Y-107052810D01*
X249862666Y-106576619D01*
X250196000Y-105624238D01*
X250196000Y-103957571D01*
X249862666Y-103005190D01*
X249196000Y-102529000D01*
X248529333Y-102290905D01*
X241196000Y-104909952D02*
X241196000Y-107290905D01*
X243529333Y-102290905D02*
X241196000Y-104909952D01*
X238862667Y-102290905D01*
X236862667Y-105862333D02*
X233529333Y-105862333D01*
X237529333Y-107290905D02*
X235196000Y-102290905D01*
X232862667Y-107290905D01*
X226862667Y-102529000D02*
X227529333Y-102290905D01*
X228529333Y-102290905D01*
X229529333Y-102529000D01*
X230196000Y-103005190D01*
X230529333Y-103481381D01*
X230862667Y-104433762D01*
X230862667Y-105148048D01*
X230529333Y-106100429D01*
X230196000Y-106576619D01*
X229529333Y-107052810D01*
X228529333Y-107290905D01*
X227862667Y-107290905D01*
X226862667Y-107052810D01*
X226529333Y-106814714D01*
X226529333Y-105148048D01*
X227862667Y-105148048D01*
X223529333Y-104671857D02*
X221196000Y-104671857D01*
X220196000Y-107290905D02*
X223529333Y-107290905D01*
X223529333Y-102290905D01*
X220196000Y-102290905D01*
X213196000Y-107290905D02*
X215529334Y-104909952D01*
X217196000Y-107290905D02*
X217196000Y-102290905D01*
X214529334Y-102290905D01*
X213862667Y-102529000D01*
X213529334Y-102767095D01*
X213196000Y-103243286D01*
X213196000Y-103957571D01*
X213529334Y-104433762D01*
X213862667Y-104671857D01*
X214529334Y-104909952D01*
X217196000Y-104909952D01*
D12*
X308102000Y-75819000D02*
X332994000Y-82423000D01*
X238506000Y-133223000D02*
X184277000Y-142494000D01*
X238506000Y-133223000D02*
X269875000Y-142621000D01*
X51816000Y-104521000D02*
X96774000Y-142494000D01*
X176276000Y-94869000D02*
X51816000Y-104521000D01*
X51816000Y-104521000D02*
X238506000Y-133223000D01*
X73152000Y-75819000D02*
X51816000Y-104521000D01*
X176276000Y-94869000D02*
X308102000Y-75819000D01*
X73152000Y-75819000D02*
X176276000Y-94869000D01*
X329311000Y-104394000D02*
X238506000Y-133223000D01*
X308102000Y-75819000D02*
X329311000Y-104394000D01*
X238506000Y-133223000D02*
X308102000Y-75819000D01*
X176276000Y-94869000D02*
X238506000Y-133223000D01*
D14*
X287139000Y-102698000D02*
X286139000Y-102698000D01*
X286139000Y-104058000D02*
X287139000Y-104058000D01*
X69260000Y-58920000D02*
X69260000Y-57920000D01*
X67900000Y-57920000D02*
X67900000Y-58920000D01*
X64344000Y-57920000D02*
X64344000Y-58920000D01*
X65704000Y-58920000D02*
X65704000Y-57920000D01*
X160663000Y-135427000D02*
X161663000Y-135427000D01*
X161663000Y-134067000D02*
X160663000Y-134067000D01*
X171315000Y-130765000D02*
X170315000Y-130765000D01*
X170315000Y-132125000D02*
X171315000Y-132125000D01*
X171315000Y-128225000D02*
X170315000Y-128225000D01*
X170315000Y-129585000D02*
X171315000Y-129585000D01*
X287139000Y-100158000D02*
X286139000Y-100158000D01*
X286139000Y-101518000D02*
X287139000Y-101518000D01*
X154731000Y-127246000D02*
X154731000Y-126246000D01*
X153371000Y-126246000D02*
X153371000Y-127246000D01*
X113884000Y-124175000D02*
X113884000Y-123475000D01*
X112684000Y-123475000D02*
X112684000Y-124175000D01*
X268189000Y-67025000D02*
X268189000Y-66325000D01*
X266989000Y-66325000D02*
X266989000Y-67025000D01*
X66259000Y-124175000D02*
X66259000Y-123475000D01*
X65059000Y-123475000D02*
X65059000Y-124175000D01*
X315814000Y-67025000D02*
X315814000Y-66325000D01*
X314614000Y-66325000D02*
X314614000Y-67025000D01*
X80102000Y-67025000D02*
X80102000Y-66325000D01*
X78902000Y-66325000D02*
X78902000Y-67025000D01*
X304384000Y-124175000D02*
X304384000Y-123475000D01*
X303184000Y-123475000D02*
X303184000Y-124175000D01*
X125314000Y-67025000D02*
X125314000Y-66325000D01*
X124114000Y-66325000D02*
X124114000Y-67025000D01*
X256759000Y-124175000D02*
X256759000Y-123475000D01*
X255559000Y-123475000D02*
X255559000Y-124175000D01*
X172939000Y-67025000D02*
X172939000Y-66325000D01*
X171739000Y-66325000D02*
X171739000Y-67025000D01*
X220691000Y-124175000D02*
X220691000Y-123475000D01*
X219491000Y-123475000D02*
X219491000Y-124175000D01*
X220564000Y-67025000D02*
X220564000Y-66325000D01*
X219364000Y-66325000D02*
X219364000Y-67025000D01*
X177130000Y-124175000D02*
X177130000Y-123475000D01*
X175930000Y-123475000D02*
X175930000Y-124175000D01*
X290668000Y-102585000D02*
X290668000Y-101885000D01*
X289468000Y-101885000D02*
X289468000Y-102585000D01*
X297145000Y-99410000D02*
X297145000Y-98710000D01*
X295945000Y-98710000D02*
X295945000Y-99410000D01*
X299685000Y-95600000D02*
X299685000Y-94900000D01*
X298485000Y-94900000D02*
X298485000Y-95600000D01*
X292577000Y-89189000D02*
X291877000Y-89189000D01*
X291877000Y-90389000D02*
X292577000Y-90389000D01*
X297399000Y-95600000D02*
X297399000Y-94900000D01*
X296199000Y-94900000D02*
X296199000Y-95600000D01*
X292577000Y-87030000D02*
X291877000Y-87030000D01*
X291877000Y-88230000D02*
X292577000Y-88230000D01*
X299304000Y-99410000D02*
X299304000Y-98710000D01*
X298104000Y-98710000D02*
X298104000Y-99410000D01*
X136113000Y-133131000D02*
X135413000Y-133131000D01*
X135413000Y-134331000D02*
X136113000Y-134331000D01*
X147986000Y-123409000D02*
X148686000Y-123409000D01*
X148686000Y-122209000D02*
X147986000Y-122209000D01*
X153451000Y-130968000D02*
X153451000Y-131668000D01*
X154651000Y-131668000D02*
X154651000Y-130968000D01*
X137064000Y-138522000D02*
X137764000Y-138522000D01*
X137764000Y-137322000D02*
X137064000Y-137322000D01*
X137125000Y-130906000D02*
X137125000Y-130206000D01*
X135925000Y-130206000D02*
X135925000Y-130906000D01*
X131603000Y-134331000D02*
X132303000Y-134331000D01*
X132303000Y-133131000D02*
X131603000Y-133131000D01*
X287964000Y-98624000D02*
X288534000Y-98624000D01*
X294204000Y-98004000D02*
X294204000Y-98624000D01*
X293634000Y-92384000D02*
X294204000Y-92384000D01*
X294204000Y-92384000D02*
X294204000Y-92954000D01*
X288534000Y-92384000D02*
X287964000Y-92384000D01*
X287964000Y-92384000D02*
X287964000Y-92954000D01*
X293634000Y-98624000D02*
X294204000Y-98624000D01*
X309693750Y-137921875D02*
X309693750Y-135921875D01*
X309693750Y-135921875D02*
X313593750Y-135921875D01*
X309693750Y-137921875D02*
X313593750Y-137921875D01*
X312943750Y-133218750D02*
X310943750Y-133218750D01*
X310943750Y-133218750D02*
X310943750Y-129318750D01*
X312943750Y-133218750D02*
X312943750Y-129318750D01*
X279606250Y-137981250D02*
X277606250Y-137981250D01*
X277606250Y-137981250D02*
X277606250Y-134081250D01*
X279606250Y-137981250D02*
X279606250Y-134081250D01*
X258175000Y-135600000D02*
X256175000Y-135600000D01*
X256175000Y-135600000D02*
X256175000Y-131700000D01*
X258175000Y-135600000D02*
X258175000Y-131700000D01*
D11*
X67071000Y-63807000D02*
X65771000Y-63807000D01*
X67071000Y-60907000D02*
X67071000Y-63807000D01*
X65771000Y-60907000D02*
X67071000Y-60907000D01*
X65771000Y-60907000D02*
X65771000Y-63807000D01*
D14*
X61731000Y-61757000D02*
X61731000Y-62957000D01*
X63491000Y-62957000D02*
X63491000Y-61757000D01*
X161736000Y-139336000D02*
X159836000Y-139336000D01*
X160336000Y-137016000D02*
X161736000Y-137016000D01*
D15*
X120062500Y-124825000D02*
X120062500Y-122825000D01*
X120062500Y-122825000D02*
X118062500Y-122825000D01*
X118062500Y-122825000D02*
X118062500Y-124325000D01*
X118062500Y-124325000D02*
X118562500Y-124825000D01*
X118562500Y-124825000D02*
X120062500Y-124825000D01*
X120062500Y-126325000D02*
X118062500Y-126325000D01*
X116562500Y-124325000D02*
X116562500Y-123325000D01*
X120062500Y-121325000D02*
X118062500Y-121325000D01*
X121562500Y-124325000D02*
X121562500Y-123325000D01*
X262937500Y-67675000D02*
X262937500Y-65675000D01*
X262937500Y-65675000D02*
X260937500Y-65675000D01*
X260937500Y-65675000D02*
X260937500Y-67175000D01*
X260937500Y-67175000D02*
X261437500Y-67675000D01*
X261437500Y-67675000D02*
X262937500Y-67675000D01*
X262937500Y-69175000D02*
X260937500Y-69175000D01*
X259437500Y-67175000D02*
X259437500Y-66175000D01*
X262937500Y-64175000D02*
X260937500Y-64175000D01*
X264437500Y-67175000D02*
X264437500Y-66175000D01*
X72437500Y-124825000D02*
X72437500Y-122825000D01*
X72437500Y-122825000D02*
X70437500Y-122825000D01*
X70437500Y-122825000D02*
X70437500Y-124325000D01*
X70437500Y-124325000D02*
X70937500Y-124825000D01*
X70937500Y-124825000D02*
X72437500Y-124825000D01*
X72437500Y-126325000D02*
X70437500Y-126325000D01*
X68937500Y-124325000D02*
X68937500Y-123325000D01*
X72437500Y-121325000D02*
X70437500Y-121325000D01*
X73937500Y-124325000D02*
X73937500Y-123325000D01*
X310562500Y-67675000D02*
X310562500Y-65675000D01*
X310562500Y-65675000D02*
X308562500Y-65675000D01*
X308562500Y-65675000D02*
X308562500Y-67175000D01*
X308562500Y-67175000D02*
X309062500Y-67675000D01*
X309062500Y-67675000D02*
X310562500Y-67675000D01*
X310562500Y-69175000D02*
X308562500Y-69175000D01*
X307062500Y-67175000D02*
X307062500Y-66175000D01*
X310562500Y-64175000D02*
X308562500Y-64175000D01*
X312062500Y-67175000D02*
X312062500Y-66175000D01*
X74818750Y-67675000D02*
X74818750Y-65675000D01*
X74818750Y-65675000D02*
X72818750Y-65675000D01*
X72818750Y-65675000D02*
X72818750Y-67175000D01*
X72818750Y-67175000D02*
X73318750Y-67675000D01*
X73318750Y-67675000D02*
X74818750Y-67675000D01*
X74818750Y-69175000D02*
X72818750Y-69175000D01*
X71318750Y-67175000D02*
X71318750Y-66175000D01*
X74818750Y-64175000D02*
X72818750Y-64175000D01*
X76318750Y-67175000D02*
X76318750Y-66175000D01*
X310562500Y-124825000D02*
X310562500Y-122825000D01*
X310562500Y-122825000D02*
X308562500Y-122825000D01*
X308562500Y-122825000D02*
X308562500Y-124325000D01*
X308562500Y-124325000D02*
X309062500Y-124825000D01*
X309062500Y-124825000D02*
X310562500Y-124825000D01*
X310562500Y-126325000D02*
X308562500Y-126325000D01*
X307062500Y-124325000D02*
X307062500Y-123325000D01*
X310562500Y-121325000D02*
X308562500Y-121325000D01*
X312062500Y-124325000D02*
X312062500Y-123325000D01*
X120062500Y-67675000D02*
X120062500Y-65675000D01*
X120062500Y-65675000D02*
X118062500Y-65675000D01*
X118062500Y-65675000D02*
X118062500Y-67175000D01*
X118062500Y-67175000D02*
X118562500Y-67675000D01*
X118562500Y-67675000D02*
X120062500Y-67675000D01*
X120062500Y-69175000D02*
X118062500Y-69175000D01*
X116562500Y-67175000D02*
X116562500Y-66175000D01*
X120062500Y-64175000D02*
X118062500Y-64175000D01*
X121562500Y-67175000D02*
X121562500Y-66175000D01*
X262937500Y-124825000D02*
X262937500Y-122825000D01*
X262937500Y-122825000D02*
X260937500Y-122825000D01*
X260937500Y-122825000D02*
X260937500Y-124325000D01*
X260937500Y-124325000D02*
X261437500Y-124825000D01*
X261437500Y-124825000D02*
X262937500Y-124825000D01*
X262937500Y-126325000D02*
X260937500Y-126325000D01*
X259437500Y-124325000D02*
X259437500Y-123325000D01*
X262937500Y-121325000D02*
X260937500Y-121325000D01*
X264437500Y-124325000D02*
X264437500Y-123325000D01*
X167687500Y-67675000D02*
X167687500Y-65675000D01*
X167687500Y-65675000D02*
X165687500Y-65675000D01*
X165687500Y-65675000D02*
X165687500Y-67175000D01*
X165687500Y-67175000D02*
X166187500Y-67675000D01*
X166187500Y-67675000D02*
X167687500Y-67675000D01*
X167687500Y-69175000D02*
X165687500Y-69175000D01*
X164187500Y-67175000D02*
X164187500Y-66175000D01*
X167687500Y-64175000D02*
X165687500Y-64175000D01*
X169187500Y-67175000D02*
X169187500Y-66175000D01*
X215312500Y-124825000D02*
X215312500Y-122825000D01*
X215312500Y-122825000D02*
X213312500Y-122825000D01*
X213312500Y-122825000D02*
X213312500Y-124325000D01*
X213312500Y-124325000D02*
X213812500Y-124825000D01*
X213812500Y-124825000D02*
X215312500Y-124825000D01*
X215312500Y-126325000D02*
X213312500Y-126325000D01*
X211812500Y-124325000D02*
X211812500Y-123325000D01*
X215312500Y-121325000D02*
X213312500Y-121325000D01*
X216812500Y-124325000D02*
X216812500Y-123325000D01*
X215312500Y-67675000D02*
X215312500Y-65675000D01*
X215312500Y-65675000D02*
X213312500Y-65675000D01*
X213312500Y-65675000D02*
X213312500Y-67175000D01*
X213312500Y-67175000D02*
X213812500Y-67675000D01*
X213812500Y-67675000D02*
X215312500Y-67675000D01*
X215312500Y-69175000D02*
X213312500Y-69175000D01*
X211812500Y-67175000D02*
X211812500Y-66175000D01*
X215312500Y-64175000D02*
X213312500Y-64175000D01*
X216812500Y-67175000D02*
X216812500Y-66175000D01*
X171815000Y-124825000D02*
X171815000Y-122825000D01*
X171815000Y-122825000D02*
X169815000Y-122825000D01*
X169815000Y-122825000D02*
X169815000Y-124325000D01*
X169815000Y-124325000D02*
X170315000Y-124825000D01*
X170315000Y-124825000D02*
X171815000Y-124825000D01*
X171815000Y-126325000D02*
X169815000Y-126325000D01*
X168315000Y-124325000D02*
X168315000Y-123325000D01*
X171815000Y-121325000D02*
X169815000Y-121325000D01*
X173315000Y-124325000D02*
X173315000Y-123325000D01*
D16*
X169418000Y-139382500D02*
X169418000Y-139082500D01*
X165613000Y-137179000D02*
X165613000Y-136379000D01*
X169413000Y-137079000D02*
X169413000Y-136379000D01*
X168236900Y-133515100D02*
X169418000Y-134696200D01*
X166789100Y-133515100D02*
X165608000Y-134696200D01*
X166789100Y-133515100D02*
G75*
G02X168236900Y-133515100I723900J-723900D01*
G01*
X166560500Y-140335000D02*
X168465500Y-140335000D01*
X169418000Y-139382500D02*
G75*
G02X168465500Y-140335000I-952500J0D01*
G01*
X166560500Y-140335000D02*
G75*
G02X165608000Y-139382500I0J952500D01*
G01*
X165608000Y-139382500D02*
X165608000Y-139082500D01*
D14*
X122443750Y-135600000D02*
X120443750Y-135600000D01*
X120443750Y-135600000D02*
X120443750Y-131700000D01*
X122443750Y-135600000D02*
X122443750Y-131700000D01*
X96250000Y-135600000D02*
X94250000Y-135600000D01*
X94250000Y-135600000D02*
X94250000Y-131700000D01*
X96250000Y-135600000D02*
X96250000Y-131700000D01*
X70056250Y-135600000D02*
X68056250Y-135600000D01*
X68056250Y-135600000D02*
X68056250Y-131700000D01*
X70056250Y-135600000D02*
X70056250Y-131700000D01*
X315325000Y-116550000D02*
X313325000Y-116550000D01*
X313325000Y-116550000D02*
X313325000Y-112650000D01*
X315325000Y-116550000D02*
X315325000Y-112650000D01*
X290321875Y-116550000D02*
X288321875Y-116550000D01*
X288321875Y-116550000D02*
X288321875Y-112650000D01*
X290321875Y-116550000D02*
X290321875Y-112650000D01*
X264128125Y-116550000D02*
X262128125Y-116550000D01*
X262128125Y-116550000D02*
X262128125Y-112650000D01*
X264128125Y-116550000D02*
X264128125Y-112650000D01*
X198643750Y-135600000D02*
X196643750Y-135600000D01*
X196643750Y-135600000D02*
X196643750Y-131700000D01*
X198643750Y-135600000D02*
X198643750Y-131700000D01*
X260556250Y-116550000D02*
X258556250Y-116550000D01*
X258556250Y-116550000D02*
X258556250Y-112650000D01*
X260556250Y-116550000D02*
X260556250Y-112650000D01*
X241506250Y-116550000D02*
X239506250Y-116550000D01*
X239506250Y-116550000D02*
X239506250Y-112650000D01*
X241506250Y-116550000D02*
X241506250Y-112650000D01*
X222456250Y-116550000D02*
X220456250Y-116550000D01*
X220456250Y-116550000D02*
X220456250Y-112650000D01*
X222456250Y-116550000D02*
X222456250Y-112650000D01*
X203406250Y-116550000D02*
X201406250Y-116550000D01*
X201406250Y-116550000D02*
X201406250Y-112650000D01*
X203406250Y-116550000D02*
X203406250Y-112650000D01*
X184356250Y-116550000D02*
X182356250Y-116550000D01*
X182356250Y-116550000D02*
X182356250Y-112650000D01*
X184356250Y-116550000D02*
X184356250Y-112650000D01*
X165306250Y-116550000D02*
X163306250Y-116550000D01*
X163306250Y-116550000D02*
X163306250Y-112650000D01*
X165306250Y-116550000D02*
X165306250Y-112650000D01*
X127206250Y-116550000D02*
X125206250Y-116550000D01*
X125206250Y-116550000D02*
X125206250Y-112650000D01*
X127206250Y-116550000D02*
X127206250Y-112650000D01*
X112125000Y-116550000D02*
X110125000Y-116550000D01*
X110125000Y-116550000D02*
X110125000Y-112650000D01*
X112125000Y-116550000D02*
X112125000Y-112650000D01*
X93075000Y-116550000D02*
X91075000Y-116550000D01*
X91075000Y-116550000D02*
X91075000Y-112650000D01*
X93075000Y-116550000D02*
X93075000Y-112650000D01*
X77200000Y-116550000D02*
X75200000Y-116550000D01*
X75200000Y-116550000D02*
X75200000Y-112650000D01*
X77200000Y-116550000D02*
X77200000Y-112650000D01*
X305006250Y-97500000D02*
X303006250Y-97500000D01*
X303006250Y-97500000D02*
X303006250Y-93600000D01*
X305006250Y-97500000D02*
X305006250Y-93600000D01*
X274050000Y-97500000D02*
X272050000Y-97500000D01*
X272050000Y-97500000D02*
X272050000Y-93600000D01*
X274050000Y-97500000D02*
X274050000Y-93600000D01*
X270081250Y-97500000D02*
X268081250Y-97500000D01*
X268081250Y-97500000D02*
X268081250Y-93600000D01*
X270081250Y-97500000D02*
X270081250Y-93600000D01*
X251031250Y-97500000D02*
X249031250Y-97500000D01*
X249031250Y-97500000D02*
X249031250Y-93600000D01*
X251031250Y-97500000D02*
X251031250Y-93600000D01*
X231981250Y-97500000D02*
X229981250Y-97500000D01*
X229981250Y-97500000D02*
X229981250Y-93600000D01*
X231981250Y-97500000D02*
X231981250Y-93600000D01*
X212931250Y-97500000D02*
X210931250Y-97500000D01*
X210931250Y-97500000D02*
X210931250Y-93600000D01*
X212931250Y-97500000D02*
X212931250Y-93600000D01*
X193881250Y-97500000D02*
X191881250Y-97500000D01*
X191881250Y-97500000D02*
X191881250Y-93600000D01*
X193881250Y-97500000D02*
X193881250Y-93600000D01*
X159353125Y-97500000D02*
X157353125Y-97500000D01*
X157353125Y-97500000D02*
X157353125Y-93600000D01*
X159353125Y-97500000D02*
X159353125Y-93600000D01*
X155781250Y-97500000D02*
X153781250Y-97500000D01*
X153781250Y-97500000D02*
X153781250Y-93600000D01*
X155781250Y-97500000D02*
X155781250Y-93600000D01*
X121253125Y-97500000D02*
X119253125Y-97500000D01*
X119253125Y-97500000D02*
X119253125Y-93600000D01*
X121253125Y-97500000D02*
X121253125Y-93600000D01*
X117681250Y-97500000D02*
X115681250Y-97500000D01*
X115681250Y-97500000D02*
X115681250Y-93600000D01*
X117681250Y-97500000D02*
X117681250Y-93600000D01*
X98631250Y-97500000D02*
X96631250Y-97500000D01*
X96631250Y-97500000D02*
X96631250Y-93600000D01*
X98631250Y-97500000D02*
X98631250Y-93600000D01*
X53387500Y-97500000D02*
X51387500Y-97500000D01*
X51387500Y-97500000D02*
X51387500Y-93600000D01*
X53387500Y-97500000D02*
X53387500Y-93600000D01*
X306121875Y-83153125D02*
X306121875Y-81153125D01*
X306121875Y-81153125D02*
X310021875Y-81153125D01*
X306121875Y-83153125D02*
X310021875Y-83153125D01*
X303418750Y-78450000D02*
X301418750Y-78450000D01*
X301418750Y-78450000D02*
X301418750Y-74550000D01*
X303418750Y-78450000D02*
X303418750Y-74550000D01*
X284368750Y-78450000D02*
X282368750Y-78450000D01*
X282368750Y-78450000D02*
X282368750Y-74550000D01*
X284368750Y-78450000D02*
X284368750Y-74550000D01*
X265318750Y-78450000D02*
X263318750Y-78450000D01*
X263318750Y-78450000D02*
X263318750Y-74550000D01*
X265318750Y-78450000D02*
X265318750Y-74550000D01*
X246268750Y-78450000D02*
X244268750Y-78450000D01*
X244268750Y-78450000D02*
X244268750Y-74550000D01*
X246268750Y-78450000D02*
X246268750Y-74550000D01*
X227218750Y-78450000D02*
X225218750Y-78450000D01*
X225218750Y-78450000D02*
X225218750Y-74550000D01*
X227218750Y-78450000D02*
X227218750Y-74550000D01*
X208168750Y-78450000D02*
X206168750Y-78450000D01*
X206168750Y-78450000D02*
X206168750Y-74550000D01*
X208168750Y-78450000D02*
X208168750Y-74550000D01*
X189118750Y-78450000D02*
X187118750Y-78450000D01*
X187118750Y-78450000D02*
X187118750Y-74550000D01*
X189118750Y-78450000D02*
X189118750Y-74550000D01*
X170068750Y-78450000D02*
X168068750Y-78450000D01*
X168068750Y-78450000D02*
X168068750Y-74550000D01*
X170068750Y-78450000D02*
X170068750Y-74550000D01*
X151018750Y-78450000D02*
X149018750Y-78450000D01*
X149018750Y-78450000D02*
X149018750Y-74550000D01*
X151018750Y-78450000D02*
X151018750Y-74550000D01*
X131968750Y-78450000D02*
X129968750Y-78450000D01*
X129968750Y-78450000D02*
X129968750Y-74550000D01*
X131968750Y-78450000D02*
X131968750Y-74550000D01*
X112918750Y-78450000D02*
X110918750Y-78450000D01*
X110918750Y-78450000D02*
X110918750Y-74550000D01*
X112918750Y-78450000D02*
X112918750Y-74550000D01*
X93868750Y-78450000D02*
X91868750Y-78450000D01*
X91868750Y-78450000D02*
X91868750Y-74550000D01*
X93868750Y-78450000D02*
X93868750Y-74550000D01*
X54578125Y-78450000D02*
X52578125Y-78450000D01*
X52578125Y-78450000D02*
X52578125Y-74550000D01*
X54578125Y-78450000D02*
X54578125Y-74550000D01*
X293025000Y-61721875D02*
X293025000Y-59721875D01*
X293025000Y-59721875D02*
X296925000Y-59721875D01*
X293025000Y-61721875D02*
X296925000Y-61721875D01*
X297465625Y-57018750D02*
X295465625Y-57018750D01*
X295465625Y-57018750D02*
X295465625Y-53118750D01*
X297465625Y-57018750D02*
X297465625Y-53118750D01*
X293893750Y-57018750D02*
X291893750Y-57018750D01*
X291893750Y-57018750D02*
X291893750Y-53118750D01*
X293893750Y-57018750D02*
X293893750Y-53118750D01*
X274843750Y-59400000D02*
X272843750Y-59400000D01*
X272843750Y-59400000D02*
X272843750Y-55500000D01*
X274843750Y-59400000D02*
X274843750Y-55500000D01*
X255793750Y-59400000D02*
X253793750Y-59400000D01*
X253793750Y-59400000D02*
X253793750Y-55500000D01*
X255793750Y-59400000D02*
X255793750Y-55500000D01*
X236743750Y-59400000D02*
X234743750Y-59400000D01*
X234743750Y-59400000D02*
X234743750Y-55500000D01*
X236743750Y-59400000D02*
X236743750Y-55500000D01*
X217693750Y-59400000D02*
X215693750Y-59400000D01*
X215693750Y-59400000D02*
X215693750Y-55500000D01*
X217693750Y-59400000D02*
X217693750Y-55500000D01*
X198643750Y-59400000D02*
X196643750Y-59400000D01*
X196643750Y-59400000D02*
X196643750Y-55500000D01*
X198643750Y-59400000D02*
X198643750Y-55500000D01*
X179593750Y-59400000D02*
X177593750Y-59400000D01*
X177593750Y-59400000D02*
X177593750Y-55500000D01*
X179593750Y-59400000D02*
X179593750Y-55500000D01*
X160543750Y-59400000D02*
X158543750Y-59400000D01*
X158543750Y-59400000D02*
X158543750Y-55500000D01*
X160543750Y-59400000D02*
X160543750Y-55500000D01*
X141493750Y-59400000D02*
X139493750Y-59400000D01*
X139493750Y-59400000D02*
X139493750Y-55500000D01*
X141493750Y-59400000D02*
X141493750Y-55500000D01*
X122443750Y-59400000D02*
X120443750Y-59400000D01*
X120443750Y-59400000D02*
X120443750Y-55500000D01*
X122443750Y-59400000D02*
X122443750Y-55500000D01*
X103393750Y-59400000D02*
X101393750Y-59400000D01*
X101393750Y-59400000D02*
X101393750Y-55500000D01*
X103393750Y-59400000D02*
X103393750Y-55500000D01*
X84343750Y-59400000D02*
X82343750Y-59400000D01*
X82343750Y-59400000D02*
X82343750Y-55500000D01*
X84343750Y-59400000D02*
X84343750Y-55500000D01*
X53387500Y-62971875D02*
X51387500Y-62971875D01*
X51387500Y-62971875D02*
X51387500Y-59071875D01*
X53387500Y-62971875D02*
X53387500Y-59071875D01*
X132336000Y-131882000D02*
X132336000Y-130952000D01*
X132336000Y-128722000D02*
X132336000Y-129652000D01*
X132336000Y-128722000D02*
X134496000Y-128722000D01*
X132336000Y-131882000D02*
X133796000Y-131882000D01*
D11*
X150653500Y-136874000D02*
X150078500Y-136874000D01*
X150653500Y-126524000D02*
X149978500Y-126524000D01*
X140303500Y-126524000D02*
X140978500Y-126524000D01*
X140303500Y-136874000D02*
X140978500Y-136874000D01*
X150653500Y-136874000D02*
X150653500Y-136199000D01*
X140303500Y-136874000D02*
X140303500Y-136199000D01*
X140303500Y-126524000D02*
X140303500Y-127199000D01*
X150653500Y-126524000D02*
X150653500Y-127199000D01*
X150078500Y-136874000D02*
X150078500Y-138149000D01*
X79012051Y-96266000D02*
G75*
G03X79012051Y-96266000I-1796051J0D01*
G01*
X80216000Y-99266000D02*
X80216000Y-93266000D01*
X74216000Y-99266000D02*
X80216000Y-99266000D01*
X74216000Y-93266000D02*
X74216000Y-99266000D01*
X80216000Y-93266000D02*
X74216000Y-93266000D01*
D14*
X294251000Y-102831000D02*
X293251000Y-102831000D01*
X293251000Y-101131000D02*
X294251000Y-101131000D01*
D11*
X286805666Y-105354381D02*
X287139000Y-104878190D01*
X287377095Y-105354381D02*
X287377095Y-104354381D01*
X286996142Y-104354381D01*
X286900904Y-104402000D01*
X286853285Y-104449619D01*
X286805666Y-104544857D01*
X286805666Y-104687714D01*
X286853285Y-104782952D01*
X286900904Y-104830571D01*
X286996142Y-104878190D01*
X287377095Y-104878190D01*
X286234238Y-104782952D02*
X286329476Y-104735333D01*
X286377095Y-104687714D01*
X286424714Y-104592476D01*
X286424714Y-104544857D01*
X286377095Y-104449619D01*
X286329476Y-104402000D01*
X286234238Y-104354381D01*
X286043761Y-104354381D01*
X285948523Y-104402000D01*
X285900904Y-104449619D01*
X285853285Y-104544857D01*
X285853285Y-104592476D01*
X285900904Y-104687714D01*
X285948523Y-104735333D01*
X286043761Y-104782952D01*
X286234238Y-104782952D01*
X286329476Y-104830571D01*
X286377095Y-104878190D01*
X286424714Y-104973429D01*
X286424714Y-105163905D01*
X286377095Y-105259143D01*
X286329476Y-105306762D01*
X286234238Y-105354381D01*
X286043761Y-105354381D01*
X285948523Y-105306762D01*
X285900904Y-105259143D01*
X285853285Y-105163905D01*
X285853285Y-104973429D01*
X285900904Y-104878190D01*
X285948523Y-104830571D01*
X286043761Y-104782952D01*
X70683381Y-59142334D02*
X70207190Y-58809000D01*
X70683381Y-58570905D02*
X69683381Y-58570905D01*
X69683381Y-58951858D01*
X69731000Y-59047096D01*
X69778619Y-59094715D01*
X69873857Y-59142334D01*
X70016714Y-59142334D01*
X70111952Y-59094715D01*
X70159571Y-59047096D01*
X70207190Y-58951858D01*
X70207190Y-58570905D01*
X69683381Y-59475667D02*
X69683381Y-60142334D01*
X70683381Y-59713762D01*
X63952381Y-59015334D02*
X63476190Y-58682000D01*
X63952381Y-58443905D02*
X62952381Y-58443905D01*
X62952381Y-58824858D01*
X63000000Y-58920096D01*
X63047619Y-58967715D01*
X63142857Y-59015334D01*
X63285714Y-59015334D01*
X63380952Y-58967715D01*
X63428571Y-58920096D01*
X63476190Y-58824858D01*
X63476190Y-58443905D01*
X62952381Y-59872477D02*
X62952381Y-59682000D01*
X63000000Y-59586762D01*
X63047619Y-59539143D01*
X63190476Y-59443905D01*
X63380952Y-59396286D01*
X63761905Y-59396286D01*
X63857143Y-59443905D01*
X63904762Y-59491524D01*
X63952381Y-59586762D01*
X63952381Y-59777239D01*
X63904762Y-59872477D01*
X63857143Y-59920096D01*
X63761905Y-59967715D01*
X63523810Y-59967715D01*
X63428571Y-59920096D01*
X63380952Y-59872477D01*
X63333333Y-59777239D01*
X63333333Y-59586762D01*
X63380952Y-59491524D01*
X63428571Y-59443905D01*
X63523810Y-59396286D01*
X161329666Y-133749381D02*
X161663000Y-133273190D01*
X161901095Y-133749381D02*
X161901095Y-132749381D01*
X161520142Y-132749381D01*
X161424904Y-132797000D01*
X161377285Y-132844619D01*
X161329666Y-132939857D01*
X161329666Y-133082714D01*
X161377285Y-133177952D01*
X161424904Y-133225571D01*
X161520142Y-133273190D01*
X161901095Y-133273190D01*
X160424904Y-132749381D02*
X160901095Y-132749381D01*
X160948714Y-133225571D01*
X160901095Y-133177952D01*
X160805857Y-133130333D01*
X160567761Y-133130333D01*
X160472523Y-133177952D01*
X160424904Y-133225571D01*
X160377285Y-133320810D01*
X160377285Y-133558905D01*
X160424904Y-133654143D01*
X160472523Y-133701762D01*
X160567761Y-133749381D01*
X160805857Y-133749381D01*
X160901095Y-133701762D01*
X160948714Y-133654143D01*
X171997666Y-133421381D02*
X172331000Y-132945190D01*
X172569095Y-133421381D02*
X172569095Y-132421381D01*
X172188142Y-132421381D01*
X172092904Y-132469000D01*
X172045285Y-132516619D01*
X171997666Y-132611857D01*
X171997666Y-132754714D01*
X172045285Y-132849952D01*
X172092904Y-132897571D01*
X172188142Y-132945190D01*
X172569095Y-132945190D01*
X171140523Y-132754714D02*
X171140523Y-133421381D01*
X171378619Y-132373762D02*
X171616714Y-133088048D01*
X170997666Y-133088048D01*
X171997666Y-127960381D02*
X172331000Y-127484190D01*
X172569095Y-127960381D02*
X172569095Y-126960381D01*
X172188142Y-126960381D01*
X172092904Y-127008000D01*
X172045285Y-127055619D01*
X171997666Y-127150857D01*
X171997666Y-127293714D01*
X172045285Y-127388952D01*
X172092904Y-127436571D01*
X172188142Y-127484190D01*
X172569095Y-127484190D01*
X171664333Y-126960381D02*
X171045285Y-126960381D01*
X171378619Y-127341333D01*
X171235761Y-127341333D01*
X171140523Y-127388952D01*
X171092904Y-127436571D01*
X171045285Y-127531810D01*
X171045285Y-127769905D01*
X171092904Y-127865143D01*
X171140523Y-127912762D01*
X171235761Y-127960381D01*
X171521476Y-127960381D01*
X171616714Y-127912762D01*
X171664333Y-127865143D01*
X284456166Y-101290381D02*
X284789500Y-100814190D01*
X285027595Y-101290381D02*
X285027595Y-100290381D01*
X284646642Y-100290381D01*
X284551404Y-100338000D01*
X284503785Y-100385619D01*
X284456166Y-100480857D01*
X284456166Y-100623714D01*
X284503785Y-100718952D01*
X284551404Y-100766571D01*
X284646642Y-100814190D01*
X285027595Y-100814190D01*
X284075214Y-100385619D02*
X284027595Y-100338000D01*
X283932357Y-100290381D01*
X283694261Y-100290381D01*
X283599023Y-100338000D01*
X283551404Y-100385619D01*
X283503785Y-100480857D01*
X283503785Y-100576095D01*
X283551404Y-100718952D01*
X284122833Y-101290381D01*
X283503785Y-101290381D01*
X156154381Y-126579334D02*
X155678190Y-126246000D01*
X156154381Y-126007905D02*
X155154381Y-126007905D01*
X155154381Y-126388858D01*
X155202000Y-126484096D01*
X155249619Y-126531715D01*
X155344857Y-126579334D01*
X155487714Y-126579334D01*
X155582952Y-126531715D01*
X155630571Y-126484096D01*
X155678190Y-126388858D01*
X155678190Y-126007905D01*
X156154381Y-127531715D02*
X156154381Y-126960286D01*
X156154381Y-127246000D02*
X155154381Y-127246000D01*
X155297238Y-127150762D01*
X155392476Y-127055524D01*
X155440095Y-126960286D01*
X112141143Y-121682143D02*
X112188762Y-121634524D01*
X112236381Y-121491667D01*
X112236381Y-121396429D01*
X112188762Y-121253571D01*
X112093524Y-121158333D01*
X111998286Y-121110714D01*
X111807810Y-121063095D01*
X111664952Y-121063095D01*
X111474476Y-121110714D01*
X111379238Y-121158333D01*
X111284000Y-121253571D01*
X111236381Y-121396429D01*
X111236381Y-121491667D01*
X111284000Y-121634524D01*
X111331619Y-121682143D01*
X112236381Y-122682143D02*
X111760190Y-122348809D01*
X112236381Y-122110714D02*
X111236381Y-122110714D01*
X111236381Y-122491667D01*
X111284000Y-122586905D01*
X111331619Y-122634524D01*
X111426857Y-122682143D01*
X111569714Y-122682143D01*
X111664952Y-122634524D01*
X111712571Y-122586905D01*
X111760190Y-122491667D01*
X111760190Y-122110714D01*
X111284000Y-123634524D02*
X111236381Y-123539286D01*
X111236381Y-123396429D01*
X111284000Y-123253571D01*
X111379238Y-123158333D01*
X111474476Y-123110714D01*
X111664952Y-123063095D01*
X111807810Y-123063095D01*
X111998286Y-123110714D01*
X112093524Y-123158333D01*
X112188762Y-123253571D01*
X112236381Y-123396429D01*
X112236381Y-123491667D01*
X112188762Y-123634524D01*
X112141143Y-123682143D01*
X111807810Y-123682143D01*
X111807810Y-123491667D01*
X111712571Y-124444048D02*
X111760190Y-124586905D01*
X111807810Y-124634524D01*
X111903048Y-124682143D01*
X112045905Y-124682143D01*
X112141143Y-124634524D01*
X112188762Y-124586905D01*
X112236381Y-124491667D01*
X112236381Y-124110714D01*
X111236381Y-124110714D01*
X111236381Y-124444048D01*
X111284000Y-124539286D01*
X111331619Y-124586905D01*
X111426857Y-124634524D01*
X111522095Y-124634524D01*
X111617333Y-124586905D01*
X111664952Y-124539286D01*
X111712571Y-124444048D01*
X111712571Y-124110714D01*
X112236381Y-125634524D02*
X112236381Y-125063095D01*
X112236381Y-125348809D02*
X111236381Y-125348809D01*
X111379238Y-125253571D01*
X111474476Y-125158333D01*
X111522095Y-125063095D01*
X111331619Y-126015476D02*
X111284000Y-126063095D01*
X111236381Y-126158333D01*
X111236381Y-126396429D01*
X111284000Y-126491667D01*
X111331619Y-126539286D01*
X111426857Y-126586905D01*
X111522095Y-126586905D01*
X111664952Y-126539286D01*
X112236381Y-125967857D01*
X112236381Y-126586905D01*
X269470143Y-64532143D02*
X269517762Y-64484524D01*
X269565381Y-64341667D01*
X269565381Y-64246429D01*
X269517762Y-64103571D01*
X269422524Y-64008333D01*
X269327286Y-63960714D01*
X269136810Y-63913095D01*
X268993952Y-63913095D01*
X268803476Y-63960714D01*
X268708238Y-64008333D01*
X268613000Y-64103571D01*
X268565381Y-64246429D01*
X268565381Y-64341667D01*
X268613000Y-64484524D01*
X268660619Y-64532143D01*
X269565381Y-65532143D02*
X269089190Y-65198809D01*
X269565381Y-64960714D02*
X268565381Y-64960714D01*
X268565381Y-65341667D01*
X268613000Y-65436905D01*
X268660619Y-65484524D01*
X268755857Y-65532143D01*
X268898714Y-65532143D01*
X268993952Y-65484524D01*
X269041571Y-65436905D01*
X269089190Y-65341667D01*
X269089190Y-64960714D01*
X268613000Y-66484524D02*
X268565381Y-66389286D01*
X268565381Y-66246429D01*
X268613000Y-66103571D01*
X268708238Y-66008333D01*
X268803476Y-65960714D01*
X268993952Y-65913095D01*
X269136810Y-65913095D01*
X269327286Y-65960714D01*
X269422524Y-66008333D01*
X269517762Y-66103571D01*
X269565381Y-66246429D01*
X269565381Y-66341667D01*
X269517762Y-66484524D01*
X269470143Y-66532143D01*
X269136810Y-66532143D01*
X269136810Y-66341667D01*
X269041571Y-67294048D02*
X269089190Y-67436905D01*
X269136810Y-67484524D01*
X269232048Y-67532143D01*
X269374905Y-67532143D01*
X269470143Y-67484524D01*
X269517762Y-67436905D01*
X269565381Y-67341667D01*
X269565381Y-66960714D01*
X268565381Y-66960714D01*
X268565381Y-67294048D01*
X268613000Y-67389286D01*
X268660619Y-67436905D01*
X268755857Y-67484524D01*
X268851095Y-67484524D01*
X268946333Y-67436905D01*
X268993952Y-67389286D01*
X269041571Y-67294048D01*
X269041571Y-66960714D01*
X269565381Y-68484524D02*
X269565381Y-67913095D01*
X269565381Y-68198809D02*
X268565381Y-68198809D01*
X268708238Y-68103571D01*
X268803476Y-68008333D01*
X268851095Y-67913095D01*
X269565381Y-69436905D02*
X269565381Y-68865476D01*
X269565381Y-69151190D02*
X268565381Y-69151190D01*
X268708238Y-69055952D01*
X268803476Y-68960714D01*
X268851095Y-68865476D01*
X64516143Y-121682143D02*
X64563762Y-121634524D01*
X64611381Y-121491667D01*
X64611381Y-121396429D01*
X64563762Y-121253571D01*
X64468524Y-121158333D01*
X64373286Y-121110714D01*
X64182810Y-121063095D01*
X64039952Y-121063095D01*
X63849476Y-121110714D01*
X63754238Y-121158333D01*
X63659000Y-121253571D01*
X63611381Y-121396429D01*
X63611381Y-121491667D01*
X63659000Y-121634524D01*
X63706619Y-121682143D01*
X64611381Y-122682143D02*
X64135190Y-122348809D01*
X64611381Y-122110714D02*
X63611381Y-122110714D01*
X63611381Y-122491667D01*
X63659000Y-122586905D01*
X63706619Y-122634524D01*
X63801857Y-122682143D01*
X63944714Y-122682143D01*
X64039952Y-122634524D01*
X64087571Y-122586905D01*
X64135190Y-122491667D01*
X64135190Y-122110714D01*
X63659000Y-123634524D02*
X63611381Y-123539286D01*
X63611381Y-123396429D01*
X63659000Y-123253571D01*
X63754238Y-123158333D01*
X63849476Y-123110714D01*
X64039952Y-123063095D01*
X64182810Y-123063095D01*
X64373286Y-123110714D01*
X64468524Y-123158333D01*
X64563762Y-123253571D01*
X64611381Y-123396429D01*
X64611381Y-123491667D01*
X64563762Y-123634524D01*
X64516143Y-123682143D01*
X64182810Y-123682143D01*
X64182810Y-123491667D01*
X64087571Y-124444048D02*
X64135190Y-124586905D01*
X64182810Y-124634524D01*
X64278048Y-124682143D01*
X64420905Y-124682143D01*
X64516143Y-124634524D01*
X64563762Y-124586905D01*
X64611381Y-124491667D01*
X64611381Y-124110714D01*
X63611381Y-124110714D01*
X63611381Y-124444048D01*
X63659000Y-124539286D01*
X63706619Y-124586905D01*
X63801857Y-124634524D01*
X63897095Y-124634524D01*
X63992333Y-124586905D01*
X64039952Y-124539286D01*
X64087571Y-124444048D01*
X64087571Y-124110714D01*
X64611381Y-125634524D02*
X64611381Y-125063095D01*
X64611381Y-125348809D02*
X63611381Y-125348809D01*
X63754238Y-125253571D01*
X63849476Y-125158333D01*
X63897095Y-125063095D01*
X63611381Y-126253571D02*
X63611381Y-126348810D01*
X63659000Y-126444048D01*
X63706619Y-126491667D01*
X63801857Y-126539286D01*
X63992333Y-126586905D01*
X64230429Y-126586905D01*
X64420905Y-126539286D01*
X64516143Y-126491667D01*
X64563762Y-126444048D01*
X64611381Y-126348810D01*
X64611381Y-126253571D01*
X64563762Y-126158333D01*
X64516143Y-126110714D01*
X64420905Y-126063095D01*
X64230429Y-126015476D01*
X63992333Y-126015476D01*
X63801857Y-126063095D01*
X63706619Y-126110714D01*
X63659000Y-126158333D01*
X63611381Y-126253571D01*
X317095143Y-65008334D02*
X317142762Y-64960715D01*
X317190381Y-64817858D01*
X317190381Y-64722620D01*
X317142762Y-64579762D01*
X317047524Y-64484524D01*
X316952286Y-64436905D01*
X316761810Y-64389286D01*
X316618952Y-64389286D01*
X316428476Y-64436905D01*
X316333238Y-64484524D01*
X316238000Y-64579762D01*
X316190381Y-64722620D01*
X316190381Y-64817858D01*
X316238000Y-64960715D01*
X316285619Y-65008334D01*
X317190381Y-66008334D02*
X316714190Y-65675000D01*
X317190381Y-65436905D02*
X316190381Y-65436905D01*
X316190381Y-65817858D01*
X316238000Y-65913096D01*
X316285619Y-65960715D01*
X316380857Y-66008334D01*
X316523714Y-66008334D01*
X316618952Y-65960715D01*
X316666571Y-65913096D01*
X316714190Y-65817858D01*
X316714190Y-65436905D01*
X316238000Y-66960715D02*
X316190381Y-66865477D01*
X316190381Y-66722620D01*
X316238000Y-66579762D01*
X316333238Y-66484524D01*
X316428476Y-66436905D01*
X316618952Y-66389286D01*
X316761810Y-66389286D01*
X316952286Y-66436905D01*
X317047524Y-66484524D01*
X317142762Y-66579762D01*
X317190381Y-66722620D01*
X317190381Y-66817858D01*
X317142762Y-66960715D01*
X317095143Y-67008334D01*
X316761810Y-67008334D01*
X316761810Y-66817858D01*
X316666571Y-67770239D02*
X316714190Y-67913096D01*
X316761810Y-67960715D01*
X316857048Y-68008334D01*
X316999905Y-68008334D01*
X317095143Y-67960715D01*
X317142762Y-67913096D01*
X317190381Y-67817858D01*
X317190381Y-67436905D01*
X316190381Y-67436905D01*
X316190381Y-67770239D01*
X316238000Y-67865477D01*
X316285619Y-67913096D01*
X316380857Y-67960715D01*
X316476095Y-67960715D01*
X316571333Y-67913096D01*
X316618952Y-67865477D01*
X316666571Y-67770239D01*
X316666571Y-67436905D01*
X317190381Y-68484524D02*
X317190381Y-68675000D01*
X317142762Y-68770239D01*
X317095143Y-68817858D01*
X316952286Y-68913096D01*
X316761810Y-68960715D01*
X316380857Y-68960715D01*
X316285619Y-68913096D01*
X316238000Y-68865477D01*
X316190381Y-68770239D01*
X316190381Y-68579762D01*
X316238000Y-68484524D01*
X316285619Y-68436905D01*
X316380857Y-68389286D01*
X316618952Y-68389286D01*
X316714190Y-68436905D01*
X316761810Y-68484524D01*
X316809429Y-68579762D01*
X316809429Y-68770239D01*
X316761810Y-68865477D01*
X316714190Y-68913096D01*
X316618952Y-68960715D01*
X81383143Y-65008334D02*
X81430762Y-64960715D01*
X81478381Y-64817858D01*
X81478381Y-64722620D01*
X81430762Y-64579762D01*
X81335524Y-64484524D01*
X81240286Y-64436905D01*
X81049810Y-64389286D01*
X80906952Y-64389286D01*
X80716476Y-64436905D01*
X80621238Y-64484524D01*
X80526000Y-64579762D01*
X80478381Y-64722620D01*
X80478381Y-64817858D01*
X80526000Y-64960715D01*
X80573619Y-65008334D01*
X81478381Y-66008334D02*
X81002190Y-65675000D01*
X81478381Y-65436905D02*
X80478381Y-65436905D01*
X80478381Y-65817858D01*
X80526000Y-65913096D01*
X80573619Y-65960715D01*
X80668857Y-66008334D01*
X80811714Y-66008334D01*
X80906952Y-65960715D01*
X80954571Y-65913096D01*
X81002190Y-65817858D01*
X81002190Y-65436905D01*
X80526000Y-66960715D02*
X80478381Y-66865477D01*
X80478381Y-66722620D01*
X80526000Y-66579762D01*
X80621238Y-66484524D01*
X80716476Y-66436905D01*
X80906952Y-66389286D01*
X81049810Y-66389286D01*
X81240286Y-66436905D01*
X81335524Y-66484524D01*
X81430762Y-66579762D01*
X81478381Y-66722620D01*
X81478381Y-66817858D01*
X81430762Y-66960715D01*
X81383143Y-67008334D01*
X81049810Y-67008334D01*
X81049810Y-66817858D01*
X80954571Y-67770239D02*
X81002190Y-67913096D01*
X81049810Y-67960715D01*
X81145048Y-68008334D01*
X81287905Y-68008334D01*
X81383143Y-67960715D01*
X81430762Y-67913096D01*
X81478381Y-67817858D01*
X81478381Y-67436905D01*
X80478381Y-67436905D01*
X80478381Y-67770239D01*
X80526000Y-67865477D01*
X80573619Y-67913096D01*
X80668857Y-67960715D01*
X80764095Y-67960715D01*
X80859333Y-67913096D01*
X80906952Y-67865477D01*
X80954571Y-67770239D01*
X80954571Y-67436905D01*
X80906952Y-68579762D02*
X80859333Y-68484524D01*
X80811714Y-68436905D01*
X80716476Y-68389286D01*
X80668857Y-68389286D01*
X80573619Y-68436905D01*
X80526000Y-68484524D01*
X80478381Y-68579762D01*
X80478381Y-68770239D01*
X80526000Y-68865477D01*
X80573619Y-68913096D01*
X80668857Y-68960715D01*
X80716476Y-68960715D01*
X80811714Y-68913096D01*
X80859333Y-68865477D01*
X80906952Y-68770239D01*
X80906952Y-68579762D01*
X80954571Y-68484524D01*
X81002190Y-68436905D01*
X81097429Y-68389286D01*
X81287905Y-68389286D01*
X81383143Y-68436905D01*
X81430762Y-68484524D01*
X81478381Y-68579762D01*
X81478381Y-68770239D01*
X81430762Y-68865477D01*
X81383143Y-68913096D01*
X81287905Y-68960715D01*
X81097429Y-68960715D01*
X81002190Y-68913096D01*
X80954571Y-68865477D01*
X80906952Y-68770239D01*
X302641143Y-122158334D02*
X302688762Y-122110715D01*
X302736381Y-121967858D01*
X302736381Y-121872620D01*
X302688762Y-121729762D01*
X302593524Y-121634524D01*
X302498286Y-121586905D01*
X302307810Y-121539286D01*
X302164952Y-121539286D01*
X301974476Y-121586905D01*
X301879238Y-121634524D01*
X301784000Y-121729762D01*
X301736381Y-121872620D01*
X301736381Y-121967858D01*
X301784000Y-122110715D01*
X301831619Y-122158334D01*
X302736381Y-123158334D02*
X302260190Y-122825000D01*
X302736381Y-122586905D02*
X301736381Y-122586905D01*
X301736381Y-122967858D01*
X301784000Y-123063096D01*
X301831619Y-123110715D01*
X301926857Y-123158334D01*
X302069714Y-123158334D01*
X302164952Y-123110715D01*
X302212571Y-123063096D01*
X302260190Y-122967858D01*
X302260190Y-122586905D01*
X301784000Y-124110715D02*
X301736381Y-124015477D01*
X301736381Y-123872620D01*
X301784000Y-123729762D01*
X301879238Y-123634524D01*
X301974476Y-123586905D01*
X302164952Y-123539286D01*
X302307810Y-123539286D01*
X302498286Y-123586905D01*
X302593524Y-123634524D01*
X302688762Y-123729762D01*
X302736381Y-123872620D01*
X302736381Y-123967858D01*
X302688762Y-124110715D01*
X302641143Y-124158334D01*
X302307810Y-124158334D01*
X302307810Y-123967858D01*
X302212571Y-124920239D02*
X302260190Y-125063096D01*
X302307810Y-125110715D01*
X302403048Y-125158334D01*
X302545905Y-125158334D01*
X302641143Y-125110715D01*
X302688762Y-125063096D01*
X302736381Y-124967858D01*
X302736381Y-124586905D01*
X301736381Y-124586905D01*
X301736381Y-124920239D01*
X301784000Y-125015477D01*
X301831619Y-125063096D01*
X301926857Y-125110715D01*
X302022095Y-125110715D01*
X302117333Y-125063096D01*
X302164952Y-125015477D01*
X302212571Y-124920239D01*
X302212571Y-124586905D01*
X301736381Y-125491667D02*
X301736381Y-126158334D01*
X302736381Y-125729762D01*
X126595143Y-65008334D02*
X126642762Y-64960715D01*
X126690381Y-64817858D01*
X126690381Y-64722620D01*
X126642762Y-64579762D01*
X126547524Y-64484524D01*
X126452286Y-64436905D01*
X126261810Y-64389286D01*
X126118952Y-64389286D01*
X125928476Y-64436905D01*
X125833238Y-64484524D01*
X125738000Y-64579762D01*
X125690381Y-64722620D01*
X125690381Y-64817858D01*
X125738000Y-64960715D01*
X125785619Y-65008334D01*
X126690381Y-66008334D02*
X126214190Y-65675000D01*
X126690381Y-65436905D02*
X125690381Y-65436905D01*
X125690381Y-65817858D01*
X125738000Y-65913096D01*
X125785619Y-65960715D01*
X125880857Y-66008334D01*
X126023714Y-66008334D01*
X126118952Y-65960715D01*
X126166571Y-65913096D01*
X126214190Y-65817858D01*
X126214190Y-65436905D01*
X125738000Y-66960715D02*
X125690381Y-66865477D01*
X125690381Y-66722620D01*
X125738000Y-66579762D01*
X125833238Y-66484524D01*
X125928476Y-66436905D01*
X126118952Y-66389286D01*
X126261810Y-66389286D01*
X126452286Y-66436905D01*
X126547524Y-66484524D01*
X126642762Y-66579762D01*
X126690381Y-66722620D01*
X126690381Y-66817858D01*
X126642762Y-66960715D01*
X126595143Y-67008334D01*
X126261810Y-67008334D01*
X126261810Y-66817858D01*
X126166571Y-67770239D02*
X126214190Y-67913096D01*
X126261810Y-67960715D01*
X126357048Y-68008334D01*
X126499905Y-68008334D01*
X126595143Y-67960715D01*
X126642762Y-67913096D01*
X126690381Y-67817858D01*
X126690381Y-67436905D01*
X125690381Y-67436905D01*
X125690381Y-67770239D01*
X125738000Y-67865477D01*
X125785619Y-67913096D01*
X125880857Y-67960715D01*
X125976095Y-67960715D01*
X126071333Y-67913096D01*
X126118952Y-67865477D01*
X126166571Y-67770239D01*
X126166571Y-67436905D01*
X125690381Y-68865477D02*
X125690381Y-68675000D01*
X125738000Y-68579762D01*
X125785619Y-68532143D01*
X125928476Y-68436905D01*
X126118952Y-68389286D01*
X126499905Y-68389286D01*
X126595143Y-68436905D01*
X126642762Y-68484524D01*
X126690381Y-68579762D01*
X126690381Y-68770239D01*
X126642762Y-68865477D01*
X126595143Y-68913096D01*
X126499905Y-68960715D01*
X126261810Y-68960715D01*
X126166571Y-68913096D01*
X126118952Y-68865477D01*
X126071333Y-68770239D01*
X126071333Y-68579762D01*
X126118952Y-68484524D01*
X126166571Y-68436905D01*
X126261810Y-68389286D01*
X255016143Y-122158334D02*
X255063762Y-122110715D01*
X255111381Y-121967858D01*
X255111381Y-121872620D01*
X255063762Y-121729762D01*
X254968524Y-121634524D01*
X254873286Y-121586905D01*
X254682810Y-121539286D01*
X254539952Y-121539286D01*
X254349476Y-121586905D01*
X254254238Y-121634524D01*
X254159000Y-121729762D01*
X254111381Y-121872620D01*
X254111381Y-121967858D01*
X254159000Y-122110715D01*
X254206619Y-122158334D01*
X255111381Y-123158334D02*
X254635190Y-122825000D01*
X255111381Y-122586905D02*
X254111381Y-122586905D01*
X254111381Y-122967858D01*
X254159000Y-123063096D01*
X254206619Y-123110715D01*
X254301857Y-123158334D01*
X254444714Y-123158334D01*
X254539952Y-123110715D01*
X254587571Y-123063096D01*
X254635190Y-122967858D01*
X254635190Y-122586905D01*
X254159000Y-124110715D02*
X254111381Y-124015477D01*
X254111381Y-123872620D01*
X254159000Y-123729762D01*
X254254238Y-123634524D01*
X254349476Y-123586905D01*
X254539952Y-123539286D01*
X254682810Y-123539286D01*
X254873286Y-123586905D01*
X254968524Y-123634524D01*
X255063762Y-123729762D01*
X255111381Y-123872620D01*
X255111381Y-123967858D01*
X255063762Y-124110715D01*
X255016143Y-124158334D01*
X254682810Y-124158334D01*
X254682810Y-123967858D01*
X254587571Y-124920239D02*
X254635190Y-125063096D01*
X254682810Y-125110715D01*
X254778048Y-125158334D01*
X254920905Y-125158334D01*
X255016143Y-125110715D01*
X255063762Y-125063096D01*
X255111381Y-124967858D01*
X255111381Y-124586905D01*
X254111381Y-124586905D01*
X254111381Y-124920239D01*
X254159000Y-125015477D01*
X254206619Y-125063096D01*
X254301857Y-125110715D01*
X254397095Y-125110715D01*
X254492333Y-125063096D01*
X254539952Y-125015477D01*
X254587571Y-124920239D01*
X254587571Y-124586905D01*
X254111381Y-126063096D02*
X254111381Y-125586905D01*
X254587571Y-125539286D01*
X254539952Y-125586905D01*
X254492333Y-125682143D01*
X254492333Y-125920239D01*
X254539952Y-126015477D01*
X254587571Y-126063096D01*
X254682810Y-126110715D01*
X254920905Y-126110715D01*
X255016143Y-126063096D01*
X255063762Y-126015477D01*
X255111381Y-125920239D01*
X255111381Y-125682143D01*
X255063762Y-125586905D01*
X255016143Y-125539286D01*
X174220143Y-65008334D02*
X174267762Y-64960715D01*
X174315381Y-64817858D01*
X174315381Y-64722620D01*
X174267762Y-64579762D01*
X174172524Y-64484524D01*
X174077286Y-64436905D01*
X173886810Y-64389286D01*
X173743952Y-64389286D01*
X173553476Y-64436905D01*
X173458238Y-64484524D01*
X173363000Y-64579762D01*
X173315381Y-64722620D01*
X173315381Y-64817858D01*
X173363000Y-64960715D01*
X173410619Y-65008334D01*
X174315381Y-66008334D02*
X173839190Y-65675000D01*
X174315381Y-65436905D02*
X173315381Y-65436905D01*
X173315381Y-65817858D01*
X173363000Y-65913096D01*
X173410619Y-65960715D01*
X173505857Y-66008334D01*
X173648714Y-66008334D01*
X173743952Y-65960715D01*
X173791571Y-65913096D01*
X173839190Y-65817858D01*
X173839190Y-65436905D01*
X173363000Y-66960715D02*
X173315381Y-66865477D01*
X173315381Y-66722620D01*
X173363000Y-66579762D01*
X173458238Y-66484524D01*
X173553476Y-66436905D01*
X173743952Y-66389286D01*
X173886810Y-66389286D01*
X174077286Y-66436905D01*
X174172524Y-66484524D01*
X174267762Y-66579762D01*
X174315381Y-66722620D01*
X174315381Y-66817858D01*
X174267762Y-66960715D01*
X174220143Y-67008334D01*
X173886810Y-67008334D01*
X173886810Y-66817858D01*
X173791571Y-67770239D02*
X173839190Y-67913096D01*
X173886810Y-67960715D01*
X173982048Y-68008334D01*
X174124905Y-68008334D01*
X174220143Y-67960715D01*
X174267762Y-67913096D01*
X174315381Y-67817858D01*
X174315381Y-67436905D01*
X173315381Y-67436905D01*
X173315381Y-67770239D01*
X173363000Y-67865477D01*
X173410619Y-67913096D01*
X173505857Y-67960715D01*
X173601095Y-67960715D01*
X173696333Y-67913096D01*
X173743952Y-67865477D01*
X173791571Y-67770239D01*
X173791571Y-67436905D01*
X173648714Y-68865477D02*
X174315381Y-68865477D01*
X173267762Y-68627381D02*
X173982048Y-68389286D01*
X173982048Y-69008334D01*
X221972143Y-124190334D02*
X222019762Y-124142715D01*
X222067381Y-123999858D01*
X222067381Y-123904620D01*
X222019762Y-123761762D01*
X221924524Y-123666524D01*
X221829286Y-123618905D01*
X221638810Y-123571286D01*
X221495952Y-123571286D01*
X221305476Y-123618905D01*
X221210238Y-123666524D01*
X221115000Y-123761762D01*
X221067381Y-123904620D01*
X221067381Y-123999858D01*
X221115000Y-124142715D01*
X221162619Y-124190334D01*
X222067381Y-125190334D02*
X221591190Y-124857000D01*
X222067381Y-124618905D02*
X221067381Y-124618905D01*
X221067381Y-124999858D01*
X221115000Y-125095096D01*
X221162619Y-125142715D01*
X221257857Y-125190334D01*
X221400714Y-125190334D01*
X221495952Y-125142715D01*
X221543571Y-125095096D01*
X221591190Y-124999858D01*
X221591190Y-124618905D01*
X221115000Y-126142715D02*
X221067381Y-126047477D01*
X221067381Y-125904620D01*
X221115000Y-125761762D01*
X221210238Y-125666524D01*
X221305476Y-125618905D01*
X221495952Y-125571286D01*
X221638810Y-125571286D01*
X221829286Y-125618905D01*
X221924524Y-125666524D01*
X222019762Y-125761762D01*
X222067381Y-125904620D01*
X222067381Y-125999858D01*
X222019762Y-126142715D01*
X221972143Y-126190334D01*
X221638810Y-126190334D01*
X221638810Y-125999858D01*
X221543571Y-126952239D02*
X221591190Y-127095096D01*
X221638810Y-127142715D01*
X221734048Y-127190334D01*
X221876905Y-127190334D01*
X221972143Y-127142715D01*
X222019762Y-127095096D01*
X222067381Y-126999858D01*
X222067381Y-126618905D01*
X221067381Y-126618905D01*
X221067381Y-126952239D01*
X221115000Y-127047477D01*
X221162619Y-127095096D01*
X221257857Y-127142715D01*
X221353095Y-127142715D01*
X221448333Y-127095096D01*
X221495952Y-127047477D01*
X221543571Y-126952239D01*
X221543571Y-126618905D01*
X221067381Y-127523667D02*
X221067381Y-128142715D01*
X221448333Y-127809381D01*
X221448333Y-127952239D01*
X221495952Y-128047477D01*
X221543571Y-128095096D01*
X221638810Y-128142715D01*
X221876905Y-128142715D01*
X221972143Y-128095096D01*
X222019762Y-128047477D01*
X222067381Y-127952239D01*
X222067381Y-127666524D01*
X222019762Y-127571286D01*
X221972143Y-127523667D01*
X221845143Y-65008334D02*
X221892762Y-64960715D01*
X221940381Y-64817858D01*
X221940381Y-64722620D01*
X221892762Y-64579762D01*
X221797524Y-64484524D01*
X221702286Y-64436905D01*
X221511810Y-64389286D01*
X221368952Y-64389286D01*
X221178476Y-64436905D01*
X221083238Y-64484524D01*
X220988000Y-64579762D01*
X220940381Y-64722620D01*
X220940381Y-64817858D01*
X220988000Y-64960715D01*
X221035619Y-65008334D01*
X221940381Y-66008334D02*
X221464190Y-65675000D01*
X221940381Y-65436905D02*
X220940381Y-65436905D01*
X220940381Y-65817858D01*
X220988000Y-65913096D01*
X221035619Y-65960715D01*
X221130857Y-66008334D01*
X221273714Y-66008334D01*
X221368952Y-65960715D01*
X221416571Y-65913096D01*
X221464190Y-65817858D01*
X221464190Y-65436905D01*
X220988000Y-66960715D02*
X220940381Y-66865477D01*
X220940381Y-66722620D01*
X220988000Y-66579762D01*
X221083238Y-66484524D01*
X221178476Y-66436905D01*
X221368952Y-66389286D01*
X221511810Y-66389286D01*
X221702286Y-66436905D01*
X221797524Y-66484524D01*
X221892762Y-66579762D01*
X221940381Y-66722620D01*
X221940381Y-66817858D01*
X221892762Y-66960715D01*
X221845143Y-67008334D01*
X221511810Y-67008334D01*
X221511810Y-66817858D01*
X221416571Y-67770239D02*
X221464190Y-67913096D01*
X221511810Y-67960715D01*
X221607048Y-68008334D01*
X221749905Y-68008334D01*
X221845143Y-67960715D01*
X221892762Y-67913096D01*
X221940381Y-67817858D01*
X221940381Y-67436905D01*
X220940381Y-67436905D01*
X220940381Y-67770239D01*
X220988000Y-67865477D01*
X221035619Y-67913096D01*
X221130857Y-67960715D01*
X221226095Y-67960715D01*
X221321333Y-67913096D01*
X221368952Y-67865477D01*
X221416571Y-67770239D01*
X221416571Y-67436905D01*
X221035619Y-68389286D02*
X220988000Y-68436905D01*
X220940381Y-68532143D01*
X220940381Y-68770239D01*
X220988000Y-68865477D01*
X221035619Y-68913096D01*
X221130857Y-68960715D01*
X221226095Y-68960715D01*
X221368952Y-68913096D01*
X221940381Y-68341667D01*
X221940381Y-68960715D01*
X178411143Y-125079334D02*
X178458762Y-125031715D01*
X178506381Y-124888858D01*
X178506381Y-124793620D01*
X178458762Y-124650762D01*
X178363524Y-124555524D01*
X178268286Y-124507905D01*
X178077810Y-124460286D01*
X177934952Y-124460286D01*
X177744476Y-124507905D01*
X177649238Y-124555524D01*
X177554000Y-124650762D01*
X177506381Y-124793620D01*
X177506381Y-124888858D01*
X177554000Y-125031715D01*
X177601619Y-125079334D01*
X178506381Y-126079334D02*
X178030190Y-125746000D01*
X178506381Y-125507905D02*
X177506381Y-125507905D01*
X177506381Y-125888858D01*
X177554000Y-125984096D01*
X177601619Y-126031715D01*
X177696857Y-126079334D01*
X177839714Y-126079334D01*
X177934952Y-126031715D01*
X177982571Y-125984096D01*
X178030190Y-125888858D01*
X178030190Y-125507905D01*
X177554000Y-127031715D02*
X177506381Y-126936477D01*
X177506381Y-126793620D01*
X177554000Y-126650762D01*
X177649238Y-126555524D01*
X177744476Y-126507905D01*
X177934952Y-126460286D01*
X178077810Y-126460286D01*
X178268286Y-126507905D01*
X178363524Y-126555524D01*
X178458762Y-126650762D01*
X178506381Y-126793620D01*
X178506381Y-126888858D01*
X178458762Y-127031715D01*
X178411143Y-127079334D01*
X178077810Y-127079334D01*
X178077810Y-126888858D01*
X177982571Y-127841239D02*
X178030190Y-127984096D01*
X178077810Y-128031715D01*
X178173048Y-128079334D01*
X178315905Y-128079334D01*
X178411143Y-128031715D01*
X178458762Y-127984096D01*
X178506381Y-127888858D01*
X178506381Y-127507905D01*
X177506381Y-127507905D01*
X177506381Y-127841239D01*
X177554000Y-127936477D01*
X177601619Y-127984096D01*
X177696857Y-128031715D01*
X177792095Y-128031715D01*
X177887333Y-127984096D01*
X177934952Y-127936477D01*
X177982571Y-127841239D01*
X177982571Y-127507905D01*
X178506381Y-129031715D02*
X178506381Y-128460286D01*
X178506381Y-128746000D02*
X177506381Y-128746000D01*
X177649238Y-128650762D01*
X177744476Y-128555524D01*
X177792095Y-128460286D01*
X290425143Y-104513143D02*
X290472762Y-104465524D01*
X290520381Y-104322667D01*
X290520381Y-104227429D01*
X290472762Y-104084571D01*
X290377524Y-103989333D01*
X290282286Y-103941714D01*
X290091810Y-103894095D01*
X289948952Y-103894095D01*
X289758476Y-103941714D01*
X289663238Y-103989333D01*
X289568000Y-104084571D01*
X289520381Y-104227429D01*
X289520381Y-104322667D01*
X289568000Y-104465524D01*
X289615619Y-104513143D01*
X290520381Y-105465524D02*
X290520381Y-104894095D01*
X290520381Y-105179809D02*
X289520381Y-105179809D01*
X289663238Y-105084571D01*
X289758476Y-104989333D01*
X289806095Y-104894095D01*
X289853714Y-106322667D02*
X290520381Y-106322667D01*
X289472762Y-106084571D02*
X290187048Y-105846476D01*
X290187048Y-106465524D01*
X297156143Y-101465143D02*
X297203762Y-101417524D01*
X297251381Y-101274667D01*
X297251381Y-101179429D01*
X297203762Y-101036571D01*
X297108524Y-100941333D01*
X297013286Y-100893714D01*
X296822810Y-100846095D01*
X296679952Y-100846095D01*
X296489476Y-100893714D01*
X296394238Y-100941333D01*
X296299000Y-101036571D01*
X296251381Y-101179429D01*
X296251381Y-101274667D01*
X296299000Y-101417524D01*
X296346619Y-101465143D01*
X297251381Y-102417524D02*
X297251381Y-101846095D01*
X297251381Y-102131809D02*
X296251381Y-102131809D01*
X296394238Y-102036571D01*
X296489476Y-101941333D01*
X296537095Y-101846095D01*
X296251381Y-102750857D02*
X296251381Y-103369905D01*
X296632333Y-103036571D01*
X296632333Y-103179429D01*
X296679952Y-103274667D01*
X296727571Y-103322286D01*
X296822810Y-103369905D01*
X297060905Y-103369905D01*
X297156143Y-103322286D01*
X297203762Y-103274667D01*
X297251381Y-103179429D01*
X297251381Y-102893714D01*
X297203762Y-102798476D01*
X297156143Y-102750857D01*
X300839143Y-93464143D02*
X300886762Y-93416524D01*
X300934381Y-93273667D01*
X300934381Y-93178429D01*
X300886762Y-93035571D01*
X300791524Y-92940333D01*
X300696286Y-92892714D01*
X300505810Y-92845095D01*
X300362952Y-92845095D01*
X300172476Y-92892714D01*
X300077238Y-92940333D01*
X299982000Y-93035571D01*
X299934381Y-93178429D01*
X299934381Y-93273667D01*
X299982000Y-93416524D01*
X300029619Y-93464143D01*
X300934381Y-94416524D02*
X300934381Y-93845095D01*
X300934381Y-94130809D02*
X299934381Y-94130809D01*
X300077238Y-94035571D01*
X300172476Y-93940333D01*
X300220095Y-93845095D01*
X300029619Y-94797476D02*
X299982000Y-94845095D01*
X299934381Y-94940333D01*
X299934381Y-95178429D01*
X299982000Y-95273667D01*
X300029619Y-95321286D01*
X300124857Y-95368905D01*
X300220095Y-95368905D01*
X300362952Y-95321286D01*
X300934381Y-94749857D01*
X300934381Y-95368905D01*
X292869857Y-91646143D02*
X292917476Y-91693762D01*
X293060333Y-91741381D01*
X293155571Y-91741381D01*
X293298429Y-91693762D01*
X293393667Y-91598524D01*
X293441286Y-91503286D01*
X293488905Y-91312810D01*
X293488905Y-91169952D01*
X293441286Y-90979476D01*
X293393667Y-90884238D01*
X293298429Y-90789000D01*
X293155571Y-90741381D01*
X293060333Y-90741381D01*
X292917476Y-90789000D01*
X292869857Y-90836619D01*
X291917476Y-91741381D02*
X292488905Y-91741381D01*
X292203191Y-91741381D02*
X292203191Y-90741381D01*
X292298429Y-90884238D01*
X292393667Y-90979476D01*
X292488905Y-91027095D01*
X290965095Y-91741381D02*
X291536524Y-91741381D01*
X291250810Y-91741381D02*
X291250810Y-90741381D01*
X291346048Y-90884238D01*
X291441286Y-90979476D01*
X291536524Y-91027095D01*
X295656143Y-94607143D02*
X295703762Y-94559524D01*
X295751381Y-94416667D01*
X295751381Y-94321429D01*
X295703762Y-94178571D01*
X295608524Y-94083333D01*
X295513286Y-94035714D01*
X295322810Y-93988095D01*
X295179952Y-93988095D01*
X294989476Y-94035714D01*
X294894238Y-94083333D01*
X294799000Y-94178571D01*
X294751381Y-94321429D01*
X294751381Y-94416667D01*
X294799000Y-94559524D01*
X294846619Y-94607143D01*
X295751381Y-95559524D02*
X295751381Y-94988095D01*
X295751381Y-95273809D02*
X294751381Y-95273809D01*
X294894238Y-95178571D01*
X294989476Y-95083333D01*
X295037095Y-94988095D01*
X294751381Y-96178571D02*
X294751381Y-96273810D01*
X294799000Y-96369048D01*
X294846619Y-96416667D01*
X294941857Y-96464286D01*
X295132333Y-96511905D01*
X295370429Y-96511905D01*
X295560905Y-96464286D01*
X295656143Y-96416667D01*
X295703762Y-96369048D01*
X295751381Y-96273810D01*
X295751381Y-96178571D01*
X295703762Y-96083333D01*
X295656143Y-96035714D01*
X295560905Y-95988095D01*
X295370429Y-95940476D01*
X295132333Y-95940476D01*
X294941857Y-95988095D01*
X294846619Y-96035714D01*
X294799000Y-96083333D01*
X294751381Y-96178571D01*
X292393666Y-86590143D02*
X292441285Y-86637762D01*
X292584142Y-86685381D01*
X292679380Y-86685381D01*
X292822238Y-86637762D01*
X292917476Y-86542524D01*
X292965095Y-86447286D01*
X293012714Y-86256810D01*
X293012714Y-86113952D01*
X292965095Y-85923476D01*
X292917476Y-85828238D01*
X292822238Y-85733000D01*
X292679380Y-85685381D01*
X292584142Y-85685381D01*
X292441285Y-85733000D01*
X292393666Y-85780619D01*
X291917476Y-86685381D02*
X291727000Y-86685381D01*
X291631761Y-86637762D01*
X291584142Y-86590143D01*
X291488904Y-86447286D01*
X291441285Y-86256810D01*
X291441285Y-85875857D01*
X291488904Y-85780619D01*
X291536523Y-85733000D01*
X291631761Y-85685381D01*
X291822238Y-85685381D01*
X291917476Y-85733000D01*
X291965095Y-85780619D01*
X292012714Y-85875857D01*
X292012714Y-86113952D01*
X291965095Y-86209190D01*
X291917476Y-86256810D01*
X291822238Y-86304429D01*
X291631761Y-86304429D01*
X291536523Y-86256810D01*
X291488904Y-86209190D01*
X291441285Y-86113952D01*
X300458143Y-98893334D02*
X300505762Y-98845715D01*
X300553381Y-98702858D01*
X300553381Y-98607620D01*
X300505762Y-98464762D01*
X300410524Y-98369524D01*
X300315286Y-98321905D01*
X300124810Y-98274286D01*
X299981952Y-98274286D01*
X299791476Y-98321905D01*
X299696238Y-98369524D01*
X299601000Y-98464762D01*
X299553381Y-98607620D01*
X299553381Y-98702858D01*
X299601000Y-98845715D01*
X299648619Y-98893334D01*
X299981952Y-99464762D02*
X299934333Y-99369524D01*
X299886714Y-99321905D01*
X299791476Y-99274286D01*
X299743857Y-99274286D01*
X299648619Y-99321905D01*
X299601000Y-99369524D01*
X299553381Y-99464762D01*
X299553381Y-99655239D01*
X299601000Y-99750477D01*
X299648619Y-99798096D01*
X299743857Y-99845715D01*
X299791476Y-99845715D01*
X299886714Y-99798096D01*
X299934333Y-99750477D01*
X299981952Y-99655239D01*
X299981952Y-99464762D01*
X300029571Y-99369524D01*
X300077190Y-99321905D01*
X300172429Y-99274286D01*
X300362905Y-99274286D01*
X300458143Y-99321905D01*
X300505762Y-99369524D01*
X300553381Y-99464762D01*
X300553381Y-99655239D01*
X300505762Y-99750477D01*
X300458143Y-99798096D01*
X300362905Y-99845715D01*
X300172429Y-99845715D01*
X300077190Y-99798096D01*
X300029571Y-99750477D01*
X299981952Y-99655239D01*
X135929666Y-135588143D02*
X135977285Y-135635762D01*
X136120142Y-135683381D01*
X136215380Y-135683381D01*
X136358238Y-135635762D01*
X136453476Y-135540524D01*
X136501095Y-135445286D01*
X136548714Y-135254810D01*
X136548714Y-135111952D01*
X136501095Y-134921476D01*
X136453476Y-134826238D01*
X136358238Y-134731000D01*
X136215380Y-134683381D01*
X136120142Y-134683381D01*
X135977285Y-134731000D01*
X135929666Y-134778619D01*
X135072523Y-134683381D02*
X135263000Y-134683381D01*
X135358238Y-134731000D01*
X135405857Y-134778619D01*
X135501095Y-134921476D01*
X135548714Y-135111952D01*
X135548714Y-135492905D01*
X135501095Y-135588143D01*
X135453476Y-135635762D01*
X135358238Y-135683381D01*
X135167761Y-135683381D01*
X135072523Y-135635762D01*
X135024904Y-135588143D01*
X134977285Y-135492905D01*
X134977285Y-135254810D01*
X135024904Y-135159571D01*
X135072523Y-135111952D01*
X135167761Y-135064333D01*
X135358238Y-135064333D01*
X135453476Y-135111952D01*
X135501095Y-135159571D01*
X135548714Y-135254810D01*
X148502666Y-121666143D02*
X148550285Y-121713762D01*
X148693142Y-121761381D01*
X148788380Y-121761381D01*
X148931238Y-121713762D01*
X149026476Y-121618524D01*
X149074095Y-121523286D01*
X149121714Y-121332810D01*
X149121714Y-121189952D01*
X149074095Y-120999476D01*
X149026476Y-120904238D01*
X148931238Y-120809000D01*
X148788380Y-120761381D01*
X148693142Y-120761381D01*
X148550285Y-120809000D01*
X148502666Y-120856619D01*
X147597904Y-120761381D02*
X148074095Y-120761381D01*
X148121714Y-121237571D01*
X148074095Y-121189952D01*
X147978857Y-121142333D01*
X147740761Y-121142333D01*
X147645523Y-121189952D01*
X147597904Y-121237571D01*
X147550285Y-121332810D01*
X147550285Y-121570905D01*
X147597904Y-121666143D01*
X147645523Y-121713762D01*
X147740761Y-121761381D01*
X147978857Y-121761381D01*
X148074095Y-121713762D01*
X148121714Y-121666143D01*
X155908143Y-131151334D02*
X155955762Y-131103715D01*
X156003381Y-130960858D01*
X156003381Y-130865620D01*
X155955762Y-130722762D01*
X155860524Y-130627524D01*
X155765286Y-130579905D01*
X155574810Y-130532286D01*
X155431952Y-130532286D01*
X155241476Y-130579905D01*
X155146238Y-130627524D01*
X155051000Y-130722762D01*
X155003381Y-130865620D01*
X155003381Y-130960858D01*
X155051000Y-131103715D01*
X155098619Y-131151334D01*
X155336714Y-132008477D02*
X156003381Y-132008477D01*
X154955762Y-131770381D02*
X155670048Y-131532286D01*
X155670048Y-132151334D01*
X137580666Y-136779143D02*
X137628285Y-136826762D01*
X137771142Y-136874381D01*
X137866380Y-136874381D01*
X138009238Y-136826762D01*
X138104476Y-136731524D01*
X138152095Y-136636286D01*
X138199714Y-136445810D01*
X138199714Y-136302952D01*
X138152095Y-136112476D01*
X138104476Y-136017238D01*
X138009238Y-135922000D01*
X137866380Y-135874381D01*
X137771142Y-135874381D01*
X137628285Y-135922000D01*
X137580666Y-135969619D01*
X137247333Y-135874381D02*
X136628285Y-135874381D01*
X136961619Y-136255333D01*
X136818761Y-136255333D01*
X136723523Y-136302952D01*
X136675904Y-136350571D01*
X136628285Y-136445810D01*
X136628285Y-136683905D01*
X136675904Y-136779143D01*
X136723523Y-136826762D01*
X136818761Y-136874381D01*
X137104476Y-136874381D01*
X137199714Y-136826762D01*
X137247333Y-136779143D01*
X136882143Y-127722334D02*
X136929762Y-127674715D01*
X136977381Y-127531858D01*
X136977381Y-127436620D01*
X136929762Y-127293762D01*
X136834524Y-127198524D01*
X136739286Y-127150905D01*
X136548810Y-127103286D01*
X136405952Y-127103286D01*
X136215476Y-127150905D01*
X136120238Y-127198524D01*
X136025000Y-127293762D01*
X135977381Y-127436620D01*
X135977381Y-127531858D01*
X136025000Y-127674715D01*
X136072619Y-127722334D01*
X136072619Y-128103286D02*
X136025000Y-128150905D01*
X135977381Y-128246143D01*
X135977381Y-128484239D01*
X136025000Y-128579477D01*
X136072619Y-128627096D01*
X136167857Y-128674715D01*
X136263095Y-128674715D01*
X136405952Y-128627096D01*
X136977381Y-128055667D01*
X136977381Y-128674715D01*
X132119666Y-135612143D02*
X132167285Y-135659762D01*
X132310142Y-135707381D01*
X132405380Y-135707381D01*
X132548238Y-135659762D01*
X132643476Y-135564524D01*
X132691095Y-135469286D01*
X132738714Y-135278810D01*
X132738714Y-135135952D01*
X132691095Y-134945476D01*
X132643476Y-134850238D01*
X132548238Y-134755000D01*
X132405380Y-134707381D01*
X132310142Y-134707381D01*
X132167285Y-134755000D01*
X132119666Y-134802619D01*
X131167285Y-135707381D02*
X131738714Y-135707381D01*
X131453000Y-135707381D02*
X131453000Y-134707381D01*
X131548238Y-134850238D01*
X131643476Y-134945476D01*
X131738714Y-134993095D01*
X287527905Y-98766381D02*
X287527905Y-99575905D01*
X287480286Y-99671143D01*
X287432667Y-99718762D01*
X287337429Y-99766381D01*
X287146952Y-99766381D01*
X287051714Y-99718762D01*
X287004095Y-99671143D01*
X286956476Y-99575905D01*
X286956476Y-98766381D01*
X286051714Y-99099714D02*
X286051714Y-99766381D01*
X286289810Y-98718762D02*
X286527905Y-99433048D01*
X285908857Y-99433048D01*
X75144095Y-48728381D02*
X75144095Y-49537905D01*
X75096476Y-49633143D01*
X75048857Y-49680762D01*
X74953619Y-49728381D01*
X74763142Y-49728381D01*
X74667904Y-49680762D01*
X74620285Y-49633143D01*
X74572666Y-49537905D01*
X74572666Y-48728381D01*
X74144095Y-49680762D02*
X74001238Y-49728381D01*
X73763142Y-49728381D01*
X73667904Y-49680762D01*
X73620285Y-49633143D01*
X73572666Y-49537905D01*
X73572666Y-49442667D01*
X73620285Y-49347429D01*
X73667904Y-49299810D01*
X73763142Y-49252190D01*
X73953619Y-49204571D01*
X74048857Y-49156952D01*
X74096476Y-49109333D01*
X74144095Y-49014095D01*
X74144095Y-48918857D01*
X74096476Y-48823619D01*
X74048857Y-48776000D01*
X73953619Y-48728381D01*
X73715523Y-48728381D01*
X73572666Y-48776000D01*
X72810761Y-49204571D02*
X72667904Y-49252190D01*
X72620285Y-49299810D01*
X72572666Y-49395048D01*
X72572666Y-49537905D01*
X72620285Y-49633143D01*
X72667904Y-49680762D01*
X72763142Y-49728381D01*
X73144095Y-49728381D01*
X73144095Y-48728381D01*
X72810761Y-48728381D01*
X72715523Y-48776000D01*
X72667904Y-48823619D01*
X72620285Y-48918857D01*
X72620285Y-49014095D01*
X72667904Y-49109333D01*
X72715523Y-49156952D01*
X72810761Y-49204571D01*
X73144095Y-49204571D01*
X71620285Y-49728381D02*
X72191714Y-49728381D01*
X71906000Y-49728381D02*
X71906000Y-48728381D01*
X72001238Y-48871238D01*
X72096476Y-48966476D01*
X72191714Y-49014095D01*
X313158036Y-139374256D02*
X313158036Y-138374256D01*
X312919941Y-138374256D01*
X312777083Y-138421875D01*
X312681845Y-138517113D01*
X312634226Y-138612351D01*
X312586607Y-138802827D01*
X312586607Y-138945685D01*
X312634226Y-139136161D01*
X312681845Y-139231399D01*
X312777083Y-139326637D01*
X312919941Y-139374256D01*
X313158036Y-139374256D01*
X311729464Y-138374256D02*
X311919941Y-138374256D01*
X312015179Y-138421875D01*
X312062798Y-138469494D01*
X312158036Y-138612351D01*
X312205655Y-138802827D01*
X312205655Y-139183780D01*
X312158036Y-139279018D01*
X312110417Y-139326637D01*
X312015179Y-139374256D01*
X311824702Y-139374256D01*
X311729464Y-139326637D01*
X311681845Y-139279018D01*
X311634226Y-139183780D01*
X311634226Y-138945685D01*
X311681845Y-138850446D01*
X311729464Y-138802827D01*
X311824702Y-138755208D01*
X312015179Y-138755208D01*
X312110417Y-138802827D01*
X312158036Y-138850446D01*
X312205655Y-138945685D01*
X310777083Y-138707589D02*
X310777083Y-139374256D01*
X311015179Y-138326637D02*
X311253274Y-139040923D01*
X310634226Y-139040923D01*
X310332381Y-129214714D02*
X309332381Y-129214714D01*
X309332381Y-129452809D01*
X309380000Y-129595667D01*
X309475238Y-129690905D01*
X309570476Y-129738524D01*
X309760952Y-129786143D01*
X309903810Y-129786143D01*
X310094286Y-129738524D01*
X310189524Y-129690905D01*
X310284762Y-129595667D01*
X310332381Y-129452809D01*
X310332381Y-129214714D01*
X309332381Y-130643286D02*
X309332381Y-130452809D01*
X309380000Y-130357571D01*
X309427619Y-130309952D01*
X309570476Y-130214714D01*
X309760952Y-130167095D01*
X310141905Y-130167095D01*
X310237143Y-130214714D01*
X310284762Y-130262333D01*
X310332381Y-130357571D01*
X310332381Y-130548048D01*
X310284762Y-130643286D01*
X310237143Y-130690905D01*
X310141905Y-130738524D01*
X309903810Y-130738524D01*
X309808571Y-130690905D01*
X309760952Y-130643286D01*
X309713333Y-130548048D01*
X309713333Y-130357571D01*
X309760952Y-130262333D01*
X309808571Y-130214714D01*
X309903810Y-130167095D01*
X309332381Y-131071857D02*
X309332381Y-131690905D01*
X309713333Y-131357571D01*
X309713333Y-131500429D01*
X309760952Y-131595667D01*
X309808571Y-131643286D01*
X309903810Y-131690905D01*
X310141905Y-131690905D01*
X310237143Y-131643286D01*
X310284762Y-131595667D01*
X310332381Y-131500429D01*
X310332381Y-131214714D01*
X310284762Y-131119476D01*
X310237143Y-131071857D01*
X281058631Y-134516964D02*
X280058631Y-134516964D01*
X280058631Y-134755059D01*
X280106250Y-134897917D01*
X280201488Y-134993155D01*
X280296726Y-135040774D01*
X280487202Y-135088393D01*
X280630060Y-135088393D01*
X280820536Y-135040774D01*
X280915774Y-134993155D01*
X281011012Y-134897917D01*
X281058631Y-134755059D01*
X281058631Y-134516964D01*
X280058631Y-135993155D02*
X280058631Y-135516964D01*
X280534821Y-135469345D01*
X280487202Y-135516964D01*
X280439583Y-135612202D01*
X280439583Y-135850298D01*
X280487202Y-135945536D01*
X280534821Y-135993155D01*
X280630060Y-136040774D01*
X280868155Y-136040774D01*
X280963393Y-135993155D01*
X281011012Y-135945536D01*
X281058631Y-135850298D01*
X281058631Y-135612202D01*
X281011012Y-135516964D01*
X280963393Y-135469345D01*
X280058631Y-136897917D02*
X280058631Y-136707440D01*
X280106250Y-136612202D01*
X280153869Y-136564583D01*
X280296726Y-136469345D01*
X280487202Y-136421726D01*
X280868155Y-136421726D01*
X280963393Y-136469345D01*
X281011012Y-136516964D01*
X281058631Y-136612202D01*
X281058631Y-136802679D01*
X281011012Y-136897917D01*
X280963393Y-136945536D01*
X280868155Y-136993155D01*
X280630060Y-136993155D01*
X280534821Y-136945536D01*
X280487202Y-136897917D01*
X280439583Y-136802679D01*
X280439583Y-136612202D01*
X280487202Y-136516964D01*
X280534821Y-136469345D01*
X280630060Y-136421726D01*
X255595381Y-132135714D02*
X254595381Y-132135714D01*
X254595381Y-132373809D01*
X254643000Y-132516667D01*
X254738238Y-132611905D01*
X254833476Y-132659524D01*
X255023952Y-132707143D01*
X255166810Y-132707143D01*
X255357286Y-132659524D01*
X255452524Y-132611905D01*
X255547762Y-132516667D01*
X255595381Y-132373809D01*
X255595381Y-132135714D01*
X254928714Y-133564286D02*
X255595381Y-133564286D01*
X254547762Y-133326190D02*
X255262048Y-133088095D01*
X255262048Y-133707143D01*
X254690619Y-134040476D02*
X254643000Y-134088095D01*
X254595381Y-134183333D01*
X254595381Y-134421429D01*
X254643000Y-134516667D01*
X254690619Y-134564286D01*
X254785857Y-134611905D01*
X254881095Y-134611905D01*
X255023952Y-134564286D01*
X255595381Y-133992857D01*
X255595381Y-134611905D01*
X68323381Y-61595095D02*
X69132905Y-61595095D01*
X69228143Y-61642714D01*
X69275762Y-61690333D01*
X69323381Y-61785571D01*
X69323381Y-61976048D01*
X69275762Y-62071286D01*
X69228143Y-62118905D01*
X69132905Y-62166524D01*
X68323381Y-62166524D01*
X68323381Y-62547476D02*
X68323381Y-63166524D01*
X68704333Y-62833190D01*
X68704333Y-62976048D01*
X68751952Y-63071286D01*
X68799571Y-63118905D01*
X68894810Y-63166524D01*
X69132905Y-63166524D01*
X69228143Y-63118905D01*
X69275762Y-63071286D01*
X69323381Y-62976048D01*
X69323381Y-62690333D01*
X69275762Y-62595095D01*
X69228143Y-62547476D01*
X62539571Y-64690667D02*
X62539571Y-64357333D01*
X63063381Y-64357333D02*
X62063381Y-64357333D01*
X62063381Y-64833524D01*
X63063381Y-65738286D02*
X63063381Y-65166857D01*
X63063381Y-65452571D02*
X62063381Y-65452571D01*
X62206238Y-65357333D01*
X62301476Y-65262095D01*
X62349095Y-65166857D01*
X161797905Y-139628381D02*
X161797905Y-140437905D01*
X161750286Y-140533143D01*
X161702667Y-140580762D01*
X161607429Y-140628381D01*
X161416952Y-140628381D01*
X161321714Y-140580762D01*
X161274095Y-140533143D01*
X161226476Y-140437905D01*
X161226476Y-139628381D01*
X160274095Y-139628381D02*
X160750286Y-139628381D01*
X160797905Y-140104571D01*
X160750286Y-140056952D01*
X160655048Y-140009333D01*
X160416952Y-140009333D01*
X160321714Y-140056952D01*
X160274095Y-140104571D01*
X160226476Y-140199810D01*
X160226476Y-140437905D01*
X160274095Y-140533143D01*
X160321714Y-140580762D01*
X160416952Y-140628381D01*
X160655048Y-140628381D01*
X160750286Y-140580762D01*
X160797905Y-140533143D01*
D15*
X124214881Y-122229762D02*
X124214881Y-121753571D01*
X123214881Y-121753571D01*
X123691071Y-122563095D02*
X123691071Y-122896429D01*
X124214881Y-123039286D02*
X124214881Y-122563095D01*
X123214881Y-122563095D01*
X123214881Y-123039286D01*
X124214881Y-123467857D02*
X123214881Y-123467857D01*
X123214881Y-123705952D01*
X123262500Y-123848810D01*
X123357738Y-123944048D01*
X123452976Y-123991667D01*
X123643452Y-124039286D01*
X123786310Y-124039286D01*
X123976786Y-123991667D01*
X124072024Y-123944048D01*
X124167262Y-123848810D01*
X124214881Y-123705952D01*
X124214881Y-123467857D01*
X124214881Y-124991667D02*
X124214881Y-124420238D01*
X124214881Y-124705952D02*
X123214881Y-124705952D01*
X123357738Y-124610714D01*
X123452976Y-124515476D01*
X123500595Y-124420238D01*
X123310119Y-125372619D02*
X123262500Y-125420238D01*
X123214881Y-125515476D01*
X123214881Y-125753572D01*
X123262500Y-125848810D01*
X123310119Y-125896429D01*
X123405357Y-125944048D01*
X123500595Y-125944048D01*
X123643452Y-125896429D01*
X124214881Y-125325000D01*
X124214881Y-125944048D01*
X258008381Y-65079762D02*
X258008381Y-64603571D01*
X257008381Y-64603571D01*
X257484571Y-65413095D02*
X257484571Y-65746429D01*
X258008381Y-65889286D02*
X258008381Y-65413095D01*
X257008381Y-65413095D01*
X257008381Y-65889286D01*
X258008381Y-66317857D02*
X257008381Y-66317857D01*
X257008381Y-66555952D01*
X257056000Y-66698810D01*
X257151238Y-66794048D01*
X257246476Y-66841667D01*
X257436952Y-66889286D01*
X257579810Y-66889286D01*
X257770286Y-66841667D01*
X257865524Y-66794048D01*
X257960762Y-66698810D01*
X258008381Y-66555952D01*
X258008381Y-66317857D01*
X258008381Y-67841667D02*
X258008381Y-67270238D01*
X258008381Y-67555952D02*
X257008381Y-67555952D01*
X257151238Y-67460714D01*
X257246476Y-67365476D01*
X257294095Y-67270238D01*
X258008381Y-68794048D02*
X258008381Y-68222619D01*
X258008381Y-68508333D02*
X257008381Y-68508333D01*
X257151238Y-68413095D01*
X257246476Y-68317857D01*
X257294095Y-68222619D01*
X76398381Y-120197762D02*
X76398381Y-119721571D01*
X75398381Y-119721571D01*
X75874571Y-120531095D02*
X75874571Y-120864429D01*
X76398381Y-121007286D02*
X76398381Y-120531095D01*
X75398381Y-120531095D01*
X75398381Y-121007286D01*
X76398381Y-121435857D02*
X75398381Y-121435857D01*
X75398381Y-121673952D01*
X75446000Y-121816810D01*
X75541238Y-121912048D01*
X75636476Y-121959667D01*
X75826952Y-122007286D01*
X75969810Y-122007286D01*
X76160286Y-121959667D01*
X76255524Y-121912048D01*
X76350762Y-121816810D01*
X76398381Y-121673952D01*
X76398381Y-121435857D01*
X76398381Y-122959667D02*
X76398381Y-122388238D01*
X76398381Y-122673952D02*
X75398381Y-122673952D01*
X75541238Y-122578714D01*
X75636476Y-122483476D01*
X75684095Y-122388238D01*
X75398381Y-123578714D02*
X75398381Y-123673953D01*
X75446000Y-123769191D01*
X75493619Y-123816810D01*
X75588857Y-123864429D01*
X75779333Y-123912048D01*
X76017429Y-123912048D01*
X76207905Y-123864429D01*
X76303143Y-123816810D01*
X76350762Y-123769191D01*
X76398381Y-123673953D01*
X76398381Y-123578714D01*
X76350762Y-123483476D01*
X76303143Y-123435857D01*
X76207905Y-123388238D01*
X76017429Y-123340619D01*
X75779333Y-123340619D01*
X75588857Y-123388238D01*
X75493619Y-123435857D01*
X75446000Y-123483476D01*
X75398381Y-123578714D01*
X305760381Y-65682953D02*
X305760381Y-65206762D01*
X304760381Y-65206762D01*
X305236571Y-66016286D02*
X305236571Y-66349620D01*
X305760381Y-66492477D02*
X305760381Y-66016286D01*
X304760381Y-66016286D01*
X304760381Y-66492477D01*
X305760381Y-66921048D02*
X304760381Y-66921048D01*
X304760381Y-67159143D01*
X304808000Y-67302001D01*
X304903238Y-67397239D01*
X304998476Y-67444858D01*
X305188952Y-67492477D01*
X305331810Y-67492477D01*
X305522286Y-67444858D01*
X305617524Y-67397239D01*
X305712762Y-67302001D01*
X305760381Y-67159143D01*
X305760381Y-66921048D01*
X305760381Y-67968667D02*
X305760381Y-68159143D01*
X305712762Y-68254382D01*
X305665143Y-68302001D01*
X305522286Y-68397239D01*
X305331810Y-68444858D01*
X304950857Y-68444858D01*
X304855619Y-68397239D01*
X304808000Y-68349620D01*
X304760381Y-68254382D01*
X304760381Y-68063905D01*
X304808000Y-67968667D01*
X304855619Y-67921048D01*
X304950857Y-67873429D01*
X305188952Y-67873429D01*
X305284190Y-67921048D01*
X305331810Y-67968667D01*
X305379429Y-68063905D01*
X305379429Y-68254382D01*
X305331810Y-68349620D01*
X305284190Y-68397239D01*
X305188952Y-68444858D01*
X69921381Y-65428953D02*
X69921381Y-64952762D01*
X68921381Y-64952762D01*
X69397571Y-65762286D02*
X69397571Y-66095620D01*
X69921381Y-66238477D02*
X69921381Y-65762286D01*
X68921381Y-65762286D01*
X68921381Y-66238477D01*
X69921381Y-66667048D02*
X68921381Y-66667048D01*
X68921381Y-66905143D01*
X68969000Y-67048001D01*
X69064238Y-67143239D01*
X69159476Y-67190858D01*
X69349952Y-67238477D01*
X69492810Y-67238477D01*
X69683286Y-67190858D01*
X69778524Y-67143239D01*
X69873762Y-67048001D01*
X69921381Y-66905143D01*
X69921381Y-66667048D01*
X69349952Y-67809905D02*
X69302333Y-67714667D01*
X69254714Y-67667048D01*
X69159476Y-67619429D01*
X69111857Y-67619429D01*
X69016619Y-67667048D01*
X68969000Y-67714667D01*
X68921381Y-67809905D01*
X68921381Y-68000382D01*
X68969000Y-68095620D01*
X69016619Y-68143239D01*
X69111857Y-68190858D01*
X69159476Y-68190858D01*
X69254714Y-68143239D01*
X69302333Y-68095620D01*
X69349952Y-68000382D01*
X69349952Y-67809905D01*
X69397571Y-67714667D01*
X69445190Y-67667048D01*
X69540429Y-67619429D01*
X69730905Y-67619429D01*
X69826143Y-67667048D01*
X69873762Y-67714667D01*
X69921381Y-67809905D01*
X69921381Y-68000382D01*
X69873762Y-68095620D01*
X69826143Y-68143239D01*
X69730905Y-68190858D01*
X69540429Y-68190858D01*
X69445190Y-68143239D01*
X69397571Y-68095620D01*
X69349952Y-68000382D01*
X314714881Y-122705953D02*
X314714881Y-122229762D01*
X313714881Y-122229762D01*
X314191071Y-123039286D02*
X314191071Y-123372620D01*
X314714881Y-123515477D02*
X314714881Y-123039286D01*
X313714881Y-123039286D01*
X313714881Y-123515477D01*
X314714881Y-123944048D02*
X313714881Y-123944048D01*
X313714881Y-124182143D01*
X313762500Y-124325001D01*
X313857738Y-124420239D01*
X313952976Y-124467858D01*
X314143452Y-124515477D01*
X314286310Y-124515477D01*
X314476786Y-124467858D01*
X314572024Y-124420239D01*
X314667262Y-124325001D01*
X314714881Y-124182143D01*
X314714881Y-123944048D01*
X313714881Y-124848810D02*
X313714881Y-125515477D01*
X314714881Y-125086905D01*
X115133381Y-65555953D02*
X115133381Y-65079762D01*
X114133381Y-65079762D01*
X114609571Y-65889286D02*
X114609571Y-66222620D01*
X115133381Y-66365477D02*
X115133381Y-65889286D01*
X114133381Y-65889286D01*
X114133381Y-66365477D01*
X115133381Y-66794048D02*
X114133381Y-66794048D01*
X114133381Y-67032143D01*
X114181000Y-67175001D01*
X114276238Y-67270239D01*
X114371476Y-67317858D01*
X114561952Y-67365477D01*
X114704810Y-67365477D01*
X114895286Y-67317858D01*
X114990524Y-67270239D01*
X115085762Y-67175001D01*
X115133381Y-67032143D01*
X115133381Y-66794048D01*
X114133381Y-68222620D02*
X114133381Y-68032143D01*
X114181000Y-67936905D01*
X114228619Y-67889286D01*
X114371476Y-67794048D01*
X114561952Y-67746429D01*
X114942905Y-67746429D01*
X115038143Y-67794048D01*
X115085762Y-67841667D01*
X115133381Y-67936905D01*
X115133381Y-68127382D01*
X115085762Y-68222620D01*
X115038143Y-68270239D01*
X114942905Y-68317858D01*
X114704810Y-68317858D01*
X114609571Y-68270239D01*
X114561952Y-68222620D01*
X114514333Y-68127382D01*
X114514333Y-67936905D01*
X114561952Y-67841667D01*
X114609571Y-67794048D01*
X114704810Y-67746429D01*
X266898381Y-120927953D02*
X266898381Y-120451762D01*
X265898381Y-120451762D01*
X266374571Y-121261286D02*
X266374571Y-121594620D01*
X266898381Y-121737477D02*
X266898381Y-121261286D01*
X265898381Y-121261286D01*
X265898381Y-121737477D01*
X266898381Y-122166048D02*
X265898381Y-122166048D01*
X265898381Y-122404143D01*
X265946000Y-122547001D01*
X266041238Y-122642239D01*
X266136476Y-122689858D01*
X266326952Y-122737477D01*
X266469810Y-122737477D01*
X266660286Y-122689858D01*
X266755524Y-122642239D01*
X266850762Y-122547001D01*
X266898381Y-122404143D01*
X266898381Y-122166048D01*
X265898381Y-123642239D02*
X265898381Y-123166048D01*
X266374571Y-123118429D01*
X266326952Y-123166048D01*
X266279333Y-123261286D01*
X266279333Y-123499382D01*
X266326952Y-123594620D01*
X266374571Y-123642239D01*
X266469810Y-123689858D01*
X266707905Y-123689858D01*
X266803143Y-123642239D01*
X266850762Y-123594620D01*
X266898381Y-123499382D01*
X266898381Y-123261286D01*
X266850762Y-123166048D01*
X266803143Y-123118429D01*
X162758381Y-65555953D02*
X162758381Y-65079762D01*
X161758381Y-65079762D01*
X162234571Y-65889286D02*
X162234571Y-66222620D01*
X162758381Y-66365477D02*
X162758381Y-65889286D01*
X161758381Y-65889286D01*
X161758381Y-66365477D01*
X162758381Y-66794048D02*
X161758381Y-66794048D01*
X161758381Y-67032143D01*
X161806000Y-67175001D01*
X161901238Y-67270239D01*
X161996476Y-67317858D01*
X162186952Y-67365477D01*
X162329810Y-67365477D01*
X162520286Y-67317858D01*
X162615524Y-67270239D01*
X162710762Y-67175001D01*
X162758381Y-67032143D01*
X162758381Y-66794048D01*
X162091714Y-68222620D02*
X162758381Y-68222620D01*
X161710762Y-67984524D02*
X162425048Y-67746429D01*
X162425048Y-68365477D01*
X210256381Y-122705953D02*
X210256381Y-122229762D01*
X209256381Y-122229762D01*
X209732571Y-123039286D02*
X209732571Y-123372620D01*
X210256381Y-123515477D02*
X210256381Y-123039286D01*
X209256381Y-123039286D01*
X209256381Y-123515477D01*
X210256381Y-123944048D02*
X209256381Y-123944048D01*
X209256381Y-124182143D01*
X209304000Y-124325001D01*
X209399238Y-124420239D01*
X209494476Y-124467858D01*
X209684952Y-124515477D01*
X209827810Y-124515477D01*
X210018286Y-124467858D01*
X210113524Y-124420239D01*
X210208762Y-124325001D01*
X210256381Y-124182143D01*
X210256381Y-123944048D01*
X209256381Y-124848810D02*
X209256381Y-125467858D01*
X209637333Y-125134524D01*
X209637333Y-125277382D01*
X209684952Y-125372620D01*
X209732571Y-125420239D01*
X209827810Y-125467858D01*
X210065905Y-125467858D01*
X210161143Y-125420239D01*
X210208762Y-125372620D01*
X210256381Y-125277382D01*
X210256381Y-124991667D01*
X210208762Y-124896429D01*
X210161143Y-124848810D01*
X210383381Y-65555953D02*
X210383381Y-65079762D01*
X209383381Y-65079762D01*
X209859571Y-65889286D02*
X209859571Y-66222620D01*
X210383381Y-66365477D02*
X210383381Y-65889286D01*
X209383381Y-65889286D01*
X209383381Y-66365477D01*
X210383381Y-66794048D02*
X209383381Y-66794048D01*
X209383381Y-67032143D01*
X209431000Y-67175001D01*
X209526238Y-67270239D01*
X209621476Y-67317858D01*
X209811952Y-67365477D01*
X209954810Y-67365477D01*
X210145286Y-67317858D01*
X210240524Y-67270239D01*
X210335762Y-67175001D01*
X210383381Y-67032143D01*
X210383381Y-66794048D01*
X209478619Y-67746429D02*
X209431000Y-67794048D01*
X209383381Y-67889286D01*
X209383381Y-68127382D01*
X209431000Y-68222620D01*
X209478619Y-68270239D01*
X209573857Y-68317858D01*
X209669095Y-68317858D01*
X209811952Y-68270239D01*
X210383381Y-67698810D01*
X210383381Y-68317858D01*
X166822381Y-123213953D02*
X166822381Y-122737762D01*
X165822381Y-122737762D01*
X166298571Y-123547286D02*
X166298571Y-123880620D01*
X166822381Y-124023477D02*
X166822381Y-123547286D01*
X165822381Y-123547286D01*
X165822381Y-124023477D01*
X166822381Y-124452048D02*
X165822381Y-124452048D01*
X165822381Y-124690143D01*
X165870000Y-124833001D01*
X165965238Y-124928239D01*
X166060476Y-124975858D01*
X166250952Y-125023477D01*
X166393810Y-125023477D01*
X166584286Y-124975858D01*
X166679524Y-124928239D01*
X166774762Y-124833001D01*
X166822381Y-124690143D01*
X166822381Y-124452048D01*
X166822381Y-125975858D02*
X166822381Y-125404429D01*
X166822381Y-125690143D02*
X165822381Y-125690143D01*
X165965238Y-125594905D01*
X166060476Y-125499667D01*
X166108095Y-125404429D01*
D16*
X170230679Y-133819416D02*
X170230679Y-133062496D01*
X169942328Y-133062496D01*
X169870241Y-133098540D01*
X169834197Y-133134584D01*
X169798153Y-133206671D01*
X169798153Y-133314803D01*
X169834197Y-133386890D01*
X169870241Y-133422934D01*
X169942328Y-133458978D01*
X170230679Y-133458978D01*
X169077277Y-133819416D02*
X169509803Y-133819416D01*
X169293540Y-133819416D02*
X169293540Y-133062496D01*
X169365628Y-133170628D01*
X169437715Y-133242715D01*
X169509803Y-133278759D01*
D11*
X123896131Y-132135714D02*
X122896131Y-132135714D01*
X122896131Y-132373809D01*
X122943750Y-132516667D01*
X123038988Y-132611905D01*
X123134226Y-132659524D01*
X123324702Y-132707143D01*
X123467560Y-132707143D01*
X123658036Y-132659524D01*
X123753274Y-132611905D01*
X123848512Y-132516667D01*
X123896131Y-132373809D01*
X123896131Y-132135714D01*
X122896131Y-133564286D02*
X122896131Y-133373809D01*
X122943750Y-133278571D01*
X122991369Y-133230952D01*
X123134226Y-133135714D01*
X123324702Y-133088095D01*
X123705655Y-133088095D01*
X123800893Y-133135714D01*
X123848512Y-133183333D01*
X123896131Y-133278571D01*
X123896131Y-133469048D01*
X123848512Y-133564286D01*
X123800893Y-133611905D01*
X123705655Y-133659524D01*
X123467560Y-133659524D01*
X123372321Y-133611905D01*
X123324702Y-133564286D01*
X123277083Y-133469048D01*
X123277083Y-133278571D01*
X123324702Y-133183333D01*
X123372321Y-133135714D01*
X123467560Y-133088095D01*
X122991369Y-134040476D02*
X122943750Y-134088095D01*
X122896131Y-134183333D01*
X122896131Y-134421429D01*
X122943750Y-134516667D01*
X122991369Y-134564286D01*
X123086607Y-134611905D01*
X123181845Y-134611905D01*
X123324702Y-134564286D01*
X123896131Y-133992857D01*
X123896131Y-134611905D01*
X97702381Y-132135714D02*
X96702381Y-132135714D01*
X96702381Y-132373809D01*
X96750000Y-132516667D01*
X96845238Y-132611905D01*
X96940476Y-132659524D01*
X97130952Y-132707143D01*
X97273810Y-132707143D01*
X97464286Y-132659524D01*
X97559524Y-132611905D01*
X97654762Y-132516667D01*
X97702381Y-132373809D01*
X97702381Y-132135714D01*
X96702381Y-133564286D02*
X96702381Y-133373809D01*
X96750000Y-133278571D01*
X96797619Y-133230952D01*
X96940476Y-133135714D01*
X97130952Y-133088095D01*
X97511905Y-133088095D01*
X97607143Y-133135714D01*
X97654762Y-133183333D01*
X97702381Y-133278571D01*
X97702381Y-133469048D01*
X97654762Y-133564286D01*
X97607143Y-133611905D01*
X97511905Y-133659524D01*
X97273810Y-133659524D01*
X97178571Y-133611905D01*
X97130952Y-133564286D01*
X97083333Y-133469048D01*
X97083333Y-133278571D01*
X97130952Y-133183333D01*
X97178571Y-133135714D01*
X97273810Y-133088095D01*
X97702381Y-134611905D02*
X97702381Y-134040476D01*
X97702381Y-134326190D02*
X96702381Y-134326190D01*
X96845238Y-134230952D01*
X96940476Y-134135714D01*
X96988095Y-134040476D01*
X71508631Y-132135714D02*
X70508631Y-132135714D01*
X70508631Y-132373809D01*
X70556250Y-132516667D01*
X70651488Y-132611905D01*
X70746726Y-132659524D01*
X70937202Y-132707143D01*
X71080060Y-132707143D01*
X71270536Y-132659524D01*
X71365774Y-132611905D01*
X71461012Y-132516667D01*
X71508631Y-132373809D01*
X71508631Y-132135714D01*
X70508631Y-133564286D02*
X70508631Y-133373809D01*
X70556250Y-133278571D01*
X70603869Y-133230952D01*
X70746726Y-133135714D01*
X70937202Y-133088095D01*
X71318155Y-133088095D01*
X71413393Y-133135714D01*
X71461012Y-133183333D01*
X71508631Y-133278571D01*
X71508631Y-133469048D01*
X71461012Y-133564286D01*
X71413393Y-133611905D01*
X71318155Y-133659524D01*
X71080060Y-133659524D01*
X70984821Y-133611905D01*
X70937202Y-133564286D01*
X70889583Y-133469048D01*
X70889583Y-133278571D01*
X70937202Y-133183333D01*
X70984821Y-133135714D01*
X71080060Y-133088095D01*
X70508631Y-134278571D02*
X70508631Y-134373810D01*
X70556250Y-134469048D01*
X70603869Y-134516667D01*
X70699107Y-134564286D01*
X70889583Y-134611905D01*
X71127679Y-134611905D01*
X71318155Y-134564286D01*
X71413393Y-134516667D01*
X71461012Y-134469048D01*
X71508631Y-134373810D01*
X71508631Y-134278571D01*
X71461012Y-134183333D01*
X71413393Y-134135714D01*
X71318155Y-134088095D01*
X71127679Y-134040476D01*
X70889583Y-134040476D01*
X70699107Y-134088095D01*
X70603869Y-134135714D01*
X70556250Y-134183333D01*
X70508631Y-134278571D01*
X316777381Y-113085714D02*
X315777381Y-113085714D01*
X315777381Y-113323809D01*
X315825000Y-113466667D01*
X315920238Y-113561905D01*
X316015476Y-113609524D01*
X316205952Y-113657143D01*
X316348810Y-113657143D01*
X316539286Y-113609524D01*
X316634524Y-113561905D01*
X316729762Y-113466667D01*
X316777381Y-113323809D01*
X316777381Y-113085714D01*
X315777381Y-114561905D02*
X315777381Y-114085714D01*
X316253571Y-114038095D01*
X316205952Y-114085714D01*
X316158333Y-114180952D01*
X316158333Y-114419048D01*
X316205952Y-114514286D01*
X316253571Y-114561905D01*
X316348810Y-114609524D01*
X316586905Y-114609524D01*
X316682143Y-114561905D01*
X316729762Y-114514286D01*
X316777381Y-114419048D01*
X316777381Y-114180952D01*
X316729762Y-114085714D01*
X316682143Y-114038095D01*
X316777381Y-115085714D02*
X316777381Y-115276190D01*
X316729762Y-115371429D01*
X316682143Y-115419048D01*
X316539286Y-115514286D01*
X316348810Y-115561905D01*
X315967857Y-115561905D01*
X315872619Y-115514286D01*
X315825000Y-115466667D01*
X315777381Y-115371429D01*
X315777381Y-115180952D01*
X315825000Y-115085714D01*
X315872619Y-115038095D01*
X315967857Y-114990476D01*
X316205952Y-114990476D01*
X316301190Y-115038095D01*
X316348810Y-115085714D01*
X316396429Y-115180952D01*
X316396429Y-115371429D01*
X316348810Y-115466667D01*
X316301190Y-115514286D01*
X316205952Y-115561905D01*
X287726381Y-113085714D02*
X286726381Y-113085714D01*
X286726381Y-113323809D01*
X286774000Y-113466667D01*
X286869238Y-113561905D01*
X286964476Y-113609524D01*
X287154952Y-113657143D01*
X287297810Y-113657143D01*
X287488286Y-113609524D01*
X287583524Y-113561905D01*
X287678762Y-113466667D01*
X287726381Y-113323809D01*
X287726381Y-113085714D01*
X286726381Y-114561905D02*
X286726381Y-114085714D01*
X287202571Y-114038095D01*
X287154952Y-114085714D01*
X287107333Y-114180952D01*
X287107333Y-114419048D01*
X287154952Y-114514286D01*
X287202571Y-114561905D01*
X287297810Y-114609524D01*
X287535905Y-114609524D01*
X287631143Y-114561905D01*
X287678762Y-114514286D01*
X287726381Y-114419048D01*
X287726381Y-114180952D01*
X287678762Y-114085714D01*
X287631143Y-114038095D01*
X287154952Y-115180952D02*
X287107333Y-115085714D01*
X287059714Y-115038095D01*
X286964476Y-114990476D01*
X286916857Y-114990476D01*
X286821619Y-115038095D01*
X286774000Y-115085714D01*
X286726381Y-115180952D01*
X286726381Y-115371429D01*
X286774000Y-115466667D01*
X286821619Y-115514286D01*
X286916857Y-115561905D01*
X286964476Y-115561905D01*
X287059714Y-115514286D01*
X287107333Y-115466667D01*
X287154952Y-115371429D01*
X287154952Y-115180952D01*
X287202571Y-115085714D01*
X287250190Y-115038095D01*
X287345429Y-114990476D01*
X287535905Y-114990476D01*
X287631143Y-115038095D01*
X287678762Y-115085714D01*
X287726381Y-115180952D01*
X287726381Y-115371429D01*
X287678762Y-115466667D01*
X287631143Y-115514286D01*
X287535905Y-115561905D01*
X287345429Y-115561905D01*
X287250190Y-115514286D01*
X287202571Y-115466667D01*
X287154952Y-115371429D01*
X263596381Y-117022714D02*
X262596381Y-117022714D01*
X262596381Y-117260809D01*
X262644000Y-117403667D01*
X262739238Y-117498905D01*
X262834476Y-117546524D01*
X263024952Y-117594143D01*
X263167810Y-117594143D01*
X263358286Y-117546524D01*
X263453524Y-117498905D01*
X263548762Y-117403667D01*
X263596381Y-117260809D01*
X263596381Y-117022714D01*
X262596381Y-118498905D02*
X262596381Y-118022714D01*
X263072571Y-117975095D01*
X263024952Y-118022714D01*
X262977333Y-118117952D01*
X262977333Y-118356048D01*
X263024952Y-118451286D01*
X263072571Y-118498905D01*
X263167810Y-118546524D01*
X263405905Y-118546524D01*
X263501143Y-118498905D01*
X263548762Y-118451286D01*
X263596381Y-118356048D01*
X263596381Y-118117952D01*
X263548762Y-118022714D01*
X263501143Y-117975095D01*
X262596381Y-118879857D02*
X262596381Y-119546524D01*
X263596381Y-119117952D01*
X200096131Y-132135714D02*
X199096131Y-132135714D01*
X199096131Y-132373809D01*
X199143750Y-132516667D01*
X199238988Y-132611905D01*
X199334226Y-132659524D01*
X199524702Y-132707143D01*
X199667560Y-132707143D01*
X199858036Y-132659524D01*
X199953274Y-132611905D01*
X200048512Y-132516667D01*
X200096131Y-132373809D01*
X200096131Y-132135714D01*
X199096131Y-133611905D02*
X199096131Y-133135714D01*
X199572321Y-133088095D01*
X199524702Y-133135714D01*
X199477083Y-133230952D01*
X199477083Y-133469048D01*
X199524702Y-133564286D01*
X199572321Y-133611905D01*
X199667560Y-133659524D01*
X199905655Y-133659524D01*
X200000893Y-133611905D01*
X200048512Y-133564286D01*
X200096131Y-133469048D01*
X200096131Y-133230952D01*
X200048512Y-133135714D01*
X200000893Y-133088095D01*
X199096131Y-134564286D02*
X199096131Y-134088095D01*
X199572321Y-134040476D01*
X199524702Y-134088095D01*
X199477083Y-134183333D01*
X199477083Y-134421429D01*
X199524702Y-134516667D01*
X199572321Y-134564286D01*
X199667560Y-134611905D01*
X199905655Y-134611905D01*
X200000893Y-134564286D01*
X200048512Y-134516667D01*
X200096131Y-134421429D01*
X200096131Y-134183333D01*
X200048512Y-134088095D01*
X200000893Y-134040476D01*
X259913381Y-109021714D02*
X258913381Y-109021714D01*
X258913381Y-109259809D01*
X258961000Y-109402667D01*
X259056238Y-109497905D01*
X259151476Y-109545524D01*
X259341952Y-109593143D01*
X259484810Y-109593143D01*
X259675286Y-109545524D01*
X259770524Y-109497905D01*
X259865762Y-109402667D01*
X259913381Y-109259809D01*
X259913381Y-109021714D01*
X258913381Y-110497905D02*
X258913381Y-110021714D01*
X259389571Y-109974095D01*
X259341952Y-110021714D01*
X259294333Y-110116952D01*
X259294333Y-110355048D01*
X259341952Y-110450286D01*
X259389571Y-110497905D01*
X259484810Y-110545524D01*
X259722905Y-110545524D01*
X259818143Y-110497905D01*
X259865762Y-110450286D01*
X259913381Y-110355048D01*
X259913381Y-110116952D01*
X259865762Y-110021714D01*
X259818143Y-109974095D01*
X259246714Y-111402667D02*
X259913381Y-111402667D01*
X258865762Y-111164571D02*
X259580048Y-110926476D01*
X259580048Y-111545524D01*
X242958631Y-113085714D02*
X241958631Y-113085714D01*
X241958631Y-113323809D01*
X242006250Y-113466667D01*
X242101488Y-113561905D01*
X242196726Y-113609524D01*
X242387202Y-113657143D01*
X242530060Y-113657143D01*
X242720536Y-113609524D01*
X242815774Y-113561905D01*
X242911012Y-113466667D01*
X242958631Y-113323809D01*
X242958631Y-113085714D01*
X241958631Y-114561905D02*
X241958631Y-114085714D01*
X242434821Y-114038095D01*
X242387202Y-114085714D01*
X242339583Y-114180952D01*
X242339583Y-114419048D01*
X242387202Y-114514286D01*
X242434821Y-114561905D01*
X242530060Y-114609524D01*
X242768155Y-114609524D01*
X242863393Y-114561905D01*
X242911012Y-114514286D01*
X242958631Y-114419048D01*
X242958631Y-114180952D01*
X242911012Y-114085714D01*
X242863393Y-114038095D01*
X241958631Y-114942857D02*
X241958631Y-115561905D01*
X242339583Y-115228571D01*
X242339583Y-115371429D01*
X242387202Y-115466667D01*
X242434821Y-115514286D01*
X242530060Y-115561905D01*
X242768155Y-115561905D01*
X242863393Y-115514286D01*
X242911012Y-115466667D01*
X242958631Y-115371429D01*
X242958631Y-115085714D01*
X242911012Y-114990476D01*
X242863393Y-114942857D01*
X223908631Y-113085714D02*
X222908631Y-113085714D01*
X222908631Y-113323809D01*
X222956250Y-113466667D01*
X223051488Y-113561905D01*
X223146726Y-113609524D01*
X223337202Y-113657143D01*
X223480060Y-113657143D01*
X223670536Y-113609524D01*
X223765774Y-113561905D01*
X223861012Y-113466667D01*
X223908631Y-113323809D01*
X223908631Y-113085714D01*
X222908631Y-114561905D02*
X222908631Y-114085714D01*
X223384821Y-114038095D01*
X223337202Y-114085714D01*
X223289583Y-114180952D01*
X223289583Y-114419048D01*
X223337202Y-114514286D01*
X223384821Y-114561905D01*
X223480060Y-114609524D01*
X223718155Y-114609524D01*
X223813393Y-114561905D01*
X223861012Y-114514286D01*
X223908631Y-114419048D01*
X223908631Y-114180952D01*
X223861012Y-114085714D01*
X223813393Y-114038095D01*
X223003869Y-114990476D02*
X222956250Y-115038095D01*
X222908631Y-115133333D01*
X222908631Y-115371429D01*
X222956250Y-115466667D01*
X223003869Y-115514286D01*
X223099107Y-115561905D01*
X223194345Y-115561905D01*
X223337202Y-115514286D01*
X223908631Y-114942857D01*
X223908631Y-115561905D01*
X204858631Y-113085714D02*
X203858631Y-113085714D01*
X203858631Y-113323809D01*
X203906250Y-113466667D01*
X204001488Y-113561905D01*
X204096726Y-113609524D01*
X204287202Y-113657143D01*
X204430060Y-113657143D01*
X204620536Y-113609524D01*
X204715774Y-113561905D01*
X204811012Y-113466667D01*
X204858631Y-113323809D01*
X204858631Y-113085714D01*
X203858631Y-114561905D02*
X203858631Y-114085714D01*
X204334821Y-114038095D01*
X204287202Y-114085714D01*
X204239583Y-114180952D01*
X204239583Y-114419048D01*
X204287202Y-114514286D01*
X204334821Y-114561905D01*
X204430060Y-114609524D01*
X204668155Y-114609524D01*
X204763393Y-114561905D01*
X204811012Y-114514286D01*
X204858631Y-114419048D01*
X204858631Y-114180952D01*
X204811012Y-114085714D01*
X204763393Y-114038095D01*
X204858631Y-115561905D02*
X204858631Y-114990476D01*
X204858631Y-115276190D02*
X203858631Y-115276190D01*
X204001488Y-115180952D01*
X204096726Y-115085714D01*
X204144345Y-114990476D01*
X185808631Y-113085714D02*
X184808631Y-113085714D01*
X184808631Y-113323809D01*
X184856250Y-113466667D01*
X184951488Y-113561905D01*
X185046726Y-113609524D01*
X185237202Y-113657143D01*
X185380060Y-113657143D01*
X185570536Y-113609524D01*
X185665774Y-113561905D01*
X185761012Y-113466667D01*
X185808631Y-113323809D01*
X185808631Y-113085714D01*
X184808631Y-114561905D02*
X184808631Y-114085714D01*
X185284821Y-114038095D01*
X185237202Y-114085714D01*
X185189583Y-114180952D01*
X185189583Y-114419048D01*
X185237202Y-114514286D01*
X185284821Y-114561905D01*
X185380060Y-114609524D01*
X185618155Y-114609524D01*
X185713393Y-114561905D01*
X185761012Y-114514286D01*
X185808631Y-114419048D01*
X185808631Y-114180952D01*
X185761012Y-114085714D01*
X185713393Y-114038095D01*
X184808631Y-115228571D02*
X184808631Y-115323810D01*
X184856250Y-115419048D01*
X184903869Y-115466667D01*
X184999107Y-115514286D01*
X185189583Y-115561905D01*
X185427679Y-115561905D01*
X185618155Y-115514286D01*
X185713393Y-115466667D01*
X185761012Y-115419048D01*
X185808631Y-115323810D01*
X185808631Y-115228571D01*
X185761012Y-115133333D01*
X185713393Y-115085714D01*
X185618155Y-115038095D01*
X185427679Y-114990476D01*
X185189583Y-114990476D01*
X184999107Y-115038095D01*
X184903869Y-115085714D01*
X184856250Y-115133333D01*
X184808631Y-115228571D01*
X166758631Y-113085714D02*
X165758631Y-113085714D01*
X165758631Y-113323809D01*
X165806250Y-113466667D01*
X165901488Y-113561905D01*
X165996726Y-113609524D01*
X166187202Y-113657143D01*
X166330060Y-113657143D01*
X166520536Y-113609524D01*
X166615774Y-113561905D01*
X166711012Y-113466667D01*
X166758631Y-113323809D01*
X166758631Y-113085714D01*
X166091964Y-114514286D02*
X166758631Y-114514286D01*
X165711012Y-114276190D02*
X166425298Y-114038095D01*
X166425298Y-114657143D01*
X166758631Y-115085714D02*
X166758631Y-115276190D01*
X166711012Y-115371429D01*
X166663393Y-115419048D01*
X166520536Y-115514286D01*
X166330060Y-115561905D01*
X165949107Y-115561905D01*
X165853869Y-115514286D01*
X165806250Y-115466667D01*
X165758631Y-115371429D01*
X165758631Y-115180952D01*
X165806250Y-115085714D01*
X165853869Y-115038095D01*
X165949107Y-114990476D01*
X166187202Y-114990476D01*
X166282440Y-115038095D01*
X166330060Y-115085714D01*
X166377679Y-115180952D01*
X166377679Y-115371429D01*
X166330060Y-115466667D01*
X166282440Y-115514286D01*
X166187202Y-115561905D01*
X128658631Y-113085714D02*
X127658631Y-113085714D01*
X127658631Y-113323809D01*
X127706250Y-113466667D01*
X127801488Y-113561905D01*
X127896726Y-113609524D01*
X128087202Y-113657143D01*
X128230060Y-113657143D01*
X128420536Y-113609524D01*
X128515774Y-113561905D01*
X128611012Y-113466667D01*
X128658631Y-113323809D01*
X128658631Y-113085714D01*
X127991964Y-114514286D02*
X128658631Y-114514286D01*
X127611012Y-114276190D02*
X128325298Y-114038095D01*
X128325298Y-114657143D01*
X128087202Y-115180952D02*
X128039583Y-115085714D01*
X127991964Y-115038095D01*
X127896726Y-114990476D01*
X127849107Y-114990476D01*
X127753869Y-115038095D01*
X127706250Y-115085714D01*
X127658631Y-115180952D01*
X127658631Y-115371429D01*
X127706250Y-115466667D01*
X127753869Y-115514286D01*
X127849107Y-115561905D01*
X127896726Y-115561905D01*
X127991964Y-115514286D01*
X128039583Y-115466667D01*
X128087202Y-115371429D01*
X128087202Y-115180952D01*
X128134821Y-115085714D01*
X128182440Y-115038095D01*
X128277679Y-114990476D01*
X128468155Y-114990476D01*
X128563393Y-115038095D01*
X128611012Y-115085714D01*
X128658631Y-115180952D01*
X128658631Y-115371429D01*
X128611012Y-115466667D01*
X128563393Y-115514286D01*
X128468155Y-115561905D01*
X128277679Y-115561905D01*
X128182440Y-115514286D01*
X128134821Y-115466667D01*
X128087202Y-115371429D01*
X109418381Y-114101714D02*
X108418381Y-114101714D01*
X108418381Y-114339809D01*
X108466000Y-114482667D01*
X108561238Y-114577905D01*
X108656476Y-114625524D01*
X108846952Y-114673143D01*
X108989810Y-114673143D01*
X109180286Y-114625524D01*
X109275524Y-114577905D01*
X109370762Y-114482667D01*
X109418381Y-114339809D01*
X109418381Y-114101714D01*
X108751714Y-115530286D02*
X109418381Y-115530286D01*
X108370762Y-115292190D02*
X109085048Y-115054095D01*
X109085048Y-115673143D01*
X108418381Y-115958857D02*
X108418381Y-116625524D01*
X109418381Y-116196952D01*
X90622381Y-113085714D02*
X89622381Y-113085714D01*
X89622381Y-113323809D01*
X89670000Y-113466667D01*
X89765238Y-113561905D01*
X89860476Y-113609524D01*
X90050952Y-113657143D01*
X90193810Y-113657143D01*
X90384286Y-113609524D01*
X90479524Y-113561905D01*
X90574762Y-113466667D01*
X90622381Y-113323809D01*
X90622381Y-113085714D01*
X89955714Y-114514286D02*
X90622381Y-114514286D01*
X89574762Y-114276190D02*
X90289048Y-114038095D01*
X90289048Y-114657143D01*
X89622381Y-115466667D02*
X89622381Y-115276190D01*
X89670000Y-115180952D01*
X89717619Y-115133333D01*
X89860476Y-115038095D01*
X90050952Y-114990476D01*
X90431905Y-114990476D01*
X90527143Y-115038095D01*
X90574762Y-115085714D01*
X90622381Y-115180952D01*
X90622381Y-115371429D01*
X90574762Y-115466667D01*
X90527143Y-115514286D01*
X90431905Y-115561905D01*
X90193810Y-115561905D01*
X90098571Y-115514286D01*
X90050952Y-115466667D01*
X90003333Y-115371429D01*
X90003333Y-115180952D01*
X90050952Y-115085714D01*
X90098571Y-115038095D01*
X90193810Y-114990476D01*
X78652381Y-113085714D02*
X77652381Y-113085714D01*
X77652381Y-113323809D01*
X77700000Y-113466667D01*
X77795238Y-113561905D01*
X77890476Y-113609524D01*
X78080952Y-113657143D01*
X78223810Y-113657143D01*
X78414286Y-113609524D01*
X78509524Y-113561905D01*
X78604762Y-113466667D01*
X78652381Y-113323809D01*
X78652381Y-113085714D01*
X77985714Y-114514286D02*
X78652381Y-114514286D01*
X77604762Y-114276190D02*
X78319048Y-114038095D01*
X78319048Y-114657143D01*
X77985714Y-115466667D02*
X78652381Y-115466667D01*
X77604762Y-115228571D02*
X78319048Y-114990476D01*
X78319048Y-115609524D01*
X304490381Y-97845714D02*
X303490381Y-97845714D01*
X303490381Y-98083809D01*
X303538000Y-98226667D01*
X303633238Y-98321905D01*
X303728476Y-98369524D01*
X303918952Y-98417143D01*
X304061810Y-98417143D01*
X304252286Y-98369524D01*
X304347524Y-98321905D01*
X304442762Y-98226667D01*
X304490381Y-98083809D01*
X304490381Y-97845714D01*
X303823714Y-99274286D02*
X304490381Y-99274286D01*
X303442762Y-99036190D02*
X304157048Y-98798095D01*
X304157048Y-99417143D01*
X303490381Y-99702857D02*
X303490381Y-100321905D01*
X303871333Y-99988571D01*
X303871333Y-100131429D01*
X303918952Y-100226667D01*
X303966571Y-100274286D01*
X304061810Y-100321905D01*
X304299905Y-100321905D01*
X304395143Y-100274286D01*
X304442762Y-100226667D01*
X304490381Y-100131429D01*
X304490381Y-99845714D01*
X304442762Y-99750476D01*
X304395143Y-99702857D01*
X273502381Y-97972714D02*
X272502381Y-97972714D01*
X272502381Y-98210809D01*
X272550000Y-98353667D01*
X272645238Y-98448905D01*
X272740476Y-98496524D01*
X272930952Y-98544143D01*
X273073810Y-98544143D01*
X273264286Y-98496524D01*
X273359524Y-98448905D01*
X273454762Y-98353667D01*
X273502381Y-98210809D01*
X273502381Y-97972714D01*
X272835714Y-99401286D02*
X273502381Y-99401286D01*
X272454762Y-99163190D02*
X273169048Y-98925095D01*
X273169048Y-99544143D01*
X273502381Y-100448905D02*
X273502381Y-99877476D01*
X273502381Y-100163190D02*
X272502381Y-100163190D01*
X272645238Y-100067952D01*
X272740476Y-99972714D01*
X272788095Y-99877476D01*
X269565381Y-97972714D02*
X268565381Y-97972714D01*
X268565381Y-98210809D01*
X268613000Y-98353667D01*
X268708238Y-98448905D01*
X268803476Y-98496524D01*
X268993952Y-98544143D01*
X269136810Y-98544143D01*
X269327286Y-98496524D01*
X269422524Y-98448905D01*
X269517762Y-98353667D01*
X269565381Y-98210809D01*
X269565381Y-97972714D01*
X268898714Y-99401286D02*
X269565381Y-99401286D01*
X268517762Y-99163190D02*
X269232048Y-98925095D01*
X269232048Y-99544143D01*
X268565381Y-100115571D02*
X268565381Y-100210810D01*
X268613000Y-100306048D01*
X268660619Y-100353667D01*
X268755857Y-100401286D01*
X268946333Y-100448905D01*
X269184429Y-100448905D01*
X269374905Y-100401286D01*
X269470143Y-100353667D01*
X269517762Y-100306048D01*
X269565381Y-100210810D01*
X269565381Y-100115571D01*
X269517762Y-100020333D01*
X269470143Y-99972714D01*
X269374905Y-99925095D01*
X269184429Y-99877476D01*
X268946333Y-99877476D01*
X268755857Y-99925095D01*
X268660619Y-99972714D01*
X268613000Y-100020333D01*
X268565381Y-100115571D01*
X252483631Y-94035714D02*
X251483631Y-94035714D01*
X251483631Y-94273809D01*
X251531250Y-94416667D01*
X251626488Y-94511905D01*
X251721726Y-94559524D01*
X251912202Y-94607143D01*
X252055060Y-94607143D01*
X252245536Y-94559524D01*
X252340774Y-94511905D01*
X252436012Y-94416667D01*
X252483631Y-94273809D01*
X252483631Y-94035714D01*
X251483631Y-94940476D02*
X251483631Y-95559524D01*
X251864583Y-95226190D01*
X251864583Y-95369048D01*
X251912202Y-95464286D01*
X251959821Y-95511905D01*
X252055060Y-95559524D01*
X252293155Y-95559524D01*
X252388393Y-95511905D01*
X252436012Y-95464286D01*
X252483631Y-95369048D01*
X252483631Y-95083333D01*
X252436012Y-94988095D01*
X252388393Y-94940476D01*
X252483631Y-96035714D02*
X252483631Y-96226190D01*
X252436012Y-96321429D01*
X252388393Y-96369048D01*
X252245536Y-96464286D01*
X252055060Y-96511905D01*
X251674107Y-96511905D01*
X251578869Y-96464286D01*
X251531250Y-96416667D01*
X251483631Y-96321429D01*
X251483631Y-96130952D01*
X251531250Y-96035714D01*
X251578869Y-95988095D01*
X251674107Y-95940476D01*
X251912202Y-95940476D01*
X252007440Y-95988095D01*
X252055060Y-96035714D01*
X252102679Y-96130952D01*
X252102679Y-96321429D01*
X252055060Y-96416667D01*
X252007440Y-96464286D01*
X251912202Y-96511905D01*
X233433631Y-94035714D02*
X232433631Y-94035714D01*
X232433631Y-94273809D01*
X232481250Y-94416667D01*
X232576488Y-94511905D01*
X232671726Y-94559524D01*
X232862202Y-94607143D01*
X233005060Y-94607143D01*
X233195536Y-94559524D01*
X233290774Y-94511905D01*
X233386012Y-94416667D01*
X233433631Y-94273809D01*
X233433631Y-94035714D01*
X232433631Y-94940476D02*
X232433631Y-95559524D01*
X232814583Y-95226190D01*
X232814583Y-95369048D01*
X232862202Y-95464286D01*
X232909821Y-95511905D01*
X233005060Y-95559524D01*
X233243155Y-95559524D01*
X233338393Y-95511905D01*
X233386012Y-95464286D01*
X233433631Y-95369048D01*
X233433631Y-95083333D01*
X233386012Y-94988095D01*
X233338393Y-94940476D01*
X232862202Y-96130952D02*
X232814583Y-96035714D01*
X232766964Y-95988095D01*
X232671726Y-95940476D01*
X232624107Y-95940476D01*
X232528869Y-95988095D01*
X232481250Y-96035714D01*
X232433631Y-96130952D01*
X232433631Y-96321429D01*
X232481250Y-96416667D01*
X232528869Y-96464286D01*
X232624107Y-96511905D01*
X232671726Y-96511905D01*
X232766964Y-96464286D01*
X232814583Y-96416667D01*
X232862202Y-96321429D01*
X232862202Y-96130952D01*
X232909821Y-96035714D01*
X232957440Y-95988095D01*
X233052679Y-95940476D01*
X233243155Y-95940476D01*
X233338393Y-95988095D01*
X233386012Y-96035714D01*
X233433631Y-96130952D01*
X233433631Y-96321429D01*
X233386012Y-96416667D01*
X233338393Y-96464286D01*
X233243155Y-96511905D01*
X233052679Y-96511905D01*
X232957440Y-96464286D01*
X232909821Y-96416667D01*
X232862202Y-96321429D01*
X214383631Y-94035714D02*
X213383631Y-94035714D01*
X213383631Y-94273809D01*
X213431250Y-94416667D01*
X213526488Y-94511905D01*
X213621726Y-94559524D01*
X213812202Y-94607143D01*
X213955060Y-94607143D01*
X214145536Y-94559524D01*
X214240774Y-94511905D01*
X214336012Y-94416667D01*
X214383631Y-94273809D01*
X214383631Y-94035714D01*
X213383631Y-94940476D02*
X213383631Y-95559524D01*
X213764583Y-95226190D01*
X213764583Y-95369048D01*
X213812202Y-95464286D01*
X213859821Y-95511905D01*
X213955060Y-95559524D01*
X214193155Y-95559524D01*
X214288393Y-95511905D01*
X214336012Y-95464286D01*
X214383631Y-95369048D01*
X214383631Y-95083333D01*
X214336012Y-94988095D01*
X214288393Y-94940476D01*
X213383631Y-95892857D02*
X213383631Y-96559524D01*
X214383631Y-96130952D01*
X195333631Y-94035714D02*
X194333631Y-94035714D01*
X194333631Y-94273809D01*
X194381250Y-94416667D01*
X194476488Y-94511905D01*
X194571726Y-94559524D01*
X194762202Y-94607143D01*
X194905060Y-94607143D01*
X195095536Y-94559524D01*
X195190774Y-94511905D01*
X195286012Y-94416667D01*
X195333631Y-94273809D01*
X195333631Y-94035714D01*
X194333631Y-94940476D02*
X194333631Y-95559524D01*
X194714583Y-95226190D01*
X194714583Y-95369048D01*
X194762202Y-95464286D01*
X194809821Y-95511905D01*
X194905060Y-95559524D01*
X195143155Y-95559524D01*
X195238393Y-95511905D01*
X195286012Y-95464286D01*
X195333631Y-95369048D01*
X195333631Y-95083333D01*
X195286012Y-94988095D01*
X195238393Y-94940476D01*
X194333631Y-96416667D02*
X194333631Y-96226190D01*
X194381250Y-96130952D01*
X194428869Y-96083333D01*
X194571726Y-95988095D01*
X194762202Y-95940476D01*
X195143155Y-95940476D01*
X195238393Y-95988095D01*
X195286012Y-96035714D01*
X195333631Y-96130952D01*
X195333631Y-96321429D01*
X195286012Y-96416667D01*
X195238393Y-96464286D01*
X195143155Y-96511905D01*
X194905060Y-96511905D01*
X194809821Y-96464286D01*
X194762202Y-96416667D01*
X194714583Y-96321429D01*
X194714583Y-96130952D01*
X194762202Y-96035714D01*
X194809821Y-95988095D01*
X194905060Y-95940476D01*
X158821381Y-97972714D02*
X157821381Y-97972714D01*
X157821381Y-98210809D01*
X157869000Y-98353667D01*
X157964238Y-98448905D01*
X158059476Y-98496524D01*
X158249952Y-98544143D01*
X158392810Y-98544143D01*
X158583286Y-98496524D01*
X158678524Y-98448905D01*
X158773762Y-98353667D01*
X158821381Y-98210809D01*
X158821381Y-97972714D01*
X157821381Y-98877476D02*
X157821381Y-99496524D01*
X158202333Y-99163190D01*
X158202333Y-99306048D01*
X158249952Y-99401286D01*
X158297571Y-99448905D01*
X158392810Y-99496524D01*
X158630905Y-99496524D01*
X158726143Y-99448905D01*
X158773762Y-99401286D01*
X158821381Y-99306048D01*
X158821381Y-99020333D01*
X158773762Y-98925095D01*
X158726143Y-98877476D01*
X157821381Y-100401286D02*
X157821381Y-99925095D01*
X158297571Y-99877476D01*
X158249952Y-99925095D01*
X158202333Y-100020333D01*
X158202333Y-100258429D01*
X158249952Y-100353667D01*
X158297571Y-100401286D01*
X158392810Y-100448905D01*
X158630905Y-100448905D01*
X158726143Y-100401286D01*
X158773762Y-100353667D01*
X158821381Y-100258429D01*
X158821381Y-100020333D01*
X158773762Y-99925095D01*
X158726143Y-99877476D01*
X155265381Y-97972714D02*
X154265381Y-97972714D01*
X154265381Y-98210809D01*
X154313000Y-98353667D01*
X154408238Y-98448905D01*
X154503476Y-98496524D01*
X154693952Y-98544143D01*
X154836810Y-98544143D01*
X155027286Y-98496524D01*
X155122524Y-98448905D01*
X155217762Y-98353667D01*
X155265381Y-98210809D01*
X155265381Y-97972714D01*
X154265381Y-98877476D02*
X154265381Y-99496524D01*
X154646333Y-99163190D01*
X154646333Y-99306048D01*
X154693952Y-99401286D01*
X154741571Y-99448905D01*
X154836810Y-99496524D01*
X155074905Y-99496524D01*
X155170143Y-99448905D01*
X155217762Y-99401286D01*
X155265381Y-99306048D01*
X155265381Y-99020333D01*
X155217762Y-98925095D01*
X155170143Y-98877476D01*
X154598714Y-100353667D02*
X155265381Y-100353667D01*
X154217762Y-100115571D02*
X154932048Y-99877476D01*
X154932048Y-100496524D01*
X120721381Y-89971714D02*
X119721381Y-89971714D01*
X119721381Y-90209809D01*
X119769000Y-90352667D01*
X119864238Y-90447905D01*
X119959476Y-90495524D01*
X120149952Y-90543143D01*
X120292810Y-90543143D01*
X120483286Y-90495524D01*
X120578524Y-90447905D01*
X120673762Y-90352667D01*
X120721381Y-90209809D01*
X120721381Y-89971714D01*
X119721381Y-90876476D02*
X119721381Y-91495524D01*
X120102333Y-91162190D01*
X120102333Y-91305048D01*
X120149952Y-91400286D01*
X120197571Y-91447905D01*
X120292810Y-91495524D01*
X120530905Y-91495524D01*
X120626143Y-91447905D01*
X120673762Y-91400286D01*
X120721381Y-91305048D01*
X120721381Y-91019333D01*
X120673762Y-90924095D01*
X120626143Y-90876476D01*
X119721381Y-91828857D02*
X119721381Y-92447905D01*
X120102333Y-92114571D01*
X120102333Y-92257429D01*
X120149952Y-92352667D01*
X120197571Y-92400286D01*
X120292810Y-92447905D01*
X120530905Y-92447905D01*
X120626143Y-92400286D01*
X120673762Y-92352667D01*
X120721381Y-92257429D01*
X120721381Y-91971714D01*
X120673762Y-91876476D01*
X120626143Y-91828857D01*
X117165381Y-89971714D02*
X116165381Y-89971714D01*
X116165381Y-90209809D01*
X116213000Y-90352667D01*
X116308238Y-90447905D01*
X116403476Y-90495524D01*
X116593952Y-90543143D01*
X116736810Y-90543143D01*
X116927286Y-90495524D01*
X117022524Y-90447905D01*
X117117762Y-90352667D01*
X117165381Y-90209809D01*
X117165381Y-89971714D01*
X116165381Y-90876476D02*
X116165381Y-91495524D01*
X116546333Y-91162190D01*
X116546333Y-91305048D01*
X116593952Y-91400286D01*
X116641571Y-91447905D01*
X116736810Y-91495524D01*
X116974905Y-91495524D01*
X117070143Y-91447905D01*
X117117762Y-91400286D01*
X117165381Y-91305048D01*
X117165381Y-91019333D01*
X117117762Y-90924095D01*
X117070143Y-90876476D01*
X116260619Y-91876476D02*
X116213000Y-91924095D01*
X116165381Y-92019333D01*
X116165381Y-92257429D01*
X116213000Y-92352667D01*
X116260619Y-92400286D01*
X116355857Y-92447905D01*
X116451095Y-92447905D01*
X116593952Y-92400286D01*
X117165381Y-91828857D01*
X117165381Y-92447905D01*
X100083631Y-94035714D02*
X99083631Y-94035714D01*
X99083631Y-94273809D01*
X99131250Y-94416667D01*
X99226488Y-94511905D01*
X99321726Y-94559524D01*
X99512202Y-94607143D01*
X99655060Y-94607143D01*
X99845536Y-94559524D01*
X99940774Y-94511905D01*
X100036012Y-94416667D01*
X100083631Y-94273809D01*
X100083631Y-94035714D01*
X99083631Y-94940476D02*
X99083631Y-95559524D01*
X99464583Y-95226190D01*
X99464583Y-95369048D01*
X99512202Y-95464286D01*
X99559821Y-95511905D01*
X99655060Y-95559524D01*
X99893155Y-95559524D01*
X99988393Y-95511905D01*
X100036012Y-95464286D01*
X100083631Y-95369048D01*
X100083631Y-95083333D01*
X100036012Y-94988095D01*
X99988393Y-94940476D01*
X100083631Y-96511905D02*
X100083631Y-95940476D01*
X100083631Y-96226190D02*
X99083631Y-96226190D01*
X99226488Y-96130952D01*
X99321726Y-96035714D01*
X99369345Y-95940476D01*
X52903381Y-89971714D02*
X51903381Y-89971714D01*
X51903381Y-90209809D01*
X51951000Y-90352667D01*
X52046238Y-90447905D01*
X52141476Y-90495524D01*
X52331952Y-90543143D01*
X52474810Y-90543143D01*
X52665286Y-90495524D01*
X52760524Y-90447905D01*
X52855762Y-90352667D01*
X52903381Y-90209809D01*
X52903381Y-89971714D01*
X51903381Y-90876476D02*
X51903381Y-91495524D01*
X52284333Y-91162190D01*
X52284333Y-91305048D01*
X52331952Y-91400286D01*
X52379571Y-91447905D01*
X52474810Y-91495524D01*
X52712905Y-91495524D01*
X52808143Y-91447905D01*
X52855762Y-91400286D01*
X52903381Y-91305048D01*
X52903381Y-91019333D01*
X52855762Y-90924095D01*
X52808143Y-90876476D01*
X51903381Y-92114571D02*
X51903381Y-92209810D01*
X51951000Y-92305048D01*
X51998619Y-92352667D01*
X52093857Y-92400286D01*
X52284333Y-92447905D01*
X52522429Y-92447905D01*
X52712905Y-92400286D01*
X52808143Y-92352667D01*
X52855762Y-92305048D01*
X52903381Y-92209810D01*
X52903381Y-92114571D01*
X52855762Y-92019333D01*
X52808143Y-91971714D01*
X52712905Y-91924095D01*
X52522429Y-91876476D01*
X52284333Y-91876476D01*
X52093857Y-91924095D01*
X51998619Y-91971714D01*
X51951000Y-92019333D01*
X51903381Y-92114571D01*
X309586161Y-84605506D02*
X309586161Y-83605506D01*
X309348066Y-83605506D01*
X309205208Y-83653125D01*
X309109970Y-83748363D01*
X309062351Y-83843601D01*
X309014732Y-84034077D01*
X309014732Y-84176935D01*
X309062351Y-84367411D01*
X309109970Y-84462649D01*
X309205208Y-84557887D01*
X309348066Y-84605506D01*
X309586161Y-84605506D01*
X308633780Y-83700744D02*
X308586161Y-83653125D01*
X308490923Y-83605506D01*
X308252827Y-83605506D01*
X308157589Y-83653125D01*
X308109970Y-83700744D01*
X308062351Y-83795982D01*
X308062351Y-83891220D01*
X308109970Y-84034077D01*
X308681399Y-84605506D01*
X308062351Y-84605506D01*
X307586161Y-84605506D02*
X307395685Y-84605506D01*
X307300446Y-84557887D01*
X307252827Y-84510268D01*
X307157589Y-84367411D01*
X307109970Y-84176935D01*
X307109970Y-83795982D01*
X307157589Y-83700744D01*
X307205208Y-83653125D01*
X307300446Y-83605506D01*
X307490923Y-83605506D01*
X307586161Y-83653125D01*
X307633780Y-83700744D01*
X307681399Y-83795982D01*
X307681399Y-84034077D01*
X307633780Y-84129315D01*
X307586161Y-84176935D01*
X307490923Y-84224554D01*
X307300446Y-84224554D01*
X307205208Y-84176935D01*
X307157589Y-84129315D01*
X307109970Y-84034077D01*
X302966381Y-70921714D02*
X301966381Y-70921714D01*
X301966381Y-71159809D01*
X302014000Y-71302667D01*
X302109238Y-71397905D01*
X302204476Y-71445524D01*
X302394952Y-71493143D01*
X302537810Y-71493143D01*
X302728286Y-71445524D01*
X302823524Y-71397905D01*
X302918762Y-71302667D01*
X302966381Y-71159809D01*
X302966381Y-70921714D01*
X302061619Y-71874095D02*
X302014000Y-71921714D01*
X301966381Y-72016952D01*
X301966381Y-72255048D01*
X302014000Y-72350286D01*
X302061619Y-72397905D01*
X302156857Y-72445524D01*
X302252095Y-72445524D01*
X302394952Y-72397905D01*
X302966381Y-71826476D01*
X302966381Y-72445524D01*
X302394952Y-73016952D02*
X302347333Y-72921714D01*
X302299714Y-72874095D01*
X302204476Y-72826476D01*
X302156857Y-72826476D01*
X302061619Y-72874095D01*
X302014000Y-72921714D01*
X301966381Y-73016952D01*
X301966381Y-73207429D01*
X302014000Y-73302667D01*
X302061619Y-73350286D01*
X302156857Y-73397905D01*
X302204476Y-73397905D01*
X302299714Y-73350286D01*
X302347333Y-73302667D01*
X302394952Y-73207429D01*
X302394952Y-73016952D01*
X302442571Y-72921714D01*
X302490190Y-72874095D01*
X302585429Y-72826476D01*
X302775905Y-72826476D01*
X302871143Y-72874095D01*
X302918762Y-72921714D01*
X302966381Y-73016952D01*
X302966381Y-73207429D01*
X302918762Y-73302667D01*
X302871143Y-73350286D01*
X302775905Y-73397905D01*
X302585429Y-73397905D01*
X302490190Y-73350286D01*
X302442571Y-73302667D01*
X302394952Y-73207429D01*
X285821131Y-74985714D02*
X284821131Y-74985714D01*
X284821131Y-75223809D01*
X284868750Y-75366667D01*
X284963988Y-75461905D01*
X285059226Y-75509524D01*
X285249702Y-75557143D01*
X285392560Y-75557143D01*
X285583036Y-75509524D01*
X285678274Y-75461905D01*
X285773512Y-75366667D01*
X285821131Y-75223809D01*
X285821131Y-74985714D01*
X284916369Y-75938095D02*
X284868750Y-75985714D01*
X284821131Y-76080952D01*
X284821131Y-76319048D01*
X284868750Y-76414286D01*
X284916369Y-76461905D01*
X285011607Y-76509524D01*
X285106845Y-76509524D01*
X285249702Y-76461905D01*
X285821131Y-75890476D01*
X285821131Y-76509524D01*
X284821131Y-76842857D02*
X284821131Y-77509524D01*
X285821131Y-77080952D01*
X266771131Y-74985714D02*
X265771131Y-74985714D01*
X265771131Y-75223809D01*
X265818750Y-75366667D01*
X265913988Y-75461905D01*
X266009226Y-75509524D01*
X266199702Y-75557143D01*
X266342560Y-75557143D01*
X266533036Y-75509524D01*
X266628274Y-75461905D01*
X266723512Y-75366667D01*
X266771131Y-75223809D01*
X266771131Y-74985714D01*
X265866369Y-75938095D02*
X265818750Y-75985714D01*
X265771131Y-76080952D01*
X265771131Y-76319048D01*
X265818750Y-76414286D01*
X265866369Y-76461905D01*
X265961607Y-76509524D01*
X266056845Y-76509524D01*
X266199702Y-76461905D01*
X266771131Y-75890476D01*
X266771131Y-76509524D01*
X265771131Y-77366667D02*
X265771131Y-77176190D01*
X265818750Y-77080952D01*
X265866369Y-77033333D01*
X266009226Y-76938095D01*
X266199702Y-76890476D01*
X266580655Y-76890476D01*
X266675893Y-76938095D01*
X266723512Y-76985714D01*
X266771131Y-77080952D01*
X266771131Y-77271429D01*
X266723512Y-77366667D01*
X266675893Y-77414286D01*
X266580655Y-77461905D01*
X266342560Y-77461905D01*
X266247321Y-77414286D01*
X266199702Y-77366667D01*
X266152083Y-77271429D01*
X266152083Y-77080952D01*
X266199702Y-76985714D01*
X266247321Y-76938095D01*
X266342560Y-76890476D01*
X247721131Y-74985714D02*
X246721131Y-74985714D01*
X246721131Y-75223809D01*
X246768750Y-75366667D01*
X246863988Y-75461905D01*
X246959226Y-75509524D01*
X247149702Y-75557143D01*
X247292560Y-75557143D01*
X247483036Y-75509524D01*
X247578274Y-75461905D01*
X247673512Y-75366667D01*
X247721131Y-75223809D01*
X247721131Y-74985714D01*
X246816369Y-75938095D02*
X246768750Y-75985714D01*
X246721131Y-76080952D01*
X246721131Y-76319048D01*
X246768750Y-76414286D01*
X246816369Y-76461905D01*
X246911607Y-76509524D01*
X247006845Y-76509524D01*
X247149702Y-76461905D01*
X247721131Y-75890476D01*
X247721131Y-76509524D01*
X246721131Y-77414286D02*
X246721131Y-76938095D01*
X247197321Y-76890476D01*
X247149702Y-76938095D01*
X247102083Y-77033333D01*
X247102083Y-77271429D01*
X247149702Y-77366667D01*
X247197321Y-77414286D01*
X247292560Y-77461905D01*
X247530655Y-77461905D01*
X247625893Y-77414286D01*
X247673512Y-77366667D01*
X247721131Y-77271429D01*
X247721131Y-77033333D01*
X247673512Y-76938095D01*
X247625893Y-76890476D01*
X228671131Y-74985714D02*
X227671131Y-74985714D01*
X227671131Y-75223809D01*
X227718750Y-75366667D01*
X227813988Y-75461905D01*
X227909226Y-75509524D01*
X228099702Y-75557143D01*
X228242560Y-75557143D01*
X228433036Y-75509524D01*
X228528274Y-75461905D01*
X228623512Y-75366667D01*
X228671131Y-75223809D01*
X228671131Y-74985714D01*
X227766369Y-75938095D02*
X227718750Y-75985714D01*
X227671131Y-76080952D01*
X227671131Y-76319048D01*
X227718750Y-76414286D01*
X227766369Y-76461905D01*
X227861607Y-76509524D01*
X227956845Y-76509524D01*
X228099702Y-76461905D01*
X228671131Y-75890476D01*
X228671131Y-76509524D01*
X228004464Y-77366667D02*
X228671131Y-77366667D01*
X227623512Y-77128571D02*
X228337798Y-76890476D01*
X228337798Y-77509524D01*
X209621131Y-74985714D02*
X208621131Y-74985714D01*
X208621131Y-75223809D01*
X208668750Y-75366667D01*
X208763988Y-75461905D01*
X208859226Y-75509524D01*
X209049702Y-75557143D01*
X209192560Y-75557143D01*
X209383036Y-75509524D01*
X209478274Y-75461905D01*
X209573512Y-75366667D01*
X209621131Y-75223809D01*
X209621131Y-74985714D01*
X208716369Y-75938095D02*
X208668750Y-75985714D01*
X208621131Y-76080952D01*
X208621131Y-76319048D01*
X208668750Y-76414286D01*
X208716369Y-76461905D01*
X208811607Y-76509524D01*
X208906845Y-76509524D01*
X209049702Y-76461905D01*
X209621131Y-75890476D01*
X209621131Y-76509524D01*
X208621131Y-76842857D02*
X208621131Y-77461905D01*
X209002083Y-77128571D01*
X209002083Y-77271429D01*
X209049702Y-77366667D01*
X209097321Y-77414286D01*
X209192560Y-77461905D01*
X209430655Y-77461905D01*
X209525893Y-77414286D01*
X209573512Y-77366667D01*
X209621131Y-77271429D01*
X209621131Y-76985714D01*
X209573512Y-76890476D01*
X209525893Y-76842857D01*
X190571131Y-74985714D02*
X189571131Y-74985714D01*
X189571131Y-75223809D01*
X189618750Y-75366667D01*
X189713988Y-75461905D01*
X189809226Y-75509524D01*
X189999702Y-75557143D01*
X190142560Y-75557143D01*
X190333036Y-75509524D01*
X190428274Y-75461905D01*
X190523512Y-75366667D01*
X190571131Y-75223809D01*
X190571131Y-74985714D01*
X189666369Y-75938095D02*
X189618750Y-75985714D01*
X189571131Y-76080952D01*
X189571131Y-76319048D01*
X189618750Y-76414286D01*
X189666369Y-76461905D01*
X189761607Y-76509524D01*
X189856845Y-76509524D01*
X189999702Y-76461905D01*
X190571131Y-75890476D01*
X190571131Y-76509524D01*
X189666369Y-76890476D02*
X189618750Y-76938095D01*
X189571131Y-77033333D01*
X189571131Y-77271429D01*
X189618750Y-77366667D01*
X189666369Y-77414286D01*
X189761607Y-77461905D01*
X189856845Y-77461905D01*
X189999702Y-77414286D01*
X190571131Y-76842857D01*
X190571131Y-77461905D01*
X171521131Y-74985714D02*
X170521131Y-74985714D01*
X170521131Y-75223809D01*
X170568750Y-75366667D01*
X170663988Y-75461905D01*
X170759226Y-75509524D01*
X170949702Y-75557143D01*
X171092560Y-75557143D01*
X171283036Y-75509524D01*
X171378274Y-75461905D01*
X171473512Y-75366667D01*
X171521131Y-75223809D01*
X171521131Y-74985714D01*
X170616369Y-75938095D02*
X170568750Y-75985714D01*
X170521131Y-76080952D01*
X170521131Y-76319048D01*
X170568750Y-76414286D01*
X170616369Y-76461905D01*
X170711607Y-76509524D01*
X170806845Y-76509524D01*
X170949702Y-76461905D01*
X171521131Y-75890476D01*
X171521131Y-76509524D01*
X171521131Y-77461905D02*
X171521131Y-76890476D01*
X171521131Y-77176190D02*
X170521131Y-77176190D01*
X170663988Y-77080952D01*
X170759226Y-76985714D01*
X170806845Y-76890476D01*
X152471131Y-74985714D02*
X151471131Y-74985714D01*
X151471131Y-75223809D01*
X151518750Y-75366667D01*
X151613988Y-75461905D01*
X151709226Y-75509524D01*
X151899702Y-75557143D01*
X152042560Y-75557143D01*
X152233036Y-75509524D01*
X152328274Y-75461905D01*
X152423512Y-75366667D01*
X152471131Y-75223809D01*
X152471131Y-74985714D01*
X151566369Y-75938095D02*
X151518750Y-75985714D01*
X151471131Y-76080952D01*
X151471131Y-76319048D01*
X151518750Y-76414286D01*
X151566369Y-76461905D01*
X151661607Y-76509524D01*
X151756845Y-76509524D01*
X151899702Y-76461905D01*
X152471131Y-75890476D01*
X152471131Y-76509524D01*
X151471131Y-77128571D02*
X151471131Y-77223810D01*
X151518750Y-77319048D01*
X151566369Y-77366667D01*
X151661607Y-77414286D01*
X151852083Y-77461905D01*
X152090179Y-77461905D01*
X152280655Y-77414286D01*
X152375893Y-77366667D01*
X152423512Y-77319048D01*
X152471131Y-77223810D01*
X152471131Y-77128571D01*
X152423512Y-77033333D01*
X152375893Y-76985714D01*
X152280655Y-76938095D01*
X152090179Y-76890476D01*
X151852083Y-76890476D01*
X151661607Y-76938095D01*
X151566369Y-76985714D01*
X151518750Y-77033333D01*
X151471131Y-77128571D01*
X133421131Y-74985714D02*
X132421131Y-74985714D01*
X132421131Y-75223809D01*
X132468750Y-75366667D01*
X132563988Y-75461905D01*
X132659226Y-75509524D01*
X132849702Y-75557143D01*
X132992560Y-75557143D01*
X133183036Y-75509524D01*
X133278274Y-75461905D01*
X133373512Y-75366667D01*
X133421131Y-75223809D01*
X133421131Y-74985714D01*
X133421131Y-76509524D02*
X133421131Y-75938095D01*
X133421131Y-76223809D02*
X132421131Y-76223809D01*
X132563988Y-76128571D01*
X132659226Y-76033333D01*
X132706845Y-75938095D01*
X133421131Y-76985714D02*
X133421131Y-77176190D01*
X133373512Y-77271429D01*
X133325893Y-77319048D01*
X133183036Y-77414286D01*
X132992560Y-77461905D01*
X132611607Y-77461905D01*
X132516369Y-77414286D01*
X132468750Y-77366667D01*
X132421131Y-77271429D01*
X132421131Y-77080952D01*
X132468750Y-76985714D01*
X132516369Y-76938095D01*
X132611607Y-76890476D01*
X132849702Y-76890476D01*
X132944940Y-76938095D01*
X132992560Y-76985714D01*
X133040179Y-77080952D01*
X133040179Y-77271429D01*
X132992560Y-77366667D01*
X132944940Y-77414286D01*
X132849702Y-77461905D01*
X114371131Y-74985714D02*
X113371131Y-74985714D01*
X113371131Y-75223809D01*
X113418750Y-75366667D01*
X113513988Y-75461905D01*
X113609226Y-75509524D01*
X113799702Y-75557143D01*
X113942560Y-75557143D01*
X114133036Y-75509524D01*
X114228274Y-75461905D01*
X114323512Y-75366667D01*
X114371131Y-75223809D01*
X114371131Y-74985714D01*
X114371131Y-76509524D02*
X114371131Y-75938095D01*
X114371131Y-76223809D02*
X113371131Y-76223809D01*
X113513988Y-76128571D01*
X113609226Y-76033333D01*
X113656845Y-75938095D01*
X113799702Y-77080952D02*
X113752083Y-76985714D01*
X113704464Y-76938095D01*
X113609226Y-76890476D01*
X113561607Y-76890476D01*
X113466369Y-76938095D01*
X113418750Y-76985714D01*
X113371131Y-77080952D01*
X113371131Y-77271429D01*
X113418750Y-77366667D01*
X113466369Y-77414286D01*
X113561607Y-77461905D01*
X113609226Y-77461905D01*
X113704464Y-77414286D01*
X113752083Y-77366667D01*
X113799702Y-77271429D01*
X113799702Y-77080952D01*
X113847321Y-76985714D01*
X113894940Y-76938095D01*
X113990179Y-76890476D01*
X114180655Y-76890476D01*
X114275893Y-76938095D01*
X114323512Y-76985714D01*
X114371131Y-77080952D01*
X114371131Y-77271429D01*
X114323512Y-77366667D01*
X114275893Y-77414286D01*
X114180655Y-77461905D01*
X113990179Y-77461905D01*
X113894940Y-77414286D01*
X113847321Y-77366667D01*
X113799702Y-77271429D01*
X95321131Y-74985714D02*
X94321131Y-74985714D01*
X94321131Y-75223809D01*
X94368750Y-75366667D01*
X94463988Y-75461905D01*
X94559226Y-75509524D01*
X94749702Y-75557143D01*
X94892560Y-75557143D01*
X95083036Y-75509524D01*
X95178274Y-75461905D01*
X95273512Y-75366667D01*
X95321131Y-75223809D01*
X95321131Y-74985714D01*
X95321131Y-76509524D02*
X95321131Y-75938095D01*
X95321131Y-76223809D02*
X94321131Y-76223809D01*
X94463988Y-76128571D01*
X94559226Y-76033333D01*
X94606845Y-75938095D01*
X94321131Y-76842857D02*
X94321131Y-77509524D01*
X95321131Y-77080952D01*
X54046381Y-70921714D02*
X53046381Y-70921714D01*
X53046381Y-71159809D01*
X53094000Y-71302667D01*
X53189238Y-71397905D01*
X53284476Y-71445524D01*
X53474952Y-71493143D01*
X53617810Y-71493143D01*
X53808286Y-71445524D01*
X53903524Y-71397905D01*
X53998762Y-71302667D01*
X54046381Y-71159809D01*
X54046381Y-70921714D01*
X54046381Y-72445524D02*
X54046381Y-71874095D01*
X54046381Y-72159809D02*
X53046381Y-72159809D01*
X53189238Y-72064571D01*
X53284476Y-71969333D01*
X53332095Y-71874095D01*
X53046381Y-73302667D02*
X53046381Y-73112190D01*
X53094000Y-73016952D01*
X53141619Y-72969333D01*
X53284476Y-72874095D01*
X53474952Y-72826476D01*
X53855905Y-72826476D01*
X53951143Y-72874095D01*
X53998762Y-72921714D01*
X54046381Y-73016952D01*
X54046381Y-73207429D01*
X53998762Y-73302667D01*
X53951143Y-73350286D01*
X53855905Y-73397905D01*
X53617810Y-73397905D01*
X53522571Y-73350286D01*
X53474952Y-73302667D01*
X53427333Y-73207429D01*
X53427333Y-73016952D01*
X53474952Y-72921714D01*
X53522571Y-72874095D01*
X53617810Y-72826476D01*
X296489286Y-63174256D02*
X296489286Y-62174256D01*
X296251191Y-62174256D01*
X296108333Y-62221875D01*
X296013095Y-62317113D01*
X295965476Y-62412351D01*
X295917857Y-62602827D01*
X295917857Y-62745685D01*
X295965476Y-62936161D01*
X296013095Y-63031399D01*
X296108333Y-63126637D01*
X296251191Y-63174256D01*
X296489286Y-63174256D01*
X294965476Y-63174256D02*
X295536905Y-63174256D01*
X295251191Y-63174256D02*
X295251191Y-62174256D01*
X295346429Y-62317113D01*
X295441667Y-62412351D01*
X295536905Y-62459970D01*
X294060714Y-62174256D02*
X294536905Y-62174256D01*
X294584524Y-62650446D01*
X294536905Y-62602827D01*
X294441667Y-62555208D01*
X294203571Y-62555208D01*
X294108333Y-62602827D01*
X294060714Y-62650446D01*
X294013095Y-62745685D01*
X294013095Y-62983780D01*
X294060714Y-63079018D01*
X294108333Y-63126637D01*
X294203571Y-63174256D01*
X294441667Y-63174256D01*
X294536905Y-63126637D01*
X294584524Y-63079018D01*
X298918006Y-53554464D02*
X297918006Y-53554464D01*
X297918006Y-53792559D01*
X297965625Y-53935417D01*
X298060863Y-54030655D01*
X298156101Y-54078274D01*
X298346577Y-54125893D01*
X298489435Y-54125893D01*
X298679911Y-54078274D01*
X298775149Y-54030655D01*
X298870387Y-53935417D01*
X298918006Y-53792559D01*
X298918006Y-53554464D01*
X298918006Y-55078274D02*
X298918006Y-54506845D01*
X298918006Y-54792559D02*
X297918006Y-54792559D01*
X298060863Y-54697321D01*
X298156101Y-54602083D01*
X298203720Y-54506845D01*
X298251339Y-55935417D02*
X298918006Y-55935417D01*
X297870387Y-55697321D02*
X298584673Y-55459226D01*
X298584673Y-56078274D01*
X291409381Y-53141714D02*
X290409381Y-53141714D01*
X290409381Y-53379809D01*
X290457000Y-53522667D01*
X290552238Y-53617905D01*
X290647476Y-53665524D01*
X290837952Y-53713143D01*
X290980810Y-53713143D01*
X291171286Y-53665524D01*
X291266524Y-53617905D01*
X291361762Y-53522667D01*
X291409381Y-53379809D01*
X291409381Y-53141714D01*
X291409381Y-54665524D02*
X291409381Y-54094095D01*
X291409381Y-54379809D02*
X290409381Y-54379809D01*
X290552238Y-54284571D01*
X290647476Y-54189333D01*
X290695095Y-54094095D01*
X290409381Y-54998857D02*
X290409381Y-55617905D01*
X290790333Y-55284571D01*
X290790333Y-55427429D01*
X290837952Y-55522667D01*
X290885571Y-55570286D01*
X290980810Y-55617905D01*
X291218905Y-55617905D01*
X291314143Y-55570286D01*
X291361762Y-55522667D01*
X291409381Y-55427429D01*
X291409381Y-55141714D01*
X291361762Y-55046476D01*
X291314143Y-54998857D01*
X276296131Y-55935714D02*
X275296131Y-55935714D01*
X275296131Y-56173809D01*
X275343750Y-56316667D01*
X275438988Y-56411905D01*
X275534226Y-56459524D01*
X275724702Y-56507143D01*
X275867560Y-56507143D01*
X276058036Y-56459524D01*
X276153274Y-56411905D01*
X276248512Y-56316667D01*
X276296131Y-56173809D01*
X276296131Y-55935714D01*
X276296131Y-57459524D02*
X276296131Y-56888095D01*
X276296131Y-57173809D02*
X275296131Y-57173809D01*
X275438988Y-57078571D01*
X275534226Y-56983333D01*
X275581845Y-56888095D01*
X275391369Y-57840476D02*
X275343750Y-57888095D01*
X275296131Y-57983333D01*
X275296131Y-58221429D01*
X275343750Y-58316667D01*
X275391369Y-58364286D01*
X275486607Y-58411905D01*
X275581845Y-58411905D01*
X275724702Y-58364286D01*
X276296131Y-57792857D01*
X276296131Y-58411905D01*
X257246131Y-55935714D02*
X256246131Y-55935714D01*
X256246131Y-56173809D01*
X256293750Y-56316667D01*
X256388988Y-56411905D01*
X256484226Y-56459524D01*
X256674702Y-56507143D01*
X256817560Y-56507143D01*
X257008036Y-56459524D01*
X257103274Y-56411905D01*
X257198512Y-56316667D01*
X257246131Y-56173809D01*
X257246131Y-55935714D01*
X257246131Y-57459524D02*
X257246131Y-56888095D01*
X257246131Y-57173809D02*
X256246131Y-57173809D01*
X256388988Y-57078571D01*
X256484226Y-56983333D01*
X256531845Y-56888095D01*
X257246131Y-58411905D02*
X257246131Y-57840476D01*
X257246131Y-58126190D02*
X256246131Y-58126190D01*
X256388988Y-58030952D01*
X256484226Y-57935714D01*
X256531845Y-57840476D01*
X238196131Y-55935714D02*
X237196131Y-55935714D01*
X237196131Y-56173809D01*
X237243750Y-56316667D01*
X237338988Y-56411905D01*
X237434226Y-56459524D01*
X237624702Y-56507143D01*
X237767560Y-56507143D01*
X237958036Y-56459524D01*
X238053274Y-56411905D01*
X238148512Y-56316667D01*
X238196131Y-56173809D01*
X238196131Y-55935714D01*
X238196131Y-57459524D02*
X238196131Y-56888095D01*
X238196131Y-57173809D02*
X237196131Y-57173809D01*
X237338988Y-57078571D01*
X237434226Y-56983333D01*
X237481845Y-56888095D01*
X237196131Y-58078571D02*
X237196131Y-58173810D01*
X237243750Y-58269048D01*
X237291369Y-58316667D01*
X237386607Y-58364286D01*
X237577083Y-58411905D01*
X237815179Y-58411905D01*
X238005655Y-58364286D01*
X238100893Y-58316667D01*
X238148512Y-58269048D01*
X238196131Y-58173810D01*
X238196131Y-58078571D01*
X238148512Y-57983333D01*
X238100893Y-57935714D01*
X238005655Y-57888095D01*
X237815179Y-57840476D01*
X237577083Y-57840476D01*
X237386607Y-57888095D01*
X237291369Y-57935714D01*
X237243750Y-57983333D01*
X237196131Y-58078571D01*
X219146131Y-56411905D02*
X218146131Y-56411905D01*
X218146131Y-56650000D01*
X218193750Y-56792858D01*
X218288988Y-56888096D01*
X218384226Y-56935715D01*
X218574702Y-56983334D01*
X218717560Y-56983334D01*
X218908036Y-56935715D01*
X219003274Y-56888096D01*
X219098512Y-56792858D01*
X219146131Y-56650000D01*
X219146131Y-56411905D01*
X219146131Y-57459524D02*
X219146131Y-57650000D01*
X219098512Y-57745239D01*
X219050893Y-57792858D01*
X218908036Y-57888096D01*
X218717560Y-57935715D01*
X218336607Y-57935715D01*
X218241369Y-57888096D01*
X218193750Y-57840477D01*
X218146131Y-57745239D01*
X218146131Y-57554762D01*
X218193750Y-57459524D01*
X218241369Y-57411905D01*
X218336607Y-57364286D01*
X218574702Y-57364286D01*
X218669940Y-57411905D01*
X218717560Y-57459524D01*
X218765179Y-57554762D01*
X218765179Y-57745239D01*
X218717560Y-57840477D01*
X218669940Y-57888096D01*
X218574702Y-57935715D01*
X200096131Y-56411905D02*
X199096131Y-56411905D01*
X199096131Y-56650000D01*
X199143750Y-56792858D01*
X199238988Y-56888096D01*
X199334226Y-56935715D01*
X199524702Y-56983334D01*
X199667560Y-56983334D01*
X199858036Y-56935715D01*
X199953274Y-56888096D01*
X200048512Y-56792858D01*
X200096131Y-56650000D01*
X200096131Y-56411905D01*
X199524702Y-57554762D02*
X199477083Y-57459524D01*
X199429464Y-57411905D01*
X199334226Y-57364286D01*
X199286607Y-57364286D01*
X199191369Y-57411905D01*
X199143750Y-57459524D01*
X199096131Y-57554762D01*
X199096131Y-57745239D01*
X199143750Y-57840477D01*
X199191369Y-57888096D01*
X199286607Y-57935715D01*
X199334226Y-57935715D01*
X199429464Y-57888096D01*
X199477083Y-57840477D01*
X199524702Y-57745239D01*
X199524702Y-57554762D01*
X199572321Y-57459524D01*
X199619940Y-57411905D01*
X199715179Y-57364286D01*
X199905655Y-57364286D01*
X200000893Y-57411905D01*
X200048512Y-57459524D01*
X200096131Y-57554762D01*
X200096131Y-57745239D01*
X200048512Y-57840477D01*
X200000893Y-57888096D01*
X199905655Y-57935715D01*
X199715179Y-57935715D01*
X199619940Y-57888096D01*
X199572321Y-57840477D01*
X199524702Y-57745239D01*
X181046131Y-56411905D02*
X180046131Y-56411905D01*
X180046131Y-56650000D01*
X180093750Y-56792858D01*
X180188988Y-56888096D01*
X180284226Y-56935715D01*
X180474702Y-56983334D01*
X180617560Y-56983334D01*
X180808036Y-56935715D01*
X180903274Y-56888096D01*
X180998512Y-56792858D01*
X181046131Y-56650000D01*
X181046131Y-56411905D01*
X180046131Y-57316667D02*
X180046131Y-57983334D01*
X181046131Y-57554762D01*
X161996131Y-56411905D02*
X160996131Y-56411905D01*
X160996131Y-56650000D01*
X161043750Y-56792858D01*
X161138988Y-56888096D01*
X161234226Y-56935715D01*
X161424702Y-56983334D01*
X161567560Y-56983334D01*
X161758036Y-56935715D01*
X161853274Y-56888096D01*
X161948512Y-56792858D01*
X161996131Y-56650000D01*
X161996131Y-56411905D01*
X160996131Y-57840477D02*
X160996131Y-57650000D01*
X161043750Y-57554762D01*
X161091369Y-57507143D01*
X161234226Y-57411905D01*
X161424702Y-57364286D01*
X161805655Y-57364286D01*
X161900893Y-57411905D01*
X161948512Y-57459524D01*
X161996131Y-57554762D01*
X161996131Y-57745239D01*
X161948512Y-57840477D01*
X161900893Y-57888096D01*
X161805655Y-57935715D01*
X161567560Y-57935715D01*
X161472321Y-57888096D01*
X161424702Y-57840477D01*
X161377083Y-57745239D01*
X161377083Y-57554762D01*
X161424702Y-57459524D01*
X161472321Y-57411905D01*
X161567560Y-57364286D01*
X142946131Y-56411905D02*
X141946131Y-56411905D01*
X141946131Y-56650000D01*
X141993750Y-56792858D01*
X142088988Y-56888096D01*
X142184226Y-56935715D01*
X142374702Y-56983334D01*
X142517560Y-56983334D01*
X142708036Y-56935715D01*
X142803274Y-56888096D01*
X142898512Y-56792858D01*
X142946131Y-56650000D01*
X142946131Y-56411905D01*
X141946131Y-57888096D02*
X141946131Y-57411905D01*
X142422321Y-57364286D01*
X142374702Y-57411905D01*
X142327083Y-57507143D01*
X142327083Y-57745239D01*
X142374702Y-57840477D01*
X142422321Y-57888096D01*
X142517560Y-57935715D01*
X142755655Y-57935715D01*
X142850893Y-57888096D01*
X142898512Y-57840477D01*
X142946131Y-57745239D01*
X142946131Y-57507143D01*
X142898512Y-57411905D01*
X142850893Y-57364286D01*
X123896131Y-56411905D02*
X122896131Y-56411905D01*
X122896131Y-56650000D01*
X122943750Y-56792858D01*
X123038988Y-56888096D01*
X123134226Y-56935715D01*
X123324702Y-56983334D01*
X123467560Y-56983334D01*
X123658036Y-56935715D01*
X123753274Y-56888096D01*
X123848512Y-56792858D01*
X123896131Y-56650000D01*
X123896131Y-56411905D01*
X123229464Y-57840477D02*
X123896131Y-57840477D01*
X122848512Y-57602381D02*
X123562798Y-57364286D01*
X123562798Y-57983334D01*
X104846131Y-56411905D02*
X103846131Y-56411905D01*
X103846131Y-56650000D01*
X103893750Y-56792858D01*
X103988988Y-56888096D01*
X104084226Y-56935715D01*
X104274702Y-56983334D01*
X104417560Y-56983334D01*
X104608036Y-56935715D01*
X104703274Y-56888096D01*
X104798512Y-56792858D01*
X104846131Y-56650000D01*
X104846131Y-56411905D01*
X103846131Y-57316667D02*
X103846131Y-57935715D01*
X104227083Y-57602381D01*
X104227083Y-57745239D01*
X104274702Y-57840477D01*
X104322321Y-57888096D01*
X104417560Y-57935715D01*
X104655655Y-57935715D01*
X104750893Y-57888096D01*
X104798512Y-57840477D01*
X104846131Y-57745239D01*
X104846131Y-57459524D01*
X104798512Y-57364286D01*
X104750893Y-57316667D01*
X85796131Y-56411905D02*
X84796131Y-56411905D01*
X84796131Y-56650000D01*
X84843750Y-56792858D01*
X84938988Y-56888096D01*
X85034226Y-56935715D01*
X85224702Y-56983334D01*
X85367560Y-56983334D01*
X85558036Y-56935715D01*
X85653274Y-56888096D01*
X85748512Y-56792858D01*
X85796131Y-56650000D01*
X85796131Y-56411905D01*
X84891369Y-57364286D02*
X84843750Y-57411905D01*
X84796131Y-57507143D01*
X84796131Y-57745239D01*
X84843750Y-57840477D01*
X84891369Y-57888096D01*
X84986607Y-57935715D01*
X85081845Y-57935715D01*
X85224702Y-57888096D01*
X85796131Y-57316667D01*
X85796131Y-57935715D01*
X54839881Y-59983780D02*
X53839881Y-59983780D01*
X53839881Y-60221875D01*
X53887500Y-60364733D01*
X53982738Y-60459971D01*
X54077976Y-60507590D01*
X54268452Y-60555209D01*
X54411310Y-60555209D01*
X54601786Y-60507590D01*
X54697024Y-60459971D01*
X54792262Y-60364733D01*
X54839881Y-60221875D01*
X54839881Y-59983780D01*
X54839881Y-61507590D02*
X54839881Y-60936161D01*
X54839881Y-61221875D02*
X53839881Y-61221875D01*
X53982738Y-61126637D01*
X54077976Y-61031399D01*
X54125595Y-60936161D01*
X130936905Y-129754381D02*
X130936905Y-130563905D01*
X130889286Y-130659143D01*
X130841667Y-130706762D01*
X130746429Y-130754381D01*
X130555952Y-130754381D01*
X130460714Y-130706762D01*
X130413095Y-130659143D01*
X130365476Y-130563905D01*
X130365476Y-129754381D01*
X129936905Y-129849619D02*
X129889286Y-129802000D01*
X129794048Y-129754381D01*
X129555952Y-129754381D01*
X129460714Y-129802000D01*
X129413095Y-129849619D01*
X129365476Y-129944857D01*
X129365476Y-130040095D01*
X129413095Y-130182952D01*
X129984524Y-130754381D01*
X129365476Y-130754381D01*
X152526905Y-136993381D02*
X152526905Y-137802905D01*
X152479286Y-137898143D01*
X152431667Y-137945762D01*
X152336429Y-137993381D01*
X152145952Y-137993381D01*
X152050714Y-137945762D01*
X152003095Y-137898143D01*
X151955476Y-137802905D01*
X151955476Y-136993381D01*
X150955476Y-137993381D02*
X151526905Y-137993381D01*
X151241191Y-137993381D02*
X151241191Y-136993381D01*
X151336429Y-137136238D01*
X151431667Y-137231476D01*
X151526905Y-137279095D01*
X78549333Y-100734762D02*
X78406476Y-100782381D01*
X78168380Y-100782381D01*
X78073142Y-100734762D01*
X78025523Y-100687143D01*
X77977904Y-100591905D01*
X77977904Y-100496667D01*
X78025523Y-100401429D01*
X78073142Y-100353810D01*
X78168380Y-100306190D01*
X78358857Y-100258571D01*
X78454095Y-100210952D01*
X78501714Y-100163333D01*
X78549333Y-100068095D01*
X78549333Y-99972857D01*
X78501714Y-99877619D01*
X78454095Y-99830000D01*
X78358857Y-99782381D01*
X78120761Y-99782381D01*
X77977904Y-99830000D01*
X77644571Y-99782381D02*
X77406476Y-100782381D01*
X77215999Y-100068095D01*
X77025523Y-100782381D01*
X76787428Y-99782381D01*
X75882666Y-100782381D02*
X76454095Y-100782381D01*
X76168381Y-100782381D02*
X76168381Y-99782381D01*
X76263619Y-99925238D01*
X76358857Y-100020476D01*
X76454095Y-100068095D01*
X293917666Y-104116143D02*
X293965285Y-104163762D01*
X294108142Y-104211381D01*
X294203380Y-104211381D01*
X294346238Y-104163762D01*
X294441476Y-104068524D01*
X294489095Y-103973286D01*
X294536714Y-103782810D01*
X294536714Y-103639952D01*
X294489095Y-103449476D01*
X294441476Y-103354238D01*
X294346238Y-103259000D01*
X294203380Y-103211381D01*
X294108142Y-103211381D01*
X293965285Y-103259000D01*
X293917666Y-103306619D01*
X293584333Y-103211381D02*
X292917666Y-103211381D01*
X293346238Y-104211381D01*
M02*
