G04 #@! TF.FileFunction,Other,Fab,Top*
%FSLAX46Y46*%
G04 Gerber Fmt 4.6, Leading zero omitted, Abs format (unit mm)*
G04 Created by KiCad (PCBNEW 4.0.7) date 04/13/18 22:33:28*
%MOMM*%
%LPD*%
G01*
G04 APERTURE LIST*
%ADD10C,0.100000*%
%ADD11C,0.150000*%
G04 APERTURE END LIST*
D10*
D11*
X320970238Y-70327381D02*
X320970238Y-69327381D01*
X321303572Y-70041667D01*
X321636905Y-69327381D01*
X321636905Y-70327381D01*
X322255952Y-70327381D02*
X322160714Y-70279762D01*
X322113095Y-70232143D01*
X322065476Y-70136905D01*
X322065476Y-69851190D01*
X322113095Y-69755952D01*
X322160714Y-69708333D01*
X322255952Y-69660714D01*
X322398810Y-69660714D01*
X322494048Y-69708333D01*
X322541667Y-69755952D01*
X322589286Y-69851190D01*
X322589286Y-70136905D01*
X322541667Y-70232143D01*
X322494048Y-70279762D01*
X322398810Y-70327381D01*
X322255952Y-70327381D01*
X323446429Y-69660714D02*
X323446429Y-70327381D01*
X323017857Y-69660714D02*
X323017857Y-70184524D01*
X323065476Y-70279762D01*
X323160714Y-70327381D01*
X323303572Y-70327381D01*
X323398810Y-70279762D01*
X323446429Y-70232143D01*
X323922619Y-69660714D02*
X323922619Y-70327381D01*
X323922619Y-69755952D02*
X323970238Y-69708333D01*
X324065476Y-69660714D01*
X324208334Y-69660714D01*
X324303572Y-69708333D01*
X324351191Y-69803571D01*
X324351191Y-70327381D01*
X324684524Y-69660714D02*
X325065476Y-69660714D01*
X324827381Y-69327381D02*
X324827381Y-70184524D01*
X324875000Y-70279762D01*
X324970238Y-70327381D01*
X325065476Y-70327381D01*
X325398810Y-70327381D02*
X325398810Y-69660714D01*
X325398810Y-69327381D02*
X325351191Y-69375000D01*
X325398810Y-69422619D01*
X325446429Y-69375000D01*
X325398810Y-69327381D01*
X325398810Y-69422619D01*
X325875000Y-69660714D02*
X325875000Y-70327381D01*
X325875000Y-69755952D02*
X325922619Y-69708333D01*
X326017857Y-69660714D01*
X326160715Y-69660714D01*
X326255953Y-69708333D01*
X326303572Y-69803571D01*
X326303572Y-70327381D01*
X327208334Y-69660714D02*
X327208334Y-70470238D01*
X327160715Y-70565476D01*
X327113096Y-70613095D01*
X327017857Y-70660714D01*
X326875000Y-70660714D01*
X326779762Y-70613095D01*
X327208334Y-70279762D02*
X327113096Y-70327381D01*
X326922619Y-70327381D01*
X326827381Y-70279762D01*
X326779762Y-70232143D01*
X326732143Y-70136905D01*
X326732143Y-69851190D01*
X326779762Y-69755952D01*
X326827381Y-69708333D01*
X326922619Y-69660714D01*
X327113096Y-69660714D01*
X327208334Y-69708333D01*
X327684524Y-70327381D02*
X327684524Y-69327381D01*
X327684524Y-69803571D02*
X328255953Y-69803571D01*
X328255953Y-70327381D02*
X328255953Y-69327381D01*
X328875000Y-70327381D02*
X328779762Y-70279762D01*
X328732143Y-70232143D01*
X328684524Y-70136905D01*
X328684524Y-69851190D01*
X328732143Y-69755952D01*
X328779762Y-69708333D01*
X328875000Y-69660714D01*
X329017858Y-69660714D01*
X329113096Y-69708333D01*
X329160715Y-69755952D01*
X329208334Y-69851190D01*
X329208334Y-70136905D01*
X329160715Y-70232143D01*
X329113096Y-70279762D01*
X329017858Y-70327381D01*
X328875000Y-70327381D01*
X329779762Y-70327381D02*
X329684524Y-70279762D01*
X329636905Y-70184524D01*
X329636905Y-69327381D01*
X330541668Y-70279762D02*
X330446430Y-70327381D01*
X330255953Y-70327381D01*
X330160715Y-70279762D01*
X330113096Y-70184524D01*
X330113096Y-69803571D01*
X330160715Y-69708333D01*
X330255953Y-69660714D01*
X330446430Y-69660714D01*
X330541668Y-69708333D01*
X330589287Y-69803571D01*
X330589287Y-69898810D01*
X330113096Y-69994048D01*
X330779763Y-70422619D02*
X331541668Y-70422619D01*
X331732144Y-69422619D02*
X331779763Y-69375000D01*
X331875001Y-69327381D01*
X332113097Y-69327381D01*
X332208335Y-69375000D01*
X332255954Y-69422619D01*
X332303573Y-69517857D01*
X332303573Y-69613095D01*
X332255954Y-69755952D01*
X331684525Y-70327381D01*
X332303573Y-70327381D01*
X332732144Y-70232143D02*
X332779763Y-70279762D01*
X332732144Y-70327381D01*
X332684525Y-70279762D01*
X332732144Y-70232143D01*
X332732144Y-70327381D01*
X333160715Y-69422619D02*
X333208334Y-69375000D01*
X333303572Y-69327381D01*
X333541668Y-69327381D01*
X333636906Y-69375000D01*
X333684525Y-69422619D01*
X333732144Y-69517857D01*
X333732144Y-69613095D01*
X333684525Y-69755952D01*
X333113096Y-70327381D01*
X333732144Y-70327381D01*
X334160715Y-70327381D02*
X334160715Y-69660714D01*
X334160715Y-69755952D02*
X334208334Y-69708333D01*
X334303572Y-69660714D01*
X334446430Y-69660714D01*
X334541668Y-69708333D01*
X334589287Y-69803571D01*
X334589287Y-70327381D01*
X334589287Y-69803571D02*
X334636906Y-69708333D01*
X334732144Y-69660714D01*
X334875001Y-69660714D01*
X334970239Y-69708333D01*
X335017858Y-69803571D01*
X335017858Y-70327381D01*
X335494048Y-70327381D02*
X335494048Y-69660714D01*
X335494048Y-69755952D02*
X335541667Y-69708333D01*
X335636905Y-69660714D01*
X335779763Y-69660714D01*
X335875001Y-69708333D01*
X335922620Y-69803571D01*
X335922620Y-70327381D01*
X335922620Y-69803571D02*
X335970239Y-69708333D01*
X336065477Y-69660714D01*
X336208334Y-69660714D01*
X336303572Y-69708333D01*
X336351191Y-69803571D01*
X336351191Y-70327381D01*
X336589286Y-70422619D02*
X337351191Y-70422619D01*
X337589286Y-70327381D02*
X337589286Y-69327381D01*
X337922620Y-70041667D01*
X338255953Y-69327381D01*
X338255953Y-70327381D01*
X338684524Y-69422619D02*
X338732143Y-69375000D01*
X338827381Y-69327381D01*
X339065477Y-69327381D01*
X339160715Y-69375000D01*
X339208334Y-69422619D01*
X339255953Y-69517857D01*
X339255953Y-69613095D01*
X339208334Y-69755952D01*
X338636905Y-70327381D01*
X339255953Y-70327381D01*
X339446429Y-70422619D02*
X340208334Y-70422619D01*
X340446429Y-70327381D02*
X340446429Y-69327381D01*
X340827382Y-69327381D01*
X340922620Y-69375000D01*
X340970239Y-69422619D01*
X341017858Y-69517857D01*
X341017858Y-69660714D01*
X340970239Y-69755952D01*
X340922620Y-69803571D01*
X340827382Y-69851190D01*
X340446429Y-69851190D01*
X341875001Y-70327381D02*
X341875001Y-69803571D01*
X341827382Y-69708333D01*
X341732144Y-69660714D01*
X341541667Y-69660714D01*
X341446429Y-69708333D01*
X341875001Y-70279762D02*
X341779763Y-70327381D01*
X341541667Y-70327381D01*
X341446429Y-70279762D01*
X341398810Y-70184524D01*
X341398810Y-70089286D01*
X341446429Y-69994048D01*
X341541667Y-69946429D01*
X341779763Y-69946429D01*
X341875001Y-69898810D01*
X342779763Y-70327381D02*
X342779763Y-69327381D01*
X342779763Y-70279762D02*
X342684525Y-70327381D01*
X342494048Y-70327381D01*
X342398810Y-70279762D01*
X342351191Y-70232143D01*
X342303572Y-70136905D01*
X342303572Y-69851190D01*
X342351191Y-69755952D01*
X342398810Y-69708333D01*
X342494048Y-69660714D01*
X342684525Y-69660714D01*
X342779763Y-69708333D01*
X343017858Y-70422619D02*
X343779763Y-70422619D01*
X343875001Y-69327381D02*
X344208334Y-70327381D01*
X344541668Y-69327381D01*
X344875001Y-70327381D02*
X344875001Y-69660714D01*
X344875001Y-69327381D02*
X344827382Y-69375000D01*
X344875001Y-69422619D01*
X344922620Y-69375000D01*
X344875001Y-69327381D01*
X344875001Y-69422619D01*
X345779763Y-70327381D02*
X345779763Y-69803571D01*
X345732144Y-69708333D01*
X345636906Y-69660714D01*
X345446429Y-69660714D01*
X345351191Y-69708333D01*
X345779763Y-70279762D02*
X345684525Y-70327381D01*
X345446429Y-70327381D01*
X345351191Y-70279762D01*
X345303572Y-70184524D01*
X345303572Y-70089286D01*
X345351191Y-69994048D01*
X345446429Y-69946429D01*
X345684525Y-69946429D01*
X345779763Y-69898810D01*
X332341667Y-67127381D02*
X332008333Y-66651190D01*
X331770238Y-67127381D02*
X331770238Y-66127381D01*
X332151191Y-66127381D01*
X332246429Y-66175000D01*
X332294048Y-66222619D01*
X332341667Y-66317857D01*
X332341667Y-66460714D01*
X332294048Y-66555952D01*
X332246429Y-66603571D01*
X332151191Y-66651190D01*
X331770238Y-66651190D01*
X332770238Y-66603571D02*
X333103572Y-66603571D01*
X333246429Y-67127381D02*
X332770238Y-67127381D01*
X332770238Y-66127381D01*
X333246429Y-66127381D01*
X334008334Y-66603571D02*
X333675000Y-66603571D01*
X333675000Y-67127381D02*
X333675000Y-66127381D01*
X334151191Y-66127381D01*
X334675000Y-66127381D02*
X334675000Y-66365476D01*
X334436905Y-66270238D02*
X334675000Y-66365476D01*
X334913096Y-66270238D01*
X334532143Y-66555952D02*
X334675000Y-66365476D01*
X334817858Y-66555952D01*
X335436905Y-66127381D02*
X335436905Y-66365476D01*
X335198810Y-66270238D02*
X335436905Y-66365476D01*
X335675001Y-66270238D01*
X335294048Y-66555952D02*
X335436905Y-66365476D01*
X335579763Y-66555952D01*
X301920238Y-129064881D02*
X301920238Y-128064881D01*
X302253572Y-128779167D01*
X302586905Y-128064881D01*
X302586905Y-129064881D01*
X303205952Y-129064881D02*
X303110714Y-129017262D01*
X303063095Y-128969643D01*
X303015476Y-128874405D01*
X303015476Y-128588690D01*
X303063095Y-128493452D01*
X303110714Y-128445833D01*
X303205952Y-128398214D01*
X303348810Y-128398214D01*
X303444048Y-128445833D01*
X303491667Y-128493452D01*
X303539286Y-128588690D01*
X303539286Y-128874405D01*
X303491667Y-128969643D01*
X303444048Y-129017262D01*
X303348810Y-129064881D01*
X303205952Y-129064881D01*
X304396429Y-128398214D02*
X304396429Y-129064881D01*
X303967857Y-128398214D02*
X303967857Y-128922024D01*
X304015476Y-129017262D01*
X304110714Y-129064881D01*
X304253572Y-129064881D01*
X304348810Y-129017262D01*
X304396429Y-128969643D01*
X304872619Y-128398214D02*
X304872619Y-129064881D01*
X304872619Y-128493452D02*
X304920238Y-128445833D01*
X305015476Y-128398214D01*
X305158334Y-128398214D01*
X305253572Y-128445833D01*
X305301191Y-128541071D01*
X305301191Y-129064881D01*
X305634524Y-128398214D02*
X306015476Y-128398214D01*
X305777381Y-128064881D02*
X305777381Y-128922024D01*
X305825000Y-129017262D01*
X305920238Y-129064881D01*
X306015476Y-129064881D01*
X306348810Y-129064881D02*
X306348810Y-128398214D01*
X306348810Y-128064881D02*
X306301191Y-128112500D01*
X306348810Y-128160119D01*
X306396429Y-128112500D01*
X306348810Y-128064881D01*
X306348810Y-128160119D01*
X306825000Y-128398214D02*
X306825000Y-129064881D01*
X306825000Y-128493452D02*
X306872619Y-128445833D01*
X306967857Y-128398214D01*
X307110715Y-128398214D01*
X307205953Y-128445833D01*
X307253572Y-128541071D01*
X307253572Y-129064881D01*
X308158334Y-128398214D02*
X308158334Y-129207738D01*
X308110715Y-129302976D01*
X308063096Y-129350595D01*
X307967857Y-129398214D01*
X307825000Y-129398214D01*
X307729762Y-129350595D01*
X308158334Y-129017262D02*
X308063096Y-129064881D01*
X307872619Y-129064881D01*
X307777381Y-129017262D01*
X307729762Y-128969643D01*
X307682143Y-128874405D01*
X307682143Y-128588690D01*
X307729762Y-128493452D01*
X307777381Y-128445833D01*
X307872619Y-128398214D01*
X308063096Y-128398214D01*
X308158334Y-128445833D01*
X308634524Y-129064881D02*
X308634524Y-128064881D01*
X308634524Y-128541071D02*
X309205953Y-128541071D01*
X309205953Y-129064881D02*
X309205953Y-128064881D01*
X309825000Y-129064881D02*
X309729762Y-129017262D01*
X309682143Y-128969643D01*
X309634524Y-128874405D01*
X309634524Y-128588690D01*
X309682143Y-128493452D01*
X309729762Y-128445833D01*
X309825000Y-128398214D01*
X309967858Y-128398214D01*
X310063096Y-128445833D01*
X310110715Y-128493452D01*
X310158334Y-128588690D01*
X310158334Y-128874405D01*
X310110715Y-128969643D01*
X310063096Y-129017262D01*
X309967858Y-129064881D01*
X309825000Y-129064881D01*
X310729762Y-129064881D02*
X310634524Y-129017262D01*
X310586905Y-128922024D01*
X310586905Y-128064881D01*
X311491668Y-129017262D02*
X311396430Y-129064881D01*
X311205953Y-129064881D01*
X311110715Y-129017262D01*
X311063096Y-128922024D01*
X311063096Y-128541071D01*
X311110715Y-128445833D01*
X311205953Y-128398214D01*
X311396430Y-128398214D01*
X311491668Y-128445833D01*
X311539287Y-128541071D01*
X311539287Y-128636310D01*
X311063096Y-128731548D01*
X311729763Y-129160119D02*
X312491668Y-129160119D01*
X312682144Y-128160119D02*
X312729763Y-128112500D01*
X312825001Y-128064881D01*
X313063097Y-128064881D01*
X313158335Y-128112500D01*
X313205954Y-128160119D01*
X313253573Y-128255357D01*
X313253573Y-128350595D01*
X313205954Y-128493452D01*
X312634525Y-129064881D01*
X313253573Y-129064881D01*
X313682144Y-128969643D02*
X313729763Y-129017262D01*
X313682144Y-129064881D01*
X313634525Y-129017262D01*
X313682144Y-128969643D01*
X313682144Y-129064881D01*
X314110715Y-128160119D02*
X314158334Y-128112500D01*
X314253572Y-128064881D01*
X314491668Y-128064881D01*
X314586906Y-128112500D01*
X314634525Y-128160119D01*
X314682144Y-128255357D01*
X314682144Y-128350595D01*
X314634525Y-128493452D01*
X314063096Y-129064881D01*
X314682144Y-129064881D01*
X315110715Y-129064881D02*
X315110715Y-128398214D01*
X315110715Y-128493452D02*
X315158334Y-128445833D01*
X315253572Y-128398214D01*
X315396430Y-128398214D01*
X315491668Y-128445833D01*
X315539287Y-128541071D01*
X315539287Y-129064881D01*
X315539287Y-128541071D02*
X315586906Y-128445833D01*
X315682144Y-128398214D01*
X315825001Y-128398214D01*
X315920239Y-128445833D01*
X315967858Y-128541071D01*
X315967858Y-129064881D01*
X316444048Y-129064881D02*
X316444048Y-128398214D01*
X316444048Y-128493452D02*
X316491667Y-128445833D01*
X316586905Y-128398214D01*
X316729763Y-128398214D01*
X316825001Y-128445833D01*
X316872620Y-128541071D01*
X316872620Y-129064881D01*
X316872620Y-128541071D02*
X316920239Y-128445833D01*
X317015477Y-128398214D01*
X317158334Y-128398214D01*
X317253572Y-128445833D01*
X317301191Y-128541071D01*
X317301191Y-129064881D01*
X317539286Y-129160119D02*
X318301191Y-129160119D01*
X318539286Y-129064881D02*
X318539286Y-128064881D01*
X318872620Y-128779167D01*
X319205953Y-128064881D01*
X319205953Y-129064881D01*
X319634524Y-128160119D02*
X319682143Y-128112500D01*
X319777381Y-128064881D01*
X320015477Y-128064881D01*
X320110715Y-128112500D01*
X320158334Y-128160119D01*
X320205953Y-128255357D01*
X320205953Y-128350595D01*
X320158334Y-128493452D01*
X319586905Y-129064881D01*
X320205953Y-129064881D01*
X320396429Y-129160119D02*
X321158334Y-129160119D01*
X321396429Y-129064881D02*
X321396429Y-128064881D01*
X321777382Y-128064881D01*
X321872620Y-128112500D01*
X321920239Y-128160119D01*
X321967858Y-128255357D01*
X321967858Y-128398214D01*
X321920239Y-128493452D01*
X321872620Y-128541071D01*
X321777382Y-128588690D01*
X321396429Y-128588690D01*
X322825001Y-129064881D02*
X322825001Y-128541071D01*
X322777382Y-128445833D01*
X322682144Y-128398214D01*
X322491667Y-128398214D01*
X322396429Y-128445833D01*
X322825001Y-129017262D02*
X322729763Y-129064881D01*
X322491667Y-129064881D01*
X322396429Y-129017262D01*
X322348810Y-128922024D01*
X322348810Y-128826786D01*
X322396429Y-128731548D01*
X322491667Y-128683929D01*
X322729763Y-128683929D01*
X322825001Y-128636310D01*
X323729763Y-129064881D02*
X323729763Y-128064881D01*
X323729763Y-129017262D02*
X323634525Y-129064881D01*
X323444048Y-129064881D01*
X323348810Y-129017262D01*
X323301191Y-128969643D01*
X323253572Y-128874405D01*
X323253572Y-128588690D01*
X323301191Y-128493452D01*
X323348810Y-128445833D01*
X323444048Y-128398214D01*
X323634525Y-128398214D01*
X323729763Y-128445833D01*
X323967858Y-129160119D02*
X324729763Y-129160119D01*
X324825001Y-128064881D02*
X325158334Y-129064881D01*
X325491668Y-128064881D01*
X325825001Y-129064881D02*
X325825001Y-128398214D01*
X325825001Y-128064881D02*
X325777382Y-128112500D01*
X325825001Y-128160119D01*
X325872620Y-128112500D01*
X325825001Y-128064881D01*
X325825001Y-128160119D01*
X326729763Y-129064881D02*
X326729763Y-128541071D01*
X326682144Y-128445833D01*
X326586906Y-128398214D01*
X326396429Y-128398214D01*
X326301191Y-128445833D01*
X326729763Y-129017262D02*
X326634525Y-129064881D01*
X326396429Y-129064881D01*
X326301191Y-129017262D01*
X326253572Y-128922024D01*
X326253572Y-128826786D01*
X326301191Y-128731548D01*
X326396429Y-128683929D01*
X326634525Y-128683929D01*
X326729763Y-128636310D01*
X313291667Y-125864881D02*
X312958333Y-125388690D01*
X312720238Y-125864881D02*
X312720238Y-124864881D01*
X313101191Y-124864881D01*
X313196429Y-124912500D01*
X313244048Y-124960119D01*
X313291667Y-125055357D01*
X313291667Y-125198214D01*
X313244048Y-125293452D01*
X313196429Y-125341071D01*
X313101191Y-125388690D01*
X312720238Y-125388690D01*
X313720238Y-125341071D02*
X314053572Y-125341071D01*
X314196429Y-125864881D02*
X313720238Y-125864881D01*
X313720238Y-124864881D01*
X314196429Y-124864881D01*
X314958334Y-125341071D02*
X314625000Y-125341071D01*
X314625000Y-125864881D02*
X314625000Y-124864881D01*
X315101191Y-124864881D01*
X315625000Y-124864881D02*
X315625000Y-125102976D01*
X315386905Y-125007738D02*
X315625000Y-125102976D01*
X315863096Y-125007738D01*
X315482143Y-125293452D02*
X315625000Y-125102976D01*
X315767858Y-125293452D01*
X316386905Y-124864881D02*
X316386905Y-125102976D01*
X316148810Y-125007738D02*
X316386905Y-125102976D01*
X316625001Y-125007738D01*
X316244048Y-125293452D02*
X316386905Y-125102976D01*
X316529763Y-125293452D01*
X60620238Y-137002381D02*
X60620238Y-136002381D01*
X60953572Y-136716667D01*
X61286905Y-136002381D01*
X61286905Y-137002381D01*
X61905952Y-137002381D02*
X61810714Y-136954762D01*
X61763095Y-136907143D01*
X61715476Y-136811905D01*
X61715476Y-136526190D01*
X61763095Y-136430952D01*
X61810714Y-136383333D01*
X61905952Y-136335714D01*
X62048810Y-136335714D01*
X62144048Y-136383333D01*
X62191667Y-136430952D01*
X62239286Y-136526190D01*
X62239286Y-136811905D01*
X62191667Y-136907143D01*
X62144048Y-136954762D01*
X62048810Y-137002381D01*
X61905952Y-137002381D01*
X63096429Y-136335714D02*
X63096429Y-137002381D01*
X62667857Y-136335714D02*
X62667857Y-136859524D01*
X62715476Y-136954762D01*
X62810714Y-137002381D01*
X62953572Y-137002381D01*
X63048810Y-136954762D01*
X63096429Y-136907143D01*
X63572619Y-136335714D02*
X63572619Y-137002381D01*
X63572619Y-136430952D02*
X63620238Y-136383333D01*
X63715476Y-136335714D01*
X63858334Y-136335714D01*
X63953572Y-136383333D01*
X64001191Y-136478571D01*
X64001191Y-137002381D01*
X64334524Y-136335714D02*
X64715476Y-136335714D01*
X64477381Y-136002381D02*
X64477381Y-136859524D01*
X64525000Y-136954762D01*
X64620238Y-137002381D01*
X64715476Y-137002381D01*
X65048810Y-137002381D02*
X65048810Y-136335714D01*
X65048810Y-136002381D02*
X65001191Y-136050000D01*
X65048810Y-136097619D01*
X65096429Y-136050000D01*
X65048810Y-136002381D01*
X65048810Y-136097619D01*
X65525000Y-136335714D02*
X65525000Y-137002381D01*
X65525000Y-136430952D02*
X65572619Y-136383333D01*
X65667857Y-136335714D01*
X65810715Y-136335714D01*
X65905953Y-136383333D01*
X65953572Y-136478571D01*
X65953572Y-137002381D01*
X66858334Y-136335714D02*
X66858334Y-137145238D01*
X66810715Y-137240476D01*
X66763096Y-137288095D01*
X66667857Y-137335714D01*
X66525000Y-137335714D01*
X66429762Y-137288095D01*
X66858334Y-136954762D02*
X66763096Y-137002381D01*
X66572619Y-137002381D01*
X66477381Y-136954762D01*
X66429762Y-136907143D01*
X66382143Y-136811905D01*
X66382143Y-136526190D01*
X66429762Y-136430952D01*
X66477381Y-136383333D01*
X66572619Y-136335714D01*
X66763096Y-136335714D01*
X66858334Y-136383333D01*
X67334524Y-137002381D02*
X67334524Y-136002381D01*
X67334524Y-136478571D02*
X67905953Y-136478571D01*
X67905953Y-137002381D02*
X67905953Y-136002381D01*
X68525000Y-137002381D02*
X68429762Y-136954762D01*
X68382143Y-136907143D01*
X68334524Y-136811905D01*
X68334524Y-136526190D01*
X68382143Y-136430952D01*
X68429762Y-136383333D01*
X68525000Y-136335714D01*
X68667858Y-136335714D01*
X68763096Y-136383333D01*
X68810715Y-136430952D01*
X68858334Y-136526190D01*
X68858334Y-136811905D01*
X68810715Y-136907143D01*
X68763096Y-136954762D01*
X68667858Y-137002381D01*
X68525000Y-137002381D01*
X69429762Y-137002381D02*
X69334524Y-136954762D01*
X69286905Y-136859524D01*
X69286905Y-136002381D01*
X70191668Y-136954762D02*
X70096430Y-137002381D01*
X69905953Y-137002381D01*
X69810715Y-136954762D01*
X69763096Y-136859524D01*
X69763096Y-136478571D01*
X69810715Y-136383333D01*
X69905953Y-136335714D01*
X70096430Y-136335714D01*
X70191668Y-136383333D01*
X70239287Y-136478571D01*
X70239287Y-136573810D01*
X69763096Y-136669048D01*
X70429763Y-137097619D02*
X71191668Y-137097619D01*
X71382144Y-136097619D02*
X71429763Y-136050000D01*
X71525001Y-136002381D01*
X71763097Y-136002381D01*
X71858335Y-136050000D01*
X71905954Y-136097619D01*
X71953573Y-136192857D01*
X71953573Y-136288095D01*
X71905954Y-136430952D01*
X71334525Y-137002381D01*
X71953573Y-137002381D01*
X72382144Y-136907143D02*
X72429763Y-136954762D01*
X72382144Y-137002381D01*
X72334525Y-136954762D01*
X72382144Y-136907143D01*
X72382144Y-137002381D01*
X72810715Y-136097619D02*
X72858334Y-136050000D01*
X72953572Y-136002381D01*
X73191668Y-136002381D01*
X73286906Y-136050000D01*
X73334525Y-136097619D01*
X73382144Y-136192857D01*
X73382144Y-136288095D01*
X73334525Y-136430952D01*
X72763096Y-137002381D01*
X73382144Y-137002381D01*
X73810715Y-137002381D02*
X73810715Y-136335714D01*
X73810715Y-136430952D02*
X73858334Y-136383333D01*
X73953572Y-136335714D01*
X74096430Y-136335714D01*
X74191668Y-136383333D01*
X74239287Y-136478571D01*
X74239287Y-137002381D01*
X74239287Y-136478571D02*
X74286906Y-136383333D01*
X74382144Y-136335714D01*
X74525001Y-136335714D01*
X74620239Y-136383333D01*
X74667858Y-136478571D01*
X74667858Y-137002381D01*
X75144048Y-137002381D02*
X75144048Y-136335714D01*
X75144048Y-136430952D02*
X75191667Y-136383333D01*
X75286905Y-136335714D01*
X75429763Y-136335714D01*
X75525001Y-136383333D01*
X75572620Y-136478571D01*
X75572620Y-137002381D01*
X75572620Y-136478571D02*
X75620239Y-136383333D01*
X75715477Y-136335714D01*
X75858334Y-136335714D01*
X75953572Y-136383333D01*
X76001191Y-136478571D01*
X76001191Y-137002381D01*
X76239286Y-137097619D02*
X77001191Y-137097619D01*
X77239286Y-137002381D02*
X77239286Y-136002381D01*
X77572620Y-136716667D01*
X77905953Y-136002381D01*
X77905953Y-137002381D01*
X78334524Y-136097619D02*
X78382143Y-136050000D01*
X78477381Y-136002381D01*
X78715477Y-136002381D01*
X78810715Y-136050000D01*
X78858334Y-136097619D01*
X78905953Y-136192857D01*
X78905953Y-136288095D01*
X78858334Y-136430952D01*
X78286905Y-137002381D01*
X78905953Y-137002381D01*
X79096429Y-137097619D02*
X79858334Y-137097619D01*
X80096429Y-137002381D02*
X80096429Y-136002381D01*
X80477382Y-136002381D01*
X80572620Y-136050000D01*
X80620239Y-136097619D01*
X80667858Y-136192857D01*
X80667858Y-136335714D01*
X80620239Y-136430952D01*
X80572620Y-136478571D01*
X80477382Y-136526190D01*
X80096429Y-136526190D01*
X81525001Y-137002381D02*
X81525001Y-136478571D01*
X81477382Y-136383333D01*
X81382144Y-136335714D01*
X81191667Y-136335714D01*
X81096429Y-136383333D01*
X81525001Y-136954762D02*
X81429763Y-137002381D01*
X81191667Y-137002381D01*
X81096429Y-136954762D01*
X81048810Y-136859524D01*
X81048810Y-136764286D01*
X81096429Y-136669048D01*
X81191667Y-136621429D01*
X81429763Y-136621429D01*
X81525001Y-136573810D01*
X82429763Y-137002381D02*
X82429763Y-136002381D01*
X82429763Y-136954762D02*
X82334525Y-137002381D01*
X82144048Y-137002381D01*
X82048810Y-136954762D01*
X82001191Y-136907143D01*
X81953572Y-136811905D01*
X81953572Y-136526190D01*
X82001191Y-136430952D01*
X82048810Y-136383333D01*
X82144048Y-136335714D01*
X82334525Y-136335714D01*
X82429763Y-136383333D01*
X82667858Y-137097619D02*
X83429763Y-137097619D01*
X83525001Y-136002381D02*
X83858334Y-137002381D01*
X84191668Y-136002381D01*
X84525001Y-137002381D02*
X84525001Y-136335714D01*
X84525001Y-136002381D02*
X84477382Y-136050000D01*
X84525001Y-136097619D01*
X84572620Y-136050000D01*
X84525001Y-136002381D01*
X84525001Y-136097619D01*
X85429763Y-137002381D02*
X85429763Y-136478571D01*
X85382144Y-136383333D01*
X85286906Y-136335714D01*
X85096429Y-136335714D01*
X85001191Y-136383333D01*
X85429763Y-136954762D02*
X85334525Y-137002381D01*
X85096429Y-137002381D01*
X85001191Y-136954762D01*
X84953572Y-136859524D01*
X84953572Y-136764286D01*
X85001191Y-136669048D01*
X85096429Y-136621429D01*
X85334525Y-136621429D01*
X85429763Y-136573810D01*
X71991667Y-133802381D02*
X71658333Y-133326190D01*
X71420238Y-133802381D02*
X71420238Y-132802381D01*
X71801191Y-132802381D01*
X71896429Y-132850000D01*
X71944048Y-132897619D01*
X71991667Y-132992857D01*
X71991667Y-133135714D01*
X71944048Y-133230952D01*
X71896429Y-133278571D01*
X71801191Y-133326190D01*
X71420238Y-133326190D01*
X72420238Y-133278571D02*
X72753572Y-133278571D01*
X72896429Y-133802381D02*
X72420238Y-133802381D01*
X72420238Y-132802381D01*
X72896429Y-132802381D01*
X73658334Y-133278571D02*
X73325000Y-133278571D01*
X73325000Y-133802381D02*
X73325000Y-132802381D01*
X73801191Y-132802381D01*
X74325000Y-132802381D02*
X74325000Y-133040476D01*
X74086905Y-132945238D02*
X74325000Y-133040476D01*
X74563096Y-132945238D01*
X74182143Y-133230952D02*
X74325000Y-133040476D01*
X74467858Y-133230952D01*
X75086905Y-132802381D02*
X75086905Y-133040476D01*
X74848810Y-132945238D02*
X75086905Y-133040476D01*
X75325001Y-132945238D01*
X74944048Y-133230952D02*
X75086905Y-133040476D01*
X75229763Y-133230952D01*
X163807738Y-98902381D02*
X163807738Y-97902381D01*
X164141072Y-98616667D01*
X164474405Y-97902381D01*
X164474405Y-98902381D01*
X165093452Y-98902381D02*
X164998214Y-98854762D01*
X164950595Y-98807143D01*
X164902976Y-98711905D01*
X164902976Y-98426190D01*
X164950595Y-98330952D01*
X164998214Y-98283333D01*
X165093452Y-98235714D01*
X165236310Y-98235714D01*
X165331548Y-98283333D01*
X165379167Y-98330952D01*
X165426786Y-98426190D01*
X165426786Y-98711905D01*
X165379167Y-98807143D01*
X165331548Y-98854762D01*
X165236310Y-98902381D01*
X165093452Y-98902381D01*
X166283929Y-98235714D02*
X166283929Y-98902381D01*
X165855357Y-98235714D02*
X165855357Y-98759524D01*
X165902976Y-98854762D01*
X165998214Y-98902381D01*
X166141072Y-98902381D01*
X166236310Y-98854762D01*
X166283929Y-98807143D01*
X166760119Y-98235714D02*
X166760119Y-98902381D01*
X166760119Y-98330952D02*
X166807738Y-98283333D01*
X166902976Y-98235714D01*
X167045834Y-98235714D01*
X167141072Y-98283333D01*
X167188691Y-98378571D01*
X167188691Y-98902381D01*
X167522024Y-98235714D02*
X167902976Y-98235714D01*
X167664881Y-97902381D02*
X167664881Y-98759524D01*
X167712500Y-98854762D01*
X167807738Y-98902381D01*
X167902976Y-98902381D01*
X168236310Y-98902381D02*
X168236310Y-98235714D01*
X168236310Y-97902381D02*
X168188691Y-97950000D01*
X168236310Y-97997619D01*
X168283929Y-97950000D01*
X168236310Y-97902381D01*
X168236310Y-97997619D01*
X168712500Y-98235714D02*
X168712500Y-98902381D01*
X168712500Y-98330952D02*
X168760119Y-98283333D01*
X168855357Y-98235714D01*
X168998215Y-98235714D01*
X169093453Y-98283333D01*
X169141072Y-98378571D01*
X169141072Y-98902381D01*
X170045834Y-98235714D02*
X170045834Y-99045238D01*
X169998215Y-99140476D01*
X169950596Y-99188095D01*
X169855357Y-99235714D01*
X169712500Y-99235714D01*
X169617262Y-99188095D01*
X170045834Y-98854762D02*
X169950596Y-98902381D01*
X169760119Y-98902381D01*
X169664881Y-98854762D01*
X169617262Y-98807143D01*
X169569643Y-98711905D01*
X169569643Y-98426190D01*
X169617262Y-98330952D01*
X169664881Y-98283333D01*
X169760119Y-98235714D01*
X169950596Y-98235714D01*
X170045834Y-98283333D01*
X170522024Y-98902381D02*
X170522024Y-97902381D01*
X170522024Y-98378571D02*
X171093453Y-98378571D01*
X171093453Y-98902381D02*
X171093453Y-97902381D01*
X171712500Y-98902381D02*
X171617262Y-98854762D01*
X171569643Y-98807143D01*
X171522024Y-98711905D01*
X171522024Y-98426190D01*
X171569643Y-98330952D01*
X171617262Y-98283333D01*
X171712500Y-98235714D01*
X171855358Y-98235714D01*
X171950596Y-98283333D01*
X171998215Y-98330952D01*
X172045834Y-98426190D01*
X172045834Y-98711905D01*
X171998215Y-98807143D01*
X171950596Y-98854762D01*
X171855358Y-98902381D01*
X171712500Y-98902381D01*
X172617262Y-98902381D02*
X172522024Y-98854762D01*
X172474405Y-98759524D01*
X172474405Y-97902381D01*
X173379168Y-98854762D02*
X173283930Y-98902381D01*
X173093453Y-98902381D01*
X172998215Y-98854762D01*
X172950596Y-98759524D01*
X172950596Y-98378571D01*
X172998215Y-98283333D01*
X173093453Y-98235714D01*
X173283930Y-98235714D01*
X173379168Y-98283333D01*
X173426787Y-98378571D01*
X173426787Y-98473810D01*
X172950596Y-98569048D01*
X173617263Y-98997619D02*
X174379168Y-98997619D01*
X174569644Y-97997619D02*
X174617263Y-97950000D01*
X174712501Y-97902381D01*
X174950597Y-97902381D01*
X175045835Y-97950000D01*
X175093454Y-97997619D01*
X175141073Y-98092857D01*
X175141073Y-98188095D01*
X175093454Y-98330952D01*
X174522025Y-98902381D01*
X175141073Y-98902381D01*
X175569644Y-98807143D02*
X175617263Y-98854762D01*
X175569644Y-98902381D01*
X175522025Y-98854762D01*
X175569644Y-98807143D01*
X175569644Y-98902381D01*
X175998215Y-97997619D02*
X176045834Y-97950000D01*
X176141072Y-97902381D01*
X176379168Y-97902381D01*
X176474406Y-97950000D01*
X176522025Y-97997619D01*
X176569644Y-98092857D01*
X176569644Y-98188095D01*
X176522025Y-98330952D01*
X175950596Y-98902381D01*
X176569644Y-98902381D01*
X176998215Y-98902381D02*
X176998215Y-98235714D01*
X176998215Y-98330952D02*
X177045834Y-98283333D01*
X177141072Y-98235714D01*
X177283930Y-98235714D01*
X177379168Y-98283333D01*
X177426787Y-98378571D01*
X177426787Y-98902381D01*
X177426787Y-98378571D02*
X177474406Y-98283333D01*
X177569644Y-98235714D01*
X177712501Y-98235714D01*
X177807739Y-98283333D01*
X177855358Y-98378571D01*
X177855358Y-98902381D01*
X178331548Y-98902381D02*
X178331548Y-98235714D01*
X178331548Y-98330952D02*
X178379167Y-98283333D01*
X178474405Y-98235714D01*
X178617263Y-98235714D01*
X178712501Y-98283333D01*
X178760120Y-98378571D01*
X178760120Y-98902381D01*
X178760120Y-98378571D02*
X178807739Y-98283333D01*
X178902977Y-98235714D01*
X179045834Y-98235714D01*
X179141072Y-98283333D01*
X179188691Y-98378571D01*
X179188691Y-98902381D01*
X179426786Y-98997619D02*
X180188691Y-98997619D01*
X180426786Y-98902381D02*
X180426786Y-97902381D01*
X180760120Y-98616667D01*
X181093453Y-97902381D01*
X181093453Y-98902381D01*
X181522024Y-97997619D02*
X181569643Y-97950000D01*
X181664881Y-97902381D01*
X181902977Y-97902381D01*
X181998215Y-97950000D01*
X182045834Y-97997619D01*
X182093453Y-98092857D01*
X182093453Y-98188095D01*
X182045834Y-98330952D01*
X181474405Y-98902381D01*
X182093453Y-98902381D01*
X182283929Y-98997619D02*
X183045834Y-98997619D01*
X183283929Y-98902381D02*
X183283929Y-97902381D01*
X183664882Y-97902381D01*
X183760120Y-97950000D01*
X183807739Y-97997619D01*
X183855358Y-98092857D01*
X183855358Y-98235714D01*
X183807739Y-98330952D01*
X183760120Y-98378571D01*
X183664882Y-98426190D01*
X183283929Y-98426190D01*
X184712501Y-98902381D02*
X184712501Y-98378571D01*
X184664882Y-98283333D01*
X184569644Y-98235714D01*
X184379167Y-98235714D01*
X184283929Y-98283333D01*
X184712501Y-98854762D02*
X184617263Y-98902381D01*
X184379167Y-98902381D01*
X184283929Y-98854762D01*
X184236310Y-98759524D01*
X184236310Y-98664286D01*
X184283929Y-98569048D01*
X184379167Y-98521429D01*
X184617263Y-98521429D01*
X184712501Y-98473810D01*
X185617263Y-98902381D02*
X185617263Y-97902381D01*
X185617263Y-98854762D02*
X185522025Y-98902381D01*
X185331548Y-98902381D01*
X185236310Y-98854762D01*
X185188691Y-98807143D01*
X185141072Y-98711905D01*
X185141072Y-98426190D01*
X185188691Y-98330952D01*
X185236310Y-98283333D01*
X185331548Y-98235714D01*
X185522025Y-98235714D01*
X185617263Y-98283333D01*
X185855358Y-98997619D02*
X186617263Y-98997619D01*
X186712501Y-97902381D02*
X187045834Y-98902381D01*
X187379168Y-97902381D01*
X187712501Y-98902381D02*
X187712501Y-98235714D01*
X187712501Y-97902381D02*
X187664882Y-97950000D01*
X187712501Y-97997619D01*
X187760120Y-97950000D01*
X187712501Y-97902381D01*
X187712501Y-97997619D01*
X188617263Y-98902381D02*
X188617263Y-98378571D01*
X188569644Y-98283333D01*
X188474406Y-98235714D01*
X188283929Y-98235714D01*
X188188691Y-98283333D01*
X188617263Y-98854762D02*
X188522025Y-98902381D01*
X188283929Y-98902381D01*
X188188691Y-98854762D01*
X188141072Y-98759524D01*
X188141072Y-98664286D01*
X188188691Y-98569048D01*
X188283929Y-98521429D01*
X188522025Y-98521429D01*
X188617263Y-98473810D01*
X175179167Y-95702381D02*
X174845833Y-95226190D01*
X174607738Y-95702381D02*
X174607738Y-94702381D01*
X174988691Y-94702381D01*
X175083929Y-94750000D01*
X175131548Y-94797619D01*
X175179167Y-94892857D01*
X175179167Y-95035714D01*
X175131548Y-95130952D01*
X175083929Y-95178571D01*
X174988691Y-95226190D01*
X174607738Y-95226190D01*
X175607738Y-95178571D02*
X175941072Y-95178571D01*
X176083929Y-95702381D02*
X175607738Y-95702381D01*
X175607738Y-94702381D01*
X176083929Y-94702381D01*
X176845834Y-95178571D02*
X176512500Y-95178571D01*
X176512500Y-95702381D02*
X176512500Y-94702381D01*
X176988691Y-94702381D01*
X177512500Y-94702381D02*
X177512500Y-94940476D01*
X177274405Y-94845238D02*
X177512500Y-94940476D01*
X177750596Y-94845238D01*
X177369643Y-95130952D02*
X177512500Y-94940476D01*
X177655358Y-95130952D01*
X178274405Y-94702381D02*
X178274405Y-94940476D01*
X178036310Y-94845238D02*
X178274405Y-94940476D01*
X178512501Y-94845238D01*
X178131548Y-95130952D02*
X178274405Y-94940476D01*
X178417263Y-95130952D01*
X189207738Y-137002381D02*
X189207738Y-136002381D01*
X189541072Y-136716667D01*
X189874405Y-136002381D01*
X189874405Y-137002381D01*
X190493452Y-137002381D02*
X190398214Y-136954762D01*
X190350595Y-136907143D01*
X190302976Y-136811905D01*
X190302976Y-136526190D01*
X190350595Y-136430952D01*
X190398214Y-136383333D01*
X190493452Y-136335714D01*
X190636310Y-136335714D01*
X190731548Y-136383333D01*
X190779167Y-136430952D01*
X190826786Y-136526190D01*
X190826786Y-136811905D01*
X190779167Y-136907143D01*
X190731548Y-136954762D01*
X190636310Y-137002381D01*
X190493452Y-137002381D01*
X191683929Y-136335714D02*
X191683929Y-137002381D01*
X191255357Y-136335714D02*
X191255357Y-136859524D01*
X191302976Y-136954762D01*
X191398214Y-137002381D01*
X191541072Y-137002381D01*
X191636310Y-136954762D01*
X191683929Y-136907143D01*
X192160119Y-136335714D02*
X192160119Y-137002381D01*
X192160119Y-136430952D02*
X192207738Y-136383333D01*
X192302976Y-136335714D01*
X192445834Y-136335714D01*
X192541072Y-136383333D01*
X192588691Y-136478571D01*
X192588691Y-137002381D01*
X192922024Y-136335714D02*
X193302976Y-136335714D01*
X193064881Y-136002381D02*
X193064881Y-136859524D01*
X193112500Y-136954762D01*
X193207738Y-137002381D01*
X193302976Y-137002381D01*
X193636310Y-137002381D02*
X193636310Y-136335714D01*
X193636310Y-136002381D02*
X193588691Y-136050000D01*
X193636310Y-136097619D01*
X193683929Y-136050000D01*
X193636310Y-136002381D01*
X193636310Y-136097619D01*
X194112500Y-136335714D02*
X194112500Y-137002381D01*
X194112500Y-136430952D02*
X194160119Y-136383333D01*
X194255357Y-136335714D01*
X194398215Y-136335714D01*
X194493453Y-136383333D01*
X194541072Y-136478571D01*
X194541072Y-137002381D01*
X195445834Y-136335714D02*
X195445834Y-137145238D01*
X195398215Y-137240476D01*
X195350596Y-137288095D01*
X195255357Y-137335714D01*
X195112500Y-137335714D01*
X195017262Y-137288095D01*
X195445834Y-136954762D02*
X195350596Y-137002381D01*
X195160119Y-137002381D01*
X195064881Y-136954762D01*
X195017262Y-136907143D01*
X194969643Y-136811905D01*
X194969643Y-136526190D01*
X195017262Y-136430952D01*
X195064881Y-136383333D01*
X195160119Y-136335714D01*
X195350596Y-136335714D01*
X195445834Y-136383333D01*
X195922024Y-137002381D02*
X195922024Y-136002381D01*
X195922024Y-136478571D02*
X196493453Y-136478571D01*
X196493453Y-137002381D02*
X196493453Y-136002381D01*
X197112500Y-137002381D02*
X197017262Y-136954762D01*
X196969643Y-136907143D01*
X196922024Y-136811905D01*
X196922024Y-136526190D01*
X196969643Y-136430952D01*
X197017262Y-136383333D01*
X197112500Y-136335714D01*
X197255358Y-136335714D01*
X197350596Y-136383333D01*
X197398215Y-136430952D01*
X197445834Y-136526190D01*
X197445834Y-136811905D01*
X197398215Y-136907143D01*
X197350596Y-136954762D01*
X197255358Y-137002381D01*
X197112500Y-137002381D01*
X198017262Y-137002381D02*
X197922024Y-136954762D01*
X197874405Y-136859524D01*
X197874405Y-136002381D01*
X198779168Y-136954762D02*
X198683930Y-137002381D01*
X198493453Y-137002381D01*
X198398215Y-136954762D01*
X198350596Y-136859524D01*
X198350596Y-136478571D01*
X198398215Y-136383333D01*
X198493453Y-136335714D01*
X198683930Y-136335714D01*
X198779168Y-136383333D01*
X198826787Y-136478571D01*
X198826787Y-136573810D01*
X198350596Y-136669048D01*
X199017263Y-137097619D02*
X199779168Y-137097619D01*
X199969644Y-136097619D02*
X200017263Y-136050000D01*
X200112501Y-136002381D01*
X200350597Y-136002381D01*
X200445835Y-136050000D01*
X200493454Y-136097619D01*
X200541073Y-136192857D01*
X200541073Y-136288095D01*
X200493454Y-136430952D01*
X199922025Y-137002381D01*
X200541073Y-137002381D01*
X200969644Y-136907143D02*
X201017263Y-136954762D01*
X200969644Y-137002381D01*
X200922025Y-136954762D01*
X200969644Y-136907143D01*
X200969644Y-137002381D01*
X201398215Y-136097619D02*
X201445834Y-136050000D01*
X201541072Y-136002381D01*
X201779168Y-136002381D01*
X201874406Y-136050000D01*
X201922025Y-136097619D01*
X201969644Y-136192857D01*
X201969644Y-136288095D01*
X201922025Y-136430952D01*
X201350596Y-137002381D01*
X201969644Y-137002381D01*
X202398215Y-137002381D02*
X202398215Y-136335714D01*
X202398215Y-136430952D02*
X202445834Y-136383333D01*
X202541072Y-136335714D01*
X202683930Y-136335714D01*
X202779168Y-136383333D01*
X202826787Y-136478571D01*
X202826787Y-137002381D01*
X202826787Y-136478571D02*
X202874406Y-136383333D01*
X202969644Y-136335714D01*
X203112501Y-136335714D01*
X203207739Y-136383333D01*
X203255358Y-136478571D01*
X203255358Y-137002381D01*
X203731548Y-137002381D02*
X203731548Y-136335714D01*
X203731548Y-136430952D02*
X203779167Y-136383333D01*
X203874405Y-136335714D01*
X204017263Y-136335714D01*
X204112501Y-136383333D01*
X204160120Y-136478571D01*
X204160120Y-137002381D01*
X204160120Y-136478571D02*
X204207739Y-136383333D01*
X204302977Y-136335714D01*
X204445834Y-136335714D01*
X204541072Y-136383333D01*
X204588691Y-136478571D01*
X204588691Y-137002381D01*
X204826786Y-137097619D02*
X205588691Y-137097619D01*
X205826786Y-137002381D02*
X205826786Y-136002381D01*
X206160120Y-136716667D01*
X206493453Y-136002381D01*
X206493453Y-137002381D01*
X206922024Y-136097619D02*
X206969643Y-136050000D01*
X207064881Y-136002381D01*
X207302977Y-136002381D01*
X207398215Y-136050000D01*
X207445834Y-136097619D01*
X207493453Y-136192857D01*
X207493453Y-136288095D01*
X207445834Y-136430952D01*
X206874405Y-137002381D01*
X207493453Y-137002381D01*
X207683929Y-137097619D02*
X208445834Y-137097619D01*
X208683929Y-137002381D02*
X208683929Y-136002381D01*
X209064882Y-136002381D01*
X209160120Y-136050000D01*
X209207739Y-136097619D01*
X209255358Y-136192857D01*
X209255358Y-136335714D01*
X209207739Y-136430952D01*
X209160120Y-136478571D01*
X209064882Y-136526190D01*
X208683929Y-136526190D01*
X210112501Y-137002381D02*
X210112501Y-136478571D01*
X210064882Y-136383333D01*
X209969644Y-136335714D01*
X209779167Y-136335714D01*
X209683929Y-136383333D01*
X210112501Y-136954762D02*
X210017263Y-137002381D01*
X209779167Y-137002381D01*
X209683929Y-136954762D01*
X209636310Y-136859524D01*
X209636310Y-136764286D01*
X209683929Y-136669048D01*
X209779167Y-136621429D01*
X210017263Y-136621429D01*
X210112501Y-136573810D01*
X211017263Y-137002381D02*
X211017263Y-136002381D01*
X211017263Y-136954762D02*
X210922025Y-137002381D01*
X210731548Y-137002381D01*
X210636310Y-136954762D01*
X210588691Y-136907143D01*
X210541072Y-136811905D01*
X210541072Y-136526190D01*
X210588691Y-136430952D01*
X210636310Y-136383333D01*
X210731548Y-136335714D01*
X210922025Y-136335714D01*
X211017263Y-136383333D01*
X211255358Y-137097619D02*
X212017263Y-137097619D01*
X212112501Y-136002381D02*
X212445834Y-137002381D01*
X212779168Y-136002381D01*
X213112501Y-137002381D02*
X213112501Y-136335714D01*
X213112501Y-136002381D02*
X213064882Y-136050000D01*
X213112501Y-136097619D01*
X213160120Y-136050000D01*
X213112501Y-136002381D01*
X213112501Y-136097619D01*
X214017263Y-137002381D02*
X214017263Y-136478571D01*
X213969644Y-136383333D01*
X213874406Y-136335714D01*
X213683929Y-136335714D01*
X213588691Y-136383333D01*
X214017263Y-136954762D02*
X213922025Y-137002381D01*
X213683929Y-137002381D01*
X213588691Y-136954762D01*
X213541072Y-136859524D01*
X213541072Y-136764286D01*
X213588691Y-136669048D01*
X213683929Y-136621429D01*
X213922025Y-136621429D01*
X214017263Y-136573810D01*
X200579167Y-133802381D02*
X200245833Y-133326190D01*
X200007738Y-133802381D02*
X200007738Y-132802381D01*
X200388691Y-132802381D01*
X200483929Y-132850000D01*
X200531548Y-132897619D01*
X200579167Y-132992857D01*
X200579167Y-133135714D01*
X200531548Y-133230952D01*
X200483929Y-133278571D01*
X200388691Y-133326190D01*
X200007738Y-133326190D01*
X201007738Y-133278571D02*
X201341072Y-133278571D01*
X201483929Y-133802381D02*
X201007738Y-133802381D01*
X201007738Y-132802381D01*
X201483929Y-132802381D01*
X202245834Y-133278571D02*
X201912500Y-133278571D01*
X201912500Y-133802381D02*
X201912500Y-132802381D01*
X202388691Y-132802381D01*
X202912500Y-132802381D02*
X202912500Y-133040476D01*
X202674405Y-132945238D02*
X202912500Y-133040476D01*
X203150596Y-132945238D01*
X202769643Y-133230952D02*
X202912500Y-133040476D01*
X203055358Y-133230952D01*
X203674405Y-132802381D02*
X203674405Y-133040476D01*
X203436310Y-132945238D02*
X203674405Y-133040476D01*
X203912501Y-132945238D01*
X203531548Y-133230952D02*
X203674405Y-133040476D01*
X203817263Y-133230952D01*
X54270238Y-70327381D02*
X54270238Y-69327381D01*
X54603572Y-70041667D01*
X54936905Y-69327381D01*
X54936905Y-70327381D01*
X55555952Y-70327381D02*
X55460714Y-70279762D01*
X55413095Y-70232143D01*
X55365476Y-70136905D01*
X55365476Y-69851190D01*
X55413095Y-69755952D01*
X55460714Y-69708333D01*
X55555952Y-69660714D01*
X55698810Y-69660714D01*
X55794048Y-69708333D01*
X55841667Y-69755952D01*
X55889286Y-69851190D01*
X55889286Y-70136905D01*
X55841667Y-70232143D01*
X55794048Y-70279762D01*
X55698810Y-70327381D01*
X55555952Y-70327381D01*
X56746429Y-69660714D02*
X56746429Y-70327381D01*
X56317857Y-69660714D02*
X56317857Y-70184524D01*
X56365476Y-70279762D01*
X56460714Y-70327381D01*
X56603572Y-70327381D01*
X56698810Y-70279762D01*
X56746429Y-70232143D01*
X57222619Y-69660714D02*
X57222619Y-70327381D01*
X57222619Y-69755952D02*
X57270238Y-69708333D01*
X57365476Y-69660714D01*
X57508334Y-69660714D01*
X57603572Y-69708333D01*
X57651191Y-69803571D01*
X57651191Y-70327381D01*
X57984524Y-69660714D02*
X58365476Y-69660714D01*
X58127381Y-69327381D02*
X58127381Y-70184524D01*
X58175000Y-70279762D01*
X58270238Y-70327381D01*
X58365476Y-70327381D01*
X58698810Y-70327381D02*
X58698810Y-69660714D01*
X58698810Y-69327381D02*
X58651191Y-69375000D01*
X58698810Y-69422619D01*
X58746429Y-69375000D01*
X58698810Y-69327381D01*
X58698810Y-69422619D01*
X59175000Y-69660714D02*
X59175000Y-70327381D01*
X59175000Y-69755952D02*
X59222619Y-69708333D01*
X59317857Y-69660714D01*
X59460715Y-69660714D01*
X59555953Y-69708333D01*
X59603572Y-69803571D01*
X59603572Y-70327381D01*
X60508334Y-69660714D02*
X60508334Y-70470238D01*
X60460715Y-70565476D01*
X60413096Y-70613095D01*
X60317857Y-70660714D01*
X60175000Y-70660714D01*
X60079762Y-70613095D01*
X60508334Y-70279762D02*
X60413096Y-70327381D01*
X60222619Y-70327381D01*
X60127381Y-70279762D01*
X60079762Y-70232143D01*
X60032143Y-70136905D01*
X60032143Y-69851190D01*
X60079762Y-69755952D01*
X60127381Y-69708333D01*
X60222619Y-69660714D01*
X60413096Y-69660714D01*
X60508334Y-69708333D01*
X60984524Y-70327381D02*
X60984524Y-69327381D01*
X60984524Y-69803571D02*
X61555953Y-69803571D01*
X61555953Y-70327381D02*
X61555953Y-69327381D01*
X62175000Y-70327381D02*
X62079762Y-70279762D01*
X62032143Y-70232143D01*
X61984524Y-70136905D01*
X61984524Y-69851190D01*
X62032143Y-69755952D01*
X62079762Y-69708333D01*
X62175000Y-69660714D01*
X62317858Y-69660714D01*
X62413096Y-69708333D01*
X62460715Y-69755952D01*
X62508334Y-69851190D01*
X62508334Y-70136905D01*
X62460715Y-70232143D01*
X62413096Y-70279762D01*
X62317858Y-70327381D01*
X62175000Y-70327381D01*
X63079762Y-70327381D02*
X62984524Y-70279762D01*
X62936905Y-70184524D01*
X62936905Y-69327381D01*
X63841668Y-70279762D02*
X63746430Y-70327381D01*
X63555953Y-70327381D01*
X63460715Y-70279762D01*
X63413096Y-70184524D01*
X63413096Y-69803571D01*
X63460715Y-69708333D01*
X63555953Y-69660714D01*
X63746430Y-69660714D01*
X63841668Y-69708333D01*
X63889287Y-69803571D01*
X63889287Y-69898810D01*
X63413096Y-69994048D01*
X64079763Y-70422619D02*
X64841668Y-70422619D01*
X65032144Y-69422619D02*
X65079763Y-69375000D01*
X65175001Y-69327381D01*
X65413097Y-69327381D01*
X65508335Y-69375000D01*
X65555954Y-69422619D01*
X65603573Y-69517857D01*
X65603573Y-69613095D01*
X65555954Y-69755952D01*
X64984525Y-70327381D01*
X65603573Y-70327381D01*
X66032144Y-70232143D02*
X66079763Y-70279762D01*
X66032144Y-70327381D01*
X65984525Y-70279762D01*
X66032144Y-70232143D01*
X66032144Y-70327381D01*
X66460715Y-69422619D02*
X66508334Y-69375000D01*
X66603572Y-69327381D01*
X66841668Y-69327381D01*
X66936906Y-69375000D01*
X66984525Y-69422619D01*
X67032144Y-69517857D01*
X67032144Y-69613095D01*
X66984525Y-69755952D01*
X66413096Y-70327381D01*
X67032144Y-70327381D01*
X67460715Y-70327381D02*
X67460715Y-69660714D01*
X67460715Y-69755952D02*
X67508334Y-69708333D01*
X67603572Y-69660714D01*
X67746430Y-69660714D01*
X67841668Y-69708333D01*
X67889287Y-69803571D01*
X67889287Y-70327381D01*
X67889287Y-69803571D02*
X67936906Y-69708333D01*
X68032144Y-69660714D01*
X68175001Y-69660714D01*
X68270239Y-69708333D01*
X68317858Y-69803571D01*
X68317858Y-70327381D01*
X68794048Y-70327381D02*
X68794048Y-69660714D01*
X68794048Y-69755952D02*
X68841667Y-69708333D01*
X68936905Y-69660714D01*
X69079763Y-69660714D01*
X69175001Y-69708333D01*
X69222620Y-69803571D01*
X69222620Y-70327381D01*
X69222620Y-69803571D02*
X69270239Y-69708333D01*
X69365477Y-69660714D01*
X69508334Y-69660714D01*
X69603572Y-69708333D01*
X69651191Y-69803571D01*
X69651191Y-70327381D01*
X69889286Y-70422619D02*
X70651191Y-70422619D01*
X70889286Y-70327381D02*
X70889286Y-69327381D01*
X71222620Y-70041667D01*
X71555953Y-69327381D01*
X71555953Y-70327381D01*
X71984524Y-69422619D02*
X72032143Y-69375000D01*
X72127381Y-69327381D01*
X72365477Y-69327381D01*
X72460715Y-69375000D01*
X72508334Y-69422619D01*
X72555953Y-69517857D01*
X72555953Y-69613095D01*
X72508334Y-69755952D01*
X71936905Y-70327381D01*
X72555953Y-70327381D01*
X72746429Y-70422619D02*
X73508334Y-70422619D01*
X73746429Y-70327381D02*
X73746429Y-69327381D01*
X74127382Y-69327381D01*
X74222620Y-69375000D01*
X74270239Y-69422619D01*
X74317858Y-69517857D01*
X74317858Y-69660714D01*
X74270239Y-69755952D01*
X74222620Y-69803571D01*
X74127382Y-69851190D01*
X73746429Y-69851190D01*
X75175001Y-70327381D02*
X75175001Y-69803571D01*
X75127382Y-69708333D01*
X75032144Y-69660714D01*
X74841667Y-69660714D01*
X74746429Y-69708333D01*
X75175001Y-70279762D02*
X75079763Y-70327381D01*
X74841667Y-70327381D01*
X74746429Y-70279762D01*
X74698810Y-70184524D01*
X74698810Y-70089286D01*
X74746429Y-69994048D01*
X74841667Y-69946429D01*
X75079763Y-69946429D01*
X75175001Y-69898810D01*
X76079763Y-70327381D02*
X76079763Y-69327381D01*
X76079763Y-70279762D02*
X75984525Y-70327381D01*
X75794048Y-70327381D01*
X75698810Y-70279762D01*
X75651191Y-70232143D01*
X75603572Y-70136905D01*
X75603572Y-69851190D01*
X75651191Y-69755952D01*
X75698810Y-69708333D01*
X75794048Y-69660714D01*
X75984525Y-69660714D01*
X76079763Y-69708333D01*
X76317858Y-70422619D02*
X77079763Y-70422619D01*
X77175001Y-69327381D02*
X77508334Y-70327381D01*
X77841668Y-69327381D01*
X78175001Y-70327381D02*
X78175001Y-69660714D01*
X78175001Y-69327381D02*
X78127382Y-69375000D01*
X78175001Y-69422619D01*
X78222620Y-69375000D01*
X78175001Y-69327381D01*
X78175001Y-69422619D01*
X79079763Y-70327381D02*
X79079763Y-69803571D01*
X79032144Y-69708333D01*
X78936906Y-69660714D01*
X78746429Y-69660714D01*
X78651191Y-69708333D01*
X79079763Y-70279762D02*
X78984525Y-70327381D01*
X78746429Y-70327381D01*
X78651191Y-70279762D01*
X78603572Y-70184524D01*
X78603572Y-70089286D01*
X78651191Y-69994048D01*
X78746429Y-69946429D01*
X78984525Y-69946429D01*
X79079763Y-69898810D01*
X65641667Y-67127381D02*
X65308333Y-66651190D01*
X65070238Y-67127381D02*
X65070238Y-66127381D01*
X65451191Y-66127381D01*
X65546429Y-66175000D01*
X65594048Y-66222619D01*
X65641667Y-66317857D01*
X65641667Y-66460714D01*
X65594048Y-66555952D01*
X65546429Y-66603571D01*
X65451191Y-66651190D01*
X65070238Y-66651190D01*
X66070238Y-66603571D02*
X66403572Y-66603571D01*
X66546429Y-67127381D02*
X66070238Y-67127381D01*
X66070238Y-66127381D01*
X66546429Y-66127381D01*
X67308334Y-66603571D02*
X66975000Y-66603571D01*
X66975000Y-67127381D02*
X66975000Y-66127381D01*
X67451191Y-66127381D01*
X67975000Y-66127381D02*
X67975000Y-66365476D01*
X67736905Y-66270238D02*
X67975000Y-66365476D01*
X68213096Y-66270238D01*
X67832143Y-66555952D02*
X67975000Y-66365476D01*
X68117858Y-66555952D01*
X68736905Y-66127381D02*
X68736905Y-66365476D01*
X68498810Y-66270238D02*
X68736905Y-66365476D01*
X68975001Y-66270238D01*
X68594048Y-66555952D02*
X68736905Y-66365476D01*
X68879763Y-66555952D01*
X240801488Y-70327381D02*
X240801488Y-69327381D01*
X241134822Y-70041667D01*
X241468155Y-69327381D01*
X241468155Y-70327381D01*
X242087202Y-70327381D02*
X241991964Y-70279762D01*
X241944345Y-70232143D01*
X241896726Y-70136905D01*
X241896726Y-69851190D01*
X241944345Y-69755952D01*
X241991964Y-69708333D01*
X242087202Y-69660714D01*
X242230060Y-69660714D01*
X242325298Y-69708333D01*
X242372917Y-69755952D01*
X242420536Y-69851190D01*
X242420536Y-70136905D01*
X242372917Y-70232143D01*
X242325298Y-70279762D01*
X242230060Y-70327381D01*
X242087202Y-70327381D01*
X243277679Y-69660714D02*
X243277679Y-70327381D01*
X242849107Y-69660714D02*
X242849107Y-70184524D01*
X242896726Y-70279762D01*
X242991964Y-70327381D01*
X243134822Y-70327381D01*
X243230060Y-70279762D01*
X243277679Y-70232143D01*
X243753869Y-69660714D02*
X243753869Y-70327381D01*
X243753869Y-69755952D02*
X243801488Y-69708333D01*
X243896726Y-69660714D01*
X244039584Y-69660714D01*
X244134822Y-69708333D01*
X244182441Y-69803571D01*
X244182441Y-70327381D01*
X244515774Y-69660714D02*
X244896726Y-69660714D01*
X244658631Y-69327381D02*
X244658631Y-70184524D01*
X244706250Y-70279762D01*
X244801488Y-70327381D01*
X244896726Y-70327381D01*
X245230060Y-70327381D02*
X245230060Y-69660714D01*
X245230060Y-69327381D02*
X245182441Y-69375000D01*
X245230060Y-69422619D01*
X245277679Y-69375000D01*
X245230060Y-69327381D01*
X245230060Y-69422619D01*
X245706250Y-69660714D02*
X245706250Y-70327381D01*
X245706250Y-69755952D02*
X245753869Y-69708333D01*
X245849107Y-69660714D01*
X245991965Y-69660714D01*
X246087203Y-69708333D01*
X246134822Y-69803571D01*
X246134822Y-70327381D01*
X247039584Y-69660714D02*
X247039584Y-70470238D01*
X246991965Y-70565476D01*
X246944346Y-70613095D01*
X246849107Y-70660714D01*
X246706250Y-70660714D01*
X246611012Y-70613095D01*
X247039584Y-70279762D02*
X246944346Y-70327381D01*
X246753869Y-70327381D01*
X246658631Y-70279762D01*
X246611012Y-70232143D01*
X246563393Y-70136905D01*
X246563393Y-69851190D01*
X246611012Y-69755952D01*
X246658631Y-69708333D01*
X246753869Y-69660714D01*
X246944346Y-69660714D01*
X247039584Y-69708333D01*
X247515774Y-70327381D02*
X247515774Y-69327381D01*
X247515774Y-69803571D02*
X248087203Y-69803571D01*
X248087203Y-70327381D02*
X248087203Y-69327381D01*
X248706250Y-70327381D02*
X248611012Y-70279762D01*
X248563393Y-70232143D01*
X248515774Y-70136905D01*
X248515774Y-69851190D01*
X248563393Y-69755952D01*
X248611012Y-69708333D01*
X248706250Y-69660714D01*
X248849108Y-69660714D01*
X248944346Y-69708333D01*
X248991965Y-69755952D01*
X249039584Y-69851190D01*
X249039584Y-70136905D01*
X248991965Y-70232143D01*
X248944346Y-70279762D01*
X248849108Y-70327381D01*
X248706250Y-70327381D01*
X249611012Y-70327381D02*
X249515774Y-70279762D01*
X249468155Y-70184524D01*
X249468155Y-69327381D01*
X250372918Y-70279762D02*
X250277680Y-70327381D01*
X250087203Y-70327381D01*
X249991965Y-70279762D01*
X249944346Y-70184524D01*
X249944346Y-69803571D01*
X249991965Y-69708333D01*
X250087203Y-69660714D01*
X250277680Y-69660714D01*
X250372918Y-69708333D01*
X250420537Y-69803571D01*
X250420537Y-69898810D01*
X249944346Y-69994048D01*
X250611013Y-70422619D02*
X251372918Y-70422619D01*
X251563394Y-69422619D02*
X251611013Y-69375000D01*
X251706251Y-69327381D01*
X251944347Y-69327381D01*
X252039585Y-69375000D01*
X252087204Y-69422619D01*
X252134823Y-69517857D01*
X252134823Y-69613095D01*
X252087204Y-69755952D01*
X251515775Y-70327381D01*
X252134823Y-70327381D01*
X252563394Y-70232143D02*
X252611013Y-70279762D01*
X252563394Y-70327381D01*
X252515775Y-70279762D01*
X252563394Y-70232143D01*
X252563394Y-70327381D01*
X252991965Y-69422619D02*
X253039584Y-69375000D01*
X253134822Y-69327381D01*
X253372918Y-69327381D01*
X253468156Y-69375000D01*
X253515775Y-69422619D01*
X253563394Y-69517857D01*
X253563394Y-69613095D01*
X253515775Y-69755952D01*
X252944346Y-70327381D01*
X253563394Y-70327381D01*
X253991965Y-70327381D02*
X253991965Y-69660714D01*
X253991965Y-69755952D02*
X254039584Y-69708333D01*
X254134822Y-69660714D01*
X254277680Y-69660714D01*
X254372918Y-69708333D01*
X254420537Y-69803571D01*
X254420537Y-70327381D01*
X254420537Y-69803571D02*
X254468156Y-69708333D01*
X254563394Y-69660714D01*
X254706251Y-69660714D01*
X254801489Y-69708333D01*
X254849108Y-69803571D01*
X254849108Y-70327381D01*
X255325298Y-70327381D02*
X255325298Y-69660714D01*
X255325298Y-69755952D02*
X255372917Y-69708333D01*
X255468155Y-69660714D01*
X255611013Y-69660714D01*
X255706251Y-69708333D01*
X255753870Y-69803571D01*
X255753870Y-70327381D01*
X255753870Y-69803571D02*
X255801489Y-69708333D01*
X255896727Y-69660714D01*
X256039584Y-69660714D01*
X256134822Y-69708333D01*
X256182441Y-69803571D01*
X256182441Y-70327381D01*
X256420536Y-70422619D02*
X257182441Y-70422619D01*
X257420536Y-70327381D02*
X257420536Y-69327381D01*
X257753870Y-70041667D01*
X258087203Y-69327381D01*
X258087203Y-70327381D01*
X258515774Y-69422619D02*
X258563393Y-69375000D01*
X258658631Y-69327381D01*
X258896727Y-69327381D01*
X258991965Y-69375000D01*
X259039584Y-69422619D01*
X259087203Y-69517857D01*
X259087203Y-69613095D01*
X259039584Y-69755952D01*
X258468155Y-70327381D01*
X259087203Y-70327381D01*
X259277679Y-70422619D02*
X260039584Y-70422619D01*
X260277679Y-70327381D02*
X260277679Y-69327381D01*
X260658632Y-69327381D01*
X260753870Y-69375000D01*
X260801489Y-69422619D01*
X260849108Y-69517857D01*
X260849108Y-69660714D01*
X260801489Y-69755952D01*
X260753870Y-69803571D01*
X260658632Y-69851190D01*
X260277679Y-69851190D01*
X261706251Y-70327381D02*
X261706251Y-69803571D01*
X261658632Y-69708333D01*
X261563394Y-69660714D01*
X261372917Y-69660714D01*
X261277679Y-69708333D01*
X261706251Y-70279762D02*
X261611013Y-70327381D01*
X261372917Y-70327381D01*
X261277679Y-70279762D01*
X261230060Y-70184524D01*
X261230060Y-70089286D01*
X261277679Y-69994048D01*
X261372917Y-69946429D01*
X261611013Y-69946429D01*
X261706251Y-69898810D01*
X262611013Y-70327381D02*
X262611013Y-69327381D01*
X262611013Y-70279762D02*
X262515775Y-70327381D01*
X262325298Y-70327381D01*
X262230060Y-70279762D01*
X262182441Y-70232143D01*
X262134822Y-70136905D01*
X262134822Y-69851190D01*
X262182441Y-69755952D01*
X262230060Y-69708333D01*
X262325298Y-69660714D01*
X262515775Y-69660714D01*
X262611013Y-69708333D01*
X262849108Y-70422619D02*
X263611013Y-70422619D01*
X263706251Y-69327381D02*
X264039584Y-70327381D01*
X264372918Y-69327381D01*
X264706251Y-70327381D02*
X264706251Y-69660714D01*
X264706251Y-69327381D02*
X264658632Y-69375000D01*
X264706251Y-69422619D01*
X264753870Y-69375000D01*
X264706251Y-69327381D01*
X264706251Y-69422619D01*
X265611013Y-70327381D02*
X265611013Y-69803571D01*
X265563394Y-69708333D01*
X265468156Y-69660714D01*
X265277679Y-69660714D01*
X265182441Y-69708333D01*
X265611013Y-70279762D02*
X265515775Y-70327381D01*
X265277679Y-70327381D01*
X265182441Y-70279762D01*
X265134822Y-70184524D01*
X265134822Y-70089286D01*
X265182441Y-69994048D01*
X265277679Y-69946429D01*
X265515775Y-69946429D01*
X265611013Y-69898810D01*
X252172917Y-67127381D02*
X251839583Y-66651190D01*
X251601488Y-67127381D02*
X251601488Y-66127381D01*
X251982441Y-66127381D01*
X252077679Y-66175000D01*
X252125298Y-66222619D01*
X252172917Y-66317857D01*
X252172917Y-66460714D01*
X252125298Y-66555952D01*
X252077679Y-66603571D01*
X251982441Y-66651190D01*
X251601488Y-66651190D01*
X252601488Y-66603571D02*
X252934822Y-66603571D01*
X253077679Y-67127381D02*
X252601488Y-67127381D01*
X252601488Y-66127381D01*
X253077679Y-66127381D01*
X253839584Y-66603571D02*
X253506250Y-66603571D01*
X253506250Y-67127381D02*
X253506250Y-66127381D01*
X253982441Y-66127381D01*
X254506250Y-66127381D02*
X254506250Y-66365476D01*
X254268155Y-66270238D02*
X254506250Y-66365476D01*
X254744346Y-66270238D01*
X254363393Y-66555952D02*
X254506250Y-66365476D01*
X254649108Y-66555952D01*
X255268155Y-66127381D02*
X255268155Y-66365476D01*
X255030060Y-66270238D02*
X255268155Y-66365476D01*
X255506251Y-66270238D01*
X255125298Y-66555952D02*
X255268155Y-66365476D01*
X255411013Y-66555952D01*
X145551488Y-70327381D02*
X145551488Y-69327381D01*
X145884822Y-70041667D01*
X146218155Y-69327381D01*
X146218155Y-70327381D01*
X146837202Y-70327381D02*
X146741964Y-70279762D01*
X146694345Y-70232143D01*
X146646726Y-70136905D01*
X146646726Y-69851190D01*
X146694345Y-69755952D01*
X146741964Y-69708333D01*
X146837202Y-69660714D01*
X146980060Y-69660714D01*
X147075298Y-69708333D01*
X147122917Y-69755952D01*
X147170536Y-69851190D01*
X147170536Y-70136905D01*
X147122917Y-70232143D01*
X147075298Y-70279762D01*
X146980060Y-70327381D01*
X146837202Y-70327381D01*
X148027679Y-69660714D02*
X148027679Y-70327381D01*
X147599107Y-69660714D02*
X147599107Y-70184524D01*
X147646726Y-70279762D01*
X147741964Y-70327381D01*
X147884822Y-70327381D01*
X147980060Y-70279762D01*
X148027679Y-70232143D01*
X148503869Y-69660714D02*
X148503869Y-70327381D01*
X148503869Y-69755952D02*
X148551488Y-69708333D01*
X148646726Y-69660714D01*
X148789584Y-69660714D01*
X148884822Y-69708333D01*
X148932441Y-69803571D01*
X148932441Y-70327381D01*
X149265774Y-69660714D02*
X149646726Y-69660714D01*
X149408631Y-69327381D02*
X149408631Y-70184524D01*
X149456250Y-70279762D01*
X149551488Y-70327381D01*
X149646726Y-70327381D01*
X149980060Y-70327381D02*
X149980060Y-69660714D01*
X149980060Y-69327381D02*
X149932441Y-69375000D01*
X149980060Y-69422619D01*
X150027679Y-69375000D01*
X149980060Y-69327381D01*
X149980060Y-69422619D01*
X150456250Y-69660714D02*
X150456250Y-70327381D01*
X150456250Y-69755952D02*
X150503869Y-69708333D01*
X150599107Y-69660714D01*
X150741965Y-69660714D01*
X150837203Y-69708333D01*
X150884822Y-69803571D01*
X150884822Y-70327381D01*
X151789584Y-69660714D02*
X151789584Y-70470238D01*
X151741965Y-70565476D01*
X151694346Y-70613095D01*
X151599107Y-70660714D01*
X151456250Y-70660714D01*
X151361012Y-70613095D01*
X151789584Y-70279762D02*
X151694346Y-70327381D01*
X151503869Y-70327381D01*
X151408631Y-70279762D01*
X151361012Y-70232143D01*
X151313393Y-70136905D01*
X151313393Y-69851190D01*
X151361012Y-69755952D01*
X151408631Y-69708333D01*
X151503869Y-69660714D01*
X151694346Y-69660714D01*
X151789584Y-69708333D01*
X152265774Y-70327381D02*
X152265774Y-69327381D01*
X152265774Y-69803571D02*
X152837203Y-69803571D01*
X152837203Y-70327381D02*
X152837203Y-69327381D01*
X153456250Y-70327381D02*
X153361012Y-70279762D01*
X153313393Y-70232143D01*
X153265774Y-70136905D01*
X153265774Y-69851190D01*
X153313393Y-69755952D01*
X153361012Y-69708333D01*
X153456250Y-69660714D01*
X153599108Y-69660714D01*
X153694346Y-69708333D01*
X153741965Y-69755952D01*
X153789584Y-69851190D01*
X153789584Y-70136905D01*
X153741965Y-70232143D01*
X153694346Y-70279762D01*
X153599108Y-70327381D01*
X153456250Y-70327381D01*
X154361012Y-70327381D02*
X154265774Y-70279762D01*
X154218155Y-70184524D01*
X154218155Y-69327381D01*
X155122918Y-70279762D02*
X155027680Y-70327381D01*
X154837203Y-70327381D01*
X154741965Y-70279762D01*
X154694346Y-70184524D01*
X154694346Y-69803571D01*
X154741965Y-69708333D01*
X154837203Y-69660714D01*
X155027680Y-69660714D01*
X155122918Y-69708333D01*
X155170537Y-69803571D01*
X155170537Y-69898810D01*
X154694346Y-69994048D01*
X155361013Y-70422619D02*
X156122918Y-70422619D01*
X156313394Y-69422619D02*
X156361013Y-69375000D01*
X156456251Y-69327381D01*
X156694347Y-69327381D01*
X156789585Y-69375000D01*
X156837204Y-69422619D01*
X156884823Y-69517857D01*
X156884823Y-69613095D01*
X156837204Y-69755952D01*
X156265775Y-70327381D01*
X156884823Y-70327381D01*
X157313394Y-70232143D02*
X157361013Y-70279762D01*
X157313394Y-70327381D01*
X157265775Y-70279762D01*
X157313394Y-70232143D01*
X157313394Y-70327381D01*
X157741965Y-69422619D02*
X157789584Y-69375000D01*
X157884822Y-69327381D01*
X158122918Y-69327381D01*
X158218156Y-69375000D01*
X158265775Y-69422619D01*
X158313394Y-69517857D01*
X158313394Y-69613095D01*
X158265775Y-69755952D01*
X157694346Y-70327381D01*
X158313394Y-70327381D01*
X158741965Y-70327381D02*
X158741965Y-69660714D01*
X158741965Y-69755952D02*
X158789584Y-69708333D01*
X158884822Y-69660714D01*
X159027680Y-69660714D01*
X159122918Y-69708333D01*
X159170537Y-69803571D01*
X159170537Y-70327381D01*
X159170537Y-69803571D02*
X159218156Y-69708333D01*
X159313394Y-69660714D01*
X159456251Y-69660714D01*
X159551489Y-69708333D01*
X159599108Y-69803571D01*
X159599108Y-70327381D01*
X160075298Y-70327381D02*
X160075298Y-69660714D01*
X160075298Y-69755952D02*
X160122917Y-69708333D01*
X160218155Y-69660714D01*
X160361013Y-69660714D01*
X160456251Y-69708333D01*
X160503870Y-69803571D01*
X160503870Y-70327381D01*
X160503870Y-69803571D02*
X160551489Y-69708333D01*
X160646727Y-69660714D01*
X160789584Y-69660714D01*
X160884822Y-69708333D01*
X160932441Y-69803571D01*
X160932441Y-70327381D01*
X161170536Y-70422619D02*
X161932441Y-70422619D01*
X162170536Y-70327381D02*
X162170536Y-69327381D01*
X162503870Y-70041667D01*
X162837203Y-69327381D01*
X162837203Y-70327381D01*
X163265774Y-69422619D02*
X163313393Y-69375000D01*
X163408631Y-69327381D01*
X163646727Y-69327381D01*
X163741965Y-69375000D01*
X163789584Y-69422619D01*
X163837203Y-69517857D01*
X163837203Y-69613095D01*
X163789584Y-69755952D01*
X163218155Y-70327381D01*
X163837203Y-70327381D01*
X164027679Y-70422619D02*
X164789584Y-70422619D01*
X165027679Y-70327381D02*
X165027679Y-69327381D01*
X165408632Y-69327381D01*
X165503870Y-69375000D01*
X165551489Y-69422619D01*
X165599108Y-69517857D01*
X165599108Y-69660714D01*
X165551489Y-69755952D01*
X165503870Y-69803571D01*
X165408632Y-69851190D01*
X165027679Y-69851190D01*
X166456251Y-70327381D02*
X166456251Y-69803571D01*
X166408632Y-69708333D01*
X166313394Y-69660714D01*
X166122917Y-69660714D01*
X166027679Y-69708333D01*
X166456251Y-70279762D02*
X166361013Y-70327381D01*
X166122917Y-70327381D01*
X166027679Y-70279762D01*
X165980060Y-70184524D01*
X165980060Y-70089286D01*
X166027679Y-69994048D01*
X166122917Y-69946429D01*
X166361013Y-69946429D01*
X166456251Y-69898810D01*
X167361013Y-70327381D02*
X167361013Y-69327381D01*
X167361013Y-70279762D02*
X167265775Y-70327381D01*
X167075298Y-70327381D01*
X166980060Y-70279762D01*
X166932441Y-70232143D01*
X166884822Y-70136905D01*
X166884822Y-69851190D01*
X166932441Y-69755952D01*
X166980060Y-69708333D01*
X167075298Y-69660714D01*
X167265775Y-69660714D01*
X167361013Y-69708333D01*
X167599108Y-70422619D02*
X168361013Y-70422619D01*
X168456251Y-69327381D02*
X168789584Y-70327381D01*
X169122918Y-69327381D01*
X169456251Y-70327381D02*
X169456251Y-69660714D01*
X169456251Y-69327381D02*
X169408632Y-69375000D01*
X169456251Y-69422619D01*
X169503870Y-69375000D01*
X169456251Y-69327381D01*
X169456251Y-69422619D01*
X170361013Y-70327381D02*
X170361013Y-69803571D01*
X170313394Y-69708333D01*
X170218156Y-69660714D01*
X170027679Y-69660714D01*
X169932441Y-69708333D01*
X170361013Y-70279762D02*
X170265775Y-70327381D01*
X170027679Y-70327381D01*
X169932441Y-70279762D01*
X169884822Y-70184524D01*
X169884822Y-70089286D01*
X169932441Y-69994048D01*
X170027679Y-69946429D01*
X170265775Y-69946429D01*
X170361013Y-69898810D01*
X156922917Y-67127381D02*
X156589583Y-66651190D01*
X156351488Y-67127381D02*
X156351488Y-66127381D01*
X156732441Y-66127381D01*
X156827679Y-66175000D01*
X156875298Y-66222619D01*
X156922917Y-66317857D01*
X156922917Y-66460714D01*
X156875298Y-66555952D01*
X156827679Y-66603571D01*
X156732441Y-66651190D01*
X156351488Y-66651190D01*
X157351488Y-66603571D02*
X157684822Y-66603571D01*
X157827679Y-67127381D02*
X157351488Y-67127381D01*
X157351488Y-66127381D01*
X157827679Y-66127381D01*
X158589584Y-66603571D02*
X158256250Y-66603571D01*
X158256250Y-67127381D02*
X158256250Y-66127381D01*
X158732441Y-66127381D01*
X159256250Y-66127381D02*
X159256250Y-66365476D01*
X159018155Y-66270238D02*
X159256250Y-66365476D01*
X159494346Y-66270238D01*
X159113393Y-66555952D02*
X159256250Y-66365476D01*
X159399108Y-66555952D01*
X160018155Y-66127381D02*
X160018155Y-66365476D01*
X159780060Y-66270238D02*
X160018155Y-66365476D01*
X160256251Y-66270238D01*
X159875298Y-66555952D02*
X160018155Y-66365476D01*
X160161013Y-66555952D01*
X116182738Y-137002381D02*
X116182738Y-136002381D01*
X116516072Y-136716667D01*
X116849405Y-136002381D01*
X116849405Y-137002381D01*
X117468452Y-137002381D02*
X117373214Y-136954762D01*
X117325595Y-136907143D01*
X117277976Y-136811905D01*
X117277976Y-136526190D01*
X117325595Y-136430952D01*
X117373214Y-136383333D01*
X117468452Y-136335714D01*
X117611310Y-136335714D01*
X117706548Y-136383333D01*
X117754167Y-136430952D01*
X117801786Y-136526190D01*
X117801786Y-136811905D01*
X117754167Y-136907143D01*
X117706548Y-136954762D01*
X117611310Y-137002381D01*
X117468452Y-137002381D01*
X118658929Y-136335714D02*
X118658929Y-137002381D01*
X118230357Y-136335714D02*
X118230357Y-136859524D01*
X118277976Y-136954762D01*
X118373214Y-137002381D01*
X118516072Y-137002381D01*
X118611310Y-136954762D01*
X118658929Y-136907143D01*
X119135119Y-136335714D02*
X119135119Y-137002381D01*
X119135119Y-136430952D02*
X119182738Y-136383333D01*
X119277976Y-136335714D01*
X119420834Y-136335714D01*
X119516072Y-136383333D01*
X119563691Y-136478571D01*
X119563691Y-137002381D01*
X119897024Y-136335714D02*
X120277976Y-136335714D01*
X120039881Y-136002381D02*
X120039881Y-136859524D01*
X120087500Y-136954762D01*
X120182738Y-137002381D01*
X120277976Y-137002381D01*
X120611310Y-137002381D02*
X120611310Y-136335714D01*
X120611310Y-136002381D02*
X120563691Y-136050000D01*
X120611310Y-136097619D01*
X120658929Y-136050000D01*
X120611310Y-136002381D01*
X120611310Y-136097619D01*
X121087500Y-136335714D02*
X121087500Y-137002381D01*
X121087500Y-136430952D02*
X121135119Y-136383333D01*
X121230357Y-136335714D01*
X121373215Y-136335714D01*
X121468453Y-136383333D01*
X121516072Y-136478571D01*
X121516072Y-137002381D01*
X122420834Y-136335714D02*
X122420834Y-137145238D01*
X122373215Y-137240476D01*
X122325596Y-137288095D01*
X122230357Y-137335714D01*
X122087500Y-137335714D01*
X121992262Y-137288095D01*
X122420834Y-136954762D02*
X122325596Y-137002381D01*
X122135119Y-137002381D01*
X122039881Y-136954762D01*
X121992262Y-136907143D01*
X121944643Y-136811905D01*
X121944643Y-136526190D01*
X121992262Y-136430952D01*
X122039881Y-136383333D01*
X122135119Y-136335714D01*
X122325596Y-136335714D01*
X122420834Y-136383333D01*
X122897024Y-137002381D02*
X122897024Y-136002381D01*
X122897024Y-136478571D02*
X123468453Y-136478571D01*
X123468453Y-137002381D02*
X123468453Y-136002381D01*
X124087500Y-137002381D02*
X123992262Y-136954762D01*
X123944643Y-136907143D01*
X123897024Y-136811905D01*
X123897024Y-136526190D01*
X123944643Y-136430952D01*
X123992262Y-136383333D01*
X124087500Y-136335714D01*
X124230358Y-136335714D01*
X124325596Y-136383333D01*
X124373215Y-136430952D01*
X124420834Y-136526190D01*
X124420834Y-136811905D01*
X124373215Y-136907143D01*
X124325596Y-136954762D01*
X124230358Y-137002381D01*
X124087500Y-137002381D01*
X124992262Y-137002381D02*
X124897024Y-136954762D01*
X124849405Y-136859524D01*
X124849405Y-136002381D01*
X125754168Y-136954762D02*
X125658930Y-137002381D01*
X125468453Y-137002381D01*
X125373215Y-136954762D01*
X125325596Y-136859524D01*
X125325596Y-136478571D01*
X125373215Y-136383333D01*
X125468453Y-136335714D01*
X125658930Y-136335714D01*
X125754168Y-136383333D01*
X125801787Y-136478571D01*
X125801787Y-136573810D01*
X125325596Y-136669048D01*
X125992263Y-137097619D02*
X126754168Y-137097619D01*
X126944644Y-136097619D02*
X126992263Y-136050000D01*
X127087501Y-136002381D01*
X127325597Y-136002381D01*
X127420835Y-136050000D01*
X127468454Y-136097619D01*
X127516073Y-136192857D01*
X127516073Y-136288095D01*
X127468454Y-136430952D01*
X126897025Y-137002381D01*
X127516073Y-137002381D01*
X127944644Y-136907143D02*
X127992263Y-136954762D01*
X127944644Y-137002381D01*
X127897025Y-136954762D01*
X127944644Y-136907143D01*
X127944644Y-137002381D01*
X128373215Y-136097619D02*
X128420834Y-136050000D01*
X128516072Y-136002381D01*
X128754168Y-136002381D01*
X128849406Y-136050000D01*
X128897025Y-136097619D01*
X128944644Y-136192857D01*
X128944644Y-136288095D01*
X128897025Y-136430952D01*
X128325596Y-137002381D01*
X128944644Y-137002381D01*
X129373215Y-137002381D02*
X129373215Y-136335714D01*
X129373215Y-136430952D02*
X129420834Y-136383333D01*
X129516072Y-136335714D01*
X129658930Y-136335714D01*
X129754168Y-136383333D01*
X129801787Y-136478571D01*
X129801787Y-137002381D01*
X129801787Y-136478571D02*
X129849406Y-136383333D01*
X129944644Y-136335714D01*
X130087501Y-136335714D01*
X130182739Y-136383333D01*
X130230358Y-136478571D01*
X130230358Y-137002381D01*
X130706548Y-137002381D02*
X130706548Y-136335714D01*
X130706548Y-136430952D02*
X130754167Y-136383333D01*
X130849405Y-136335714D01*
X130992263Y-136335714D01*
X131087501Y-136383333D01*
X131135120Y-136478571D01*
X131135120Y-137002381D01*
X131135120Y-136478571D02*
X131182739Y-136383333D01*
X131277977Y-136335714D01*
X131420834Y-136335714D01*
X131516072Y-136383333D01*
X131563691Y-136478571D01*
X131563691Y-137002381D01*
X131801786Y-137097619D02*
X132563691Y-137097619D01*
X132801786Y-137002381D02*
X132801786Y-136002381D01*
X133135120Y-136716667D01*
X133468453Y-136002381D01*
X133468453Y-137002381D01*
X133897024Y-136097619D02*
X133944643Y-136050000D01*
X134039881Y-136002381D01*
X134277977Y-136002381D01*
X134373215Y-136050000D01*
X134420834Y-136097619D01*
X134468453Y-136192857D01*
X134468453Y-136288095D01*
X134420834Y-136430952D01*
X133849405Y-137002381D01*
X134468453Y-137002381D01*
X134658929Y-137097619D02*
X135420834Y-137097619D01*
X135658929Y-137002381D02*
X135658929Y-136002381D01*
X136039882Y-136002381D01*
X136135120Y-136050000D01*
X136182739Y-136097619D01*
X136230358Y-136192857D01*
X136230358Y-136335714D01*
X136182739Y-136430952D01*
X136135120Y-136478571D01*
X136039882Y-136526190D01*
X135658929Y-136526190D01*
X137087501Y-137002381D02*
X137087501Y-136478571D01*
X137039882Y-136383333D01*
X136944644Y-136335714D01*
X136754167Y-136335714D01*
X136658929Y-136383333D01*
X137087501Y-136954762D02*
X136992263Y-137002381D01*
X136754167Y-137002381D01*
X136658929Y-136954762D01*
X136611310Y-136859524D01*
X136611310Y-136764286D01*
X136658929Y-136669048D01*
X136754167Y-136621429D01*
X136992263Y-136621429D01*
X137087501Y-136573810D01*
X137992263Y-137002381D02*
X137992263Y-136002381D01*
X137992263Y-136954762D02*
X137897025Y-137002381D01*
X137706548Y-137002381D01*
X137611310Y-136954762D01*
X137563691Y-136907143D01*
X137516072Y-136811905D01*
X137516072Y-136526190D01*
X137563691Y-136430952D01*
X137611310Y-136383333D01*
X137706548Y-136335714D01*
X137897025Y-136335714D01*
X137992263Y-136383333D01*
X138230358Y-137097619D02*
X138992263Y-137097619D01*
X139087501Y-136002381D02*
X139420834Y-137002381D01*
X139754168Y-136002381D01*
X140087501Y-137002381D02*
X140087501Y-136335714D01*
X140087501Y-136002381D02*
X140039882Y-136050000D01*
X140087501Y-136097619D01*
X140135120Y-136050000D01*
X140087501Y-136002381D01*
X140087501Y-136097619D01*
X140992263Y-137002381D02*
X140992263Y-136478571D01*
X140944644Y-136383333D01*
X140849406Y-136335714D01*
X140658929Y-136335714D01*
X140563691Y-136383333D01*
X140992263Y-136954762D02*
X140897025Y-137002381D01*
X140658929Y-137002381D01*
X140563691Y-136954762D01*
X140516072Y-136859524D01*
X140516072Y-136764286D01*
X140563691Y-136669048D01*
X140658929Y-136621429D01*
X140897025Y-136621429D01*
X140992263Y-136573810D01*
X127554167Y-133802381D02*
X127220833Y-133326190D01*
X126982738Y-133802381D02*
X126982738Y-132802381D01*
X127363691Y-132802381D01*
X127458929Y-132850000D01*
X127506548Y-132897619D01*
X127554167Y-132992857D01*
X127554167Y-133135714D01*
X127506548Y-133230952D01*
X127458929Y-133278571D01*
X127363691Y-133326190D01*
X126982738Y-133326190D01*
X127982738Y-133278571D02*
X128316072Y-133278571D01*
X128458929Y-133802381D02*
X127982738Y-133802381D01*
X127982738Y-132802381D01*
X128458929Y-132802381D01*
X129220834Y-133278571D02*
X128887500Y-133278571D01*
X128887500Y-133802381D02*
X128887500Y-132802381D01*
X129363691Y-132802381D01*
X129887500Y-132802381D02*
X129887500Y-133040476D01*
X129649405Y-132945238D02*
X129887500Y-133040476D01*
X130125596Y-132945238D01*
X129744643Y-133230952D02*
X129887500Y-133040476D01*
X130030358Y-133230952D01*
X130649405Y-132802381D02*
X130649405Y-133040476D01*
X130411310Y-132945238D02*
X130649405Y-133040476D01*
X130887501Y-132945238D01*
X130506548Y-133230952D02*
X130649405Y-133040476D01*
X130792263Y-133230952D01*
X244770238Y-127477381D02*
X244770238Y-126477381D01*
X245103572Y-127191667D01*
X245436905Y-126477381D01*
X245436905Y-127477381D01*
X246055952Y-127477381D02*
X245960714Y-127429762D01*
X245913095Y-127382143D01*
X245865476Y-127286905D01*
X245865476Y-127001190D01*
X245913095Y-126905952D01*
X245960714Y-126858333D01*
X246055952Y-126810714D01*
X246198810Y-126810714D01*
X246294048Y-126858333D01*
X246341667Y-126905952D01*
X246389286Y-127001190D01*
X246389286Y-127286905D01*
X246341667Y-127382143D01*
X246294048Y-127429762D01*
X246198810Y-127477381D01*
X246055952Y-127477381D01*
X247246429Y-126810714D02*
X247246429Y-127477381D01*
X246817857Y-126810714D02*
X246817857Y-127334524D01*
X246865476Y-127429762D01*
X246960714Y-127477381D01*
X247103572Y-127477381D01*
X247198810Y-127429762D01*
X247246429Y-127382143D01*
X247722619Y-126810714D02*
X247722619Y-127477381D01*
X247722619Y-126905952D02*
X247770238Y-126858333D01*
X247865476Y-126810714D01*
X248008334Y-126810714D01*
X248103572Y-126858333D01*
X248151191Y-126953571D01*
X248151191Y-127477381D01*
X248484524Y-126810714D02*
X248865476Y-126810714D01*
X248627381Y-126477381D02*
X248627381Y-127334524D01*
X248675000Y-127429762D01*
X248770238Y-127477381D01*
X248865476Y-127477381D01*
X249198810Y-127477381D02*
X249198810Y-126810714D01*
X249198810Y-126477381D02*
X249151191Y-126525000D01*
X249198810Y-126572619D01*
X249246429Y-126525000D01*
X249198810Y-126477381D01*
X249198810Y-126572619D01*
X249675000Y-126810714D02*
X249675000Y-127477381D01*
X249675000Y-126905952D02*
X249722619Y-126858333D01*
X249817857Y-126810714D01*
X249960715Y-126810714D01*
X250055953Y-126858333D01*
X250103572Y-126953571D01*
X250103572Y-127477381D01*
X251008334Y-126810714D02*
X251008334Y-127620238D01*
X250960715Y-127715476D01*
X250913096Y-127763095D01*
X250817857Y-127810714D01*
X250675000Y-127810714D01*
X250579762Y-127763095D01*
X251008334Y-127429762D02*
X250913096Y-127477381D01*
X250722619Y-127477381D01*
X250627381Y-127429762D01*
X250579762Y-127382143D01*
X250532143Y-127286905D01*
X250532143Y-127001190D01*
X250579762Y-126905952D01*
X250627381Y-126858333D01*
X250722619Y-126810714D01*
X250913096Y-126810714D01*
X251008334Y-126858333D01*
X251484524Y-127477381D02*
X251484524Y-126477381D01*
X251484524Y-126953571D02*
X252055953Y-126953571D01*
X252055953Y-127477381D02*
X252055953Y-126477381D01*
X252675000Y-127477381D02*
X252579762Y-127429762D01*
X252532143Y-127382143D01*
X252484524Y-127286905D01*
X252484524Y-127001190D01*
X252532143Y-126905952D01*
X252579762Y-126858333D01*
X252675000Y-126810714D01*
X252817858Y-126810714D01*
X252913096Y-126858333D01*
X252960715Y-126905952D01*
X253008334Y-127001190D01*
X253008334Y-127286905D01*
X252960715Y-127382143D01*
X252913096Y-127429762D01*
X252817858Y-127477381D01*
X252675000Y-127477381D01*
X253579762Y-127477381D02*
X253484524Y-127429762D01*
X253436905Y-127334524D01*
X253436905Y-126477381D01*
X254341668Y-127429762D02*
X254246430Y-127477381D01*
X254055953Y-127477381D01*
X253960715Y-127429762D01*
X253913096Y-127334524D01*
X253913096Y-126953571D01*
X253960715Y-126858333D01*
X254055953Y-126810714D01*
X254246430Y-126810714D01*
X254341668Y-126858333D01*
X254389287Y-126953571D01*
X254389287Y-127048810D01*
X253913096Y-127144048D01*
X254579763Y-127572619D02*
X255341668Y-127572619D01*
X255532144Y-126572619D02*
X255579763Y-126525000D01*
X255675001Y-126477381D01*
X255913097Y-126477381D01*
X256008335Y-126525000D01*
X256055954Y-126572619D01*
X256103573Y-126667857D01*
X256103573Y-126763095D01*
X256055954Y-126905952D01*
X255484525Y-127477381D01*
X256103573Y-127477381D01*
X256532144Y-127382143D02*
X256579763Y-127429762D01*
X256532144Y-127477381D01*
X256484525Y-127429762D01*
X256532144Y-127382143D01*
X256532144Y-127477381D01*
X256960715Y-126572619D02*
X257008334Y-126525000D01*
X257103572Y-126477381D01*
X257341668Y-126477381D01*
X257436906Y-126525000D01*
X257484525Y-126572619D01*
X257532144Y-126667857D01*
X257532144Y-126763095D01*
X257484525Y-126905952D01*
X256913096Y-127477381D01*
X257532144Y-127477381D01*
X257960715Y-127477381D02*
X257960715Y-126810714D01*
X257960715Y-126905952D02*
X258008334Y-126858333D01*
X258103572Y-126810714D01*
X258246430Y-126810714D01*
X258341668Y-126858333D01*
X258389287Y-126953571D01*
X258389287Y-127477381D01*
X258389287Y-126953571D02*
X258436906Y-126858333D01*
X258532144Y-126810714D01*
X258675001Y-126810714D01*
X258770239Y-126858333D01*
X258817858Y-126953571D01*
X258817858Y-127477381D01*
X259294048Y-127477381D02*
X259294048Y-126810714D01*
X259294048Y-126905952D02*
X259341667Y-126858333D01*
X259436905Y-126810714D01*
X259579763Y-126810714D01*
X259675001Y-126858333D01*
X259722620Y-126953571D01*
X259722620Y-127477381D01*
X259722620Y-126953571D02*
X259770239Y-126858333D01*
X259865477Y-126810714D01*
X260008334Y-126810714D01*
X260103572Y-126858333D01*
X260151191Y-126953571D01*
X260151191Y-127477381D01*
X260389286Y-127572619D02*
X261151191Y-127572619D01*
X261389286Y-127477381D02*
X261389286Y-126477381D01*
X261722620Y-127191667D01*
X262055953Y-126477381D01*
X262055953Y-127477381D01*
X262484524Y-126572619D02*
X262532143Y-126525000D01*
X262627381Y-126477381D01*
X262865477Y-126477381D01*
X262960715Y-126525000D01*
X263008334Y-126572619D01*
X263055953Y-126667857D01*
X263055953Y-126763095D01*
X263008334Y-126905952D01*
X262436905Y-127477381D01*
X263055953Y-127477381D01*
X263246429Y-127572619D02*
X264008334Y-127572619D01*
X264246429Y-127477381D02*
X264246429Y-126477381D01*
X264627382Y-126477381D01*
X264722620Y-126525000D01*
X264770239Y-126572619D01*
X264817858Y-126667857D01*
X264817858Y-126810714D01*
X264770239Y-126905952D01*
X264722620Y-126953571D01*
X264627382Y-127001190D01*
X264246429Y-127001190D01*
X265675001Y-127477381D02*
X265675001Y-126953571D01*
X265627382Y-126858333D01*
X265532144Y-126810714D01*
X265341667Y-126810714D01*
X265246429Y-126858333D01*
X265675001Y-127429762D02*
X265579763Y-127477381D01*
X265341667Y-127477381D01*
X265246429Y-127429762D01*
X265198810Y-127334524D01*
X265198810Y-127239286D01*
X265246429Y-127144048D01*
X265341667Y-127096429D01*
X265579763Y-127096429D01*
X265675001Y-127048810D01*
X266579763Y-127477381D02*
X266579763Y-126477381D01*
X266579763Y-127429762D02*
X266484525Y-127477381D01*
X266294048Y-127477381D01*
X266198810Y-127429762D01*
X266151191Y-127382143D01*
X266103572Y-127286905D01*
X266103572Y-127001190D01*
X266151191Y-126905952D01*
X266198810Y-126858333D01*
X266294048Y-126810714D01*
X266484525Y-126810714D01*
X266579763Y-126858333D01*
X266817858Y-127572619D02*
X267579763Y-127572619D01*
X267675001Y-126477381D02*
X268008334Y-127477381D01*
X268341668Y-126477381D01*
X268675001Y-127477381D02*
X268675001Y-126810714D01*
X268675001Y-126477381D02*
X268627382Y-126525000D01*
X268675001Y-126572619D01*
X268722620Y-126525000D01*
X268675001Y-126477381D01*
X268675001Y-126572619D01*
X269579763Y-127477381D02*
X269579763Y-126953571D01*
X269532144Y-126858333D01*
X269436906Y-126810714D01*
X269246429Y-126810714D01*
X269151191Y-126858333D01*
X269579763Y-127429762D02*
X269484525Y-127477381D01*
X269246429Y-127477381D01*
X269151191Y-127429762D01*
X269103572Y-127334524D01*
X269103572Y-127239286D01*
X269151191Y-127144048D01*
X269246429Y-127096429D01*
X269484525Y-127096429D01*
X269579763Y-127048810D01*
X256141667Y-124277381D02*
X255808333Y-123801190D01*
X255570238Y-124277381D02*
X255570238Y-123277381D01*
X255951191Y-123277381D01*
X256046429Y-123325000D01*
X256094048Y-123372619D01*
X256141667Y-123467857D01*
X256141667Y-123610714D01*
X256094048Y-123705952D01*
X256046429Y-123753571D01*
X255951191Y-123801190D01*
X255570238Y-123801190D01*
X256570238Y-123753571D02*
X256903572Y-123753571D01*
X257046429Y-124277381D02*
X256570238Y-124277381D01*
X256570238Y-123277381D01*
X257046429Y-123277381D01*
X257808334Y-123753571D02*
X257475000Y-123753571D01*
X257475000Y-124277381D02*
X257475000Y-123277381D01*
X257951191Y-123277381D01*
X258475000Y-123277381D02*
X258475000Y-123515476D01*
X258236905Y-123420238D02*
X258475000Y-123515476D01*
X258713096Y-123420238D01*
X258332143Y-123705952D02*
X258475000Y-123515476D01*
X258617858Y-123705952D01*
X259236905Y-123277381D02*
X259236905Y-123515476D01*
X258998810Y-123420238D02*
X259236905Y-123515476D01*
X259475001Y-123420238D01*
X259094048Y-123705952D02*
X259236905Y-123515476D01*
X259379763Y-123705952D01*
M02*
