%TF.GenerationSoftware,KiCad,Pcbnew,4.0.7*%
%TF.CreationDate,2018-01-29T21:38:14-08:00*%
%TF.ProjectId,VoyagerII,566F796167657249492E6B696361645F,rev?*%
%TF.FileFunction,Legend,Bot*%
%FSLAX46Y46*%
G04 Gerber Fmt 4.6, Leading zero omitted, Abs format (unit mm)*
G04 Created by KiCad (PCBNEW 4.0.7) date 01/29/18 21:38:14*
%MOMM*%
%LPD*%
G01*
G04 APERTURE LIST*
%ADD10C,0.100000*%
%ADD11C,0.150000*%
%ADD12C,0.300000*%
%ADD13C,0.500000*%
%ADD14C,0.700000*%
%ADD15C,0.120000*%
%ADD16C,0.127000*%
%ADD17C,0.200000*%
%ADD18C,0.010000*%
G04 APERTURE END LIST*
D10*
D11*
X147978523Y-140787381D02*
X148311857Y-140311190D01*
X148549952Y-140787381D02*
X148549952Y-139787381D01*
X148168999Y-139787381D01*
X148073761Y-139835000D01*
X148026142Y-139882619D01*
X147978523Y-139977857D01*
X147978523Y-140120714D01*
X148026142Y-140215952D01*
X148073761Y-140263571D01*
X148168999Y-140311190D01*
X148549952Y-140311190D01*
X147168999Y-140739762D02*
X147264237Y-140787381D01*
X147454714Y-140787381D01*
X147549952Y-140739762D01*
X147597571Y-140644524D01*
X147597571Y-140263571D01*
X147549952Y-140168333D01*
X147454714Y-140120714D01*
X147264237Y-140120714D01*
X147168999Y-140168333D01*
X147121380Y-140263571D01*
X147121380Y-140358810D01*
X147597571Y-140454048D01*
X146788047Y-140120714D02*
X146549952Y-140787381D01*
X146311856Y-140120714D01*
X145930904Y-140692143D02*
X145883285Y-140739762D01*
X145930904Y-140787381D01*
X145978523Y-140739762D01*
X145930904Y-140692143D01*
X145930904Y-140787381D01*
X144168999Y-140787381D02*
X144740428Y-140787381D01*
X144454714Y-140787381D02*
X144454714Y-139787381D01*
X144549952Y-139930238D01*
X144645190Y-140025476D01*
X144740428Y-140073095D01*
X143740428Y-140692143D02*
X143692809Y-140739762D01*
X143740428Y-140787381D01*
X143788047Y-140739762D01*
X143740428Y-140692143D01*
X143740428Y-140787381D01*
X143073762Y-139787381D02*
X142978523Y-139787381D01*
X142883285Y-139835000D01*
X142835666Y-139882619D01*
X142788047Y-139977857D01*
X142740428Y-140168333D01*
X142740428Y-140406429D01*
X142788047Y-140596905D01*
X142835666Y-140692143D01*
X142883285Y-140739762D01*
X142978523Y-140787381D01*
X143073762Y-140787381D01*
X143169000Y-140739762D01*
X143216619Y-140692143D01*
X143264238Y-140596905D01*
X143311857Y-140406429D01*
X143311857Y-140168333D01*
X143264238Y-139977857D01*
X143216619Y-139882619D01*
X143169000Y-139835000D01*
X143073762Y-139787381D01*
X210058000Y-130937000D02*
X210058000Y-136017000D01*
X207526381Y-131596048D02*
X207526381Y-131119857D01*
X206526381Y-131119857D01*
X207526381Y-132072238D02*
X207478762Y-131977000D01*
X207431143Y-131929381D01*
X207335905Y-131881762D01*
X207050190Y-131881762D01*
X206954952Y-131929381D01*
X206907333Y-131977000D01*
X206859714Y-132072238D01*
X206859714Y-132215096D01*
X206907333Y-132310334D01*
X206954952Y-132357953D01*
X207050190Y-132405572D01*
X207335905Y-132405572D01*
X207431143Y-132357953D01*
X207478762Y-132310334D01*
X207526381Y-132215096D01*
X207526381Y-132072238D01*
X207526381Y-134024620D02*
X207002571Y-134024620D01*
X206907333Y-133977001D01*
X206859714Y-133881763D01*
X206859714Y-133691286D01*
X206907333Y-133596048D01*
X207478762Y-134024620D02*
X207526381Y-133929382D01*
X207526381Y-133691286D01*
X207478762Y-133596048D01*
X207383524Y-133548429D01*
X207288286Y-133548429D01*
X207193048Y-133596048D01*
X207145429Y-133691286D01*
X207145429Y-133929382D01*
X207097810Y-134024620D01*
X206859714Y-134500810D02*
X207526381Y-134500810D01*
X206954952Y-134500810D02*
X206907333Y-134548429D01*
X206859714Y-134643667D01*
X206859714Y-134786525D01*
X206907333Y-134881763D01*
X207002571Y-134929382D01*
X207526381Y-134929382D01*
X207526381Y-135834144D02*
X206526381Y-135834144D01*
X207478762Y-135834144D02*
X207526381Y-135738906D01*
X207526381Y-135548429D01*
X207478762Y-135453191D01*
X207431143Y-135405572D01*
X207335905Y-135357953D01*
X207050190Y-135357953D01*
X206954952Y-135405572D01*
X206907333Y-135453191D01*
X206859714Y-135548429D01*
X206859714Y-135738906D01*
X206907333Y-135834144D01*
X208652571Y-131262715D02*
X208700190Y-131405572D01*
X208747810Y-131453191D01*
X208843048Y-131500810D01*
X208985905Y-131500810D01*
X209081143Y-131453191D01*
X209128762Y-131405572D01*
X209176381Y-131310334D01*
X209176381Y-130929381D01*
X208176381Y-130929381D01*
X208176381Y-131262715D01*
X208224000Y-131357953D01*
X208271619Y-131405572D01*
X208366857Y-131453191D01*
X208462095Y-131453191D01*
X208557333Y-131405572D01*
X208604952Y-131357953D01*
X208652571Y-131262715D01*
X208652571Y-130929381D01*
X209128762Y-132310334D02*
X209176381Y-132215096D01*
X209176381Y-132024619D01*
X209128762Y-131929381D01*
X209033524Y-131881762D01*
X208652571Y-131881762D01*
X208557333Y-131929381D01*
X208509714Y-132024619D01*
X208509714Y-132215096D01*
X208557333Y-132310334D01*
X208652571Y-132357953D01*
X208747810Y-132357953D01*
X208843048Y-131881762D01*
X209176381Y-132786524D02*
X208176381Y-132786524D01*
X209176381Y-133215096D02*
X208652571Y-133215096D01*
X208557333Y-133167477D01*
X208509714Y-133072239D01*
X208509714Y-132929381D01*
X208557333Y-132834143D01*
X208604952Y-132786524D01*
X209176381Y-133834143D02*
X209128762Y-133738905D01*
X209081143Y-133691286D01*
X208985905Y-133643667D01*
X208700190Y-133643667D01*
X208604952Y-133691286D01*
X208557333Y-133738905D01*
X208509714Y-133834143D01*
X208509714Y-133977001D01*
X208557333Y-134072239D01*
X208604952Y-134119858D01*
X208700190Y-134167477D01*
X208985905Y-134167477D01*
X209081143Y-134119858D01*
X209128762Y-134072239D01*
X209176381Y-133977001D01*
X209176381Y-133834143D01*
X209176381Y-134738905D02*
X209128762Y-134643667D01*
X209033524Y-134596048D01*
X208176381Y-134596048D01*
X209176381Y-135548430D02*
X208176381Y-135548430D01*
X209128762Y-135548430D02*
X209176381Y-135453192D01*
X209176381Y-135262715D01*
X209128762Y-135167477D01*
X209081143Y-135119858D01*
X208985905Y-135072239D01*
X208700190Y-135072239D01*
X208604952Y-135119858D01*
X208557333Y-135167477D01*
X208509714Y-135262715D01*
X208509714Y-135453192D01*
X208557333Y-135548430D01*
X209081143Y-136024620D02*
X209128762Y-136072239D01*
X209176381Y-136024620D01*
X209128762Y-135977001D01*
X209081143Y-136024620D01*
X209176381Y-136024620D01*
X208795429Y-136024620D02*
X208224000Y-135977001D01*
X208176381Y-136024620D01*
X208224000Y-136072239D01*
X208795429Y-136024620D01*
X208176381Y-136024620D01*
D12*
X79544786Y-137981571D02*
X79259072Y-138981571D01*
X78973358Y-138267286D01*
X78687643Y-138981571D01*
X78401929Y-137981571D01*
X77973357Y-137981571D02*
X77687643Y-138981571D01*
X77401929Y-138267286D01*
X77116214Y-138981571D01*
X76830500Y-137981571D01*
X76401928Y-137981571D02*
X76116214Y-138981571D01*
X75830500Y-138267286D01*
X75544785Y-138981571D01*
X75259071Y-137981571D01*
X74687642Y-138838714D02*
X74616214Y-138910143D01*
X74687642Y-138981571D01*
X74759071Y-138910143D01*
X74687642Y-138838714D01*
X74687642Y-138981571D01*
X73330499Y-138981571D02*
X73330499Y-138195857D01*
X73401928Y-138053000D01*
X73544785Y-137981571D01*
X73830499Y-137981571D01*
X73973356Y-138053000D01*
X73330499Y-138910143D02*
X73473356Y-138981571D01*
X73830499Y-138981571D01*
X73973356Y-138910143D01*
X74044785Y-138767286D01*
X74044785Y-138624429D01*
X73973356Y-138481571D01*
X73830499Y-138410143D01*
X73473356Y-138410143D01*
X73330499Y-138338714D01*
X72616213Y-138981571D02*
X72616213Y-137981571D01*
X72616213Y-137481571D02*
X72687642Y-137553000D01*
X72616213Y-137624429D01*
X72544785Y-137553000D01*
X72616213Y-137481571D01*
X72616213Y-137624429D01*
X71616213Y-137481571D02*
X71473356Y-137481571D01*
X71330499Y-137553000D01*
X71259070Y-137624429D01*
X71187641Y-137767286D01*
X71116213Y-138053000D01*
X71116213Y-138410143D01*
X71187641Y-138695857D01*
X71259070Y-138838714D01*
X71330499Y-138910143D01*
X71473356Y-138981571D01*
X71616213Y-138981571D01*
X71759070Y-138910143D01*
X71830499Y-138838714D01*
X71901927Y-138695857D01*
X71973356Y-138410143D01*
X71973356Y-138053000D01*
X71901927Y-137767286D01*
X71830499Y-137624429D01*
X71759070Y-137553000D01*
X71616213Y-137481571D01*
X70616213Y-137481571D02*
X69687642Y-137481571D01*
X70187642Y-138053000D01*
X69973356Y-138053000D01*
X69830499Y-138124429D01*
X69759070Y-138195857D01*
X69687642Y-138338714D01*
X69687642Y-138695857D01*
X69759070Y-138838714D01*
X69830499Y-138910143D01*
X69973356Y-138981571D01*
X70401928Y-138981571D01*
X70544785Y-138910143D01*
X70616213Y-138838714D01*
X69044785Y-138838714D02*
X68973357Y-138910143D01*
X69044785Y-138981571D01*
X69116214Y-138910143D01*
X69044785Y-138838714D01*
X69044785Y-138981571D01*
X68330499Y-138981571D02*
X68330499Y-137981571D01*
X68330499Y-138124429D02*
X68259071Y-138053000D01*
X68116213Y-137981571D01*
X67901928Y-137981571D01*
X67759071Y-138053000D01*
X67687642Y-138195857D01*
X67687642Y-138981571D01*
X67687642Y-138195857D02*
X67616213Y-138053000D01*
X67473356Y-137981571D01*
X67259071Y-137981571D01*
X67116213Y-138053000D01*
X67044785Y-138195857D01*
X67044785Y-138981571D01*
X65759071Y-138910143D02*
X65901928Y-138981571D01*
X66187642Y-138981571D01*
X66330499Y-138910143D01*
X66401928Y-138767286D01*
X66401928Y-138195857D01*
X66330499Y-138053000D01*
X66187642Y-137981571D01*
X65901928Y-137981571D01*
X65759071Y-138053000D01*
X65687642Y-138195857D01*
X65687642Y-138338714D01*
X66401928Y-138481571D01*
D13*
X73152000Y-75946000D02*
X48006000Y-65278000D01*
X72898000Y-75946000D02*
X48006000Y-81534000D01*
D14*
X262862665Y-102290905D02*
X260529332Y-107290905D01*
X258195999Y-102290905D01*
X254529332Y-102290905D02*
X253195999Y-102290905D01*
X252529332Y-102529000D01*
X251862665Y-103005190D01*
X251529332Y-103957571D01*
X251529332Y-105624238D01*
X251862665Y-106576619D01*
X252529332Y-107052810D01*
X253195999Y-107290905D01*
X254529332Y-107290905D01*
X255195999Y-107052810D01*
X255862665Y-106576619D01*
X256195999Y-105624238D01*
X256195999Y-103957571D01*
X255862665Y-103005190D01*
X255195999Y-102529000D01*
X254529332Y-102290905D01*
X247195999Y-104909952D02*
X247195999Y-107290905D01*
X249529332Y-102290905D02*
X247195999Y-104909952D01*
X244862666Y-102290905D01*
X242862666Y-105862333D02*
X239529332Y-105862333D01*
X243529332Y-107290905D02*
X241195999Y-102290905D01*
X238862666Y-107290905D01*
X232862666Y-102529000D02*
X233529332Y-102290905D01*
X234529332Y-102290905D01*
X235529332Y-102529000D01*
X236195999Y-103005190D01*
X236529332Y-103481381D01*
X236862666Y-104433762D01*
X236862666Y-105148048D01*
X236529332Y-106100429D01*
X236195999Y-106576619D01*
X235529332Y-107052810D01*
X234529332Y-107290905D01*
X233862666Y-107290905D01*
X232862666Y-107052810D01*
X232529332Y-106814714D01*
X232529332Y-105148048D01*
X233862666Y-105148048D01*
X229529332Y-104671857D02*
X227195999Y-104671857D01*
X226195999Y-107290905D02*
X229529332Y-107290905D01*
X229529332Y-102290905D01*
X226195999Y-102290905D01*
X219195999Y-107290905D02*
X221529333Y-104909952D01*
X223195999Y-107290905D02*
X223195999Y-102290905D01*
X220529333Y-102290905D01*
X219862666Y-102529000D01*
X219529333Y-102767095D01*
X219195999Y-103243286D01*
X219195999Y-103957571D01*
X219529333Y-104433762D01*
X219862666Y-104671857D01*
X220529333Y-104909952D01*
X223195999Y-104909952D01*
X210862666Y-107290905D02*
X210862666Y-102290905D01*
X207529333Y-107290905D02*
X207529333Y-102290905D01*
D13*
X308102000Y-75819000D02*
X332994000Y-82423000D01*
X238506000Y-133223000D02*
X186563000Y-142494000D01*
X238506000Y-133223000D02*
X269875000Y-142621000D01*
X51816000Y-104521000D02*
X96774000Y-142494000D01*
X176276000Y-94869000D02*
X51816000Y-104521000D01*
X51816000Y-104521000D02*
X238506000Y-133223000D01*
X73152000Y-75819000D02*
X51816000Y-104521000D01*
X176276000Y-94869000D02*
X308102000Y-75819000D01*
X73152000Y-75819000D02*
X176276000Y-94869000D01*
X329311000Y-104394000D02*
X238506000Y-133223000D01*
X308102000Y-75819000D02*
X329311000Y-104394000D01*
X238506000Y-133223000D02*
X308102000Y-75819000D01*
X176276000Y-94869000D02*
X238506000Y-133223000D01*
D15*
X130056000Y-133643000D02*
X131056000Y-133643000D01*
X131056000Y-135343000D02*
X130056000Y-135343000D01*
X135294000Y-131056000D02*
X135294000Y-130056000D01*
X136994000Y-130056000D02*
X136994000Y-131056000D01*
X137676000Y-137326000D02*
X138676000Y-137326000D01*
X138676000Y-139026000D02*
X137676000Y-139026000D01*
X155663000Y-130818000D02*
X155663000Y-131818000D01*
X153963000Y-131818000D02*
X153963000Y-130818000D01*
X147836000Y-121260500D02*
X148836000Y-121260500D01*
X148836000Y-122960500D02*
X147836000Y-122960500D01*
X135755000Y-135343000D02*
X134755000Y-135343000D01*
X134755000Y-133643000D02*
X135755000Y-133643000D01*
X155693000Y-127346000D02*
X155693000Y-126146000D01*
X153933000Y-126146000D02*
X153933000Y-127346000D01*
D11*
X78946051Y-96520000D02*
G75*
G03X78946051Y-96520000I-1796051J0D01*
G01*
X80150000Y-99520000D02*
X80150000Y-93520000D01*
X74150000Y-99520000D02*
X80150000Y-99520000D01*
X74150000Y-93520000D02*
X74150000Y-99520000D01*
X80150000Y-93520000D02*
X74150000Y-93520000D01*
X150653500Y-136874000D02*
X150078500Y-136874000D01*
X150653500Y-126524000D02*
X149978500Y-126524000D01*
X140303500Y-126524000D02*
X140978500Y-126524000D01*
X140303500Y-136874000D02*
X140978500Y-136874000D01*
X150653500Y-136874000D02*
X150653500Y-136199000D01*
X140303500Y-136874000D02*
X140303500Y-136199000D01*
X140303500Y-126524000D02*
X140303500Y-127199000D01*
X150653500Y-126524000D02*
X150653500Y-127199000D01*
X150078500Y-136874000D02*
X150078500Y-138149000D01*
D15*
X129796000Y-132263000D02*
X129796000Y-131333000D01*
X129796000Y-129103000D02*
X129796000Y-130033000D01*
X129796000Y-129103000D02*
X131956000Y-129103000D01*
X129796000Y-132263000D02*
X131256000Y-132263000D01*
D11*
X62350000Y-55202250D02*
X70050000Y-55202250D01*
X70050000Y-49752250D02*
X70050000Y-55202250D01*
X62350000Y-49752250D02*
X62350000Y-55202250D01*
D15*
X216781000Y-129247000D02*
X215781000Y-129247000D01*
X215781000Y-127547000D02*
X216781000Y-127547000D01*
X216765000Y-132422000D02*
X215765000Y-132422000D01*
X215765000Y-130722000D02*
X216765000Y-130722000D01*
X53387500Y-62971875D02*
X51387500Y-62971875D01*
X51387500Y-62971875D02*
X51387500Y-59071875D01*
X53387500Y-62971875D02*
X53387500Y-59071875D01*
X84343750Y-59400000D02*
X82343750Y-59400000D01*
X82343750Y-59400000D02*
X82343750Y-55500000D01*
X84343750Y-59400000D02*
X84343750Y-55500000D01*
X103393750Y-59400000D02*
X101393750Y-59400000D01*
X101393750Y-59400000D02*
X101393750Y-55500000D01*
X103393750Y-59400000D02*
X103393750Y-55500000D01*
X122443750Y-59400000D02*
X120443750Y-59400000D01*
X120443750Y-59400000D02*
X120443750Y-55500000D01*
X122443750Y-59400000D02*
X122443750Y-55500000D01*
X141493750Y-59400000D02*
X139493750Y-59400000D01*
X139493750Y-59400000D02*
X139493750Y-55500000D01*
X141493750Y-59400000D02*
X141493750Y-55500000D01*
X160543750Y-59400000D02*
X158543750Y-59400000D01*
X158543750Y-59400000D02*
X158543750Y-55500000D01*
X160543750Y-59400000D02*
X160543750Y-55500000D01*
X179593750Y-59400000D02*
X177593750Y-59400000D01*
X177593750Y-59400000D02*
X177593750Y-55500000D01*
X179593750Y-59400000D02*
X179593750Y-55500000D01*
X198643750Y-59400000D02*
X196643750Y-59400000D01*
X196643750Y-59400000D02*
X196643750Y-55500000D01*
X198643750Y-59400000D02*
X198643750Y-55500000D01*
X217693750Y-59400000D02*
X215693750Y-59400000D01*
X215693750Y-59400000D02*
X215693750Y-55500000D01*
X217693750Y-59400000D02*
X217693750Y-55500000D01*
X236743750Y-59400000D02*
X234743750Y-59400000D01*
X234743750Y-59400000D02*
X234743750Y-55500000D01*
X236743750Y-59400000D02*
X236743750Y-55500000D01*
X255793750Y-59400000D02*
X253793750Y-59400000D01*
X253793750Y-59400000D02*
X253793750Y-55500000D01*
X255793750Y-59400000D02*
X255793750Y-55500000D01*
X274843750Y-59400000D02*
X272843750Y-59400000D01*
X272843750Y-59400000D02*
X272843750Y-55500000D01*
X274843750Y-59400000D02*
X274843750Y-55500000D01*
X293893750Y-57018750D02*
X291893750Y-57018750D01*
X291893750Y-57018750D02*
X291893750Y-53118750D01*
X293893750Y-57018750D02*
X293893750Y-53118750D01*
X297465625Y-57018750D02*
X295465625Y-57018750D01*
X295465625Y-57018750D02*
X295465625Y-53118750D01*
X297465625Y-57018750D02*
X297465625Y-53118750D01*
X293025000Y-61721875D02*
X293025000Y-59721875D01*
X293025000Y-59721875D02*
X296925000Y-59721875D01*
X293025000Y-61721875D02*
X296925000Y-61721875D01*
X54578125Y-78450000D02*
X52578125Y-78450000D01*
X52578125Y-78450000D02*
X52578125Y-74550000D01*
X54578125Y-78450000D02*
X54578125Y-74550000D01*
X93868750Y-78450000D02*
X91868750Y-78450000D01*
X91868750Y-78450000D02*
X91868750Y-74550000D01*
X93868750Y-78450000D02*
X93868750Y-74550000D01*
X112918750Y-78450000D02*
X110918750Y-78450000D01*
X110918750Y-78450000D02*
X110918750Y-74550000D01*
X112918750Y-78450000D02*
X112918750Y-74550000D01*
X131968750Y-78450000D02*
X129968750Y-78450000D01*
X129968750Y-78450000D02*
X129968750Y-74550000D01*
X131968750Y-78450000D02*
X131968750Y-74550000D01*
X151018750Y-78450000D02*
X149018750Y-78450000D01*
X149018750Y-78450000D02*
X149018750Y-74550000D01*
X151018750Y-78450000D02*
X151018750Y-74550000D01*
X170068750Y-78450000D02*
X168068750Y-78450000D01*
X168068750Y-78450000D02*
X168068750Y-74550000D01*
X170068750Y-78450000D02*
X170068750Y-74550000D01*
X189118750Y-78450000D02*
X187118750Y-78450000D01*
X187118750Y-78450000D02*
X187118750Y-74550000D01*
X189118750Y-78450000D02*
X189118750Y-74550000D01*
X208168750Y-78450000D02*
X206168750Y-78450000D01*
X206168750Y-78450000D02*
X206168750Y-74550000D01*
X208168750Y-78450000D02*
X208168750Y-74550000D01*
X227218750Y-78450000D02*
X225218750Y-78450000D01*
X225218750Y-78450000D02*
X225218750Y-74550000D01*
X227218750Y-78450000D02*
X227218750Y-74550000D01*
X246268750Y-78450000D02*
X244268750Y-78450000D01*
X244268750Y-78450000D02*
X244268750Y-74550000D01*
X246268750Y-78450000D02*
X246268750Y-74550000D01*
X265318750Y-78450000D02*
X263318750Y-78450000D01*
X263318750Y-78450000D02*
X263318750Y-74550000D01*
X265318750Y-78450000D02*
X265318750Y-74550000D01*
X284368750Y-78450000D02*
X282368750Y-78450000D01*
X282368750Y-78450000D02*
X282368750Y-74550000D01*
X284368750Y-78450000D02*
X284368750Y-74550000D01*
X303418750Y-78450000D02*
X301418750Y-78450000D01*
X301418750Y-78450000D02*
X301418750Y-74550000D01*
X303418750Y-78450000D02*
X303418750Y-74550000D01*
X306121875Y-83153125D02*
X306121875Y-81153125D01*
X306121875Y-81153125D02*
X310021875Y-81153125D01*
X306121875Y-83153125D02*
X310021875Y-83153125D01*
X53387500Y-97500000D02*
X51387500Y-97500000D01*
X51387500Y-97500000D02*
X51387500Y-93600000D01*
X53387500Y-97500000D02*
X53387500Y-93600000D01*
X98631250Y-97500000D02*
X96631250Y-97500000D01*
X96631250Y-97500000D02*
X96631250Y-93600000D01*
X98631250Y-97500000D02*
X98631250Y-93600000D01*
X117681250Y-97500000D02*
X115681250Y-97500000D01*
X115681250Y-97500000D02*
X115681250Y-93600000D01*
X117681250Y-97500000D02*
X117681250Y-93600000D01*
X121253125Y-97500000D02*
X119253125Y-97500000D01*
X119253125Y-97500000D02*
X119253125Y-93600000D01*
X121253125Y-97500000D02*
X121253125Y-93600000D01*
X155781250Y-97500000D02*
X153781250Y-97500000D01*
X153781250Y-97500000D02*
X153781250Y-93600000D01*
X155781250Y-97500000D02*
X155781250Y-93600000D01*
X159353125Y-97500000D02*
X157353125Y-97500000D01*
X157353125Y-97500000D02*
X157353125Y-93600000D01*
X159353125Y-97500000D02*
X159353125Y-93600000D01*
X193881250Y-97500000D02*
X191881250Y-97500000D01*
X191881250Y-97500000D02*
X191881250Y-93600000D01*
X193881250Y-97500000D02*
X193881250Y-93600000D01*
X212931250Y-97500000D02*
X210931250Y-97500000D01*
X210931250Y-97500000D02*
X210931250Y-93600000D01*
X212931250Y-97500000D02*
X212931250Y-93600000D01*
X231981250Y-97500000D02*
X229981250Y-97500000D01*
X229981250Y-97500000D02*
X229981250Y-93600000D01*
X231981250Y-97500000D02*
X231981250Y-93600000D01*
X251031250Y-97500000D02*
X249031250Y-97500000D01*
X249031250Y-97500000D02*
X249031250Y-93600000D01*
X251031250Y-97500000D02*
X251031250Y-93600000D01*
X270081250Y-97500000D02*
X268081250Y-97500000D01*
X268081250Y-97500000D02*
X268081250Y-93600000D01*
X270081250Y-97500000D02*
X270081250Y-93600000D01*
X289131250Y-97500000D02*
X287131250Y-97500000D01*
X287131250Y-97500000D02*
X287131250Y-93600000D01*
X289131250Y-97500000D02*
X289131250Y-93600000D01*
X320087500Y-97500000D02*
X318087500Y-97500000D01*
X318087500Y-97500000D02*
X318087500Y-93600000D01*
X320087500Y-97500000D02*
X320087500Y-93600000D01*
X89106250Y-116550000D02*
X87106250Y-116550000D01*
X87106250Y-116550000D02*
X87106250Y-112650000D01*
X89106250Y-116550000D02*
X89106250Y-112650000D01*
X92678125Y-116550000D02*
X90678125Y-116550000D01*
X90678125Y-116550000D02*
X90678125Y-112650000D01*
X92678125Y-116550000D02*
X92678125Y-112650000D01*
X108156250Y-116550000D02*
X106156250Y-116550000D01*
X106156250Y-116550000D02*
X106156250Y-112650000D01*
X108156250Y-116550000D02*
X108156250Y-112650000D01*
X127206250Y-116550000D02*
X125206250Y-116550000D01*
X125206250Y-116550000D02*
X125206250Y-112650000D01*
X127206250Y-116550000D02*
X127206250Y-112650000D01*
X130778125Y-116550000D02*
X128778125Y-116550000D01*
X128778125Y-116550000D02*
X128778125Y-112650000D01*
X130778125Y-116550000D02*
X130778125Y-112650000D01*
X165306250Y-116550000D02*
X163306250Y-116550000D01*
X163306250Y-116550000D02*
X163306250Y-112650000D01*
X165306250Y-116550000D02*
X165306250Y-112650000D01*
X184356250Y-116550000D02*
X182356250Y-116550000D01*
X182356250Y-116550000D02*
X182356250Y-112650000D01*
X184356250Y-116550000D02*
X184356250Y-112650000D01*
X203406250Y-116550000D02*
X201406250Y-116550000D01*
X201406250Y-116550000D02*
X201406250Y-112650000D01*
X203406250Y-116550000D02*
X203406250Y-112650000D01*
X222456250Y-116550000D02*
X220456250Y-116550000D01*
X220456250Y-116550000D02*
X220456250Y-112650000D01*
X222456250Y-116550000D02*
X222456250Y-112650000D01*
X241506250Y-116550000D02*
X239506250Y-116550000D01*
X239506250Y-116550000D02*
X239506250Y-112650000D01*
X241506250Y-116550000D02*
X241506250Y-112650000D01*
X260556250Y-116550000D02*
X258556250Y-116550000D01*
X258556250Y-116550000D02*
X258556250Y-112650000D01*
X260556250Y-116550000D02*
X260556250Y-112650000D01*
X198643750Y-135600000D02*
X196643750Y-135600000D01*
X196643750Y-135600000D02*
X196643750Y-131700000D01*
X198643750Y-135600000D02*
X198643750Y-131700000D01*
X264128125Y-116550000D02*
X262128125Y-116550000D01*
X262128125Y-116550000D02*
X262128125Y-112650000D01*
X264128125Y-116550000D02*
X264128125Y-112650000D01*
X290321875Y-116550000D02*
X288321875Y-116550000D01*
X288321875Y-116550000D02*
X288321875Y-112650000D01*
X290321875Y-116550000D02*
X290321875Y-112650000D01*
X315325000Y-116550000D02*
X313325000Y-116550000D01*
X313325000Y-116550000D02*
X313325000Y-112650000D01*
X315325000Y-116550000D02*
X315325000Y-112650000D01*
X70056250Y-135600000D02*
X68056250Y-135600000D01*
X68056250Y-135600000D02*
X68056250Y-131700000D01*
X70056250Y-135600000D02*
X70056250Y-131700000D01*
X93868750Y-135600000D02*
X91868750Y-135600000D01*
X91868750Y-135600000D02*
X91868750Y-131700000D01*
X93868750Y-135600000D02*
X93868750Y-131700000D01*
X117681250Y-135600000D02*
X115681250Y-135600000D01*
X115681250Y-135600000D02*
X115681250Y-131700000D01*
X117681250Y-135600000D02*
X117681250Y-131700000D01*
X255793750Y-135600000D02*
X253793750Y-135600000D01*
X253793750Y-135600000D02*
X253793750Y-131700000D01*
X255793750Y-135600000D02*
X255793750Y-131700000D01*
X259365625Y-135600000D02*
X257365625Y-135600000D01*
X257365625Y-135600000D02*
X257365625Y-131700000D01*
X259365625Y-135600000D02*
X259365625Y-131700000D01*
X279606250Y-129646875D02*
X277606250Y-129646875D01*
X277606250Y-129646875D02*
X277606250Y-125746875D01*
X279606250Y-129646875D02*
X279606250Y-125746875D01*
X279606250Y-135600000D02*
X277606250Y-135600000D01*
X277606250Y-135600000D02*
X277606250Y-131700000D01*
X279606250Y-135600000D02*
X279606250Y-131700000D01*
X312943750Y-135600000D02*
X310943750Y-135600000D01*
X310943750Y-135600000D02*
X310943750Y-131700000D01*
X312943750Y-135600000D02*
X312943750Y-131700000D01*
D16*
X169418000Y-139382500D02*
X169418000Y-139082500D01*
X165613000Y-137179000D02*
X165613000Y-136379000D01*
X169413000Y-137079000D02*
X169413000Y-136379000D01*
X168236900Y-133515100D02*
X169418000Y-134696200D01*
X166789100Y-133515100D02*
X165608000Y-134696200D01*
X166789100Y-133515100D02*
G75*
G02X168236900Y-133515100I723900J-723900D01*
G01*
X166560500Y-140335000D02*
X168465500Y-140335000D01*
X169418000Y-139382500D02*
G75*
G02X168465500Y-140335000I-952500J0D01*
G01*
X166560500Y-140335000D02*
G75*
G02X165608000Y-139382500I0J952500D01*
G01*
X165608000Y-139382500D02*
X165608000Y-139082500D01*
D15*
X202175000Y-137506000D02*
X202175000Y-136306000D01*
X200415000Y-136306000D02*
X200415000Y-137506000D01*
X166506000Y-129067000D02*
X166506000Y-130267000D01*
X168266000Y-130267000D02*
X168266000Y-129067000D01*
X169808000Y-129067000D02*
X169808000Y-130267000D01*
X171568000Y-130267000D02*
X171568000Y-129067000D01*
D11*
X211155000Y-128025000D02*
X211155000Y-128600000D01*
X205405000Y-128025000D02*
X205405000Y-128675000D01*
X205405000Y-138675000D02*
X205405000Y-138025000D01*
X211155000Y-138675000D02*
X211155000Y-138025000D01*
X211155000Y-128025000D02*
X205405000Y-128025000D01*
X211155000Y-138675000D02*
X205405000Y-138675000D01*
X211155000Y-128600000D02*
X212755000Y-128600000D01*
D15*
X175680000Y-124325000D02*
X175680000Y-123325000D01*
X177380000Y-123325000D02*
X177380000Y-124325000D01*
X219114000Y-67175000D02*
X219114000Y-66175000D01*
X220814000Y-66175000D02*
X220814000Y-67175000D01*
X207684000Y-124325000D02*
X207684000Y-123325000D01*
X209384000Y-123325000D02*
X209384000Y-124325000D01*
X171489000Y-67175000D02*
X171489000Y-66175000D01*
X173189000Y-66175000D02*
X173189000Y-67175000D01*
X255309000Y-124325000D02*
X255309000Y-123325000D01*
X257009000Y-123325000D02*
X257009000Y-124325000D01*
X123864000Y-67175000D02*
X123864000Y-66175000D01*
X125564000Y-66175000D02*
X125564000Y-67175000D01*
X302934000Y-124325000D02*
X302934000Y-123325000D01*
X304634000Y-123325000D02*
X304634000Y-124325000D01*
X78652000Y-67175000D02*
X78652000Y-66175000D01*
X80352000Y-66175000D02*
X80352000Y-67175000D01*
X314364000Y-67175000D02*
X314364000Y-66175000D01*
X316064000Y-66175000D02*
X316064000Y-67175000D01*
X64809000Y-124325000D02*
X64809000Y-123325000D01*
X66509000Y-123325000D02*
X66509000Y-124325000D01*
X266739000Y-67175000D02*
X266739000Y-66175000D01*
X268439000Y-66175000D02*
X268439000Y-67175000D01*
X112434000Y-124325000D02*
X112434000Y-123325000D01*
X114134000Y-123325000D02*
X114134000Y-124325000D01*
D17*
X171815000Y-124825000D02*
X171815000Y-122825000D01*
X171815000Y-122825000D02*
X169815000Y-122825000D01*
X169815000Y-122825000D02*
X169815000Y-124325000D01*
X169815000Y-124325000D02*
X170315000Y-124825000D01*
X170315000Y-124825000D02*
X171815000Y-124825000D01*
X171815000Y-126325000D02*
X169815000Y-126325000D01*
X168315000Y-124325000D02*
X168315000Y-123325000D01*
X171815000Y-121325000D02*
X169815000Y-121325000D01*
X173315000Y-124325000D02*
X173315000Y-123325000D01*
X215312500Y-67675000D02*
X215312500Y-65675000D01*
X215312500Y-65675000D02*
X213312500Y-65675000D01*
X213312500Y-65675000D02*
X213312500Y-67175000D01*
X213312500Y-67175000D02*
X213812500Y-67675000D01*
X213812500Y-67675000D02*
X215312500Y-67675000D01*
X215312500Y-69175000D02*
X213312500Y-69175000D01*
X211812500Y-67175000D02*
X211812500Y-66175000D01*
X215312500Y-64175000D02*
X213312500Y-64175000D01*
X216812500Y-67175000D02*
X216812500Y-66175000D01*
X215312500Y-124825000D02*
X215312500Y-122825000D01*
X215312500Y-122825000D02*
X213312500Y-122825000D01*
X213312500Y-122825000D02*
X213312500Y-124325000D01*
X213312500Y-124325000D02*
X213812500Y-124825000D01*
X213812500Y-124825000D02*
X215312500Y-124825000D01*
X215312500Y-126325000D02*
X213312500Y-126325000D01*
X211812500Y-124325000D02*
X211812500Y-123325000D01*
X215312500Y-121325000D02*
X213312500Y-121325000D01*
X216812500Y-124325000D02*
X216812500Y-123325000D01*
X167687500Y-67675000D02*
X167687500Y-65675000D01*
X167687500Y-65675000D02*
X165687500Y-65675000D01*
X165687500Y-65675000D02*
X165687500Y-67175000D01*
X165687500Y-67175000D02*
X166187500Y-67675000D01*
X166187500Y-67675000D02*
X167687500Y-67675000D01*
X167687500Y-69175000D02*
X165687500Y-69175000D01*
X164187500Y-67175000D02*
X164187500Y-66175000D01*
X167687500Y-64175000D02*
X165687500Y-64175000D01*
X169187500Y-67175000D02*
X169187500Y-66175000D01*
X262937500Y-124825000D02*
X262937500Y-122825000D01*
X262937500Y-122825000D02*
X260937500Y-122825000D01*
X260937500Y-122825000D02*
X260937500Y-124325000D01*
X260937500Y-124325000D02*
X261437500Y-124825000D01*
X261437500Y-124825000D02*
X262937500Y-124825000D01*
X262937500Y-126325000D02*
X260937500Y-126325000D01*
X259437500Y-124325000D02*
X259437500Y-123325000D01*
X262937500Y-121325000D02*
X260937500Y-121325000D01*
X264437500Y-124325000D02*
X264437500Y-123325000D01*
X120062500Y-67675000D02*
X120062500Y-65675000D01*
X120062500Y-65675000D02*
X118062500Y-65675000D01*
X118062500Y-65675000D02*
X118062500Y-67175000D01*
X118062500Y-67175000D02*
X118562500Y-67675000D01*
X118562500Y-67675000D02*
X120062500Y-67675000D01*
X120062500Y-69175000D02*
X118062500Y-69175000D01*
X116562500Y-67175000D02*
X116562500Y-66175000D01*
X120062500Y-64175000D02*
X118062500Y-64175000D01*
X121562500Y-67175000D02*
X121562500Y-66175000D01*
X310562500Y-124825000D02*
X310562500Y-122825000D01*
X310562500Y-122825000D02*
X308562500Y-122825000D01*
X308562500Y-122825000D02*
X308562500Y-124325000D01*
X308562500Y-124325000D02*
X309062500Y-124825000D01*
X309062500Y-124825000D02*
X310562500Y-124825000D01*
X310562500Y-126325000D02*
X308562500Y-126325000D01*
X307062500Y-124325000D02*
X307062500Y-123325000D01*
X310562500Y-121325000D02*
X308562500Y-121325000D01*
X312062500Y-124325000D02*
X312062500Y-123325000D01*
X74818750Y-67675000D02*
X74818750Y-65675000D01*
X74818750Y-65675000D02*
X72818750Y-65675000D01*
X72818750Y-65675000D02*
X72818750Y-67175000D01*
X72818750Y-67175000D02*
X73318750Y-67675000D01*
X73318750Y-67675000D02*
X74818750Y-67675000D01*
X74818750Y-69175000D02*
X72818750Y-69175000D01*
X71318750Y-67175000D02*
X71318750Y-66175000D01*
X74818750Y-64175000D02*
X72818750Y-64175000D01*
X76318750Y-67175000D02*
X76318750Y-66175000D01*
X310562500Y-67675000D02*
X310562500Y-65675000D01*
X310562500Y-65675000D02*
X308562500Y-65675000D01*
X308562500Y-65675000D02*
X308562500Y-67175000D01*
X308562500Y-67175000D02*
X309062500Y-67675000D01*
X309062500Y-67675000D02*
X310562500Y-67675000D01*
X310562500Y-69175000D02*
X308562500Y-69175000D01*
X307062500Y-67175000D02*
X307062500Y-66175000D01*
X310562500Y-64175000D02*
X308562500Y-64175000D01*
X312062500Y-67175000D02*
X312062500Y-66175000D01*
X72437500Y-124825000D02*
X72437500Y-122825000D01*
X72437500Y-122825000D02*
X70437500Y-122825000D01*
X70437500Y-122825000D02*
X70437500Y-124325000D01*
X70437500Y-124325000D02*
X70937500Y-124825000D01*
X70937500Y-124825000D02*
X72437500Y-124825000D01*
X72437500Y-126325000D02*
X70437500Y-126325000D01*
X68937500Y-124325000D02*
X68937500Y-123325000D01*
X72437500Y-121325000D02*
X70437500Y-121325000D01*
X73937500Y-124325000D02*
X73937500Y-123325000D01*
X262937500Y-67675000D02*
X262937500Y-65675000D01*
X262937500Y-65675000D02*
X260937500Y-65675000D01*
X260937500Y-65675000D02*
X260937500Y-67175000D01*
X260937500Y-67175000D02*
X261437500Y-67675000D01*
X261437500Y-67675000D02*
X262937500Y-67675000D01*
X262937500Y-69175000D02*
X260937500Y-69175000D01*
X259437500Y-67175000D02*
X259437500Y-66175000D01*
X262937500Y-64175000D02*
X260937500Y-64175000D01*
X264437500Y-67175000D02*
X264437500Y-66175000D01*
X120062500Y-124825000D02*
X120062500Y-122825000D01*
X120062500Y-122825000D02*
X118062500Y-122825000D01*
X118062500Y-122825000D02*
X118062500Y-124325000D01*
X118062500Y-124325000D02*
X118562500Y-124825000D01*
X118562500Y-124825000D02*
X120062500Y-124825000D01*
X120062500Y-126325000D02*
X118062500Y-126325000D01*
X116562500Y-124325000D02*
X116562500Y-123325000D01*
X120062500Y-121325000D02*
X118062500Y-121325000D01*
X121562500Y-124325000D02*
X121562500Y-123325000D01*
D15*
X164220000Y-123606000D02*
X164220000Y-124806000D01*
X165980000Y-124806000D02*
X165980000Y-123606000D01*
X163895000Y-129557000D02*
X161995000Y-129557000D01*
X162495000Y-127237000D02*
X163895000Y-127237000D01*
X62810500Y-60233000D02*
X62810500Y-61433000D01*
X64570500Y-61433000D02*
X64570500Y-60233000D01*
D11*
X68404500Y-62283000D02*
X67104500Y-62283000D01*
X68404500Y-59383000D02*
X68404500Y-62283000D01*
X67104500Y-59383000D02*
X68404500Y-59383000D01*
X67104500Y-59383000D02*
X67104500Y-62283000D01*
D18*
G36*
X145439383Y-129108497D02*
X145360415Y-129111100D01*
X145287460Y-129115022D01*
X145223442Y-129120248D01*
X145182771Y-129125054D01*
X144982493Y-129160198D01*
X144788031Y-129208556D01*
X144599647Y-129269998D01*
X144417599Y-129344395D01*
X144242147Y-129431618D01*
X144073553Y-129531536D01*
X143912074Y-129644020D01*
X143757972Y-129768941D01*
X143611506Y-129906169D01*
X143606472Y-129911243D01*
X143470265Y-130058885D01*
X143346575Y-130213819D01*
X143235516Y-130375794D01*
X143137202Y-130544562D01*
X143051749Y-130719872D01*
X142979270Y-130901475D01*
X142919880Y-131089122D01*
X142873695Y-131282563D01*
X142840827Y-131481550D01*
X142827152Y-131608015D01*
X142823446Y-131667806D01*
X142821504Y-131738405D01*
X142821234Y-131816221D01*
X142822546Y-131897667D01*
X142825348Y-131979154D01*
X142829549Y-132057093D01*
X142835059Y-132127897D01*
X142841785Y-132187976D01*
X142841906Y-132188857D01*
X142876312Y-132387345D01*
X142924164Y-132580451D01*
X142985306Y-132767874D01*
X143059588Y-132949310D01*
X143146856Y-133124457D01*
X143246959Y-133293013D01*
X143359742Y-133454675D01*
X143485055Y-133609141D01*
X143622743Y-133756108D01*
X143641576Y-133774678D01*
X143789456Y-133909657D01*
X143943641Y-134031679D01*
X144104321Y-134140838D01*
X144271688Y-134237225D01*
X144445931Y-134320932D01*
X144627242Y-134392049D01*
X144815810Y-134450670D01*
X145011828Y-134496886D01*
X145211800Y-134530294D01*
X145239181Y-134533019D01*
X145278523Y-134535611D01*
X145327273Y-134538009D01*
X145382877Y-134540156D01*
X145442783Y-134541993D01*
X145504438Y-134543461D01*
X145565287Y-134544502D01*
X145622778Y-134545058D01*
X145674358Y-134545070D01*
X145717474Y-134544479D01*
X145749573Y-134543228D01*
X145756086Y-134542763D01*
X145954671Y-134519282D01*
X146149608Y-134481820D01*
X146340465Y-134430550D01*
X146526809Y-134365646D01*
X146708206Y-134287280D01*
X146884225Y-134195626D01*
X147054433Y-134090857D01*
X147218396Y-133973146D01*
X147257976Y-133942024D01*
X147303667Y-133903625D01*
X147355845Y-133856711D01*
X147411777Y-133803974D01*
X147468729Y-133748109D01*
X147523969Y-133691808D01*
X147574763Y-133637766D01*
X147618378Y-133588675D01*
X147627524Y-133577869D01*
X147750767Y-133419846D01*
X147860790Y-133256097D01*
X147957699Y-133086381D01*
X148041598Y-132910459D01*
X148112592Y-132728090D01*
X148137842Y-132646057D01*
X146826514Y-132646057D01*
X146826514Y-133016172D01*
X146456400Y-133016172D01*
X146456400Y-132646057D01*
X144649371Y-132646057D01*
X144649371Y-133016172D01*
X144279257Y-133016172D01*
X144279257Y-132646057D01*
X144649371Y-132646057D01*
X146456400Y-132646057D01*
X146826514Y-132646057D01*
X148137842Y-132646057D01*
X148170785Y-132539035D01*
X148216283Y-132343054D01*
X148246560Y-132159829D01*
X148252207Y-132106043D01*
X148256439Y-132040741D01*
X148259273Y-131966850D01*
X148259988Y-131927600D01*
X146456400Y-131927600D01*
X146456400Y-132297714D01*
X146086286Y-132297714D01*
X146086286Y-131927600D01*
X145737943Y-131927600D01*
X145737943Y-132297714D01*
X145367828Y-132297714D01*
X145367828Y-131927600D01*
X144997714Y-131927600D01*
X144997714Y-132297714D01*
X144649371Y-132297714D01*
X144649371Y-131927600D01*
X144997714Y-131927600D01*
X145367828Y-131927600D01*
X145737943Y-131927600D01*
X146086286Y-131927600D01*
X146456400Y-131927600D01*
X148259988Y-131927600D01*
X148260723Y-131887296D01*
X148260805Y-131805006D01*
X148259533Y-131722909D01*
X148256923Y-131643930D01*
X148252990Y-131570998D01*
X148247749Y-131507039D01*
X148242976Y-131466772D01*
X148207848Y-131267000D01*
X148193442Y-131209143D01*
X146086286Y-131209143D01*
X146086286Y-131557486D01*
X145737943Y-131557486D01*
X145737943Y-131209143D01*
X145367828Y-131209143D01*
X145367828Y-131557486D01*
X144997714Y-131557486D01*
X144997714Y-131209143D01*
X145367828Y-131209143D01*
X145737943Y-131209143D01*
X146086286Y-131209143D01*
X148193442Y-131209143D01*
X148159483Y-131072763D01*
X148098061Y-130884427D01*
X148023761Y-130702358D01*
X147936763Y-130526922D01*
X147902491Y-130468914D01*
X145737943Y-130468914D01*
X145737943Y-130839029D01*
X145367828Y-130839029D01*
X145367828Y-130468914D01*
X145737943Y-130468914D01*
X147902491Y-130468914D01*
X147837247Y-130358486D01*
X147725390Y-130197416D01*
X147601374Y-130044079D01*
X147484768Y-129918305D01*
X147337838Y-129779194D01*
X147184166Y-129652926D01*
X147023720Y-129539484D01*
X146856466Y-129438851D01*
X146682373Y-129351012D01*
X146501407Y-129275951D01*
X146313536Y-129213650D01*
X146118728Y-129164095D01*
X145916950Y-129127269D01*
X145875828Y-129121440D01*
X145822149Y-129115806D01*
X145756948Y-129111584D01*
X145683149Y-129108757D01*
X145603673Y-129107310D01*
X145521444Y-129107228D01*
X145439383Y-129108497D01*
X145439383Y-129108497D01*
G37*
X145439383Y-129108497D02*
X145360415Y-129111100D01*
X145287460Y-129115022D01*
X145223442Y-129120248D01*
X145182771Y-129125054D01*
X144982493Y-129160198D01*
X144788031Y-129208556D01*
X144599647Y-129269998D01*
X144417599Y-129344395D01*
X144242147Y-129431618D01*
X144073553Y-129531536D01*
X143912074Y-129644020D01*
X143757972Y-129768941D01*
X143611506Y-129906169D01*
X143606472Y-129911243D01*
X143470265Y-130058885D01*
X143346575Y-130213819D01*
X143235516Y-130375794D01*
X143137202Y-130544562D01*
X143051749Y-130719872D01*
X142979270Y-130901475D01*
X142919880Y-131089122D01*
X142873695Y-131282563D01*
X142840827Y-131481550D01*
X142827152Y-131608015D01*
X142823446Y-131667806D01*
X142821504Y-131738405D01*
X142821234Y-131816221D01*
X142822546Y-131897667D01*
X142825348Y-131979154D01*
X142829549Y-132057093D01*
X142835059Y-132127897D01*
X142841785Y-132187976D01*
X142841906Y-132188857D01*
X142876312Y-132387345D01*
X142924164Y-132580451D01*
X142985306Y-132767874D01*
X143059588Y-132949310D01*
X143146856Y-133124457D01*
X143246959Y-133293013D01*
X143359742Y-133454675D01*
X143485055Y-133609141D01*
X143622743Y-133756108D01*
X143641576Y-133774678D01*
X143789456Y-133909657D01*
X143943641Y-134031679D01*
X144104321Y-134140838D01*
X144271688Y-134237225D01*
X144445931Y-134320932D01*
X144627242Y-134392049D01*
X144815810Y-134450670D01*
X145011828Y-134496886D01*
X145211800Y-134530294D01*
X145239181Y-134533019D01*
X145278523Y-134535611D01*
X145327273Y-134538009D01*
X145382877Y-134540156D01*
X145442783Y-134541993D01*
X145504438Y-134543461D01*
X145565287Y-134544502D01*
X145622778Y-134545058D01*
X145674358Y-134545070D01*
X145717474Y-134544479D01*
X145749573Y-134543228D01*
X145756086Y-134542763D01*
X145954671Y-134519282D01*
X146149608Y-134481820D01*
X146340465Y-134430550D01*
X146526809Y-134365646D01*
X146708206Y-134287280D01*
X146884225Y-134195626D01*
X147054433Y-134090857D01*
X147218396Y-133973146D01*
X147257976Y-133942024D01*
X147303667Y-133903625D01*
X147355845Y-133856711D01*
X147411777Y-133803974D01*
X147468729Y-133748109D01*
X147523969Y-133691808D01*
X147574763Y-133637766D01*
X147618378Y-133588675D01*
X147627524Y-133577869D01*
X147750767Y-133419846D01*
X147860790Y-133256097D01*
X147957699Y-133086381D01*
X148041598Y-132910459D01*
X148112592Y-132728090D01*
X148137842Y-132646057D01*
X146826514Y-132646057D01*
X146826514Y-133016172D01*
X146456400Y-133016172D01*
X146456400Y-132646057D01*
X144649371Y-132646057D01*
X144649371Y-133016172D01*
X144279257Y-133016172D01*
X144279257Y-132646057D01*
X144649371Y-132646057D01*
X146456400Y-132646057D01*
X146826514Y-132646057D01*
X148137842Y-132646057D01*
X148170785Y-132539035D01*
X148216283Y-132343054D01*
X148246560Y-132159829D01*
X148252207Y-132106043D01*
X148256439Y-132040741D01*
X148259273Y-131966850D01*
X148259988Y-131927600D01*
X146456400Y-131927600D01*
X146456400Y-132297714D01*
X146086286Y-132297714D01*
X146086286Y-131927600D01*
X145737943Y-131927600D01*
X145737943Y-132297714D01*
X145367828Y-132297714D01*
X145367828Y-131927600D01*
X144997714Y-131927600D01*
X144997714Y-132297714D01*
X144649371Y-132297714D01*
X144649371Y-131927600D01*
X144997714Y-131927600D01*
X145367828Y-131927600D01*
X145737943Y-131927600D01*
X146086286Y-131927600D01*
X146456400Y-131927600D01*
X148259988Y-131927600D01*
X148260723Y-131887296D01*
X148260805Y-131805006D01*
X148259533Y-131722909D01*
X148256923Y-131643930D01*
X148252990Y-131570998D01*
X148247749Y-131507039D01*
X148242976Y-131466772D01*
X148207848Y-131267000D01*
X148193442Y-131209143D01*
X146086286Y-131209143D01*
X146086286Y-131557486D01*
X145737943Y-131557486D01*
X145737943Y-131209143D01*
X145367828Y-131209143D01*
X145367828Y-131557486D01*
X144997714Y-131557486D01*
X144997714Y-131209143D01*
X145367828Y-131209143D01*
X145737943Y-131209143D01*
X146086286Y-131209143D01*
X148193442Y-131209143D01*
X148159483Y-131072763D01*
X148098061Y-130884427D01*
X148023761Y-130702358D01*
X147936763Y-130526922D01*
X147902491Y-130468914D01*
X145737943Y-130468914D01*
X145737943Y-130839029D01*
X145367828Y-130839029D01*
X145367828Y-130468914D01*
X145737943Y-130468914D01*
X147902491Y-130468914D01*
X147837247Y-130358486D01*
X147725390Y-130197416D01*
X147601374Y-130044079D01*
X147484768Y-129918305D01*
X147337838Y-129779194D01*
X147184166Y-129652926D01*
X147023720Y-129539484D01*
X146856466Y-129438851D01*
X146682373Y-129351012D01*
X146501407Y-129275951D01*
X146313536Y-129213650D01*
X146118728Y-129164095D01*
X145916950Y-129127269D01*
X145875828Y-129121440D01*
X145822149Y-129115806D01*
X145756948Y-129111584D01*
X145683149Y-129108757D01*
X145603673Y-129107310D01*
X145521444Y-129107228D01*
X145439383Y-129108497D01*
D11*
X130595666Y-136501143D02*
X130643285Y-136548762D01*
X130786142Y-136596381D01*
X130881380Y-136596381D01*
X131024238Y-136548762D01*
X131119476Y-136453524D01*
X131167095Y-136358286D01*
X131214714Y-136167810D01*
X131214714Y-136024952D01*
X131167095Y-135834476D01*
X131119476Y-135739238D01*
X131024238Y-135644000D01*
X130881380Y-135596381D01*
X130786142Y-135596381D01*
X130643285Y-135644000D01*
X130595666Y-135691619D01*
X129643285Y-136596381D02*
X130214714Y-136596381D01*
X129929000Y-136596381D02*
X129929000Y-135596381D01*
X130024238Y-135739238D01*
X130119476Y-135834476D01*
X130214714Y-135882095D01*
X134850143Y-130389334D02*
X134897762Y-130341715D01*
X134945381Y-130198858D01*
X134945381Y-130103620D01*
X134897762Y-129960762D01*
X134802524Y-129865524D01*
X134707286Y-129817905D01*
X134516810Y-129770286D01*
X134373952Y-129770286D01*
X134183476Y-129817905D01*
X134088238Y-129865524D01*
X133993000Y-129960762D01*
X133945381Y-130103620D01*
X133945381Y-130198858D01*
X133993000Y-130341715D01*
X134040619Y-130389334D01*
X134040619Y-130770286D02*
X133993000Y-130817905D01*
X133945381Y-130913143D01*
X133945381Y-131151239D01*
X133993000Y-131246477D01*
X134040619Y-131294096D01*
X134135857Y-131341715D01*
X134231095Y-131341715D01*
X134373952Y-131294096D01*
X134945381Y-130722667D01*
X134945381Y-131341715D01*
X138342666Y-140184143D02*
X138390285Y-140231762D01*
X138533142Y-140279381D01*
X138628380Y-140279381D01*
X138771238Y-140231762D01*
X138866476Y-140136524D01*
X138914095Y-140041286D01*
X138961714Y-139850810D01*
X138961714Y-139707952D01*
X138914095Y-139517476D01*
X138866476Y-139422238D01*
X138771238Y-139327000D01*
X138628380Y-139279381D01*
X138533142Y-139279381D01*
X138390285Y-139327000D01*
X138342666Y-139374619D01*
X138009333Y-139279381D02*
X137390285Y-139279381D01*
X137723619Y-139660333D01*
X137580761Y-139660333D01*
X137485523Y-139707952D01*
X137437904Y-139755571D01*
X137390285Y-139850810D01*
X137390285Y-140088905D01*
X137437904Y-140184143D01*
X137485523Y-140231762D01*
X137580761Y-140279381D01*
X137866476Y-140279381D01*
X137961714Y-140231762D01*
X138009333Y-140184143D01*
X156948143Y-131151334D02*
X156995762Y-131103715D01*
X157043381Y-130960858D01*
X157043381Y-130865620D01*
X156995762Y-130722762D01*
X156900524Y-130627524D01*
X156805286Y-130579905D01*
X156614810Y-130532286D01*
X156471952Y-130532286D01*
X156281476Y-130579905D01*
X156186238Y-130627524D01*
X156091000Y-130722762D01*
X156043381Y-130865620D01*
X156043381Y-130960858D01*
X156091000Y-131103715D01*
X156138619Y-131151334D01*
X156376714Y-132008477D02*
X157043381Y-132008477D01*
X155995762Y-131770381D02*
X156710048Y-131532286D01*
X156710048Y-132151334D01*
X148502666Y-124309143D02*
X148550285Y-124356762D01*
X148693142Y-124404381D01*
X148788380Y-124404381D01*
X148931238Y-124356762D01*
X149026476Y-124261524D01*
X149074095Y-124166286D01*
X149121714Y-123975810D01*
X149121714Y-123832952D01*
X149074095Y-123642476D01*
X149026476Y-123547238D01*
X148931238Y-123452000D01*
X148788380Y-123404381D01*
X148693142Y-123404381D01*
X148550285Y-123452000D01*
X148502666Y-123499619D01*
X147597904Y-123404381D02*
X148074095Y-123404381D01*
X148121714Y-123880571D01*
X148074095Y-123832952D01*
X147978857Y-123785333D01*
X147740761Y-123785333D01*
X147645523Y-123832952D01*
X147597904Y-123880571D01*
X147550285Y-123975810D01*
X147550285Y-124213905D01*
X147597904Y-124309143D01*
X147645523Y-124356762D01*
X147740761Y-124404381D01*
X147978857Y-124404381D01*
X148074095Y-124356762D01*
X148121714Y-124309143D01*
X135421666Y-136501143D02*
X135469285Y-136548762D01*
X135612142Y-136596381D01*
X135707380Y-136596381D01*
X135850238Y-136548762D01*
X135945476Y-136453524D01*
X135993095Y-136358286D01*
X136040714Y-136167810D01*
X136040714Y-136024952D01*
X135993095Y-135834476D01*
X135945476Y-135739238D01*
X135850238Y-135644000D01*
X135707380Y-135596381D01*
X135612142Y-135596381D01*
X135469285Y-135644000D01*
X135421666Y-135691619D01*
X134564523Y-135596381D02*
X134755000Y-135596381D01*
X134850238Y-135644000D01*
X134897857Y-135691619D01*
X134993095Y-135834476D01*
X135040714Y-136024952D01*
X135040714Y-136405905D01*
X134993095Y-136501143D01*
X134945476Y-136548762D01*
X134850238Y-136596381D01*
X134659761Y-136596381D01*
X134564523Y-136548762D01*
X134516904Y-136501143D01*
X134469285Y-136405905D01*
X134469285Y-136167810D01*
X134516904Y-136072571D01*
X134564523Y-136024952D01*
X134659761Y-135977333D01*
X134850238Y-135977333D01*
X134945476Y-136024952D01*
X134993095Y-136072571D01*
X135040714Y-136167810D01*
X157043381Y-126579334D02*
X156567190Y-126246000D01*
X157043381Y-126007905D02*
X156043381Y-126007905D01*
X156043381Y-126388858D01*
X156091000Y-126484096D01*
X156138619Y-126531715D01*
X156233857Y-126579334D01*
X156376714Y-126579334D01*
X156471952Y-126531715D01*
X156519571Y-126484096D01*
X156567190Y-126388858D01*
X156567190Y-126007905D01*
X157043381Y-127531715D02*
X157043381Y-126960286D01*
X157043381Y-127246000D02*
X156043381Y-127246000D01*
X156186238Y-127150762D01*
X156281476Y-127055524D01*
X156329095Y-126960286D01*
X78483333Y-100988762D02*
X78340476Y-101036381D01*
X78102380Y-101036381D01*
X78007142Y-100988762D01*
X77959523Y-100941143D01*
X77911904Y-100845905D01*
X77911904Y-100750667D01*
X77959523Y-100655429D01*
X78007142Y-100607810D01*
X78102380Y-100560190D01*
X78292857Y-100512571D01*
X78388095Y-100464952D01*
X78435714Y-100417333D01*
X78483333Y-100322095D01*
X78483333Y-100226857D01*
X78435714Y-100131619D01*
X78388095Y-100084000D01*
X78292857Y-100036381D01*
X78054761Y-100036381D01*
X77911904Y-100084000D01*
X77578571Y-100036381D02*
X77340476Y-101036381D01*
X77149999Y-100322095D01*
X76959523Y-101036381D01*
X76721428Y-100036381D01*
X75816666Y-101036381D02*
X76388095Y-101036381D01*
X76102381Y-101036381D02*
X76102381Y-100036381D01*
X76197619Y-100179238D01*
X76292857Y-100274476D01*
X76388095Y-100322095D01*
X152145905Y-137247381D02*
X152145905Y-138056905D01*
X152098286Y-138152143D01*
X152050667Y-138199762D01*
X151955429Y-138247381D01*
X151764952Y-138247381D01*
X151669714Y-138199762D01*
X151622095Y-138152143D01*
X151574476Y-138056905D01*
X151574476Y-137247381D01*
X150574476Y-138247381D02*
X151145905Y-138247381D01*
X150860191Y-138247381D02*
X150860191Y-137247381D01*
X150955429Y-137390238D01*
X151050667Y-137485476D01*
X151145905Y-137533095D01*
X131317905Y-127635381D02*
X131317905Y-128444905D01*
X131270286Y-128540143D01*
X131222667Y-128587762D01*
X131127429Y-128635381D01*
X130936952Y-128635381D01*
X130841714Y-128587762D01*
X130794095Y-128540143D01*
X130746476Y-128444905D01*
X130746476Y-127635381D01*
X130317905Y-127730619D02*
X130270286Y-127683000D01*
X130175048Y-127635381D01*
X129936952Y-127635381D01*
X129841714Y-127683000D01*
X129794095Y-127730619D01*
X129746476Y-127825857D01*
X129746476Y-127921095D01*
X129794095Y-128063952D01*
X130365524Y-128635381D01*
X129746476Y-128635381D01*
X67905095Y-56094381D02*
X67905095Y-56903905D01*
X67857476Y-56999143D01*
X67809857Y-57046762D01*
X67714619Y-57094381D01*
X67524142Y-57094381D01*
X67428904Y-57046762D01*
X67381285Y-56999143D01*
X67333666Y-56903905D01*
X67333666Y-56094381D01*
X66905095Y-57046762D02*
X66762238Y-57094381D01*
X66524142Y-57094381D01*
X66428904Y-57046762D01*
X66381285Y-56999143D01*
X66333666Y-56903905D01*
X66333666Y-56808667D01*
X66381285Y-56713429D01*
X66428904Y-56665810D01*
X66524142Y-56618190D01*
X66714619Y-56570571D01*
X66809857Y-56522952D01*
X66857476Y-56475333D01*
X66905095Y-56380095D01*
X66905095Y-56284857D01*
X66857476Y-56189619D01*
X66809857Y-56142000D01*
X66714619Y-56094381D01*
X66476523Y-56094381D01*
X66333666Y-56142000D01*
X65571761Y-56570571D02*
X65428904Y-56618190D01*
X65381285Y-56665810D01*
X65333666Y-56761048D01*
X65333666Y-56903905D01*
X65381285Y-56999143D01*
X65428904Y-57046762D01*
X65524142Y-57094381D01*
X65905095Y-57094381D01*
X65905095Y-56094381D01*
X65571761Y-56094381D01*
X65476523Y-56142000D01*
X65428904Y-56189619D01*
X65381285Y-56284857D01*
X65381285Y-56380095D01*
X65428904Y-56475333D01*
X65476523Y-56522952D01*
X65571761Y-56570571D01*
X65905095Y-56570571D01*
X64381285Y-57094381D02*
X64952714Y-57094381D01*
X64667000Y-57094381D02*
X64667000Y-56094381D01*
X64762238Y-56237238D01*
X64857476Y-56332476D01*
X64952714Y-56380095D01*
X219241666Y-128754143D02*
X219289285Y-128801762D01*
X219432142Y-128849381D01*
X219527380Y-128849381D01*
X219670238Y-128801762D01*
X219765476Y-128706524D01*
X219813095Y-128611286D01*
X219860714Y-128420810D01*
X219860714Y-128277952D01*
X219813095Y-128087476D01*
X219765476Y-127992238D01*
X219670238Y-127897000D01*
X219527380Y-127849381D01*
X219432142Y-127849381D01*
X219289285Y-127897000D01*
X219241666Y-127944619D01*
X218908333Y-127849381D02*
X218241666Y-127849381D01*
X218670238Y-128849381D01*
X219241666Y-131929143D02*
X219289285Y-131976762D01*
X219432142Y-132024381D01*
X219527380Y-132024381D01*
X219670238Y-131976762D01*
X219765476Y-131881524D01*
X219813095Y-131786286D01*
X219860714Y-131595810D01*
X219860714Y-131452952D01*
X219813095Y-131262476D01*
X219765476Y-131167238D01*
X219670238Y-131072000D01*
X219527380Y-131024381D01*
X219432142Y-131024381D01*
X219289285Y-131072000D01*
X219241666Y-131119619D01*
X218670238Y-131452952D02*
X218765476Y-131405333D01*
X218813095Y-131357714D01*
X218860714Y-131262476D01*
X218860714Y-131214857D01*
X218813095Y-131119619D01*
X218765476Y-131072000D01*
X218670238Y-131024381D01*
X218479761Y-131024381D01*
X218384523Y-131072000D01*
X218336904Y-131119619D01*
X218289285Y-131214857D01*
X218289285Y-131262476D01*
X218336904Y-131357714D01*
X218384523Y-131405333D01*
X218479761Y-131452952D01*
X218670238Y-131452952D01*
X218765476Y-131500571D01*
X218813095Y-131548190D01*
X218860714Y-131643429D01*
X218860714Y-131833905D01*
X218813095Y-131929143D01*
X218765476Y-131976762D01*
X218670238Y-132024381D01*
X218479761Y-132024381D01*
X218384523Y-131976762D01*
X218336904Y-131929143D01*
X218289285Y-131833905D01*
X218289285Y-131643429D01*
X218336904Y-131548190D01*
X218384523Y-131500571D01*
X218479761Y-131452952D01*
X54681381Y-59840905D02*
X53681381Y-59840905D01*
X53681381Y-60079000D01*
X53729000Y-60221858D01*
X53824238Y-60317096D01*
X53919476Y-60364715D01*
X54109952Y-60412334D01*
X54252810Y-60412334D01*
X54443286Y-60364715D01*
X54538524Y-60317096D01*
X54633762Y-60221858D01*
X54681381Y-60079000D01*
X54681381Y-59840905D01*
X54681381Y-61364715D02*
X54681381Y-60793286D01*
X54681381Y-61079000D02*
X53681381Y-61079000D01*
X53824238Y-60983762D01*
X53919476Y-60888524D01*
X53967095Y-60793286D01*
X85796131Y-56411905D02*
X84796131Y-56411905D01*
X84796131Y-56650000D01*
X84843750Y-56792858D01*
X84938988Y-56888096D01*
X85034226Y-56935715D01*
X85224702Y-56983334D01*
X85367560Y-56983334D01*
X85558036Y-56935715D01*
X85653274Y-56888096D01*
X85748512Y-56792858D01*
X85796131Y-56650000D01*
X85796131Y-56411905D01*
X84891369Y-57364286D02*
X84843750Y-57411905D01*
X84796131Y-57507143D01*
X84796131Y-57745239D01*
X84843750Y-57840477D01*
X84891369Y-57888096D01*
X84986607Y-57935715D01*
X85081845Y-57935715D01*
X85224702Y-57888096D01*
X85796131Y-57316667D01*
X85796131Y-57935715D01*
X104846131Y-56411905D02*
X103846131Y-56411905D01*
X103846131Y-56650000D01*
X103893750Y-56792858D01*
X103988988Y-56888096D01*
X104084226Y-56935715D01*
X104274702Y-56983334D01*
X104417560Y-56983334D01*
X104608036Y-56935715D01*
X104703274Y-56888096D01*
X104798512Y-56792858D01*
X104846131Y-56650000D01*
X104846131Y-56411905D01*
X103846131Y-57316667D02*
X103846131Y-57935715D01*
X104227083Y-57602381D01*
X104227083Y-57745239D01*
X104274702Y-57840477D01*
X104322321Y-57888096D01*
X104417560Y-57935715D01*
X104655655Y-57935715D01*
X104750893Y-57888096D01*
X104798512Y-57840477D01*
X104846131Y-57745239D01*
X104846131Y-57459524D01*
X104798512Y-57364286D01*
X104750893Y-57316667D01*
X123896131Y-56411905D02*
X122896131Y-56411905D01*
X122896131Y-56650000D01*
X122943750Y-56792858D01*
X123038988Y-56888096D01*
X123134226Y-56935715D01*
X123324702Y-56983334D01*
X123467560Y-56983334D01*
X123658036Y-56935715D01*
X123753274Y-56888096D01*
X123848512Y-56792858D01*
X123896131Y-56650000D01*
X123896131Y-56411905D01*
X123229464Y-57840477D02*
X123896131Y-57840477D01*
X122848512Y-57602381D02*
X123562798Y-57364286D01*
X123562798Y-57983334D01*
X142946131Y-56411905D02*
X141946131Y-56411905D01*
X141946131Y-56650000D01*
X141993750Y-56792858D01*
X142088988Y-56888096D01*
X142184226Y-56935715D01*
X142374702Y-56983334D01*
X142517560Y-56983334D01*
X142708036Y-56935715D01*
X142803274Y-56888096D01*
X142898512Y-56792858D01*
X142946131Y-56650000D01*
X142946131Y-56411905D01*
X141946131Y-57888096D02*
X141946131Y-57411905D01*
X142422321Y-57364286D01*
X142374702Y-57411905D01*
X142327083Y-57507143D01*
X142327083Y-57745239D01*
X142374702Y-57840477D01*
X142422321Y-57888096D01*
X142517560Y-57935715D01*
X142755655Y-57935715D01*
X142850893Y-57888096D01*
X142898512Y-57840477D01*
X142946131Y-57745239D01*
X142946131Y-57507143D01*
X142898512Y-57411905D01*
X142850893Y-57364286D01*
X161996131Y-56411905D02*
X160996131Y-56411905D01*
X160996131Y-56650000D01*
X161043750Y-56792858D01*
X161138988Y-56888096D01*
X161234226Y-56935715D01*
X161424702Y-56983334D01*
X161567560Y-56983334D01*
X161758036Y-56935715D01*
X161853274Y-56888096D01*
X161948512Y-56792858D01*
X161996131Y-56650000D01*
X161996131Y-56411905D01*
X160996131Y-57840477D02*
X160996131Y-57650000D01*
X161043750Y-57554762D01*
X161091369Y-57507143D01*
X161234226Y-57411905D01*
X161424702Y-57364286D01*
X161805655Y-57364286D01*
X161900893Y-57411905D01*
X161948512Y-57459524D01*
X161996131Y-57554762D01*
X161996131Y-57745239D01*
X161948512Y-57840477D01*
X161900893Y-57888096D01*
X161805655Y-57935715D01*
X161567560Y-57935715D01*
X161472321Y-57888096D01*
X161424702Y-57840477D01*
X161377083Y-57745239D01*
X161377083Y-57554762D01*
X161424702Y-57459524D01*
X161472321Y-57411905D01*
X161567560Y-57364286D01*
X181046131Y-56411905D02*
X180046131Y-56411905D01*
X180046131Y-56650000D01*
X180093750Y-56792858D01*
X180188988Y-56888096D01*
X180284226Y-56935715D01*
X180474702Y-56983334D01*
X180617560Y-56983334D01*
X180808036Y-56935715D01*
X180903274Y-56888096D01*
X180998512Y-56792858D01*
X181046131Y-56650000D01*
X181046131Y-56411905D01*
X180046131Y-57316667D02*
X180046131Y-57983334D01*
X181046131Y-57554762D01*
X200096131Y-56411905D02*
X199096131Y-56411905D01*
X199096131Y-56650000D01*
X199143750Y-56792858D01*
X199238988Y-56888096D01*
X199334226Y-56935715D01*
X199524702Y-56983334D01*
X199667560Y-56983334D01*
X199858036Y-56935715D01*
X199953274Y-56888096D01*
X200048512Y-56792858D01*
X200096131Y-56650000D01*
X200096131Y-56411905D01*
X199524702Y-57554762D02*
X199477083Y-57459524D01*
X199429464Y-57411905D01*
X199334226Y-57364286D01*
X199286607Y-57364286D01*
X199191369Y-57411905D01*
X199143750Y-57459524D01*
X199096131Y-57554762D01*
X199096131Y-57745239D01*
X199143750Y-57840477D01*
X199191369Y-57888096D01*
X199286607Y-57935715D01*
X199334226Y-57935715D01*
X199429464Y-57888096D01*
X199477083Y-57840477D01*
X199524702Y-57745239D01*
X199524702Y-57554762D01*
X199572321Y-57459524D01*
X199619940Y-57411905D01*
X199715179Y-57364286D01*
X199905655Y-57364286D01*
X200000893Y-57411905D01*
X200048512Y-57459524D01*
X200096131Y-57554762D01*
X200096131Y-57745239D01*
X200048512Y-57840477D01*
X200000893Y-57888096D01*
X199905655Y-57935715D01*
X199715179Y-57935715D01*
X199619940Y-57888096D01*
X199572321Y-57840477D01*
X199524702Y-57745239D01*
X219146131Y-56411905D02*
X218146131Y-56411905D01*
X218146131Y-56650000D01*
X218193750Y-56792858D01*
X218288988Y-56888096D01*
X218384226Y-56935715D01*
X218574702Y-56983334D01*
X218717560Y-56983334D01*
X218908036Y-56935715D01*
X219003274Y-56888096D01*
X219098512Y-56792858D01*
X219146131Y-56650000D01*
X219146131Y-56411905D01*
X219146131Y-57459524D02*
X219146131Y-57650000D01*
X219098512Y-57745239D01*
X219050893Y-57792858D01*
X218908036Y-57888096D01*
X218717560Y-57935715D01*
X218336607Y-57935715D01*
X218241369Y-57888096D01*
X218193750Y-57840477D01*
X218146131Y-57745239D01*
X218146131Y-57554762D01*
X218193750Y-57459524D01*
X218241369Y-57411905D01*
X218336607Y-57364286D01*
X218574702Y-57364286D01*
X218669940Y-57411905D01*
X218717560Y-57459524D01*
X218765179Y-57554762D01*
X218765179Y-57745239D01*
X218717560Y-57840477D01*
X218669940Y-57888096D01*
X218574702Y-57935715D01*
X238196131Y-55935714D02*
X237196131Y-55935714D01*
X237196131Y-56173809D01*
X237243750Y-56316667D01*
X237338988Y-56411905D01*
X237434226Y-56459524D01*
X237624702Y-56507143D01*
X237767560Y-56507143D01*
X237958036Y-56459524D01*
X238053274Y-56411905D01*
X238148512Y-56316667D01*
X238196131Y-56173809D01*
X238196131Y-55935714D01*
X238196131Y-57459524D02*
X238196131Y-56888095D01*
X238196131Y-57173809D02*
X237196131Y-57173809D01*
X237338988Y-57078571D01*
X237434226Y-56983333D01*
X237481845Y-56888095D01*
X237196131Y-58078571D02*
X237196131Y-58173810D01*
X237243750Y-58269048D01*
X237291369Y-58316667D01*
X237386607Y-58364286D01*
X237577083Y-58411905D01*
X237815179Y-58411905D01*
X238005655Y-58364286D01*
X238100893Y-58316667D01*
X238148512Y-58269048D01*
X238196131Y-58173810D01*
X238196131Y-58078571D01*
X238148512Y-57983333D01*
X238100893Y-57935714D01*
X238005655Y-57888095D01*
X237815179Y-57840476D01*
X237577083Y-57840476D01*
X237386607Y-57888095D01*
X237291369Y-57935714D01*
X237243750Y-57983333D01*
X237196131Y-58078571D01*
X257246131Y-55935714D02*
X256246131Y-55935714D01*
X256246131Y-56173809D01*
X256293750Y-56316667D01*
X256388988Y-56411905D01*
X256484226Y-56459524D01*
X256674702Y-56507143D01*
X256817560Y-56507143D01*
X257008036Y-56459524D01*
X257103274Y-56411905D01*
X257198512Y-56316667D01*
X257246131Y-56173809D01*
X257246131Y-55935714D01*
X257246131Y-57459524D02*
X257246131Y-56888095D01*
X257246131Y-57173809D02*
X256246131Y-57173809D01*
X256388988Y-57078571D01*
X256484226Y-56983333D01*
X256531845Y-56888095D01*
X257246131Y-58411905D02*
X257246131Y-57840476D01*
X257246131Y-58126190D02*
X256246131Y-58126190D01*
X256388988Y-58030952D01*
X256484226Y-57935714D01*
X256531845Y-57840476D01*
X276296131Y-55935714D02*
X275296131Y-55935714D01*
X275296131Y-56173809D01*
X275343750Y-56316667D01*
X275438988Y-56411905D01*
X275534226Y-56459524D01*
X275724702Y-56507143D01*
X275867560Y-56507143D01*
X276058036Y-56459524D01*
X276153274Y-56411905D01*
X276248512Y-56316667D01*
X276296131Y-56173809D01*
X276296131Y-55935714D01*
X276296131Y-57459524D02*
X276296131Y-56888095D01*
X276296131Y-57173809D02*
X275296131Y-57173809D01*
X275438988Y-57078571D01*
X275534226Y-56983333D01*
X275581845Y-56888095D01*
X275391369Y-57840476D02*
X275343750Y-57888095D01*
X275296131Y-57983333D01*
X275296131Y-58221429D01*
X275343750Y-58316667D01*
X275391369Y-58364286D01*
X275486607Y-58411905D01*
X275581845Y-58411905D01*
X275724702Y-58364286D01*
X276296131Y-57792857D01*
X276296131Y-58411905D01*
X295219381Y-53554464D02*
X294219381Y-53554464D01*
X294219381Y-53792559D01*
X294267000Y-53935417D01*
X294362238Y-54030655D01*
X294457476Y-54078274D01*
X294647952Y-54125893D01*
X294790810Y-54125893D01*
X294981286Y-54078274D01*
X295076524Y-54030655D01*
X295171762Y-53935417D01*
X295219381Y-53792559D01*
X295219381Y-53554464D01*
X295219381Y-55078274D02*
X295219381Y-54506845D01*
X295219381Y-54792559D02*
X294219381Y-54792559D01*
X294362238Y-54697321D01*
X294457476Y-54602083D01*
X294505095Y-54506845D01*
X294219381Y-55411607D02*
X294219381Y-56030655D01*
X294600333Y-55697321D01*
X294600333Y-55840179D01*
X294647952Y-55935417D01*
X294695571Y-55983036D01*
X294790810Y-56030655D01*
X295028905Y-56030655D01*
X295124143Y-55983036D01*
X295171762Y-55935417D01*
X295219381Y-55840179D01*
X295219381Y-55554464D01*
X295171762Y-55459226D01*
X295124143Y-55411607D01*
X298775381Y-53554464D02*
X297775381Y-53554464D01*
X297775381Y-53792559D01*
X297823000Y-53935417D01*
X297918238Y-54030655D01*
X298013476Y-54078274D01*
X298203952Y-54125893D01*
X298346810Y-54125893D01*
X298537286Y-54078274D01*
X298632524Y-54030655D01*
X298727762Y-53935417D01*
X298775381Y-53792559D01*
X298775381Y-53554464D01*
X298775381Y-55078274D02*
X298775381Y-54506845D01*
X298775381Y-54792559D02*
X297775381Y-54792559D01*
X297918238Y-54697321D01*
X298013476Y-54602083D01*
X298061095Y-54506845D01*
X298108714Y-55935417D02*
X298775381Y-55935417D01*
X297727762Y-55697321D02*
X298442048Y-55459226D01*
X298442048Y-56078274D01*
X296489286Y-63174256D02*
X296489286Y-62174256D01*
X296251191Y-62174256D01*
X296108333Y-62221875D01*
X296013095Y-62317113D01*
X295965476Y-62412351D01*
X295917857Y-62602827D01*
X295917857Y-62745685D01*
X295965476Y-62936161D01*
X296013095Y-63031399D01*
X296108333Y-63126637D01*
X296251191Y-63174256D01*
X296489286Y-63174256D01*
X294965476Y-63174256D02*
X295536905Y-63174256D01*
X295251191Y-63174256D02*
X295251191Y-62174256D01*
X295346429Y-62317113D01*
X295441667Y-62412351D01*
X295536905Y-62459970D01*
X294060714Y-62174256D02*
X294536905Y-62174256D01*
X294584524Y-62650446D01*
X294536905Y-62602827D01*
X294441667Y-62555208D01*
X294203571Y-62555208D01*
X294108333Y-62602827D01*
X294060714Y-62650446D01*
X294013095Y-62745685D01*
X294013095Y-62983780D01*
X294060714Y-63079018D01*
X294108333Y-63126637D01*
X294203571Y-63174256D01*
X294441667Y-63174256D01*
X294536905Y-63126637D01*
X294584524Y-63079018D01*
X55951381Y-77271714D02*
X54951381Y-77271714D01*
X54951381Y-77509809D01*
X54999000Y-77652667D01*
X55094238Y-77747905D01*
X55189476Y-77795524D01*
X55379952Y-77843143D01*
X55522810Y-77843143D01*
X55713286Y-77795524D01*
X55808524Y-77747905D01*
X55903762Y-77652667D01*
X55951381Y-77509809D01*
X55951381Y-77271714D01*
X55951381Y-78795524D02*
X55951381Y-78224095D01*
X55951381Y-78509809D02*
X54951381Y-78509809D01*
X55094238Y-78414571D01*
X55189476Y-78319333D01*
X55237095Y-78224095D01*
X54951381Y-79652667D02*
X54951381Y-79462190D01*
X54999000Y-79366952D01*
X55046619Y-79319333D01*
X55189476Y-79224095D01*
X55379952Y-79176476D01*
X55760905Y-79176476D01*
X55856143Y-79224095D01*
X55903762Y-79271714D01*
X55951381Y-79366952D01*
X55951381Y-79557429D01*
X55903762Y-79652667D01*
X55856143Y-79700286D01*
X55760905Y-79747905D01*
X55522810Y-79747905D01*
X55427571Y-79700286D01*
X55379952Y-79652667D01*
X55332333Y-79557429D01*
X55332333Y-79366952D01*
X55379952Y-79271714D01*
X55427571Y-79224095D01*
X55522810Y-79176476D01*
X95321131Y-74985714D02*
X94321131Y-74985714D01*
X94321131Y-75223809D01*
X94368750Y-75366667D01*
X94463988Y-75461905D01*
X94559226Y-75509524D01*
X94749702Y-75557143D01*
X94892560Y-75557143D01*
X95083036Y-75509524D01*
X95178274Y-75461905D01*
X95273512Y-75366667D01*
X95321131Y-75223809D01*
X95321131Y-74985714D01*
X95321131Y-76509524D02*
X95321131Y-75938095D01*
X95321131Y-76223809D02*
X94321131Y-76223809D01*
X94463988Y-76128571D01*
X94559226Y-76033333D01*
X94606845Y-75938095D01*
X94321131Y-76842857D02*
X94321131Y-77509524D01*
X95321131Y-77080952D01*
X114371131Y-74985714D02*
X113371131Y-74985714D01*
X113371131Y-75223809D01*
X113418750Y-75366667D01*
X113513988Y-75461905D01*
X113609226Y-75509524D01*
X113799702Y-75557143D01*
X113942560Y-75557143D01*
X114133036Y-75509524D01*
X114228274Y-75461905D01*
X114323512Y-75366667D01*
X114371131Y-75223809D01*
X114371131Y-74985714D01*
X114371131Y-76509524D02*
X114371131Y-75938095D01*
X114371131Y-76223809D02*
X113371131Y-76223809D01*
X113513988Y-76128571D01*
X113609226Y-76033333D01*
X113656845Y-75938095D01*
X113799702Y-77080952D02*
X113752083Y-76985714D01*
X113704464Y-76938095D01*
X113609226Y-76890476D01*
X113561607Y-76890476D01*
X113466369Y-76938095D01*
X113418750Y-76985714D01*
X113371131Y-77080952D01*
X113371131Y-77271429D01*
X113418750Y-77366667D01*
X113466369Y-77414286D01*
X113561607Y-77461905D01*
X113609226Y-77461905D01*
X113704464Y-77414286D01*
X113752083Y-77366667D01*
X113799702Y-77271429D01*
X113799702Y-77080952D01*
X113847321Y-76985714D01*
X113894940Y-76938095D01*
X113990179Y-76890476D01*
X114180655Y-76890476D01*
X114275893Y-76938095D01*
X114323512Y-76985714D01*
X114371131Y-77080952D01*
X114371131Y-77271429D01*
X114323512Y-77366667D01*
X114275893Y-77414286D01*
X114180655Y-77461905D01*
X113990179Y-77461905D01*
X113894940Y-77414286D01*
X113847321Y-77366667D01*
X113799702Y-77271429D01*
X133421131Y-74985714D02*
X132421131Y-74985714D01*
X132421131Y-75223809D01*
X132468750Y-75366667D01*
X132563988Y-75461905D01*
X132659226Y-75509524D01*
X132849702Y-75557143D01*
X132992560Y-75557143D01*
X133183036Y-75509524D01*
X133278274Y-75461905D01*
X133373512Y-75366667D01*
X133421131Y-75223809D01*
X133421131Y-74985714D01*
X133421131Y-76509524D02*
X133421131Y-75938095D01*
X133421131Y-76223809D02*
X132421131Y-76223809D01*
X132563988Y-76128571D01*
X132659226Y-76033333D01*
X132706845Y-75938095D01*
X133421131Y-76985714D02*
X133421131Y-77176190D01*
X133373512Y-77271429D01*
X133325893Y-77319048D01*
X133183036Y-77414286D01*
X132992560Y-77461905D01*
X132611607Y-77461905D01*
X132516369Y-77414286D01*
X132468750Y-77366667D01*
X132421131Y-77271429D01*
X132421131Y-77080952D01*
X132468750Y-76985714D01*
X132516369Y-76938095D01*
X132611607Y-76890476D01*
X132849702Y-76890476D01*
X132944940Y-76938095D01*
X132992560Y-76985714D01*
X133040179Y-77080952D01*
X133040179Y-77271429D01*
X132992560Y-77366667D01*
X132944940Y-77414286D01*
X132849702Y-77461905D01*
X152471131Y-74985714D02*
X151471131Y-74985714D01*
X151471131Y-75223809D01*
X151518750Y-75366667D01*
X151613988Y-75461905D01*
X151709226Y-75509524D01*
X151899702Y-75557143D01*
X152042560Y-75557143D01*
X152233036Y-75509524D01*
X152328274Y-75461905D01*
X152423512Y-75366667D01*
X152471131Y-75223809D01*
X152471131Y-74985714D01*
X151566369Y-75938095D02*
X151518750Y-75985714D01*
X151471131Y-76080952D01*
X151471131Y-76319048D01*
X151518750Y-76414286D01*
X151566369Y-76461905D01*
X151661607Y-76509524D01*
X151756845Y-76509524D01*
X151899702Y-76461905D01*
X152471131Y-75890476D01*
X152471131Y-76509524D01*
X151471131Y-77128571D02*
X151471131Y-77223810D01*
X151518750Y-77319048D01*
X151566369Y-77366667D01*
X151661607Y-77414286D01*
X151852083Y-77461905D01*
X152090179Y-77461905D01*
X152280655Y-77414286D01*
X152375893Y-77366667D01*
X152423512Y-77319048D01*
X152471131Y-77223810D01*
X152471131Y-77128571D01*
X152423512Y-77033333D01*
X152375893Y-76985714D01*
X152280655Y-76938095D01*
X152090179Y-76890476D01*
X151852083Y-76890476D01*
X151661607Y-76938095D01*
X151566369Y-76985714D01*
X151518750Y-77033333D01*
X151471131Y-77128571D01*
X171521131Y-74985714D02*
X170521131Y-74985714D01*
X170521131Y-75223809D01*
X170568750Y-75366667D01*
X170663988Y-75461905D01*
X170759226Y-75509524D01*
X170949702Y-75557143D01*
X171092560Y-75557143D01*
X171283036Y-75509524D01*
X171378274Y-75461905D01*
X171473512Y-75366667D01*
X171521131Y-75223809D01*
X171521131Y-74985714D01*
X170616369Y-75938095D02*
X170568750Y-75985714D01*
X170521131Y-76080952D01*
X170521131Y-76319048D01*
X170568750Y-76414286D01*
X170616369Y-76461905D01*
X170711607Y-76509524D01*
X170806845Y-76509524D01*
X170949702Y-76461905D01*
X171521131Y-75890476D01*
X171521131Y-76509524D01*
X171521131Y-77461905D02*
X171521131Y-76890476D01*
X171521131Y-77176190D02*
X170521131Y-77176190D01*
X170663988Y-77080952D01*
X170759226Y-76985714D01*
X170806845Y-76890476D01*
X190571131Y-74985714D02*
X189571131Y-74985714D01*
X189571131Y-75223809D01*
X189618750Y-75366667D01*
X189713988Y-75461905D01*
X189809226Y-75509524D01*
X189999702Y-75557143D01*
X190142560Y-75557143D01*
X190333036Y-75509524D01*
X190428274Y-75461905D01*
X190523512Y-75366667D01*
X190571131Y-75223809D01*
X190571131Y-74985714D01*
X189666369Y-75938095D02*
X189618750Y-75985714D01*
X189571131Y-76080952D01*
X189571131Y-76319048D01*
X189618750Y-76414286D01*
X189666369Y-76461905D01*
X189761607Y-76509524D01*
X189856845Y-76509524D01*
X189999702Y-76461905D01*
X190571131Y-75890476D01*
X190571131Y-76509524D01*
X189666369Y-76890476D02*
X189618750Y-76938095D01*
X189571131Y-77033333D01*
X189571131Y-77271429D01*
X189618750Y-77366667D01*
X189666369Y-77414286D01*
X189761607Y-77461905D01*
X189856845Y-77461905D01*
X189999702Y-77414286D01*
X190571131Y-76842857D01*
X190571131Y-77461905D01*
X209621131Y-74985714D02*
X208621131Y-74985714D01*
X208621131Y-75223809D01*
X208668750Y-75366667D01*
X208763988Y-75461905D01*
X208859226Y-75509524D01*
X209049702Y-75557143D01*
X209192560Y-75557143D01*
X209383036Y-75509524D01*
X209478274Y-75461905D01*
X209573512Y-75366667D01*
X209621131Y-75223809D01*
X209621131Y-74985714D01*
X208716369Y-75938095D02*
X208668750Y-75985714D01*
X208621131Y-76080952D01*
X208621131Y-76319048D01*
X208668750Y-76414286D01*
X208716369Y-76461905D01*
X208811607Y-76509524D01*
X208906845Y-76509524D01*
X209049702Y-76461905D01*
X209621131Y-75890476D01*
X209621131Y-76509524D01*
X208621131Y-76842857D02*
X208621131Y-77461905D01*
X209002083Y-77128571D01*
X209002083Y-77271429D01*
X209049702Y-77366667D01*
X209097321Y-77414286D01*
X209192560Y-77461905D01*
X209430655Y-77461905D01*
X209525893Y-77414286D01*
X209573512Y-77366667D01*
X209621131Y-77271429D01*
X209621131Y-76985714D01*
X209573512Y-76890476D01*
X209525893Y-76842857D01*
X228671131Y-74985714D02*
X227671131Y-74985714D01*
X227671131Y-75223809D01*
X227718750Y-75366667D01*
X227813988Y-75461905D01*
X227909226Y-75509524D01*
X228099702Y-75557143D01*
X228242560Y-75557143D01*
X228433036Y-75509524D01*
X228528274Y-75461905D01*
X228623512Y-75366667D01*
X228671131Y-75223809D01*
X228671131Y-74985714D01*
X227766369Y-75938095D02*
X227718750Y-75985714D01*
X227671131Y-76080952D01*
X227671131Y-76319048D01*
X227718750Y-76414286D01*
X227766369Y-76461905D01*
X227861607Y-76509524D01*
X227956845Y-76509524D01*
X228099702Y-76461905D01*
X228671131Y-75890476D01*
X228671131Y-76509524D01*
X228004464Y-77366667D02*
X228671131Y-77366667D01*
X227623512Y-77128571D02*
X228337798Y-76890476D01*
X228337798Y-77509524D01*
X247721131Y-74985714D02*
X246721131Y-74985714D01*
X246721131Y-75223809D01*
X246768750Y-75366667D01*
X246863988Y-75461905D01*
X246959226Y-75509524D01*
X247149702Y-75557143D01*
X247292560Y-75557143D01*
X247483036Y-75509524D01*
X247578274Y-75461905D01*
X247673512Y-75366667D01*
X247721131Y-75223809D01*
X247721131Y-74985714D01*
X246816369Y-75938095D02*
X246768750Y-75985714D01*
X246721131Y-76080952D01*
X246721131Y-76319048D01*
X246768750Y-76414286D01*
X246816369Y-76461905D01*
X246911607Y-76509524D01*
X247006845Y-76509524D01*
X247149702Y-76461905D01*
X247721131Y-75890476D01*
X247721131Y-76509524D01*
X246721131Y-77414286D02*
X246721131Y-76938095D01*
X247197321Y-76890476D01*
X247149702Y-76938095D01*
X247102083Y-77033333D01*
X247102083Y-77271429D01*
X247149702Y-77366667D01*
X247197321Y-77414286D01*
X247292560Y-77461905D01*
X247530655Y-77461905D01*
X247625893Y-77414286D01*
X247673512Y-77366667D01*
X247721131Y-77271429D01*
X247721131Y-77033333D01*
X247673512Y-76938095D01*
X247625893Y-76890476D01*
X266771131Y-74985714D02*
X265771131Y-74985714D01*
X265771131Y-75223809D01*
X265818750Y-75366667D01*
X265913988Y-75461905D01*
X266009226Y-75509524D01*
X266199702Y-75557143D01*
X266342560Y-75557143D01*
X266533036Y-75509524D01*
X266628274Y-75461905D01*
X266723512Y-75366667D01*
X266771131Y-75223809D01*
X266771131Y-74985714D01*
X265866369Y-75938095D02*
X265818750Y-75985714D01*
X265771131Y-76080952D01*
X265771131Y-76319048D01*
X265818750Y-76414286D01*
X265866369Y-76461905D01*
X265961607Y-76509524D01*
X266056845Y-76509524D01*
X266199702Y-76461905D01*
X266771131Y-75890476D01*
X266771131Y-76509524D01*
X265771131Y-77366667D02*
X265771131Y-77176190D01*
X265818750Y-77080952D01*
X265866369Y-77033333D01*
X266009226Y-76938095D01*
X266199702Y-76890476D01*
X266580655Y-76890476D01*
X266675893Y-76938095D01*
X266723512Y-76985714D01*
X266771131Y-77080952D01*
X266771131Y-77271429D01*
X266723512Y-77366667D01*
X266675893Y-77414286D01*
X266580655Y-77461905D01*
X266342560Y-77461905D01*
X266247321Y-77414286D01*
X266199702Y-77366667D01*
X266152083Y-77271429D01*
X266152083Y-77080952D01*
X266199702Y-76985714D01*
X266247321Y-76938095D01*
X266342560Y-76890476D01*
X285821131Y-74985714D02*
X284821131Y-74985714D01*
X284821131Y-75223809D01*
X284868750Y-75366667D01*
X284963988Y-75461905D01*
X285059226Y-75509524D01*
X285249702Y-75557143D01*
X285392560Y-75557143D01*
X285583036Y-75509524D01*
X285678274Y-75461905D01*
X285773512Y-75366667D01*
X285821131Y-75223809D01*
X285821131Y-74985714D01*
X284916369Y-75938095D02*
X284868750Y-75985714D01*
X284821131Y-76080952D01*
X284821131Y-76319048D01*
X284868750Y-76414286D01*
X284916369Y-76461905D01*
X285011607Y-76509524D01*
X285106845Y-76509524D01*
X285249702Y-76461905D01*
X285821131Y-75890476D01*
X285821131Y-76509524D01*
X284821131Y-76842857D02*
X284821131Y-77509524D01*
X285821131Y-77080952D01*
X301124881Y-77525714D02*
X300124881Y-77525714D01*
X300124881Y-77763809D01*
X300172500Y-77906667D01*
X300267738Y-78001905D01*
X300362976Y-78049524D01*
X300553452Y-78097143D01*
X300696310Y-78097143D01*
X300886786Y-78049524D01*
X300982024Y-78001905D01*
X301077262Y-77906667D01*
X301124881Y-77763809D01*
X301124881Y-77525714D01*
X300220119Y-78478095D02*
X300172500Y-78525714D01*
X300124881Y-78620952D01*
X300124881Y-78859048D01*
X300172500Y-78954286D01*
X300220119Y-79001905D01*
X300315357Y-79049524D01*
X300410595Y-79049524D01*
X300553452Y-79001905D01*
X301124881Y-78430476D01*
X301124881Y-79049524D01*
X300553452Y-79620952D02*
X300505833Y-79525714D01*
X300458214Y-79478095D01*
X300362976Y-79430476D01*
X300315357Y-79430476D01*
X300220119Y-79478095D01*
X300172500Y-79525714D01*
X300124881Y-79620952D01*
X300124881Y-79811429D01*
X300172500Y-79906667D01*
X300220119Y-79954286D01*
X300315357Y-80001905D01*
X300362976Y-80001905D01*
X300458214Y-79954286D01*
X300505833Y-79906667D01*
X300553452Y-79811429D01*
X300553452Y-79620952D01*
X300601071Y-79525714D01*
X300648690Y-79478095D01*
X300743929Y-79430476D01*
X300934405Y-79430476D01*
X301029643Y-79478095D01*
X301077262Y-79525714D01*
X301124881Y-79620952D01*
X301124881Y-79811429D01*
X301077262Y-79906667D01*
X301029643Y-79954286D01*
X300934405Y-80001905D01*
X300743929Y-80001905D01*
X300648690Y-79954286D01*
X300601071Y-79906667D01*
X300553452Y-79811429D01*
X309586161Y-84605506D02*
X309586161Y-83605506D01*
X309348066Y-83605506D01*
X309205208Y-83653125D01*
X309109970Y-83748363D01*
X309062351Y-83843601D01*
X309014732Y-84034077D01*
X309014732Y-84176935D01*
X309062351Y-84367411D01*
X309109970Y-84462649D01*
X309205208Y-84557887D01*
X309348066Y-84605506D01*
X309586161Y-84605506D01*
X308633780Y-83700744D02*
X308586161Y-83653125D01*
X308490923Y-83605506D01*
X308252827Y-83605506D01*
X308157589Y-83653125D01*
X308109970Y-83700744D01*
X308062351Y-83795982D01*
X308062351Y-83891220D01*
X308109970Y-84034077D01*
X308681399Y-84605506D01*
X308062351Y-84605506D01*
X307586161Y-84605506D02*
X307395685Y-84605506D01*
X307300446Y-84557887D01*
X307252827Y-84510268D01*
X307157589Y-84367411D01*
X307109970Y-84176935D01*
X307109970Y-83795982D01*
X307157589Y-83700744D01*
X307205208Y-83653125D01*
X307300446Y-83605506D01*
X307490923Y-83605506D01*
X307586161Y-83653125D01*
X307633780Y-83700744D01*
X307681399Y-83795982D01*
X307681399Y-84034077D01*
X307633780Y-84129315D01*
X307586161Y-84176935D01*
X307490923Y-84224554D01*
X307300446Y-84224554D01*
X307205208Y-84176935D01*
X307157589Y-84129315D01*
X307109970Y-84034077D01*
X54681381Y-96575714D02*
X53681381Y-96575714D01*
X53681381Y-96813809D01*
X53729000Y-96956667D01*
X53824238Y-97051905D01*
X53919476Y-97099524D01*
X54109952Y-97147143D01*
X54252810Y-97147143D01*
X54443286Y-97099524D01*
X54538524Y-97051905D01*
X54633762Y-96956667D01*
X54681381Y-96813809D01*
X54681381Y-96575714D01*
X53681381Y-97480476D02*
X53681381Y-98099524D01*
X54062333Y-97766190D01*
X54062333Y-97909048D01*
X54109952Y-98004286D01*
X54157571Y-98051905D01*
X54252810Y-98099524D01*
X54490905Y-98099524D01*
X54586143Y-98051905D01*
X54633762Y-98004286D01*
X54681381Y-97909048D01*
X54681381Y-97623333D01*
X54633762Y-97528095D01*
X54586143Y-97480476D01*
X53681381Y-98718571D02*
X53681381Y-98813810D01*
X53729000Y-98909048D01*
X53776619Y-98956667D01*
X53871857Y-99004286D01*
X54062333Y-99051905D01*
X54300429Y-99051905D01*
X54490905Y-99004286D01*
X54586143Y-98956667D01*
X54633762Y-98909048D01*
X54681381Y-98813810D01*
X54681381Y-98718571D01*
X54633762Y-98623333D01*
X54586143Y-98575714D01*
X54490905Y-98528095D01*
X54300429Y-98480476D01*
X54062333Y-98480476D01*
X53871857Y-98528095D01*
X53776619Y-98575714D01*
X53729000Y-98623333D01*
X53681381Y-98718571D01*
X100083631Y-94035714D02*
X99083631Y-94035714D01*
X99083631Y-94273809D01*
X99131250Y-94416667D01*
X99226488Y-94511905D01*
X99321726Y-94559524D01*
X99512202Y-94607143D01*
X99655060Y-94607143D01*
X99845536Y-94559524D01*
X99940774Y-94511905D01*
X100036012Y-94416667D01*
X100083631Y-94273809D01*
X100083631Y-94035714D01*
X99083631Y-94940476D02*
X99083631Y-95559524D01*
X99464583Y-95226190D01*
X99464583Y-95369048D01*
X99512202Y-95464286D01*
X99559821Y-95511905D01*
X99655060Y-95559524D01*
X99893155Y-95559524D01*
X99988393Y-95511905D01*
X100036012Y-95464286D01*
X100083631Y-95369048D01*
X100083631Y-95083333D01*
X100036012Y-94988095D01*
X99988393Y-94940476D01*
X100083631Y-96511905D02*
X100083631Y-95940476D01*
X100083631Y-96226190D02*
X99083631Y-96226190D01*
X99226488Y-96130952D01*
X99321726Y-96035714D01*
X99369345Y-95940476D01*
X118943381Y-94035714D02*
X117943381Y-94035714D01*
X117943381Y-94273809D01*
X117991000Y-94416667D01*
X118086238Y-94511905D01*
X118181476Y-94559524D01*
X118371952Y-94607143D01*
X118514810Y-94607143D01*
X118705286Y-94559524D01*
X118800524Y-94511905D01*
X118895762Y-94416667D01*
X118943381Y-94273809D01*
X118943381Y-94035714D01*
X117943381Y-94940476D02*
X117943381Y-95559524D01*
X118324333Y-95226190D01*
X118324333Y-95369048D01*
X118371952Y-95464286D01*
X118419571Y-95511905D01*
X118514810Y-95559524D01*
X118752905Y-95559524D01*
X118848143Y-95511905D01*
X118895762Y-95464286D01*
X118943381Y-95369048D01*
X118943381Y-95083333D01*
X118895762Y-94988095D01*
X118848143Y-94940476D01*
X118038619Y-95940476D02*
X117991000Y-95988095D01*
X117943381Y-96083333D01*
X117943381Y-96321429D01*
X117991000Y-96416667D01*
X118038619Y-96464286D01*
X118133857Y-96511905D01*
X118229095Y-96511905D01*
X118371952Y-96464286D01*
X118943381Y-95892857D01*
X118943381Y-96511905D01*
X122626381Y-96321714D02*
X121626381Y-96321714D01*
X121626381Y-96559809D01*
X121674000Y-96702667D01*
X121769238Y-96797905D01*
X121864476Y-96845524D01*
X122054952Y-96893143D01*
X122197810Y-96893143D01*
X122388286Y-96845524D01*
X122483524Y-96797905D01*
X122578762Y-96702667D01*
X122626381Y-96559809D01*
X122626381Y-96321714D01*
X121626381Y-97226476D02*
X121626381Y-97845524D01*
X122007333Y-97512190D01*
X122007333Y-97655048D01*
X122054952Y-97750286D01*
X122102571Y-97797905D01*
X122197810Y-97845524D01*
X122435905Y-97845524D01*
X122531143Y-97797905D01*
X122578762Y-97750286D01*
X122626381Y-97655048D01*
X122626381Y-97369333D01*
X122578762Y-97274095D01*
X122531143Y-97226476D01*
X121626381Y-98178857D02*
X121626381Y-98797905D01*
X122007333Y-98464571D01*
X122007333Y-98607429D01*
X122054952Y-98702667D01*
X122102571Y-98750286D01*
X122197810Y-98797905D01*
X122435905Y-98797905D01*
X122531143Y-98750286D01*
X122578762Y-98702667D01*
X122626381Y-98607429D01*
X122626381Y-98321714D01*
X122578762Y-98226476D01*
X122531143Y-98178857D01*
X157106881Y-93273714D02*
X156106881Y-93273714D01*
X156106881Y-93511809D01*
X156154500Y-93654667D01*
X156249738Y-93749905D01*
X156344976Y-93797524D01*
X156535452Y-93845143D01*
X156678310Y-93845143D01*
X156868786Y-93797524D01*
X156964024Y-93749905D01*
X157059262Y-93654667D01*
X157106881Y-93511809D01*
X157106881Y-93273714D01*
X156106881Y-94178476D02*
X156106881Y-94797524D01*
X156487833Y-94464190D01*
X156487833Y-94607048D01*
X156535452Y-94702286D01*
X156583071Y-94749905D01*
X156678310Y-94797524D01*
X156916405Y-94797524D01*
X157011643Y-94749905D01*
X157059262Y-94702286D01*
X157106881Y-94607048D01*
X157106881Y-94321333D01*
X157059262Y-94226095D01*
X157011643Y-94178476D01*
X156440214Y-95654667D02*
X157106881Y-95654667D01*
X156059262Y-95416571D02*
X156773548Y-95178476D01*
X156773548Y-95797524D01*
X160726381Y-96702714D02*
X159726381Y-96702714D01*
X159726381Y-96940809D01*
X159774000Y-97083667D01*
X159869238Y-97178905D01*
X159964476Y-97226524D01*
X160154952Y-97274143D01*
X160297810Y-97274143D01*
X160488286Y-97226524D01*
X160583524Y-97178905D01*
X160678762Y-97083667D01*
X160726381Y-96940809D01*
X160726381Y-96702714D01*
X159726381Y-97607476D02*
X159726381Y-98226524D01*
X160107333Y-97893190D01*
X160107333Y-98036048D01*
X160154952Y-98131286D01*
X160202571Y-98178905D01*
X160297810Y-98226524D01*
X160535905Y-98226524D01*
X160631143Y-98178905D01*
X160678762Y-98131286D01*
X160726381Y-98036048D01*
X160726381Y-97750333D01*
X160678762Y-97655095D01*
X160631143Y-97607476D01*
X159726381Y-99131286D02*
X159726381Y-98655095D01*
X160202571Y-98607476D01*
X160154952Y-98655095D01*
X160107333Y-98750333D01*
X160107333Y-98988429D01*
X160154952Y-99083667D01*
X160202571Y-99131286D01*
X160297810Y-99178905D01*
X160535905Y-99178905D01*
X160631143Y-99131286D01*
X160678762Y-99083667D01*
X160726381Y-98988429D01*
X160726381Y-98750333D01*
X160678762Y-98655095D01*
X160631143Y-98607476D01*
X195333631Y-94035714D02*
X194333631Y-94035714D01*
X194333631Y-94273809D01*
X194381250Y-94416667D01*
X194476488Y-94511905D01*
X194571726Y-94559524D01*
X194762202Y-94607143D01*
X194905060Y-94607143D01*
X195095536Y-94559524D01*
X195190774Y-94511905D01*
X195286012Y-94416667D01*
X195333631Y-94273809D01*
X195333631Y-94035714D01*
X194333631Y-94940476D02*
X194333631Y-95559524D01*
X194714583Y-95226190D01*
X194714583Y-95369048D01*
X194762202Y-95464286D01*
X194809821Y-95511905D01*
X194905060Y-95559524D01*
X195143155Y-95559524D01*
X195238393Y-95511905D01*
X195286012Y-95464286D01*
X195333631Y-95369048D01*
X195333631Y-95083333D01*
X195286012Y-94988095D01*
X195238393Y-94940476D01*
X194333631Y-96416667D02*
X194333631Y-96226190D01*
X194381250Y-96130952D01*
X194428869Y-96083333D01*
X194571726Y-95988095D01*
X194762202Y-95940476D01*
X195143155Y-95940476D01*
X195238393Y-95988095D01*
X195286012Y-96035714D01*
X195333631Y-96130952D01*
X195333631Y-96321429D01*
X195286012Y-96416667D01*
X195238393Y-96464286D01*
X195143155Y-96511905D01*
X194905060Y-96511905D01*
X194809821Y-96464286D01*
X194762202Y-96416667D01*
X194714583Y-96321429D01*
X194714583Y-96130952D01*
X194762202Y-96035714D01*
X194809821Y-95988095D01*
X194905060Y-95940476D01*
X214383631Y-94035714D02*
X213383631Y-94035714D01*
X213383631Y-94273809D01*
X213431250Y-94416667D01*
X213526488Y-94511905D01*
X213621726Y-94559524D01*
X213812202Y-94607143D01*
X213955060Y-94607143D01*
X214145536Y-94559524D01*
X214240774Y-94511905D01*
X214336012Y-94416667D01*
X214383631Y-94273809D01*
X214383631Y-94035714D01*
X213383631Y-94940476D02*
X213383631Y-95559524D01*
X213764583Y-95226190D01*
X213764583Y-95369048D01*
X213812202Y-95464286D01*
X213859821Y-95511905D01*
X213955060Y-95559524D01*
X214193155Y-95559524D01*
X214288393Y-95511905D01*
X214336012Y-95464286D01*
X214383631Y-95369048D01*
X214383631Y-95083333D01*
X214336012Y-94988095D01*
X214288393Y-94940476D01*
X213383631Y-95892857D02*
X213383631Y-96559524D01*
X214383631Y-96130952D01*
X233433631Y-94035714D02*
X232433631Y-94035714D01*
X232433631Y-94273809D01*
X232481250Y-94416667D01*
X232576488Y-94511905D01*
X232671726Y-94559524D01*
X232862202Y-94607143D01*
X233005060Y-94607143D01*
X233195536Y-94559524D01*
X233290774Y-94511905D01*
X233386012Y-94416667D01*
X233433631Y-94273809D01*
X233433631Y-94035714D01*
X232433631Y-94940476D02*
X232433631Y-95559524D01*
X232814583Y-95226190D01*
X232814583Y-95369048D01*
X232862202Y-95464286D01*
X232909821Y-95511905D01*
X233005060Y-95559524D01*
X233243155Y-95559524D01*
X233338393Y-95511905D01*
X233386012Y-95464286D01*
X233433631Y-95369048D01*
X233433631Y-95083333D01*
X233386012Y-94988095D01*
X233338393Y-94940476D01*
X232862202Y-96130952D02*
X232814583Y-96035714D01*
X232766964Y-95988095D01*
X232671726Y-95940476D01*
X232624107Y-95940476D01*
X232528869Y-95988095D01*
X232481250Y-96035714D01*
X232433631Y-96130952D01*
X232433631Y-96321429D01*
X232481250Y-96416667D01*
X232528869Y-96464286D01*
X232624107Y-96511905D01*
X232671726Y-96511905D01*
X232766964Y-96464286D01*
X232814583Y-96416667D01*
X232862202Y-96321429D01*
X232862202Y-96130952D01*
X232909821Y-96035714D01*
X232957440Y-95988095D01*
X233052679Y-95940476D01*
X233243155Y-95940476D01*
X233338393Y-95988095D01*
X233386012Y-96035714D01*
X233433631Y-96130952D01*
X233433631Y-96321429D01*
X233386012Y-96416667D01*
X233338393Y-96464286D01*
X233243155Y-96511905D01*
X233052679Y-96511905D01*
X232957440Y-96464286D01*
X232909821Y-96416667D01*
X232862202Y-96321429D01*
X252483631Y-94035714D02*
X251483631Y-94035714D01*
X251483631Y-94273809D01*
X251531250Y-94416667D01*
X251626488Y-94511905D01*
X251721726Y-94559524D01*
X251912202Y-94607143D01*
X252055060Y-94607143D01*
X252245536Y-94559524D01*
X252340774Y-94511905D01*
X252436012Y-94416667D01*
X252483631Y-94273809D01*
X252483631Y-94035714D01*
X251483631Y-94940476D02*
X251483631Y-95559524D01*
X251864583Y-95226190D01*
X251864583Y-95369048D01*
X251912202Y-95464286D01*
X251959821Y-95511905D01*
X252055060Y-95559524D01*
X252293155Y-95559524D01*
X252388393Y-95511905D01*
X252436012Y-95464286D01*
X252483631Y-95369048D01*
X252483631Y-95083333D01*
X252436012Y-94988095D01*
X252388393Y-94940476D01*
X252483631Y-96035714D02*
X252483631Y-96226190D01*
X252436012Y-96321429D01*
X252388393Y-96369048D01*
X252245536Y-96464286D01*
X252055060Y-96511905D01*
X251674107Y-96511905D01*
X251578869Y-96464286D01*
X251531250Y-96416667D01*
X251483631Y-96321429D01*
X251483631Y-96130952D01*
X251531250Y-96035714D01*
X251578869Y-95988095D01*
X251674107Y-95940476D01*
X251912202Y-95940476D01*
X252007440Y-95988095D01*
X252055060Y-96035714D01*
X252102679Y-96130952D01*
X252102679Y-96321429D01*
X252055060Y-96416667D01*
X252007440Y-96464286D01*
X251912202Y-96511905D01*
X271533631Y-94035714D02*
X270533631Y-94035714D01*
X270533631Y-94273809D01*
X270581250Y-94416667D01*
X270676488Y-94511905D01*
X270771726Y-94559524D01*
X270962202Y-94607143D01*
X271105060Y-94607143D01*
X271295536Y-94559524D01*
X271390774Y-94511905D01*
X271486012Y-94416667D01*
X271533631Y-94273809D01*
X271533631Y-94035714D01*
X270866964Y-95464286D02*
X271533631Y-95464286D01*
X270486012Y-95226190D02*
X271200298Y-94988095D01*
X271200298Y-95607143D01*
X270533631Y-96178571D02*
X270533631Y-96273810D01*
X270581250Y-96369048D01*
X270628869Y-96416667D01*
X270724107Y-96464286D01*
X270914583Y-96511905D01*
X271152679Y-96511905D01*
X271343155Y-96464286D01*
X271438393Y-96416667D01*
X271486012Y-96369048D01*
X271533631Y-96273810D01*
X271533631Y-96178571D01*
X271486012Y-96083333D01*
X271438393Y-96035714D01*
X271343155Y-95988095D01*
X271152679Y-95940476D01*
X270914583Y-95940476D01*
X270724107Y-95988095D01*
X270628869Y-96035714D01*
X270581250Y-96083333D01*
X270533631Y-96178571D01*
X290583631Y-94035714D02*
X289583631Y-94035714D01*
X289583631Y-94273809D01*
X289631250Y-94416667D01*
X289726488Y-94511905D01*
X289821726Y-94559524D01*
X290012202Y-94607143D01*
X290155060Y-94607143D01*
X290345536Y-94559524D01*
X290440774Y-94511905D01*
X290536012Y-94416667D01*
X290583631Y-94273809D01*
X290583631Y-94035714D01*
X289916964Y-95464286D02*
X290583631Y-95464286D01*
X289536012Y-95226190D02*
X290250298Y-94988095D01*
X290250298Y-95607143D01*
X290583631Y-96511905D02*
X290583631Y-95940476D01*
X290583631Y-96226190D02*
X289583631Y-96226190D01*
X289726488Y-96130952D01*
X289821726Y-96035714D01*
X289869345Y-95940476D01*
X321539881Y-94035714D02*
X320539881Y-94035714D01*
X320539881Y-94273809D01*
X320587500Y-94416667D01*
X320682738Y-94511905D01*
X320777976Y-94559524D01*
X320968452Y-94607143D01*
X321111310Y-94607143D01*
X321301786Y-94559524D01*
X321397024Y-94511905D01*
X321492262Y-94416667D01*
X321539881Y-94273809D01*
X321539881Y-94035714D01*
X320873214Y-95464286D02*
X321539881Y-95464286D01*
X320492262Y-95226190D02*
X321206548Y-94988095D01*
X321206548Y-95607143D01*
X320539881Y-95892857D02*
X320539881Y-96511905D01*
X320920833Y-96178571D01*
X320920833Y-96321429D01*
X320968452Y-96416667D01*
X321016071Y-96464286D01*
X321111310Y-96511905D01*
X321349405Y-96511905D01*
X321444643Y-96464286D01*
X321492262Y-96416667D01*
X321539881Y-96321429D01*
X321539881Y-96035714D01*
X321492262Y-95940476D01*
X321444643Y-95892857D01*
X90558631Y-113085714D02*
X89558631Y-113085714D01*
X89558631Y-113323809D01*
X89606250Y-113466667D01*
X89701488Y-113561905D01*
X89796726Y-113609524D01*
X89987202Y-113657143D01*
X90130060Y-113657143D01*
X90320536Y-113609524D01*
X90415774Y-113561905D01*
X90511012Y-113466667D01*
X90558631Y-113323809D01*
X90558631Y-113085714D01*
X89891964Y-114514286D02*
X90558631Y-114514286D01*
X89511012Y-114276190D02*
X90225298Y-114038095D01*
X90225298Y-114657143D01*
X89891964Y-115466667D02*
X90558631Y-115466667D01*
X89511012Y-115228571D02*
X90225298Y-114990476D01*
X90225298Y-115609524D01*
X94130506Y-113085714D02*
X93130506Y-113085714D01*
X93130506Y-113323809D01*
X93178125Y-113466667D01*
X93273363Y-113561905D01*
X93368601Y-113609524D01*
X93559077Y-113657143D01*
X93701935Y-113657143D01*
X93892411Y-113609524D01*
X93987649Y-113561905D01*
X94082887Y-113466667D01*
X94130506Y-113323809D01*
X94130506Y-113085714D01*
X93463839Y-114514286D02*
X94130506Y-114514286D01*
X93082887Y-114276190D02*
X93797173Y-114038095D01*
X93797173Y-114657143D01*
X93130506Y-115514286D02*
X93130506Y-115038095D01*
X93606696Y-114990476D01*
X93559077Y-115038095D01*
X93511458Y-115133333D01*
X93511458Y-115371429D01*
X93559077Y-115466667D01*
X93606696Y-115514286D01*
X93701935Y-115561905D01*
X93940030Y-115561905D01*
X94035268Y-115514286D01*
X94082887Y-115466667D01*
X94130506Y-115371429D01*
X94130506Y-115133333D01*
X94082887Y-115038095D01*
X94035268Y-114990476D01*
X109672381Y-113974714D02*
X108672381Y-113974714D01*
X108672381Y-114212809D01*
X108720000Y-114355667D01*
X108815238Y-114450905D01*
X108910476Y-114498524D01*
X109100952Y-114546143D01*
X109243810Y-114546143D01*
X109434286Y-114498524D01*
X109529524Y-114450905D01*
X109624762Y-114355667D01*
X109672381Y-114212809D01*
X109672381Y-113974714D01*
X109005714Y-115403286D02*
X109672381Y-115403286D01*
X108624762Y-115165190D02*
X109339048Y-114927095D01*
X109339048Y-115546143D01*
X108672381Y-116355667D02*
X108672381Y-116165190D01*
X108720000Y-116069952D01*
X108767619Y-116022333D01*
X108910476Y-115927095D01*
X109100952Y-115879476D01*
X109481905Y-115879476D01*
X109577143Y-115927095D01*
X109624762Y-115974714D01*
X109672381Y-116069952D01*
X109672381Y-116260429D01*
X109624762Y-116355667D01*
X109577143Y-116403286D01*
X109481905Y-116450905D01*
X109243810Y-116450905D01*
X109148571Y-116403286D01*
X109100952Y-116355667D01*
X109053333Y-116260429D01*
X109053333Y-116069952D01*
X109100952Y-115974714D01*
X109148571Y-115927095D01*
X109243810Y-115879476D01*
X128468381Y-113085714D02*
X127468381Y-113085714D01*
X127468381Y-113323809D01*
X127516000Y-113466667D01*
X127611238Y-113561905D01*
X127706476Y-113609524D01*
X127896952Y-113657143D01*
X128039810Y-113657143D01*
X128230286Y-113609524D01*
X128325524Y-113561905D01*
X128420762Y-113466667D01*
X128468381Y-113323809D01*
X128468381Y-113085714D01*
X127801714Y-114514286D02*
X128468381Y-114514286D01*
X127420762Y-114276190D02*
X128135048Y-114038095D01*
X128135048Y-114657143D01*
X127468381Y-114942857D02*
X127468381Y-115609524D01*
X128468381Y-115180952D01*
X132024381Y-111053714D02*
X131024381Y-111053714D01*
X131024381Y-111291809D01*
X131072000Y-111434667D01*
X131167238Y-111529905D01*
X131262476Y-111577524D01*
X131452952Y-111625143D01*
X131595810Y-111625143D01*
X131786286Y-111577524D01*
X131881524Y-111529905D01*
X131976762Y-111434667D01*
X132024381Y-111291809D01*
X132024381Y-111053714D01*
X131357714Y-112482286D02*
X132024381Y-112482286D01*
X130976762Y-112244190D02*
X131691048Y-112006095D01*
X131691048Y-112625143D01*
X131452952Y-113148952D02*
X131405333Y-113053714D01*
X131357714Y-113006095D01*
X131262476Y-112958476D01*
X131214857Y-112958476D01*
X131119619Y-113006095D01*
X131072000Y-113053714D01*
X131024381Y-113148952D01*
X131024381Y-113339429D01*
X131072000Y-113434667D01*
X131119619Y-113482286D01*
X131214857Y-113529905D01*
X131262476Y-113529905D01*
X131357714Y-113482286D01*
X131405333Y-113434667D01*
X131452952Y-113339429D01*
X131452952Y-113148952D01*
X131500571Y-113053714D01*
X131548190Y-113006095D01*
X131643429Y-112958476D01*
X131833905Y-112958476D01*
X131929143Y-113006095D01*
X131976762Y-113053714D01*
X132024381Y-113148952D01*
X132024381Y-113339429D01*
X131976762Y-113434667D01*
X131929143Y-113482286D01*
X131833905Y-113529905D01*
X131643429Y-113529905D01*
X131548190Y-113482286D01*
X131500571Y-113434667D01*
X131452952Y-113339429D01*
X166758631Y-113085714D02*
X165758631Y-113085714D01*
X165758631Y-113323809D01*
X165806250Y-113466667D01*
X165901488Y-113561905D01*
X165996726Y-113609524D01*
X166187202Y-113657143D01*
X166330060Y-113657143D01*
X166520536Y-113609524D01*
X166615774Y-113561905D01*
X166711012Y-113466667D01*
X166758631Y-113323809D01*
X166758631Y-113085714D01*
X166091964Y-114514286D02*
X166758631Y-114514286D01*
X165711012Y-114276190D02*
X166425298Y-114038095D01*
X166425298Y-114657143D01*
X166758631Y-115085714D02*
X166758631Y-115276190D01*
X166711012Y-115371429D01*
X166663393Y-115419048D01*
X166520536Y-115514286D01*
X166330060Y-115561905D01*
X165949107Y-115561905D01*
X165853869Y-115514286D01*
X165806250Y-115466667D01*
X165758631Y-115371429D01*
X165758631Y-115180952D01*
X165806250Y-115085714D01*
X165853869Y-115038095D01*
X165949107Y-114990476D01*
X166187202Y-114990476D01*
X166282440Y-115038095D01*
X166330060Y-115085714D01*
X166377679Y-115180952D01*
X166377679Y-115371429D01*
X166330060Y-115466667D01*
X166282440Y-115514286D01*
X166187202Y-115561905D01*
X185808631Y-113085714D02*
X184808631Y-113085714D01*
X184808631Y-113323809D01*
X184856250Y-113466667D01*
X184951488Y-113561905D01*
X185046726Y-113609524D01*
X185237202Y-113657143D01*
X185380060Y-113657143D01*
X185570536Y-113609524D01*
X185665774Y-113561905D01*
X185761012Y-113466667D01*
X185808631Y-113323809D01*
X185808631Y-113085714D01*
X184808631Y-114561905D02*
X184808631Y-114085714D01*
X185284821Y-114038095D01*
X185237202Y-114085714D01*
X185189583Y-114180952D01*
X185189583Y-114419048D01*
X185237202Y-114514286D01*
X185284821Y-114561905D01*
X185380060Y-114609524D01*
X185618155Y-114609524D01*
X185713393Y-114561905D01*
X185761012Y-114514286D01*
X185808631Y-114419048D01*
X185808631Y-114180952D01*
X185761012Y-114085714D01*
X185713393Y-114038095D01*
X184808631Y-115228571D02*
X184808631Y-115323810D01*
X184856250Y-115419048D01*
X184903869Y-115466667D01*
X184999107Y-115514286D01*
X185189583Y-115561905D01*
X185427679Y-115561905D01*
X185618155Y-115514286D01*
X185713393Y-115466667D01*
X185761012Y-115419048D01*
X185808631Y-115323810D01*
X185808631Y-115228571D01*
X185761012Y-115133333D01*
X185713393Y-115085714D01*
X185618155Y-115038095D01*
X185427679Y-114990476D01*
X185189583Y-114990476D01*
X184999107Y-115038095D01*
X184903869Y-115085714D01*
X184856250Y-115133333D01*
X184808631Y-115228571D01*
X204858631Y-113085714D02*
X203858631Y-113085714D01*
X203858631Y-113323809D01*
X203906250Y-113466667D01*
X204001488Y-113561905D01*
X204096726Y-113609524D01*
X204287202Y-113657143D01*
X204430060Y-113657143D01*
X204620536Y-113609524D01*
X204715774Y-113561905D01*
X204811012Y-113466667D01*
X204858631Y-113323809D01*
X204858631Y-113085714D01*
X203858631Y-114561905D02*
X203858631Y-114085714D01*
X204334821Y-114038095D01*
X204287202Y-114085714D01*
X204239583Y-114180952D01*
X204239583Y-114419048D01*
X204287202Y-114514286D01*
X204334821Y-114561905D01*
X204430060Y-114609524D01*
X204668155Y-114609524D01*
X204763393Y-114561905D01*
X204811012Y-114514286D01*
X204858631Y-114419048D01*
X204858631Y-114180952D01*
X204811012Y-114085714D01*
X204763393Y-114038095D01*
X204858631Y-115561905D02*
X204858631Y-114990476D01*
X204858631Y-115276190D02*
X203858631Y-115276190D01*
X204001488Y-115180952D01*
X204096726Y-115085714D01*
X204144345Y-114990476D01*
X223908631Y-113085714D02*
X222908631Y-113085714D01*
X222908631Y-113323809D01*
X222956250Y-113466667D01*
X223051488Y-113561905D01*
X223146726Y-113609524D01*
X223337202Y-113657143D01*
X223480060Y-113657143D01*
X223670536Y-113609524D01*
X223765774Y-113561905D01*
X223861012Y-113466667D01*
X223908631Y-113323809D01*
X223908631Y-113085714D01*
X222908631Y-114561905D02*
X222908631Y-114085714D01*
X223384821Y-114038095D01*
X223337202Y-114085714D01*
X223289583Y-114180952D01*
X223289583Y-114419048D01*
X223337202Y-114514286D01*
X223384821Y-114561905D01*
X223480060Y-114609524D01*
X223718155Y-114609524D01*
X223813393Y-114561905D01*
X223861012Y-114514286D01*
X223908631Y-114419048D01*
X223908631Y-114180952D01*
X223861012Y-114085714D01*
X223813393Y-114038095D01*
X223003869Y-114990476D02*
X222956250Y-115038095D01*
X222908631Y-115133333D01*
X222908631Y-115371429D01*
X222956250Y-115466667D01*
X223003869Y-115514286D01*
X223099107Y-115561905D01*
X223194345Y-115561905D01*
X223337202Y-115514286D01*
X223908631Y-114942857D01*
X223908631Y-115561905D01*
X242958631Y-113085714D02*
X241958631Y-113085714D01*
X241958631Y-113323809D01*
X242006250Y-113466667D01*
X242101488Y-113561905D01*
X242196726Y-113609524D01*
X242387202Y-113657143D01*
X242530060Y-113657143D01*
X242720536Y-113609524D01*
X242815774Y-113561905D01*
X242911012Y-113466667D01*
X242958631Y-113323809D01*
X242958631Y-113085714D01*
X241958631Y-114561905D02*
X241958631Y-114085714D01*
X242434821Y-114038095D01*
X242387202Y-114085714D01*
X242339583Y-114180952D01*
X242339583Y-114419048D01*
X242387202Y-114514286D01*
X242434821Y-114561905D01*
X242530060Y-114609524D01*
X242768155Y-114609524D01*
X242863393Y-114561905D01*
X242911012Y-114514286D01*
X242958631Y-114419048D01*
X242958631Y-114180952D01*
X242911012Y-114085714D01*
X242863393Y-114038095D01*
X241958631Y-114942857D02*
X241958631Y-115561905D01*
X242339583Y-115228571D01*
X242339583Y-115371429D01*
X242387202Y-115466667D01*
X242434821Y-115514286D01*
X242530060Y-115561905D01*
X242768155Y-115561905D01*
X242863393Y-115514286D01*
X242911012Y-115466667D01*
X242958631Y-115371429D01*
X242958631Y-115085714D01*
X242911012Y-114990476D01*
X242863393Y-114942857D01*
X261881881Y-115498714D02*
X260881881Y-115498714D01*
X260881881Y-115736809D01*
X260929500Y-115879667D01*
X261024738Y-115974905D01*
X261119976Y-116022524D01*
X261310452Y-116070143D01*
X261453310Y-116070143D01*
X261643786Y-116022524D01*
X261739024Y-115974905D01*
X261834262Y-115879667D01*
X261881881Y-115736809D01*
X261881881Y-115498714D01*
X260881881Y-116974905D02*
X260881881Y-116498714D01*
X261358071Y-116451095D01*
X261310452Y-116498714D01*
X261262833Y-116593952D01*
X261262833Y-116832048D01*
X261310452Y-116927286D01*
X261358071Y-116974905D01*
X261453310Y-117022524D01*
X261691405Y-117022524D01*
X261786643Y-116974905D01*
X261834262Y-116927286D01*
X261881881Y-116832048D01*
X261881881Y-116593952D01*
X261834262Y-116498714D01*
X261786643Y-116451095D01*
X261215214Y-117879667D02*
X261881881Y-117879667D01*
X260834262Y-117641571D02*
X261548548Y-117403476D01*
X261548548Y-118022524D01*
X200096131Y-132135714D02*
X199096131Y-132135714D01*
X199096131Y-132373809D01*
X199143750Y-132516667D01*
X199238988Y-132611905D01*
X199334226Y-132659524D01*
X199524702Y-132707143D01*
X199667560Y-132707143D01*
X199858036Y-132659524D01*
X199953274Y-132611905D01*
X200048512Y-132516667D01*
X200096131Y-132373809D01*
X200096131Y-132135714D01*
X199096131Y-133611905D02*
X199096131Y-133135714D01*
X199572321Y-133088095D01*
X199524702Y-133135714D01*
X199477083Y-133230952D01*
X199477083Y-133469048D01*
X199524702Y-133564286D01*
X199572321Y-133611905D01*
X199667560Y-133659524D01*
X199905655Y-133659524D01*
X200000893Y-133611905D01*
X200048512Y-133564286D01*
X200096131Y-133469048D01*
X200096131Y-133230952D01*
X200048512Y-133135714D01*
X200000893Y-133088095D01*
X199096131Y-134564286D02*
X199096131Y-134088095D01*
X199572321Y-134040476D01*
X199524702Y-134088095D01*
X199477083Y-134183333D01*
X199477083Y-134421429D01*
X199524702Y-134516667D01*
X199572321Y-134564286D01*
X199667560Y-134611905D01*
X199905655Y-134611905D01*
X200000893Y-134564286D01*
X200048512Y-134516667D01*
X200096131Y-134421429D01*
X200096131Y-134183333D01*
X200048512Y-134088095D01*
X200000893Y-134040476D01*
X265501381Y-115117714D02*
X264501381Y-115117714D01*
X264501381Y-115355809D01*
X264549000Y-115498667D01*
X264644238Y-115593905D01*
X264739476Y-115641524D01*
X264929952Y-115689143D01*
X265072810Y-115689143D01*
X265263286Y-115641524D01*
X265358524Y-115593905D01*
X265453762Y-115498667D01*
X265501381Y-115355809D01*
X265501381Y-115117714D01*
X264501381Y-116593905D02*
X264501381Y-116117714D01*
X264977571Y-116070095D01*
X264929952Y-116117714D01*
X264882333Y-116212952D01*
X264882333Y-116451048D01*
X264929952Y-116546286D01*
X264977571Y-116593905D01*
X265072810Y-116641524D01*
X265310905Y-116641524D01*
X265406143Y-116593905D01*
X265453762Y-116546286D01*
X265501381Y-116451048D01*
X265501381Y-116212952D01*
X265453762Y-116117714D01*
X265406143Y-116070095D01*
X264501381Y-116974857D02*
X264501381Y-117641524D01*
X265501381Y-117212952D01*
X287980381Y-113085714D02*
X286980381Y-113085714D01*
X286980381Y-113323809D01*
X287028000Y-113466667D01*
X287123238Y-113561905D01*
X287218476Y-113609524D01*
X287408952Y-113657143D01*
X287551810Y-113657143D01*
X287742286Y-113609524D01*
X287837524Y-113561905D01*
X287932762Y-113466667D01*
X287980381Y-113323809D01*
X287980381Y-113085714D01*
X286980381Y-114561905D02*
X286980381Y-114085714D01*
X287456571Y-114038095D01*
X287408952Y-114085714D01*
X287361333Y-114180952D01*
X287361333Y-114419048D01*
X287408952Y-114514286D01*
X287456571Y-114561905D01*
X287551810Y-114609524D01*
X287789905Y-114609524D01*
X287885143Y-114561905D01*
X287932762Y-114514286D01*
X287980381Y-114419048D01*
X287980381Y-114180952D01*
X287932762Y-114085714D01*
X287885143Y-114038095D01*
X287408952Y-115180952D02*
X287361333Y-115085714D01*
X287313714Y-115038095D01*
X287218476Y-114990476D01*
X287170857Y-114990476D01*
X287075619Y-115038095D01*
X287028000Y-115085714D01*
X286980381Y-115180952D01*
X286980381Y-115371429D01*
X287028000Y-115466667D01*
X287075619Y-115514286D01*
X287170857Y-115561905D01*
X287218476Y-115561905D01*
X287313714Y-115514286D01*
X287361333Y-115466667D01*
X287408952Y-115371429D01*
X287408952Y-115180952D01*
X287456571Y-115085714D01*
X287504190Y-115038095D01*
X287599429Y-114990476D01*
X287789905Y-114990476D01*
X287885143Y-115038095D01*
X287932762Y-115085714D01*
X287980381Y-115180952D01*
X287980381Y-115371429D01*
X287932762Y-115466667D01*
X287885143Y-115514286D01*
X287789905Y-115561905D01*
X287599429Y-115561905D01*
X287504190Y-115514286D01*
X287456571Y-115466667D01*
X287408952Y-115371429D01*
X316777381Y-113085714D02*
X315777381Y-113085714D01*
X315777381Y-113323809D01*
X315825000Y-113466667D01*
X315920238Y-113561905D01*
X316015476Y-113609524D01*
X316205952Y-113657143D01*
X316348810Y-113657143D01*
X316539286Y-113609524D01*
X316634524Y-113561905D01*
X316729762Y-113466667D01*
X316777381Y-113323809D01*
X316777381Y-113085714D01*
X315777381Y-114561905D02*
X315777381Y-114085714D01*
X316253571Y-114038095D01*
X316205952Y-114085714D01*
X316158333Y-114180952D01*
X316158333Y-114419048D01*
X316205952Y-114514286D01*
X316253571Y-114561905D01*
X316348810Y-114609524D01*
X316586905Y-114609524D01*
X316682143Y-114561905D01*
X316729762Y-114514286D01*
X316777381Y-114419048D01*
X316777381Y-114180952D01*
X316729762Y-114085714D01*
X316682143Y-114038095D01*
X316777381Y-115085714D02*
X316777381Y-115276190D01*
X316729762Y-115371429D01*
X316682143Y-115419048D01*
X316539286Y-115514286D01*
X316348810Y-115561905D01*
X315967857Y-115561905D01*
X315872619Y-115514286D01*
X315825000Y-115466667D01*
X315777381Y-115371429D01*
X315777381Y-115180952D01*
X315825000Y-115085714D01*
X315872619Y-115038095D01*
X315967857Y-114990476D01*
X316205952Y-114990476D01*
X316301190Y-115038095D01*
X316348810Y-115085714D01*
X316396429Y-115180952D01*
X316396429Y-115371429D01*
X316348810Y-115466667D01*
X316301190Y-115514286D01*
X316205952Y-115561905D01*
X71508631Y-132135714D02*
X70508631Y-132135714D01*
X70508631Y-132373809D01*
X70556250Y-132516667D01*
X70651488Y-132611905D01*
X70746726Y-132659524D01*
X70937202Y-132707143D01*
X71080060Y-132707143D01*
X71270536Y-132659524D01*
X71365774Y-132611905D01*
X71461012Y-132516667D01*
X71508631Y-132373809D01*
X71508631Y-132135714D01*
X70508631Y-133564286D02*
X70508631Y-133373809D01*
X70556250Y-133278571D01*
X70603869Y-133230952D01*
X70746726Y-133135714D01*
X70937202Y-133088095D01*
X71318155Y-133088095D01*
X71413393Y-133135714D01*
X71461012Y-133183333D01*
X71508631Y-133278571D01*
X71508631Y-133469048D01*
X71461012Y-133564286D01*
X71413393Y-133611905D01*
X71318155Y-133659524D01*
X71080060Y-133659524D01*
X70984821Y-133611905D01*
X70937202Y-133564286D01*
X70889583Y-133469048D01*
X70889583Y-133278571D01*
X70937202Y-133183333D01*
X70984821Y-133135714D01*
X71080060Y-133088095D01*
X70508631Y-134278571D02*
X70508631Y-134373810D01*
X70556250Y-134469048D01*
X70603869Y-134516667D01*
X70699107Y-134564286D01*
X70889583Y-134611905D01*
X71127679Y-134611905D01*
X71318155Y-134564286D01*
X71413393Y-134516667D01*
X71461012Y-134469048D01*
X71508631Y-134373810D01*
X71508631Y-134278571D01*
X71461012Y-134183333D01*
X71413393Y-134135714D01*
X71318155Y-134088095D01*
X71127679Y-134040476D01*
X70889583Y-134040476D01*
X70699107Y-134088095D01*
X70603869Y-134135714D01*
X70556250Y-134183333D01*
X70508631Y-134278571D01*
X95321131Y-132135714D02*
X94321131Y-132135714D01*
X94321131Y-132373809D01*
X94368750Y-132516667D01*
X94463988Y-132611905D01*
X94559226Y-132659524D01*
X94749702Y-132707143D01*
X94892560Y-132707143D01*
X95083036Y-132659524D01*
X95178274Y-132611905D01*
X95273512Y-132516667D01*
X95321131Y-132373809D01*
X95321131Y-132135714D01*
X94321131Y-133564286D02*
X94321131Y-133373809D01*
X94368750Y-133278571D01*
X94416369Y-133230952D01*
X94559226Y-133135714D01*
X94749702Y-133088095D01*
X95130655Y-133088095D01*
X95225893Y-133135714D01*
X95273512Y-133183333D01*
X95321131Y-133278571D01*
X95321131Y-133469048D01*
X95273512Y-133564286D01*
X95225893Y-133611905D01*
X95130655Y-133659524D01*
X94892560Y-133659524D01*
X94797321Y-133611905D01*
X94749702Y-133564286D01*
X94702083Y-133469048D01*
X94702083Y-133278571D01*
X94749702Y-133183333D01*
X94797321Y-133135714D01*
X94892560Y-133088095D01*
X95321131Y-134611905D02*
X95321131Y-134040476D01*
X95321131Y-134326190D02*
X94321131Y-134326190D01*
X94463988Y-134230952D01*
X94559226Y-134135714D01*
X94606845Y-134040476D01*
X119133631Y-132135714D02*
X118133631Y-132135714D01*
X118133631Y-132373809D01*
X118181250Y-132516667D01*
X118276488Y-132611905D01*
X118371726Y-132659524D01*
X118562202Y-132707143D01*
X118705060Y-132707143D01*
X118895536Y-132659524D01*
X118990774Y-132611905D01*
X119086012Y-132516667D01*
X119133631Y-132373809D01*
X119133631Y-132135714D01*
X118133631Y-133564286D02*
X118133631Y-133373809D01*
X118181250Y-133278571D01*
X118228869Y-133230952D01*
X118371726Y-133135714D01*
X118562202Y-133088095D01*
X118943155Y-133088095D01*
X119038393Y-133135714D01*
X119086012Y-133183333D01*
X119133631Y-133278571D01*
X119133631Y-133469048D01*
X119086012Y-133564286D01*
X119038393Y-133611905D01*
X118943155Y-133659524D01*
X118705060Y-133659524D01*
X118609821Y-133611905D01*
X118562202Y-133564286D01*
X118514583Y-133469048D01*
X118514583Y-133278571D01*
X118562202Y-133183333D01*
X118609821Y-133135714D01*
X118705060Y-133088095D01*
X118228869Y-134040476D02*
X118181250Y-134088095D01*
X118133631Y-134183333D01*
X118133631Y-134421429D01*
X118181250Y-134516667D01*
X118228869Y-134564286D01*
X118324107Y-134611905D01*
X118419345Y-134611905D01*
X118562202Y-134564286D01*
X119133631Y-133992857D01*
X119133631Y-134611905D01*
X256992381Y-132135714D02*
X255992381Y-132135714D01*
X255992381Y-132373809D01*
X256040000Y-132516667D01*
X256135238Y-132611905D01*
X256230476Y-132659524D01*
X256420952Y-132707143D01*
X256563810Y-132707143D01*
X256754286Y-132659524D01*
X256849524Y-132611905D01*
X256944762Y-132516667D01*
X256992381Y-132373809D01*
X256992381Y-132135714D01*
X255992381Y-133564286D02*
X255992381Y-133373809D01*
X256040000Y-133278571D01*
X256087619Y-133230952D01*
X256230476Y-133135714D01*
X256420952Y-133088095D01*
X256801905Y-133088095D01*
X256897143Y-133135714D01*
X256944762Y-133183333D01*
X256992381Y-133278571D01*
X256992381Y-133469048D01*
X256944762Y-133564286D01*
X256897143Y-133611905D01*
X256801905Y-133659524D01*
X256563810Y-133659524D01*
X256468571Y-133611905D01*
X256420952Y-133564286D01*
X256373333Y-133469048D01*
X256373333Y-133278571D01*
X256420952Y-133183333D01*
X256468571Y-133135714D01*
X256563810Y-133088095D01*
X256420952Y-134230952D02*
X256373333Y-134135714D01*
X256325714Y-134088095D01*
X256230476Y-134040476D01*
X256182857Y-134040476D01*
X256087619Y-134088095D01*
X256040000Y-134135714D01*
X255992381Y-134230952D01*
X255992381Y-134421429D01*
X256040000Y-134516667D01*
X256087619Y-134564286D01*
X256182857Y-134611905D01*
X256230476Y-134611905D01*
X256325714Y-134564286D01*
X256373333Y-134516667D01*
X256420952Y-134421429D01*
X256420952Y-134230952D01*
X256468571Y-134135714D01*
X256516190Y-134088095D01*
X256611429Y-134040476D01*
X256801905Y-134040476D01*
X256897143Y-134088095D01*
X256944762Y-134135714D01*
X256992381Y-134230952D01*
X256992381Y-134421429D01*
X256944762Y-134516667D01*
X256897143Y-134564286D01*
X256801905Y-134611905D01*
X256611429Y-134611905D01*
X256516190Y-134564286D01*
X256468571Y-134516667D01*
X256420952Y-134421429D01*
X260675381Y-134167714D02*
X259675381Y-134167714D01*
X259675381Y-134405809D01*
X259723000Y-134548667D01*
X259818238Y-134643905D01*
X259913476Y-134691524D01*
X260103952Y-134739143D01*
X260246810Y-134739143D01*
X260437286Y-134691524D01*
X260532524Y-134643905D01*
X260627762Y-134548667D01*
X260675381Y-134405809D01*
X260675381Y-134167714D01*
X259675381Y-135596286D02*
X259675381Y-135405809D01*
X259723000Y-135310571D01*
X259770619Y-135262952D01*
X259913476Y-135167714D01*
X260103952Y-135120095D01*
X260484905Y-135120095D01*
X260580143Y-135167714D01*
X260627762Y-135215333D01*
X260675381Y-135310571D01*
X260675381Y-135501048D01*
X260627762Y-135596286D01*
X260580143Y-135643905D01*
X260484905Y-135691524D01*
X260246810Y-135691524D01*
X260151571Y-135643905D01*
X260103952Y-135596286D01*
X260056333Y-135501048D01*
X260056333Y-135310571D01*
X260103952Y-135215333D01*
X260151571Y-135167714D01*
X260246810Y-135120095D01*
X260675381Y-136167714D02*
X260675381Y-136358190D01*
X260627762Y-136453429D01*
X260580143Y-136501048D01*
X260437286Y-136596286D01*
X260246810Y-136643905D01*
X259865857Y-136643905D01*
X259770619Y-136596286D01*
X259723000Y-136548667D01*
X259675381Y-136453429D01*
X259675381Y-136262952D01*
X259723000Y-136167714D01*
X259770619Y-136120095D01*
X259865857Y-136072476D01*
X260103952Y-136072476D01*
X260199190Y-136120095D01*
X260246810Y-136167714D01*
X260294429Y-136262952D01*
X260294429Y-136453429D01*
X260246810Y-136548667D01*
X260199190Y-136596286D01*
X260103952Y-136643905D01*
X280868381Y-126182589D02*
X279868381Y-126182589D01*
X279868381Y-126420684D01*
X279916000Y-126563542D01*
X280011238Y-126658780D01*
X280106476Y-126706399D01*
X280296952Y-126754018D01*
X280439810Y-126754018D01*
X280630286Y-126706399D01*
X280725524Y-126658780D01*
X280820762Y-126563542D01*
X280868381Y-126420684D01*
X280868381Y-126182589D01*
X279868381Y-127087351D02*
X279868381Y-127754018D01*
X280868381Y-127325446D01*
X279868381Y-128325446D02*
X279868381Y-128420685D01*
X279916000Y-128515923D01*
X279963619Y-128563542D01*
X280058857Y-128611161D01*
X280249333Y-128658780D01*
X280487429Y-128658780D01*
X280677905Y-128611161D01*
X280773143Y-128563542D01*
X280820762Y-128515923D01*
X280868381Y-128420685D01*
X280868381Y-128325446D01*
X280820762Y-128230208D01*
X280773143Y-128182589D01*
X280677905Y-128134970D01*
X280487429Y-128087351D01*
X280249333Y-128087351D01*
X280058857Y-128134970D01*
X279963619Y-128182589D01*
X279916000Y-128230208D01*
X279868381Y-128325446D01*
X280868381Y-134675714D02*
X279868381Y-134675714D01*
X279868381Y-134913809D01*
X279916000Y-135056667D01*
X280011238Y-135151905D01*
X280106476Y-135199524D01*
X280296952Y-135247143D01*
X280439810Y-135247143D01*
X280630286Y-135199524D01*
X280725524Y-135151905D01*
X280820762Y-135056667D01*
X280868381Y-134913809D01*
X280868381Y-134675714D01*
X279868381Y-135580476D02*
X279868381Y-136247143D01*
X280868381Y-135818571D01*
X280868381Y-137151905D02*
X280868381Y-136580476D01*
X280868381Y-136866190D02*
X279868381Y-136866190D01*
X280011238Y-136770952D01*
X280106476Y-136675714D01*
X280154095Y-136580476D01*
X314269381Y-134675714D02*
X313269381Y-134675714D01*
X313269381Y-134913809D01*
X313317000Y-135056667D01*
X313412238Y-135151905D01*
X313507476Y-135199524D01*
X313697952Y-135247143D01*
X313840810Y-135247143D01*
X314031286Y-135199524D01*
X314126524Y-135151905D01*
X314221762Y-135056667D01*
X314269381Y-134913809D01*
X314269381Y-134675714D01*
X313269381Y-135580476D02*
X313269381Y-136247143D01*
X314269381Y-135818571D01*
X313364619Y-136580476D02*
X313317000Y-136628095D01*
X313269381Y-136723333D01*
X313269381Y-136961429D01*
X313317000Y-137056667D01*
X313364619Y-137104286D01*
X313459857Y-137151905D01*
X313555095Y-137151905D01*
X313697952Y-137104286D01*
X314269381Y-136532857D01*
X314269381Y-137151905D01*
D16*
X168071679Y-137121416D02*
X168071679Y-136364496D01*
X167783328Y-136364496D01*
X167711241Y-136400540D01*
X167675197Y-136436584D01*
X167639153Y-136508671D01*
X167639153Y-136616803D01*
X167675197Y-136688890D01*
X167711241Y-136724934D01*
X167783328Y-136760978D01*
X168071679Y-136760978D01*
X166918277Y-137121416D02*
X167350803Y-137121416D01*
X167134540Y-137121416D02*
X167134540Y-136364496D01*
X167206628Y-136472628D01*
X167278715Y-136544715D01*
X167350803Y-136580759D01*
D11*
X200097381Y-136739334D02*
X199621190Y-136406000D01*
X200097381Y-136167905D02*
X199097381Y-136167905D01*
X199097381Y-136548858D01*
X199145000Y-136644096D01*
X199192619Y-136691715D01*
X199287857Y-136739334D01*
X199430714Y-136739334D01*
X199525952Y-136691715D01*
X199573571Y-136644096D01*
X199621190Y-136548858D01*
X199621190Y-136167905D01*
X199192619Y-137120286D02*
X199145000Y-137167905D01*
X199097381Y-137263143D01*
X199097381Y-137501239D01*
X199145000Y-137596477D01*
X199192619Y-137644096D01*
X199287857Y-137691715D01*
X199383095Y-137691715D01*
X199525952Y-137644096D01*
X200097381Y-137072667D01*
X200097381Y-137691715D01*
X169488381Y-129500334D02*
X169012190Y-129167000D01*
X169488381Y-128928905D02*
X168488381Y-128928905D01*
X168488381Y-129309858D01*
X168536000Y-129405096D01*
X168583619Y-129452715D01*
X168678857Y-129500334D01*
X168821714Y-129500334D01*
X168916952Y-129452715D01*
X168964571Y-129405096D01*
X169012190Y-129309858D01*
X169012190Y-128928905D01*
X168488381Y-129833667D02*
X168488381Y-130452715D01*
X168869333Y-130119381D01*
X168869333Y-130262239D01*
X168916952Y-130357477D01*
X168964571Y-130405096D01*
X169059810Y-130452715D01*
X169297905Y-130452715D01*
X169393143Y-130405096D01*
X169440762Y-130357477D01*
X169488381Y-130262239D01*
X169488381Y-129976524D01*
X169440762Y-129881286D01*
X169393143Y-129833667D01*
X172790381Y-129500334D02*
X172314190Y-129167000D01*
X172790381Y-128928905D02*
X171790381Y-128928905D01*
X171790381Y-129309858D01*
X171838000Y-129405096D01*
X171885619Y-129452715D01*
X171980857Y-129500334D01*
X172123714Y-129500334D01*
X172218952Y-129452715D01*
X172266571Y-129405096D01*
X172314190Y-129309858D01*
X172314190Y-128928905D01*
X172123714Y-130357477D02*
X172790381Y-130357477D01*
X171742762Y-130119381D02*
X172457048Y-129881286D01*
X172457048Y-130500334D01*
X213232905Y-127214381D02*
X213232905Y-128023905D01*
X213185286Y-128119143D01*
X213137667Y-128166762D01*
X213042429Y-128214381D01*
X212851952Y-128214381D01*
X212756714Y-128166762D01*
X212709095Y-128119143D01*
X212661476Y-128023905D01*
X212661476Y-127214381D01*
X211756714Y-127547714D02*
X211756714Y-128214381D01*
X211994810Y-127166762D02*
X212232905Y-127881048D01*
X211613857Y-127881048D01*
X179974666Y-126722143D02*
X180022285Y-126769762D01*
X180165142Y-126817381D01*
X180260380Y-126817381D01*
X180403238Y-126769762D01*
X180498476Y-126674524D01*
X180546095Y-126579286D01*
X180593714Y-126388810D01*
X180593714Y-126245952D01*
X180546095Y-126055476D01*
X180498476Y-125960238D01*
X180403238Y-125865000D01*
X180260380Y-125817381D01*
X180165142Y-125817381D01*
X180022285Y-125865000D01*
X179974666Y-125912619D01*
X178974666Y-126817381D02*
X179308000Y-126341190D01*
X179546095Y-126817381D02*
X179546095Y-125817381D01*
X179165142Y-125817381D01*
X179069904Y-125865000D01*
X179022285Y-125912619D01*
X178974666Y-126007857D01*
X178974666Y-126150714D01*
X179022285Y-126245952D01*
X179069904Y-126293571D01*
X179165142Y-126341190D01*
X179546095Y-126341190D01*
X178022285Y-125865000D02*
X178117523Y-125817381D01*
X178260380Y-125817381D01*
X178403238Y-125865000D01*
X178498476Y-125960238D01*
X178546095Y-126055476D01*
X178593714Y-126245952D01*
X178593714Y-126388810D01*
X178546095Y-126579286D01*
X178498476Y-126674524D01*
X178403238Y-126769762D01*
X178260380Y-126817381D01*
X178165142Y-126817381D01*
X178022285Y-126769762D01*
X177974666Y-126722143D01*
X177974666Y-126388810D01*
X178165142Y-126388810D01*
X177212761Y-126293571D02*
X177069904Y-126341190D01*
X177022285Y-126388810D01*
X176974666Y-126484048D01*
X176974666Y-126626905D01*
X177022285Y-126722143D01*
X177069904Y-126769762D01*
X177165142Y-126817381D01*
X177546095Y-126817381D01*
X177546095Y-125817381D01*
X177212761Y-125817381D01*
X177117523Y-125865000D01*
X177069904Y-125912619D01*
X177022285Y-126007857D01*
X177022285Y-126103095D01*
X177069904Y-126198333D01*
X177117523Y-126245952D01*
X177212761Y-126293571D01*
X177546095Y-126293571D01*
X176022285Y-126817381D02*
X176593714Y-126817381D01*
X176308000Y-126817381D02*
X176308000Y-125817381D01*
X176403238Y-125960238D01*
X176498476Y-126055476D01*
X176593714Y-126103095D01*
X221972143Y-65008334D02*
X222019762Y-64960715D01*
X222067381Y-64817858D01*
X222067381Y-64722620D01*
X222019762Y-64579762D01*
X221924524Y-64484524D01*
X221829286Y-64436905D01*
X221638810Y-64389286D01*
X221495952Y-64389286D01*
X221305476Y-64436905D01*
X221210238Y-64484524D01*
X221115000Y-64579762D01*
X221067381Y-64722620D01*
X221067381Y-64817858D01*
X221115000Y-64960715D01*
X221162619Y-65008334D01*
X222067381Y-66008334D02*
X221591190Y-65675000D01*
X222067381Y-65436905D02*
X221067381Y-65436905D01*
X221067381Y-65817858D01*
X221115000Y-65913096D01*
X221162619Y-65960715D01*
X221257857Y-66008334D01*
X221400714Y-66008334D01*
X221495952Y-65960715D01*
X221543571Y-65913096D01*
X221591190Y-65817858D01*
X221591190Y-65436905D01*
X221115000Y-66960715D02*
X221067381Y-66865477D01*
X221067381Y-66722620D01*
X221115000Y-66579762D01*
X221210238Y-66484524D01*
X221305476Y-66436905D01*
X221495952Y-66389286D01*
X221638810Y-66389286D01*
X221829286Y-66436905D01*
X221924524Y-66484524D01*
X222019762Y-66579762D01*
X222067381Y-66722620D01*
X222067381Y-66817858D01*
X222019762Y-66960715D01*
X221972143Y-67008334D01*
X221638810Y-67008334D01*
X221638810Y-66817858D01*
X221543571Y-67770239D02*
X221591190Y-67913096D01*
X221638810Y-67960715D01*
X221734048Y-68008334D01*
X221876905Y-68008334D01*
X221972143Y-67960715D01*
X222019762Y-67913096D01*
X222067381Y-67817858D01*
X222067381Y-67436905D01*
X221067381Y-67436905D01*
X221067381Y-67770239D01*
X221115000Y-67865477D01*
X221162619Y-67913096D01*
X221257857Y-67960715D01*
X221353095Y-67960715D01*
X221448333Y-67913096D01*
X221495952Y-67865477D01*
X221543571Y-67770239D01*
X221543571Y-67436905D01*
X221162619Y-68389286D02*
X221115000Y-68436905D01*
X221067381Y-68532143D01*
X221067381Y-68770239D01*
X221115000Y-68865477D01*
X221162619Y-68913096D01*
X221257857Y-68960715D01*
X221353095Y-68960715D01*
X221495952Y-68913096D01*
X222067381Y-68341667D01*
X222067381Y-68960715D01*
X207391143Y-122158334D02*
X207438762Y-122110715D01*
X207486381Y-121967858D01*
X207486381Y-121872620D01*
X207438762Y-121729762D01*
X207343524Y-121634524D01*
X207248286Y-121586905D01*
X207057810Y-121539286D01*
X206914952Y-121539286D01*
X206724476Y-121586905D01*
X206629238Y-121634524D01*
X206534000Y-121729762D01*
X206486381Y-121872620D01*
X206486381Y-121967858D01*
X206534000Y-122110715D01*
X206581619Y-122158334D01*
X207486381Y-123158334D02*
X207010190Y-122825000D01*
X207486381Y-122586905D02*
X206486381Y-122586905D01*
X206486381Y-122967858D01*
X206534000Y-123063096D01*
X206581619Y-123110715D01*
X206676857Y-123158334D01*
X206819714Y-123158334D01*
X206914952Y-123110715D01*
X206962571Y-123063096D01*
X207010190Y-122967858D01*
X207010190Y-122586905D01*
X206534000Y-124110715D02*
X206486381Y-124015477D01*
X206486381Y-123872620D01*
X206534000Y-123729762D01*
X206629238Y-123634524D01*
X206724476Y-123586905D01*
X206914952Y-123539286D01*
X207057810Y-123539286D01*
X207248286Y-123586905D01*
X207343524Y-123634524D01*
X207438762Y-123729762D01*
X207486381Y-123872620D01*
X207486381Y-123967858D01*
X207438762Y-124110715D01*
X207391143Y-124158334D01*
X207057810Y-124158334D01*
X207057810Y-123967858D01*
X206962571Y-124920239D02*
X207010190Y-125063096D01*
X207057810Y-125110715D01*
X207153048Y-125158334D01*
X207295905Y-125158334D01*
X207391143Y-125110715D01*
X207438762Y-125063096D01*
X207486381Y-124967858D01*
X207486381Y-124586905D01*
X206486381Y-124586905D01*
X206486381Y-124920239D01*
X206534000Y-125015477D01*
X206581619Y-125063096D01*
X206676857Y-125110715D01*
X206772095Y-125110715D01*
X206867333Y-125063096D01*
X206914952Y-125015477D01*
X206962571Y-124920239D01*
X206962571Y-124586905D01*
X206486381Y-125491667D02*
X206486381Y-126110715D01*
X206867333Y-125777381D01*
X206867333Y-125920239D01*
X206914952Y-126015477D01*
X206962571Y-126063096D01*
X207057810Y-126110715D01*
X207295905Y-126110715D01*
X207391143Y-126063096D01*
X207438762Y-126015477D01*
X207486381Y-125920239D01*
X207486381Y-125634524D01*
X207438762Y-125539286D01*
X207391143Y-125491667D01*
X174347143Y-65008334D02*
X174394762Y-64960715D01*
X174442381Y-64817858D01*
X174442381Y-64722620D01*
X174394762Y-64579762D01*
X174299524Y-64484524D01*
X174204286Y-64436905D01*
X174013810Y-64389286D01*
X173870952Y-64389286D01*
X173680476Y-64436905D01*
X173585238Y-64484524D01*
X173490000Y-64579762D01*
X173442381Y-64722620D01*
X173442381Y-64817858D01*
X173490000Y-64960715D01*
X173537619Y-65008334D01*
X174442381Y-66008334D02*
X173966190Y-65675000D01*
X174442381Y-65436905D02*
X173442381Y-65436905D01*
X173442381Y-65817858D01*
X173490000Y-65913096D01*
X173537619Y-65960715D01*
X173632857Y-66008334D01*
X173775714Y-66008334D01*
X173870952Y-65960715D01*
X173918571Y-65913096D01*
X173966190Y-65817858D01*
X173966190Y-65436905D01*
X173490000Y-66960715D02*
X173442381Y-66865477D01*
X173442381Y-66722620D01*
X173490000Y-66579762D01*
X173585238Y-66484524D01*
X173680476Y-66436905D01*
X173870952Y-66389286D01*
X174013810Y-66389286D01*
X174204286Y-66436905D01*
X174299524Y-66484524D01*
X174394762Y-66579762D01*
X174442381Y-66722620D01*
X174442381Y-66817858D01*
X174394762Y-66960715D01*
X174347143Y-67008334D01*
X174013810Y-67008334D01*
X174013810Y-66817858D01*
X173918571Y-67770239D02*
X173966190Y-67913096D01*
X174013810Y-67960715D01*
X174109048Y-68008334D01*
X174251905Y-68008334D01*
X174347143Y-67960715D01*
X174394762Y-67913096D01*
X174442381Y-67817858D01*
X174442381Y-67436905D01*
X173442381Y-67436905D01*
X173442381Y-67770239D01*
X173490000Y-67865477D01*
X173537619Y-67913096D01*
X173632857Y-67960715D01*
X173728095Y-67960715D01*
X173823333Y-67913096D01*
X173870952Y-67865477D01*
X173918571Y-67770239D01*
X173918571Y-67436905D01*
X173775714Y-68865477D02*
X174442381Y-68865477D01*
X173394762Y-68627381D02*
X174109048Y-68389286D01*
X174109048Y-69008334D01*
X255016143Y-122158334D02*
X255063762Y-122110715D01*
X255111381Y-121967858D01*
X255111381Y-121872620D01*
X255063762Y-121729762D01*
X254968524Y-121634524D01*
X254873286Y-121586905D01*
X254682810Y-121539286D01*
X254539952Y-121539286D01*
X254349476Y-121586905D01*
X254254238Y-121634524D01*
X254159000Y-121729762D01*
X254111381Y-121872620D01*
X254111381Y-121967858D01*
X254159000Y-122110715D01*
X254206619Y-122158334D01*
X255111381Y-123158334D02*
X254635190Y-122825000D01*
X255111381Y-122586905D02*
X254111381Y-122586905D01*
X254111381Y-122967858D01*
X254159000Y-123063096D01*
X254206619Y-123110715D01*
X254301857Y-123158334D01*
X254444714Y-123158334D01*
X254539952Y-123110715D01*
X254587571Y-123063096D01*
X254635190Y-122967858D01*
X254635190Y-122586905D01*
X254159000Y-124110715D02*
X254111381Y-124015477D01*
X254111381Y-123872620D01*
X254159000Y-123729762D01*
X254254238Y-123634524D01*
X254349476Y-123586905D01*
X254539952Y-123539286D01*
X254682810Y-123539286D01*
X254873286Y-123586905D01*
X254968524Y-123634524D01*
X255063762Y-123729762D01*
X255111381Y-123872620D01*
X255111381Y-123967858D01*
X255063762Y-124110715D01*
X255016143Y-124158334D01*
X254682810Y-124158334D01*
X254682810Y-123967858D01*
X254587571Y-124920239D02*
X254635190Y-125063096D01*
X254682810Y-125110715D01*
X254778048Y-125158334D01*
X254920905Y-125158334D01*
X255016143Y-125110715D01*
X255063762Y-125063096D01*
X255111381Y-124967858D01*
X255111381Y-124586905D01*
X254111381Y-124586905D01*
X254111381Y-124920239D01*
X254159000Y-125015477D01*
X254206619Y-125063096D01*
X254301857Y-125110715D01*
X254397095Y-125110715D01*
X254492333Y-125063096D01*
X254539952Y-125015477D01*
X254587571Y-124920239D01*
X254587571Y-124586905D01*
X254111381Y-126063096D02*
X254111381Y-125586905D01*
X254587571Y-125539286D01*
X254539952Y-125586905D01*
X254492333Y-125682143D01*
X254492333Y-125920239D01*
X254539952Y-126015477D01*
X254587571Y-126063096D01*
X254682810Y-126110715D01*
X254920905Y-126110715D01*
X255016143Y-126063096D01*
X255063762Y-126015477D01*
X255111381Y-125920239D01*
X255111381Y-125682143D01*
X255063762Y-125586905D01*
X255016143Y-125539286D01*
X126722143Y-65008334D02*
X126769762Y-64960715D01*
X126817381Y-64817858D01*
X126817381Y-64722620D01*
X126769762Y-64579762D01*
X126674524Y-64484524D01*
X126579286Y-64436905D01*
X126388810Y-64389286D01*
X126245952Y-64389286D01*
X126055476Y-64436905D01*
X125960238Y-64484524D01*
X125865000Y-64579762D01*
X125817381Y-64722620D01*
X125817381Y-64817858D01*
X125865000Y-64960715D01*
X125912619Y-65008334D01*
X126817381Y-66008334D02*
X126341190Y-65675000D01*
X126817381Y-65436905D02*
X125817381Y-65436905D01*
X125817381Y-65817858D01*
X125865000Y-65913096D01*
X125912619Y-65960715D01*
X126007857Y-66008334D01*
X126150714Y-66008334D01*
X126245952Y-65960715D01*
X126293571Y-65913096D01*
X126341190Y-65817858D01*
X126341190Y-65436905D01*
X125865000Y-66960715D02*
X125817381Y-66865477D01*
X125817381Y-66722620D01*
X125865000Y-66579762D01*
X125960238Y-66484524D01*
X126055476Y-66436905D01*
X126245952Y-66389286D01*
X126388810Y-66389286D01*
X126579286Y-66436905D01*
X126674524Y-66484524D01*
X126769762Y-66579762D01*
X126817381Y-66722620D01*
X126817381Y-66817858D01*
X126769762Y-66960715D01*
X126722143Y-67008334D01*
X126388810Y-67008334D01*
X126388810Y-66817858D01*
X126293571Y-67770239D02*
X126341190Y-67913096D01*
X126388810Y-67960715D01*
X126484048Y-68008334D01*
X126626905Y-68008334D01*
X126722143Y-67960715D01*
X126769762Y-67913096D01*
X126817381Y-67817858D01*
X126817381Y-67436905D01*
X125817381Y-67436905D01*
X125817381Y-67770239D01*
X125865000Y-67865477D01*
X125912619Y-67913096D01*
X126007857Y-67960715D01*
X126103095Y-67960715D01*
X126198333Y-67913096D01*
X126245952Y-67865477D01*
X126293571Y-67770239D01*
X126293571Y-67436905D01*
X125817381Y-68865477D02*
X125817381Y-68675000D01*
X125865000Y-68579762D01*
X125912619Y-68532143D01*
X126055476Y-68436905D01*
X126245952Y-68389286D01*
X126626905Y-68389286D01*
X126722143Y-68436905D01*
X126769762Y-68484524D01*
X126817381Y-68579762D01*
X126817381Y-68770239D01*
X126769762Y-68865477D01*
X126722143Y-68913096D01*
X126626905Y-68960715D01*
X126388810Y-68960715D01*
X126293571Y-68913096D01*
X126245952Y-68865477D01*
X126198333Y-68770239D01*
X126198333Y-68579762D01*
X126245952Y-68484524D01*
X126293571Y-68436905D01*
X126388810Y-68389286D01*
X302641143Y-122158334D02*
X302688762Y-122110715D01*
X302736381Y-121967858D01*
X302736381Y-121872620D01*
X302688762Y-121729762D01*
X302593524Y-121634524D01*
X302498286Y-121586905D01*
X302307810Y-121539286D01*
X302164952Y-121539286D01*
X301974476Y-121586905D01*
X301879238Y-121634524D01*
X301784000Y-121729762D01*
X301736381Y-121872620D01*
X301736381Y-121967858D01*
X301784000Y-122110715D01*
X301831619Y-122158334D01*
X302736381Y-123158334D02*
X302260190Y-122825000D01*
X302736381Y-122586905D02*
X301736381Y-122586905D01*
X301736381Y-122967858D01*
X301784000Y-123063096D01*
X301831619Y-123110715D01*
X301926857Y-123158334D01*
X302069714Y-123158334D01*
X302164952Y-123110715D01*
X302212571Y-123063096D01*
X302260190Y-122967858D01*
X302260190Y-122586905D01*
X301784000Y-124110715D02*
X301736381Y-124015477D01*
X301736381Y-123872620D01*
X301784000Y-123729762D01*
X301879238Y-123634524D01*
X301974476Y-123586905D01*
X302164952Y-123539286D01*
X302307810Y-123539286D01*
X302498286Y-123586905D01*
X302593524Y-123634524D01*
X302688762Y-123729762D01*
X302736381Y-123872620D01*
X302736381Y-123967858D01*
X302688762Y-124110715D01*
X302641143Y-124158334D01*
X302307810Y-124158334D01*
X302307810Y-123967858D01*
X302212571Y-124920239D02*
X302260190Y-125063096D01*
X302307810Y-125110715D01*
X302403048Y-125158334D01*
X302545905Y-125158334D01*
X302641143Y-125110715D01*
X302688762Y-125063096D01*
X302736381Y-124967858D01*
X302736381Y-124586905D01*
X301736381Y-124586905D01*
X301736381Y-124920239D01*
X301784000Y-125015477D01*
X301831619Y-125063096D01*
X301926857Y-125110715D01*
X302022095Y-125110715D01*
X302117333Y-125063096D01*
X302164952Y-125015477D01*
X302212571Y-124920239D01*
X302212571Y-124586905D01*
X301736381Y-125491667D02*
X301736381Y-126158334D01*
X302736381Y-125729762D01*
X81510143Y-65008334D02*
X81557762Y-64960715D01*
X81605381Y-64817858D01*
X81605381Y-64722620D01*
X81557762Y-64579762D01*
X81462524Y-64484524D01*
X81367286Y-64436905D01*
X81176810Y-64389286D01*
X81033952Y-64389286D01*
X80843476Y-64436905D01*
X80748238Y-64484524D01*
X80653000Y-64579762D01*
X80605381Y-64722620D01*
X80605381Y-64817858D01*
X80653000Y-64960715D01*
X80700619Y-65008334D01*
X81605381Y-66008334D02*
X81129190Y-65675000D01*
X81605381Y-65436905D02*
X80605381Y-65436905D01*
X80605381Y-65817858D01*
X80653000Y-65913096D01*
X80700619Y-65960715D01*
X80795857Y-66008334D01*
X80938714Y-66008334D01*
X81033952Y-65960715D01*
X81081571Y-65913096D01*
X81129190Y-65817858D01*
X81129190Y-65436905D01*
X80653000Y-66960715D02*
X80605381Y-66865477D01*
X80605381Y-66722620D01*
X80653000Y-66579762D01*
X80748238Y-66484524D01*
X80843476Y-66436905D01*
X81033952Y-66389286D01*
X81176810Y-66389286D01*
X81367286Y-66436905D01*
X81462524Y-66484524D01*
X81557762Y-66579762D01*
X81605381Y-66722620D01*
X81605381Y-66817858D01*
X81557762Y-66960715D01*
X81510143Y-67008334D01*
X81176810Y-67008334D01*
X81176810Y-66817858D01*
X81081571Y-67770239D02*
X81129190Y-67913096D01*
X81176810Y-67960715D01*
X81272048Y-68008334D01*
X81414905Y-68008334D01*
X81510143Y-67960715D01*
X81557762Y-67913096D01*
X81605381Y-67817858D01*
X81605381Y-67436905D01*
X80605381Y-67436905D01*
X80605381Y-67770239D01*
X80653000Y-67865477D01*
X80700619Y-67913096D01*
X80795857Y-67960715D01*
X80891095Y-67960715D01*
X80986333Y-67913096D01*
X81033952Y-67865477D01*
X81081571Y-67770239D01*
X81081571Y-67436905D01*
X81033952Y-68579762D02*
X80986333Y-68484524D01*
X80938714Y-68436905D01*
X80843476Y-68389286D01*
X80795857Y-68389286D01*
X80700619Y-68436905D01*
X80653000Y-68484524D01*
X80605381Y-68579762D01*
X80605381Y-68770239D01*
X80653000Y-68865477D01*
X80700619Y-68913096D01*
X80795857Y-68960715D01*
X80843476Y-68960715D01*
X80938714Y-68913096D01*
X80986333Y-68865477D01*
X81033952Y-68770239D01*
X81033952Y-68579762D01*
X81081571Y-68484524D01*
X81129190Y-68436905D01*
X81224429Y-68389286D01*
X81414905Y-68389286D01*
X81510143Y-68436905D01*
X81557762Y-68484524D01*
X81605381Y-68579762D01*
X81605381Y-68770239D01*
X81557762Y-68865477D01*
X81510143Y-68913096D01*
X81414905Y-68960715D01*
X81224429Y-68960715D01*
X81129190Y-68913096D01*
X81081571Y-68865477D01*
X81033952Y-68770239D01*
X317222143Y-65008334D02*
X317269762Y-64960715D01*
X317317381Y-64817858D01*
X317317381Y-64722620D01*
X317269762Y-64579762D01*
X317174524Y-64484524D01*
X317079286Y-64436905D01*
X316888810Y-64389286D01*
X316745952Y-64389286D01*
X316555476Y-64436905D01*
X316460238Y-64484524D01*
X316365000Y-64579762D01*
X316317381Y-64722620D01*
X316317381Y-64817858D01*
X316365000Y-64960715D01*
X316412619Y-65008334D01*
X317317381Y-66008334D02*
X316841190Y-65675000D01*
X317317381Y-65436905D02*
X316317381Y-65436905D01*
X316317381Y-65817858D01*
X316365000Y-65913096D01*
X316412619Y-65960715D01*
X316507857Y-66008334D01*
X316650714Y-66008334D01*
X316745952Y-65960715D01*
X316793571Y-65913096D01*
X316841190Y-65817858D01*
X316841190Y-65436905D01*
X316365000Y-66960715D02*
X316317381Y-66865477D01*
X316317381Y-66722620D01*
X316365000Y-66579762D01*
X316460238Y-66484524D01*
X316555476Y-66436905D01*
X316745952Y-66389286D01*
X316888810Y-66389286D01*
X317079286Y-66436905D01*
X317174524Y-66484524D01*
X317269762Y-66579762D01*
X317317381Y-66722620D01*
X317317381Y-66817858D01*
X317269762Y-66960715D01*
X317222143Y-67008334D01*
X316888810Y-67008334D01*
X316888810Y-66817858D01*
X316793571Y-67770239D02*
X316841190Y-67913096D01*
X316888810Y-67960715D01*
X316984048Y-68008334D01*
X317126905Y-68008334D01*
X317222143Y-67960715D01*
X317269762Y-67913096D01*
X317317381Y-67817858D01*
X317317381Y-67436905D01*
X316317381Y-67436905D01*
X316317381Y-67770239D01*
X316365000Y-67865477D01*
X316412619Y-67913096D01*
X316507857Y-67960715D01*
X316603095Y-67960715D01*
X316698333Y-67913096D01*
X316745952Y-67865477D01*
X316793571Y-67770239D01*
X316793571Y-67436905D01*
X317317381Y-68484524D02*
X317317381Y-68675000D01*
X317269762Y-68770239D01*
X317222143Y-68817858D01*
X317079286Y-68913096D01*
X316888810Y-68960715D01*
X316507857Y-68960715D01*
X316412619Y-68913096D01*
X316365000Y-68865477D01*
X316317381Y-68770239D01*
X316317381Y-68579762D01*
X316365000Y-68484524D01*
X316412619Y-68436905D01*
X316507857Y-68389286D01*
X316745952Y-68389286D01*
X316841190Y-68436905D01*
X316888810Y-68484524D01*
X316936429Y-68579762D01*
X316936429Y-68770239D01*
X316888810Y-68865477D01*
X316841190Y-68913096D01*
X316745952Y-68960715D01*
X64516143Y-121682143D02*
X64563762Y-121634524D01*
X64611381Y-121491667D01*
X64611381Y-121396429D01*
X64563762Y-121253571D01*
X64468524Y-121158333D01*
X64373286Y-121110714D01*
X64182810Y-121063095D01*
X64039952Y-121063095D01*
X63849476Y-121110714D01*
X63754238Y-121158333D01*
X63659000Y-121253571D01*
X63611381Y-121396429D01*
X63611381Y-121491667D01*
X63659000Y-121634524D01*
X63706619Y-121682143D01*
X64611381Y-122682143D02*
X64135190Y-122348809D01*
X64611381Y-122110714D02*
X63611381Y-122110714D01*
X63611381Y-122491667D01*
X63659000Y-122586905D01*
X63706619Y-122634524D01*
X63801857Y-122682143D01*
X63944714Y-122682143D01*
X64039952Y-122634524D01*
X64087571Y-122586905D01*
X64135190Y-122491667D01*
X64135190Y-122110714D01*
X63659000Y-123634524D02*
X63611381Y-123539286D01*
X63611381Y-123396429D01*
X63659000Y-123253571D01*
X63754238Y-123158333D01*
X63849476Y-123110714D01*
X64039952Y-123063095D01*
X64182810Y-123063095D01*
X64373286Y-123110714D01*
X64468524Y-123158333D01*
X64563762Y-123253571D01*
X64611381Y-123396429D01*
X64611381Y-123491667D01*
X64563762Y-123634524D01*
X64516143Y-123682143D01*
X64182810Y-123682143D01*
X64182810Y-123491667D01*
X64087571Y-124444048D02*
X64135190Y-124586905D01*
X64182810Y-124634524D01*
X64278048Y-124682143D01*
X64420905Y-124682143D01*
X64516143Y-124634524D01*
X64563762Y-124586905D01*
X64611381Y-124491667D01*
X64611381Y-124110714D01*
X63611381Y-124110714D01*
X63611381Y-124444048D01*
X63659000Y-124539286D01*
X63706619Y-124586905D01*
X63801857Y-124634524D01*
X63897095Y-124634524D01*
X63992333Y-124586905D01*
X64039952Y-124539286D01*
X64087571Y-124444048D01*
X64087571Y-124110714D01*
X64611381Y-125634524D02*
X64611381Y-125063095D01*
X64611381Y-125348809D02*
X63611381Y-125348809D01*
X63754238Y-125253571D01*
X63849476Y-125158333D01*
X63897095Y-125063095D01*
X63611381Y-126253571D02*
X63611381Y-126348810D01*
X63659000Y-126444048D01*
X63706619Y-126491667D01*
X63801857Y-126539286D01*
X63992333Y-126586905D01*
X64230429Y-126586905D01*
X64420905Y-126539286D01*
X64516143Y-126491667D01*
X64563762Y-126444048D01*
X64611381Y-126348810D01*
X64611381Y-126253571D01*
X64563762Y-126158333D01*
X64516143Y-126110714D01*
X64420905Y-126063095D01*
X64230429Y-126015476D01*
X63992333Y-126015476D01*
X63801857Y-126063095D01*
X63706619Y-126110714D01*
X63659000Y-126158333D01*
X63611381Y-126253571D01*
X269597143Y-64532143D02*
X269644762Y-64484524D01*
X269692381Y-64341667D01*
X269692381Y-64246429D01*
X269644762Y-64103571D01*
X269549524Y-64008333D01*
X269454286Y-63960714D01*
X269263810Y-63913095D01*
X269120952Y-63913095D01*
X268930476Y-63960714D01*
X268835238Y-64008333D01*
X268740000Y-64103571D01*
X268692381Y-64246429D01*
X268692381Y-64341667D01*
X268740000Y-64484524D01*
X268787619Y-64532143D01*
X269692381Y-65532143D02*
X269216190Y-65198809D01*
X269692381Y-64960714D02*
X268692381Y-64960714D01*
X268692381Y-65341667D01*
X268740000Y-65436905D01*
X268787619Y-65484524D01*
X268882857Y-65532143D01*
X269025714Y-65532143D01*
X269120952Y-65484524D01*
X269168571Y-65436905D01*
X269216190Y-65341667D01*
X269216190Y-64960714D01*
X268740000Y-66484524D02*
X268692381Y-66389286D01*
X268692381Y-66246429D01*
X268740000Y-66103571D01*
X268835238Y-66008333D01*
X268930476Y-65960714D01*
X269120952Y-65913095D01*
X269263810Y-65913095D01*
X269454286Y-65960714D01*
X269549524Y-66008333D01*
X269644762Y-66103571D01*
X269692381Y-66246429D01*
X269692381Y-66341667D01*
X269644762Y-66484524D01*
X269597143Y-66532143D01*
X269263810Y-66532143D01*
X269263810Y-66341667D01*
X269168571Y-67294048D02*
X269216190Y-67436905D01*
X269263810Y-67484524D01*
X269359048Y-67532143D01*
X269501905Y-67532143D01*
X269597143Y-67484524D01*
X269644762Y-67436905D01*
X269692381Y-67341667D01*
X269692381Y-66960714D01*
X268692381Y-66960714D01*
X268692381Y-67294048D01*
X268740000Y-67389286D01*
X268787619Y-67436905D01*
X268882857Y-67484524D01*
X268978095Y-67484524D01*
X269073333Y-67436905D01*
X269120952Y-67389286D01*
X269168571Y-67294048D01*
X269168571Y-66960714D01*
X269692381Y-68484524D02*
X269692381Y-67913095D01*
X269692381Y-68198809D02*
X268692381Y-68198809D01*
X268835238Y-68103571D01*
X268930476Y-68008333D01*
X268978095Y-67913095D01*
X269692381Y-69436905D02*
X269692381Y-68865476D01*
X269692381Y-69151190D02*
X268692381Y-69151190D01*
X268835238Y-69055952D01*
X268930476Y-68960714D01*
X268978095Y-68865476D01*
X112141143Y-121682143D02*
X112188762Y-121634524D01*
X112236381Y-121491667D01*
X112236381Y-121396429D01*
X112188762Y-121253571D01*
X112093524Y-121158333D01*
X111998286Y-121110714D01*
X111807810Y-121063095D01*
X111664952Y-121063095D01*
X111474476Y-121110714D01*
X111379238Y-121158333D01*
X111284000Y-121253571D01*
X111236381Y-121396429D01*
X111236381Y-121491667D01*
X111284000Y-121634524D01*
X111331619Y-121682143D01*
X112236381Y-122682143D02*
X111760190Y-122348809D01*
X112236381Y-122110714D02*
X111236381Y-122110714D01*
X111236381Y-122491667D01*
X111284000Y-122586905D01*
X111331619Y-122634524D01*
X111426857Y-122682143D01*
X111569714Y-122682143D01*
X111664952Y-122634524D01*
X111712571Y-122586905D01*
X111760190Y-122491667D01*
X111760190Y-122110714D01*
X111284000Y-123634524D02*
X111236381Y-123539286D01*
X111236381Y-123396429D01*
X111284000Y-123253571D01*
X111379238Y-123158333D01*
X111474476Y-123110714D01*
X111664952Y-123063095D01*
X111807810Y-123063095D01*
X111998286Y-123110714D01*
X112093524Y-123158333D01*
X112188762Y-123253571D01*
X112236381Y-123396429D01*
X112236381Y-123491667D01*
X112188762Y-123634524D01*
X112141143Y-123682143D01*
X111807810Y-123682143D01*
X111807810Y-123491667D01*
X111712571Y-124444048D02*
X111760190Y-124586905D01*
X111807810Y-124634524D01*
X111903048Y-124682143D01*
X112045905Y-124682143D01*
X112141143Y-124634524D01*
X112188762Y-124586905D01*
X112236381Y-124491667D01*
X112236381Y-124110714D01*
X111236381Y-124110714D01*
X111236381Y-124444048D01*
X111284000Y-124539286D01*
X111331619Y-124586905D01*
X111426857Y-124634524D01*
X111522095Y-124634524D01*
X111617333Y-124586905D01*
X111664952Y-124539286D01*
X111712571Y-124444048D01*
X111712571Y-124110714D01*
X112236381Y-125634524D02*
X112236381Y-125063095D01*
X112236381Y-125348809D02*
X111236381Y-125348809D01*
X111379238Y-125253571D01*
X111474476Y-125158333D01*
X111522095Y-125063095D01*
X111331619Y-126015476D02*
X111284000Y-126063095D01*
X111236381Y-126158333D01*
X111236381Y-126396429D01*
X111284000Y-126491667D01*
X111331619Y-126539286D01*
X111426857Y-126586905D01*
X111522095Y-126586905D01*
X111664952Y-126539286D01*
X112236381Y-125967857D01*
X112236381Y-126586905D01*
D17*
X175458381Y-124610953D02*
X175458381Y-124134762D01*
X174458381Y-124134762D01*
X174934571Y-124944286D02*
X174934571Y-125277620D01*
X175458381Y-125420477D02*
X175458381Y-124944286D01*
X174458381Y-124944286D01*
X174458381Y-125420477D01*
X175458381Y-125849048D02*
X174458381Y-125849048D01*
X174458381Y-126087143D01*
X174506000Y-126230001D01*
X174601238Y-126325239D01*
X174696476Y-126372858D01*
X174886952Y-126420477D01*
X175029810Y-126420477D01*
X175220286Y-126372858D01*
X175315524Y-126325239D01*
X175410762Y-126230001D01*
X175458381Y-126087143D01*
X175458381Y-125849048D01*
X175458381Y-127372858D02*
X175458381Y-126801429D01*
X175458381Y-127087143D02*
X174458381Y-127087143D01*
X174601238Y-126991905D01*
X174696476Y-126896667D01*
X174744095Y-126801429D01*
X218892381Y-65555953D02*
X218892381Y-65079762D01*
X217892381Y-65079762D01*
X218368571Y-65889286D02*
X218368571Y-66222620D01*
X218892381Y-66365477D02*
X218892381Y-65889286D01*
X217892381Y-65889286D01*
X217892381Y-66365477D01*
X218892381Y-66794048D02*
X217892381Y-66794048D01*
X217892381Y-67032143D01*
X217940000Y-67175001D01*
X218035238Y-67270239D01*
X218130476Y-67317858D01*
X218320952Y-67365477D01*
X218463810Y-67365477D01*
X218654286Y-67317858D01*
X218749524Y-67270239D01*
X218844762Y-67175001D01*
X218892381Y-67032143D01*
X218892381Y-66794048D01*
X217987619Y-67746429D02*
X217940000Y-67794048D01*
X217892381Y-67889286D01*
X217892381Y-68127382D01*
X217940000Y-68222620D01*
X217987619Y-68270239D01*
X218082857Y-68317858D01*
X218178095Y-68317858D01*
X218320952Y-68270239D01*
X218892381Y-67698810D01*
X218892381Y-68317858D01*
X210637381Y-122705953D02*
X210637381Y-122229762D01*
X209637381Y-122229762D01*
X210113571Y-123039286D02*
X210113571Y-123372620D01*
X210637381Y-123515477D02*
X210637381Y-123039286D01*
X209637381Y-123039286D01*
X209637381Y-123515477D01*
X210637381Y-123944048D02*
X209637381Y-123944048D01*
X209637381Y-124182143D01*
X209685000Y-124325001D01*
X209780238Y-124420239D01*
X209875476Y-124467858D01*
X210065952Y-124515477D01*
X210208810Y-124515477D01*
X210399286Y-124467858D01*
X210494524Y-124420239D01*
X210589762Y-124325001D01*
X210637381Y-124182143D01*
X210637381Y-123944048D01*
X209637381Y-124848810D02*
X209637381Y-125467858D01*
X210018333Y-125134524D01*
X210018333Y-125277382D01*
X210065952Y-125372620D01*
X210113571Y-125420239D01*
X210208810Y-125467858D01*
X210446905Y-125467858D01*
X210542143Y-125420239D01*
X210589762Y-125372620D01*
X210637381Y-125277382D01*
X210637381Y-124991667D01*
X210589762Y-124896429D01*
X210542143Y-124848810D01*
X171267381Y-65555953D02*
X171267381Y-65079762D01*
X170267381Y-65079762D01*
X170743571Y-65889286D02*
X170743571Y-66222620D01*
X171267381Y-66365477D02*
X171267381Y-65889286D01*
X170267381Y-65889286D01*
X170267381Y-66365477D01*
X171267381Y-66794048D02*
X170267381Y-66794048D01*
X170267381Y-67032143D01*
X170315000Y-67175001D01*
X170410238Y-67270239D01*
X170505476Y-67317858D01*
X170695952Y-67365477D01*
X170838810Y-67365477D01*
X171029286Y-67317858D01*
X171124524Y-67270239D01*
X171219762Y-67175001D01*
X171267381Y-67032143D01*
X171267381Y-66794048D01*
X170600714Y-68222620D02*
X171267381Y-68222620D01*
X170219762Y-67984524D02*
X170934048Y-67746429D01*
X170934048Y-68365477D01*
X258262381Y-122705953D02*
X258262381Y-122229762D01*
X257262381Y-122229762D01*
X257738571Y-123039286D02*
X257738571Y-123372620D01*
X258262381Y-123515477D02*
X258262381Y-123039286D01*
X257262381Y-123039286D01*
X257262381Y-123515477D01*
X258262381Y-123944048D02*
X257262381Y-123944048D01*
X257262381Y-124182143D01*
X257310000Y-124325001D01*
X257405238Y-124420239D01*
X257500476Y-124467858D01*
X257690952Y-124515477D01*
X257833810Y-124515477D01*
X258024286Y-124467858D01*
X258119524Y-124420239D01*
X258214762Y-124325001D01*
X258262381Y-124182143D01*
X258262381Y-123944048D01*
X257262381Y-125420239D02*
X257262381Y-124944048D01*
X257738571Y-124896429D01*
X257690952Y-124944048D01*
X257643333Y-125039286D01*
X257643333Y-125277382D01*
X257690952Y-125372620D01*
X257738571Y-125420239D01*
X257833810Y-125467858D01*
X258071905Y-125467858D01*
X258167143Y-125420239D01*
X258214762Y-125372620D01*
X258262381Y-125277382D01*
X258262381Y-125039286D01*
X258214762Y-124944048D01*
X258167143Y-124896429D01*
X123642381Y-65555953D02*
X123642381Y-65079762D01*
X122642381Y-65079762D01*
X123118571Y-65889286D02*
X123118571Y-66222620D01*
X123642381Y-66365477D02*
X123642381Y-65889286D01*
X122642381Y-65889286D01*
X122642381Y-66365477D01*
X123642381Y-66794048D02*
X122642381Y-66794048D01*
X122642381Y-67032143D01*
X122690000Y-67175001D01*
X122785238Y-67270239D01*
X122880476Y-67317858D01*
X123070952Y-67365477D01*
X123213810Y-67365477D01*
X123404286Y-67317858D01*
X123499524Y-67270239D01*
X123594762Y-67175001D01*
X123642381Y-67032143D01*
X123642381Y-66794048D01*
X122642381Y-68222620D02*
X122642381Y-68032143D01*
X122690000Y-67936905D01*
X122737619Y-67889286D01*
X122880476Y-67794048D01*
X123070952Y-67746429D01*
X123451905Y-67746429D01*
X123547143Y-67794048D01*
X123594762Y-67841667D01*
X123642381Y-67936905D01*
X123642381Y-68127382D01*
X123594762Y-68222620D01*
X123547143Y-68270239D01*
X123451905Y-68317858D01*
X123213810Y-68317858D01*
X123118571Y-68270239D01*
X123070952Y-68222620D01*
X123023333Y-68127382D01*
X123023333Y-67936905D01*
X123070952Y-67841667D01*
X123118571Y-67794048D01*
X123213810Y-67746429D01*
X305887381Y-122705953D02*
X305887381Y-122229762D01*
X304887381Y-122229762D01*
X305363571Y-123039286D02*
X305363571Y-123372620D01*
X305887381Y-123515477D02*
X305887381Y-123039286D01*
X304887381Y-123039286D01*
X304887381Y-123515477D01*
X305887381Y-123944048D02*
X304887381Y-123944048D01*
X304887381Y-124182143D01*
X304935000Y-124325001D01*
X305030238Y-124420239D01*
X305125476Y-124467858D01*
X305315952Y-124515477D01*
X305458810Y-124515477D01*
X305649286Y-124467858D01*
X305744524Y-124420239D01*
X305839762Y-124325001D01*
X305887381Y-124182143D01*
X305887381Y-123944048D01*
X304887381Y-124848810D02*
X304887381Y-125515477D01*
X305887381Y-125086905D01*
X78430381Y-65555953D02*
X78430381Y-65079762D01*
X77430381Y-65079762D01*
X77906571Y-65889286D02*
X77906571Y-66222620D01*
X78430381Y-66365477D02*
X78430381Y-65889286D01*
X77430381Y-65889286D01*
X77430381Y-66365477D01*
X78430381Y-66794048D02*
X77430381Y-66794048D01*
X77430381Y-67032143D01*
X77478000Y-67175001D01*
X77573238Y-67270239D01*
X77668476Y-67317858D01*
X77858952Y-67365477D01*
X78001810Y-67365477D01*
X78192286Y-67317858D01*
X78287524Y-67270239D01*
X78382762Y-67175001D01*
X78430381Y-67032143D01*
X78430381Y-66794048D01*
X77858952Y-67936905D02*
X77811333Y-67841667D01*
X77763714Y-67794048D01*
X77668476Y-67746429D01*
X77620857Y-67746429D01*
X77525619Y-67794048D01*
X77478000Y-67841667D01*
X77430381Y-67936905D01*
X77430381Y-68127382D01*
X77478000Y-68222620D01*
X77525619Y-68270239D01*
X77620857Y-68317858D01*
X77668476Y-68317858D01*
X77763714Y-68270239D01*
X77811333Y-68222620D01*
X77858952Y-68127382D01*
X77858952Y-67936905D01*
X77906571Y-67841667D01*
X77954190Y-67794048D01*
X78049429Y-67746429D01*
X78239905Y-67746429D01*
X78335143Y-67794048D01*
X78382762Y-67841667D01*
X78430381Y-67936905D01*
X78430381Y-68127382D01*
X78382762Y-68222620D01*
X78335143Y-68270239D01*
X78239905Y-68317858D01*
X78049429Y-68317858D01*
X77954190Y-68270239D01*
X77906571Y-68222620D01*
X77858952Y-68127382D01*
X314142381Y-65555953D02*
X314142381Y-65079762D01*
X313142381Y-65079762D01*
X313618571Y-65889286D02*
X313618571Y-66222620D01*
X314142381Y-66365477D02*
X314142381Y-65889286D01*
X313142381Y-65889286D01*
X313142381Y-66365477D01*
X314142381Y-66794048D02*
X313142381Y-66794048D01*
X313142381Y-67032143D01*
X313190000Y-67175001D01*
X313285238Y-67270239D01*
X313380476Y-67317858D01*
X313570952Y-67365477D01*
X313713810Y-67365477D01*
X313904286Y-67317858D01*
X313999524Y-67270239D01*
X314094762Y-67175001D01*
X314142381Y-67032143D01*
X314142381Y-66794048D01*
X314142381Y-67841667D02*
X314142381Y-68032143D01*
X314094762Y-68127382D01*
X314047143Y-68175001D01*
X313904286Y-68270239D01*
X313713810Y-68317858D01*
X313332857Y-68317858D01*
X313237619Y-68270239D01*
X313190000Y-68222620D01*
X313142381Y-68127382D01*
X313142381Y-67936905D01*
X313190000Y-67841667D01*
X313237619Y-67794048D01*
X313332857Y-67746429D01*
X313570952Y-67746429D01*
X313666190Y-67794048D01*
X313713810Y-67841667D01*
X313761429Y-67936905D01*
X313761429Y-68127382D01*
X313713810Y-68222620D01*
X313666190Y-68270239D01*
X313570952Y-68317858D01*
X67762381Y-122229762D02*
X67762381Y-121753571D01*
X66762381Y-121753571D01*
X67238571Y-122563095D02*
X67238571Y-122896429D01*
X67762381Y-123039286D02*
X67762381Y-122563095D01*
X66762381Y-122563095D01*
X66762381Y-123039286D01*
X67762381Y-123467857D02*
X66762381Y-123467857D01*
X66762381Y-123705952D01*
X66810000Y-123848810D01*
X66905238Y-123944048D01*
X67000476Y-123991667D01*
X67190952Y-124039286D01*
X67333810Y-124039286D01*
X67524286Y-123991667D01*
X67619524Y-123944048D01*
X67714762Y-123848810D01*
X67762381Y-123705952D01*
X67762381Y-123467857D01*
X67762381Y-124991667D02*
X67762381Y-124420238D01*
X67762381Y-124705952D02*
X66762381Y-124705952D01*
X66905238Y-124610714D01*
X67000476Y-124515476D01*
X67048095Y-124420238D01*
X66762381Y-125610714D02*
X66762381Y-125705953D01*
X66810000Y-125801191D01*
X66857619Y-125848810D01*
X66952857Y-125896429D01*
X67143333Y-125944048D01*
X67381429Y-125944048D01*
X67571905Y-125896429D01*
X67667143Y-125848810D01*
X67714762Y-125801191D01*
X67762381Y-125705953D01*
X67762381Y-125610714D01*
X67714762Y-125515476D01*
X67667143Y-125467857D01*
X67571905Y-125420238D01*
X67381429Y-125372619D01*
X67143333Y-125372619D01*
X66952857Y-125420238D01*
X66857619Y-125467857D01*
X66810000Y-125515476D01*
X66762381Y-125610714D01*
X266517381Y-65079762D02*
X266517381Y-64603571D01*
X265517381Y-64603571D01*
X265993571Y-65413095D02*
X265993571Y-65746429D01*
X266517381Y-65889286D02*
X266517381Y-65413095D01*
X265517381Y-65413095D01*
X265517381Y-65889286D01*
X266517381Y-66317857D02*
X265517381Y-66317857D01*
X265517381Y-66555952D01*
X265565000Y-66698810D01*
X265660238Y-66794048D01*
X265755476Y-66841667D01*
X265945952Y-66889286D01*
X266088810Y-66889286D01*
X266279286Y-66841667D01*
X266374524Y-66794048D01*
X266469762Y-66698810D01*
X266517381Y-66555952D01*
X266517381Y-66317857D01*
X266517381Y-67841667D02*
X266517381Y-67270238D01*
X266517381Y-67555952D02*
X265517381Y-67555952D01*
X265660238Y-67460714D01*
X265755476Y-67365476D01*
X265803095Y-67270238D01*
X266517381Y-68794048D02*
X266517381Y-68222619D01*
X266517381Y-68508333D02*
X265517381Y-68508333D01*
X265660238Y-68413095D01*
X265755476Y-68317857D01*
X265803095Y-68222619D01*
X115387381Y-122229762D02*
X115387381Y-121753571D01*
X114387381Y-121753571D01*
X114863571Y-122563095D02*
X114863571Y-122896429D01*
X115387381Y-123039286D02*
X115387381Y-122563095D01*
X114387381Y-122563095D01*
X114387381Y-123039286D01*
X115387381Y-123467857D02*
X114387381Y-123467857D01*
X114387381Y-123705952D01*
X114435000Y-123848810D01*
X114530238Y-123944048D01*
X114625476Y-123991667D01*
X114815952Y-124039286D01*
X114958810Y-124039286D01*
X115149286Y-123991667D01*
X115244524Y-123944048D01*
X115339762Y-123848810D01*
X115387381Y-123705952D01*
X115387381Y-123467857D01*
X115387381Y-124991667D02*
X115387381Y-124420238D01*
X115387381Y-124705952D02*
X114387381Y-124705952D01*
X114530238Y-124610714D01*
X114625476Y-124515476D01*
X114673095Y-124420238D01*
X114482619Y-125372619D02*
X114435000Y-125420238D01*
X114387381Y-125515476D01*
X114387381Y-125753572D01*
X114435000Y-125848810D01*
X114482619Y-125896429D01*
X114577857Y-125944048D01*
X114673095Y-125944048D01*
X114815952Y-125896429D01*
X115387381Y-125325000D01*
X115387381Y-125944048D01*
D11*
X167202381Y-124039334D02*
X166726190Y-123706000D01*
X167202381Y-123467905D02*
X166202381Y-123467905D01*
X166202381Y-123848858D01*
X166250000Y-123944096D01*
X166297619Y-123991715D01*
X166392857Y-124039334D01*
X166535714Y-124039334D01*
X166630952Y-123991715D01*
X166678571Y-123944096D01*
X166726190Y-123848858D01*
X166726190Y-123467905D01*
X166202381Y-124944096D02*
X166202381Y-124467905D01*
X166678571Y-124420286D01*
X166630952Y-124467905D01*
X166583333Y-124563143D01*
X166583333Y-124801239D01*
X166630952Y-124896477D01*
X166678571Y-124944096D01*
X166773810Y-124991715D01*
X167011905Y-124991715D01*
X167107143Y-124944096D01*
X167154762Y-124896477D01*
X167202381Y-124801239D01*
X167202381Y-124563143D01*
X167154762Y-124467905D01*
X167107143Y-124420286D01*
X163194905Y-125690381D02*
X163194905Y-126499905D01*
X163147286Y-126595143D01*
X163099667Y-126642762D01*
X163004429Y-126690381D01*
X162813952Y-126690381D01*
X162718714Y-126642762D01*
X162671095Y-126595143D01*
X162623476Y-126499905D01*
X162623476Y-125690381D01*
X161671095Y-125690381D02*
X162147286Y-125690381D01*
X162194905Y-126166571D01*
X162147286Y-126118952D01*
X162052048Y-126071333D01*
X161813952Y-126071333D01*
X161718714Y-126118952D01*
X161671095Y-126166571D01*
X161623476Y-126261810D01*
X161623476Y-126499905D01*
X161671095Y-126595143D01*
X161718714Y-126642762D01*
X161813952Y-126690381D01*
X162052048Y-126690381D01*
X162147286Y-126642762D01*
X162194905Y-126595143D01*
X63960333Y-58475571D02*
X64293667Y-58475571D01*
X64293667Y-58999381D02*
X64293667Y-57999381D01*
X63817476Y-57999381D01*
X62912714Y-58999381D02*
X63484143Y-58999381D01*
X63198429Y-58999381D02*
X63198429Y-57999381D01*
X63293667Y-58142238D01*
X63388905Y-58237476D01*
X63484143Y-58285095D01*
X68579905Y-57999381D02*
X68579905Y-58808905D01*
X68532286Y-58904143D01*
X68484667Y-58951762D01*
X68389429Y-58999381D01*
X68198952Y-58999381D01*
X68103714Y-58951762D01*
X68056095Y-58904143D01*
X68008476Y-58808905D01*
X68008476Y-57999381D01*
X67627524Y-57999381D02*
X67008476Y-57999381D01*
X67341810Y-58380333D01*
X67198952Y-58380333D01*
X67103714Y-58427952D01*
X67056095Y-58475571D01*
X67008476Y-58570810D01*
X67008476Y-58808905D01*
X67056095Y-58904143D01*
X67103714Y-58951762D01*
X67198952Y-58999381D01*
X67484667Y-58999381D01*
X67579905Y-58951762D01*
X67627524Y-58904143D01*
M02*
