G04 #@! TF.FileFunction,Paste,Bot*
%FSLAX46Y46*%
G04 Gerber Fmt 4.6, Leading zero omitted, Abs format (unit mm)*
G04 Created by KiCad (PCBNEW 4.0.7) date 04/19/18 19:34:36*
%MOMM*%
%LPD*%
G01*
G04 APERTURE LIST*
%ADD10C,0.100000*%
%ADD11R,0.800000X0.750000*%
%ADD12R,0.900000X0.500000*%
%ADD13R,0.700000X0.600000*%
%ADD14R,0.700000X1.000000*%
%ADD15R,1.300000X0.700000*%
%ADD16R,1.200000X0.900000*%
%ADD17R,0.650000X0.400000*%
%ADD18R,0.750000X0.800000*%
%ADD19R,1.800000X1.400000*%
%ADD20R,1.250000X1.000000*%
%ADD21R,0.500000X0.900000*%
%ADD22R,0.250000X0.680000*%
%ADD23R,0.680000X0.250000*%
%ADD24R,0.900000X0.900000*%
%ADD25R,0.700000X0.250000*%
%ADD26R,0.250000X0.700000*%
%ADD27R,0.772500X0.772500*%
%ADD28R,0.900000X0.800000*%
%ADD29R,1.100000X1.800000*%
%ADD30R,0.300000X1.450000*%
%ADD31R,0.600000X1.450000*%
G04 APERTURE END LIST*
D10*
D11*
X70243000Y-90297000D03*
X71743000Y-90297000D03*
D12*
X70104000Y-60440000D03*
X70104000Y-58940000D03*
X60198000Y-56400000D03*
X60198000Y-57900000D03*
D13*
X65294000Y-60005000D03*
X67294000Y-60005000D03*
X65294000Y-58105000D03*
D14*
X67294000Y-58305000D03*
D15*
X62230000Y-61275000D03*
X62230000Y-59375000D03*
D16*
X259556250Y-115950000D03*
X259556250Y-112650000D03*
X240506250Y-115950000D03*
X240506250Y-112650000D03*
X221456250Y-115950000D03*
X221456250Y-112650000D03*
X202406250Y-115950000D03*
X202406250Y-112650000D03*
X183356250Y-115950000D03*
X183356250Y-112650000D03*
X164306250Y-115950000D03*
X164306250Y-112650000D03*
X145256250Y-115950000D03*
X145256250Y-112650000D03*
X126206250Y-115950000D03*
X126206250Y-112650000D03*
X107156250Y-115950000D03*
X107156250Y-112650000D03*
X61118750Y-115950000D03*
X61118750Y-112650000D03*
X319087500Y-96900000D03*
X319087500Y-93600000D03*
X288131250Y-96900000D03*
X288131250Y-93600000D03*
X269081250Y-96900000D03*
X269081250Y-93600000D03*
X250031250Y-96900000D03*
X250031250Y-93600000D03*
X230981250Y-96900000D03*
X230981250Y-93600000D03*
X211931250Y-96900000D03*
X211931250Y-93600000D03*
X192881250Y-96900000D03*
X192881250Y-93600000D03*
X158750000Y-96900000D03*
X158750000Y-93600000D03*
X154781250Y-96900000D03*
X154781250Y-93600000D03*
X135731250Y-96900000D03*
X135731250Y-93600000D03*
X116681250Y-96900000D03*
X116681250Y-93600000D03*
X97631250Y-96900000D03*
X97631250Y-93600000D03*
X52387500Y-96900000D03*
X52387500Y-93600000D03*
X326231250Y-77850000D03*
X326231250Y-74550000D03*
X302418750Y-77850000D03*
X302418750Y-74550000D03*
X283368750Y-77850000D03*
X283368750Y-74550000D03*
X264318750Y-77850000D03*
X264318750Y-74550000D03*
X245268750Y-77850000D03*
X245268750Y-74550000D03*
X226218750Y-77850000D03*
X226218750Y-74550000D03*
X207168750Y-77850000D03*
X207168750Y-74550000D03*
X188118750Y-77850000D03*
X188118750Y-74550000D03*
X169068750Y-77850000D03*
X169068750Y-74550000D03*
X150018750Y-77850000D03*
X150018750Y-74550000D03*
X130968750Y-77850000D03*
X130968750Y-74550000D03*
X111918750Y-77850000D03*
X111918750Y-74550000D03*
X92868750Y-77850000D03*
X92868750Y-74550000D03*
X53578125Y-77850000D03*
X53578125Y-74550000D03*
X330993750Y-58800000D03*
X330993750Y-55500000D03*
X296465625Y-58800000D03*
X296465625Y-55500000D03*
X292893750Y-58800000D03*
X292893750Y-55500000D03*
X273843750Y-58800000D03*
X273843750Y-55500000D03*
X254793750Y-58800000D03*
X254793750Y-55500000D03*
X235743750Y-58800000D03*
X235743750Y-55500000D03*
X216693750Y-58800000D03*
X216693750Y-55500000D03*
X197643750Y-58800000D03*
X197643750Y-55500000D03*
X178593750Y-58800000D03*
X178593750Y-55500000D03*
X159543750Y-58800000D03*
X159543750Y-55500000D03*
X140493750Y-58800000D03*
X140493750Y-55500000D03*
X121443750Y-58800000D03*
X121443750Y-55500000D03*
X102393750Y-58800000D03*
X102393750Y-55500000D03*
X83343750Y-58800000D03*
X83343750Y-55500000D03*
X52387500Y-62371875D03*
X52387500Y-59071875D03*
X334962500Y-58800000D03*
X334962500Y-55500000D03*
X334962500Y-77850000D03*
X334962500Y-74550000D03*
X334962500Y-96900000D03*
X334962500Y-93600000D03*
X279400000Y-115950000D03*
X279400000Y-112650000D03*
X304800000Y-115950000D03*
X304800000Y-112650000D03*
X330993750Y-115950000D03*
X330993750Y-112650000D03*
X334962500Y-115950000D03*
X334962500Y-112650000D03*
X296862500Y-135000000D03*
X296862500Y-131700000D03*
X330993750Y-135000000D03*
X330993750Y-131700000D03*
X334962500Y-135000000D03*
X334962500Y-131700000D03*
X51593750Y-135000000D03*
X51593750Y-131700000D03*
X97631250Y-135000000D03*
X97631250Y-131700000D03*
X121443750Y-135000000D03*
X121443750Y-131700000D03*
X157162500Y-135000000D03*
X157162500Y-131700000D03*
X163512500Y-135000000D03*
X163512500Y-131700000D03*
X203993750Y-135000000D03*
X203993750Y-131700000D03*
D12*
X72390000Y-101588000D03*
X72390000Y-100088000D03*
X69850000Y-101588000D03*
X69850000Y-100088000D03*
X90932000Y-60464000D03*
X90932000Y-61964000D03*
D17*
X86553000Y-61895750D03*
X86553000Y-60595750D03*
X86553000Y-61245750D03*
X88453000Y-60595750D03*
X88453000Y-61895750D03*
D18*
X85725000Y-67425000D03*
X85725000Y-65925000D03*
X332581250Y-124575000D03*
X332581250Y-123075000D03*
X129381250Y-67425000D03*
X129381250Y-65925000D03*
X277018750Y-124575000D03*
X277018750Y-123075000D03*
X180181250Y-67425000D03*
X180181250Y-65925000D03*
X217487500Y-124575000D03*
X217487500Y-123075000D03*
X230981250Y-67425000D03*
X230981250Y-65925000D03*
X173831250Y-124575000D03*
X173831250Y-123075000D03*
X281781250Y-67425000D03*
X281781250Y-65925000D03*
X131762500Y-124575000D03*
X131762500Y-123075000D03*
X314325000Y-67425000D03*
X314325000Y-65925000D03*
X67468750Y-124575000D03*
X67468750Y-123075000D03*
D19*
X82568750Y-65025000D03*
X82568750Y-68325000D03*
X77768750Y-68325000D03*
X77768750Y-65025000D03*
X329425000Y-122175000D03*
X329425000Y-125475000D03*
X324625000Y-125475000D03*
X324625000Y-122175000D03*
X126225000Y-65025000D03*
X126225000Y-68325000D03*
X121425000Y-68325000D03*
X121425000Y-65025000D03*
X273862500Y-122175000D03*
X273862500Y-125475000D03*
X269062500Y-125475000D03*
X269062500Y-122175000D03*
X177025000Y-65025000D03*
X177025000Y-68325000D03*
X172225000Y-68325000D03*
X172225000Y-65025000D03*
X210362500Y-122175000D03*
X210362500Y-125475000D03*
X205562500Y-125475000D03*
X205562500Y-122175000D03*
X227825000Y-65025000D03*
X227825000Y-68325000D03*
X223025000Y-68325000D03*
X223025000Y-65025000D03*
X170675000Y-122175000D03*
X170675000Y-125475000D03*
X165875000Y-125475000D03*
X165875000Y-122175000D03*
X278625000Y-65025000D03*
X278625000Y-68325000D03*
X273825000Y-68325000D03*
X273825000Y-65025000D03*
X124637500Y-122175000D03*
X124637500Y-125475000D03*
X119837500Y-125475000D03*
X119837500Y-122175000D03*
X322281250Y-65025000D03*
X322281250Y-68325000D03*
X317481250Y-68325000D03*
X317481250Y-65025000D03*
X75425000Y-122175000D03*
X75425000Y-125475000D03*
X70625000Y-125475000D03*
X70625000Y-122175000D03*
D16*
X200025000Y-135000000D03*
X200025000Y-131700000D03*
X292893750Y-135000000D03*
X292893750Y-131700000D03*
X273843750Y-135000000D03*
X273843750Y-131700000D03*
D20*
X91440000Y-118729000D03*
X91440000Y-116729000D03*
D11*
X88888000Y-118999000D03*
X87388000Y-118999000D03*
X95619000Y-116586000D03*
X94119000Y-116586000D03*
D18*
X87884000Y-105561000D03*
X87884000Y-107061000D03*
X85725000Y-106311000D03*
X85725000Y-107811000D03*
D11*
X95619000Y-118872000D03*
X94119000Y-118872000D03*
X88888000Y-121285000D03*
X87388000Y-121285000D03*
X80276000Y-118999000D03*
X81776000Y-118999000D03*
D21*
X78117000Y-116459000D03*
X79617000Y-116459000D03*
D12*
X84201000Y-120384000D03*
X84201000Y-118884000D03*
D22*
X82763000Y-116398000D03*
X83163000Y-116398000D03*
X83563000Y-116398000D03*
X83963000Y-116398000D03*
X84363000Y-116398000D03*
X84763000Y-116398000D03*
X85163000Y-116398000D03*
X85563000Y-116398000D03*
X85963000Y-116398000D03*
X86363000Y-116398000D03*
X86763000Y-116398000D03*
X87163000Y-116398000D03*
D23*
X87823000Y-115738000D03*
X87823000Y-115338000D03*
X87823000Y-114938000D03*
X87823000Y-114538000D03*
X87823000Y-114138000D03*
X87823000Y-113738000D03*
X87823000Y-113338000D03*
X87823000Y-112938000D03*
X87823000Y-112538000D03*
X87823000Y-112138000D03*
X87823000Y-111738000D03*
X87823000Y-111338000D03*
D22*
X87163000Y-110678000D03*
X86763000Y-110678000D03*
X86363000Y-110678000D03*
X85963000Y-110678000D03*
X85563000Y-110678000D03*
X85163000Y-110678000D03*
X84763000Y-110678000D03*
X84363000Y-110678000D03*
X83963000Y-110678000D03*
X83563000Y-110678000D03*
X83163000Y-110678000D03*
X82763000Y-110678000D03*
D23*
X82103000Y-111338000D03*
X82103000Y-111738000D03*
X82103000Y-112138000D03*
X82103000Y-112538000D03*
X82103000Y-112938000D03*
X82103000Y-113338000D03*
X82103000Y-113738000D03*
X82103000Y-114138000D03*
X82103000Y-114538000D03*
X82103000Y-114938000D03*
X82103000Y-115338000D03*
X82103000Y-115738000D03*
D24*
X86688000Y-111813000D03*
X86688000Y-112963000D03*
X86688000Y-114113000D03*
X86688000Y-115263000D03*
X85538000Y-111813000D03*
X85538000Y-112963000D03*
X85538000Y-114113000D03*
X85538000Y-115263000D03*
X84388000Y-111813000D03*
X84388000Y-112963000D03*
X84388000Y-114113000D03*
X84388000Y-115263000D03*
X83238000Y-111813000D03*
X83238000Y-112963000D03*
X83238000Y-114113000D03*
X83238000Y-115263000D03*
D11*
X74815000Y-81153000D03*
X76315000Y-81153000D03*
D18*
X77724000Y-84467000D03*
X77724000Y-85967000D03*
X83312000Y-93738000D03*
X83312000Y-95238000D03*
D11*
X78347000Y-98425000D03*
X76847000Y-98425000D03*
D18*
X75311000Y-84467000D03*
X75311000Y-85967000D03*
D21*
X70243000Y-87884000D03*
X71743000Y-87884000D03*
D25*
X80734250Y-89837750D03*
X80734250Y-90337750D03*
X80734250Y-90837750D03*
X80734250Y-91337750D03*
X80734250Y-91837750D03*
X80734250Y-92337750D03*
X80734250Y-92837750D03*
X80734250Y-93337750D03*
X80734250Y-93837750D03*
X80734250Y-94337750D03*
X80734250Y-94837750D03*
D26*
X79834250Y-95737750D03*
X79334250Y-95737750D03*
X78834250Y-95737750D03*
X78334250Y-95737750D03*
X77834250Y-95737750D03*
X77334250Y-95737750D03*
X76834250Y-95737750D03*
X76334250Y-95737750D03*
X75834250Y-95737750D03*
X75334250Y-95737750D03*
X74834250Y-95737750D03*
D25*
X73934250Y-94837750D03*
X73934250Y-94337750D03*
X73934250Y-93837750D03*
X73934250Y-93337750D03*
X73934250Y-92837750D03*
X73934250Y-92337750D03*
X73934250Y-91837750D03*
X73934250Y-91337750D03*
X73934250Y-90837750D03*
X73934250Y-90337750D03*
X73934250Y-89837750D03*
D26*
X74834250Y-88937750D03*
X75334250Y-88937750D03*
X75834250Y-88937750D03*
X76334250Y-88937750D03*
X76834250Y-88937750D03*
X77334250Y-88937750D03*
X77834250Y-88937750D03*
X78334250Y-88937750D03*
X78834250Y-88937750D03*
X79334250Y-88937750D03*
X79834250Y-88937750D03*
D27*
X75403000Y-94269000D03*
X75403000Y-92981500D03*
X75403000Y-91694000D03*
X75403000Y-90406500D03*
X76690500Y-94269000D03*
X76690500Y-92981500D03*
X76690500Y-91694000D03*
X76690500Y-90406500D03*
X77978000Y-94269000D03*
X77978000Y-92981500D03*
X77978000Y-91694000D03*
X77978000Y-90406500D03*
X79265500Y-94269000D03*
X79265500Y-92981500D03*
X79265500Y-91694000D03*
X79265500Y-90406500D03*
D28*
X72247000Y-81219000D03*
X72247000Y-83119000D03*
X70247000Y-82169000D03*
D29*
X55825000Y-118193750D03*
X52125000Y-111993750D03*
X52125000Y-118193750D03*
X55825000Y-111993750D03*
D30*
X65987600Y-53695000D03*
X66487600Y-53695000D03*
X66987600Y-53695000D03*
X65487600Y-53695000D03*
X67487600Y-53695000D03*
X64987600Y-53695000D03*
X67987600Y-53695000D03*
X64487600Y-53695000D03*
D31*
X63787600Y-53695000D03*
X68687600Y-53695000D03*
X63012600Y-53695000D03*
X69462600Y-53695000D03*
M02*
