%TF.GenerationSoftware,KiCad,Pcbnew,4.0.7*%
%TF.CreationDate,2018-04-12T14:05:27-07:00*%
%TF.ProjectId,Voyager65,566F796167657236352E6B696361645F,rev?*%
%TF.FileFunction,Legend,Bot*%
%FSLAX46Y46*%
G04 Gerber Fmt 4.6, Leading zero omitted, Abs format (unit mm)*
G04 Created by KiCad (PCBNEW 4.0.7) date 04/12/18 14:05:27*
%MOMM*%
%LPD*%
G01*
G04 APERTURE LIST*
%ADD10C,0.100000*%
%ADD11C,0.300000*%
%ADD12C,0.350000*%
%ADD13C,0.150000*%
%ADD14C,0.650000*%
%ADD15C,0.120000*%
%ADD16C,0.127000*%
%ADD17C,0.200000*%
G04 APERTURE END LIST*
D10*
D11*
X211883571Y-102683571D02*
X212169285Y-102683571D01*
X212312142Y-102755000D01*
X212383571Y-102826429D01*
X212526428Y-103040714D01*
X212597857Y-103326429D01*
X212597857Y-103897857D01*
X212526428Y-104040714D01*
X212455000Y-104112143D01*
X212312142Y-104183571D01*
X212026428Y-104183571D01*
X211883571Y-104112143D01*
X211812142Y-104040714D01*
X211740714Y-103897857D01*
X211740714Y-103540714D01*
X211812142Y-103397857D01*
X211883571Y-103326429D01*
X212026428Y-103255000D01*
X212312142Y-103255000D01*
X212455000Y-103326429D01*
X212526428Y-103397857D01*
X212597857Y-103540714D01*
X210383571Y-102683571D02*
X211097857Y-102683571D01*
X211169286Y-103397857D01*
X211097857Y-103326429D01*
X210955000Y-103255000D01*
X210597857Y-103255000D01*
X210455000Y-103326429D01*
X210383571Y-103397857D01*
X210312143Y-103540714D01*
X210312143Y-103897857D01*
X210383571Y-104040714D01*
X210455000Y-104112143D01*
X210597857Y-104183571D01*
X210955000Y-104183571D01*
X211097857Y-104112143D01*
X211169286Y-104040714D01*
D12*
X329311000Y-104394000D02*
X351663000Y-102743000D01*
X329311000Y-104394000D02*
X351663000Y-117221000D01*
D13*
X90932000Y-120396000D02*
X91948000Y-120396000D01*
X91440000Y-119888000D02*
X91440000Y-120904000D01*
X91440000Y-114681000D02*
X91440000Y-115570000D01*
X68238428Y-50871381D02*
X68571762Y-50395190D01*
X68809857Y-50871381D02*
X68809857Y-49871381D01*
X68428904Y-49871381D01*
X68333666Y-49919000D01*
X68286047Y-49966619D01*
X68238428Y-50061857D01*
X68238428Y-50204714D01*
X68286047Y-50299952D01*
X68333666Y-50347571D01*
X68428904Y-50395190D01*
X68809857Y-50395190D01*
X67428904Y-50823762D02*
X67524142Y-50871381D01*
X67714619Y-50871381D01*
X67809857Y-50823762D01*
X67857476Y-50728524D01*
X67857476Y-50347571D01*
X67809857Y-50252333D01*
X67714619Y-50204714D01*
X67524142Y-50204714D01*
X67428904Y-50252333D01*
X67381285Y-50347571D01*
X67381285Y-50442810D01*
X67857476Y-50538048D01*
X67047952Y-50204714D02*
X66809857Y-50871381D01*
X66571761Y-50204714D01*
X65524142Y-49871381D02*
X64905094Y-49871381D01*
X65238428Y-50252333D01*
X65095570Y-50252333D01*
X65000332Y-50299952D01*
X64952713Y-50347571D01*
X64905094Y-50442810D01*
X64905094Y-50680905D01*
X64952713Y-50776143D01*
X65000332Y-50823762D01*
X65095570Y-50871381D01*
X65381285Y-50871381D01*
X65476523Y-50823762D01*
X65524142Y-50776143D01*
X64476523Y-50776143D02*
X64428904Y-50823762D01*
X64476523Y-50871381D01*
X64524142Y-50823762D01*
X64476523Y-50776143D01*
X64476523Y-50871381D01*
X63809857Y-49871381D02*
X63714618Y-49871381D01*
X63619380Y-49919000D01*
X63571761Y-49966619D01*
X63524142Y-50061857D01*
X63476523Y-50252333D01*
X63476523Y-50490429D01*
X63524142Y-50680905D01*
X63571761Y-50776143D01*
X63619380Y-50823762D01*
X63714618Y-50871381D01*
X63809857Y-50871381D01*
X63905095Y-50823762D01*
X63952714Y-50776143D01*
X64000333Y-50680905D01*
X64047952Y-50490429D01*
X64047952Y-50252333D01*
X64000333Y-50061857D01*
X63952714Y-49966619D01*
X63905095Y-49919000D01*
X63809857Y-49871381D01*
X58126238Y-83034143D02*
X58173857Y-83081762D01*
X58316714Y-83129381D01*
X58411952Y-83129381D01*
X58554810Y-83081762D01*
X58650048Y-82986524D01*
X58697667Y-82891286D01*
X58745286Y-82700810D01*
X58745286Y-82557952D01*
X58697667Y-82367476D01*
X58650048Y-82272238D01*
X58554810Y-82177000D01*
X58411952Y-82129381D01*
X58316714Y-82129381D01*
X58173857Y-82177000D01*
X58126238Y-82224619D01*
X57221476Y-83129381D02*
X57697667Y-83129381D01*
X57697667Y-82129381D01*
X56888143Y-83129381D02*
X56888143Y-82129381D01*
X56316714Y-83129381D02*
X56745286Y-82557952D01*
X56316714Y-82129381D02*
X56888143Y-82700810D01*
X57911904Y-88400000D02*
X58007142Y-88352381D01*
X58149999Y-88352381D01*
X58292857Y-88400000D01*
X58388095Y-88495238D01*
X58435714Y-88590476D01*
X58483333Y-88780952D01*
X58483333Y-88923810D01*
X58435714Y-89114286D01*
X58388095Y-89209524D01*
X58292857Y-89304762D01*
X58149999Y-89352381D01*
X58054761Y-89352381D01*
X57911904Y-89304762D01*
X57864285Y-89257143D01*
X57864285Y-88923810D01*
X58054761Y-88923810D01*
X57435714Y-89352381D02*
X57435714Y-88352381D01*
X56864285Y-89352381D01*
X56864285Y-88352381D01*
X56388095Y-89352381D02*
X56388095Y-88352381D01*
X56150000Y-88352381D01*
X56007142Y-88400000D01*
X55911904Y-88495238D01*
X55864285Y-88590476D01*
X55816666Y-88780952D01*
X55816666Y-88923810D01*
X55864285Y-89114286D01*
X55911904Y-89209524D01*
X56007142Y-89304762D01*
X56150000Y-89352381D01*
X56388095Y-89352381D01*
X51673000Y-83129381D02*
X51673000Y-82129381D01*
X51292047Y-82129381D01*
X51196809Y-82177000D01*
X51149190Y-82224619D01*
X51101571Y-82319857D01*
X51101571Y-82462714D01*
X51149190Y-82557952D01*
X51196809Y-82605571D01*
X51292047Y-82653190D01*
X51673000Y-82653190D01*
X50673000Y-83129381D02*
X50673000Y-82129381D01*
X50434905Y-82129381D01*
X50292047Y-82177000D01*
X50196809Y-82272238D01*
X50149190Y-82367476D01*
X50101571Y-82557952D01*
X50101571Y-82700810D01*
X50149190Y-82891286D01*
X50196809Y-82986524D01*
X50292047Y-83081762D01*
X50434905Y-83129381D01*
X50673000Y-83129381D01*
X49673000Y-83129381D02*
X49673000Y-82129381D01*
X51942905Y-88225381D02*
X51323857Y-88225381D01*
X51657191Y-88606333D01*
X51514333Y-88606333D01*
X51419095Y-88653952D01*
X51371476Y-88701571D01*
X51323857Y-88796810D01*
X51323857Y-89034905D01*
X51371476Y-89130143D01*
X51419095Y-89177762D01*
X51514333Y-89225381D01*
X51800048Y-89225381D01*
X51895286Y-89177762D01*
X51942905Y-89130143D01*
X51038143Y-88225381D02*
X50704810Y-89225381D01*
X50371476Y-88225381D01*
D12*
X73152000Y-75946000D02*
X48006000Y-65278000D01*
X73152000Y-75946000D02*
X48006000Y-81534000D01*
D14*
X258704166Y-102830655D02*
X256370833Y-107830655D01*
X254037500Y-102830655D01*
X250370833Y-102830655D02*
X249037500Y-102830655D01*
X248370833Y-103068750D01*
X247704166Y-103544940D01*
X247370833Y-104497321D01*
X247370833Y-106163988D01*
X247704166Y-107116369D01*
X248370833Y-107592560D01*
X249037500Y-107830655D01*
X250370833Y-107830655D01*
X251037500Y-107592560D01*
X251704166Y-107116369D01*
X252037500Y-106163988D01*
X252037500Y-104497321D01*
X251704166Y-103544940D01*
X251037500Y-103068750D01*
X250370833Y-102830655D01*
X243037500Y-105449702D02*
X243037500Y-107830655D01*
X245370833Y-102830655D02*
X243037500Y-105449702D01*
X240704167Y-102830655D01*
X238704167Y-106402083D02*
X235370833Y-106402083D01*
X239370833Y-107830655D02*
X237037500Y-102830655D01*
X234704167Y-107830655D01*
X228704167Y-103068750D02*
X229370833Y-102830655D01*
X230370833Y-102830655D01*
X231370833Y-103068750D01*
X232037500Y-103544940D01*
X232370833Y-104021131D01*
X232704167Y-104973512D01*
X232704167Y-105687798D01*
X232370833Y-106640179D01*
X232037500Y-107116369D01*
X231370833Y-107592560D01*
X230370833Y-107830655D01*
X229704167Y-107830655D01*
X228704167Y-107592560D01*
X228370833Y-107354464D01*
X228370833Y-105687798D01*
X229704167Y-105687798D01*
X225370833Y-105211607D02*
X223037500Y-105211607D01*
X222037500Y-107830655D02*
X225370833Y-107830655D01*
X225370833Y-102830655D01*
X222037500Y-102830655D01*
X215037500Y-107830655D02*
X217370834Y-105449702D01*
X219037500Y-107830655D02*
X219037500Y-102830655D01*
X216370834Y-102830655D01*
X215704167Y-103068750D01*
X215370834Y-103306845D01*
X215037500Y-103783036D01*
X215037500Y-104497321D01*
X215370834Y-104973512D01*
X215704167Y-105211607D01*
X216370834Y-105449702D01*
X219037500Y-105449702D01*
D12*
X308102000Y-75819000D02*
X352425000Y-88106250D01*
X238506000Y-133223000D02*
X184277000Y-142494000D01*
X238506000Y-133223000D02*
X269875000Y-142621000D01*
X48387000Y-104267000D02*
X96774000Y-142494000D01*
X176276000Y-94869000D02*
X48387000Y-104267000D01*
X48387000Y-104267000D02*
X238506000Y-133223000D01*
X73152000Y-75946000D02*
X48387000Y-104267000D01*
X176276000Y-94869000D02*
X308102000Y-75819000D01*
X73152000Y-75946000D02*
X176276000Y-94869000D01*
X329311000Y-104394000D02*
X238506000Y-133223000D01*
X308102000Y-75819000D02*
X329311000Y-104394000D01*
X238506000Y-133223000D02*
X308102000Y-75819000D01*
X176276000Y-94869000D02*
X238506000Y-133223000D01*
D15*
X70643000Y-90897000D02*
X71343000Y-90897000D01*
X71343000Y-89697000D02*
X70643000Y-89697000D01*
X70657000Y-60063000D02*
X70657000Y-59063000D01*
X69297000Y-59063000D02*
X69297000Y-60063000D01*
X59518000Y-56650000D02*
X59518000Y-57650000D01*
X60878000Y-57650000D02*
X60878000Y-56650000D01*
D13*
X67087000Y-59936000D02*
X65787000Y-59936000D01*
X67087000Y-57036000D02*
X67087000Y-59936000D01*
X65787000Y-57036000D02*
X67087000Y-57036000D01*
X65787000Y-57036000D02*
X65787000Y-59936000D01*
D15*
X61731000Y-61757000D02*
X61731000Y-62957000D01*
X63491000Y-62957000D02*
X63491000Y-61757000D01*
X260556250Y-116550000D02*
X258556250Y-116550000D01*
X258556250Y-116550000D02*
X258556250Y-112650000D01*
X260556250Y-116550000D02*
X260556250Y-112650000D01*
X241506250Y-116550000D02*
X239506250Y-116550000D01*
X239506250Y-116550000D02*
X239506250Y-112650000D01*
X241506250Y-116550000D02*
X241506250Y-112650000D01*
X222456250Y-116550000D02*
X220456250Y-116550000D01*
X220456250Y-116550000D02*
X220456250Y-112650000D01*
X222456250Y-116550000D02*
X222456250Y-112650000D01*
X203406250Y-116550000D02*
X201406250Y-116550000D01*
X201406250Y-116550000D02*
X201406250Y-112650000D01*
X203406250Y-116550000D02*
X203406250Y-112650000D01*
X184356250Y-116550000D02*
X182356250Y-116550000D01*
X182356250Y-116550000D02*
X182356250Y-112650000D01*
X184356250Y-116550000D02*
X184356250Y-112650000D01*
X165306250Y-116550000D02*
X163306250Y-116550000D01*
X163306250Y-116550000D02*
X163306250Y-112650000D01*
X165306250Y-116550000D02*
X165306250Y-112650000D01*
X146256250Y-116550000D02*
X144256250Y-116550000D01*
X144256250Y-116550000D02*
X144256250Y-112650000D01*
X146256250Y-116550000D02*
X146256250Y-112650000D01*
X127206250Y-116550000D02*
X125206250Y-116550000D01*
X125206250Y-116550000D02*
X125206250Y-112650000D01*
X127206250Y-116550000D02*
X127206250Y-112650000D01*
X108156250Y-116550000D02*
X106156250Y-116550000D01*
X106156250Y-116550000D02*
X106156250Y-112650000D01*
X108156250Y-116550000D02*
X108156250Y-112650000D01*
X62118750Y-116550000D02*
X60118750Y-116550000D01*
X60118750Y-116550000D02*
X60118750Y-112650000D01*
X62118750Y-116550000D02*
X62118750Y-112650000D01*
X320087500Y-97500000D02*
X318087500Y-97500000D01*
X318087500Y-97500000D02*
X318087500Y-93600000D01*
X320087500Y-97500000D02*
X320087500Y-93600000D01*
X289131250Y-97500000D02*
X287131250Y-97500000D01*
X287131250Y-97500000D02*
X287131250Y-93600000D01*
X289131250Y-97500000D02*
X289131250Y-93600000D01*
X270081250Y-97500000D02*
X268081250Y-97500000D01*
X268081250Y-97500000D02*
X268081250Y-93600000D01*
X270081250Y-97500000D02*
X270081250Y-93600000D01*
X251031250Y-97500000D02*
X249031250Y-97500000D01*
X249031250Y-97500000D02*
X249031250Y-93600000D01*
X251031250Y-97500000D02*
X251031250Y-93600000D01*
X231981250Y-97500000D02*
X229981250Y-97500000D01*
X229981250Y-97500000D02*
X229981250Y-93600000D01*
X231981250Y-97500000D02*
X231981250Y-93600000D01*
X212931250Y-97500000D02*
X210931250Y-97500000D01*
X210931250Y-97500000D02*
X210931250Y-93600000D01*
X212931250Y-97500000D02*
X212931250Y-93600000D01*
X193881250Y-97500000D02*
X191881250Y-97500000D01*
X191881250Y-97500000D02*
X191881250Y-93600000D01*
X193881250Y-97500000D02*
X193881250Y-93600000D01*
X159750000Y-97500000D02*
X157750000Y-97500000D01*
X157750000Y-97500000D02*
X157750000Y-93600000D01*
X159750000Y-97500000D02*
X159750000Y-93600000D01*
X155781250Y-97500000D02*
X153781250Y-97500000D01*
X153781250Y-97500000D02*
X153781250Y-93600000D01*
X155781250Y-97500000D02*
X155781250Y-93600000D01*
X136731250Y-97500000D02*
X134731250Y-97500000D01*
X134731250Y-97500000D02*
X134731250Y-93600000D01*
X136731250Y-97500000D02*
X136731250Y-93600000D01*
X117681250Y-97500000D02*
X115681250Y-97500000D01*
X115681250Y-97500000D02*
X115681250Y-93600000D01*
X117681250Y-97500000D02*
X117681250Y-93600000D01*
X98631250Y-97500000D02*
X96631250Y-97500000D01*
X96631250Y-97500000D02*
X96631250Y-93600000D01*
X98631250Y-97500000D02*
X98631250Y-93600000D01*
X53387500Y-97500000D02*
X51387500Y-97500000D01*
X51387500Y-97500000D02*
X51387500Y-93600000D01*
X53387500Y-97500000D02*
X53387500Y-93600000D01*
X327231250Y-78450000D02*
X325231250Y-78450000D01*
X325231250Y-78450000D02*
X325231250Y-74550000D01*
X327231250Y-78450000D02*
X327231250Y-74550000D01*
X303418750Y-78450000D02*
X301418750Y-78450000D01*
X301418750Y-78450000D02*
X301418750Y-74550000D01*
X303418750Y-78450000D02*
X303418750Y-74550000D01*
X284368750Y-78450000D02*
X282368750Y-78450000D01*
X282368750Y-78450000D02*
X282368750Y-74550000D01*
X284368750Y-78450000D02*
X284368750Y-74550000D01*
X265318750Y-78450000D02*
X263318750Y-78450000D01*
X263318750Y-78450000D02*
X263318750Y-74550000D01*
X265318750Y-78450000D02*
X265318750Y-74550000D01*
X246268750Y-78450000D02*
X244268750Y-78450000D01*
X244268750Y-78450000D02*
X244268750Y-74550000D01*
X246268750Y-78450000D02*
X246268750Y-74550000D01*
X227218750Y-78450000D02*
X225218750Y-78450000D01*
X225218750Y-78450000D02*
X225218750Y-74550000D01*
X227218750Y-78450000D02*
X227218750Y-74550000D01*
X208168750Y-78450000D02*
X206168750Y-78450000D01*
X206168750Y-78450000D02*
X206168750Y-74550000D01*
X208168750Y-78450000D02*
X208168750Y-74550000D01*
X189118750Y-78450000D02*
X187118750Y-78450000D01*
X187118750Y-78450000D02*
X187118750Y-74550000D01*
X189118750Y-78450000D02*
X189118750Y-74550000D01*
X170068750Y-78450000D02*
X168068750Y-78450000D01*
X168068750Y-78450000D02*
X168068750Y-74550000D01*
X170068750Y-78450000D02*
X170068750Y-74550000D01*
X151018750Y-78450000D02*
X149018750Y-78450000D01*
X149018750Y-78450000D02*
X149018750Y-74550000D01*
X151018750Y-78450000D02*
X151018750Y-74550000D01*
X131968750Y-78450000D02*
X129968750Y-78450000D01*
X129968750Y-78450000D02*
X129968750Y-74550000D01*
X131968750Y-78450000D02*
X131968750Y-74550000D01*
X112918750Y-78450000D02*
X110918750Y-78450000D01*
X110918750Y-78450000D02*
X110918750Y-74550000D01*
X112918750Y-78450000D02*
X112918750Y-74550000D01*
X93868750Y-78450000D02*
X91868750Y-78450000D01*
X91868750Y-78450000D02*
X91868750Y-74550000D01*
X93868750Y-78450000D02*
X93868750Y-74550000D01*
X54578125Y-78450000D02*
X52578125Y-78450000D01*
X52578125Y-78450000D02*
X52578125Y-74550000D01*
X54578125Y-78450000D02*
X54578125Y-74550000D01*
X331993750Y-59400000D02*
X329993750Y-59400000D01*
X329993750Y-59400000D02*
X329993750Y-55500000D01*
X331993750Y-59400000D02*
X331993750Y-55500000D01*
X297465625Y-59400000D02*
X295465625Y-59400000D01*
X295465625Y-59400000D02*
X295465625Y-55500000D01*
X297465625Y-59400000D02*
X297465625Y-55500000D01*
X293893750Y-59400000D02*
X291893750Y-59400000D01*
X291893750Y-59400000D02*
X291893750Y-55500000D01*
X293893750Y-59400000D02*
X293893750Y-55500000D01*
X274843750Y-59400000D02*
X272843750Y-59400000D01*
X272843750Y-59400000D02*
X272843750Y-55500000D01*
X274843750Y-59400000D02*
X274843750Y-55500000D01*
X255793750Y-59400000D02*
X253793750Y-59400000D01*
X253793750Y-59400000D02*
X253793750Y-55500000D01*
X255793750Y-59400000D02*
X255793750Y-55500000D01*
X236743750Y-59400000D02*
X234743750Y-59400000D01*
X234743750Y-59400000D02*
X234743750Y-55500000D01*
X236743750Y-59400000D02*
X236743750Y-55500000D01*
X217693750Y-59400000D02*
X215693750Y-59400000D01*
X215693750Y-59400000D02*
X215693750Y-55500000D01*
X217693750Y-59400000D02*
X217693750Y-55500000D01*
X198643750Y-59400000D02*
X196643750Y-59400000D01*
X196643750Y-59400000D02*
X196643750Y-55500000D01*
X198643750Y-59400000D02*
X198643750Y-55500000D01*
X179593750Y-59400000D02*
X177593750Y-59400000D01*
X177593750Y-59400000D02*
X177593750Y-55500000D01*
X179593750Y-59400000D02*
X179593750Y-55500000D01*
X160543750Y-59400000D02*
X158543750Y-59400000D01*
X158543750Y-59400000D02*
X158543750Y-55500000D01*
X160543750Y-59400000D02*
X160543750Y-55500000D01*
X141493750Y-59400000D02*
X139493750Y-59400000D01*
X139493750Y-59400000D02*
X139493750Y-55500000D01*
X141493750Y-59400000D02*
X141493750Y-55500000D01*
X122443750Y-59400000D02*
X120443750Y-59400000D01*
X120443750Y-59400000D02*
X120443750Y-55500000D01*
X122443750Y-59400000D02*
X122443750Y-55500000D01*
X103393750Y-59400000D02*
X101393750Y-59400000D01*
X101393750Y-59400000D02*
X101393750Y-55500000D01*
X103393750Y-59400000D02*
X103393750Y-55500000D01*
X84343750Y-59400000D02*
X82343750Y-59400000D01*
X82343750Y-59400000D02*
X82343750Y-55500000D01*
X84343750Y-59400000D02*
X84343750Y-55500000D01*
X53387500Y-62971875D02*
X51387500Y-62971875D01*
X51387500Y-62971875D02*
X51387500Y-59071875D01*
X53387500Y-62971875D02*
X53387500Y-59071875D01*
X335962500Y-59400000D02*
X333962500Y-59400000D01*
X333962500Y-59400000D02*
X333962500Y-55500000D01*
X335962500Y-59400000D02*
X335962500Y-55500000D01*
X335962500Y-78450000D02*
X333962500Y-78450000D01*
X333962500Y-78450000D02*
X333962500Y-74550000D01*
X335962500Y-78450000D02*
X335962500Y-74550000D01*
X335962500Y-97500000D02*
X333962500Y-97500000D01*
X333962500Y-97500000D02*
X333962500Y-93600000D01*
X335962500Y-97500000D02*
X335962500Y-93600000D01*
X280400000Y-116550000D02*
X278400000Y-116550000D01*
X278400000Y-116550000D02*
X278400000Y-112650000D01*
X280400000Y-116550000D02*
X280400000Y-112650000D01*
X305800000Y-116550000D02*
X303800000Y-116550000D01*
X303800000Y-116550000D02*
X303800000Y-112650000D01*
X305800000Y-116550000D02*
X305800000Y-112650000D01*
X331993750Y-116550000D02*
X329993750Y-116550000D01*
X329993750Y-116550000D02*
X329993750Y-112650000D01*
X331993750Y-116550000D02*
X331993750Y-112650000D01*
X335962500Y-116550000D02*
X333962500Y-116550000D01*
X333962500Y-116550000D02*
X333962500Y-112650000D01*
X335962500Y-116550000D02*
X335962500Y-112650000D01*
X312943750Y-135600000D02*
X310943750Y-135600000D01*
X310943750Y-135600000D02*
X310943750Y-131700000D01*
X312943750Y-135600000D02*
X312943750Y-131700000D01*
X331993750Y-135600000D02*
X329993750Y-135600000D01*
X329993750Y-135600000D02*
X329993750Y-131700000D01*
X331993750Y-135600000D02*
X331993750Y-131700000D01*
X335962500Y-135600000D02*
X333962500Y-135600000D01*
X333962500Y-135600000D02*
X333962500Y-131700000D01*
X335962500Y-135600000D02*
X335962500Y-131700000D01*
X52593750Y-135600000D02*
X50593750Y-135600000D01*
X50593750Y-135600000D02*
X50593750Y-131700000D01*
X52593750Y-135600000D02*
X52593750Y-131700000D01*
X98631250Y-135600000D02*
X96631250Y-135600000D01*
X96631250Y-135600000D02*
X96631250Y-131700000D01*
X98631250Y-135600000D02*
X98631250Y-131700000D01*
X122443750Y-135600000D02*
X120443750Y-135600000D01*
X120443750Y-135600000D02*
X120443750Y-131700000D01*
X122443750Y-135600000D02*
X122443750Y-131700000D01*
X158162500Y-135600000D02*
X156162500Y-135600000D01*
X156162500Y-135600000D02*
X156162500Y-131700000D01*
X158162500Y-135600000D02*
X158162500Y-131700000D01*
X164512500Y-135600000D02*
X162512500Y-135600000D01*
X162512500Y-135600000D02*
X162512500Y-131700000D01*
X164512500Y-135600000D02*
X164512500Y-131700000D01*
X234362500Y-135600000D02*
X232362500Y-135600000D01*
X232362500Y-135600000D02*
X232362500Y-131700000D01*
X234362500Y-135600000D02*
X234362500Y-131700000D01*
D16*
X52070000Y-83121500D02*
X52070000Y-83421500D01*
X55875000Y-85325000D02*
X55875000Y-86125000D01*
X52075000Y-85425000D02*
X52075000Y-86125000D01*
X53251100Y-88988900D02*
X52070000Y-87807800D01*
X54698900Y-88988900D02*
X55880000Y-87807800D01*
X54698900Y-88988900D02*
G75*
G02X53251100Y-88988900I-723900J723900D01*
G01*
X54927500Y-82169000D02*
X53022500Y-82169000D01*
X52070000Y-83121500D02*
G75*
G02X53022500Y-82169000I952500J0D01*
G01*
X54927500Y-82169000D02*
G75*
G02X55880000Y-83121500I0J-952500D01*
G01*
X55880000Y-83121500D02*
X55880000Y-83421500D01*
D15*
X71710000Y-100338000D02*
X71710000Y-101338000D01*
X73070000Y-101338000D02*
X73070000Y-100338000D01*
X69170000Y-100338000D02*
X69170000Y-101338000D01*
X70530000Y-101338000D02*
X70530000Y-100338000D01*
X91612000Y-61714000D02*
X91612000Y-60714000D01*
X90252000Y-60714000D02*
X90252000Y-61714000D01*
X88203000Y-62405750D02*
X86303000Y-62405750D01*
X86803000Y-60085750D02*
X88203000Y-60085750D01*
X86325000Y-67025000D02*
X86325000Y-66325000D01*
X85125000Y-66325000D02*
X85125000Y-67025000D01*
X333181250Y-124175000D02*
X333181250Y-123475000D01*
X331981250Y-123475000D02*
X331981250Y-124175000D01*
X129981250Y-67025000D02*
X129981250Y-66325000D01*
X128781250Y-66325000D02*
X128781250Y-67025000D01*
X277618750Y-124175000D02*
X277618750Y-123475000D01*
X276418750Y-123475000D02*
X276418750Y-124175000D01*
X180781250Y-67025000D02*
X180781250Y-66325000D01*
X179581250Y-66325000D02*
X179581250Y-67025000D01*
X218087500Y-124175000D02*
X218087500Y-123475000D01*
X216887500Y-123475000D02*
X216887500Y-124175000D01*
X231581250Y-67025000D02*
X231581250Y-66325000D01*
X230381250Y-66325000D02*
X230381250Y-67025000D01*
X174431250Y-124175000D02*
X174431250Y-123475000D01*
X173231250Y-123475000D02*
X173231250Y-124175000D01*
X282381250Y-67025000D02*
X282381250Y-66325000D01*
X281181250Y-66325000D02*
X281181250Y-67025000D01*
X132362500Y-124175000D02*
X132362500Y-123475000D01*
X131162500Y-123475000D02*
X131162500Y-124175000D01*
X314925000Y-67025000D02*
X314925000Y-66325000D01*
X313725000Y-66325000D02*
X313725000Y-67025000D01*
X68068750Y-124175000D02*
X68068750Y-123475000D01*
X66868750Y-123475000D02*
X66868750Y-124175000D01*
D17*
X81168750Y-67675000D02*
X81168750Y-65675000D01*
X81168750Y-65675000D02*
X79168750Y-65675000D01*
X79168750Y-65675000D02*
X79168750Y-67175000D01*
X79168750Y-67175000D02*
X79668750Y-67675000D01*
X79668750Y-67675000D02*
X81168750Y-67675000D01*
X81168750Y-69175000D02*
X79168750Y-69175000D01*
X77668750Y-67175000D02*
X77668750Y-66175000D01*
X81168750Y-64175000D02*
X79168750Y-64175000D01*
X82668750Y-67175000D02*
X82668750Y-66175000D01*
X328025000Y-124825000D02*
X328025000Y-122825000D01*
X328025000Y-122825000D02*
X326025000Y-122825000D01*
X326025000Y-122825000D02*
X326025000Y-124325000D01*
X326025000Y-124325000D02*
X326525000Y-124825000D01*
X326525000Y-124825000D02*
X328025000Y-124825000D01*
X328025000Y-126325000D02*
X326025000Y-126325000D01*
X324525000Y-124325000D02*
X324525000Y-123325000D01*
X328025000Y-121325000D02*
X326025000Y-121325000D01*
X329525000Y-124325000D02*
X329525000Y-123325000D01*
X124825000Y-67675000D02*
X124825000Y-65675000D01*
X124825000Y-65675000D02*
X122825000Y-65675000D01*
X122825000Y-65675000D02*
X122825000Y-67175000D01*
X122825000Y-67175000D02*
X123325000Y-67675000D01*
X123325000Y-67675000D02*
X124825000Y-67675000D01*
X124825000Y-69175000D02*
X122825000Y-69175000D01*
X121325000Y-67175000D02*
X121325000Y-66175000D01*
X124825000Y-64175000D02*
X122825000Y-64175000D01*
X126325000Y-67175000D02*
X126325000Y-66175000D01*
X272462500Y-124825000D02*
X272462500Y-122825000D01*
X272462500Y-122825000D02*
X270462500Y-122825000D01*
X270462500Y-122825000D02*
X270462500Y-124325000D01*
X270462500Y-124325000D02*
X270962500Y-124825000D01*
X270962500Y-124825000D02*
X272462500Y-124825000D01*
X272462500Y-126325000D02*
X270462500Y-126325000D01*
X268962500Y-124325000D02*
X268962500Y-123325000D01*
X272462500Y-121325000D02*
X270462500Y-121325000D01*
X273962500Y-124325000D02*
X273962500Y-123325000D01*
X175625000Y-67675000D02*
X175625000Y-65675000D01*
X175625000Y-65675000D02*
X173625000Y-65675000D01*
X173625000Y-65675000D02*
X173625000Y-67175000D01*
X173625000Y-67175000D02*
X174125000Y-67675000D01*
X174125000Y-67675000D02*
X175625000Y-67675000D01*
X175625000Y-69175000D02*
X173625000Y-69175000D01*
X172125000Y-67175000D02*
X172125000Y-66175000D01*
X175625000Y-64175000D02*
X173625000Y-64175000D01*
X177125000Y-67175000D02*
X177125000Y-66175000D01*
X208962500Y-124825000D02*
X208962500Y-122825000D01*
X208962500Y-122825000D02*
X206962500Y-122825000D01*
X206962500Y-122825000D02*
X206962500Y-124325000D01*
X206962500Y-124325000D02*
X207462500Y-124825000D01*
X207462500Y-124825000D02*
X208962500Y-124825000D01*
X208962500Y-126325000D02*
X206962500Y-126325000D01*
X205462500Y-124325000D02*
X205462500Y-123325000D01*
X208962500Y-121325000D02*
X206962500Y-121325000D01*
X210462500Y-124325000D02*
X210462500Y-123325000D01*
X226425000Y-67675000D02*
X226425000Y-65675000D01*
X226425000Y-65675000D02*
X224425000Y-65675000D01*
X224425000Y-65675000D02*
X224425000Y-67175000D01*
X224425000Y-67175000D02*
X224925000Y-67675000D01*
X224925000Y-67675000D02*
X226425000Y-67675000D01*
X226425000Y-69175000D02*
X224425000Y-69175000D01*
X222925000Y-67175000D02*
X222925000Y-66175000D01*
X226425000Y-64175000D02*
X224425000Y-64175000D01*
X227925000Y-67175000D02*
X227925000Y-66175000D01*
X169275000Y-124825000D02*
X169275000Y-122825000D01*
X169275000Y-122825000D02*
X167275000Y-122825000D01*
X167275000Y-122825000D02*
X167275000Y-124325000D01*
X167275000Y-124325000D02*
X167775000Y-124825000D01*
X167775000Y-124825000D02*
X169275000Y-124825000D01*
X169275000Y-126325000D02*
X167275000Y-126325000D01*
X165775000Y-124325000D02*
X165775000Y-123325000D01*
X169275000Y-121325000D02*
X167275000Y-121325000D01*
X170775000Y-124325000D02*
X170775000Y-123325000D01*
X277225000Y-67675000D02*
X277225000Y-65675000D01*
X277225000Y-65675000D02*
X275225000Y-65675000D01*
X275225000Y-65675000D02*
X275225000Y-67175000D01*
X275225000Y-67175000D02*
X275725000Y-67675000D01*
X275725000Y-67675000D02*
X277225000Y-67675000D01*
X277225000Y-69175000D02*
X275225000Y-69175000D01*
X273725000Y-67175000D02*
X273725000Y-66175000D01*
X277225000Y-64175000D02*
X275225000Y-64175000D01*
X278725000Y-67175000D02*
X278725000Y-66175000D01*
X123237500Y-124825000D02*
X123237500Y-122825000D01*
X123237500Y-122825000D02*
X121237500Y-122825000D01*
X121237500Y-122825000D02*
X121237500Y-124325000D01*
X121237500Y-124325000D02*
X121737500Y-124825000D01*
X121737500Y-124825000D02*
X123237500Y-124825000D01*
X123237500Y-126325000D02*
X121237500Y-126325000D01*
X119737500Y-124325000D02*
X119737500Y-123325000D01*
X123237500Y-121325000D02*
X121237500Y-121325000D01*
X124737500Y-124325000D02*
X124737500Y-123325000D01*
X320881250Y-67675000D02*
X320881250Y-65675000D01*
X320881250Y-65675000D02*
X318881250Y-65675000D01*
X318881250Y-65675000D02*
X318881250Y-67175000D01*
X318881250Y-67175000D02*
X319381250Y-67675000D01*
X319381250Y-67675000D02*
X320881250Y-67675000D01*
X320881250Y-69175000D02*
X318881250Y-69175000D01*
X317381250Y-67175000D02*
X317381250Y-66175000D01*
X320881250Y-64175000D02*
X318881250Y-64175000D01*
X322381250Y-67175000D02*
X322381250Y-66175000D01*
X74025000Y-124825000D02*
X74025000Y-122825000D01*
X74025000Y-122825000D02*
X72025000Y-122825000D01*
X72025000Y-122825000D02*
X72025000Y-124325000D01*
X72025000Y-124325000D02*
X72525000Y-124825000D01*
X72525000Y-124825000D02*
X74025000Y-124825000D01*
X74025000Y-126325000D02*
X72025000Y-126325000D01*
X70525000Y-124325000D02*
X70525000Y-123325000D01*
X74025000Y-121325000D02*
X72025000Y-121325000D01*
X75525000Y-124325000D02*
X75525000Y-123325000D01*
D15*
X240712500Y-135600000D02*
X238712500Y-135600000D01*
X238712500Y-135600000D02*
X238712500Y-131700000D01*
X240712500Y-135600000D02*
X240712500Y-131700000D01*
X297862500Y-135600000D02*
X295862500Y-135600000D01*
X295862500Y-135600000D02*
X295862500Y-131700000D01*
X297862500Y-135600000D02*
X297862500Y-131700000D01*
X293893750Y-135600000D02*
X291893750Y-135600000D01*
X291893750Y-135600000D02*
X291893750Y-131700000D01*
X293893750Y-135600000D02*
X293893750Y-131700000D01*
X92290000Y-117229000D02*
X92290000Y-118229000D01*
X90590000Y-118229000D02*
X90590000Y-117229000D01*
X88488000Y-118399000D02*
X87788000Y-118399000D01*
X87788000Y-119599000D02*
X88488000Y-119599000D01*
X95219000Y-115986000D02*
X94519000Y-115986000D01*
X94519000Y-117186000D02*
X95219000Y-117186000D01*
X87284000Y-105961000D02*
X87284000Y-106661000D01*
X88484000Y-106661000D02*
X88484000Y-105961000D01*
X85125000Y-106711000D02*
X85125000Y-107411000D01*
X86325000Y-107411000D02*
X86325000Y-106711000D01*
X95219000Y-118272000D02*
X94519000Y-118272000D01*
X94519000Y-119472000D02*
X95219000Y-119472000D01*
X88488000Y-120685000D02*
X87788000Y-120685000D01*
X87788000Y-121885000D02*
X88488000Y-121885000D01*
X80676000Y-119599000D02*
X81376000Y-119599000D01*
X81376000Y-118399000D02*
X80676000Y-118399000D01*
X79367000Y-115779000D02*
X78367000Y-115779000D01*
X78367000Y-117139000D02*
X79367000Y-117139000D01*
X83521000Y-119134000D02*
X83521000Y-120134000D01*
X84881000Y-120134000D02*
X84881000Y-119134000D01*
X81843000Y-116658000D02*
X82413000Y-116658000D01*
X88083000Y-116038000D02*
X88083000Y-116658000D01*
X87513000Y-110418000D02*
X88083000Y-110418000D01*
X88083000Y-110418000D02*
X88083000Y-110988000D01*
X82413000Y-110418000D02*
X81843000Y-110418000D01*
X81843000Y-110418000D02*
X81843000Y-110988000D01*
X87513000Y-116658000D02*
X88083000Y-116658000D01*
X76235000Y-77501000D02*
X76235000Y-78201000D01*
X77435000Y-78201000D02*
X77435000Y-77501000D01*
X77124000Y-84867000D02*
X77124000Y-85567000D01*
X78324000Y-85567000D02*
X78324000Y-84867000D01*
X82712000Y-94138000D02*
X82712000Y-94838000D01*
X83912000Y-94838000D02*
X83912000Y-94138000D01*
X77947000Y-97825000D02*
X77247000Y-97825000D01*
X77247000Y-99025000D02*
X77947000Y-99025000D01*
X74711000Y-84867000D02*
X74711000Y-85567000D01*
X75911000Y-85567000D02*
X75911000Y-84867000D01*
X71493000Y-87204000D02*
X70493000Y-87204000D01*
X70493000Y-88564000D02*
X71493000Y-88564000D01*
D13*
X73709250Y-88712750D02*
X73709250Y-89487750D01*
X80959250Y-95962750D02*
X80959250Y-95187750D01*
X73709250Y-95962750D02*
X73709250Y-95187750D01*
X80959250Y-88712750D02*
X80184250Y-88712750D01*
X80959250Y-95962750D02*
X80184250Y-95962750D01*
X73709250Y-95962750D02*
X74484250Y-95962750D01*
X73709250Y-88712750D02*
X74484250Y-88712750D01*
D15*
X72646000Y-79431000D02*
X72646000Y-78501000D01*
X72646000Y-76271000D02*
X72646000Y-77201000D01*
X72646000Y-76271000D02*
X74806000Y-76271000D01*
X72646000Y-79431000D02*
X74106000Y-79431000D01*
D13*
X54975000Y-115093750D02*
G75*
G03X54975000Y-115093750I-1000000J0D01*
G01*
X56575000Y-112493750D02*
X51375000Y-112493750D01*
X56575000Y-117693750D02*
X56575000Y-112493750D01*
X51375000Y-117693750D02*
X56575000Y-117693750D01*
X51375000Y-112493750D02*
X51375000Y-117693750D01*
X71159666Y-92178143D02*
X71207285Y-92225762D01*
X71350142Y-92273381D01*
X71445380Y-92273381D01*
X71588238Y-92225762D01*
X71683476Y-92130524D01*
X71731095Y-92035286D01*
X71778714Y-91844810D01*
X71778714Y-91701952D01*
X71731095Y-91511476D01*
X71683476Y-91416238D01*
X71588238Y-91321000D01*
X71445380Y-91273381D01*
X71350142Y-91273381D01*
X71207285Y-91321000D01*
X71159666Y-91368619D01*
X70254904Y-91273381D02*
X70731095Y-91273381D01*
X70778714Y-91749571D01*
X70731095Y-91701952D01*
X70635857Y-91654333D01*
X70397761Y-91654333D01*
X70302523Y-91701952D01*
X70254904Y-91749571D01*
X70207285Y-91844810D01*
X70207285Y-92082905D01*
X70254904Y-92178143D01*
X70302523Y-92225762D01*
X70397761Y-92273381D01*
X70635857Y-92273381D01*
X70731095Y-92225762D01*
X70778714Y-92178143D01*
X70429381Y-61809334D02*
X69953190Y-61476000D01*
X70429381Y-61237905D02*
X69429381Y-61237905D01*
X69429381Y-61618858D01*
X69477000Y-61714096D01*
X69524619Y-61761715D01*
X69619857Y-61809334D01*
X69762714Y-61809334D01*
X69857952Y-61761715D01*
X69905571Y-61714096D01*
X69953190Y-61618858D01*
X69953190Y-61237905D01*
X69429381Y-62142667D02*
X69429381Y-62809334D01*
X70429381Y-62380762D01*
X60650381Y-59396334D02*
X60174190Y-59063000D01*
X60650381Y-58824905D02*
X59650381Y-58824905D01*
X59650381Y-59205858D01*
X59698000Y-59301096D01*
X59745619Y-59348715D01*
X59840857Y-59396334D01*
X59983714Y-59396334D01*
X60078952Y-59348715D01*
X60126571Y-59301096D01*
X60174190Y-59205858D01*
X60174190Y-58824905D01*
X59650381Y-60253477D02*
X59650381Y-60063000D01*
X59698000Y-59967762D01*
X59745619Y-59920143D01*
X59888476Y-59824905D01*
X60078952Y-59777286D01*
X60459905Y-59777286D01*
X60555143Y-59824905D01*
X60602762Y-59872524D01*
X60650381Y-59967762D01*
X60650381Y-60158239D01*
X60602762Y-60253477D01*
X60555143Y-60301096D01*
X60459905Y-60348715D01*
X60221810Y-60348715D01*
X60126571Y-60301096D01*
X60078952Y-60253477D01*
X60031333Y-60158239D01*
X60031333Y-59967762D01*
X60078952Y-59872524D01*
X60126571Y-59824905D01*
X60221810Y-59777286D01*
X67182905Y-60412381D02*
X67182905Y-61221905D01*
X67135286Y-61317143D01*
X67087667Y-61364762D01*
X66992429Y-61412381D01*
X66801952Y-61412381D01*
X66706714Y-61364762D01*
X66659095Y-61317143D01*
X66611476Y-61221905D01*
X66611476Y-60412381D01*
X66230524Y-60412381D02*
X65611476Y-60412381D01*
X65944810Y-60793333D01*
X65801952Y-60793333D01*
X65706714Y-60840952D01*
X65659095Y-60888571D01*
X65611476Y-60983810D01*
X65611476Y-61221905D01*
X65659095Y-61317143D01*
X65706714Y-61364762D01*
X65801952Y-61412381D01*
X66087667Y-61412381D01*
X66182905Y-61364762D01*
X66230524Y-61317143D01*
X62539571Y-64690667D02*
X62539571Y-64357333D01*
X63063381Y-64357333D02*
X62063381Y-64357333D01*
X62063381Y-64833524D01*
X63063381Y-65738286D02*
X63063381Y-65166857D01*
X63063381Y-65452571D02*
X62063381Y-65452571D01*
X62206238Y-65357333D01*
X62301476Y-65262095D01*
X62349095Y-65166857D01*
X259913381Y-109021714D02*
X258913381Y-109021714D01*
X258913381Y-109259809D01*
X258961000Y-109402667D01*
X259056238Y-109497905D01*
X259151476Y-109545524D01*
X259341952Y-109593143D01*
X259484810Y-109593143D01*
X259675286Y-109545524D01*
X259770524Y-109497905D01*
X259865762Y-109402667D01*
X259913381Y-109259809D01*
X259913381Y-109021714D01*
X258913381Y-110497905D02*
X258913381Y-110021714D01*
X259389571Y-109974095D01*
X259341952Y-110021714D01*
X259294333Y-110116952D01*
X259294333Y-110355048D01*
X259341952Y-110450286D01*
X259389571Y-110497905D01*
X259484810Y-110545524D01*
X259722905Y-110545524D01*
X259818143Y-110497905D01*
X259865762Y-110450286D01*
X259913381Y-110355048D01*
X259913381Y-110116952D01*
X259865762Y-110021714D01*
X259818143Y-109974095D01*
X259246714Y-111402667D02*
X259913381Y-111402667D01*
X258865762Y-111164571D02*
X259580048Y-110926476D01*
X259580048Y-111545524D01*
X242958631Y-113085714D02*
X241958631Y-113085714D01*
X241958631Y-113323809D01*
X242006250Y-113466667D01*
X242101488Y-113561905D01*
X242196726Y-113609524D01*
X242387202Y-113657143D01*
X242530060Y-113657143D01*
X242720536Y-113609524D01*
X242815774Y-113561905D01*
X242911012Y-113466667D01*
X242958631Y-113323809D01*
X242958631Y-113085714D01*
X241958631Y-114561905D02*
X241958631Y-114085714D01*
X242434821Y-114038095D01*
X242387202Y-114085714D01*
X242339583Y-114180952D01*
X242339583Y-114419048D01*
X242387202Y-114514286D01*
X242434821Y-114561905D01*
X242530060Y-114609524D01*
X242768155Y-114609524D01*
X242863393Y-114561905D01*
X242911012Y-114514286D01*
X242958631Y-114419048D01*
X242958631Y-114180952D01*
X242911012Y-114085714D01*
X242863393Y-114038095D01*
X241958631Y-114942857D02*
X241958631Y-115561905D01*
X242339583Y-115228571D01*
X242339583Y-115371429D01*
X242387202Y-115466667D01*
X242434821Y-115514286D01*
X242530060Y-115561905D01*
X242768155Y-115561905D01*
X242863393Y-115514286D01*
X242911012Y-115466667D01*
X242958631Y-115371429D01*
X242958631Y-115085714D01*
X242911012Y-114990476D01*
X242863393Y-114942857D01*
X223908631Y-113085714D02*
X222908631Y-113085714D01*
X222908631Y-113323809D01*
X222956250Y-113466667D01*
X223051488Y-113561905D01*
X223146726Y-113609524D01*
X223337202Y-113657143D01*
X223480060Y-113657143D01*
X223670536Y-113609524D01*
X223765774Y-113561905D01*
X223861012Y-113466667D01*
X223908631Y-113323809D01*
X223908631Y-113085714D01*
X222908631Y-114561905D02*
X222908631Y-114085714D01*
X223384821Y-114038095D01*
X223337202Y-114085714D01*
X223289583Y-114180952D01*
X223289583Y-114419048D01*
X223337202Y-114514286D01*
X223384821Y-114561905D01*
X223480060Y-114609524D01*
X223718155Y-114609524D01*
X223813393Y-114561905D01*
X223861012Y-114514286D01*
X223908631Y-114419048D01*
X223908631Y-114180952D01*
X223861012Y-114085714D01*
X223813393Y-114038095D01*
X223003869Y-114990476D02*
X222956250Y-115038095D01*
X222908631Y-115133333D01*
X222908631Y-115371429D01*
X222956250Y-115466667D01*
X223003869Y-115514286D01*
X223099107Y-115561905D01*
X223194345Y-115561905D01*
X223337202Y-115514286D01*
X223908631Y-114942857D01*
X223908631Y-115561905D01*
X204858631Y-113085714D02*
X203858631Y-113085714D01*
X203858631Y-113323809D01*
X203906250Y-113466667D01*
X204001488Y-113561905D01*
X204096726Y-113609524D01*
X204287202Y-113657143D01*
X204430060Y-113657143D01*
X204620536Y-113609524D01*
X204715774Y-113561905D01*
X204811012Y-113466667D01*
X204858631Y-113323809D01*
X204858631Y-113085714D01*
X203858631Y-114561905D02*
X203858631Y-114085714D01*
X204334821Y-114038095D01*
X204287202Y-114085714D01*
X204239583Y-114180952D01*
X204239583Y-114419048D01*
X204287202Y-114514286D01*
X204334821Y-114561905D01*
X204430060Y-114609524D01*
X204668155Y-114609524D01*
X204763393Y-114561905D01*
X204811012Y-114514286D01*
X204858631Y-114419048D01*
X204858631Y-114180952D01*
X204811012Y-114085714D01*
X204763393Y-114038095D01*
X204858631Y-115561905D02*
X204858631Y-114990476D01*
X204858631Y-115276190D02*
X203858631Y-115276190D01*
X204001488Y-115180952D01*
X204096726Y-115085714D01*
X204144345Y-114990476D01*
X185808631Y-113085714D02*
X184808631Y-113085714D01*
X184808631Y-113323809D01*
X184856250Y-113466667D01*
X184951488Y-113561905D01*
X185046726Y-113609524D01*
X185237202Y-113657143D01*
X185380060Y-113657143D01*
X185570536Y-113609524D01*
X185665774Y-113561905D01*
X185761012Y-113466667D01*
X185808631Y-113323809D01*
X185808631Y-113085714D01*
X184808631Y-114561905D02*
X184808631Y-114085714D01*
X185284821Y-114038095D01*
X185237202Y-114085714D01*
X185189583Y-114180952D01*
X185189583Y-114419048D01*
X185237202Y-114514286D01*
X185284821Y-114561905D01*
X185380060Y-114609524D01*
X185618155Y-114609524D01*
X185713393Y-114561905D01*
X185761012Y-114514286D01*
X185808631Y-114419048D01*
X185808631Y-114180952D01*
X185761012Y-114085714D01*
X185713393Y-114038095D01*
X184808631Y-115228571D02*
X184808631Y-115323810D01*
X184856250Y-115419048D01*
X184903869Y-115466667D01*
X184999107Y-115514286D01*
X185189583Y-115561905D01*
X185427679Y-115561905D01*
X185618155Y-115514286D01*
X185713393Y-115466667D01*
X185761012Y-115419048D01*
X185808631Y-115323810D01*
X185808631Y-115228571D01*
X185761012Y-115133333D01*
X185713393Y-115085714D01*
X185618155Y-115038095D01*
X185427679Y-114990476D01*
X185189583Y-114990476D01*
X184999107Y-115038095D01*
X184903869Y-115085714D01*
X184856250Y-115133333D01*
X184808631Y-115228571D01*
X166758631Y-113085714D02*
X165758631Y-113085714D01*
X165758631Y-113323809D01*
X165806250Y-113466667D01*
X165901488Y-113561905D01*
X165996726Y-113609524D01*
X166187202Y-113657143D01*
X166330060Y-113657143D01*
X166520536Y-113609524D01*
X166615774Y-113561905D01*
X166711012Y-113466667D01*
X166758631Y-113323809D01*
X166758631Y-113085714D01*
X166091964Y-114514286D02*
X166758631Y-114514286D01*
X165711012Y-114276190D02*
X166425298Y-114038095D01*
X166425298Y-114657143D01*
X166758631Y-115085714D02*
X166758631Y-115276190D01*
X166711012Y-115371429D01*
X166663393Y-115419048D01*
X166520536Y-115514286D01*
X166330060Y-115561905D01*
X165949107Y-115561905D01*
X165853869Y-115514286D01*
X165806250Y-115466667D01*
X165758631Y-115371429D01*
X165758631Y-115180952D01*
X165806250Y-115085714D01*
X165853869Y-115038095D01*
X165949107Y-114990476D01*
X166187202Y-114990476D01*
X166282440Y-115038095D01*
X166330060Y-115085714D01*
X166377679Y-115180952D01*
X166377679Y-115371429D01*
X166330060Y-115466667D01*
X166282440Y-115514286D01*
X166187202Y-115561905D01*
X147708631Y-113085714D02*
X146708631Y-113085714D01*
X146708631Y-113323809D01*
X146756250Y-113466667D01*
X146851488Y-113561905D01*
X146946726Y-113609524D01*
X147137202Y-113657143D01*
X147280060Y-113657143D01*
X147470536Y-113609524D01*
X147565774Y-113561905D01*
X147661012Y-113466667D01*
X147708631Y-113323809D01*
X147708631Y-113085714D01*
X147041964Y-114514286D02*
X147708631Y-114514286D01*
X146661012Y-114276190D02*
X147375298Y-114038095D01*
X147375298Y-114657143D01*
X147137202Y-115180952D02*
X147089583Y-115085714D01*
X147041964Y-115038095D01*
X146946726Y-114990476D01*
X146899107Y-114990476D01*
X146803869Y-115038095D01*
X146756250Y-115085714D01*
X146708631Y-115180952D01*
X146708631Y-115371429D01*
X146756250Y-115466667D01*
X146803869Y-115514286D01*
X146899107Y-115561905D01*
X146946726Y-115561905D01*
X147041964Y-115514286D01*
X147089583Y-115466667D01*
X147137202Y-115371429D01*
X147137202Y-115180952D01*
X147184821Y-115085714D01*
X147232440Y-115038095D01*
X147327679Y-114990476D01*
X147518155Y-114990476D01*
X147613393Y-115038095D01*
X147661012Y-115085714D01*
X147708631Y-115180952D01*
X147708631Y-115371429D01*
X147661012Y-115466667D01*
X147613393Y-115514286D01*
X147518155Y-115561905D01*
X147327679Y-115561905D01*
X147232440Y-115514286D01*
X147184821Y-115466667D01*
X147137202Y-115371429D01*
X128595381Y-113085714D02*
X127595381Y-113085714D01*
X127595381Y-113323809D01*
X127643000Y-113466667D01*
X127738238Y-113561905D01*
X127833476Y-113609524D01*
X128023952Y-113657143D01*
X128166810Y-113657143D01*
X128357286Y-113609524D01*
X128452524Y-113561905D01*
X128547762Y-113466667D01*
X128595381Y-113323809D01*
X128595381Y-113085714D01*
X127928714Y-114514286D02*
X128595381Y-114514286D01*
X127547762Y-114276190D02*
X128262048Y-114038095D01*
X128262048Y-114657143D01*
X127595381Y-114942857D02*
X127595381Y-115609524D01*
X128595381Y-115180952D01*
X109545381Y-114101714D02*
X108545381Y-114101714D01*
X108545381Y-114339809D01*
X108593000Y-114482667D01*
X108688238Y-114577905D01*
X108783476Y-114625524D01*
X108973952Y-114673143D01*
X109116810Y-114673143D01*
X109307286Y-114625524D01*
X109402524Y-114577905D01*
X109497762Y-114482667D01*
X109545381Y-114339809D01*
X109545381Y-114101714D01*
X108878714Y-115530286D02*
X109545381Y-115530286D01*
X108497762Y-115292190D02*
X109212048Y-115054095D01*
X109212048Y-115673143D01*
X108545381Y-116482667D02*
X108545381Y-116292190D01*
X108593000Y-116196952D01*
X108640619Y-116149333D01*
X108783476Y-116054095D01*
X108973952Y-116006476D01*
X109354905Y-116006476D01*
X109450143Y-116054095D01*
X109497762Y-116101714D01*
X109545381Y-116196952D01*
X109545381Y-116387429D01*
X109497762Y-116482667D01*
X109450143Y-116530286D01*
X109354905Y-116577905D01*
X109116810Y-116577905D01*
X109021571Y-116530286D01*
X108973952Y-116482667D01*
X108926333Y-116387429D01*
X108926333Y-116196952D01*
X108973952Y-116101714D01*
X109021571Y-116054095D01*
X109116810Y-116006476D01*
X61571131Y-109116964D02*
X60571131Y-109116964D01*
X60571131Y-109355059D01*
X60618750Y-109497917D01*
X60713988Y-109593155D01*
X60809226Y-109640774D01*
X60999702Y-109688393D01*
X61142560Y-109688393D01*
X61333036Y-109640774D01*
X61428274Y-109593155D01*
X61523512Y-109497917D01*
X61571131Y-109355059D01*
X61571131Y-109116964D01*
X60904464Y-110545536D02*
X61571131Y-110545536D01*
X60523512Y-110307440D02*
X61237798Y-110069345D01*
X61237798Y-110688393D01*
X60904464Y-111497917D02*
X61571131Y-111497917D01*
X60523512Y-111259821D02*
X61237798Y-111021726D01*
X61237798Y-111640774D01*
X319571631Y-97845714D02*
X318571631Y-97845714D01*
X318571631Y-98083809D01*
X318619250Y-98226667D01*
X318714488Y-98321905D01*
X318809726Y-98369524D01*
X319000202Y-98417143D01*
X319143060Y-98417143D01*
X319333536Y-98369524D01*
X319428774Y-98321905D01*
X319524012Y-98226667D01*
X319571631Y-98083809D01*
X319571631Y-97845714D01*
X318904964Y-99274286D02*
X319571631Y-99274286D01*
X318524012Y-99036190D02*
X319238298Y-98798095D01*
X319238298Y-99417143D01*
X318571631Y-99702857D02*
X318571631Y-100321905D01*
X318952583Y-99988571D01*
X318952583Y-100131429D01*
X319000202Y-100226667D01*
X319047821Y-100274286D01*
X319143060Y-100321905D01*
X319381155Y-100321905D01*
X319476393Y-100274286D01*
X319524012Y-100226667D01*
X319571631Y-100131429D01*
X319571631Y-99845714D01*
X319524012Y-99750476D01*
X319476393Y-99702857D01*
X288583631Y-97972714D02*
X287583631Y-97972714D01*
X287583631Y-98210809D01*
X287631250Y-98353667D01*
X287726488Y-98448905D01*
X287821726Y-98496524D01*
X288012202Y-98544143D01*
X288155060Y-98544143D01*
X288345536Y-98496524D01*
X288440774Y-98448905D01*
X288536012Y-98353667D01*
X288583631Y-98210809D01*
X288583631Y-97972714D01*
X287916964Y-99401286D02*
X288583631Y-99401286D01*
X287536012Y-99163190D02*
X288250298Y-98925095D01*
X288250298Y-99544143D01*
X288583631Y-100448905D02*
X288583631Y-99877476D01*
X288583631Y-100163190D02*
X287583631Y-100163190D01*
X287726488Y-100067952D01*
X287821726Y-99972714D01*
X287869345Y-99877476D01*
X269565381Y-97972714D02*
X268565381Y-97972714D01*
X268565381Y-98210809D01*
X268613000Y-98353667D01*
X268708238Y-98448905D01*
X268803476Y-98496524D01*
X268993952Y-98544143D01*
X269136810Y-98544143D01*
X269327286Y-98496524D01*
X269422524Y-98448905D01*
X269517762Y-98353667D01*
X269565381Y-98210809D01*
X269565381Y-97972714D01*
X268898714Y-99401286D02*
X269565381Y-99401286D01*
X268517762Y-99163190D02*
X269232048Y-98925095D01*
X269232048Y-99544143D01*
X268565381Y-100115571D02*
X268565381Y-100210810D01*
X268613000Y-100306048D01*
X268660619Y-100353667D01*
X268755857Y-100401286D01*
X268946333Y-100448905D01*
X269184429Y-100448905D01*
X269374905Y-100401286D01*
X269470143Y-100353667D01*
X269517762Y-100306048D01*
X269565381Y-100210810D01*
X269565381Y-100115571D01*
X269517762Y-100020333D01*
X269470143Y-99972714D01*
X269374905Y-99925095D01*
X269184429Y-99877476D01*
X268946333Y-99877476D01*
X268755857Y-99925095D01*
X268660619Y-99972714D01*
X268613000Y-100020333D01*
X268565381Y-100115571D01*
X252483631Y-94035714D02*
X251483631Y-94035714D01*
X251483631Y-94273809D01*
X251531250Y-94416667D01*
X251626488Y-94511905D01*
X251721726Y-94559524D01*
X251912202Y-94607143D01*
X252055060Y-94607143D01*
X252245536Y-94559524D01*
X252340774Y-94511905D01*
X252436012Y-94416667D01*
X252483631Y-94273809D01*
X252483631Y-94035714D01*
X251483631Y-94940476D02*
X251483631Y-95559524D01*
X251864583Y-95226190D01*
X251864583Y-95369048D01*
X251912202Y-95464286D01*
X251959821Y-95511905D01*
X252055060Y-95559524D01*
X252293155Y-95559524D01*
X252388393Y-95511905D01*
X252436012Y-95464286D01*
X252483631Y-95369048D01*
X252483631Y-95083333D01*
X252436012Y-94988095D01*
X252388393Y-94940476D01*
X252483631Y-96035714D02*
X252483631Y-96226190D01*
X252436012Y-96321429D01*
X252388393Y-96369048D01*
X252245536Y-96464286D01*
X252055060Y-96511905D01*
X251674107Y-96511905D01*
X251578869Y-96464286D01*
X251531250Y-96416667D01*
X251483631Y-96321429D01*
X251483631Y-96130952D01*
X251531250Y-96035714D01*
X251578869Y-95988095D01*
X251674107Y-95940476D01*
X251912202Y-95940476D01*
X252007440Y-95988095D01*
X252055060Y-96035714D01*
X252102679Y-96130952D01*
X252102679Y-96321429D01*
X252055060Y-96416667D01*
X252007440Y-96464286D01*
X251912202Y-96511905D01*
X233433631Y-94035714D02*
X232433631Y-94035714D01*
X232433631Y-94273809D01*
X232481250Y-94416667D01*
X232576488Y-94511905D01*
X232671726Y-94559524D01*
X232862202Y-94607143D01*
X233005060Y-94607143D01*
X233195536Y-94559524D01*
X233290774Y-94511905D01*
X233386012Y-94416667D01*
X233433631Y-94273809D01*
X233433631Y-94035714D01*
X232433631Y-94940476D02*
X232433631Y-95559524D01*
X232814583Y-95226190D01*
X232814583Y-95369048D01*
X232862202Y-95464286D01*
X232909821Y-95511905D01*
X233005060Y-95559524D01*
X233243155Y-95559524D01*
X233338393Y-95511905D01*
X233386012Y-95464286D01*
X233433631Y-95369048D01*
X233433631Y-95083333D01*
X233386012Y-94988095D01*
X233338393Y-94940476D01*
X232862202Y-96130952D02*
X232814583Y-96035714D01*
X232766964Y-95988095D01*
X232671726Y-95940476D01*
X232624107Y-95940476D01*
X232528869Y-95988095D01*
X232481250Y-96035714D01*
X232433631Y-96130952D01*
X232433631Y-96321429D01*
X232481250Y-96416667D01*
X232528869Y-96464286D01*
X232624107Y-96511905D01*
X232671726Y-96511905D01*
X232766964Y-96464286D01*
X232814583Y-96416667D01*
X232862202Y-96321429D01*
X232862202Y-96130952D01*
X232909821Y-96035714D01*
X232957440Y-95988095D01*
X233052679Y-95940476D01*
X233243155Y-95940476D01*
X233338393Y-95988095D01*
X233386012Y-96035714D01*
X233433631Y-96130952D01*
X233433631Y-96321429D01*
X233386012Y-96416667D01*
X233338393Y-96464286D01*
X233243155Y-96511905D01*
X233052679Y-96511905D01*
X232957440Y-96464286D01*
X232909821Y-96416667D01*
X232862202Y-96321429D01*
X214383631Y-94035714D02*
X213383631Y-94035714D01*
X213383631Y-94273809D01*
X213431250Y-94416667D01*
X213526488Y-94511905D01*
X213621726Y-94559524D01*
X213812202Y-94607143D01*
X213955060Y-94607143D01*
X214145536Y-94559524D01*
X214240774Y-94511905D01*
X214336012Y-94416667D01*
X214383631Y-94273809D01*
X214383631Y-94035714D01*
X213383631Y-94940476D02*
X213383631Y-95559524D01*
X213764583Y-95226190D01*
X213764583Y-95369048D01*
X213812202Y-95464286D01*
X213859821Y-95511905D01*
X213955060Y-95559524D01*
X214193155Y-95559524D01*
X214288393Y-95511905D01*
X214336012Y-95464286D01*
X214383631Y-95369048D01*
X214383631Y-95083333D01*
X214336012Y-94988095D01*
X214288393Y-94940476D01*
X213383631Y-95892857D02*
X213383631Y-96559524D01*
X214383631Y-96130952D01*
X195333631Y-94035714D02*
X194333631Y-94035714D01*
X194333631Y-94273809D01*
X194381250Y-94416667D01*
X194476488Y-94511905D01*
X194571726Y-94559524D01*
X194762202Y-94607143D01*
X194905060Y-94607143D01*
X195095536Y-94559524D01*
X195190774Y-94511905D01*
X195286012Y-94416667D01*
X195333631Y-94273809D01*
X195333631Y-94035714D01*
X194333631Y-94940476D02*
X194333631Y-95559524D01*
X194714583Y-95226190D01*
X194714583Y-95369048D01*
X194762202Y-95464286D01*
X194809821Y-95511905D01*
X194905060Y-95559524D01*
X195143155Y-95559524D01*
X195238393Y-95511905D01*
X195286012Y-95464286D01*
X195333631Y-95369048D01*
X195333631Y-95083333D01*
X195286012Y-94988095D01*
X195238393Y-94940476D01*
X194333631Y-96416667D02*
X194333631Y-96226190D01*
X194381250Y-96130952D01*
X194428869Y-96083333D01*
X194571726Y-95988095D01*
X194762202Y-95940476D01*
X195143155Y-95940476D01*
X195238393Y-95988095D01*
X195286012Y-96035714D01*
X195333631Y-96130952D01*
X195333631Y-96321429D01*
X195286012Y-96416667D01*
X195238393Y-96464286D01*
X195143155Y-96511905D01*
X194905060Y-96511905D01*
X194809821Y-96464286D01*
X194762202Y-96416667D01*
X194714583Y-96321429D01*
X194714583Y-96130952D01*
X194762202Y-96035714D01*
X194809821Y-95988095D01*
X194905060Y-95940476D01*
X159218256Y-97972714D02*
X158218256Y-97972714D01*
X158218256Y-98210809D01*
X158265875Y-98353667D01*
X158361113Y-98448905D01*
X158456351Y-98496524D01*
X158646827Y-98544143D01*
X158789685Y-98544143D01*
X158980161Y-98496524D01*
X159075399Y-98448905D01*
X159170637Y-98353667D01*
X159218256Y-98210809D01*
X159218256Y-97972714D01*
X158218256Y-98877476D02*
X158218256Y-99496524D01*
X158599208Y-99163190D01*
X158599208Y-99306048D01*
X158646827Y-99401286D01*
X158694446Y-99448905D01*
X158789685Y-99496524D01*
X159027780Y-99496524D01*
X159123018Y-99448905D01*
X159170637Y-99401286D01*
X159218256Y-99306048D01*
X159218256Y-99020333D01*
X159170637Y-98925095D01*
X159123018Y-98877476D01*
X158218256Y-100401286D02*
X158218256Y-99925095D01*
X158694446Y-99877476D01*
X158646827Y-99925095D01*
X158599208Y-100020333D01*
X158599208Y-100258429D01*
X158646827Y-100353667D01*
X158694446Y-100401286D01*
X158789685Y-100448905D01*
X159027780Y-100448905D01*
X159123018Y-100401286D01*
X159170637Y-100353667D01*
X159218256Y-100258429D01*
X159218256Y-100020333D01*
X159170637Y-99925095D01*
X159123018Y-99877476D01*
X155265381Y-97972714D02*
X154265381Y-97972714D01*
X154265381Y-98210809D01*
X154313000Y-98353667D01*
X154408238Y-98448905D01*
X154503476Y-98496524D01*
X154693952Y-98544143D01*
X154836810Y-98544143D01*
X155027286Y-98496524D01*
X155122524Y-98448905D01*
X155217762Y-98353667D01*
X155265381Y-98210809D01*
X155265381Y-97972714D01*
X154265381Y-98877476D02*
X154265381Y-99496524D01*
X154646333Y-99163190D01*
X154646333Y-99306048D01*
X154693952Y-99401286D01*
X154741571Y-99448905D01*
X154836810Y-99496524D01*
X155074905Y-99496524D01*
X155170143Y-99448905D01*
X155217762Y-99401286D01*
X155265381Y-99306048D01*
X155265381Y-99020333D01*
X155217762Y-98925095D01*
X155170143Y-98877476D01*
X154598714Y-100353667D02*
X155265381Y-100353667D01*
X154217762Y-100115571D02*
X154932048Y-99877476D01*
X154932048Y-100496524D01*
X136199506Y-89971714D02*
X135199506Y-89971714D01*
X135199506Y-90209809D01*
X135247125Y-90352667D01*
X135342363Y-90447905D01*
X135437601Y-90495524D01*
X135628077Y-90543143D01*
X135770935Y-90543143D01*
X135961411Y-90495524D01*
X136056649Y-90447905D01*
X136151887Y-90352667D01*
X136199506Y-90209809D01*
X136199506Y-89971714D01*
X135199506Y-90876476D02*
X135199506Y-91495524D01*
X135580458Y-91162190D01*
X135580458Y-91305048D01*
X135628077Y-91400286D01*
X135675696Y-91447905D01*
X135770935Y-91495524D01*
X136009030Y-91495524D01*
X136104268Y-91447905D01*
X136151887Y-91400286D01*
X136199506Y-91305048D01*
X136199506Y-91019333D01*
X136151887Y-90924095D01*
X136104268Y-90876476D01*
X135199506Y-91828857D02*
X135199506Y-92447905D01*
X135580458Y-92114571D01*
X135580458Y-92257429D01*
X135628077Y-92352667D01*
X135675696Y-92400286D01*
X135770935Y-92447905D01*
X136009030Y-92447905D01*
X136104268Y-92400286D01*
X136151887Y-92352667D01*
X136199506Y-92257429D01*
X136199506Y-91971714D01*
X136151887Y-91876476D01*
X136104268Y-91828857D01*
X117165381Y-89971714D02*
X116165381Y-89971714D01*
X116165381Y-90209809D01*
X116213000Y-90352667D01*
X116308238Y-90447905D01*
X116403476Y-90495524D01*
X116593952Y-90543143D01*
X116736810Y-90543143D01*
X116927286Y-90495524D01*
X117022524Y-90447905D01*
X117117762Y-90352667D01*
X117165381Y-90209809D01*
X117165381Y-89971714D01*
X116165381Y-90876476D02*
X116165381Y-91495524D01*
X116546333Y-91162190D01*
X116546333Y-91305048D01*
X116593952Y-91400286D01*
X116641571Y-91447905D01*
X116736810Y-91495524D01*
X116974905Y-91495524D01*
X117070143Y-91447905D01*
X117117762Y-91400286D01*
X117165381Y-91305048D01*
X117165381Y-91019333D01*
X117117762Y-90924095D01*
X117070143Y-90876476D01*
X116260619Y-91876476D02*
X116213000Y-91924095D01*
X116165381Y-92019333D01*
X116165381Y-92257429D01*
X116213000Y-92352667D01*
X116260619Y-92400286D01*
X116355857Y-92447905D01*
X116451095Y-92447905D01*
X116593952Y-92400286D01*
X117165381Y-91828857D01*
X117165381Y-92447905D01*
X100083631Y-94035714D02*
X99083631Y-94035714D01*
X99083631Y-94273809D01*
X99131250Y-94416667D01*
X99226488Y-94511905D01*
X99321726Y-94559524D01*
X99512202Y-94607143D01*
X99655060Y-94607143D01*
X99845536Y-94559524D01*
X99940774Y-94511905D01*
X100036012Y-94416667D01*
X100083631Y-94273809D01*
X100083631Y-94035714D01*
X99083631Y-94940476D02*
X99083631Y-95559524D01*
X99464583Y-95226190D01*
X99464583Y-95369048D01*
X99512202Y-95464286D01*
X99559821Y-95511905D01*
X99655060Y-95559524D01*
X99893155Y-95559524D01*
X99988393Y-95511905D01*
X100036012Y-95464286D01*
X100083631Y-95369048D01*
X100083631Y-95083333D01*
X100036012Y-94988095D01*
X99988393Y-94940476D01*
X100083631Y-96511905D02*
X100083631Y-95940476D01*
X100083631Y-96226190D02*
X99083631Y-96226190D01*
X99226488Y-96130952D01*
X99321726Y-96035714D01*
X99369345Y-95940476D01*
X52903381Y-89971714D02*
X51903381Y-89971714D01*
X51903381Y-90209809D01*
X51951000Y-90352667D01*
X52046238Y-90447905D01*
X52141476Y-90495524D01*
X52331952Y-90543143D01*
X52474810Y-90543143D01*
X52665286Y-90495524D01*
X52760524Y-90447905D01*
X52855762Y-90352667D01*
X52903381Y-90209809D01*
X52903381Y-89971714D01*
X51903381Y-90876476D02*
X51903381Y-91495524D01*
X52284333Y-91162190D01*
X52284333Y-91305048D01*
X52331952Y-91400286D01*
X52379571Y-91447905D01*
X52474810Y-91495524D01*
X52712905Y-91495524D01*
X52808143Y-91447905D01*
X52855762Y-91400286D01*
X52903381Y-91305048D01*
X52903381Y-91019333D01*
X52855762Y-90924095D01*
X52808143Y-90876476D01*
X51903381Y-92114571D02*
X51903381Y-92209810D01*
X51951000Y-92305048D01*
X51998619Y-92352667D01*
X52093857Y-92400286D01*
X52284333Y-92447905D01*
X52522429Y-92447905D01*
X52712905Y-92400286D01*
X52808143Y-92352667D01*
X52855762Y-92305048D01*
X52903381Y-92209810D01*
X52903381Y-92114571D01*
X52855762Y-92019333D01*
X52808143Y-91971714D01*
X52712905Y-91924095D01*
X52522429Y-91876476D01*
X52284333Y-91876476D01*
X52093857Y-91924095D01*
X51998619Y-91971714D01*
X51951000Y-92019333D01*
X51903381Y-92114571D01*
X328683631Y-74985714D02*
X327683631Y-74985714D01*
X327683631Y-75223809D01*
X327731250Y-75366667D01*
X327826488Y-75461905D01*
X327921726Y-75509524D01*
X328112202Y-75557143D01*
X328255060Y-75557143D01*
X328445536Y-75509524D01*
X328540774Y-75461905D01*
X328636012Y-75366667D01*
X328683631Y-75223809D01*
X328683631Y-74985714D01*
X327778869Y-75938095D02*
X327731250Y-75985714D01*
X327683631Y-76080952D01*
X327683631Y-76319048D01*
X327731250Y-76414286D01*
X327778869Y-76461905D01*
X327874107Y-76509524D01*
X327969345Y-76509524D01*
X328112202Y-76461905D01*
X328683631Y-75890476D01*
X328683631Y-76509524D01*
X328683631Y-76985714D02*
X328683631Y-77176190D01*
X328636012Y-77271429D01*
X328588393Y-77319048D01*
X328445536Y-77414286D01*
X328255060Y-77461905D01*
X327874107Y-77461905D01*
X327778869Y-77414286D01*
X327731250Y-77366667D01*
X327683631Y-77271429D01*
X327683631Y-77080952D01*
X327731250Y-76985714D01*
X327778869Y-76938095D01*
X327874107Y-76890476D01*
X328112202Y-76890476D01*
X328207440Y-76938095D01*
X328255060Y-76985714D01*
X328302679Y-77080952D01*
X328302679Y-77271429D01*
X328255060Y-77366667D01*
X328207440Y-77414286D01*
X328112202Y-77461905D01*
X302966381Y-70921714D02*
X301966381Y-70921714D01*
X301966381Y-71159809D01*
X302014000Y-71302667D01*
X302109238Y-71397905D01*
X302204476Y-71445524D01*
X302394952Y-71493143D01*
X302537810Y-71493143D01*
X302728286Y-71445524D01*
X302823524Y-71397905D01*
X302918762Y-71302667D01*
X302966381Y-71159809D01*
X302966381Y-70921714D01*
X302061619Y-71874095D02*
X302014000Y-71921714D01*
X301966381Y-72016952D01*
X301966381Y-72255048D01*
X302014000Y-72350286D01*
X302061619Y-72397905D01*
X302156857Y-72445524D01*
X302252095Y-72445524D01*
X302394952Y-72397905D01*
X302966381Y-71826476D01*
X302966381Y-72445524D01*
X302394952Y-73016952D02*
X302347333Y-72921714D01*
X302299714Y-72874095D01*
X302204476Y-72826476D01*
X302156857Y-72826476D01*
X302061619Y-72874095D01*
X302014000Y-72921714D01*
X301966381Y-73016952D01*
X301966381Y-73207429D01*
X302014000Y-73302667D01*
X302061619Y-73350286D01*
X302156857Y-73397905D01*
X302204476Y-73397905D01*
X302299714Y-73350286D01*
X302347333Y-73302667D01*
X302394952Y-73207429D01*
X302394952Y-73016952D01*
X302442571Y-72921714D01*
X302490190Y-72874095D01*
X302585429Y-72826476D01*
X302775905Y-72826476D01*
X302871143Y-72874095D01*
X302918762Y-72921714D01*
X302966381Y-73016952D01*
X302966381Y-73207429D01*
X302918762Y-73302667D01*
X302871143Y-73350286D01*
X302775905Y-73397905D01*
X302585429Y-73397905D01*
X302490190Y-73350286D01*
X302442571Y-73302667D01*
X302394952Y-73207429D01*
X285821131Y-74985714D02*
X284821131Y-74985714D01*
X284821131Y-75223809D01*
X284868750Y-75366667D01*
X284963988Y-75461905D01*
X285059226Y-75509524D01*
X285249702Y-75557143D01*
X285392560Y-75557143D01*
X285583036Y-75509524D01*
X285678274Y-75461905D01*
X285773512Y-75366667D01*
X285821131Y-75223809D01*
X285821131Y-74985714D01*
X284916369Y-75938095D02*
X284868750Y-75985714D01*
X284821131Y-76080952D01*
X284821131Y-76319048D01*
X284868750Y-76414286D01*
X284916369Y-76461905D01*
X285011607Y-76509524D01*
X285106845Y-76509524D01*
X285249702Y-76461905D01*
X285821131Y-75890476D01*
X285821131Y-76509524D01*
X284821131Y-76842857D02*
X284821131Y-77509524D01*
X285821131Y-77080952D01*
X266771131Y-74985714D02*
X265771131Y-74985714D01*
X265771131Y-75223809D01*
X265818750Y-75366667D01*
X265913988Y-75461905D01*
X266009226Y-75509524D01*
X266199702Y-75557143D01*
X266342560Y-75557143D01*
X266533036Y-75509524D01*
X266628274Y-75461905D01*
X266723512Y-75366667D01*
X266771131Y-75223809D01*
X266771131Y-74985714D01*
X265866369Y-75938095D02*
X265818750Y-75985714D01*
X265771131Y-76080952D01*
X265771131Y-76319048D01*
X265818750Y-76414286D01*
X265866369Y-76461905D01*
X265961607Y-76509524D01*
X266056845Y-76509524D01*
X266199702Y-76461905D01*
X266771131Y-75890476D01*
X266771131Y-76509524D01*
X265771131Y-77366667D02*
X265771131Y-77176190D01*
X265818750Y-77080952D01*
X265866369Y-77033333D01*
X266009226Y-76938095D01*
X266199702Y-76890476D01*
X266580655Y-76890476D01*
X266675893Y-76938095D01*
X266723512Y-76985714D01*
X266771131Y-77080952D01*
X266771131Y-77271429D01*
X266723512Y-77366667D01*
X266675893Y-77414286D01*
X266580655Y-77461905D01*
X266342560Y-77461905D01*
X266247321Y-77414286D01*
X266199702Y-77366667D01*
X266152083Y-77271429D01*
X266152083Y-77080952D01*
X266199702Y-76985714D01*
X266247321Y-76938095D01*
X266342560Y-76890476D01*
X247721131Y-74985714D02*
X246721131Y-74985714D01*
X246721131Y-75223809D01*
X246768750Y-75366667D01*
X246863988Y-75461905D01*
X246959226Y-75509524D01*
X247149702Y-75557143D01*
X247292560Y-75557143D01*
X247483036Y-75509524D01*
X247578274Y-75461905D01*
X247673512Y-75366667D01*
X247721131Y-75223809D01*
X247721131Y-74985714D01*
X246816369Y-75938095D02*
X246768750Y-75985714D01*
X246721131Y-76080952D01*
X246721131Y-76319048D01*
X246768750Y-76414286D01*
X246816369Y-76461905D01*
X246911607Y-76509524D01*
X247006845Y-76509524D01*
X247149702Y-76461905D01*
X247721131Y-75890476D01*
X247721131Y-76509524D01*
X246721131Y-77414286D02*
X246721131Y-76938095D01*
X247197321Y-76890476D01*
X247149702Y-76938095D01*
X247102083Y-77033333D01*
X247102083Y-77271429D01*
X247149702Y-77366667D01*
X247197321Y-77414286D01*
X247292560Y-77461905D01*
X247530655Y-77461905D01*
X247625893Y-77414286D01*
X247673512Y-77366667D01*
X247721131Y-77271429D01*
X247721131Y-77033333D01*
X247673512Y-76938095D01*
X247625893Y-76890476D01*
X228671131Y-74985714D02*
X227671131Y-74985714D01*
X227671131Y-75223809D01*
X227718750Y-75366667D01*
X227813988Y-75461905D01*
X227909226Y-75509524D01*
X228099702Y-75557143D01*
X228242560Y-75557143D01*
X228433036Y-75509524D01*
X228528274Y-75461905D01*
X228623512Y-75366667D01*
X228671131Y-75223809D01*
X228671131Y-74985714D01*
X227766369Y-75938095D02*
X227718750Y-75985714D01*
X227671131Y-76080952D01*
X227671131Y-76319048D01*
X227718750Y-76414286D01*
X227766369Y-76461905D01*
X227861607Y-76509524D01*
X227956845Y-76509524D01*
X228099702Y-76461905D01*
X228671131Y-75890476D01*
X228671131Y-76509524D01*
X228004464Y-77366667D02*
X228671131Y-77366667D01*
X227623512Y-77128571D02*
X228337798Y-76890476D01*
X228337798Y-77509524D01*
X209621131Y-74985714D02*
X208621131Y-74985714D01*
X208621131Y-75223809D01*
X208668750Y-75366667D01*
X208763988Y-75461905D01*
X208859226Y-75509524D01*
X209049702Y-75557143D01*
X209192560Y-75557143D01*
X209383036Y-75509524D01*
X209478274Y-75461905D01*
X209573512Y-75366667D01*
X209621131Y-75223809D01*
X209621131Y-74985714D01*
X208716369Y-75938095D02*
X208668750Y-75985714D01*
X208621131Y-76080952D01*
X208621131Y-76319048D01*
X208668750Y-76414286D01*
X208716369Y-76461905D01*
X208811607Y-76509524D01*
X208906845Y-76509524D01*
X209049702Y-76461905D01*
X209621131Y-75890476D01*
X209621131Y-76509524D01*
X208621131Y-76842857D02*
X208621131Y-77461905D01*
X209002083Y-77128571D01*
X209002083Y-77271429D01*
X209049702Y-77366667D01*
X209097321Y-77414286D01*
X209192560Y-77461905D01*
X209430655Y-77461905D01*
X209525893Y-77414286D01*
X209573512Y-77366667D01*
X209621131Y-77271429D01*
X209621131Y-76985714D01*
X209573512Y-76890476D01*
X209525893Y-76842857D01*
X190571131Y-74985714D02*
X189571131Y-74985714D01*
X189571131Y-75223809D01*
X189618750Y-75366667D01*
X189713988Y-75461905D01*
X189809226Y-75509524D01*
X189999702Y-75557143D01*
X190142560Y-75557143D01*
X190333036Y-75509524D01*
X190428274Y-75461905D01*
X190523512Y-75366667D01*
X190571131Y-75223809D01*
X190571131Y-74985714D01*
X189666369Y-75938095D02*
X189618750Y-75985714D01*
X189571131Y-76080952D01*
X189571131Y-76319048D01*
X189618750Y-76414286D01*
X189666369Y-76461905D01*
X189761607Y-76509524D01*
X189856845Y-76509524D01*
X189999702Y-76461905D01*
X190571131Y-75890476D01*
X190571131Y-76509524D01*
X189666369Y-76890476D02*
X189618750Y-76938095D01*
X189571131Y-77033333D01*
X189571131Y-77271429D01*
X189618750Y-77366667D01*
X189666369Y-77414286D01*
X189761607Y-77461905D01*
X189856845Y-77461905D01*
X189999702Y-77414286D01*
X190571131Y-76842857D01*
X190571131Y-77461905D01*
X171521131Y-74985714D02*
X170521131Y-74985714D01*
X170521131Y-75223809D01*
X170568750Y-75366667D01*
X170663988Y-75461905D01*
X170759226Y-75509524D01*
X170949702Y-75557143D01*
X171092560Y-75557143D01*
X171283036Y-75509524D01*
X171378274Y-75461905D01*
X171473512Y-75366667D01*
X171521131Y-75223809D01*
X171521131Y-74985714D01*
X170616369Y-75938095D02*
X170568750Y-75985714D01*
X170521131Y-76080952D01*
X170521131Y-76319048D01*
X170568750Y-76414286D01*
X170616369Y-76461905D01*
X170711607Y-76509524D01*
X170806845Y-76509524D01*
X170949702Y-76461905D01*
X171521131Y-75890476D01*
X171521131Y-76509524D01*
X171521131Y-77461905D02*
X171521131Y-76890476D01*
X171521131Y-77176190D02*
X170521131Y-77176190D01*
X170663988Y-77080952D01*
X170759226Y-76985714D01*
X170806845Y-76890476D01*
X152471131Y-74985714D02*
X151471131Y-74985714D01*
X151471131Y-75223809D01*
X151518750Y-75366667D01*
X151613988Y-75461905D01*
X151709226Y-75509524D01*
X151899702Y-75557143D01*
X152042560Y-75557143D01*
X152233036Y-75509524D01*
X152328274Y-75461905D01*
X152423512Y-75366667D01*
X152471131Y-75223809D01*
X152471131Y-74985714D01*
X151566369Y-75938095D02*
X151518750Y-75985714D01*
X151471131Y-76080952D01*
X151471131Y-76319048D01*
X151518750Y-76414286D01*
X151566369Y-76461905D01*
X151661607Y-76509524D01*
X151756845Y-76509524D01*
X151899702Y-76461905D01*
X152471131Y-75890476D01*
X152471131Y-76509524D01*
X151471131Y-77128571D02*
X151471131Y-77223810D01*
X151518750Y-77319048D01*
X151566369Y-77366667D01*
X151661607Y-77414286D01*
X151852083Y-77461905D01*
X152090179Y-77461905D01*
X152280655Y-77414286D01*
X152375893Y-77366667D01*
X152423512Y-77319048D01*
X152471131Y-77223810D01*
X152471131Y-77128571D01*
X152423512Y-77033333D01*
X152375893Y-76985714D01*
X152280655Y-76938095D01*
X152090179Y-76890476D01*
X151852083Y-76890476D01*
X151661607Y-76938095D01*
X151566369Y-76985714D01*
X151518750Y-77033333D01*
X151471131Y-77128571D01*
X133421131Y-74985714D02*
X132421131Y-74985714D01*
X132421131Y-75223809D01*
X132468750Y-75366667D01*
X132563988Y-75461905D01*
X132659226Y-75509524D01*
X132849702Y-75557143D01*
X132992560Y-75557143D01*
X133183036Y-75509524D01*
X133278274Y-75461905D01*
X133373512Y-75366667D01*
X133421131Y-75223809D01*
X133421131Y-74985714D01*
X133421131Y-76509524D02*
X133421131Y-75938095D01*
X133421131Y-76223809D02*
X132421131Y-76223809D01*
X132563988Y-76128571D01*
X132659226Y-76033333D01*
X132706845Y-75938095D01*
X133421131Y-76985714D02*
X133421131Y-77176190D01*
X133373512Y-77271429D01*
X133325893Y-77319048D01*
X133183036Y-77414286D01*
X132992560Y-77461905D01*
X132611607Y-77461905D01*
X132516369Y-77414286D01*
X132468750Y-77366667D01*
X132421131Y-77271429D01*
X132421131Y-77080952D01*
X132468750Y-76985714D01*
X132516369Y-76938095D01*
X132611607Y-76890476D01*
X132849702Y-76890476D01*
X132944940Y-76938095D01*
X132992560Y-76985714D01*
X133040179Y-77080952D01*
X133040179Y-77271429D01*
X132992560Y-77366667D01*
X132944940Y-77414286D01*
X132849702Y-77461905D01*
X114371131Y-74985714D02*
X113371131Y-74985714D01*
X113371131Y-75223809D01*
X113418750Y-75366667D01*
X113513988Y-75461905D01*
X113609226Y-75509524D01*
X113799702Y-75557143D01*
X113942560Y-75557143D01*
X114133036Y-75509524D01*
X114228274Y-75461905D01*
X114323512Y-75366667D01*
X114371131Y-75223809D01*
X114371131Y-74985714D01*
X114371131Y-76509524D02*
X114371131Y-75938095D01*
X114371131Y-76223809D02*
X113371131Y-76223809D01*
X113513988Y-76128571D01*
X113609226Y-76033333D01*
X113656845Y-75938095D01*
X113799702Y-77080952D02*
X113752083Y-76985714D01*
X113704464Y-76938095D01*
X113609226Y-76890476D01*
X113561607Y-76890476D01*
X113466369Y-76938095D01*
X113418750Y-76985714D01*
X113371131Y-77080952D01*
X113371131Y-77271429D01*
X113418750Y-77366667D01*
X113466369Y-77414286D01*
X113561607Y-77461905D01*
X113609226Y-77461905D01*
X113704464Y-77414286D01*
X113752083Y-77366667D01*
X113799702Y-77271429D01*
X113799702Y-77080952D01*
X113847321Y-76985714D01*
X113894940Y-76938095D01*
X113990179Y-76890476D01*
X114180655Y-76890476D01*
X114275893Y-76938095D01*
X114323512Y-76985714D01*
X114371131Y-77080952D01*
X114371131Y-77271429D01*
X114323512Y-77366667D01*
X114275893Y-77414286D01*
X114180655Y-77461905D01*
X113990179Y-77461905D01*
X113894940Y-77414286D01*
X113847321Y-77366667D01*
X113799702Y-77271429D01*
X95321131Y-74985714D02*
X94321131Y-74985714D01*
X94321131Y-75223809D01*
X94368750Y-75366667D01*
X94463988Y-75461905D01*
X94559226Y-75509524D01*
X94749702Y-75557143D01*
X94892560Y-75557143D01*
X95083036Y-75509524D01*
X95178274Y-75461905D01*
X95273512Y-75366667D01*
X95321131Y-75223809D01*
X95321131Y-74985714D01*
X95321131Y-76509524D02*
X95321131Y-75938095D01*
X95321131Y-76223809D02*
X94321131Y-76223809D01*
X94463988Y-76128571D01*
X94559226Y-76033333D01*
X94606845Y-75938095D01*
X94321131Y-76842857D02*
X94321131Y-77509524D01*
X95321131Y-77080952D01*
X54046381Y-70921714D02*
X53046381Y-70921714D01*
X53046381Y-71159809D01*
X53094000Y-71302667D01*
X53189238Y-71397905D01*
X53284476Y-71445524D01*
X53474952Y-71493143D01*
X53617810Y-71493143D01*
X53808286Y-71445524D01*
X53903524Y-71397905D01*
X53998762Y-71302667D01*
X54046381Y-71159809D01*
X54046381Y-70921714D01*
X54046381Y-72445524D02*
X54046381Y-71874095D01*
X54046381Y-72159809D02*
X53046381Y-72159809D01*
X53189238Y-72064571D01*
X53284476Y-71969333D01*
X53332095Y-71874095D01*
X53046381Y-73302667D02*
X53046381Y-73112190D01*
X53094000Y-73016952D01*
X53141619Y-72969333D01*
X53284476Y-72874095D01*
X53474952Y-72826476D01*
X53855905Y-72826476D01*
X53951143Y-72874095D01*
X53998762Y-72921714D01*
X54046381Y-73016952D01*
X54046381Y-73207429D01*
X53998762Y-73302667D01*
X53951143Y-73350286D01*
X53855905Y-73397905D01*
X53617810Y-73397905D01*
X53522571Y-73350286D01*
X53474952Y-73302667D01*
X53427333Y-73207429D01*
X53427333Y-73016952D01*
X53474952Y-72921714D01*
X53522571Y-72874095D01*
X53617810Y-72826476D01*
X333446131Y-55935714D02*
X332446131Y-55935714D01*
X332446131Y-56173809D01*
X332493750Y-56316667D01*
X332588988Y-56411905D01*
X332684226Y-56459524D01*
X332874702Y-56507143D01*
X333017560Y-56507143D01*
X333208036Y-56459524D01*
X333303274Y-56411905D01*
X333398512Y-56316667D01*
X333446131Y-56173809D01*
X333446131Y-55935714D01*
X333446131Y-57459524D02*
X333446131Y-56888095D01*
X333446131Y-57173809D02*
X332446131Y-57173809D01*
X332588988Y-57078571D01*
X332684226Y-56983333D01*
X332731845Y-56888095D01*
X332446131Y-58364286D02*
X332446131Y-57888095D01*
X332922321Y-57840476D01*
X332874702Y-57888095D01*
X332827083Y-57983333D01*
X332827083Y-58221429D01*
X332874702Y-58316667D01*
X332922321Y-58364286D01*
X333017560Y-58411905D01*
X333255655Y-58411905D01*
X333350893Y-58364286D01*
X333398512Y-58316667D01*
X333446131Y-58221429D01*
X333446131Y-57983333D01*
X333398512Y-57888095D01*
X333350893Y-57840476D01*
X298918006Y-55935714D02*
X297918006Y-55935714D01*
X297918006Y-56173809D01*
X297965625Y-56316667D01*
X298060863Y-56411905D01*
X298156101Y-56459524D01*
X298346577Y-56507143D01*
X298489435Y-56507143D01*
X298679911Y-56459524D01*
X298775149Y-56411905D01*
X298870387Y-56316667D01*
X298918006Y-56173809D01*
X298918006Y-55935714D01*
X298918006Y-57459524D02*
X298918006Y-56888095D01*
X298918006Y-57173809D02*
X297918006Y-57173809D01*
X298060863Y-57078571D01*
X298156101Y-56983333D01*
X298203720Y-56888095D01*
X298251339Y-58316667D02*
X298918006Y-58316667D01*
X297870387Y-58078571D02*
X298584673Y-57840476D01*
X298584673Y-58459524D01*
X291409381Y-55522964D02*
X290409381Y-55522964D01*
X290409381Y-55761059D01*
X290457000Y-55903917D01*
X290552238Y-55999155D01*
X290647476Y-56046774D01*
X290837952Y-56094393D01*
X290980810Y-56094393D01*
X291171286Y-56046774D01*
X291266524Y-55999155D01*
X291361762Y-55903917D01*
X291409381Y-55761059D01*
X291409381Y-55522964D01*
X291409381Y-57046774D02*
X291409381Y-56475345D01*
X291409381Y-56761059D02*
X290409381Y-56761059D01*
X290552238Y-56665821D01*
X290647476Y-56570583D01*
X290695095Y-56475345D01*
X290409381Y-57380107D02*
X290409381Y-57999155D01*
X290790333Y-57665821D01*
X290790333Y-57808679D01*
X290837952Y-57903917D01*
X290885571Y-57951536D01*
X290980810Y-57999155D01*
X291218905Y-57999155D01*
X291314143Y-57951536D01*
X291361762Y-57903917D01*
X291409381Y-57808679D01*
X291409381Y-57522964D01*
X291361762Y-57427726D01*
X291314143Y-57380107D01*
X276296131Y-55935714D02*
X275296131Y-55935714D01*
X275296131Y-56173809D01*
X275343750Y-56316667D01*
X275438988Y-56411905D01*
X275534226Y-56459524D01*
X275724702Y-56507143D01*
X275867560Y-56507143D01*
X276058036Y-56459524D01*
X276153274Y-56411905D01*
X276248512Y-56316667D01*
X276296131Y-56173809D01*
X276296131Y-55935714D01*
X276296131Y-57459524D02*
X276296131Y-56888095D01*
X276296131Y-57173809D02*
X275296131Y-57173809D01*
X275438988Y-57078571D01*
X275534226Y-56983333D01*
X275581845Y-56888095D01*
X275391369Y-57840476D02*
X275343750Y-57888095D01*
X275296131Y-57983333D01*
X275296131Y-58221429D01*
X275343750Y-58316667D01*
X275391369Y-58364286D01*
X275486607Y-58411905D01*
X275581845Y-58411905D01*
X275724702Y-58364286D01*
X276296131Y-57792857D01*
X276296131Y-58411905D01*
X257246131Y-55935714D02*
X256246131Y-55935714D01*
X256246131Y-56173809D01*
X256293750Y-56316667D01*
X256388988Y-56411905D01*
X256484226Y-56459524D01*
X256674702Y-56507143D01*
X256817560Y-56507143D01*
X257008036Y-56459524D01*
X257103274Y-56411905D01*
X257198512Y-56316667D01*
X257246131Y-56173809D01*
X257246131Y-55935714D01*
X257246131Y-57459524D02*
X257246131Y-56888095D01*
X257246131Y-57173809D02*
X256246131Y-57173809D01*
X256388988Y-57078571D01*
X256484226Y-56983333D01*
X256531845Y-56888095D01*
X257246131Y-58411905D02*
X257246131Y-57840476D01*
X257246131Y-58126190D02*
X256246131Y-58126190D01*
X256388988Y-58030952D01*
X256484226Y-57935714D01*
X256531845Y-57840476D01*
X238196131Y-55935714D02*
X237196131Y-55935714D01*
X237196131Y-56173809D01*
X237243750Y-56316667D01*
X237338988Y-56411905D01*
X237434226Y-56459524D01*
X237624702Y-56507143D01*
X237767560Y-56507143D01*
X237958036Y-56459524D01*
X238053274Y-56411905D01*
X238148512Y-56316667D01*
X238196131Y-56173809D01*
X238196131Y-55935714D01*
X238196131Y-57459524D02*
X238196131Y-56888095D01*
X238196131Y-57173809D02*
X237196131Y-57173809D01*
X237338988Y-57078571D01*
X237434226Y-56983333D01*
X237481845Y-56888095D01*
X237196131Y-58078571D02*
X237196131Y-58173810D01*
X237243750Y-58269048D01*
X237291369Y-58316667D01*
X237386607Y-58364286D01*
X237577083Y-58411905D01*
X237815179Y-58411905D01*
X238005655Y-58364286D01*
X238100893Y-58316667D01*
X238148512Y-58269048D01*
X238196131Y-58173810D01*
X238196131Y-58078571D01*
X238148512Y-57983333D01*
X238100893Y-57935714D01*
X238005655Y-57888095D01*
X237815179Y-57840476D01*
X237577083Y-57840476D01*
X237386607Y-57888095D01*
X237291369Y-57935714D01*
X237243750Y-57983333D01*
X237196131Y-58078571D01*
X219146131Y-56411905D02*
X218146131Y-56411905D01*
X218146131Y-56650000D01*
X218193750Y-56792858D01*
X218288988Y-56888096D01*
X218384226Y-56935715D01*
X218574702Y-56983334D01*
X218717560Y-56983334D01*
X218908036Y-56935715D01*
X219003274Y-56888096D01*
X219098512Y-56792858D01*
X219146131Y-56650000D01*
X219146131Y-56411905D01*
X219146131Y-57459524D02*
X219146131Y-57650000D01*
X219098512Y-57745239D01*
X219050893Y-57792858D01*
X218908036Y-57888096D01*
X218717560Y-57935715D01*
X218336607Y-57935715D01*
X218241369Y-57888096D01*
X218193750Y-57840477D01*
X218146131Y-57745239D01*
X218146131Y-57554762D01*
X218193750Y-57459524D01*
X218241369Y-57411905D01*
X218336607Y-57364286D01*
X218574702Y-57364286D01*
X218669940Y-57411905D01*
X218717560Y-57459524D01*
X218765179Y-57554762D01*
X218765179Y-57745239D01*
X218717560Y-57840477D01*
X218669940Y-57888096D01*
X218574702Y-57935715D01*
X200096131Y-56411905D02*
X199096131Y-56411905D01*
X199096131Y-56650000D01*
X199143750Y-56792858D01*
X199238988Y-56888096D01*
X199334226Y-56935715D01*
X199524702Y-56983334D01*
X199667560Y-56983334D01*
X199858036Y-56935715D01*
X199953274Y-56888096D01*
X200048512Y-56792858D01*
X200096131Y-56650000D01*
X200096131Y-56411905D01*
X199524702Y-57554762D02*
X199477083Y-57459524D01*
X199429464Y-57411905D01*
X199334226Y-57364286D01*
X199286607Y-57364286D01*
X199191369Y-57411905D01*
X199143750Y-57459524D01*
X199096131Y-57554762D01*
X199096131Y-57745239D01*
X199143750Y-57840477D01*
X199191369Y-57888096D01*
X199286607Y-57935715D01*
X199334226Y-57935715D01*
X199429464Y-57888096D01*
X199477083Y-57840477D01*
X199524702Y-57745239D01*
X199524702Y-57554762D01*
X199572321Y-57459524D01*
X199619940Y-57411905D01*
X199715179Y-57364286D01*
X199905655Y-57364286D01*
X200000893Y-57411905D01*
X200048512Y-57459524D01*
X200096131Y-57554762D01*
X200096131Y-57745239D01*
X200048512Y-57840477D01*
X200000893Y-57888096D01*
X199905655Y-57935715D01*
X199715179Y-57935715D01*
X199619940Y-57888096D01*
X199572321Y-57840477D01*
X199524702Y-57745239D01*
X181046131Y-56411905D02*
X180046131Y-56411905D01*
X180046131Y-56650000D01*
X180093750Y-56792858D01*
X180188988Y-56888096D01*
X180284226Y-56935715D01*
X180474702Y-56983334D01*
X180617560Y-56983334D01*
X180808036Y-56935715D01*
X180903274Y-56888096D01*
X180998512Y-56792858D01*
X181046131Y-56650000D01*
X181046131Y-56411905D01*
X180046131Y-57316667D02*
X180046131Y-57983334D01*
X181046131Y-57554762D01*
X161996131Y-56411905D02*
X160996131Y-56411905D01*
X160996131Y-56650000D01*
X161043750Y-56792858D01*
X161138988Y-56888096D01*
X161234226Y-56935715D01*
X161424702Y-56983334D01*
X161567560Y-56983334D01*
X161758036Y-56935715D01*
X161853274Y-56888096D01*
X161948512Y-56792858D01*
X161996131Y-56650000D01*
X161996131Y-56411905D01*
X160996131Y-57840477D02*
X160996131Y-57650000D01*
X161043750Y-57554762D01*
X161091369Y-57507143D01*
X161234226Y-57411905D01*
X161424702Y-57364286D01*
X161805655Y-57364286D01*
X161900893Y-57411905D01*
X161948512Y-57459524D01*
X161996131Y-57554762D01*
X161996131Y-57745239D01*
X161948512Y-57840477D01*
X161900893Y-57888096D01*
X161805655Y-57935715D01*
X161567560Y-57935715D01*
X161472321Y-57888096D01*
X161424702Y-57840477D01*
X161377083Y-57745239D01*
X161377083Y-57554762D01*
X161424702Y-57459524D01*
X161472321Y-57411905D01*
X161567560Y-57364286D01*
X142946131Y-56411905D02*
X141946131Y-56411905D01*
X141946131Y-56650000D01*
X141993750Y-56792858D01*
X142088988Y-56888096D01*
X142184226Y-56935715D01*
X142374702Y-56983334D01*
X142517560Y-56983334D01*
X142708036Y-56935715D01*
X142803274Y-56888096D01*
X142898512Y-56792858D01*
X142946131Y-56650000D01*
X142946131Y-56411905D01*
X141946131Y-57888096D02*
X141946131Y-57411905D01*
X142422321Y-57364286D01*
X142374702Y-57411905D01*
X142327083Y-57507143D01*
X142327083Y-57745239D01*
X142374702Y-57840477D01*
X142422321Y-57888096D01*
X142517560Y-57935715D01*
X142755655Y-57935715D01*
X142850893Y-57888096D01*
X142898512Y-57840477D01*
X142946131Y-57745239D01*
X142946131Y-57507143D01*
X142898512Y-57411905D01*
X142850893Y-57364286D01*
X123896131Y-56411905D02*
X122896131Y-56411905D01*
X122896131Y-56650000D01*
X122943750Y-56792858D01*
X123038988Y-56888096D01*
X123134226Y-56935715D01*
X123324702Y-56983334D01*
X123467560Y-56983334D01*
X123658036Y-56935715D01*
X123753274Y-56888096D01*
X123848512Y-56792858D01*
X123896131Y-56650000D01*
X123896131Y-56411905D01*
X123229464Y-57840477D02*
X123896131Y-57840477D01*
X122848512Y-57602381D02*
X123562798Y-57364286D01*
X123562798Y-57983334D01*
X104846131Y-56411905D02*
X103846131Y-56411905D01*
X103846131Y-56650000D01*
X103893750Y-56792858D01*
X103988988Y-56888096D01*
X104084226Y-56935715D01*
X104274702Y-56983334D01*
X104417560Y-56983334D01*
X104608036Y-56935715D01*
X104703274Y-56888096D01*
X104798512Y-56792858D01*
X104846131Y-56650000D01*
X104846131Y-56411905D01*
X103846131Y-57316667D02*
X103846131Y-57935715D01*
X104227083Y-57602381D01*
X104227083Y-57745239D01*
X104274702Y-57840477D01*
X104322321Y-57888096D01*
X104417560Y-57935715D01*
X104655655Y-57935715D01*
X104750893Y-57888096D01*
X104798512Y-57840477D01*
X104846131Y-57745239D01*
X104846131Y-57459524D01*
X104798512Y-57364286D01*
X104750893Y-57316667D01*
X85796131Y-56411905D02*
X84796131Y-56411905D01*
X84796131Y-56650000D01*
X84843750Y-56792858D01*
X84938988Y-56888096D01*
X85034226Y-56935715D01*
X85224702Y-56983334D01*
X85367560Y-56983334D01*
X85558036Y-56935715D01*
X85653274Y-56888096D01*
X85748512Y-56792858D01*
X85796131Y-56650000D01*
X85796131Y-56411905D01*
X84891369Y-57364286D02*
X84843750Y-57411905D01*
X84796131Y-57507143D01*
X84796131Y-57745239D01*
X84843750Y-57840477D01*
X84891369Y-57888096D01*
X84986607Y-57935715D01*
X85081845Y-57935715D01*
X85224702Y-57888096D01*
X85796131Y-57316667D01*
X85796131Y-57935715D01*
X54839881Y-59983780D02*
X53839881Y-59983780D01*
X53839881Y-60221875D01*
X53887500Y-60364733D01*
X53982738Y-60459971D01*
X54077976Y-60507590D01*
X54268452Y-60555209D01*
X54411310Y-60555209D01*
X54601786Y-60507590D01*
X54697024Y-60459971D01*
X54792262Y-60364733D01*
X54839881Y-60221875D01*
X54839881Y-59983780D01*
X54839881Y-61507590D02*
X54839881Y-60936161D01*
X54839881Y-61221875D02*
X53839881Y-61221875D01*
X53982738Y-61126637D01*
X54077976Y-61031399D01*
X54125595Y-60936161D01*
X335414881Y-59904464D02*
X334414881Y-59904464D01*
X334414881Y-60142559D01*
X334462500Y-60285417D01*
X334557738Y-60380655D01*
X334652976Y-60428274D01*
X334843452Y-60475893D01*
X334986310Y-60475893D01*
X335176786Y-60428274D01*
X335272024Y-60380655D01*
X335367262Y-60285417D01*
X335414881Y-60142559D01*
X335414881Y-59904464D01*
X334748214Y-61333036D02*
X335414881Y-61333036D01*
X334367262Y-61094940D02*
X335081548Y-60856845D01*
X335081548Y-61475893D01*
X334510119Y-61809226D02*
X334462500Y-61856845D01*
X334414881Y-61952083D01*
X334414881Y-62190179D01*
X334462500Y-62285417D01*
X334510119Y-62333036D01*
X334605357Y-62380655D01*
X334700595Y-62380655D01*
X334843452Y-62333036D01*
X335414881Y-61761607D01*
X335414881Y-62380655D01*
X335414881Y-78954464D02*
X334414881Y-78954464D01*
X334414881Y-79192559D01*
X334462500Y-79335417D01*
X334557738Y-79430655D01*
X334652976Y-79478274D01*
X334843452Y-79525893D01*
X334986310Y-79525893D01*
X335176786Y-79478274D01*
X335272024Y-79430655D01*
X335367262Y-79335417D01*
X335414881Y-79192559D01*
X335414881Y-78954464D01*
X334748214Y-80383036D02*
X335414881Y-80383036D01*
X334367262Y-80144940D02*
X335081548Y-79906845D01*
X335081548Y-80525893D01*
X334414881Y-81383036D02*
X334414881Y-80906845D01*
X334891071Y-80859226D01*
X334843452Y-80906845D01*
X334795833Y-81002083D01*
X334795833Y-81240179D01*
X334843452Y-81335417D01*
X334891071Y-81383036D01*
X334986310Y-81430655D01*
X335224405Y-81430655D01*
X335319643Y-81383036D01*
X335367262Y-81335417D01*
X335414881Y-81240179D01*
X335414881Y-81002083D01*
X335367262Y-80906845D01*
X335319643Y-80859226D01*
X335414881Y-98004464D02*
X334414881Y-98004464D01*
X334414881Y-98242559D01*
X334462500Y-98385417D01*
X334557738Y-98480655D01*
X334652976Y-98528274D01*
X334843452Y-98575893D01*
X334986310Y-98575893D01*
X335176786Y-98528274D01*
X335272024Y-98480655D01*
X335367262Y-98385417D01*
X335414881Y-98242559D01*
X335414881Y-98004464D01*
X334414881Y-99480655D02*
X334414881Y-99004464D01*
X334891071Y-98956845D01*
X334843452Y-99004464D01*
X334795833Y-99099702D01*
X334795833Y-99337798D01*
X334843452Y-99433036D01*
X334891071Y-99480655D01*
X334986310Y-99528274D01*
X335224405Y-99528274D01*
X335319643Y-99480655D01*
X335367262Y-99433036D01*
X335414881Y-99337798D01*
X335414881Y-99099702D01*
X335367262Y-99004464D01*
X335319643Y-98956845D01*
X334414881Y-100433036D02*
X334414881Y-99956845D01*
X334891071Y-99909226D01*
X334843452Y-99956845D01*
X334795833Y-100052083D01*
X334795833Y-100290179D01*
X334843452Y-100385417D01*
X334891071Y-100433036D01*
X334986310Y-100480655D01*
X335224405Y-100480655D01*
X335319643Y-100433036D01*
X335367262Y-100385417D01*
X335414881Y-100290179D01*
X335414881Y-100052083D01*
X335367262Y-99956845D01*
X335319643Y-99909226D01*
X281852381Y-113085714D02*
X280852381Y-113085714D01*
X280852381Y-113323809D01*
X280900000Y-113466667D01*
X280995238Y-113561905D01*
X281090476Y-113609524D01*
X281280952Y-113657143D01*
X281423810Y-113657143D01*
X281614286Y-113609524D01*
X281709524Y-113561905D01*
X281804762Y-113466667D01*
X281852381Y-113323809D01*
X281852381Y-113085714D01*
X280852381Y-114561905D02*
X280852381Y-114085714D01*
X281328571Y-114038095D01*
X281280952Y-114085714D01*
X281233333Y-114180952D01*
X281233333Y-114419048D01*
X281280952Y-114514286D01*
X281328571Y-114561905D01*
X281423810Y-114609524D01*
X281661905Y-114609524D01*
X281757143Y-114561905D01*
X281804762Y-114514286D01*
X281852381Y-114419048D01*
X281852381Y-114180952D01*
X281804762Y-114085714D01*
X281757143Y-114038095D01*
X280852381Y-115466667D02*
X280852381Y-115276190D01*
X280900000Y-115180952D01*
X280947619Y-115133333D01*
X281090476Y-115038095D01*
X281280952Y-114990476D01*
X281661905Y-114990476D01*
X281757143Y-115038095D01*
X281804762Y-115085714D01*
X281852381Y-115180952D01*
X281852381Y-115371429D01*
X281804762Y-115466667D01*
X281757143Y-115514286D01*
X281661905Y-115561905D01*
X281423810Y-115561905D01*
X281328571Y-115514286D01*
X281280952Y-115466667D01*
X281233333Y-115371429D01*
X281233333Y-115180952D01*
X281280952Y-115085714D01*
X281328571Y-115038095D01*
X281423810Y-114990476D01*
X307252381Y-113085714D02*
X306252381Y-113085714D01*
X306252381Y-113323809D01*
X306300000Y-113466667D01*
X306395238Y-113561905D01*
X306490476Y-113609524D01*
X306680952Y-113657143D01*
X306823810Y-113657143D01*
X307014286Y-113609524D01*
X307109524Y-113561905D01*
X307204762Y-113466667D01*
X307252381Y-113323809D01*
X307252381Y-113085714D01*
X306252381Y-114561905D02*
X306252381Y-114085714D01*
X306728571Y-114038095D01*
X306680952Y-114085714D01*
X306633333Y-114180952D01*
X306633333Y-114419048D01*
X306680952Y-114514286D01*
X306728571Y-114561905D01*
X306823810Y-114609524D01*
X307061905Y-114609524D01*
X307157143Y-114561905D01*
X307204762Y-114514286D01*
X307252381Y-114419048D01*
X307252381Y-114180952D01*
X307204762Y-114085714D01*
X307157143Y-114038095D01*
X306252381Y-114942857D02*
X306252381Y-115609524D01*
X307252381Y-115180952D01*
X333446131Y-113085714D02*
X332446131Y-113085714D01*
X332446131Y-113323809D01*
X332493750Y-113466667D01*
X332588988Y-113561905D01*
X332684226Y-113609524D01*
X332874702Y-113657143D01*
X333017560Y-113657143D01*
X333208036Y-113609524D01*
X333303274Y-113561905D01*
X333398512Y-113466667D01*
X333446131Y-113323809D01*
X333446131Y-113085714D01*
X332446131Y-114561905D02*
X332446131Y-114085714D01*
X332922321Y-114038095D01*
X332874702Y-114085714D01*
X332827083Y-114180952D01*
X332827083Y-114419048D01*
X332874702Y-114514286D01*
X332922321Y-114561905D01*
X333017560Y-114609524D01*
X333255655Y-114609524D01*
X333350893Y-114561905D01*
X333398512Y-114514286D01*
X333446131Y-114419048D01*
X333446131Y-114180952D01*
X333398512Y-114085714D01*
X333350893Y-114038095D01*
X332874702Y-115180952D02*
X332827083Y-115085714D01*
X332779464Y-115038095D01*
X332684226Y-114990476D01*
X332636607Y-114990476D01*
X332541369Y-115038095D01*
X332493750Y-115085714D01*
X332446131Y-115180952D01*
X332446131Y-115371429D01*
X332493750Y-115466667D01*
X332541369Y-115514286D01*
X332636607Y-115561905D01*
X332684226Y-115561905D01*
X332779464Y-115514286D01*
X332827083Y-115466667D01*
X332874702Y-115371429D01*
X332874702Y-115180952D01*
X332922321Y-115085714D01*
X332969940Y-115038095D01*
X333065179Y-114990476D01*
X333255655Y-114990476D01*
X333350893Y-115038095D01*
X333398512Y-115085714D01*
X333446131Y-115180952D01*
X333446131Y-115371429D01*
X333398512Y-115466667D01*
X333350893Y-115514286D01*
X333255655Y-115561905D01*
X333065179Y-115561905D01*
X332969940Y-115514286D01*
X332922321Y-115466667D01*
X332874702Y-115371429D01*
X335478381Y-117022714D02*
X334478381Y-117022714D01*
X334478381Y-117260809D01*
X334526000Y-117403667D01*
X334621238Y-117498905D01*
X334716476Y-117546524D01*
X334906952Y-117594143D01*
X335049810Y-117594143D01*
X335240286Y-117546524D01*
X335335524Y-117498905D01*
X335430762Y-117403667D01*
X335478381Y-117260809D01*
X335478381Y-117022714D01*
X334478381Y-118498905D02*
X334478381Y-118022714D01*
X334954571Y-117975095D01*
X334906952Y-118022714D01*
X334859333Y-118117952D01*
X334859333Y-118356048D01*
X334906952Y-118451286D01*
X334954571Y-118498905D01*
X335049810Y-118546524D01*
X335287905Y-118546524D01*
X335383143Y-118498905D01*
X335430762Y-118451286D01*
X335478381Y-118356048D01*
X335478381Y-118117952D01*
X335430762Y-118022714D01*
X335383143Y-117975095D01*
X335478381Y-119022714D02*
X335478381Y-119213190D01*
X335430762Y-119308429D01*
X335383143Y-119356048D01*
X335240286Y-119451286D01*
X335049810Y-119498905D01*
X334668857Y-119498905D01*
X334573619Y-119451286D01*
X334526000Y-119403667D01*
X334478381Y-119308429D01*
X334478381Y-119117952D01*
X334526000Y-119022714D01*
X334573619Y-118975095D01*
X334668857Y-118927476D01*
X334906952Y-118927476D01*
X335002190Y-118975095D01*
X335049810Y-119022714D01*
X335097429Y-119117952D01*
X335097429Y-119308429D01*
X335049810Y-119403667D01*
X335002190Y-119451286D01*
X334906952Y-119498905D01*
X314396131Y-132135714D02*
X313396131Y-132135714D01*
X313396131Y-132373809D01*
X313443750Y-132516667D01*
X313538988Y-132611905D01*
X313634226Y-132659524D01*
X313824702Y-132707143D01*
X313967560Y-132707143D01*
X314158036Y-132659524D01*
X314253274Y-132611905D01*
X314348512Y-132516667D01*
X314396131Y-132373809D01*
X314396131Y-132135714D01*
X313396131Y-133564286D02*
X313396131Y-133373809D01*
X313443750Y-133278571D01*
X313491369Y-133230952D01*
X313634226Y-133135714D01*
X313824702Y-133088095D01*
X314205655Y-133088095D01*
X314300893Y-133135714D01*
X314348512Y-133183333D01*
X314396131Y-133278571D01*
X314396131Y-133469048D01*
X314348512Y-133564286D01*
X314300893Y-133611905D01*
X314205655Y-133659524D01*
X313967560Y-133659524D01*
X313872321Y-133611905D01*
X313824702Y-133564286D01*
X313777083Y-133469048D01*
X313777083Y-133278571D01*
X313824702Y-133183333D01*
X313872321Y-133135714D01*
X313967560Y-133088095D01*
X313396131Y-134278571D02*
X313396131Y-134373810D01*
X313443750Y-134469048D01*
X313491369Y-134516667D01*
X313586607Y-134564286D01*
X313777083Y-134611905D01*
X314015179Y-134611905D01*
X314205655Y-134564286D01*
X314300893Y-134516667D01*
X314348512Y-134469048D01*
X314396131Y-134373810D01*
X314396131Y-134278571D01*
X314348512Y-134183333D01*
X314300893Y-134135714D01*
X314205655Y-134088095D01*
X314015179Y-134040476D01*
X313777083Y-134040476D01*
X313586607Y-134088095D01*
X313491369Y-134135714D01*
X313443750Y-134183333D01*
X313396131Y-134278571D01*
X333446131Y-132135714D02*
X332446131Y-132135714D01*
X332446131Y-132373809D01*
X332493750Y-132516667D01*
X332588988Y-132611905D01*
X332684226Y-132659524D01*
X332874702Y-132707143D01*
X333017560Y-132707143D01*
X333208036Y-132659524D01*
X333303274Y-132611905D01*
X333398512Y-132516667D01*
X333446131Y-132373809D01*
X333446131Y-132135714D01*
X332446131Y-133564286D02*
X332446131Y-133373809D01*
X332493750Y-133278571D01*
X332541369Y-133230952D01*
X332684226Y-133135714D01*
X332874702Y-133088095D01*
X333255655Y-133088095D01*
X333350893Y-133135714D01*
X333398512Y-133183333D01*
X333446131Y-133278571D01*
X333446131Y-133469048D01*
X333398512Y-133564286D01*
X333350893Y-133611905D01*
X333255655Y-133659524D01*
X333017560Y-133659524D01*
X332922321Y-133611905D01*
X332874702Y-133564286D01*
X332827083Y-133469048D01*
X332827083Y-133278571D01*
X332874702Y-133183333D01*
X332922321Y-133135714D01*
X333017560Y-133088095D01*
X333446131Y-134611905D02*
X333446131Y-134040476D01*
X333446131Y-134326190D02*
X332446131Y-134326190D01*
X332588988Y-134230952D01*
X332684226Y-134135714D01*
X332731845Y-134040476D01*
X335351381Y-136072714D02*
X334351381Y-136072714D01*
X334351381Y-136310809D01*
X334399000Y-136453667D01*
X334494238Y-136548905D01*
X334589476Y-136596524D01*
X334779952Y-136644143D01*
X334922810Y-136644143D01*
X335113286Y-136596524D01*
X335208524Y-136548905D01*
X335303762Y-136453667D01*
X335351381Y-136310809D01*
X335351381Y-136072714D01*
X334351381Y-137501286D02*
X334351381Y-137310809D01*
X334399000Y-137215571D01*
X334446619Y-137167952D01*
X334589476Y-137072714D01*
X334779952Y-137025095D01*
X335160905Y-137025095D01*
X335256143Y-137072714D01*
X335303762Y-137120333D01*
X335351381Y-137215571D01*
X335351381Y-137406048D01*
X335303762Y-137501286D01*
X335256143Y-137548905D01*
X335160905Y-137596524D01*
X334922810Y-137596524D01*
X334827571Y-137548905D01*
X334779952Y-137501286D01*
X334732333Y-137406048D01*
X334732333Y-137215571D01*
X334779952Y-137120333D01*
X334827571Y-137072714D01*
X334922810Y-137025095D01*
X334446619Y-137977476D02*
X334399000Y-138025095D01*
X334351381Y-138120333D01*
X334351381Y-138358429D01*
X334399000Y-138453667D01*
X334446619Y-138501286D01*
X334541857Y-138548905D01*
X334637095Y-138548905D01*
X334779952Y-138501286D01*
X335351381Y-137929857D01*
X335351381Y-138548905D01*
X52046131Y-136104464D02*
X51046131Y-136104464D01*
X51046131Y-136342559D01*
X51093750Y-136485417D01*
X51188988Y-136580655D01*
X51284226Y-136628274D01*
X51474702Y-136675893D01*
X51617560Y-136675893D01*
X51808036Y-136628274D01*
X51903274Y-136580655D01*
X51998512Y-136485417D01*
X52046131Y-136342559D01*
X52046131Y-136104464D01*
X51046131Y-137533036D02*
X51046131Y-137342559D01*
X51093750Y-137247321D01*
X51141369Y-137199702D01*
X51284226Y-137104464D01*
X51474702Y-137056845D01*
X51855655Y-137056845D01*
X51950893Y-137104464D01*
X51998512Y-137152083D01*
X52046131Y-137247321D01*
X52046131Y-137437798D01*
X51998512Y-137533036D01*
X51950893Y-137580655D01*
X51855655Y-137628274D01*
X51617560Y-137628274D01*
X51522321Y-137580655D01*
X51474702Y-137533036D01*
X51427083Y-137437798D01*
X51427083Y-137247321D01*
X51474702Y-137152083D01*
X51522321Y-137104464D01*
X51617560Y-137056845D01*
X51046131Y-137961607D02*
X51046131Y-138580655D01*
X51427083Y-138247321D01*
X51427083Y-138390179D01*
X51474702Y-138485417D01*
X51522321Y-138533036D01*
X51617560Y-138580655D01*
X51855655Y-138580655D01*
X51950893Y-138533036D01*
X51998512Y-138485417D01*
X52046131Y-138390179D01*
X52046131Y-138104464D01*
X51998512Y-138009226D01*
X51950893Y-137961607D01*
X100083631Y-132135714D02*
X99083631Y-132135714D01*
X99083631Y-132373809D01*
X99131250Y-132516667D01*
X99226488Y-132611905D01*
X99321726Y-132659524D01*
X99512202Y-132707143D01*
X99655060Y-132707143D01*
X99845536Y-132659524D01*
X99940774Y-132611905D01*
X100036012Y-132516667D01*
X100083631Y-132373809D01*
X100083631Y-132135714D01*
X99083631Y-133564286D02*
X99083631Y-133373809D01*
X99131250Y-133278571D01*
X99178869Y-133230952D01*
X99321726Y-133135714D01*
X99512202Y-133088095D01*
X99893155Y-133088095D01*
X99988393Y-133135714D01*
X100036012Y-133183333D01*
X100083631Y-133278571D01*
X100083631Y-133469048D01*
X100036012Y-133564286D01*
X99988393Y-133611905D01*
X99893155Y-133659524D01*
X99655060Y-133659524D01*
X99559821Y-133611905D01*
X99512202Y-133564286D01*
X99464583Y-133469048D01*
X99464583Y-133278571D01*
X99512202Y-133183333D01*
X99559821Y-133135714D01*
X99655060Y-133088095D01*
X99416964Y-134516667D02*
X100083631Y-134516667D01*
X99036012Y-134278571D02*
X99750298Y-134040476D01*
X99750298Y-134659524D01*
X123896131Y-132135714D02*
X122896131Y-132135714D01*
X122896131Y-132373809D01*
X122943750Y-132516667D01*
X123038988Y-132611905D01*
X123134226Y-132659524D01*
X123324702Y-132707143D01*
X123467560Y-132707143D01*
X123658036Y-132659524D01*
X123753274Y-132611905D01*
X123848512Y-132516667D01*
X123896131Y-132373809D01*
X123896131Y-132135714D01*
X122896131Y-133564286D02*
X122896131Y-133373809D01*
X122943750Y-133278571D01*
X122991369Y-133230952D01*
X123134226Y-133135714D01*
X123324702Y-133088095D01*
X123705655Y-133088095D01*
X123800893Y-133135714D01*
X123848512Y-133183333D01*
X123896131Y-133278571D01*
X123896131Y-133469048D01*
X123848512Y-133564286D01*
X123800893Y-133611905D01*
X123705655Y-133659524D01*
X123467560Y-133659524D01*
X123372321Y-133611905D01*
X123324702Y-133564286D01*
X123277083Y-133469048D01*
X123277083Y-133278571D01*
X123324702Y-133183333D01*
X123372321Y-133135714D01*
X123467560Y-133088095D01*
X122896131Y-134564286D02*
X122896131Y-134088095D01*
X123372321Y-134040476D01*
X123324702Y-134088095D01*
X123277083Y-134183333D01*
X123277083Y-134421429D01*
X123324702Y-134516667D01*
X123372321Y-134564286D01*
X123467560Y-134611905D01*
X123705655Y-134611905D01*
X123800893Y-134564286D01*
X123848512Y-134516667D01*
X123896131Y-134421429D01*
X123896131Y-134183333D01*
X123848512Y-134088095D01*
X123800893Y-134040476D01*
X159614881Y-132135714D02*
X158614881Y-132135714D01*
X158614881Y-132373809D01*
X158662500Y-132516667D01*
X158757738Y-132611905D01*
X158852976Y-132659524D01*
X159043452Y-132707143D01*
X159186310Y-132707143D01*
X159376786Y-132659524D01*
X159472024Y-132611905D01*
X159567262Y-132516667D01*
X159614881Y-132373809D01*
X159614881Y-132135714D01*
X158614881Y-133564286D02*
X158614881Y-133373809D01*
X158662500Y-133278571D01*
X158710119Y-133230952D01*
X158852976Y-133135714D01*
X159043452Y-133088095D01*
X159424405Y-133088095D01*
X159519643Y-133135714D01*
X159567262Y-133183333D01*
X159614881Y-133278571D01*
X159614881Y-133469048D01*
X159567262Y-133564286D01*
X159519643Y-133611905D01*
X159424405Y-133659524D01*
X159186310Y-133659524D01*
X159091071Y-133611905D01*
X159043452Y-133564286D01*
X158995833Y-133469048D01*
X158995833Y-133278571D01*
X159043452Y-133183333D01*
X159091071Y-133135714D01*
X159186310Y-133088095D01*
X158614881Y-134516667D02*
X158614881Y-134326190D01*
X158662500Y-134230952D01*
X158710119Y-134183333D01*
X158852976Y-134088095D01*
X159043452Y-134040476D01*
X159424405Y-134040476D01*
X159519643Y-134088095D01*
X159567262Y-134135714D01*
X159614881Y-134230952D01*
X159614881Y-134421429D01*
X159567262Y-134516667D01*
X159519643Y-134564286D01*
X159424405Y-134611905D01*
X159186310Y-134611905D01*
X159091071Y-134564286D01*
X159043452Y-134516667D01*
X158995833Y-134421429D01*
X158995833Y-134230952D01*
X159043452Y-134135714D01*
X159091071Y-134088095D01*
X159186310Y-134040476D01*
X165964881Y-132135714D02*
X164964881Y-132135714D01*
X164964881Y-132373809D01*
X165012500Y-132516667D01*
X165107738Y-132611905D01*
X165202976Y-132659524D01*
X165393452Y-132707143D01*
X165536310Y-132707143D01*
X165726786Y-132659524D01*
X165822024Y-132611905D01*
X165917262Y-132516667D01*
X165964881Y-132373809D01*
X165964881Y-132135714D01*
X164964881Y-133564286D02*
X164964881Y-133373809D01*
X165012500Y-133278571D01*
X165060119Y-133230952D01*
X165202976Y-133135714D01*
X165393452Y-133088095D01*
X165774405Y-133088095D01*
X165869643Y-133135714D01*
X165917262Y-133183333D01*
X165964881Y-133278571D01*
X165964881Y-133469048D01*
X165917262Y-133564286D01*
X165869643Y-133611905D01*
X165774405Y-133659524D01*
X165536310Y-133659524D01*
X165441071Y-133611905D01*
X165393452Y-133564286D01*
X165345833Y-133469048D01*
X165345833Y-133278571D01*
X165393452Y-133183333D01*
X165441071Y-133135714D01*
X165536310Y-133088095D01*
X164964881Y-133992857D02*
X164964881Y-134659524D01*
X165964881Y-134230952D01*
X233751381Y-136072714D02*
X232751381Y-136072714D01*
X232751381Y-136310809D01*
X232799000Y-136453667D01*
X232894238Y-136548905D01*
X232989476Y-136596524D01*
X233179952Y-136644143D01*
X233322810Y-136644143D01*
X233513286Y-136596524D01*
X233608524Y-136548905D01*
X233703762Y-136453667D01*
X233751381Y-136310809D01*
X233751381Y-136072714D01*
X232751381Y-137501286D02*
X232751381Y-137310809D01*
X232799000Y-137215571D01*
X232846619Y-137167952D01*
X232989476Y-137072714D01*
X233179952Y-137025095D01*
X233560905Y-137025095D01*
X233656143Y-137072714D01*
X233703762Y-137120333D01*
X233751381Y-137215571D01*
X233751381Y-137406048D01*
X233703762Y-137501286D01*
X233656143Y-137548905D01*
X233560905Y-137596524D01*
X233322810Y-137596524D01*
X233227571Y-137548905D01*
X233179952Y-137501286D01*
X233132333Y-137406048D01*
X233132333Y-137215571D01*
X233179952Y-137120333D01*
X233227571Y-137072714D01*
X233322810Y-137025095D01*
X233179952Y-138167952D02*
X233132333Y-138072714D01*
X233084714Y-138025095D01*
X232989476Y-137977476D01*
X232941857Y-137977476D01*
X232846619Y-138025095D01*
X232799000Y-138072714D01*
X232751381Y-138167952D01*
X232751381Y-138358429D01*
X232799000Y-138453667D01*
X232846619Y-138501286D01*
X232941857Y-138548905D01*
X232989476Y-138548905D01*
X233084714Y-138501286D01*
X233132333Y-138453667D01*
X233179952Y-138358429D01*
X233179952Y-138167952D01*
X233227571Y-138072714D01*
X233275190Y-138025095D01*
X233370429Y-137977476D01*
X233560905Y-137977476D01*
X233656143Y-138025095D01*
X233703762Y-138072714D01*
X233751381Y-138167952D01*
X233751381Y-138358429D01*
X233703762Y-138453667D01*
X233656143Y-138501286D01*
X233560905Y-138548905D01*
X233370429Y-138548905D01*
X233275190Y-138501286D01*
X233227571Y-138453667D01*
X233179952Y-138358429D01*
D16*
X54533679Y-81749416D02*
X54533679Y-80992496D01*
X54245328Y-80992496D01*
X54173241Y-81028540D01*
X54137197Y-81064584D01*
X54101153Y-81136671D01*
X54101153Y-81244803D01*
X54137197Y-81316890D01*
X54173241Y-81352934D01*
X54245328Y-81388978D01*
X54533679Y-81388978D01*
X53380277Y-81749416D02*
X53812803Y-81749416D01*
X53596540Y-81749416D02*
X53596540Y-80992496D01*
X53668628Y-81100628D01*
X53740715Y-81172715D01*
X53812803Y-81208759D01*
D13*
X74292381Y-100671334D02*
X73816190Y-100338000D01*
X74292381Y-100099905D02*
X73292381Y-100099905D01*
X73292381Y-100480858D01*
X73340000Y-100576096D01*
X73387619Y-100623715D01*
X73482857Y-100671334D01*
X73625714Y-100671334D01*
X73720952Y-100623715D01*
X73768571Y-100576096D01*
X73816190Y-100480858D01*
X73816190Y-100099905D01*
X73292381Y-101004667D02*
X73292381Y-101623715D01*
X73673333Y-101290381D01*
X73673333Y-101433239D01*
X73720952Y-101528477D01*
X73768571Y-101576096D01*
X73863810Y-101623715D01*
X74101905Y-101623715D01*
X74197143Y-101576096D01*
X74244762Y-101528477D01*
X74292381Y-101433239D01*
X74292381Y-101147524D01*
X74244762Y-101052286D01*
X74197143Y-101004667D01*
X68778381Y-100671334D02*
X68302190Y-100338000D01*
X68778381Y-100099905D02*
X67778381Y-100099905D01*
X67778381Y-100480858D01*
X67826000Y-100576096D01*
X67873619Y-100623715D01*
X67968857Y-100671334D01*
X68111714Y-100671334D01*
X68206952Y-100623715D01*
X68254571Y-100576096D01*
X68302190Y-100480858D01*
X68302190Y-100099905D01*
X68111714Y-101528477D02*
X68778381Y-101528477D01*
X67730762Y-101290381D02*
X68445048Y-101052286D01*
X68445048Y-101671334D01*
X91384381Y-63460334D02*
X90908190Y-63127000D01*
X91384381Y-62888905D02*
X90384381Y-62888905D01*
X90384381Y-63269858D01*
X90432000Y-63365096D01*
X90479619Y-63412715D01*
X90574857Y-63460334D01*
X90717714Y-63460334D01*
X90812952Y-63412715D01*
X90860571Y-63365096D01*
X90908190Y-63269858D01*
X90908190Y-62888905D01*
X90384381Y-64365096D02*
X90384381Y-63888905D01*
X90860571Y-63841286D01*
X90812952Y-63888905D01*
X90765333Y-63984143D01*
X90765333Y-64222239D01*
X90812952Y-64317477D01*
X90860571Y-64365096D01*
X90955810Y-64412715D01*
X91193905Y-64412715D01*
X91289143Y-64365096D01*
X91336762Y-64317477D01*
X91384381Y-64222239D01*
X91384381Y-63984143D01*
X91336762Y-63888905D01*
X91289143Y-63841286D01*
X85470905Y-60793381D02*
X85470905Y-61602905D01*
X85423286Y-61698143D01*
X85375667Y-61745762D01*
X85280429Y-61793381D01*
X85089952Y-61793381D01*
X84994714Y-61745762D01*
X84947095Y-61698143D01*
X84899476Y-61602905D01*
X84899476Y-60793381D01*
X83947095Y-60793381D02*
X84423286Y-60793381D01*
X84470905Y-61269571D01*
X84423286Y-61221952D01*
X84328048Y-61174333D01*
X84089952Y-61174333D01*
X83994714Y-61221952D01*
X83947095Y-61269571D01*
X83899476Y-61364810D01*
X83899476Y-61602905D01*
X83947095Y-61698143D01*
X83994714Y-61745762D01*
X84089952Y-61793381D01*
X84328048Y-61793381D01*
X84423286Y-61745762D01*
X84470905Y-61698143D01*
X87733143Y-65008334D02*
X87780762Y-64960715D01*
X87828381Y-64817858D01*
X87828381Y-64722620D01*
X87780762Y-64579762D01*
X87685524Y-64484524D01*
X87590286Y-64436905D01*
X87399810Y-64389286D01*
X87256952Y-64389286D01*
X87066476Y-64436905D01*
X86971238Y-64484524D01*
X86876000Y-64579762D01*
X86828381Y-64722620D01*
X86828381Y-64817858D01*
X86876000Y-64960715D01*
X86923619Y-65008334D01*
X87828381Y-66008334D02*
X87352190Y-65675000D01*
X87828381Y-65436905D02*
X86828381Y-65436905D01*
X86828381Y-65817858D01*
X86876000Y-65913096D01*
X86923619Y-65960715D01*
X87018857Y-66008334D01*
X87161714Y-66008334D01*
X87256952Y-65960715D01*
X87304571Y-65913096D01*
X87352190Y-65817858D01*
X87352190Y-65436905D01*
X86876000Y-66960715D02*
X86828381Y-66865477D01*
X86828381Y-66722620D01*
X86876000Y-66579762D01*
X86971238Y-66484524D01*
X87066476Y-66436905D01*
X87256952Y-66389286D01*
X87399810Y-66389286D01*
X87590286Y-66436905D01*
X87685524Y-66484524D01*
X87780762Y-66579762D01*
X87828381Y-66722620D01*
X87828381Y-66817858D01*
X87780762Y-66960715D01*
X87733143Y-67008334D01*
X87399810Y-67008334D01*
X87399810Y-66817858D01*
X87304571Y-67770239D02*
X87352190Y-67913096D01*
X87399810Y-67960715D01*
X87495048Y-68008334D01*
X87637905Y-68008334D01*
X87733143Y-67960715D01*
X87780762Y-67913096D01*
X87828381Y-67817858D01*
X87828381Y-67436905D01*
X86828381Y-67436905D01*
X86828381Y-67770239D01*
X86876000Y-67865477D01*
X86923619Y-67913096D01*
X87018857Y-67960715D01*
X87114095Y-67960715D01*
X87209333Y-67913096D01*
X87256952Y-67865477D01*
X87304571Y-67770239D01*
X87304571Y-67436905D01*
X87828381Y-68960715D02*
X87828381Y-68389286D01*
X87828381Y-68675000D02*
X86828381Y-68675000D01*
X86971238Y-68579762D01*
X87066476Y-68484524D01*
X87114095Y-68389286D01*
X334525893Y-122158334D02*
X334573512Y-122110715D01*
X334621131Y-121967858D01*
X334621131Y-121872620D01*
X334573512Y-121729762D01*
X334478274Y-121634524D01*
X334383036Y-121586905D01*
X334192560Y-121539286D01*
X334049702Y-121539286D01*
X333859226Y-121586905D01*
X333763988Y-121634524D01*
X333668750Y-121729762D01*
X333621131Y-121872620D01*
X333621131Y-121967858D01*
X333668750Y-122110715D01*
X333716369Y-122158334D01*
X334621131Y-123158334D02*
X334144940Y-122825000D01*
X334621131Y-122586905D02*
X333621131Y-122586905D01*
X333621131Y-122967858D01*
X333668750Y-123063096D01*
X333716369Y-123110715D01*
X333811607Y-123158334D01*
X333954464Y-123158334D01*
X334049702Y-123110715D01*
X334097321Y-123063096D01*
X334144940Y-122967858D01*
X334144940Y-122586905D01*
X333668750Y-124110715D02*
X333621131Y-124015477D01*
X333621131Y-123872620D01*
X333668750Y-123729762D01*
X333763988Y-123634524D01*
X333859226Y-123586905D01*
X334049702Y-123539286D01*
X334192560Y-123539286D01*
X334383036Y-123586905D01*
X334478274Y-123634524D01*
X334573512Y-123729762D01*
X334621131Y-123872620D01*
X334621131Y-123967858D01*
X334573512Y-124110715D01*
X334525893Y-124158334D01*
X334192560Y-124158334D01*
X334192560Y-123967858D01*
X334097321Y-124920239D02*
X334144940Y-125063096D01*
X334192560Y-125110715D01*
X334287798Y-125158334D01*
X334430655Y-125158334D01*
X334525893Y-125110715D01*
X334573512Y-125063096D01*
X334621131Y-124967858D01*
X334621131Y-124586905D01*
X333621131Y-124586905D01*
X333621131Y-124920239D01*
X333668750Y-125015477D01*
X333716369Y-125063096D01*
X333811607Y-125110715D01*
X333906845Y-125110715D01*
X334002083Y-125063096D01*
X334049702Y-125015477D01*
X334097321Y-124920239D01*
X334097321Y-124586905D01*
X333716369Y-125539286D02*
X333668750Y-125586905D01*
X333621131Y-125682143D01*
X333621131Y-125920239D01*
X333668750Y-126015477D01*
X333716369Y-126063096D01*
X333811607Y-126110715D01*
X333906845Y-126110715D01*
X334049702Y-126063096D01*
X334621131Y-125491667D01*
X334621131Y-126110715D01*
X131325893Y-65008334D02*
X131373512Y-64960715D01*
X131421131Y-64817858D01*
X131421131Y-64722620D01*
X131373512Y-64579762D01*
X131278274Y-64484524D01*
X131183036Y-64436905D01*
X130992560Y-64389286D01*
X130849702Y-64389286D01*
X130659226Y-64436905D01*
X130563988Y-64484524D01*
X130468750Y-64579762D01*
X130421131Y-64722620D01*
X130421131Y-64817858D01*
X130468750Y-64960715D01*
X130516369Y-65008334D01*
X131421131Y-66008334D02*
X130944940Y-65675000D01*
X131421131Y-65436905D02*
X130421131Y-65436905D01*
X130421131Y-65817858D01*
X130468750Y-65913096D01*
X130516369Y-65960715D01*
X130611607Y-66008334D01*
X130754464Y-66008334D01*
X130849702Y-65960715D01*
X130897321Y-65913096D01*
X130944940Y-65817858D01*
X130944940Y-65436905D01*
X130468750Y-66960715D02*
X130421131Y-66865477D01*
X130421131Y-66722620D01*
X130468750Y-66579762D01*
X130563988Y-66484524D01*
X130659226Y-66436905D01*
X130849702Y-66389286D01*
X130992560Y-66389286D01*
X131183036Y-66436905D01*
X131278274Y-66484524D01*
X131373512Y-66579762D01*
X131421131Y-66722620D01*
X131421131Y-66817858D01*
X131373512Y-66960715D01*
X131325893Y-67008334D01*
X130992560Y-67008334D01*
X130992560Y-66817858D01*
X130897321Y-67770239D02*
X130944940Y-67913096D01*
X130992560Y-67960715D01*
X131087798Y-68008334D01*
X131230655Y-68008334D01*
X131325893Y-67960715D01*
X131373512Y-67913096D01*
X131421131Y-67817858D01*
X131421131Y-67436905D01*
X130421131Y-67436905D01*
X130421131Y-67770239D01*
X130468750Y-67865477D01*
X130516369Y-67913096D01*
X130611607Y-67960715D01*
X130706845Y-67960715D01*
X130802083Y-67913096D01*
X130849702Y-67865477D01*
X130897321Y-67770239D01*
X130897321Y-67436905D01*
X130421131Y-68341667D02*
X130421131Y-68960715D01*
X130802083Y-68627381D01*
X130802083Y-68770239D01*
X130849702Y-68865477D01*
X130897321Y-68913096D01*
X130992560Y-68960715D01*
X131230655Y-68960715D01*
X131325893Y-68913096D01*
X131373512Y-68865477D01*
X131421131Y-68770239D01*
X131421131Y-68484524D01*
X131373512Y-68389286D01*
X131325893Y-68341667D01*
X278963393Y-122158334D02*
X279011012Y-122110715D01*
X279058631Y-121967858D01*
X279058631Y-121872620D01*
X279011012Y-121729762D01*
X278915774Y-121634524D01*
X278820536Y-121586905D01*
X278630060Y-121539286D01*
X278487202Y-121539286D01*
X278296726Y-121586905D01*
X278201488Y-121634524D01*
X278106250Y-121729762D01*
X278058631Y-121872620D01*
X278058631Y-121967858D01*
X278106250Y-122110715D01*
X278153869Y-122158334D01*
X279058631Y-123158334D02*
X278582440Y-122825000D01*
X279058631Y-122586905D02*
X278058631Y-122586905D01*
X278058631Y-122967858D01*
X278106250Y-123063096D01*
X278153869Y-123110715D01*
X278249107Y-123158334D01*
X278391964Y-123158334D01*
X278487202Y-123110715D01*
X278534821Y-123063096D01*
X278582440Y-122967858D01*
X278582440Y-122586905D01*
X278106250Y-124110715D02*
X278058631Y-124015477D01*
X278058631Y-123872620D01*
X278106250Y-123729762D01*
X278201488Y-123634524D01*
X278296726Y-123586905D01*
X278487202Y-123539286D01*
X278630060Y-123539286D01*
X278820536Y-123586905D01*
X278915774Y-123634524D01*
X279011012Y-123729762D01*
X279058631Y-123872620D01*
X279058631Y-123967858D01*
X279011012Y-124110715D01*
X278963393Y-124158334D01*
X278630060Y-124158334D01*
X278630060Y-123967858D01*
X278534821Y-124920239D02*
X278582440Y-125063096D01*
X278630060Y-125110715D01*
X278725298Y-125158334D01*
X278868155Y-125158334D01*
X278963393Y-125110715D01*
X279011012Y-125063096D01*
X279058631Y-124967858D01*
X279058631Y-124586905D01*
X278058631Y-124586905D01*
X278058631Y-124920239D01*
X278106250Y-125015477D01*
X278153869Y-125063096D01*
X278249107Y-125110715D01*
X278344345Y-125110715D01*
X278439583Y-125063096D01*
X278487202Y-125015477D01*
X278534821Y-124920239D01*
X278534821Y-124586905D01*
X278391964Y-126015477D02*
X279058631Y-126015477D01*
X278011012Y-125777381D02*
X278725298Y-125539286D01*
X278725298Y-126158334D01*
X182125893Y-65008334D02*
X182173512Y-64960715D01*
X182221131Y-64817858D01*
X182221131Y-64722620D01*
X182173512Y-64579762D01*
X182078274Y-64484524D01*
X181983036Y-64436905D01*
X181792560Y-64389286D01*
X181649702Y-64389286D01*
X181459226Y-64436905D01*
X181363988Y-64484524D01*
X181268750Y-64579762D01*
X181221131Y-64722620D01*
X181221131Y-64817858D01*
X181268750Y-64960715D01*
X181316369Y-65008334D01*
X182221131Y-66008334D02*
X181744940Y-65675000D01*
X182221131Y-65436905D02*
X181221131Y-65436905D01*
X181221131Y-65817858D01*
X181268750Y-65913096D01*
X181316369Y-65960715D01*
X181411607Y-66008334D01*
X181554464Y-66008334D01*
X181649702Y-65960715D01*
X181697321Y-65913096D01*
X181744940Y-65817858D01*
X181744940Y-65436905D01*
X181268750Y-66960715D02*
X181221131Y-66865477D01*
X181221131Y-66722620D01*
X181268750Y-66579762D01*
X181363988Y-66484524D01*
X181459226Y-66436905D01*
X181649702Y-66389286D01*
X181792560Y-66389286D01*
X181983036Y-66436905D01*
X182078274Y-66484524D01*
X182173512Y-66579762D01*
X182221131Y-66722620D01*
X182221131Y-66817858D01*
X182173512Y-66960715D01*
X182125893Y-67008334D01*
X181792560Y-67008334D01*
X181792560Y-66817858D01*
X181697321Y-67770239D02*
X181744940Y-67913096D01*
X181792560Y-67960715D01*
X181887798Y-68008334D01*
X182030655Y-68008334D01*
X182125893Y-67960715D01*
X182173512Y-67913096D01*
X182221131Y-67817858D01*
X182221131Y-67436905D01*
X181221131Y-67436905D01*
X181221131Y-67770239D01*
X181268750Y-67865477D01*
X181316369Y-67913096D01*
X181411607Y-67960715D01*
X181506845Y-67960715D01*
X181602083Y-67913096D01*
X181649702Y-67865477D01*
X181697321Y-67770239D01*
X181697321Y-67436905D01*
X181221131Y-68913096D02*
X181221131Y-68436905D01*
X181697321Y-68389286D01*
X181649702Y-68436905D01*
X181602083Y-68532143D01*
X181602083Y-68770239D01*
X181649702Y-68865477D01*
X181697321Y-68913096D01*
X181792560Y-68960715D01*
X182030655Y-68960715D01*
X182125893Y-68913096D01*
X182173512Y-68865477D01*
X182221131Y-68770239D01*
X182221131Y-68532143D01*
X182173512Y-68436905D01*
X182125893Y-68389286D01*
X219432143Y-122952084D02*
X219479762Y-122904465D01*
X219527381Y-122761608D01*
X219527381Y-122666370D01*
X219479762Y-122523512D01*
X219384524Y-122428274D01*
X219289286Y-122380655D01*
X219098810Y-122333036D01*
X218955952Y-122333036D01*
X218765476Y-122380655D01*
X218670238Y-122428274D01*
X218575000Y-122523512D01*
X218527381Y-122666370D01*
X218527381Y-122761608D01*
X218575000Y-122904465D01*
X218622619Y-122952084D01*
X219527381Y-123952084D02*
X219051190Y-123618750D01*
X219527381Y-123380655D02*
X218527381Y-123380655D01*
X218527381Y-123761608D01*
X218575000Y-123856846D01*
X218622619Y-123904465D01*
X218717857Y-123952084D01*
X218860714Y-123952084D01*
X218955952Y-123904465D01*
X219003571Y-123856846D01*
X219051190Y-123761608D01*
X219051190Y-123380655D01*
X218575000Y-124904465D02*
X218527381Y-124809227D01*
X218527381Y-124666370D01*
X218575000Y-124523512D01*
X218670238Y-124428274D01*
X218765476Y-124380655D01*
X218955952Y-124333036D01*
X219098810Y-124333036D01*
X219289286Y-124380655D01*
X219384524Y-124428274D01*
X219479762Y-124523512D01*
X219527381Y-124666370D01*
X219527381Y-124761608D01*
X219479762Y-124904465D01*
X219432143Y-124952084D01*
X219098810Y-124952084D01*
X219098810Y-124761608D01*
X219003571Y-125713989D02*
X219051190Y-125856846D01*
X219098810Y-125904465D01*
X219194048Y-125952084D01*
X219336905Y-125952084D01*
X219432143Y-125904465D01*
X219479762Y-125856846D01*
X219527381Y-125761608D01*
X219527381Y-125380655D01*
X218527381Y-125380655D01*
X218527381Y-125713989D01*
X218575000Y-125809227D01*
X218622619Y-125856846D01*
X218717857Y-125904465D01*
X218813095Y-125904465D01*
X218908333Y-125856846D01*
X218955952Y-125809227D01*
X219003571Y-125713989D01*
X219003571Y-125380655D01*
X218527381Y-126809227D02*
X218527381Y-126618750D01*
X218575000Y-126523512D01*
X218622619Y-126475893D01*
X218765476Y-126380655D01*
X218955952Y-126333036D01*
X219336905Y-126333036D01*
X219432143Y-126380655D01*
X219479762Y-126428274D01*
X219527381Y-126523512D01*
X219527381Y-126713989D01*
X219479762Y-126809227D01*
X219432143Y-126856846D01*
X219336905Y-126904465D01*
X219098810Y-126904465D01*
X219003571Y-126856846D01*
X218955952Y-126809227D01*
X218908333Y-126713989D01*
X218908333Y-126523512D01*
X218955952Y-126428274D01*
X219003571Y-126380655D01*
X219098810Y-126333036D01*
X232925893Y-65008334D02*
X232973512Y-64960715D01*
X233021131Y-64817858D01*
X233021131Y-64722620D01*
X232973512Y-64579762D01*
X232878274Y-64484524D01*
X232783036Y-64436905D01*
X232592560Y-64389286D01*
X232449702Y-64389286D01*
X232259226Y-64436905D01*
X232163988Y-64484524D01*
X232068750Y-64579762D01*
X232021131Y-64722620D01*
X232021131Y-64817858D01*
X232068750Y-64960715D01*
X232116369Y-65008334D01*
X233021131Y-66008334D02*
X232544940Y-65675000D01*
X233021131Y-65436905D02*
X232021131Y-65436905D01*
X232021131Y-65817858D01*
X232068750Y-65913096D01*
X232116369Y-65960715D01*
X232211607Y-66008334D01*
X232354464Y-66008334D01*
X232449702Y-65960715D01*
X232497321Y-65913096D01*
X232544940Y-65817858D01*
X232544940Y-65436905D01*
X232068750Y-66960715D02*
X232021131Y-66865477D01*
X232021131Y-66722620D01*
X232068750Y-66579762D01*
X232163988Y-66484524D01*
X232259226Y-66436905D01*
X232449702Y-66389286D01*
X232592560Y-66389286D01*
X232783036Y-66436905D01*
X232878274Y-66484524D01*
X232973512Y-66579762D01*
X233021131Y-66722620D01*
X233021131Y-66817858D01*
X232973512Y-66960715D01*
X232925893Y-67008334D01*
X232592560Y-67008334D01*
X232592560Y-66817858D01*
X232497321Y-67770239D02*
X232544940Y-67913096D01*
X232592560Y-67960715D01*
X232687798Y-68008334D01*
X232830655Y-68008334D01*
X232925893Y-67960715D01*
X232973512Y-67913096D01*
X233021131Y-67817858D01*
X233021131Y-67436905D01*
X232021131Y-67436905D01*
X232021131Y-67770239D01*
X232068750Y-67865477D01*
X232116369Y-67913096D01*
X232211607Y-67960715D01*
X232306845Y-67960715D01*
X232402083Y-67913096D01*
X232449702Y-67865477D01*
X232497321Y-67770239D01*
X232497321Y-67436905D01*
X232021131Y-68341667D02*
X232021131Y-69008334D01*
X233021131Y-68579762D01*
X176418666Y-126468143D02*
X176466285Y-126515762D01*
X176609142Y-126563381D01*
X176704380Y-126563381D01*
X176847238Y-126515762D01*
X176942476Y-126420524D01*
X176990095Y-126325286D01*
X177037714Y-126134810D01*
X177037714Y-125991952D01*
X176990095Y-125801476D01*
X176942476Y-125706238D01*
X176847238Y-125611000D01*
X176704380Y-125563381D01*
X176609142Y-125563381D01*
X176466285Y-125611000D01*
X176418666Y-125658619D01*
X175418666Y-126563381D02*
X175752000Y-126087190D01*
X175990095Y-126563381D02*
X175990095Y-125563381D01*
X175609142Y-125563381D01*
X175513904Y-125611000D01*
X175466285Y-125658619D01*
X175418666Y-125753857D01*
X175418666Y-125896714D01*
X175466285Y-125991952D01*
X175513904Y-126039571D01*
X175609142Y-126087190D01*
X175990095Y-126087190D01*
X174466285Y-125611000D02*
X174561523Y-125563381D01*
X174704380Y-125563381D01*
X174847238Y-125611000D01*
X174942476Y-125706238D01*
X174990095Y-125801476D01*
X175037714Y-125991952D01*
X175037714Y-126134810D01*
X174990095Y-126325286D01*
X174942476Y-126420524D01*
X174847238Y-126515762D01*
X174704380Y-126563381D01*
X174609142Y-126563381D01*
X174466285Y-126515762D01*
X174418666Y-126468143D01*
X174418666Y-126134810D01*
X174609142Y-126134810D01*
X173656761Y-126039571D02*
X173513904Y-126087190D01*
X173466285Y-126134810D01*
X173418666Y-126230048D01*
X173418666Y-126372905D01*
X173466285Y-126468143D01*
X173513904Y-126515762D01*
X173609142Y-126563381D01*
X173990095Y-126563381D01*
X173990095Y-125563381D01*
X173656761Y-125563381D01*
X173561523Y-125611000D01*
X173513904Y-125658619D01*
X173466285Y-125753857D01*
X173466285Y-125849095D01*
X173513904Y-125944333D01*
X173561523Y-125991952D01*
X173656761Y-126039571D01*
X173990095Y-126039571D01*
X172847238Y-125991952D02*
X172942476Y-125944333D01*
X172990095Y-125896714D01*
X173037714Y-125801476D01*
X173037714Y-125753857D01*
X172990095Y-125658619D01*
X172942476Y-125611000D01*
X172847238Y-125563381D01*
X172656761Y-125563381D01*
X172561523Y-125611000D01*
X172513904Y-125658619D01*
X172466285Y-125753857D01*
X172466285Y-125801476D01*
X172513904Y-125896714D01*
X172561523Y-125944333D01*
X172656761Y-125991952D01*
X172847238Y-125991952D01*
X172942476Y-126039571D01*
X172990095Y-126087190D01*
X173037714Y-126182429D01*
X173037714Y-126372905D01*
X172990095Y-126468143D01*
X172942476Y-126515762D01*
X172847238Y-126563381D01*
X172656761Y-126563381D01*
X172561523Y-126515762D01*
X172513904Y-126468143D01*
X172466285Y-126372905D01*
X172466285Y-126182429D01*
X172513904Y-126087190D01*
X172561523Y-126039571D01*
X172656761Y-125991952D01*
X283725893Y-65008334D02*
X283773512Y-64960715D01*
X283821131Y-64817858D01*
X283821131Y-64722620D01*
X283773512Y-64579762D01*
X283678274Y-64484524D01*
X283583036Y-64436905D01*
X283392560Y-64389286D01*
X283249702Y-64389286D01*
X283059226Y-64436905D01*
X282963988Y-64484524D01*
X282868750Y-64579762D01*
X282821131Y-64722620D01*
X282821131Y-64817858D01*
X282868750Y-64960715D01*
X282916369Y-65008334D01*
X283821131Y-66008334D02*
X283344940Y-65675000D01*
X283821131Y-65436905D02*
X282821131Y-65436905D01*
X282821131Y-65817858D01*
X282868750Y-65913096D01*
X282916369Y-65960715D01*
X283011607Y-66008334D01*
X283154464Y-66008334D01*
X283249702Y-65960715D01*
X283297321Y-65913096D01*
X283344940Y-65817858D01*
X283344940Y-65436905D01*
X282868750Y-66960715D02*
X282821131Y-66865477D01*
X282821131Y-66722620D01*
X282868750Y-66579762D01*
X282963988Y-66484524D01*
X283059226Y-66436905D01*
X283249702Y-66389286D01*
X283392560Y-66389286D01*
X283583036Y-66436905D01*
X283678274Y-66484524D01*
X283773512Y-66579762D01*
X283821131Y-66722620D01*
X283821131Y-66817858D01*
X283773512Y-66960715D01*
X283725893Y-67008334D01*
X283392560Y-67008334D01*
X283392560Y-66817858D01*
X283297321Y-67770239D02*
X283344940Y-67913096D01*
X283392560Y-67960715D01*
X283487798Y-68008334D01*
X283630655Y-68008334D01*
X283725893Y-67960715D01*
X283773512Y-67913096D01*
X283821131Y-67817858D01*
X283821131Y-67436905D01*
X282821131Y-67436905D01*
X282821131Y-67770239D01*
X282868750Y-67865477D01*
X282916369Y-67913096D01*
X283011607Y-67960715D01*
X283106845Y-67960715D01*
X283202083Y-67913096D01*
X283249702Y-67865477D01*
X283297321Y-67770239D01*
X283297321Y-67436905D01*
X283821131Y-68484524D02*
X283821131Y-68675000D01*
X283773512Y-68770239D01*
X283725893Y-68817858D01*
X283583036Y-68913096D01*
X283392560Y-68960715D01*
X283011607Y-68960715D01*
X282916369Y-68913096D01*
X282868750Y-68865477D01*
X282821131Y-68770239D01*
X282821131Y-68579762D01*
X282868750Y-68484524D01*
X282916369Y-68436905D01*
X283011607Y-68389286D01*
X283249702Y-68389286D01*
X283344940Y-68436905D01*
X283392560Y-68484524D01*
X283440179Y-68579762D01*
X283440179Y-68770239D01*
X283392560Y-68865477D01*
X283344940Y-68913096D01*
X283249702Y-68960715D01*
X133707143Y-121682143D02*
X133754762Y-121634524D01*
X133802381Y-121491667D01*
X133802381Y-121396429D01*
X133754762Y-121253571D01*
X133659524Y-121158333D01*
X133564286Y-121110714D01*
X133373810Y-121063095D01*
X133230952Y-121063095D01*
X133040476Y-121110714D01*
X132945238Y-121158333D01*
X132850000Y-121253571D01*
X132802381Y-121396429D01*
X132802381Y-121491667D01*
X132850000Y-121634524D01*
X132897619Y-121682143D01*
X133802381Y-122682143D02*
X133326190Y-122348809D01*
X133802381Y-122110714D02*
X132802381Y-122110714D01*
X132802381Y-122491667D01*
X132850000Y-122586905D01*
X132897619Y-122634524D01*
X132992857Y-122682143D01*
X133135714Y-122682143D01*
X133230952Y-122634524D01*
X133278571Y-122586905D01*
X133326190Y-122491667D01*
X133326190Y-122110714D01*
X132850000Y-123634524D02*
X132802381Y-123539286D01*
X132802381Y-123396429D01*
X132850000Y-123253571D01*
X132945238Y-123158333D01*
X133040476Y-123110714D01*
X133230952Y-123063095D01*
X133373810Y-123063095D01*
X133564286Y-123110714D01*
X133659524Y-123158333D01*
X133754762Y-123253571D01*
X133802381Y-123396429D01*
X133802381Y-123491667D01*
X133754762Y-123634524D01*
X133707143Y-123682143D01*
X133373810Y-123682143D01*
X133373810Y-123491667D01*
X133278571Y-124444048D02*
X133326190Y-124586905D01*
X133373810Y-124634524D01*
X133469048Y-124682143D01*
X133611905Y-124682143D01*
X133707143Y-124634524D01*
X133754762Y-124586905D01*
X133802381Y-124491667D01*
X133802381Y-124110714D01*
X132802381Y-124110714D01*
X132802381Y-124444048D01*
X132850000Y-124539286D01*
X132897619Y-124586905D01*
X132992857Y-124634524D01*
X133088095Y-124634524D01*
X133183333Y-124586905D01*
X133230952Y-124539286D01*
X133278571Y-124444048D01*
X133278571Y-124110714D01*
X133802381Y-125634524D02*
X133802381Y-125063095D01*
X133802381Y-125348809D02*
X132802381Y-125348809D01*
X132945238Y-125253571D01*
X133040476Y-125158333D01*
X133088095Y-125063095D01*
X132802381Y-126253571D02*
X132802381Y-126348810D01*
X132850000Y-126444048D01*
X132897619Y-126491667D01*
X132992857Y-126539286D01*
X133183333Y-126586905D01*
X133421429Y-126586905D01*
X133611905Y-126539286D01*
X133707143Y-126491667D01*
X133754762Y-126444048D01*
X133802381Y-126348810D01*
X133802381Y-126253571D01*
X133754762Y-126158333D01*
X133707143Y-126110714D01*
X133611905Y-126063095D01*
X133421429Y-126015476D01*
X133183333Y-126015476D01*
X132992857Y-126063095D01*
X132897619Y-126110714D01*
X132850000Y-126158333D01*
X132802381Y-126253571D01*
X313182143Y-64532143D02*
X313229762Y-64484524D01*
X313277381Y-64341667D01*
X313277381Y-64246429D01*
X313229762Y-64103571D01*
X313134524Y-64008333D01*
X313039286Y-63960714D01*
X312848810Y-63913095D01*
X312705952Y-63913095D01*
X312515476Y-63960714D01*
X312420238Y-64008333D01*
X312325000Y-64103571D01*
X312277381Y-64246429D01*
X312277381Y-64341667D01*
X312325000Y-64484524D01*
X312372619Y-64532143D01*
X313277381Y-65532143D02*
X312801190Y-65198809D01*
X313277381Y-64960714D02*
X312277381Y-64960714D01*
X312277381Y-65341667D01*
X312325000Y-65436905D01*
X312372619Y-65484524D01*
X312467857Y-65532143D01*
X312610714Y-65532143D01*
X312705952Y-65484524D01*
X312753571Y-65436905D01*
X312801190Y-65341667D01*
X312801190Y-64960714D01*
X312325000Y-66484524D02*
X312277381Y-66389286D01*
X312277381Y-66246429D01*
X312325000Y-66103571D01*
X312420238Y-66008333D01*
X312515476Y-65960714D01*
X312705952Y-65913095D01*
X312848810Y-65913095D01*
X313039286Y-65960714D01*
X313134524Y-66008333D01*
X313229762Y-66103571D01*
X313277381Y-66246429D01*
X313277381Y-66341667D01*
X313229762Y-66484524D01*
X313182143Y-66532143D01*
X312848810Y-66532143D01*
X312848810Y-66341667D01*
X312753571Y-67294048D02*
X312801190Y-67436905D01*
X312848810Y-67484524D01*
X312944048Y-67532143D01*
X313086905Y-67532143D01*
X313182143Y-67484524D01*
X313229762Y-67436905D01*
X313277381Y-67341667D01*
X313277381Y-66960714D01*
X312277381Y-66960714D01*
X312277381Y-67294048D01*
X312325000Y-67389286D01*
X312372619Y-67436905D01*
X312467857Y-67484524D01*
X312563095Y-67484524D01*
X312658333Y-67436905D01*
X312705952Y-67389286D01*
X312753571Y-67294048D01*
X312753571Y-66960714D01*
X313277381Y-68484524D02*
X313277381Y-67913095D01*
X313277381Y-68198809D02*
X312277381Y-68198809D01*
X312420238Y-68103571D01*
X312515476Y-68008333D01*
X312563095Y-67913095D01*
X313277381Y-69436905D02*
X313277381Y-68865476D01*
X313277381Y-69151190D02*
X312277381Y-69151190D01*
X312420238Y-69055952D01*
X312515476Y-68960714D01*
X312563095Y-68865476D01*
X66325893Y-121682143D02*
X66373512Y-121634524D01*
X66421131Y-121491667D01*
X66421131Y-121396429D01*
X66373512Y-121253571D01*
X66278274Y-121158333D01*
X66183036Y-121110714D01*
X65992560Y-121063095D01*
X65849702Y-121063095D01*
X65659226Y-121110714D01*
X65563988Y-121158333D01*
X65468750Y-121253571D01*
X65421131Y-121396429D01*
X65421131Y-121491667D01*
X65468750Y-121634524D01*
X65516369Y-121682143D01*
X66421131Y-122682143D02*
X65944940Y-122348809D01*
X66421131Y-122110714D02*
X65421131Y-122110714D01*
X65421131Y-122491667D01*
X65468750Y-122586905D01*
X65516369Y-122634524D01*
X65611607Y-122682143D01*
X65754464Y-122682143D01*
X65849702Y-122634524D01*
X65897321Y-122586905D01*
X65944940Y-122491667D01*
X65944940Y-122110714D01*
X65468750Y-123634524D02*
X65421131Y-123539286D01*
X65421131Y-123396429D01*
X65468750Y-123253571D01*
X65563988Y-123158333D01*
X65659226Y-123110714D01*
X65849702Y-123063095D01*
X65992560Y-123063095D01*
X66183036Y-123110714D01*
X66278274Y-123158333D01*
X66373512Y-123253571D01*
X66421131Y-123396429D01*
X66421131Y-123491667D01*
X66373512Y-123634524D01*
X66325893Y-123682143D01*
X65992560Y-123682143D01*
X65992560Y-123491667D01*
X65897321Y-124444048D02*
X65944940Y-124586905D01*
X65992560Y-124634524D01*
X66087798Y-124682143D01*
X66230655Y-124682143D01*
X66325893Y-124634524D01*
X66373512Y-124586905D01*
X66421131Y-124491667D01*
X66421131Y-124110714D01*
X65421131Y-124110714D01*
X65421131Y-124444048D01*
X65468750Y-124539286D01*
X65516369Y-124586905D01*
X65611607Y-124634524D01*
X65706845Y-124634524D01*
X65802083Y-124586905D01*
X65849702Y-124539286D01*
X65897321Y-124444048D01*
X65897321Y-124110714D01*
X66421131Y-125634524D02*
X66421131Y-125063095D01*
X66421131Y-125348809D02*
X65421131Y-125348809D01*
X65563988Y-125253571D01*
X65659226Y-125158333D01*
X65706845Y-125063095D01*
X65516369Y-126015476D02*
X65468750Y-126063095D01*
X65421131Y-126158333D01*
X65421131Y-126396429D01*
X65468750Y-126491667D01*
X65516369Y-126539286D01*
X65611607Y-126586905D01*
X65706845Y-126586905D01*
X65849702Y-126539286D01*
X66421131Y-125967857D01*
X66421131Y-126586905D01*
D17*
X75858631Y-65555953D02*
X75858631Y-65079762D01*
X74858631Y-65079762D01*
X75334821Y-65889286D02*
X75334821Y-66222620D01*
X75858631Y-66365477D02*
X75858631Y-65889286D01*
X74858631Y-65889286D01*
X74858631Y-66365477D01*
X75858631Y-66794048D02*
X74858631Y-66794048D01*
X74858631Y-67032143D01*
X74906250Y-67175001D01*
X75001488Y-67270239D01*
X75096726Y-67317858D01*
X75287202Y-67365477D01*
X75430060Y-67365477D01*
X75620536Y-67317858D01*
X75715774Y-67270239D01*
X75811012Y-67175001D01*
X75858631Y-67032143D01*
X75858631Y-66794048D01*
X75858631Y-68317858D02*
X75858631Y-67746429D01*
X75858631Y-68032143D02*
X74858631Y-68032143D01*
X75001488Y-67936905D01*
X75096726Y-67841667D01*
X75144345Y-67746429D01*
X322714881Y-122705953D02*
X322714881Y-122229762D01*
X321714881Y-122229762D01*
X322191071Y-123039286D02*
X322191071Y-123372620D01*
X322714881Y-123515477D02*
X322714881Y-123039286D01*
X321714881Y-123039286D01*
X321714881Y-123515477D01*
X322714881Y-123944048D02*
X321714881Y-123944048D01*
X321714881Y-124182143D01*
X321762500Y-124325001D01*
X321857738Y-124420239D01*
X321952976Y-124467858D01*
X322143452Y-124515477D01*
X322286310Y-124515477D01*
X322476786Y-124467858D01*
X322572024Y-124420239D01*
X322667262Y-124325001D01*
X322714881Y-124182143D01*
X322714881Y-123944048D01*
X321810119Y-124896429D02*
X321762500Y-124944048D01*
X321714881Y-125039286D01*
X321714881Y-125277382D01*
X321762500Y-125372620D01*
X321810119Y-125420239D01*
X321905357Y-125467858D01*
X322000595Y-125467858D01*
X322143452Y-125420239D01*
X322714881Y-124848810D01*
X322714881Y-125467858D01*
X119514881Y-65555953D02*
X119514881Y-65079762D01*
X118514881Y-65079762D01*
X118991071Y-65889286D02*
X118991071Y-66222620D01*
X119514881Y-66365477D02*
X119514881Y-65889286D01*
X118514881Y-65889286D01*
X118514881Y-66365477D01*
X119514881Y-66794048D02*
X118514881Y-66794048D01*
X118514881Y-67032143D01*
X118562500Y-67175001D01*
X118657738Y-67270239D01*
X118752976Y-67317858D01*
X118943452Y-67365477D01*
X119086310Y-67365477D01*
X119276786Y-67317858D01*
X119372024Y-67270239D01*
X119467262Y-67175001D01*
X119514881Y-67032143D01*
X119514881Y-66794048D01*
X118514881Y-67698810D02*
X118514881Y-68317858D01*
X118895833Y-67984524D01*
X118895833Y-68127382D01*
X118943452Y-68222620D01*
X118991071Y-68270239D01*
X119086310Y-68317858D01*
X119324405Y-68317858D01*
X119419643Y-68270239D01*
X119467262Y-68222620D01*
X119514881Y-68127382D01*
X119514881Y-67841667D01*
X119467262Y-67746429D01*
X119419643Y-67698810D01*
X267152381Y-120324703D02*
X267152381Y-119848512D01*
X266152381Y-119848512D01*
X266628571Y-120658036D02*
X266628571Y-120991370D01*
X267152381Y-121134227D02*
X267152381Y-120658036D01*
X266152381Y-120658036D01*
X266152381Y-121134227D01*
X267152381Y-121562798D02*
X266152381Y-121562798D01*
X266152381Y-121800893D01*
X266200000Y-121943751D01*
X266295238Y-122038989D01*
X266390476Y-122086608D01*
X266580952Y-122134227D01*
X266723810Y-122134227D01*
X266914286Y-122086608D01*
X267009524Y-122038989D01*
X267104762Y-121943751D01*
X267152381Y-121800893D01*
X267152381Y-121562798D01*
X266485714Y-122991370D02*
X267152381Y-122991370D01*
X266104762Y-122753274D02*
X266819048Y-122515179D01*
X266819048Y-123134227D01*
X170314881Y-65555953D02*
X170314881Y-65079762D01*
X169314881Y-65079762D01*
X169791071Y-65889286D02*
X169791071Y-66222620D01*
X170314881Y-66365477D02*
X170314881Y-65889286D01*
X169314881Y-65889286D01*
X169314881Y-66365477D01*
X170314881Y-66794048D02*
X169314881Y-66794048D01*
X169314881Y-67032143D01*
X169362500Y-67175001D01*
X169457738Y-67270239D01*
X169552976Y-67317858D01*
X169743452Y-67365477D01*
X169886310Y-67365477D01*
X170076786Y-67317858D01*
X170172024Y-67270239D01*
X170267262Y-67175001D01*
X170314881Y-67032143D01*
X170314881Y-66794048D01*
X169314881Y-68270239D02*
X169314881Y-67794048D01*
X169791071Y-67746429D01*
X169743452Y-67794048D01*
X169695833Y-67889286D01*
X169695833Y-68127382D01*
X169743452Y-68222620D01*
X169791071Y-68270239D01*
X169886310Y-68317858D01*
X170124405Y-68317858D01*
X170219643Y-68270239D01*
X170267262Y-68222620D01*
X170314881Y-68127382D01*
X170314881Y-67889286D01*
X170267262Y-67794048D01*
X170219643Y-67746429D01*
X203652381Y-122705953D02*
X203652381Y-122229762D01*
X202652381Y-122229762D01*
X203128571Y-123039286D02*
X203128571Y-123372620D01*
X203652381Y-123515477D02*
X203652381Y-123039286D01*
X202652381Y-123039286D01*
X202652381Y-123515477D01*
X203652381Y-123944048D02*
X202652381Y-123944048D01*
X202652381Y-124182143D01*
X202700000Y-124325001D01*
X202795238Y-124420239D01*
X202890476Y-124467858D01*
X203080952Y-124515477D01*
X203223810Y-124515477D01*
X203414286Y-124467858D01*
X203509524Y-124420239D01*
X203604762Y-124325001D01*
X203652381Y-124182143D01*
X203652381Y-123944048D01*
X202652381Y-125372620D02*
X202652381Y-125182143D01*
X202700000Y-125086905D01*
X202747619Y-125039286D01*
X202890476Y-124944048D01*
X203080952Y-124896429D01*
X203461905Y-124896429D01*
X203557143Y-124944048D01*
X203604762Y-124991667D01*
X203652381Y-125086905D01*
X203652381Y-125277382D01*
X203604762Y-125372620D01*
X203557143Y-125420239D01*
X203461905Y-125467858D01*
X203223810Y-125467858D01*
X203128571Y-125420239D01*
X203080952Y-125372620D01*
X203033333Y-125277382D01*
X203033333Y-125086905D01*
X203080952Y-124991667D01*
X203128571Y-124944048D01*
X203223810Y-124896429D01*
X221114881Y-65555953D02*
X221114881Y-65079762D01*
X220114881Y-65079762D01*
X220591071Y-65889286D02*
X220591071Y-66222620D01*
X221114881Y-66365477D02*
X221114881Y-65889286D01*
X220114881Y-65889286D01*
X220114881Y-66365477D01*
X221114881Y-66794048D02*
X220114881Y-66794048D01*
X220114881Y-67032143D01*
X220162500Y-67175001D01*
X220257738Y-67270239D01*
X220352976Y-67317858D01*
X220543452Y-67365477D01*
X220686310Y-67365477D01*
X220876786Y-67317858D01*
X220972024Y-67270239D01*
X221067262Y-67175001D01*
X221114881Y-67032143D01*
X221114881Y-66794048D01*
X220114881Y-67698810D02*
X220114881Y-68365477D01*
X221114881Y-67936905D01*
X167012797Y-128246131D02*
X167488988Y-128246131D01*
X167488988Y-127246131D01*
X166679464Y-127722321D02*
X166346130Y-127722321D01*
X166203273Y-128246131D02*
X166679464Y-128246131D01*
X166679464Y-127246131D01*
X166203273Y-127246131D01*
X165774702Y-128246131D02*
X165774702Y-127246131D01*
X165536607Y-127246131D01*
X165393749Y-127293750D01*
X165298511Y-127388988D01*
X165250892Y-127484226D01*
X165203273Y-127674702D01*
X165203273Y-127817560D01*
X165250892Y-128008036D01*
X165298511Y-128103274D01*
X165393749Y-128198512D01*
X165536607Y-128246131D01*
X165774702Y-128246131D01*
X164631845Y-127674702D02*
X164727083Y-127627083D01*
X164774702Y-127579464D01*
X164822321Y-127484226D01*
X164822321Y-127436607D01*
X164774702Y-127341369D01*
X164727083Y-127293750D01*
X164631845Y-127246131D01*
X164441368Y-127246131D01*
X164346130Y-127293750D01*
X164298511Y-127341369D01*
X164250892Y-127436607D01*
X164250892Y-127484226D01*
X164298511Y-127579464D01*
X164346130Y-127627083D01*
X164441368Y-127674702D01*
X164631845Y-127674702D01*
X164727083Y-127722321D01*
X164774702Y-127769940D01*
X164822321Y-127865179D01*
X164822321Y-128055655D01*
X164774702Y-128150893D01*
X164727083Y-128198512D01*
X164631845Y-128246131D01*
X164441368Y-128246131D01*
X164346130Y-128198512D01*
X164298511Y-128150893D01*
X164250892Y-128055655D01*
X164250892Y-127865179D01*
X164298511Y-127769940D01*
X164346130Y-127722321D01*
X164441368Y-127674702D01*
X271914881Y-65555953D02*
X271914881Y-65079762D01*
X270914881Y-65079762D01*
X271391071Y-65889286D02*
X271391071Y-66222620D01*
X271914881Y-66365477D02*
X271914881Y-65889286D01*
X270914881Y-65889286D01*
X270914881Y-66365477D01*
X271914881Y-66794048D02*
X270914881Y-66794048D01*
X270914881Y-67032143D01*
X270962500Y-67175001D01*
X271057738Y-67270239D01*
X271152976Y-67317858D01*
X271343452Y-67365477D01*
X271486310Y-67365477D01*
X271676786Y-67317858D01*
X271772024Y-67270239D01*
X271867262Y-67175001D01*
X271914881Y-67032143D01*
X271914881Y-66794048D01*
X271914881Y-67841667D02*
X271914881Y-68032143D01*
X271867262Y-68127382D01*
X271819643Y-68175001D01*
X271676786Y-68270239D01*
X271486310Y-68317858D01*
X271105357Y-68317858D01*
X271010119Y-68270239D01*
X270962500Y-68222620D01*
X270914881Y-68127382D01*
X270914881Y-67936905D01*
X270962500Y-67841667D01*
X271010119Y-67794048D01*
X271105357Y-67746429D01*
X271343452Y-67746429D01*
X271438690Y-67794048D01*
X271486310Y-67841667D01*
X271533929Y-67936905D01*
X271533929Y-68127382D01*
X271486310Y-68222620D01*
X271438690Y-68270239D01*
X271343452Y-68317858D01*
X117927381Y-122229762D02*
X117927381Y-121753571D01*
X116927381Y-121753571D01*
X117403571Y-122563095D02*
X117403571Y-122896429D01*
X117927381Y-123039286D02*
X117927381Y-122563095D01*
X116927381Y-122563095D01*
X116927381Y-123039286D01*
X117927381Y-123467857D02*
X116927381Y-123467857D01*
X116927381Y-123705952D01*
X116975000Y-123848810D01*
X117070238Y-123944048D01*
X117165476Y-123991667D01*
X117355952Y-124039286D01*
X117498810Y-124039286D01*
X117689286Y-123991667D01*
X117784524Y-123944048D01*
X117879762Y-123848810D01*
X117927381Y-123705952D01*
X117927381Y-123467857D01*
X117927381Y-124991667D02*
X117927381Y-124420238D01*
X117927381Y-124705952D02*
X116927381Y-124705952D01*
X117070238Y-124610714D01*
X117165476Y-124515476D01*
X117213095Y-124420238D01*
X116927381Y-125610714D02*
X116927381Y-125705953D01*
X116975000Y-125801191D01*
X117022619Y-125848810D01*
X117117857Y-125896429D01*
X117308333Y-125944048D01*
X117546429Y-125944048D01*
X117736905Y-125896429D01*
X117832143Y-125848810D01*
X117879762Y-125801191D01*
X117927381Y-125705953D01*
X117927381Y-125610714D01*
X117879762Y-125515476D01*
X117832143Y-125467857D01*
X117736905Y-125420238D01*
X117546429Y-125372619D01*
X117308333Y-125372619D01*
X117117857Y-125420238D01*
X117022619Y-125467857D01*
X116975000Y-125515476D01*
X116927381Y-125610714D01*
X325096131Y-68254762D02*
X325096131Y-67778571D01*
X324096131Y-67778571D01*
X324572321Y-68588095D02*
X324572321Y-68921429D01*
X325096131Y-69064286D02*
X325096131Y-68588095D01*
X324096131Y-68588095D01*
X324096131Y-69064286D01*
X325096131Y-69492857D02*
X324096131Y-69492857D01*
X324096131Y-69730952D01*
X324143750Y-69873810D01*
X324238988Y-69969048D01*
X324334226Y-70016667D01*
X324524702Y-70064286D01*
X324667560Y-70064286D01*
X324858036Y-70016667D01*
X324953274Y-69969048D01*
X325048512Y-69873810D01*
X325096131Y-69730952D01*
X325096131Y-69492857D01*
X325096131Y-71016667D02*
X325096131Y-70445238D01*
X325096131Y-70730952D02*
X324096131Y-70730952D01*
X324238988Y-70635714D01*
X324334226Y-70540476D01*
X324381845Y-70445238D01*
X325096131Y-71969048D02*
X325096131Y-71397619D01*
X325096131Y-71683333D02*
X324096131Y-71683333D01*
X324238988Y-71588095D01*
X324334226Y-71492857D01*
X324381845Y-71397619D01*
X78177381Y-122229762D02*
X78177381Y-121753571D01*
X77177381Y-121753571D01*
X77653571Y-122563095D02*
X77653571Y-122896429D01*
X78177381Y-123039286D02*
X78177381Y-122563095D01*
X77177381Y-122563095D01*
X77177381Y-123039286D01*
X78177381Y-123467857D02*
X77177381Y-123467857D01*
X77177381Y-123705952D01*
X77225000Y-123848810D01*
X77320238Y-123944048D01*
X77415476Y-123991667D01*
X77605952Y-124039286D01*
X77748810Y-124039286D01*
X77939286Y-123991667D01*
X78034524Y-123944048D01*
X78129762Y-123848810D01*
X78177381Y-123705952D01*
X78177381Y-123467857D01*
X78177381Y-124991667D02*
X78177381Y-124420238D01*
X78177381Y-124705952D02*
X77177381Y-124705952D01*
X77320238Y-124610714D01*
X77415476Y-124515476D01*
X77463095Y-124420238D01*
X77272619Y-125372619D02*
X77225000Y-125420238D01*
X77177381Y-125515476D01*
X77177381Y-125753572D01*
X77225000Y-125848810D01*
X77272619Y-125896429D01*
X77367857Y-125944048D01*
X77463095Y-125944048D01*
X77605952Y-125896429D01*
X78177381Y-125325000D01*
X78177381Y-125944048D01*
D13*
X240101381Y-136072714D02*
X239101381Y-136072714D01*
X239101381Y-136310809D01*
X239149000Y-136453667D01*
X239244238Y-136548905D01*
X239339476Y-136596524D01*
X239529952Y-136644143D01*
X239672810Y-136644143D01*
X239863286Y-136596524D01*
X239958524Y-136548905D01*
X240053762Y-136453667D01*
X240101381Y-136310809D01*
X240101381Y-136072714D01*
X239101381Y-137501286D02*
X239101381Y-137310809D01*
X239149000Y-137215571D01*
X239196619Y-137167952D01*
X239339476Y-137072714D01*
X239529952Y-137025095D01*
X239910905Y-137025095D01*
X240006143Y-137072714D01*
X240053762Y-137120333D01*
X240101381Y-137215571D01*
X240101381Y-137406048D01*
X240053762Y-137501286D01*
X240006143Y-137548905D01*
X239910905Y-137596524D01*
X239672810Y-137596524D01*
X239577571Y-137548905D01*
X239529952Y-137501286D01*
X239482333Y-137406048D01*
X239482333Y-137215571D01*
X239529952Y-137120333D01*
X239577571Y-137072714D01*
X239672810Y-137025095D01*
X240101381Y-138072714D02*
X240101381Y-138263190D01*
X240053762Y-138358429D01*
X240006143Y-138406048D01*
X239863286Y-138501286D01*
X239672810Y-138548905D01*
X239291857Y-138548905D01*
X239196619Y-138501286D01*
X239149000Y-138453667D01*
X239101381Y-138358429D01*
X239101381Y-138167952D01*
X239149000Y-138072714D01*
X239196619Y-138025095D01*
X239291857Y-137977476D01*
X239529952Y-137977476D01*
X239625190Y-138025095D01*
X239672810Y-138072714D01*
X239720429Y-138167952D01*
X239720429Y-138358429D01*
X239672810Y-138453667D01*
X239625190Y-138501286D01*
X239529952Y-138548905D01*
X297378381Y-136072714D02*
X296378381Y-136072714D01*
X296378381Y-136310809D01*
X296426000Y-136453667D01*
X296521238Y-136548905D01*
X296616476Y-136596524D01*
X296806952Y-136644143D01*
X296949810Y-136644143D01*
X297140286Y-136596524D01*
X297235524Y-136548905D01*
X297330762Y-136453667D01*
X297378381Y-136310809D01*
X297378381Y-136072714D01*
X296378381Y-136977476D02*
X296378381Y-137644143D01*
X297378381Y-137215571D01*
X296378381Y-138215571D02*
X296378381Y-138310810D01*
X296426000Y-138406048D01*
X296473619Y-138453667D01*
X296568857Y-138501286D01*
X296759333Y-138548905D01*
X296997429Y-138548905D01*
X297187905Y-138501286D01*
X297283143Y-138453667D01*
X297330762Y-138406048D01*
X297378381Y-138310810D01*
X297378381Y-138215571D01*
X297330762Y-138120333D01*
X297283143Y-138072714D01*
X297187905Y-138025095D01*
X296997429Y-137977476D01*
X296759333Y-137977476D01*
X296568857Y-138025095D01*
X296473619Y-138072714D01*
X296426000Y-138120333D01*
X296378381Y-138215571D01*
X295346131Y-132135714D02*
X294346131Y-132135714D01*
X294346131Y-132373809D01*
X294393750Y-132516667D01*
X294488988Y-132611905D01*
X294584226Y-132659524D01*
X294774702Y-132707143D01*
X294917560Y-132707143D01*
X295108036Y-132659524D01*
X295203274Y-132611905D01*
X295298512Y-132516667D01*
X295346131Y-132373809D01*
X295346131Y-132135714D01*
X294346131Y-133040476D02*
X294346131Y-133707143D01*
X295346131Y-133278571D01*
X295346131Y-134611905D02*
X295346131Y-134040476D01*
X295346131Y-134326190D02*
X294346131Y-134326190D01*
X294488988Y-134230952D01*
X294584226Y-134135714D01*
X294631845Y-134040476D01*
X91797143Y-122007334D02*
X91844762Y-121959715D01*
X91892381Y-121816858D01*
X91892381Y-121721620D01*
X91844762Y-121578762D01*
X91749524Y-121483524D01*
X91654286Y-121435905D01*
X91463810Y-121388286D01*
X91320952Y-121388286D01*
X91130476Y-121435905D01*
X91035238Y-121483524D01*
X90940000Y-121578762D01*
X90892381Y-121721620D01*
X90892381Y-121816858D01*
X90940000Y-121959715D01*
X90987619Y-122007334D01*
X90892381Y-122340667D02*
X90892381Y-123007334D01*
X91892381Y-122578762D01*
X89193666Y-117959143D02*
X89241285Y-118006762D01*
X89384142Y-118054381D01*
X89479380Y-118054381D01*
X89622238Y-118006762D01*
X89717476Y-117911524D01*
X89765095Y-117816286D01*
X89812714Y-117625810D01*
X89812714Y-117482952D01*
X89765095Y-117292476D01*
X89717476Y-117197238D01*
X89622238Y-117102000D01*
X89479380Y-117054381D01*
X89384142Y-117054381D01*
X89241285Y-117102000D01*
X89193666Y-117149619D01*
X88622238Y-117482952D02*
X88717476Y-117435333D01*
X88765095Y-117387714D01*
X88812714Y-117292476D01*
X88812714Y-117244857D01*
X88765095Y-117149619D01*
X88717476Y-117102000D01*
X88622238Y-117054381D01*
X88431761Y-117054381D01*
X88336523Y-117102000D01*
X88288904Y-117149619D01*
X88241285Y-117244857D01*
X88241285Y-117292476D01*
X88288904Y-117387714D01*
X88336523Y-117435333D01*
X88431761Y-117482952D01*
X88622238Y-117482952D01*
X88717476Y-117530571D01*
X88765095Y-117578190D01*
X88812714Y-117673429D01*
X88812714Y-117863905D01*
X88765095Y-117959143D01*
X88717476Y-118006762D01*
X88622238Y-118054381D01*
X88431761Y-118054381D01*
X88336523Y-118006762D01*
X88288904Y-117959143D01*
X88241285Y-117863905D01*
X88241285Y-117673429D01*
X88288904Y-117578190D01*
X88336523Y-117530571D01*
X88431761Y-117482952D01*
X97702666Y-116943143D02*
X97750285Y-116990762D01*
X97893142Y-117038381D01*
X97988380Y-117038381D01*
X98131238Y-116990762D01*
X98226476Y-116895524D01*
X98274095Y-116800286D01*
X98321714Y-116609810D01*
X98321714Y-116466952D01*
X98274095Y-116276476D01*
X98226476Y-116181238D01*
X98131238Y-116086000D01*
X97988380Y-116038381D01*
X97893142Y-116038381D01*
X97750285Y-116086000D01*
X97702666Y-116133619D01*
X97226476Y-117038381D02*
X97036000Y-117038381D01*
X96940761Y-116990762D01*
X96893142Y-116943143D01*
X96797904Y-116800286D01*
X96750285Y-116609810D01*
X96750285Y-116228857D01*
X96797904Y-116133619D01*
X96845523Y-116086000D01*
X96940761Y-116038381D01*
X97131238Y-116038381D01*
X97226476Y-116086000D01*
X97274095Y-116133619D01*
X97321714Y-116228857D01*
X97321714Y-116466952D01*
X97274095Y-116562190D01*
X97226476Y-116609810D01*
X97131238Y-116657429D01*
X96940761Y-116657429D01*
X96845523Y-116609810D01*
X96797904Y-116562190D01*
X96750285Y-116466952D01*
X89741143Y-105668143D02*
X89788762Y-105620524D01*
X89836381Y-105477667D01*
X89836381Y-105382429D01*
X89788762Y-105239571D01*
X89693524Y-105144333D01*
X89598286Y-105096714D01*
X89407810Y-105049095D01*
X89264952Y-105049095D01*
X89074476Y-105096714D01*
X88979238Y-105144333D01*
X88884000Y-105239571D01*
X88836381Y-105382429D01*
X88836381Y-105477667D01*
X88884000Y-105620524D01*
X88931619Y-105668143D01*
X89836381Y-106620524D02*
X89836381Y-106049095D01*
X89836381Y-106334809D02*
X88836381Y-106334809D01*
X88979238Y-106239571D01*
X89074476Y-106144333D01*
X89122095Y-106049095D01*
X88836381Y-107239571D02*
X88836381Y-107334810D01*
X88884000Y-107430048D01*
X88931619Y-107477667D01*
X89026857Y-107525286D01*
X89217333Y-107572905D01*
X89455429Y-107572905D01*
X89645905Y-107525286D01*
X89741143Y-107477667D01*
X89788762Y-107430048D01*
X89836381Y-107334810D01*
X89836381Y-107239571D01*
X89788762Y-107144333D01*
X89741143Y-107096714D01*
X89645905Y-107049095D01*
X89455429Y-107001476D01*
X89217333Y-107001476D01*
X89026857Y-107049095D01*
X88931619Y-107096714D01*
X88884000Y-107144333D01*
X88836381Y-107239571D01*
X86082143Y-103370143D02*
X86129762Y-103322524D01*
X86177381Y-103179667D01*
X86177381Y-103084429D01*
X86129762Y-102941571D01*
X86034524Y-102846333D01*
X85939286Y-102798714D01*
X85748810Y-102751095D01*
X85605952Y-102751095D01*
X85415476Y-102798714D01*
X85320238Y-102846333D01*
X85225000Y-102941571D01*
X85177381Y-103084429D01*
X85177381Y-103179667D01*
X85225000Y-103322524D01*
X85272619Y-103370143D01*
X86177381Y-104322524D02*
X86177381Y-103751095D01*
X86177381Y-104036809D02*
X85177381Y-104036809D01*
X85320238Y-103941571D01*
X85415476Y-103846333D01*
X85463095Y-103751095D01*
X86177381Y-105274905D02*
X86177381Y-104703476D01*
X86177381Y-104989190D02*
X85177381Y-104989190D01*
X85320238Y-104893952D01*
X85415476Y-104798714D01*
X85463095Y-104703476D01*
X95511857Y-120729143D02*
X95559476Y-120776762D01*
X95702333Y-120824381D01*
X95797571Y-120824381D01*
X95940429Y-120776762D01*
X96035667Y-120681524D01*
X96083286Y-120586286D01*
X96130905Y-120395810D01*
X96130905Y-120252952D01*
X96083286Y-120062476D01*
X96035667Y-119967238D01*
X95940429Y-119872000D01*
X95797571Y-119824381D01*
X95702333Y-119824381D01*
X95559476Y-119872000D01*
X95511857Y-119919619D01*
X94559476Y-120824381D02*
X95130905Y-120824381D01*
X94845191Y-120824381D02*
X94845191Y-119824381D01*
X94940429Y-119967238D01*
X95035667Y-120062476D01*
X95130905Y-120110095D01*
X94178524Y-119919619D02*
X94130905Y-119872000D01*
X94035667Y-119824381D01*
X93797571Y-119824381D01*
X93702333Y-119872000D01*
X93654714Y-119919619D01*
X93607095Y-120014857D01*
X93607095Y-120110095D01*
X93654714Y-120252952D01*
X94226143Y-120824381D01*
X93607095Y-120824381D01*
X88780857Y-123142143D02*
X88828476Y-123189762D01*
X88971333Y-123237381D01*
X89066571Y-123237381D01*
X89209429Y-123189762D01*
X89304667Y-123094524D01*
X89352286Y-122999286D01*
X89399905Y-122808810D01*
X89399905Y-122665952D01*
X89352286Y-122475476D01*
X89304667Y-122380238D01*
X89209429Y-122285000D01*
X89066571Y-122237381D01*
X88971333Y-122237381D01*
X88828476Y-122285000D01*
X88780857Y-122332619D01*
X87828476Y-123237381D02*
X88399905Y-123237381D01*
X88114191Y-123237381D02*
X88114191Y-122237381D01*
X88209429Y-122380238D01*
X88304667Y-122475476D01*
X88399905Y-122523095D01*
X87495143Y-122237381D02*
X86876095Y-122237381D01*
X87209429Y-122618333D01*
X87066571Y-122618333D01*
X86971333Y-122665952D01*
X86923714Y-122713571D01*
X86876095Y-122808810D01*
X86876095Y-123046905D01*
X86923714Y-123142143D01*
X86971333Y-123189762D01*
X87066571Y-123237381D01*
X87352286Y-123237381D01*
X87447524Y-123189762D01*
X87495143Y-123142143D01*
X78747857Y-119356143D02*
X78795476Y-119403762D01*
X78938333Y-119451381D01*
X79033571Y-119451381D01*
X79176429Y-119403762D01*
X79271667Y-119308524D01*
X79319286Y-119213286D01*
X79366905Y-119022810D01*
X79366905Y-118879952D01*
X79319286Y-118689476D01*
X79271667Y-118594238D01*
X79176429Y-118499000D01*
X79033571Y-118451381D01*
X78938333Y-118451381D01*
X78795476Y-118499000D01*
X78747857Y-118546619D01*
X77795476Y-119451381D02*
X78366905Y-119451381D01*
X78081191Y-119451381D02*
X78081191Y-118451381D01*
X78176429Y-118594238D01*
X78271667Y-118689476D01*
X78366905Y-118737095D01*
X76938333Y-118784714D02*
X76938333Y-119451381D01*
X77176429Y-118403762D02*
X77414524Y-119118048D01*
X76795476Y-119118048D01*
X76620666Y-116911381D02*
X76954000Y-116435190D01*
X77192095Y-116911381D02*
X77192095Y-115911381D01*
X76811142Y-115911381D01*
X76715904Y-115959000D01*
X76668285Y-116006619D01*
X76620666Y-116101857D01*
X76620666Y-116244714D01*
X76668285Y-116339952D01*
X76715904Y-116387571D01*
X76811142Y-116435190D01*
X77192095Y-116435190D01*
X76239714Y-116006619D02*
X76192095Y-115959000D01*
X76096857Y-115911381D01*
X75858761Y-115911381D01*
X75763523Y-115959000D01*
X75715904Y-116006619D01*
X75668285Y-116101857D01*
X75668285Y-116197095D01*
X75715904Y-116339952D01*
X76287333Y-116911381D01*
X75668285Y-116911381D01*
X84621666Y-122245381D02*
X84955000Y-121769190D01*
X85193095Y-122245381D02*
X85193095Y-121245381D01*
X84812142Y-121245381D01*
X84716904Y-121293000D01*
X84669285Y-121340619D01*
X84621666Y-121435857D01*
X84621666Y-121578714D01*
X84669285Y-121673952D01*
X84716904Y-121721571D01*
X84812142Y-121769190D01*
X85193095Y-121769190D01*
X84050238Y-121673952D02*
X84145476Y-121626333D01*
X84193095Y-121578714D01*
X84240714Y-121483476D01*
X84240714Y-121435857D01*
X84193095Y-121340619D01*
X84145476Y-121293000D01*
X84050238Y-121245381D01*
X83859761Y-121245381D01*
X83764523Y-121293000D01*
X83716904Y-121340619D01*
X83669285Y-121435857D01*
X83669285Y-121483476D01*
X83716904Y-121578714D01*
X83764523Y-121626333D01*
X83859761Y-121673952D01*
X84050238Y-121673952D01*
X84145476Y-121721571D01*
X84193095Y-121769190D01*
X84240714Y-121864429D01*
X84240714Y-122054905D01*
X84193095Y-122150143D01*
X84145476Y-122197762D01*
X84050238Y-122245381D01*
X83859761Y-122245381D01*
X83764523Y-122197762D01*
X83716904Y-122150143D01*
X83669285Y-122054905D01*
X83669285Y-121864429D01*
X83716904Y-121769190D01*
X83764523Y-121721571D01*
X83859761Y-121673952D01*
X82168905Y-117054381D02*
X82168905Y-117863905D01*
X82121286Y-117959143D01*
X82073667Y-118006762D01*
X81978429Y-118054381D01*
X81787952Y-118054381D01*
X81692714Y-118006762D01*
X81645095Y-117959143D01*
X81597476Y-117863905D01*
X81597476Y-117054381D01*
X80692714Y-117387714D02*
X80692714Y-118054381D01*
X80930810Y-117006762D02*
X81168905Y-117721048D01*
X80549857Y-117721048D01*
X78692143Y-77938334D02*
X78739762Y-77890715D01*
X78787381Y-77747858D01*
X78787381Y-77652620D01*
X78739762Y-77509762D01*
X78644524Y-77414524D01*
X78549286Y-77366905D01*
X78358810Y-77319286D01*
X78215952Y-77319286D01*
X78025476Y-77366905D01*
X77930238Y-77414524D01*
X77835000Y-77509762D01*
X77787381Y-77652620D01*
X77787381Y-77747858D01*
X77835000Y-77890715D01*
X77882619Y-77938334D01*
X78787381Y-78890715D02*
X78787381Y-78319286D01*
X78787381Y-78605000D02*
X77787381Y-78605000D01*
X77930238Y-78509762D01*
X78025476Y-78414524D01*
X78073095Y-78319286D01*
X79581143Y-85050334D02*
X79628762Y-85002715D01*
X79676381Y-84859858D01*
X79676381Y-84764620D01*
X79628762Y-84621762D01*
X79533524Y-84526524D01*
X79438286Y-84478905D01*
X79247810Y-84431286D01*
X79104952Y-84431286D01*
X78914476Y-84478905D01*
X78819238Y-84526524D01*
X78724000Y-84621762D01*
X78676381Y-84764620D01*
X78676381Y-84859858D01*
X78724000Y-85002715D01*
X78771619Y-85050334D01*
X78771619Y-85431286D02*
X78724000Y-85478905D01*
X78676381Y-85574143D01*
X78676381Y-85812239D01*
X78724000Y-85907477D01*
X78771619Y-85955096D01*
X78866857Y-86002715D01*
X78962095Y-86002715D01*
X79104952Y-85955096D01*
X79676381Y-85383667D01*
X79676381Y-86002715D01*
X83669143Y-91654334D02*
X83716762Y-91606715D01*
X83764381Y-91463858D01*
X83764381Y-91368620D01*
X83716762Y-91225762D01*
X83621524Y-91130524D01*
X83526286Y-91082905D01*
X83335810Y-91035286D01*
X83192952Y-91035286D01*
X83002476Y-91082905D01*
X82907238Y-91130524D01*
X82812000Y-91225762D01*
X82764381Y-91368620D01*
X82764381Y-91463858D01*
X82812000Y-91606715D01*
X82859619Y-91654334D01*
X82764381Y-91987667D02*
X82764381Y-92606715D01*
X83145333Y-92273381D01*
X83145333Y-92416239D01*
X83192952Y-92511477D01*
X83240571Y-92559096D01*
X83335810Y-92606715D01*
X83573905Y-92606715D01*
X83669143Y-92559096D01*
X83716762Y-92511477D01*
X83764381Y-92416239D01*
X83764381Y-92130524D01*
X83716762Y-92035286D01*
X83669143Y-91987667D01*
X77763666Y-100282143D02*
X77811285Y-100329762D01*
X77954142Y-100377381D01*
X78049380Y-100377381D01*
X78192238Y-100329762D01*
X78287476Y-100234524D01*
X78335095Y-100139286D01*
X78382714Y-99948810D01*
X78382714Y-99805952D01*
X78335095Y-99615476D01*
X78287476Y-99520238D01*
X78192238Y-99425000D01*
X78049380Y-99377381D01*
X77954142Y-99377381D01*
X77811285Y-99425000D01*
X77763666Y-99472619D01*
X76906523Y-99710714D02*
X76906523Y-100377381D01*
X77144619Y-99329762D02*
X77382714Y-100044048D01*
X76763666Y-100044048D01*
X74271143Y-85050334D02*
X74318762Y-85002715D01*
X74366381Y-84859858D01*
X74366381Y-84764620D01*
X74318762Y-84621762D01*
X74223524Y-84526524D01*
X74128286Y-84478905D01*
X73937810Y-84431286D01*
X73794952Y-84431286D01*
X73604476Y-84478905D01*
X73509238Y-84526524D01*
X73414000Y-84621762D01*
X73366381Y-84764620D01*
X73366381Y-84859858D01*
X73414000Y-85002715D01*
X73461619Y-85050334D01*
X73366381Y-85907477D02*
X73366381Y-85717000D01*
X73414000Y-85621762D01*
X73461619Y-85574143D01*
X73604476Y-85478905D01*
X73794952Y-85431286D01*
X74175905Y-85431286D01*
X74271143Y-85478905D01*
X74318762Y-85526524D01*
X74366381Y-85621762D01*
X74366381Y-85812239D01*
X74318762Y-85907477D01*
X74271143Y-85955096D01*
X74175905Y-86002715D01*
X73937810Y-86002715D01*
X73842571Y-85955096D01*
X73794952Y-85907477D01*
X73747333Y-85812239D01*
X73747333Y-85621762D01*
X73794952Y-85526524D01*
X73842571Y-85478905D01*
X73937810Y-85431286D01*
X68746666Y-88336381D02*
X69080000Y-87860190D01*
X69318095Y-88336381D02*
X69318095Y-87336381D01*
X68937142Y-87336381D01*
X68841904Y-87384000D01*
X68794285Y-87431619D01*
X68746666Y-87526857D01*
X68746666Y-87669714D01*
X68794285Y-87764952D01*
X68841904Y-87812571D01*
X68937142Y-87860190D01*
X69318095Y-87860190D01*
X67794285Y-88336381D02*
X68365714Y-88336381D01*
X68080000Y-88336381D02*
X68080000Y-87336381D01*
X68175238Y-87479238D01*
X68270476Y-87574476D01*
X68365714Y-87622095D01*
X78096155Y-87040131D02*
X78096155Y-87849655D01*
X78048536Y-87944893D01*
X78000917Y-87992512D01*
X77905679Y-88040131D01*
X77715202Y-88040131D01*
X77619964Y-87992512D01*
X77572345Y-87944893D01*
X77524726Y-87849655D01*
X77524726Y-87040131D01*
X76524726Y-88040131D02*
X77096155Y-88040131D01*
X76810441Y-88040131D02*
X76810441Y-87040131D01*
X76905679Y-87182988D01*
X77000917Y-87278226D01*
X77096155Y-87325845D01*
X74167905Y-79970381D02*
X74167905Y-80779905D01*
X74120286Y-80875143D01*
X74072667Y-80922762D01*
X73977429Y-80970381D01*
X73786952Y-80970381D01*
X73691714Y-80922762D01*
X73644095Y-80875143D01*
X73596476Y-80779905D01*
X73596476Y-79970381D01*
X73167905Y-80065619D02*
X73120286Y-80018000D01*
X73025048Y-79970381D01*
X72786952Y-79970381D01*
X72691714Y-80018000D01*
X72644095Y-80065619D01*
X72596476Y-80160857D01*
X72596476Y-80256095D01*
X72644095Y-80398952D01*
X73215524Y-80970381D01*
X72596476Y-80970381D01*
X67905095Y-55078381D02*
X67905095Y-55887905D01*
X67857476Y-55983143D01*
X67809857Y-56030762D01*
X67714619Y-56078381D01*
X67524142Y-56078381D01*
X67428904Y-56030762D01*
X67381285Y-55983143D01*
X67333666Y-55887905D01*
X67333666Y-55078381D01*
X66905095Y-56030762D02*
X66762238Y-56078381D01*
X66524142Y-56078381D01*
X66428904Y-56030762D01*
X66381285Y-55983143D01*
X66333666Y-55887905D01*
X66333666Y-55792667D01*
X66381285Y-55697429D01*
X66428904Y-55649810D01*
X66524142Y-55602190D01*
X66714619Y-55554571D01*
X66809857Y-55506952D01*
X66857476Y-55459333D01*
X66905095Y-55364095D01*
X66905095Y-55268857D01*
X66857476Y-55173619D01*
X66809857Y-55126000D01*
X66714619Y-55078381D01*
X66476523Y-55078381D01*
X66333666Y-55126000D01*
X65571761Y-55554571D02*
X65428904Y-55602190D01*
X65381285Y-55649810D01*
X65333666Y-55745048D01*
X65333666Y-55887905D01*
X65381285Y-55983143D01*
X65428904Y-56030762D01*
X65524142Y-56078381D01*
X65905095Y-56078381D01*
X65905095Y-55078381D01*
X65571761Y-55078381D01*
X65476523Y-55126000D01*
X65428904Y-55173619D01*
X65381285Y-55268857D01*
X65381285Y-55364095D01*
X65428904Y-55459333D01*
X65476523Y-55506952D01*
X65571761Y-55554571D01*
X65905095Y-55554571D01*
X64381285Y-56078381D02*
X64952714Y-56078381D01*
X64667000Y-56078381D02*
X64667000Y-55078381D01*
X64762238Y-55221238D01*
X64857476Y-55316476D01*
X64952714Y-55364095D01*
X58443762Y-113760417D02*
X58491381Y-113903274D01*
X58491381Y-114141370D01*
X58443762Y-114236608D01*
X58396143Y-114284227D01*
X58300905Y-114331846D01*
X58205667Y-114331846D01*
X58110429Y-114284227D01*
X58062810Y-114236608D01*
X58015190Y-114141370D01*
X57967571Y-113950893D01*
X57919952Y-113855655D01*
X57872333Y-113808036D01*
X57777095Y-113760417D01*
X57681857Y-113760417D01*
X57586619Y-113808036D01*
X57539000Y-113855655D01*
X57491381Y-113950893D01*
X57491381Y-114188989D01*
X57539000Y-114331846D01*
X57491381Y-114665179D02*
X58491381Y-114903274D01*
X57777095Y-115093751D01*
X58491381Y-115284227D01*
X57491381Y-115522322D01*
X58491381Y-116427084D02*
X58491381Y-115855655D01*
X58491381Y-116141369D02*
X57491381Y-116141369D01*
X57634238Y-116046131D01*
X57729476Y-115950893D01*
X57777095Y-115855655D01*
M02*
