G04 #@! TF.FileFunction,Soldermask,Bot*
%FSLAX46Y46*%
G04 Gerber Fmt 4.6, Leading zero omitted, Abs format (unit mm)*
G04 Created by KiCad (PCBNEW 4.0.7) date 05/29/18 00:54:01*
%MOMM*%
%LPD*%
G01*
G04 APERTURE LIST*
%ADD10C,0.100000*%
%ADD11C,0.200000*%
%ADD12R,0.908000X0.908000*%
%ADD13R,1.100000X1.000000*%
%ADD14R,1.100000X1.400000*%
%ADD15R,1.700000X1.100000*%
%ADD16R,1.600000X1.300000*%
%ADD17C,1.184860*%
%ADD18C,1.388060*%
%ADD19C,1.385520*%
%ADD20C,1.924000*%
%ADD21R,1.924000X1.924000*%
%ADD22R,1.300000X1.200000*%
%ADD23R,1.500000X2.200000*%
%ADD24C,6.400000*%
%ADD25C,1.400000*%
%ADD26C,1.050000*%
%ADD27R,0.700000X1.850000*%
%ADD28R,1.000000X1.850000*%
%ADD29R,1.900000X0.950000*%
%ADD30R,0.950000X1.900000*%
%ADD31C,2.650000*%
%ADD32C,2.650000*%
%ADD33C,4.387800*%
%ADD34C,2.150000*%
%ADD35C,3.448000*%
%ADD36R,1.650000X1.400000*%
%ADD37R,1.400000X1.650000*%
%ADD38R,1.100000X1.700000*%
G04 APERTURE END LIST*
D10*
D11*
X78215428Y-138299857D02*
X77986857Y-139099857D01*
X77758286Y-138528429D01*
X77529714Y-139099857D01*
X77301143Y-138299857D01*
X76958285Y-138299857D02*
X76729714Y-139099857D01*
X76501143Y-138528429D01*
X76272571Y-139099857D01*
X76044000Y-138299857D01*
X75701142Y-138299857D02*
X75472571Y-139099857D01*
X75244000Y-138528429D01*
X75015428Y-139099857D01*
X74786857Y-138299857D01*
X74329714Y-138985571D02*
X74272571Y-139042714D01*
X74329714Y-139099857D01*
X74386857Y-139042714D01*
X74329714Y-138985571D01*
X74329714Y-139099857D01*
X73243999Y-139099857D02*
X73243999Y-138471286D01*
X73301142Y-138357000D01*
X73415428Y-138299857D01*
X73643999Y-138299857D01*
X73758285Y-138357000D01*
X73243999Y-139042714D02*
X73358285Y-139099857D01*
X73643999Y-139099857D01*
X73758285Y-139042714D01*
X73815428Y-138928429D01*
X73815428Y-138814143D01*
X73758285Y-138699857D01*
X73643999Y-138642714D01*
X73358285Y-138642714D01*
X73243999Y-138585571D01*
X72672571Y-139099857D02*
X72672571Y-138299857D01*
X72672571Y-137899857D02*
X72729714Y-137957000D01*
X72672571Y-138014143D01*
X72615428Y-137957000D01*
X72672571Y-137899857D01*
X72672571Y-138014143D01*
X71872570Y-137899857D02*
X71758285Y-137899857D01*
X71643999Y-137957000D01*
X71586856Y-138014143D01*
X71529713Y-138128429D01*
X71472570Y-138357000D01*
X71472570Y-138642714D01*
X71529713Y-138871286D01*
X71586856Y-138985571D01*
X71643999Y-139042714D01*
X71758285Y-139099857D01*
X71872570Y-139099857D01*
X71986856Y-139042714D01*
X72043999Y-138985571D01*
X72101142Y-138871286D01*
X72158285Y-138642714D01*
X72158285Y-138357000D01*
X72101142Y-138128429D01*
X72043999Y-138014143D01*
X71986856Y-137957000D01*
X71872570Y-137899857D01*
X71072570Y-137899857D02*
X70329713Y-137899857D01*
X70729713Y-138357000D01*
X70558285Y-138357000D01*
X70443999Y-138414143D01*
X70386856Y-138471286D01*
X70329713Y-138585571D01*
X70329713Y-138871286D01*
X70386856Y-138985571D01*
X70443999Y-139042714D01*
X70558285Y-139099857D01*
X70901142Y-139099857D01*
X71015428Y-139042714D01*
X71072570Y-138985571D01*
X69815428Y-138985571D02*
X69758285Y-139042714D01*
X69815428Y-139099857D01*
X69872571Y-139042714D01*
X69815428Y-138985571D01*
X69815428Y-139099857D01*
X69243999Y-139099857D02*
X69243999Y-138299857D01*
X69243999Y-138414143D02*
X69186856Y-138357000D01*
X69072570Y-138299857D01*
X68901142Y-138299857D01*
X68786856Y-138357000D01*
X68729713Y-138471286D01*
X68729713Y-139099857D01*
X68729713Y-138471286D02*
X68672570Y-138357000D01*
X68558284Y-138299857D01*
X68386856Y-138299857D01*
X68272570Y-138357000D01*
X68215427Y-138471286D01*
X68215427Y-139099857D01*
X67186856Y-139042714D02*
X67301142Y-139099857D01*
X67529713Y-139099857D01*
X67643999Y-139042714D01*
X67701142Y-138928429D01*
X67701142Y-138471286D01*
X67643999Y-138357000D01*
X67529713Y-138299857D01*
X67301142Y-138299857D01*
X67186856Y-138357000D01*
X67129713Y-138471286D01*
X67129713Y-138585571D01*
X67701142Y-138699857D01*
D12*
X52101750Y-122809000D03*
X52609750Y-123825000D03*
X51593750Y-123825000D03*
X50577750Y-123825000D03*
X51085750Y-122809000D03*
X51593750Y-121793000D03*
X53117750Y-124841000D03*
X50069750Y-124841000D03*
D13*
X65294000Y-60005000D03*
X67294000Y-60005000D03*
X65294000Y-58105000D03*
D14*
X67294000Y-58305000D03*
D15*
X62230000Y-62418000D03*
X62230000Y-60518000D03*
D16*
X259556250Y-115950000D03*
X259556250Y-112650000D03*
X240506250Y-115950000D03*
X240506250Y-112650000D03*
X221456250Y-115950000D03*
X221456250Y-112650000D03*
X202406250Y-115950000D03*
X202406250Y-112650000D03*
X183356250Y-115950000D03*
X183356250Y-112650000D03*
X164306250Y-115950000D03*
X164306250Y-112650000D03*
X145256250Y-115950000D03*
X145256250Y-112650000D03*
X126206250Y-115950000D03*
X126206250Y-112650000D03*
X107156250Y-115950000D03*
X107156250Y-112650000D03*
X61118750Y-115950000D03*
X61118750Y-112650000D03*
X319087500Y-96900000D03*
X319087500Y-93600000D03*
X288131250Y-96900000D03*
X288131250Y-93600000D03*
X269081250Y-96900000D03*
X269081250Y-93600000D03*
X250031250Y-96900000D03*
X250031250Y-93600000D03*
X230981250Y-96900000D03*
X230981250Y-93600000D03*
X211931250Y-96900000D03*
X211931250Y-93600000D03*
X192881250Y-96900000D03*
X192881250Y-93600000D03*
X158750000Y-96900000D03*
X158750000Y-93600000D03*
X154781250Y-96900000D03*
X154781250Y-93600000D03*
X135731250Y-96900000D03*
X135731250Y-93600000D03*
X116681250Y-96900000D03*
X116681250Y-93600000D03*
X97631250Y-96900000D03*
X97631250Y-93600000D03*
X52387500Y-96900000D03*
X52387500Y-93600000D03*
X326231250Y-77850000D03*
X326231250Y-74550000D03*
X302418750Y-77850000D03*
X302418750Y-74550000D03*
X283368750Y-77850000D03*
X283368750Y-74550000D03*
X264318750Y-77850000D03*
X264318750Y-74550000D03*
X245268750Y-77850000D03*
X245268750Y-74550000D03*
X226218750Y-77850000D03*
X226218750Y-74550000D03*
X207168750Y-77850000D03*
X207168750Y-74550000D03*
X188118750Y-77850000D03*
X188118750Y-74550000D03*
X169068750Y-77850000D03*
X169068750Y-74550000D03*
X150018750Y-77850000D03*
X150018750Y-74550000D03*
X130968750Y-77850000D03*
X130968750Y-74550000D03*
X111918750Y-77850000D03*
X111918750Y-74550000D03*
X92868750Y-77850000D03*
X92868750Y-74550000D03*
X53578125Y-77850000D03*
X53578125Y-74550000D03*
X330993750Y-58800000D03*
X330993750Y-55500000D03*
X296465625Y-58800000D03*
X296465625Y-55500000D03*
X292893750Y-58800000D03*
X292893750Y-55500000D03*
X273843750Y-58800000D03*
X273843750Y-55500000D03*
X254793750Y-58800000D03*
X254793750Y-55500000D03*
X235743750Y-58800000D03*
X235743750Y-55500000D03*
X216693750Y-58800000D03*
X216693750Y-55500000D03*
X197643750Y-58800000D03*
X197643750Y-55500000D03*
X178593750Y-58800000D03*
X178593750Y-55500000D03*
X159543750Y-58800000D03*
X159543750Y-55500000D03*
X140493750Y-58800000D03*
X140493750Y-55500000D03*
X121443750Y-58800000D03*
X121443750Y-55500000D03*
X102393750Y-58800000D03*
X102393750Y-55500000D03*
X83343750Y-58800000D03*
X83343750Y-55500000D03*
X52387500Y-62371875D03*
X52387500Y-59071875D03*
X334962500Y-58800000D03*
X334962500Y-55500000D03*
X334962500Y-77850000D03*
X334962500Y-74550000D03*
X334962500Y-96900000D03*
X334962500Y-93600000D03*
X279400000Y-115950000D03*
X279400000Y-112650000D03*
X304800000Y-115950000D03*
X304800000Y-112650000D03*
X330993750Y-115950000D03*
X330993750Y-112650000D03*
X334962500Y-115950000D03*
X334962500Y-112650000D03*
X296862500Y-135000000D03*
X296862500Y-131700000D03*
X330993750Y-135000000D03*
X330993750Y-131700000D03*
X334962500Y-135000000D03*
X334962500Y-131700000D03*
X51593750Y-135000000D03*
X51593750Y-131700000D03*
X97631250Y-135000000D03*
X97631250Y-131700000D03*
X121443750Y-135000000D03*
X121443750Y-131700000D03*
X157162500Y-135000000D03*
X157162500Y-131700000D03*
X163512500Y-135000000D03*
X163512500Y-131700000D03*
X203993750Y-135000000D03*
X203993750Y-131700000D03*
D17*
X53340000Y-86995000D03*
X54610000Y-86995000D03*
X53340000Y-84455000D03*
X54610000Y-84455000D03*
D18*
X53975000Y-88265000D03*
D19*
X54991000Y-83185000D03*
X52959000Y-83185000D03*
D20*
X51435000Y-86995000D03*
X56515000Y-86995000D03*
D21*
X51435000Y-84455000D03*
D20*
X56515000Y-84455000D03*
D16*
X200025000Y-135000000D03*
X200025000Y-131700000D03*
X292893750Y-135000000D03*
X292893750Y-131700000D03*
X273843750Y-135000000D03*
X273843750Y-131700000D03*
D22*
X72025000Y-71181000D03*
X72025000Y-69281000D03*
X74025000Y-70231000D03*
D23*
X55825000Y-118193750D03*
X52125000Y-111993750D03*
X52125000Y-118193750D03*
X55825000Y-111993750D03*
D24*
X72622500Y-133340000D03*
D25*
X72622500Y-131590000D03*
X73872500Y-131590000D03*
X71372500Y-131590000D03*
X72622500Y-135090000D03*
X73872500Y-135090000D03*
X71372500Y-135090000D03*
D24*
X72622500Y-76200000D03*
D25*
X72622500Y-74200000D03*
X74122500Y-74700000D03*
X71122500Y-74700000D03*
X72622500Y-78200000D03*
X74122500Y-77700000D03*
X71122500Y-77700000D03*
X74622500Y-76200000D03*
X70622500Y-76200000D03*
D24*
X176212500Y-95250000D03*
D25*
X176212500Y-93500000D03*
X177462500Y-93500000D03*
X174962500Y-93500000D03*
X176212500Y-97000000D03*
X177462500Y-97000000D03*
X174962500Y-97000000D03*
D24*
X235602500Y-133350000D03*
D25*
X235602500Y-131600000D03*
X236852500Y-131600000D03*
X234352500Y-131600000D03*
X235602500Y-135100000D03*
X236852500Y-135100000D03*
X234352500Y-135100000D03*
D24*
X314342500Y-133350000D03*
D25*
X314342500Y-131600000D03*
X315592500Y-131600000D03*
X313092500Y-131600000D03*
X314342500Y-135100000D03*
X315592500Y-135100000D03*
X313092500Y-135100000D03*
D24*
X308072500Y-76200000D03*
D25*
X308072500Y-74450000D03*
X309322500Y-74450000D03*
X306822500Y-74450000D03*
X308072500Y-77950000D03*
X309322500Y-77950000D03*
X306822500Y-77950000D03*
D24*
X128587500Y-133350000D03*
D25*
X128587500Y-131350000D03*
X130087500Y-131850000D03*
X127087500Y-131850000D03*
X128587500Y-135350000D03*
X130087500Y-134850000D03*
X127087500Y-134850000D03*
X130587500Y-133350000D03*
X126587500Y-133350000D03*
D24*
X157956250Y-66675000D03*
D25*
X157956250Y-64675000D03*
X159456250Y-65175000D03*
X156456250Y-65175000D03*
X157956250Y-68675000D03*
X159456250Y-68175000D03*
X156456250Y-68175000D03*
X159956250Y-66675000D03*
X155956250Y-66675000D03*
D24*
X253206250Y-66675000D03*
D25*
X253206250Y-64675000D03*
X254706250Y-65175000D03*
X251706250Y-65175000D03*
X253206250Y-68675000D03*
X254706250Y-68175000D03*
X251706250Y-68175000D03*
X255206250Y-66675000D03*
X251206250Y-66675000D03*
D26*
X63347600Y-52250000D03*
X69127600Y-52250000D03*
D27*
X65987600Y-53695000D03*
X66487600Y-53695000D03*
X66987600Y-53695000D03*
X65487600Y-53695000D03*
X67487600Y-53695000D03*
X64987600Y-53695000D03*
X67987600Y-53695000D03*
X64487600Y-53695000D03*
D28*
X63787600Y-53695000D03*
X68687600Y-53695000D03*
X63012600Y-53695000D03*
X69462600Y-53695000D03*
D29*
X83058000Y-87694000D03*
X83058000Y-88494000D03*
X83058000Y-89294000D03*
X83058000Y-90094000D03*
X83058000Y-90894000D03*
X83058000Y-91694000D03*
X83058000Y-92494000D03*
X83058000Y-93294000D03*
X83058000Y-94094000D03*
X83058000Y-94894000D03*
X83058000Y-95694000D03*
D30*
X81358000Y-97394000D03*
X80558000Y-97394000D03*
X79758000Y-97394000D03*
X78958000Y-97394000D03*
X78158000Y-97394000D03*
X77358000Y-97394000D03*
X76558000Y-97394000D03*
X75758000Y-97394000D03*
X74958000Y-97394000D03*
X74158000Y-97394000D03*
X73358000Y-97394000D03*
D29*
X71658000Y-95694000D03*
X71658000Y-94894000D03*
X71658000Y-94094000D03*
X71658000Y-93294000D03*
X71658000Y-92494000D03*
X71658000Y-91694000D03*
X71658000Y-90894000D03*
X71658000Y-90094000D03*
X71658000Y-89294000D03*
X71658000Y-88494000D03*
X71658000Y-87694000D03*
D30*
X73358000Y-85994000D03*
X74158000Y-85994000D03*
X74958000Y-85994000D03*
X75758000Y-85994000D03*
X76558000Y-85994000D03*
X77358000Y-85994000D03*
X78158000Y-85994000D03*
X78958000Y-85994000D03*
X79758000Y-85994000D03*
X80558000Y-85994000D03*
X81358000Y-85994000D03*
D31*
X250150000Y-52650000D02*
X250190000Y-52070000D01*
D32*
X250190000Y-52070000D03*
D31*
X243840000Y-54610000D02*
X245150002Y-53150000D01*
D33*
X247650000Y-57150000D03*
D32*
X245150000Y-53150000D03*
D34*
X242570000Y-57150000D03*
X252730000Y-57150000D03*
D31*
X78700000Y-52650000D02*
X78740000Y-52070000D01*
D32*
X78740000Y-52070000D03*
D31*
X72390000Y-54610000D02*
X73700002Y-53150000D01*
D33*
X76200000Y-57150000D03*
D32*
X73700000Y-53150000D03*
D34*
X71120000Y-57150000D03*
X81280000Y-57150000D03*
D31*
X97750000Y-52650000D02*
X97790000Y-52070000D01*
D32*
X97790000Y-52070000D03*
D31*
X91440000Y-54610000D02*
X92750002Y-53150000D01*
D33*
X95250000Y-57150000D03*
D32*
X92750000Y-53150000D03*
D34*
X90170000Y-57150000D03*
X100330000Y-57150000D03*
D31*
X116800000Y-52650000D02*
X116840000Y-52070000D01*
D32*
X116840000Y-52070000D03*
D31*
X110490000Y-54610000D02*
X111800002Y-53150000D01*
D33*
X114300000Y-57150000D03*
D32*
X111800000Y-53150000D03*
D34*
X109220000Y-57150000D03*
X119380000Y-57150000D03*
D31*
X135850000Y-52650000D02*
X135890000Y-52070000D01*
D32*
X135890000Y-52070000D03*
D31*
X129540000Y-54610000D02*
X130850002Y-53150000D01*
D33*
X133350000Y-57150000D03*
D32*
X130850000Y-53150000D03*
D34*
X128270000Y-57150000D03*
X138430000Y-57150000D03*
D31*
X154900000Y-52650000D02*
X154940000Y-52070000D01*
D32*
X154940000Y-52070000D03*
D31*
X148590000Y-54610000D02*
X149900002Y-53150000D01*
D33*
X152400000Y-57150000D03*
D32*
X149900000Y-53150000D03*
D34*
X147320000Y-57150000D03*
X157480000Y-57150000D03*
D31*
X173950000Y-52650000D02*
X173990000Y-52070000D01*
D32*
X173990000Y-52070000D03*
D31*
X167640000Y-54610000D02*
X168950002Y-53150000D01*
D33*
X171450000Y-57150000D03*
D32*
X168950000Y-53150000D03*
D34*
X166370000Y-57150000D03*
X176530000Y-57150000D03*
D31*
X193000000Y-52650000D02*
X193040000Y-52070000D01*
D32*
X193040000Y-52070000D03*
D31*
X186690000Y-54610000D02*
X188000002Y-53150000D01*
D33*
X190500000Y-57150000D03*
D32*
X188000000Y-53150000D03*
D34*
X185420000Y-57150000D03*
X195580000Y-57150000D03*
D31*
X212050000Y-52650000D02*
X212090000Y-52070000D01*
D32*
X212090000Y-52070000D03*
D31*
X205740000Y-54610000D02*
X207050002Y-53150000D01*
D33*
X209550000Y-57150000D03*
D32*
X207050000Y-53150000D03*
D34*
X204470000Y-57150000D03*
X214630000Y-57150000D03*
D31*
X231100000Y-52650000D02*
X231140000Y-52070000D01*
D32*
X231140000Y-52070000D03*
D31*
X224790000Y-54610000D02*
X226100002Y-53150000D01*
D33*
X228600000Y-57150000D03*
D32*
X226100000Y-53150000D03*
D34*
X223520000Y-57150000D03*
X233680000Y-57150000D03*
D31*
X283487500Y-90750000D02*
X283527500Y-90170000D01*
D32*
X283527500Y-90170000D03*
D31*
X277177500Y-92710000D02*
X278487502Y-91250000D01*
D33*
X280987500Y-95250000D03*
D32*
X278487500Y-91250000D03*
D34*
X275907500Y-95250000D03*
X286067500Y-95250000D03*
D31*
X235862500Y-109800000D02*
X235902500Y-109220000D01*
D32*
X235902500Y-109220000D03*
D31*
X229552500Y-111760000D02*
X230862502Y-110300000D01*
D33*
X233362500Y-114300000D03*
D32*
X230862500Y-110300000D03*
D34*
X228282500Y-114300000D03*
X238442500Y-114300000D03*
D31*
X269200000Y-52650000D02*
X269240000Y-52070000D01*
D32*
X269240000Y-52070000D03*
D31*
X262890000Y-54610000D02*
X264200002Y-53150000D01*
D33*
X266700000Y-57150000D03*
D32*
X264200000Y-53150000D03*
D34*
X261620000Y-57150000D03*
X271780000Y-57150000D03*
D31*
X254912500Y-109800000D02*
X254952500Y-109220000D01*
D32*
X254952500Y-109220000D03*
D31*
X248602500Y-111760000D02*
X249912502Y-110300000D01*
D33*
X252412500Y-114300000D03*
D32*
X249912500Y-110300000D03*
D34*
X247332500Y-114300000D03*
X257492500Y-114300000D03*
D31*
X273962500Y-109800000D02*
X274002500Y-109220000D01*
D32*
X274002500Y-109220000D03*
D31*
X267652500Y-111760000D02*
X268962502Y-110300000D01*
D33*
X271462500Y-114300000D03*
D32*
X268962500Y-110300000D03*
D34*
X266382500Y-114300000D03*
X276542500Y-114300000D03*
D31*
X264437500Y-90750000D02*
X264477500Y-90170000D01*
D32*
X264477500Y-90170000D03*
D31*
X258127500Y-92710000D02*
X259437502Y-91250000D01*
D33*
X261937500Y-95250000D03*
D32*
X259437500Y-91250000D03*
D34*
X256857500Y-95250000D03*
X267017500Y-95250000D03*
D31*
X288250000Y-52650000D02*
X288290000Y-52070000D01*
D32*
X288290000Y-52070000D03*
D31*
X281940000Y-54610000D02*
X283250002Y-53150000D01*
D33*
X285750000Y-57150000D03*
D32*
X283250000Y-53150000D03*
D34*
X280670000Y-57150000D03*
X290830000Y-57150000D03*
D31*
X92987500Y-90750000D02*
X93027500Y-90170000D01*
D32*
X93027500Y-90170000D03*
D31*
X86677500Y-92710000D02*
X87987502Y-91250000D01*
D33*
X90487500Y-95250000D03*
D32*
X87987500Y-91250000D03*
D34*
X85407500Y-95250000D03*
X95567500Y-95250000D03*
D31*
X178712500Y-109800000D02*
X178752500Y-109220000D01*
D32*
X178752500Y-109220000D03*
D31*
X172402500Y-111760000D02*
X173712502Y-110300000D01*
D33*
X176212500Y-114300000D03*
D32*
X173712500Y-110300000D03*
D34*
X171132500Y-114300000D03*
X181292500Y-114300000D03*
D31*
X316825000Y-52650000D02*
X316865000Y-52070000D01*
D32*
X316865000Y-52070000D03*
D31*
X310515000Y-54610000D02*
X311825002Y-53150000D01*
D33*
X314325000Y-57150000D03*
D32*
X311825000Y-53150000D03*
D34*
X309245000Y-57150000D03*
X319405000Y-57150000D03*
D35*
X302387000Y-50165000D03*
X326263000Y-50165000D03*
D33*
X302387000Y-65405000D03*
X326263000Y-65405000D03*
D31*
X326350000Y-52650000D02*
X326390000Y-52070000D01*
D32*
X326390000Y-52070000D03*
D31*
X320040000Y-54610000D02*
X321350002Y-53150000D01*
D33*
X323850000Y-57150000D03*
D32*
X321350000Y-53150000D03*
D34*
X318770000Y-57150000D03*
X328930000Y-57150000D03*
D31*
X140612500Y-109800000D02*
X140652500Y-109220000D01*
D32*
X140652500Y-109220000D03*
D31*
X134302500Y-111760000D02*
X135612502Y-110300000D01*
D33*
X138112500Y-114300000D03*
D32*
X135612500Y-110300000D03*
D34*
X133032500Y-114300000D03*
X143192500Y-114300000D03*
D31*
X66793750Y-90750000D02*
X66833750Y-90170000D01*
D32*
X66833750Y-90170000D03*
D31*
X60483750Y-92710000D02*
X61793752Y-91250000D01*
D33*
X64293750Y-95250000D03*
D32*
X61793750Y-91250000D03*
D34*
X59213750Y-95250000D03*
X69373750Y-95250000D03*
D31*
X62031250Y-90750000D02*
X62071250Y-90170000D01*
D32*
X62071250Y-90170000D03*
D31*
X55721250Y-92710000D02*
X57031252Y-91250000D01*
D33*
X59531250Y-95250000D03*
D32*
X57031250Y-91250000D03*
D34*
X54451250Y-95250000D03*
X64611250Y-95250000D03*
D31*
X131087500Y-90750000D02*
X131127500Y-90170000D01*
D32*
X131127500Y-90170000D03*
D31*
X124777500Y-92710000D02*
X126087502Y-91250000D01*
D33*
X128587500Y-95250000D03*
D32*
X126087500Y-91250000D03*
D34*
X123507500Y-95250000D03*
X133667500Y-95250000D03*
D31*
X307300000Y-52650000D02*
X307340000Y-52070000D01*
D32*
X307340000Y-52070000D03*
D31*
X300990000Y-54610000D02*
X302300002Y-53150000D01*
D33*
X304800000Y-57150000D03*
D32*
X302300000Y-53150000D03*
D34*
X299720000Y-57150000D03*
X309880000Y-57150000D03*
D31*
X326350000Y-128850000D02*
X326390000Y-128270000D01*
D32*
X326390000Y-128270000D03*
D31*
X320040000Y-130810000D02*
X321350002Y-129350000D01*
D33*
X323850000Y-133350000D03*
D32*
X321350000Y-129350000D03*
D34*
X318770000Y-133350000D03*
X328930000Y-133350000D03*
D31*
X126325000Y-71700000D02*
X126365000Y-71120000D01*
D32*
X126365000Y-71120000D03*
D31*
X120015000Y-73660000D02*
X121325002Y-72200000D01*
D33*
X123825000Y-76200000D03*
D32*
X121325000Y-72200000D03*
D34*
X118745000Y-76200000D03*
X128905000Y-76200000D03*
D31*
X314443750Y-90750000D02*
X314483750Y-90170000D01*
D32*
X314483750Y-90170000D03*
D31*
X308133750Y-92710000D02*
X309443752Y-91250000D01*
D33*
X311943750Y-95250000D03*
D32*
X309443750Y-91250000D03*
D34*
X306863750Y-95250000D03*
X317023750Y-95250000D03*
D35*
X300005750Y-88265000D03*
X323881750Y-88265000D03*
D33*
X300005750Y-103505000D03*
X323881750Y-103505000D03*
D31*
X59650000Y-52650000D02*
X59690000Y-52070000D01*
D32*
X59690000Y-52070000D03*
D31*
X53340000Y-54610000D02*
X54650002Y-53150000D01*
D33*
X57150000Y-57150000D03*
D32*
X54650000Y-53150000D03*
D34*
X52070000Y-57150000D03*
X62230000Y-57150000D03*
D31*
X345400000Y-52650000D02*
X345440000Y-52070000D01*
D32*
X345440000Y-52070000D03*
D31*
X339090000Y-54610000D02*
X340400002Y-53150000D01*
D33*
X342900000Y-57150000D03*
D32*
X340400000Y-53150000D03*
D34*
X337820000Y-57150000D03*
X347980000Y-57150000D03*
D31*
X345400000Y-71700000D02*
X345440000Y-71120000D01*
D32*
X345440000Y-71120000D03*
D31*
X339090000Y-73660000D02*
X340400002Y-72200000D01*
D33*
X342900000Y-76200000D03*
D32*
X340400000Y-72200000D03*
D34*
X337820000Y-76200000D03*
X347980000Y-76200000D03*
D31*
X345400000Y-90750000D02*
X345440000Y-90170000D01*
D32*
X345440000Y-90170000D03*
D31*
X339090000Y-92710000D02*
X340400002Y-91250000D01*
D33*
X342900000Y-95250000D03*
D32*
X340400000Y-91250000D03*
D34*
X337820000Y-95250000D03*
X347980000Y-95250000D03*
D31*
X345400000Y-109800000D02*
X345440000Y-109220000D01*
D32*
X345440000Y-109220000D03*
D31*
X339090000Y-111760000D02*
X340400002Y-110300000D01*
D33*
X342900000Y-114300000D03*
D32*
X340400000Y-110300000D03*
D34*
X337820000Y-114300000D03*
X347980000Y-114300000D03*
D31*
X150137500Y-90750000D02*
X150177500Y-90170000D01*
D32*
X150177500Y-90170000D03*
D31*
X143827500Y-92710000D02*
X145137502Y-91250000D01*
D33*
X147637500Y-95250000D03*
D32*
X145137500Y-91250000D03*
D34*
X142557500Y-95250000D03*
X152717500Y-95250000D03*
D31*
X169187500Y-90750000D02*
X169227500Y-90170000D01*
D32*
X169227500Y-90170000D03*
D31*
X162877500Y-92710000D02*
X164187502Y-91250000D01*
D33*
X166687500Y-95250000D03*
D32*
X164187500Y-91250000D03*
D34*
X161607500Y-95250000D03*
X171767500Y-95250000D03*
D31*
X188237500Y-90750000D02*
X188277500Y-90170000D01*
D32*
X188277500Y-90170000D03*
D31*
X181927500Y-92710000D02*
X183237502Y-91250000D01*
D33*
X185737500Y-95250000D03*
D32*
X183237500Y-91250000D03*
D34*
X180657500Y-95250000D03*
X190817500Y-95250000D03*
D31*
X221575000Y-71700000D02*
X221615000Y-71120000D01*
D32*
X221615000Y-71120000D03*
D31*
X215265000Y-73660000D02*
X216575002Y-72200000D01*
D33*
X219075000Y-76200000D03*
D32*
X216575000Y-72200000D03*
D34*
X213995000Y-76200000D03*
X224155000Y-76200000D03*
D31*
X207287500Y-90750000D02*
X207327500Y-90170000D01*
D32*
X207327500Y-90170000D03*
D31*
X200977500Y-92710000D02*
X202287502Y-91250000D01*
D33*
X204787500Y-95250000D03*
D32*
X202287500Y-91250000D03*
D34*
X199707500Y-95250000D03*
X209867500Y-95250000D03*
D31*
X226337500Y-90750000D02*
X226377500Y-90170000D01*
D32*
X226377500Y-90170000D03*
D31*
X220027500Y-92710000D02*
X221337502Y-91250000D01*
D33*
X223837500Y-95250000D03*
D32*
X221337500Y-91250000D03*
D34*
X218757500Y-95250000D03*
X228917500Y-95250000D03*
D31*
X245387500Y-90750000D02*
X245427500Y-90170000D01*
D32*
X245427500Y-90170000D03*
D31*
X239077500Y-92710000D02*
X240387502Y-91250000D01*
D33*
X242887500Y-95250000D03*
D32*
X240387500Y-91250000D03*
D34*
X237807500Y-95250000D03*
X247967500Y-95250000D03*
D31*
X307300000Y-128850000D02*
X307340000Y-128270000D01*
D32*
X307340000Y-128270000D03*
D31*
X300990000Y-130810000D02*
X302300002Y-129350000D01*
D33*
X304800000Y-133350000D03*
D32*
X302300000Y-129350000D03*
D34*
X299720000Y-133350000D03*
X309880000Y-133350000D03*
D31*
X64412500Y-128850000D02*
X64452500Y-128270000D01*
D32*
X64452500Y-128270000D03*
D31*
X58102500Y-130810000D02*
X59412502Y-129350000D01*
D33*
X61912500Y-133350000D03*
D32*
X59412500Y-129350000D03*
D34*
X56832500Y-133350000D03*
X66992500Y-133350000D03*
D31*
X62031250Y-128850000D02*
X62071250Y-128270000D01*
D32*
X62071250Y-128270000D03*
D31*
X55721250Y-130810000D02*
X57031252Y-129350000D01*
D33*
X59531250Y-133350000D03*
D32*
X57031250Y-129350000D03*
D34*
X54451250Y-133350000D03*
X64611250Y-133350000D03*
D31*
X92987500Y-128850000D02*
X93027500Y-128270000D01*
D32*
X93027500Y-128270000D03*
D31*
X86677500Y-130810000D02*
X87987502Y-129350000D01*
D33*
X90487500Y-133350000D03*
D32*
X87987500Y-129350000D03*
D34*
X85407500Y-133350000D03*
X95567500Y-133350000D03*
D31*
X85843750Y-128850000D02*
X85883750Y-128270000D01*
D32*
X85883750Y-128270000D03*
D31*
X79533750Y-130810000D02*
X80843752Y-129350000D01*
D33*
X83343750Y-133350000D03*
D32*
X80843750Y-129350000D03*
D34*
X78263750Y-133350000D03*
X88423750Y-133350000D03*
D31*
X90606250Y-128850000D02*
X90646250Y-128270000D01*
D32*
X90646250Y-128270000D03*
D31*
X84296250Y-130810000D02*
X85606252Y-129350000D01*
D33*
X88106250Y-133350000D03*
D32*
X85606250Y-129350000D03*
D34*
X83026250Y-133350000D03*
X93186250Y-133350000D03*
D31*
X109656250Y-128850000D02*
X109696250Y-128270000D01*
D32*
X109696250Y-128270000D03*
D31*
X103346250Y-130810000D02*
X104656252Y-129350000D01*
D33*
X107156250Y-133350000D03*
D32*
X104656250Y-129350000D03*
D34*
X102076250Y-133350000D03*
X112236250Y-133350000D03*
D31*
X116800000Y-128850000D02*
X116840000Y-128270000D01*
D32*
X116840000Y-128270000D03*
D31*
X110490000Y-130810000D02*
X111800002Y-129350000D01*
D33*
X114300000Y-133350000D03*
D32*
X111800000Y-129350000D03*
D34*
X109220000Y-133350000D03*
X119380000Y-133350000D03*
D31*
X216812500Y-109800000D02*
X216852500Y-109220000D01*
D32*
X216852500Y-109220000D03*
D31*
X210502500Y-111760000D02*
X211812502Y-110300000D01*
D33*
X214312500Y-114300000D03*
D32*
X211812500Y-110300000D03*
D34*
X209232500Y-114300000D03*
X219392500Y-114300000D03*
D31*
X197762500Y-109800000D02*
X197802500Y-109220000D01*
D32*
X197802500Y-109220000D03*
D31*
X191452500Y-111760000D02*
X192762502Y-110300000D01*
D33*
X195262500Y-114300000D03*
D32*
X192762500Y-110300000D03*
D34*
X190182500Y-114300000D03*
X200342500Y-114300000D03*
D31*
X240625000Y-71700000D02*
X240665000Y-71120000D01*
D32*
X240665000Y-71120000D03*
D31*
X234315000Y-73660000D02*
X235625002Y-72200000D01*
D33*
X238125000Y-76200000D03*
D32*
X235625000Y-72200000D03*
D34*
X233045000Y-76200000D03*
X243205000Y-76200000D03*
D31*
X259675000Y-71700000D02*
X259715000Y-71120000D01*
D32*
X259715000Y-71120000D03*
D31*
X253365000Y-73660000D02*
X254675002Y-72200000D01*
D33*
X257175000Y-76200000D03*
D32*
X254675000Y-72200000D03*
D34*
X252095000Y-76200000D03*
X262255000Y-76200000D03*
D31*
X88225000Y-71700000D02*
X88265000Y-71120000D01*
D32*
X88265000Y-71120000D03*
D31*
X81915000Y-73660000D02*
X83225002Y-72200000D01*
D33*
X85725000Y-76200000D03*
D32*
X83225000Y-72200000D03*
D34*
X80645000Y-76200000D03*
X90805000Y-76200000D03*
D31*
X145375000Y-71700000D02*
X145415000Y-71120000D01*
D32*
X145415000Y-71120000D03*
D31*
X139065000Y-73660000D02*
X140375002Y-72200000D01*
D33*
X142875000Y-76200000D03*
D32*
X140375000Y-72200000D03*
D34*
X137795000Y-76200000D03*
X147955000Y-76200000D03*
D31*
X345400000Y-128850000D02*
X345440000Y-128270000D01*
D32*
X345440000Y-128270000D03*
D31*
X339090000Y-130810000D02*
X340400002Y-129350000D01*
D33*
X342900000Y-133350000D03*
D32*
X340400000Y-129350000D03*
D34*
X337820000Y-133350000D03*
X347980000Y-133350000D03*
D31*
X250150000Y-128850000D02*
X250190000Y-128270000D01*
D32*
X250190000Y-128270000D03*
D31*
X243840000Y-130810000D02*
X245150002Y-129350000D01*
D33*
X247650000Y-133350000D03*
D32*
X245150000Y-129350000D03*
D34*
X242570000Y-133350000D03*
X252730000Y-133350000D03*
D31*
X254912500Y-128850000D02*
X254952500Y-128270000D01*
D32*
X254952500Y-128270000D03*
D31*
X248602500Y-130810000D02*
X249912502Y-129350000D01*
D33*
X252412500Y-133350000D03*
D32*
X249912500Y-129350000D03*
D34*
X247332500Y-133350000D03*
X257492500Y-133350000D03*
D31*
X266818750Y-128850000D02*
X266858750Y-128270000D01*
D32*
X266858750Y-128270000D03*
D31*
X260508750Y-130810000D02*
X261818752Y-129350000D01*
D33*
X264318750Y-133350000D03*
D32*
X261818750Y-129350000D03*
D34*
X259238750Y-133350000D03*
X269398750Y-133350000D03*
D31*
X269200000Y-128850000D02*
X269240000Y-128270000D01*
D32*
X269240000Y-128270000D03*
D31*
X262890000Y-130810000D02*
X264200002Y-129350000D01*
D33*
X266700000Y-133350000D03*
D32*
X264200000Y-129350000D03*
D34*
X261620000Y-133350000D03*
X271780000Y-133350000D03*
D31*
X283487500Y-128850000D02*
X283527500Y-128270000D01*
D32*
X283527500Y-128270000D03*
D31*
X277177500Y-130810000D02*
X278487502Y-129350000D01*
D33*
X280987500Y-133350000D03*
D32*
X278487500Y-129350000D03*
D34*
X275907500Y-133350000D03*
X286067500Y-133350000D03*
D31*
X288250000Y-128850000D02*
X288290000Y-128270000D01*
D32*
X288290000Y-128270000D03*
D31*
X281940000Y-130810000D02*
X283250002Y-129350000D01*
D33*
X285750000Y-133350000D03*
D32*
X283250000Y-129350000D03*
D34*
X280670000Y-133350000D03*
X290830000Y-133350000D03*
D31*
X112037500Y-90750000D02*
X112077500Y-90170000D01*
D32*
X112077500Y-90170000D03*
D31*
X105727500Y-92710000D02*
X107037502Y-91250000D01*
D33*
X109537500Y-95250000D03*
D32*
X107037500Y-91250000D03*
D34*
X104457500Y-95250000D03*
X114617500Y-95250000D03*
D31*
X71556250Y-109800000D02*
X71596250Y-109220000D01*
D32*
X71596250Y-109220000D03*
D31*
X65246250Y-111760000D02*
X66556252Y-110300000D01*
D33*
X69056250Y-114300000D03*
D32*
X66556250Y-110300000D03*
D34*
X63976250Y-114300000D03*
X74136250Y-114300000D03*
D35*
X57118250Y-107315000D03*
X80994250Y-107315000D03*
D33*
X57118250Y-122555000D03*
X80994250Y-122555000D03*
D31*
X300156250Y-109800000D02*
X300196250Y-109220000D01*
D32*
X300196250Y-109220000D03*
D31*
X293846250Y-111760000D02*
X295156252Y-110300000D01*
D33*
X297656250Y-114300000D03*
D32*
X295156250Y-110300000D03*
D34*
X292576250Y-114300000D03*
X302736250Y-114300000D03*
D31*
X164425000Y-71700000D02*
X164465000Y-71120000D01*
D32*
X164465000Y-71120000D03*
D31*
X158115000Y-73660000D02*
X159425002Y-72200000D01*
D33*
X161925000Y-76200000D03*
D32*
X159425000Y-72200000D03*
D34*
X156845000Y-76200000D03*
X167005000Y-76200000D03*
D31*
X64412500Y-71700000D02*
X64452500Y-71120000D01*
D32*
X64452500Y-71120000D03*
D31*
X58102500Y-73660000D02*
X59412502Y-72200000D01*
D33*
X61912500Y-76200000D03*
D32*
X59412500Y-72200000D03*
D34*
X56832500Y-76200000D03*
X66992500Y-76200000D03*
D31*
X202525000Y-71700000D02*
X202565000Y-71120000D01*
D32*
X202565000Y-71120000D03*
D31*
X196215000Y-73660000D02*
X197525002Y-72200000D01*
D33*
X200025000Y-76200000D03*
D32*
X197525000Y-72200000D03*
D34*
X194945000Y-76200000D03*
X205105000Y-76200000D03*
D31*
X326350000Y-109800000D02*
X326390000Y-109220000D01*
D32*
X326390000Y-109220000D03*
D31*
X320040000Y-111760000D02*
X321350002Y-110300000D01*
D33*
X323850000Y-114300000D03*
D32*
X321350000Y-110300000D03*
D34*
X318770000Y-114300000D03*
X328930000Y-114300000D03*
D31*
X159662500Y-109800000D02*
X159702500Y-109220000D01*
D32*
X159702500Y-109220000D03*
D31*
X153352500Y-111760000D02*
X154662502Y-110300000D01*
D33*
X157162500Y-114300000D03*
D32*
X154662500Y-110300000D03*
D34*
X152082500Y-114300000D03*
X162242500Y-114300000D03*
D31*
X107275000Y-71700000D02*
X107315000Y-71120000D01*
D32*
X107315000Y-71120000D03*
D31*
X100965000Y-73660000D02*
X102275002Y-72200000D01*
D33*
X104775000Y-76200000D03*
D32*
X102275000Y-72200000D03*
D34*
X99695000Y-76200000D03*
X109855000Y-76200000D03*
D31*
X121562500Y-109800000D02*
X121602500Y-109220000D01*
D32*
X121602500Y-109220000D03*
D31*
X115252500Y-111760000D02*
X116562502Y-110300000D01*
D33*
X119062500Y-114300000D03*
D32*
X116562500Y-110300000D03*
D34*
X113982500Y-114300000D03*
X124142500Y-114300000D03*
D31*
X183475000Y-71700000D02*
X183515000Y-71120000D01*
D32*
X183515000Y-71120000D03*
D31*
X177165000Y-73660000D02*
X178475002Y-72200000D01*
D33*
X180975000Y-76200000D03*
D32*
X178475000Y-72200000D03*
D34*
X175895000Y-76200000D03*
X186055000Y-76200000D03*
D31*
X102512500Y-109800000D02*
X102552500Y-109220000D01*
D32*
X102552500Y-109220000D03*
D31*
X96202500Y-111760000D02*
X97512502Y-110300000D01*
D33*
X100012500Y-114300000D03*
D32*
X97512500Y-110300000D03*
D34*
X94932500Y-114300000D03*
X105092500Y-114300000D03*
D31*
X278725000Y-71700000D02*
X278765000Y-71120000D01*
D32*
X278765000Y-71120000D03*
D31*
X272415000Y-73660000D02*
X273725002Y-72200000D01*
D33*
X276225000Y-76200000D03*
D32*
X273725000Y-72200000D03*
D34*
X271145000Y-76200000D03*
X281305000Y-76200000D03*
D31*
X321587500Y-71700000D02*
X321627500Y-71120000D01*
D32*
X321627500Y-71120000D03*
D31*
X315277500Y-73660000D02*
X316587502Y-72200000D01*
D33*
X319087500Y-76200000D03*
D32*
X316587500Y-72200000D03*
D34*
X314007500Y-76200000D03*
X324167500Y-76200000D03*
D31*
X297775000Y-71700000D02*
X297815000Y-71120000D01*
D32*
X297815000Y-71120000D03*
D31*
X291465000Y-73660000D02*
X292775002Y-72200000D01*
D33*
X295275000Y-76200000D03*
D32*
X292775000Y-72200000D03*
D34*
X290195000Y-76200000D03*
X300355000Y-76200000D03*
D31*
X142993750Y-128850000D02*
X143033750Y-128270000D01*
D32*
X143033750Y-128270000D03*
D31*
X136683750Y-130810000D02*
X137993752Y-129350000D01*
D33*
X140493750Y-133350000D03*
D32*
X137993750Y-129350000D03*
D34*
X135413750Y-133350000D03*
X145573750Y-133350000D03*
D35*
X128555750Y-140335000D03*
X152431750Y-140335000D03*
D33*
X128555750Y-125095000D03*
X152431750Y-125095000D03*
D31*
X173950000Y-128850000D02*
X173990000Y-128270000D01*
D32*
X173990000Y-128270000D03*
D31*
X167640000Y-130810000D02*
X168950002Y-129350000D01*
D33*
X171450000Y-133350000D03*
D32*
X168950000Y-129350000D03*
D34*
X166370000Y-133350000D03*
X176530000Y-133350000D03*
D35*
X114300000Y-140335000D03*
X228600000Y-140335000D03*
D33*
X114300000Y-125095000D03*
X228600000Y-125095000D03*
D31*
X181093750Y-128850000D02*
X181133750Y-128270000D01*
D32*
X181133750Y-128270000D03*
D31*
X174783750Y-130810000D02*
X176093752Y-129350000D01*
D33*
X178593750Y-133350000D03*
D32*
X176093750Y-129350000D03*
D34*
X173513750Y-133350000D03*
X183673750Y-133350000D03*
D35*
X128593850Y-140335000D03*
X228593650Y-140335000D03*
D33*
X128593850Y-125095000D03*
X228593650Y-125095000D03*
D31*
X176331250Y-128850000D02*
X176371250Y-128270000D01*
D32*
X176371250Y-128270000D03*
D31*
X170021250Y-130810000D02*
X171331252Y-129350000D01*
D33*
X173831250Y-133350000D03*
D32*
X171331250Y-129350000D03*
D34*
X168751250Y-133350000D03*
X178911250Y-133350000D03*
D31*
X214431250Y-128850000D02*
X214471250Y-128270000D01*
D32*
X214471250Y-128270000D03*
D31*
X208121250Y-130810000D02*
X209431252Y-129350000D01*
D33*
X211931250Y-133350000D03*
D32*
X209431250Y-129350000D03*
D34*
X206851250Y-133350000D03*
X217011250Y-133350000D03*
D35*
X199993250Y-140335000D03*
X223869250Y-140335000D03*
D33*
X199993250Y-125095000D03*
X223869250Y-125095000D03*
D31*
X193000000Y-128850000D02*
X193040000Y-128270000D01*
D32*
X193040000Y-128270000D03*
D31*
X186690000Y-130810000D02*
X188000002Y-129350000D01*
D33*
X190500000Y-133350000D03*
D32*
X188000000Y-129350000D03*
D34*
X185420000Y-133350000D03*
X195580000Y-133350000D03*
D35*
X140500100Y-140335000D03*
X240499900Y-140335000D03*
D33*
X140500100Y-125095000D03*
X240499900Y-125095000D03*
D31*
X152518750Y-128850000D02*
X152558750Y-128270000D01*
D32*
X152558750Y-128270000D03*
D31*
X146208750Y-130810000D02*
X147518752Y-129350000D01*
D33*
X150018750Y-133350000D03*
D32*
X147518750Y-129350000D03*
D34*
X144938750Y-133350000D03*
X155098750Y-133350000D03*
D35*
X138080750Y-140335000D03*
X161956750Y-140335000D03*
D33*
X138080750Y-125095000D03*
X161956750Y-125095000D03*
D31*
X188237500Y-128850000D02*
X188277500Y-128270000D01*
D32*
X188277500Y-128270000D03*
D31*
X181927500Y-130810000D02*
X183237502Y-129350000D01*
D33*
X185737500Y-133350000D03*
D32*
X183237500Y-129350000D03*
D34*
X180657500Y-133350000D03*
X190817500Y-133350000D03*
D31*
X228718750Y-128850000D02*
X228758750Y-128270000D01*
D32*
X228758750Y-128270000D03*
D31*
X222408750Y-130810000D02*
X223718752Y-129350000D01*
D33*
X226218750Y-133350000D03*
D32*
X223718750Y-129350000D03*
D34*
X221138750Y-133350000D03*
X231298750Y-133350000D03*
D35*
X214280750Y-140335000D03*
X238156750Y-140335000D03*
D33*
X214280750Y-125095000D03*
X238156750Y-125095000D03*
D36*
X68961000Y-69231000D03*
X68961000Y-71231000D03*
D37*
X68945000Y-86995000D03*
X66945000Y-86995000D03*
X84471000Y-97917000D03*
X86471000Y-97917000D03*
X76470000Y-101473000D03*
X78470000Y-101473000D03*
D36*
X76708000Y-80534000D03*
X76708000Y-82534000D03*
D37*
X79772000Y-81661000D03*
X81772000Y-81661000D03*
D38*
X73467000Y-81661000D03*
X71567000Y-81661000D03*
D15*
X60198000Y-56200000D03*
X60198000Y-58100000D03*
X70358000Y-61021000D03*
X70358000Y-59121000D03*
M02*
