G04 #@! TF.FileFunction,Legend,Top*
%FSLAX46Y46*%
G04 Gerber Fmt 4.6, Leading zero omitted, Abs format (unit mm)*
G04 Created by KiCad (PCBNEW 4.0.7) date 05/26/18 22:22:34*
%MOMM*%
%LPD*%
G01*
G04 APERTURE LIST*
%ADD10C,0.100000*%
%ADD11C,0.500000*%
%ADD12C,0.907143*%
%ADD13C,0.170000*%
%ADD14C,0.010000*%
%ADD15C,1.388060*%
%ADD16C,1.385520*%
%ADD17C,1.924000*%
%ADD18R,1.924000X1.924000*%
%ADD19C,6.400000*%
%ADD20C,1.400000*%
%ADD21O,1.400000X2.000000*%
%ADD22O,1.400000X2.500000*%
%ADD23C,1.050000*%
%ADD24C,4.387800*%
%ADD25C,2.150000*%
%ADD26C,3.448000*%
G04 APERTURE END LIST*
D10*
D11*
X163600143Y-101306143D02*
X162600143Y-99877571D01*
X161885858Y-101306143D02*
X161885858Y-98306143D01*
X163028715Y-98306143D01*
X163314429Y-98449000D01*
X163457286Y-98591857D01*
X163600143Y-98877571D01*
X163600143Y-99306143D01*
X163457286Y-99591857D01*
X163314429Y-99734714D01*
X163028715Y-99877571D01*
X161885858Y-99877571D01*
X166457286Y-101306143D02*
X164743001Y-101306143D01*
X165600143Y-101306143D02*
X165600143Y-98306143D01*
X165314429Y-98734714D01*
X165028715Y-99020429D01*
X164743001Y-99163286D01*
X167743001Y-101020429D02*
X167885858Y-101163286D01*
X167743001Y-101306143D01*
X167600144Y-101163286D01*
X167743001Y-101020429D01*
X167743001Y-101306143D01*
X169743000Y-98306143D02*
X170028715Y-98306143D01*
X170314429Y-98449000D01*
X170457286Y-98591857D01*
X170600143Y-98877571D01*
X170743000Y-99449000D01*
X170743000Y-100163286D01*
X170600143Y-100734714D01*
X170457286Y-101020429D01*
X170314429Y-101163286D01*
X170028715Y-101306143D01*
X169743000Y-101306143D01*
X169457286Y-101163286D01*
X169314429Y-101020429D01*
X169171572Y-100734714D01*
X169028715Y-100163286D01*
X169028715Y-99449000D01*
X169171572Y-98877571D01*
X169314429Y-98591857D01*
X169457286Y-98449000D01*
X169743000Y-98306143D01*
D12*
X104992715Y-98410312D02*
X109226048Y-107481741D01*
X113459381Y-98410312D01*
X123135572Y-98410312D02*
X120716524Y-98410312D01*
X119507000Y-98842285D01*
X118902238Y-99274258D01*
X117692715Y-100570176D01*
X117087953Y-102298067D01*
X117087953Y-105753850D01*
X117692715Y-106617796D01*
X118297476Y-107049768D01*
X119507000Y-107481741D01*
X121926048Y-107481741D01*
X123135572Y-107049768D01*
X123740334Y-106617796D01*
X124345095Y-105753850D01*
X124345095Y-103593986D01*
X123740334Y-102730040D01*
X123135572Y-102298067D01*
X121926048Y-101866095D01*
X119507000Y-101866095D01*
X118297476Y-102298067D01*
X117692715Y-102730040D01*
X117087953Y-103593986D01*
X135835572Y-98410312D02*
X129787953Y-98410312D01*
X129183191Y-102730040D01*
X129787953Y-102298067D01*
X130997476Y-101866095D01*
X134021286Y-101866095D01*
X135230810Y-102298067D01*
X135835572Y-102730040D01*
X136440333Y-103593986D01*
X136440333Y-105753850D01*
X135835572Y-106617796D01*
X135230810Y-107049768D01*
X134021286Y-107481741D01*
X130997476Y-107481741D01*
X129787953Y-107049768D01*
X129183191Y-106617796D01*
X147930810Y-107481741D02*
X141883191Y-107481741D01*
X141883191Y-98410312D01*
X152164143Y-102730040D02*
X156397476Y-102730040D01*
X158211762Y-107481741D02*
X152164143Y-107481741D01*
X152164143Y-98410312D01*
X158211762Y-98410312D01*
D13*
X161829714Y-105856857D02*
X161829714Y-104656857D01*
X162286857Y-104656857D01*
X162401143Y-104714000D01*
X162458286Y-104771143D01*
X162515429Y-104885429D01*
X162515429Y-105056857D01*
X162458286Y-105171143D01*
X162401143Y-105228286D01*
X162286857Y-105285429D01*
X161829714Y-105285429D01*
X163715429Y-105742571D02*
X163658286Y-105799714D01*
X163486857Y-105856857D01*
X163372571Y-105856857D01*
X163201143Y-105799714D01*
X163086857Y-105685429D01*
X163029714Y-105571143D01*
X162972571Y-105342571D01*
X162972571Y-105171143D01*
X163029714Y-104942571D01*
X163086857Y-104828286D01*
X163201143Y-104714000D01*
X163372571Y-104656857D01*
X163486857Y-104656857D01*
X163658286Y-104714000D01*
X163715429Y-104771143D01*
X164629714Y-105228286D02*
X164801143Y-105285429D01*
X164858286Y-105342571D01*
X164915429Y-105456857D01*
X164915429Y-105628286D01*
X164858286Y-105742571D01*
X164801143Y-105799714D01*
X164686857Y-105856857D01*
X164229714Y-105856857D01*
X164229714Y-104656857D01*
X164629714Y-104656857D01*
X164744000Y-104714000D01*
X164801143Y-104771143D01*
X164858286Y-104885429D01*
X164858286Y-104999714D01*
X164801143Y-105114000D01*
X164744000Y-105171143D01*
X164629714Y-105228286D01*
X164229714Y-105228286D01*
X166344000Y-105856857D02*
X166344000Y-104656857D01*
X166344000Y-105114000D02*
X166458286Y-105056857D01*
X166686857Y-105056857D01*
X166801143Y-105114000D01*
X166858286Y-105171143D01*
X166915429Y-105285429D01*
X166915429Y-105628286D01*
X166858286Y-105742571D01*
X166801143Y-105799714D01*
X166686857Y-105856857D01*
X166458286Y-105856857D01*
X166344000Y-105799714D01*
X167315429Y-105056857D02*
X167601143Y-105856857D01*
X167886857Y-105056857D02*
X167601143Y-105856857D01*
X167486857Y-106142571D01*
X167429714Y-106199714D01*
X167315429Y-106256857D01*
X169772572Y-105856857D02*
X169772572Y-105228286D01*
X169715429Y-105114000D01*
X169601143Y-105056857D01*
X169372572Y-105056857D01*
X169258286Y-105114000D01*
X169772572Y-105799714D02*
X169658286Y-105856857D01*
X169372572Y-105856857D01*
X169258286Y-105799714D01*
X169201143Y-105685429D01*
X169201143Y-105571143D01*
X169258286Y-105456857D01*
X169372572Y-105399714D01*
X169658286Y-105399714D01*
X169772572Y-105342571D01*
X170344000Y-105856857D02*
X170344000Y-105056857D01*
X170344000Y-104656857D02*
X170286857Y-104714000D01*
X170344000Y-104771143D01*
X170401143Y-104714000D01*
X170344000Y-104656857D01*
X170344000Y-104771143D01*
X171144001Y-104656857D02*
X171258286Y-104656857D01*
X171372572Y-104714000D01*
X171429715Y-104771143D01*
X171486858Y-104885429D01*
X171544001Y-105114000D01*
X171544001Y-105399714D01*
X171486858Y-105628286D01*
X171429715Y-105742571D01*
X171372572Y-105799714D01*
X171258286Y-105856857D01*
X171144001Y-105856857D01*
X171029715Y-105799714D01*
X170972572Y-105742571D01*
X170915429Y-105628286D01*
X170858286Y-105399714D01*
X170858286Y-105114000D01*
X170915429Y-104885429D01*
X170972572Y-104771143D01*
X171029715Y-104714000D01*
X171144001Y-104656857D01*
X171944001Y-104656857D02*
X172686858Y-104656857D01*
X172286858Y-105114000D01*
X172458286Y-105114000D01*
X172572572Y-105171143D01*
X172629715Y-105228286D01*
X172686858Y-105342571D01*
X172686858Y-105628286D01*
X172629715Y-105742571D01*
X172572572Y-105799714D01*
X172458286Y-105856857D01*
X172115429Y-105856857D01*
X172001143Y-105799714D01*
X171944001Y-105742571D01*
X161829714Y-107826857D02*
X161829714Y-106626857D01*
X162115429Y-106626857D01*
X162286857Y-106684000D01*
X162401143Y-106798286D01*
X162458286Y-106912571D01*
X162515429Y-107141143D01*
X162515429Y-107312571D01*
X162458286Y-107541143D01*
X162401143Y-107655429D01*
X162286857Y-107769714D01*
X162115429Y-107826857D01*
X161829714Y-107826857D01*
X163486857Y-107769714D02*
X163372571Y-107826857D01*
X163144000Y-107826857D01*
X163029714Y-107769714D01*
X162972571Y-107655429D01*
X162972571Y-107198286D01*
X163029714Y-107084000D01*
X163144000Y-107026857D01*
X163372571Y-107026857D01*
X163486857Y-107084000D01*
X163544000Y-107198286D01*
X163544000Y-107312571D01*
X162972571Y-107426857D01*
X164001142Y-107769714D02*
X164115428Y-107826857D01*
X164344000Y-107826857D01*
X164458285Y-107769714D01*
X164515428Y-107655429D01*
X164515428Y-107598286D01*
X164458285Y-107484000D01*
X164344000Y-107426857D01*
X164172571Y-107426857D01*
X164058285Y-107369714D01*
X164001142Y-107255429D01*
X164001142Y-107198286D01*
X164058285Y-107084000D01*
X164172571Y-107026857D01*
X164344000Y-107026857D01*
X164458285Y-107084000D01*
X165029714Y-107826857D02*
X165029714Y-107026857D01*
X165029714Y-106626857D02*
X164972571Y-106684000D01*
X165029714Y-106741143D01*
X165086857Y-106684000D01*
X165029714Y-106626857D01*
X165029714Y-106741143D01*
X166115429Y-107026857D02*
X166115429Y-107998286D01*
X166058286Y-108112571D01*
X166001143Y-108169714D01*
X165886858Y-108226857D01*
X165715429Y-108226857D01*
X165601143Y-108169714D01*
X166115429Y-107769714D02*
X166001143Y-107826857D01*
X165772572Y-107826857D01*
X165658286Y-107769714D01*
X165601143Y-107712571D01*
X165544000Y-107598286D01*
X165544000Y-107255429D01*
X165601143Y-107141143D01*
X165658286Y-107084000D01*
X165772572Y-107026857D01*
X166001143Y-107026857D01*
X166115429Y-107084000D01*
X166686857Y-107026857D02*
X166686857Y-107826857D01*
X166686857Y-107141143D02*
X166744000Y-107084000D01*
X166858286Y-107026857D01*
X167029714Y-107026857D01*
X167144000Y-107084000D01*
X167201143Y-107198286D01*
X167201143Y-107826857D01*
X169201143Y-107026857D02*
X169201143Y-107998286D01*
X169144000Y-108112571D01*
X169086857Y-108169714D01*
X168972572Y-108226857D01*
X168801143Y-108226857D01*
X168686857Y-108169714D01*
X169201143Y-107769714D02*
X169086857Y-107826857D01*
X168858286Y-107826857D01*
X168744000Y-107769714D01*
X168686857Y-107712571D01*
X168629714Y-107598286D01*
X168629714Y-107255429D01*
X168686857Y-107141143D01*
X168744000Y-107084000D01*
X168858286Y-107026857D01*
X169086857Y-107026857D01*
X169201143Y-107084000D01*
X170286857Y-107026857D02*
X170286857Y-107826857D01*
X169772571Y-107026857D02*
X169772571Y-107655429D01*
X169829714Y-107769714D01*
X169944000Y-107826857D01*
X170115428Y-107826857D01*
X170229714Y-107769714D01*
X170286857Y-107712571D01*
X170858285Y-107826857D02*
X170858285Y-107026857D01*
X170858285Y-106626857D02*
X170801142Y-106684000D01*
X170858285Y-106741143D01*
X170915428Y-106684000D01*
X170858285Y-106626857D01*
X170858285Y-106741143D01*
X171944000Y-107826857D02*
X171944000Y-106626857D01*
X171944000Y-107769714D02*
X171829714Y-107826857D01*
X171601143Y-107826857D01*
X171486857Y-107769714D01*
X171429714Y-107712571D01*
X171372571Y-107598286D01*
X171372571Y-107255429D01*
X171429714Y-107141143D01*
X171486857Y-107084000D01*
X171601143Y-107026857D01*
X171829714Y-107026857D01*
X171944000Y-107084000D01*
X173029714Y-107826857D02*
X173029714Y-107198286D01*
X172972571Y-107084000D01*
X172858285Y-107026857D01*
X172629714Y-107026857D01*
X172515428Y-107084000D01*
X173029714Y-107769714D02*
X172915428Y-107826857D01*
X172629714Y-107826857D01*
X172515428Y-107769714D01*
X172458285Y-107655429D01*
X172458285Y-107541143D01*
X172515428Y-107426857D01*
X172629714Y-107369714D01*
X172915428Y-107369714D01*
X173029714Y-107312571D01*
X173601142Y-107026857D02*
X173601142Y-107826857D01*
X173601142Y-107141143D02*
X173658285Y-107084000D01*
X173772571Y-107026857D01*
X173943999Y-107026857D01*
X174058285Y-107084000D01*
X174115428Y-107198286D01*
X174115428Y-107826857D01*
X175201142Y-107769714D02*
X175086856Y-107826857D01*
X174858285Y-107826857D01*
X174743999Y-107769714D01*
X174686856Y-107712571D01*
X174629713Y-107598286D01*
X174629713Y-107255429D01*
X174686856Y-107141143D01*
X174743999Y-107084000D01*
X174858285Y-107026857D01*
X175086856Y-107026857D01*
X175201142Y-107084000D01*
X176172570Y-107769714D02*
X176058284Y-107826857D01*
X175829713Y-107826857D01*
X175715427Y-107769714D01*
X175658284Y-107655429D01*
X175658284Y-107198286D01*
X175715427Y-107084000D01*
X175829713Y-107026857D01*
X176058284Y-107026857D01*
X176172570Y-107084000D01*
X176229713Y-107198286D01*
X176229713Y-107312571D01*
X175658284Y-107426857D01*
X177658284Y-107826857D02*
X177658284Y-106626857D01*
X177658284Y-107084000D02*
X177772570Y-107026857D01*
X178001141Y-107026857D01*
X178115427Y-107084000D01*
X178172570Y-107141143D01*
X178229713Y-107255429D01*
X178229713Y-107598286D01*
X178172570Y-107712571D01*
X178115427Y-107769714D01*
X178001141Y-107826857D01*
X177772570Y-107826857D01*
X177658284Y-107769714D01*
X178629713Y-107026857D02*
X178915427Y-107826857D01*
X179201141Y-107026857D02*
X178915427Y-107826857D01*
X178801141Y-108112571D01*
X178743998Y-108169714D01*
X178629713Y-108226857D01*
X180286856Y-107941143D02*
X181201142Y-107941143D01*
X181429713Y-107769714D02*
X181543999Y-107826857D01*
X181772571Y-107826857D01*
X181886856Y-107769714D01*
X181943999Y-107655429D01*
X181943999Y-107598286D01*
X181886856Y-107484000D01*
X181772571Y-107426857D01*
X181601142Y-107426857D01*
X181486856Y-107369714D01*
X181429713Y-107255429D01*
X181429713Y-107198286D01*
X181486856Y-107084000D01*
X181601142Y-107026857D01*
X181772571Y-107026857D01*
X181886856Y-107084000D01*
X182458285Y-107026857D02*
X182458285Y-108226857D01*
X182458285Y-107084000D02*
X182572571Y-107026857D01*
X182801142Y-107026857D01*
X182915428Y-107084000D01*
X182972571Y-107141143D01*
X183029714Y-107255429D01*
X183029714Y-107598286D01*
X182972571Y-107712571D01*
X182915428Y-107769714D01*
X182801142Y-107826857D01*
X182572571Y-107826857D01*
X182458285Y-107769714D01*
X183543999Y-107826857D02*
X183543999Y-107026857D01*
X183543999Y-106626857D02*
X183486856Y-106684000D01*
X183543999Y-106741143D01*
X183601142Y-106684000D01*
X183543999Y-106626857D01*
X183543999Y-106741143D01*
X184115428Y-107026857D02*
X184115428Y-107826857D01*
X184115428Y-107141143D02*
X184172571Y-107084000D01*
X184286857Y-107026857D01*
X184458285Y-107026857D01*
X184572571Y-107084000D01*
X184629714Y-107198286D01*
X184629714Y-107826857D01*
X185715428Y-107826857D02*
X185715428Y-106626857D01*
X185715428Y-107769714D02*
X185601142Y-107826857D01*
X185372571Y-107826857D01*
X185258285Y-107769714D01*
X185201142Y-107712571D01*
X185143999Y-107598286D01*
X185143999Y-107255429D01*
X185201142Y-107141143D01*
X185258285Y-107084000D01*
X185372571Y-107026857D01*
X185601142Y-107026857D01*
X185715428Y-107084000D01*
X186458285Y-107826857D02*
X186343999Y-107769714D01*
X186286856Y-107655429D01*
X186286856Y-106626857D01*
X187372570Y-107769714D02*
X187258284Y-107826857D01*
X187029713Y-107826857D01*
X186915427Y-107769714D01*
X186858284Y-107655429D01*
X186858284Y-107198286D01*
X186915427Y-107084000D01*
X187029713Y-107026857D01*
X187258284Y-107026857D01*
X187372570Y-107084000D01*
X187429713Y-107198286D01*
X187429713Y-107312571D01*
X186858284Y-107426857D01*
X188001141Y-107769714D02*
X188001141Y-107826857D01*
X187943998Y-107941143D01*
X187886855Y-107998286D01*
X189315428Y-106626857D02*
X189601142Y-107826857D01*
X189829713Y-106969714D01*
X190058285Y-107826857D01*
X190343999Y-106626857D01*
X190801142Y-107826857D02*
X190801142Y-107026857D01*
X190801142Y-106626857D02*
X190743999Y-106684000D01*
X190801142Y-106741143D01*
X190858285Y-106684000D01*
X190801142Y-106626857D01*
X190801142Y-106741143D01*
X191544000Y-107826857D02*
X191429714Y-107769714D01*
X191372571Y-107655429D01*
X191372571Y-106626857D01*
X192001142Y-107826857D02*
X192001142Y-106626857D01*
X192001142Y-107084000D02*
X192115428Y-107026857D01*
X192343999Y-107026857D01*
X192458285Y-107084000D01*
X192515428Y-107141143D01*
X192572571Y-107255429D01*
X192572571Y-107598286D01*
X192515428Y-107712571D01*
X192458285Y-107769714D01*
X192343999Y-107826857D01*
X192115428Y-107826857D01*
X192001142Y-107769714D01*
X193601142Y-107826857D02*
X193601142Y-107198286D01*
X193543999Y-107084000D01*
X193429713Y-107026857D01*
X193201142Y-107026857D01*
X193086856Y-107084000D01*
X193601142Y-107769714D02*
X193486856Y-107826857D01*
X193201142Y-107826857D01*
X193086856Y-107769714D01*
X193029713Y-107655429D01*
X193029713Y-107541143D01*
X193086856Y-107426857D01*
X193201142Y-107369714D01*
X193486856Y-107369714D01*
X193601142Y-107312571D01*
X194229713Y-107769714D02*
X194229713Y-107826857D01*
X194172570Y-107941143D01*
X194115427Y-107998286D01*
X196172571Y-107826857D02*
X196172571Y-107198286D01*
X196115428Y-107084000D01*
X196001142Y-107026857D01*
X195772571Y-107026857D01*
X195658285Y-107084000D01*
X196172571Y-107769714D02*
X196058285Y-107826857D01*
X195772571Y-107826857D01*
X195658285Y-107769714D01*
X195601142Y-107655429D01*
X195601142Y-107541143D01*
X195658285Y-107426857D01*
X195772571Y-107369714D01*
X196058285Y-107369714D01*
X196172571Y-107312571D01*
X196743999Y-107826857D02*
X196743999Y-107026857D01*
X196743999Y-107141143D02*
X196801142Y-107084000D01*
X196915428Y-107026857D01*
X197086856Y-107026857D01*
X197201142Y-107084000D01*
X197258285Y-107198286D01*
X197258285Y-107826857D01*
X197258285Y-107198286D02*
X197315428Y-107084000D01*
X197429714Y-107026857D01*
X197601142Y-107026857D01*
X197715428Y-107084000D01*
X197772571Y-107198286D01*
X197772571Y-107826857D01*
X198172571Y-107026857D02*
X198629714Y-107026857D01*
X198343999Y-106626857D02*
X198343999Y-107655429D01*
X198401142Y-107769714D01*
X198515428Y-107826857D01*
X198629714Y-107826857D01*
X199029713Y-107826857D02*
X199029713Y-107026857D01*
X199029713Y-107255429D02*
X199086856Y-107141143D01*
X199143999Y-107084000D01*
X199258285Y-107026857D01*
X199372570Y-107026857D01*
X200286856Y-107826857D02*
X200286856Y-107198286D01*
X200229713Y-107084000D01*
X200115427Y-107026857D01*
X199886856Y-107026857D01*
X199772570Y-107084000D01*
X200286856Y-107769714D02*
X200172570Y-107826857D01*
X199886856Y-107826857D01*
X199772570Y-107769714D01*
X199715427Y-107655429D01*
X199715427Y-107541143D01*
X199772570Y-107426857D01*
X199886856Y-107369714D01*
X200172570Y-107369714D01*
X200286856Y-107312571D01*
X201429713Y-106626857D02*
X200858284Y-106626857D01*
X200801141Y-107198286D01*
X200858284Y-107141143D01*
X200972570Y-107084000D01*
X201258284Y-107084000D01*
X201372570Y-107141143D01*
X201429713Y-107198286D01*
X201486856Y-107312571D01*
X201486856Y-107598286D01*
X201429713Y-107712571D01*
X201372570Y-107769714D01*
X201258284Y-107826857D01*
X200972570Y-107826857D01*
X200858284Y-107769714D01*
X200801141Y-107712571D01*
X202058284Y-107769714D02*
X202058284Y-107826857D01*
X202001141Y-107941143D01*
X201943998Y-107998286D01*
X203943999Y-107769714D02*
X203829713Y-107826857D01*
X203601142Y-107826857D01*
X203486856Y-107769714D01*
X203429713Y-107655429D01*
X203429713Y-107198286D01*
X203486856Y-107084000D01*
X203601142Y-107026857D01*
X203829713Y-107026857D01*
X203943999Y-107084000D01*
X204001142Y-107198286D01*
X204001142Y-107312571D01*
X203429713Y-107426857D01*
X204343999Y-107026857D02*
X204801142Y-107026857D01*
X204515427Y-106626857D02*
X204515427Y-107655429D01*
X204572570Y-107769714D01*
X204686856Y-107826857D01*
X204801142Y-107826857D01*
X206629713Y-107826857D02*
X206629713Y-107198286D01*
X206572570Y-107084000D01*
X206458284Y-107026857D01*
X206229713Y-107026857D01*
X206115427Y-107084000D01*
X206629713Y-107769714D02*
X206515427Y-107826857D01*
X206229713Y-107826857D01*
X206115427Y-107769714D01*
X206058284Y-107655429D01*
X206058284Y-107541143D01*
X206115427Y-107426857D01*
X206229713Y-107369714D01*
X206515427Y-107369714D01*
X206629713Y-107312571D01*
X207372570Y-107826857D02*
X207258284Y-107769714D01*
X207201141Y-107655429D01*
X207201141Y-106626857D01*
X207829712Y-107712571D02*
X207886855Y-107769714D01*
X207829712Y-107826857D01*
X207772569Y-107769714D01*
X207829712Y-107712571D01*
X207829712Y-107826857D01*
%LPC*%
D14*
G36*
X333597072Y-120026189D02*
X333877281Y-120052606D01*
X334156778Y-120099253D01*
X334172560Y-120102498D01*
X334430216Y-120166256D01*
X334684094Y-120249424D01*
X334932662Y-120351214D01*
X335174385Y-120470839D01*
X335407731Y-120607513D01*
X335631166Y-120760449D01*
X335843156Y-120928861D01*
X335926820Y-121002574D01*
X336055344Y-121123716D01*
X336170829Y-121242560D01*
X336278774Y-121365124D01*
X336384680Y-121497429D01*
X336412375Y-121533920D01*
X336572427Y-121763117D01*
X336713679Y-121999839D01*
X336836348Y-122244571D01*
X336940652Y-122497797D01*
X337026809Y-122760001D01*
X337095038Y-123031669D01*
X337102939Y-123069349D01*
X337147923Y-123338043D01*
X337173432Y-123608734D01*
X337179477Y-123879760D01*
X337166067Y-124149460D01*
X337133214Y-124416174D01*
X337093490Y-124623805D01*
X337072275Y-124714136D01*
X337047748Y-124810222D01*
X337021617Y-124905842D01*
X336995588Y-124994774D01*
X336971371Y-125070799D01*
X336968325Y-125079760D01*
X336943762Y-125146831D01*
X336912753Y-125224542D01*
X336877162Y-125308783D01*
X336838850Y-125395446D01*
X336799684Y-125480423D01*
X336761524Y-125559603D01*
X336726237Y-125628880D01*
X336695684Y-125684144D01*
X336689523Y-125694440D01*
X336662607Y-125738496D01*
X336630489Y-125790976D01*
X336598610Y-125842995D01*
X336586899Y-125862080D01*
X336563129Y-125898897D01*
X336529945Y-125947646D01*
X336490296Y-126004134D01*
X336447132Y-126064165D01*
X336403400Y-126123545D01*
X336398142Y-126130577D01*
X336285194Y-126271934D01*
X336157705Y-126414896D01*
X336020437Y-126554705D01*
X335878145Y-126686601D01*
X335735591Y-126805826D01*
X335680577Y-126848142D01*
X335621566Y-126891740D01*
X335561389Y-126935133D01*
X335504241Y-126975371D01*
X335454317Y-127009506D01*
X335415811Y-127034590D01*
X335412080Y-127036899D01*
X335362811Y-127067114D01*
X335309445Y-127099791D01*
X335260870Y-127129492D01*
X335244440Y-127139523D01*
X335201697Y-127163779D01*
X335144065Y-127193823D01*
X335075473Y-127227778D01*
X334999848Y-127263766D01*
X334921119Y-127299908D01*
X334843216Y-127334326D01*
X334787240Y-127358067D01*
X334601737Y-127427496D01*
X334401841Y-127488300D01*
X334191982Y-127539509D01*
X333976592Y-127580149D01*
X333760101Y-127609249D01*
X333573120Y-127624487D01*
X333503624Y-127628258D01*
X333448462Y-127630889D01*
X333402429Y-127632376D01*
X333360321Y-127632713D01*
X333316935Y-127631897D01*
X333267066Y-127629921D01*
X333205511Y-127626781D01*
X333156560Y-127624103D01*
X332908547Y-127602123D01*
X332663867Y-127563472D01*
X332420406Y-127507613D01*
X332176053Y-127434004D01*
X331928695Y-127342109D01*
X331749400Y-127265154D01*
X331623848Y-127203740D01*
X331489795Y-127129829D01*
X331351883Y-127046422D01*
X331214754Y-126956521D01*
X331083050Y-126863126D01*
X330961414Y-126769238D01*
X330890880Y-126710177D01*
X330690945Y-126523597D01*
X330505091Y-126323787D01*
X330334055Y-126111987D01*
X330178573Y-125889442D01*
X330039382Y-125657393D01*
X329917219Y-125417082D01*
X329812822Y-125169752D01*
X329726926Y-124916645D01*
X329660270Y-124659004D01*
X329652498Y-124622560D01*
X329604705Y-124343121D01*
X329577144Y-124062937D01*
X329571315Y-123840160D01*
X330247303Y-123840160D01*
X330251835Y-124001576D01*
X330262466Y-124159864D01*
X330279129Y-124309418D01*
X330282473Y-124333000D01*
X330321511Y-124537477D01*
X330378587Y-124745207D01*
X330452399Y-124953217D01*
X330541642Y-125158533D01*
X330645013Y-125358183D01*
X330761208Y-125549192D01*
X330888924Y-125728589D01*
X330901579Y-125744882D01*
X331065448Y-125937881D01*
X331243465Y-126116566D01*
X331434709Y-126280253D01*
X331638258Y-126428259D01*
X331853188Y-126559897D01*
X332078579Y-126674486D01*
X332255694Y-126749511D01*
X332390203Y-126797037D01*
X332537087Y-126840558D01*
X332689361Y-126878372D01*
X332840039Y-126908776D01*
X332982135Y-126930068D01*
X333009240Y-126933118D01*
X333057119Y-126938189D01*
X333100463Y-126942816D01*
X333133364Y-126946367D01*
X333146400Y-126947803D01*
X333180902Y-126950205D01*
X333231280Y-126951783D01*
X333293107Y-126952571D01*
X333361957Y-126952605D01*
X333433402Y-126951917D01*
X333503017Y-126950543D01*
X333566374Y-126948517D01*
X333619048Y-126945873D01*
X333644240Y-126943952D01*
X333895779Y-126910687D01*
X334143699Y-126857859D01*
X334386406Y-126785948D01*
X334622309Y-126695433D01*
X334849818Y-126586794D01*
X334877149Y-126572200D01*
X334954545Y-126527671D01*
X335041723Y-126472940D01*
X335133505Y-126411558D01*
X335224711Y-126347073D01*
X335310165Y-126283037D01*
X335376520Y-126229853D01*
X335564294Y-126060257D01*
X335736308Y-125878134D01*
X335892153Y-125684266D01*
X336031424Y-125479434D01*
X336153714Y-125264421D01*
X336258617Y-125040008D01*
X336345724Y-124806977D01*
X336414632Y-124566111D01*
X336464931Y-124318192D01*
X336494925Y-124078945D01*
X336499610Y-124003703D01*
X336501963Y-123914408D01*
X336502107Y-123816427D01*
X336500168Y-123715128D01*
X336496268Y-123615878D01*
X336490530Y-123524045D01*
X336483080Y-123444996D01*
X336479710Y-123418600D01*
X336448655Y-123234267D01*
X336407882Y-123051650D01*
X336358870Y-122876607D01*
X336303101Y-122714994D01*
X336299511Y-122705694D01*
X336200152Y-122477026D01*
X336083940Y-122258053D01*
X335951803Y-122049718D01*
X335804667Y-121852964D01*
X335643461Y-121668733D01*
X335469111Y-121497969D01*
X335282545Y-121341615D01*
X335084689Y-121200613D01*
X334876472Y-121075906D01*
X334658821Y-120968437D01*
X334543400Y-120920141D01*
X334394827Y-120864021D01*
X334257837Y-120817725D01*
X334128185Y-120780465D01*
X334001624Y-120751448D01*
X333873910Y-120729886D01*
X333740797Y-120714987D01*
X333598039Y-120705962D01*
X333441392Y-120702020D01*
X333369920Y-120701691D01*
X333256748Y-120702333D01*
X333159639Y-120704392D01*
X333074361Y-120708234D01*
X332996683Y-120714228D01*
X332922374Y-120722741D01*
X332847202Y-120734143D01*
X332766938Y-120748801D01*
X332719680Y-120758263D01*
X332614775Y-120783066D01*
X332498113Y-120816330D01*
X332375369Y-120856078D01*
X332252219Y-120900330D01*
X332134338Y-120947107D01*
X332027402Y-120994430D01*
X331989345Y-121012880D01*
X331815115Y-121107488D01*
X331642555Y-121215819D01*
X331475491Y-121334995D01*
X331317747Y-121462137D01*
X331173149Y-121594367D01*
X331060404Y-121711991D01*
X330895769Y-121910509D01*
X330748837Y-122117933D01*
X330619939Y-122333559D01*
X330509403Y-122556687D01*
X330417560Y-122786615D01*
X330344738Y-123022641D01*
X330291268Y-123264062D01*
X330270991Y-123393200D01*
X330256813Y-123530366D01*
X330248940Y-123681222D01*
X330247303Y-123840160D01*
X329571315Y-123840160D01*
X329569808Y-123782596D01*
X329582690Y-123502691D01*
X329615782Y-123223811D01*
X329669078Y-122946548D01*
X329672697Y-122930920D01*
X329734195Y-122705283D01*
X329813445Y-122476785D01*
X329908941Y-122249046D01*
X330019175Y-122025686D01*
X330131310Y-121828824D01*
X330258439Y-121636283D01*
X330403250Y-121446270D01*
X330563104Y-121261601D01*
X330735366Y-121085092D01*
X330917398Y-120919558D01*
X331106563Y-120767815D01*
X331165464Y-120724572D01*
X331376076Y-120584375D01*
X331598536Y-120457255D01*
X331829634Y-120344681D01*
X332066159Y-120248122D01*
X332304901Y-120169048D01*
X332480920Y-120122697D01*
X332758074Y-120068259D01*
X333036878Y-120034023D01*
X333316741Y-120019998D01*
X333597072Y-120026189D01*
X333597072Y-120026189D01*
G37*
X333597072Y-120026189D02*
X333877281Y-120052606D01*
X334156778Y-120099253D01*
X334172560Y-120102498D01*
X334430216Y-120166256D01*
X334684094Y-120249424D01*
X334932662Y-120351214D01*
X335174385Y-120470839D01*
X335407731Y-120607513D01*
X335631166Y-120760449D01*
X335843156Y-120928861D01*
X335926820Y-121002574D01*
X336055344Y-121123716D01*
X336170829Y-121242560D01*
X336278774Y-121365124D01*
X336384680Y-121497429D01*
X336412375Y-121533920D01*
X336572427Y-121763117D01*
X336713679Y-121999839D01*
X336836348Y-122244571D01*
X336940652Y-122497797D01*
X337026809Y-122760001D01*
X337095038Y-123031669D01*
X337102939Y-123069349D01*
X337147923Y-123338043D01*
X337173432Y-123608734D01*
X337179477Y-123879760D01*
X337166067Y-124149460D01*
X337133214Y-124416174D01*
X337093490Y-124623805D01*
X337072275Y-124714136D01*
X337047748Y-124810222D01*
X337021617Y-124905842D01*
X336995588Y-124994774D01*
X336971371Y-125070799D01*
X336968325Y-125079760D01*
X336943762Y-125146831D01*
X336912753Y-125224542D01*
X336877162Y-125308783D01*
X336838850Y-125395446D01*
X336799684Y-125480423D01*
X336761524Y-125559603D01*
X336726237Y-125628880D01*
X336695684Y-125684144D01*
X336689523Y-125694440D01*
X336662607Y-125738496D01*
X336630489Y-125790976D01*
X336598610Y-125842995D01*
X336586899Y-125862080D01*
X336563129Y-125898897D01*
X336529945Y-125947646D01*
X336490296Y-126004134D01*
X336447132Y-126064165D01*
X336403400Y-126123545D01*
X336398142Y-126130577D01*
X336285194Y-126271934D01*
X336157705Y-126414896D01*
X336020437Y-126554705D01*
X335878145Y-126686601D01*
X335735591Y-126805826D01*
X335680577Y-126848142D01*
X335621566Y-126891740D01*
X335561389Y-126935133D01*
X335504241Y-126975371D01*
X335454317Y-127009506D01*
X335415811Y-127034590D01*
X335412080Y-127036899D01*
X335362811Y-127067114D01*
X335309445Y-127099791D01*
X335260870Y-127129492D01*
X335244440Y-127139523D01*
X335201697Y-127163779D01*
X335144065Y-127193823D01*
X335075473Y-127227778D01*
X334999848Y-127263766D01*
X334921119Y-127299908D01*
X334843216Y-127334326D01*
X334787240Y-127358067D01*
X334601737Y-127427496D01*
X334401841Y-127488300D01*
X334191982Y-127539509D01*
X333976592Y-127580149D01*
X333760101Y-127609249D01*
X333573120Y-127624487D01*
X333503624Y-127628258D01*
X333448462Y-127630889D01*
X333402429Y-127632376D01*
X333360321Y-127632713D01*
X333316935Y-127631897D01*
X333267066Y-127629921D01*
X333205511Y-127626781D01*
X333156560Y-127624103D01*
X332908547Y-127602123D01*
X332663867Y-127563472D01*
X332420406Y-127507613D01*
X332176053Y-127434004D01*
X331928695Y-127342109D01*
X331749400Y-127265154D01*
X331623848Y-127203740D01*
X331489795Y-127129829D01*
X331351883Y-127046422D01*
X331214754Y-126956521D01*
X331083050Y-126863126D01*
X330961414Y-126769238D01*
X330890880Y-126710177D01*
X330690945Y-126523597D01*
X330505091Y-126323787D01*
X330334055Y-126111987D01*
X330178573Y-125889442D01*
X330039382Y-125657393D01*
X329917219Y-125417082D01*
X329812822Y-125169752D01*
X329726926Y-124916645D01*
X329660270Y-124659004D01*
X329652498Y-124622560D01*
X329604705Y-124343121D01*
X329577144Y-124062937D01*
X329571315Y-123840160D01*
X330247303Y-123840160D01*
X330251835Y-124001576D01*
X330262466Y-124159864D01*
X330279129Y-124309418D01*
X330282473Y-124333000D01*
X330321511Y-124537477D01*
X330378587Y-124745207D01*
X330452399Y-124953217D01*
X330541642Y-125158533D01*
X330645013Y-125358183D01*
X330761208Y-125549192D01*
X330888924Y-125728589D01*
X330901579Y-125744882D01*
X331065448Y-125937881D01*
X331243465Y-126116566D01*
X331434709Y-126280253D01*
X331638258Y-126428259D01*
X331853188Y-126559897D01*
X332078579Y-126674486D01*
X332255694Y-126749511D01*
X332390203Y-126797037D01*
X332537087Y-126840558D01*
X332689361Y-126878372D01*
X332840039Y-126908776D01*
X332982135Y-126930068D01*
X333009240Y-126933118D01*
X333057119Y-126938189D01*
X333100463Y-126942816D01*
X333133364Y-126946367D01*
X333146400Y-126947803D01*
X333180902Y-126950205D01*
X333231280Y-126951783D01*
X333293107Y-126952571D01*
X333361957Y-126952605D01*
X333433402Y-126951917D01*
X333503017Y-126950543D01*
X333566374Y-126948517D01*
X333619048Y-126945873D01*
X333644240Y-126943952D01*
X333895779Y-126910687D01*
X334143699Y-126857859D01*
X334386406Y-126785948D01*
X334622309Y-126695433D01*
X334849818Y-126586794D01*
X334877149Y-126572200D01*
X334954545Y-126527671D01*
X335041723Y-126472940D01*
X335133505Y-126411558D01*
X335224711Y-126347073D01*
X335310165Y-126283037D01*
X335376520Y-126229853D01*
X335564294Y-126060257D01*
X335736308Y-125878134D01*
X335892153Y-125684266D01*
X336031424Y-125479434D01*
X336153714Y-125264421D01*
X336258617Y-125040008D01*
X336345724Y-124806977D01*
X336414632Y-124566111D01*
X336464931Y-124318192D01*
X336494925Y-124078945D01*
X336499610Y-124003703D01*
X336501963Y-123914408D01*
X336502107Y-123816427D01*
X336500168Y-123715128D01*
X336496268Y-123615878D01*
X336490530Y-123524045D01*
X336483080Y-123444996D01*
X336479710Y-123418600D01*
X336448655Y-123234267D01*
X336407882Y-123051650D01*
X336358870Y-122876607D01*
X336303101Y-122714994D01*
X336299511Y-122705694D01*
X336200152Y-122477026D01*
X336083940Y-122258053D01*
X335951803Y-122049718D01*
X335804667Y-121852964D01*
X335643461Y-121668733D01*
X335469111Y-121497969D01*
X335282545Y-121341615D01*
X335084689Y-121200613D01*
X334876472Y-121075906D01*
X334658821Y-120968437D01*
X334543400Y-120920141D01*
X334394827Y-120864021D01*
X334257837Y-120817725D01*
X334128185Y-120780465D01*
X334001624Y-120751448D01*
X333873910Y-120729886D01*
X333740797Y-120714987D01*
X333598039Y-120705962D01*
X333441392Y-120702020D01*
X333369920Y-120701691D01*
X333256748Y-120702333D01*
X333159639Y-120704392D01*
X333074361Y-120708234D01*
X332996683Y-120714228D01*
X332922374Y-120722741D01*
X332847202Y-120734143D01*
X332766938Y-120748801D01*
X332719680Y-120758263D01*
X332614775Y-120783066D01*
X332498113Y-120816330D01*
X332375369Y-120856078D01*
X332252219Y-120900330D01*
X332134338Y-120947107D01*
X332027402Y-120994430D01*
X331989345Y-121012880D01*
X331815115Y-121107488D01*
X331642555Y-121215819D01*
X331475491Y-121334995D01*
X331317747Y-121462137D01*
X331173149Y-121594367D01*
X331060404Y-121711991D01*
X330895769Y-121910509D01*
X330748837Y-122117933D01*
X330619939Y-122333559D01*
X330509403Y-122556687D01*
X330417560Y-122786615D01*
X330344738Y-123022641D01*
X330291268Y-123264062D01*
X330270991Y-123393200D01*
X330256813Y-123530366D01*
X330248940Y-123681222D01*
X330247303Y-123840160D01*
X329571315Y-123840160D01*
X329569808Y-123782596D01*
X329582690Y-123502691D01*
X329615782Y-123223811D01*
X329669078Y-122946548D01*
X329672697Y-122930920D01*
X329734195Y-122705283D01*
X329813445Y-122476785D01*
X329908941Y-122249046D01*
X330019175Y-122025686D01*
X330131310Y-121828824D01*
X330258439Y-121636283D01*
X330403250Y-121446270D01*
X330563104Y-121261601D01*
X330735366Y-121085092D01*
X330917398Y-120919558D01*
X331106563Y-120767815D01*
X331165464Y-120724572D01*
X331376076Y-120584375D01*
X331598536Y-120457255D01*
X331829634Y-120344681D01*
X332066159Y-120248122D01*
X332304901Y-120169048D01*
X332480920Y-120122697D01*
X332758074Y-120068259D01*
X333036878Y-120034023D01*
X333316741Y-120019998D01*
X333597072Y-120026189D01*
G36*
X335071720Y-123479560D02*
X334391000Y-123479560D01*
X334391000Y-122798840D01*
X334050504Y-122798840D01*
X333710009Y-122798839D01*
X333712684Y-123141740D01*
X333715360Y-123484640D01*
X334053180Y-123487316D01*
X334391000Y-123489993D01*
X334391000Y-124160280D01*
X333710280Y-124160280D01*
X333710280Y-125521720D01*
X333039864Y-125521720D01*
X333034640Y-124165360D01*
X332691740Y-124162684D01*
X332348840Y-124160009D01*
X332348840Y-125521720D01*
X331678280Y-125521720D01*
X331678280Y-123137371D01*
X332348840Y-123137371D01*
X332349040Y-123218414D01*
X332349607Y-123292918D01*
X332350495Y-123358462D01*
X332351653Y-123412626D01*
X332353035Y-123452990D01*
X332354590Y-123477135D01*
X332355748Y-123483081D01*
X332367211Y-123484658D01*
X332396563Y-123485949D01*
X332441373Y-123486924D01*
X332499210Y-123487554D01*
X332567644Y-123487808D01*
X332644245Y-123487656D01*
X332698648Y-123487314D01*
X333034640Y-123484640D01*
X333034640Y-122803920D01*
X332691740Y-122801244D01*
X332348840Y-122798569D01*
X332348840Y-123137371D01*
X331678280Y-123137371D01*
X331678280Y-122128280D01*
X335071720Y-122128280D01*
X335071720Y-123479560D01*
X335071720Y-123479560D01*
G37*
X335071720Y-123479560D02*
X334391000Y-123479560D01*
X334391000Y-122798840D01*
X334050504Y-122798840D01*
X333710009Y-122798839D01*
X333712684Y-123141740D01*
X333715360Y-123484640D01*
X334053180Y-123487316D01*
X334391000Y-123489993D01*
X334391000Y-124160280D01*
X333710280Y-124160280D01*
X333710280Y-125521720D01*
X333039864Y-125521720D01*
X333034640Y-124165360D01*
X332691740Y-124162684D01*
X332348840Y-124160009D01*
X332348840Y-125521720D01*
X331678280Y-125521720D01*
X331678280Y-123137371D01*
X332348840Y-123137371D01*
X332349040Y-123218414D01*
X332349607Y-123292918D01*
X332350495Y-123358462D01*
X332351653Y-123412626D01*
X332353035Y-123452990D01*
X332354590Y-123477135D01*
X332355748Y-123483081D01*
X332367211Y-123484658D01*
X332396563Y-123485949D01*
X332441373Y-123486924D01*
X332499210Y-123487554D01*
X332567644Y-123487808D01*
X332644245Y-123487656D01*
X332698648Y-123487314D01*
X333034640Y-123484640D01*
X333034640Y-122803920D01*
X332691740Y-122801244D01*
X332348840Y-122798569D01*
X332348840Y-123137371D01*
X331678280Y-123137371D01*
X331678280Y-122128280D01*
X335071720Y-122128280D01*
X335071720Y-123479560D01*
G36*
X335071720Y-125521720D02*
X334390855Y-125521720D01*
X334393467Y-124843540D01*
X334396080Y-124165360D01*
X335071720Y-124160006D01*
X335071720Y-125521720D01*
X335071720Y-125521720D01*
G37*
X335071720Y-125521720D02*
X334390855Y-125521720D01*
X334393467Y-124843540D01*
X334396080Y-124165360D01*
X335071720Y-124160006D01*
X335071720Y-125521720D01*
G36*
X333605360Y-100975138D02*
X333878243Y-101001784D01*
X333903320Y-101005249D01*
X334177951Y-101054208D01*
X334445852Y-101122098D01*
X334706273Y-101208432D01*
X334958465Y-101312721D01*
X335201676Y-101434477D01*
X335435157Y-101573211D01*
X335658158Y-101728434D01*
X335869929Y-101899659D01*
X336069720Y-102086398D01*
X336256780Y-102288160D01*
X336430361Y-102504459D01*
X336589711Y-102734806D01*
X336610999Y-102768400D01*
X336744721Y-103000729D01*
X336861078Y-103242651D01*
X336959819Y-103492803D01*
X337040693Y-103749824D01*
X337103450Y-104012352D01*
X337147839Y-104279025D01*
X337173610Y-104548481D01*
X337180511Y-104819359D01*
X337168293Y-105090296D01*
X337136705Y-105359931D01*
X337113083Y-105496360D01*
X337050667Y-105767506D01*
X336969242Y-106031677D01*
X336869099Y-106288265D01*
X336750527Y-106536662D01*
X336613815Y-106776258D01*
X336459253Y-107006445D01*
X336294818Y-107217447D01*
X336235074Y-107285819D01*
X336163682Y-107362498D01*
X336084593Y-107443604D01*
X336001757Y-107525257D01*
X335919125Y-107603578D01*
X335840647Y-107674689D01*
X335770273Y-107734709D01*
X335757520Y-107745041D01*
X335534790Y-107910687D01*
X335301849Y-108058961D01*
X335059599Y-108189492D01*
X334808940Y-108301909D01*
X334550773Y-108395838D01*
X334285998Y-108470910D01*
X334015516Y-108526752D01*
X333786480Y-108558321D01*
X333688720Y-108566950D01*
X333579373Y-108573469D01*
X333464560Y-108577726D01*
X333350399Y-108579569D01*
X333243010Y-108578848D01*
X333148514Y-108575411D01*
X333133358Y-108574493D01*
X332855227Y-108546384D01*
X332582039Y-108498721D01*
X332314553Y-108431805D01*
X332053526Y-108345940D01*
X331799717Y-108241428D01*
X331553883Y-108118574D01*
X331316782Y-107977679D01*
X331089172Y-107819046D01*
X330932552Y-107694818D01*
X330864180Y-107635074D01*
X330787501Y-107563682D01*
X330706395Y-107484593D01*
X330624742Y-107401757D01*
X330546421Y-107319125D01*
X330475310Y-107240647D01*
X330415290Y-107170273D01*
X330404958Y-107157520D01*
X330239525Y-106935035D01*
X330091160Y-106701912D01*
X329960329Y-106459160D01*
X329847498Y-106207785D01*
X329753132Y-105948795D01*
X329745829Y-105923080D01*
X331576680Y-105923080D01*
X331576680Y-106441240D01*
X332094840Y-106441240D01*
X332094840Y-105923080D01*
X334624680Y-105923080D01*
X334624680Y-106441240D01*
X335142840Y-106441240D01*
X335142840Y-105923080D01*
X334624680Y-105923080D01*
X332094840Y-105923080D01*
X331576680Y-105923080D01*
X329745829Y-105923080D01*
X329677698Y-105683200D01*
X329636882Y-105496360D01*
X329595687Y-105229448D01*
X329573637Y-104958945D01*
X329573171Y-104917240D01*
X332094840Y-104917240D01*
X332094840Y-105435400D01*
X332613000Y-105435400D01*
X332613000Y-104917240D01*
X333100680Y-104917240D01*
X333100680Y-105435400D01*
X333618840Y-105435400D01*
X333618840Y-104917240D01*
X334137000Y-104917240D01*
X334137000Y-105435400D01*
X334624680Y-105435400D01*
X334624680Y-104917240D01*
X334137000Y-104917240D01*
X333618840Y-104917240D01*
X333100680Y-104917240D01*
X332613000Y-104917240D01*
X332094840Y-104917240D01*
X329573171Y-104917240D01*
X329570593Y-104686818D01*
X329586416Y-104415032D01*
X329620967Y-104145554D01*
X329667884Y-103911400D01*
X332613000Y-103911400D01*
X332613000Y-104399080D01*
X333100680Y-104399080D01*
X333100680Y-103911400D01*
X333618840Y-103911400D01*
X333618840Y-104399080D01*
X334137000Y-104399080D01*
X334137000Y-103911400D01*
X333618840Y-103911400D01*
X333100680Y-103911400D01*
X332613000Y-103911400D01*
X329667884Y-103911400D01*
X329674106Y-103880350D01*
X329745696Y-103621388D01*
X329775843Y-103530400D01*
X329875515Y-103273440D01*
X329993246Y-103025218D01*
X330078259Y-102875080D01*
X333100680Y-102875080D01*
X333100680Y-103393240D01*
X333618840Y-103393240D01*
X333618840Y-102875080D01*
X333100680Y-102875080D01*
X330078259Y-102875080D01*
X330128359Y-102786603D01*
X330280178Y-102558468D01*
X330448024Y-102341683D01*
X330631222Y-102137121D01*
X330829094Y-101945652D01*
X331040963Y-101768148D01*
X331266152Y-101605480D01*
X331276960Y-101598276D01*
X331510058Y-101455555D01*
X331752336Y-101330577D01*
X332002603Y-101223613D01*
X332259669Y-101134930D01*
X332522346Y-101064797D01*
X332789443Y-101013483D01*
X333059771Y-100981256D01*
X333332140Y-100968385D01*
X333605360Y-100975138D01*
X333605360Y-100975138D01*
G37*
X333605360Y-100975138D02*
X333878243Y-101001784D01*
X333903320Y-101005249D01*
X334177951Y-101054208D01*
X334445852Y-101122098D01*
X334706273Y-101208432D01*
X334958465Y-101312721D01*
X335201676Y-101434477D01*
X335435157Y-101573211D01*
X335658158Y-101728434D01*
X335869929Y-101899659D01*
X336069720Y-102086398D01*
X336256780Y-102288160D01*
X336430361Y-102504459D01*
X336589711Y-102734806D01*
X336610999Y-102768400D01*
X336744721Y-103000729D01*
X336861078Y-103242651D01*
X336959819Y-103492803D01*
X337040693Y-103749824D01*
X337103450Y-104012352D01*
X337147839Y-104279025D01*
X337173610Y-104548481D01*
X337180511Y-104819359D01*
X337168293Y-105090296D01*
X337136705Y-105359931D01*
X337113083Y-105496360D01*
X337050667Y-105767506D01*
X336969242Y-106031677D01*
X336869099Y-106288265D01*
X336750527Y-106536662D01*
X336613815Y-106776258D01*
X336459253Y-107006445D01*
X336294818Y-107217447D01*
X336235074Y-107285819D01*
X336163682Y-107362498D01*
X336084593Y-107443604D01*
X336001757Y-107525257D01*
X335919125Y-107603578D01*
X335840647Y-107674689D01*
X335770273Y-107734709D01*
X335757520Y-107745041D01*
X335534790Y-107910687D01*
X335301849Y-108058961D01*
X335059599Y-108189492D01*
X334808940Y-108301909D01*
X334550773Y-108395838D01*
X334285998Y-108470910D01*
X334015516Y-108526752D01*
X333786480Y-108558321D01*
X333688720Y-108566950D01*
X333579373Y-108573469D01*
X333464560Y-108577726D01*
X333350399Y-108579569D01*
X333243010Y-108578848D01*
X333148514Y-108575411D01*
X333133358Y-108574493D01*
X332855227Y-108546384D01*
X332582039Y-108498721D01*
X332314553Y-108431805D01*
X332053526Y-108345940D01*
X331799717Y-108241428D01*
X331553883Y-108118574D01*
X331316782Y-107977679D01*
X331089172Y-107819046D01*
X330932552Y-107694818D01*
X330864180Y-107635074D01*
X330787501Y-107563682D01*
X330706395Y-107484593D01*
X330624742Y-107401757D01*
X330546421Y-107319125D01*
X330475310Y-107240647D01*
X330415290Y-107170273D01*
X330404958Y-107157520D01*
X330239525Y-106935035D01*
X330091160Y-106701912D01*
X329960329Y-106459160D01*
X329847498Y-106207785D01*
X329753132Y-105948795D01*
X329745829Y-105923080D01*
X331576680Y-105923080D01*
X331576680Y-106441240D01*
X332094840Y-106441240D01*
X332094840Y-105923080D01*
X334624680Y-105923080D01*
X334624680Y-106441240D01*
X335142840Y-106441240D01*
X335142840Y-105923080D01*
X334624680Y-105923080D01*
X332094840Y-105923080D01*
X331576680Y-105923080D01*
X329745829Y-105923080D01*
X329677698Y-105683200D01*
X329636882Y-105496360D01*
X329595687Y-105229448D01*
X329573637Y-104958945D01*
X329573171Y-104917240D01*
X332094840Y-104917240D01*
X332094840Y-105435400D01*
X332613000Y-105435400D01*
X332613000Y-104917240D01*
X333100680Y-104917240D01*
X333100680Y-105435400D01*
X333618840Y-105435400D01*
X333618840Y-104917240D01*
X334137000Y-104917240D01*
X334137000Y-105435400D01*
X334624680Y-105435400D01*
X334624680Y-104917240D01*
X334137000Y-104917240D01*
X333618840Y-104917240D01*
X333100680Y-104917240D01*
X332613000Y-104917240D01*
X332094840Y-104917240D01*
X329573171Y-104917240D01*
X329570593Y-104686818D01*
X329586416Y-104415032D01*
X329620967Y-104145554D01*
X329667884Y-103911400D01*
X332613000Y-103911400D01*
X332613000Y-104399080D01*
X333100680Y-104399080D01*
X333100680Y-103911400D01*
X333618840Y-103911400D01*
X333618840Y-104399080D01*
X334137000Y-104399080D01*
X334137000Y-103911400D01*
X333618840Y-103911400D01*
X333100680Y-103911400D01*
X332613000Y-103911400D01*
X329667884Y-103911400D01*
X329674106Y-103880350D01*
X329745696Y-103621388D01*
X329775843Y-103530400D01*
X329875515Y-103273440D01*
X329993246Y-103025218D01*
X330078259Y-102875080D01*
X333100680Y-102875080D01*
X333100680Y-103393240D01*
X333618840Y-103393240D01*
X333618840Y-102875080D01*
X333100680Y-102875080D01*
X330078259Y-102875080D01*
X330128359Y-102786603D01*
X330280178Y-102558468D01*
X330448024Y-102341683D01*
X330631222Y-102137121D01*
X330829094Y-101945652D01*
X331040963Y-101768148D01*
X331266152Y-101605480D01*
X331276960Y-101598276D01*
X331510058Y-101455555D01*
X331752336Y-101330577D01*
X332002603Y-101223613D01*
X332259669Y-101134930D01*
X332522346Y-101064797D01*
X332789443Y-101013483D01*
X333059771Y-100981256D01*
X333332140Y-100968385D01*
X333605360Y-100975138D01*
D15*
X53975000Y-88265000D03*
D16*
X54991000Y-83185000D03*
X52959000Y-83185000D03*
D17*
X51435000Y-86995000D03*
X56515000Y-86995000D03*
D18*
X51435000Y-84455000D03*
D17*
X56515000Y-84455000D03*
D19*
X72622500Y-133340000D03*
D20*
X72622500Y-131590000D03*
X73872500Y-131590000D03*
X71372500Y-131590000D03*
X72622500Y-135090000D03*
X73872500Y-135090000D03*
X71372500Y-135090000D03*
D19*
X72622500Y-76200000D03*
D20*
X72622500Y-74200000D03*
X74122500Y-74700000D03*
X71122500Y-74700000D03*
X72622500Y-78200000D03*
X74122500Y-77700000D03*
X71122500Y-77700000D03*
X74622500Y-76200000D03*
X70622500Y-76200000D03*
D19*
X176212500Y-95250000D03*
D20*
X176212500Y-93500000D03*
X177462500Y-93500000D03*
X174962500Y-93500000D03*
X176212500Y-97000000D03*
X177462500Y-97000000D03*
X174962500Y-97000000D03*
D19*
X235602500Y-133350000D03*
D20*
X235602500Y-131600000D03*
X236852500Y-131600000D03*
X234352500Y-131600000D03*
X235602500Y-135100000D03*
X236852500Y-135100000D03*
X234352500Y-135100000D03*
D19*
X314342500Y-133350000D03*
D20*
X314342500Y-131600000D03*
X315592500Y-131600000D03*
X313092500Y-131600000D03*
X314342500Y-135100000D03*
X315592500Y-135100000D03*
X313092500Y-135100000D03*
D19*
X308072500Y-76200000D03*
D20*
X308072500Y-74450000D03*
X309322500Y-74450000D03*
X306822500Y-74450000D03*
X308072500Y-77950000D03*
X309322500Y-77950000D03*
X306822500Y-77950000D03*
D19*
X128587500Y-133350000D03*
D20*
X128587500Y-131350000D03*
X130087500Y-131850000D03*
X127087500Y-131850000D03*
X128587500Y-135350000D03*
X130087500Y-134850000D03*
X127087500Y-134850000D03*
X130587500Y-133350000D03*
X126587500Y-133350000D03*
D19*
X157956250Y-66675000D03*
D20*
X157956250Y-64675000D03*
X159456250Y-65175000D03*
X156456250Y-65175000D03*
X157956250Y-68675000D03*
X159456250Y-68175000D03*
X156456250Y-68175000D03*
X159956250Y-66675000D03*
X155956250Y-66675000D03*
D19*
X253206250Y-66675000D03*
D20*
X253206250Y-64675000D03*
X254706250Y-65175000D03*
X251706250Y-65175000D03*
X253206250Y-68675000D03*
X254706250Y-68175000D03*
X251706250Y-68175000D03*
X255206250Y-66675000D03*
X251206250Y-66675000D03*
D21*
X70557600Y-48600000D03*
X61917600Y-48600000D03*
D22*
X70557600Y-52780000D03*
X61917600Y-52780000D03*
D23*
X63347600Y-52250000D03*
X69127600Y-52250000D03*
D24*
X247650000Y-57150000D03*
D25*
X242570000Y-57150000D03*
X252730000Y-57150000D03*
D24*
X76200000Y-57150000D03*
D25*
X71120000Y-57150000D03*
X81280000Y-57150000D03*
D24*
X95250000Y-57150000D03*
D25*
X90170000Y-57150000D03*
X100330000Y-57150000D03*
D24*
X114300000Y-57150000D03*
D25*
X109220000Y-57150000D03*
X119380000Y-57150000D03*
D24*
X133350000Y-57150000D03*
D25*
X128270000Y-57150000D03*
X138430000Y-57150000D03*
D24*
X152400000Y-57150000D03*
D25*
X147320000Y-57150000D03*
X157480000Y-57150000D03*
D24*
X171450000Y-57150000D03*
D25*
X166370000Y-57150000D03*
X176530000Y-57150000D03*
D24*
X190500000Y-57150000D03*
D25*
X185420000Y-57150000D03*
X195580000Y-57150000D03*
D24*
X209550000Y-57150000D03*
D25*
X204470000Y-57150000D03*
X214630000Y-57150000D03*
D24*
X228600000Y-57150000D03*
D25*
X223520000Y-57150000D03*
X233680000Y-57150000D03*
D24*
X280987500Y-95250000D03*
D25*
X275907500Y-95250000D03*
X286067500Y-95250000D03*
D24*
X233362500Y-114300000D03*
D25*
X228282500Y-114300000D03*
X238442500Y-114300000D03*
D24*
X266700000Y-57150000D03*
D25*
X261620000Y-57150000D03*
X271780000Y-57150000D03*
D24*
X252412500Y-114300000D03*
D25*
X247332500Y-114300000D03*
X257492500Y-114300000D03*
D24*
X271462500Y-114300000D03*
D25*
X266382500Y-114300000D03*
X276542500Y-114300000D03*
D24*
X261937500Y-95250000D03*
D25*
X256857500Y-95250000D03*
X267017500Y-95250000D03*
D24*
X285750000Y-57150000D03*
D25*
X280670000Y-57150000D03*
X290830000Y-57150000D03*
D24*
X90487500Y-95250000D03*
D25*
X85407500Y-95250000D03*
X95567500Y-95250000D03*
D24*
X176212500Y-114300000D03*
D25*
X171132500Y-114300000D03*
X181292500Y-114300000D03*
D24*
X314325000Y-57150000D03*
D25*
X309245000Y-57150000D03*
X319405000Y-57150000D03*
D26*
X302387000Y-50165000D03*
X326263000Y-50165000D03*
D24*
X302387000Y-65405000D03*
X326263000Y-65405000D03*
X323850000Y-57150000D03*
D25*
X318770000Y-57150000D03*
X328930000Y-57150000D03*
D24*
X138112500Y-114300000D03*
D25*
X133032500Y-114300000D03*
X143192500Y-114300000D03*
D24*
X64293750Y-95250000D03*
D25*
X59213750Y-95250000D03*
X69373750Y-95250000D03*
D24*
X59531250Y-95250000D03*
D25*
X54451250Y-95250000D03*
X64611250Y-95250000D03*
D24*
X128587500Y-95250000D03*
D25*
X123507500Y-95250000D03*
X133667500Y-95250000D03*
D24*
X304800000Y-57150000D03*
D25*
X299720000Y-57150000D03*
X309880000Y-57150000D03*
D24*
X323850000Y-133350000D03*
D25*
X318770000Y-133350000D03*
X328930000Y-133350000D03*
D24*
X123825000Y-76200000D03*
D25*
X118745000Y-76200000D03*
X128905000Y-76200000D03*
D24*
X311943750Y-95250000D03*
D25*
X306863750Y-95250000D03*
X317023750Y-95250000D03*
D26*
X300005750Y-88265000D03*
X323881750Y-88265000D03*
D24*
X300005750Y-103505000D03*
X323881750Y-103505000D03*
X57150000Y-57150000D03*
D25*
X52070000Y-57150000D03*
X62230000Y-57150000D03*
D24*
X342900000Y-57150000D03*
D25*
X337820000Y-57150000D03*
X347980000Y-57150000D03*
D24*
X342900000Y-76200000D03*
D25*
X337820000Y-76200000D03*
X347980000Y-76200000D03*
D24*
X342900000Y-95250000D03*
D25*
X337820000Y-95250000D03*
X347980000Y-95250000D03*
D24*
X342900000Y-114300000D03*
D25*
X337820000Y-114300000D03*
X347980000Y-114300000D03*
D24*
X147637500Y-95250000D03*
D25*
X142557500Y-95250000D03*
X152717500Y-95250000D03*
D24*
X166687500Y-95250000D03*
D25*
X161607500Y-95250000D03*
X171767500Y-95250000D03*
D24*
X185737500Y-95250000D03*
D25*
X180657500Y-95250000D03*
X190817500Y-95250000D03*
D24*
X219075000Y-76200000D03*
D25*
X213995000Y-76200000D03*
X224155000Y-76200000D03*
D24*
X204787500Y-95250000D03*
D25*
X199707500Y-95250000D03*
X209867500Y-95250000D03*
D24*
X223837500Y-95250000D03*
D25*
X218757500Y-95250000D03*
X228917500Y-95250000D03*
D24*
X242887500Y-95250000D03*
D25*
X237807500Y-95250000D03*
X247967500Y-95250000D03*
D24*
X304800000Y-133350000D03*
D25*
X299720000Y-133350000D03*
X309880000Y-133350000D03*
D24*
X61912500Y-133350000D03*
D25*
X56832500Y-133350000D03*
X66992500Y-133350000D03*
D24*
X59531250Y-133350000D03*
D25*
X54451250Y-133350000D03*
X64611250Y-133350000D03*
D24*
X90487500Y-133350000D03*
D25*
X85407500Y-133350000D03*
X95567500Y-133350000D03*
D24*
X83343750Y-133350000D03*
D25*
X78263750Y-133350000D03*
X88423750Y-133350000D03*
D24*
X88106250Y-133350000D03*
D25*
X83026250Y-133350000D03*
X93186250Y-133350000D03*
D24*
X107156250Y-133350000D03*
D25*
X102076250Y-133350000D03*
X112236250Y-133350000D03*
D24*
X114300000Y-133350000D03*
D25*
X109220000Y-133350000D03*
X119380000Y-133350000D03*
D24*
X214312500Y-114300000D03*
D25*
X209232500Y-114300000D03*
X219392500Y-114300000D03*
D24*
X195262500Y-114300000D03*
D25*
X190182500Y-114300000D03*
X200342500Y-114300000D03*
D24*
X238125000Y-76200000D03*
D25*
X233045000Y-76200000D03*
X243205000Y-76200000D03*
D24*
X257175000Y-76200000D03*
D25*
X252095000Y-76200000D03*
X262255000Y-76200000D03*
D24*
X85725000Y-76200000D03*
D25*
X80645000Y-76200000D03*
X90805000Y-76200000D03*
D24*
X142875000Y-76200000D03*
D25*
X137795000Y-76200000D03*
X147955000Y-76200000D03*
D24*
X342900000Y-133350000D03*
D25*
X337820000Y-133350000D03*
X347980000Y-133350000D03*
D24*
X247650000Y-133350000D03*
D25*
X242570000Y-133350000D03*
X252730000Y-133350000D03*
D24*
X252412500Y-133350000D03*
D25*
X247332500Y-133350000D03*
X257492500Y-133350000D03*
D24*
X264318750Y-133350000D03*
D25*
X259238750Y-133350000D03*
X269398750Y-133350000D03*
D24*
X266700000Y-133350000D03*
D25*
X261620000Y-133350000D03*
X271780000Y-133350000D03*
D24*
X280987500Y-133350000D03*
D25*
X275907500Y-133350000D03*
X286067500Y-133350000D03*
D24*
X285750000Y-133350000D03*
D25*
X280670000Y-133350000D03*
X290830000Y-133350000D03*
D24*
X109537500Y-95250000D03*
D25*
X104457500Y-95250000D03*
X114617500Y-95250000D03*
D24*
X69056250Y-114300000D03*
D25*
X63976250Y-114300000D03*
X74136250Y-114300000D03*
D26*
X57118250Y-107315000D03*
X80994250Y-107315000D03*
D24*
X57118250Y-122555000D03*
X80994250Y-122555000D03*
X297656250Y-114300000D03*
D25*
X292576250Y-114300000D03*
X302736250Y-114300000D03*
D24*
X161925000Y-76200000D03*
D25*
X156845000Y-76200000D03*
X167005000Y-76200000D03*
D24*
X61912500Y-76200000D03*
D25*
X56832500Y-76200000D03*
X66992500Y-76200000D03*
D24*
X200025000Y-76200000D03*
D25*
X194945000Y-76200000D03*
X205105000Y-76200000D03*
D24*
X323850000Y-114300000D03*
D25*
X318770000Y-114300000D03*
X328930000Y-114300000D03*
D24*
X157162500Y-114300000D03*
D25*
X152082500Y-114300000D03*
X162242500Y-114300000D03*
D24*
X104775000Y-76200000D03*
D25*
X99695000Y-76200000D03*
X109855000Y-76200000D03*
D24*
X119062500Y-114300000D03*
D25*
X113982500Y-114300000D03*
X124142500Y-114300000D03*
D24*
X180975000Y-76200000D03*
D25*
X175895000Y-76200000D03*
X186055000Y-76200000D03*
D24*
X100012500Y-114300000D03*
D25*
X94932500Y-114300000D03*
X105092500Y-114300000D03*
D24*
X276225000Y-76200000D03*
D25*
X271145000Y-76200000D03*
X281305000Y-76200000D03*
D24*
X319087500Y-76200000D03*
D25*
X314007500Y-76200000D03*
X324167500Y-76200000D03*
D24*
X295275000Y-76200000D03*
D25*
X290195000Y-76200000D03*
X300355000Y-76200000D03*
D24*
X140493750Y-133350000D03*
D25*
X135413750Y-133350000D03*
X145573750Y-133350000D03*
D26*
X128555750Y-140335000D03*
X152431750Y-140335000D03*
D24*
X128555750Y-125095000D03*
X152431750Y-125095000D03*
X171450000Y-133350000D03*
D25*
X166370000Y-133350000D03*
X176530000Y-133350000D03*
D26*
X114300000Y-140335000D03*
X228600000Y-140335000D03*
D24*
X114300000Y-125095000D03*
X228600000Y-125095000D03*
X178593750Y-133350000D03*
D25*
X173513750Y-133350000D03*
X183673750Y-133350000D03*
D26*
X128593850Y-140335000D03*
X228593650Y-140335000D03*
D24*
X128593850Y-125095000D03*
X228593650Y-125095000D03*
X173831250Y-133350000D03*
D25*
X168751250Y-133350000D03*
X178911250Y-133350000D03*
D24*
X211931250Y-133350000D03*
D25*
X206851250Y-133350000D03*
X217011250Y-133350000D03*
D26*
X199993250Y-140335000D03*
X223869250Y-140335000D03*
D24*
X199993250Y-125095000D03*
X223869250Y-125095000D03*
X190500000Y-133350000D03*
D25*
X185420000Y-133350000D03*
X195580000Y-133350000D03*
D26*
X140500100Y-140335000D03*
X240499900Y-140335000D03*
D24*
X140500100Y-125095000D03*
X240499900Y-125095000D03*
X150018750Y-133350000D03*
D25*
X144938750Y-133350000D03*
X155098750Y-133350000D03*
D26*
X138080750Y-140335000D03*
X161956750Y-140335000D03*
D24*
X138080750Y-125095000D03*
X161956750Y-125095000D03*
X185737500Y-133350000D03*
D25*
X180657500Y-133350000D03*
X190817500Y-133350000D03*
D24*
X226218750Y-133350000D03*
D25*
X221138750Y-133350000D03*
X231298750Y-133350000D03*
D26*
X214280750Y-140335000D03*
X238156750Y-140335000D03*
D24*
X214280750Y-125095000D03*
X238156750Y-125095000D03*
M02*
