%TF.GenerationSoftware,KiCad,Pcbnew,4.0.7*%
%TF.CreationDate,2018-01-29T18:10:09-08:00*%
%TF.ProjectId,VoyagerII,566F796167657249492E6B696361645F,rev?*%
%TF.FileFunction,Soldermask,Top*%
%FSLAX46Y46*%
G04 Gerber Fmt 4.6, Leading zero omitted, Abs format (unit mm)*
G04 Created by KiCad (PCBNEW 4.0.7) date 01/29/18 18:10:09*
%MOMM*%
%LPD*%
G01*
G04 APERTURE LIST*
%ADD10C,0.100000*%
%ADD11C,2.501900*%
%ADD12C,7.401300*%
%ADD13C,7.400240*%
%ADD14C,2.200000*%
%ADD15O,2.100000X3.100000*%
%ADD16C,1.388060*%
%ADD17C,1.385520*%
%ADD18C,1.924000*%
%ADD19R,1.924000X1.924000*%
%ADD20C,2.650000*%
%ADD21C,2.650000*%
%ADD22C,4.387800*%
%ADD23C,2.101800*%
%ADD24C,3.448000*%
%ADD25C,2.305000*%
%ADD26R,2.305000X2.305000*%
G04 APERTURE END LIST*
D10*
D11*
X329200000Y-101799050D02*
X333000000Y-101799050D01*
X326549050Y-104450000D02*
G75*
G02X329200000Y-101799050I2650950J0D01*
G01*
X329200000Y-107100950D02*
G75*
G02X326549050Y-104450000I0J2650950D01*
G01*
X329200000Y-107100950D02*
X333050000Y-107100950D01*
X48000000Y-101799050D02*
X51800000Y-101799050D01*
X54450950Y-104450000D02*
G75*
G03X51800000Y-101799050I-2650950J0D01*
G01*
X51800000Y-107100950D02*
G75*
G03X54450950Y-104450000I0J2650950D01*
G01*
X48000000Y-107100950D02*
X51800000Y-107100950D01*
D12*
X73200000Y-75850000D03*
D13*
X176200000Y-94950000D03*
X238500000Y-133150000D03*
X308050000Y-75850000D03*
D14*
X73900000Y-94270000D03*
X80400000Y-98770000D03*
X73900000Y-98770000D03*
X80400000Y-94270000D03*
D15*
X62550000Y-54252250D03*
X69850000Y-54252250D03*
X69850000Y-49752250D03*
X62550000Y-49752250D03*
D16*
X167513000Y-134239000D03*
D17*
X166497000Y-139319000D03*
X168529000Y-139319000D03*
D18*
X170053000Y-135509000D03*
X164973000Y-135509000D03*
D19*
X170053000Y-138049000D03*
D18*
X164973000Y-138049000D03*
D20*
X250150000Y-52650000D02*
X250190000Y-52070000D01*
D21*
X250190000Y-52070000D03*
D20*
X243840000Y-54610000D02*
X245150000Y-53150000D01*
D22*
X247650000Y-57150000D03*
D21*
X245150000Y-53150000D03*
D23*
X242570000Y-57150000D03*
X252730000Y-57150000D03*
D20*
X78700000Y-52650000D02*
X78740000Y-52070000D01*
D21*
X78740000Y-52070000D03*
D20*
X72390000Y-54610000D02*
X73700000Y-53150000D01*
D22*
X76200000Y-57150000D03*
D21*
X73700000Y-53150000D03*
D23*
X71120000Y-57150000D03*
X81280000Y-57150000D03*
D20*
X97750000Y-52650000D02*
X97790000Y-52070000D01*
D21*
X97790000Y-52070000D03*
D20*
X91440000Y-54610000D02*
X92750000Y-53150000D01*
D22*
X95250000Y-57150000D03*
D21*
X92750000Y-53150000D03*
D23*
X90170000Y-57150000D03*
X100330000Y-57150000D03*
D20*
X116800000Y-52650000D02*
X116840000Y-52070000D01*
D21*
X116840000Y-52070000D03*
D20*
X110490000Y-54610000D02*
X111800000Y-53150000D01*
D22*
X114300000Y-57150000D03*
D21*
X111800000Y-53150000D03*
D23*
X109220000Y-57150000D03*
X119380000Y-57150000D03*
D20*
X135850000Y-52650000D02*
X135890000Y-52070000D01*
D21*
X135890000Y-52070000D03*
D20*
X129540000Y-54610000D02*
X130850000Y-53150000D01*
D22*
X133350000Y-57150000D03*
D21*
X130850000Y-53150000D03*
D23*
X128270000Y-57150000D03*
X138430000Y-57150000D03*
D20*
X154900000Y-52650000D02*
X154940000Y-52070000D01*
D21*
X154940000Y-52070000D03*
D20*
X148590000Y-54610000D02*
X149900000Y-53150000D01*
D22*
X152400000Y-57150000D03*
D21*
X149900000Y-53150000D03*
D23*
X147320000Y-57150000D03*
X157480000Y-57150000D03*
D20*
X173950000Y-52650000D02*
X173990000Y-52070000D01*
D21*
X173990000Y-52070000D03*
D20*
X167640000Y-54610000D02*
X168950000Y-53150000D01*
D22*
X171450000Y-57150000D03*
D21*
X168950000Y-53150000D03*
D23*
X166370000Y-57150000D03*
X176530000Y-57150000D03*
D20*
X193000000Y-52650000D02*
X193040000Y-52070000D01*
D21*
X193040000Y-52070000D03*
D20*
X186690000Y-54610000D02*
X188000000Y-53150000D01*
D22*
X190500000Y-57150000D03*
D21*
X188000000Y-53150000D03*
D23*
X185420000Y-57150000D03*
X195580000Y-57150000D03*
D20*
X212050000Y-52650000D02*
X212090000Y-52070000D01*
D21*
X212090000Y-52070000D03*
D20*
X205740000Y-54610000D02*
X207050000Y-53150000D01*
D22*
X209550000Y-57150000D03*
D21*
X207050000Y-53150000D03*
D23*
X204470000Y-57150000D03*
X214630000Y-57150000D03*
D20*
X231100000Y-52650000D02*
X231140000Y-52070000D01*
D21*
X231140000Y-52070000D03*
D20*
X224790000Y-54610000D02*
X226100000Y-53150000D01*
D22*
X228600000Y-57150000D03*
D21*
X226100000Y-53150000D03*
D23*
X223520000Y-57150000D03*
X233680000Y-57150000D03*
D20*
X283487500Y-90750000D02*
X283527500Y-90170000D01*
D21*
X283527500Y-90170000D03*
D20*
X277177500Y-92710000D02*
X278487500Y-91250000D01*
D22*
X280987500Y-95250000D03*
D21*
X278487500Y-91250000D03*
D23*
X275907500Y-95250000D03*
X286067500Y-95250000D03*
D20*
X235862500Y-109800000D02*
X235902500Y-109220000D01*
D21*
X235902500Y-109220000D03*
D20*
X229552500Y-111760000D02*
X230862500Y-110300000D01*
D22*
X233362500Y-114300000D03*
D21*
X230862500Y-110300000D03*
D23*
X228282500Y-114300000D03*
X238442500Y-114300000D03*
D20*
X269200000Y-52650000D02*
X269240000Y-52070000D01*
D21*
X269240000Y-52070000D03*
D20*
X262890000Y-54610000D02*
X264200000Y-53150000D01*
D22*
X266700000Y-57150000D03*
D21*
X264200000Y-53150000D03*
D23*
X261620000Y-57150000D03*
X271780000Y-57150000D03*
D20*
X254912500Y-109800000D02*
X254952500Y-109220000D01*
D21*
X254952500Y-109220000D03*
D20*
X248602500Y-111760000D02*
X249912500Y-110300000D01*
D22*
X252412500Y-114300000D03*
D21*
X249912500Y-110300000D03*
D23*
X247332500Y-114300000D03*
X257492500Y-114300000D03*
D20*
X264437500Y-90750000D02*
X264477500Y-90170000D01*
D21*
X264477500Y-90170000D03*
D20*
X258127500Y-92710000D02*
X259437500Y-91250000D01*
D22*
X261937500Y-95250000D03*
D21*
X259437500Y-91250000D03*
D23*
X256857500Y-95250000D03*
X267017500Y-95250000D03*
D20*
X288250000Y-52650000D02*
X288290000Y-52070000D01*
D21*
X288290000Y-52070000D03*
D20*
X281940000Y-54610000D02*
X283250000Y-53150000D01*
D22*
X285750000Y-57150000D03*
D21*
X283250000Y-53150000D03*
D23*
X280670000Y-57150000D03*
X290830000Y-57150000D03*
D20*
X92987500Y-90750000D02*
X93027500Y-90170000D01*
D21*
X93027500Y-90170000D03*
D20*
X86677500Y-92710000D02*
X87987500Y-91250000D01*
D22*
X90487500Y-95250000D03*
D21*
X87987500Y-91250000D03*
D23*
X85407500Y-95250000D03*
X95567500Y-95250000D03*
D20*
X178712500Y-109800000D02*
X178752500Y-109220000D01*
D21*
X178752500Y-109220000D03*
D20*
X172402500Y-111760000D02*
X173712500Y-110300000D01*
D22*
X176212500Y-114300000D03*
D21*
X173712500Y-110300000D03*
D23*
X171132500Y-114300000D03*
X181292500Y-114300000D03*
D20*
X326350000Y-52650000D02*
X326390000Y-52070000D01*
D21*
X326390000Y-52070000D03*
D20*
X320040000Y-54610000D02*
X321350000Y-53150000D01*
D22*
X323850000Y-57150000D03*
D21*
X321350000Y-53150000D03*
D23*
X318770000Y-57150000D03*
X328930000Y-57150000D03*
D20*
X140612500Y-109800000D02*
X140652500Y-109220000D01*
D21*
X140652500Y-109220000D03*
D20*
X134302500Y-111760000D02*
X135612500Y-110300000D01*
D22*
X138112500Y-114300000D03*
D21*
X135612500Y-110300000D03*
D23*
X133032500Y-114300000D03*
X143192500Y-114300000D03*
D20*
X66793750Y-90750000D02*
X66833750Y-90170000D01*
D21*
X66833750Y-90170000D03*
D20*
X60483750Y-92710000D02*
X61793750Y-91250000D01*
D22*
X64293750Y-95250000D03*
D21*
X61793750Y-91250000D03*
D23*
X59213750Y-95250000D03*
X69373750Y-95250000D03*
D20*
X62031250Y-90750000D02*
X62071250Y-90170000D01*
D21*
X62071250Y-90170000D03*
D20*
X55721250Y-92710000D02*
X57031250Y-91250000D01*
D22*
X59531250Y-95250000D03*
D21*
X57031250Y-91250000D03*
D23*
X54451250Y-95250000D03*
X64611250Y-95250000D03*
D20*
X131087500Y-90750000D02*
X131127500Y-90170000D01*
D21*
X131127500Y-90170000D03*
D20*
X124777500Y-92710000D02*
X126087500Y-91250000D01*
D22*
X128587500Y-95250000D03*
D21*
X126087500Y-91250000D03*
D23*
X123507500Y-95250000D03*
X133667500Y-95250000D03*
D20*
X307300000Y-52650000D02*
X307340000Y-52070000D01*
D21*
X307340000Y-52070000D03*
D20*
X300990000Y-54610000D02*
X302300000Y-53150000D01*
D22*
X304800000Y-57150000D03*
D21*
X302300000Y-53150000D03*
D23*
X299720000Y-57150000D03*
X309880000Y-57150000D03*
D20*
X126325000Y-71700000D02*
X126365000Y-71120000D01*
D21*
X126365000Y-71120000D03*
D20*
X120015000Y-73660000D02*
X121325000Y-72200000D01*
D22*
X123825000Y-76200000D03*
D21*
X121325000Y-72200000D03*
D23*
X118745000Y-76200000D03*
X128905000Y-76200000D03*
D20*
X314443750Y-90750000D02*
X314483750Y-90170000D01*
D21*
X314483750Y-90170000D03*
D20*
X308133750Y-92710000D02*
X309443750Y-91250000D01*
D22*
X311943750Y-95250000D03*
D21*
X309443750Y-91250000D03*
D23*
X306863750Y-95250000D03*
X317023750Y-95250000D03*
D24*
X300037500Y-88265000D03*
X323850000Y-88265000D03*
D22*
X300037500Y-103505000D03*
X323850000Y-103505000D03*
D20*
X325968750Y-88225000D02*
X326548750Y-88264998D01*
D21*
X326548750Y-88265000D03*
D20*
X324008750Y-81915000D02*
X325468758Y-83224990D01*
D22*
X321468750Y-85725000D03*
D21*
X325468750Y-83225000D03*
D23*
X321468750Y-80645000D03*
X321468750Y-90805000D03*
D21*
X323968750Y-89725000D03*
X318968750Y-90225000D03*
D24*
X328453750Y-97631250D03*
X328453750Y-73818750D03*
D22*
X313213750Y-97631250D03*
X313213750Y-73818750D03*
D20*
X59650000Y-52650000D02*
X59690000Y-52070000D01*
D21*
X59690000Y-52070000D03*
D20*
X53340000Y-54610000D02*
X54650000Y-53150000D01*
D22*
X57150000Y-57150000D03*
D21*
X54650000Y-53150000D03*
D23*
X52070000Y-57150000D03*
X62230000Y-57150000D03*
D20*
X150137500Y-90750000D02*
X150177500Y-90170000D01*
D21*
X150177500Y-90170000D03*
D20*
X143827500Y-92710000D02*
X145137500Y-91250000D01*
D22*
X147637500Y-95250000D03*
D21*
X145137500Y-91250000D03*
D23*
X142557500Y-95250000D03*
X152717500Y-95250000D03*
D20*
X169187500Y-90750000D02*
X169227500Y-90170000D01*
D21*
X169227500Y-90170000D03*
D20*
X162877500Y-92710000D02*
X164187500Y-91250000D01*
D22*
X166687500Y-95250000D03*
D21*
X164187500Y-91250000D03*
D23*
X161607500Y-95250000D03*
X171767500Y-95250000D03*
D20*
X188237500Y-90750000D02*
X188277500Y-90170000D01*
D21*
X188277500Y-90170000D03*
D20*
X181927500Y-92710000D02*
X183237500Y-91250000D01*
D22*
X185737500Y-95250000D03*
D21*
X183237500Y-91250000D03*
D23*
X180657500Y-95250000D03*
X190817500Y-95250000D03*
D20*
X221575000Y-71700000D02*
X221615000Y-71120000D01*
D21*
X221615000Y-71120000D03*
D20*
X215265000Y-73660000D02*
X216575000Y-72200000D01*
D22*
X219075000Y-76200000D03*
D21*
X216575000Y-72200000D03*
D23*
X213995000Y-76200000D03*
X224155000Y-76200000D03*
D20*
X83462500Y-109800000D02*
X83502500Y-109220000D01*
D21*
X83502500Y-109220000D03*
D20*
X77152500Y-111760000D02*
X78462500Y-110300000D01*
D22*
X80962500Y-114300000D03*
D21*
X78462500Y-110300000D03*
D23*
X75882500Y-114300000D03*
X86042500Y-114300000D03*
D20*
X302537500Y-90750000D02*
X302577500Y-90170000D01*
D21*
X302577500Y-90170000D03*
D20*
X296227500Y-92710000D02*
X297537500Y-91250000D01*
D22*
X300037500Y-95250000D03*
D21*
X297537500Y-91250000D03*
D23*
X294957500Y-95250000D03*
X305117500Y-95250000D03*
D20*
X207287500Y-90750000D02*
X207327500Y-90170000D01*
D21*
X207327500Y-90170000D03*
D20*
X200977500Y-92710000D02*
X202287500Y-91250000D01*
D22*
X204787500Y-95250000D03*
D21*
X202287500Y-91250000D03*
D23*
X199707500Y-95250000D03*
X209867500Y-95250000D03*
D20*
X226337500Y-90750000D02*
X226377500Y-90170000D01*
D21*
X226377500Y-90170000D03*
D20*
X220027500Y-92710000D02*
X221337500Y-91250000D01*
D22*
X223837500Y-95250000D03*
D21*
X221337500Y-91250000D03*
D23*
X218757500Y-95250000D03*
X228917500Y-95250000D03*
D20*
X245387500Y-90750000D02*
X245427500Y-90170000D01*
D21*
X245427500Y-90170000D03*
D20*
X239077500Y-92710000D02*
X240387500Y-91250000D01*
D22*
X242887500Y-95250000D03*
D21*
X240387500Y-91250000D03*
D23*
X237807500Y-95250000D03*
X247967500Y-95250000D03*
D20*
X216812500Y-109800000D02*
X216852500Y-109220000D01*
D21*
X216852500Y-109220000D03*
D20*
X210502500Y-111760000D02*
X211812500Y-110300000D01*
D22*
X214312500Y-114300000D03*
D21*
X211812500Y-110300000D03*
D23*
X209232500Y-114300000D03*
X219392500Y-114300000D03*
D20*
X197762500Y-109800000D02*
X197802500Y-109220000D01*
D21*
X197802500Y-109220000D03*
D20*
X191452500Y-111760000D02*
X192762500Y-110300000D01*
D22*
X195262500Y-114300000D03*
D21*
X192762500Y-110300000D03*
D23*
X190182500Y-114300000D03*
X200342500Y-114300000D03*
D20*
X240625000Y-71700000D02*
X240665000Y-71120000D01*
D21*
X240665000Y-71120000D03*
D20*
X234315000Y-73660000D02*
X235625000Y-72200000D01*
D22*
X238125000Y-76200000D03*
D21*
X235625000Y-72200000D03*
D23*
X233045000Y-76200000D03*
X243205000Y-76200000D03*
D20*
X259675000Y-71700000D02*
X259715000Y-71120000D01*
D21*
X259715000Y-71120000D03*
D20*
X253365000Y-73660000D02*
X254675000Y-72200000D01*
D22*
X257175000Y-76200000D03*
D21*
X254675000Y-72200000D03*
D23*
X252095000Y-76200000D03*
X262255000Y-76200000D03*
D20*
X88225000Y-71700000D02*
X88265000Y-71120000D01*
D21*
X88265000Y-71120000D03*
D20*
X81915000Y-73660000D02*
X83225000Y-72200000D01*
D22*
X85725000Y-76200000D03*
D21*
X83225000Y-72200000D03*
D23*
X80645000Y-76200000D03*
X90805000Y-76200000D03*
D20*
X145375000Y-71700000D02*
X145415000Y-71120000D01*
D21*
X145415000Y-71120000D03*
D20*
X139065000Y-73660000D02*
X140375000Y-72200000D01*
D22*
X142875000Y-76200000D03*
D21*
X140375000Y-72200000D03*
D23*
X137795000Y-76200000D03*
X147955000Y-76200000D03*
D20*
X112037500Y-90750000D02*
X112077500Y-90170000D01*
D21*
X112077500Y-90170000D03*
D20*
X105727500Y-92710000D02*
X107037500Y-91250000D01*
D22*
X109537500Y-95250000D03*
D21*
X107037500Y-91250000D03*
D23*
X104457500Y-95250000D03*
X114617500Y-95250000D03*
D20*
X71556250Y-109800000D02*
X71596250Y-109220000D01*
D21*
X71596250Y-109220000D03*
D20*
X65246250Y-111760000D02*
X66556250Y-110300000D01*
D22*
X69056250Y-114300000D03*
D21*
X66556250Y-110300000D03*
D23*
X63976250Y-114300000D03*
X74136250Y-114300000D03*
D24*
X57150000Y-107315000D03*
X80962500Y-107315000D03*
D22*
X57150000Y-122555000D03*
X80962500Y-122555000D03*
D20*
X62031250Y-109800000D02*
X62071250Y-109220000D01*
D21*
X62071250Y-109220000D03*
D20*
X55721250Y-111760000D02*
X57031250Y-110300000D01*
D22*
X59531250Y-114300000D03*
D21*
X57031250Y-110300000D03*
D23*
X54451250Y-114300000D03*
X64611250Y-114300000D03*
D20*
X164425000Y-71700000D02*
X164465000Y-71120000D01*
D21*
X164465000Y-71120000D03*
D20*
X158115000Y-73660000D02*
X159425000Y-72200000D01*
D22*
X161925000Y-76200000D03*
D21*
X159425000Y-72200000D03*
D23*
X156845000Y-76200000D03*
X167005000Y-76200000D03*
D20*
X64412500Y-71700000D02*
X64452500Y-71120000D01*
D21*
X64452500Y-71120000D03*
D20*
X58102500Y-73660000D02*
X59412500Y-72200000D01*
D22*
X61912500Y-76200000D03*
D21*
X59412500Y-72200000D03*
D23*
X56832500Y-76200000D03*
X66992500Y-76200000D03*
D20*
X202525000Y-71700000D02*
X202565000Y-71120000D01*
D21*
X202565000Y-71120000D03*
D20*
X196215000Y-73660000D02*
X197525000Y-72200000D01*
D22*
X200025000Y-76200000D03*
D21*
X197525000Y-72200000D03*
D23*
X194945000Y-76200000D03*
X205105000Y-76200000D03*
D20*
X159662500Y-109800000D02*
X159702500Y-109220000D01*
D21*
X159702500Y-109220000D03*
D20*
X153352500Y-111760000D02*
X154662500Y-110300000D01*
D22*
X157162500Y-114300000D03*
D21*
X154662500Y-110300000D03*
D23*
X152082500Y-114300000D03*
X162242500Y-114300000D03*
D20*
X107275000Y-71700000D02*
X107315000Y-71120000D01*
D21*
X107315000Y-71120000D03*
D20*
X100965000Y-73660000D02*
X102275000Y-72200000D01*
D22*
X104775000Y-76200000D03*
D21*
X102275000Y-72200000D03*
D23*
X99695000Y-76200000D03*
X109855000Y-76200000D03*
D20*
X121562500Y-109800000D02*
X121602500Y-109220000D01*
D21*
X121602500Y-109220000D03*
D20*
X115252500Y-111760000D02*
X116562500Y-110300000D01*
D22*
X119062500Y-114300000D03*
D21*
X116562500Y-110300000D03*
D23*
X113982500Y-114300000D03*
X124142500Y-114300000D03*
D20*
X183475000Y-71700000D02*
X183515000Y-71120000D01*
D21*
X183515000Y-71120000D03*
D20*
X177165000Y-73660000D02*
X178475000Y-72200000D01*
D22*
X180975000Y-76200000D03*
D21*
X178475000Y-72200000D03*
D23*
X175895000Y-76200000D03*
X186055000Y-76200000D03*
D20*
X102512500Y-109800000D02*
X102552500Y-109220000D01*
D21*
X102552500Y-109220000D03*
D20*
X96202500Y-111760000D02*
X97512500Y-110300000D01*
D22*
X100012500Y-114300000D03*
D21*
X97512500Y-110300000D03*
D23*
X94932500Y-114300000D03*
X105092500Y-114300000D03*
D20*
X278725000Y-71700000D02*
X278765000Y-71120000D01*
D21*
X278765000Y-71120000D03*
D20*
X272415000Y-73660000D02*
X273725000Y-72200000D01*
D22*
X276225000Y-76200000D03*
D21*
X273725000Y-72200000D03*
D23*
X271145000Y-76200000D03*
X281305000Y-76200000D03*
D20*
X321587500Y-71700000D02*
X321627500Y-71120000D01*
D21*
X321627500Y-71120000D03*
D20*
X315277500Y-73660000D02*
X316587500Y-72200000D01*
D22*
X319087500Y-76200000D03*
D21*
X316587500Y-72200000D03*
D23*
X314007500Y-76200000D03*
X324167500Y-76200000D03*
D20*
X297775000Y-71700000D02*
X297815000Y-71120000D01*
D21*
X297815000Y-71120000D03*
D20*
X291465000Y-73660000D02*
X292775000Y-72200000D01*
D22*
X295275000Y-76200000D03*
D21*
X292775000Y-72200000D03*
D23*
X290195000Y-76200000D03*
X300355000Y-76200000D03*
D20*
X62031250Y-128850000D02*
X62071250Y-128270000D01*
D21*
X62071250Y-128270000D03*
D20*
X55721250Y-130810000D02*
X57031250Y-129350000D01*
D22*
X59531250Y-133350000D03*
D21*
X57031250Y-129350000D03*
D23*
X54451250Y-133350000D03*
X64611250Y-133350000D03*
D20*
X64412500Y-128850000D02*
X64452500Y-128270000D01*
D21*
X64452500Y-128270000D03*
D20*
X58102500Y-130810000D02*
X59412500Y-129350000D01*
D22*
X61912500Y-133350000D03*
D21*
X59412500Y-129350000D03*
D23*
X56832500Y-133350000D03*
X66992500Y-133350000D03*
D20*
X85843750Y-128850000D02*
X85883750Y-128270000D01*
D21*
X85883750Y-128270000D03*
D20*
X79533750Y-130810000D02*
X80843750Y-129350000D01*
D22*
X83343750Y-133350000D03*
D21*
X80843750Y-129350000D03*
D23*
X78263750Y-133350000D03*
X88423750Y-133350000D03*
D20*
X88225000Y-128850000D02*
X88265000Y-128270000D01*
D21*
X88265000Y-128270000D03*
D20*
X81915000Y-130810000D02*
X83225000Y-129350000D01*
D22*
X85725000Y-133350000D03*
D21*
X83225000Y-129350000D03*
D23*
X80645000Y-133350000D03*
X90805000Y-133350000D03*
D20*
X109656250Y-128850000D02*
X109696250Y-128270000D01*
D21*
X109696250Y-128270000D03*
D20*
X103346250Y-130810000D02*
X104656250Y-129350000D01*
D22*
X107156250Y-133350000D03*
D21*
X104656250Y-129350000D03*
D23*
X102076250Y-133350000D03*
X112236250Y-133350000D03*
D20*
X112037500Y-128850000D02*
X112077500Y-128270000D01*
D21*
X112077500Y-128270000D03*
D20*
X105727500Y-130810000D02*
X107037500Y-129350000D01*
D22*
X109537500Y-133350000D03*
D21*
X107037500Y-129350000D03*
D23*
X104457500Y-133350000D03*
X114617500Y-133350000D03*
D20*
X250150000Y-128850000D02*
X250190000Y-128270000D01*
D21*
X250190000Y-128270000D03*
D20*
X243840000Y-130810000D02*
X245150000Y-129350000D01*
D22*
X247650000Y-133350000D03*
D21*
X245150000Y-129350000D03*
D23*
X242570000Y-133350000D03*
X252730000Y-133350000D03*
D20*
X269200000Y-128850000D02*
X269240000Y-128270000D01*
D21*
X269240000Y-128270000D03*
D20*
X262890000Y-130810000D02*
X264200000Y-129350000D01*
D22*
X266700000Y-133350000D03*
D21*
X264200000Y-129350000D03*
D23*
X261620000Y-133350000D03*
X271780000Y-133350000D03*
D20*
X273962500Y-128850000D02*
X274002500Y-128270000D01*
D21*
X274002500Y-128270000D03*
D20*
X267652500Y-130810000D02*
X268962500Y-129350000D01*
D22*
X271462500Y-133350000D03*
D21*
X268962500Y-129350000D03*
D23*
X266382500Y-133350000D03*
X276542500Y-133350000D03*
D20*
X288250000Y-128850000D02*
X288290000Y-128270000D01*
D21*
X288290000Y-128270000D03*
D20*
X281940000Y-130810000D02*
X283250000Y-129350000D01*
D22*
X285750000Y-133350000D03*
D21*
X283250000Y-129350000D03*
D23*
X280670000Y-133350000D03*
X290830000Y-133350000D03*
D20*
X297775000Y-128850000D02*
X297815000Y-128270000D01*
D21*
X297815000Y-128270000D03*
D20*
X291465000Y-130810000D02*
X292775000Y-129350000D01*
D22*
X295275000Y-133350000D03*
D21*
X292775000Y-129350000D03*
D23*
X290195000Y-133350000D03*
X300355000Y-133350000D03*
D20*
X307300000Y-128850000D02*
X307340000Y-128270000D01*
D21*
X307340000Y-128270000D03*
D20*
X300990000Y-130810000D02*
X302300000Y-129350000D01*
D22*
X304800000Y-133350000D03*
D21*
X302300000Y-129350000D03*
D23*
X299720000Y-133350000D03*
X309880000Y-133350000D03*
D20*
X321587500Y-128850000D02*
X321627500Y-128270000D01*
D21*
X321627500Y-128270000D03*
D20*
X315277500Y-130810000D02*
X316587500Y-129350000D01*
D22*
X319087500Y-133350000D03*
D21*
X316587500Y-129350000D03*
D23*
X314007500Y-133350000D03*
X324167500Y-133350000D03*
D20*
X326350000Y-128850000D02*
X326390000Y-128270000D01*
D21*
X326390000Y-128270000D03*
D20*
X320040000Y-130810000D02*
X321350000Y-129350000D01*
D22*
X323850000Y-133350000D03*
D21*
X321350000Y-129350000D03*
D23*
X318770000Y-133350000D03*
X328930000Y-133350000D03*
D20*
X273962500Y-109800000D02*
X274002500Y-109220000D01*
D21*
X274002500Y-109220000D03*
D20*
X267652500Y-111760000D02*
X268962500Y-110300000D01*
D22*
X271462500Y-114300000D03*
D21*
X268962500Y-110300000D03*
D23*
X266382500Y-114300000D03*
X276542500Y-114300000D03*
D20*
X309681250Y-109800000D02*
X309721250Y-109220000D01*
D21*
X309721250Y-109220000D03*
D20*
X303371250Y-111760000D02*
X304681250Y-110300000D01*
D22*
X307181250Y-114300000D03*
D21*
X304681250Y-110300000D03*
D23*
X302101250Y-114300000D03*
X312261250Y-114300000D03*
D24*
X295275000Y-107315000D03*
X319087500Y-107315000D03*
D22*
X295275000Y-122555000D03*
X319087500Y-122555000D03*
D20*
X281106250Y-109800000D02*
X281146250Y-109220000D01*
D21*
X281146250Y-109220000D03*
D20*
X274796250Y-111760000D02*
X276106250Y-110300000D01*
D22*
X278606250Y-114300000D03*
D21*
X276106250Y-110300000D03*
D23*
X273526250Y-114300000D03*
X283686250Y-114300000D03*
D20*
X300156250Y-109800000D02*
X300196250Y-109220000D01*
D21*
X300196250Y-109220000D03*
D20*
X293846250Y-111760000D02*
X295156250Y-110300000D01*
D22*
X297656250Y-114300000D03*
D21*
X295156250Y-110300000D03*
D23*
X292576250Y-114300000D03*
X302736250Y-114300000D03*
D20*
X307300000Y-109800000D02*
X307340000Y-109220000D01*
D21*
X307340000Y-109220000D03*
D20*
X300990000Y-111760000D02*
X302300000Y-110300000D01*
D22*
X304800000Y-114300000D03*
D21*
X302300000Y-110300000D03*
D23*
X299720000Y-114300000D03*
X309880000Y-114300000D03*
D20*
X326350000Y-109800000D02*
X326390000Y-109220000D01*
D21*
X326390000Y-109220000D03*
D20*
X320040000Y-111760000D02*
X321350000Y-110300000D01*
D22*
X323850000Y-114300000D03*
D21*
X321350000Y-110300000D03*
D23*
X318770000Y-114300000D03*
X328930000Y-114300000D03*
D20*
X181093750Y-128850000D02*
X181133750Y-128270000D01*
D21*
X181133750Y-128270000D03*
D20*
X174783750Y-130810000D02*
X176093750Y-129350000D01*
D22*
X178593750Y-133350000D03*
D21*
X176093750Y-129350000D03*
D23*
X173513750Y-133350000D03*
X183673750Y-133350000D03*
D24*
X128593850Y-140335000D03*
X228593650Y-140335000D03*
D22*
X128593850Y-125095000D03*
X228593650Y-125095000D03*
D20*
X193000000Y-128850000D02*
X193040000Y-128270000D01*
D21*
X193040000Y-128270000D03*
D20*
X186690000Y-130810000D02*
X188000000Y-129350000D01*
D22*
X190500000Y-133350000D03*
D21*
X188000000Y-129350000D03*
D23*
X185420000Y-133350000D03*
X195580000Y-133350000D03*
D24*
X133350000Y-140335000D03*
X247650000Y-140335000D03*
D22*
X133350000Y-125095000D03*
X247650000Y-125095000D03*
D25*
X55880000Y-62230000D03*
D26*
X58420000Y-62230000D03*
D25*
X74930000Y-62230000D03*
D26*
X77470000Y-62230000D03*
D25*
X93980000Y-62230000D03*
D26*
X96520000Y-62230000D03*
D25*
X113030000Y-62230000D03*
D26*
X115570000Y-62230000D03*
D25*
X132080000Y-62230000D03*
D26*
X134620000Y-62230000D03*
D25*
X151130000Y-62230000D03*
D26*
X153670000Y-62230000D03*
D25*
X170180000Y-62230000D03*
D26*
X172720000Y-62230000D03*
D25*
X189230000Y-62230000D03*
D26*
X191770000Y-62230000D03*
D25*
X208280000Y-62230000D03*
D26*
X210820000Y-62230000D03*
D25*
X227330000Y-62230000D03*
D26*
X229870000Y-62230000D03*
D25*
X246380000Y-62230000D03*
D26*
X248920000Y-62230000D03*
D25*
X265430000Y-62230000D03*
D26*
X267970000Y-62230000D03*
D25*
X284480000Y-62230000D03*
D26*
X287020000Y-62230000D03*
D25*
X303530000Y-62230000D03*
D26*
X306070000Y-62230000D03*
D25*
X313055000Y-62230000D03*
D26*
X315595000Y-62230000D03*
D25*
X60642500Y-81280000D03*
D26*
X63182500Y-81280000D03*
D25*
X84455000Y-81280000D03*
D26*
X86995000Y-81280000D03*
D25*
X103505000Y-81280000D03*
D26*
X106045000Y-81280000D03*
D25*
X122555000Y-81280000D03*
D26*
X125095000Y-81280000D03*
D25*
X141605000Y-81280000D03*
D26*
X144145000Y-81280000D03*
D25*
X160655000Y-81280000D03*
D26*
X163195000Y-81280000D03*
D25*
X179705000Y-81280000D03*
D26*
X182245000Y-81280000D03*
D25*
X198755000Y-81280000D03*
D26*
X201295000Y-81280000D03*
D25*
X217805000Y-81280000D03*
D26*
X220345000Y-81280000D03*
D25*
X236855000Y-81280000D03*
D26*
X239395000Y-81280000D03*
D25*
X255905000Y-81280000D03*
D26*
X258445000Y-81280000D03*
D25*
X274955000Y-81280000D03*
D26*
X277495000Y-81280000D03*
D25*
X294005000Y-81280000D03*
D26*
X296545000Y-81280000D03*
D25*
X317817500Y-81280000D03*
D26*
X320357500Y-81280000D03*
D25*
X63023750Y-100330000D03*
D26*
X65563750Y-100330000D03*
D25*
X89217500Y-100330000D03*
D26*
X91757500Y-100330000D03*
D25*
X108267500Y-100330000D03*
D26*
X110807500Y-100330000D03*
D25*
X127317500Y-100330000D03*
D26*
X129857500Y-100330000D03*
D25*
X146367500Y-100330000D03*
D26*
X148907500Y-100330000D03*
D25*
X165417500Y-100330000D03*
D26*
X167957500Y-100330000D03*
D25*
X184467500Y-100330000D03*
D26*
X187007500Y-100330000D03*
D25*
X203517500Y-100330000D03*
D26*
X206057500Y-100330000D03*
D25*
X222567500Y-100330000D03*
D26*
X225107500Y-100330000D03*
D25*
X241617500Y-100330000D03*
D26*
X244157500Y-100330000D03*
D25*
X260667500Y-100330000D03*
D26*
X263207500Y-100330000D03*
D25*
X279717500Y-100330000D03*
D26*
X282257500Y-100330000D03*
D25*
X310673750Y-100330000D03*
D26*
X313213750Y-100330000D03*
D25*
X67786250Y-119380000D03*
D26*
X70326250Y-119380000D03*
D25*
X79692500Y-119380000D03*
D26*
X82232500Y-119380000D03*
D25*
X98742500Y-119380000D03*
D26*
X101282500Y-119380000D03*
D25*
X117792500Y-119380000D03*
D26*
X120332500Y-119380000D03*
D25*
X136842500Y-119380000D03*
D26*
X139382500Y-119380000D03*
D25*
X155892500Y-119380000D03*
D26*
X158432500Y-119380000D03*
D25*
X174942500Y-119380000D03*
D26*
X177482500Y-119380000D03*
D25*
X193992500Y-119380000D03*
D26*
X196532500Y-119380000D03*
D25*
X213042500Y-119380000D03*
D26*
X215582500Y-119380000D03*
D25*
X232092500Y-119380000D03*
D26*
X234632500Y-119380000D03*
D25*
X251142500Y-119380000D03*
D26*
X253682500Y-119380000D03*
D25*
X270192500Y-119380000D03*
D26*
X272732500Y-119380000D03*
D25*
X296386250Y-119380000D03*
D26*
X298926250Y-119380000D03*
D25*
X322580000Y-119380000D03*
D26*
X325120000Y-119380000D03*
D25*
X58261250Y-138430000D03*
D26*
X60801250Y-138430000D03*
D25*
X82073750Y-138430000D03*
D26*
X84613750Y-138430000D03*
D25*
X105886250Y-138430000D03*
D26*
X108426250Y-138430000D03*
D25*
X177323750Y-138430000D03*
D26*
X179863750Y-138430000D03*
D25*
X246380000Y-138430000D03*
D26*
X248920000Y-138430000D03*
D25*
X265430000Y-138430000D03*
D26*
X267970000Y-138430000D03*
D25*
X284480000Y-138430000D03*
D26*
X287020000Y-138430000D03*
D25*
X303530000Y-138430000D03*
D26*
X306070000Y-138430000D03*
D25*
X322580000Y-138430000D03*
D26*
X325120000Y-138430000D03*
X58261250Y-100330000D03*
D25*
X60801250Y-100330000D03*
D26*
X60642500Y-138430000D03*
D25*
X63182500Y-138430000D03*
D26*
X84455000Y-138430000D03*
D25*
X86995000Y-138430000D03*
D26*
X108267500Y-138430000D03*
D25*
X110807500Y-138430000D03*
X189230000Y-138430000D03*
D26*
X191770000Y-138430000D03*
D25*
X322580000Y-62230000D03*
D26*
X325120000Y-62230000D03*
D25*
X298767500Y-100330000D03*
D26*
X301307500Y-100330000D03*
D25*
X316388750Y-84455000D03*
D26*
X316388750Y-86995000D03*
D25*
X277336250Y-119380000D03*
D26*
X279876250Y-119380000D03*
D25*
X303530000Y-119380000D03*
D26*
X306070000Y-119380000D03*
X305911250Y-119380000D03*
D25*
X308451250Y-119380000D03*
D26*
X270192500Y-138430000D03*
D25*
X272732500Y-138430000D03*
X294005000Y-138430000D03*
D26*
X296545000Y-138430000D03*
X317817500Y-138430000D03*
D25*
X320357500Y-138430000D03*
D20*
X316825000Y-52650000D02*
X316865000Y-52070000D01*
D21*
X316865000Y-52070000D03*
D20*
X310515000Y-54610000D02*
X311825000Y-53150000D01*
D22*
X314325000Y-57150000D03*
D21*
X311825000Y-53150000D03*
D23*
X309245000Y-57150000D03*
X319405000Y-57150000D03*
D24*
X302418750Y-50165000D03*
X326231250Y-50165000D03*
D22*
X302418750Y-65405000D03*
X326231250Y-65405000D03*
M02*
