%TF.GenerationSoftware,KiCad,Pcbnew,4.0.7*%
%TF.CreationDate,2018-03-18T17:48:38-07:00*%
%TF.ProjectId,VoyagerII,566F796167657249492E6B696361645F,rev?*%
%TF.FileFunction,Legend,Bot*%
%FSLAX46Y46*%
G04 Gerber Fmt 4.6, Leading zero omitted, Abs format (unit mm)*
G04 Created by KiCad (PCBNEW 4.0.7) date 03/18/18 17:48:38*
%MOMM*%
%LPD*%
G01*
G04 APERTURE LIST*
%ADD10C,0.100000*%
%ADD11C,0.150000*%
%ADD12C,0.350000*%
%ADD13C,0.650000*%
%ADD14C,0.120000*%
%ADD15C,0.200000*%
%ADD16C,0.127000*%
G04 APERTURE END LIST*
D10*
D11*
X68238428Y-50871381D02*
X68571762Y-50395190D01*
X68809857Y-50871381D02*
X68809857Y-49871381D01*
X68428904Y-49871381D01*
X68333666Y-49919000D01*
X68286047Y-49966619D01*
X68238428Y-50061857D01*
X68238428Y-50204714D01*
X68286047Y-50299952D01*
X68333666Y-50347571D01*
X68428904Y-50395190D01*
X68809857Y-50395190D01*
X67428904Y-50823762D02*
X67524142Y-50871381D01*
X67714619Y-50871381D01*
X67809857Y-50823762D01*
X67857476Y-50728524D01*
X67857476Y-50347571D01*
X67809857Y-50252333D01*
X67714619Y-50204714D01*
X67524142Y-50204714D01*
X67428904Y-50252333D01*
X67381285Y-50347571D01*
X67381285Y-50442810D01*
X67857476Y-50538048D01*
X67047952Y-50204714D02*
X66809857Y-50871381D01*
X66571761Y-50204714D01*
X64905094Y-50871381D02*
X65476523Y-50871381D01*
X65190809Y-50871381D02*
X65190809Y-49871381D01*
X65286047Y-50014238D01*
X65381285Y-50109476D01*
X65476523Y-50157095D01*
X64476523Y-50776143D02*
X64428904Y-50823762D01*
X64476523Y-50871381D01*
X64524142Y-50823762D01*
X64476523Y-50776143D01*
X64476523Y-50871381D01*
X63524142Y-49871381D02*
X64000333Y-49871381D01*
X64047952Y-50347571D01*
X64000333Y-50299952D01*
X63905095Y-50252333D01*
X63666999Y-50252333D01*
X63571761Y-50299952D01*
X63524142Y-50347571D01*
X63476523Y-50442810D01*
X63476523Y-50680905D01*
X63524142Y-50776143D01*
X63571761Y-50823762D01*
X63666999Y-50871381D01*
X63905095Y-50871381D01*
X64000333Y-50823762D01*
X64047952Y-50776143D01*
X164679238Y-140311143D02*
X164726857Y-140358762D01*
X164869714Y-140406381D01*
X164964952Y-140406381D01*
X165107810Y-140358762D01*
X165203048Y-140263524D01*
X165250667Y-140168286D01*
X165298286Y-139977810D01*
X165298286Y-139834952D01*
X165250667Y-139644476D01*
X165203048Y-139549238D01*
X165107810Y-139454000D01*
X164964952Y-139406381D01*
X164869714Y-139406381D01*
X164726857Y-139454000D01*
X164679238Y-139501619D01*
X163774476Y-140406381D02*
X164250667Y-140406381D01*
X164250667Y-139406381D01*
X163441143Y-140406381D02*
X163441143Y-139406381D01*
X162869714Y-140406381D02*
X163298286Y-139834952D01*
X162869714Y-139406381D02*
X163441143Y-139977810D01*
X165099904Y-133231000D02*
X165195142Y-133183381D01*
X165337999Y-133183381D01*
X165480857Y-133231000D01*
X165576095Y-133326238D01*
X165623714Y-133421476D01*
X165671333Y-133611952D01*
X165671333Y-133754810D01*
X165623714Y-133945286D01*
X165576095Y-134040524D01*
X165480857Y-134135762D01*
X165337999Y-134183381D01*
X165242761Y-134183381D01*
X165099904Y-134135762D01*
X165052285Y-134088143D01*
X165052285Y-133754810D01*
X165242761Y-133754810D01*
X164623714Y-134183381D02*
X164623714Y-133183381D01*
X164052285Y-134183381D01*
X164052285Y-133183381D01*
X163576095Y-134183381D02*
X163576095Y-133183381D01*
X163338000Y-133183381D01*
X163195142Y-133231000D01*
X163099904Y-133326238D01*
X163052285Y-133421476D01*
X163004666Y-133611952D01*
X163004666Y-133754810D01*
X163052285Y-133945286D01*
X163099904Y-134040524D01*
X163195142Y-134135762D01*
X163338000Y-134183381D01*
X163576095Y-134183381D01*
X173339000Y-138501381D02*
X173339000Y-137501381D01*
X172958047Y-137501381D01*
X172862809Y-137549000D01*
X172815190Y-137596619D01*
X172767571Y-137691857D01*
X172767571Y-137834714D01*
X172815190Y-137929952D01*
X172862809Y-137977571D01*
X172958047Y-138025190D01*
X173339000Y-138025190D01*
X172339000Y-138501381D02*
X172339000Y-137501381D01*
X172100905Y-137501381D01*
X171958047Y-137549000D01*
X171862809Y-137644238D01*
X171815190Y-137739476D01*
X171767571Y-137929952D01*
X171767571Y-138072810D01*
X171815190Y-138263286D01*
X171862809Y-138358524D01*
X171958047Y-138453762D01*
X172100905Y-138501381D01*
X172339000Y-138501381D01*
X171339000Y-138501381D02*
X171339000Y-137501381D01*
X173926333Y-134961381D02*
X173593000Y-135961381D01*
X173259666Y-134961381D01*
X172354904Y-135866143D02*
X172402523Y-135913762D01*
X172545380Y-135961381D01*
X172640618Y-135961381D01*
X172783476Y-135913762D01*
X172878714Y-135818524D01*
X172926333Y-135723286D01*
X172973952Y-135532810D01*
X172973952Y-135389952D01*
X172926333Y-135199476D01*
X172878714Y-135104238D01*
X172783476Y-135009000D01*
X172640618Y-134961381D01*
X172545380Y-134961381D01*
X172402523Y-135009000D01*
X172354904Y-135056619D01*
X171354904Y-135866143D02*
X171402523Y-135913762D01*
X171545380Y-135961381D01*
X171640618Y-135961381D01*
X171783476Y-135913762D01*
X171878714Y-135818524D01*
X171926333Y-135723286D01*
X171973952Y-135532810D01*
X171973952Y-135389952D01*
X171926333Y-135199476D01*
X171878714Y-135104238D01*
X171783476Y-135009000D01*
X171640618Y-134961381D01*
X171545380Y-134961381D01*
X171402523Y-135009000D01*
X171354904Y-135056619D01*
D12*
X73152000Y-75946000D02*
X48006000Y-65278000D01*
X72898000Y-75946000D02*
X48006000Y-81534000D01*
D13*
X262862665Y-102290905D02*
X260529332Y-107290905D01*
X258195999Y-102290905D01*
X254529332Y-102290905D02*
X253195999Y-102290905D01*
X252529332Y-102529000D01*
X251862665Y-103005190D01*
X251529332Y-103957571D01*
X251529332Y-105624238D01*
X251862665Y-106576619D01*
X252529332Y-107052810D01*
X253195999Y-107290905D01*
X254529332Y-107290905D01*
X255195999Y-107052810D01*
X255862665Y-106576619D01*
X256195999Y-105624238D01*
X256195999Y-103957571D01*
X255862665Y-103005190D01*
X255195999Y-102529000D01*
X254529332Y-102290905D01*
X247195999Y-104909952D02*
X247195999Y-107290905D01*
X249529332Y-102290905D02*
X247195999Y-104909952D01*
X244862666Y-102290905D01*
X242862666Y-105862333D02*
X239529332Y-105862333D01*
X243529332Y-107290905D02*
X241195999Y-102290905D01*
X238862666Y-107290905D01*
X232862666Y-102529000D02*
X233529332Y-102290905D01*
X234529332Y-102290905D01*
X235529332Y-102529000D01*
X236195999Y-103005190D01*
X236529332Y-103481381D01*
X236862666Y-104433762D01*
X236862666Y-105148048D01*
X236529332Y-106100429D01*
X236195999Y-106576619D01*
X235529332Y-107052810D01*
X234529332Y-107290905D01*
X233862666Y-107290905D01*
X232862666Y-107052810D01*
X232529332Y-106814714D01*
X232529332Y-105148048D01*
X233862666Y-105148048D01*
X229529332Y-104671857D02*
X227195999Y-104671857D01*
X226195999Y-107290905D02*
X229529332Y-107290905D01*
X229529332Y-102290905D01*
X226195999Y-102290905D01*
X219195999Y-107290905D02*
X221529333Y-104909952D01*
X223195999Y-107290905D02*
X223195999Y-102290905D01*
X220529333Y-102290905D01*
X219862666Y-102529000D01*
X219529333Y-102767095D01*
X219195999Y-103243286D01*
X219195999Y-103957571D01*
X219529333Y-104433762D01*
X219862666Y-104671857D01*
X220529333Y-104909952D01*
X223195999Y-104909952D01*
X210862666Y-107290905D02*
X210862666Y-102290905D01*
X207529333Y-107290905D02*
X207529333Y-102290905D01*
D12*
X308102000Y-75819000D02*
X332994000Y-82423000D01*
X238506000Y-133223000D02*
X184277000Y-142494000D01*
X238506000Y-133223000D02*
X269875000Y-142621000D01*
X51816000Y-104521000D02*
X96774000Y-142494000D01*
X176276000Y-94869000D02*
X51816000Y-104521000D01*
X51816000Y-104521000D02*
X238506000Y-133223000D01*
X73152000Y-75819000D02*
X51816000Y-104521000D01*
X176276000Y-94869000D02*
X308102000Y-75819000D01*
X73152000Y-75819000D02*
X176276000Y-94869000D01*
X329311000Y-104394000D02*
X238506000Y-133223000D01*
X308102000Y-75819000D02*
X329311000Y-104394000D01*
X238506000Y-133223000D02*
X308102000Y-75819000D01*
X176276000Y-94869000D02*
X238506000Y-133223000D01*
D14*
X288282000Y-102698000D02*
X287282000Y-102698000D01*
X287282000Y-104058000D02*
X288282000Y-104058000D01*
X69260000Y-58920000D02*
X69260000Y-57920000D01*
X67900000Y-57920000D02*
X67900000Y-58920000D01*
X64344000Y-57920000D02*
X64344000Y-58920000D01*
X65704000Y-58920000D02*
X65704000Y-57920000D01*
X160536000Y-135427000D02*
X161536000Y-135427000D01*
X161536000Y-134067000D02*
X160536000Y-134067000D01*
X171315000Y-130765000D02*
X170315000Y-130765000D01*
X170315000Y-132125000D02*
X171315000Y-132125000D01*
X171315000Y-128225000D02*
X170315000Y-128225000D01*
X170315000Y-129585000D02*
X171315000Y-129585000D01*
X287329500Y-100158000D02*
X286329500Y-100158000D01*
X286329500Y-101518000D02*
X287329500Y-101518000D01*
X154731000Y-127246000D02*
X154731000Y-126246000D01*
X153371000Y-126246000D02*
X153371000Y-127246000D01*
X113884000Y-124175000D02*
X113884000Y-123475000D01*
X112684000Y-123475000D02*
X112684000Y-124175000D01*
X268189000Y-67025000D02*
X268189000Y-66325000D01*
X266989000Y-66325000D02*
X266989000Y-67025000D01*
X66259000Y-124175000D02*
X66259000Y-123475000D01*
X65059000Y-123475000D02*
X65059000Y-124175000D01*
X315814000Y-67025000D02*
X315814000Y-66325000D01*
X314614000Y-66325000D02*
X314614000Y-67025000D01*
X80102000Y-67025000D02*
X80102000Y-66325000D01*
X78902000Y-66325000D02*
X78902000Y-67025000D01*
X304384000Y-124175000D02*
X304384000Y-123475000D01*
X303184000Y-123475000D02*
X303184000Y-124175000D01*
X125314000Y-67025000D02*
X125314000Y-66325000D01*
X124114000Y-66325000D02*
X124114000Y-67025000D01*
X256759000Y-124175000D02*
X256759000Y-123475000D01*
X255559000Y-123475000D02*
X255559000Y-124175000D01*
X172939000Y-67025000D02*
X172939000Y-66325000D01*
X171739000Y-66325000D02*
X171739000Y-67025000D01*
X220691000Y-124175000D02*
X220691000Y-123475000D01*
X219491000Y-123475000D02*
X219491000Y-124175000D01*
X220564000Y-67025000D02*
X220564000Y-66325000D01*
X219364000Y-66325000D02*
X219364000Y-67025000D01*
X177130000Y-124175000D02*
X177130000Y-123475000D01*
X175930000Y-123475000D02*
X175930000Y-124175000D01*
X291303000Y-102585000D02*
X291303000Y-101885000D01*
X290103000Y-101885000D02*
X290103000Y-102585000D01*
X295875000Y-101569000D02*
X295875000Y-100869000D01*
X294675000Y-100869000D02*
X294675000Y-101569000D01*
X299685000Y-95600000D02*
X299685000Y-94900000D01*
X298485000Y-94900000D02*
X298485000Y-95600000D01*
X292577000Y-89189000D02*
X291877000Y-89189000D01*
X291877000Y-90389000D02*
X292577000Y-90389000D01*
X297399000Y-95600000D02*
X297399000Y-94900000D01*
X296199000Y-94900000D02*
X296199000Y-95600000D01*
X292577000Y-87030000D02*
X291877000Y-87030000D01*
X291877000Y-88230000D02*
X292577000Y-88230000D01*
X298161000Y-100680000D02*
X298161000Y-99980000D01*
X296961000Y-99980000D02*
X296961000Y-100680000D01*
X293589000Y-102585000D02*
X293589000Y-101885000D01*
X292389000Y-101885000D02*
X292389000Y-102585000D01*
X136113000Y-133131000D02*
X135413000Y-133131000D01*
X135413000Y-134331000D02*
X136113000Y-134331000D01*
X147986000Y-123409000D02*
X148686000Y-123409000D01*
X148686000Y-122209000D02*
X147986000Y-122209000D01*
X153451000Y-130968000D02*
X153451000Y-131668000D01*
X154651000Y-131668000D02*
X154651000Y-130968000D01*
X137445000Y-138268000D02*
X138145000Y-138268000D01*
X138145000Y-137068000D02*
X137445000Y-137068000D01*
X137125000Y-130906000D02*
X137125000Y-130206000D01*
X135925000Y-130206000D02*
X135925000Y-130906000D01*
X131603000Y-134331000D02*
X132303000Y-134331000D01*
X132303000Y-133131000D02*
X131603000Y-133131000D01*
X287964000Y-98624000D02*
X288534000Y-98624000D01*
X294204000Y-98004000D02*
X294204000Y-98624000D01*
X293634000Y-92384000D02*
X294204000Y-92384000D01*
X294204000Y-92384000D02*
X294204000Y-92954000D01*
X288534000Y-92384000D02*
X287964000Y-92384000D01*
X287964000Y-92384000D02*
X287964000Y-92954000D01*
X293634000Y-98624000D02*
X294204000Y-98624000D01*
X309693750Y-137921875D02*
X309693750Y-135921875D01*
X309693750Y-135921875D02*
X313593750Y-135921875D01*
X309693750Y-137921875D02*
X313593750Y-137921875D01*
X312943750Y-133218750D02*
X310943750Y-133218750D01*
X310943750Y-133218750D02*
X310943750Y-129318750D01*
X312943750Y-133218750D02*
X312943750Y-129318750D01*
X279606250Y-137981250D02*
X277606250Y-137981250D01*
X277606250Y-137981250D02*
X277606250Y-134081250D01*
X279606250Y-137981250D02*
X279606250Y-134081250D01*
X258175000Y-135600000D02*
X256175000Y-135600000D01*
X256175000Y-135600000D02*
X256175000Y-131700000D01*
X258175000Y-135600000D02*
X258175000Y-131700000D01*
D11*
X67071000Y-63807000D02*
X65771000Y-63807000D01*
X67071000Y-60907000D02*
X67071000Y-63807000D01*
X65771000Y-60907000D02*
X67071000Y-60907000D01*
X65771000Y-60907000D02*
X65771000Y-63807000D01*
D14*
X61731000Y-61757000D02*
X61731000Y-62957000D01*
X63491000Y-62957000D02*
X63491000Y-61757000D01*
X161736000Y-139336000D02*
X159836000Y-139336000D01*
X160336000Y-137016000D02*
X161736000Y-137016000D01*
D15*
X120062500Y-124825000D02*
X120062500Y-122825000D01*
X120062500Y-122825000D02*
X118062500Y-122825000D01*
X118062500Y-122825000D02*
X118062500Y-124325000D01*
X118062500Y-124325000D02*
X118562500Y-124825000D01*
X118562500Y-124825000D02*
X120062500Y-124825000D01*
X120062500Y-126325000D02*
X118062500Y-126325000D01*
X116562500Y-124325000D02*
X116562500Y-123325000D01*
X120062500Y-121325000D02*
X118062500Y-121325000D01*
X121562500Y-124325000D02*
X121562500Y-123325000D01*
X262937500Y-67675000D02*
X262937500Y-65675000D01*
X262937500Y-65675000D02*
X260937500Y-65675000D01*
X260937500Y-65675000D02*
X260937500Y-67175000D01*
X260937500Y-67175000D02*
X261437500Y-67675000D01*
X261437500Y-67675000D02*
X262937500Y-67675000D01*
X262937500Y-69175000D02*
X260937500Y-69175000D01*
X259437500Y-67175000D02*
X259437500Y-66175000D01*
X262937500Y-64175000D02*
X260937500Y-64175000D01*
X264437500Y-67175000D02*
X264437500Y-66175000D01*
X72437500Y-124825000D02*
X72437500Y-122825000D01*
X72437500Y-122825000D02*
X70437500Y-122825000D01*
X70437500Y-122825000D02*
X70437500Y-124325000D01*
X70437500Y-124325000D02*
X70937500Y-124825000D01*
X70937500Y-124825000D02*
X72437500Y-124825000D01*
X72437500Y-126325000D02*
X70437500Y-126325000D01*
X68937500Y-124325000D02*
X68937500Y-123325000D01*
X72437500Y-121325000D02*
X70437500Y-121325000D01*
X73937500Y-124325000D02*
X73937500Y-123325000D01*
X310562500Y-67675000D02*
X310562500Y-65675000D01*
X310562500Y-65675000D02*
X308562500Y-65675000D01*
X308562500Y-65675000D02*
X308562500Y-67175000D01*
X308562500Y-67175000D02*
X309062500Y-67675000D01*
X309062500Y-67675000D02*
X310562500Y-67675000D01*
X310562500Y-69175000D02*
X308562500Y-69175000D01*
X307062500Y-67175000D02*
X307062500Y-66175000D01*
X310562500Y-64175000D02*
X308562500Y-64175000D01*
X312062500Y-67175000D02*
X312062500Y-66175000D01*
X74818750Y-67675000D02*
X74818750Y-65675000D01*
X74818750Y-65675000D02*
X72818750Y-65675000D01*
X72818750Y-65675000D02*
X72818750Y-67175000D01*
X72818750Y-67175000D02*
X73318750Y-67675000D01*
X73318750Y-67675000D02*
X74818750Y-67675000D01*
X74818750Y-69175000D02*
X72818750Y-69175000D01*
X71318750Y-67175000D02*
X71318750Y-66175000D01*
X74818750Y-64175000D02*
X72818750Y-64175000D01*
X76318750Y-67175000D02*
X76318750Y-66175000D01*
X310562500Y-124825000D02*
X310562500Y-122825000D01*
X310562500Y-122825000D02*
X308562500Y-122825000D01*
X308562500Y-122825000D02*
X308562500Y-124325000D01*
X308562500Y-124325000D02*
X309062500Y-124825000D01*
X309062500Y-124825000D02*
X310562500Y-124825000D01*
X310562500Y-126325000D02*
X308562500Y-126325000D01*
X307062500Y-124325000D02*
X307062500Y-123325000D01*
X310562500Y-121325000D02*
X308562500Y-121325000D01*
X312062500Y-124325000D02*
X312062500Y-123325000D01*
X120062500Y-67675000D02*
X120062500Y-65675000D01*
X120062500Y-65675000D02*
X118062500Y-65675000D01*
X118062500Y-65675000D02*
X118062500Y-67175000D01*
X118062500Y-67175000D02*
X118562500Y-67675000D01*
X118562500Y-67675000D02*
X120062500Y-67675000D01*
X120062500Y-69175000D02*
X118062500Y-69175000D01*
X116562500Y-67175000D02*
X116562500Y-66175000D01*
X120062500Y-64175000D02*
X118062500Y-64175000D01*
X121562500Y-67175000D02*
X121562500Y-66175000D01*
X262937500Y-124825000D02*
X262937500Y-122825000D01*
X262937500Y-122825000D02*
X260937500Y-122825000D01*
X260937500Y-122825000D02*
X260937500Y-124325000D01*
X260937500Y-124325000D02*
X261437500Y-124825000D01*
X261437500Y-124825000D02*
X262937500Y-124825000D01*
X262937500Y-126325000D02*
X260937500Y-126325000D01*
X259437500Y-124325000D02*
X259437500Y-123325000D01*
X262937500Y-121325000D02*
X260937500Y-121325000D01*
X264437500Y-124325000D02*
X264437500Y-123325000D01*
X167687500Y-67675000D02*
X167687500Y-65675000D01*
X167687500Y-65675000D02*
X165687500Y-65675000D01*
X165687500Y-65675000D02*
X165687500Y-67175000D01*
X165687500Y-67175000D02*
X166187500Y-67675000D01*
X166187500Y-67675000D02*
X167687500Y-67675000D01*
X167687500Y-69175000D02*
X165687500Y-69175000D01*
X164187500Y-67175000D02*
X164187500Y-66175000D01*
X167687500Y-64175000D02*
X165687500Y-64175000D01*
X169187500Y-67175000D02*
X169187500Y-66175000D01*
X215312500Y-124825000D02*
X215312500Y-122825000D01*
X215312500Y-122825000D02*
X213312500Y-122825000D01*
X213312500Y-122825000D02*
X213312500Y-124325000D01*
X213312500Y-124325000D02*
X213812500Y-124825000D01*
X213812500Y-124825000D02*
X215312500Y-124825000D01*
X215312500Y-126325000D02*
X213312500Y-126325000D01*
X211812500Y-124325000D02*
X211812500Y-123325000D01*
X215312500Y-121325000D02*
X213312500Y-121325000D01*
X216812500Y-124325000D02*
X216812500Y-123325000D01*
X215312500Y-67675000D02*
X215312500Y-65675000D01*
X215312500Y-65675000D02*
X213312500Y-65675000D01*
X213312500Y-65675000D02*
X213312500Y-67175000D01*
X213312500Y-67175000D02*
X213812500Y-67675000D01*
X213812500Y-67675000D02*
X215312500Y-67675000D01*
X215312500Y-69175000D02*
X213312500Y-69175000D01*
X211812500Y-67175000D02*
X211812500Y-66175000D01*
X215312500Y-64175000D02*
X213312500Y-64175000D01*
X216812500Y-67175000D02*
X216812500Y-66175000D01*
X171815000Y-124825000D02*
X171815000Y-122825000D01*
X171815000Y-122825000D02*
X169815000Y-122825000D01*
X169815000Y-122825000D02*
X169815000Y-124325000D01*
X169815000Y-124325000D02*
X170315000Y-124825000D01*
X170315000Y-124825000D02*
X171815000Y-124825000D01*
X171815000Y-126325000D02*
X169815000Y-126325000D01*
X168315000Y-124325000D02*
X168315000Y-123325000D01*
X171815000Y-121325000D02*
X169815000Y-121325000D01*
X173315000Y-124325000D02*
X173315000Y-123325000D01*
D16*
X169418000Y-139382500D02*
X169418000Y-139082500D01*
X165613000Y-137179000D02*
X165613000Y-136379000D01*
X169413000Y-137079000D02*
X169413000Y-136379000D01*
X168236900Y-133515100D02*
X169418000Y-134696200D01*
X166789100Y-133515100D02*
X165608000Y-134696200D01*
X166789100Y-133515100D02*
G75*
G02X168236900Y-133515100I723900J-723900D01*
G01*
X166560500Y-140335000D02*
X168465500Y-140335000D01*
X169418000Y-139382500D02*
G75*
G02X168465500Y-140335000I-952500J0D01*
G01*
X166560500Y-140335000D02*
G75*
G02X165608000Y-139382500I0J952500D01*
G01*
X165608000Y-139382500D02*
X165608000Y-139082500D01*
D14*
X122443750Y-135600000D02*
X120443750Y-135600000D01*
X120443750Y-135600000D02*
X120443750Y-131700000D01*
X122443750Y-135600000D02*
X122443750Y-131700000D01*
X96250000Y-135600000D02*
X94250000Y-135600000D01*
X94250000Y-135600000D02*
X94250000Y-131700000D01*
X96250000Y-135600000D02*
X96250000Y-131700000D01*
X70056250Y-135600000D02*
X68056250Y-135600000D01*
X68056250Y-135600000D02*
X68056250Y-131700000D01*
X70056250Y-135600000D02*
X70056250Y-131700000D01*
X315325000Y-116550000D02*
X313325000Y-116550000D01*
X313325000Y-116550000D02*
X313325000Y-112650000D01*
X315325000Y-116550000D02*
X315325000Y-112650000D01*
X290321875Y-116550000D02*
X288321875Y-116550000D01*
X288321875Y-116550000D02*
X288321875Y-112650000D01*
X290321875Y-116550000D02*
X290321875Y-112650000D01*
X264128125Y-116550000D02*
X262128125Y-116550000D01*
X262128125Y-116550000D02*
X262128125Y-112650000D01*
X264128125Y-116550000D02*
X264128125Y-112650000D01*
X198643750Y-135600000D02*
X196643750Y-135600000D01*
X196643750Y-135600000D02*
X196643750Y-131700000D01*
X198643750Y-135600000D02*
X198643750Y-131700000D01*
X260556250Y-116550000D02*
X258556250Y-116550000D01*
X258556250Y-116550000D02*
X258556250Y-112650000D01*
X260556250Y-116550000D02*
X260556250Y-112650000D01*
X241506250Y-116550000D02*
X239506250Y-116550000D01*
X239506250Y-116550000D02*
X239506250Y-112650000D01*
X241506250Y-116550000D02*
X241506250Y-112650000D01*
X222456250Y-116550000D02*
X220456250Y-116550000D01*
X220456250Y-116550000D02*
X220456250Y-112650000D01*
X222456250Y-116550000D02*
X222456250Y-112650000D01*
X203406250Y-116550000D02*
X201406250Y-116550000D01*
X201406250Y-116550000D02*
X201406250Y-112650000D01*
X203406250Y-116550000D02*
X203406250Y-112650000D01*
X184356250Y-116550000D02*
X182356250Y-116550000D01*
X182356250Y-116550000D02*
X182356250Y-112650000D01*
X184356250Y-116550000D02*
X184356250Y-112650000D01*
X165306250Y-116550000D02*
X163306250Y-116550000D01*
X163306250Y-116550000D02*
X163306250Y-112650000D01*
X165306250Y-116550000D02*
X165306250Y-112650000D01*
X127206250Y-116550000D02*
X125206250Y-116550000D01*
X125206250Y-116550000D02*
X125206250Y-112650000D01*
X127206250Y-116550000D02*
X127206250Y-112650000D01*
X112125000Y-116550000D02*
X110125000Y-116550000D01*
X110125000Y-116550000D02*
X110125000Y-112650000D01*
X112125000Y-116550000D02*
X112125000Y-112650000D01*
X93075000Y-116550000D02*
X91075000Y-116550000D01*
X91075000Y-116550000D02*
X91075000Y-112650000D01*
X93075000Y-116550000D02*
X93075000Y-112650000D01*
X77200000Y-116550000D02*
X75200000Y-116550000D01*
X75200000Y-116550000D02*
X75200000Y-112650000D01*
X77200000Y-116550000D02*
X77200000Y-112650000D01*
X305006250Y-97500000D02*
X303006250Y-97500000D01*
X303006250Y-97500000D02*
X303006250Y-93600000D01*
X305006250Y-97500000D02*
X305006250Y-93600000D01*
X274050000Y-97500000D02*
X272050000Y-97500000D01*
X272050000Y-97500000D02*
X272050000Y-93600000D01*
X274050000Y-97500000D02*
X274050000Y-93600000D01*
X270081250Y-97500000D02*
X268081250Y-97500000D01*
X268081250Y-97500000D02*
X268081250Y-93600000D01*
X270081250Y-97500000D02*
X270081250Y-93600000D01*
X251031250Y-97500000D02*
X249031250Y-97500000D01*
X249031250Y-97500000D02*
X249031250Y-93600000D01*
X251031250Y-97500000D02*
X251031250Y-93600000D01*
X231981250Y-97500000D02*
X229981250Y-97500000D01*
X229981250Y-97500000D02*
X229981250Y-93600000D01*
X231981250Y-97500000D02*
X231981250Y-93600000D01*
X212931250Y-97500000D02*
X210931250Y-97500000D01*
X210931250Y-97500000D02*
X210931250Y-93600000D01*
X212931250Y-97500000D02*
X212931250Y-93600000D01*
X193881250Y-97500000D02*
X191881250Y-97500000D01*
X191881250Y-97500000D02*
X191881250Y-93600000D01*
X193881250Y-97500000D02*
X193881250Y-93600000D01*
X159353125Y-97500000D02*
X157353125Y-97500000D01*
X157353125Y-97500000D02*
X157353125Y-93600000D01*
X159353125Y-97500000D02*
X159353125Y-93600000D01*
X155781250Y-97500000D02*
X153781250Y-97500000D01*
X153781250Y-97500000D02*
X153781250Y-93600000D01*
X155781250Y-97500000D02*
X155781250Y-93600000D01*
X121253125Y-97500000D02*
X119253125Y-97500000D01*
X119253125Y-97500000D02*
X119253125Y-93600000D01*
X121253125Y-97500000D02*
X121253125Y-93600000D01*
X117681250Y-97500000D02*
X115681250Y-97500000D01*
X115681250Y-97500000D02*
X115681250Y-93600000D01*
X117681250Y-97500000D02*
X117681250Y-93600000D01*
X98631250Y-97500000D02*
X96631250Y-97500000D01*
X96631250Y-97500000D02*
X96631250Y-93600000D01*
X98631250Y-97500000D02*
X98631250Y-93600000D01*
X53387500Y-97500000D02*
X51387500Y-97500000D01*
X51387500Y-97500000D02*
X51387500Y-93600000D01*
X53387500Y-97500000D02*
X53387500Y-93600000D01*
X306121875Y-83153125D02*
X306121875Y-81153125D01*
X306121875Y-81153125D02*
X310021875Y-81153125D01*
X306121875Y-83153125D02*
X310021875Y-83153125D01*
X303418750Y-78450000D02*
X301418750Y-78450000D01*
X301418750Y-78450000D02*
X301418750Y-74550000D01*
X303418750Y-78450000D02*
X303418750Y-74550000D01*
X284368750Y-78450000D02*
X282368750Y-78450000D01*
X282368750Y-78450000D02*
X282368750Y-74550000D01*
X284368750Y-78450000D02*
X284368750Y-74550000D01*
X265318750Y-78450000D02*
X263318750Y-78450000D01*
X263318750Y-78450000D02*
X263318750Y-74550000D01*
X265318750Y-78450000D02*
X265318750Y-74550000D01*
X246268750Y-78450000D02*
X244268750Y-78450000D01*
X244268750Y-78450000D02*
X244268750Y-74550000D01*
X246268750Y-78450000D02*
X246268750Y-74550000D01*
X227218750Y-78450000D02*
X225218750Y-78450000D01*
X225218750Y-78450000D02*
X225218750Y-74550000D01*
X227218750Y-78450000D02*
X227218750Y-74550000D01*
X208168750Y-78450000D02*
X206168750Y-78450000D01*
X206168750Y-78450000D02*
X206168750Y-74550000D01*
X208168750Y-78450000D02*
X208168750Y-74550000D01*
X189118750Y-78450000D02*
X187118750Y-78450000D01*
X187118750Y-78450000D02*
X187118750Y-74550000D01*
X189118750Y-78450000D02*
X189118750Y-74550000D01*
X170068750Y-78450000D02*
X168068750Y-78450000D01*
X168068750Y-78450000D02*
X168068750Y-74550000D01*
X170068750Y-78450000D02*
X170068750Y-74550000D01*
X151018750Y-78450000D02*
X149018750Y-78450000D01*
X149018750Y-78450000D02*
X149018750Y-74550000D01*
X151018750Y-78450000D02*
X151018750Y-74550000D01*
X131968750Y-78450000D02*
X129968750Y-78450000D01*
X129968750Y-78450000D02*
X129968750Y-74550000D01*
X131968750Y-78450000D02*
X131968750Y-74550000D01*
X112918750Y-78450000D02*
X110918750Y-78450000D01*
X110918750Y-78450000D02*
X110918750Y-74550000D01*
X112918750Y-78450000D02*
X112918750Y-74550000D01*
X93868750Y-78450000D02*
X91868750Y-78450000D01*
X91868750Y-78450000D02*
X91868750Y-74550000D01*
X93868750Y-78450000D02*
X93868750Y-74550000D01*
X54578125Y-78450000D02*
X52578125Y-78450000D01*
X52578125Y-78450000D02*
X52578125Y-74550000D01*
X54578125Y-78450000D02*
X54578125Y-74550000D01*
X293025000Y-61721875D02*
X293025000Y-59721875D01*
X293025000Y-59721875D02*
X296925000Y-59721875D01*
X293025000Y-61721875D02*
X296925000Y-61721875D01*
X297465625Y-57018750D02*
X295465625Y-57018750D01*
X295465625Y-57018750D02*
X295465625Y-53118750D01*
X297465625Y-57018750D02*
X297465625Y-53118750D01*
X293893750Y-57018750D02*
X291893750Y-57018750D01*
X291893750Y-57018750D02*
X291893750Y-53118750D01*
X293893750Y-57018750D02*
X293893750Y-53118750D01*
X274843750Y-59400000D02*
X272843750Y-59400000D01*
X272843750Y-59400000D02*
X272843750Y-55500000D01*
X274843750Y-59400000D02*
X274843750Y-55500000D01*
X255793750Y-59400000D02*
X253793750Y-59400000D01*
X253793750Y-59400000D02*
X253793750Y-55500000D01*
X255793750Y-59400000D02*
X255793750Y-55500000D01*
X236743750Y-59400000D02*
X234743750Y-59400000D01*
X234743750Y-59400000D02*
X234743750Y-55500000D01*
X236743750Y-59400000D02*
X236743750Y-55500000D01*
X217693750Y-59400000D02*
X215693750Y-59400000D01*
X215693750Y-59400000D02*
X215693750Y-55500000D01*
X217693750Y-59400000D02*
X217693750Y-55500000D01*
X198643750Y-59400000D02*
X196643750Y-59400000D01*
X196643750Y-59400000D02*
X196643750Y-55500000D01*
X198643750Y-59400000D02*
X198643750Y-55500000D01*
X179593750Y-59400000D02*
X177593750Y-59400000D01*
X177593750Y-59400000D02*
X177593750Y-55500000D01*
X179593750Y-59400000D02*
X179593750Y-55500000D01*
X160543750Y-59400000D02*
X158543750Y-59400000D01*
X158543750Y-59400000D02*
X158543750Y-55500000D01*
X160543750Y-59400000D02*
X160543750Y-55500000D01*
X141493750Y-59400000D02*
X139493750Y-59400000D01*
X139493750Y-59400000D02*
X139493750Y-55500000D01*
X141493750Y-59400000D02*
X141493750Y-55500000D01*
X122443750Y-59400000D02*
X120443750Y-59400000D01*
X120443750Y-59400000D02*
X120443750Y-55500000D01*
X122443750Y-59400000D02*
X122443750Y-55500000D01*
X103393750Y-59400000D02*
X101393750Y-59400000D01*
X101393750Y-59400000D02*
X101393750Y-55500000D01*
X103393750Y-59400000D02*
X103393750Y-55500000D01*
X84343750Y-59400000D02*
X82343750Y-59400000D01*
X82343750Y-59400000D02*
X82343750Y-55500000D01*
X84343750Y-59400000D02*
X84343750Y-55500000D01*
X53387500Y-62971875D02*
X51387500Y-62971875D01*
X51387500Y-62971875D02*
X51387500Y-59071875D01*
X53387500Y-62971875D02*
X53387500Y-59071875D01*
X132336000Y-131882000D02*
X132336000Y-130952000D01*
X132336000Y-128722000D02*
X132336000Y-129652000D01*
X132336000Y-128722000D02*
X134496000Y-128722000D01*
X132336000Y-131882000D02*
X133796000Y-131882000D01*
D11*
X150653500Y-136874000D02*
X150078500Y-136874000D01*
X150653500Y-126524000D02*
X149978500Y-126524000D01*
X140303500Y-126524000D02*
X140978500Y-126524000D01*
X140303500Y-136874000D02*
X140978500Y-136874000D01*
X150653500Y-136874000D02*
X150653500Y-136199000D01*
X140303500Y-136874000D02*
X140303500Y-136199000D01*
X140303500Y-126524000D02*
X140303500Y-127199000D01*
X150653500Y-126524000D02*
X150653500Y-127199000D01*
X150078500Y-136874000D02*
X150078500Y-138149000D01*
X79012051Y-96266000D02*
G75*
G03X79012051Y-96266000I-1796051J0D01*
G01*
X80216000Y-99266000D02*
X80216000Y-93266000D01*
X74216000Y-99266000D02*
X80216000Y-99266000D01*
X74216000Y-93266000D02*
X74216000Y-99266000D01*
X80216000Y-93266000D02*
X74216000Y-93266000D01*
X287948666Y-105280381D02*
X288282000Y-104804190D01*
X288520095Y-105280381D02*
X288520095Y-104280381D01*
X288139142Y-104280381D01*
X288043904Y-104328000D01*
X287996285Y-104375619D01*
X287948666Y-104470857D01*
X287948666Y-104613714D01*
X287996285Y-104708952D01*
X288043904Y-104756571D01*
X288139142Y-104804190D01*
X288520095Y-104804190D01*
X287377238Y-104708952D02*
X287472476Y-104661333D01*
X287520095Y-104613714D01*
X287567714Y-104518476D01*
X287567714Y-104470857D01*
X287520095Y-104375619D01*
X287472476Y-104328000D01*
X287377238Y-104280381D01*
X287186761Y-104280381D01*
X287091523Y-104328000D01*
X287043904Y-104375619D01*
X286996285Y-104470857D01*
X286996285Y-104518476D01*
X287043904Y-104613714D01*
X287091523Y-104661333D01*
X287186761Y-104708952D01*
X287377238Y-104708952D01*
X287472476Y-104756571D01*
X287520095Y-104804190D01*
X287567714Y-104899429D01*
X287567714Y-105089905D01*
X287520095Y-105185143D01*
X287472476Y-105232762D01*
X287377238Y-105280381D01*
X287186761Y-105280381D01*
X287091523Y-105232762D01*
X287043904Y-105185143D01*
X286996285Y-105089905D01*
X286996285Y-104899429D01*
X287043904Y-104804190D01*
X287091523Y-104756571D01*
X287186761Y-104708952D01*
X67582381Y-58253334D02*
X67106190Y-57920000D01*
X67582381Y-57681905D02*
X66582381Y-57681905D01*
X66582381Y-58062858D01*
X66630000Y-58158096D01*
X66677619Y-58205715D01*
X66772857Y-58253334D01*
X66915714Y-58253334D01*
X67010952Y-58205715D01*
X67058571Y-58158096D01*
X67106190Y-58062858D01*
X67106190Y-57681905D01*
X66582381Y-58586667D02*
X66582381Y-59253334D01*
X67582381Y-58824762D01*
X66926381Y-58253334D02*
X66450190Y-57920000D01*
X66926381Y-57681905D02*
X65926381Y-57681905D01*
X65926381Y-58062858D01*
X65974000Y-58158096D01*
X66021619Y-58205715D01*
X66116857Y-58253334D01*
X66259714Y-58253334D01*
X66354952Y-58205715D01*
X66402571Y-58158096D01*
X66450190Y-58062858D01*
X66450190Y-57681905D01*
X65926381Y-59110477D02*
X65926381Y-58920000D01*
X65974000Y-58824762D01*
X66021619Y-58777143D01*
X66164476Y-58681905D01*
X66354952Y-58634286D01*
X66735905Y-58634286D01*
X66831143Y-58681905D01*
X66878762Y-58729524D01*
X66926381Y-58824762D01*
X66926381Y-59015239D01*
X66878762Y-59110477D01*
X66831143Y-59158096D01*
X66735905Y-59205715D01*
X66497810Y-59205715D01*
X66402571Y-59158096D01*
X66354952Y-59110477D01*
X66307333Y-59015239D01*
X66307333Y-58824762D01*
X66354952Y-58729524D01*
X66402571Y-58681905D01*
X66497810Y-58634286D01*
X161202666Y-133749381D02*
X161536000Y-133273190D01*
X161774095Y-133749381D02*
X161774095Y-132749381D01*
X161393142Y-132749381D01*
X161297904Y-132797000D01*
X161250285Y-132844619D01*
X161202666Y-132939857D01*
X161202666Y-133082714D01*
X161250285Y-133177952D01*
X161297904Y-133225571D01*
X161393142Y-133273190D01*
X161774095Y-133273190D01*
X160297904Y-132749381D02*
X160774095Y-132749381D01*
X160821714Y-133225571D01*
X160774095Y-133177952D01*
X160678857Y-133130333D01*
X160440761Y-133130333D01*
X160345523Y-133177952D01*
X160297904Y-133225571D01*
X160250285Y-133320810D01*
X160250285Y-133558905D01*
X160297904Y-133654143D01*
X160345523Y-133701762D01*
X160440761Y-133749381D01*
X160678857Y-133749381D01*
X160774095Y-133701762D01*
X160821714Y-133654143D01*
X170981666Y-133347381D02*
X171315000Y-132871190D01*
X171553095Y-133347381D02*
X171553095Y-132347381D01*
X171172142Y-132347381D01*
X171076904Y-132395000D01*
X171029285Y-132442619D01*
X170981666Y-132537857D01*
X170981666Y-132680714D01*
X171029285Y-132775952D01*
X171076904Y-132823571D01*
X171172142Y-132871190D01*
X171553095Y-132871190D01*
X170124523Y-132680714D02*
X170124523Y-133347381D01*
X170362619Y-132299762D02*
X170600714Y-133014048D01*
X169981666Y-133014048D01*
X170981666Y-130807381D02*
X171315000Y-130331190D01*
X171553095Y-130807381D02*
X171553095Y-129807381D01*
X171172142Y-129807381D01*
X171076904Y-129855000D01*
X171029285Y-129902619D01*
X170981666Y-129997857D01*
X170981666Y-130140714D01*
X171029285Y-130235952D01*
X171076904Y-130283571D01*
X171172142Y-130331190D01*
X171553095Y-130331190D01*
X170648333Y-129807381D02*
X170029285Y-129807381D01*
X170362619Y-130188333D01*
X170219761Y-130188333D01*
X170124523Y-130235952D01*
X170076904Y-130283571D01*
X170029285Y-130378810D01*
X170029285Y-130616905D01*
X170076904Y-130712143D01*
X170124523Y-130759762D01*
X170219761Y-130807381D01*
X170505476Y-130807381D01*
X170600714Y-130759762D01*
X170648333Y-130712143D01*
X286996166Y-102740381D02*
X287329500Y-102264190D01*
X287567595Y-102740381D02*
X287567595Y-101740381D01*
X287186642Y-101740381D01*
X287091404Y-101788000D01*
X287043785Y-101835619D01*
X286996166Y-101930857D01*
X286996166Y-102073714D01*
X287043785Y-102168952D01*
X287091404Y-102216571D01*
X287186642Y-102264190D01*
X287567595Y-102264190D01*
X286615214Y-101835619D02*
X286567595Y-101788000D01*
X286472357Y-101740381D01*
X286234261Y-101740381D01*
X286139023Y-101788000D01*
X286091404Y-101835619D01*
X286043785Y-101930857D01*
X286043785Y-102026095D01*
X286091404Y-102168952D01*
X286662833Y-102740381D01*
X286043785Y-102740381D01*
X153053381Y-126579334D02*
X152577190Y-126246000D01*
X153053381Y-126007905D02*
X152053381Y-126007905D01*
X152053381Y-126388858D01*
X152101000Y-126484096D01*
X152148619Y-126531715D01*
X152243857Y-126579334D01*
X152386714Y-126579334D01*
X152481952Y-126531715D01*
X152529571Y-126484096D01*
X152577190Y-126388858D01*
X152577190Y-126007905D01*
X153053381Y-127531715D02*
X153053381Y-126960286D01*
X153053381Y-127246000D02*
X152053381Y-127246000D01*
X152196238Y-127150762D01*
X152291476Y-127055524D01*
X152339095Y-126960286D01*
X112141143Y-121682143D02*
X112188762Y-121634524D01*
X112236381Y-121491667D01*
X112236381Y-121396429D01*
X112188762Y-121253571D01*
X112093524Y-121158333D01*
X111998286Y-121110714D01*
X111807810Y-121063095D01*
X111664952Y-121063095D01*
X111474476Y-121110714D01*
X111379238Y-121158333D01*
X111284000Y-121253571D01*
X111236381Y-121396429D01*
X111236381Y-121491667D01*
X111284000Y-121634524D01*
X111331619Y-121682143D01*
X112236381Y-122682143D02*
X111760190Y-122348809D01*
X112236381Y-122110714D02*
X111236381Y-122110714D01*
X111236381Y-122491667D01*
X111284000Y-122586905D01*
X111331619Y-122634524D01*
X111426857Y-122682143D01*
X111569714Y-122682143D01*
X111664952Y-122634524D01*
X111712571Y-122586905D01*
X111760190Y-122491667D01*
X111760190Y-122110714D01*
X111284000Y-123634524D02*
X111236381Y-123539286D01*
X111236381Y-123396429D01*
X111284000Y-123253571D01*
X111379238Y-123158333D01*
X111474476Y-123110714D01*
X111664952Y-123063095D01*
X111807810Y-123063095D01*
X111998286Y-123110714D01*
X112093524Y-123158333D01*
X112188762Y-123253571D01*
X112236381Y-123396429D01*
X112236381Y-123491667D01*
X112188762Y-123634524D01*
X112141143Y-123682143D01*
X111807810Y-123682143D01*
X111807810Y-123491667D01*
X111712571Y-124444048D02*
X111760190Y-124586905D01*
X111807810Y-124634524D01*
X111903048Y-124682143D01*
X112045905Y-124682143D01*
X112141143Y-124634524D01*
X112188762Y-124586905D01*
X112236381Y-124491667D01*
X112236381Y-124110714D01*
X111236381Y-124110714D01*
X111236381Y-124444048D01*
X111284000Y-124539286D01*
X111331619Y-124586905D01*
X111426857Y-124634524D01*
X111522095Y-124634524D01*
X111617333Y-124586905D01*
X111664952Y-124539286D01*
X111712571Y-124444048D01*
X111712571Y-124110714D01*
X112236381Y-125634524D02*
X112236381Y-125063095D01*
X112236381Y-125348809D02*
X111236381Y-125348809D01*
X111379238Y-125253571D01*
X111474476Y-125158333D01*
X111522095Y-125063095D01*
X111331619Y-126015476D02*
X111284000Y-126063095D01*
X111236381Y-126158333D01*
X111236381Y-126396429D01*
X111284000Y-126491667D01*
X111331619Y-126539286D01*
X111426857Y-126586905D01*
X111522095Y-126586905D01*
X111664952Y-126539286D01*
X112236381Y-125967857D01*
X112236381Y-126586905D01*
X266446143Y-64532143D02*
X266493762Y-64484524D01*
X266541381Y-64341667D01*
X266541381Y-64246429D01*
X266493762Y-64103571D01*
X266398524Y-64008333D01*
X266303286Y-63960714D01*
X266112810Y-63913095D01*
X265969952Y-63913095D01*
X265779476Y-63960714D01*
X265684238Y-64008333D01*
X265589000Y-64103571D01*
X265541381Y-64246429D01*
X265541381Y-64341667D01*
X265589000Y-64484524D01*
X265636619Y-64532143D01*
X266541381Y-65532143D02*
X266065190Y-65198809D01*
X266541381Y-64960714D02*
X265541381Y-64960714D01*
X265541381Y-65341667D01*
X265589000Y-65436905D01*
X265636619Y-65484524D01*
X265731857Y-65532143D01*
X265874714Y-65532143D01*
X265969952Y-65484524D01*
X266017571Y-65436905D01*
X266065190Y-65341667D01*
X266065190Y-64960714D01*
X265589000Y-66484524D02*
X265541381Y-66389286D01*
X265541381Y-66246429D01*
X265589000Y-66103571D01*
X265684238Y-66008333D01*
X265779476Y-65960714D01*
X265969952Y-65913095D01*
X266112810Y-65913095D01*
X266303286Y-65960714D01*
X266398524Y-66008333D01*
X266493762Y-66103571D01*
X266541381Y-66246429D01*
X266541381Y-66341667D01*
X266493762Y-66484524D01*
X266446143Y-66532143D01*
X266112810Y-66532143D01*
X266112810Y-66341667D01*
X266017571Y-67294048D02*
X266065190Y-67436905D01*
X266112810Y-67484524D01*
X266208048Y-67532143D01*
X266350905Y-67532143D01*
X266446143Y-67484524D01*
X266493762Y-67436905D01*
X266541381Y-67341667D01*
X266541381Y-66960714D01*
X265541381Y-66960714D01*
X265541381Y-67294048D01*
X265589000Y-67389286D01*
X265636619Y-67436905D01*
X265731857Y-67484524D01*
X265827095Y-67484524D01*
X265922333Y-67436905D01*
X265969952Y-67389286D01*
X266017571Y-67294048D01*
X266017571Y-66960714D01*
X266541381Y-68484524D02*
X266541381Y-67913095D01*
X266541381Y-68198809D02*
X265541381Y-68198809D01*
X265684238Y-68103571D01*
X265779476Y-68008333D01*
X265827095Y-67913095D01*
X266541381Y-69436905D02*
X266541381Y-68865476D01*
X266541381Y-69151190D02*
X265541381Y-69151190D01*
X265684238Y-69055952D01*
X265779476Y-68960714D01*
X265827095Y-68865476D01*
X64516143Y-121682143D02*
X64563762Y-121634524D01*
X64611381Y-121491667D01*
X64611381Y-121396429D01*
X64563762Y-121253571D01*
X64468524Y-121158333D01*
X64373286Y-121110714D01*
X64182810Y-121063095D01*
X64039952Y-121063095D01*
X63849476Y-121110714D01*
X63754238Y-121158333D01*
X63659000Y-121253571D01*
X63611381Y-121396429D01*
X63611381Y-121491667D01*
X63659000Y-121634524D01*
X63706619Y-121682143D01*
X64611381Y-122682143D02*
X64135190Y-122348809D01*
X64611381Y-122110714D02*
X63611381Y-122110714D01*
X63611381Y-122491667D01*
X63659000Y-122586905D01*
X63706619Y-122634524D01*
X63801857Y-122682143D01*
X63944714Y-122682143D01*
X64039952Y-122634524D01*
X64087571Y-122586905D01*
X64135190Y-122491667D01*
X64135190Y-122110714D01*
X63659000Y-123634524D02*
X63611381Y-123539286D01*
X63611381Y-123396429D01*
X63659000Y-123253571D01*
X63754238Y-123158333D01*
X63849476Y-123110714D01*
X64039952Y-123063095D01*
X64182810Y-123063095D01*
X64373286Y-123110714D01*
X64468524Y-123158333D01*
X64563762Y-123253571D01*
X64611381Y-123396429D01*
X64611381Y-123491667D01*
X64563762Y-123634524D01*
X64516143Y-123682143D01*
X64182810Y-123682143D01*
X64182810Y-123491667D01*
X64087571Y-124444048D02*
X64135190Y-124586905D01*
X64182810Y-124634524D01*
X64278048Y-124682143D01*
X64420905Y-124682143D01*
X64516143Y-124634524D01*
X64563762Y-124586905D01*
X64611381Y-124491667D01*
X64611381Y-124110714D01*
X63611381Y-124110714D01*
X63611381Y-124444048D01*
X63659000Y-124539286D01*
X63706619Y-124586905D01*
X63801857Y-124634524D01*
X63897095Y-124634524D01*
X63992333Y-124586905D01*
X64039952Y-124539286D01*
X64087571Y-124444048D01*
X64087571Y-124110714D01*
X64611381Y-125634524D02*
X64611381Y-125063095D01*
X64611381Y-125348809D02*
X63611381Y-125348809D01*
X63754238Y-125253571D01*
X63849476Y-125158333D01*
X63897095Y-125063095D01*
X63611381Y-126253571D02*
X63611381Y-126348810D01*
X63659000Y-126444048D01*
X63706619Y-126491667D01*
X63801857Y-126539286D01*
X63992333Y-126586905D01*
X64230429Y-126586905D01*
X64420905Y-126539286D01*
X64516143Y-126491667D01*
X64563762Y-126444048D01*
X64611381Y-126348810D01*
X64611381Y-126253571D01*
X64563762Y-126158333D01*
X64516143Y-126110714D01*
X64420905Y-126063095D01*
X64230429Y-126015476D01*
X63992333Y-126015476D01*
X63801857Y-126063095D01*
X63706619Y-126110714D01*
X63659000Y-126158333D01*
X63611381Y-126253571D01*
X314071143Y-65008334D02*
X314118762Y-64960715D01*
X314166381Y-64817858D01*
X314166381Y-64722620D01*
X314118762Y-64579762D01*
X314023524Y-64484524D01*
X313928286Y-64436905D01*
X313737810Y-64389286D01*
X313594952Y-64389286D01*
X313404476Y-64436905D01*
X313309238Y-64484524D01*
X313214000Y-64579762D01*
X313166381Y-64722620D01*
X313166381Y-64817858D01*
X313214000Y-64960715D01*
X313261619Y-65008334D01*
X314166381Y-66008334D02*
X313690190Y-65675000D01*
X314166381Y-65436905D02*
X313166381Y-65436905D01*
X313166381Y-65817858D01*
X313214000Y-65913096D01*
X313261619Y-65960715D01*
X313356857Y-66008334D01*
X313499714Y-66008334D01*
X313594952Y-65960715D01*
X313642571Y-65913096D01*
X313690190Y-65817858D01*
X313690190Y-65436905D01*
X313214000Y-66960715D02*
X313166381Y-66865477D01*
X313166381Y-66722620D01*
X313214000Y-66579762D01*
X313309238Y-66484524D01*
X313404476Y-66436905D01*
X313594952Y-66389286D01*
X313737810Y-66389286D01*
X313928286Y-66436905D01*
X314023524Y-66484524D01*
X314118762Y-66579762D01*
X314166381Y-66722620D01*
X314166381Y-66817858D01*
X314118762Y-66960715D01*
X314071143Y-67008334D01*
X313737810Y-67008334D01*
X313737810Y-66817858D01*
X313642571Y-67770239D02*
X313690190Y-67913096D01*
X313737810Y-67960715D01*
X313833048Y-68008334D01*
X313975905Y-68008334D01*
X314071143Y-67960715D01*
X314118762Y-67913096D01*
X314166381Y-67817858D01*
X314166381Y-67436905D01*
X313166381Y-67436905D01*
X313166381Y-67770239D01*
X313214000Y-67865477D01*
X313261619Y-67913096D01*
X313356857Y-67960715D01*
X313452095Y-67960715D01*
X313547333Y-67913096D01*
X313594952Y-67865477D01*
X313642571Y-67770239D01*
X313642571Y-67436905D01*
X314166381Y-68484524D02*
X314166381Y-68675000D01*
X314118762Y-68770239D01*
X314071143Y-68817858D01*
X313928286Y-68913096D01*
X313737810Y-68960715D01*
X313356857Y-68960715D01*
X313261619Y-68913096D01*
X313214000Y-68865477D01*
X313166381Y-68770239D01*
X313166381Y-68579762D01*
X313214000Y-68484524D01*
X313261619Y-68436905D01*
X313356857Y-68389286D01*
X313594952Y-68389286D01*
X313690190Y-68436905D01*
X313737810Y-68484524D01*
X313785429Y-68579762D01*
X313785429Y-68770239D01*
X313737810Y-68865477D01*
X313690190Y-68913096D01*
X313594952Y-68960715D01*
X78359143Y-65008334D02*
X78406762Y-64960715D01*
X78454381Y-64817858D01*
X78454381Y-64722620D01*
X78406762Y-64579762D01*
X78311524Y-64484524D01*
X78216286Y-64436905D01*
X78025810Y-64389286D01*
X77882952Y-64389286D01*
X77692476Y-64436905D01*
X77597238Y-64484524D01*
X77502000Y-64579762D01*
X77454381Y-64722620D01*
X77454381Y-64817858D01*
X77502000Y-64960715D01*
X77549619Y-65008334D01*
X78454381Y-66008334D02*
X77978190Y-65675000D01*
X78454381Y-65436905D02*
X77454381Y-65436905D01*
X77454381Y-65817858D01*
X77502000Y-65913096D01*
X77549619Y-65960715D01*
X77644857Y-66008334D01*
X77787714Y-66008334D01*
X77882952Y-65960715D01*
X77930571Y-65913096D01*
X77978190Y-65817858D01*
X77978190Y-65436905D01*
X77502000Y-66960715D02*
X77454381Y-66865477D01*
X77454381Y-66722620D01*
X77502000Y-66579762D01*
X77597238Y-66484524D01*
X77692476Y-66436905D01*
X77882952Y-66389286D01*
X78025810Y-66389286D01*
X78216286Y-66436905D01*
X78311524Y-66484524D01*
X78406762Y-66579762D01*
X78454381Y-66722620D01*
X78454381Y-66817858D01*
X78406762Y-66960715D01*
X78359143Y-67008334D01*
X78025810Y-67008334D01*
X78025810Y-66817858D01*
X77930571Y-67770239D02*
X77978190Y-67913096D01*
X78025810Y-67960715D01*
X78121048Y-68008334D01*
X78263905Y-68008334D01*
X78359143Y-67960715D01*
X78406762Y-67913096D01*
X78454381Y-67817858D01*
X78454381Y-67436905D01*
X77454381Y-67436905D01*
X77454381Y-67770239D01*
X77502000Y-67865477D01*
X77549619Y-67913096D01*
X77644857Y-67960715D01*
X77740095Y-67960715D01*
X77835333Y-67913096D01*
X77882952Y-67865477D01*
X77930571Y-67770239D01*
X77930571Y-67436905D01*
X77882952Y-68579762D02*
X77835333Y-68484524D01*
X77787714Y-68436905D01*
X77692476Y-68389286D01*
X77644857Y-68389286D01*
X77549619Y-68436905D01*
X77502000Y-68484524D01*
X77454381Y-68579762D01*
X77454381Y-68770239D01*
X77502000Y-68865477D01*
X77549619Y-68913096D01*
X77644857Y-68960715D01*
X77692476Y-68960715D01*
X77787714Y-68913096D01*
X77835333Y-68865477D01*
X77882952Y-68770239D01*
X77882952Y-68579762D01*
X77930571Y-68484524D01*
X77978190Y-68436905D01*
X78073429Y-68389286D01*
X78263905Y-68389286D01*
X78359143Y-68436905D01*
X78406762Y-68484524D01*
X78454381Y-68579762D01*
X78454381Y-68770239D01*
X78406762Y-68865477D01*
X78359143Y-68913096D01*
X78263905Y-68960715D01*
X78073429Y-68960715D01*
X77978190Y-68913096D01*
X77930571Y-68865477D01*
X77882952Y-68770239D01*
X302641143Y-122158334D02*
X302688762Y-122110715D01*
X302736381Y-121967858D01*
X302736381Y-121872620D01*
X302688762Y-121729762D01*
X302593524Y-121634524D01*
X302498286Y-121586905D01*
X302307810Y-121539286D01*
X302164952Y-121539286D01*
X301974476Y-121586905D01*
X301879238Y-121634524D01*
X301784000Y-121729762D01*
X301736381Y-121872620D01*
X301736381Y-121967858D01*
X301784000Y-122110715D01*
X301831619Y-122158334D01*
X302736381Y-123158334D02*
X302260190Y-122825000D01*
X302736381Y-122586905D02*
X301736381Y-122586905D01*
X301736381Y-122967858D01*
X301784000Y-123063096D01*
X301831619Y-123110715D01*
X301926857Y-123158334D01*
X302069714Y-123158334D01*
X302164952Y-123110715D01*
X302212571Y-123063096D01*
X302260190Y-122967858D01*
X302260190Y-122586905D01*
X301784000Y-124110715D02*
X301736381Y-124015477D01*
X301736381Y-123872620D01*
X301784000Y-123729762D01*
X301879238Y-123634524D01*
X301974476Y-123586905D01*
X302164952Y-123539286D01*
X302307810Y-123539286D01*
X302498286Y-123586905D01*
X302593524Y-123634524D01*
X302688762Y-123729762D01*
X302736381Y-123872620D01*
X302736381Y-123967858D01*
X302688762Y-124110715D01*
X302641143Y-124158334D01*
X302307810Y-124158334D01*
X302307810Y-123967858D01*
X302212571Y-124920239D02*
X302260190Y-125063096D01*
X302307810Y-125110715D01*
X302403048Y-125158334D01*
X302545905Y-125158334D01*
X302641143Y-125110715D01*
X302688762Y-125063096D01*
X302736381Y-124967858D01*
X302736381Y-124586905D01*
X301736381Y-124586905D01*
X301736381Y-124920239D01*
X301784000Y-125015477D01*
X301831619Y-125063096D01*
X301926857Y-125110715D01*
X302022095Y-125110715D01*
X302117333Y-125063096D01*
X302164952Y-125015477D01*
X302212571Y-124920239D01*
X302212571Y-124586905D01*
X301736381Y-125491667D02*
X301736381Y-126158334D01*
X302736381Y-125729762D01*
X123571143Y-65008334D02*
X123618762Y-64960715D01*
X123666381Y-64817858D01*
X123666381Y-64722620D01*
X123618762Y-64579762D01*
X123523524Y-64484524D01*
X123428286Y-64436905D01*
X123237810Y-64389286D01*
X123094952Y-64389286D01*
X122904476Y-64436905D01*
X122809238Y-64484524D01*
X122714000Y-64579762D01*
X122666381Y-64722620D01*
X122666381Y-64817858D01*
X122714000Y-64960715D01*
X122761619Y-65008334D01*
X123666381Y-66008334D02*
X123190190Y-65675000D01*
X123666381Y-65436905D02*
X122666381Y-65436905D01*
X122666381Y-65817858D01*
X122714000Y-65913096D01*
X122761619Y-65960715D01*
X122856857Y-66008334D01*
X122999714Y-66008334D01*
X123094952Y-65960715D01*
X123142571Y-65913096D01*
X123190190Y-65817858D01*
X123190190Y-65436905D01*
X122714000Y-66960715D02*
X122666381Y-66865477D01*
X122666381Y-66722620D01*
X122714000Y-66579762D01*
X122809238Y-66484524D01*
X122904476Y-66436905D01*
X123094952Y-66389286D01*
X123237810Y-66389286D01*
X123428286Y-66436905D01*
X123523524Y-66484524D01*
X123618762Y-66579762D01*
X123666381Y-66722620D01*
X123666381Y-66817858D01*
X123618762Y-66960715D01*
X123571143Y-67008334D01*
X123237810Y-67008334D01*
X123237810Y-66817858D01*
X123142571Y-67770239D02*
X123190190Y-67913096D01*
X123237810Y-67960715D01*
X123333048Y-68008334D01*
X123475905Y-68008334D01*
X123571143Y-67960715D01*
X123618762Y-67913096D01*
X123666381Y-67817858D01*
X123666381Y-67436905D01*
X122666381Y-67436905D01*
X122666381Y-67770239D01*
X122714000Y-67865477D01*
X122761619Y-67913096D01*
X122856857Y-67960715D01*
X122952095Y-67960715D01*
X123047333Y-67913096D01*
X123094952Y-67865477D01*
X123142571Y-67770239D01*
X123142571Y-67436905D01*
X122666381Y-68865477D02*
X122666381Y-68675000D01*
X122714000Y-68579762D01*
X122761619Y-68532143D01*
X122904476Y-68436905D01*
X123094952Y-68389286D01*
X123475905Y-68389286D01*
X123571143Y-68436905D01*
X123618762Y-68484524D01*
X123666381Y-68579762D01*
X123666381Y-68770239D01*
X123618762Y-68865477D01*
X123571143Y-68913096D01*
X123475905Y-68960715D01*
X123237810Y-68960715D01*
X123142571Y-68913096D01*
X123094952Y-68865477D01*
X123047333Y-68770239D01*
X123047333Y-68579762D01*
X123094952Y-68484524D01*
X123142571Y-68436905D01*
X123237810Y-68389286D01*
X255016143Y-122158334D02*
X255063762Y-122110715D01*
X255111381Y-121967858D01*
X255111381Y-121872620D01*
X255063762Y-121729762D01*
X254968524Y-121634524D01*
X254873286Y-121586905D01*
X254682810Y-121539286D01*
X254539952Y-121539286D01*
X254349476Y-121586905D01*
X254254238Y-121634524D01*
X254159000Y-121729762D01*
X254111381Y-121872620D01*
X254111381Y-121967858D01*
X254159000Y-122110715D01*
X254206619Y-122158334D01*
X255111381Y-123158334D02*
X254635190Y-122825000D01*
X255111381Y-122586905D02*
X254111381Y-122586905D01*
X254111381Y-122967858D01*
X254159000Y-123063096D01*
X254206619Y-123110715D01*
X254301857Y-123158334D01*
X254444714Y-123158334D01*
X254539952Y-123110715D01*
X254587571Y-123063096D01*
X254635190Y-122967858D01*
X254635190Y-122586905D01*
X254159000Y-124110715D02*
X254111381Y-124015477D01*
X254111381Y-123872620D01*
X254159000Y-123729762D01*
X254254238Y-123634524D01*
X254349476Y-123586905D01*
X254539952Y-123539286D01*
X254682810Y-123539286D01*
X254873286Y-123586905D01*
X254968524Y-123634524D01*
X255063762Y-123729762D01*
X255111381Y-123872620D01*
X255111381Y-123967858D01*
X255063762Y-124110715D01*
X255016143Y-124158334D01*
X254682810Y-124158334D01*
X254682810Y-123967858D01*
X254587571Y-124920239D02*
X254635190Y-125063096D01*
X254682810Y-125110715D01*
X254778048Y-125158334D01*
X254920905Y-125158334D01*
X255016143Y-125110715D01*
X255063762Y-125063096D01*
X255111381Y-124967858D01*
X255111381Y-124586905D01*
X254111381Y-124586905D01*
X254111381Y-124920239D01*
X254159000Y-125015477D01*
X254206619Y-125063096D01*
X254301857Y-125110715D01*
X254397095Y-125110715D01*
X254492333Y-125063096D01*
X254539952Y-125015477D01*
X254587571Y-124920239D01*
X254587571Y-124586905D01*
X254111381Y-126063096D02*
X254111381Y-125586905D01*
X254587571Y-125539286D01*
X254539952Y-125586905D01*
X254492333Y-125682143D01*
X254492333Y-125920239D01*
X254539952Y-126015477D01*
X254587571Y-126063096D01*
X254682810Y-126110715D01*
X254920905Y-126110715D01*
X255016143Y-126063096D01*
X255063762Y-126015477D01*
X255111381Y-125920239D01*
X255111381Y-125682143D01*
X255063762Y-125586905D01*
X255016143Y-125539286D01*
X171196143Y-65008334D02*
X171243762Y-64960715D01*
X171291381Y-64817858D01*
X171291381Y-64722620D01*
X171243762Y-64579762D01*
X171148524Y-64484524D01*
X171053286Y-64436905D01*
X170862810Y-64389286D01*
X170719952Y-64389286D01*
X170529476Y-64436905D01*
X170434238Y-64484524D01*
X170339000Y-64579762D01*
X170291381Y-64722620D01*
X170291381Y-64817858D01*
X170339000Y-64960715D01*
X170386619Y-65008334D01*
X171291381Y-66008334D02*
X170815190Y-65675000D01*
X171291381Y-65436905D02*
X170291381Y-65436905D01*
X170291381Y-65817858D01*
X170339000Y-65913096D01*
X170386619Y-65960715D01*
X170481857Y-66008334D01*
X170624714Y-66008334D01*
X170719952Y-65960715D01*
X170767571Y-65913096D01*
X170815190Y-65817858D01*
X170815190Y-65436905D01*
X170339000Y-66960715D02*
X170291381Y-66865477D01*
X170291381Y-66722620D01*
X170339000Y-66579762D01*
X170434238Y-66484524D01*
X170529476Y-66436905D01*
X170719952Y-66389286D01*
X170862810Y-66389286D01*
X171053286Y-66436905D01*
X171148524Y-66484524D01*
X171243762Y-66579762D01*
X171291381Y-66722620D01*
X171291381Y-66817858D01*
X171243762Y-66960715D01*
X171196143Y-67008334D01*
X170862810Y-67008334D01*
X170862810Y-66817858D01*
X170767571Y-67770239D02*
X170815190Y-67913096D01*
X170862810Y-67960715D01*
X170958048Y-68008334D01*
X171100905Y-68008334D01*
X171196143Y-67960715D01*
X171243762Y-67913096D01*
X171291381Y-67817858D01*
X171291381Y-67436905D01*
X170291381Y-67436905D01*
X170291381Y-67770239D01*
X170339000Y-67865477D01*
X170386619Y-67913096D01*
X170481857Y-67960715D01*
X170577095Y-67960715D01*
X170672333Y-67913096D01*
X170719952Y-67865477D01*
X170767571Y-67770239D01*
X170767571Y-67436905D01*
X170624714Y-68865477D02*
X171291381Y-68865477D01*
X170243762Y-68627381D02*
X170958048Y-68389286D01*
X170958048Y-69008334D01*
X218948143Y-122158334D02*
X218995762Y-122110715D01*
X219043381Y-121967858D01*
X219043381Y-121872620D01*
X218995762Y-121729762D01*
X218900524Y-121634524D01*
X218805286Y-121586905D01*
X218614810Y-121539286D01*
X218471952Y-121539286D01*
X218281476Y-121586905D01*
X218186238Y-121634524D01*
X218091000Y-121729762D01*
X218043381Y-121872620D01*
X218043381Y-121967858D01*
X218091000Y-122110715D01*
X218138619Y-122158334D01*
X219043381Y-123158334D02*
X218567190Y-122825000D01*
X219043381Y-122586905D02*
X218043381Y-122586905D01*
X218043381Y-122967858D01*
X218091000Y-123063096D01*
X218138619Y-123110715D01*
X218233857Y-123158334D01*
X218376714Y-123158334D01*
X218471952Y-123110715D01*
X218519571Y-123063096D01*
X218567190Y-122967858D01*
X218567190Y-122586905D01*
X218091000Y-124110715D02*
X218043381Y-124015477D01*
X218043381Y-123872620D01*
X218091000Y-123729762D01*
X218186238Y-123634524D01*
X218281476Y-123586905D01*
X218471952Y-123539286D01*
X218614810Y-123539286D01*
X218805286Y-123586905D01*
X218900524Y-123634524D01*
X218995762Y-123729762D01*
X219043381Y-123872620D01*
X219043381Y-123967858D01*
X218995762Y-124110715D01*
X218948143Y-124158334D01*
X218614810Y-124158334D01*
X218614810Y-123967858D01*
X218519571Y-124920239D02*
X218567190Y-125063096D01*
X218614810Y-125110715D01*
X218710048Y-125158334D01*
X218852905Y-125158334D01*
X218948143Y-125110715D01*
X218995762Y-125063096D01*
X219043381Y-124967858D01*
X219043381Y-124586905D01*
X218043381Y-124586905D01*
X218043381Y-124920239D01*
X218091000Y-125015477D01*
X218138619Y-125063096D01*
X218233857Y-125110715D01*
X218329095Y-125110715D01*
X218424333Y-125063096D01*
X218471952Y-125015477D01*
X218519571Y-124920239D01*
X218519571Y-124586905D01*
X218043381Y-125491667D02*
X218043381Y-126110715D01*
X218424333Y-125777381D01*
X218424333Y-125920239D01*
X218471952Y-126015477D01*
X218519571Y-126063096D01*
X218614810Y-126110715D01*
X218852905Y-126110715D01*
X218948143Y-126063096D01*
X218995762Y-126015477D01*
X219043381Y-125920239D01*
X219043381Y-125634524D01*
X218995762Y-125539286D01*
X218948143Y-125491667D01*
X218821143Y-65008334D02*
X218868762Y-64960715D01*
X218916381Y-64817858D01*
X218916381Y-64722620D01*
X218868762Y-64579762D01*
X218773524Y-64484524D01*
X218678286Y-64436905D01*
X218487810Y-64389286D01*
X218344952Y-64389286D01*
X218154476Y-64436905D01*
X218059238Y-64484524D01*
X217964000Y-64579762D01*
X217916381Y-64722620D01*
X217916381Y-64817858D01*
X217964000Y-64960715D01*
X218011619Y-65008334D01*
X218916381Y-66008334D02*
X218440190Y-65675000D01*
X218916381Y-65436905D02*
X217916381Y-65436905D01*
X217916381Y-65817858D01*
X217964000Y-65913096D01*
X218011619Y-65960715D01*
X218106857Y-66008334D01*
X218249714Y-66008334D01*
X218344952Y-65960715D01*
X218392571Y-65913096D01*
X218440190Y-65817858D01*
X218440190Y-65436905D01*
X217964000Y-66960715D02*
X217916381Y-66865477D01*
X217916381Y-66722620D01*
X217964000Y-66579762D01*
X218059238Y-66484524D01*
X218154476Y-66436905D01*
X218344952Y-66389286D01*
X218487810Y-66389286D01*
X218678286Y-66436905D01*
X218773524Y-66484524D01*
X218868762Y-66579762D01*
X218916381Y-66722620D01*
X218916381Y-66817858D01*
X218868762Y-66960715D01*
X218821143Y-67008334D01*
X218487810Y-67008334D01*
X218487810Y-66817858D01*
X218392571Y-67770239D02*
X218440190Y-67913096D01*
X218487810Y-67960715D01*
X218583048Y-68008334D01*
X218725905Y-68008334D01*
X218821143Y-67960715D01*
X218868762Y-67913096D01*
X218916381Y-67817858D01*
X218916381Y-67436905D01*
X217916381Y-67436905D01*
X217916381Y-67770239D01*
X217964000Y-67865477D01*
X218011619Y-67913096D01*
X218106857Y-67960715D01*
X218202095Y-67960715D01*
X218297333Y-67913096D01*
X218344952Y-67865477D01*
X218392571Y-67770239D01*
X218392571Y-67436905D01*
X218011619Y-68389286D02*
X217964000Y-68436905D01*
X217916381Y-68532143D01*
X217916381Y-68770239D01*
X217964000Y-68865477D01*
X218011619Y-68913096D01*
X218106857Y-68960715D01*
X218202095Y-68960715D01*
X218344952Y-68913096D01*
X218916381Y-68341667D01*
X218916381Y-68960715D01*
X175387143Y-122158334D02*
X175434762Y-122110715D01*
X175482381Y-121967858D01*
X175482381Y-121872620D01*
X175434762Y-121729762D01*
X175339524Y-121634524D01*
X175244286Y-121586905D01*
X175053810Y-121539286D01*
X174910952Y-121539286D01*
X174720476Y-121586905D01*
X174625238Y-121634524D01*
X174530000Y-121729762D01*
X174482381Y-121872620D01*
X174482381Y-121967858D01*
X174530000Y-122110715D01*
X174577619Y-122158334D01*
X175482381Y-123158334D02*
X175006190Y-122825000D01*
X175482381Y-122586905D02*
X174482381Y-122586905D01*
X174482381Y-122967858D01*
X174530000Y-123063096D01*
X174577619Y-123110715D01*
X174672857Y-123158334D01*
X174815714Y-123158334D01*
X174910952Y-123110715D01*
X174958571Y-123063096D01*
X175006190Y-122967858D01*
X175006190Y-122586905D01*
X174530000Y-124110715D02*
X174482381Y-124015477D01*
X174482381Y-123872620D01*
X174530000Y-123729762D01*
X174625238Y-123634524D01*
X174720476Y-123586905D01*
X174910952Y-123539286D01*
X175053810Y-123539286D01*
X175244286Y-123586905D01*
X175339524Y-123634524D01*
X175434762Y-123729762D01*
X175482381Y-123872620D01*
X175482381Y-123967858D01*
X175434762Y-124110715D01*
X175387143Y-124158334D01*
X175053810Y-124158334D01*
X175053810Y-123967858D01*
X174958571Y-124920239D02*
X175006190Y-125063096D01*
X175053810Y-125110715D01*
X175149048Y-125158334D01*
X175291905Y-125158334D01*
X175387143Y-125110715D01*
X175434762Y-125063096D01*
X175482381Y-124967858D01*
X175482381Y-124586905D01*
X174482381Y-124586905D01*
X174482381Y-124920239D01*
X174530000Y-125015477D01*
X174577619Y-125063096D01*
X174672857Y-125110715D01*
X174768095Y-125110715D01*
X174863333Y-125063096D01*
X174910952Y-125015477D01*
X174958571Y-124920239D01*
X174958571Y-124586905D01*
X175482381Y-126110715D02*
X175482381Y-125539286D01*
X175482381Y-125825000D02*
X174482381Y-125825000D01*
X174625238Y-125729762D01*
X174720476Y-125634524D01*
X174768095Y-125539286D01*
X289560143Y-101592143D02*
X289607762Y-101544524D01*
X289655381Y-101401667D01*
X289655381Y-101306429D01*
X289607762Y-101163571D01*
X289512524Y-101068333D01*
X289417286Y-101020714D01*
X289226810Y-100973095D01*
X289083952Y-100973095D01*
X288893476Y-101020714D01*
X288798238Y-101068333D01*
X288703000Y-101163571D01*
X288655381Y-101306429D01*
X288655381Y-101401667D01*
X288703000Y-101544524D01*
X288750619Y-101592143D01*
X289655381Y-102544524D02*
X289655381Y-101973095D01*
X289655381Y-102258809D02*
X288655381Y-102258809D01*
X288798238Y-102163571D01*
X288893476Y-102068333D01*
X288941095Y-101973095D01*
X288988714Y-103401667D02*
X289655381Y-103401667D01*
X288607762Y-103163571D02*
X289322048Y-102925476D01*
X289322048Y-103544524D01*
X294132143Y-100576143D02*
X294179762Y-100528524D01*
X294227381Y-100385667D01*
X294227381Y-100290429D01*
X294179762Y-100147571D01*
X294084524Y-100052333D01*
X293989286Y-100004714D01*
X293798810Y-99957095D01*
X293655952Y-99957095D01*
X293465476Y-100004714D01*
X293370238Y-100052333D01*
X293275000Y-100147571D01*
X293227381Y-100290429D01*
X293227381Y-100385667D01*
X293275000Y-100528524D01*
X293322619Y-100576143D01*
X294227381Y-101528524D02*
X294227381Y-100957095D01*
X294227381Y-101242809D02*
X293227381Y-101242809D01*
X293370238Y-101147571D01*
X293465476Y-101052333D01*
X293513095Y-100957095D01*
X293227381Y-101861857D02*
X293227381Y-102480905D01*
X293608333Y-102147571D01*
X293608333Y-102290429D01*
X293655952Y-102385667D01*
X293703571Y-102433286D01*
X293798810Y-102480905D01*
X294036905Y-102480905D01*
X294132143Y-102433286D01*
X294179762Y-102385667D01*
X294227381Y-102290429D01*
X294227381Y-102004714D01*
X294179762Y-101909476D01*
X294132143Y-101861857D01*
X297942143Y-94607143D02*
X297989762Y-94559524D01*
X298037381Y-94416667D01*
X298037381Y-94321429D01*
X297989762Y-94178571D01*
X297894524Y-94083333D01*
X297799286Y-94035714D01*
X297608810Y-93988095D01*
X297465952Y-93988095D01*
X297275476Y-94035714D01*
X297180238Y-94083333D01*
X297085000Y-94178571D01*
X297037381Y-94321429D01*
X297037381Y-94416667D01*
X297085000Y-94559524D01*
X297132619Y-94607143D01*
X298037381Y-95559524D02*
X298037381Y-94988095D01*
X298037381Y-95273809D02*
X297037381Y-95273809D01*
X297180238Y-95178571D01*
X297275476Y-95083333D01*
X297323095Y-94988095D01*
X297132619Y-95940476D02*
X297085000Y-95988095D01*
X297037381Y-96083333D01*
X297037381Y-96321429D01*
X297085000Y-96416667D01*
X297132619Y-96464286D01*
X297227857Y-96511905D01*
X297323095Y-96511905D01*
X297465952Y-96464286D01*
X298037381Y-95892857D01*
X298037381Y-96511905D01*
X292869857Y-91646143D02*
X292917476Y-91693762D01*
X293060333Y-91741381D01*
X293155571Y-91741381D01*
X293298429Y-91693762D01*
X293393667Y-91598524D01*
X293441286Y-91503286D01*
X293488905Y-91312810D01*
X293488905Y-91169952D01*
X293441286Y-90979476D01*
X293393667Y-90884238D01*
X293298429Y-90789000D01*
X293155571Y-90741381D01*
X293060333Y-90741381D01*
X292917476Y-90789000D01*
X292869857Y-90836619D01*
X291917476Y-91741381D02*
X292488905Y-91741381D01*
X292203191Y-91741381D02*
X292203191Y-90741381D01*
X292298429Y-90884238D01*
X292393667Y-90979476D01*
X292488905Y-91027095D01*
X290965095Y-91741381D02*
X291536524Y-91741381D01*
X291250810Y-91741381D02*
X291250810Y-90741381D01*
X291346048Y-90884238D01*
X291441286Y-90979476D01*
X291536524Y-91027095D01*
X295656143Y-94607143D02*
X295703762Y-94559524D01*
X295751381Y-94416667D01*
X295751381Y-94321429D01*
X295703762Y-94178571D01*
X295608524Y-94083333D01*
X295513286Y-94035714D01*
X295322810Y-93988095D01*
X295179952Y-93988095D01*
X294989476Y-94035714D01*
X294894238Y-94083333D01*
X294799000Y-94178571D01*
X294751381Y-94321429D01*
X294751381Y-94416667D01*
X294799000Y-94559524D01*
X294846619Y-94607143D01*
X295751381Y-95559524D02*
X295751381Y-94988095D01*
X295751381Y-95273809D02*
X294751381Y-95273809D01*
X294894238Y-95178571D01*
X294989476Y-95083333D01*
X295037095Y-94988095D01*
X294751381Y-96178571D02*
X294751381Y-96273810D01*
X294799000Y-96369048D01*
X294846619Y-96416667D01*
X294941857Y-96464286D01*
X295132333Y-96511905D01*
X295370429Y-96511905D01*
X295560905Y-96464286D01*
X295656143Y-96416667D01*
X295703762Y-96369048D01*
X295751381Y-96273810D01*
X295751381Y-96178571D01*
X295703762Y-96083333D01*
X295656143Y-96035714D01*
X295560905Y-95988095D01*
X295370429Y-95940476D01*
X295132333Y-95940476D01*
X294941857Y-95988095D01*
X294846619Y-96035714D01*
X294799000Y-96083333D01*
X294751381Y-96178571D01*
X292393666Y-89487143D02*
X292441285Y-89534762D01*
X292584142Y-89582381D01*
X292679380Y-89582381D01*
X292822238Y-89534762D01*
X292917476Y-89439524D01*
X292965095Y-89344286D01*
X293012714Y-89153810D01*
X293012714Y-89010952D01*
X292965095Y-88820476D01*
X292917476Y-88725238D01*
X292822238Y-88630000D01*
X292679380Y-88582381D01*
X292584142Y-88582381D01*
X292441285Y-88630000D01*
X292393666Y-88677619D01*
X291917476Y-89582381D02*
X291727000Y-89582381D01*
X291631761Y-89534762D01*
X291584142Y-89487143D01*
X291488904Y-89344286D01*
X291441285Y-89153810D01*
X291441285Y-88772857D01*
X291488904Y-88677619D01*
X291536523Y-88630000D01*
X291631761Y-88582381D01*
X291822238Y-88582381D01*
X291917476Y-88630000D01*
X291965095Y-88677619D01*
X292012714Y-88772857D01*
X292012714Y-89010952D01*
X291965095Y-89106190D01*
X291917476Y-89153810D01*
X291822238Y-89201429D01*
X291631761Y-89201429D01*
X291536523Y-89153810D01*
X291488904Y-89106190D01*
X291441285Y-89010952D01*
X296418143Y-100163334D02*
X296465762Y-100115715D01*
X296513381Y-99972858D01*
X296513381Y-99877620D01*
X296465762Y-99734762D01*
X296370524Y-99639524D01*
X296275286Y-99591905D01*
X296084810Y-99544286D01*
X295941952Y-99544286D01*
X295751476Y-99591905D01*
X295656238Y-99639524D01*
X295561000Y-99734762D01*
X295513381Y-99877620D01*
X295513381Y-99972858D01*
X295561000Y-100115715D01*
X295608619Y-100163334D01*
X295941952Y-100734762D02*
X295894333Y-100639524D01*
X295846714Y-100591905D01*
X295751476Y-100544286D01*
X295703857Y-100544286D01*
X295608619Y-100591905D01*
X295561000Y-100639524D01*
X295513381Y-100734762D01*
X295513381Y-100925239D01*
X295561000Y-101020477D01*
X295608619Y-101068096D01*
X295703857Y-101115715D01*
X295751476Y-101115715D01*
X295846714Y-101068096D01*
X295894333Y-101020477D01*
X295941952Y-100925239D01*
X295941952Y-100734762D01*
X295989571Y-100639524D01*
X296037190Y-100591905D01*
X296132429Y-100544286D01*
X296322905Y-100544286D01*
X296418143Y-100591905D01*
X296465762Y-100639524D01*
X296513381Y-100734762D01*
X296513381Y-100925239D01*
X296465762Y-101020477D01*
X296418143Y-101068096D01*
X296322905Y-101115715D01*
X296132429Y-101115715D01*
X296037190Y-101068096D01*
X295989571Y-101020477D01*
X295941952Y-100925239D01*
X291846143Y-102068334D02*
X291893762Y-102020715D01*
X291941381Y-101877858D01*
X291941381Y-101782620D01*
X291893762Y-101639762D01*
X291798524Y-101544524D01*
X291703286Y-101496905D01*
X291512810Y-101449286D01*
X291369952Y-101449286D01*
X291179476Y-101496905D01*
X291084238Y-101544524D01*
X290989000Y-101639762D01*
X290941381Y-101782620D01*
X290941381Y-101877858D01*
X290989000Y-102020715D01*
X291036619Y-102068334D01*
X290941381Y-102401667D02*
X290941381Y-103068334D01*
X291941381Y-102639762D01*
X135929666Y-135588143D02*
X135977285Y-135635762D01*
X136120142Y-135683381D01*
X136215380Y-135683381D01*
X136358238Y-135635762D01*
X136453476Y-135540524D01*
X136501095Y-135445286D01*
X136548714Y-135254810D01*
X136548714Y-135111952D01*
X136501095Y-134921476D01*
X136453476Y-134826238D01*
X136358238Y-134731000D01*
X136215380Y-134683381D01*
X136120142Y-134683381D01*
X135977285Y-134731000D01*
X135929666Y-134778619D01*
X135072523Y-134683381D02*
X135263000Y-134683381D01*
X135358238Y-134731000D01*
X135405857Y-134778619D01*
X135501095Y-134921476D01*
X135548714Y-135111952D01*
X135548714Y-135492905D01*
X135501095Y-135588143D01*
X135453476Y-135635762D01*
X135358238Y-135683381D01*
X135167761Y-135683381D01*
X135072523Y-135635762D01*
X135024904Y-135588143D01*
X134977285Y-135492905D01*
X134977285Y-135254810D01*
X135024904Y-135159571D01*
X135072523Y-135111952D01*
X135167761Y-135064333D01*
X135358238Y-135064333D01*
X135453476Y-135111952D01*
X135501095Y-135159571D01*
X135548714Y-135254810D01*
X148502666Y-121666143D02*
X148550285Y-121713762D01*
X148693142Y-121761381D01*
X148788380Y-121761381D01*
X148931238Y-121713762D01*
X149026476Y-121618524D01*
X149074095Y-121523286D01*
X149121714Y-121332810D01*
X149121714Y-121189952D01*
X149074095Y-120999476D01*
X149026476Y-120904238D01*
X148931238Y-120809000D01*
X148788380Y-120761381D01*
X148693142Y-120761381D01*
X148550285Y-120809000D01*
X148502666Y-120856619D01*
X147597904Y-120761381D02*
X148074095Y-120761381D01*
X148121714Y-121237571D01*
X148074095Y-121189952D01*
X147978857Y-121142333D01*
X147740761Y-121142333D01*
X147645523Y-121189952D01*
X147597904Y-121237571D01*
X147550285Y-121332810D01*
X147550285Y-121570905D01*
X147597904Y-121666143D01*
X147645523Y-121713762D01*
X147740761Y-121761381D01*
X147978857Y-121761381D01*
X148074095Y-121713762D01*
X148121714Y-121666143D01*
X155908143Y-131151334D02*
X155955762Y-131103715D01*
X156003381Y-130960858D01*
X156003381Y-130865620D01*
X155955762Y-130722762D01*
X155860524Y-130627524D01*
X155765286Y-130579905D01*
X155574810Y-130532286D01*
X155431952Y-130532286D01*
X155241476Y-130579905D01*
X155146238Y-130627524D01*
X155051000Y-130722762D01*
X155003381Y-130865620D01*
X155003381Y-130960858D01*
X155051000Y-131103715D01*
X155098619Y-131151334D01*
X155336714Y-132008477D02*
X156003381Y-132008477D01*
X154955762Y-131770381D02*
X155670048Y-131532286D01*
X155670048Y-132151334D01*
X137961666Y-136525143D02*
X138009285Y-136572762D01*
X138152142Y-136620381D01*
X138247380Y-136620381D01*
X138390238Y-136572762D01*
X138485476Y-136477524D01*
X138533095Y-136382286D01*
X138580714Y-136191810D01*
X138580714Y-136048952D01*
X138533095Y-135858476D01*
X138485476Y-135763238D01*
X138390238Y-135668000D01*
X138247380Y-135620381D01*
X138152142Y-135620381D01*
X138009285Y-135668000D01*
X137961666Y-135715619D01*
X137628333Y-135620381D02*
X137009285Y-135620381D01*
X137342619Y-136001333D01*
X137199761Y-136001333D01*
X137104523Y-136048952D01*
X137056904Y-136096571D01*
X137009285Y-136191810D01*
X137009285Y-136429905D01*
X137056904Y-136525143D01*
X137104523Y-136572762D01*
X137199761Y-136620381D01*
X137485476Y-136620381D01*
X137580714Y-136572762D01*
X137628333Y-136525143D01*
X135382143Y-130389334D02*
X135429762Y-130341715D01*
X135477381Y-130198858D01*
X135477381Y-130103620D01*
X135429762Y-129960762D01*
X135334524Y-129865524D01*
X135239286Y-129817905D01*
X135048810Y-129770286D01*
X134905952Y-129770286D01*
X134715476Y-129817905D01*
X134620238Y-129865524D01*
X134525000Y-129960762D01*
X134477381Y-130103620D01*
X134477381Y-130198858D01*
X134525000Y-130341715D01*
X134572619Y-130389334D01*
X134572619Y-130770286D02*
X134525000Y-130817905D01*
X134477381Y-130913143D01*
X134477381Y-131151239D01*
X134525000Y-131246477D01*
X134572619Y-131294096D01*
X134667857Y-131341715D01*
X134763095Y-131341715D01*
X134905952Y-131294096D01*
X135477381Y-130722667D01*
X135477381Y-131341715D01*
X132119666Y-132588143D02*
X132167285Y-132635762D01*
X132310142Y-132683381D01*
X132405380Y-132683381D01*
X132548238Y-132635762D01*
X132643476Y-132540524D01*
X132691095Y-132445286D01*
X132738714Y-132254810D01*
X132738714Y-132111952D01*
X132691095Y-131921476D01*
X132643476Y-131826238D01*
X132548238Y-131731000D01*
X132405380Y-131683381D01*
X132310142Y-131683381D01*
X132167285Y-131731000D01*
X132119666Y-131778619D01*
X131167285Y-132683381D02*
X131738714Y-132683381D01*
X131453000Y-132683381D02*
X131453000Y-131683381D01*
X131548238Y-131826238D01*
X131643476Y-131921476D01*
X131738714Y-131969095D01*
X291845905Y-98956381D02*
X291845905Y-99765905D01*
X291798286Y-99861143D01*
X291750667Y-99908762D01*
X291655429Y-99956381D01*
X291464952Y-99956381D01*
X291369714Y-99908762D01*
X291322095Y-99861143D01*
X291274476Y-99765905D01*
X291274476Y-98956381D01*
X290369714Y-99289714D02*
X290369714Y-99956381D01*
X290607810Y-98908762D02*
X290845905Y-99623048D01*
X290226857Y-99623048D01*
X67975695Y-55652381D02*
X67975695Y-56461905D01*
X67928076Y-56557143D01*
X67880457Y-56604762D01*
X67785219Y-56652381D01*
X67594742Y-56652381D01*
X67499504Y-56604762D01*
X67451885Y-56557143D01*
X67404266Y-56461905D01*
X67404266Y-55652381D01*
X66975695Y-56604762D02*
X66832838Y-56652381D01*
X66594742Y-56652381D01*
X66499504Y-56604762D01*
X66451885Y-56557143D01*
X66404266Y-56461905D01*
X66404266Y-56366667D01*
X66451885Y-56271429D01*
X66499504Y-56223810D01*
X66594742Y-56176190D01*
X66785219Y-56128571D01*
X66880457Y-56080952D01*
X66928076Y-56033333D01*
X66975695Y-55938095D01*
X66975695Y-55842857D01*
X66928076Y-55747619D01*
X66880457Y-55700000D01*
X66785219Y-55652381D01*
X66547123Y-55652381D01*
X66404266Y-55700000D01*
X65642361Y-56128571D02*
X65499504Y-56176190D01*
X65451885Y-56223810D01*
X65404266Y-56319048D01*
X65404266Y-56461905D01*
X65451885Y-56557143D01*
X65499504Y-56604762D01*
X65594742Y-56652381D01*
X65975695Y-56652381D01*
X65975695Y-55652381D01*
X65642361Y-55652381D01*
X65547123Y-55700000D01*
X65499504Y-55747619D01*
X65451885Y-55842857D01*
X65451885Y-55938095D01*
X65499504Y-56033333D01*
X65547123Y-56080952D01*
X65642361Y-56128571D01*
X65975695Y-56128571D01*
X64451885Y-56652381D02*
X65023314Y-56652381D01*
X64737600Y-56652381D02*
X64737600Y-55652381D01*
X64832838Y-55795238D01*
X64928076Y-55890476D01*
X65023314Y-55938095D01*
X313158036Y-139374256D02*
X313158036Y-138374256D01*
X312919941Y-138374256D01*
X312777083Y-138421875D01*
X312681845Y-138517113D01*
X312634226Y-138612351D01*
X312586607Y-138802827D01*
X312586607Y-138945685D01*
X312634226Y-139136161D01*
X312681845Y-139231399D01*
X312777083Y-139326637D01*
X312919941Y-139374256D01*
X313158036Y-139374256D01*
X311729464Y-138374256D02*
X311919941Y-138374256D01*
X312015179Y-138421875D01*
X312062798Y-138469494D01*
X312158036Y-138612351D01*
X312205655Y-138802827D01*
X312205655Y-139183780D01*
X312158036Y-139279018D01*
X312110417Y-139326637D01*
X312015179Y-139374256D01*
X311824702Y-139374256D01*
X311729464Y-139326637D01*
X311681845Y-139279018D01*
X311634226Y-139183780D01*
X311634226Y-138945685D01*
X311681845Y-138850446D01*
X311729464Y-138802827D01*
X311824702Y-138755208D01*
X312015179Y-138755208D01*
X312110417Y-138802827D01*
X312158036Y-138850446D01*
X312205655Y-138945685D01*
X310777083Y-138707589D02*
X310777083Y-139374256D01*
X311015179Y-138326637D02*
X311253274Y-139040923D01*
X310634226Y-139040923D01*
X314396131Y-129754464D02*
X313396131Y-129754464D01*
X313396131Y-129992559D01*
X313443750Y-130135417D01*
X313538988Y-130230655D01*
X313634226Y-130278274D01*
X313824702Y-130325893D01*
X313967560Y-130325893D01*
X314158036Y-130278274D01*
X314253274Y-130230655D01*
X314348512Y-130135417D01*
X314396131Y-129992559D01*
X314396131Y-129754464D01*
X313396131Y-131183036D02*
X313396131Y-130992559D01*
X313443750Y-130897321D01*
X313491369Y-130849702D01*
X313634226Y-130754464D01*
X313824702Y-130706845D01*
X314205655Y-130706845D01*
X314300893Y-130754464D01*
X314348512Y-130802083D01*
X314396131Y-130897321D01*
X314396131Y-131087798D01*
X314348512Y-131183036D01*
X314300893Y-131230655D01*
X314205655Y-131278274D01*
X313967560Y-131278274D01*
X313872321Y-131230655D01*
X313824702Y-131183036D01*
X313777083Y-131087798D01*
X313777083Y-130897321D01*
X313824702Y-130802083D01*
X313872321Y-130754464D01*
X313967560Y-130706845D01*
X313396131Y-131611607D02*
X313396131Y-132230655D01*
X313777083Y-131897321D01*
X313777083Y-132040179D01*
X313824702Y-132135417D01*
X313872321Y-132183036D01*
X313967560Y-132230655D01*
X314205655Y-132230655D01*
X314300893Y-132183036D01*
X314348512Y-132135417D01*
X314396131Y-132040179D01*
X314396131Y-131754464D01*
X314348512Y-131659226D01*
X314300893Y-131611607D01*
X281058631Y-134516964D02*
X280058631Y-134516964D01*
X280058631Y-134755059D01*
X280106250Y-134897917D01*
X280201488Y-134993155D01*
X280296726Y-135040774D01*
X280487202Y-135088393D01*
X280630060Y-135088393D01*
X280820536Y-135040774D01*
X280915774Y-134993155D01*
X281011012Y-134897917D01*
X281058631Y-134755059D01*
X281058631Y-134516964D01*
X280058631Y-135993155D02*
X280058631Y-135516964D01*
X280534821Y-135469345D01*
X280487202Y-135516964D01*
X280439583Y-135612202D01*
X280439583Y-135850298D01*
X280487202Y-135945536D01*
X280534821Y-135993155D01*
X280630060Y-136040774D01*
X280868155Y-136040774D01*
X280963393Y-135993155D01*
X281011012Y-135945536D01*
X281058631Y-135850298D01*
X281058631Y-135612202D01*
X281011012Y-135516964D01*
X280963393Y-135469345D01*
X280058631Y-136897917D02*
X280058631Y-136707440D01*
X280106250Y-136612202D01*
X280153869Y-136564583D01*
X280296726Y-136469345D01*
X280487202Y-136421726D01*
X280868155Y-136421726D01*
X280963393Y-136469345D01*
X281011012Y-136516964D01*
X281058631Y-136612202D01*
X281058631Y-136802679D01*
X281011012Y-136897917D01*
X280963393Y-136945536D01*
X280868155Y-136993155D01*
X280630060Y-136993155D01*
X280534821Y-136945536D01*
X280487202Y-136897917D01*
X280439583Y-136802679D01*
X280439583Y-136612202D01*
X280487202Y-136516964D01*
X280534821Y-136469345D01*
X280630060Y-136421726D01*
X259627381Y-132135714D02*
X258627381Y-132135714D01*
X258627381Y-132373809D01*
X258675000Y-132516667D01*
X258770238Y-132611905D01*
X258865476Y-132659524D01*
X259055952Y-132707143D01*
X259198810Y-132707143D01*
X259389286Y-132659524D01*
X259484524Y-132611905D01*
X259579762Y-132516667D01*
X259627381Y-132373809D01*
X259627381Y-132135714D01*
X258960714Y-133564286D02*
X259627381Y-133564286D01*
X258579762Y-133326190D02*
X259294048Y-133088095D01*
X259294048Y-133707143D01*
X258722619Y-134040476D02*
X258675000Y-134088095D01*
X258627381Y-134183333D01*
X258627381Y-134421429D01*
X258675000Y-134516667D01*
X258722619Y-134564286D01*
X258817857Y-134611905D01*
X258913095Y-134611905D01*
X259055952Y-134564286D01*
X259627381Y-133992857D01*
X259627381Y-134611905D01*
X68323381Y-61595095D02*
X69132905Y-61595095D01*
X69228143Y-61642714D01*
X69275762Y-61690333D01*
X69323381Y-61785571D01*
X69323381Y-61976048D01*
X69275762Y-62071286D01*
X69228143Y-62118905D01*
X69132905Y-62166524D01*
X68323381Y-62166524D01*
X68323381Y-62547476D02*
X68323381Y-63166524D01*
X68704333Y-62833190D01*
X68704333Y-62976048D01*
X68751952Y-63071286D01*
X68799571Y-63118905D01*
X68894810Y-63166524D01*
X69132905Y-63166524D01*
X69228143Y-63118905D01*
X69275762Y-63071286D01*
X69323381Y-62976048D01*
X69323381Y-62690333D01*
X69275762Y-62595095D01*
X69228143Y-62547476D01*
X64189571Y-62023667D02*
X64189571Y-61690333D01*
X64713381Y-61690333D02*
X63713381Y-61690333D01*
X63713381Y-62166524D01*
X64713381Y-63071286D02*
X64713381Y-62499857D01*
X64713381Y-62785571D02*
X63713381Y-62785571D01*
X63856238Y-62690333D01*
X63951476Y-62595095D01*
X63999095Y-62499857D01*
X161797905Y-139628381D02*
X161797905Y-140437905D01*
X161750286Y-140533143D01*
X161702667Y-140580762D01*
X161607429Y-140628381D01*
X161416952Y-140628381D01*
X161321714Y-140580762D01*
X161274095Y-140533143D01*
X161226476Y-140437905D01*
X161226476Y-139628381D01*
X160274095Y-139628381D02*
X160750286Y-139628381D01*
X160797905Y-140104571D01*
X160750286Y-140056952D01*
X160655048Y-140009333D01*
X160416952Y-140009333D01*
X160321714Y-140056952D01*
X160274095Y-140104571D01*
X160226476Y-140199810D01*
X160226476Y-140437905D01*
X160274095Y-140533143D01*
X160321714Y-140580762D01*
X160416952Y-140628381D01*
X160655048Y-140628381D01*
X160750286Y-140580762D01*
X160797905Y-140533143D01*
D15*
X124214881Y-122229762D02*
X124214881Y-121753571D01*
X123214881Y-121753571D01*
X123691071Y-122563095D02*
X123691071Y-122896429D01*
X124214881Y-123039286D02*
X124214881Y-122563095D01*
X123214881Y-122563095D01*
X123214881Y-123039286D01*
X124214881Y-123467857D02*
X123214881Y-123467857D01*
X123214881Y-123705952D01*
X123262500Y-123848810D01*
X123357738Y-123944048D01*
X123452976Y-123991667D01*
X123643452Y-124039286D01*
X123786310Y-124039286D01*
X123976786Y-123991667D01*
X124072024Y-123944048D01*
X124167262Y-123848810D01*
X124214881Y-123705952D01*
X124214881Y-123467857D01*
X124214881Y-124991667D02*
X124214881Y-124420238D01*
X124214881Y-124705952D02*
X123214881Y-124705952D01*
X123357738Y-124610714D01*
X123452976Y-124515476D01*
X123500595Y-124420238D01*
X123310119Y-125372619D02*
X123262500Y-125420238D01*
X123214881Y-125515476D01*
X123214881Y-125753572D01*
X123262500Y-125848810D01*
X123310119Y-125896429D01*
X123405357Y-125944048D01*
X123500595Y-125944048D01*
X123643452Y-125896429D01*
X124214881Y-125325000D01*
X124214881Y-125944048D01*
X267089881Y-65079762D02*
X267089881Y-64603571D01*
X266089881Y-64603571D01*
X266566071Y-65413095D02*
X266566071Y-65746429D01*
X267089881Y-65889286D02*
X267089881Y-65413095D01*
X266089881Y-65413095D01*
X266089881Y-65889286D01*
X267089881Y-66317857D02*
X266089881Y-66317857D01*
X266089881Y-66555952D01*
X266137500Y-66698810D01*
X266232738Y-66794048D01*
X266327976Y-66841667D01*
X266518452Y-66889286D01*
X266661310Y-66889286D01*
X266851786Y-66841667D01*
X266947024Y-66794048D01*
X267042262Y-66698810D01*
X267089881Y-66555952D01*
X267089881Y-66317857D01*
X267089881Y-67841667D02*
X267089881Y-67270238D01*
X267089881Y-67555952D02*
X266089881Y-67555952D01*
X266232738Y-67460714D01*
X266327976Y-67365476D01*
X266375595Y-67270238D01*
X267089881Y-68794048D02*
X267089881Y-68222619D01*
X267089881Y-68508333D02*
X266089881Y-68508333D01*
X266232738Y-68413095D01*
X266327976Y-68317857D01*
X266375595Y-68222619D01*
X76589881Y-122229762D02*
X76589881Y-121753571D01*
X75589881Y-121753571D01*
X76066071Y-122563095D02*
X76066071Y-122896429D01*
X76589881Y-123039286D02*
X76589881Y-122563095D01*
X75589881Y-122563095D01*
X75589881Y-123039286D01*
X76589881Y-123467857D02*
X75589881Y-123467857D01*
X75589881Y-123705952D01*
X75637500Y-123848810D01*
X75732738Y-123944048D01*
X75827976Y-123991667D01*
X76018452Y-124039286D01*
X76161310Y-124039286D01*
X76351786Y-123991667D01*
X76447024Y-123944048D01*
X76542262Y-123848810D01*
X76589881Y-123705952D01*
X76589881Y-123467857D01*
X76589881Y-124991667D02*
X76589881Y-124420238D01*
X76589881Y-124705952D02*
X75589881Y-124705952D01*
X75732738Y-124610714D01*
X75827976Y-124515476D01*
X75875595Y-124420238D01*
X75589881Y-125610714D02*
X75589881Y-125705953D01*
X75637500Y-125801191D01*
X75685119Y-125848810D01*
X75780357Y-125896429D01*
X75970833Y-125944048D01*
X76208929Y-125944048D01*
X76399405Y-125896429D01*
X76494643Y-125848810D01*
X76542262Y-125801191D01*
X76589881Y-125705953D01*
X76589881Y-125610714D01*
X76542262Y-125515476D01*
X76494643Y-125467857D01*
X76399405Y-125420238D01*
X76208929Y-125372619D01*
X75970833Y-125372619D01*
X75780357Y-125420238D01*
X75685119Y-125467857D01*
X75637500Y-125515476D01*
X75589881Y-125610714D01*
X314714881Y-65555953D02*
X314714881Y-65079762D01*
X313714881Y-65079762D01*
X314191071Y-65889286D02*
X314191071Y-66222620D01*
X314714881Y-66365477D02*
X314714881Y-65889286D01*
X313714881Y-65889286D01*
X313714881Y-66365477D01*
X314714881Y-66794048D02*
X313714881Y-66794048D01*
X313714881Y-67032143D01*
X313762500Y-67175001D01*
X313857738Y-67270239D01*
X313952976Y-67317858D01*
X314143452Y-67365477D01*
X314286310Y-67365477D01*
X314476786Y-67317858D01*
X314572024Y-67270239D01*
X314667262Y-67175001D01*
X314714881Y-67032143D01*
X314714881Y-66794048D01*
X314714881Y-67841667D02*
X314714881Y-68032143D01*
X314667262Y-68127382D01*
X314619643Y-68175001D01*
X314476786Y-68270239D01*
X314286310Y-68317858D01*
X313905357Y-68317858D01*
X313810119Y-68270239D01*
X313762500Y-68222620D01*
X313714881Y-68127382D01*
X313714881Y-67936905D01*
X313762500Y-67841667D01*
X313810119Y-67794048D01*
X313905357Y-67746429D01*
X314143452Y-67746429D01*
X314238690Y-67794048D01*
X314286310Y-67841667D01*
X314333929Y-67936905D01*
X314333929Y-68127382D01*
X314286310Y-68222620D01*
X314238690Y-68270239D01*
X314143452Y-68317858D01*
X78971131Y-65555953D02*
X78971131Y-65079762D01*
X77971131Y-65079762D01*
X78447321Y-65889286D02*
X78447321Y-66222620D01*
X78971131Y-66365477D02*
X78971131Y-65889286D01*
X77971131Y-65889286D01*
X77971131Y-66365477D01*
X78971131Y-66794048D02*
X77971131Y-66794048D01*
X77971131Y-67032143D01*
X78018750Y-67175001D01*
X78113988Y-67270239D01*
X78209226Y-67317858D01*
X78399702Y-67365477D01*
X78542560Y-67365477D01*
X78733036Y-67317858D01*
X78828274Y-67270239D01*
X78923512Y-67175001D01*
X78971131Y-67032143D01*
X78971131Y-66794048D01*
X78399702Y-67936905D02*
X78352083Y-67841667D01*
X78304464Y-67794048D01*
X78209226Y-67746429D01*
X78161607Y-67746429D01*
X78066369Y-67794048D01*
X78018750Y-67841667D01*
X77971131Y-67936905D01*
X77971131Y-68127382D01*
X78018750Y-68222620D01*
X78066369Y-68270239D01*
X78161607Y-68317858D01*
X78209226Y-68317858D01*
X78304464Y-68270239D01*
X78352083Y-68222620D01*
X78399702Y-68127382D01*
X78399702Y-67936905D01*
X78447321Y-67841667D01*
X78494940Y-67794048D01*
X78590179Y-67746429D01*
X78780655Y-67746429D01*
X78875893Y-67794048D01*
X78923512Y-67841667D01*
X78971131Y-67936905D01*
X78971131Y-68127382D01*
X78923512Y-68222620D01*
X78875893Y-68270239D01*
X78780655Y-68317858D01*
X78590179Y-68317858D01*
X78494940Y-68270239D01*
X78447321Y-68222620D01*
X78399702Y-68127382D01*
X314714881Y-122705953D02*
X314714881Y-122229762D01*
X313714881Y-122229762D01*
X314191071Y-123039286D02*
X314191071Y-123372620D01*
X314714881Y-123515477D02*
X314714881Y-123039286D01*
X313714881Y-123039286D01*
X313714881Y-123515477D01*
X314714881Y-123944048D02*
X313714881Y-123944048D01*
X313714881Y-124182143D01*
X313762500Y-124325001D01*
X313857738Y-124420239D01*
X313952976Y-124467858D01*
X314143452Y-124515477D01*
X314286310Y-124515477D01*
X314476786Y-124467858D01*
X314572024Y-124420239D01*
X314667262Y-124325001D01*
X314714881Y-124182143D01*
X314714881Y-123944048D01*
X313714881Y-124848810D02*
X313714881Y-125515477D01*
X314714881Y-125086905D01*
X124214881Y-65555953D02*
X124214881Y-65079762D01*
X123214881Y-65079762D01*
X123691071Y-65889286D02*
X123691071Y-66222620D01*
X124214881Y-66365477D02*
X124214881Y-65889286D01*
X123214881Y-65889286D01*
X123214881Y-66365477D01*
X124214881Y-66794048D02*
X123214881Y-66794048D01*
X123214881Y-67032143D01*
X123262500Y-67175001D01*
X123357738Y-67270239D01*
X123452976Y-67317858D01*
X123643452Y-67365477D01*
X123786310Y-67365477D01*
X123976786Y-67317858D01*
X124072024Y-67270239D01*
X124167262Y-67175001D01*
X124214881Y-67032143D01*
X124214881Y-66794048D01*
X123214881Y-68222620D02*
X123214881Y-68032143D01*
X123262500Y-67936905D01*
X123310119Y-67889286D01*
X123452976Y-67794048D01*
X123643452Y-67746429D01*
X124024405Y-67746429D01*
X124119643Y-67794048D01*
X124167262Y-67841667D01*
X124214881Y-67936905D01*
X124214881Y-68127382D01*
X124167262Y-68222620D01*
X124119643Y-68270239D01*
X124024405Y-68317858D01*
X123786310Y-68317858D01*
X123691071Y-68270239D01*
X123643452Y-68222620D01*
X123595833Y-68127382D01*
X123595833Y-67936905D01*
X123643452Y-67841667D01*
X123691071Y-67794048D01*
X123786310Y-67746429D01*
X267089881Y-122705953D02*
X267089881Y-122229762D01*
X266089881Y-122229762D01*
X266566071Y-123039286D02*
X266566071Y-123372620D01*
X267089881Y-123515477D02*
X267089881Y-123039286D01*
X266089881Y-123039286D01*
X266089881Y-123515477D01*
X267089881Y-123944048D02*
X266089881Y-123944048D01*
X266089881Y-124182143D01*
X266137500Y-124325001D01*
X266232738Y-124420239D01*
X266327976Y-124467858D01*
X266518452Y-124515477D01*
X266661310Y-124515477D01*
X266851786Y-124467858D01*
X266947024Y-124420239D01*
X267042262Y-124325001D01*
X267089881Y-124182143D01*
X267089881Y-123944048D01*
X266089881Y-125420239D02*
X266089881Y-124944048D01*
X266566071Y-124896429D01*
X266518452Y-124944048D01*
X266470833Y-125039286D01*
X266470833Y-125277382D01*
X266518452Y-125372620D01*
X266566071Y-125420239D01*
X266661310Y-125467858D01*
X266899405Y-125467858D01*
X266994643Y-125420239D01*
X267042262Y-125372620D01*
X267089881Y-125277382D01*
X267089881Y-125039286D01*
X267042262Y-124944048D01*
X266994643Y-124896429D01*
X171839881Y-65555953D02*
X171839881Y-65079762D01*
X170839881Y-65079762D01*
X171316071Y-65889286D02*
X171316071Y-66222620D01*
X171839881Y-66365477D02*
X171839881Y-65889286D01*
X170839881Y-65889286D01*
X170839881Y-66365477D01*
X171839881Y-66794048D02*
X170839881Y-66794048D01*
X170839881Y-67032143D01*
X170887500Y-67175001D01*
X170982738Y-67270239D01*
X171077976Y-67317858D01*
X171268452Y-67365477D01*
X171411310Y-67365477D01*
X171601786Y-67317858D01*
X171697024Y-67270239D01*
X171792262Y-67175001D01*
X171839881Y-67032143D01*
X171839881Y-66794048D01*
X171173214Y-68222620D02*
X171839881Y-68222620D01*
X170792262Y-67984524D02*
X171506548Y-67746429D01*
X171506548Y-68365477D01*
X219464881Y-122705953D02*
X219464881Y-122229762D01*
X218464881Y-122229762D01*
X218941071Y-123039286D02*
X218941071Y-123372620D01*
X219464881Y-123515477D02*
X219464881Y-123039286D01*
X218464881Y-123039286D01*
X218464881Y-123515477D01*
X219464881Y-123944048D02*
X218464881Y-123944048D01*
X218464881Y-124182143D01*
X218512500Y-124325001D01*
X218607738Y-124420239D01*
X218702976Y-124467858D01*
X218893452Y-124515477D01*
X219036310Y-124515477D01*
X219226786Y-124467858D01*
X219322024Y-124420239D01*
X219417262Y-124325001D01*
X219464881Y-124182143D01*
X219464881Y-123944048D01*
X218464881Y-124848810D02*
X218464881Y-125467858D01*
X218845833Y-125134524D01*
X218845833Y-125277382D01*
X218893452Y-125372620D01*
X218941071Y-125420239D01*
X219036310Y-125467858D01*
X219274405Y-125467858D01*
X219369643Y-125420239D01*
X219417262Y-125372620D01*
X219464881Y-125277382D01*
X219464881Y-124991667D01*
X219417262Y-124896429D01*
X219369643Y-124848810D01*
X219464881Y-65555953D02*
X219464881Y-65079762D01*
X218464881Y-65079762D01*
X218941071Y-65889286D02*
X218941071Y-66222620D01*
X219464881Y-66365477D02*
X219464881Y-65889286D01*
X218464881Y-65889286D01*
X218464881Y-66365477D01*
X219464881Y-66794048D02*
X218464881Y-66794048D01*
X218464881Y-67032143D01*
X218512500Y-67175001D01*
X218607738Y-67270239D01*
X218702976Y-67317858D01*
X218893452Y-67365477D01*
X219036310Y-67365477D01*
X219226786Y-67317858D01*
X219322024Y-67270239D01*
X219417262Y-67175001D01*
X219464881Y-67032143D01*
X219464881Y-66794048D01*
X218560119Y-67746429D02*
X218512500Y-67794048D01*
X218464881Y-67889286D01*
X218464881Y-68127382D01*
X218512500Y-68222620D01*
X218560119Y-68270239D01*
X218655357Y-68317858D01*
X218750595Y-68317858D01*
X218893452Y-68270239D01*
X219464881Y-67698810D01*
X219464881Y-68317858D01*
X175967381Y-122705953D02*
X175967381Y-122229762D01*
X174967381Y-122229762D01*
X175443571Y-123039286D02*
X175443571Y-123372620D01*
X175967381Y-123515477D02*
X175967381Y-123039286D01*
X174967381Y-123039286D01*
X174967381Y-123515477D01*
X175967381Y-123944048D02*
X174967381Y-123944048D01*
X174967381Y-124182143D01*
X175015000Y-124325001D01*
X175110238Y-124420239D01*
X175205476Y-124467858D01*
X175395952Y-124515477D01*
X175538810Y-124515477D01*
X175729286Y-124467858D01*
X175824524Y-124420239D01*
X175919762Y-124325001D01*
X175967381Y-124182143D01*
X175967381Y-123944048D01*
X175967381Y-125467858D02*
X175967381Y-124896429D01*
X175967381Y-125182143D02*
X174967381Y-125182143D01*
X175110238Y-125086905D01*
X175205476Y-124991667D01*
X175253095Y-124896429D01*
D16*
X170071679Y-134121416D02*
X170071679Y-133364496D01*
X169783328Y-133364496D01*
X169711241Y-133400540D01*
X169675197Y-133436584D01*
X169639153Y-133508671D01*
X169639153Y-133616803D01*
X169675197Y-133688890D01*
X169711241Y-133724934D01*
X169783328Y-133760978D01*
X170071679Y-133760978D01*
X168918277Y-134121416D02*
X169350803Y-134121416D01*
X169134540Y-134121416D02*
X169134540Y-133364496D01*
X169206628Y-133472628D01*
X169278715Y-133544715D01*
X169350803Y-133580759D01*
D11*
X123896131Y-132135714D02*
X122896131Y-132135714D01*
X122896131Y-132373809D01*
X122943750Y-132516667D01*
X123038988Y-132611905D01*
X123134226Y-132659524D01*
X123324702Y-132707143D01*
X123467560Y-132707143D01*
X123658036Y-132659524D01*
X123753274Y-132611905D01*
X123848512Y-132516667D01*
X123896131Y-132373809D01*
X123896131Y-132135714D01*
X122896131Y-133564286D02*
X122896131Y-133373809D01*
X122943750Y-133278571D01*
X122991369Y-133230952D01*
X123134226Y-133135714D01*
X123324702Y-133088095D01*
X123705655Y-133088095D01*
X123800893Y-133135714D01*
X123848512Y-133183333D01*
X123896131Y-133278571D01*
X123896131Y-133469048D01*
X123848512Y-133564286D01*
X123800893Y-133611905D01*
X123705655Y-133659524D01*
X123467560Y-133659524D01*
X123372321Y-133611905D01*
X123324702Y-133564286D01*
X123277083Y-133469048D01*
X123277083Y-133278571D01*
X123324702Y-133183333D01*
X123372321Y-133135714D01*
X123467560Y-133088095D01*
X122991369Y-134040476D02*
X122943750Y-134088095D01*
X122896131Y-134183333D01*
X122896131Y-134421429D01*
X122943750Y-134516667D01*
X122991369Y-134564286D01*
X123086607Y-134611905D01*
X123181845Y-134611905D01*
X123324702Y-134564286D01*
X123896131Y-133992857D01*
X123896131Y-134611905D01*
X97702381Y-132135714D02*
X96702381Y-132135714D01*
X96702381Y-132373809D01*
X96750000Y-132516667D01*
X96845238Y-132611905D01*
X96940476Y-132659524D01*
X97130952Y-132707143D01*
X97273810Y-132707143D01*
X97464286Y-132659524D01*
X97559524Y-132611905D01*
X97654762Y-132516667D01*
X97702381Y-132373809D01*
X97702381Y-132135714D01*
X96702381Y-133564286D02*
X96702381Y-133373809D01*
X96750000Y-133278571D01*
X96797619Y-133230952D01*
X96940476Y-133135714D01*
X97130952Y-133088095D01*
X97511905Y-133088095D01*
X97607143Y-133135714D01*
X97654762Y-133183333D01*
X97702381Y-133278571D01*
X97702381Y-133469048D01*
X97654762Y-133564286D01*
X97607143Y-133611905D01*
X97511905Y-133659524D01*
X97273810Y-133659524D01*
X97178571Y-133611905D01*
X97130952Y-133564286D01*
X97083333Y-133469048D01*
X97083333Y-133278571D01*
X97130952Y-133183333D01*
X97178571Y-133135714D01*
X97273810Y-133088095D01*
X97702381Y-134611905D02*
X97702381Y-134040476D01*
X97702381Y-134326190D02*
X96702381Y-134326190D01*
X96845238Y-134230952D01*
X96940476Y-134135714D01*
X96988095Y-134040476D01*
X71508631Y-132135714D02*
X70508631Y-132135714D01*
X70508631Y-132373809D01*
X70556250Y-132516667D01*
X70651488Y-132611905D01*
X70746726Y-132659524D01*
X70937202Y-132707143D01*
X71080060Y-132707143D01*
X71270536Y-132659524D01*
X71365774Y-132611905D01*
X71461012Y-132516667D01*
X71508631Y-132373809D01*
X71508631Y-132135714D01*
X70508631Y-133564286D02*
X70508631Y-133373809D01*
X70556250Y-133278571D01*
X70603869Y-133230952D01*
X70746726Y-133135714D01*
X70937202Y-133088095D01*
X71318155Y-133088095D01*
X71413393Y-133135714D01*
X71461012Y-133183333D01*
X71508631Y-133278571D01*
X71508631Y-133469048D01*
X71461012Y-133564286D01*
X71413393Y-133611905D01*
X71318155Y-133659524D01*
X71080060Y-133659524D01*
X70984821Y-133611905D01*
X70937202Y-133564286D01*
X70889583Y-133469048D01*
X70889583Y-133278571D01*
X70937202Y-133183333D01*
X70984821Y-133135714D01*
X71080060Y-133088095D01*
X70508631Y-134278571D02*
X70508631Y-134373810D01*
X70556250Y-134469048D01*
X70603869Y-134516667D01*
X70699107Y-134564286D01*
X70889583Y-134611905D01*
X71127679Y-134611905D01*
X71318155Y-134564286D01*
X71413393Y-134516667D01*
X71461012Y-134469048D01*
X71508631Y-134373810D01*
X71508631Y-134278571D01*
X71461012Y-134183333D01*
X71413393Y-134135714D01*
X71318155Y-134088095D01*
X71127679Y-134040476D01*
X70889583Y-134040476D01*
X70699107Y-134088095D01*
X70603869Y-134135714D01*
X70556250Y-134183333D01*
X70508631Y-134278571D01*
X316777381Y-113085714D02*
X315777381Y-113085714D01*
X315777381Y-113323809D01*
X315825000Y-113466667D01*
X315920238Y-113561905D01*
X316015476Y-113609524D01*
X316205952Y-113657143D01*
X316348810Y-113657143D01*
X316539286Y-113609524D01*
X316634524Y-113561905D01*
X316729762Y-113466667D01*
X316777381Y-113323809D01*
X316777381Y-113085714D01*
X315777381Y-114561905D02*
X315777381Y-114085714D01*
X316253571Y-114038095D01*
X316205952Y-114085714D01*
X316158333Y-114180952D01*
X316158333Y-114419048D01*
X316205952Y-114514286D01*
X316253571Y-114561905D01*
X316348810Y-114609524D01*
X316586905Y-114609524D01*
X316682143Y-114561905D01*
X316729762Y-114514286D01*
X316777381Y-114419048D01*
X316777381Y-114180952D01*
X316729762Y-114085714D01*
X316682143Y-114038095D01*
X316777381Y-115085714D02*
X316777381Y-115276190D01*
X316729762Y-115371429D01*
X316682143Y-115419048D01*
X316539286Y-115514286D01*
X316348810Y-115561905D01*
X315967857Y-115561905D01*
X315872619Y-115514286D01*
X315825000Y-115466667D01*
X315777381Y-115371429D01*
X315777381Y-115180952D01*
X315825000Y-115085714D01*
X315872619Y-115038095D01*
X315967857Y-114990476D01*
X316205952Y-114990476D01*
X316301190Y-115038095D01*
X316348810Y-115085714D01*
X316396429Y-115180952D01*
X316396429Y-115371429D01*
X316348810Y-115466667D01*
X316301190Y-115514286D01*
X316205952Y-115561905D01*
X291774256Y-113085714D02*
X290774256Y-113085714D01*
X290774256Y-113323809D01*
X290821875Y-113466667D01*
X290917113Y-113561905D01*
X291012351Y-113609524D01*
X291202827Y-113657143D01*
X291345685Y-113657143D01*
X291536161Y-113609524D01*
X291631399Y-113561905D01*
X291726637Y-113466667D01*
X291774256Y-113323809D01*
X291774256Y-113085714D01*
X290774256Y-114561905D02*
X290774256Y-114085714D01*
X291250446Y-114038095D01*
X291202827Y-114085714D01*
X291155208Y-114180952D01*
X291155208Y-114419048D01*
X291202827Y-114514286D01*
X291250446Y-114561905D01*
X291345685Y-114609524D01*
X291583780Y-114609524D01*
X291679018Y-114561905D01*
X291726637Y-114514286D01*
X291774256Y-114419048D01*
X291774256Y-114180952D01*
X291726637Y-114085714D01*
X291679018Y-114038095D01*
X291202827Y-115180952D02*
X291155208Y-115085714D01*
X291107589Y-115038095D01*
X291012351Y-114990476D01*
X290964732Y-114990476D01*
X290869494Y-115038095D01*
X290821875Y-115085714D01*
X290774256Y-115180952D01*
X290774256Y-115371429D01*
X290821875Y-115466667D01*
X290869494Y-115514286D01*
X290964732Y-115561905D01*
X291012351Y-115561905D01*
X291107589Y-115514286D01*
X291155208Y-115466667D01*
X291202827Y-115371429D01*
X291202827Y-115180952D01*
X291250446Y-115085714D01*
X291298065Y-115038095D01*
X291393304Y-114990476D01*
X291583780Y-114990476D01*
X291679018Y-115038095D01*
X291726637Y-115085714D01*
X291774256Y-115180952D01*
X291774256Y-115371429D01*
X291726637Y-115466667D01*
X291679018Y-115514286D01*
X291583780Y-115561905D01*
X291393304Y-115561905D01*
X291298065Y-115514286D01*
X291250446Y-115466667D01*
X291202827Y-115371429D01*
X265580506Y-113085714D02*
X264580506Y-113085714D01*
X264580506Y-113323809D01*
X264628125Y-113466667D01*
X264723363Y-113561905D01*
X264818601Y-113609524D01*
X265009077Y-113657143D01*
X265151935Y-113657143D01*
X265342411Y-113609524D01*
X265437649Y-113561905D01*
X265532887Y-113466667D01*
X265580506Y-113323809D01*
X265580506Y-113085714D01*
X264580506Y-114561905D02*
X264580506Y-114085714D01*
X265056696Y-114038095D01*
X265009077Y-114085714D01*
X264961458Y-114180952D01*
X264961458Y-114419048D01*
X265009077Y-114514286D01*
X265056696Y-114561905D01*
X265151935Y-114609524D01*
X265390030Y-114609524D01*
X265485268Y-114561905D01*
X265532887Y-114514286D01*
X265580506Y-114419048D01*
X265580506Y-114180952D01*
X265532887Y-114085714D01*
X265485268Y-114038095D01*
X264580506Y-114942857D02*
X264580506Y-115609524D01*
X265580506Y-115180952D01*
X200096131Y-132135714D02*
X199096131Y-132135714D01*
X199096131Y-132373809D01*
X199143750Y-132516667D01*
X199238988Y-132611905D01*
X199334226Y-132659524D01*
X199524702Y-132707143D01*
X199667560Y-132707143D01*
X199858036Y-132659524D01*
X199953274Y-132611905D01*
X200048512Y-132516667D01*
X200096131Y-132373809D01*
X200096131Y-132135714D01*
X199096131Y-133611905D02*
X199096131Y-133135714D01*
X199572321Y-133088095D01*
X199524702Y-133135714D01*
X199477083Y-133230952D01*
X199477083Y-133469048D01*
X199524702Y-133564286D01*
X199572321Y-133611905D01*
X199667560Y-133659524D01*
X199905655Y-133659524D01*
X200000893Y-133611905D01*
X200048512Y-133564286D01*
X200096131Y-133469048D01*
X200096131Y-133230952D01*
X200048512Y-133135714D01*
X200000893Y-133088095D01*
X199096131Y-134564286D02*
X199096131Y-134088095D01*
X199572321Y-134040476D01*
X199524702Y-134088095D01*
X199477083Y-134183333D01*
X199477083Y-134421429D01*
X199524702Y-134516667D01*
X199572321Y-134564286D01*
X199667560Y-134611905D01*
X199905655Y-134611905D01*
X200000893Y-134564286D01*
X200048512Y-134516667D01*
X200096131Y-134421429D01*
X200096131Y-134183333D01*
X200048512Y-134088095D01*
X200000893Y-134040476D01*
X262008631Y-113085714D02*
X261008631Y-113085714D01*
X261008631Y-113323809D01*
X261056250Y-113466667D01*
X261151488Y-113561905D01*
X261246726Y-113609524D01*
X261437202Y-113657143D01*
X261580060Y-113657143D01*
X261770536Y-113609524D01*
X261865774Y-113561905D01*
X261961012Y-113466667D01*
X262008631Y-113323809D01*
X262008631Y-113085714D01*
X261008631Y-114561905D02*
X261008631Y-114085714D01*
X261484821Y-114038095D01*
X261437202Y-114085714D01*
X261389583Y-114180952D01*
X261389583Y-114419048D01*
X261437202Y-114514286D01*
X261484821Y-114561905D01*
X261580060Y-114609524D01*
X261818155Y-114609524D01*
X261913393Y-114561905D01*
X261961012Y-114514286D01*
X262008631Y-114419048D01*
X262008631Y-114180952D01*
X261961012Y-114085714D01*
X261913393Y-114038095D01*
X261341964Y-115466667D02*
X262008631Y-115466667D01*
X260961012Y-115228571D02*
X261675298Y-114990476D01*
X261675298Y-115609524D01*
X242958631Y-113085714D02*
X241958631Y-113085714D01*
X241958631Y-113323809D01*
X242006250Y-113466667D01*
X242101488Y-113561905D01*
X242196726Y-113609524D01*
X242387202Y-113657143D01*
X242530060Y-113657143D01*
X242720536Y-113609524D01*
X242815774Y-113561905D01*
X242911012Y-113466667D01*
X242958631Y-113323809D01*
X242958631Y-113085714D01*
X241958631Y-114561905D02*
X241958631Y-114085714D01*
X242434821Y-114038095D01*
X242387202Y-114085714D01*
X242339583Y-114180952D01*
X242339583Y-114419048D01*
X242387202Y-114514286D01*
X242434821Y-114561905D01*
X242530060Y-114609524D01*
X242768155Y-114609524D01*
X242863393Y-114561905D01*
X242911012Y-114514286D01*
X242958631Y-114419048D01*
X242958631Y-114180952D01*
X242911012Y-114085714D01*
X242863393Y-114038095D01*
X241958631Y-114942857D02*
X241958631Y-115561905D01*
X242339583Y-115228571D01*
X242339583Y-115371429D01*
X242387202Y-115466667D01*
X242434821Y-115514286D01*
X242530060Y-115561905D01*
X242768155Y-115561905D01*
X242863393Y-115514286D01*
X242911012Y-115466667D01*
X242958631Y-115371429D01*
X242958631Y-115085714D01*
X242911012Y-114990476D01*
X242863393Y-114942857D01*
X223908631Y-113085714D02*
X222908631Y-113085714D01*
X222908631Y-113323809D01*
X222956250Y-113466667D01*
X223051488Y-113561905D01*
X223146726Y-113609524D01*
X223337202Y-113657143D01*
X223480060Y-113657143D01*
X223670536Y-113609524D01*
X223765774Y-113561905D01*
X223861012Y-113466667D01*
X223908631Y-113323809D01*
X223908631Y-113085714D01*
X222908631Y-114561905D02*
X222908631Y-114085714D01*
X223384821Y-114038095D01*
X223337202Y-114085714D01*
X223289583Y-114180952D01*
X223289583Y-114419048D01*
X223337202Y-114514286D01*
X223384821Y-114561905D01*
X223480060Y-114609524D01*
X223718155Y-114609524D01*
X223813393Y-114561905D01*
X223861012Y-114514286D01*
X223908631Y-114419048D01*
X223908631Y-114180952D01*
X223861012Y-114085714D01*
X223813393Y-114038095D01*
X223003869Y-114990476D02*
X222956250Y-115038095D01*
X222908631Y-115133333D01*
X222908631Y-115371429D01*
X222956250Y-115466667D01*
X223003869Y-115514286D01*
X223099107Y-115561905D01*
X223194345Y-115561905D01*
X223337202Y-115514286D01*
X223908631Y-114942857D01*
X223908631Y-115561905D01*
X204858631Y-113085714D02*
X203858631Y-113085714D01*
X203858631Y-113323809D01*
X203906250Y-113466667D01*
X204001488Y-113561905D01*
X204096726Y-113609524D01*
X204287202Y-113657143D01*
X204430060Y-113657143D01*
X204620536Y-113609524D01*
X204715774Y-113561905D01*
X204811012Y-113466667D01*
X204858631Y-113323809D01*
X204858631Y-113085714D01*
X203858631Y-114561905D02*
X203858631Y-114085714D01*
X204334821Y-114038095D01*
X204287202Y-114085714D01*
X204239583Y-114180952D01*
X204239583Y-114419048D01*
X204287202Y-114514286D01*
X204334821Y-114561905D01*
X204430060Y-114609524D01*
X204668155Y-114609524D01*
X204763393Y-114561905D01*
X204811012Y-114514286D01*
X204858631Y-114419048D01*
X204858631Y-114180952D01*
X204811012Y-114085714D01*
X204763393Y-114038095D01*
X204858631Y-115561905D02*
X204858631Y-114990476D01*
X204858631Y-115276190D02*
X203858631Y-115276190D01*
X204001488Y-115180952D01*
X204096726Y-115085714D01*
X204144345Y-114990476D01*
X185808631Y-113085714D02*
X184808631Y-113085714D01*
X184808631Y-113323809D01*
X184856250Y-113466667D01*
X184951488Y-113561905D01*
X185046726Y-113609524D01*
X185237202Y-113657143D01*
X185380060Y-113657143D01*
X185570536Y-113609524D01*
X185665774Y-113561905D01*
X185761012Y-113466667D01*
X185808631Y-113323809D01*
X185808631Y-113085714D01*
X184808631Y-114561905D02*
X184808631Y-114085714D01*
X185284821Y-114038095D01*
X185237202Y-114085714D01*
X185189583Y-114180952D01*
X185189583Y-114419048D01*
X185237202Y-114514286D01*
X185284821Y-114561905D01*
X185380060Y-114609524D01*
X185618155Y-114609524D01*
X185713393Y-114561905D01*
X185761012Y-114514286D01*
X185808631Y-114419048D01*
X185808631Y-114180952D01*
X185761012Y-114085714D01*
X185713393Y-114038095D01*
X184808631Y-115228571D02*
X184808631Y-115323810D01*
X184856250Y-115419048D01*
X184903869Y-115466667D01*
X184999107Y-115514286D01*
X185189583Y-115561905D01*
X185427679Y-115561905D01*
X185618155Y-115514286D01*
X185713393Y-115466667D01*
X185761012Y-115419048D01*
X185808631Y-115323810D01*
X185808631Y-115228571D01*
X185761012Y-115133333D01*
X185713393Y-115085714D01*
X185618155Y-115038095D01*
X185427679Y-114990476D01*
X185189583Y-114990476D01*
X184999107Y-115038095D01*
X184903869Y-115085714D01*
X184856250Y-115133333D01*
X184808631Y-115228571D01*
X166758631Y-113085714D02*
X165758631Y-113085714D01*
X165758631Y-113323809D01*
X165806250Y-113466667D01*
X165901488Y-113561905D01*
X165996726Y-113609524D01*
X166187202Y-113657143D01*
X166330060Y-113657143D01*
X166520536Y-113609524D01*
X166615774Y-113561905D01*
X166711012Y-113466667D01*
X166758631Y-113323809D01*
X166758631Y-113085714D01*
X166091964Y-114514286D02*
X166758631Y-114514286D01*
X165711012Y-114276190D02*
X166425298Y-114038095D01*
X166425298Y-114657143D01*
X166758631Y-115085714D02*
X166758631Y-115276190D01*
X166711012Y-115371429D01*
X166663393Y-115419048D01*
X166520536Y-115514286D01*
X166330060Y-115561905D01*
X165949107Y-115561905D01*
X165853869Y-115514286D01*
X165806250Y-115466667D01*
X165758631Y-115371429D01*
X165758631Y-115180952D01*
X165806250Y-115085714D01*
X165853869Y-115038095D01*
X165949107Y-114990476D01*
X166187202Y-114990476D01*
X166282440Y-115038095D01*
X166330060Y-115085714D01*
X166377679Y-115180952D01*
X166377679Y-115371429D01*
X166330060Y-115466667D01*
X166282440Y-115514286D01*
X166187202Y-115561905D01*
X128658631Y-113085714D02*
X127658631Y-113085714D01*
X127658631Y-113323809D01*
X127706250Y-113466667D01*
X127801488Y-113561905D01*
X127896726Y-113609524D01*
X128087202Y-113657143D01*
X128230060Y-113657143D01*
X128420536Y-113609524D01*
X128515774Y-113561905D01*
X128611012Y-113466667D01*
X128658631Y-113323809D01*
X128658631Y-113085714D01*
X127991964Y-114514286D02*
X128658631Y-114514286D01*
X127611012Y-114276190D02*
X128325298Y-114038095D01*
X128325298Y-114657143D01*
X128087202Y-115180952D02*
X128039583Y-115085714D01*
X127991964Y-115038095D01*
X127896726Y-114990476D01*
X127849107Y-114990476D01*
X127753869Y-115038095D01*
X127706250Y-115085714D01*
X127658631Y-115180952D01*
X127658631Y-115371429D01*
X127706250Y-115466667D01*
X127753869Y-115514286D01*
X127849107Y-115561905D01*
X127896726Y-115561905D01*
X127991964Y-115514286D01*
X128039583Y-115466667D01*
X128087202Y-115371429D01*
X128087202Y-115180952D01*
X128134821Y-115085714D01*
X128182440Y-115038095D01*
X128277679Y-114990476D01*
X128468155Y-114990476D01*
X128563393Y-115038095D01*
X128611012Y-115085714D01*
X128658631Y-115180952D01*
X128658631Y-115371429D01*
X128611012Y-115466667D01*
X128563393Y-115514286D01*
X128468155Y-115561905D01*
X128277679Y-115561905D01*
X128182440Y-115514286D01*
X128134821Y-115466667D01*
X128087202Y-115371429D01*
X113577381Y-113085714D02*
X112577381Y-113085714D01*
X112577381Y-113323809D01*
X112625000Y-113466667D01*
X112720238Y-113561905D01*
X112815476Y-113609524D01*
X113005952Y-113657143D01*
X113148810Y-113657143D01*
X113339286Y-113609524D01*
X113434524Y-113561905D01*
X113529762Y-113466667D01*
X113577381Y-113323809D01*
X113577381Y-113085714D01*
X112910714Y-114514286D02*
X113577381Y-114514286D01*
X112529762Y-114276190D02*
X113244048Y-114038095D01*
X113244048Y-114657143D01*
X112577381Y-114942857D02*
X112577381Y-115609524D01*
X113577381Y-115180952D01*
X94527381Y-113085714D02*
X93527381Y-113085714D01*
X93527381Y-113323809D01*
X93575000Y-113466667D01*
X93670238Y-113561905D01*
X93765476Y-113609524D01*
X93955952Y-113657143D01*
X94098810Y-113657143D01*
X94289286Y-113609524D01*
X94384524Y-113561905D01*
X94479762Y-113466667D01*
X94527381Y-113323809D01*
X94527381Y-113085714D01*
X93860714Y-114514286D02*
X94527381Y-114514286D01*
X93479762Y-114276190D02*
X94194048Y-114038095D01*
X94194048Y-114657143D01*
X93527381Y-115466667D02*
X93527381Y-115276190D01*
X93575000Y-115180952D01*
X93622619Y-115133333D01*
X93765476Y-115038095D01*
X93955952Y-114990476D01*
X94336905Y-114990476D01*
X94432143Y-115038095D01*
X94479762Y-115085714D01*
X94527381Y-115180952D01*
X94527381Y-115371429D01*
X94479762Y-115466667D01*
X94432143Y-115514286D01*
X94336905Y-115561905D01*
X94098810Y-115561905D01*
X94003571Y-115514286D01*
X93955952Y-115466667D01*
X93908333Y-115371429D01*
X93908333Y-115180952D01*
X93955952Y-115085714D01*
X94003571Y-115038095D01*
X94098810Y-114990476D01*
X78652381Y-113085714D02*
X77652381Y-113085714D01*
X77652381Y-113323809D01*
X77700000Y-113466667D01*
X77795238Y-113561905D01*
X77890476Y-113609524D01*
X78080952Y-113657143D01*
X78223810Y-113657143D01*
X78414286Y-113609524D01*
X78509524Y-113561905D01*
X78604762Y-113466667D01*
X78652381Y-113323809D01*
X78652381Y-113085714D01*
X77985714Y-114514286D02*
X78652381Y-114514286D01*
X77604762Y-114276190D02*
X78319048Y-114038095D01*
X78319048Y-114657143D01*
X77985714Y-115466667D02*
X78652381Y-115466667D01*
X77604762Y-115228571D02*
X78319048Y-114990476D01*
X78319048Y-115609524D01*
X306458631Y-94035714D02*
X305458631Y-94035714D01*
X305458631Y-94273809D01*
X305506250Y-94416667D01*
X305601488Y-94511905D01*
X305696726Y-94559524D01*
X305887202Y-94607143D01*
X306030060Y-94607143D01*
X306220536Y-94559524D01*
X306315774Y-94511905D01*
X306411012Y-94416667D01*
X306458631Y-94273809D01*
X306458631Y-94035714D01*
X305791964Y-95464286D02*
X306458631Y-95464286D01*
X305411012Y-95226190D02*
X306125298Y-94988095D01*
X306125298Y-95607143D01*
X305458631Y-95892857D02*
X305458631Y-96511905D01*
X305839583Y-96178571D01*
X305839583Y-96321429D01*
X305887202Y-96416667D01*
X305934821Y-96464286D01*
X306030060Y-96511905D01*
X306268155Y-96511905D01*
X306363393Y-96464286D01*
X306411012Y-96416667D01*
X306458631Y-96321429D01*
X306458631Y-96035714D01*
X306411012Y-95940476D01*
X306363393Y-95892857D01*
X275502381Y-94035714D02*
X274502381Y-94035714D01*
X274502381Y-94273809D01*
X274550000Y-94416667D01*
X274645238Y-94511905D01*
X274740476Y-94559524D01*
X274930952Y-94607143D01*
X275073810Y-94607143D01*
X275264286Y-94559524D01*
X275359524Y-94511905D01*
X275454762Y-94416667D01*
X275502381Y-94273809D01*
X275502381Y-94035714D01*
X274835714Y-95464286D02*
X275502381Y-95464286D01*
X274454762Y-95226190D02*
X275169048Y-94988095D01*
X275169048Y-95607143D01*
X275502381Y-96511905D02*
X275502381Y-95940476D01*
X275502381Y-96226190D02*
X274502381Y-96226190D01*
X274645238Y-96130952D01*
X274740476Y-96035714D01*
X274788095Y-95940476D01*
X271533631Y-94035714D02*
X270533631Y-94035714D01*
X270533631Y-94273809D01*
X270581250Y-94416667D01*
X270676488Y-94511905D01*
X270771726Y-94559524D01*
X270962202Y-94607143D01*
X271105060Y-94607143D01*
X271295536Y-94559524D01*
X271390774Y-94511905D01*
X271486012Y-94416667D01*
X271533631Y-94273809D01*
X271533631Y-94035714D01*
X270866964Y-95464286D02*
X271533631Y-95464286D01*
X270486012Y-95226190D02*
X271200298Y-94988095D01*
X271200298Y-95607143D01*
X270533631Y-96178571D02*
X270533631Y-96273810D01*
X270581250Y-96369048D01*
X270628869Y-96416667D01*
X270724107Y-96464286D01*
X270914583Y-96511905D01*
X271152679Y-96511905D01*
X271343155Y-96464286D01*
X271438393Y-96416667D01*
X271486012Y-96369048D01*
X271533631Y-96273810D01*
X271533631Y-96178571D01*
X271486012Y-96083333D01*
X271438393Y-96035714D01*
X271343155Y-95988095D01*
X271152679Y-95940476D01*
X270914583Y-95940476D01*
X270724107Y-95988095D01*
X270628869Y-96035714D01*
X270581250Y-96083333D01*
X270533631Y-96178571D01*
X252483631Y-94035714D02*
X251483631Y-94035714D01*
X251483631Y-94273809D01*
X251531250Y-94416667D01*
X251626488Y-94511905D01*
X251721726Y-94559524D01*
X251912202Y-94607143D01*
X252055060Y-94607143D01*
X252245536Y-94559524D01*
X252340774Y-94511905D01*
X252436012Y-94416667D01*
X252483631Y-94273809D01*
X252483631Y-94035714D01*
X251483631Y-94940476D02*
X251483631Y-95559524D01*
X251864583Y-95226190D01*
X251864583Y-95369048D01*
X251912202Y-95464286D01*
X251959821Y-95511905D01*
X252055060Y-95559524D01*
X252293155Y-95559524D01*
X252388393Y-95511905D01*
X252436012Y-95464286D01*
X252483631Y-95369048D01*
X252483631Y-95083333D01*
X252436012Y-94988095D01*
X252388393Y-94940476D01*
X252483631Y-96035714D02*
X252483631Y-96226190D01*
X252436012Y-96321429D01*
X252388393Y-96369048D01*
X252245536Y-96464286D01*
X252055060Y-96511905D01*
X251674107Y-96511905D01*
X251578869Y-96464286D01*
X251531250Y-96416667D01*
X251483631Y-96321429D01*
X251483631Y-96130952D01*
X251531250Y-96035714D01*
X251578869Y-95988095D01*
X251674107Y-95940476D01*
X251912202Y-95940476D01*
X252007440Y-95988095D01*
X252055060Y-96035714D01*
X252102679Y-96130952D01*
X252102679Y-96321429D01*
X252055060Y-96416667D01*
X252007440Y-96464286D01*
X251912202Y-96511905D01*
X233433631Y-94035714D02*
X232433631Y-94035714D01*
X232433631Y-94273809D01*
X232481250Y-94416667D01*
X232576488Y-94511905D01*
X232671726Y-94559524D01*
X232862202Y-94607143D01*
X233005060Y-94607143D01*
X233195536Y-94559524D01*
X233290774Y-94511905D01*
X233386012Y-94416667D01*
X233433631Y-94273809D01*
X233433631Y-94035714D01*
X232433631Y-94940476D02*
X232433631Y-95559524D01*
X232814583Y-95226190D01*
X232814583Y-95369048D01*
X232862202Y-95464286D01*
X232909821Y-95511905D01*
X233005060Y-95559524D01*
X233243155Y-95559524D01*
X233338393Y-95511905D01*
X233386012Y-95464286D01*
X233433631Y-95369048D01*
X233433631Y-95083333D01*
X233386012Y-94988095D01*
X233338393Y-94940476D01*
X232862202Y-96130952D02*
X232814583Y-96035714D01*
X232766964Y-95988095D01*
X232671726Y-95940476D01*
X232624107Y-95940476D01*
X232528869Y-95988095D01*
X232481250Y-96035714D01*
X232433631Y-96130952D01*
X232433631Y-96321429D01*
X232481250Y-96416667D01*
X232528869Y-96464286D01*
X232624107Y-96511905D01*
X232671726Y-96511905D01*
X232766964Y-96464286D01*
X232814583Y-96416667D01*
X232862202Y-96321429D01*
X232862202Y-96130952D01*
X232909821Y-96035714D01*
X232957440Y-95988095D01*
X233052679Y-95940476D01*
X233243155Y-95940476D01*
X233338393Y-95988095D01*
X233386012Y-96035714D01*
X233433631Y-96130952D01*
X233433631Y-96321429D01*
X233386012Y-96416667D01*
X233338393Y-96464286D01*
X233243155Y-96511905D01*
X233052679Y-96511905D01*
X232957440Y-96464286D01*
X232909821Y-96416667D01*
X232862202Y-96321429D01*
X214383631Y-94035714D02*
X213383631Y-94035714D01*
X213383631Y-94273809D01*
X213431250Y-94416667D01*
X213526488Y-94511905D01*
X213621726Y-94559524D01*
X213812202Y-94607143D01*
X213955060Y-94607143D01*
X214145536Y-94559524D01*
X214240774Y-94511905D01*
X214336012Y-94416667D01*
X214383631Y-94273809D01*
X214383631Y-94035714D01*
X213383631Y-94940476D02*
X213383631Y-95559524D01*
X213764583Y-95226190D01*
X213764583Y-95369048D01*
X213812202Y-95464286D01*
X213859821Y-95511905D01*
X213955060Y-95559524D01*
X214193155Y-95559524D01*
X214288393Y-95511905D01*
X214336012Y-95464286D01*
X214383631Y-95369048D01*
X214383631Y-95083333D01*
X214336012Y-94988095D01*
X214288393Y-94940476D01*
X213383631Y-95892857D02*
X213383631Y-96559524D01*
X214383631Y-96130952D01*
X195333631Y-94035714D02*
X194333631Y-94035714D01*
X194333631Y-94273809D01*
X194381250Y-94416667D01*
X194476488Y-94511905D01*
X194571726Y-94559524D01*
X194762202Y-94607143D01*
X194905060Y-94607143D01*
X195095536Y-94559524D01*
X195190774Y-94511905D01*
X195286012Y-94416667D01*
X195333631Y-94273809D01*
X195333631Y-94035714D01*
X194333631Y-94940476D02*
X194333631Y-95559524D01*
X194714583Y-95226190D01*
X194714583Y-95369048D01*
X194762202Y-95464286D01*
X194809821Y-95511905D01*
X194905060Y-95559524D01*
X195143155Y-95559524D01*
X195238393Y-95511905D01*
X195286012Y-95464286D01*
X195333631Y-95369048D01*
X195333631Y-95083333D01*
X195286012Y-94988095D01*
X195238393Y-94940476D01*
X194333631Y-96416667D02*
X194333631Y-96226190D01*
X194381250Y-96130952D01*
X194428869Y-96083333D01*
X194571726Y-95988095D01*
X194762202Y-95940476D01*
X195143155Y-95940476D01*
X195238393Y-95988095D01*
X195286012Y-96035714D01*
X195333631Y-96130952D01*
X195333631Y-96321429D01*
X195286012Y-96416667D01*
X195238393Y-96464286D01*
X195143155Y-96511905D01*
X194905060Y-96511905D01*
X194809821Y-96464286D01*
X194762202Y-96416667D01*
X194714583Y-96321429D01*
X194714583Y-96130952D01*
X194762202Y-96035714D01*
X194809821Y-95988095D01*
X194905060Y-95940476D01*
X160805506Y-94035714D02*
X159805506Y-94035714D01*
X159805506Y-94273809D01*
X159853125Y-94416667D01*
X159948363Y-94511905D01*
X160043601Y-94559524D01*
X160234077Y-94607143D01*
X160376935Y-94607143D01*
X160567411Y-94559524D01*
X160662649Y-94511905D01*
X160757887Y-94416667D01*
X160805506Y-94273809D01*
X160805506Y-94035714D01*
X159805506Y-94940476D02*
X159805506Y-95559524D01*
X160186458Y-95226190D01*
X160186458Y-95369048D01*
X160234077Y-95464286D01*
X160281696Y-95511905D01*
X160376935Y-95559524D01*
X160615030Y-95559524D01*
X160710268Y-95511905D01*
X160757887Y-95464286D01*
X160805506Y-95369048D01*
X160805506Y-95083333D01*
X160757887Y-94988095D01*
X160710268Y-94940476D01*
X159805506Y-96464286D02*
X159805506Y-95988095D01*
X160281696Y-95940476D01*
X160234077Y-95988095D01*
X160186458Y-96083333D01*
X160186458Y-96321429D01*
X160234077Y-96416667D01*
X160281696Y-96464286D01*
X160376935Y-96511905D01*
X160615030Y-96511905D01*
X160710268Y-96464286D01*
X160757887Y-96416667D01*
X160805506Y-96321429D01*
X160805506Y-96083333D01*
X160757887Y-95988095D01*
X160710268Y-95940476D01*
X157233631Y-94035714D02*
X156233631Y-94035714D01*
X156233631Y-94273809D01*
X156281250Y-94416667D01*
X156376488Y-94511905D01*
X156471726Y-94559524D01*
X156662202Y-94607143D01*
X156805060Y-94607143D01*
X156995536Y-94559524D01*
X157090774Y-94511905D01*
X157186012Y-94416667D01*
X157233631Y-94273809D01*
X157233631Y-94035714D01*
X156233631Y-94940476D02*
X156233631Y-95559524D01*
X156614583Y-95226190D01*
X156614583Y-95369048D01*
X156662202Y-95464286D01*
X156709821Y-95511905D01*
X156805060Y-95559524D01*
X157043155Y-95559524D01*
X157138393Y-95511905D01*
X157186012Y-95464286D01*
X157233631Y-95369048D01*
X157233631Y-95083333D01*
X157186012Y-94988095D01*
X157138393Y-94940476D01*
X156566964Y-96416667D02*
X157233631Y-96416667D01*
X156186012Y-96178571D02*
X156900298Y-95940476D01*
X156900298Y-96559524D01*
X122705506Y-94035714D02*
X121705506Y-94035714D01*
X121705506Y-94273809D01*
X121753125Y-94416667D01*
X121848363Y-94511905D01*
X121943601Y-94559524D01*
X122134077Y-94607143D01*
X122276935Y-94607143D01*
X122467411Y-94559524D01*
X122562649Y-94511905D01*
X122657887Y-94416667D01*
X122705506Y-94273809D01*
X122705506Y-94035714D01*
X121705506Y-94940476D02*
X121705506Y-95559524D01*
X122086458Y-95226190D01*
X122086458Y-95369048D01*
X122134077Y-95464286D01*
X122181696Y-95511905D01*
X122276935Y-95559524D01*
X122515030Y-95559524D01*
X122610268Y-95511905D01*
X122657887Y-95464286D01*
X122705506Y-95369048D01*
X122705506Y-95083333D01*
X122657887Y-94988095D01*
X122610268Y-94940476D01*
X121705506Y-95892857D02*
X121705506Y-96511905D01*
X122086458Y-96178571D01*
X122086458Y-96321429D01*
X122134077Y-96416667D01*
X122181696Y-96464286D01*
X122276935Y-96511905D01*
X122515030Y-96511905D01*
X122610268Y-96464286D01*
X122657887Y-96416667D01*
X122705506Y-96321429D01*
X122705506Y-96035714D01*
X122657887Y-95940476D01*
X122610268Y-95892857D01*
X119133631Y-94035714D02*
X118133631Y-94035714D01*
X118133631Y-94273809D01*
X118181250Y-94416667D01*
X118276488Y-94511905D01*
X118371726Y-94559524D01*
X118562202Y-94607143D01*
X118705060Y-94607143D01*
X118895536Y-94559524D01*
X118990774Y-94511905D01*
X119086012Y-94416667D01*
X119133631Y-94273809D01*
X119133631Y-94035714D01*
X118133631Y-94940476D02*
X118133631Y-95559524D01*
X118514583Y-95226190D01*
X118514583Y-95369048D01*
X118562202Y-95464286D01*
X118609821Y-95511905D01*
X118705060Y-95559524D01*
X118943155Y-95559524D01*
X119038393Y-95511905D01*
X119086012Y-95464286D01*
X119133631Y-95369048D01*
X119133631Y-95083333D01*
X119086012Y-94988095D01*
X119038393Y-94940476D01*
X118228869Y-95940476D02*
X118181250Y-95988095D01*
X118133631Y-96083333D01*
X118133631Y-96321429D01*
X118181250Y-96416667D01*
X118228869Y-96464286D01*
X118324107Y-96511905D01*
X118419345Y-96511905D01*
X118562202Y-96464286D01*
X119133631Y-95892857D01*
X119133631Y-96511905D01*
X100083631Y-94035714D02*
X99083631Y-94035714D01*
X99083631Y-94273809D01*
X99131250Y-94416667D01*
X99226488Y-94511905D01*
X99321726Y-94559524D01*
X99512202Y-94607143D01*
X99655060Y-94607143D01*
X99845536Y-94559524D01*
X99940774Y-94511905D01*
X100036012Y-94416667D01*
X100083631Y-94273809D01*
X100083631Y-94035714D01*
X99083631Y-94940476D02*
X99083631Y-95559524D01*
X99464583Y-95226190D01*
X99464583Y-95369048D01*
X99512202Y-95464286D01*
X99559821Y-95511905D01*
X99655060Y-95559524D01*
X99893155Y-95559524D01*
X99988393Y-95511905D01*
X100036012Y-95464286D01*
X100083631Y-95369048D01*
X100083631Y-95083333D01*
X100036012Y-94988095D01*
X99988393Y-94940476D01*
X100083631Y-96511905D02*
X100083631Y-95940476D01*
X100083631Y-96226190D02*
X99083631Y-96226190D01*
X99226488Y-96130952D01*
X99321726Y-96035714D01*
X99369345Y-95940476D01*
X54839881Y-94035714D02*
X53839881Y-94035714D01*
X53839881Y-94273809D01*
X53887500Y-94416667D01*
X53982738Y-94511905D01*
X54077976Y-94559524D01*
X54268452Y-94607143D01*
X54411310Y-94607143D01*
X54601786Y-94559524D01*
X54697024Y-94511905D01*
X54792262Y-94416667D01*
X54839881Y-94273809D01*
X54839881Y-94035714D01*
X53839881Y-94940476D02*
X53839881Y-95559524D01*
X54220833Y-95226190D01*
X54220833Y-95369048D01*
X54268452Y-95464286D01*
X54316071Y-95511905D01*
X54411310Y-95559524D01*
X54649405Y-95559524D01*
X54744643Y-95511905D01*
X54792262Y-95464286D01*
X54839881Y-95369048D01*
X54839881Y-95083333D01*
X54792262Y-94988095D01*
X54744643Y-94940476D01*
X53839881Y-96178571D02*
X53839881Y-96273810D01*
X53887500Y-96369048D01*
X53935119Y-96416667D01*
X54030357Y-96464286D01*
X54220833Y-96511905D01*
X54458929Y-96511905D01*
X54649405Y-96464286D01*
X54744643Y-96416667D01*
X54792262Y-96369048D01*
X54839881Y-96273810D01*
X54839881Y-96178571D01*
X54792262Y-96083333D01*
X54744643Y-96035714D01*
X54649405Y-95988095D01*
X54458929Y-95940476D01*
X54220833Y-95940476D01*
X54030357Y-95988095D01*
X53935119Y-96035714D01*
X53887500Y-96083333D01*
X53839881Y-96178571D01*
X309586161Y-84605506D02*
X309586161Y-83605506D01*
X309348066Y-83605506D01*
X309205208Y-83653125D01*
X309109970Y-83748363D01*
X309062351Y-83843601D01*
X309014732Y-84034077D01*
X309014732Y-84176935D01*
X309062351Y-84367411D01*
X309109970Y-84462649D01*
X309205208Y-84557887D01*
X309348066Y-84605506D01*
X309586161Y-84605506D01*
X308633780Y-83700744D02*
X308586161Y-83653125D01*
X308490923Y-83605506D01*
X308252827Y-83605506D01*
X308157589Y-83653125D01*
X308109970Y-83700744D01*
X308062351Y-83795982D01*
X308062351Y-83891220D01*
X308109970Y-84034077D01*
X308681399Y-84605506D01*
X308062351Y-84605506D01*
X307586161Y-84605506D02*
X307395685Y-84605506D01*
X307300446Y-84557887D01*
X307252827Y-84510268D01*
X307157589Y-84367411D01*
X307109970Y-84176935D01*
X307109970Y-83795982D01*
X307157589Y-83700744D01*
X307205208Y-83653125D01*
X307300446Y-83605506D01*
X307490923Y-83605506D01*
X307586161Y-83653125D01*
X307633780Y-83700744D01*
X307681399Y-83795982D01*
X307681399Y-84034077D01*
X307633780Y-84129315D01*
X307586161Y-84176935D01*
X307490923Y-84224554D01*
X307300446Y-84224554D01*
X307205208Y-84176935D01*
X307157589Y-84129315D01*
X307109970Y-84034077D01*
X304871131Y-74985714D02*
X303871131Y-74985714D01*
X303871131Y-75223809D01*
X303918750Y-75366667D01*
X304013988Y-75461905D01*
X304109226Y-75509524D01*
X304299702Y-75557143D01*
X304442560Y-75557143D01*
X304633036Y-75509524D01*
X304728274Y-75461905D01*
X304823512Y-75366667D01*
X304871131Y-75223809D01*
X304871131Y-74985714D01*
X303966369Y-75938095D02*
X303918750Y-75985714D01*
X303871131Y-76080952D01*
X303871131Y-76319048D01*
X303918750Y-76414286D01*
X303966369Y-76461905D01*
X304061607Y-76509524D01*
X304156845Y-76509524D01*
X304299702Y-76461905D01*
X304871131Y-75890476D01*
X304871131Y-76509524D01*
X304299702Y-77080952D02*
X304252083Y-76985714D01*
X304204464Y-76938095D01*
X304109226Y-76890476D01*
X304061607Y-76890476D01*
X303966369Y-76938095D01*
X303918750Y-76985714D01*
X303871131Y-77080952D01*
X303871131Y-77271429D01*
X303918750Y-77366667D01*
X303966369Y-77414286D01*
X304061607Y-77461905D01*
X304109226Y-77461905D01*
X304204464Y-77414286D01*
X304252083Y-77366667D01*
X304299702Y-77271429D01*
X304299702Y-77080952D01*
X304347321Y-76985714D01*
X304394940Y-76938095D01*
X304490179Y-76890476D01*
X304680655Y-76890476D01*
X304775893Y-76938095D01*
X304823512Y-76985714D01*
X304871131Y-77080952D01*
X304871131Y-77271429D01*
X304823512Y-77366667D01*
X304775893Y-77414286D01*
X304680655Y-77461905D01*
X304490179Y-77461905D01*
X304394940Y-77414286D01*
X304347321Y-77366667D01*
X304299702Y-77271429D01*
X285821131Y-74985714D02*
X284821131Y-74985714D01*
X284821131Y-75223809D01*
X284868750Y-75366667D01*
X284963988Y-75461905D01*
X285059226Y-75509524D01*
X285249702Y-75557143D01*
X285392560Y-75557143D01*
X285583036Y-75509524D01*
X285678274Y-75461905D01*
X285773512Y-75366667D01*
X285821131Y-75223809D01*
X285821131Y-74985714D01*
X284916369Y-75938095D02*
X284868750Y-75985714D01*
X284821131Y-76080952D01*
X284821131Y-76319048D01*
X284868750Y-76414286D01*
X284916369Y-76461905D01*
X285011607Y-76509524D01*
X285106845Y-76509524D01*
X285249702Y-76461905D01*
X285821131Y-75890476D01*
X285821131Y-76509524D01*
X284821131Y-76842857D02*
X284821131Y-77509524D01*
X285821131Y-77080952D01*
X266771131Y-74985714D02*
X265771131Y-74985714D01*
X265771131Y-75223809D01*
X265818750Y-75366667D01*
X265913988Y-75461905D01*
X266009226Y-75509524D01*
X266199702Y-75557143D01*
X266342560Y-75557143D01*
X266533036Y-75509524D01*
X266628274Y-75461905D01*
X266723512Y-75366667D01*
X266771131Y-75223809D01*
X266771131Y-74985714D01*
X265866369Y-75938095D02*
X265818750Y-75985714D01*
X265771131Y-76080952D01*
X265771131Y-76319048D01*
X265818750Y-76414286D01*
X265866369Y-76461905D01*
X265961607Y-76509524D01*
X266056845Y-76509524D01*
X266199702Y-76461905D01*
X266771131Y-75890476D01*
X266771131Y-76509524D01*
X265771131Y-77366667D02*
X265771131Y-77176190D01*
X265818750Y-77080952D01*
X265866369Y-77033333D01*
X266009226Y-76938095D01*
X266199702Y-76890476D01*
X266580655Y-76890476D01*
X266675893Y-76938095D01*
X266723512Y-76985714D01*
X266771131Y-77080952D01*
X266771131Y-77271429D01*
X266723512Y-77366667D01*
X266675893Y-77414286D01*
X266580655Y-77461905D01*
X266342560Y-77461905D01*
X266247321Y-77414286D01*
X266199702Y-77366667D01*
X266152083Y-77271429D01*
X266152083Y-77080952D01*
X266199702Y-76985714D01*
X266247321Y-76938095D01*
X266342560Y-76890476D01*
X247721131Y-74985714D02*
X246721131Y-74985714D01*
X246721131Y-75223809D01*
X246768750Y-75366667D01*
X246863988Y-75461905D01*
X246959226Y-75509524D01*
X247149702Y-75557143D01*
X247292560Y-75557143D01*
X247483036Y-75509524D01*
X247578274Y-75461905D01*
X247673512Y-75366667D01*
X247721131Y-75223809D01*
X247721131Y-74985714D01*
X246816369Y-75938095D02*
X246768750Y-75985714D01*
X246721131Y-76080952D01*
X246721131Y-76319048D01*
X246768750Y-76414286D01*
X246816369Y-76461905D01*
X246911607Y-76509524D01*
X247006845Y-76509524D01*
X247149702Y-76461905D01*
X247721131Y-75890476D01*
X247721131Y-76509524D01*
X246721131Y-77414286D02*
X246721131Y-76938095D01*
X247197321Y-76890476D01*
X247149702Y-76938095D01*
X247102083Y-77033333D01*
X247102083Y-77271429D01*
X247149702Y-77366667D01*
X247197321Y-77414286D01*
X247292560Y-77461905D01*
X247530655Y-77461905D01*
X247625893Y-77414286D01*
X247673512Y-77366667D01*
X247721131Y-77271429D01*
X247721131Y-77033333D01*
X247673512Y-76938095D01*
X247625893Y-76890476D01*
X228671131Y-74985714D02*
X227671131Y-74985714D01*
X227671131Y-75223809D01*
X227718750Y-75366667D01*
X227813988Y-75461905D01*
X227909226Y-75509524D01*
X228099702Y-75557143D01*
X228242560Y-75557143D01*
X228433036Y-75509524D01*
X228528274Y-75461905D01*
X228623512Y-75366667D01*
X228671131Y-75223809D01*
X228671131Y-74985714D01*
X227766369Y-75938095D02*
X227718750Y-75985714D01*
X227671131Y-76080952D01*
X227671131Y-76319048D01*
X227718750Y-76414286D01*
X227766369Y-76461905D01*
X227861607Y-76509524D01*
X227956845Y-76509524D01*
X228099702Y-76461905D01*
X228671131Y-75890476D01*
X228671131Y-76509524D01*
X228004464Y-77366667D02*
X228671131Y-77366667D01*
X227623512Y-77128571D02*
X228337798Y-76890476D01*
X228337798Y-77509524D01*
X209621131Y-74985714D02*
X208621131Y-74985714D01*
X208621131Y-75223809D01*
X208668750Y-75366667D01*
X208763988Y-75461905D01*
X208859226Y-75509524D01*
X209049702Y-75557143D01*
X209192560Y-75557143D01*
X209383036Y-75509524D01*
X209478274Y-75461905D01*
X209573512Y-75366667D01*
X209621131Y-75223809D01*
X209621131Y-74985714D01*
X208716369Y-75938095D02*
X208668750Y-75985714D01*
X208621131Y-76080952D01*
X208621131Y-76319048D01*
X208668750Y-76414286D01*
X208716369Y-76461905D01*
X208811607Y-76509524D01*
X208906845Y-76509524D01*
X209049702Y-76461905D01*
X209621131Y-75890476D01*
X209621131Y-76509524D01*
X208621131Y-76842857D02*
X208621131Y-77461905D01*
X209002083Y-77128571D01*
X209002083Y-77271429D01*
X209049702Y-77366667D01*
X209097321Y-77414286D01*
X209192560Y-77461905D01*
X209430655Y-77461905D01*
X209525893Y-77414286D01*
X209573512Y-77366667D01*
X209621131Y-77271429D01*
X209621131Y-76985714D01*
X209573512Y-76890476D01*
X209525893Y-76842857D01*
X190571131Y-74985714D02*
X189571131Y-74985714D01*
X189571131Y-75223809D01*
X189618750Y-75366667D01*
X189713988Y-75461905D01*
X189809226Y-75509524D01*
X189999702Y-75557143D01*
X190142560Y-75557143D01*
X190333036Y-75509524D01*
X190428274Y-75461905D01*
X190523512Y-75366667D01*
X190571131Y-75223809D01*
X190571131Y-74985714D01*
X189666369Y-75938095D02*
X189618750Y-75985714D01*
X189571131Y-76080952D01*
X189571131Y-76319048D01*
X189618750Y-76414286D01*
X189666369Y-76461905D01*
X189761607Y-76509524D01*
X189856845Y-76509524D01*
X189999702Y-76461905D01*
X190571131Y-75890476D01*
X190571131Y-76509524D01*
X189666369Y-76890476D02*
X189618750Y-76938095D01*
X189571131Y-77033333D01*
X189571131Y-77271429D01*
X189618750Y-77366667D01*
X189666369Y-77414286D01*
X189761607Y-77461905D01*
X189856845Y-77461905D01*
X189999702Y-77414286D01*
X190571131Y-76842857D01*
X190571131Y-77461905D01*
X171521131Y-74985714D02*
X170521131Y-74985714D01*
X170521131Y-75223809D01*
X170568750Y-75366667D01*
X170663988Y-75461905D01*
X170759226Y-75509524D01*
X170949702Y-75557143D01*
X171092560Y-75557143D01*
X171283036Y-75509524D01*
X171378274Y-75461905D01*
X171473512Y-75366667D01*
X171521131Y-75223809D01*
X171521131Y-74985714D01*
X170616369Y-75938095D02*
X170568750Y-75985714D01*
X170521131Y-76080952D01*
X170521131Y-76319048D01*
X170568750Y-76414286D01*
X170616369Y-76461905D01*
X170711607Y-76509524D01*
X170806845Y-76509524D01*
X170949702Y-76461905D01*
X171521131Y-75890476D01*
X171521131Y-76509524D01*
X171521131Y-77461905D02*
X171521131Y-76890476D01*
X171521131Y-77176190D02*
X170521131Y-77176190D01*
X170663988Y-77080952D01*
X170759226Y-76985714D01*
X170806845Y-76890476D01*
X152471131Y-74985714D02*
X151471131Y-74985714D01*
X151471131Y-75223809D01*
X151518750Y-75366667D01*
X151613988Y-75461905D01*
X151709226Y-75509524D01*
X151899702Y-75557143D01*
X152042560Y-75557143D01*
X152233036Y-75509524D01*
X152328274Y-75461905D01*
X152423512Y-75366667D01*
X152471131Y-75223809D01*
X152471131Y-74985714D01*
X151566369Y-75938095D02*
X151518750Y-75985714D01*
X151471131Y-76080952D01*
X151471131Y-76319048D01*
X151518750Y-76414286D01*
X151566369Y-76461905D01*
X151661607Y-76509524D01*
X151756845Y-76509524D01*
X151899702Y-76461905D01*
X152471131Y-75890476D01*
X152471131Y-76509524D01*
X151471131Y-77128571D02*
X151471131Y-77223810D01*
X151518750Y-77319048D01*
X151566369Y-77366667D01*
X151661607Y-77414286D01*
X151852083Y-77461905D01*
X152090179Y-77461905D01*
X152280655Y-77414286D01*
X152375893Y-77366667D01*
X152423512Y-77319048D01*
X152471131Y-77223810D01*
X152471131Y-77128571D01*
X152423512Y-77033333D01*
X152375893Y-76985714D01*
X152280655Y-76938095D01*
X152090179Y-76890476D01*
X151852083Y-76890476D01*
X151661607Y-76938095D01*
X151566369Y-76985714D01*
X151518750Y-77033333D01*
X151471131Y-77128571D01*
X133421131Y-74985714D02*
X132421131Y-74985714D01*
X132421131Y-75223809D01*
X132468750Y-75366667D01*
X132563988Y-75461905D01*
X132659226Y-75509524D01*
X132849702Y-75557143D01*
X132992560Y-75557143D01*
X133183036Y-75509524D01*
X133278274Y-75461905D01*
X133373512Y-75366667D01*
X133421131Y-75223809D01*
X133421131Y-74985714D01*
X133421131Y-76509524D02*
X133421131Y-75938095D01*
X133421131Y-76223809D02*
X132421131Y-76223809D01*
X132563988Y-76128571D01*
X132659226Y-76033333D01*
X132706845Y-75938095D01*
X133421131Y-76985714D02*
X133421131Y-77176190D01*
X133373512Y-77271429D01*
X133325893Y-77319048D01*
X133183036Y-77414286D01*
X132992560Y-77461905D01*
X132611607Y-77461905D01*
X132516369Y-77414286D01*
X132468750Y-77366667D01*
X132421131Y-77271429D01*
X132421131Y-77080952D01*
X132468750Y-76985714D01*
X132516369Y-76938095D01*
X132611607Y-76890476D01*
X132849702Y-76890476D01*
X132944940Y-76938095D01*
X132992560Y-76985714D01*
X133040179Y-77080952D01*
X133040179Y-77271429D01*
X132992560Y-77366667D01*
X132944940Y-77414286D01*
X132849702Y-77461905D01*
X114371131Y-74985714D02*
X113371131Y-74985714D01*
X113371131Y-75223809D01*
X113418750Y-75366667D01*
X113513988Y-75461905D01*
X113609226Y-75509524D01*
X113799702Y-75557143D01*
X113942560Y-75557143D01*
X114133036Y-75509524D01*
X114228274Y-75461905D01*
X114323512Y-75366667D01*
X114371131Y-75223809D01*
X114371131Y-74985714D01*
X114371131Y-76509524D02*
X114371131Y-75938095D01*
X114371131Y-76223809D02*
X113371131Y-76223809D01*
X113513988Y-76128571D01*
X113609226Y-76033333D01*
X113656845Y-75938095D01*
X113799702Y-77080952D02*
X113752083Y-76985714D01*
X113704464Y-76938095D01*
X113609226Y-76890476D01*
X113561607Y-76890476D01*
X113466369Y-76938095D01*
X113418750Y-76985714D01*
X113371131Y-77080952D01*
X113371131Y-77271429D01*
X113418750Y-77366667D01*
X113466369Y-77414286D01*
X113561607Y-77461905D01*
X113609226Y-77461905D01*
X113704464Y-77414286D01*
X113752083Y-77366667D01*
X113799702Y-77271429D01*
X113799702Y-77080952D01*
X113847321Y-76985714D01*
X113894940Y-76938095D01*
X113990179Y-76890476D01*
X114180655Y-76890476D01*
X114275893Y-76938095D01*
X114323512Y-76985714D01*
X114371131Y-77080952D01*
X114371131Y-77271429D01*
X114323512Y-77366667D01*
X114275893Y-77414286D01*
X114180655Y-77461905D01*
X113990179Y-77461905D01*
X113894940Y-77414286D01*
X113847321Y-77366667D01*
X113799702Y-77271429D01*
X95321131Y-74985714D02*
X94321131Y-74985714D01*
X94321131Y-75223809D01*
X94368750Y-75366667D01*
X94463988Y-75461905D01*
X94559226Y-75509524D01*
X94749702Y-75557143D01*
X94892560Y-75557143D01*
X95083036Y-75509524D01*
X95178274Y-75461905D01*
X95273512Y-75366667D01*
X95321131Y-75223809D01*
X95321131Y-74985714D01*
X95321131Y-76509524D02*
X95321131Y-75938095D01*
X95321131Y-76223809D02*
X94321131Y-76223809D01*
X94463988Y-76128571D01*
X94559226Y-76033333D01*
X94606845Y-75938095D01*
X94321131Y-76842857D02*
X94321131Y-77509524D01*
X95321131Y-77080952D01*
X56030506Y-74985714D02*
X55030506Y-74985714D01*
X55030506Y-75223809D01*
X55078125Y-75366667D01*
X55173363Y-75461905D01*
X55268601Y-75509524D01*
X55459077Y-75557143D01*
X55601935Y-75557143D01*
X55792411Y-75509524D01*
X55887649Y-75461905D01*
X55982887Y-75366667D01*
X56030506Y-75223809D01*
X56030506Y-74985714D01*
X56030506Y-76509524D02*
X56030506Y-75938095D01*
X56030506Y-76223809D02*
X55030506Y-76223809D01*
X55173363Y-76128571D01*
X55268601Y-76033333D01*
X55316220Y-75938095D01*
X55030506Y-77366667D02*
X55030506Y-77176190D01*
X55078125Y-77080952D01*
X55125744Y-77033333D01*
X55268601Y-76938095D01*
X55459077Y-76890476D01*
X55840030Y-76890476D01*
X55935268Y-76938095D01*
X55982887Y-76985714D01*
X56030506Y-77080952D01*
X56030506Y-77271429D01*
X55982887Y-77366667D01*
X55935268Y-77414286D01*
X55840030Y-77461905D01*
X55601935Y-77461905D01*
X55506696Y-77414286D01*
X55459077Y-77366667D01*
X55411458Y-77271429D01*
X55411458Y-77080952D01*
X55459077Y-76985714D01*
X55506696Y-76938095D01*
X55601935Y-76890476D01*
X296489286Y-63174256D02*
X296489286Y-62174256D01*
X296251191Y-62174256D01*
X296108333Y-62221875D01*
X296013095Y-62317113D01*
X295965476Y-62412351D01*
X295917857Y-62602827D01*
X295917857Y-62745685D01*
X295965476Y-62936161D01*
X296013095Y-63031399D01*
X296108333Y-63126637D01*
X296251191Y-63174256D01*
X296489286Y-63174256D01*
X294965476Y-63174256D02*
X295536905Y-63174256D01*
X295251191Y-63174256D02*
X295251191Y-62174256D01*
X295346429Y-62317113D01*
X295441667Y-62412351D01*
X295536905Y-62459970D01*
X294060714Y-62174256D02*
X294536905Y-62174256D01*
X294584524Y-62650446D01*
X294536905Y-62602827D01*
X294441667Y-62555208D01*
X294203571Y-62555208D01*
X294108333Y-62602827D01*
X294060714Y-62650446D01*
X294013095Y-62745685D01*
X294013095Y-62983780D01*
X294060714Y-63079018D01*
X294108333Y-63126637D01*
X294203571Y-63174256D01*
X294441667Y-63174256D01*
X294536905Y-63126637D01*
X294584524Y-63079018D01*
X298918006Y-53554464D02*
X297918006Y-53554464D01*
X297918006Y-53792559D01*
X297965625Y-53935417D01*
X298060863Y-54030655D01*
X298156101Y-54078274D01*
X298346577Y-54125893D01*
X298489435Y-54125893D01*
X298679911Y-54078274D01*
X298775149Y-54030655D01*
X298870387Y-53935417D01*
X298918006Y-53792559D01*
X298918006Y-53554464D01*
X298918006Y-55078274D02*
X298918006Y-54506845D01*
X298918006Y-54792559D02*
X297918006Y-54792559D01*
X298060863Y-54697321D01*
X298156101Y-54602083D01*
X298203720Y-54506845D01*
X298251339Y-55935417D02*
X298918006Y-55935417D01*
X297870387Y-55697321D02*
X298584673Y-55459226D01*
X298584673Y-56078274D01*
X295346131Y-53554464D02*
X294346131Y-53554464D01*
X294346131Y-53792559D01*
X294393750Y-53935417D01*
X294488988Y-54030655D01*
X294584226Y-54078274D01*
X294774702Y-54125893D01*
X294917560Y-54125893D01*
X295108036Y-54078274D01*
X295203274Y-54030655D01*
X295298512Y-53935417D01*
X295346131Y-53792559D01*
X295346131Y-53554464D01*
X295346131Y-55078274D02*
X295346131Y-54506845D01*
X295346131Y-54792559D02*
X294346131Y-54792559D01*
X294488988Y-54697321D01*
X294584226Y-54602083D01*
X294631845Y-54506845D01*
X294346131Y-55411607D02*
X294346131Y-56030655D01*
X294727083Y-55697321D01*
X294727083Y-55840179D01*
X294774702Y-55935417D01*
X294822321Y-55983036D01*
X294917560Y-56030655D01*
X295155655Y-56030655D01*
X295250893Y-55983036D01*
X295298512Y-55935417D01*
X295346131Y-55840179D01*
X295346131Y-55554464D01*
X295298512Y-55459226D01*
X295250893Y-55411607D01*
X276296131Y-55935714D02*
X275296131Y-55935714D01*
X275296131Y-56173809D01*
X275343750Y-56316667D01*
X275438988Y-56411905D01*
X275534226Y-56459524D01*
X275724702Y-56507143D01*
X275867560Y-56507143D01*
X276058036Y-56459524D01*
X276153274Y-56411905D01*
X276248512Y-56316667D01*
X276296131Y-56173809D01*
X276296131Y-55935714D01*
X276296131Y-57459524D02*
X276296131Y-56888095D01*
X276296131Y-57173809D02*
X275296131Y-57173809D01*
X275438988Y-57078571D01*
X275534226Y-56983333D01*
X275581845Y-56888095D01*
X275391369Y-57840476D02*
X275343750Y-57888095D01*
X275296131Y-57983333D01*
X275296131Y-58221429D01*
X275343750Y-58316667D01*
X275391369Y-58364286D01*
X275486607Y-58411905D01*
X275581845Y-58411905D01*
X275724702Y-58364286D01*
X276296131Y-57792857D01*
X276296131Y-58411905D01*
X257246131Y-55935714D02*
X256246131Y-55935714D01*
X256246131Y-56173809D01*
X256293750Y-56316667D01*
X256388988Y-56411905D01*
X256484226Y-56459524D01*
X256674702Y-56507143D01*
X256817560Y-56507143D01*
X257008036Y-56459524D01*
X257103274Y-56411905D01*
X257198512Y-56316667D01*
X257246131Y-56173809D01*
X257246131Y-55935714D01*
X257246131Y-57459524D02*
X257246131Y-56888095D01*
X257246131Y-57173809D02*
X256246131Y-57173809D01*
X256388988Y-57078571D01*
X256484226Y-56983333D01*
X256531845Y-56888095D01*
X257246131Y-58411905D02*
X257246131Y-57840476D01*
X257246131Y-58126190D02*
X256246131Y-58126190D01*
X256388988Y-58030952D01*
X256484226Y-57935714D01*
X256531845Y-57840476D01*
X238196131Y-55935714D02*
X237196131Y-55935714D01*
X237196131Y-56173809D01*
X237243750Y-56316667D01*
X237338988Y-56411905D01*
X237434226Y-56459524D01*
X237624702Y-56507143D01*
X237767560Y-56507143D01*
X237958036Y-56459524D01*
X238053274Y-56411905D01*
X238148512Y-56316667D01*
X238196131Y-56173809D01*
X238196131Y-55935714D01*
X238196131Y-57459524D02*
X238196131Y-56888095D01*
X238196131Y-57173809D02*
X237196131Y-57173809D01*
X237338988Y-57078571D01*
X237434226Y-56983333D01*
X237481845Y-56888095D01*
X237196131Y-58078571D02*
X237196131Y-58173810D01*
X237243750Y-58269048D01*
X237291369Y-58316667D01*
X237386607Y-58364286D01*
X237577083Y-58411905D01*
X237815179Y-58411905D01*
X238005655Y-58364286D01*
X238100893Y-58316667D01*
X238148512Y-58269048D01*
X238196131Y-58173810D01*
X238196131Y-58078571D01*
X238148512Y-57983333D01*
X238100893Y-57935714D01*
X238005655Y-57888095D01*
X237815179Y-57840476D01*
X237577083Y-57840476D01*
X237386607Y-57888095D01*
X237291369Y-57935714D01*
X237243750Y-57983333D01*
X237196131Y-58078571D01*
X219146131Y-56411905D02*
X218146131Y-56411905D01*
X218146131Y-56650000D01*
X218193750Y-56792858D01*
X218288988Y-56888096D01*
X218384226Y-56935715D01*
X218574702Y-56983334D01*
X218717560Y-56983334D01*
X218908036Y-56935715D01*
X219003274Y-56888096D01*
X219098512Y-56792858D01*
X219146131Y-56650000D01*
X219146131Y-56411905D01*
X219146131Y-57459524D02*
X219146131Y-57650000D01*
X219098512Y-57745239D01*
X219050893Y-57792858D01*
X218908036Y-57888096D01*
X218717560Y-57935715D01*
X218336607Y-57935715D01*
X218241369Y-57888096D01*
X218193750Y-57840477D01*
X218146131Y-57745239D01*
X218146131Y-57554762D01*
X218193750Y-57459524D01*
X218241369Y-57411905D01*
X218336607Y-57364286D01*
X218574702Y-57364286D01*
X218669940Y-57411905D01*
X218717560Y-57459524D01*
X218765179Y-57554762D01*
X218765179Y-57745239D01*
X218717560Y-57840477D01*
X218669940Y-57888096D01*
X218574702Y-57935715D01*
X200096131Y-56411905D02*
X199096131Y-56411905D01*
X199096131Y-56650000D01*
X199143750Y-56792858D01*
X199238988Y-56888096D01*
X199334226Y-56935715D01*
X199524702Y-56983334D01*
X199667560Y-56983334D01*
X199858036Y-56935715D01*
X199953274Y-56888096D01*
X200048512Y-56792858D01*
X200096131Y-56650000D01*
X200096131Y-56411905D01*
X199524702Y-57554762D02*
X199477083Y-57459524D01*
X199429464Y-57411905D01*
X199334226Y-57364286D01*
X199286607Y-57364286D01*
X199191369Y-57411905D01*
X199143750Y-57459524D01*
X199096131Y-57554762D01*
X199096131Y-57745239D01*
X199143750Y-57840477D01*
X199191369Y-57888096D01*
X199286607Y-57935715D01*
X199334226Y-57935715D01*
X199429464Y-57888096D01*
X199477083Y-57840477D01*
X199524702Y-57745239D01*
X199524702Y-57554762D01*
X199572321Y-57459524D01*
X199619940Y-57411905D01*
X199715179Y-57364286D01*
X199905655Y-57364286D01*
X200000893Y-57411905D01*
X200048512Y-57459524D01*
X200096131Y-57554762D01*
X200096131Y-57745239D01*
X200048512Y-57840477D01*
X200000893Y-57888096D01*
X199905655Y-57935715D01*
X199715179Y-57935715D01*
X199619940Y-57888096D01*
X199572321Y-57840477D01*
X199524702Y-57745239D01*
X181046131Y-56411905D02*
X180046131Y-56411905D01*
X180046131Y-56650000D01*
X180093750Y-56792858D01*
X180188988Y-56888096D01*
X180284226Y-56935715D01*
X180474702Y-56983334D01*
X180617560Y-56983334D01*
X180808036Y-56935715D01*
X180903274Y-56888096D01*
X180998512Y-56792858D01*
X181046131Y-56650000D01*
X181046131Y-56411905D01*
X180046131Y-57316667D02*
X180046131Y-57983334D01*
X181046131Y-57554762D01*
X161996131Y-56411905D02*
X160996131Y-56411905D01*
X160996131Y-56650000D01*
X161043750Y-56792858D01*
X161138988Y-56888096D01*
X161234226Y-56935715D01*
X161424702Y-56983334D01*
X161567560Y-56983334D01*
X161758036Y-56935715D01*
X161853274Y-56888096D01*
X161948512Y-56792858D01*
X161996131Y-56650000D01*
X161996131Y-56411905D01*
X160996131Y-57840477D02*
X160996131Y-57650000D01*
X161043750Y-57554762D01*
X161091369Y-57507143D01*
X161234226Y-57411905D01*
X161424702Y-57364286D01*
X161805655Y-57364286D01*
X161900893Y-57411905D01*
X161948512Y-57459524D01*
X161996131Y-57554762D01*
X161996131Y-57745239D01*
X161948512Y-57840477D01*
X161900893Y-57888096D01*
X161805655Y-57935715D01*
X161567560Y-57935715D01*
X161472321Y-57888096D01*
X161424702Y-57840477D01*
X161377083Y-57745239D01*
X161377083Y-57554762D01*
X161424702Y-57459524D01*
X161472321Y-57411905D01*
X161567560Y-57364286D01*
X142946131Y-56411905D02*
X141946131Y-56411905D01*
X141946131Y-56650000D01*
X141993750Y-56792858D01*
X142088988Y-56888096D01*
X142184226Y-56935715D01*
X142374702Y-56983334D01*
X142517560Y-56983334D01*
X142708036Y-56935715D01*
X142803274Y-56888096D01*
X142898512Y-56792858D01*
X142946131Y-56650000D01*
X142946131Y-56411905D01*
X141946131Y-57888096D02*
X141946131Y-57411905D01*
X142422321Y-57364286D01*
X142374702Y-57411905D01*
X142327083Y-57507143D01*
X142327083Y-57745239D01*
X142374702Y-57840477D01*
X142422321Y-57888096D01*
X142517560Y-57935715D01*
X142755655Y-57935715D01*
X142850893Y-57888096D01*
X142898512Y-57840477D01*
X142946131Y-57745239D01*
X142946131Y-57507143D01*
X142898512Y-57411905D01*
X142850893Y-57364286D01*
X123896131Y-56411905D02*
X122896131Y-56411905D01*
X122896131Y-56650000D01*
X122943750Y-56792858D01*
X123038988Y-56888096D01*
X123134226Y-56935715D01*
X123324702Y-56983334D01*
X123467560Y-56983334D01*
X123658036Y-56935715D01*
X123753274Y-56888096D01*
X123848512Y-56792858D01*
X123896131Y-56650000D01*
X123896131Y-56411905D01*
X123229464Y-57840477D02*
X123896131Y-57840477D01*
X122848512Y-57602381D02*
X123562798Y-57364286D01*
X123562798Y-57983334D01*
X104846131Y-56411905D02*
X103846131Y-56411905D01*
X103846131Y-56650000D01*
X103893750Y-56792858D01*
X103988988Y-56888096D01*
X104084226Y-56935715D01*
X104274702Y-56983334D01*
X104417560Y-56983334D01*
X104608036Y-56935715D01*
X104703274Y-56888096D01*
X104798512Y-56792858D01*
X104846131Y-56650000D01*
X104846131Y-56411905D01*
X103846131Y-57316667D02*
X103846131Y-57935715D01*
X104227083Y-57602381D01*
X104227083Y-57745239D01*
X104274702Y-57840477D01*
X104322321Y-57888096D01*
X104417560Y-57935715D01*
X104655655Y-57935715D01*
X104750893Y-57888096D01*
X104798512Y-57840477D01*
X104846131Y-57745239D01*
X104846131Y-57459524D01*
X104798512Y-57364286D01*
X104750893Y-57316667D01*
X85796131Y-56411905D02*
X84796131Y-56411905D01*
X84796131Y-56650000D01*
X84843750Y-56792858D01*
X84938988Y-56888096D01*
X85034226Y-56935715D01*
X85224702Y-56983334D01*
X85367560Y-56983334D01*
X85558036Y-56935715D01*
X85653274Y-56888096D01*
X85748512Y-56792858D01*
X85796131Y-56650000D01*
X85796131Y-56411905D01*
X84891369Y-57364286D02*
X84843750Y-57411905D01*
X84796131Y-57507143D01*
X84796131Y-57745239D01*
X84843750Y-57840477D01*
X84891369Y-57888096D01*
X84986607Y-57935715D01*
X85081845Y-57935715D01*
X85224702Y-57888096D01*
X85796131Y-57316667D01*
X85796131Y-57935715D01*
X54839881Y-59983780D02*
X53839881Y-59983780D01*
X53839881Y-60221875D01*
X53887500Y-60364733D01*
X53982738Y-60459971D01*
X54077976Y-60507590D01*
X54268452Y-60555209D01*
X54411310Y-60555209D01*
X54601786Y-60507590D01*
X54697024Y-60459971D01*
X54792262Y-60364733D01*
X54839881Y-60221875D01*
X54839881Y-59983780D01*
X54839881Y-61507590D02*
X54839881Y-60936161D01*
X54839881Y-61221875D02*
X53839881Y-61221875D01*
X53982738Y-61126637D01*
X54077976Y-61031399D01*
X54125595Y-60936161D01*
X133857905Y-127254381D02*
X133857905Y-128063905D01*
X133810286Y-128159143D01*
X133762667Y-128206762D01*
X133667429Y-128254381D01*
X133476952Y-128254381D01*
X133381714Y-128206762D01*
X133334095Y-128159143D01*
X133286476Y-128063905D01*
X133286476Y-127254381D01*
X132857905Y-127349619D02*
X132810286Y-127302000D01*
X132715048Y-127254381D01*
X132476952Y-127254381D01*
X132381714Y-127302000D01*
X132334095Y-127349619D01*
X132286476Y-127444857D01*
X132286476Y-127540095D01*
X132334095Y-127682952D01*
X132905524Y-128254381D01*
X132286476Y-128254381D01*
X152380881Y-130937095D02*
X153190405Y-130937095D01*
X153285643Y-130984714D01*
X153333262Y-131032333D01*
X153380881Y-131127571D01*
X153380881Y-131318048D01*
X153333262Y-131413286D01*
X153285643Y-131460905D01*
X153190405Y-131508524D01*
X152380881Y-131508524D01*
X153380881Y-132508524D02*
X153380881Y-131937095D01*
X153380881Y-132222809D02*
X152380881Y-132222809D01*
X152523738Y-132127571D01*
X152618976Y-132032333D01*
X152666595Y-131937095D01*
X78549333Y-100734762D02*
X78406476Y-100782381D01*
X78168380Y-100782381D01*
X78073142Y-100734762D01*
X78025523Y-100687143D01*
X77977904Y-100591905D01*
X77977904Y-100496667D01*
X78025523Y-100401429D01*
X78073142Y-100353810D01*
X78168380Y-100306190D01*
X78358857Y-100258571D01*
X78454095Y-100210952D01*
X78501714Y-100163333D01*
X78549333Y-100068095D01*
X78549333Y-99972857D01*
X78501714Y-99877619D01*
X78454095Y-99830000D01*
X78358857Y-99782381D01*
X78120761Y-99782381D01*
X77977904Y-99830000D01*
X77644571Y-99782381D02*
X77406476Y-100782381D01*
X77215999Y-100068095D01*
X77025523Y-100782381D01*
X76787428Y-99782381D01*
X75882666Y-100782381D02*
X76454095Y-100782381D01*
X76168381Y-100782381D02*
X76168381Y-99782381D01*
X76263619Y-99925238D01*
X76358857Y-100020476D01*
X76454095Y-100068095D01*
M02*
