M48
;DRILL file {KiCad 4.0.7} date 04/17/18 21:46:34
;FORMAT={3:3/ absolute / metric / suppress trailing zeros}
FMAT,2
METRIC,LZ
T1C0.986
T2C0.988
T3C1.750
T4C3.048
T5C3.988
%
G90
G05
M71
T1
X052959Y-083185
X054991Y-083185
T2
X053975Y-088265
T3
X05207Y-05715
X054451Y-09525
X054451Y-13335
X056832Y-0762
X056832Y-13335
X059214Y-09525
X06223Y-05715
X063976Y-1143
X064611Y-09525
X064611Y-13335
X066993Y-0762
X066993Y-13335
X069374Y-09525
X07112Y-05715
X074136Y-1143
X078264Y-13335
X080645Y-0762
X08128Y-05715
X083026Y-13335
X085408Y-09525
X085408Y-13335
X088424Y-13335
X09017Y-05715
X090805Y-0762
X093186Y-13335
X094933Y-1143
X095568Y-09525
X095568Y-13335
X099695Y-0762
X10033Y-05715
X102076Y-13335
X104458Y-09525
X105093Y-1143
X10922Y-05715
X10922Y-13335
X109855Y-0762
X112236Y-13335
X113983Y-1143
X114618Y-09525
X118745Y-0762
X11938Y-05715
X11938Y-13335
X123507Y-09525
X124143Y-1143
X12827Y-05715
X128905Y-0762
X133033Y-1143
X133668Y-09525
X135414Y-13335
X137795Y-0762
X13843Y-05715
X142558Y-09525
X143193Y-1143
X144939Y-13335
X145574Y-13335
X14732Y-05715
X147955Y-0762
X152082Y-1143
X152718Y-09525
X155099Y-13335
X156845Y-0762
X15748Y-05715
X161607Y-09525
X162243Y-1143
X16637Y-05715
X16637Y-13335
X167005Y-0762
X168751Y-13335
X171133Y-1143
X171767Y-09525
X173514Y-13335
X175895Y-0762
X17653Y-05715
X17653Y-13335
X178911Y-13335
X180658Y-09525
X180658Y-13335
X181293Y-1143
X183674Y-13335
X18542Y-05715
X18542Y-13335
X186055Y-0762
X190183Y-1143
X190818Y-09525
X190818Y-13335
X194945Y-0762
X19558Y-05715
X19558Y-13335
X199708Y-09525
X200343Y-1143
X20447Y-05715
X205105Y-0762
X206851Y-13335
X209233Y-1143
X209867Y-09525
X213995Y-0762
X21463Y-05715
X217011Y-13335
X218758Y-09525
X219392Y-1143
X221139Y-13335
X22352Y-05715
X224155Y-0762
X228283Y-1143
X228917Y-09525
X231299Y-13335
X233045Y-0762
X23368Y-05715
X237808Y-09525
X238443Y-1143
X24257Y-05715
X24257Y-13335
X243205Y-0762
X247333Y-1143
X247333Y-13335
X247968Y-09525
X252095Y-0762
X25273Y-05715
X25273Y-13335
X256858Y-09525
X257493Y-1143
X257493Y-13335
X259239Y-13335
X26162Y-05715
X26162Y-13335
X262255Y-0762
X266383Y-1143
X267017Y-09525
X269399Y-13335
X271145Y-0762
X27178Y-05715
X27178Y-13335
X275908Y-09525
X275908Y-13335
X276542Y-1143
X28067Y-05715
X28067Y-13335
X281305Y-0762
X286068Y-09525
X286068Y-13335
X290195Y-0762
X29083Y-05715
X29083Y-13335
X292576Y-1143
X29972Y-05715
X29972Y-13335
X300355Y-0762
X302736Y-1143
X306864Y-09525
X309245Y-05715
X30988Y-05715
X30988Y-13335
X314008Y-0762
X317024Y-09525
X31877Y-05715
X31877Y-1143
X31877Y-13335
X319405Y-05715
X324167Y-0762
X32893Y-05715
X32893Y-1143
X32893Y-13335
X33782Y-05715
X33782Y-0762
X33782Y-09525
X33782Y-1143
X33782Y-13335
X34798Y-05715
X34798Y-0762
X34798Y-09525
X34798Y-1143
X34798Y-13335
T4
X057118Y-107315
X080994Y-107315
X1143Y-140335
X128556Y-140335
X128594Y-140335
X138081Y-140335
X1405Y-140335
X152432Y-140335
X161957Y-140335
X199993Y-140335
X214281Y-140335
X223869Y-140335
X228594Y-140335
X2286Y-140335
X238157Y-140335
X2405Y-140335
X300006Y-088265
X302387Y-050165
X323882Y-088265
X326263Y-050165
T5
X057118Y-122555
X05715Y-05715
X059531Y-09525
X059531Y-13335
X061913Y-0762
X061913Y-13335
X064294Y-09525
X069056Y-1143
X0762Y-05715
X080994Y-122555
X083344Y-13335
X085725Y-0762
X088106Y-13335
X090488Y-09525
X090488Y-13335
X09525Y-05715
X100012Y-1143
X104775Y-0762
X107156Y-13335
X109538Y-09525
X1143Y-05715
X1143Y-125095
X1143Y-13335
X119063Y-1143
X123825Y-0762
X128556Y-125095
X128588Y-09525
X128594Y-125095
X13335Y-05715
X138081Y-125095
X138112Y-1143
X140494Y-13335
X1405Y-125095
X142875Y-0762
X147638Y-09525
X150019Y-13335
X1524Y-05715
X152432Y-125095
X157163Y-1143
X161925Y-0762
X161957Y-125095
X166688Y-09525
X17145Y-05715
X17145Y-13335
X173831Y-13335
X176213Y-1143
X178594Y-13335
X180975Y-0762
X185737Y-09525
X185737Y-13335
X1905Y-05715
X1905Y-13335
X195263Y-1143
X199993Y-125095
X200025Y-0762
X204788Y-09525
X20955Y-05715
X211931Y-13335
X214281Y-125095
X214313Y-1143
X219075Y-0762
X223838Y-09525
X223869Y-125095
X226219Y-13335
X228594Y-125095
X2286Y-05715
X2286Y-125095
X233363Y-1143
X238125Y-0762
X238157Y-125095
X2405Y-125095
X242888Y-09525
X24765Y-05715
X24765Y-13335
X252413Y-1143
X252413Y-13335
X257175Y-0762
X261938Y-09525
X264319Y-13335
X2667Y-05715
X2667Y-13335
X271463Y-1143
X276225Y-0762
X280988Y-09525
X280988Y-13335
X28575Y-05715
X28575Y-13335
X295275Y-0762
X297656Y-1143
X300006Y-103505
X302387Y-065405
X3048Y-05715
X3048Y-13335
X311944Y-09525
X314325Y-05715
X319088Y-0762
X32385Y-05715
X32385Y-1143
X32385Y-13335
X323882Y-103505
X326263Y-065405
X3429Y-05715
X3429Y-0762
X3429Y-09525
X3429Y-1143
X3429Y-13335
T0
M30
