%TF.GenerationSoftware,KiCad,Pcbnew,4.0.7*%
%TF.CreationDate,2018-04-08T22:34:51-07:00*%
%TF.ProjectId,VoyagerII,566F796167657249492E6B696361645F,rev?*%
%TF.FileFunction,Legend,Top*%
%FSLAX46Y46*%
G04 Gerber Fmt 4.6, Leading zero omitted, Abs format (unit mm)*
G04 Created by KiCad (PCBNEW 4.0.7) date 04/08/18 22:34:51*
%MOMM*%
%LPD*%
G01*
G04 APERTURE LIST*
%ADD10C,0.100000*%
%ADD11C,0.907143*%
%ADD12C,0.170000*%
G04 APERTURE END LIST*
D10*
D11*
X91545834Y-101032312D02*
X95779167Y-110103741D01*
X100012500Y-101032312D01*
X106664881Y-101032312D02*
X109083929Y-101032312D01*
X110293453Y-101464285D01*
X111502976Y-102328231D01*
X112107738Y-104056122D01*
X112107738Y-107079932D01*
X111502976Y-108807823D01*
X110293453Y-109671768D01*
X109083929Y-110103741D01*
X106664881Y-110103741D01*
X105455357Y-109671768D01*
X104245834Y-108807823D01*
X103641072Y-107079932D01*
X103641072Y-104056122D01*
X104245834Y-102328231D01*
X105455357Y-101464285D01*
X106664881Y-101032312D01*
X119969643Y-105784013D02*
X119969643Y-110103741D01*
X115736310Y-101032312D02*
X119969643Y-105784013D01*
X124202976Y-101032312D01*
X127831548Y-107511904D02*
X133879167Y-107511904D01*
X126622024Y-110103741D02*
X130855357Y-101032312D01*
X135088690Y-110103741D01*
X145974404Y-101464285D02*
X144764881Y-101032312D01*
X142950595Y-101032312D01*
X141136309Y-101464285D01*
X139926785Y-102328231D01*
X139322024Y-103192176D01*
X138717262Y-104920067D01*
X138717262Y-106215986D01*
X139322024Y-107943877D01*
X139926785Y-108807823D01*
X141136309Y-109671768D01*
X142950595Y-110103741D01*
X144160119Y-110103741D01*
X145974404Y-109671768D01*
X146579166Y-109239796D01*
X146579166Y-106215986D01*
X144160119Y-106215986D01*
X152022024Y-105352040D02*
X156255357Y-105352040D01*
X158069643Y-110103741D02*
X152022024Y-110103741D01*
X152022024Y-101032312D01*
X158069643Y-101032312D01*
X170769642Y-110103741D02*
X166536309Y-105784013D01*
X163512500Y-110103741D02*
X163512500Y-101032312D01*
X168350595Y-101032312D01*
X169560119Y-101464285D01*
X170164880Y-101896258D01*
X170769642Y-102760203D01*
X170769642Y-104056122D01*
X170164880Y-104920067D01*
X169560119Y-105352040D01*
X168350595Y-105784013D01*
X163512500Y-105784013D01*
D12*
X147678569Y-121604107D02*
X147678569Y-120404107D01*
X148135712Y-120404107D01*
X148249998Y-120461250D01*
X148307141Y-120518393D01*
X148364284Y-120632679D01*
X148364284Y-120804107D01*
X148307141Y-120918393D01*
X148249998Y-120975536D01*
X148135712Y-121032679D01*
X147678569Y-121032679D01*
X149564284Y-121489821D02*
X149507141Y-121546964D01*
X149335712Y-121604107D01*
X149221426Y-121604107D01*
X149049998Y-121546964D01*
X148935712Y-121432679D01*
X148878569Y-121318393D01*
X148821426Y-121089821D01*
X148821426Y-120918393D01*
X148878569Y-120689821D01*
X148935712Y-120575536D01*
X149049998Y-120461250D01*
X149221426Y-120404107D01*
X149335712Y-120404107D01*
X149507141Y-120461250D01*
X149564284Y-120518393D01*
X150478569Y-120975536D02*
X150649998Y-121032679D01*
X150707141Y-121089821D01*
X150764284Y-121204107D01*
X150764284Y-121375536D01*
X150707141Y-121489821D01*
X150649998Y-121546964D01*
X150535712Y-121604107D01*
X150078569Y-121604107D01*
X150078569Y-120404107D01*
X150478569Y-120404107D01*
X150592855Y-120461250D01*
X150649998Y-120518393D01*
X150707141Y-120632679D01*
X150707141Y-120746964D01*
X150649998Y-120861250D01*
X150592855Y-120918393D01*
X150478569Y-120975536D01*
X150078569Y-120975536D01*
X152192855Y-121604107D02*
X152192855Y-120404107D01*
X152192855Y-120861250D02*
X152307141Y-120804107D01*
X152535712Y-120804107D01*
X152649998Y-120861250D01*
X152707141Y-120918393D01*
X152764284Y-121032679D01*
X152764284Y-121375536D01*
X152707141Y-121489821D01*
X152649998Y-121546964D01*
X152535712Y-121604107D01*
X152307141Y-121604107D01*
X152192855Y-121546964D01*
X153164284Y-120804107D02*
X153449998Y-121604107D01*
X153735712Y-120804107D02*
X153449998Y-121604107D01*
X153335712Y-121889821D01*
X153278569Y-121946964D01*
X153164284Y-122004107D01*
X155621427Y-121604107D02*
X155621427Y-120975536D01*
X155564284Y-120861250D01*
X155449998Y-120804107D01*
X155221427Y-120804107D01*
X155107141Y-120861250D01*
X155621427Y-121546964D02*
X155507141Y-121604107D01*
X155221427Y-121604107D01*
X155107141Y-121546964D01*
X155049998Y-121432679D01*
X155049998Y-121318393D01*
X155107141Y-121204107D01*
X155221427Y-121146964D01*
X155507141Y-121146964D01*
X155621427Y-121089821D01*
X156192855Y-121604107D02*
X156192855Y-120804107D01*
X156192855Y-120404107D02*
X156135712Y-120461250D01*
X156192855Y-120518393D01*
X156249998Y-120461250D01*
X156192855Y-120404107D01*
X156192855Y-120518393D01*
X156992856Y-120404107D02*
X157107141Y-120404107D01*
X157221427Y-120461250D01*
X157278570Y-120518393D01*
X157335713Y-120632679D01*
X157392856Y-120861250D01*
X157392856Y-121146964D01*
X157335713Y-121375536D01*
X157278570Y-121489821D01*
X157221427Y-121546964D01*
X157107141Y-121604107D01*
X156992856Y-121604107D01*
X156878570Y-121546964D01*
X156821427Y-121489821D01*
X156764284Y-121375536D01*
X156707141Y-121146964D01*
X156707141Y-120861250D01*
X156764284Y-120632679D01*
X156821427Y-120518393D01*
X156878570Y-120461250D01*
X156992856Y-120404107D01*
X157792856Y-120404107D02*
X158535713Y-120404107D01*
X158135713Y-120861250D01*
X158307141Y-120861250D01*
X158421427Y-120918393D01*
X158478570Y-120975536D01*
X158535713Y-121089821D01*
X158535713Y-121375536D01*
X158478570Y-121489821D01*
X158421427Y-121546964D01*
X158307141Y-121604107D01*
X157964284Y-121604107D01*
X157849998Y-121546964D01*
X157792856Y-121489821D01*
X159107141Y-121546964D02*
X159107141Y-121604107D01*
X159049998Y-121718393D01*
X158992855Y-121775536D01*
X161221428Y-121604107D02*
X160821428Y-121032679D01*
X160535713Y-121604107D02*
X160535713Y-120404107D01*
X160992856Y-120404107D01*
X161107142Y-120461250D01*
X161164285Y-120518393D01*
X161221428Y-120632679D01*
X161221428Y-120804107D01*
X161164285Y-120918393D01*
X161107142Y-120975536D01*
X160992856Y-121032679D01*
X160535713Y-121032679D01*
X162192856Y-121546964D02*
X162078570Y-121604107D01*
X161849999Y-121604107D01*
X161735713Y-121546964D01*
X161678570Y-121432679D01*
X161678570Y-120975536D01*
X161735713Y-120861250D01*
X161849999Y-120804107D01*
X162078570Y-120804107D01*
X162192856Y-120861250D01*
X162249999Y-120975536D01*
X162249999Y-121089821D01*
X161678570Y-121204107D01*
X162649999Y-120804107D02*
X162935713Y-121604107D01*
X163221427Y-120804107D01*
X163678570Y-121604107D02*
X163678570Y-120804107D01*
X163678570Y-120404107D02*
X163621427Y-120461250D01*
X163678570Y-120518393D01*
X163735713Y-120461250D01*
X163678570Y-120404107D01*
X163678570Y-120518393D01*
X164192856Y-121546964D02*
X164307142Y-121604107D01*
X164535714Y-121604107D01*
X164649999Y-121546964D01*
X164707142Y-121432679D01*
X164707142Y-121375536D01*
X164649999Y-121261250D01*
X164535714Y-121204107D01*
X164364285Y-121204107D01*
X164249999Y-121146964D01*
X164192856Y-121032679D01*
X164192856Y-120975536D01*
X164249999Y-120861250D01*
X164364285Y-120804107D01*
X164535714Y-120804107D01*
X164649999Y-120861250D01*
X165221428Y-121604107D02*
X165221428Y-120804107D01*
X165221428Y-120404107D02*
X165164285Y-120461250D01*
X165221428Y-120518393D01*
X165278571Y-120461250D01*
X165221428Y-120404107D01*
X165221428Y-120518393D01*
X165964286Y-121604107D02*
X165850000Y-121546964D01*
X165792857Y-121489821D01*
X165735714Y-121375536D01*
X165735714Y-121032679D01*
X165792857Y-120918393D01*
X165850000Y-120861250D01*
X165964286Y-120804107D01*
X166135714Y-120804107D01*
X166250000Y-120861250D01*
X166307143Y-120918393D01*
X166364286Y-121032679D01*
X166364286Y-121375536D01*
X166307143Y-121489821D01*
X166250000Y-121546964D01*
X166135714Y-121604107D01*
X165964286Y-121604107D01*
X166878571Y-120804107D02*
X166878571Y-121604107D01*
X166878571Y-120918393D02*
X166935714Y-120861250D01*
X167050000Y-120804107D01*
X167221428Y-120804107D01*
X167335714Y-120861250D01*
X167392857Y-120975536D01*
X167392857Y-121604107D01*
X168821428Y-120518393D02*
X168878571Y-120461250D01*
X168992857Y-120404107D01*
X169278571Y-120404107D01*
X169392857Y-120461250D01*
X169450000Y-120518393D01*
X169507143Y-120632679D01*
X169507143Y-120746964D01*
X169450000Y-120918393D01*
X168764286Y-121604107D01*
X169507143Y-121604107D01*
X170021428Y-121489821D02*
X170078571Y-121546964D01*
X170021428Y-121604107D01*
X169964285Y-121546964D01*
X170021428Y-121489821D01*
X170021428Y-121604107D01*
X171221429Y-121604107D02*
X170535714Y-121604107D01*
X170878572Y-121604107D02*
X170878572Y-120404107D01*
X170764286Y-120575536D01*
X170650000Y-120689821D01*
X170535714Y-120746964D01*
X145278573Y-122374107D02*
X145050002Y-122374107D01*
X144935716Y-122431250D01*
X144878573Y-122488393D01*
X144764287Y-122659821D01*
X144707144Y-122888393D01*
X144707144Y-123345536D01*
X144764287Y-123459821D01*
X144821430Y-123516964D01*
X144935716Y-123574107D01*
X145164287Y-123574107D01*
X145278573Y-123516964D01*
X145335716Y-123459821D01*
X145392859Y-123345536D01*
X145392859Y-123059821D01*
X145335716Y-122945536D01*
X145278573Y-122888393D01*
X145164287Y-122831250D01*
X144935716Y-122831250D01*
X144821430Y-122888393D01*
X144764287Y-122945536D01*
X144707144Y-123059821D01*
X146135716Y-122374107D02*
X146250001Y-122374107D01*
X146364287Y-122431250D01*
X146421430Y-122488393D01*
X146478573Y-122602679D01*
X146535716Y-122831250D01*
X146535716Y-123116964D01*
X146478573Y-123345536D01*
X146421430Y-123459821D01*
X146364287Y-123516964D01*
X146250001Y-123574107D01*
X146135716Y-123574107D01*
X146021430Y-123516964D01*
X145964287Y-123459821D01*
X145907144Y-123345536D01*
X145850001Y-123116964D01*
X145850001Y-122831250D01*
X145907144Y-122602679D01*
X145964287Y-122488393D01*
X146021430Y-122431250D01*
X146135716Y-122374107D01*
X146992858Y-123574107D02*
X147907144Y-122374107D01*
X147164287Y-122374107D02*
X147278573Y-122431250D01*
X147335716Y-122545536D01*
X147278573Y-122659821D01*
X147164287Y-122716964D01*
X147050001Y-122659821D01*
X146992858Y-122545536D01*
X147050001Y-122431250D01*
X147164287Y-122374107D01*
X147850001Y-123516964D02*
X147907144Y-123402679D01*
X147850001Y-123288393D01*
X147735716Y-123231250D01*
X147621430Y-123288393D01*
X147564287Y-123402679D01*
X147621430Y-123516964D01*
X147735716Y-123574107D01*
X147850001Y-123516964D01*
X149335716Y-123574107D02*
X149335716Y-122374107D01*
X149792859Y-122374107D01*
X149907145Y-122431250D01*
X149964288Y-122488393D01*
X150021431Y-122602679D01*
X150021431Y-122774107D01*
X149964288Y-122888393D01*
X149907145Y-122945536D01*
X149792859Y-123002679D01*
X149335716Y-123002679D01*
X151221431Y-123459821D02*
X151164288Y-123516964D01*
X150992859Y-123574107D01*
X150878573Y-123574107D01*
X150707145Y-123516964D01*
X150592859Y-123402679D01*
X150535716Y-123288393D01*
X150478573Y-123059821D01*
X150478573Y-122888393D01*
X150535716Y-122659821D01*
X150592859Y-122545536D01*
X150707145Y-122431250D01*
X150878573Y-122374107D01*
X150992859Y-122374107D01*
X151164288Y-122431250D01*
X151221431Y-122488393D01*
X152135716Y-122945536D02*
X152307145Y-123002679D01*
X152364288Y-123059821D01*
X152421431Y-123174107D01*
X152421431Y-123345536D01*
X152364288Y-123459821D01*
X152307145Y-123516964D01*
X152192859Y-123574107D01*
X151735716Y-123574107D01*
X151735716Y-122374107D01*
X152135716Y-122374107D01*
X152250002Y-122431250D01*
X152307145Y-122488393D01*
X152364288Y-122602679D01*
X152364288Y-122716964D01*
X152307145Y-122831250D01*
X152250002Y-122888393D01*
X152135716Y-122945536D01*
X151735716Y-122945536D01*
X153678574Y-122774107D02*
X154135717Y-122774107D01*
X153850002Y-123574107D02*
X153850002Y-122545536D01*
X153907145Y-122431250D01*
X154021431Y-122374107D01*
X154135717Y-122374107D01*
X154707145Y-123574107D02*
X154592859Y-123516964D01*
X154535716Y-123459821D01*
X154478573Y-123345536D01*
X154478573Y-123002679D01*
X154535716Y-122888393D01*
X154592859Y-122831250D01*
X154707145Y-122774107D01*
X154878573Y-122774107D01*
X154992859Y-122831250D01*
X155050002Y-122888393D01*
X155107145Y-123002679D01*
X155107145Y-123345536D01*
X155050002Y-123459821D01*
X154992859Y-123516964D01*
X154878573Y-123574107D01*
X154707145Y-123574107D01*
X155792859Y-123574107D02*
X155678573Y-123516964D01*
X155621430Y-123459821D01*
X155564287Y-123345536D01*
X155564287Y-123002679D01*
X155621430Y-122888393D01*
X155678573Y-122831250D01*
X155792859Y-122774107D01*
X155964287Y-122774107D01*
X156078573Y-122831250D01*
X156135716Y-122888393D01*
X156192859Y-123002679D01*
X156192859Y-123345536D01*
X156135716Y-123459821D01*
X156078573Y-123516964D01*
X155964287Y-123574107D01*
X155792859Y-123574107D01*
X156535716Y-122774107D02*
X156992859Y-122774107D01*
X156707144Y-122374107D02*
X156707144Y-123402679D01*
X156764287Y-123516964D01*
X156878573Y-123574107D01*
X156992859Y-123574107D01*
X157392858Y-122774107D02*
X157392858Y-123974107D01*
X157392858Y-122831250D02*
X157507144Y-122774107D01*
X157735715Y-122774107D01*
X157850001Y-122831250D01*
X157907144Y-122888393D01*
X157964287Y-123002679D01*
X157964287Y-123345536D01*
X157907144Y-123459821D01*
X157850001Y-123516964D01*
X157735715Y-123574107D01*
X157507144Y-123574107D01*
X157392858Y-123516964D01*
X158478572Y-123574107D02*
X158478572Y-122774107D01*
X158478572Y-123002679D02*
X158535715Y-122888393D01*
X158592858Y-122831250D01*
X158707144Y-122774107D01*
X158821429Y-122774107D01*
X159221429Y-123574107D02*
X159221429Y-122774107D01*
X159221429Y-122374107D02*
X159164286Y-122431250D01*
X159221429Y-122488393D01*
X159278572Y-122431250D01*
X159221429Y-122374107D01*
X159221429Y-122488393D01*
X159792858Y-122774107D02*
X159792858Y-123574107D01*
X159792858Y-122888393D02*
X159850001Y-122831250D01*
X159964287Y-122774107D01*
X160135715Y-122774107D01*
X160250001Y-122831250D01*
X160307144Y-122945536D01*
X160307144Y-123574107D01*
X160707144Y-122774107D02*
X161164287Y-122774107D01*
X160878572Y-122374107D02*
X160878572Y-123402679D01*
X160935715Y-123516964D01*
X161050001Y-123574107D01*
X161164287Y-123574107D01*
X162478572Y-123574107D02*
X162478572Y-122374107D01*
X162478572Y-122831250D02*
X162592858Y-122774107D01*
X162821429Y-122774107D01*
X162935715Y-122831250D01*
X162992858Y-122888393D01*
X163050001Y-123002679D01*
X163050001Y-123345536D01*
X162992858Y-123459821D01*
X162935715Y-123516964D01*
X162821429Y-123574107D01*
X162592858Y-123574107D01*
X162478572Y-123516964D01*
X163450001Y-122774107D02*
X163735715Y-123574107D01*
X164021429Y-122774107D02*
X163735715Y-123574107D01*
X163621429Y-123859821D01*
X163564286Y-123916964D01*
X163450001Y-123974107D01*
X165907144Y-123574107D02*
X165907144Y-122945536D01*
X165850001Y-122831250D01*
X165735715Y-122774107D01*
X165507144Y-122774107D01*
X165392858Y-122831250D01*
X165907144Y-123516964D02*
X165792858Y-123574107D01*
X165507144Y-123574107D01*
X165392858Y-123516964D01*
X165335715Y-123402679D01*
X165335715Y-123288393D01*
X165392858Y-123174107D01*
X165507144Y-123116964D01*
X165792858Y-123116964D01*
X165907144Y-123059821D01*
X166478572Y-123574107D02*
X166478572Y-122774107D01*
X166478572Y-122888393D02*
X166535715Y-122831250D01*
X166650001Y-122774107D01*
X166821429Y-122774107D01*
X166935715Y-122831250D01*
X166992858Y-122945536D01*
X166992858Y-123574107D01*
X166992858Y-122945536D02*
X167050001Y-122831250D01*
X167164287Y-122774107D01*
X167335715Y-122774107D01*
X167450001Y-122831250D01*
X167507144Y-122945536D01*
X167507144Y-123574107D01*
X167907144Y-122774107D02*
X168364287Y-122774107D01*
X168078572Y-122374107D02*
X168078572Y-123402679D01*
X168135715Y-123516964D01*
X168250001Y-123574107D01*
X168364287Y-123574107D01*
X168764286Y-123574107D02*
X168764286Y-122774107D01*
X168764286Y-123002679D02*
X168821429Y-122888393D01*
X168878572Y-122831250D01*
X168992858Y-122774107D01*
X169107143Y-122774107D01*
X170021429Y-123574107D02*
X170021429Y-122945536D01*
X169964286Y-122831250D01*
X169850000Y-122774107D01*
X169621429Y-122774107D01*
X169507143Y-122831250D01*
X170021429Y-123516964D02*
X169907143Y-123574107D01*
X169621429Y-123574107D01*
X169507143Y-123516964D01*
X169450000Y-123402679D01*
X169450000Y-123288393D01*
X169507143Y-123174107D01*
X169621429Y-123116964D01*
X169907143Y-123116964D01*
X170021429Y-123059821D01*
X171164286Y-122374107D02*
X170592857Y-122374107D01*
X170535714Y-122945536D01*
X170592857Y-122888393D01*
X170707143Y-122831250D01*
X170992857Y-122831250D01*
X171107143Y-122888393D01*
X171164286Y-122945536D01*
X171221429Y-123059821D01*
X171221429Y-123345536D01*
X171164286Y-123459821D01*
X171107143Y-123516964D01*
X170992857Y-123574107D01*
X170707143Y-123574107D01*
X170592857Y-123516964D01*
X170535714Y-123459821D01*
X135792859Y-125544107D02*
X135792859Y-124344107D01*
X136078574Y-124344107D01*
X136250002Y-124401250D01*
X136364288Y-124515536D01*
X136421431Y-124629821D01*
X136478574Y-124858393D01*
X136478574Y-125029821D01*
X136421431Y-125258393D01*
X136364288Y-125372679D01*
X136250002Y-125486964D01*
X136078574Y-125544107D01*
X135792859Y-125544107D01*
X137450002Y-125486964D02*
X137335716Y-125544107D01*
X137107145Y-125544107D01*
X136992859Y-125486964D01*
X136935716Y-125372679D01*
X136935716Y-124915536D01*
X136992859Y-124801250D01*
X137107145Y-124744107D01*
X137335716Y-124744107D01*
X137450002Y-124801250D01*
X137507145Y-124915536D01*
X137507145Y-125029821D01*
X136935716Y-125144107D01*
X137964287Y-125486964D02*
X138078573Y-125544107D01*
X138307145Y-125544107D01*
X138421430Y-125486964D01*
X138478573Y-125372679D01*
X138478573Y-125315536D01*
X138421430Y-125201250D01*
X138307145Y-125144107D01*
X138135716Y-125144107D01*
X138021430Y-125086964D01*
X137964287Y-124972679D01*
X137964287Y-124915536D01*
X138021430Y-124801250D01*
X138135716Y-124744107D01*
X138307145Y-124744107D01*
X138421430Y-124801250D01*
X138992859Y-125544107D02*
X138992859Y-124744107D01*
X138992859Y-124344107D02*
X138935716Y-124401250D01*
X138992859Y-124458393D01*
X139050002Y-124401250D01*
X138992859Y-124344107D01*
X138992859Y-124458393D01*
X140078574Y-124744107D02*
X140078574Y-125715536D01*
X140021431Y-125829821D01*
X139964288Y-125886964D01*
X139850003Y-125944107D01*
X139678574Y-125944107D01*
X139564288Y-125886964D01*
X140078574Y-125486964D02*
X139964288Y-125544107D01*
X139735717Y-125544107D01*
X139621431Y-125486964D01*
X139564288Y-125429821D01*
X139507145Y-125315536D01*
X139507145Y-124972679D01*
X139564288Y-124858393D01*
X139621431Y-124801250D01*
X139735717Y-124744107D01*
X139964288Y-124744107D01*
X140078574Y-124801250D01*
X140650002Y-124744107D02*
X140650002Y-125544107D01*
X140650002Y-124858393D02*
X140707145Y-124801250D01*
X140821431Y-124744107D01*
X140992859Y-124744107D01*
X141107145Y-124801250D01*
X141164288Y-124915536D01*
X141164288Y-125544107D01*
X143164288Y-124744107D02*
X143164288Y-125715536D01*
X143107145Y-125829821D01*
X143050002Y-125886964D01*
X142935717Y-125944107D01*
X142764288Y-125944107D01*
X142650002Y-125886964D01*
X143164288Y-125486964D02*
X143050002Y-125544107D01*
X142821431Y-125544107D01*
X142707145Y-125486964D01*
X142650002Y-125429821D01*
X142592859Y-125315536D01*
X142592859Y-124972679D01*
X142650002Y-124858393D01*
X142707145Y-124801250D01*
X142821431Y-124744107D01*
X143050002Y-124744107D01*
X143164288Y-124801250D01*
X144250002Y-124744107D02*
X144250002Y-125544107D01*
X143735716Y-124744107D02*
X143735716Y-125372679D01*
X143792859Y-125486964D01*
X143907145Y-125544107D01*
X144078573Y-125544107D01*
X144192859Y-125486964D01*
X144250002Y-125429821D01*
X144821430Y-125544107D02*
X144821430Y-124744107D01*
X144821430Y-124344107D02*
X144764287Y-124401250D01*
X144821430Y-124458393D01*
X144878573Y-124401250D01*
X144821430Y-124344107D01*
X144821430Y-124458393D01*
X145907145Y-125544107D02*
X145907145Y-124344107D01*
X145907145Y-125486964D02*
X145792859Y-125544107D01*
X145564288Y-125544107D01*
X145450002Y-125486964D01*
X145392859Y-125429821D01*
X145335716Y-125315536D01*
X145335716Y-124972679D01*
X145392859Y-124858393D01*
X145450002Y-124801250D01*
X145564288Y-124744107D01*
X145792859Y-124744107D01*
X145907145Y-124801250D01*
X146992859Y-125544107D02*
X146992859Y-124915536D01*
X146935716Y-124801250D01*
X146821430Y-124744107D01*
X146592859Y-124744107D01*
X146478573Y-124801250D01*
X146992859Y-125486964D02*
X146878573Y-125544107D01*
X146592859Y-125544107D01*
X146478573Y-125486964D01*
X146421430Y-125372679D01*
X146421430Y-125258393D01*
X146478573Y-125144107D01*
X146592859Y-125086964D01*
X146878573Y-125086964D01*
X146992859Y-125029821D01*
X147564287Y-124744107D02*
X147564287Y-125544107D01*
X147564287Y-124858393D02*
X147621430Y-124801250D01*
X147735716Y-124744107D01*
X147907144Y-124744107D01*
X148021430Y-124801250D01*
X148078573Y-124915536D01*
X148078573Y-125544107D01*
X149164287Y-125486964D02*
X149050001Y-125544107D01*
X148821430Y-125544107D01*
X148707144Y-125486964D01*
X148650001Y-125429821D01*
X148592858Y-125315536D01*
X148592858Y-124972679D01*
X148650001Y-124858393D01*
X148707144Y-124801250D01*
X148821430Y-124744107D01*
X149050001Y-124744107D01*
X149164287Y-124801250D01*
X150135715Y-125486964D02*
X150021429Y-125544107D01*
X149792858Y-125544107D01*
X149678572Y-125486964D01*
X149621429Y-125372679D01*
X149621429Y-124915536D01*
X149678572Y-124801250D01*
X149792858Y-124744107D01*
X150021429Y-124744107D01*
X150135715Y-124801250D01*
X150192858Y-124915536D01*
X150192858Y-125029821D01*
X149621429Y-125144107D01*
X151621429Y-125544107D02*
X151621429Y-124344107D01*
X151621429Y-124801250D02*
X151735715Y-124744107D01*
X151964286Y-124744107D01*
X152078572Y-124801250D01*
X152135715Y-124858393D01*
X152192858Y-124972679D01*
X152192858Y-125315536D01*
X152135715Y-125429821D01*
X152078572Y-125486964D01*
X151964286Y-125544107D01*
X151735715Y-125544107D01*
X151621429Y-125486964D01*
X152592858Y-124744107D02*
X152878572Y-125544107D01*
X153164286Y-124744107D02*
X152878572Y-125544107D01*
X152764286Y-125829821D01*
X152707143Y-125886964D01*
X152592858Y-125944107D01*
X154250001Y-125658393D02*
X155164287Y-125658393D01*
X155392858Y-125486964D02*
X155507144Y-125544107D01*
X155735716Y-125544107D01*
X155850001Y-125486964D01*
X155907144Y-125372679D01*
X155907144Y-125315536D01*
X155850001Y-125201250D01*
X155735716Y-125144107D01*
X155564287Y-125144107D01*
X155450001Y-125086964D01*
X155392858Y-124972679D01*
X155392858Y-124915536D01*
X155450001Y-124801250D01*
X155564287Y-124744107D01*
X155735716Y-124744107D01*
X155850001Y-124801250D01*
X156421430Y-124744107D02*
X156421430Y-125944107D01*
X156421430Y-124801250D02*
X156535716Y-124744107D01*
X156764287Y-124744107D01*
X156878573Y-124801250D01*
X156935716Y-124858393D01*
X156992859Y-124972679D01*
X156992859Y-125315536D01*
X156935716Y-125429821D01*
X156878573Y-125486964D01*
X156764287Y-125544107D01*
X156535716Y-125544107D01*
X156421430Y-125486964D01*
X157507144Y-125544107D02*
X157507144Y-124744107D01*
X157507144Y-124344107D02*
X157450001Y-124401250D01*
X157507144Y-124458393D01*
X157564287Y-124401250D01*
X157507144Y-124344107D01*
X157507144Y-124458393D01*
X158078573Y-124744107D02*
X158078573Y-125544107D01*
X158078573Y-124858393D02*
X158135716Y-124801250D01*
X158250002Y-124744107D01*
X158421430Y-124744107D01*
X158535716Y-124801250D01*
X158592859Y-124915536D01*
X158592859Y-125544107D01*
X159678573Y-125544107D02*
X159678573Y-124344107D01*
X159678573Y-125486964D02*
X159564287Y-125544107D01*
X159335716Y-125544107D01*
X159221430Y-125486964D01*
X159164287Y-125429821D01*
X159107144Y-125315536D01*
X159107144Y-124972679D01*
X159164287Y-124858393D01*
X159221430Y-124801250D01*
X159335716Y-124744107D01*
X159564287Y-124744107D01*
X159678573Y-124801250D01*
X160421430Y-125544107D02*
X160307144Y-125486964D01*
X160250001Y-125372679D01*
X160250001Y-124344107D01*
X161335715Y-125486964D02*
X161221429Y-125544107D01*
X160992858Y-125544107D01*
X160878572Y-125486964D01*
X160821429Y-125372679D01*
X160821429Y-124915536D01*
X160878572Y-124801250D01*
X160992858Y-124744107D01*
X161221429Y-124744107D01*
X161335715Y-124801250D01*
X161392858Y-124915536D01*
X161392858Y-125029821D01*
X160821429Y-125144107D01*
X163335715Y-125544107D02*
X163335715Y-124915536D01*
X163278572Y-124801250D01*
X163164286Y-124744107D01*
X162935715Y-124744107D01*
X162821429Y-124801250D01*
X163335715Y-125486964D02*
X163221429Y-125544107D01*
X162935715Y-125544107D01*
X162821429Y-125486964D01*
X162764286Y-125372679D01*
X162764286Y-125258393D01*
X162821429Y-125144107D01*
X162935715Y-125086964D01*
X163221429Y-125086964D01*
X163335715Y-125029821D01*
X163907143Y-124744107D02*
X163907143Y-125544107D01*
X163907143Y-124858393D02*
X163964286Y-124801250D01*
X164078572Y-124744107D01*
X164250000Y-124744107D01*
X164364286Y-124801250D01*
X164421429Y-124915536D01*
X164421429Y-125544107D01*
X165507143Y-125544107D02*
X165507143Y-124344107D01*
X165507143Y-125486964D02*
X165392857Y-125544107D01*
X165164286Y-125544107D01*
X165050000Y-125486964D01*
X164992857Y-125429821D01*
X164935714Y-125315536D01*
X164935714Y-124972679D01*
X164992857Y-124858393D01*
X165050000Y-124801250D01*
X165164286Y-124744107D01*
X165392857Y-124744107D01*
X165507143Y-124801250D01*
X166878572Y-124344107D02*
X167164286Y-125544107D01*
X167392857Y-124686964D01*
X167621429Y-125544107D01*
X167907143Y-124344107D01*
X168364286Y-125544107D02*
X168364286Y-124744107D01*
X168364286Y-124344107D02*
X168307143Y-124401250D01*
X168364286Y-124458393D01*
X168421429Y-124401250D01*
X168364286Y-124344107D01*
X168364286Y-124458393D01*
X169107144Y-125544107D02*
X168992858Y-125486964D01*
X168935715Y-125372679D01*
X168935715Y-124344107D01*
X169564286Y-125544107D02*
X169564286Y-124344107D01*
X169564286Y-124801250D02*
X169678572Y-124744107D01*
X169907143Y-124744107D01*
X170021429Y-124801250D01*
X170078572Y-124858393D01*
X170135715Y-124972679D01*
X170135715Y-125315536D01*
X170078572Y-125429821D01*
X170021429Y-125486964D01*
X169907143Y-125544107D01*
X169678572Y-125544107D01*
X169564286Y-125486964D01*
X171164286Y-125544107D02*
X171164286Y-124915536D01*
X171107143Y-124801250D01*
X170992857Y-124744107D01*
X170764286Y-124744107D01*
X170650000Y-124801250D01*
X171164286Y-125486964D02*
X171050000Y-125544107D01*
X170764286Y-125544107D01*
X170650000Y-125486964D01*
X170592857Y-125372679D01*
X170592857Y-125258393D01*
X170650000Y-125144107D01*
X170764286Y-125086964D01*
X171050000Y-125086964D01*
X171164286Y-125029821D01*
M02*
