%TF.GenerationSoftware,KiCad,Pcbnew,4.0.7*%
%TF.CreationDate,2018-04-12T14:05:27-07:00*%
%TF.ProjectId,Voyager65,566F796167657236352E6B696361645F,rev?*%
%TF.FileFunction,Legend,Top*%
%FSLAX46Y46*%
G04 Gerber Fmt 4.6, Leading zero omitted, Abs format (unit mm)*
G04 Created by KiCad (PCBNEW 4.0.7) date 04/12/18 14:05:27*
%MOMM*%
%LPD*%
G01*
G04 APERTURE LIST*
%ADD10C,0.100000*%
%ADD11C,0.500000*%
%ADD12C,0.907143*%
%ADD13C,0.170000*%
G04 APERTURE END LIST*
D10*
D11*
X180911607Y-100750893D02*
X180340178Y-100750893D01*
X180054464Y-100893750D01*
X179911607Y-101036607D01*
X179625893Y-101465179D01*
X179483036Y-102036607D01*
X179483036Y-103179464D01*
X179625893Y-103465179D01*
X179768750Y-103608036D01*
X180054464Y-103750893D01*
X180625893Y-103750893D01*
X180911607Y-103608036D01*
X181054464Y-103465179D01*
X181197321Y-103179464D01*
X181197321Y-102465179D01*
X181054464Y-102179464D01*
X180911607Y-102036607D01*
X180625893Y-101893750D01*
X180054464Y-101893750D01*
X179768750Y-102036607D01*
X179625893Y-102179464D01*
X179483036Y-102465179D01*
X183911607Y-100750893D02*
X182483036Y-100750893D01*
X182340179Y-102179464D01*
X182483036Y-102036607D01*
X182768750Y-101893750D01*
X183483036Y-101893750D01*
X183768750Y-102036607D01*
X183911607Y-102179464D01*
X184054464Y-102465179D01*
X184054464Y-103179464D01*
X183911607Y-103465179D01*
X183768750Y-103608036D01*
X183483036Y-103750893D01*
X182768750Y-103750893D01*
X182483036Y-103608036D01*
X182340179Y-103465179D01*
D12*
X95514584Y-101032312D02*
X99747917Y-110103741D01*
X103981250Y-101032312D01*
X110633631Y-101032312D02*
X113052679Y-101032312D01*
X114262203Y-101464285D01*
X115471726Y-102328231D01*
X116076488Y-104056122D01*
X116076488Y-107079932D01*
X115471726Y-108807823D01*
X114262203Y-109671768D01*
X113052679Y-110103741D01*
X110633631Y-110103741D01*
X109424107Y-109671768D01*
X108214584Y-108807823D01*
X107609822Y-107079932D01*
X107609822Y-104056122D01*
X108214584Y-102328231D01*
X109424107Y-101464285D01*
X110633631Y-101032312D01*
X123938393Y-105784013D02*
X123938393Y-110103741D01*
X119705060Y-101032312D02*
X123938393Y-105784013D01*
X128171726Y-101032312D01*
X131800298Y-107511904D02*
X137847917Y-107511904D01*
X130590774Y-110103741D02*
X134824107Y-101032312D01*
X139057440Y-110103741D01*
X149943154Y-101464285D02*
X148733631Y-101032312D01*
X146919345Y-101032312D01*
X145105059Y-101464285D01*
X143895535Y-102328231D01*
X143290774Y-103192176D01*
X142686012Y-104920067D01*
X142686012Y-106215986D01*
X143290774Y-107943877D01*
X143895535Y-108807823D01*
X145105059Y-109671768D01*
X146919345Y-110103741D01*
X148128869Y-110103741D01*
X149943154Y-109671768D01*
X150547916Y-109239796D01*
X150547916Y-106215986D01*
X148128869Y-106215986D01*
X155990774Y-105352040D02*
X160224107Y-105352040D01*
X162038393Y-110103741D02*
X155990774Y-110103741D01*
X155990774Y-101032312D01*
X162038393Y-101032312D01*
X174738392Y-110103741D02*
X170505059Y-105784013D01*
X167481250Y-110103741D02*
X167481250Y-101032312D01*
X172319345Y-101032312D01*
X173528869Y-101464285D01*
X174133630Y-101896258D01*
X174738392Y-102760203D01*
X174738392Y-104056122D01*
X174133630Y-104920067D01*
X173528869Y-105352040D01*
X172319345Y-105784013D01*
X167481250Y-105784013D01*
D13*
X195548214Y-105126607D02*
X195548214Y-103926607D01*
X196005357Y-103926607D01*
X196119643Y-103983750D01*
X196176786Y-104040893D01*
X196233929Y-104155179D01*
X196233929Y-104326607D01*
X196176786Y-104440893D01*
X196119643Y-104498036D01*
X196005357Y-104555179D01*
X195548214Y-104555179D01*
X197433929Y-105012321D02*
X197376786Y-105069464D01*
X197205357Y-105126607D01*
X197091071Y-105126607D01*
X196919643Y-105069464D01*
X196805357Y-104955179D01*
X196748214Y-104840893D01*
X196691071Y-104612321D01*
X196691071Y-104440893D01*
X196748214Y-104212321D01*
X196805357Y-104098036D01*
X196919643Y-103983750D01*
X197091071Y-103926607D01*
X197205357Y-103926607D01*
X197376786Y-103983750D01*
X197433929Y-104040893D01*
X198348214Y-104498036D02*
X198519643Y-104555179D01*
X198576786Y-104612321D01*
X198633929Y-104726607D01*
X198633929Y-104898036D01*
X198576786Y-105012321D01*
X198519643Y-105069464D01*
X198405357Y-105126607D01*
X197948214Y-105126607D01*
X197948214Y-103926607D01*
X198348214Y-103926607D01*
X198462500Y-103983750D01*
X198519643Y-104040893D01*
X198576786Y-104155179D01*
X198576786Y-104269464D01*
X198519643Y-104383750D01*
X198462500Y-104440893D01*
X198348214Y-104498036D01*
X197948214Y-104498036D01*
X200062500Y-105126607D02*
X200062500Y-103926607D01*
X200062500Y-104383750D02*
X200176786Y-104326607D01*
X200405357Y-104326607D01*
X200519643Y-104383750D01*
X200576786Y-104440893D01*
X200633929Y-104555179D01*
X200633929Y-104898036D01*
X200576786Y-105012321D01*
X200519643Y-105069464D01*
X200405357Y-105126607D01*
X200176786Y-105126607D01*
X200062500Y-105069464D01*
X201033929Y-104326607D02*
X201319643Y-105126607D01*
X201605357Y-104326607D02*
X201319643Y-105126607D01*
X201205357Y-105412321D01*
X201148214Y-105469464D01*
X201033929Y-105526607D01*
X203491072Y-105126607D02*
X203491072Y-104498036D01*
X203433929Y-104383750D01*
X203319643Y-104326607D01*
X203091072Y-104326607D01*
X202976786Y-104383750D01*
X203491072Y-105069464D02*
X203376786Y-105126607D01*
X203091072Y-105126607D01*
X202976786Y-105069464D01*
X202919643Y-104955179D01*
X202919643Y-104840893D01*
X202976786Y-104726607D01*
X203091072Y-104669464D01*
X203376786Y-104669464D01*
X203491072Y-104612321D01*
X204062500Y-105126607D02*
X204062500Y-104326607D01*
X204062500Y-103926607D02*
X204005357Y-103983750D01*
X204062500Y-104040893D01*
X204119643Y-103983750D01*
X204062500Y-103926607D01*
X204062500Y-104040893D01*
X204862501Y-103926607D02*
X204976786Y-103926607D01*
X205091072Y-103983750D01*
X205148215Y-104040893D01*
X205205358Y-104155179D01*
X205262501Y-104383750D01*
X205262501Y-104669464D01*
X205205358Y-104898036D01*
X205148215Y-105012321D01*
X205091072Y-105069464D01*
X204976786Y-105126607D01*
X204862501Y-105126607D01*
X204748215Y-105069464D01*
X204691072Y-105012321D01*
X204633929Y-104898036D01*
X204576786Y-104669464D01*
X204576786Y-104383750D01*
X204633929Y-104155179D01*
X204691072Y-104040893D01*
X204748215Y-103983750D01*
X204862501Y-103926607D01*
X205662501Y-103926607D02*
X206405358Y-103926607D01*
X206005358Y-104383750D01*
X206176786Y-104383750D01*
X206291072Y-104440893D01*
X206348215Y-104498036D01*
X206405358Y-104612321D01*
X206405358Y-104898036D01*
X206348215Y-105012321D01*
X206291072Y-105069464D01*
X206176786Y-105126607D01*
X205833929Y-105126607D01*
X205719643Y-105069464D01*
X205662501Y-105012321D01*
X206976786Y-105069464D02*
X206976786Y-105126607D01*
X206919643Y-105240893D01*
X206862500Y-105298036D01*
X209091073Y-105126607D02*
X208691073Y-104555179D01*
X208405358Y-105126607D02*
X208405358Y-103926607D01*
X208862501Y-103926607D01*
X208976787Y-103983750D01*
X209033930Y-104040893D01*
X209091073Y-104155179D01*
X209091073Y-104326607D01*
X209033930Y-104440893D01*
X208976787Y-104498036D01*
X208862501Y-104555179D01*
X208405358Y-104555179D01*
X210062501Y-105069464D02*
X209948215Y-105126607D01*
X209719644Y-105126607D01*
X209605358Y-105069464D01*
X209548215Y-104955179D01*
X209548215Y-104498036D01*
X209605358Y-104383750D01*
X209719644Y-104326607D01*
X209948215Y-104326607D01*
X210062501Y-104383750D01*
X210119644Y-104498036D01*
X210119644Y-104612321D01*
X209548215Y-104726607D01*
X210519644Y-104326607D02*
X210805358Y-105126607D01*
X211091072Y-104326607D01*
X211548215Y-105126607D02*
X211548215Y-104326607D01*
X211548215Y-103926607D02*
X211491072Y-103983750D01*
X211548215Y-104040893D01*
X211605358Y-103983750D01*
X211548215Y-103926607D01*
X211548215Y-104040893D01*
X212062501Y-105069464D02*
X212176787Y-105126607D01*
X212405359Y-105126607D01*
X212519644Y-105069464D01*
X212576787Y-104955179D01*
X212576787Y-104898036D01*
X212519644Y-104783750D01*
X212405359Y-104726607D01*
X212233930Y-104726607D01*
X212119644Y-104669464D01*
X212062501Y-104555179D01*
X212062501Y-104498036D01*
X212119644Y-104383750D01*
X212233930Y-104326607D01*
X212405359Y-104326607D01*
X212519644Y-104383750D01*
X213091073Y-105126607D02*
X213091073Y-104326607D01*
X213091073Y-103926607D02*
X213033930Y-103983750D01*
X213091073Y-104040893D01*
X213148216Y-103983750D01*
X213091073Y-103926607D01*
X213091073Y-104040893D01*
X213833931Y-105126607D02*
X213719645Y-105069464D01*
X213662502Y-105012321D01*
X213605359Y-104898036D01*
X213605359Y-104555179D01*
X213662502Y-104440893D01*
X213719645Y-104383750D01*
X213833931Y-104326607D01*
X214005359Y-104326607D01*
X214119645Y-104383750D01*
X214176788Y-104440893D01*
X214233931Y-104555179D01*
X214233931Y-104898036D01*
X214176788Y-105012321D01*
X214119645Y-105069464D01*
X214005359Y-105126607D01*
X213833931Y-105126607D01*
X214748216Y-104326607D02*
X214748216Y-105126607D01*
X214748216Y-104440893D02*
X214805359Y-104383750D01*
X214919645Y-104326607D01*
X215091073Y-104326607D01*
X215205359Y-104383750D01*
X215262502Y-104498036D01*
X215262502Y-105126607D01*
X216633931Y-103926607D02*
X217376788Y-103926607D01*
X216976788Y-104383750D01*
X217148216Y-104383750D01*
X217262502Y-104440893D01*
X217319645Y-104498036D01*
X217376788Y-104612321D01*
X217376788Y-104898036D01*
X217319645Y-105012321D01*
X217262502Y-105069464D01*
X217148216Y-105126607D01*
X216805359Y-105126607D01*
X216691073Y-105069464D01*
X216633931Y-105012321D01*
X217891073Y-105012321D02*
X217948216Y-105069464D01*
X217891073Y-105126607D01*
X217833930Y-105069464D01*
X217891073Y-105012321D01*
X217891073Y-105126607D01*
X218691074Y-103926607D02*
X218805359Y-103926607D01*
X218919645Y-103983750D01*
X218976788Y-104040893D01*
X219033931Y-104155179D01*
X219091074Y-104383750D01*
X219091074Y-104669464D01*
X219033931Y-104898036D01*
X218976788Y-105012321D01*
X218919645Y-105069464D01*
X218805359Y-105126607D01*
X218691074Y-105126607D01*
X218576788Y-105069464D01*
X218519645Y-105012321D01*
X218462502Y-104898036D01*
X218405359Y-104669464D01*
X218405359Y-104383750D01*
X218462502Y-104155179D01*
X218519645Y-104040893D01*
X218576788Y-103983750D01*
X218691074Y-103926607D01*
X195548214Y-107096607D02*
X195548214Y-105896607D01*
X195833929Y-105896607D01*
X196005357Y-105953750D01*
X196119643Y-106068036D01*
X196176786Y-106182321D01*
X196233929Y-106410893D01*
X196233929Y-106582321D01*
X196176786Y-106810893D01*
X196119643Y-106925179D01*
X196005357Y-107039464D01*
X195833929Y-107096607D01*
X195548214Y-107096607D01*
X197205357Y-107039464D02*
X197091071Y-107096607D01*
X196862500Y-107096607D01*
X196748214Y-107039464D01*
X196691071Y-106925179D01*
X196691071Y-106468036D01*
X196748214Y-106353750D01*
X196862500Y-106296607D01*
X197091071Y-106296607D01*
X197205357Y-106353750D01*
X197262500Y-106468036D01*
X197262500Y-106582321D01*
X196691071Y-106696607D01*
X197719642Y-107039464D02*
X197833928Y-107096607D01*
X198062500Y-107096607D01*
X198176785Y-107039464D01*
X198233928Y-106925179D01*
X198233928Y-106868036D01*
X198176785Y-106753750D01*
X198062500Y-106696607D01*
X197891071Y-106696607D01*
X197776785Y-106639464D01*
X197719642Y-106525179D01*
X197719642Y-106468036D01*
X197776785Y-106353750D01*
X197891071Y-106296607D01*
X198062500Y-106296607D01*
X198176785Y-106353750D01*
X198748214Y-107096607D02*
X198748214Y-106296607D01*
X198748214Y-105896607D02*
X198691071Y-105953750D01*
X198748214Y-106010893D01*
X198805357Y-105953750D01*
X198748214Y-105896607D01*
X198748214Y-106010893D01*
X199833929Y-106296607D02*
X199833929Y-107268036D01*
X199776786Y-107382321D01*
X199719643Y-107439464D01*
X199605358Y-107496607D01*
X199433929Y-107496607D01*
X199319643Y-107439464D01*
X199833929Y-107039464D02*
X199719643Y-107096607D01*
X199491072Y-107096607D01*
X199376786Y-107039464D01*
X199319643Y-106982321D01*
X199262500Y-106868036D01*
X199262500Y-106525179D01*
X199319643Y-106410893D01*
X199376786Y-106353750D01*
X199491072Y-106296607D01*
X199719643Y-106296607D01*
X199833929Y-106353750D01*
X200405357Y-106296607D02*
X200405357Y-107096607D01*
X200405357Y-106410893D02*
X200462500Y-106353750D01*
X200576786Y-106296607D01*
X200748214Y-106296607D01*
X200862500Y-106353750D01*
X200919643Y-106468036D01*
X200919643Y-107096607D01*
X202919643Y-106296607D02*
X202919643Y-107268036D01*
X202862500Y-107382321D01*
X202805357Y-107439464D01*
X202691072Y-107496607D01*
X202519643Y-107496607D01*
X202405357Y-107439464D01*
X202919643Y-107039464D02*
X202805357Y-107096607D01*
X202576786Y-107096607D01*
X202462500Y-107039464D01*
X202405357Y-106982321D01*
X202348214Y-106868036D01*
X202348214Y-106525179D01*
X202405357Y-106410893D01*
X202462500Y-106353750D01*
X202576786Y-106296607D01*
X202805357Y-106296607D01*
X202919643Y-106353750D01*
X204005357Y-106296607D02*
X204005357Y-107096607D01*
X203491071Y-106296607D02*
X203491071Y-106925179D01*
X203548214Y-107039464D01*
X203662500Y-107096607D01*
X203833928Y-107096607D01*
X203948214Y-107039464D01*
X204005357Y-106982321D01*
X204576785Y-107096607D02*
X204576785Y-106296607D01*
X204576785Y-105896607D02*
X204519642Y-105953750D01*
X204576785Y-106010893D01*
X204633928Y-105953750D01*
X204576785Y-105896607D01*
X204576785Y-106010893D01*
X205662500Y-107096607D02*
X205662500Y-105896607D01*
X205662500Y-107039464D02*
X205548214Y-107096607D01*
X205319643Y-107096607D01*
X205205357Y-107039464D01*
X205148214Y-106982321D01*
X205091071Y-106868036D01*
X205091071Y-106525179D01*
X205148214Y-106410893D01*
X205205357Y-106353750D01*
X205319643Y-106296607D01*
X205548214Y-106296607D01*
X205662500Y-106353750D01*
X206748214Y-107096607D02*
X206748214Y-106468036D01*
X206691071Y-106353750D01*
X206576785Y-106296607D01*
X206348214Y-106296607D01*
X206233928Y-106353750D01*
X206748214Y-107039464D02*
X206633928Y-107096607D01*
X206348214Y-107096607D01*
X206233928Y-107039464D01*
X206176785Y-106925179D01*
X206176785Y-106810893D01*
X206233928Y-106696607D01*
X206348214Y-106639464D01*
X206633928Y-106639464D01*
X206748214Y-106582321D01*
X207319642Y-106296607D02*
X207319642Y-107096607D01*
X207319642Y-106410893D02*
X207376785Y-106353750D01*
X207491071Y-106296607D01*
X207662499Y-106296607D01*
X207776785Y-106353750D01*
X207833928Y-106468036D01*
X207833928Y-107096607D01*
X208919642Y-107039464D02*
X208805356Y-107096607D01*
X208576785Y-107096607D01*
X208462499Y-107039464D01*
X208405356Y-106982321D01*
X208348213Y-106868036D01*
X208348213Y-106525179D01*
X208405356Y-106410893D01*
X208462499Y-106353750D01*
X208576785Y-106296607D01*
X208805356Y-106296607D01*
X208919642Y-106353750D01*
X209891070Y-107039464D02*
X209776784Y-107096607D01*
X209548213Y-107096607D01*
X209433927Y-107039464D01*
X209376784Y-106925179D01*
X209376784Y-106468036D01*
X209433927Y-106353750D01*
X209548213Y-106296607D01*
X209776784Y-106296607D01*
X209891070Y-106353750D01*
X209948213Y-106468036D01*
X209948213Y-106582321D01*
X209376784Y-106696607D01*
X211376784Y-107096607D02*
X211376784Y-105896607D01*
X211376784Y-106353750D02*
X211491070Y-106296607D01*
X211719641Y-106296607D01*
X211833927Y-106353750D01*
X211891070Y-106410893D01*
X211948213Y-106525179D01*
X211948213Y-106868036D01*
X211891070Y-106982321D01*
X211833927Y-107039464D01*
X211719641Y-107096607D01*
X211491070Y-107096607D01*
X211376784Y-107039464D01*
X212348213Y-106296607D02*
X212633927Y-107096607D01*
X212919641Y-106296607D02*
X212633927Y-107096607D01*
X212519641Y-107382321D01*
X212462498Y-107439464D01*
X212348213Y-107496607D01*
X214005356Y-107210893D02*
X214919642Y-107210893D01*
X215148213Y-107039464D02*
X215262499Y-107096607D01*
X215491071Y-107096607D01*
X215605356Y-107039464D01*
X215662499Y-106925179D01*
X215662499Y-106868036D01*
X215605356Y-106753750D01*
X215491071Y-106696607D01*
X215319642Y-106696607D01*
X215205356Y-106639464D01*
X215148213Y-106525179D01*
X215148213Y-106468036D01*
X215205356Y-106353750D01*
X215319642Y-106296607D01*
X215491071Y-106296607D01*
X215605356Y-106353750D01*
X216176785Y-106296607D02*
X216176785Y-107496607D01*
X216176785Y-106353750D02*
X216291071Y-106296607D01*
X216519642Y-106296607D01*
X216633928Y-106353750D01*
X216691071Y-106410893D01*
X216748214Y-106525179D01*
X216748214Y-106868036D01*
X216691071Y-106982321D01*
X216633928Y-107039464D01*
X216519642Y-107096607D01*
X216291071Y-107096607D01*
X216176785Y-107039464D01*
X217262499Y-107096607D02*
X217262499Y-106296607D01*
X217262499Y-105896607D02*
X217205356Y-105953750D01*
X217262499Y-106010893D01*
X217319642Y-105953750D01*
X217262499Y-105896607D01*
X217262499Y-106010893D01*
X217833928Y-106296607D02*
X217833928Y-107096607D01*
X217833928Y-106410893D02*
X217891071Y-106353750D01*
X218005357Y-106296607D01*
X218176785Y-106296607D01*
X218291071Y-106353750D01*
X218348214Y-106468036D01*
X218348214Y-107096607D01*
X219433928Y-107096607D02*
X219433928Y-105896607D01*
X219433928Y-107039464D02*
X219319642Y-107096607D01*
X219091071Y-107096607D01*
X218976785Y-107039464D01*
X218919642Y-106982321D01*
X218862499Y-106868036D01*
X218862499Y-106525179D01*
X218919642Y-106410893D01*
X218976785Y-106353750D01*
X219091071Y-106296607D01*
X219319642Y-106296607D01*
X219433928Y-106353750D01*
X220176785Y-107096607D02*
X220062499Y-107039464D01*
X220005356Y-106925179D01*
X220005356Y-105896607D01*
X221091070Y-107039464D02*
X220976784Y-107096607D01*
X220748213Y-107096607D01*
X220633927Y-107039464D01*
X220576784Y-106925179D01*
X220576784Y-106468036D01*
X220633927Y-106353750D01*
X220748213Y-106296607D01*
X220976784Y-106296607D01*
X221091070Y-106353750D01*
X221148213Y-106468036D01*
X221148213Y-106582321D01*
X220576784Y-106696607D01*
X221719641Y-107039464D02*
X221719641Y-107096607D01*
X221662498Y-107210893D01*
X221605355Y-107268036D01*
X223033928Y-105896607D02*
X223319642Y-107096607D01*
X223548213Y-106239464D01*
X223776785Y-107096607D01*
X224062499Y-105896607D01*
X224519642Y-107096607D02*
X224519642Y-106296607D01*
X224519642Y-105896607D02*
X224462499Y-105953750D01*
X224519642Y-106010893D01*
X224576785Y-105953750D01*
X224519642Y-105896607D01*
X224519642Y-106010893D01*
X225262500Y-107096607D02*
X225148214Y-107039464D01*
X225091071Y-106925179D01*
X225091071Y-105896607D01*
X225719642Y-107096607D02*
X225719642Y-105896607D01*
X225719642Y-106353750D02*
X225833928Y-106296607D01*
X226062499Y-106296607D01*
X226176785Y-106353750D01*
X226233928Y-106410893D01*
X226291071Y-106525179D01*
X226291071Y-106868036D01*
X226233928Y-106982321D01*
X226176785Y-107039464D01*
X226062499Y-107096607D01*
X225833928Y-107096607D01*
X225719642Y-107039464D01*
X227319642Y-107096607D02*
X227319642Y-106468036D01*
X227262499Y-106353750D01*
X227148213Y-106296607D01*
X226919642Y-106296607D01*
X226805356Y-106353750D01*
X227319642Y-107039464D02*
X227205356Y-107096607D01*
X226919642Y-107096607D01*
X226805356Y-107039464D01*
X226748213Y-106925179D01*
X226748213Y-106810893D01*
X226805356Y-106696607D01*
X226919642Y-106639464D01*
X227205356Y-106639464D01*
X227319642Y-106582321D01*
X227948213Y-107039464D02*
X227948213Y-107096607D01*
X227891070Y-107210893D01*
X227833927Y-107268036D01*
X229891071Y-107096607D02*
X229891071Y-106468036D01*
X229833928Y-106353750D01*
X229719642Y-106296607D01*
X229491071Y-106296607D01*
X229376785Y-106353750D01*
X229891071Y-107039464D02*
X229776785Y-107096607D01*
X229491071Y-107096607D01*
X229376785Y-107039464D01*
X229319642Y-106925179D01*
X229319642Y-106810893D01*
X229376785Y-106696607D01*
X229491071Y-106639464D01*
X229776785Y-106639464D01*
X229891071Y-106582321D01*
X230462499Y-107096607D02*
X230462499Y-106296607D01*
X230462499Y-106410893D02*
X230519642Y-106353750D01*
X230633928Y-106296607D01*
X230805356Y-106296607D01*
X230919642Y-106353750D01*
X230976785Y-106468036D01*
X230976785Y-107096607D01*
X230976785Y-106468036D02*
X231033928Y-106353750D01*
X231148214Y-106296607D01*
X231319642Y-106296607D01*
X231433928Y-106353750D01*
X231491071Y-106468036D01*
X231491071Y-107096607D01*
X231891071Y-106296607D02*
X232348214Y-106296607D01*
X232062499Y-105896607D02*
X232062499Y-106925179D01*
X232119642Y-107039464D01*
X232233928Y-107096607D01*
X232348214Y-107096607D01*
X232748213Y-107096607D02*
X232748213Y-106296607D01*
X232748213Y-106525179D02*
X232805356Y-106410893D01*
X232862499Y-106353750D01*
X232976785Y-106296607D01*
X233091070Y-106296607D01*
X234005356Y-107096607D02*
X234005356Y-106468036D01*
X233948213Y-106353750D01*
X233833927Y-106296607D01*
X233605356Y-106296607D01*
X233491070Y-106353750D01*
X234005356Y-107039464D02*
X233891070Y-107096607D01*
X233605356Y-107096607D01*
X233491070Y-107039464D01*
X233433927Y-106925179D01*
X233433927Y-106810893D01*
X233491070Y-106696607D01*
X233605356Y-106639464D01*
X233891070Y-106639464D01*
X234005356Y-106582321D01*
X235148213Y-105896607D02*
X234576784Y-105896607D01*
X234519641Y-106468036D01*
X234576784Y-106410893D01*
X234691070Y-106353750D01*
X234976784Y-106353750D01*
X235091070Y-106410893D01*
X235148213Y-106468036D01*
X235205356Y-106582321D01*
X235205356Y-106868036D01*
X235148213Y-106982321D01*
X235091070Y-107039464D01*
X234976784Y-107096607D01*
X234691070Y-107096607D01*
X234576784Y-107039464D01*
X234519641Y-106982321D01*
X235776784Y-107039464D02*
X235776784Y-107096607D01*
X235719641Y-107210893D01*
X235662498Y-107268036D01*
X237662499Y-107039464D02*
X237548213Y-107096607D01*
X237319642Y-107096607D01*
X237205356Y-107039464D01*
X237148213Y-106925179D01*
X237148213Y-106468036D01*
X237205356Y-106353750D01*
X237319642Y-106296607D01*
X237548213Y-106296607D01*
X237662499Y-106353750D01*
X237719642Y-106468036D01*
X237719642Y-106582321D01*
X237148213Y-106696607D01*
X238062499Y-106296607D02*
X238519642Y-106296607D01*
X238233927Y-105896607D02*
X238233927Y-106925179D01*
X238291070Y-107039464D01*
X238405356Y-107096607D01*
X238519642Y-107096607D01*
X240348213Y-107096607D02*
X240348213Y-106468036D01*
X240291070Y-106353750D01*
X240176784Y-106296607D01*
X239948213Y-106296607D01*
X239833927Y-106353750D01*
X240348213Y-107039464D02*
X240233927Y-107096607D01*
X239948213Y-107096607D01*
X239833927Y-107039464D01*
X239776784Y-106925179D01*
X239776784Y-106810893D01*
X239833927Y-106696607D01*
X239948213Y-106639464D01*
X240233927Y-106639464D01*
X240348213Y-106582321D01*
X241091070Y-107096607D02*
X240976784Y-107039464D01*
X240919641Y-106925179D01*
X240919641Y-105896607D01*
X241548212Y-106982321D02*
X241605355Y-107039464D01*
X241548212Y-107096607D01*
X241491069Y-107039464D01*
X241548212Y-106982321D01*
X241548212Y-107096607D01*
M02*
