%TF.GenerationSoftware,KiCad,Pcbnew,4.0.7*%
%TF.CreationDate,2018-01-29T18:10:09-08:00*%
%TF.ProjectId,VoyagerII,566F796167657249492E6B696361645F,rev?*%
%TF.FileFunction,Legend,Top*%
%FSLAX46Y46*%
G04 Gerber Fmt 4.6, Leading zero omitted, Abs format (unit mm)*
G04 Created by KiCad (PCBNEW 4.0.7) date 01/29/18 18:10:09*
%MOMM*%
%LPD*%
G01*
G04 APERTURE LIST*
%ADD10C,0.100000*%
%ADD11C,0.150000*%
G04 APERTURE END LIST*
D10*
D11*
X245173809Y-60777381D02*
X245173809Y-59777381D01*
X245745238Y-60777381D02*
X245316666Y-60205952D01*
X245745238Y-59777381D02*
X245173809Y-60348810D01*
X245935714Y-60872619D02*
X246697619Y-60872619D01*
X246888095Y-60110714D02*
X247602381Y-60110714D01*
X247173809Y-59682143D02*
X246888095Y-60967857D01*
X247507143Y-60539286D02*
X246792857Y-60539286D01*
X247221429Y-60967857D02*
X247507143Y-59682143D01*
X248126190Y-59777381D02*
X248221429Y-59777381D01*
X248316667Y-59825000D01*
X248364286Y-59872619D01*
X248411905Y-59967857D01*
X248459524Y-60158333D01*
X248459524Y-60396429D01*
X248411905Y-60586905D01*
X248364286Y-60682143D01*
X248316667Y-60729762D01*
X248221429Y-60777381D01*
X248126190Y-60777381D01*
X248030952Y-60729762D01*
X247983333Y-60682143D01*
X247935714Y-60586905D01*
X247888095Y-60396429D01*
X247888095Y-60158333D01*
X247935714Y-59967857D01*
X247983333Y-59872619D01*
X248030952Y-59825000D01*
X248126190Y-59777381D01*
X248650000Y-60872619D02*
X249411905Y-60872619D01*
X250173810Y-60777381D02*
X249602381Y-60777381D01*
X249888095Y-60777381D02*
X249888095Y-59777381D01*
X249792857Y-59920238D01*
X249697619Y-60015476D01*
X249602381Y-60063095D01*
X74580952Y-60777381D02*
X74580952Y-59777381D01*
X75152381Y-60777381D02*
X74723809Y-60205952D01*
X75152381Y-59777381D02*
X74580952Y-60348810D01*
X75342857Y-60872619D02*
X76104762Y-60872619D01*
X76295238Y-60110714D02*
X77009524Y-60110714D01*
X76580952Y-59682143D02*
X76295238Y-60967857D01*
X76914286Y-60539286D02*
X76200000Y-60539286D01*
X76628572Y-60967857D02*
X76914286Y-59682143D01*
X77866667Y-60777381D02*
X77295238Y-60777381D01*
X77580952Y-60777381D02*
X77580952Y-59777381D01*
X77485714Y-59920238D01*
X77390476Y-60015476D01*
X77295238Y-60063095D01*
X93630952Y-60777381D02*
X93630952Y-59777381D01*
X94202381Y-60777381D02*
X93773809Y-60205952D01*
X94202381Y-59777381D02*
X93630952Y-60348810D01*
X94392857Y-60872619D02*
X95154762Y-60872619D01*
X95345238Y-60110714D02*
X96059524Y-60110714D01*
X95630952Y-59682143D02*
X95345238Y-60967857D01*
X95964286Y-60539286D02*
X95250000Y-60539286D01*
X95678572Y-60967857D02*
X95964286Y-59682143D01*
X96345238Y-59872619D02*
X96392857Y-59825000D01*
X96488095Y-59777381D01*
X96726191Y-59777381D01*
X96821429Y-59825000D01*
X96869048Y-59872619D01*
X96916667Y-59967857D01*
X96916667Y-60063095D01*
X96869048Y-60205952D01*
X96297619Y-60777381D01*
X96916667Y-60777381D01*
X112680952Y-60777381D02*
X112680952Y-59777381D01*
X113252381Y-60777381D02*
X112823809Y-60205952D01*
X113252381Y-59777381D02*
X112680952Y-60348810D01*
X113442857Y-60872619D02*
X114204762Y-60872619D01*
X114395238Y-60110714D02*
X115109524Y-60110714D01*
X114680952Y-59682143D02*
X114395238Y-60967857D01*
X115014286Y-60539286D02*
X114300000Y-60539286D01*
X114728572Y-60967857D02*
X115014286Y-59682143D01*
X115347619Y-59777381D02*
X115966667Y-59777381D01*
X115633333Y-60158333D01*
X115776191Y-60158333D01*
X115871429Y-60205952D01*
X115919048Y-60253571D01*
X115966667Y-60348810D01*
X115966667Y-60586905D01*
X115919048Y-60682143D01*
X115871429Y-60729762D01*
X115776191Y-60777381D01*
X115490476Y-60777381D01*
X115395238Y-60729762D01*
X115347619Y-60682143D01*
X131730952Y-60777381D02*
X131730952Y-59777381D01*
X132302381Y-60777381D02*
X131873809Y-60205952D01*
X132302381Y-59777381D02*
X131730952Y-60348810D01*
X132492857Y-60872619D02*
X133254762Y-60872619D01*
X133445238Y-60110714D02*
X134159524Y-60110714D01*
X133730952Y-59682143D02*
X133445238Y-60967857D01*
X134064286Y-60539286D02*
X133350000Y-60539286D01*
X133778572Y-60967857D02*
X134064286Y-59682143D01*
X134921429Y-60110714D02*
X134921429Y-60777381D01*
X134683333Y-59729762D02*
X134445238Y-60444048D01*
X135064286Y-60444048D01*
X150780952Y-60777381D02*
X150780952Y-59777381D01*
X151352381Y-60777381D02*
X150923809Y-60205952D01*
X151352381Y-59777381D02*
X150780952Y-60348810D01*
X151542857Y-60872619D02*
X152304762Y-60872619D01*
X152495238Y-60110714D02*
X153209524Y-60110714D01*
X152780952Y-59682143D02*
X152495238Y-60967857D01*
X153114286Y-60539286D02*
X152400000Y-60539286D01*
X152828572Y-60967857D02*
X153114286Y-59682143D01*
X154019048Y-59777381D02*
X153542857Y-59777381D01*
X153495238Y-60253571D01*
X153542857Y-60205952D01*
X153638095Y-60158333D01*
X153876191Y-60158333D01*
X153971429Y-60205952D01*
X154019048Y-60253571D01*
X154066667Y-60348810D01*
X154066667Y-60586905D01*
X154019048Y-60682143D01*
X153971429Y-60729762D01*
X153876191Y-60777381D01*
X153638095Y-60777381D01*
X153542857Y-60729762D01*
X153495238Y-60682143D01*
X169830952Y-60777381D02*
X169830952Y-59777381D01*
X170402381Y-60777381D02*
X169973809Y-60205952D01*
X170402381Y-59777381D02*
X169830952Y-60348810D01*
X170592857Y-60872619D02*
X171354762Y-60872619D01*
X171545238Y-60110714D02*
X172259524Y-60110714D01*
X171830952Y-59682143D02*
X171545238Y-60967857D01*
X172164286Y-60539286D02*
X171450000Y-60539286D01*
X171878572Y-60967857D02*
X172164286Y-59682143D01*
X173021429Y-59777381D02*
X172830952Y-59777381D01*
X172735714Y-59825000D01*
X172688095Y-59872619D01*
X172592857Y-60015476D01*
X172545238Y-60205952D01*
X172545238Y-60586905D01*
X172592857Y-60682143D01*
X172640476Y-60729762D01*
X172735714Y-60777381D01*
X172926191Y-60777381D01*
X173021429Y-60729762D01*
X173069048Y-60682143D01*
X173116667Y-60586905D01*
X173116667Y-60348810D01*
X173069048Y-60253571D01*
X173021429Y-60205952D01*
X172926191Y-60158333D01*
X172735714Y-60158333D01*
X172640476Y-60205952D01*
X172592857Y-60253571D01*
X172545238Y-60348810D01*
X188880952Y-60777381D02*
X188880952Y-59777381D01*
X189452381Y-60777381D02*
X189023809Y-60205952D01*
X189452381Y-59777381D02*
X188880952Y-60348810D01*
X189642857Y-60872619D02*
X190404762Y-60872619D01*
X190595238Y-60110714D02*
X191309524Y-60110714D01*
X190880952Y-59682143D02*
X190595238Y-60967857D01*
X191214286Y-60539286D02*
X190500000Y-60539286D01*
X190928572Y-60967857D02*
X191214286Y-59682143D01*
X191547619Y-59777381D02*
X192214286Y-59777381D01*
X191785714Y-60777381D01*
X207930952Y-60777381D02*
X207930952Y-59777381D01*
X208502381Y-60777381D02*
X208073809Y-60205952D01*
X208502381Y-59777381D02*
X207930952Y-60348810D01*
X208692857Y-60872619D02*
X209454762Y-60872619D01*
X209645238Y-60110714D02*
X210359524Y-60110714D01*
X209930952Y-59682143D02*
X209645238Y-60967857D01*
X210264286Y-60539286D02*
X209550000Y-60539286D01*
X209978572Y-60967857D02*
X210264286Y-59682143D01*
X210835714Y-60205952D02*
X210740476Y-60158333D01*
X210692857Y-60110714D01*
X210645238Y-60015476D01*
X210645238Y-59967857D01*
X210692857Y-59872619D01*
X210740476Y-59825000D01*
X210835714Y-59777381D01*
X211026191Y-59777381D01*
X211121429Y-59825000D01*
X211169048Y-59872619D01*
X211216667Y-59967857D01*
X211216667Y-60015476D01*
X211169048Y-60110714D01*
X211121429Y-60158333D01*
X211026191Y-60205952D01*
X210835714Y-60205952D01*
X210740476Y-60253571D01*
X210692857Y-60301190D01*
X210645238Y-60396429D01*
X210645238Y-60586905D01*
X210692857Y-60682143D01*
X210740476Y-60729762D01*
X210835714Y-60777381D01*
X211026191Y-60777381D01*
X211121429Y-60729762D01*
X211169048Y-60682143D01*
X211216667Y-60586905D01*
X211216667Y-60396429D01*
X211169048Y-60301190D01*
X211121429Y-60253571D01*
X211026191Y-60205952D01*
X226980952Y-60777381D02*
X226980952Y-59777381D01*
X227552381Y-60777381D02*
X227123809Y-60205952D01*
X227552381Y-59777381D02*
X226980952Y-60348810D01*
X227742857Y-60872619D02*
X228504762Y-60872619D01*
X228695238Y-60110714D02*
X229409524Y-60110714D01*
X228980952Y-59682143D02*
X228695238Y-60967857D01*
X229314286Y-60539286D02*
X228600000Y-60539286D01*
X229028572Y-60967857D02*
X229314286Y-59682143D01*
X229790476Y-60777381D02*
X229980952Y-60777381D01*
X230076191Y-60729762D01*
X230123810Y-60682143D01*
X230219048Y-60539286D01*
X230266667Y-60348810D01*
X230266667Y-59967857D01*
X230219048Y-59872619D01*
X230171429Y-59825000D01*
X230076191Y-59777381D01*
X229885714Y-59777381D01*
X229790476Y-59825000D01*
X229742857Y-59872619D01*
X229695238Y-59967857D01*
X229695238Y-60205952D01*
X229742857Y-60301190D01*
X229790476Y-60348810D01*
X229885714Y-60396429D01*
X230076191Y-60396429D01*
X230171429Y-60348810D01*
X230219048Y-60301190D01*
X230266667Y-60205952D01*
X279630357Y-98877381D02*
X279630357Y-97877381D01*
X280201786Y-98877381D02*
X279773214Y-98305952D01*
X280201786Y-97877381D02*
X279630357Y-98448810D01*
X280392262Y-98972619D02*
X281154167Y-98972619D01*
X281439881Y-97877381D02*
X281344643Y-98067857D01*
X282392262Y-98877381D02*
X281820833Y-98877381D01*
X282106547Y-98877381D02*
X282106547Y-97877381D01*
X282011309Y-98020238D01*
X281916071Y-98115476D01*
X281820833Y-98163095D01*
X232005357Y-117927381D02*
X232005357Y-116927381D01*
X232576786Y-117927381D02*
X232148214Y-117355952D01*
X232576786Y-116927381D02*
X232005357Y-117498810D01*
X232767262Y-118022619D02*
X233529167Y-118022619D01*
X233814881Y-117879762D02*
X233814881Y-117927381D01*
X233767262Y-118022619D01*
X233719643Y-118070238D01*
X234767262Y-117927381D02*
X234195833Y-117927381D01*
X234481547Y-117927381D02*
X234481547Y-116927381D01*
X234386309Y-117070238D01*
X234291071Y-117165476D01*
X234195833Y-117213095D01*
X264961905Y-60777381D02*
X264961905Y-59777381D01*
X265533334Y-60777381D02*
X265104762Y-60205952D01*
X265533334Y-59777381D02*
X264961905Y-60348810D01*
X265723810Y-60872619D02*
X266485715Y-60872619D01*
X266723810Y-60396429D02*
X267485715Y-60396429D01*
X268485715Y-60777381D02*
X267914286Y-60777381D01*
X268200000Y-60777381D02*
X268200000Y-59777381D01*
X268104762Y-59920238D01*
X268009524Y-60015476D01*
X267914286Y-60063095D01*
X251055357Y-117927381D02*
X251055357Y-116927381D01*
X251626786Y-117927381D02*
X251198214Y-117355952D01*
X251626786Y-116927381D02*
X251055357Y-117498810D01*
X251817262Y-118022619D02*
X252579167Y-118022619D01*
X252817262Y-117832143D02*
X252864881Y-117879762D01*
X252817262Y-117927381D01*
X252769643Y-117879762D01*
X252817262Y-117832143D01*
X252817262Y-117927381D01*
X253817262Y-117927381D02*
X253245833Y-117927381D01*
X253531547Y-117927381D02*
X253531547Y-116927381D01*
X253436309Y-117070238D01*
X253341071Y-117165476D01*
X253245833Y-117213095D01*
X260580357Y-98877381D02*
X260580357Y-97877381D01*
X261151786Y-98877381D02*
X260723214Y-98305952D01*
X261151786Y-97877381D02*
X260580357Y-98448810D01*
X261342262Y-98972619D02*
X262104167Y-98972619D01*
X262389881Y-98829762D02*
X262389881Y-98877381D01*
X262342262Y-98972619D01*
X262294643Y-99020238D01*
X262342262Y-98258333D02*
X262389881Y-98305952D01*
X262342262Y-98353571D01*
X262294643Y-98305952D01*
X262342262Y-98258333D01*
X262342262Y-98353571D01*
X263342262Y-98877381D02*
X262770833Y-98877381D01*
X263056547Y-98877381D02*
X263056547Y-97877381D01*
X262961309Y-98020238D01*
X262866071Y-98115476D01*
X262770833Y-98163095D01*
X284011905Y-60777381D02*
X284011905Y-59777381D01*
X284583334Y-60777381D02*
X284154762Y-60205952D01*
X284583334Y-59777381D02*
X284011905Y-60348810D01*
X284773810Y-60872619D02*
X285535715Y-60872619D01*
X285773810Y-60253571D02*
X286535715Y-60253571D01*
X286535715Y-60539286D02*
X285773810Y-60539286D01*
X287535715Y-60777381D02*
X286964286Y-60777381D01*
X287250000Y-60777381D02*
X287250000Y-59777381D01*
X287154762Y-59920238D01*
X287059524Y-60015476D01*
X286964286Y-60063095D01*
X88939881Y-98877381D02*
X88939881Y-97877381D01*
X89511310Y-98877381D02*
X89082738Y-98305952D01*
X89511310Y-97877381D02*
X88939881Y-98448810D01*
X89701786Y-98972619D02*
X90463691Y-98972619D01*
X90654167Y-98591667D02*
X91130358Y-98591667D01*
X90558929Y-98877381D02*
X90892262Y-97877381D01*
X91225596Y-98877381D01*
X92082739Y-98877381D02*
X91511310Y-98877381D01*
X91797024Y-98877381D02*
X91797024Y-97877381D01*
X91701786Y-98020238D01*
X91606548Y-98115476D01*
X91511310Y-98163095D01*
X174593452Y-117927381D02*
X174593452Y-116927381D01*
X175164881Y-117927381D02*
X174736309Y-117355952D01*
X175164881Y-116927381D02*
X174593452Y-117498810D01*
X175355357Y-118022619D02*
X176117262Y-118022619D01*
X176688691Y-117403571D02*
X176831548Y-117451190D01*
X176879167Y-117498810D01*
X176926786Y-117594048D01*
X176926786Y-117736905D01*
X176879167Y-117832143D01*
X176831548Y-117879762D01*
X176736310Y-117927381D01*
X176355357Y-117927381D01*
X176355357Y-116927381D01*
X176688691Y-116927381D01*
X176783929Y-116975000D01*
X176831548Y-117022619D01*
X176879167Y-117117857D01*
X176879167Y-117213095D01*
X176831548Y-117308333D01*
X176783929Y-117355952D01*
X176688691Y-117403571D01*
X176355357Y-117403571D01*
X177879167Y-117927381D02*
X177307738Y-117927381D01*
X177593452Y-117927381D02*
X177593452Y-116927381D01*
X177498214Y-117070238D01*
X177402976Y-117165476D01*
X177307738Y-117213095D01*
X320802381Y-60777381D02*
X320802381Y-59777381D01*
X321373810Y-60777381D02*
X320945238Y-60205952D01*
X321373810Y-59777381D02*
X320802381Y-60348810D01*
X321564286Y-60872619D02*
X322326191Y-60872619D01*
X322897620Y-60253571D02*
X323040477Y-60301190D01*
X323088096Y-60348810D01*
X323135715Y-60444048D01*
X323135715Y-60586905D01*
X323088096Y-60682143D01*
X323040477Y-60729762D01*
X322945239Y-60777381D01*
X322564286Y-60777381D01*
X322564286Y-59777381D01*
X322897620Y-59777381D01*
X322992858Y-59825000D01*
X323040477Y-59872619D01*
X323088096Y-59967857D01*
X323088096Y-60063095D01*
X323040477Y-60158333D01*
X322992858Y-60205952D01*
X322897620Y-60253571D01*
X322564286Y-60253571D01*
X323516667Y-60491667D02*
X323992858Y-60491667D01*
X323421429Y-60777381D02*
X323754762Y-59777381D01*
X324088096Y-60777381D01*
X324992858Y-60682143D02*
X324945239Y-60729762D01*
X324802382Y-60777381D01*
X324707144Y-60777381D01*
X324564286Y-60729762D01*
X324469048Y-60634524D01*
X324421429Y-60539286D01*
X324373810Y-60348810D01*
X324373810Y-60205952D01*
X324421429Y-60015476D01*
X324469048Y-59920238D01*
X324564286Y-59825000D01*
X324707144Y-59777381D01*
X324802382Y-59777381D01*
X324945239Y-59825000D01*
X324992858Y-59872619D01*
X325421429Y-60777381D02*
X325421429Y-59777381D01*
X325992858Y-60777381D02*
X325564286Y-60205952D01*
X325992858Y-59777381D02*
X325421429Y-60348810D01*
X326373810Y-59872619D02*
X326421429Y-59825000D01*
X326516667Y-59777381D01*
X326754763Y-59777381D01*
X326850001Y-59825000D01*
X326897620Y-59872619D01*
X326945239Y-59967857D01*
X326945239Y-60063095D01*
X326897620Y-60205952D01*
X326326191Y-60777381D01*
X326945239Y-60777381D01*
X136493452Y-117927381D02*
X136493452Y-116927381D01*
X137064881Y-117927381D02*
X136636309Y-117355952D01*
X137064881Y-116927381D02*
X136493452Y-117498810D01*
X137255357Y-118022619D02*
X138017262Y-118022619D01*
X138826786Y-117832143D02*
X138779167Y-117879762D01*
X138636310Y-117927381D01*
X138541072Y-117927381D01*
X138398214Y-117879762D01*
X138302976Y-117784524D01*
X138255357Y-117689286D01*
X138207738Y-117498810D01*
X138207738Y-117355952D01*
X138255357Y-117165476D01*
X138302976Y-117070238D01*
X138398214Y-116975000D01*
X138541072Y-116927381D01*
X138636310Y-116927381D01*
X138779167Y-116975000D01*
X138826786Y-117022619D01*
X139779167Y-117927381D02*
X139207738Y-117927381D01*
X139493452Y-117927381D02*
X139493452Y-116927381D01*
X139398214Y-117070238D01*
X139302976Y-117165476D01*
X139207738Y-117213095D01*
X61269940Y-98877381D02*
X61269940Y-97877381D01*
X61841369Y-98877381D02*
X61412797Y-98305952D01*
X61841369Y-97877381D02*
X61269940Y-98448810D01*
X62031845Y-98972619D02*
X62793750Y-98972619D01*
X63603274Y-98782143D02*
X63555655Y-98829762D01*
X63412798Y-98877381D01*
X63317560Y-98877381D01*
X63174702Y-98829762D01*
X63079464Y-98734524D01*
X63031845Y-98639286D01*
X62984226Y-98448810D01*
X62984226Y-98305952D01*
X63031845Y-98115476D01*
X63079464Y-98020238D01*
X63174702Y-97925000D01*
X63317560Y-97877381D01*
X63412798Y-97877381D01*
X63555655Y-97925000D01*
X63603274Y-97972619D01*
X63984226Y-98591667D02*
X64460417Y-98591667D01*
X63888988Y-98877381D02*
X64222321Y-97877381D01*
X64555655Y-98877381D01*
X64888988Y-98877381D02*
X64888988Y-97877381D01*
X65269941Y-97877381D01*
X65365179Y-97925000D01*
X65412798Y-97972619D01*
X65460417Y-98067857D01*
X65460417Y-98210714D01*
X65412798Y-98305952D01*
X65365179Y-98353571D01*
X65269941Y-98401190D01*
X64888988Y-98401190D01*
X65841369Y-98829762D02*
X65984226Y-98877381D01*
X66222322Y-98877381D01*
X66317560Y-98829762D01*
X66365179Y-98782143D01*
X66412798Y-98686905D01*
X66412798Y-98591667D01*
X66365179Y-98496429D01*
X66317560Y-98448810D01*
X66222322Y-98401190D01*
X66031845Y-98353571D01*
X65936607Y-98305952D01*
X65888988Y-98258333D01*
X65841369Y-98163095D01*
X65841369Y-98067857D01*
X65888988Y-97972619D01*
X65936607Y-97925000D01*
X66031845Y-97877381D01*
X66269941Y-97877381D01*
X66412798Y-97925000D01*
X67365179Y-98877381D02*
X66793750Y-98877381D01*
X67079464Y-98877381D02*
X67079464Y-97877381D01*
X66984226Y-98020238D01*
X66888988Y-98115476D01*
X66793750Y-98163095D01*
X56507440Y-98877381D02*
X56507440Y-97877381D01*
X57078869Y-98877381D02*
X56650297Y-98305952D01*
X57078869Y-97877381D02*
X56507440Y-98448810D01*
X57269345Y-98972619D02*
X58031250Y-98972619D01*
X58840774Y-98782143D02*
X58793155Y-98829762D01*
X58650298Y-98877381D01*
X58555060Y-98877381D01*
X58412202Y-98829762D01*
X58316964Y-98734524D01*
X58269345Y-98639286D01*
X58221726Y-98448810D01*
X58221726Y-98305952D01*
X58269345Y-98115476D01*
X58316964Y-98020238D01*
X58412202Y-97925000D01*
X58555060Y-97877381D01*
X58650298Y-97877381D01*
X58793155Y-97925000D01*
X58840774Y-97972619D01*
X59221726Y-98591667D02*
X59697917Y-98591667D01*
X59126488Y-98877381D02*
X59459821Y-97877381D01*
X59793155Y-98877381D01*
X60126488Y-98877381D02*
X60126488Y-97877381D01*
X60507441Y-97877381D01*
X60602679Y-97925000D01*
X60650298Y-97972619D01*
X60697917Y-98067857D01*
X60697917Y-98210714D01*
X60650298Y-98305952D01*
X60602679Y-98353571D01*
X60507441Y-98401190D01*
X60126488Y-98401190D01*
X61078869Y-98829762D02*
X61221726Y-98877381D01*
X61459822Y-98877381D01*
X61555060Y-98829762D01*
X61602679Y-98782143D01*
X61650298Y-98686905D01*
X61650298Y-98591667D01*
X61602679Y-98496429D01*
X61555060Y-98448810D01*
X61459822Y-98401190D01*
X61269345Y-98353571D01*
X61174107Y-98305952D01*
X61126488Y-98258333D01*
X61078869Y-98163095D01*
X61078869Y-98067857D01*
X61126488Y-97972619D01*
X61174107Y-97925000D01*
X61269345Y-97877381D01*
X61507441Y-97877381D01*
X61650298Y-97925000D01*
X62031250Y-97972619D02*
X62078869Y-97925000D01*
X62174107Y-97877381D01*
X62412203Y-97877381D01*
X62507441Y-97925000D01*
X62555060Y-97972619D01*
X62602679Y-98067857D01*
X62602679Y-98163095D01*
X62555060Y-98305952D01*
X61983631Y-98877381D01*
X62602679Y-98877381D01*
X126968452Y-98877381D02*
X126968452Y-97877381D01*
X127539881Y-98877381D02*
X127111309Y-98305952D01*
X127539881Y-97877381D02*
X126968452Y-98448810D01*
X127730357Y-98972619D02*
X128492262Y-98972619D01*
X128730357Y-98877381D02*
X128730357Y-97877381D01*
X128968452Y-97877381D01*
X129111310Y-97925000D01*
X129206548Y-98020238D01*
X129254167Y-98115476D01*
X129301786Y-98305952D01*
X129301786Y-98448810D01*
X129254167Y-98639286D01*
X129206548Y-98734524D01*
X129111310Y-98829762D01*
X128968452Y-98877381D01*
X128730357Y-98877381D01*
X130254167Y-98877381D02*
X129682738Y-98877381D01*
X129968452Y-98877381D02*
X129968452Y-97877381D01*
X129873214Y-98020238D01*
X129777976Y-98115476D01*
X129682738Y-98163095D01*
X302323809Y-60777381D02*
X302323809Y-59777381D01*
X302895238Y-60777381D02*
X302466666Y-60205952D01*
X302895238Y-59777381D02*
X302323809Y-60348810D01*
X303085714Y-60872619D02*
X303847619Y-60872619D01*
X304085714Y-60777381D02*
X304085714Y-59777381D01*
X304323809Y-59777381D01*
X304466667Y-59825000D01*
X304561905Y-59920238D01*
X304609524Y-60015476D01*
X304657143Y-60205952D01*
X304657143Y-60348810D01*
X304609524Y-60539286D01*
X304561905Y-60634524D01*
X304466667Y-60729762D01*
X304323809Y-60777381D01*
X304085714Y-60777381D01*
X305085714Y-60253571D02*
X305419048Y-60253571D01*
X305561905Y-60777381D02*
X305085714Y-60777381D01*
X305085714Y-59777381D01*
X305561905Y-59777381D01*
X306466667Y-60777381D02*
X305990476Y-60777381D01*
X305990476Y-59777381D01*
X307323810Y-60777381D02*
X306752381Y-60777381D01*
X307038095Y-60777381D02*
X307038095Y-59777381D01*
X306942857Y-59920238D01*
X306847619Y-60015476D01*
X306752381Y-60063095D01*
X122253571Y-79827381D02*
X122253571Y-78827381D01*
X122825000Y-79827381D02*
X122396428Y-79255952D01*
X122825000Y-78827381D02*
X122253571Y-79398810D01*
X123015476Y-79922619D02*
X123777381Y-79922619D01*
X124015476Y-79303571D02*
X124348810Y-79303571D01*
X124491667Y-79827381D02*
X124015476Y-79827381D01*
X124015476Y-78827381D01*
X124491667Y-78827381D01*
X125444048Y-79827381D02*
X124872619Y-79827381D01*
X125158333Y-79827381D02*
X125158333Y-78827381D01*
X125063095Y-78970238D01*
X124967857Y-79065476D01*
X124872619Y-79113095D01*
X308515178Y-98877381D02*
X308515178Y-97877381D01*
X309086607Y-98877381D02*
X308658035Y-98305952D01*
X309086607Y-97877381D02*
X308515178Y-98448810D01*
X309277083Y-98972619D02*
X310038988Y-98972619D01*
X310277083Y-98353571D02*
X310610417Y-98353571D01*
X310753274Y-98877381D02*
X310277083Y-98877381D01*
X310277083Y-97877381D01*
X310753274Y-97877381D01*
X311181845Y-98877381D02*
X311181845Y-97877381D01*
X311753274Y-98877381D01*
X311753274Y-97877381D01*
X312086607Y-97877381D02*
X312658036Y-97877381D01*
X312372321Y-98877381D02*
X312372321Y-97877381D01*
X312991369Y-98353571D02*
X313324703Y-98353571D01*
X313467560Y-98877381D02*
X312991369Y-98877381D01*
X312991369Y-97877381D01*
X313467560Y-97877381D01*
X314467560Y-98877381D02*
X314134226Y-98401190D01*
X313896131Y-98877381D02*
X313896131Y-97877381D01*
X314277084Y-97877381D01*
X314372322Y-97925000D01*
X314419941Y-97972619D01*
X314467560Y-98067857D01*
X314467560Y-98210714D01*
X314419941Y-98305952D01*
X314372322Y-98353571D01*
X314277084Y-98401190D01*
X313896131Y-98401190D01*
X315419941Y-98877381D02*
X314848512Y-98877381D01*
X315134226Y-98877381D02*
X315134226Y-97877381D01*
X315038988Y-98020238D01*
X314943750Y-98115476D01*
X314848512Y-98163095D01*
X318040178Y-89352381D02*
X318040178Y-88352381D01*
X318611607Y-89352381D02*
X318183035Y-88780952D01*
X318611607Y-88352381D02*
X318040178Y-88923810D01*
X318802083Y-89447619D02*
X319563988Y-89447619D01*
X319802083Y-88828571D02*
X320135417Y-88828571D01*
X320278274Y-89352381D02*
X319802083Y-89352381D01*
X319802083Y-88352381D01*
X320278274Y-88352381D01*
X320706845Y-89352381D02*
X320706845Y-88352381D01*
X321278274Y-89352381D01*
X321278274Y-88352381D01*
X321611607Y-88352381D02*
X322183036Y-88352381D01*
X321897321Y-89352381D02*
X321897321Y-88352381D01*
X322516369Y-88828571D02*
X322849703Y-88828571D01*
X322992560Y-89352381D02*
X322516369Y-89352381D01*
X322516369Y-88352381D01*
X322992560Y-88352381D01*
X323992560Y-89352381D02*
X323659226Y-88876190D01*
X323421131Y-89352381D02*
X323421131Y-88352381D01*
X323802084Y-88352381D01*
X323897322Y-88400000D01*
X323944941Y-88447619D01*
X323992560Y-88542857D01*
X323992560Y-88685714D01*
X323944941Y-88780952D01*
X323897322Y-88828571D01*
X323802084Y-88876190D01*
X323421131Y-88876190D01*
X324373512Y-88447619D02*
X324421131Y-88400000D01*
X324516369Y-88352381D01*
X324754465Y-88352381D01*
X324849703Y-88400000D01*
X324897322Y-88447619D01*
X324944941Y-88542857D01*
X324944941Y-88638095D01*
X324897322Y-88780952D01*
X324325893Y-89352381D01*
X324944941Y-89352381D01*
X54602381Y-60777381D02*
X54602381Y-59777381D01*
X55173810Y-60777381D02*
X54745238Y-60205952D01*
X55173810Y-59777381D02*
X54602381Y-60348810D01*
X55364286Y-60872619D02*
X56126191Y-60872619D01*
X56364286Y-60253571D02*
X56697620Y-60253571D01*
X56840477Y-60777381D02*
X56364286Y-60777381D01*
X56364286Y-59777381D01*
X56840477Y-59777381D01*
X57221429Y-60729762D02*
X57364286Y-60777381D01*
X57602382Y-60777381D01*
X57697620Y-60729762D01*
X57745239Y-60682143D01*
X57792858Y-60586905D01*
X57792858Y-60491667D01*
X57745239Y-60396429D01*
X57697620Y-60348810D01*
X57602382Y-60301190D01*
X57411905Y-60253571D01*
X57316667Y-60205952D01*
X57269048Y-60158333D01*
X57221429Y-60063095D01*
X57221429Y-59967857D01*
X57269048Y-59872619D01*
X57316667Y-59825000D01*
X57411905Y-59777381D01*
X57650001Y-59777381D01*
X57792858Y-59825000D01*
X58792858Y-60682143D02*
X58745239Y-60729762D01*
X58602382Y-60777381D01*
X58507144Y-60777381D01*
X58364286Y-60729762D01*
X58269048Y-60634524D01*
X58221429Y-60539286D01*
X58173810Y-60348810D01*
X58173810Y-60205952D01*
X58221429Y-60015476D01*
X58269048Y-59920238D01*
X58364286Y-59825000D01*
X58507144Y-59777381D01*
X58602382Y-59777381D01*
X58745239Y-59825000D01*
X58792858Y-59872619D01*
X59745239Y-60777381D02*
X59173810Y-60777381D01*
X59459524Y-60777381D02*
X59459524Y-59777381D01*
X59364286Y-59920238D01*
X59269048Y-60015476D01*
X59173810Y-60063095D01*
X146089881Y-98877381D02*
X146089881Y-97877381D01*
X146661310Y-98877381D02*
X146232738Y-98305952D01*
X146661310Y-97877381D02*
X146089881Y-98448810D01*
X146851786Y-98972619D02*
X147613691Y-98972619D01*
X148185120Y-98353571D02*
X147851786Y-98353571D01*
X147851786Y-98877381D02*
X147851786Y-97877381D01*
X148327977Y-97877381D01*
X149232739Y-98877381D02*
X148661310Y-98877381D01*
X148947024Y-98877381D02*
X148947024Y-97877381D01*
X148851786Y-98020238D01*
X148756548Y-98115476D01*
X148661310Y-98163095D01*
X165068452Y-98877381D02*
X165068452Y-97877381D01*
X165639881Y-98877381D02*
X165211309Y-98305952D01*
X165639881Y-97877381D02*
X165068452Y-98448810D01*
X165830357Y-98972619D02*
X166592262Y-98972619D01*
X167354167Y-97925000D02*
X167258929Y-97877381D01*
X167116072Y-97877381D01*
X166973214Y-97925000D01*
X166877976Y-98020238D01*
X166830357Y-98115476D01*
X166782738Y-98305952D01*
X166782738Y-98448810D01*
X166830357Y-98639286D01*
X166877976Y-98734524D01*
X166973214Y-98829762D01*
X167116072Y-98877381D01*
X167211310Y-98877381D01*
X167354167Y-98829762D01*
X167401786Y-98782143D01*
X167401786Y-98448810D01*
X167211310Y-98448810D01*
X168354167Y-98877381D02*
X167782738Y-98877381D01*
X168068452Y-98877381D02*
X168068452Y-97877381D01*
X167973214Y-98020238D01*
X167877976Y-98115476D01*
X167782738Y-98163095D01*
X184094643Y-98877381D02*
X184094643Y-97877381D01*
X184666072Y-98877381D02*
X184237500Y-98305952D01*
X184666072Y-97877381D02*
X184094643Y-98448810D01*
X184856548Y-98972619D02*
X185618453Y-98972619D01*
X185856548Y-98877381D02*
X185856548Y-97877381D01*
X185856548Y-98353571D02*
X186427977Y-98353571D01*
X186427977Y-98877381D02*
X186427977Y-97877381D01*
X187427977Y-98877381D02*
X186856548Y-98877381D01*
X187142262Y-98877381D02*
X187142262Y-97877381D01*
X187047024Y-98020238D01*
X186951786Y-98115476D01*
X186856548Y-98163095D01*
X217717857Y-79827381D02*
X217717857Y-78827381D01*
X218289286Y-79827381D02*
X217860714Y-79255952D01*
X218289286Y-78827381D02*
X217717857Y-79398810D01*
X218479762Y-79922619D02*
X219241667Y-79922619D01*
X219479762Y-79827381D02*
X219479762Y-78827381D01*
X220479762Y-79827381D02*
X219908333Y-79827381D01*
X220194047Y-79827381D02*
X220194047Y-78827381D01*
X220098809Y-78970238D01*
X220003571Y-79065476D01*
X219908333Y-79113095D01*
X78272024Y-117927381D02*
X78272024Y-116927381D01*
X78843453Y-117927381D02*
X78414881Y-117355952D01*
X78843453Y-116927381D02*
X78272024Y-117498810D01*
X79033929Y-118022619D02*
X79795834Y-118022619D01*
X80033929Y-117927381D02*
X80033929Y-116927381D01*
X80462500Y-117879762D02*
X80605357Y-117927381D01*
X80843453Y-117927381D01*
X80938691Y-117879762D01*
X80986310Y-117832143D01*
X81033929Y-117736905D01*
X81033929Y-117641667D01*
X80986310Y-117546429D01*
X80938691Y-117498810D01*
X80843453Y-117451190D01*
X80652976Y-117403571D01*
X80557738Y-117355952D01*
X80510119Y-117308333D01*
X80462500Y-117213095D01*
X80462500Y-117117857D01*
X80510119Y-117022619D01*
X80557738Y-116975000D01*
X80652976Y-116927381D01*
X80891072Y-116927381D01*
X81033929Y-116975000D01*
X81652976Y-116927381D02*
X81843453Y-116927381D01*
X81938691Y-116975000D01*
X82033929Y-117070238D01*
X82081548Y-117260714D01*
X82081548Y-117594048D01*
X82033929Y-117784524D01*
X81938691Y-117879762D01*
X81843453Y-117927381D01*
X81652976Y-117927381D01*
X81557738Y-117879762D01*
X81462500Y-117784524D01*
X81414881Y-117594048D01*
X81414881Y-117260714D01*
X81462500Y-117070238D01*
X81557738Y-116975000D01*
X81652976Y-116927381D01*
X82176786Y-116832143D02*
X83033929Y-118117857D01*
X83700596Y-117927381D02*
X83129167Y-117927381D01*
X83414881Y-117927381D02*
X83414881Y-116927381D01*
X83319643Y-117070238D01*
X83224405Y-117165476D01*
X83129167Y-117213095D01*
X297489881Y-98877381D02*
X297489881Y-97877381D01*
X298061310Y-98877381D02*
X297632738Y-98305952D01*
X298061310Y-97877381D02*
X297489881Y-98448810D01*
X298251786Y-98972619D02*
X299013691Y-98972619D01*
X299251786Y-98877381D02*
X299251786Y-97877381D01*
X299680357Y-98829762D02*
X299823214Y-98877381D01*
X300061310Y-98877381D01*
X300156548Y-98829762D01*
X300204167Y-98782143D01*
X300251786Y-98686905D01*
X300251786Y-98591667D01*
X300204167Y-98496429D01*
X300156548Y-98448810D01*
X300061310Y-98401190D01*
X299870833Y-98353571D01*
X299775595Y-98305952D01*
X299727976Y-98258333D01*
X299680357Y-98163095D01*
X299680357Y-98067857D01*
X299727976Y-97972619D01*
X299775595Y-97925000D01*
X299870833Y-97877381D01*
X300108929Y-97877381D01*
X300251786Y-97925000D01*
X300870833Y-97877381D02*
X301061310Y-97877381D01*
X301156548Y-97925000D01*
X301251786Y-98020238D01*
X301299405Y-98210714D01*
X301299405Y-98544048D01*
X301251786Y-98734524D01*
X301156548Y-98829762D01*
X301061310Y-98877381D01*
X300870833Y-98877381D01*
X300775595Y-98829762D01*
X300680357Y-98734524D01*
X300632738Y-98544048D01*
X300632738Y-98210714D01*
X300680357Y-98020238D01*
X300775595Y-97925000D01*
X300870833Y-97877381D01*
X301585119Y-97829762D02*
X301727976Y-97972619D01*
X302632738Y-98877381D02*
X302061309Y-98877381D01*
X302347023Y-98877381D02*
X302347023Y-97877381D01*
X302251785Y-98020238D01*
X302156547Y-98115476D01*
X302061309Y-98163095D01*
X203287500Y-98877381D02*
X203287500Y-97877381D01*
X203858929Y-98877381D02*
X203430357Y-98305952D01*
X203858929Y-97877381D02*
X203287500Y-98448810D01*
X204049405Y-98972619D02*
X204811310Y-98972619D01*
X205335120Y-97877381D02*
X205335120Y-98591667D01*
X205287500Y-98734524D01*
X205192262Y-98829762D01*
X205049405Y-98877381D01*
X204954167Y-98877381D01*
X206335120Y-98877381D02*
X205763691Y-98877381D01*
X206049405Y-98877381D02*
X206049405Y-97877381D01*
X205954167Y-98020238D01*
X205858929Y-98115476D01*
X205763691Y-98163095D01*
X222218452Y-98877381D02*
X222218452Y-97877381D01*
X222789881Y-98877381D02*
X222361309Y-98305952D01*
X222789881Y-97877381D02*
X222218452Y-98448810D01*
X222980357Y-98972619D02*
X223742262Y-98972619D01*
X223980357Y-98877381D02*
X223980357Y-97877381D01*
X224551786Y-98877381D02*
X224123214Y-98305952D01*
X224551786Y-97877381D02*
X223980357Y-98448810D01*
X225504167Y-98877381D02*
X224932738Y-98877381D01*
X225218452Y-98877381D02*
X225218452Y-97877381D01*
X225123214Y-98020238D01*
X225027976Y-98115476D01*
X224932738Y-98163095D01*
X241363690Y-98877381D02*
X241363690Y-97877381D01*
X241935119Y-98877381D02*
X241506547Y-98305952D01*
X241935119Y-97877381D02*
X241363690Y-98448810D01*
X242125595Y-98972619D02*
X242887500Y-98972619D01*
X243601786Y-98877381D02*
X243125595Y-98877381D01*
X243125595Y-97877381D01*
X244458929Y-98877381D02*
X243887500Y-98877381D01*
X244173214Y-98877381D02*
X244173214Y-97877381D01*
X244077976Y-98020238D01*
X243982738Y-98115476D01*
X243887500Y-98163095D01*
X212622024Y-117927381D02*
X212622024Y-116927381D01*
X213193453Y-117927381D02*
X212764881Y-117355952D01*
X213193453Y-116927381D02*
X212622024Y-117498810D01*
X213383929Y-118022619D02*
X214145834Y-118022619D01*
X214383929Y-117927381D02*
X214383929Y-116927381D01*
X214717263Y-117641667D01*
X215050596Y-116927381D01*
X215050596Y-117927381D01*
X216050596Y-117927381D02*
X215479167Y-117927381D01*
X215764881Y-117927381D02*
X215764881Y-116927381D01*
X215669643Y-117070238D01*
X215574405Y-117165476D01*
X215479167Y-117213095D01*
X193619643Y-117927381D02*
X193619643Y-116927381D01*
X194191072Y-117927381D02*
X193762500Y-117355952D01*
X194191072Y-116927381D02*
X193619643Y-117498810D01*
X194381548Y-118022619D02*
X195143453Y-118022619D01*
X195381548Y-117927381D02*
X195381548Y-116927381D01*
X195952977Y-117927381D01*
X195952977Y-116927381D01*
X196952977Y-117927381D02*
X196381548Y-117927381D01*
X196667262Y-117927381D02*
X196667262Y-116927381D01*
X196572024Y-117070238D01*
X196476786Y-117165476D01*
X196381548Y-117213095D01*
X236482143Y-79827381D02*
X236482143Y-78827381D01*
X237053572Y-79827381D02*
X236625000Y-79255952D01*
X237053572Y-78827381D02*
X236482143Y-79398810D01*
X237244048Y-79922619D02*
X238005953Y-79922619D01*
X238434524Y-78827381D02*
X238625001Y-78827381D01*
X238720239Y-78875000D01*
X238815477Y-78970238D01*
X238863096Y-79160714D01*
X238863096Y-79494048D01*
X238815477Y-79684524D01*
X238720239Y-79779762D01*
X238625001Y-79827381D01*
X238434524Y-79827381D01*
X238339286Y-79779762D01*
X238244048Y-79684524D01*
X238196429Y-79494048D01*
X238196429Y-79160714D01*
X238244048Y-78970238D01*
X238339286Y-78875000D01*
X238434524Y-78827381D01*
X239815477Y-79827381D02*
X239244048Y-79827381D01*
X239529762Y-79827381D02*
X239529762Y-78827381D01*
X239434524Y-78970238D01*
X239339286Y-79065476D01*
X239244048Y-79113095D01*
X255555952Y-79827381D02*
X255555952Y-78827381D01*
X256127381Y-79827381D02*
X255698809Y-79255952D01*
X256127381Y-78827381D02*
X255555952Y-79398810D01*
X256317857Y-79922619D02*
X257079762Y-79922619D01*
X257317857Y-79827381D02*
X257317857Y-78827381D01*
X257698810Y-78827381D01*
X257794048Y-78875000D01*
X257841667Y-78922619D01*
X257889286Y-79017857D01*
X257889286Y-79160714D01*
X257841667Y-79255952D01*
X257794048Y-79303571D01*
X257698810Y-79351190D01*
X257317857Y-79351190D01*
X258841667Y-79827381D02*
X258270238Y-79827381D01*
X258555952Y-79827381D02*
X258555952Y-78827381D01*
X258460714Y-78970238D01*
X258365476Y-79065476D01*
X258270238Y-79113095D01*
X84082143Y-79827381D02*
X84082143Y-78827381D01*
X84653572Y-79827381D02*
X84225000Y-79255952D01*
X84653572Y-78827381D02*
X84082143Y-79398810D01*
X84844048Y-79922619D02*
X85605953Y-79922619D01*
X86510715Y-79922619D02*
X86415477Y-79875000D01*
X86320239Y-79779762D01*
X86177382Y-79636905D01*
X86082143Y-79589286D01*
X85986905Y-79589286D01*
X86034524Y-79827381D02*
X85939286Y-79779762D01*
X85844048Y-79684524D01*
X85796429Y-79494048D01*
X85796429Y-79160714D01*
X85844048Y-78970238D01*
X85939286Y-78875000D01*
X86034524Y-78827381D01*
X86225001Y-78827381D01*
X86320239Y-78875000D01*
X86415477Y-78970238D01*
X86463096Y-79160714D01*
X86463096Y-79494048D01*
X86415477Y-79684524D01*
X86320239Y-79779762D01*
X86225001Y-79827381D01*
X86034524Y-79827381D01*
X87415477Y-79827381D02*
X86844048Y-79827381D01*
X87129762Y-79827381D02*
X87129762Y-78827381D01*
X87034524Y-78970238D01*
X86939286Y-79065476D01*
X86844048Y-79113095D01*
X141255952Y-79827381D02*
X141255952Y-78827381D01*
X141827381Y-79827381D02*
X141398809Y-79255952D01*
X141827381Y-78827381D02*
X141255952Y-79398810D01*
X142017857Y-79922619D02*
X142779762Y-79922619D01*
X143589286Y-79827381D02*
X143255952Y-79351190D01*
X143017857Y-79827381D02*
X143017857Y-78827381D01*
X143398810Y-78827381D01*
X143494048Y-78875000D01*
X143541667Y-78922619D01*
X143589286Y-79017857D01*
X143589286Y-79160714D01*
X143541667Y-79255952D01*
X143494048Y-79303571D01*
X143398810Y-79351190D01*
X143017857Y-79351190D01*
X144541667Y-79827381D02*
X143970238Y-79827381D01*
X144255952Y-79827381D02*
X144255952Y-78827381D01*
X144160714Y-78970238D01*
X144065476Y-79065476D01*
X143970238Y-79113095D01*
X107942262Y-98877381D02*
X107942262Y-97877381D01*
X108513691Y-98877381D02*
X108085119Y-98305952D01*
X108513691Y-97877381D02*
X107942262Y-98448810D01*
X108704167Y-98972619D02*
X109466072Y-98972619D01*
X109656548Y-98829762D02*
X109799405Y-98877381D01*
X110037501Y-98877381D01*
X110132739Y-98829762D01*
X110180358Y-98782143D01*
X110227977Y-98686905D01*
X110227977Y-98591667D01*
X110180358Y-98496429D01*
X110132739Y-98448810D01*
X110037501Y-98401190D01*
X109847024Y-98353571D01*
X109751786Y-98305952D01*
X109704167Y-98258333D01*
X109656548Y-98163095D01*
X109656548Y-98067857D01*
X109704167Y-97972619D01*
X109751786Y-97925000D01*
X109847024Y-97877381D01*
X110085120Y-97877381D01*
X110227977Y-97925000D01*
X111180358Y-98877381D02*
X110608929Y-98877381D01*
X110894643Y-98877381D02*
X110894643Y-97877381D01*
X110799405Y-98020238D01*
X110704167Y-98115476D01*
X110608929Y-98163095D01*
X65889583Y-117927381D02*
X65889583Y-116927381D01*
X66461012Y-117927381D02*
X66032440Y-117355952D01*
X66461012Y-116927381D02*
X65889583Y-117498810D01*
X66651488Y-118022619D02*
X67413393Y-118022619D01*
X67603869Y-117879762D02*
X67746726Y-117927381D01*
X67984822Y-117927381D01*
X68080060Y-117879762D01*
X68127679Y-117832143D01*
X68175298Y-117736905D01*
X68175298Y-117641667D01*
X68127679Y-117546429D01*
X68080060Y-117498810D01*
X67984822Y-117451190D01*
X67794345Y-117403571D01*
X67699107Y-117355952D01*
X67651488Y-117308333D01*
X67603869Y-117213095D01*
X67603869Y-117117857D01*
X67651488Y-117022619D01*
X67699107Y-116975000D01*
X67794345Y-116927381D01*
X68032441Y-116927381D01*
X68175298Y-116975000D01*
X68603869Y-117927381D02*
X68603869Y-116927381D01*
X68603869Y-117403571D02*
X69175298Y-117403571D01*
X69175298Y-117927381D02*
X69175298Y-116927381D01*
X69651488Y-117927381D02*
X69651488Y-116927381D01*
X70461012Y-117403571D02*
X70127678Y-117403571D01*
X70127678Y-117927381D02*
X70127678Y-116927381D01*
X70603869Y-116927381D01*
X70841964Y-116927381D02*
X71413393Y-116927381D01*
X71127678Y-117927381D02*
X71127678Y-116927381D01*
X72270536Y-117927381D02*
X71699107Y-117927381D01*
X71984821Y-117927381D02*
X71984821Y-116927381D01*
X71889583Y-117070238D01*
X71794345Y-117165476D01*
X71699107Y-117213095D01*
X56364583Y-117927381D02*
X56364583Y-116927381D01*
X56936012Y-117927381D02*
X56507440Y-117355952D01*
X56936012Y-116927381D02*
X56364583Y-117498810D01*
X57126488Y-118022619D02*
X57888393Y-118022619D01*
X58078869Y-117879762D02*
X58221726Y-117927381D01*
X58459822Y-117927381D01*
X58555060Y-117879762D01*
X58602679Y-117832143D01*
X58650298Y-117736905D01*
X58650298Y-117641667D01*
X58602679Y-117546429D01*
X58555060Y-117498810D01*
X58459822Y-117451190D01*
X58269345Y-117403571D01*
X58174107Y-117355952D01*
X58126488Y-117308333D01*
X58078869Y-117213095D01*
X58078869Y-117117857D01*
X58126488Y-117022619D01*
X58174107Y-116975000D01*
X58269345Y-116927381D01*
X58507441Y-116927381D01*
X58650298Y-116975000D01*
X59078869Y-117927381D02*
X59078869Y-116927381D01*
X59078869Y-117403571D02*
X59650298Y-117403571D01*
X59650298Y-117927381D02*
X59650298Y-116927381D01*
X60126488Y-117927381D02*
X60126488Y-116927381D01*
X60936012Y-117403571D02*
X60602678Y-117403571D01*
X60602678Y-117927381D02*
X60602678Y-116927381D01*
X61078869Y-116927381D01*
X61316964Y-116927381D02*
X61888393Y-116927381D01*
X61602678Y-117927381D02*
X61602678Y-116927381D01*
X62174107Y-117022619D02*
X62221726Y-116975000D01*
X62316964Y-116927381D01*
X62555060Y-116927381D01*
X62650298Y-116975000D01*
X62697917Y-117022619D01*
X62745536Y-117117857D01*
X62745536Y-117213095D01*
X62697917Y-117355952D01*
X62126488Y-117927381D01*
X62745536Y-117927381D01*
X160425000Y-79827381D02*
X160425000Y-78827381D01*
X160996429Y-79827381D02*
X160567857Y-79255952D01*
X160996429Y-78827381D02*
X160425000Y-79398810D01*
X161186905Y-79922619D02*
X161948810Y-79922619D01*
X162044048Y-78827381D02*
X162615477Y-78827381D01*
X162329762Y-79827381D02*
X162329762Y-78827381D01*
X163472620Y-79827381D02*
X162901191Y-79827381D01*
X163186905Y-79827381D02*
X163186905Y-78827381D01*
X163091667Y-78970238D01*
X162996429Y-79065476D01*
X162901191Y-79113095D01*
X59483928Y-79827381D02*
X59483928Y-78827381D01*
X60055357Y-79827381D02*
X59626785Y-79255952D01*
X60055357Y-78827381D02*
X59483928Y-79398810D01*
X60245833Y-79922619D02*
X61007738Y-79922619D01*
X61102976Y-78827381D02*
X61674405Y-78827381D01*
X61388690Y-79827381D02*
X61388690Y-78827381D01*
X61960119Y-79541667D02*
X62436310Y-79541667D01*
X61864881Y-79827381D02*
X62198214Y-78827381D01*
X62531548Y-79827381D01*
X63198215Y-79303571D02*
X63341072Y-79351190D01*
X63388691Y-79398810D01*
X63436310Y-79494048D01*
X63436310Y-79636905D01*
X63388691Y-79732143D01*
X63341072Y-79779762D01*
X63245834Y-79827381D01*
X62864881Y-79827381D01*
X62864881Y-78827381D01*
X63198215Y-78827381D01*
X63293453Y-78875000D01*
X63341072Y-78922619D01*
X63388691Y-79017857D01*
X63388691Y-79113095D01*
X63341072Y-79208333D01*
X63293453Y-79255952D01*
X63198215Y-79303571D01*
X62864881Y-79303571D01*
X64388691Y-79827381D02*
X63817262Y-79827381D01*
X64102976Y-79827381D02*
X64102976Y-78827381D01*
X64007738Y-78970238D01*
X63912500Y-79065476D01*
X63817262Y-79113095D01*
X198382143Y-79827381D02*
X198382143Y-78827381D01*
X198953572Y-79827381D02*
X198525000Y-79255952D01*
X198953572Y-78827381D02*
X198382143Y-79398810D01*
X199144048Y-79922619D02*
X199905953Y-79922619D01*
X200144048Y-78827381D02*
X200144048Y-79636905D01*
X200191667Y-79732143D01*
X200239286Y-79779762D01*
X200334524Y-79827381D01*
X200525001Y-79827381D01*
X200620239Y-79779762D01*
X200667858Y-79732143D01*
X200715477Y-79636905D01*
X200715477Y-78827381D01*
X201715477Y-79827381D02*
X201144048Y-79827381D01*
X201429762Y-79827381D02*
X201429762Y-78827381D01*
X201334524Y-78970238D01*
X201239286Y-79065476D01*
X201144048Y-79113095D01*
X155614881Y-117927381D02*
X155614881Y-116927381D01*
X156186310Y-117927381D02*
X155757738Y-117355952D01*
X156186310Y-116927381D02*
X155614881Y-117498810D01*
X156376786Y-118022619D02*
X157138691Y-118022619D01*
X157233929Y-116927381D02*
X157567262Y-117927381D01*
X157900596Y-116927381D01*
X158757739Y-117927381D02*
X158186310Y-117927381D01*
X158472024Y-117927381D02*
X158472024Y-116927381D01*
X158376786Y-117070238D01*
X158281548Y-117165476D01*
X158186310Y-117213095D01*
X103084524Y-79827381D02*
X103084524Y-78827381D01*
X103655953Y-79827381D02*
X103227381Y-79255952D01*
X103655953Y-78827381D02*
X103084524Y-79398810D01*
X103846429Y-79922619D02*
X104608334Y-79922619D01*
X104751191Y-78827381D02*
X104989286Y-79827381D01*
X105179763Y-79113095D01*
X105370239Y-79827381D01*
X105608334Y-78827381D01*
X106513096Y-79827381D02*
X105941667Y-79827381D01*
X106227381Y-79827381D02*
X106227381Y-78827381D01*
X106132143Y-78970238D01*
X106036905Y-79065476D01*
X105941667Y-79113095D01*
X117467262Y-117927381D02*
X117467262Y-116927381D01*
X118038691Y-117927381D02*
X117610119Y-117355952D01*
X118038691Y-116927381D02*
X117467262Y-117498810D01*
X118229167Y-118022619D02*
X118991072Y-118022619D01*
X119133929Y-116927381D02*
X119800596Y-117927381D01*
X119800596Y-116927381D02*
X119133929Y-117927381D01*
X120705358Y-117927381D02*
X120133929Y-117927381D01*
X120419643Y-117927381D02*
X120419643Y-116927381D01*
X120324405Y-117070238D01*
X120229167Y-117165476D01*
X120133929Y-117213095D01*
X179427381Y-79827381D02*
X179427381Y-78827381D01*
X179998810Y-79827381D02*
X179570238Y-79255952D01*
X179998810Y-78827381D02*
X179427381Y-79398810D01*
X180189286Y-79922619D02*
X180951191Y-79922619D01*
X181379762Y-79351190D02*
X181379762Y-79827381D01*
X181046429Y-78827381D02*
X181379762Y-79351190D01*
X181713096Y-78827381D01*
X182570239Y-79827381D02*
X181998810Y-79827381D01*
X182284524Y-79827381D02*
X182284524Y-78827381D01*
X182189286Y-78970238D01*
X182094048Y-79065476D01*
X181998810Y-79113095D01*
X98417262Y-117927381D02*
X98417262Y-116927381D01*
X98988691Y-117927381D02*
X98560119Y-117355952D01*
X98988691Y-116927381D02*
X98417262Y-117498810D01*
X99179167Y-118022619D02*
X99941072Y-118022619D01*
X100083929Y-116927381D02*
X100750596Y-116927381D01*
X100083929Y-117927381D01*
X100750596Y-117927381D01*
X101655358Y-117927381D02*
X101083929Y-117927381D01*
X101369643Y-117927381D02*
X101369643Y-116927381D01*
X101274405Y-117070238D01*
X101179167Y-117165476D01*
X101083929Y-117213095D01*
X274772619Y-79827381D02*
X274772619Y-78827381D01*
X275344048Y-79827381D02*
X274915476Y-79255952D01*
X275344048Y-78827381D02*
X274772619Y-79398810D01*
X275534524Y-79922619D02*
X276296429Y-79922619D01*
X276820239Y-80160714D02*
X276582143Y-80160714D01*
X276582143Y-78732143D01*
X276820239Y-78732143D01*
X277725001Y-79827381D02*
X277153572Y-79827381D01*
X277439286Y-79827381D02*
X277439286Y-78827381D01*
X277344048Y-78970238D01*
X277248810Y-79065476D01*
X277153572Y-79113095D01*
X317635119Y-79827381D02*
X317635119Y-78827381D01*
X318206548Y-79827381D02*
X317777976Y-79255952D01*
X318206548Y-78827381D02*
X317635119Y-79398810D01*
X318397024Y-79922619D02*
X319158929Y-79922619D01*
X319063691Y-78732143D02*
X319920834Y-80017857D01*
X320587501Y-79827381D02*
X320016072Y-79827381D01*
X320301786Y-79827381D02*
X320301786Y-78827381D01*
X320206548Y-78970238D01*
X320111310Y-79065476D01*
X320016072Y-79113095D01*
X293822619Y-79827381D02*
X293822619Y-78827381D01*
X294394048Y-79827381D02*
X293965476Y-79255952D01*
X294394048Y-78827381D02*
X293822619Y-79398810D01*
X294584524Y-79922619D02*
X295346429Y-79922619D01*
X295489286Y-80160714D02*
X295727381Y-80160714D01*
X295727381Y-78732143D01*
X295489286Y-78732143D01*
X296775001Y-79827381D02*
X296203572Y-79827381D01*
X296489286Y-79827381D02*
X296489286Y-78827381D01*
X296394048Y-78970238D01*
X296298810Y-79065476D01*
X296203572Y-79113095D01*
X58793155Y-136977381D02*
X58316964Y-136977381D01*
X58316964Y-135977381D01*
X59126488Y-136977381D02*
X59126488Y-135977381D01*
X59459822Y-136691667D01*
X59793155Y-135977381D01*
X59793155Y-136977381D01*
X60793155Y-136977381D02*
X60221726Y-136977381D01*
X60507440Y-136977381D02*
X60507440Y-135977381D01*
X60412202Y-136120238D01*
X60316964Y-136215476D01*
X60221726Y-136263095D01*
X61174405Y-136977381D02*
X60698214Y-136977381D01*
X60698214Y-135977381D01*
X61507738Y-136977381D02*
X61507738Y-135977381D01*
X61841072Y-136691667D01*
X62174405Y-135977381D01*
X62174405Y-136977381D01*
X62602976Y-136072619D02*
X62650595Y-136025000D01*
X62745833Y-135977381D01*
X62983929Y-135977381D01*
X63079167Y-136025000D01*
X63126786Y-136072619D01*
X63174405Y-136167857D01*
X63174405Y-136263095D01*
X63126786Y-136405952D01*
X62555357Y-136977381D01*
X63174405Y-136977381D01*
X82605655Y-136977381D02*
X82129464Y-136977381D01*
X82129464Y-135977381D01*
X82938988Y-136977381D02*
X82938988Y-135977381D01*
X83272322Y-136691667D01*
X83605655Y-135977381D01*
X83605655Y-136977381D01*
X83986607Y-135977381D02*
X84605655Y-135977381D01*
X84272321Y-136358333D01*
X84415179Y-136358333D01*
X84510417Y-136405952D01*
X84558036Y-136453571D01*
X84605655Y-136548810D01*
X84605655Y-136786905D01*
X84558036Y-136882143D01*
X84510417Y-136929762D01*
X84415179Y-136977381D01*
X84129464Y-136977381D01*
X84034226Y-136929762D01*
X83986607Y-136882143D01*
X84986905Y-136977381D02*
X84510714Y-136977381D01*
X84510714Y-135977381D01*
X85320238Y-136977381D02*
X85320238Y-135977381D01*
X85653572Y-136691667D01*
X85986905Y-135977381D01*
X85986905Y-136977381D01*
X86891667Y-136310714D02*
X86891667Y-136977381D01*
X86653571Y-135929762D02*
X86415476Y-136644048D01*
X87034524Y-136644048D01*
X106418155Y-136977381D02*
X105941964Y-136977381D01*
X105941964Y-135977381D01*
X106751488Y-136977381D02*
X106751488Y-135977381D01*
X107084822Y-136691667D01*
X107418155Y-135977381D01*
X107418155Y-136977381D01*
X108370536Y-135977381D02*
X107894345Y-135977381D01*
X107846726Y-136453571D01*
X107894345Y-136405952D01*
X107989583Y-136358333D01*
X108227679Y-136358333D01*
X108322917Y-136405952D01*
X108370536Y-136453571D01*
X108418155Y-136548810D01*
X108418155Y-136786905D01*
X108370536Y-136882143D01*
X108322917Y-136929762D01*
X108227679Y-136977381D01*
X107989583Y-136977381D01*
X107894345Y-136929762D01*
X107846726Y-136882143D01*
X108799405Y-136977381D02*
X108323214Y-136977381D01*
X108323214Y-135977381D01*
X109132738Y-136977381D02*
X109132738Y-135977381D01*
X109466072Y-136691667D01*
X109799405Y-135977381D01*
X109799405Y-136977381D01*
X110704167Y-135977381D02*
X110513690Y-135977381D01*
X110418452Y-136025000D01*
X110370833Y-136072619D01*
X110275595Y-136215476D01*
X110227976Y-136405952D01*
X110227976Y-136786905D01*
X110275595Y-136882143D01*
X110323214Y-136929762D01*
X110418452Y-136977381D01*
X110608929Y-136977381D01*
X110704167Y-136929762D01*
X110751786Y-136882143D01*
X110799405Y-136786905D01*
X110799405Y-136548810D01*
X110751786Y-136453571D01*
X110704167Y-136405952D01*
X110608929Y-136358333D01*
X110418452Y-136358333D01*
X110323214Y-136405952D01*
X110275595Y-136453571D01*
X110227976Y-136548810D01*
X246911905Y-136977381D02*
X246578571Y-136501190D01*
X246340476Y-136977381D02*
X246340476Y-135977381D01*
X246721429Y-135977381D01*
X246816667Y-136025000D01*
X246864286Y-136072619D01*
X246911905Y-136167857D01*
X246911905Y-136310714D01*
X246864286Y-136405952D01*
X246816667Y-136453571D01*
X246721429Y-136501190D01*
X246340476Y-136501190D01*
X247340476Y-136977381D02*
X247340476Y-135977381D01*
X247673810Y-136691667D01*
X248007143Y-135977381D01*
X248007143Y-136977381D01*
X249007143Y-136977381D02*
X248435714Y-136977381D01*
X248721428Y-136977381D02*
X248721428Y-135977381D01*
X248626190Y-136120238D01*
X248530952Y-136215476D01*
X248435714Y-136263095D01*
X265961905Y-136977381D02*
X265628571Y-136501190D01*
X265390476Y-136977381D02*
X265390476Y-135977381D01*
X265771429Y-135977381D01*
X265866667Y-136025000D01*
X265914286Y-136072619D01*
X265961905Y-136167857D01*
X265961905Y-136310714D01*
X265914286Y-136405952D01*
X265866667Y-136453571D01*
X265771429Y-136501190D01*
X265390476Y-136501190D01*
X266390476Y-136977381D02*
X266390476Y-135977381D01*
X266723810Y-136691667D01*
X267057143Y-135977381D01*
X267057143Y-136977381D01*
X267485714Y-136072619D02*
X267533333Y-136025000D01*
X267628571Y-135977381D01*
X267866667Y-135977381D01*
X267961905Y-136025000D01*
X268009524Y-136072619D01*
X268057143Y-136167857D01*
X268057143Y-136263095D01*
X268009524Y-136405952D01*
X267438095Y-136977381D01*
X268057143Y-136977381D01*
X270724405Y-136977381D02*
X270391071Y-136501190D01*
X270152976Y-136977381D02*
X270152976Y-135977381D01*
X270533929Y-135977381D01*
X270629167Y-136025000D01*
X270676786Y-136072619D01*
X270724405Y-136167857D01*
X270724405Y-136310714D01*
X270676786Y-136405952D01*
X270629167Y-136453571D01*
X270533929Y-136501190D01*
X270152976Y-136501190D01*
X271152976Y-136977381D02*
X271152976Y-135977381D01*
X271486310Y-136691667D01*
X271819643Y-135977381D01*
X271819643Y-136977381D01*
X272200595Y-135977381D02*
X272819643Y-135977381D01*
X272486309Y-136358333D01*
X272629167Y-136358333D01*
X272724405Y-136405952D01*
X272772024Y-136453571D01*
X272819643Y-136548810D01*
X272819643Y-136786905D01*
X272772024Y-136882143D01*
X272724405Y-136929762D01*
X272629167Y-136977381D01*
X272343452Y-136977381D01*
X272248214Y-136929762D01*
X272200595Y-136882143D01*
X285011905Y-136977381D02*
X284678571Y-136501190D01*
X284440476Y-136977381D02*
X284440476Y-135977381D01*
X284821429Y-135977381D01*
X284916667Y-136025000D01*
X284964286Y-136072619D01*
X285011905Y-136167857D01*
X285011905Y-136310714D01*
X284964286Y-136405952D01*
X284916667Y-136453571D01*
X284821429Y-136501190D01*
X284440476Y-136501190D01*
X285440476Y-136977381D02*
X285440476Y-135977381D01*
X285773810Y-136691667D01*
X286107143Y-135977381D01*
X286107143Y-136977381D01*
X287011905Y-136310714D02*
X287011905Y-136977381D01*
X286773809Y-135929762D02*
X286535714Y-136644048D01*
X287154762Y-136644048D01*
X294536905Y-136977381D02*
X294203571Y-136501190D01*
X293965476Y-136977381D02*
X293965476Y-135977381D01*
X294346429Y-135977381D01*
X294441667Y-136025000D01*
X294489286Y-136072619D01*
X294536905Y-136167857D01*
X294536905Y-136310714D01*
X294489286Y-136405952D01*
X294441667Y-136453571D01*
X294346429Y-136501190D01*
X293965476Y-136501190D01*
X294965476Y-136977381D02*
X294965476Y-135977381D01*
X295298810Y-136691667D01*
X295632143Y-135977381D01*
X295632143Y-136977381D01*
X296584524Y-135977381D02*
X296108333Y-135977381D01*
X296060714Y-136453571D01*
X296108333Y-136405952D01*
X296203571Y-136358333D01*
X296441667Y-136358333D01*
X296536905Y-136405952D01*
X296584524Y-136453571D01*
X296632143Y-136548810D01*
X296632143Y-136786905D01*
X296584524Y-136882143D01*
X296536905Y-136929762D01*
X296441667Y-136977381D01*
X296203571Y-136977381D01*
X296108333Y-136929762D01*
X296060714Y-136882143D01*
X304061905Y-136977381D02*
X303728571Y-136501190D01*
X303490476Y-136977381D02*
X303490476Y-135977381D01*
X303871429Y-135977381D01*
X303966667Y-136025000D01*
X304014286Y-136072619D01*
X304061905Y-136167857D01*
X304061905Y-136310714D01*
X304014286Y-136405952D01*
X303966667Y-136453571D01*
X303871429Y-136501190D01*
X303490476Y-136501190D01*
X304490476Y-136977381D02*
X304490476Y-135977381D01*
X304823810Y-136691667D01*
X305157143Y-135977381D01*
X305157143Y-136977381D01*
X306061905Y-135977381D02*
X305871428Y-135977381D01*
X305776190Y-136025000D01*
X305728571Y-136072619D01*
X305633333Y-136215476D01*
X305585714Y-136405952D01*
X305585714Y-136786905D01*
X305633333Y-136882143D01*
X305680952Y-136929762D01*
X305776190Y-136977381D01*
X305966667Y-136977381D01*
X306061905Y-136929762D01*
X306109524Y-136882143D01*
X306157143Y-136786905D01*
X306157143Y-136548810D01*
X306109524Y-136453571D01*
X306061905Y-136405952D01*
X305966667Y-136358333D01*
X305776190Y-136358333D01*
X305680952Y-136405952D01*
X305633333Y-136453571D01*
X305585714Y-136548810D01*
X318349405Y-136977381D02*
X318016071Y-136501190D01*
X317777976Y-136977381D02*
X317777976Y-135977381D01*
X318158929Y-135977381D01*
X318254167Y-136025000D01*
X318301786Y-136072619D01*
X318349405Y-136167857D01*
X318349405Y-136310714D01*
X318301786Y-136405952D01*
X318254167Y-136453571D01*
X318158929Y-136501190D01*
X317777976Y-136501190D01*
X318777976Y-136977381D02*
X318777976Y-135977381D01*
X319111310Y-136691667D01*
X319444643Y-135977381D01*
X319444643Y-136977381D01*
X319825595Y-135977381D02*
X320492262Y-135977381D01*
X320063690Y-136977381D01*
X323111905Y-136977381D02*
X322778571Y-136501190D01*
X322540476Y-136977381D02*
X322540476Y-135977381D01*
X322921429Y-135977381D01*
X323016667Y-136025000D01*
X323064286Y-136072619D01*
X323111905Y-136167857D01*
X323111905Y-136310714D01*
X323064286Y-136405952D01*
X323016667Y-136453571D01*
X322921429Y-136501190D01*
X322540476Y-136501190D01*
X323540476Y-136977381D02*
X323540476Y-135977381D01*
X323873810Y-136691667D01*
X324207143Y-135977381D01*
X324207143Y-136977381D01*
X324826190Y-136405952D02*
X324730952Y-136358333D01*
X324683333Y-136310714D01*
X324635714Y-136215476D01*
X324635714Y-136167857D01*
X324683333Y-136072619D01*
X324730952Y-136025000D01*
X324826190Y-135977381D01*
X325016667Y-135977381D01*
X325111905Y-136025000D01*
X325159524Y-136072619D01*
X325207143Y-136167857D01*
X325207143Y-136215476D01*
X325159524Y-136310714D01*
X325111905Y-136358333D01*
X325016667Y-136405952D01*
X324826190Y-136405952D01*
X324730952Y-136453571D01*
X324683333Y-136501190D01*
X324635714Y-136596429D01*
X324635714Y-136786905D01*
X324683333Y-136882143D01*
X324730952Y-136929762D01*
X324826190Y-136977381D01*
X325016667Y-136977381D01*
X325111905Y-136929762D01*
X325159524Y-136882143D01*
X325207143Y-136786905D01*
X325207143Y-136596429D01*
X325159524Y-136501190D01*
X325111905Y-136453571D01*
X325016667Y-136405952D01*
X270819643Y-117927381D02*
X270486309Y-117451190D01*
X270248214Y-117927381D02*
X270248214Y-116927381D01*
X270629167Y-116927381D01*
X270724405Y-116975000D01*
X270772024Y-117022619D01*
X270819643Y-117117857D01*
X270819643Y-117260714D01*
X270772024Y-117355952D01*
X270724405Y-117403571D01*
X270629167Y-117451190D01*
X270248214Y-117451190D01*
X271200595Y-117879762D02*
X271343452Y-117927381D01*
X271581548Y-117927381D01*
X271676786Y-117879762D01*
X271724405Y-117832143D01*
X271772024Y-117736905D01*
X271772024Y-117641667D01*
X271724405Y-117546429D01*
X271676786Y-117498810D01*
X271581548Y-117451190D01*
X271391071Y-117403571D01*
X271295833Y-117355952D01*
X271248214Y-117308333D01*
X271200595Y-117213095D01*
X271200595Y-117117857D01*
X271248214Y-117022619D01*
X271295833Y-116975000D01*
X271391071Y-116927381D01*
X271629167Y-116927381D01*
X271772024Y-116975000D01*
X272724405Y-117927381D02*
X272152976Y-117927381D01*
X272438690Y-117927381D02*
X272438690Y-116927381D01*
X272343452Y-117070238D01*
X272248214Y-117165476D01*
X272152976Y-117213095D01*
X306538393Y-117927381D02*
X306205059Y-117451190D01*
X305966964Y-117927381D02*
X305966964Y-116927381D01*
X306347917Y-116927381D01*
X306443155Y-116975000D01*
X306490774Y-117022619D01*
X306538393Y-117117857D01*
X306538393Y-117260714D01*
X306490774Y-117355952D01*
X306443155Y-117403571D01*
X306347917Y-117451190D01*
X305966964Y-117451190D01*
X306919345Y-117879762D02*
X307062202Y-117927381D01*
X307300298Y-117927381D01*
X307395536Y-117879762D01*
X307443155Y-117832143D01*
X307490774Y-117736905D01*
X307490774Y-117641667D01*
X307443155Y-117546429D01*
X307395536Y-117498810D01*
X307300298Y-117451190D01*
X307109821Y-117403571D01*
X307014583Y-117355952D01*
X306966964Y-117308333D01*
X306919345Y-117213095D01*
X306919345Y-117117857D01*
X306966964Y-117022619D01*
X307014583Y-116975000D01*
X307109821Y-116927381D01*
X307347917Y-116927381D01*
X307490774Y-116975000D01*
X307871726Y-117022619D02*
X307919345Y-116975000D01*
X308014583Y-116927381D01*
X308252679Y-116927381D01*
X308347917Y-116975000D01*
X308395536Y-117022619D01*
X308443155Y-117117857D01*
X308443155Y-117213095D01*
X308395536Y-117355952D01*
X307824107Y-117927381D01*
X308443155Y-117927381D01*
X277963393Y-117927381D02*
X277630059Y-117451190D01*
X277391964Y-117927381D02*
X277391964Y-116927381D01*
X277772917Y-116927381D01*
X277868155Y-116975000D01*
X277915774Y-117022619D01*
X277963393Y-117117857D01*
X277963393Y-117260714D01*
X277915774Y-117355952D01*
X277868155Y-117403571D01*
X277772917Y-117451190D01*
X277391964Y-117451190D01*
X278344345Y-117879762D02*
X278487202Y-117927381D01*
X278725298Y-117927381D01*
X278820536Y-117879762D01*
X278868155Y-117832143D01*
X278915774Y-117736905D01*
X278915774Y-117641667D01*
X278868155Y-117546429D01*
X278820536Y-117498810D01*
X278725298Y-117451190D01*
X278534821Y-117403571D01*
X278439583Y-117355952D01*
X278391964Y-117308333D01*
X278344345Y-117213095D01*
X278344345Y-117117857D01*
X278391964Y-117022619D01*
X278439583Y-116975000D01*
X278534821Y-116927381D01*
X278772917Y-116927381D01*
X278915774Y-116975000D01*
X279249107Y-116927381D02*
X279868155Y-116927381D01*
X279534821Y-117308333D01*
X279677679Y-117308333D01*
X279772917Y-117355952D01*
X279820536Y-117403571D01*
X279868155Y-117498810D01*
X279868155Y-117736905D01*
X279820536Y-117832143D01*
X279772917Y-117879762D01*
X279677679Y-117927381D01*
X279391964Y-117927381D01*
X279296726Y-117879762D01*
X279249107Y-117832143D01*
X297013393Y-117927381D02*
X296680059Y-117451190D01*
X296441964Y-117927381D02*
X296441964Y-116927381D01*
X296822917Y-116927381D01*
X296918155Y-116975000D01*
X296965774Y-117022619D01*
X297013393Y-117117857D01*
X297013393Y-117260714D01*
X296965774Y-117355952D01*
X296918155Y-117403571D01*
X296822917Y-117451190D01*
X296441964Y-117451190D01*
X297394345Y-117879762D02*
X297537202Y-117927381D01*
X297775298Y-117927381D01*
X297870536Y-117879762D01*
X297918155Y-117832143D01*
X297965774Y-117736905D01*
X297965774Y-117641667D01*
X297918155Y-117546429D01*
X297870536Y-117498810D01*
X297775298Y-117451190D01*
X297584821Y-117403571D01*
X297489583Y-117355952D01*
X297441964Y-117308333D01*
X297394345Y-117213095D01*
X297394345Y-117117857D01*
X297441964Y-117022619D01*
X297489583Y-116975000D01*
X297584821Y-116927381D01*
X297822917Y-116927381D01*
X297965774Y-116975000D01*
X298822917Y-117260714D02*
X298822917Y-117927381D01*
X298584821Y-116879762D02*
X298346726Y-117594048D01*
X298965774Y-117594048D01*
X304157143Y-117927381D02*
X303823809Y-117451190D01*
X303585714Y-117927381D02*
X303585714Y-116927381D01*
X303966667Y-116927381D01*
X304061905Y-116975000D01*
X304109524Y-117022619D01*
X304157143Y-117117857D01*
X304157143Y-117260714D01*
X304109524Y-117355952D01*
X304061905Y-117403571D01*
X303966667Y-117451190D01*
X303585714Y-117451190D01*
X304538095Y-117879762D02*
X304680952Y-117927381D01*
X304919048Y-117927381D01*
X305014286Y-117879762D01*
X305061905Y-117832143D01*
X305109524Y-117736905D01*
X305109524Y-117641667D01*
X305061905Y-117546429D01*
X305014286Y-117498810D01*
X304919048Y-117451190D01*
X304728571Y-117403571D01*
X304633333Y-117355952D01*
X304585714Y-117308333D01*
X304538095Y-117213095D01*
X304538095Y-117117857D01*
X304585714Y-117022619D01*
X304633333Y-116975000D01*
X304728571Y-116927381D01*
X304966667Y-116927381D01*
X305109524Y-116975000D01*
X306014286Y-116927381D02*
X305538095Y-116927381D01*
X305490476Y-117403571D01*
X305538095Y-117355952D01*
X305633333Y-117308333D01*
X305871429Y-117308333D01*
X305966667Y-117355952D01*
X306014286Y-117403571D01*
X306061905Y-117498810D01*
X306061905Y-117736905D01*
X306014286Y-117832143D01*
X305966667Y-117879762D01*
X305871429Y-117927381D01*
X305633333Y-117927381D01*
X305538095Y-117879762D01*
X305490476Y-117832143D01*
X323207143Y-117927381D02*
X322873809Y-117451190D01*
X322635714Y-117927381D02*
X322635714Y-116927381D01*
X323016667Y-116927381D01*
X323111905Y-116975000D01*
X323159524Y-117022619D01*
X323207143Y-117117857D01*
X323207143Y-117260714D01*
X323159524Y-117355952D01*
X323111905Y-117403571D01*
X323016667Y-117451190D01*
X322635714Y-117451190D01*
X323588095Y-117879762D02*
X323730952Y-117927381D01*
X323969048Y-117927381D01*
X324064286Y-117879762D01*
X324111905Y-117832143D01*
X324159524Y-117736905D01*
X324159524Y-117641667D01*
X324111905Y-117546429D01*
X324064286Y-117498810D01*
X323969048Y-117451190D01*
X323778571Y-117403571D01*
X323683333Y-117355952D01*
X323635714Y-117308333D01*
X323588095Y-117213095D01*
X323588095Y-117117857D01*
X323635714Y-117022619D01*
X323683333Y-116975000D01*
X323778571Y-116927381D01*
X324016667Y-116927381D01*
X324159524Y-116975000D01*
X325016667Y-116927381D02*
X324826190Y-116927381D01*
X324730952Y-116975000D01*
X324683333Y-117022619D01*
X324588095Y-117165476D01*
X324540476Y-117355952D01*
X324540476Y-117736905D01*
X324588095Y-117832143D01*
X324635714Y-117879762D01*
X324730952Y-117927381D01*
X324921429Y-117927381D01*
X325016667Y-117879762D01*
X325064286Y-117832143D01*
X325111905Y-117736905D01*
X325111905Y-117498810D01*
X325064286Y-117403571D01*
X325016667Y-117355952D01*
X324921429Y-117308333D01*
X324730952Y-117308333D01*
X324635714Y-117355952D01*
X324588095Y-117403571D01*
X324540476Y-117498810D01*
X177331845Y-136929762D02*
X177474702Y-136977381D01*
X177712798Y-136977381D01*
X177808036Y-136929762D01*
X177855655Y-136882143D01*
X177903274Y-136786905D01*
X177903274Y-136691667D01*
X177855655Y-136596429D01*
X177808036Y-136548810D01*
X177712798Y-136501190D01*
X177522321Y-136453571D01*
X177427083Y-136405952D01*
X177379464Y-136358333D01*
X177331845Y-136263095D01*
X177331845Y-136167857D01*
X177379464Y-136072619D01*
X177427083Y-136025000D01*
X177522321Y-135977381D01*
X177760417Y-135977381D01*
X177903274Y-136025000D01*
X178331845Y-136977381D02*
X178331845Y-135977381D01*
X178712798Y-135977381D01*
X178808036Y-136025000D01*
X178855655Y-136072619D01*
X178903274Y-136167857D01*
X178903274Y-136310714D01*
X178855655Y-136405952D01*
X178808036Y-136453571D01*
X178712798Y-136501190D01*
X178331845Y-136501190D01*
X179855655Y-136977381D02*
X179284226Y-136977381D01*
X179569940Y-136977381D02*
X179569940Y-135977381D01*
X179474702Y-136120238D01*
X179379464Y-136215476D01*
X179284226Y-136263095D01*
X189238095Y-136929762D02*
X189380952Y-136977381D01*
X189619048Y-136977381D01*
X189714286Y-136929762D01*
X189761905Y-136882143D01*
X189809524Y-136786905D01*
X189809524Y-136691667D01*
X189761905Y-136596429D01*
X189714286Y-136548810D01*
X189619048Y-136501190D01*
X189428571Y-136453571D01*
X189333333Y-136405952D01*
X189285714Y-136358333D01*
X189238095Y-136263095D01*
X189238095Y-136167857D01*
X189285714Y-136072619D01*
X189333333Y-136025000D01*
X189428571Y-135977381D01*
X189666667Y-135977381D01*
X189809524Y-136025000D01*
X190238095Y-136977381D02*
X190238095Y-135977381D01*
X190619048Y-135977381D01*
X190714286Y-136025000D01*
X190761905Y-136072619D01*
X190809524Y-136167857D01*
X190809524Y-136310714D01*
X190761905Y-136405952D01*
X190714286Y-136453571D01*
X190619048Y-136501190D01*
X190238095Y-136501190D01*
X191190476Y-136072619D02*
X191238095Y-136025000D01*
X191333333Y-135977381D01*
X191571429Y-135977381D01*
X191666667Y-136025000D01*
X191714286Y-136072619D01*
X191761905Y-136167857D01*
X191761905Y-136263095D01*
X191714286Y-136405952D01*
X191142857Y-136977381D01*
X191761905Y-136977381D01*
X311277381Y-60777381D02*
X311277381Y-59777381D01*
X311848810Y-60777381D02*
X311420238Y-60205952D01*
X311848810Y-59777381D02*
X311277381Y-60348810D01*
X312039286Y-60872619D02*
X312801191Y-60872619D01*
X313372620Y-60253571D02*
X313515477Y-60301190D01*
X313563096Y-60348810D01*
X313610715Y-60444048D01*
X313610715Y-60586905D01*
X313563096Y-60682143D01*
X313515477Y-60729762D01*
X313420239Y-60777381D01*
X313039286Y-60777381D01*
X313039286Y-59777381D01*
X313372620Y-59777381D01*
X313467858Y-59825000D01*
X313515477Y-59872619D01*
X313563096Y-59967857D01*
X313563096Y-60063095D01*
X313515477Y-60158333D01*
X313467858Y-60205952D01*
X313372620Y-60253571D01*
X313039286Y-60253571D01*
X313991667Y-60491667D02*
X314467858Y-60491667D01*
X313896429Y-60777381D02*
X314229762Y-59777381D01*
X314563096Y-60777381D01*
X315467858Y-60682143D02*
X315420239Y-60729762D01*
X315277382Y-60777381D01*
X315182144Y-60777381D01*
X315039286Y-60729762D01*
X314944048Y-60634524D01*
X314896429Y-60539286D01*
X314848810Y-60348810D01*
X314848810Y-60205952D01*
X314896429Y-60015476D01*
X314944048Y-59920238D01*
X315039286Y-59825000D01*
X315182144Y-59777381D01*
X315277382Y-59777381D01*
X315420239Y-59825000D01*
X315467858Y-59872619D01*
X315896429Y-60777381D02*
X315896429Y-59777381D01*
X316467858Y-60777381D02*
X316039286Y-60205952D01*
X316467858Y-59777381D02*
X315896429Y-60348810D01*
X317420239Y-60777381D02*
X316848810Y-60777381D01*
X317134524Y-60777381D02*
X317134524Y-59777381D01*
X317039286Y-59920238D01*
X316944048Y-60015476D01*
X316848810Y-60063095D01*
M02*
