%TF.GenerationSoftware,KiCad,Pcbnew,4.0.7*%
%TF.CreationDate,2018-04-05T00:20:22-07:00*%
%TF.ProjectId,VoyagerII,566F796167657249492E6B696361645F,rev?*%
%TF.FileFunction,Profile,NP*%
%FSLAX46Y46*%
G04 Gerber Fmt 4.6, Leading zero omitted, Abs format (unit mm)*
G04 Created by KiCad (PCBNEW 4.0.7) date 04/05/18 00:20:22*
%MOMM*%
%LPD*%
G01*
G04 APERTURE LIST*
%ADD10C,0.100000*%
%ADD11C,0.300000*%
G04 APERTURE END LIST*
D10*
D11*
X50000000Y-47950000D02*
X60200000Y-47950000D01*
X71700000Y-47450000D02*
G75*
G03X72200000Y-47950000I500000J0D01*
G01*
X60200000Y-47950000D02*
G75*
G03X60700000Y-47450000I0J500000D01*
G01*
X60700000Y-47450000D02*
X71700000Y-47450000D01*
X51800000Y-105850000D02*
G75*
G03X53200000Y-104450000I0J1400000D01*
G01*
X329200000Y-103050000D02*
X333000000Y-103050000D01*
X329200000Y-105850000D02*
X333000000Y-105850000D01*
X333000000Y-103050000D02*
X333000000Y-49950000D01*
X333000000Y-105850000D02*
X333000000Y-140550000D01*
X329200000Y-105850000D02*
G75*
G02X327800000Y-104450000I0J1400000D01*
G01*
X327800000Y-104450000D02*
G75*
G02X329200000Y-103050000I1400000J0D01*
G01*
X48000000Y-103050000D02*
X48000000Y-49950000D01*
X51800000Y-103050000D02*
X48000000Y-103050000D01*
X53200000Y-104450000D02*
G75*
G03X51800000Y-103050000I-1400000J0D01*
G01*
X48000000Y-105850000D02*
X51800000Y-105850000D01*
X48000000Y-140550000D02*
X48000000Y-105850000D01*
X333000000Y-49950000D02*
G75*
G03X331000000Y-47950000I-2000000J0D01*
G01*
X331000000Y-142550000D02*
G75*
G03X333000000Y-140550000I0J2000000D01*
G01*
X48000000Y-140550000D02*
G75*
G03X50000000Y-142550000I2000000J0D01*
G01*
X50000000Y-47950000D02*
G75*
G03X48000000Y-49950000I0J-2000000D01*
G01*
X331000000Y-47950000D02*
X72200000Y-47950000D01*
X50000000Y-142550000D02*
X331000000Y-142550000D01*
M02*
