M48
;DRILL file {KiCad 4.0.7} date 04/17/18 21:46:34
;FORMAT={3:3/ absolute / metric / suppress trailing zeros}
FMAT,2
METRIC,LZ
T1C0.400
T2C0.600
T3C0.762
T4C1.040
T5C1.470
T6C2.200
%
G90
G05
M71
T1
X052578Y-109855
X053975Y-082042
X05461Y-064135
X05461Y-097536
X055626Y-077724
X056134Y-069596
X056388Y-08128
X05715Y-054483
X057404Y-081788
X058547Y-08509
X060071Y-12573
X060198Y-055372
X060198Y-059055
X061341Y-103505
X061722Y-064643
X061722Y-067056
X062738Y-058674
X063438Y-05453
X063627Y-057912
X063838Y-05383
X064238Y-05453
X064262Y-060833
X064262Y-062103
X064389Y-057277
X064638Y-05383
X065025Y-066675
X065038Y-05453
X065405Y-06223
X065438Y-05382
X065508Y-065508
X065508Y-067842
X065786Y-105029
X065838Y-05453
X06604Y-057912
X066421Y-06223
X066638Y-05453
X066675Y-065025
X066675Y-068325
X066675Y-08255
X066802Y-057277
X066929Y-107823
X067038Y-05383
X067438Y-05453
X067564Y-097282
X067838Y-05383
X067842Y-065508
X067842Y-067842
X068199Y-061976
X068238Y-05453
X068263Y-100806
X068325Y-066675
X068326Y-098044
X068453Y-057658
X068638Y-05383
X068707Y-093853
X069038Y-05453
X069088Y-104648
X069215Y-098933
X069977Y-092583
X069977Y-093599
X070104Y-107315
X070231Y-08001
X070231Y-08255
X070612Y-084582
X070612Y-086614
X070612Y-104648
X070866Y-066675
X070866Y-069215
X070866Y-071755
X070866Y-074295
X070993Y-0762
X071375Y-13335
X071628Y-104648
X071755Y-051308
X071755Y-095885
X071755Y-096901
X071858Y-132183
X071858Y-134517
X07239Y-098933
X072771Y-095377
X073025Y-076581
X073025Y-1317
X073025Y-135
X073152Y-088392
X07366Y-064643
X07366Y-085344
X073914Y-067183
X073914Y-087884
X074041Y-081407
X074041Y-097663
X074041Y-100838
X074168Y-11684
X074192Y-132183
X074192Y-134517
X074675Y-13335
X074676Y-110871
X075565Y-101727
X075565Y-111887
X075819Y-074549
X075946Y-119126
X075946Y-134747
X076073Y-066421
X076073Y-087122
X076327Y-08255
X076454Y-101727
X076454Y-136271
X076835Y-079883
X076962Y-120142
X077343Y-101727
X077343Y-106426
X077343Y-109093
X07747Y-113411
X07747Y-11938
X077724Y-099822
X077851Y-074549
X077851Y-12827
X078359Y-097282
X078359Y-110109
X078994Y-081407
X078994Y-084328
X078994Y-085725
X078994Y-118999
X079883Y-109347
X080137Y-061849
X080137Y-066675
X080137Y-105156
X080645Y-097028
X080899Y-111125
X081661Y-059055
X081661Y-098425
X081661Y-100806
X081788Y-096901
X083058Y-11811
X083566Y-104902
X084201Y-092329
X084455Y-065278
X084582Y-096774
X084582Y-098425
X084836Y-117856
X084931Y-100012
X08509Y-061341
X085471Y-120269
X085852Y-117856
X087503Y-062992
X089027Y-116586
X089154Y-105537
X089154Y-106553
X089789Y-063373
X089916Y-120142
X090424Y-112649
X092964Y-115443
X092964Y-117729
X093726Y-124079
X09525Y-08128
X09525Y-126111
X100076Y-10033
X100806Y-092869
X101346Y-065659
X107442Y-124206
X110871Y-125857
X1143Y-08128
X119126Y-10033
X119761Y-127254
X123063Y-139065
X126492Y-11938
X126938Y-13335
X127421Y-132183
X127421Y-134517
X128588Y-1317
X128588Y-135
X128905Y-069469
X129667Y-122555
X129754Y-132183
X129754Y-134517
X130237Y-13335
X131064Y-121412
X13335Y-08128
X138176Y-10033
X145288Y-137668
X145288Y-139192
X1524Y-08128
X154813Y-067818
X156306Y-066675
X15679Y-065508
X15679Y-067842
X157226Y-10033
X157956Y-065025
X157956Y-068325
X159123Y-065508
X159123Y-067842
X159606Y-066675
X163449Y-120777
X163449Y-12192
X164084Y-137795
X165862Y-127381
X17145Y-08128
X172593Y-123317
X174563Y-09525
X175046Y-094083
X175046Y-096417
X17526Y-121793
X176213Y-0936
X176213Y-0969
X176276Y-10033
X177379Y-094083
X177379Y-096417
X177862Y-09525
X178689Y-127254
X178689Y-130683
X182118Y-135001
X1905Y-08128
X195326Y-091059
X195326Y-10033
X199962Y-13335
X200446Y-132183
X200446Y-134517
X200914Y-06223
X201612Y-1317
X201612Y-135
X202779Y-132183
X202779Y-134517
X203263Y-13335
X20955Y-08128
X214376Y-10033
X216154Y-122682
X217805Y-12954
X218059Y-121031
X219075Y-137414
X219075Y-139573
X2286Y-08128
X233426Y-10033
X242443Y-119253
X24765Y-08128
X251556Y-066675
X251714Y-122936
X25204Y-065508
X25204Y-067842
X252476Y-10033
X253206Y-065025
X253206Y-068325
X254373Y-065508
X254373Y-067842
X254856Y-066675
X255525Y-123825
X256008Y-122658
X256008Y-124992
X257175Y-122175
X257175Y-125475
X258342Y-122658
X258342Y-124992
X258825Y-123825
X263271Y-120777
X2667Y-08128
X271526Y-10033
X272034Y-122174
X274574Y-129413
X276479Y-120142
X28575Y-08128
X289941Y-067564
X290576Y-10033
X291973Y-084074
X3048Y-08128
X304927Y-105029
X307975Y-106045
X309626Y-060833
X310388Y-067818
X312675Y-125413
X313158Y-124246
X313158Y-126579
X314325Y-123763
X314325Y-127063
X315492Y-124246
X315492Y-126579
X315975Y-125413
X324104Y-068326
X326771Y-122174
X331725Y-066675
X332208Y-065508
X332208Y-067842
X333375Y-065025
X333375Y-068325
X334542Y-065508
X334542Y-067842
X335025Y-066675
T3
X051435Y-084455
X051435Y-086995
X056515Y-084455
X056515Y-086995
T4
X05588Y-06223
X058261Y-10033
X058261Y-13843
X05842Y-06223
X060643Y-08128
X060643Y-13843
X060801Y-10033
X060801Y-13843
X063024Y-10033
X063182Y-08128
X063182Y-13843
X065564Y-10033
X067786Y-11938
X070326Y-11938
X07493Y-06223
X07747Y-06223
X082074Y-13843
X084455Y-08128
X084614Y-13843
X086836Y-13843
X086995Y-08128
X089218Y-10033
X089218Y-13843
X089376Y-13843
X091758Y-10033
X091758Y-13843
X09398Y-06223
X09652Y-06223
X098743Y-11938
X101283Y-11938
X103505Y-08128
X105886Y-13843
X106045Y-08128
X108268Y-10033
X108426Y-13843
X110807Y-10033
X11303Y-06223
X11303Y-13843
X11557Y-06223
X11557Y-13843
X117793Y-11938
X120333Y-11938
X122555Y-08128
X125095Y-08128
X127318Y-10033
X129857Y-10033
X13208Y-06223
X13462Y-06223
X136843Y-11938
X139224Y-13843
X139382Y-11938
X141605Y-08128
X141764Y-13843
X144145Y-08128
X146368Y-10033
X148749Y-13843
X148908Y-10033
X15113Y-06223
X151289Y-13843
X15367Y-06223
X155892Y-11938
X158433Y-11938
X160655Y-08128
X163195Y-08128
X165418Y-10033
X167958Y-10033
X17018Y-06223
X17018Y-13843
X172561Y-13843
X17272Y-06223
X17272Y-13843
X174943Y-11938
X175101Y-13843
X177324Y-13843
X177483Y-11938
X179705Y-08128
X179864Y-13843
X182245Y-08128
X184468Y-10033
X184468Y-13843
X187008Y-10033
X187008Y-13843
X18923Y-06223
X18923Y-13843
X19177Y-06223
X19177Y-13843
X193992Y-11938
X196533Y-11938
X198755Y-08128
X201295Y-08128
X203517Y-10033
X206058Y-10033
X20828Y-06223
X210661Y-13843
X21082Y-06223
X213042Y-11938
X213201Y-13843
X215583Y-11938
X217805Y-08128
X220345Y-08128
X222568Y-10033
X224949Y-13843
X225108Y-10033
X22733Y-06223
X227489Y-13843
X22987Y-06223
X232093Y-11938
X234633Y-11938
X236855Y-08128
X239395Y-08128
X241617Y-10033
X244158Y-10033
X24638Y-06223
X24638Y-13843
X24892Y-06223
X24892Y-13843
X251142Y-11938
X251142Y-13843
X253683Y-11938
X253683Y-13843
X255905Y-08128
X258445Y-08128
X260667Y-10033
X263049Y-13843
X263208Y-10033
X26543Y-06223
X26543Y-13843
X265589Y-13843
X26797Y-06223
X26797Y-13843
X270193Y-11938
X272733Y-11938
X274955Y-08128
X277495Y-08128
X279717Y-10033
X279717Y-13843
X282258Y-10033
X282258Y-13843
X28448Y-06223
X28448Y-13843
X28702Y-06223
X28702Y-13843
X294005Y-08128
X296386Y-11938
X296545Y-08128
X298926Y-11938
X30353Y-06223
X30353Y-13843
X30607Y-06223
X30607Y-13843
X310674Y-10033
X313055Y-06223
X313214Y-10033
X315595Y-06223
X317818Y-08128
X320358Y-08128
X32258Y-06223
X32258Y-11938
X32258Y-13843
X32512Y-06223
X32512Y-11938
X32512Y-13843
X34163Y-06223
X34163Y-08128
X34163Y-10033
X34163Y-11938
X34163Y-13843
X34417Y-06223
X34417Y-08128
X34417Y-10033
X34417Y-11938
X34417Y-13843
T5
X05334Y-05461
X05465Y-05315
X055721Y-09271
X055721Y-13081
X057031Y-09125
X057031Y-12935
X058103Y-07366
X058103Y-13081
X059413Y-0722
X059413Y-12935
X05965Y-05265
X05969Y-05207
X060484Y-09271
X061794Y-09125
X062031Y-09075
X062031Y-12885
X062071Y-09017
X062071Y-12827
X064413Y-0717
X064413Y-12885
X064453Y-07112
X064453Y-12827
X065246Y-11176
X066556Y-1103
X066794Y-09075
X066834Y-09017
X071556Y-1098
X071596Y-10922
X07239Y-05461
X0737Y-05315
X0787Y-05265
X07874Y-05207
X079534Y-13081
X080844Y-12935
X081915Y-07366
X083225Y-0722
X084296Y-13081
X085606Y-12935
X085844Y-12885
X085884Y-12827
X086678Y-09271
X086678Y-13081
X087988Y-09125
X087988Y-12935
X088225Y-0717
X088265Y-07112
X090606Y-12885
X090646Y-12827
X09144Y-05461
X09275Y-05315
X092988Y-09075
X092988Y-12885
X093027Y-09017
X093027Y-12827
X096203Y-11176
X097512Y-1103
X09775Y-05265
X09779Y-05207
X100965Y-07366
X102275Y-0722
X102513Y-1098
X102552Y-10922
X103346Y-13081
X104656Y-12935
X105727Y-09271
X107038Y-09125
X107275Y-0717
X107315Y-07112
X109656Y-12885
X109696Y-12827
X11049Y-05461
X11049Y-13081
X1118Y-05315
X1118Y-12935
X112038Y-09075
X112078Y-09017
X115253Y-11176
X116563Y-1103
X1168Y-05265
X1168Y-12885
X11684Y-05207
X11684Y-12827
X120015Y-07366
X121325Y-0722
X121563Y-1098
X121602Y-10922
X124777Y-09271
X126088Y-09125
X126325Y-0717
X126365Y-07112
X12954Y-05461
X13085Y-05315
X131088Y-09075
X131128Y-09017
X134302Y-11176
X135612Y-1103
X13585Y-05265
X13589Y-05207
X136684Y-13081
X137994Y-12935
X139065Y-07366
X140375Y-0722
X140612Y-1098
X140653Y-10922
X142994Y-12885
X143034Y-12827
X143827Y-09271
X145138Y-09125
X145375Y-0717
X145415Y-07112
X146209Y-13081
X147519Y-12935
X14859Y-05461
X1499Y-05315
X150138Y-09075
X150177Y-09017
X152519Y-12885
X152559Y-12827
X153352Y-11176
X154663Y-1103
X1549Y-05265
X15494Y-05207
X158115Y-07366
X159425Y-0722
X159663Y-1098
X159702Y-10922
X162878Y-09271
X164188Y-09125
X164425Y-0717
X164465Y-07112
X16764Y-05461
X16764Y-13081
X16895Y-05315
X16895Y-12935
X169188Y-09075
X169228Y-09017
X170021Y-13081
X171331Y-12935
X172403Y-11176
X173713Y-1103
X17395Y-05265
X17395Y-12885
X17399Y-05207
X17399Y-12827
X174784Y-13081
X176094Y-12935
X176331Y-12885
X176371Y-12827
X177165Y-07366
X178475Y-0722
X178713Y-1098
X178753Y-10922
X181094Y-12885
X181134Y-12827
X181928Y-09271
X181928Y-13081
X183237Y-09125
X183237Y-12935
X183475Y-0717
X183515Y-07112
X18669Y-05461
X18669Y-13081
X188Y-05315
X188Y-12935
X188237Y-09075
X188237Y-12885
X188278Y-09017
X188278Y-12827
X191453Y-11176
X192763Y-1103
X193Y-05265
X193Y-12885
X19304Y-05207
X19304Y-12827
X196215Y-07366
X197525Y-0722
X197763Y-1098
X197803Y-10922
X200978Y-09271
X202288Y-09125
X202525Y-0717
X202565Y-07112
X20574Y-05461
X20705Y-05315
X207288Y-09075
X207327Y-09017
X208121Y-13081
X209431Y-12935
X210503Y-11176
X211813Y-1103
X21205Y-05265
X21209Y-05207
X214431Y-12885
X214471Y-12827
X215265Y-07366
X216575Y-0722
X216813Y-1098
X216853Y-10922
X220028Y-09271
X221338Y-09125
X221575Y-0717
X221615Y-07112
X222409Y-13081
X223719Y-12935
X22479Y-05461
X2261Y-05315
X226338Y-09075
X226378Y-09017
X228719Y-12885
X228759Y-12827
X229552Y-11176
X230863Y-1103
X2311Y-05265
X23114Y-05207
X234315Y-07366
X235625Y-0722
X235863Y-1098
X235903Y-10922
X239077Y-09271
X240388Y-09125
X240625Y-0717
X240665Y-07112
X24384Y-05461
X24384Y-13081
X24515Y-05315
X24515Y-12935
X245388Y-09075
X245427Y-09017
X248603Y-11176
X248603Y-13081
X249913Y-1103
X249913Y-12935
X25015Y-05265
X25015Y-12885
X25019Y-05207
X25019Y-12827
X253365Y-07366
X254675Y-0722
X254913Y-1098
X254913Y-12885
X254952Y-10922
X254952Y-12827
X258128Y-09271
X259438Y-09125
X259675Y-0717
X259715Y-07112
X260509Y-13081
X261819Y-12935
X26289Y-05461
X26289Y-13081
X2642Y-05315
X2642Y-12935
X264438Y-09075
X264477Y-09017
X266819Y-12885
X266859Y-12827
X267652Y-11176
X268963Y-1103
X2692Y-05265
X2692Y-12885
X26924Y-05207
X26924Y-12827
X272415Y-07366
X273725Y-0722
X273963Y-1098
X274003Y-10922
X277178Y-09271
X277178Y-13081
X278488Y-09125
X278488Y-12935
X278725Y-0717
X278765Y-07112
X28194Y-05461
X28194Y-13081
X28325Y-05315
X28325Y-12935
X283488Y-09075
X283488Y-12885
X283527Y-09017
X283527Y-12827
X28825Y-05265
X28825Y-12885
X28829Y-05207
X28829Y-12827
X291465Y-07366
X292775Y-0722
X293846Y-11176
X295156Y-1103
X297775Y-0717
X297815Y-07112
X300156Y-1098
X300196Y-10922
X30099Y-05461
X30099Y-13081
X3023Y-05315
X3023Y-12935
X3073Y-05265
X3073Y-12885
X30734Y-05207
X30734Y-12827
X308134Y-09271
X309444Y-09125
X310515Y-05461
X311825Y-05315
X314444Y-09075
X314484Y-09017
X315277Y-07366
X316588Y-0722
X316825Y-05265
X316865Y-05207
X32004Y-05461
X32004Y-11176
X32004Y-13081
X32135Y-05315
X32135Y-1103
X32135Y-12935
X321588Y-0717
X321628Y-07112
X32635Y-05265
X32635Y-1098
X32635Y-12885
X32639Y-05207
X32639Y-10922
X32639Y-12827
X33909Y-05461
X33909Y-07366
X33909Y-09271
X33909Y-11176
X33909Y-13081
X3404Y-05315
X3404Y-0722
X3404Y-09125
X3404Y-1103
X3404Y-12935
X3454Y-05265
X3454Y-0717
X3454Y-09075
X3454Y-1098
X3454Y-12885
X34544Y-05207
X34544Y-07112
X34544Y-09017
X34544Y-10922
X34544Y-12827
T6
X066675Y-066675
X073025Y-13335
X128588Y-13335
X157956Y-066675
X176213Y-09525
X201612Y-13335
X253206Y-066675
X257175Y-123825
X314325Y-125413
X333375Y-066675
T2
X061968Y-04835G85X061968Y-04895
G05
X061968Y-05308G85X061968Y-05368
G05
X070508Y-04835G85X070508Y-04895
G05
X070508Y-05308G85X070508Y-05368
G05
T0
M30
