%TF.GenerationSoftware,KiCad,Pcbnew,4.0.7*%
%TF.CreationDate,2018-04-07T01:35:23-07:00*%
%TF.ProjectId,VoyagerII,566F796167657249492E6B696361645F,rev?*%
%TF.FileFunction,Soldermask,Top*%
%FSLAX46Y46*%
G04 Gerber Fmt 4.6, Leading zero omitted, Abs format (unit mm)*
G04 Created by KiCad (PCBNEW 4.0.7) date 04/07/18 01:35:23*
%MOMM*%
%LPD*%
G01*
G04 APERTURE LIST*
%ADD10C,0.100000*%
%ADD11C,2.501900*%
%ADD12C,0.010000*%
%ADD13C,4.387800*%
%ADD14C,2.150000*%
%ADD15C,3.448000*%
%ADD16C,7.401300*%
%ADD17C,7.400240*%
%ADD18C,1.400000*%
%ADD19O,1.400000X2.000000*%
%ADD20O,1.400000X2.500000*%
%ADD21C,1.050000*%
%ADD22C,1.388060*%
%ADD23C,1.385520*%
%ADD24C,1.924000*%
%ADD25R,1.924000X1.924000*%
%ADD26C,2.200000*%
G04 APERTURE END LIST*
D10*
D11*
X329200000Y-101799050D02*
X333000000Y-101799050D01*
X326549050Y-104450000D02*
G75*
G02X329200000Y-101799050I2650950J0D01*
G01*
X329200000Y-107100950D02*
G75*
G02X326549050Y-104450000I0J2650950D01*
G01*
X329200000Y-107100950D02*
X333050000Y-107100950D01*
X48000000Y-101799050D02*
X51800000Y-101799050D01*
X54450950Y-104450000D02*
G75*
G03X51800000Y-101799050I-2650950J0D01*
G01*
X51800000Y-107100950D02*
G75*
G03X54450950Y-104450000I0J2650950D01*
G01*
X48000000Y-107100950D02*
X51800000Y-107100950D01*
D12*
G36*
X227639735Y-129550138D02*
X227912618Y-129576784D01*
X227937695Y-129580249D01*
X228212326Y-129629208D01*
X228480227Y-129697098D01*
X228740648Y-129783432D01*
X228992840Y-129887721D01*
X229236051Y-130009477D01*
X229469532Y-130148211D01*
X229692533Y-130303434D01*
X229904304Y-130474659D01*
X230104095Y-130661398D01*
X230291155Y-130863160D01*
X230464736Y-131079459D01*
X230624086Y-131309806D01*
X230645374Y-131343400D01*
X230779096Y-131575729D01*
X230895453Y-131817651D01*
X230994194Y-132067803D01*
X231075068Y-132324824D01*
X231137825Y-132587352D01*
X231182214Y-132854025D01*
X231207985Y-133123481D01*
X231214886Y-133394359D01*
X231202668Y-133665296D01*
X231171080Y-133934931D01*
X231147458Y-134071360D01*
X231085042Y-134342506D01*
X231003617Y-134606677D01*
X230903474Y-134863265D01*
X230784902Y-135111662D01*
X230648190Y-135351258D01*
X230493628Y-135581445D01*
X230329193Y-135792447D01*
X230269449Y-135860819D01*
X230198057Y-135937498D01*
X230118968Y-136018604D01*
X230036132Y-136100257D01*
X229953500Y-136178578D01*
X229875022Y-136249689D01*
X229804648Y-136309709D01*
X229791895Y-136320041D01*
X229569165Y-136485687D01*
X229336224Y-136633961D01*
X229093974Y-136764492D01*
X228843315Y-136876909D01*
X228585148Y-136970838D01*
X228320373Y-137045910D01*
X228049891Y-137101752D01*
X227820855Y-137133321D01*
X227723095Y-137141950D01*
X227613748Y-137148469D01*
X227498935Y-137152726D01*
X227384774Y-137154569D01*
X227277385Y-137153848D01*
X227182889Y-137150411D01*
X227167733Y-137149493D01*
X226889602Y-137121384D01*
X226616414Y-137073721D01*
X226348928Y-137006805D01*
X226087901Y-136920940D01*
X225834092Y-136816428D01*
X225588258Y-136693574D01*
X225351157Y-136552679D01*
X225123547Y-136394046D01*
X224966927Y-136269818D01*
X224898555Y-136210074D01*
X224821876Y-136138682D01*
X224740770Y-136059593D01*
X224659117Y-135976757D01*
X224580796Y-135894125D01*
X224509685Y-135815647D01*
X224449665Y-135745273D01*
X224439333Y-135732520D01*
X224273900Y-135510035D01*
X224125535Y-135276912D01*
X223994704Y-135034160D01*
X223881873Y-134782785D01*
X223787507Y-134523795D01*
X223780204Y-134498080D01*
X225611055Y-134498080D01*
X225611055Y-135016240D01*
X226129215Y-135016240D01*
X226129215Y-134498080D01*
X228659055Y-134498080D01*
X228659055Y-135016240D01*
X229177215Y-135016240D01*
X229177215Y-134498080D01*
X228659055Y-134498080D01*
X226129215Y-134498080D01*
X225611055Y-134498080D01*
X223780204Y-134498080D01*
X223712073Y-134258200D01*
X223671257Y-134071360D01*
X223630062Y-133804448D01*
X223608012Y-133533945D01*
X223607546Y-133492240D01*
X226129215Y-133492240D01*
X226129215Y-134010400D01*
X226647375Y-134010400D01*
X226647375Y-133492240D01*
X227135055Y-133492240D01*
X227135055Y-134010400D01*
X227653215Y-134010400D01*
X227653215Y-133492240D01*
X228171375Y-133492240D01*
X228171375Y-134010400D01*
X228659055Y-134010400D01*
X228659055Y-133492240D01*
X228171375Y-133492240D01*
X227653215Y-133492240D01*
X227135055Y-133492240D01*
X226647375Y-133492240D01*
X226129215Y-133492240D01*
X223607546Y-133492240D01*
X223604968Y-133261818D01*
X223620791Y-132990032D01*
X223655342Y-132720554D01*
X223702259Y-132486400D01*
X226647375Y-132486400D01*
X226647375Y-132974080D01*
X227135055Y-132974080D01*
X227135055Y-132486400D01*
X227653215Y-132486400D01*
X227653215Y-132974080D01*
X228171375Y-132974080D01*
X228171375Y-132486400D01*
X227653215Y-132486400D01*
X227135055Y-132486400D01*
X226647375Y-132486400D01*
X223702259Y-132486400D01*
X223708481Y-132455350D01*
X223780071Y-132196388D01*
X223810218Y-132105400D01*
X223909890Y-131848440D01*
X224027621Y-131600218D01*
X224112634Y-131450080D01*
X227135055Y-131450080D01*
X227135055Y-131968240D01*
X227653215Y-131968240D01*
X227653215Y-131450080D01*
X227135055Y-131450080D01*
X224112634Y-131450080D01*
X224162734Y-131361603D01*
X224314553Y-131133468D01*
X224482399Y-130916683D01*
X224665597Y-130712121D01*
X224863469Y-130520652D01*
X225075338Y-130343148D01*
X225300527Y-130180480D01*
X225311335Y-130173276D01*
X225544433Y-130030555D01*
X225786711Y-129905577D01*
X226036978Y-129798613D01*
X226294044Y-129709930D01*
X226556721Y-129639797D01*
X226823818Y-129588483D01*
X227094146Y-129556256D01*
X227366515Y-129543385D01*
X227639735Y-129550138D01*
X227639735Y-129550138D01*
G37*
X227639735Y-129550138D02*
X227912618Y-129576784D01*
X227937695Y-129580249D01*
X228212326Y-129629208D01*
X228480227Y-129697098D01*
X228740648Y-129783432D01*
X228992840Y-129887721D01*
X229236051Y-130009477D01*
X229469532Y-130148211D01*
X229692533Y-130303434D01*
X229904304Y-130474659D01*
X230104095Y-130661398D01*
X230291155Y-130863160D01*
X230464736Y-131079459D01*
X230624086Y-131309806D01*
X230645374Y-131343400D01*
X230779096Y-131575729D01*
X230895453Y-131817651D01*
X230994194Y-132067803D01*
X231075068Y-132324824D01*
X231137825Y-132587352D01*
X231182214Y-132854025D01*
X231207985Y-133123481D01*
X231214886Y-133394359D01*
X231202668Y-133665296D01*
X231171080Y-133934931D01*
X231147458Y-134071360D01*
X231085042Y-134342506D01*
X231003617Y-134606677D01*
X230903474Y-134863265D01*
X230784902Y-135111662D01*
X230648190Y-135351258D01*
X230493628Y-135581445D01*
X230329193Y-135792447D01*
X230269449Y-135860819D01*
X230198057Y-135937498D01*
X230118968Y-136018604D01*
X230036132Y-136100257D01*
X229953500Y-136178578D01*
X229875022Y-136249689D01*
X229804648Y-136309709D01*
X229791895Y-136320041D01*
X229569165Y-136485687D01*
X229336224Y-136633961D01*
X229093974Y-136764492D01*
X228843315Y-136876909D01*
X228585148Y-136970838D01*
X228320373Y-137045910D01*
X228049891Y-137101752D01*
X227820855Y-137133321D01*
X227723095Y-137141950D01*
X227613748Y-137148469D01*
X227498935Y-137152726D01*
X227384774Y-137154569D01*
X227277385Y-137153848D01*
X227182889Y-137150411D01*
X227167733Y-137149493D01*
X226889602Y-137121384D01*
X226616414Y-137073721D01*
X226348928Y-137006805D01*
X226087901Y-136920940D01*
X225834092Y-136816428D01*
X225588258Y-136693574D01*
X225351157Y-136552679D01*
X225123547Y-136394046D01*
X224966927Y-136269818D01*
X224898555Y-136210074D01*
X224821876Y-136138682D01*
X224740770Y-136059593D01*
X224659117Y-135976757D01*
X224580796Y-135894125D01*
X224509685Y-135815647D01*
X224449665Y-135745273D01*
X224439333Y-135732520D01*
X224273900Y-135510035D01*
X224125535Y-135276912D01*
X223994704Y-135034160D01*
X223881873Y-134782785D01*
X223787507Y-134523795D01*
X223780204Y-134498080D01*
X225611055Y-134498080D01*
X225611055Y-135016240D01*
X226129215Y-135016240D01*
X226129215Y-134498080D01*
X228659055Y-134498080D01*
X228659055Y-135016240D01*
X229177215Y-135016240D01*
X229177215Y-134498080D01*
X228659055Y-134498080D01*
X226129215Y-134498080D01*
X225611055Y-134498080D01*
X223780204Y-134498080D01*
X223712073Y-134258200D01*
X223671257Y-134071360D01*
X223630062Y-133804448D01*
X223608012Y-133533945D01*
X223607546Y-133492240D01*
X226129215Y-133492240D01*
X226129215Y-134010400D01*
X226647375Y-134010400D01*
X226647375Y-133492240D01*
X227135055Y-133492240D01*
X227135055Y-134010400D01*
X227653215Y-134010400D01*
X227653215Y-133492240D01*
X228171375Y-133492240D01*
X228171375Y-134010400D01*
X228659055Y-134010400D01*
X228659055Y-133492240D01*
X228171375Y-133492240D01*
X227653215Y-133492240D01*
X227135055Y-133492240D01*
X226647375Y-133492240D01*
X226129215Y-133492240D01*
X223607546Y-133492240D01*
X223604968Y-133261818D01*
X223620791Y-132990032D01*
X223655342Y-132720554D01*
X223702259Y-132486400D01*
X226647375Y-132486400D01*
X226647375Y-132974080D01*
X227135055Y-132974080D01*
X227135055Y-132486400D01*
X227653215Y-132486400D01*
X227653215Y-132974080D01*
X228171375Y-132974080D01*
X228171375Y-132486400D01*
X227653215Y-132486400D01*
X227135055Y-132486400D01*
X226647375Y-132486400D01*
X223702259Y-132486400D01*
X223708481Y-132455350D01*
X223780071Y-132196388D01*
X223810218Y-132105400D01*
X223909890Y-131848440D01*
X224027621Y-131600218D01*
X224112634Y-131450080D01*
X227135055Y-131450080D01*
X227135055Y-131968240D01*
X227653215Y-131968240D01*
X227653215Y-131450080D01*
X227135055Y-131450080D01*
X224112634Y-131450080D01*
X224162734Y-131361603D01*
X224314553Y-131133468D01*
X224482399Y-130916683D01*
X224665597Y-130712121D01*
X224863469Y-130520652D01*
X225075338Y-130343148D01*
X225300527Y-130180480D01*
X225311335Y-130173276D01*
X225544433Y-130030555D01*
X225786711Y-129905577D01*
X226036978Y-129798613D01*
X226294044Y-129709930D01*
X226556721Y-129639797D01*
X226823818Y-129588483D01*
X227094146Y-129556256D01*
X227366515Y-129543385D01*
X227639735Y-129550138D01*
G36*
X216376072Y-129551189D02*
X216656281Y-129577606D01*
X216935778Y-129624253D01*
X216951560Y-129627498D01*
X217209216Y-129691256D01*
X217463094Y-129774424D01*
X217711662Y-129876214D01*
X217953385Y-129995839D01*
X218186731Y-130132513D01*
X218410166Y-130285449D01*
X218622156Y-130453861D01*
X218705820Y-130527574D01*
X218834344Y-130648716D01*
X218949829Y-130767560D01*
X219057774Y-130890124D01*
X219163680Y-131022429D01*
X219191375Y-131058920D01*
X219351427Y-131288117D01*
X219492679Y-131524839D01*
X219615348Y-131769571D01*
X219719652Y-132022797D01*
X219805809Y-132285001D01*
X219874038Y-132556669D01*
X219881939Y-132594349D01*
X219926923Y-132863043D01*
X219952432Y-133133734D01*
X219958477Y-133404760D01*
X219945067Y-133674460D01*
X219912214Y-133941174D01*
X219872490Y-134148805D01*
X219851275Y-134239136D01*
X219826748Y-134335222D01*
X219800617Y-134430842D01*
X219774588Y-134519774D01*
X219750371Y-134595799D01*
X219747325Y-134604760D01*
X219722762Y-134671831D01*
X219691753Y-134749542D01*
X219656162Y-134833783D01*
X219617850Y-134920446D01*
X219578684Y-135005423D01*
X219540524Y-135084603D01*
X219505237Y-135153880D01*
X219474684Y-135209144D01*
X219468523Y-135219440D01*
X219441607Y-135263496D01*
X219409489Y-135315976D01*
X219377610Y-135367995D01*
X219365899Y-135387080D01*
X219342129Y-135423897D01*
X219308945Y-135472646D01*
X219269296Y-135529134D01*
X219226132Y-135589165D01*
X219182400Y-135648545D01*
X219177142Y-135655577D01*
X219064194Y-135796934D01*
X218936705Y-135939896D01*
X218799437Y-136079705D01*
X218657145Y-136211601D01*
X218514591Y-136330826D01*
X218459577Y-136373142D01*
X218400566Y-136416740D01*
X218340389Y-136460133D01*
X218283241Y-136500371D01*
X218233317Y-136534506D01*
X218194811Y-136559590D01*
X218191080Y-136561899D01*
X218141811Y-136592114D01*
X218088445Y-136624791D01*
X218039870Y-136654492D01*
X218023440Y-136664523D01*
X217980697Y-136688779D01*
X217923065Y-136718823D01*
X217854473Y-136752778D01*
X217778848Y-136788766D01*
X217700119Y-136824908D01*
X217622216Y-136859326D01*
X217566240Y-136883067D01*
X217380737Y-136952496D01*
X217180841Y-137013300D01*
X216970982Y-137064509D01*
X216755592Y-137105149D01*
X216539101Y-137134249D01*
X216352120Y-137149487D01*
X216282624Y-137153258D01*
X216227462Y-137155889D01*
X216181429Y-137157376D01*
X216139321Y-137157713D01*
X216095935Y-137156897D01*
X216046066Y-137154921D01*
X215984511Y-137151781D01*
X215935560Y-137149103D01*
X215687547Y-137127123D01*
X215442867Y-137088472D01*
X215199406Y-137032613D01*
X214955053Y-136959004D01*
X214707695Y-136867109D01*
X214528400Y-136790154D01*
X214402848Y-136728740D01*
X214268795Y-136654829D01*
X214130883Y-136571422D01*
X213993754Y-136481521D01*
X213862050Y-136388126D01*
X213740414Y-136294238D01*
X213669880Y-136235177D01*
X213469945Y-136048597D01*
X213284091Y-135848787D01*
X213113055Y-135636987D01*
X212957573Y-135414442D01*
X212818382Y-135182393D01*
X212696219Y-134942082D01*
X212591822Y-134694752D01*
X212505926Y-134441645D01*
X212439270Y-134184004D01*
X212431498Y-134147560D01*
X212383705Y-133868121D01*
X212356144Y-133587937D01*
X212350315Y-133365160D01*
X213026303Y-133365160D01*
X213030835Y-133526576D01*
X213041466Y-133684864D01*
X213058129Y-133834418D01*
X213061473Y-133858000D01*
X213100511Y-134062477D01*
X213157587Y-134270207D01*
X213231399Y-134478217D01*
X213320642Y-134683533D01*
X213424013Y-134883183D01*
X213540208Y-135074192D01*
X213667924Y-135253589D01*
X213680579Y-135269882D01*
X213844448Y-135462881D01*
X214022465Y-135641566D01*
X214213709Y-135805253D01*
X214417258Y-135953259D01*
X214632188Y-136084897D01*
X214857579Y-136199486D01*
X215034694Y-136274511D01*
X215169203Y-136322037D01*
X215316087Y-136365558D01*
X215468361Y-136403372D01*
X215619039Y-136433776D01*
X215761135Y-136455068D01*
X215788240Y-136458118D01*
X215836119Y-136463189D01*
X215879463Y-136467816D01*
X215912364Y-136471367D01*
X215925400Y-136472803D01*
X215959902Y-136475205D01*
X216010280Y-136476783D01*
X216072107Y-136477571D01*
X216140957Y-136477605D01*
X216212402Y-136476917D01*
X216282017Y-136475543D01*
X216345374Y-136473517D01*
X216398048Y-136470873D01*
X216423240Y-136468952D01*
X216674779Y-136435687D01*
X216922699Y-136382859D01*
X217165406Y-136310948D01*
X217401309Y-136220433D01*
X217628818Y-136111794D01*
X217656149Y-136097200D01*
X217733545Y-136052671D01*
X217820723Y-135997940D01*
X217912505Y-135936558D01*
X218003711Y-135872073D01*
X218089165Y-135808037D01*
X218155520Y-135754853D01*
X218343294Y-135585257D01*
X218515308Y-135403134D01*
X218671153Y-135209266D01*
X218810424Y-135004434D01*
X218932714Y-134789421D01*
X219037617Y-134565008D01*
X219124724Y-134331977D01*
X219193632Y-134091111D01*
X219243931Y-133843192D01*
X219273925Y-133603945D01*
X219278610Y-133528703D01*
X219280963Y-133439408D01*
X219281107Y-133341427D01*
X219279168Y-133240128D01*
X219275268Y-133140878D01*
X219269530Y-133049045D01*
X219262080Y-132969996D01*
X219258710Y-132943600D01*
X219227655Y-132759267D01*
X219186882Y-132576650D01*
X219137870Y-132401607D01*
X219082101Y-132239994D01*
X219078511Y-132230694D01*
X218979152Y-132002026D01*
X218862940Y-131783053D01*
X218730803Y-131574718D01*
X218583667Y-131377964D01*
X218422461Y-131193733D01*
X218248111Y-131022969D01*
X218061545Y-130866615D01*
X217863689Y-130725613D01*
X217655472Y-130600906D01*
X217437821Y-130493437D01*
X217322400Y-130445141D01*
X217173827Y-130389021D01*
X217036837Y-130342725D01*
X216907185Y-130305465D01*
X216780624Y-130276448D01*
X216652910Y-130254886D01*
X216519797Y-130239987D01*
X216377039Y-130230962D01*
X216220392Y-130227020D01*
X216148920Y-130226691D01*
X216035748Y-130227333D01*
X215938639Y-130229392D01*
X215853361Y-130233234D01*
X215775683Y-130239228D01*
X215701374Y-130247741D01*
X215626202Y-130259143D01*
X215545938Y-130273801D01*
X215498680Y-130283263D01*
X215393775Y-130308066D01*
X215277113Y-130341330D01*
X215154369Y-130381078D01*
X215031219Y-130425330D01*
X214913338Y-130472107D01*
X214806402Y-130519430D01*
X214768345Y-130537880D01*
X214594115Y-130632488D01*
X214421555Y-130740819D01*
X214254491Y-130859995D01*
X214096747Y-130987137D01*
X213952149Y-131119367D01*
X213839404Y-131236991D01*
X213674769Y-131435509D01*
X213527837Y-131642933D01*
X213398939Y-131858559D01*
X213288403Y-132081687D01*
X213196560Y-132311615D01*
X213123738Y-132547641D01*
X213070268Y-132789062D01*
X213049991Y-132918200D01*
X213035813Y-133055366D01*
X213027940Y-133206222D01*
X213026303Y-133365160D01*
X212350315Y-133365160D01*
X212348808Y-133307596D01*
X212361690Y-133027691D01*
X212394782Y-132748811D01*
X212448078Y-132471548D01*
X212451697Y-132455920D01*
X212513195Y-132230283D01*
X212592445Y-132001785D01*
X212687941Y-131774046D01*
X212798175Y-131550686D01*
X212910310Y-131353824D01*
X213037439Y-131161283D01*
X213182250Y-130971270D01*
X213342104Y-130786601D01*
X213514366Y-130610092D01*
X213696398Y-130444558D01*
X213885563Y-130292815D01*
X213944464Y-130249572D01*
X214155076Y-130109375D01*
X214377536Y-129982255D01*
X214608634Y-129869681D01*
X214845159Y-129773122D01*
X215083901Y-129694048D01*
X215259920Y-129647697D01*
X215537074Y-129593259D01*
X215815878Y-129559023D01*
X216095741Y-129544998D01*
X216376072Y-129551189D01*
X216376072Y-129551189D01*
G37*
X216376072Y-129551189D02*
X216656281Y-129577606D01*
X216935778Y-129624253D01*
X216951560Y-129627498D01*
X217209216Y-129691256D01*
X217463094Y-129774424D01*
X217711662Y-129876214D01*
X217953385Y-129995839D01*
X218186731Y-130132513D01*
X218410166Y-130285449D01*
X218622156Y-130453861D01*
X218705820Y-130527574D01*
X218834344Y-130648716D01*
X218949829Y-130767560D01*
X219057774Y-130890124D01*
X219163680Y-131022429D01*
X219191375Y-131058920D01*
X219351427Y-131288117D01*
X219492679Y-131524839D01*
X219615348Y-131769571D01*
X219719652Y-132022797D01*
X219805809Y-132285001D01*
X219874038Y-132556669D01*
X219881939Y-132594349D01*
X219926923Y-132863043D01*
X219952432Y-133133734D01*
X219958477Y-133404760D01*
X219945067Y-133674460D01*
X219912214Y-133941174D01*
X219872490Y-134148805D01*
X219851275Y-134239136D01*
X219826748Y-134335222D01*
X219800617Y-134430842D01*
X219774588Y-134519774D01*
X219750371Y-134595799D01*
X219747325Y-134604760D01*
X219722762Y-134671831D01*
X219691753Y-134749542D01*
X219656162Y-134833783D01*
X219617850Y-134920446D01*
X219578684Y-135005423D01*
X219540524Y-135084603D01*
X219505237Y-135153880D01*
X219474684Y-135209144D01*
X219468523Y-135219440D01*
X219441607Y-135263496D01*
X219409489Y-135315976D01*
X219377610Y-135367995D01*
X219365899Y-135387080D01*
X219342129Y-135423897D01*
X219308945Y-135472646D01*
X219269296Y-135529134D01*
X219226132Y-135589165D01*
X219182400Y-135648545D01*
X219177142Y-135655577D01*
X219064194Y-135796934D01*
X218936705Y-135939896D01*
X218799437Y-136079705D01*
X218657145Y-136211601D01*
X218514591Y-136330826D01*
X218459577Y-136373142D01*
X218400566Y-136416740D01*
X218340389Y-136460133D01*
X218283241Y-136500371D01*
X218233317Y-136534506D01*
X218194811Y-136559590D01*
X218191080Y-136561899D01*
X218141811Y-136592114D01*
X218088445Y-136624791D01*
X218039870Y-136654492D01*
X218023440Y-136664523D01*
X217980697Y-136688779D01*
X217923065Y-136718823D01*
X217854473Y-136752778D01*
X217778848Y-136788766D01*
X217700119Y-136824908D01*
X217622216Y-136859326D01*
X217566240Y-136883067D01*
X217380737Y-136952496D01*
X217180841Y-137013300D01*
X216970982Y-137064509D01*
X216755592Y-137105149D01*
X216539101Y-137134249D01*
X216352120Y-137149487D01*
X216282624Y-137153258D01*
X216227462Y-137155889D01*
X216181429Y-137157376D01*
X216139321Y-137157713D01*
X216095935Y-137156897D01*
X216046066Y-137154921D01*
X215984511Y-137151781D01*
X215935560Y-137149103D01*
X215687547Y-137127123D01*
X215442867Y-137088472D01*
X215199406Y-137032613D01*
X214955053Y-136959004D01*
X214707695Y-136867109D01*
X214528400Y-136790154D01*
X214402848Y-136728740D01*
X214268795Y-136654829D01*
X214130883Y-136571422D01*
X213993754Y-136481521D01*
X213862050Y-136388126D01*
X213740414Y-136294238D01*
X213669880Y-136235177D01*
X213469945Y-136048597D01*
X213284091Y-135848787D01*
X213113055Y-135636987D01*
X212957573Y-135414442D01*
X212818382Y-135182393D01*
X212696219Y-134942082D01*
X212591822Y-134694752D01*
X212505926Y-134441645D01*
X212439270Y-134184004D01*
X212431498Y-134147560D01*
X212383705Y-133868121D01*
X212356144Y-133587937D01*
X212350315Y-133365160D01*
X213026303Y-133365160D01*
X213030835Y-133526576D01*
X213041466Y-133684864D01*
X213058129Y-133834418D01*
X213061473Y-133858000D01*
X213100511Y-134062477D01*
X213157587Y-134270207D01*
X213231399Y-134478217D01*
X213320642Y-134683533D01*
X213424013Y-134883183D01*
X213540208Y-135074192D01*
X213667924Y-135253589D01*
X213680579Y-135269882D01*
X213844448Y-135462881D01*
X214022465Y-135641566D01*
X214213709Y-135805253D01*
X214417258Y-135953259D01*
X214632188Y-136084897D01*
X214857579Y-136199486D01*
X215034694Y-136274511D01*
X215169203Y-136322037D01*
X215316087Y-136365558D01*
X215468361Y-136403372D01*
X215619039Y-136433776D01*
X215761135Y-136455068D01*
X215788240Y-136458118D01*
X215836119Y-136463189D01*
X215879463Y-136467816D01*
X215912364Y-136471367D01*
X215925400Y-136472803D01*
X215959902Y-136475205D01*
X216010280Y-136476783D01*
X216072107Y-136477571D01*
X216140957Y-136477605D01*
X216212402Y-136476917D01*
X216282017Y-136475543D01*
X216345374Y-136473517D01*
X216398048Y-136470873D01*
X216423240Y-136468952D01*
X216674779Y-136435687D01*
X216922699Y-136382859D01*
X217165406Y-136310948D01*
X217401309Y-136220433D01*
X217628818Y-136111794D01*
X217656149Y-136097200D01*
X217733545Y-136052671D01*
X217820723Y-135997940D01*
X217912505Y-135936558D01*
X218003711Y-135872073D01*
X218089165Y-135808037D01*
X218155520Y-135754853D01*
X218343294Y-135585257D01*
X218515308Y-135403134D01*
X218671153Y-135209266D01*
X218810424Y-135004434D01*
X218932714Y-134789421D01*
X219037617Y-134565008D01*
X219124724Y-134331977D01*
X219193632Y-134091111D01*
X219243931Y-133843192D01*
X219273925Y-133603945D01*
X219278610Y-133528703D01*
X219280963Y-133439408D01*
X219281107Y-133341427D01*
X219279168Y-133240128D01*
X219275268Y-133140878D01*
X219269530Y-133049045D01*
X219262080Y-132969996D01*
X219258710Y-132943600D01*
X219227655Y-132759267D01*
X219186882Y-132576650D01*
X219137870Y-132401607D01*
X219082101Y-132239994D01*
X219078511Y-132230694D01*
X218979152Y-132002026D01*
X218862940Y-131783053D01*
X218730803Y-131574718D01*
X218583667Y-131377964D01*
X218422461Y-131193733D01*
X218248111Y-131022969D01*
X218061545Y-130866615D01*
X217863689Y-130725613D01*
X217655472Y-130600906D01*
X217437821Y-130493437D01*
X217322400Y-130445141D01*
X217173827Y-130389021D01*
X217036837Y-130342725D01*
X216907185Y-130305465D01*
X216780624Y-130276448D01*
X216652910Y-130254886D01*
X216519797Y-130239987D01*
X216377039Y-130230962D01*
X216220392Y-130227020D01*
X216148920Y-130226691D01*
X216035748Y-130227333D01*
X215938639Y-130229392D01*
X215853361Y-130233234D01*
X215775683Y-130239228D01*
X215701374Y-130247741D01*
X215626202Y-130259143D01*
X215545938Y-130273801D01*
X215498680Y-130283263D01*
X215393775Y-130308066D01*
X215277113Y-130341330D01*
X215154369Y-130381078D01*
X215031219Y-130425330D01*
X214913338Y-130472107D01*
X214806402Y-130519430D01*
X214768345Y-130537880D01*
X214594115Y-130632488D01*
X214421555Y-130740819D01*
X214254491Y-130859995D01*
X214096747Y-130987137D01*
X213952149Y-131119367D01*
X213839404Y-131236991D01*
X213674769Y-131435509D01*
X213527837Y-131642933D01*
X213398939Y-131858559D01*
X213288403Y-132081687D01*
X213196560Y-132311615D01*
X213123738Y-132547641D01*
X213070268Y-132789062D01*
X213049991Y-132918200D01*
X213035813Y-133055366D01*
X213027940Y-133206222D01*
X213026303Y-133365160D01*
X212350315Y-133365160D01*
X212348808Y-133307596D01*
X212361690Y-133027691D01*
X212394782Y-132748811D01*
X212448078Y-132471548D01*
X212451697Y-132455920D01*
X212513195Y-132230283D01*
X212592445Y-132001785D01*
X212687941Y-131774046D01*
X212798175Y-131550686D01*
X212910310Y-131353824D01*
X213037439Y-131161283D01*
X213182250Y-130971270D01*
X213342104Y-130786601D01*
X213514366Y-130610092D01*
X213696398Y-130444558D01*
X213885563Y-130292815D01*
X213944464Y-130249572D01*
X214155076Y-130109375D01*
X214377536Y-129982255D01*
X214608634Y-129869681D01*
X214845159Y-129773122D01*
X215083901Y-129694048D01*
X215259920Y-129647697D01*
X215537074Y-129593259D01*
X215815878Y-129559023D01*
X216095741Y-129544998D01*
X216376072Y-129551189D01*
G36*
X217850720Y-133004560D02*
X217170000Y-133004560D01*
X217170000Y-132323840D01*
X216829504Y-132323840D01*
X216489009Y-132323839D01*
X216491684Y-132666740D01*
X216494360Y-133009640D01*
X216832180Y-133012316D01*
X217170000Y-133014993D01*
X217170000Y-133685280D01*
X216489280Y-133685280D01*
X216489280Y-135046720D01*
X215818864Y-135046720D01*
X215813640Y-133690360D01*
X215470740Y-133687684D01*
X215127840Y-133685009D01*
X215127840Y-135046720D01*
X214457280Y-135046720D01*
X214457280Y-132662371D01*
X215127840Y-132662371D01*
X215128040Y-132743414D01*
X215128607Y-132817918D01*
X215129495Y-132883462D01*
X215130653Y-132937626D01*
X215132035Y-132977990D01*
X215133590Y-133002135D01*
X215134748Y-133008081D01*
X215146211Y-133009658D01*
X215175563Y-133010949D01*
X215220373Y-133011924D01*
X215278210Y-133012554D01*
X215346644Y-133012808D01*
X215423245Y-133012656D01*
X215477648Y-133012314D01*
X215813640Y-133009640D01*
X215813640Y-132328920D01*
X215470740Y-132326244D01*
X215127840Y-132323569D01*
X215127840Y-132662371D01*
X214457280Y-132662371D01*
X214457280Y-131653280D01*
X217850720Y-131653280D01*
X217850720Y-133004560D01*
X217850720Y-133004560D01*
G37*
X217850720Y-133004560D02*
X217170000Y-133004560D01*
X217170000Y-132323840D01*
X216829504Y-132323840D01*
X216489009Y-132323839D01*
X216491684Y-132666740D01*
X216494360Y-133009640D01*
X216832180Y-133012316D01*
X217170000Y-133014993D01*
X217170000Y-133685280D01*
X216489280Y-133685280D01*
X216489280Y-135046720D01*
X215818864Y-135046720D01*
X215813640Y-133690360D01*
X215470740Y-133687684D01*
X215127840Y-133685009D01*
X215127840Y-135046720D01*
X214457280Y-135046720D01*
X214457280Y-132662371D01*
X215127840Y-132662371D01*
X215128040Y-132743414D01*
X215128607Y-132817918D01*
X215129495Y-132883462D01*
X215130653Y-132937626D01*
X215132035Y-132977990D01*
X215133590Y-133002135D01*
X215134748Y-133008081D01*
X215146211Y-133009658D01*
X215175563Y-133010949D01*
X215220373Y-133011924D01*
X215278210Y-133012554D01*
X215346644Y-133012808D01*
X215423245Y-133012656D01*
X215477648Y-133012314D01*
X215813640Y-133009640D01*
X215813640Y-132328920D01*
X215470740Y-132326244D01*
X215127840Y-132323569D01*
X215127840Y-132662371D01*
X214457280Y-132662371D01*
X214457280Y-131653280D01*
X217850720Y-131653280D01*
X217850720Y-133004560D01*
G36*
X217850720Y-135046720D02*
X217169855Y-135046720D01*
X217172467Y-134368540D01*
X217175080Y-133690360D01*
X217850720Y-133685006D01*
X217850720Y-135046720D01*
X217850720Y-135046720D01*
G37*
X217850720Y-135046720D02*
X217169855Y-135046720D01*
X217172467Y-134368540D01*
X217175080Y-133690360D01*
X217850720Y-133685006D01*
X217850720Y-135046720D01*
D13*
X307181250Y-114300000D03*
D14*
X302101250Y-114300000D03*
X312261250Y-114300000D03*
D15*
X295243250Y-107315000D03*
X319119250Y-107315000D03*
D13*
X295243250Y-122555000D03*
X319119250Y-122555000D03*
X190500000Y-133350000D03*
D14*
X185420000Y-133350000D03*
X195580000Y-133350000D03*
D15*
X133350000Y-140335000D03*
X247650000Y-140335000D03*
D13*
X133350000Y-125095000D03*
X247650000Y-125095000D03*
X264318750Y-133350000D03*
D14*
X259238750Y-133350000D03*
X269398750Y-133350000D03*
D13*
X266700000Y-133350000D03*
D14*
X261620000Y-133350000D03*
X271780000Y-133350000D03*
D13*
X271462500Y-133350000D03*
D14*
X266382500Y-133350000D03*
X276542500Y-133350000D03*
D13*
X319087500Y-133350000D03*
D14*
X314007500Y-133350000D03*
X324167500Y-133350000D03*
D13*
X295275000Y-133350000D03*
D14*
X290195000Y-133350000D03*
X300355000Y-133350000D03*
D13*
X114300000Y-133350000D03*
D14*
X109220000Y-133350000D03*
X119380000Y-133350000D03*
D13*
X88106250Y-133350000D03*
D14*
X83026250Y-133350000D03*
X93186250Y-133350000D03*
D13*
X59531250Y-95250000D03*
D14*
X54451250Y-95250000D03*
X64611250Y-95250000D03*
D13*
X323850000Y-114300000D03*
D14*
X318770000Y-114300000D03*
X328930000Y-114300000D03*
D13*
X304800000Y-114300000D03*
D14*
X299720000Y-114300000D03*
X309880000Y-114300000D03*
D13*
X297656250Y-114300000D03*
D14*
X292576250Y-114300000D03*
X302736250Y-114300000D03*
D13*
X278606250Y-114300000D03*
D14*
X273526250Y-114300000D03*
X283686250Y-114300000D03*
D13*
X271462500Y-114300000D03*
D14*
X266382500Y-114300000D03*
X276542500Y-114300000D03*
D13*
X323850000Y-133350000D03*
D14*
X318770000Y-133350000D03*
X328930000Y-133350000D03*
D13*
X304800000Y-133350000D03*
D14*
X299720000Y-133350000D03*
X309880000Y-133350000D03*
D13*
X292893750Y-133350000D03*
D14*
X287813750Y-133350000D03*
X297973750Y-133350000D03*
D13*
X285750000Y-133350000D03*
D14*
X280670000Y-133350000D03*
X290830000Y-133350000D03*
D13*
X109537500Y-133350000D03*
D14*
X104457500Y-133350000D03*
X114617500Y-133350000D03*
D13*
X85725000Y-133350000D03*
D14*
X80645000Y-133350000D03*
X90805000Y-133350000D03*
D13*
X61912500Y-133350000D03*
D14*
X56832500Y-133350000D03*
X66992500Y-133350000D03*
D13*
X295275000Y-76200000D03*
D14*
X290195000Y-76200000D03*
X300355000Y-76200000D03*
D13*
X319087500Y-76200000D03*
D14*
X314007500Y-76200000D03*
X324167500Y-76200000D03*
D13*
X276225000Y-76200000D03*
D14*
X271145000Y-76200000D03*
X281305000Y-76200000D03*
D13*
X100012500Y-114300000D03*
D14*
X94932500Y-114300000D03*
X105092500Y-114300000D03*
D13*
X180975000Y-76200000D03*
D14*
X175895000Y-76200000D03*
X186055000Y-76200000D03*
D13*
X119062500Y-114300000D03*
D14*
X113982500Y-114300000D03*
X124142500Y-114300000D03*
D13*
X104775000Y-76200000D03*
D14*
X99695000Y-76200000D03*
X109855000Y-76200000D03*
D13*
X157162500Y-114300000D03*
D14*
X152082500Y-114300000D03*
X162242500Y-114300000D03*
D13*
X200025000Y-76200000D03*
D14*
X194945000Y-76200000D03*
X205105000Y-76200000D03*
D13*
X61912500Y-76200000D03*
D14*
X56832500Y-76200000D03*
X66992500Y-76200000D03*
D13*
X161925000Y-76200000D03*
D14*
X156845000Y-76200000D03*
X167005000Y-76200000D03*
D13*
X69056250Y-114300000D03*
D14*
X63976250Y-114300000D03*
X74136250Y-114300000D03*
D15*
X57118250Y-107315000D03*
X80994250Y-107315000D03*
D13*
X57118250Y-122555000D03*
X80994250Y-122555000D03*
X109537500Y-95250000D03*
D14*
X104457500Y-95250000D03*
X114617500Y-95250000D03*
D13*
X142875000Y-76200000D03*
D14*
X137795000Y-76200000D03*
X147955000Y-76200000D03*
D13*
X85725000Y-76200000D03*
D14*
X80645000Y-76200000D03*
X90805000Y-76200000D03*
D13*
X257175000Y-76200000D03*
D14*
X252095000Y-76200000D03*
X262255000Y-76200000D03*
D13*
X238125000Y-76200000D03*
D14*
X233045000Y-76200000D03*
X243205000Y-76200000D03*
D13*
X195262500Y-114300000D03*
D14*
X190182500Y-114300000D03*
X200342500Y-114300000D03*
D13*
X214312500Y-114300000D03*
D14*
X209232500Y-114300000D03*
X219392500Y-114300000D03*
D13*
X242887500Y-95250000D03*
D14*
X237807500Y-95250000D03*
X247967500Y-95250000D03*
D13*
X223837500Y-95250000D03*
D14*
X218757500Y-95250000D03*
X228917500Y-95250000D03*
D13*
X204787500Y-95250000D03*
D14*
X199707500Y-95250000D03*
X209867500Y-95250000D03*
D13*
X219075000Y-76200000D03*
D14*
X213995000Y-76200000D03*
X224155000Y-76200000D03*
D13*
X185737500Y-95250000D03*
D14*
X180657500Y-95250000D03*
X190817500Y-95250000D03*
D13*
X166687500Y-95250000D03*
D14*
X161607500Y-95250000D03*
X171767500Y-95250000D03*
D13*
X147637500Y-95250000D03*
D14*
X142557500Y-95250000D03*
X152717500Y-95250000D03*
D13*
X57150000Y-57150000D03*
D14*
X52070000Y-57150000D03*
X62230000Y-57150000D03*
D13*
X311943750Y-95250000D03*
D14*
X306863750Y-95250000D03*
X317023750Y-95250000D03*
D15*
X300005750Y-88265000D03*
X323881750Y-88265000D03*
D13*
X300005750Y-103505000D03*
X323881750Y-103505000D03*
X123825000Y-76200000D03*
D14*
X118745000Y-76200000D03*
X128905000Y-76200000D03*
D13*
X304800000Y-57150000D03*
D14*
X299720000Y-57150000D03*
X309880000Y-57150000D03*
D13*
X128587500Y-95250000D03*
D14*
X123507500Y-95250000D03*
X133667500Y-95250000D03*
D13*
X64293750Y-95250000D03*
D14*
X59213750Y-95250000D03*
X69373750Y-95250000D03*
D13*
X138112500Y-114300000D03*
D14*
X133032500Y-114300000D03*
X143192500Y-114300000D03*
D13*
X323850000Y-57150000D03*
D14*
X318770000Y-57150000D03*
X328930000Y-57150000D03*
D13*
X314325000Y-57150000D03*
D14*
X309245000Y-57150000D03*
X319405000Y-57150000D03*
D15*
X302387000Y-50165000D03*
X326263000Y-50165000D03*
D13*
X302387000Y-65405000D03*
X326263000Y-65405000D03*
X176212500Y-114300000D03*
D14*
X171132500Y-114300000D03*
X181292500Y-114300000D03*
D13*
X90487500Y-95250000D03*
D14*
X85407500Y-95250000D03*
X95567500Y-95250000D03*
D13*
X285750000Y-57150000D03*
D14*
X280670000Y-57150000D03*
X290830000Y-57150000D03*
D13*
X261937500Y-95250000D03*
D14*
X256857500Y-95250000D03*
X267017500Y-95250000D03*
D13*
X252412500Y-114300000D03*
D14*
X247332500Y-114300000D03*
X257492500Y-114300000D03*
D13*
X266700000Y-57150000D03*
D14*
X261620000Y-57150000D03*
X271780000Y-57150000D03*
D13*
X233362500Y-114300000D03*
D14*
X228282500Y-114300000D03*
X238442500Y-114300000D03*
D13*
X228600000Y-57150000D03*
D14*
X223520000Y-57150000D03*
X233680000Y-57150000D03*
D13*
X209550000Y-57150000D03*
D14*
X204470000Y-57150000D03*
X214630000Y-57150000D03*
D13*
X190500000Y-57150000D03*
D14*
X185420000Y-57150000D03*
X195580000Y-57150000D03*
D13*
X171450000Y-57150000D03*
D14*
X166370000Y-57150000D03*
X176530000Y-57150000D03*
D13*
X152400000Y-57150000D03*
D14*
X147320000Y-57150000D03*
X157480000Y-57150000D03*
D13*
X133350000Y-57150000D03*
D14*
X128270000Y-57150000D03*
X138430000Y-57150000D03*
D13*
X114300000Y-57150000D03*
D14*
X109220000Y-57150000D03*
X119380000Y-57150000D03*
D13*
X95250000Y-57150000D03*
D14*
X90170000Y-57150000D03*
X100330000Y-57150000D03*
D13*
X76200000Y-57150000D03*
D14*
X71120000Y-57150000D03*
X81280000Y-57150000D03*
D13*
X247650000Y-57150000D03*
D14*
X242570000Y-57150000D03*
X252730000Y-57150000D03*
D16*
X73200000Y-75850000D03*
D17*
X176200000Y-94950000D03*
X238500000Y-133150000D03*
X308050000Y-75850000D03*
D18*
X73200000Y-73550000D03*
X70900000Y-75850000D03*
X75500000Y-75850000D03*
X73200000Y-78150000D03*
X71573654Y-74223654D03*
X74826346Y-74223654D03*
X71573654Y-77476346D03*
X74826346Y-77476346D03*
X308050000Y-73550000D03*
X308050000Y-78150000D03*
X309250000Y-78150000D03*
X306850000Y-78150000D03*
X306850000Y-73550000D03*
X309250000Y-73533000D03*
X238500000Y-130850000D03*
X238500000Y-135450000D03*
X239700000Y-130850000D03*
X237300000Y-130850000D03*
X237300000Y-135450000D03*
X239700000Y-135450000D03*
X176200000Y-92650000D03*
X177400000Y-92650000D03*
X175000000Y-92650000D03*
X176200000Y-97250000D03*
X175000000Y-97250000D03*
X177400000Y-97250000D03*
X54400000Y-104450000D03*
X51800000Y-101850000D03*
X51800000Y-107050000D03*
X53638478Y-102611522D03*
X53638478Y-106288478D03*
X49757965Y-101850000D03*
X49757965Y-107050000D03*
X326600000Y-104450000D03*
X327361522Y-102611522D03*
X329200000Y-101850000D03*
X331242035Y-101850000D03*
X331242035Y-107050000D03*
X329200000Y-107050000D03*
X327361522Y-106288478D03*
D19*
X70557600Y-48600000D03*
X61917600Y-48600000D03*
D20*
X70557600Y-52780000D03*
X61917600Y-52780000D03*
D21*
X63347600Y-52250000D03*
X69127600Y-52250000D03*
D22*
X167513000Y-134239000D03*
D23*
X166497000Y-139319000D03*
X168529000Y-139319000D03*
D24*
X170053000Y-135509000D03*
X164973000Y-135509000D03*
D25*
X170053000Y-138049000D03*
D24*
X164973000Y-138049000D03*
D26*
X73966000Y-94016000D03*
X80466000Y-98516000D03*
X73966000Y-98516000D03*
X80466000Y-94016000D03*
D13*
X280987500Y-95250000D03*
D14*
X275907500Y-95250000D03*
X286067500Y-95250000D03*
M02*
