G04 #@! TF.FileFunction,Soldermask,Bot*
%FSLAX46Y46*%
G04 Gerber Fmt 4.6, Leading zero omitted, Abs format (unit mm)*
G04 Created by KiCad (PCBNEW 4.0.7) date 05/29/18 00:16:54*
%MOMM*%
%LPD*%
G01*
G04 APERTURE LIST*
%ADD10C,0.100000*%
%ADD11C,0.200000*%
%ADD12R,0.908000X0.908000*%
%ADD13R,1.100000X1.000000*%
%ADD14R,1.100000X1.400000*%
%ADD15R,1.700000X1.100000*%
%ADD16R,1.600000X1.300000*%
%ADD17C,1.184860*%
%ADD18C,1.388060*%
%ADD19C,1.385520*%
%ADD20C,1.924000*%
%ADD21R,1.924000X1.924000*%
%ADD22R,1.300000X1.200000*%
%ADD23R,1.500000X2.200000*%
%ADD24C,6.400000*%
%ADD25C,1.400000*%
%ADD26C,1.050000*%
%ADD27R,0.700000X1.850000*%
%ADD28R,1.000000X1.850000*%
%ADD29R,1.900000X0.950000*%
%ADD30R,0.950000X1.900000*%
%ADD31C,2.650000*%
%ADD32R,1.650000X1.400000*%
%ADD33R,1.400000X1.650000*%
%ADD34R,1.100000X1.700000*%
G04 APERTURE END LIST*
D10*
D11*
X78215428Y-138299857D02*
X77986857Y-139099857D01*
X77758286Y-138528429D01*
X77529714Y-139099857D01*
X77301143Y-138299857D01*
X76958285Y-138299857D02*
X76729714Y-139099857D01*
X76501143Y-138528429D01*
X76272571Y-139099857D01*
X76044000Y-138299857D01*
X75701142Y-138299857D02*
X75472571Y-139099857D01*
X75244000Y-138528429D01*
X75015428Y-139099857D01*
X74786857Y-138299857D01*
X74329714Y-138985571D02*
X74272571Y-139042714D01*
X74329714Y-139099857D01*
X74386857Y-139042714D01*
X74329714Y-138985571D01*
X74329714Y-139099857D01*
X73243999Y-139099857D02*
X73243999Y-138471286D01*
X73301142Y-138357000D01*
X73415428Y-138299857D01*
X73643999Y-138299857D01*
X73758285Y-138357000D01*
X73243999Y-139042714D02*
X73358285Y-139099857D01*
X73643999Y-139099857D01*
X73758285Y-139042714D01*
X73815428Y-138928429D01*
X73815428Y-138814143D01*
X73758285Y-138699857D01*
X73643999Y-138642714D01*
X73358285Y-138642714D01*
X73243999Y-138585571D01*
X72672571Y-139099857D02*
X72672571Y-138299857D01*
X72672571Y-137899857D02*
X72729714Y-137957000D01*
X72672571Y-138014143D01*
X72615428Y-137957000D01*
X72672571Y-137899857D01*
X72672571Y-138014143D01*
X71872570Y-137899857D02*
X71758285Y-137899857D01*
X71643999Y-137957000D01*
X71586856Y-138014143D01*
X71529713Y-138128429D01*
X71472570Y-138357000D01*
X71472570Y-138642714D01*
X71529713Y-138871286D01*
X71586856Y-138985571D01*
X71643999Y-139042714D01*
X71758285Y-139099857D01*
X71872570Y-139099857D01*
X71986856Y-139042714D01*
X72043999Y-138985571D01*
X72101142Y-138871286D01*
X72158285Y-138642714D01*
X72158285Y-138357000D01*
X72101142Y-138128429D01*
X72043999Y-138014143D01*
X71986856Y-137957000D01*
X71872570Y-137899857D01*
X71072570Y-137899857D02*
X70329713Y-137899857D01*
X70729713Y-138357000D01*
X70558285Y-138357000D01*
X70443999Y-138414143D01*
X70386856Y-138471286D01*
X70329713Y-138585571D01*
X70329713Y-138871286D01*
X70386856Y-138985571D01*
X70443999Y-139042714D01*
X70558285Y-139099857D01*
X70901142Y-139099857D01*
X71015428Y-139042714D01*
X71072570Y-138985571D01*
X69815428Y-138985571D02*
X69758285Y-139042714D01*
X69815428Y-139099857D01*
X69872571Y-139042714D01*
X69815428Y-138985571D01*
X69815428Y-139099857D01*
X69243999Y-139099857D02*
X69243999Y-138299857D01*
X69243999Y-138414143D02*
X69186856Y-138357000D01*
X69072570Y-138299857D01*
X68901142Y-138299857D01*
X68786856Y-138357000D01*
X68729713Y-138471286D01*
X68729713Y-139099857D01*
X68729713Y-138471286D02*
X68672570Y-138357000D01*
X68558284Y-138299857D01*
X68386856Y-138299857D01*
X68272570Y-138357000D01*
X68215427Y-138471286D01*
X68215427Y-139099857D01*
X67186856Y-139042714D02*
X67301142Y-139099857D01*
X67529713Y-139099857D01*
X67643999Y-139042714D01*
X67701142Y-138928429D01*
X67701142Y-138471286D01*
X67643999Y-138357000D01*
X67529713Y-138299857D01*
X67301142Y-138299857D01*
X67186856Y-138357000D01*
X67129713Y-138471286D01*
X67129713Y-138585571D01*
X67701142Y-138699857D01*
D12*
X52101750Y-122809000D03*
X52609750Y-123825000D03*
X51593750Y-123825000D03*
X50577750Y-123825000D03*
X51085750Y-122809000D03*
X51593750Y-121793000D03*
X53117750Y-124841000D03*
X50069750Y-124841000D03*
D13*
X65294000Y-60005000D03*
X67294000Y-60005000D03*
X65294000Y-58105000D03*
D14*
X67294000Y-58305000D03*
D15*
X62230000Y-61275000D03*
X62230000Y-59375000D03*
D16*
X259556250Y-115950000D03*
X259556250Y-112650000D03*
X240506250Y-115950000D03*
X240506250Y-112650000D03*
X221456250Y-115950000D03*
X221456250Y-112650000D03*
X202406250Y-115950000D03*
X202406250Y-112650000D03*
X183356250Y-115950000D03*
X183356250Y-112650000D03*
X164306250Y-115950000D03*
X164306250Y-112650000D03*
X145256250Y-115950000D03*
X145256250Y-112650000D03*
X126206250Y-115950000D03*
X126206250Y-112650000D03*
X107156250Y-115950000D03*
X107156250Y-112650000D03*
X61118750Y-115950000D03*
X61118750Y-112650000D03*
X319087500Y-96900000D03*
X319087500Y-93600000D03*
X288131250Y-96900000D03*
X288131250Y-93600000D03*
X269081250Y-96900000D03*
X269081250Y-93600000D03*
X250031250Y-96900000D03*
X250031250Y-93600000D03*
X230981250Y-96900000D03*
X230981250Y-93600000D03*
X211931250Y-96900000D03*
X211931250Y-93600000D03*
X192881250Y-96900000D03*
X192881250Y-93600000D03*
X158750000Y-96900000D03*
X158750000Y-93600000D03*
X154781250Y-96900000D03*
X154781250Y-93600000D03*
X135731250Y-96900000D03*
X135731250Y-93600000D03*
X116681250Y-96900000D03*
X116681250Y-93600000D03*
X97631250Y-96900000D03*
X97631250Y-93600000D03*
X52387500Y-96900000D03*
X52387500Y-93600000D03*
X326231250Y-77850000D03*
X326231250Y-74550000D03*
X302418750Y-77850000D03*
X302418750Y-74550000D03*
X283368750Y-77850000D03*
X283368750Y-74550000D03*
X264318750Y-77850000D03*
X264318750Y-74550000D03*
X245268750Y-77850000D03*
X245268750Y-74550000D03*
X226218750Y-77850000D03*
X226218750Y-74550000D03*
X207168750Y-77850000D03*
X207168750Y-74550000D03*
X188118750Y-77850000D03*
X188118750Y-74550000D03*
X169068750Y-77850000D03*
X169068750Y-74550000D03*
X150018750Y-77850000D03*
X150018750Y-74550000D03*
X130968750Y-77850000D03*
X130968750Y-74550000D03*
X111918750Y-77850000D03*
X111918750Y-74550000D03*
X92868750Y-77850000D03*
X92868750Y-74550000D03*
X53578125Y-77850000D03*
X53578125Y-74550000D03*
X330993750Y-58800000D03*
X330993750Y-55500000D03*
X296465625Y-58800000D03*
X296465625Y-55500000D03*
X292893750Y-58800000D03*
X292893750Y-55500000D03*
X273843750Y-58800000D03*
X273843750Y-55500000D03*
X254793750Y-58800000D03*
X254793750Y-55500000D03*
X235743750Y-58800000D03*
X235743750Y-55500000D03*
X216693750Y-58800000D03*
X216693750Y-55500000D03*
X197643750Y-58800000D03*
X197643750Y-55500000D03*
X178593750Y-58800000D03*
X178593750Y-55500000D03*
X159543750Y-58800000D03*
X159543750Y-55500000D03*
X140493750Y-58800000D03*
X140493750Y-55500000D03*
X121443750Y-58800000D03*
X121443750Y-55500000D03*
X102393750Y-58800000D03*
X102393750Y-55500000D03*
X83343750Y-58800000D03*
X83343750Y-55500000D03*
X52387500Y-62371875D03*
X52387500Y-59071875D03*
X334962500Y-58800000D03*
X334962500Y-55500000D03*
X334962500Y-77850000D03*
X334962500Y-74550000D03*
X334962500Y-96900000D03*
X334962500Y-93600000D03*
X279400000Y-115950000D03*
X279400000Y-112650000D03*
X304800000Y-115950000D03*
X304800000Y-112650000D03*
X330993750Y-115950000D03*
X330993750Y-112650000D03*
X334962500Y-115950000D03*
X334962500Y-112650000D03*
X296862500Y-135000000D03*
X296862500Y-131700000D03*
X330993750Y-135000000D03*
X330993750Y-131700000D03*
X334962500Y-135000000D03*
X334962500Y-131700000D03*
X51593750Y-135000000D03*
X51593750Y-131700000D03*
X97631250Y-135000000D03*
X97631250Y-131700000D03*
X121443750Y-135000000D03*
X121443750Y-131700000D03*
X157162500Y-135000000D03*
X157162500Y-131700000D03*
X163512500Y-135000000D03*
X163512500Y-131700000D03*
X203993750Y-135000000D03*
X203993750Y-131700000D03*
D17*
X53340000Y-86995000D03*
X54610000Y-86995000D03*
X53340000Y-84455000D03*
X54610000Y-84455000D03*
D18*
X53975000Y-88265000D03*
D19*
X54991000Y-83185000D03*
X52959000Y-83185000D03*
D20*
X51435000Y-86995000D03*
X56515000Y-86995000D03*
D21*
X51435000Y-84455000D03*
D20*
X56515000Y-84455000D03*
D16*
X200025000Y-135000000D03*
X200025000Y-131700000D03*
X292893750Y-135000000D03*
X292893750Y-131700000D03*
X273843750Y-135000000D03*
X273843750Y-131700000D03*
D22*
X72025000Y-71181000D03*
X72025000Y-69281000D03*
X74025000Y-70231000D03*
D23*
X55825000Y-118193750D03*
X52125000Y-111993750D03*
X52125000Y-118193750D03*
X55825000Y-111993750D03*
D24*
X72622500Y-133340000D03*
D25*
X72622500Y-131590000D03*
X73872500Y-131590000D03*
X71372500Y-131590000D03*
X72622500Y-135090000D03*
X73872500Y-135090000D03*
X71372500Y-135090000D03*
D24*
X72622500Y-76200000D03*
D25*
X72622500Y-74200000D03*
X74122500Y-74700000D03*
X71122500Y-74700000D03*
X72622500Y-78200000D03*
X74122500Y-77700000D03*
X71122500Y-77700000D03*
X74622500Y-76200000D03*
X70622500Y-76200000D03*
D24*
X176212500Y-95250000D03*
D25*
X176212500Y-93500000D03*
X177462500Y-93500000D03*
X174962500Y-93500000D03*
X176212500Y-97000000D03*
X177462500Y-97000000D03*
X174962500Y-97000000D03*
D24*
X235602500Y-133350000D03*
D25*
X235602500Y-131600000D03*
X236852500Y-131600000D03*
X234352500Y-131600000D03*
X235602500Y-135100000D03*
X236852500Y-135100000D03*
X234352500Y-135100000D03*
D24*
X314342500Y-133350000D03*
D25*
X314342500Y-131600000D03*
X315592500Y-131600000D03*
X313092500Y-131600000D03*
X314342500Y-135100000D03*
X315592500Y-135100000D03*
X313092500Y-135100000D03*
D24*
X308072500Y-76200000D03*
D25*
X308072500Y-74450000D03*
X309322500Y-74450000D03*
X306822500Y-74450000D03*
X308072500Y-77950000D03*
X309322500Y-77950000D03*
X306822500Y-77950000D03*
D24*
X128587500Y-133350000D03*
D25*
X128587500Y-131350000D03*
X130087500Y-131850000D03*
X127087500Y-131850000D03*
X128587500Y-135350000D03*
X130087500Y-134850000D03*
X127087500Y-134850000D03*
X130587500Y-133350000D03*
X126587500Y-133350000D03*
D24*
X157956250Y-66675000D03*
D25*
X157956250Y-64675000D03*
X159456250Y-65175000D03*
X156456250Y-65175000D03*
X157956250Y-68675000D03*
X159456250Y-68175000D03*
X156456250Y-68175000D03*
X159956250Y-66675000D03*
X155956250Y-66675000D03*
D24*
X253206250Y-66675000D03*
D25*
X253206250Y-64675000D03*
X254706250Y-65175000D03*
X251706250Y-65175000D03*
X253206250Y-68675000D03*
X254706250Y-68175000D03*
X251706250Y-68175000D03*
X255206250Y-66675000D03*
X251206250Y-66675000D03*
D26*
X63347600Y-52250000D03*
X69127600Y-52250000D03*
D27*
X65987600Y-53695000D03*
X66487600Y-53695000D03*
X66987600Y-53695000D03*
X65487600Y-53695000D03*
X67487600Y-53695000D03*
X64987600Y-53695000D03*
X67987600Y-53695000D03*
X64487600Y-53695000D03*
D28*
X63787600Y-53695000D03*
X68687600Y-53695000D03*
X63012600Y-53695000D03*
X69462600Y-53695000D03*
D29*
X83058000Y-87694000D03*
X83058000Y-88494000D03*
X83058000Y-89294000D03*
X83058000Y-90094000D03*
X83058000Y-90894000D03*
X83058000Y-91694000D03*
X83058000Y-92494000D03*
X83058000Y-93294000D03*
X83058000Y-94094000D03*
X83058000Y-94894000D03*
X83058000Y-95694000D03*
D30*
X81358000Y-97394000D03*
X80558000Y-97394000D03*
X79758000Y-97394000D03*
X78958000Y-97394000D03*
X78158000Y-97394000D03*
X77358000Y-97394000D03*
X76558000Y-97394000D03*
X75758000Y-97394000D03*
X74958000Y-97394000D03*
X74158000Y-97394000D03*
X73358000Y-97394000D03*
D29*
X71658000Y-95694000D03*
X71658000Y-94894000D03*
X71658000Y-94094000D03*
X71658000Y-93294000D03*
X71658000Y-92494000D03*
X71658000Y-91694000D03*
X71658000Y-90894000D03*
X71658000Y-90094000D03*
X71658000Y-89294000D03*
X71658000Y-88494000D03*
X71658000Y-87694000D03*
D30*
X73358000Y-85994000D03*
X74158000Y-85994000D03*
X74958000Y-85994000D03*
X75758000Y-85994000D03*
X76558000Y-85994000D03*
X77358000Y-85994000D03*
X78158000Y-85994000D03*
X78958000Y-85994000D03*
X79758000Y-85994000D03*
X80558000Y-85994000D03*
X81358000Y-85994000D03*
D31*
X250150000Y-52650000D03*
X245150000Y-53150000D03*
X78700000Y-52650000D03*
X73700000Y-53150000D03*
X97750000Y-52650000D03*
X92750000Y-53150000D03*
X116800000Y-52650000D03*
X111800000Y-53150000D03*
X135850000Y-52650000D03*
X130850000Y-53150000D03*
X154900000Y-52650000D03*
X149900000Y-53150000D03*
X173950000Y-52650000D03*
X168950000Y-53150000D03*
X193000000Y-52650000D03*
X188000000Y-53150000D03*
X212050000Y-52650000D03*
X207050000Y-53150000D03*
X231100000Y-52650000D03*
X226100000Y-53150000D03*
X283487500Y-90750000D03*
X278487500Y-91250000D03*
X235862500Y-109800000D03*
X230862500Y-110300000D03*
X269200000Y-52650000D03*
X264200000Y-53150000D03*
X254912500Y-109800000D03*
X249912500Y-110300000D03*
X273962500Y-109800000D03*
X268962500Y-110300000D03*
X264437500Y-90750000D03*
X259437500Y-91250000D03*
X288250000Y-52650000D03*
X283250000Y-53150000D03*
X92987500Y-90750000D03*
X87987500Y-91250000D03*
X178712500Y-109800000D03*
X173712500Y-110300000D03*
X316825000Y-52650000D03*
X311825000Y-53150000D03*
X326350000Y-52650000D03*
X321350000Y-53150000D03*
X140612500Y-109800000D03*
X135612500Y-110300000D03*
X66793750Y-90750000D03*
X61793750Y-91250000D03*
X62031250Y-90750000D03*
X57031250Y-91250000D03*
X131087500Y-90750000D03*
X126087500Y-91250000D03*
X307300000Y-52650000D03*
X302300000Y-53150000D03*
X326350000Y-128850000D03*
X321350000Y-129350000D03*
X126325000Y-71700000D03*
X121325000Y-72200000D03*
X314443750Y-90750000D03*
X309443750Y-91250000D03*
X59650000Y-52650000D03*
X54650000Y-53150000D03*
X345400000Y-52650000D03*
X340400000Y-53150000D03*
X345400000Y-71700000D03*
X340400000Y-72200000D03*
X345400000Y-90750000D03*
X340400000Y-91250000D03*
X345400000Y-109800000D03*
X340400000Y-110300000D03*
X150137500Y-90750000D03*
X145137500Y-91250000D03*
X169187500Y-90750000D03*
X164187500Y-91250000D03*
X188237500Y-90750000D03*
X183237500Y-91250000D03*
X221575000Y-71700000D03*
X216575000Y-72200000D03*
X207287500Y-90750000D03*
X202287500Y-91250000D03*
X226337500Y-90750000D03*
X221337500Y-91250000D03*
X245387500Y-90750000D03*
X240387500Y-91250000D03*
X307300000Y-128850000D03*
X302300000Y-129350000D03*
X64412500Y-128850000D03*
X59412500Y-129350000D03*
X62031250Y-128850000D03*
X57031250Y-129350000D03*
X92987500Y-128850000D03*
X87987500Y-129350000D03*
X85843750Y-128850000D03*
X80843750Y-129350000D03*
X90606250Y-128850000D03*
X85606250Y-129350000D03*
X109656250Y-128850000D03*
X104656250Y-129350000D03*
X116800000Y-128850000D03*
X111800000Y-129350000D03*
X216812500Y-109800000D03*
X211812500Y-110300000D03*
X197762500Y-109800000D03*
X192762500Y-110300000D03*
X240625000Y-71700000D03*
X235625000Y-72200000D03*
X259675000Y-71700000D03*
X254675000Y-72200000D03*
X88225000Y-71700000D03*
X83225000Y-72200000D03*
X145375000Y-71700000D03*
X140375000Y-72200000D03*
X345400000Y-128850000D03*
X340400000Y-129350000D03*
X250150000Y-128850000D03*
X245150000Y-129350000D03*
X254912500Y-128850000D03*
X249912500Y-129350000D03*
X266818750Y-128850000D03*
X261818750Y-129350000D03*
X269200000Y-128850000D03*
X264200000Y-129350000D03*
X283487500Y-128850000D03*
X278487500Y-129350000D03*
X288250000Y-128850000D03*
X283250000Y-129350000D03*
X112037500Y-90750000D03*
X107037500Y-91250000D03*
X71556250Y-109800000D03*
X66556250Y-110300000D03*
X300156250Y-109800000D03*
X295156250Y-110300000D03*
X164425000Y-71700000D03*
X159425000Y-72200000D03*
X64412500Y-71700000D03*
X59412500Y-72200000D03*
X202525000Y-71700000D03*
X197525000Y-72200000D03*
X326350000Y-109800000D03*
X321350000Y-110300000D03*
X159662500Y-109800000D03*
X154662500Y-110300000D03*
X107275000Y-71700000D03*
X102275000Y-72200000D03*
X121562500Y-109800000D03*
X116562500Y-110300000D03*
X183475000Y-71700000D03*
X178475000Y-72200000D03*
X102512500Y-109800000D03*
X97512500Y-110300000D03*
X278725000Y-71700000D03*
X273725000Y-72200000D03*
X321587500Y-71700000D03*
X316587500Y-72200000D03*
X297775000Y-71700000D03*
X292775000Y-72200000D03*
X142993750Y-128850000D03*
X137993750Y-129350000D03*
X173950000Y-128850000D03*
X168950000Y-129350000D03*
X181093750Y-128850000D03*
X176093750Y-129350000D03*
X176331250Y-128850000D03*
X171331250Y-129350000D03*
X214431250Y-128850000D03*
X209431250Y-129350000D03*
X193000000Y-128850000D03*
X188000000Y-129350000D03*
X152518750Y-128850000D03*
X147518750Y-129350000D03*
X188237500Y-128850000D03*
X183237500Y-129350000D03*
X228718750Y-128850000D03*
X223718750Y-129350000D03*
D32*
X68961000Y-69231000D03*
X68961000Y-71231000D03*
D33*
X68056000Y-87122000D03*
X66056000Y-87122000D03*
X84852000Y-98044000D03*
X86852000Y-98044000D03*
D32*
X76327000Y-102727000D03*
X76327000Y-100727000D03*
X76962000Y-80788000D03*
X76962000Y-82788000D03*
D33*
X80153000Y-81788000D03*
X82153000Y-81788000D03*
D34*
X73975000Y-81915000D03*
X72075000Y-81915000D03*
D15*
X58674000Y-60640000D03*
X58674000Y-58740000D03*
X70104000Y-60640000D03*
X70104000Y-58740000D03*
M02*
