G04 #@! TF.FileFunction,Legend,Bot*
%FSLAX46Y46*%
G04 Gerber Fmt 4.6, Leading zero omitted, Abs format (unit mm)*
G04 Created by KiCad (PCBNEW 4.0.7) date 05/29/18 00:46:19*
%MOMM*%
%LPD*%
G01*
G04 APERTURE LIST*
%ADD10C,0.100000*%
%ADD11C,0.300000*%
%ADD12C,0.350000*%
%ADD13C,0.150000*%
%ADD14C,0.120000*%
%ADD15C,0.650000*%
%ADD16C,0.127000*%
%ADD17C,0.200000*%
%ADD18R,0.908000X0.908000*%
%ADD19R,1.100000X1.000000*%
%ADD20R,1.100000X1.400000*%
%ADD21R,1.700000X1.100000*%
%ADD22R,1.600000X1.300000*%
%ADD23C,1.184860*%
%ADD24C,1.388060*%
%ADD25C,1.385520*%
%ADD26C,1.924000*%
%ADD27R,1.924000X1.924000*%
%ADD28R,1.300000X1.200000*%
%ADD29R,1.500000X2.200000*%
%ADD30C,6.400000*%
%ADD31C,1.400000*%
%ADD32C,1.050000*%
%ADD33R,0.700000X1.850000*%
%ADD34R,1.000000X1.850000*%
%ADD35R,1.900000X0.950000*%
%ADD36R,0.950000X1.900000*%
%ADD37C,2.650000*%
%ADD38C,2.650000*%
%ADD39C,4.387800*%
%ADD40C,2.150000*%
%ADD41C,3.448000*%
%ADD42R,1.650000X1.400000*%
%ADD43R,1.400000X1.650000*%
%ADD44R,1.100000X1.700000*%
G04 APERTURE END LIST*
D10*
D11*
X219697928Y-102659571D02*
X220197928Y-101945286D01*
X220555071Y-102659571D02*
X220555071Y-101159571D01*
X219983643Y-101159571D01*
X219840785Y-101231000D01*
X219769357Y-101302429D01*
X219697928Y-101445286D01*
X219697928Y-101659571D01*
X219769357Y-101802429D01*
X219840785Y-101873857D01*
X219983643Y-101945286D01*
X220555071Y-101945286D01*
X218269357Y-102659571D02*
X219126500Y-102659571D01*
X218697928Y-102659571D02*
X218697928Y-101159571D01*
X218840785Y-101373857D01*
X218983643Y-101516714D01*
X219126500Y-101588143D01*
X217626500Y-102516714D02*
X217555072Y-102588143D01*
X217626500Y-102659571D01*
X217697929Y-102588143D01*
X217626500Y-102516714D01*
X217626500Y-102659571D01*
X216626500Y-101159571D02*
X216483643Y-101159571D01*
X216340786Y-101231000D01*
X216269357Y-101302429D01*
X216197928Y-101445286D01*
X216126500Y-101731000D01*
X216126500Y-102088143D01*
X216197928Y-102373857D01*
X216269357Y-102516714D01*
X216340786Y-102588143D01*
X216483643Y-102659571D01*
X216626500Y-102659571D01*
X216769357Y-102588143D01*
X216840786Y-102516714D01*
X216912214Y-102373857D01*
X216983643Y-102088143D01*
X216983643Y-101731000D01*
X216912214Y-101445286D01*
X216840786Y-101302429D01*
X216769357Y-101231000D01*
X216626500Y-101159571D01*
D12*
X329311000Y-104394000D02*
X351663000Y-102743000D01*
X329311000Y-104394000D02*
X351663000Y-117221000D01*
D13*
X68238428Y-50871381D02*
X68571762Y-50395190D01*
X68809857Y-50871381D02*
X68809857Y-49871381D01*
X68428904Y-49871381D01*
X68333666Y-49919000D01*
X68286047Y-49966619D01*
X68238428Y-50061857D01*
X68238428Y-50204714D01*
X68286047Y-50299952D01*
X68333666Y-50347571D01*
X68428904Y-50395190D01*
X68809857Y-50395190D01*
X67428904Y-50823762D02*
X67524142Y-50871381D01*
X67714619Y-50871381D01*
X67809857Y-50823762D01*
X67857476Y-50728524D01*
X67857476Y-50347571D01*
X67809857Y-50252333D01*
X67714619Y-50204714D01*
X67524142Y-50204714D01*
X67428904Y-50252333D01*
X67381285Y-50347571D01*
X67381285Y-50442810D01*
X67857476Y-50538048D01*
X67047952Y-50204714D02*
X66809857Y-50871381D01*
X66571761Y-50204714D01*
X64905094Y-50871381D02*
X65476523Y-50871381D01*
X65190809Y-50871381D02*
X65190809Y-49871381D01*
X65286047Y-50014238D01*
X65381285Y-50109476D01*
X65476523Y-50157095D01*
X64476523Y-50776143D02*
X64428904Y-50823762D01*
X64476523Y-50871381D01*
X64524142Y-50823762D01*
X64476523Y-50776143D01*
X64476523Y-50871381D01*
X63809857Y-49871381D02*
X63714618Y-49871381D01*
X63619380Y-49919000D01*
X63571761Y-49966619D01*
X63524142Y-50061857D01*
X63476523Y-50252333D01*
X63476523Y-50490429D01*
X63524142Y-50680905D01*
X63571761Y-50776143D01*
X63619380Y-50823762D01*
X63714618Y-50871381D01*
X63809857Y-50871381D01*
X63905095Y-50823762D01*
X63952714Y-50776143D01*
X64000333Y-50680905D01*
X64047952Y-50490429D01*
X64047952Y-50252333D01*
X64000333Y-50061857D01*
X63952714Y-49966619D01*
X63905095Y-49919000D01*
X63809857Y-49871381D01*
D14*
X57596428Y-83071857D02*
X57632142Y-83107571D01*
X57739285Y-83143286D01*
X57810714Y-83143286D01*
X57917857Y-83107571D01*
X57989285Y-83036143D01*
X58025000Y-82964714D01*
X58060714Y-82821857D01*
X58060714Y-82714714D01*
X58025000Y-82571857D01*
X57989285Y-82500429D01*
X57917857Y-82429000D01*
X57810714Y-82393286D01*
X57739285Y-82393286D01*
X57632142Y-82429000D01*
X57596428Y-82464714D01*
X56917857Y-83143286D02*
X57275000Y-83143286D01*
X57275000Y-82393286D01*
X56667857Y-83143286D02*
X56667857Y-82393286D01*
X56239285Y-83143286D02*
X56560714Y-82714714D01*
X56239285Y-82393286D02*
X56667857Y-82821857D01*
X57467428Y-88271000D02*
X57538857Y-88235286D01*
X57646000Y-88235286D01*
X57753143Y-88271000D01*
X57824571Y-88342429D01*
X57860286Y-88413857D01*
X57896000Y-88556714D01*
X57896000Y-88663857D01*
X57860286Y-88806714D01*
X57824571Y-88878143D01*
X57753143Y-88949571D01*
X57646000Y-88985286D01*
X57574571Y-88985286D01*
X57467428Y-88949571D01*
X57431714Y-88913857D01*
X57431714Y-88663857D01*
X57574571Y-88663857D01*
X57110286Y-88985286D02*
X57110286Y-88235286D01*
X56681714Y-88985286D01*
X56681714Y-88235286D01*
X56324572Y-88985286D02*
X56324572Y-88235286D01*
X56146000Y-88235286D01*
X56038857Y-88271000D01*
X55967429Y-88342429D01*
X55931714Y-88413857D01*
X55896000Y-88556714D01*
X55896000Y-88663857D01*
X55931714Y-88806714D01*
X55967429Y-88878143D01*
X56038857Y-88949571D01*
X56146000Y-88985286D01*
X56324572Y-88985286D01*
X51677000Y-83143286D02*
X51677000Y-82393286D01*
X51391285Y-82393286D01*
X51319857Y-82429000D01*
X51284142Y-82464714D01*
X51248428Y-82536143D01*
X51248428Y-82643286D01*
X51284142Y-82714714D01*
X51319857Y-82750429D01*
X51391285Y-82786143D01*
X51677000Y-82786143D01*
X50927000Y-83143286D02*
X50927000Y-82393286D01*
X50748428Y-82393286D01*
X50641285Y-82429000D01*
X50569857Y-82500429D01*
X50534142Y-82571857D01*
X50498428Y-82714714D01*
X50498428Y-82821857D01*
X50534142Y-82964714D01*
X50569857Y-83036143D01*
X50641285Y-83107571D01*
X50748428Y-83143286D01*
X50927000Y-83143286D01*
X50177000Y-83143286D02*
X50177000Y-82393286D01*
X52006428Y-88235286D02*
X51542142Y-88235286D01*
X51792142Y-88521000D01*
X51685000Y-88521000D01*
X51613571Y-88556714D01*
X51577857Y-88592429D01*
X51542142Y-88663857D01*
X51542142Y-88842429D01*
X51577857Y-88913857D01*
X51613571Y-88949571D01*
X51685000Y-88985286D01*
X51899285Y-88985286D01*
X51970714Y-88949571D01*
X52006428Y-88913857D01*
X51327856Y-88235286D02*
X51077856Y-88985286D01*
X50827856Y-88235286D01*
D12*
X72644000Y-76200000D02*
X48006000Y-65278000D01*
X72644000Y-76200000D02*
X48006000Y-81534000D01*
D15*
X251855000Y-101306655D02*
X249521667Y-106306655D01*
X247188334Y-101306655D01*
X241855000Y-101306655D02*
X243188334Y-101306655D01*
X243855000Y-101544750D01*
X244188334Y-101782845D01*
X244855000Y-102497131D01*
X245188334Y-103449512D01*
X245188334Y-105354274D01*
X244855000Y-105830464D01*
X244521667Y-106068560D01*
X243855000Y-106306655D01*
X242521667Y-106306655D01*
X241855000Y-106068560D01*
X241521667Y-105830464D01*
X241188334Y-105354274D01*
X241188334Y-104163798D01*
X241521667Y-103687607D01*
X241855000Y-103449512D01*
X242521667Y-103211417D01*
X243855000Y-103211417D01*
X244521667Y-103449512D01*
X244855000Y-103687607D01*
X245188334Y-104163798D01*
X234855000Y-101306655D02*
X238188333Y-101306655D01*
X238521667Y-103687607D01*
X238188333Y-103449512D01*
X237521667Y-103211417D01*
X235855000Y-103211417D01*
X235188333Y-103449512D01*
X234855000Y-103687607D01*
X234521667Y-104163798D01*
X234521667Y-105354274D01*
X234855000Y-105830464D01*
X235188333Y-106068560D01*
X235855000Y-106306655D01*
X237521667Y-106306655D01*
X238188333Y-106068560D01*
X238521667Y-105830464D01*
X228188333Y-106306655D02*
X231521666Y-106306655D01*
X231521666Y-101306655D01*
X225854999Y-103687607D02*
X223521666Y-103687607D01*
X222521666Y-106306655D02*
X225854999Y-106306655D01*
X225854999Y-101306655D01*
X222521666Y-101306655D01*
D12*
X308102000Y-75819000D02*
X352425000Y-88106250D01*
X235585000Y-133350000D02*
X184277000Y-142494000D01*
X235585000Y-133350000D02*
X269875000Y-142621000D01*
X48387000Y-104267000D02*
X96774000Y-142494000D01*
X176276000Y-94869000D02*
X48387000Y-104267000D01*
X48387000Y-104267000D02*
X235585000Y-133350000D01*
X72644000Y-76200000D02*
X48387000Y-104267000D01*
X176276000Y-94869000D02*
X308102000Y-75819000D01*
X72644000Y-76200000D02*
X176276000Y-94869000D01*
X329311000Y-104394000D02*
X235585000Y-133350000D01*
X308102000Y-75819000D02*
X329311000Y-104394000D01*
X235585000Y-133350000D02*
X308102000Y-75819000D01*
X176276000Y-94869000D02*
X235585000Y-133350000D01*
D13*
X66944000Y-60505000D02*
X65644000Y-60505000D01*
X66944000Y-57605000D02*
X66944000Y-60505000D01*
X65644000Y-57605000D02*
X66944000Y-57605000D01*
X65644000Y-57605000D02*
X65644000Y-60505000D01*
D14*
X61350000Y-60868000D02*
X61350000Y-62068000D01*
X63110000Y-62068000D02*
X63110000Y-60868000D01*
X260556250Y-116550000D02*
X258556250Y-116550000D01*
X258556250Y-116550000D02*
X258556250Y-112650000D01*
X260556250Y-116550000D02*
X260556250Y-112650000D01*
X241506250Y-116550000D02*
X239506250Y-116550000D01*
X239506250Y-116550000D02*
X239506250Y-112650000D01*
X241506250Y-116550000D02*
X241506250Y-112650000D01*
X222456250Y-116550000D02*
X220456250Y-116550000D01*
X220456250Y-116550000D02*
X220456250Y-112650000D01*
X222456250Y-116550000D02*
X222456250Y-112650000D01*
X203406250Y-116550000D02*
X201406250Y-116550000D01*
X201406250Y-116550000D02*
X201406250Y-112650000D01*
X203406250Y-116550000D02*
X203406250Y-112650000D01*
X184356250Y-116550000D02*
X182356250Y-116550000D01*
X182356250Y-116550000D02*
X182356250Y-112650000D01*
X184356250Y-116550000D02*
X184356250Y-112650000D01*
X165306250Y-116550000D02*
X163306250Y-116550000D01*
X163306250Y-116550000D02*
X163306250Y-112650000D01*
X165306250Y-116550000D02*
X165306250Y-112650000D01*
X146256250Y-116550000D02*
X144256250Y-116550000D01*
X144256250Y-116550000D02*
X144256250Y-112650000D01*
X146256250Y-116550000D02*
X146256250Y-112650000D01*
X127206250Y-116550000D02*
X125206250Y-116550000D01*
X125206250Y-116550000D02*
X125206250Y-112650000D01*
X127206250Y-116550000D02*
X127206250Y-112650000D01*
X108156250Y-116550000D02*
X106156250Y-116550000D01*
X106156250Y-116550000D02*
X106156250Y-112650000D01*
X108156250Y-116550000D02*
X108156250Y-112650000D01*
X62118750Y-116550000D02*
X60118750Y-116550000D01*
X60118750Y-116550000D02*
X60118750Y-112650000D01*
X62118750Y-116550000D02*
X62118750Y-112650000D01*
X320087500Y-97500000D02*
X318087500Y-97500000D01*
X318087500Y-97500000D02*
X318087500Y-93600000D01*
X320087500Y-97500000D02*
X320087500Y-93600000D01*
X289131250Y-97500000D02*
X287131250Y-97500000D01*
X287131250Y-97500000D02*
X287131250Y-93600000D01*
X289131250Y-97500000D02*
X289131250Y-93600000D01*
X270081250Y-97500000D02*
X268081250Y-97500000D01*
X268081250Y-97500000D02*
X268081250Y-93600000D01*
X270081250Y-97500000D02*
X270081250Y-93600000D01*
X251031250Y-97500000D02*
X249031250Y-97500000D01*
X249031250Y-97500000D02*
X249031250Y-93600000D01*
X251031250Y-97500000D02*
X251031250Y-93600000D01*
X231981250Y-97500000D02*
X229981250Y-97500000D01*
X229981250Y-97500000D02*
X229981250Y-93600000D01*
X231981250Y-97500000D02*
X231981250Y-93600000D01*
X212931250Y-97500000D02*
X210931250Y-97500000D01*
X210931250Y-97500000D02*
X210931250Y-93600000D01*
X212931250Y-97500000D02*
X212931250Y-93600000D01*
X193881250Y-97500000D02*
X191881250Y-97500000D01*
X191881250Y-97500000D02*
X191881250Y-93600000D01*
X193881250Y-97500000D02*
X193881250Y-93600000D01*
X159750000Y-97500000D02*
X157750000Y-97500000D01*
X157750000Y-97500000D02*
X157750000Y-93600000D01*
X159750000Y-97500000D02*
X159750000Y-93600000D01*
X155781250Y-97500000D02*
X153781250Y-97500000D01*
X153781250Y-97500000D02*
X153781250Y-93600000D01*
X155781250Y-97500000D02*
X155781250Y-93600000D01*
X136731250Y-97500000D02*
X134731250Y-97500000D01*
X134731250Y-97500000D02*
X134731250Y-93600000D01*
X136731250Y-97500000D02*
X136731250Y-93600000D01*
X117681250Y-97500000D02*
X115681250Y-97500000D01*
X115681250Y-97500000D02*
X115681250Y-93600000D01*
X117681250Y-97500000D02*
X117681250Y-93600000D01*
X98631250Y-97500000D02*
X96631250Y-97500000D01*
X96631250Y-97500000D02*
X96631250Y-93600000D01*
X98631250Y-97500000D02*
X98631250Y-93600000D01*
X53387500Y-97500000D02*
X51387500Y-97500000D01*
X51387500Y-97500000D02*
X51387500Y-93600000D01*
X53387500Y-97500000D02*
X53387500Y-93600000D01*
X327231250Y-78450000D02*
X325231250Y-78450000D01*
X325231250Y-78450000D02*
X325231250Y-74550000D01*
X327231250Y-78450000D02*
X327231250Y-74550000D01*
X303418750Y-78450000D02*
X301418750Y-78450000D01*
X301418750Y-78450000D02*
X301418750Y-74550000D01*
X303418750Y-78450000D02*
X303418750Y-74550000D01*
X284368750Y-78450000D02*
X282368750Y-78450000D01*
X282368750Y-78450000D02*
X282368750Y-74550000D01*
X284368750Y-78450000D02*
X284368750Y-74550000D01*
X265318750Y-78450000D02*
X263318750Y-78450000D01*
X263318750Y-78450000D02*
X263318750Y-74550000D01*
X265318750Y-78450000D02*
X265318750Y-74550000D01*
X246268750Y-78450000D02*
X244268750Y-78450000D01*
X244268750Y-78450000D02*
X244268750Y-74550000D01*
X246268750Y-78450000D02*
X246268750Y-74550000D01*
X227218750Y-78450000D02*
X225218750Y-78450000D01*
X225218750Y-78450000D02*
X225218750Y-74550000D01*
X227218750Y-78450000D02*
X227218750Y-74550000D01*
X208168750Y-78450000D02*
X206168750Y-78450000D01*
X206168750Y-78450000D02*
X206168750Y-74550000D01*
X208168750Y-78450000D02*
X208168750Y-74550000D01*
X189118750Y-78450000D02*
X187118750Y-78450000D01*
X187118750Y-78450000D02*
X187118750Y-74550000D01*
X189118750Y-78450000D02*
X189118750Y-74550000D01*
X170068750Y-78450000D02*
X168068750Y-78450000D01*
X168068750Y-78450000D02*
X168068750Y-74550000D01*
X170068750Y-78450000D02*
X170068750Y-74550000D01*
X151018750Y-78450000D02*
X149018750Y-78450000D01*
X149018750Y-78450000D02*
X149018750Y-74550000D01*
X151018750Y-78450000D02*
X151018750Y-74550000D01*
X131968750Y-78450000D02*
X129968750Y-78450000D01*
X129968750Y-78450000D02*
X129968750Y-74550000D01*
X131968750Y-78450000D02*
X131968750Y-74550000D01*
X112918750Y-78450000D02*
X110918750Y-78450000D01*
X110918750Y-78450000D02*
X110918750Y-74550000D01*
X112918750Y-78450000D02*
X112918750Y-74550000D01*
X93868750Y-78450000D02*
X91868750Y-78450000D01*
X91868750Y-78450000D02*
X91868750Y-74550000D01*
X93868750Y-78450000D02*
X93868750Y-74550000D01*
X54578125Y-78450000D02*
X52578125Y-78450000D01*
X52578125Y-78450000D02*
X52578125Y-74550000D01*
X54578125Y-78450000D02*
X54578125Y-74550000D01*
X331993750Y-59400000D02*
X329993750Y-59400000D01*
X329993750Y-59400000D02*
X329993750Y-55500000D01*
X331993750Y-59400000D02*
X331993750Y-55500000D01*
X297465625Y-59400000D02*
X295465625Y-59400000D01*
X295465625Y-59400000D02*
X295465625Y-55500000D01*
X297465625Y-59400000D02*
X297465625Y-55500000D01*
X293893750Y-59400000D02*
X291893750Y-59400000D01*
X291893750Y-59400000D02*
X291893750Y-55500000D01*
X293893750Y-59400000D02*
X293893750Y-55500000D01*
X274843750Y-59400000D02*
X272843750Y-59400000D01*
X272843750Y-59400000D02*
X272843750Y-55500000D01*
X274843750Y-59400000D02*
X274843750Y-55500000D01*
X255793750Y-59400000D02*
X253793750Y-59400000D01*
X253793750Y-59400000D02*
X253793750Y-55500000D01*
X255793750Y-59400000D02*
X255793750Y-55500000D01*
X236743750Y-59400000D02*
X234743750Y-59400000D01*
X234743750Y-59400000D02*
X234743750Y-55500000D01*
X236743750Y-59400000D02*
X236743750Y-55500000D01*
X217693750Y-59400000D02*
X215693750Y-59400000D01*
X215693750Y-59400000D02*
X215693750Y-55500000D01*
X217693750Y-59400000D02*
X217693750Y-55500000D01*
X198643750Y-59400000D02*
X196643750Y-59400000D01*
X196643750Y-59400000D02*
X196643750Y-55500000D01*
X198643750Y-59400000D02*
X198643750Y-55500000D01*
X179593750Y-59400000D02*
X177593750Y-59400000D01*
X177593750Y-59400000D02*
X177593750Y-55500000D01*
X179593750Y-59400000D02*
X179593750Y-55500000D01*
X160543750Y-59400000D02*
X158543750Y-59400000D01*
X158543750Y-59400000D02*
X158543750Y-55500000D01*
X160543750Y-59400000D02*
X160543750Y-55500000D01*
X141493750Y-59400000D02*
X139493750Y-59400000D01*
X139493750Y-59400000D02*
X139493750Y-55500000D01*
X141493750Y-59400000D02*
X141493750Y-55500000D01*
X122443750Y-59400000D02*
X120443750Y-59400000D01*
X120443750Y-59400000D02*
X120443750Y-55500000D01*
X122443750Y-59400000D02*
X122443750Y-55500000D01*
X103393750Y-59400000D02*
X101393750Y-59400000D01*
X101393750Y-59400000D02*
X101393750Y-55500000D01*
X103393750Y-59400000D02*
X103393750Y-55500000D01*
X84343750Y-59400000D02*
X82343750Y-59400000D01*
X82343750Y-59400000D02*
X82343750Y-55500000D01*
X84343750Y-59400000D02*
X84343750Y-55500000D01*
X53387500Y-62971875D02*
X51387500Y-62971875D01*
X51387500Y-62971875D02*
X51387500Y-59071875D01*
X53387500Y-62971875D02*
X53387500Y-59071875D01*
X335962500Y-59400000D02*
X333962500Y-59400000D01*
X333962500Y-59400000D02*
X333962500Y-55500000D01*
X335962500Y-59400000D02*
X335962500Y-55500000D01*
X335962500Y-78450000D02*
X333962500Y-78450000D01*
X333962500Y-78450000D02*
X333962500Y-74550000D01*
X335962500Y-78450000D02*
X335962500Y-74550000D01*
X335962500Y-97500000D02*
X333962500Y-97500000D01*
X333962500Y-97500000D02*
X333962500Y-93600000D01*
X335962500Y-97500000D02*
X335962500Y-93600000D01*
X280400000Y-116550000D02*
X278400000Y-116550000D01*
X278400000Y-116550000D02*
X278400000Y-112650000D01*
X280400000Y-116550000D02*
X280400000Y-112650000D01*
X305800000Y-116550000D02*
X303800000Y-116550000D01*
X303800000Y-116550000D02*
X303800000Y-112650000D01*
X305800000Y-116550000D02*
X305800000Y-112650000D01*
X331993750Y-116550000D02*
X329993750Y-116550000D01*
X329993750Y-116550000D02*
X329993750Y-112650000D01*
X331993750Y-116550000D02*
X331993750Y-112650000D01*
X335962500Y-116550000D02*
X333962500Y-116550000D01*
X333962500Y-116550000D02*
X333962500Y-112650000D01*
X335962500Y-116550000D02*
X335962500Y-112650000D01*
X297862500Y-135600000D02*
X295862500Y-135600000D01*
X295862500Y-135600000D02*
X295862500Y-131700000D01*
X297862500Y-135600000D02*
X297862500Y-131700000D01*
X331993750Y-135600000D02*
X329993750Y-135600000D01*
X329993750Y-135600000D02*
X329993750Y-131700000D01*
X331993750Y-135600000D02*
X331993750Y-131700000D01*
X335962500Y-135600000D02*
X333962500Y-135600000D01*
X333962500Y-135600000D02*
X333962500Y-131700000D01*
X335962500Y-135600000D02*
X335962500Y-131700000D01*
X52593750Y-135600000D02*
X50593750Y-135600000D01*
X50593750Y-135600000D02*
X50593750Y-131700000D01*
X52593750Y-135600000D02*
X52593750Y-131700000D01*
X98631250Y-135600000D02*
X96631250Y-135600000D01*
X96631250Y-135600000D02*
X96631250Y-131700000D01*
X98631250Y-135600000D02*
X98631250Y-131700000D01*
X122443750Y-135600000D02*
X120443750Y-135600000D01*
X120443750Y-135600000D02*
X120443750Y-131700000D01*
X122443750Y-135600000D02*
X122443750Y-131700000D01*
X158162500Y-135600000D02*
X156162500Y-135600000D01*
X156162500Y-135600000D02*
X156162500Y-131700000D01*
X158162500Y-135600000D02*
X158162500Y-131700000D01*
X164512500Y-135600000D02*
X162512500Y-135600000D01*
X162512500Y-135600000D02*
X162512500Y-131700000D01*
X164512500Y-135600000D02*
X164512500Y-131700000D01*
X204993750Y-135600000D02*
X202993750Y-135600000D01*
X202993750Y-135600000D02*
X202993750Y-131700000D01*
X204993750Y-135600000D02*
X204993750Y-131700000D01*
D16*
X52070000Y-83121500D02*
X52070000Y-83421500D01*
X55875000Y-85325000D02*
X55875000Y-86125000D01*
X52075000Y-85425000D02*
X52075000Y-86125000D01*
X53251100Y-88988900D02*
X52070000Y-87807800D01*
X54698900Y-88988900D02*
X55880000Y-87807800D01*
X54698900Y-88988900D02*
G75*
G02X53251100Y-88988900I-723900J723900D01*
G01*
X54927500Y-82169000D02*
X53022500Y-82169000D01*
X52070000Y-83121500D02*
G75*
G02X53022500Y-82169000I952500J0D01*
G01*
X54927500Y-82169000D02*
G75*
G02X55880000Y-83121500I0J-952500D01*
G01*
X55880000Y-83121500D02*
X55880000Y-83421500D01*
D14*
X201025000Y-135600000D02*
X199025000Y-135600000D01*
X199025000Y-135600000D02*
X199025000Y-131700000D01*
X201025000Y-135600000D02*
X201025000Y-131700000D01*
X293893750Y-135600000D02*
X291893750Y-135600000D01*
X291893750Y-135600000D02*
X291893750Y-131700000D01*
X293893750Y-135600000D02*
X293893750Y-131700000D01*
X274843750Y-135600000D02*
X272843750Y-135600000D01*
X272843750Y-135600000D02*
X272843750Y-131700000D01*
X274843750Y-135600000D02*
X274843750Y-131700000D01*
X73785000Y-68651000D02*
X73785000Y-69581000D01*
X73785000Y-71811000D02*
X73785000Y-70881000D01*
X73785000Y-71811000D02*
X71625000Y-71811000D01*
X73785000Y-68651000D02*
X72325000Y-68651000D01*
D13*
X54975000Y-115093750D02*
G75*
G03X54975000Y-115093750I-1000000J0D01*
G01*
X56575000Y-112493750D02*
X51375000Y-112493750D01*
X56575000Y-117693750D02*
X56575000Y-112493750D01*
X51375000Y-117693750D02*
X56575000Y-117693750D01*
X51375000Y-112493750D02*
X51375000Y-117693750D01*
X82533000Y-86519000D02*
X82533000Y-87094000D01*
X72183000Y-86519000D02*
X72183000Y-87194000D01*
X72183000Y-96869000D02*
X72183000Y-96194000D01*
X82533000Y-96869000D02*
X82533000Y-96194000D01*
X82533000Y-86519000D02*
X81858000Y-86519000D01*
X82533000Y-96869000D02*
X81858000Y-96869000D01*
X72183000Y-96869000D02*
X72858000Y-96869000D01*
X72183000Y-86519000D02*
X72858000Y-86519000D01*
X82533000Y-87094000D02*
X83808000Y-87094000D01*
D14*
X68111000Y-70731000D02*
X68111000Y-69731000D01*
X69811000Y-69731000D02*
X69811000Y-70731000D01*
X67445000Y-86145000D02*
X68445000Y-86145000D01*
X68445000Y-87845000D02*
X67445000Y-87845000D01*
X85971000Y-98767000D02*
X84971000Y-98767000D01*
X84971000Y-97067000D02*
X85971000Y-97067000D01*
X77970000Y-102323000D02*
X76970000Y-102323000D01*
X76970000Y-100623000D02*
X77970000Y-100623000D01*
X75858000Y-82034000D02*
X75858000Y-81034000D01*
X77558000Y-81034000D02*
X77558000Y-82034000D01*
X81272000Y-82511000D02*
X80272000Y-82511000D01*
X80272000Y-80811000D02*
X81272000Y-80811000D01*
X71917000Y-82541000D02*
X73117000Y-82541000D01*
X73117000Y-80781000D02*
X71917000Y-80781000D01*
X61078000Y-57750000D02*
X61078000Y-56550000D01*
X59318000Y-56550000D02*
X59318000Y-57750000D01*
X69478000Y-59471000D02*
X69478000Y-60671000D01*
X71238000Y-60671000D02*
X71238000Y-59471000D01*
D13*
X67055905Y-60920381D02*
X67055905Y-61729905D01*
X67008286Y-61825143D01*
X66960667Y-61872762D01*
X66865429Y-61920381D01*
X66674952Y-61920381D01*
X66579714Y-61872762D01*
X66532095Y-61825143D01*
X66484476Y-61729905D01*
X66484476Y-60920381D01*
X66103524Y-60920381D02*
X65484476Y-60920381D01*
X65817810Y-61301333D01*
X65674952Y-61301333D01*
X65579714Y-61348952D01*
X65532095Y-61396571D01*
X65484476Y-61491810D01*
X65484476Y-61729905D01*
X65532095Y-61825143D01*
X65579714Y-61872762D01*
X65674952Y-61920381D01*
X65960667Y-61920381D01*
X66055905Y-61872762D01*
X66103524Y-61825143D01*
X62158571Y-63801667D02*
X62158571Y-63468333D01*
X62682381Y-63468333D02*
X61682381Y-63468333D01*
X61682381Y-63944524D01*
X62682381Y-64849286D02*
X62682381Y-64277857D01*
X62682381Y-64563571D02*
X61682381Y-64563571D01*
X61825238Y-64468333D01*
X61920476Y-64373095D01*
X61968095Y-64277857D01*
X259913381Y-109021714D02*
X258913381Y-109021714D01*
X258913381Y-109259809D01*
X258961000Y-109402667D01*
X259056238Y-109497905D01*
X259151476Y-109545524D01*
X259341952Y-109593143D01*
X259484810Y-109593143D01*
X259675286Y-109545524D01*
X259770524Y-109497905D01*
X259865762Y-109402667D01*
X259913381Y-109259809D01*
X259913381Y-109021714D01*
X258913381Y-110497905D02*
X258913381Y-110021714D01*
X259389571Y-109974095D01*
X259341952Y-110021714D01*
X259294333Y-110116952D01*
X259294333Y-110355048D01*
X259341952Y-110450286D01*
X259389571Y-110497905D01*
X259484810Y-110545524D01*
X259722905Y-110545524D01*
X259818143Y-110497905D01*
X259865762Y-110450286D01*
X259913381Y-110355048D01*
X259913381Y-110116952D01*
X259865762Y-110021714D01*
X259818143Y-109974095D01*
X259246714Y-111402667D02*
X259913381Y-111402667D01*
X258865762Y-111164571D02*
X259580048Y-110926476D01*
X259580048Y-111545524D01*
X242958631Y-113085714D02*
X241958631Y-113085714D01*
X241958631Y-113323809D01*
X242006250Y-113466667D01*
X242101488Y-113561905D01*
X242196726Y-113609524D01*
X242387202Y-113657143D01*
X242530060Y-113657143D01*
X242720536Y-113609524D01*
X242815774Y-113561905D01*
X242911012Y-113466667D01*
X242958631Y-113323809D01*
X242958631Y-113085714D01*
X241958631Y-114561905D02*
X241958631Y-114085714D01*
X242434821Y-114038095D01*
X242387202Y-114085714D01*
X242339583Y-114180952D01*
X242339583Y-114419048D01*
X242387202Y-114514286D01*
X242434821Y-114561905D01*
X242530060Y-114609524D01*
X242768155Y-114609524D01*
X242863393Y-114561905D01*
X242911012Y-114514286D01*
X242958631Y-114419048D01*
X242958631Y-114180952D01*
X242911012Y-114085714D01*
X242863393Y-114038095D01*
X241958631Y-114942857D02*
X241958631Y-115561905D01*
X242339583Y-115228571D01*
X242339583Y-115371429D01*
X242387202Y-115466667D01*
X242434821Y-115514286D01*
X242530060Y-115561905D01*
X242768155Y-115561905D01*
X242863393Y-115514286D01*
X242911012Y-115466667D01*
X242958631Y-115371429D01*
X242958631Y-115085714D01*
X242911012Y-114990476D01*
X242863393Y-114942857D01*
X223908631Y-113085714D02*
X222908631Y-113085714D01*
X222908631Y-113323809D01*
X222956250Y-113466667D01*
X223051488Y-113561905D01*
X223146726Y-113609524D01*
X223337202Y-113657143D01*
X223480060Y-113657143D01*
X223670536Y-113609524D01*
X223765774Y-113561905D01*
X223861012Y-113466667D01*
X223908631Y-113323809D01*
X223908631Y-113085714D01*
X222908631Y-114561905D02*
X222908631Y-114085714D01*
X223384821Y-114038095D01*
X223337202Y-114085714D01*
X223289583Y-114180952D01*
X223289583Y-114419048D01*
X223337202Y-114514286D01*
X223384821Y-114561905D01*
X223480060Y-114609524D01*
X223718155Y-114609524D01*
X223813393Y-114561905D01*
X223861012Y-114514286D01*
X223908631Y-114419048D01*
X223908631Y-114180952D01*
X223861012Y-114085714D01*
X223813393Y-114038095D01*
X223003869Y-114990476D02*
X222956250Y-115038095D01*
X222908631Y-115133333D01*
X222908631Y-115371429D01*
X222956250Y-115466667D01*
X223003869Y-115514286D01*
X223099107Y-115561905D01*
X223194345Y-115561905D01*
X223337202Y-115514286D01*
X223908631Y-114942857D01*
X223908631Y-115561905D01*
X204858631Y-113974714D02*
X203858631Y-113974714D01*
X203858631Y-114212809D01*
X203906250Y-114355667D01*
X204001488Y-114450905D01*
X204096726Y-114498524D01*
X204287202Y-114546143D01*
X204430060Y-114546143D01*
X204620536Y-114498524D01*
X204715774Y-114450905D01*
X204811012Y-114355667D01*
X204858631Y-114212809D01*
X204858631Y-113974714D01*
X203858631Y-115450905D02*
X203858631Y-114974714D01*
X204334821Y-114927095D01*
X204287202Y-114974714D01*
X204239583Y-115069952D01*
X204239583Y-115308048D01*
X204287202Y-115403286D01*
X204334821Y-115450905D01*
X204430060Y-115498524D01*
X204668155Y-115498524D01*
X204763393Y-115450905D01*
X204811012Y-115403286D01*
X204858631Y-115308048D01*
X204858631Y-115069952D01*
X204811012Y-114974714D01*
X204763393Y-114927095D01*
X204858631Y-116450905D02*
X204858631Y-115879476D01*
X204858631Y-116165190D02*
X203858631Y-116165190D01*
X204001488Y-116069952D01*
X204096726Y-115974714D01*
X204144345Y-115879476D01*
X185808631Y-113085714D02*
X184808631Y-113085714D01*
X184808631Y-113323809D01*
X184856250Y-113466667D01*
X184951488Y-113561905D01*
X185046726Y-113609524D01*
X185237202Y-113657143D01*
X185380060Y-113657143D01*
X185570536Y-113609524D01*
X185665774Y-113561905D01*
X185761012Y-113466667D01*
X185808631Y-113323809D01*
X185808631Y-113085714D01*
X184808631Y-114561905D02*
X184808631Y-114085714D01*
X185284821Y-114038095D01*
X185237202Y-114085714D01*
X185189583Y-114180952D01*
X185189583Y-114419048D01*
X185237202Y-114514286D01*
X185284821Y-114561905D01*
X185380060Y-114609524D01*
X185618155Y-114609524D01*
X185713393Y-114561905D01*
X185761012Y-114514286D01*
X185808631Y-114419048D01*
X185808631Y-114180952D01*
X185761012Y-114085714D01*
X185713393Y-114038095D01*
X184808631Y-115228571D02*
X184808631Y-115323810D01*
X184856250Y-115419048D01*
X184903869Y-115466667D01*
X184999107Y-115514286D01*
X185189583Y-115561905D01*
X185427679Y-115561905D01*
X185618155Y-115514286D01*
X185713393Y-115466667D01*
X185761012Y-115419048D01*
X185808631Y-115323810D01*
X185808631Y-115228571D01*
X185761012Y-115133333D01*
X185713393Y-115085714D01*
X185618155Y-115038095D01*
X185427679Y-114990476D01*
X185189583Y-114990476D01*
X184999107Y-115038095D01*
X184903869Y-115085714D01*
X184856250Y-115133333D01*
X184808631Y-115228571D01*
X166758631Y-113085714D02*
X165758631Y-113085714D01*
X165758631Y-113323809D01*
X165806250Y-113466667D01*
X165901488Y-113561905D01*
X165996726Y-113609524D01*
X166187202Y-113657143D01*
X166330060Y-113657143D01*
X166520536Y-113609524D01*
X166615774Y-113561905D01*
X166711012Y-113466667D01*
X166758631Y-113323809D01*
X166758631Y-113085714D01*
X166091964Y-114514286D02*
X166758631Y-114514286D01*
X165711012Y-114276190D02*
X166425298Y-114038095D01*
X166425298Y-114657143D01*
X166758631Y-115085714D02*
X166758631Y-115276190D01*
X166711012Y-115371429D01*
X166663393Y-115419048D01*
X166520536Y-115514286D01*
X166330060Y-115561905D01*
X165949107Y-115561905D01*
X165853869Y-115514286D01*
X165806250Y-115466667D01*
X165758631Y-115371429D01*
X165758631Y-115180952D01*
X165806250Y-115085714D01*
X165853869Y-115038095D01*
X165949107Y-114990476D01*
X166187202Y-114990476D01*
X166282440Y-115038095D01*
X166330060Y-115085714D01*
X166377679Y-115180952D01*
X166377679Y-115371429D01*
X166330060Y-115466667D01*
X166282440Y-115514286D01*
X166187202Y-115561905D01*
X147708631Y-113085714D02*
X146708631Y-113085714D01*
X146708631Y-113323809D01*
X146756250Y-113466667D01*
X146851488Y-113561905D01*
X146946726Y-113609524D01*
X147137202Y-113657143D01*
X147280060Y-113657143D01*
X147470536Y-113609524D01*
X147565774Y-113561905D01*
X147661012Y-113466667D01*
X147708631Y-113323809D01*
X147708631Y-113085714D01*
X147041964Y-114514286D02*
X147708631Y-114514286D01*
X146661012Y-114276190D02*
X147375298Y-114038095D01*
X147375298Y-114657143D01*
X147137202Y-115180952D02*
X147089583Y-115085714D01*
X147041964Y-115038095D01*
X146946726Y-114990476D01*
X146899107Y-114990476D01*
X146803869Y-115038095D01*
X146756250Y-115085714D01*
X146708631Y-115180952D01*
X146708631Y-115371429D01*
X146756250Y-115466667D01*
X146803869Y-115514286D01*
X146899107Y-115561905D01*
X146946726Y-115561905D01*
X147041964Y-115514286D01*
X147089583Y-115466667D01*
X147137202Y-115371429D01*
X147137202Y-115180952D01*
X147184821Y-115085714D01*
X147232440Y-115038095D01*
X147327679Y-114990476D01*
X147518155Y-114990476D01*
X147613393Y-115038095D01*
X147661012Y-115085714D01*
X147708631Y-115180952D01*
X147708631Y-115371429D01*
X147661012Y-115466667D01*
X147613393Y-115514286D01*
X147518155Y-115561905D01*
X147327679Y-115561905D01*
X147232440Y-115514286D01*
X147184821Y-115466667D01*
X147137202Y-115371429D01*
X128722381Y-113085714D02*
X127722381Y-113085714D01*
X127722381Y-113323809D01*
X127770000Y-113466667D01*
X127865238Y-113561905D01*
X127960476Y-113609524D01*
X128150952Y-113657143D01*
X128293810Y-113657143D01*
X128484286Y-113609524D01*
X128579524Y-113561905D01*
X128674762Y-113466667D01*
X128722381Y-113323809D01*
X128722381Y-113085714D01*
X128055714Y-114514286D02*
X128722381Y-114514286D01*
X127674762Y-114276190D02*
X128389048Y-114038095D01*
X128389048Y-114657143D01*
X127722381Y-114942857D02*
X127722381Y-115609524D01*
X128722381Y-115180952D01*
X109545381Y-114228714D02*
X108545381Y-114228714D01*
X108545381Y-114466809D01*
X108593000Y-114609667D01*
X108688238Y-114704905D01*
X108783476Y-114752524D01*
X108973952Y-114800143D01*
X109116810Y-114800143D01*
X109307286Y-114752524D01*
X109402524Y-114704905D01*
X109497762Y-114609667D01*
X109545381Y-114466809D01*
X109545381Y-114228714D01*
X108878714Y-115657286D02*
X109545381Y-115657286D01*
X108497762Y-115419190D02*
X109212048Y-115181095D01*
X109212048Y-115800143D01*
X108545381Y-116609667D02*
X108545381Y-116419190D01*
X108593000Y-116323952D01*
X108640619Y-116276333D01*
X108783476Y-116181095D01*
X108973952Y-116133476D01*
X109354905Y-116133476D01*
X109450143Y-116181095D01*
X109497762Y-116228714D01*
X109545381Y-116323952D01*
X109545381Y-116514429D01*
X109497762Y-116609667D01*
X109450143Y-116657286D01*
X109354905Y-116704905D01*
X109116810Y-116704905D01*
X109021571Y-116657286D01*
X108973952Y-116609667D01*
X108926333Y-116514429D01*
X108926333Y-116323952D01*
X108973952Y-116228714D01*
X109021571Y-116181095D01*
X109116810Y-116133476D01*
X61571131Y-109116964D02*
X60571131Y-109116964D01*
X60571131Y-109355059D01*
X60618750Y-109497917D01*
X60713988Y-109593155D01*
X60809226Y-109640774D01*
X60999702Y-109688393D01*
X61142560Y-109688393D01*
X61333036Y-109640774D01*
X61428274Y-109593155D01*
X61523512Y-109497917D01*
X61571131Y-109355059D01*
X61571131Y-109116964D01*
X60904464Y-110545536D02*
X61571131Y-110545536D01*
X60523512Y-110307440D02*
X61237798Y-110069345D01*
X61237798Y-110688393D01*
X60904464Y-111497917D02*
X61571131Y-111497917D01*
X60523512Y-111259821D02*
X61237798Y-111021726D01*
X61237798Y-111640774D01*
X321635381Y-94924714D02*
X320635381Y-94924714D01*
X320635381Y-95162809D01*
X320683000Y-95305667D01*
X320778238Y-95400905D01*
X320873476Y-95448524D01*
X321063952Y-95496143D01*
X321206810Y-95496143D01*
X321397286Y-95448524D01*
X321492524Y-95400905D01*
X321587762Y-95305667D01*
X321635381Y-95162809D01*
X321635381Y-94924714D01*
X320968714Y-96353286D02*
X321635381Y-96353286D01*
X320587762Y-96115190D02*
X321302048Y-95877095D01*
X321302048Y-96496143D01*
X320635381Y-96781857D02*
X320635381Y-97400905D01*
X321016333Y-97067571D01*
X321016333Y-97210429D01*
X321063952Y-97305667D01*
X321111571Y-97353286D01*
X321206810Y-97400905D01*
X321444905Y-97400905D01*
X321540143Y-97353286D01*
X321587762Y-97305667D01*
X321635381Y-97210429D01*
X321635381Y-96924714D01*
X321587762Y-96829476D01*
X321540143Y-96781857D01*
X290774381Y-94035714D02*
X289774381Y-94035714D01*
X289774381Y-94273809D01*
X289822000Y-94416667D01*
X289917238Y-94511905D01*
X290012476Y-94559524D01*
X290202952Y-94607143D01*
X290345810Y-94607143D01*
X290536286Y-94559524D01*
X290631524Y-94511905D01*
X290726762Y-94416667D01*
X290774381Y-94273809D01*
X290774381Y-94035714D01*
X290107714Y-95464286D02*
X290774381Y-95464286D01*
X289726762Y-95226190D02*
X290441048Y-94988095D01*
X290441048Y-95607143D01*
X290774381Y-96511905D02*
X290774381Y-95940476D01*
X290774381Y-96226190D02*
X289774381Y-96226190D01*
X289917238Y-96130952D01*
X290012476Y-96035714D01*
X290060095Y-95940476D01*
X271724381Y-94035714D02*
X270724381Y-94035714D01*
X270724381Y-94273809D01*
X270772000Y-94416667D01*
X270867238Y-94511905D01*
X270962476Y-94559524D01*
X271152952Y-94607143D01*
X271295810Y-94607143D01*
X271486286Y-94559524D01*
X271581524Y-94511905D01*
X271676762Y-94416667D01*
X271724381Y-94273809D01*
X271724381Y-94035714D01*
X271057714Y-95464286D02*
X271724381Y-95464286D01*
X270676762Y-95226190D02*
X271391048Y-94988095D01*
X271391048Y-95607143D01*
X270724381Y-96178571D02*
X270724381Y-96273810D01*
X270772000Y-96369048D01*
X270819619Y-96416667D01*
X270914857Y-96464286D01*
X271105333Y-96511905D01*
X271343429Y-96511905D01*
X271533905Y-96464286D01*
X271629143Y-96416667D01*
X271676762Y-96369048D01*
X271724381Y-96273810D01*
X271724381Y-96178571D01*
X271676762Y-96083333D01*
X271629143Y-96035714D01*
X271533905Y-95988095D01*
X271343429Y-95940476D01*
X271105333Y-95940476D01*
X270914857Y-95988095D01*
X270819619Y-96035714D01*
X270772000Y-96083333D01*
X270724381Y-96178571D01*
X252483631Y-94035714D02*
X251483631Y-94035714D01*
X251483631Y-94273809D01*
X251531250Y-94416667D01*
X251626488Y-94511905D01*
X251721726Y-94559524D01*
X251912202Y-94607143D01*
X252055060Y-94607143D01*
X252245536Y-94559524D01*
X252340774Y-94511905D01*
X252436012Y-94416667D01*
X252483631Y-94273809D01*
X252483631Y-94035714D01*
X251483631Y-94940476D02*
X251483631Y-95559524D01*
X251864583Y-95226190D01*
X251864583Y-95369048D01*
X251912202Y-95464286D01*
X251959821Y-95511905D01*
X252055060Y-95559524D01*
X252293155Y-95559524D01*
X252388393Y-95511905D01*
X252436012Y-95464286D01*
X252483631Y-95369048D01*
X252483631Y-95083333D01*
X252436012Y-94988095D01*
X252388393Y-94940476D01*
X252483631Y-96035714D02*
X252483631Y-96226190D01*
X252436012Y-96321429D01*
X252388393Y-96369048D01*
X252245536Y-96464286D01*
X252055060Y-96511905D01*
X251674107Y-96511905D01*
X251578869Y-96464286D01*
X251531250Y-96416667D01*
X251483631Y-96321429D01*
X251483631Y-96130952D01*
X251531250Y-96035714D01*
X251578869Y-95988095D01*
X251674107Y-95940476D01*
X251912202Y-95940476D01*
X252007440Y-95988095D01*
X252055060Y-96035714D01*
X252102679Y-96130952D01*
X252102679Y-96321429D01*
X252055060Y-96416667D01*
X252007440Y-96464286D01*
X251912202Y-96511905D01*
X233433631Y-94035714D02*
X232433631Y-94035714D01*
X232433631Y-94273809D01*
X232481250Y-94416667D01*
X232576488Y-94511905D01*
X232671726Y-94559524D01*
X232862202Y-94607143D01*
X233005060Y-94607143D01*
X233195536Y-94559524D01*
X233290774Y-94511905D01*
X233386012Y-94416667D01*
X233433631Y-94273809D01*
X233433631Y-94035714D01*
X232433631Y-94940476D02*
X232433631Y-95559524D01*
X232814583Y-95226190D01*
X232814583Y-95369048D01*
X232862202Y-95464286D01*
X232909821Y-95511905D01*
X233005060Y-95559524D01*
X233243155Y-95559524D01*
X233338393Y-95511905D01*
X233386012Y-95464286D01*
X233433631Y-95369048D01*
X233433631Y-95083333D01*
X233386012Y-94988095D01*
X233338393Y-94940476D01*
X232862202Y-96130952D02*
X232814583Y-96035714D01*
X232766964Y-95988095D01*
X232671726Y-95940476D01*
X232624107Y-95940476D01*
X232528869Y-95988095D01*
X232481250Y-96035714D01*
X232433631Y-96130952D01*
X232433631Y-96321429D01*
X232481250Y-96416667D01*
X232528869Y-96464286D01*
X232624107Y-96511905D01*
X232671726Y-96511905D01*
X232766964Y-96464286D01*
X232814583Y-96416667D01*
X232862202Y-96321429D01*
X232862202Y-96130952D01*
X232909821Y-96035714D01*
X232957440Y-95988095D01*
X233052679Y-95940476D01*
X233243155Y-95940476D01*
X233338393Y-95988095D01*
X233386012Y-96035714D01*
X233433631Y-96130952D01*
X233433631Y-96321429D01*
X233386012Y-96416667D01*
X233338393Y-96464286D01*
X233243155Y-96511905D01*
X233052679Y-96511905D01*
X232957440Y-96464286D01*
X232909821Y-96416667D01*
X232862202Y-96321429D01*
X214383631Y-94035714D02*
X213383631Y-94035714D01*
X213383631Y-94273809D01*
X213431250Y-94416667D01*
X213526488Y-94511905D01*
X213621726Y-94559524D01*
X213812202Y-94607143D01*
X213955060Y-94607143D01*
X214145536Y-94559524D01*
X214240774Y-94511905D01*
X214336012Y-94416667D01*
X214383631Y-94273809D01*
X214383631Y-94035714D01*
X213383631Y-94940476D02*
X213383631Y-95559524D01*
X213764583Y-95226190D01*
X213764583Y-95369048D01*
X213812202Y-95464286D01*
X213859821Y-95511905D01*
X213955060Y-95559524D01*
X214193155Y-95559524D01*
X214288393Y-95511905D01*
X214336012Y-95464286D01*
X214383631Y-95369048D01*
X214383631Y-95083333D01*
X214336012Y-94988095D01*
X214288393Y-94940476D01*
X213383631Y-95892857D02*
X213383631Y-96559524D01*
X214383631Y-96130952D01*
X195333631Y-94035714D02*
X194333631Y-94035714D01*
X194333631Y-94273809D01*
X194381250Y-94416667D01*
X194476488Y-94511905D01*
X194571726Y-94559524D01*
X194762202Y-94607143D01*
X194905060Y-94607143D01*
X195095536Y-94559524D01*
X195190774Y-94511905D01*
X195286012Y-94416667D01*
X195333631Y-94273809D01*
X195333631Y-94035714D01*
X194333631Y-94940476D02*
X194333631Y-95559524D01*
X194714583Y-95226190D01*
X194714583Y-95369048D01*
X194762202Y-95464286D01*
X194809821Y-95511905D01*
X194905060Y-95559524D01*
X195143155Y-95559524D01*
X195238393Y-95511905D01*
X195286012Y-95464286D01*
X195333631Y-95369048D01*
X195333631Y-95083333D01*
X195286012Y-94988095D01*
X195238393Y-94940476D01*
X194333631Y-96416667D02*
X194333631Y-96226190D01*
X194381250Y-96130952D01*
X194428869Y-96083333D01*
X194571726Y-95988095D01*
X194762202Y-95940476D01*
X195143155Y-95940476D01*
X195238393Y-95988095D01*
X195286012Y-96035714D01*
X195333631Y-96130952D01*
X195333631Y-96321429D01*
X195286012Y-96416667D01*
X195238393Y-96464286D01*
X195143155Y-96511905D01*
X194905060Y-96511905D01*
X194809821Y-96464286D01*
X194762202Y-96416667D01*
X194714583Y-96321429D01*
X194714583Y-96130952D01*
X194762202Y-96035714D01*
X194809821Y-95988095D01*
X194905060Y-95940476D01*
X159218256Y-97972714D02*
X158218256Y-97972714D01*
X158218256Y-98210809D01*
X158265875Y-98353667D01*
X158361113Y-98448905D01*
X158456351Y-98496524D01*
X158646827Y-98544143D01*
X158789685Y-98544143D01*
X158980161Y-98496524D01*
X159075399Y-98448905D01*
X159170637Y-98353667D01*
X159218256Y-98210809D01*
X159218256Y-97972714D01*
X158218256Y-98877476D02*
X158218256Y-99496524D01*
X158599208Y-99163190D01*
X158599208Y-99306048D01*
X158646827Y-99401286D01*
X158694446Y-99448905D01*
X158789685Y-99496524D01*
X159027780Y-99496524D01*
X159123018Y-99448905D01*
X159170637Y-99401286D01*
X159218256Y-99306048D01*
X159218256Y-99020333D01*
X159170637Y-98925095D01*
X159123018Y-98877476D01*
X158218256Y-100401286D02*
X158218256Y-99925095D01*
X158694446Y-99877476D01*
X158646827Y-99925095D01*
X158599208Y-100020333D01*
X158599208Y-100258429D01*
X158646827Y-100353667D01*
X158694446Y-100401286D01*
X158789685Y-100448905D01*
X159027780Y-100448905D01*
X159123018Y-100401286D01*
X159170637Y-100353667D01*
X159218256Y-100258429D01*
X159218256Y-100020333D01*
X159170637Y-99925095D01*
X159123018Y-99877476D01*
X155265381Y-97972714D02*
X154265381Y-97972714D01*
X154265381Y-98210809D01*
X154313000Y-98353667D01*
X154408238Y-98448905D01*
X154503476Y-98496524D01*
X154693952Y-98544143D01*
X154836810Y-98544143D01*
X155027286Y-98496524D01*
X155122524Y-98448905D01*
X155217762Y-98353667D01*
X155265381Y-98210809D01*
X155265381Y-97972714D01*
X154265381Y-98877476D02*
X154265381Y-99496524D01*
X154646333Y-99163190D01*
X154646333Y-99306048D01*
X154693952Y-99401286D01*
X154741571Y-99448905D01*
X154836810Y-99496524D01*
X155074905Y-99496524D01*
X155170143Y-99448905D01*
X155217762Y-99401286D01*
X155265381Y-99306048D01*
X155265381Y-99020333D01*
X155217762Y-98925095D01*
X155170143Y-98877476D01*
X154598714Y-100353667D02*
X155265381Y-100353667D01*
X154217762Y-100115571D02*
X154932048Y-99877476D01*
X154932048Y-100496524D01*
X136199506Y-89971714D02*
X135199506Y-89971714D01*
X135199506Y-90209809D01*
X135247125Y-90352667D01*
X135342363Y-90447905D01*
X135437601Y-90495524D01*
X135628077Y-90543143D01*
X135770935Y-90543143D01*
X135961411Y-90495524D01*
X136056649Y-90447905D01*
X136151887Y-90352667D01*
X136199506Y-90209809D01*
X136199506Y-89971714D01*
X135199506Y-90876476D02*
X135199506Y-91495524D01*
X135580458Y-91162190D01*
X135580458Y-91305048D01*
X135628077Y-91400286D01*
X135675696Y-91447905D01*
X135770935Y-91495524D01*
X136009030Y-91495524D01*
X136104268Y-91447905D01*
X136151887Y-91400286D01*
X136199506Y-91305048D01*
X136199506Y-91019333D01*
X136151887Y-90924095D01*
X136104268Y-90876476D01*
X135199506Y-91828857D02*
X135199506Y-92447905D01*
X135580458Y-92114571D01*
X135580458Y-92257429D01*
X135628077Y-92352667D01*
X135675696Y-92400286D01*
X135770935Y-92447905D01*
X136009030Y-92447905D01*
X136104268Y-92400286D01*
X136151887Y-92352667D01*
X136199506Y-92257429D01*
X136199506Y-91971714D01*
X136151887Y-91876476D01*
X136104268Y-91828857D01*
X117165381Y-89971714D02*
X116165381Y-89971714D01*
X116165381Y-90209809D01*
X116213000Y-90352667D01*
X116308238Y-90447905D01*
X116403476Y-90495524D01*
X116593952Y-90543143D01*
X116736810Y-90543143D01*
X116927286Y-90495524D01*
X117022524Y-90447905D01*
X117117762Y-90352667D01*
X117165381Y-90209809D01*
X117165381Y-89971714D01*
X116165381Y-90876476D02*
X116165381Y-91495524D01*
X116546333Y-91162190D01*
X116546333Y-91305048D01*
X116593952Y-91400286D01*
X116641571Y-91447905D01*
X116736810Y-91495524D01*
X116974905Y-91495524D01*
X117070143Y-91447905D01*
X117117762Y-91400286D01*
X117165381Y-91305048D01*
X117165381Y-91019333D01*
X117117762Y-90924095D01*
X117070143Y-90876476D01*
X116260619Y-91876476D02*
X116213000Y-91924095D01*
X116165381Y-92019333D01*
X116165381Y-92257429D01*
X116213000Y-92352667D01*
X116260619Y-92400286D01*
X116355857Y-92447905D01*
X116451095Y-92447905D01*
X116593952Y-92400286D01*
X117165381Y-91828857D01*
X117165381Y-92447905D01*
X100083631Y-94035714D02*
X99083631Y-94035714D01*
X99083631Y-94273809D01*
X99131250Y-94416667D01*
X99226488Y-94511905D01*
X99321726Y-94559524D01*
X99512202Y-94607143D01*
X99655060Y-94607143D01*
X99845536Y-94559524D01*
X99940774Y-94511905D01*
X100036012Y-94416667D01*
X100083631Y-94273809D01*
X100083631Y-94035714D01*
X99083631Y-94940476D02*
X99083631Y-95559524D01*
X99464583Y-95226190D01*
X99464583Y-95369048D01*
X99512202Y-95464286D01*
X99559821Y-95511905D01*
X99655060Y-95559524D01*
X99893155Y-95559524D01*
X99988393Y-95511905D01*
X100036012Y-95464286D01*
X100083631Y-95369048D01*
X100083631Y-95083333D01*
X100036012Y-94988095D01*
X99988393Y-94940476D01*
X100083631Y-96511905D02*
X100083631Y-95940476D01*
X100083631Y-96226190D02*
X99083631Y-96226190D01*
X99226488Y-96130952D01*
X99321726Y-96035714D01*
X99369345Y-95940476D01*
X52903381Y-89971714D02*
X51903381Y-89971714D01*
X51903381Y-90209809D01*
X51951000Y-90352667D01*
X52046238Y-90447905D01*
X52141476Y-90495524D01*
X52331952Y-90543143D01*
X52474810Y-90543143D01*
X52665286Y-90495524D01*
X52760524Y-90447905D01*
X52855762Y-90352667D01*
X52903381Y-90209809D01*
X52903381Y-89971714D01*
X51903381Y-90876476D02*
X51903381Y-91495524D01*
X52284333Y-91162190D01*
X52284333Y-91305048D01*
X52331952Y-91400286D01*
X52379571Y-91447905D01*
X52474810Y-91495524D01*
X52712905Y-91495524D01*
X52808143Y-91447905D01*
X52855762Y-91400286D01*
X52903381Y-91305048D01*
X52903381Y-91019333D01*
X52855762Y-90924095D01*
X52808143Y-90876476D01*
X51903381Y-92114571D02*
X51903381Y-92209810D01*
X51951000Y-92305048D01*
X51998619Y-92352667D01*
X52093857Y-92400286D01*
X52284333Y-92447905D01*
X52522429Y-92447905D01*
X52712905Y-92400286D01*
X52808143Y-92352667D01*
X52855762Y-92305048D01*
X52903381Y-92209810D01*
X52903381Y-92114571D01*
X52855762Y-92019333D01*
X52808143Y-91971714D01*
X52712905Y-91924095D01*
X52522429Y-91876476D01*
X52284333Y-91876476D01*
X52093857Y-91924095D01*
X51998619Y-91971714D01*
X51951000Y-92019333D01*
X51903381Y-92114571D01*
X328683631Y-74985714D02*
X327683631Y-74985714D01*
X327683631Y-75223809D01*
X327731250Y-75366667D01*
X327826488Y-75461905D01*
X327921726Y-75509524D01*
X328112202Y-75557143D01*
X328255060Y-75557143D01*
X328445536Y-75509524D01*
X328540774Y-75461905D01*
X328636012Y-75366667D01*
X328683631Y-75223809D01*
X328683631Y-74985714D01*
X327778869Y-75938095D02*
X327731250Y-75985714D01*
X327683631Y-76080952D01*
X327683631Y-76319048D01*
X327731250Y-76414286D01*
X327778869Y-76461905D01*
X327874107Y-76509524D01*
X327969345Y-76509524D01*
X328112202Y-76461905D01*
X328683631Y-75890476D01*
X328683631Y-76509524D01*
X328683631Y-76985714D02*
X328683631Y-77176190D01*
X328636012Y-77271429D01*
X328588393Y-77319048D01*
X328445536Y-77414286D01*
X328255060Y-77461905D01*
X327874107Y-77461905D01*
X327778869Y-77414286D01*
X327731250Y-77366667D01*
X327683631Y-77271429D01*
X327683631Y-77080952D01*
X327731250Y-76985714D01*
X327778869Y-76938095D01*
X327874107Y-76890476D01*
X328112202Y-76890476D01*
X328207440Y-76938095D01*
X328255060Y-76985714D01*
X328302679Y-77080952D01*
X328302679Y-77271429D01*
X328255060Y-77366667D01*
X328207440Y-77414286D01*
X328112202Y-77461905D01*
X302966381Y-70921714D02*
X301966381Y-70921714D01*
X301966381Y-71159809D01*
X302014000Y-71302667D01*
X302109238Y-71397905D01*
X302204476Y-71445524D01*
X302394952Y-71493143D01*
X302537810Y-71493143D01*
X302728286Y-71445524D01*
X302823524Y-71397905D01*
X302918762Y-71302667D01*
X302966381Y-71159809D01*
X302966381Y-70921714D01*
X302061619Y-71874095D02*
X302014000Y-71921714D01*
X301966381Y-72016952D01*
X301966381Y-72255048D01*
X302014000Y-72350286D01*
X302061619Y-72397905D01*
X302156857Y-72445524D01*
X302252095Y-72445524D01*
X302394952Y-72397905D01*
X302966381Y-71826476D01*
X302966381Y-72445524D01*
X302394952Y-73016952D02*
X302347333Y-72921714D01*
X302299714Y-72874095D01*
X302204476Y-72826476D01*
X302156857Y-72826476D01*
X302061619Y-72874095D01*
X302014000Y-72921714D01*
X301966381Y-73016952D01*
X301966381Y-73207429D01*
X302014000Y-73302667D01*
X302061619Y-73350286D01*
X302156857Y-73397905D01*
X302204476Y-73397905D01*
X302299714Y-73350286D01*
X302347333Y-73302667D01*
X302394952Y-73207429D01*
X302394952Y-73016952D01*
X302442571Y-72921714D01*
X302490190Y-72874095D01*
X302585429Y-72826476D01*
X302775905Y-72826476D01*
X302871143Y-72874095D01*
X302918762Y-72921714D01*
X302966381Y-73016952D01*
X302966381Y-73207429D01*
X302918762Y-73302667D01*
X302871143Y-73350286D01*
X302775905Y-73397905D01*
X302585429Y-73397905D01*
X302490190Y-73350286D01*
X302442571Y-73302667D01*
X302394952Y-73207429D01*
X285821131Y-74985714D02*
X284821131Y-74985714D01*
X284821131Y-75223809D01*
X284868750Y-75366667D01*
X284963988Y-75461905D01*
X285059226Y-75509524D01*
X285249702Y-75557143D01*
X285392560Y-75557143D01*
X285583036Y-75509524D01*
X285678274Y-75461905D01*
X285773512Y-75366667D01*
X285821131Y-75223809D01*
X285821131Y-74985714D01*
X284916369Y-75938095D02*
X284868750Y-75985714D01*
X284821131Y-76080952D01*
X284821131Y-76319048D01*
X284868750Y-76414286D01*
X284916369Y-76461905D01*
X285011607Y-76509524D01*
X285106845Y-76509524D01*
X285249702Y-76461905D01*
X285821131Y-75890476D01*
X285821131Y-76509524D01*
X284821131Y-76842857D02*
X284821131Y-77509524D01*
X285821131Y-77080952D01*
X266771131Y-74985714D02*
X265771131Y-74985714D01*
X265771131Y-75223809D01*
X265818750Y-75366667D01*
X265913988Y-75461905D01*
X266009226Y-75509524D01*
X266199702Y-75557143D01*
X266342560Y-75557143D01*
X266533036Y-75509524D01*
X266628274Y-75461905D01*
X266723512Y-75366667D01*
X266771131Y-75223809D01*
X266771131Y-74985714D01*
X265866369Y-75938095D02*
X265818750Y-75985714D01*
X265771131Y-76080952D01*
X265771131Y-76319048D01*
X265818750Y-76414286D01*
X265866369Y-76461905D01*
X265961607Y-76509524D01*
X266056845Y-76509524D01*
X266199702Y-76461905D01*
X266771131Y-75890476D01*
X266771131Y-76509524D01*
X265771131Y-77366667D02*
X265771131Y-77176190D01*
X265818750Y-77080952D01*
X265866369Y-77033333D01*
X266009226Y-76938095D01*
X266199702Y-76890476D01*
X266580655Y-76890476D01*
X266675893Y-76938095D01*
X266723512Y-76985714D01*
X266771131Y-77080952D01*
X266771131Y-77271429D01*
X266723512Y-77366667D01*
X266675893Y-77414286D01*
X266580655Y-77461905D01*
X266342560Y-77461905D01*
X266247321Y-77414286D01*
X266199702Y-77366667D01*
X266152083Y-77271429D01*
X266152083Y-77080952D01*
X266199702Y-76985714D01*
X266247321Y-76938095D01*
X266342560Y-76890476D01*
X247721131Y-74985714D02*
X246721131Y-74985714D01*
X246721131Y-75223809D01*
X246768750Y-75366667D01*
X246863988Y-75461905D01*
X246959226Y-75509524D01*
X247149702Y-75557143D01*
X247292560Y-75557143D01*
X247483036Y-75509524D01*
X247578274Y-75461905D01*
X247673512Y-75366667D01*
X247721131Y-75223809D01*
X247721131Y-74985714D01*
X246816369Y-75938095D02*
X246768750Y-75985714D01*
X246721131Y-76080952D01*
X246721131Y-76319048D01*
X246768750Y-76414286D01*
X246816369Y-76461905D01*
X246911607Y-76509524D01*
X247006845Y-76509524D01*
X247149702Y-76461905D01*
X247721131Y-75890476D01*
X247721131Y-76509524D01*
X246721131Y-77414286D02*
X246721131Y-76938095D01*
X247197321Y-76890476D01*
X247149702Y-76938095D01*
X247102083Y-77033333D01*
X247102083Y-77271429D01*
X247149702Y-77366667D01*
X247197321Y-77414286D01*
X247292560Y-77461905D01*
X247530655Y-77461905D01*
X247625893Y-77414286D01*
X247673512Y-77366667D01*
X247721131Y-77271429D01*
X247721131Y-77033333D01*
X247673512Y-76938095D01*
X247625893Y-76890476D01*
X228671131Y-74985714D02*
X227671131Y-74985714D01*
X227671131Y-75223809D01*
X227718750Y-75366667D01*
X227813988Y-75461905D01*
X227909226Y-75509524D01*
X228099702Y-75557143D01*
X228242560Y-75557143D01*
X228433036Y-75509524D01*
X228528274Y-75461905D01*
X228623512Y-75366667D01*
X228671131Y-75223809D01*
X228671131Y-74985714D01*
X227766369Y-75938095D02*
X227718750Y-75985714D01*
X227671131Y-76080952D01*
X227671131Y-76319048D01*
X227718750Y-76414286D01*
X227766369Y-76461905D01*
X227861607Y-76509524D01*
X227956845Y-76509524D01*
X228099702Y-76461905D01*
X228671131Y-75890476D01*
X228671131Y-76509524D01*
X228004464Y-77366667D02*
X228671131Y-77366667D01*
X227623512Y-77128571D02*
X228337798Y-76890476D01*
X228337798Y-77509524D01*
X209621131Y-74985714D02*
X208621131Y-74985714D01*
X208621131Y-75223809D01*
X208668750Y-75366667D01*
X208763988Y-75461905D01*
X208859226Y-75509524D01*
X209049702Y-75557143D01*
X209192560Y-75557143D01*
X209383036Y-75509524D01*
X209478274Y-75461905D01*
X209573512Y-75366667D01*
X209621131Y-75223809D01*
X209621131Y-74985714D01*
X208716369Y-75938095D02*
X208668750Y-75985714D01*
X208621131Y-76080952D01*
X208621131Y-76319048D01*
X208668750Y-76414286D01*
X208716369Y-76461905D01*
X208811607Y-76509524D01*
X208906845Y-76509524D01*
X209049702Y-76461905D01*
X209621131Y-75890476D01*
X209621131Y-76509524D01*
X208621131Y-76842857D02*
X208621131Y-77461905D01*
X209002083Y-77128571D01*
X209002083Y-77271429D01*
X209049702Y-77366667D01*
X209097321Y-77414286D01*
X209192560Y-77461905D01*
X209430655Y-77461905D01*
X209525893Y-77414286D01*
X209573512Y-77366667D01*
X209621131Y-77271429D01*
X209621131Y-76985714D01*
X209573512Y-76890476D01*
X209525893Y-76842857D01*
X190571131Y-74985714D02*
X189571131Y-74985714D01*
X189571131Y-75223809D01*
X189618750Y-75366667D01*
X189713988Y-75461905D01*
X189809226Y-75509524D01*
X189999702Y-75557143D01*
X190142560Y-75557143D01*
X190333036Y-75509524D01*
X190428274Y-75461905D01*
X190523512Y-75366667D01*
X190571131Y-75223809D01*
X190571131Y-74985714D01*
X189666369Y-75938095D02*
X189618750Y-75985714D01*
X189571131Y-76080952D01*
X189571131Y-76319048D01*
X189618750Y-76414286D01*
X189666369Y-76461905D01*
X189761607Y-76509524D01*
X189856845Y-76509524D01*
X189999702Y-76461905D01*
X190571131Y-75890476D01*
X190571131Y-76509524D01*
X189666369Y-76890476D02*
X189618750Y-76938095D01*
X189571131Y-77033333D01*
X189571131Y-77271429D01*
X189618750Y-77366667D01*
X189666369Y-77414286D01*
X189761607Y-77461905D01*
X189856845Y-77461905D01*
X189999702Y-77414286D01*
X190571131Y-76842857D01*
X190571131Y-77461905D01*
X171521131Y-74985714D02*
X170521131Y-74985714D01*
X170521131Y-75223809D01*
X170568750Y-75366667D01*
X170663988Y-75461905D01*
X170759226Y-75509524D01*
X170949702Y-75557143D01*
X171092560Y-75557143D01*
X171283036Y-75509524D01*
X171378274Y-75461905D01*
X171473512Y-75366667D01*
X171521131Y-75223809D01*
X171521131Y-74985714D01*
X170616369Y-75938095D02*
X170568750Y-75985714D01*
X170521131Y-76080952D01*
X170521131Y-76319048D01*
X170568750Y-76414286D01*
X170616369Y-76461905D01*
X170711607Y-76509524D01*
X170806845Y-76509524D01*
X170949702Y-76461905D01*
X171521131Y-75890476D01*
X171521131Y-76509524D01*
X171521131Y-77461905D02*
X171521131Y-76890476D01*
X171521131Y-77176190D02*
X170521131Y-77176190D01*
X170663988Y-77080952D01*
X170759226Y-76985714D01*
X170806845Y-76890476D01*
X152471131Y-74985714D02*
X151471131Y-74985714D01*
X151471131Y-75223809D01*
X151518750Y-75366667D01*
X151613988Y-75461905D01*
X151709226Y-75509524D01*
X151899702Y-75557143D01*
X152042560Y-75557143D01*
X152233036Y-75509524D01*
X152328274Y-75461905D01*
X152423512Y-75366667D01*
X152471131Y-75223809D01*
X152471131Y-74985714D01*
X151566369Y-75938095D02*
X151518750Y-75985714D01*
X151471131Y-76080952D01*
X151471131Y-76319048D01*
X151518750Y-76414286D01*
X151566369Y-76461905D01*
X151661607Y-76509524D01*
X151756845Y-76509524D01*
X151899702Y-76461905D01*
X152471131Y-75890476D01*
X152471131Y-76509524D01*
X151471131Y-77128571D02*
X151471131Y-77223810D01*
X151518750Y-77319048D01*
X151566369Y-77366667D01*
X151661607Y-77414286D01*
X151852083Y-77461905D01*
X152090179Y-77461905D01*
X152280655Y-77414286D01*
X152375893Y-77366667D01*
X152423512Y-77319048D01*
X152471131Y-77223810D01*
X152471131Y-77128571D01*
X152423512Y-77033333D01*
X152375893Y-76985714D01*
X152280655Y-76938095D01*
X152090179Y-76890476D01*
X151852083Y-76890476D01*
X151661607Y-76938095D01*
X151566369Y-76985714D01*
X151518750Y-77033333D01*
X151471131Y-77128571D01*
X133421131Y-74985714D02*
X132421131Y-74985714D01*
X132421131Y-75223809D01*
X132468750Y-75366667D01*
X132563988Y-75461905D01*
X132659226Y-75509524D01*
X132849702Y-75557143D01*
X132992560Y-75557143D01*
X133183036Y-75509524D01*
X133278274Y-75461905D01*
X133373512Y-75366667D01*
X133421131Y-75223809D01*
X133421131Y-74985714D01*
X133421131Y-76509524D02*
X133421131Y-75938095D01*
X133421131Y-76223809D02*
X132421131Y-76223809D01*
X132563988Y-76128571D01*
X132659226Y-76033333D01*
X132706845Y-75938095D01*
X133421131Y-76985714D02*
X133421131Y-77176190D01*
X133373512Y-77271429D01*
X133325893Y-77319048D01*
X133183036Y-77414286D01*
X132992560Y-77461905D01*
X132611607Y-77461905D01*
X132516369Y-77414286D01*
X132468750Y-77366667D01*
X132421131Y-77271429D01*
X132421131Y-77080952D01*
X132468750Y-76985714D01*
X132516369Y-76938095D01*
X132611607Y-76890476D01*
X132849702Y-76890476D01*
X132944940Y-76938095D01*
X132992560Y-76985714D01*
X133040179Y-77080952D01*
X133040179Y-77271429D01*
X132992560Y-77366667D01*
X132944940Y-77414286D01*
X132849702Y-77461905D01*
X114371131Y-74985714D02*
X113371131Y-74985714D01*
X113371131Y-75223809D01*
X113418750Y-75366667D01*
X113513988Y-75461905D01*
X113609226Y-75509524D01*
X113799702Y-75557143D01*
X113942560Y-75557143D01*
X114133036Y-75509524D01*
X114228274Y-75461905D01*
X114323512Y-75366667D01*
X114371131Y-75223809D01*
X114371131Y-74985714D01*
X114371131Y-76509524D02*
X114371131Y-75938095D01*
X114371131Y-76223809D02*
X113371131Y-76223809D01*
X113513988Y-76128571D01*
X113609226Y-76033333D01*
X113656845Y-75938095D01*
X113799702Y-77080952D02*
X113752083Y-76985714D01*
X113704464Y-76938095D01*
X113609226Y-76890476D01*
X113561607Y-76890476D01*
X113466369Y-76938095D01*
X113418750Y-76985714D01*
X113371131Y-77080952D01*
X113371131Y-77271429D01*
X113418750Y-77366667D01*
X113466369Y-77414286D01*
X113561607Y-77461905D01*
X113609226Y-77461905D01*
X113704464Y-77414286D01*
X113752083Y-77366667D01*
X113799702Y-77271429D01*
X113799702Y-77080952D01*
X113847321Y-76985714D01*
X113894940Y-76938095D01*
X113990179Y-76890476D01*
X114180655Y-76890476D01*
X114275893Y-76938095D01*
X114323512Y-76985714D01*
X114371131Y-77080952D01*
X114371131Y-77271429D01*
X114323512Y-77366667D01*
X114275893Y-77414286D01*
X114180655Y-77461905D01*
X113990179Y-77461905D01*
X113894940Y-77414286D01*
X113847321Y-77366667D01*
X113799702Y-77271429D01*
X95321131Y-74985714D02*
X94321131Y-74985714D01*
X94321131Y-75223809D01*
X94368750Y-75366667D01*
X94463988Y-75461905D01*
X94559226Y-75509524D01*
X94749702Y-75557143D01*
X94892560Y-75557143D01*
X95083036Y-75509524D01*
X95178274Y-75461905D01*
X95273512Y-75366667D01*
X95321131Y-75223809D01*
X95321131Y-74985714D01*
X95321131Y-76509524D02*
X95321131Y-75938095D01*
X95321131Y-76223809D02*
X94321131Y-76223809D01*
X94463988Y-76128571D01*
X94559226Y-76033333D01*
X94606845Y-75938095D01*
X94321131Y-76842857D02*
X94321131Y-77509524D01*
X95321131Y-77080952D01*
X54046381Y-70921714D02*
X53046381Y-70921714D01*
X53046381Y-71159809D01*
X53094000Y-71302667D01*
X53189238Y-71397905D01*
X53284476Y-71445524D01*
X53474952Y-71493143D01*
X53617810Y-71493143D01*
X53808286Y-71445524D01*
X53903524Y-71397905D01*
X53998762Y-71302667D01*
X54046381Y-71159809D01*
X54046381Y-70921714D01*
X54046381Y-72445524D02*
X54046381Y-71874095D01*
X54046381Y-72159809D02*
X53046381Y-72159809D01*
X53189238Y-72064571D01*
X53284476Y-71969333D01*
X53332095Y-71874095D01*
X53046381Y-73302667D02*
X53046381Y-73112190D01*
X53094000Y-73016952D01*
X53141619Y-72969333D01*
X53284476Y-72874095D01*
X53474952Y-72826476D01*
X53855905Y-72826476D01*
X53951143Y-72874095D01*
X53998762Y-72921714D01*
X54046381Y-73016952D01*
X54046381Y-73207429D01*
X53998762Y-73302667D01*
X53951143Y-73350286D01*
X53855905Y-73397905D01*
X53617810Y-73397905D01*
X53522571Y-73350286D01*
X53474952Y-73302667D01*
X53427333Y-73207429D01*
X53427333Y-73016952D01*
X53474952Y-72921714D01*
X53522571Y-72874095D01*
X53617810Y-72826476D01*
X333446131Y-55935714D02*
X332446131Y-55935714D01*
X332446131Y-56173809D01*
X332493750Y-56316667D01*
X332588988Y-56411905D01*
X332684226Y-56459524D01*
X332874702Y-56507143D01*
X333017560Y-56507143D01*
X333208036Y-56459524D01*
X333303274Y-56411905D01*
X333398512Y-56316667D01*
X333446131Y-56173809D01*
X333446131Y-55935714D01*
X333446131Y-57459524D02*
X333446131Y-56888095D01*
X333446131Y-57173809D02*
X332446131Y-57173809D01*
X332588988Y-57078571D01*
X332684226Y-56983333D01*
X332731845Y-56888095D01*
X332446131Y-58364286D02*
X332446131Y-57888095D01*
X332922321Y-57840476D01*
X332874702Y-57888095D01*
X332827083Y-57983333D01*
X332827083Y-58221429D01*
X332874702Y-58316667D01*
X332922321Y-58364286D01*
X333017560Y-58411905D01*
X333255655Y-58411905D01*
X333350893Y-58364286D01*
X333398512Y-58316667D01*
X333446131Y-58221429D01*
X333446131Y-57983333D01*
X333398512Y-57888095D01*
X333350893Y-57840476D01*
X296997381Y-59872714D02*
X295997381Y-59872714D01*
X295997381Y-60110809D01*
X296045000Y-60253667D01*
X296140238Y-60348905D01*
X296235476Y-60396524D01*
X296425952Y-60444143D01*
X296568810Y-60444143D01*
X296759286Y-60396524D01*
X296854524Y-60348905D01*
X296949762Y-60253667D01*
X296997381Y-60110809D01*
X296997381Y-59872714D01*
X296997381Y-61396524D02*
X296997381Y-60825095D01*
X296997381Y-61110809D02*
X295997381Y-61110809D01*
X296140238Y-61015571D01*
X296235476Y-60920333D01*
X296283095Y-60825095D01*
X296330714Y-62253667D02*
X296997381Y-62253667D01*
X295949762Y-62015571D02*
X296664048Y-61777476D01*
X296664048Y-62396524D01*
X293377881Y-59872714D02*
X292377881Y-59872714D01*
X292377881Y-60110809D01*
X292425500Y-60253667D01*
X292520738Y-60348905D01*
X292615976Y-60396524D01*
X292806452Y-60444143D01*
X292949310Y-60444143D01*
X293139786Y-60396524D01*
X293235024Y-60348905D01*
X293330262Y-60253667D01*
X293377881Y-60110809D01*
X293377881Y-59872714D01*
X293377881Y-61396524D02*
X293377881Y-60825095D01*
X293377881Y-61110809D02*
X292377881Y-61110809D01*
X292520738Y-61015571D01*
X292615976Y-60920333D01*
X292663595Y-60825095D01*
X292377881Y-61729857D02*
X292377881Y-62348905D01*
X292758833Y-62015571D01*
X292758833Y-62158429D01*
X292806452Y-62253667D01*
X292854071Y-62301286D01*
X292949310Y-62348905D01*
X293187405Y-62348905D01*
X293282643Y-62301286D01*
X293330262Y-62253667D01*
X293377881Y-62158429D01*
X293377881Y-61872714D01*
X293330262Y-61777476D01*
X293282643Y-61729857D01*
X276296131Y-55935714D02*
X275296131Y-55935714D01*
X275296131Y-56173809D01*
X275343750Y-56316667D01*
X275438988Y-56411905D01*
X275534226Y-56459524D01*
X275724702Y-56507143D01*
X275867560Y-56507143D01*
X276058036Y-56459524D01*
X276153274Y-56411905D01*
X276248512Y-56316667D01*
X276296131Y-56173809D01*
X276296131Y-55935714D01*
X276296131Y-57459524D02*
X276296131Y-56888095D01*
X276296131Y-57173809D02*
X275296131Y-57173809D01*
X275438988Y-57078571D01*
X275534226Y-56983333D01*
X275581845Y-56888095D01*
X275391369Y-57840476D02*
X275343750Y-57888095D01*
X275296131Y-57983333D01*
X275296131Y-58221429D01*
X275343750Y-58316667D01*
X275391369Y-58364286D01*
X275486607Y-58411905D01*
X275581845Y-58411905D01*
X275724702Y-58364286D01*
X276296131Y-57792857D01*
X276296131Y-58411905D01*
X257246131Y-55935714D02*
X256246131Y-55935714D01*
X256246131Y-56173809D01*
X256293750Y-56316667D01*
X256388988Y-56411905D01*
X256484226Y-56459524D01*
X256674702Y-56507143D01*
X256817560Y-56507143D01*
X257008036Y-56459524D01*
X257103274Y-56411905D01*
X257198512Y-56316667D01*
X257246131Y-56173809D01*
X257246131Y-55935714D01*
X257246131Y-57459524D02*
X257246131Y-56888095D01*
X257246131Y-57173809D02*
X256246131Y-57173809D01*
X256388988Y-57078571D01*
X256484226Y-56983333D01*
X256531845Y-56888095D01*
X257246131Y-58411905D02*
X257246131Y-57840476D01*
X257246131Y-58126190D02*
X256246131Y-58126190D01*
X256388988Y-58030952D01*
X256484226Y-57935714D01*
X256531845Y-57840476D01*
X238196131Y-55935714D02*
X237196131Y-55935714D01*
X237196131Y-56173809D01*
X237243750Y-56316667D01*
X237338988Y-56411905D01*
X237434226Y-56459524D01*
X237624702Y-56507143D01*
X237767560Y-56507143D01*
X237958036Y-56459524D01*
X238053274Y-56411905D01*
X238148512Y-56316667D01*
X238196131Y-56173809D01*
X238196131Y-55935714D01*
X238196131Y-57459524D02*
X238196131Y-56888095D01*
X238196131Y-57173809D02*
X237196131Y-57173809D01*
X237338988Y-57078571D01*
X237434226Y-56983333D01*
X237481845Y-56888095D01*
X237196131Y-58078571D02*
X237196131Y-58173810D01*
X237243750Y-58269048D01*
X237291369Y-58316667D01*
X237386607Y-58364286D01*
X237577083Y-58411905D01*
X237815179Y-58411905D01*
X238005655Y-58364286D01*
X238100893Y-58316667D01*
X238148512Y-58269048D01*
X238196131Y-58173810D01*
X238196131Y-58078571D01*
X238148512Y-57983333D01*
X238100893Y-57935714D01*
X238005655Y-57888095D01*
X237815179Y-57840476D01*
X237577083Y-57840476D01*
X237386607Y-57888095D01*
X237291369Y-57935714D01*
X237243750Y-57983333D01*
X237196131Y-58078571D01*
X219146131Y-56411905D02*
X218146131Y-56411905D01*
X218146131Y-56650000D01*
X218193750Y-56792858D01*
X218288988Y-56888096D01*
X218384226Y-56935715D01*
X218574702Y-56983334D01*
X218717560Y-56983334D01*
X218908036Y-56935715D01*
X219003274Y-56888096D01*
X219098512Y-56792858D01*
X219146131Y-56650000D01*
X219146131Y-56411905D01*
X219146131Y-57459524D02*
X219146131Y-57650000D01*
X219098512Y-57745239D01*
X219050893Y-57792858D01*
X218908036Y-57888096D01*
X218717560Y-57935715D01*
X218336607Y-57935715D01*
X218241369Y-57888096D01*
X218193750Y-57840477D01*
X218146131Y-57745239D01*
X218146131Y-57554762D01*
X218193750Y-57459524D01*
X218241369Y-57411905D01*
X218336607Y-57364286D01*
X218574702Y-57364286D01*
X218669940Y-57411905D01*
X218717560Y-57459524D01*
X218765179Y-57554762D01*
X218765179Y-57745239D01*
X218717560Y-57840477D01*
X218669940Y-57888096D01*
X218574702Y-57935715D01*
X200096131Y-56411905D02*
X199096131Y-56411905D01*
X199096131Y-56650000D01*
X199143750Y-56792858D01*
X199238988Y-56888096D01*
X199334226Y-56935715D01*
X199524702Y-56983334D01*
X199667560Y-56983334D01*
X199858036Y-56935715D01*
X199953274Y-56888096D01*
X200048512Y-56792858D01*
X200096131Y-56650000D01*
X200096131Y-56411905D01*
X199524702Y-57554762D02*
X199477083Y-57459524D01*
X199429464Y-57411905D01*
X199334226Y-57364286D01*
X199286607Y-57364286D01*
X199191369Y-57411905D01*
X199143750Y-57459524D01*
X199096131Y-57554762D01*
X199096131Y-57745239D01*
X199143750Y-57840477D01*
X199191369Y-57888096D01*
X199286607Y-57935715D01*
X199334226Y-57935715D01*
X199429464Y-57888096D01*
X199477083Y-57840477D01*
X199524702Y-57745239D01*
X199524702Y-57554762D01*
X199572321Y-57459524D01*
X199619940Y-57411905D01*
X199715179Y-57364286D01*
X199905655Y-57364286D01*
X200000893Y-57411905D01*
X200048512Y-57459524D01*
X200096131Y-57554762D01*
X200096131Y-57745239D01*
X200048512Y-57840477D01*
X200000893Y-57888096D01*
X199905655Y-57935715D01*
X199715179Y-57935715D01*
X199619940Y-57888096D01*
X199572321Y-57840477D01*
X199524702Y-57745239D01*
X181046131Y-56411905D02*
X180046131Y-56411905D01*
X180046131Y-56650000D01*
X180093750Y-56792858D01*
X180188988Y-56888096D01*
X180284226Y-56935715D01*
X180474702Y-56983334D01*
X180617560Y-56983334D01*
X180808036Y-56935715D01*
X180903274Y-56888096D01*
X180998512Y-56792858D01*
X181046131Y-56650000D01*
X181046131Y-56411905D01*
X180046131Y-57316667D02*
X180046131Y-57983334D01*
X181046131Y-57554762D01*
X161996131Y-56411905D02*
X160996131Y-56411905D01*
X160996131Y-56650000D01*
X161043750Y-56792858D01*
X161138988Y-56888096D01*
X161234226Y-56935715D01*
X161424702Y-56983334D01*
X161567560Y-56983334D01*
X161758036Y-56935715D01*
X161853274Y-56888096D01*
X161948512Y-56792858D01*
X161996131Y-56650000D01*
X161996131Y-56411905D01*
X160996131Y-57840477D02*
X160996131Y-57650000D01*
X161043750Y-57554762D01*
X161091369Y-57507143D01*
X161234226Y-57411905D01*
X161424702Y-57364286D01*
X161805655Y-57364286D01*
X161900893Y-57411905D01*
X161948512Y-57459524D01*
X161996131Y-57554762D01*
X161996131Y-57745239D01*
X161948512Y-57840477D01*
X161900893Y-57888096D01*
X161805655Y-57935715D01*
X161567560Y-57935715D01*
X161472321Y-57888096D01*
X161424702Y-57840477D01*
X161377083Y-57745239D01*
X161377083Y-57554762D01*
X161424702Y-57459524D01*
X161472321Y-57411905D01*
X161567560Y-57364286D01*
X142946131Y-56411905D02*
X141946131Y-56411905D01*
X141946131Y-56650000D01*
X141993750Y-56792858D01*
X142088988Y-56888096D01*
X142184226Y-56935715D01*
X142374702Y-56983334D01*
X142517560Y-56983334D01*
X142708036Y-56935715D01*
X142803274Y-56888096D01*
X142898512Y-56792858D01*
X142946131Y-56650000D01*
X142946131Y-56411905D01*
X141946131Y-57888096D02*
X141946131Y-57411905D01*
X142422321Y-57364286D01*
X142374702Y-57411905D01*
X142327083Y-57507143D01*
X142327083Y-57745239D01*
X142374702Y-57840477D01*
X142422321Y-57888096D01*
X142517560Y-57935715D01*
X142755655Y-57935715D01*
X142850893Y-57888096D01*
X142898512Y-57840477D01*
X142946131Y-57745239D01*
X142946131Y-57507143D01*
X142898512Y-57411905D01*
X142850893Y-57364286D01*
X123896131Y-56411905D02*
X122896131Y-56411905D01*
X122896131Y-56650000D01*
X122943750Y-56792858D01*
X123038988Y-56888096D01*
X123134226Y-56935715D01*
X123324702Y-56983334D01*
X123467560Y-56983334D01*
X123658036Y-56935715D01*
X123753274Y-56888096D01*
X123848512Y-56792858D01*
X123896131Y-56650000D01*
X123896131Y-56411905D01*
X123229464Y-57840477D02*
X123896131Y-57840477D01*
X122848512Y-57602381D02*
X123562798Y-57364286D01*
X123562798Y-57983334D01*
X104846131Y-56411905D02*
X103846131Y-56411905D01*
X103846131Y-56650000D01*
X103893750Y-56792858D01*
X103988988Y-56888096D01*
X104084226Y-56935715D01*
X104274702Y-56983334D01*
X104417560Y-56983334D01*
X104608036Y-56935715D01*
X104703274Y-56888096D01*
X104798512Y-56792858D01*
X104846131Y-56650000D01*
X104846131Y-56411905D01*
X103846131Y-57316667D02*
X103846131Y-57935715D01*
X104227083Y-57602381D01*
X104227083Y-57745239D01*
X104274702Y-57840477D01*
X104322321Y-57888096D01*
X104417560Y-57935715D01*
X104655655Y-57935715D01*
X104750893Y-57888096D01*
X104798512Y-57840477D01*
X104846131Y-57745239D01*
X104846131Y-57459524D01*
X104798512Y-57364286D01*
X104750893Y-57316667D01*
X85796131Y-56411905D02*
X84796131Y-56411905D01*
X84796131Y-56650000D01*
X84843750Y-56792858D01*
X84938988Y-56888096D01*
X85034226Y-56935715D01*
X85224702Y-56983334D01*
X85367560Y-56983334D01*
X85558036Y-56935715D01*
X85653274Y-56888096D01*
X85748512Y-56792858D01*
X85796131Y-56650000D01*
X85796131Y-56411905D01*
X84891369Y-57364286D02*
X84843750Y-57411905D01*
X84796131Y-57507143D01*
X84796131Y-57745239D01*
X84843750Y-57840477D01*
X84891369Y-57888096D01*
X84986607Y-57935715D01*
X85081845Y-57935715D01*
X85224702Y-57888096D01*
X85796131Y-57316667D01*
X85796131Y-57935715D01*
X54839881Y-59205905D02*
X53839881Y-59205905D01*
X53839881Y-59444000D01*
X53887500Y-59586858D01*
X53982738Y-59682096D01*
X54077976Y-59729715D01*
X54268452Y-59777334D01*
X54411310Y-59777334D01*
X54601786Y-59729715D01*
X54697024Y-59682096D01*
X54792262Y-59586858D01*
X54839881Y-59444000D01*
X54839881Y-59205905D01*
X54839881Y-60729715D02*
X54839881Y-60158286D01*
X54839881Y-60444000D02*
X53839881Y-60444000D01*
X53982738Y-60348762D01*
X54077976Y-60253524D01*
X54125595Y-60158286D01*
X335414881Y-59904464D02*
X334414881Y-59904464D01*
X334414881Y-60142559D01*
X334462500Y-60285417D01*
X334557738Y-60380655D01*
X334652976Y-60428274D01*
X334843452Y-60475893D01*
X334986310Y-60475893D01*
X335176786Y-60428274D01*
X335272024Y-60380655D01*
X335367262Y-60285417D01*
X335414881Y-60142559D01*
X335414881Y-59904464D01*
X334748214Y-61333036D02*
X335414881Y-61333036D01*
X334367262Y-61094940D02*
X335081548Y-60856845D01*
X335081548Y-61475893D01*
X334510119Y-61809226D02*
X334462500Y-61856845D01*
X334414881Y-61952083D01*
X334414881Y-62190179D01*
X334462500Y-62285417D01*
X334510119Y-62333036D01*
X334605357Y-62380655D01*
X334700595Y-62380655D01*
X334843452Y-62333036D01*
X335414881Y-61761607D01*
X335414881Y-62380655D01*
X333319381Y-74985714D02*
X332319381Y-74985714D01*
X332319381Y-75223809D01*
X332367000Y-75366667D01*
X332462238Y-75461905D01*
X332557476Y-75509524D01*
X332747952Y-75557143D01*
X332890810Y-75557143D01*
X333081286Y-75509524D01*
X333176524Y-75461905D01*
X333271762Y-75366667D01*
X333319381Y-75223809D01*
X333319381Y-74985714D01*
X332652714Y-76414286D02*
X333319381Y-76414286D01*
X332271762Y-76176190D02*
X332986048Y-75938095D01*
X332986048Y-76557143D01*
X332319381Y-77414286D02*
X332319381Y-76938095D01*
X332795571Y-76890476D01*
X332747952Y-76938095D01*
X332700333Y-77033333D01*
X332700333Y-77271429D01*
X332747952Y-77366667D01*
X332795571Y-77414286D01*
X332890810Y-77461905D01*
X333128905Y-77461905D01*
X333224143Y-77414286D01*
X333271762Y-77366667D01*
X333319381Y-77271429D01*
X333319381Y-77033333D01*
X333271762Y-76938095D01*
X333224143Y-76890476D01*
X333319381Y-94035714D02*
X332319381Y-94035714D01*
X332319381Y-94273809D01*
X332367000Y-94416667D01*
X332462238Y-94511905D01*
X332557476Y-94559524D01*
X332747952Y-94607143D01*
X332890810Y-94607143D01*
X333081286Y-94559524D01*
X333176524Y-94511905D01*
X333271762Y-94416667D01*
X333319381Y-94273809D01*
X333319381Y-94035714D01*
X332319381Y-95511905D02*
X332319381Y-95035714D01*
X332795571Y-94988095D01*
X332747952Y-95035714D01*
X332700333Y-95130952D01*
X332700333Y-95369048D01*
X332747952Y-95464286D01*
X332795571Y-95511905D01*
X332890810Y-95559524D01*
X333128905Y-95559524D01*
X333224143Y-95511905D01*
X333271762Y-95464286D01*
X333319381Y-95369048D01*
X333319381Y-95130952D01*
X333271762Y-95035714D01*
X333224143Y-94988095D01*
X332319381Y-96464286D02*
X332319381Y-95988095D01*
X332795571Y-95940476D01*
X332747952Y-95988095D01*
X332700333Y-96083333D01*
X332700333Y-96321429D01*
X332747952Y-96416667D01*
X332795571Y-96464286D01*
X332890810Y-96511905D01*
X333128905Y-96511905D01*
X333224143Y-96464286D01*
X333271762Y-96416667D01*
X333319381Y-96321429D01*
X333319381Y-96083333D01*
X333271762Y-95988095D01*
X333224143Y-95940476D01*
X281852381Y-113085714D02*
X280852381Y-113085714D01*
X280852381Y-113323809D01*
X280900000Y-113466667D01*
X280995238Y-113561905D01*
X281090476Y-113609524D01*
X281280952Y-113657143D01*
X281423810Y-113657143D01*
X281614286Y-113609524D01*
X281709524Y-113561905D01*
X281804762Y-113466667D01*
X281852381Y-113323809D01*
X281852381Y-113085714D01*
X280852381Y-114561905D02*
X280852381Y-114085714D01*
X281328571Y-114038095D01*
X281280952Y-114085714D01*
X281233333Y-114180952D01*
X281233333Y-114419048D01*
X281280952Y-114514286D01*
X281328571Y-114561905D01*
X281423810Y-114609524D01*
X281661905Y-114609524D01*
X281757143Y-114561905D01*
X281804762Y-114514286D01*
X281852381Y-114419048D01*
X281852381Y-114180952D01*
X281804762Y-114085714D01*
X281757143Y-114038095D01*
X280852381Y-115466667D02*
X280852381Y-115276190D01*
X280900000Y-115180952D01*
X280947619Y-115133333D01*
X281090476Y-115038095D01*
X281280952Y-114990476D01*
X281661905Y-114990476D01*
X281757143Y-115038095D01*
X281804762Y-115085714D01*
X281852381Y-115180952D01*
X281852381Y-115371429D01*
X281804762Y-115466667D01*
X281757143Y-115514286D01*
X281661905Y-115561905D01*
X281423810Y-115561905D01*
X281328571Y-115514286D01*
X281280952Y-115466667D01*
X281233333Y-115371429D01*
X281233333Y-115180952D01*
X281280952Y-115085714D01*
X281328571Y-115038095D01*
X281423810Y-114990476D01*
X307252381Y-113085714D02*
X306252381Y-113085714D01*
X306252381Y-113323809D01*
X306300000Y-113466667D01*
X306395238Y-113561905D01*
X306490476Y-113609524D01*
X306680952Y-113657143D01*
X306823810Y-113657143D01*
X307014286Y-113609524D01*
X307109524Y-113561905D01*
X307204762Y-113466667D01*
X307252381Y-113323809D01*
X307252381Y-113085714D01*
X306252381Y-114561905D02*
X306252381Y-114085714D01*
X306728571Y-114038095D01*
X306680952Y-114085714D01*
X306633333Y-114180952D01*
X306633333Y-114419048D01*
X306680952Y-114514286D01*
X306728571Y-114561905D01*
X306823810Y-114609524D01*
X307061905Y-114609524D01*
X307157143Y-114561905D01*
X307204762Y-114514286D01*
X307252381Y-114419048D01*
X307252381Y-114180952D01*
X307204762Y-114085714D01*
X307157143Y-114038095D01*
X306252381Y-114942857D02*
X306252381Y-115609524D01*
X307252381Y-115180952D01*
X333446131Y-113085714D02*
X332446131Y-113085714D01*
X332446131Y-113323809D01*
X332493750Y-113466667D01*
X332588988Y-113561905D01*
X332684226Y-113609524D01*
X332874702Y-113657143D01*
X333017560Y-113657143D01*
X333208036Y-113609524D01*
X333303274Y-113561905D01*
X333398512Y-113466667D01*
X333446131Y-113323809D01*
X333446131Y-113085714D01*
X332446131Y-114561905D02*
X332446131Y-114085714D01*
X332922321Y-114038095D01*
X332874702Y-114085714D01*
X332827083Y-114180952D01*
X332827083Y-114419048D01*
X332874702Y-114514286D01*
X332922321Y-114561905D01*
X333017560Y-114609524D01*
X333255655Y-114609524D01*
X333350893Y-114561905D01*
X333398512Y-114514286D01*
X333446131Y-114419048D01*
X333446131Y-114180952D01*
X333398512Y-114085714D01*
X333350893Y-114038095D01*
X332874702Y-115180952D02*
X332827083Y-115085714D01*
X332779464Y-115038095D01*
X332684226Y-114990476D01*
X332636607Y-114990476D01*
X332541369Y-115038095D01*
X332493750Y-115085714D01*
X332446131Y-115180952D01*
X332446131Y-115371429D01*
X332493750Y-115466667D01*
X332541369Y-115514286D01*
X332636607Y-115561905D01*
X332684226Y-115561905D01*
X332779464Y-115514286D01*
X332827083Y-115466667D01*
X332874702Y-115371429D01*
X332874702Y-115180952D01*
X332922321Y-115085714D01*
X332969940Y-115038095D01*
X333065179Y-114990476D01*
X333255655Y-114990476D01*
X333350893Y-115038095D01*
X333398512Y-115085714D01*
X333446131Y-115180952D01*
X333446131Y-115371429D01*
X333398512Y-115466667D01*
X333350893Y-115514286D01*
X333255655Y-115561905D01*
X333065179Y-115561905D01*
X332969940Y-115514286D01*
X332922321Y-115466667D01*
X332874702Y-115371429D01*
X335478381Y-117022714D02*
X334478381Y-117022714D01*
X334478381Y-117260809D01*
X334526000Y-117403667D01*
X334621238Y-117498905D01*
X334716476Y-117546524D01*
X334906952Y-117594143D01*
X335049810Y-117594143D01*
X335240286Y-117546524D01*
X335335524Y-117498905D01*
X335430762Y-117403667D01*
X335478381Y-117260809D01*
X335478381Y-117022714D01*
X334478381Y-118498905D02*
X334478381Y-118022714D01*
X334954571Y-117975095D01*
X334906952Y-118022714D01*
X334859333Y-118117952D01*
X334859333Y-118356048D01*
X334906952Y-118451286D01*
X334954571Y-118498905D01*
X335049810Y-118546524D01*
X335287905Y-118546524D01*
X335383143Y-118498905D01*
X335430762Y-118451286D01*
X335478381Y-118356048D01*
X335478381Y-118117952D01*
X335430762Y-118022714D01*
X335383143Y-117975095D01*
X335478381Y-119022714D02*
X335478381Y-119213190D01*
X335430762Y-119308429D01*
X335383143Y-119356048D01*
X335240286Y-119451286D01*
X335049810Y-119498905D01*
X334668857Y-119498905D01*
X334573619Y-119451286D01*
X334526000Y-119403667D01*
X334478381Y-119308429D01*
X334478381Y-119117952D01*
X334526000Y-119022714D01*
X334573619Y-118975095D01*
X334668857Y-118927476D01*
X334906952Y-118927476D01*
X335002190Y-118975095D01*
X335049810Y-119022714D01*
X335097429Y-119117952D01*
X335097429Y-119308429D01*
X335049810Y-119403667D01*
X335002190Y-119451286D01*
X334906952Y-119498905D01*
X297378381Y-136072714D02*
X296378381Y-136072714D01*
X296378381Y-136310809D01*
X296426000Y-136453667D01*
X296521238Y-136548905D01*
X296616476Y-136596524D01*
X296806952Y-136644143D01*
X296949810Y-136644143D01*
X297140286Y-136596524D01*
X297235524Y-136548905D01*
X297330762Y-136453667D01*
X297378381Y-136310809D01*
X297378381Y-136072714D01*
X296378381Y-137501286D02*
X296378381Y-137310809D01*
X296426000Y-137215571D01*
X296473619Y-137167952D01*
X296616476Y-137072714D01*
X296806952Y-137025095D01*
X297187905Y-137025095D01*
X297283143Y-137072714D01*
X297330762Y-137120333D01*
X297378381Y-137215571D01*
X297378381Y-137406048D01*
X297330762Y-137501286D01*
X297283143Y-137548905D01*
X297187905Y-137596524D01*
X296949810Y-137596524D01*
X296854571Y-137548905D01*
X296806952Y-137501286D01*
X296759333Y-137406048D01*
X296759333Y-137215571D01*
X296806952Y-137120333D01*
X296854571Y-137072714D01*
X296949810Y-137025095D01*
X296378381Y-138215571D02*
X296378381Y-138310810D01*
X296426000Y-138406048D01*
X296473619Y-138453667D01*
X296568857Y-138501286D01*
X296759333Y-138548905D01*
X296997429Y-138548905D01*
X297187905Y-138501286D01*
X297283143Y-138453667D01*
X297330762Y-138406048D01*
X297378381Y-138310810D01*
X297378381Y-138215571D01*
X297330762Y-138120333D01*
X297283143Y-138072714D01*
X297187905Y-138025095D01*
X296997429Y-137977476D01*
X296759333Y-137977476D01*
X296568857Y-138025095D01*
X296473619Y-138072714D01*
X296426000Y-138120333D01*
X296378381Y-138215571D01*
X333446131Y-132135714D02*
X332446131Y-132135714D01*
X332446131Y-132373809D01*
X332493750Y-132516667D01*
X332588988Y-132611905D01*
X332684226Y-132659524D01*
X332874702Y-132707143D01*
X333017560Y-132707143D01*
X333208036Y-132659524D01*
X333303274Y-132611905D01*
X333398512Y-132516667D01*
X333446131Y-132373809D01*
X333446131Y-132135714D01*
X332446131Y-133564286D02*
X332446131Y-133373809D01*
X332493750Y-133278571D01*
X332541369Y-133230952D01*
X332684226Y-133135714D01*
X332874702Y-133088095D01*
X333255655Y-133088095D01*
X333350893Y-133135714D01*
X333398512Y-133183333D01*
X333446131Y-133278571D01*
X333446131Y-133469048D01*
X333398512Y-133564286D01*
X333350893Y-133611905D01*
X333255655Y-133659524D01*
X333017560Y-133659524D01*
X332922321Y-133611905D01*
X332874702Y-133564286D01*
X332827083Y-133469048D01*
X332827083Y-133278571D01*
X332874702Y-133183333D01*
X332922321Y-133135714D01*
X333017560Y-133088095D01*
X333446131Y-134611905D02*
X333446131Y-134040476D01*
X333446131Y-134326190D02*
X332446131Y-134326190D01*
X332588988Y-134230952D01*
X332684226Y-134135714D01*
X332731845Y-134040476D01*
X335351381Y-136072714D02*
X334351381Y-136072714D01*
X334351381Y-136310809D01*
X334399000Y-136453667D01*
X334494238Y-136548905D01*
X334589476Y-136596524D01*
X334779952Y-136644143D01*
X334922810Y-136644143D01*
X335113286Y-136596524D01*
X335208524Y-136548905D01*
X335303762Y-136453667D01*
X335351381Y-136310809D01*
X335351381Y-136072714D01*
X334351381Y-137501286D02*
X334351381Y-137310809D01*
X334399000Y-137215571D01*
X334446619Y-137167952D01*
X334589476Y-137072714D01*
X334779952Y-137025095D01*
X335160905Y-137025095D01*
X335256143Y-137072714D01*
X335303762Y-137120333D01*
X335351381Y-137215571D01*
X335351381Y-137406048D01*
X335303762Y-137501286D01*
X335256143Y-137548905D01*
X335160905Y-137596524D01*
X334922810Y-137596524D01*
X334827571Y-137548905D01*
X334779952Y-137501286D01*
X334732333Y-137406048D01*
X334732333Y-137215571D01*
X334779952Y-137120333D01*
X334827571Y-137072714D01*
X334922810Y-137025095D01*
X334446619Y-137977476D02*
X334399000Y-138025095D01*
X334351381Y-138120333D01*
X334351381Y-138358429D01*
X334399000Y-138453667D01*
X334446619Y-138501286D01*
X334541857Y-138548905D01*
X334637095Y-138548905D01*
X334779952Y-138501286D01*
X335351381Y-137929857D01*
X335351381Y-138548905D01*
X52046131Y-136104464D02*
X51046131Y-136104464D01*
X51046131Y-136342559D01*
X51093750Y-136485417D01*
X51188988Y-136580655D01*
X51284226Y-136628274D01*
X51474702Y-136675893D01*
X51617560Y-136675893D01*
X51808036Y-136628274D01*
X51903274Y-136580655D01*
X51998512Y-136485417D01*
X52046131Y-136342559D01*
X52046131Y-136104464D01*
X51046131Y-137533036D02*
X51046131Y-137342559D01*
X51093750Y-137247321D01*
X51141369Y-137199702D01*
X51284226Y-137104464D01*
X51474702Y-137056845D01*
X51855655Y-137056845D01*
X51950893Y-137104464D01*
X51998512Y-137152083D01*
X52046131Y-137247321D01*
X52046131Y-137437798D01*
X51998512Y-137533036D01*
X51950893Y-137580655D01*
X51855655Y-137628274D01*
X51617560Y-137628274D01*
X51522321Y-137580655D01*
X51474702Y-137533036D01*
X51427083Y-137437798D01*
X51427083Y-137247321D01*
X51474702Y-137152083D01*
X51522321Y-137104464D01*
X51617560Y-137056845D01*
X51046131Y-137961607D02*
X51046131Y-138580655D01*
X51427083Y-138247321D01*
X51427083Y-138390179D01*
X51474702Y-138485417D01*
X51522321Y-138533036D01*
X51617560Y-138580655D01*
X51855655Y-138580655D01*
X51950893Y-138533036D01*
X51998512Y-138485417D01*
X52046131Y-138390179D01*
X52046131Y-138104464D01*
X51998512Y-138009226D01*
X51950893Y-137961607D01*
X100083631Y-132135714D02*
X99083631Y-132135714D01*
X99083631Y-132373809D01*
X99131250Y-132516667D01*
X99226488Y-132611905D01*
X99321726Y-132659524D01*
X99512202Y-132707143D01*
X99655060Y-132707143D01*
X99845536Y-132659524D01*
X99940774Y-132611905D01*
X100036012Y-132516667D01*
X100083631Y-132373809D01*
X100083631Y-132135714D01*
X99083631Y-133564286D02*
X99083631Y-133373809D01*
X99131250Y-133278571D01*
X99178869Y-133230952D01*
X99321726Y-133135714D01*
X99512202Y-133088095D01*
X99893155Y-133088095D01*
X99988393Y-133135714D01*
X100036012Y-133183333D01*
X100083631Y-133278571D01*
X100083631Y-133469048D01*
X100036012Y-133564286D01*
X99988393Y-133611905D01*
X99893155Y-133659524D01*
X99655060Y-133659524D01*
X99559821Y-133611905D01*
X99512202Y-133564286D01*
X99464583Y-133469048D01*
X99464583Y-133278571D01*
X99512202Y-133183333D01*
X99559821Y-133135714D01*
X99655060Y-133088095D01*
X99416964Y-134516667D02*
X100083631Y-134516667D01*
X99036012Y-134278571D02*
X99750298Y-134040476D01*
X99750298Y-134659524D01*
X123896131Y-132135714D02*
X122896131Y-132135714D01*
X122896131Y-132373809D01*
X122943750Y-132516667D01*
X123038988Y-132611905D01*
X123134226Y-132659524D01*
X123324702Y-132707143D01*
X123467560Y-132707143D01*
X123658036Y-132659524D01*
X123753274Y-132611905D01*
X123848512Y-132516667D01*
X123896131Y-132373809D01*
X123896131Y-132135714D01*
X122896131Y-133564286D02*
X122896131Y-133373809D01*
X122943750Y-133278571D01*
X122991369Y-133230952D01*
X123134226Y-133135714D01*
X123324702Y-133088095D01*
X123705655Y-133088095D01*
X123800893Y-133135714D01*
X123848512Y-133183333D01*
X123896131Y-133278571D01*
X123896131Y-133469048D01*
X123848512Y-133564286D01*
X123800893Y-133611905D01*
X123705655Y-133659524D01*
X123467560Y-133659524D01*
X123372321Y-133611905D01*
X123324702Y-133564286D01*
X123277083Y-133469048D01*
X123277083Y-133278571D01*
X123324702Y-133183333D01*
X123372321Y-133135714D01*
X123467560Y-133088095D01*
X122896131Y-134564286D02*
X122896131Y-134088095D01*
X123372321Y-134040476D01*
X123324702Y-134088095D01*
X123277083Y-134183333D01*
X123277083Y-134421429D01*
X123324702Y-134516667D01*
X123372321Y-134564286D01*
X123467560Y-134611905D01*
X123705655Y-134611905D01*
X123800893Y-134564286D01*
X123848512Y-134516667D01*
X123896131Y-134421429D01*
X123896131Y-134183333D01*
X123848512Y-134088095D01*
X123800893Y-134040476D01*
X159614881Y-132135714D02*
X158614881Y-132135714D01*
X158614881Y-132373809D01*
X158662500Y-132516667D01*
X158757738Y-132611905D01*
X158852976Y-132659524D01*
X159043452Y-132707143D01*
X159186310Y-132707143D01*
X159376786Y-132659524D01*
X159472024Y-132611905D01*
X159567262Y-132516667D01*
X159614881Y-132373809D01*
X159614881Y-132135714D01*
X158614881Y-133564286D02*
X158614881Y-133373809D01*
X158662500Y-133278571D01*
X158710119Y-133230952D01*
X158852976Y-133135714D01*
X159043452Y-133088095D01*
X159424405Y-133088095D01*
X159519643Y-133135714D01*
X159567262Y-133183333D01*
X159614881Y-133278571D01*
X159614881Y-133469048D01*
X159567262Y-133564286D01*
X159519643Y-133611905D01*
X159424405Y-133659524D01*
X159186310Y-133659524D01*
X159091071Y-133611905D01*
X159043452Y-133564286D01*
X158995833Y-133469048D01*
X158995833Y-133278571D01*
X159043452Y-133183333D01*
X159091071Y-133135714D01*
X159186310Y-133088095D01*
X158614881Y-134516667D02*
X158614881Y-134326190D01*
X158662500Y-134230952D01*
X158710119Y-134183333D01*
X158852976Y-134088095D01*
X159043452Y-134040476D01*
X159424405Y-134040476D01*
X159519643Y-134088095D01*
X159567262Y-134135714D01*
X159614881Y-134230952D01*
X159614881Y-134421429D01*
X159567262Y-134516667D01*
X159519643Y-134564286D01*
X159424405Y-134611905D01*
X159186310Y-134611905D01*
X159091071Y-134564286D01*
X159043452Y-134516667D01*
X158995833Y-134421429D01*
X158995833Y-134230952D01*
X159043452Y-134135714D01*
X159091071Y-134088095D01*
X159186310Y-134040476D01*
X161996381Y-132135714D02*
X160996381Y-132135714D01*
X160996381Y-132373809D01*
X161044000Y-132516667D01*
X161139238Y-132611905D01*
X161234476Y-132659524D01*
X161424952Y-132707143D01*
X161567810Y-132707143D01*
X161758286Y-132659524D01*
X161853524Y-132611905D01*
X161948762Y-132516667D01*
X161996381Y-132373809D01*
X161996381Y-132135714D01*
X160996381Y-133564286D02*
X160996381Y-133373809D01*
X161044000Y-133278571D01*
X161091619Y-133230952D01*
X161234476Y-133135714D01*
X161424952Y-133088095D01*
X161805905Y-133088095D01*
X161901143Y-133135714D01*
X161948762Y-133183333D01*
X161996381Y-133278571D01*
X161996381Y-133469048D01*
X161948762Y-133564286D01*
X161901143Y-133611905D01*
X161805905Y-133659524D01*
X161567810Y-133659524D01*
X161472571Y-133611905D01*
X161424952Y-133564286D01*
X161377333Y-133469048D01*
X161377333Y-133278571D01*
X161424952Y-133183333D01*
X161472571Y-133135714D01*
X161567810Y-133088095D01*
X160996381Y-133992857D02*
X160996381Y-134659524D01*
X161996381Y-134230952D01*
X204382631Y-136072714D02*
X203382631Y-136072714D01*
X203382631Y-136310809D01*
X203430250Y-136453667D01*
X203525488Y-136548905D01*
X203620726Y-136596524D01*
X203811202Y-136644143D01*
X203954060Y-136644143D01*
X204144536Y-136596524D01*
X204239774Y-136548905D01*
X204335012Y-136453667D01*
X204382631Y-136310809D01*
X204382631Y-136072714D01*
X203382631Y-137501286D02*
X203382631Y-137310809D01*
X203430250Y-137215571D01*
X203477869Y-137167952D01*
X203620726Y-137072714D01*
X203811202Y-137025095D01*
X204192155Y-137025095D01*
X204287393Y-137072714D01*
X204335012Y-137120333D01*
X204382631Y-137215571D01*
X204382631Y-137406048D01*
X204335012Y-137501286D01*
X204287393Y-137548905D01*
X204192155Y-137596524D01*
X203954060Y-137596524D01*
X203858821Y-137548905D01*
X203811202Y-137501286D01*
X203763583Y-137406048D01*
X203763583Y-137215571D01*
X203811202Y-137120333D01*
X203858821Y-137072714D01*
X203954060Y-137025095D01*
X203811202Y-138167952D02*
X203763583Y-138072714D01*
X203715964Y-138025095D01*
X203620726Y-137977476D01*
X203573107Y-137977476D01*
X203477869Y-138025095D01*
X203430250Y-138072714D01*
X203382631Y-138167952D01*
X203382631Y-138358429D01*
X203430250Y-138453667D01*
X203477869Y-138501286D01*
X203573107Y-138548905D01*
X203620726Y-138548905D01*
X203715964Y-138501286D01*
X203763583Y-138453667D01*
X203811202Y-138358429D01*
X203811202Y-138167952D01*
X203858821Y-138072714D01*
X203906440Y-138025095D01*
X204001679Y-137977476D01*
X204192155Y-137977476D01*
X204287393Y-138025095D01*
X204335012Y-138072714D01*
X204382631Y-138167952D01*
X204382631Y-138358429D01*
X204335012Y-138453667D01*
X204287393Y-138501286D01*
X204192155Y-138548905D01*
X204001679Y-138548905D01*
X203906440Y-138501286D01*
X203858821Y-138453667D01*
X203811202Y-138358429D01*
D16*
X54533679Y-81749416D02*
X54533679Y-80992496D01*
X54245328Y-80992496D01*
X54173241Y-81028540D01*
X54137197Y-81064584D01*
X54101153Y-81136671D01*
X54101153Y-81244803D01*
X54137197Y-81316890D01*
X54173241Y-81352934D01*
X54245328Y-81388978D01*
X54533679Y-81388978D01*
X53380277Y-81749416D02*
X53812803Y-81749416D01*
X53596540Y-81749416D02*
X53596540Y-80992496D01*
X53668628Y-81100628D01*
X53740715Y-81172715D01*
X53812803Y-81208759D01*
D13*
X198445381Y-132135714D02*
X197445381Y-132135714D01*
X197445381Y-132373809D01*
X197493000Y-132516667D01*
X197588238Y-132611905D01*
X197683476Y-132659524D01*
X197873952Y-132707143D01*
X198016810Y-132707143D01*
X198207286Y-132659524D01*
X198302524Y-132611905D01*
X198397762Y-132516667D01*
X198445381Y-132373809D01*
X198445381Y-132135714D01*
X197445381Y-133564286D02*
X197445381Y-133373809D01*
X197493000Y-133278571D01*
X197540619Y-133230952D01*
X197683476Y-133135714D01*
X197873952Y-133088095D01*
X198254905Y-133088095D01*
X198350143Y-133135714D01*
X198397762Y-133183333D01*
X198445381Y-133278571D01*
X198445381Y-133469048D01*
X198397762Y-133564286D01*
X198350143Y-133611905D01*
X198254905Y-133659524D01*
X198016810Y-133659524D01*
X197921571Y-133611905D01*
X197873952Y-133564286D01*
X197826333Y-133469048D01*
X197826333Y-133278571D01*
X197873952Y-133183333D01*
X197921571Y-133135714D01*
X198016810Y-133088095D01*
X198445381Y-134135714D02*
X198445381Y-134326190D01*
X198397762Y-134421429D01*
X198350143Y-134469048D01*
X198207286Y-134564286D01*
X198016810Y-134611905D01*
X197635857Y-134611905D01*
X197540619Y-134564286D01*
X197493000Y-134516667D01*
X197445381Y-134421429D01*
X197445381Y-134230952D01*
X197493000Y-134135714D01*
X197540619Y-134088095D01*
X197635857Y-134040476D01*
X197873952Y-134040476D01*
X197969190Y-134088095D01*
X198016810Y-134135714D01*
X198064429Y-134230952D01*
X198064429Y-134421429D01*
X198016810Y-134516667D01*
X197969190Y-134564286D01*
X197873952Y-134611905D01*
X293409631Y-136072714D02*
X292409631Y-136072714D01*
X292409631Y-136310809D01*
X292457250Y-136453667D01*
X292552488Y-136548905D01*
X292647726Y-136596524D01*
X292838202Y-136644143D01*
X292981060Y-136644143D01*
X293171536Y-136596524D01*
X293266774Y-136548905D01*
X293362012Y-136453667D01*
X293409631Y-136310809D01*
X293409631Y-136072714D01*
X292409631Y-136977476D02*
X292409631Y-137644143D01*
X293409631Y-137215571D01*
X292409631Y-138215571D02*
X292409631Y-138310810D01*
X292457250Y-138406048D01*
X292504869Y-138453667D01*
X292600107Y-138501286D01*
X292790583Y-138548905D01*
X293028679Y-138548905D01*
X293219155Y-138501286D01*
X293314393Y-138453667D01*
X293362012Y-138406048D01*
X293409631Y-138310810D01*
X293409631Y-138215571D01*
X293362012Y-138120333D01*
X293314393Y-138072714D01*
X293219155Y-138025095D01*
X293028679Y-137977476D01*
X292790583Y-137977476D01*
X292600107Y-138025095D01*
X292504869Y-138072714D01*
X292457250Y-138120333D01*
X292409631Y-138215571D01*
X274391381Y-136072714D02*
X273391381Y-136072714D01*
X273391381Y-136310809D01*
X273439000Y-136453667D01*
X273534238Y-136548905D01*
X273629476Y-136596524D01*
X273819952Y-136644143D01*
X273962810Y-136644143D01*
X274153286Y-136596524D01*
X274248524Y-136548905D01*
X274343762Y-136453667D01*
X274391381Y-136310809D01*
X274391381Y-136072714D01*
X273391381Y-136977476D02*
X273391381Y-137644143D01*
X274391381Y-137215571D01*
X274391381Y-138548905D02*
X274391381Y-137977476D01*
X274391381Y-138263190D02*
X273391381Y-138263190D01*
X273534238Y-138167952D01*
X273629476Y-138072714D01*
X273677095Y-137977476D01*
X73786905Y-67016381D02*
X73786905Y-67825905D01*
X73739286Y-67921143D01*
X73691667Y-67968762D01*
X73596429Y-68016381D01*
X73405952Y-68016381D01*
X73310714Y-67968762D01*
X73263095Y-67921143D01*
X73215476Y-67825905D01*
X73215476Y-67016381D01*
X72786905Y-67111619D02*
X72739286Y-67064000D01*
X72644048Y-67016381D01*
X72405952Y-67016381D01*
X72310714Y-67064000D01*
X72263095Y-67111619D01*
X72215476Y-67206857D01*
X72215476Y-67302095D01*
X72263095Y-67444952D01*
X72834524Y-68016381D01*
X72215476Y-68016381D01*
X58443762Y-113760417D02*
X58491381Y-113903274D01*
X58491381Y-114141370D01*
X58443762Y-114236608D01*
X58396143Y-114284227D01*
X58300905Y-114331846D01*
X58205667Y-114331846D01*
X58110429Y-114284227D01*
X58062810Y-114236608D01*
X58015190Y-114141370D01*
X57967571Y-113950893D01*
X57919952Y-113855655D01*
X57872333Y-113808036D01*
X57777095Y-113760417D01*
X57681857Y-113760417D01*
X57586619Y-113808036D01*
X57539000Y-113855655D01*
X57491381Y-113950893D01*
X57491381Y-114188989D01*
X57539000Y-114331846D01*
X57491381Y-114665179D02*
X58491381Y-114903274D01*
X57777095Y-115093751D01*
X58491381Y-115284227D01*
X57491381Y-115522322D01*
X58491381Y-116427084D02*
X58491381Y-115855655D01*
X58491381Y-116141369D02*
X57491381Y-116141369D01*
X57634238Y-116046131D01*
X57729476Y-115950893D01*
X57777095Y-115855655D01*
X67975695Y-55078381D02*
X67975695Y-55887905D01*
X67928076Y-55983143D01*
X67880457Y-56030762D01*
X67785219Y-56078381D01*
X67594742Y-56078381D01*
X67499504Y-56030762D01*
X67451885Y-55983143D01*
X67404266Y-55887905D01*
X67404266Y-55078381D01*
X66975695Y-56030762D02*
X66832838Y-56078381D01*
X66594742Y-56078381D01*
X66499504Y-56030762D01*
X66451885Y-55983143D01*
X66404266Y-55887905D01*
X66404266Y-55792667D01*
X66451885Y-55697429D01*
X66499504Y-55649810D01*
X66594742Y-55602190D01*
X66785219Y-55554571D01*
X66880457Y-55506952D01*
X66928076Y-55459333D01*
X66975695Y-55364095D01*
X66975695Y-55268857D01*
X66928076Y-55173619D01*
X66880457Y-55126000D01*
X66785219Y-55078381D01*
X66547123Y-55078381D01*
X66404266Y-55126000D01*
X65642361Y-55554571D02*
X65499504Y-55602190D01*
X65451885Y-55649810D01*
X65404266Y-55745048D01*
X65404266Y-55887905D01*
X65451885Y-55983143D01*
X65499504Y-56030762D01*
X65594742Y-56078381D01*
X65975695Y-56078381D01*
X65975695Y-55078381D01*
X65642361Y-55078381D01*
X65547123Y-55126000D01*
X65499504Y-55173619D01*
X65451885Y-55268857D01*
X65451885Y-55364095D01*
X65499504Y-55459333D01*
X65547123Y-55506952D01*
X65642361Y-55554571D01*
X65975695Y-55554571D01*
X64451885Y-56078381D02*
X65023314Y-56078381D01*
X64737600Y-56078381D02*
X64737600Y-55078381D01*
X64832838Y-55221238D01*
X64928076Y-55316476D01*
X65023314Y-55364095D01*
X78119905Y-83696381D02*
X78119905Y-84505905D01*
X78072286Y-84601143D01*
X78024667Y-84648762D01*
X77929429Y-84696381D01*
X77738952Y-84696381D01*
X77643714Y-84648762D01*
X77596095Y-84601143D01*
X77548476Y-84505905D01*
X77548476Y-83696381D01*
X76548476Y-84696381D02*
X77119905Y-84696381D01*
X76834191Y-84696381D02*
X76834191Y-83696381D01*
X76929429Y-83839238D01*
X77024667Y-83934476D01*
X77119905Y-83982095D01*
X67818143Y-70064334D02*
X67865762Y-70016715D01*
X67913381Y-69873858D01*
X67913381Y-69778620D01*
X67865762Y-69635762D01*
X67770524Y-69540524D01*
X67675286Y-69492905D01*
X67484810Y-69445286D01*
X67341952Y-69445286D01*
X67151476Y-69492905D01*
X67056238Y-69540524D01*
X66961000Y-69635762D01*
X66913381Y-69778620D01*
X66913381Y-69873858D01*
X66961000Y-70016715D01*
X67008619Y-70064334D01*
X67913381Y-71016715D02*
X67913381Y-70445286D01*
X67913381Y-70731000D02*
X66913381Y-70731000D01*
X67056238Y-70635762D01*
X67151476Y-70540524D01*
X67199095Y-70445286D01*
X68111666Y-85852143D02*
X68159285Y-85899762D01*
X68302142Y-85947381D01*
X68397380Y-85947381D01*
X68540238Y-85899762D01*
X68635476Y-85804524D01*
X68683095Y-85709286D01*
X68730714Y-85518810D01*
X68730714Y-85375952D01*
X68683095Y-85185476D01*
X68635476Y-85090238D01*
X68540238Y-84995000D01*
X68397380Y-84947381D01*
X68302142Y-84947381D01*
X68159285Y-84995000D01*
X68111666Y-85042619D01*
X67730714Y-85042619D02*
X67683095Y-84995000D01*
X67587857Y-84947381D01*
X67349761Y-84947381D01*
X67254523Y-84995000D01*
X67206904Y-85042619D01*
X67159285Y-85137857D01*
X67159285Y-85233095D01*
X67206904Y-85375952D01*
X67778333Y-85947381D01*
X67159285Y-85947381D01*
X85637666Y-99774143D02*
X85685285Y-99821762D01*
X85828142Y-99869381D01*
X85923380Y-99869381D01*
X86066238Y-99821762D01*
X86161476Y-99726524D01*
X86209095Y-99631286D01*
X86256714Y-99440810D01*
X86256714Y-99297952D01*
X86209095Y-99107476D01*
X86161476Y-99012238D01*
X86066238Y-98917000D01*
X85923380Y-98869381D01*
X85828142Y-98869381D01*
X85685285Y-98917000D01*
X85637666Y-98964619D01*
X85304333Y-98869381D02*
X84685285Y-98869381D01*
X85018619Y-99250333D01*
X84875761Y-99250333D01*
X84780523Y-99297952D01*
X84732904Y-99345571D01*
X84685285Y-99440810D01*
X84685285Y-99678905D01*
X84732904Y-99774143D01*
X84780523Y-99821762D01*
X84875761Y-99869381D01*
X85161476Y-99869381D01*
X85256714Y-99821762D01*
X85304333Y-99774143D01*
X77636666Y-103330143D02*
X77684285Y-103377762D01*
X77827142Y-103425381D01*
X77922380Y-103425381D01*
X78065238Y-103377762D01*
X78160476Y-103282524D01*
X78208095Y-103187286D01*
X78255714Y-102996810D01*
X78255714Y-102853952D01*
X78208095Y-102663476D01*
X78160476Y-102568238D01*
X78065238Y-102473000D01*
X77922380Y-102425381D01*
X77827142Y-102425381D01*
X77684285Y-102473000D01*
X77636666Y-102520619D01*
X76779523Y-102758714D02*
X76779523Y-103425381D01*
X77017619Y-102377762D02*
X77255714Y-103092048D01*
X76636666Y-103092048D01*
X75565143Y-81367334D02*
X75612762Y-81319715D01*
X75660381Y-81176858D01*
X75660381Y-81081620D01*
X75612762Y-80938762D01*
X75517524Y-80843524D01*
X75422286Y-80795905D01*
X75231810Y-80748286D01*
X75088952Y-80748286D01*
X74898476Y-80795905D01*
X74803238Y-80843524D01*
X74708000Y-80938762D01*
X74660381Y-81081620D01*
X74660381Y-81176858D01*
X74708000Y-81319715D01*
X74755619Y-81367334D01*
X74660381Y-82272096D02*
X74660381Y-81795905D01*
X75136571Y-81748286D01*
X75088952Y-81795905D01*
X75041333Y-81891143D01*
X75041333Y-82129239D01*
X75088952Y-82224477D01*
X75136571Y-82272096D01*
X75231810Y-82319715D01*
X75469905Y-82319715D01*
X75565143Y-82272096D01*
X75612762Y-82224477D01*
X75660381Y-82129239D01*
X75660381Y-81891143D01*
X75612762Y-81795905D01*
X75565143Y-81748286D01*
X80938666Y-83518143D02*
X80986285Y-83565762D01*
X81129142Y-83613381D01*
X81224380Y-83613381D01*
X81367238Y-83565762D01*
X81462476Y-83470524D01*
X81510095Y-83375286D01*
X81557714Y-83184810D01*
X81557714Y-83041952D01*
X81510095Y-82851476D01*
X81462476Y-82756238D01*
X81367238Y-82661000D01*
X81224380Y-82613381D01*
X81129142Y-82613381D01*
X80986285Y-82661000D01*
X80938666Y-82708619D01*
X80081523Y-82613381D02*
X80272000Y-82613381D01*
X80367238Y-82661000D01*
X80414857Y-82708619D01*
X80510095Y-82851476D01*
X80557714Y-83041952D01*
X80557714Y-83422905D01*
X80510095Y-83518143D01*
X80462476Y-83565762D01*
X80367238Y-83613381D01*
X80176761Y-83613381D01*
X80081523Y-83565762D01*
X80033904Y-83518143D01*
X79986285Y-83422905D01*
X79986285Y-83184810D01*
X80033904Y-83089571D01*
X80081523Y-83041952D01*
X80176761Y-82994333D01*
X80367238Y-82994333D01*
X80462476Y-83041952D01*
X80510095Y-83089571D01*
X80557714Y-83184810D01*
X72683666Y-80463381D02*
X73017000Y-79987190D01*
X73255095Y-80463381D02*
X73255095Y-79463381D01*
X72874142Y-79463381D01*
X72778904Y-79511000D01*
X72731285Y-79558619D01*
X72683666Y-79653857D01*
X72683666Y-79796714D01*
X72731285Y-79891952D01*
X72778904Y-79939571D01*
X72874142Y-79987190D01*
X73255095Y-79987190D01*
X71731285Y-80463381D02*
X72302714Y-80463381D01*
X72017000Y-80463381D02*
X72017000Y-79463381D01*
X72112238Y-79606238D01*
X72207476Y-79701476D01*
X72302714Y-79749095D01*
X59000381Y-56983334D02*
X58524190Y-56650000D01*
X59000381Y-56411905D02*
X58000381Y-56411905D01*
X58000381Y-56792858D01*
X58048000Y-56888096D01*
X58095619Y-56935715D01*
X58190857Y-56983334D01*
X58333714Y-56983334D01*
X58428952Y-56935715D01*
X58476571Y-56888096D01*
X58524190Y-56792858D01*
X58524190Y-56411905D01*
X58000381Y-57840477D02*
X58000381Y-57650000D01*
X58048000Y-57554762D01*
X58095619Y-57507143D01*
X58238476Y-57411905D01*
X58428952Y-57364286D01*
X58809905Y-57364286D01*
X58905143Y-57411905D01*
X58952762Y-57459524D01*
X59000381Y-57554762D01*
X59000381Y-57745239D01*
X58952762Y-57840477D01*
X58905143Y-57888096D01*
X58809905Y-57935715D01*
X58571810Y-57935715D01*
X58476571Y-57888096D01*
X58428952Y-57840477D01*
X58381333Y-57745239D01*
X58381333Y-57554762D01*
X58428952Y-57459524D01*
X58476571Y-57411905D01*
X58571810Y-57364286D01*
X72460381Y-59904334D02*
X71984190Y-59571000D01*
X72460381Y-59332905D02*
X71460381Y-59332905D01*
X71460381Y-59713858D01*
X71508000Y-59809096D01*
X71555619Y-59856715D01*
X71650857Y-59904334D01*
X71793714Y-59904334D01*
X71888952Y-59856715D01*
X71936571Y-59809096D01*
X71984190Y-59713858D01*
X71984190Y-59332905D01*
X71460381Y-60237667D02*
X71460381Y-60904334D01*
X72460381Y-60475762D01*
%LPC*%
D17*
X78215428Y-138299857D02*
X77986857Y-139099857D01*
X77758286Y-138528429D01*
X77529714Y-139099857D01*
X77301143Y-138299857D01*
X76958285Y-138299857D02*
X76729714Y-139099857D01*
X76501143Y-138528429D01*
X76272571Y-139099857D01*
X76044000Y-138299857D01*
X75701142Y-138299857D02*
X75472571Y-139099857D01*
X75244000Y-138528429D01*
X75015428Y-139099857D01*
X74786857Y-138299857D01*
X74329714Y-138985571D02*
X74272571Y-139042714D01*
X74329714Y-139099857D01*
X74386857Y-139042714D01*
X74329714Y-138985571D01*
X74329714Y-139099857D01*
X73243999Y-139099857D02*
X73243999Y-138471286D01*
X73301142Y-138357000D01*
X73415428Y-138299857D01*
X73643999Y-138299857D01*
X73758285Y-138357000D01*
X73243999Y-139042714D02*
X73358285Y-139099857D01*
X73643999Y-139099857D01*
X73758285Y-139042714D01*
X73815428Y-138928429D01*
X73815428Y-138814143D01*
X73758285Y-138699857D01*
X73643999Y-138642714D01*
X73358285Y-138642714D01*
X73243999Y-138585571D01*
X72672571Y-139099857D02*
X72672571Y-138299857D01*
X72672571Y-137899857D02*
X72729714Y-137957000D01*
X72672571Y-138014143D01*
X72615428Y-137957000D01*
X72672571Y-137899857D01*
X72672571Y-138014143D01*
X71872570Y-137899857D02*
X71758285Y-137899857D01*
X71643999Y-137957000D01*
X71586856Y-138014143D01*
X71529713Y-138128429D01*
X71472570Y-138357000D01*
X71472570Y-138642714D01*
X71529713Y-138871286D01*
X71586856Y-138985571D01*
X71643999Y-139042714D01*
X71758285Y-139099857D01*
X71872570Y-139099857D01*
X71986856Y-139042714D01*
X72043999Y-138985571D01*
X72101142Y-138871286D01*
X72158285Y-138642714D01*
X72158285Y-138357000D01*
X72101142Y-138128429D01*
X72043999Y-138014143D01*
X71986856Y-137957000D01*
X71872570Y-137899857D01*
X71072570Y-137899857D02*
X70329713Y-137899857D01*
X70729713Y-138357000D01*
X70558285Y-138357000D01*
X70443999Y-138414143D01*
X70386856Y-138471286D01*
X70329713Y-138585571D01*
X70329713Y-138871286D01*
X70386856Y-138985571D01*
X70443999Y-139042714D01*
X70558285Y-139099857D01*
X70901142Y-139099857D01*
X71015428Y-139042714D01*
X71072570Y-138985571D01*
X69815428Y-138985571D02*
X69758285Y-139042714D01*
X69815428Y-139099857D01*
X69872571Y-139042714D01*
X69815428Y-138985571D01*
X69815428Y-139099857D01*
X69243999Y-139099857D02*
X69243999Y-138299857D01*
X69243999Y-138414143D02*
X69186856Y-138357000D01*
X69072570Y-138299857D01*
X68901142Y-138299857D01*
X68786856Y-138357000D01*
X68729713Y-138471286D01*
X68729713Y-139099857D01*
X68729713Y-138471286D02*
X68672570Y-138357000D01*
X68558284Y-138299857D01*
X68386856Y-138299857D01*
X68272570Y-138357000D01*
X68215427Y-138471286D01*
X68215427Y-139099857D01*
X67186856Y-139042714D02*
X67301142Y-139099857D01*
X67529713Y-139099857D01*
X67643999Y-139042714D01*
X67701142Y-138928429D01*
X67701142Y-138471286D01*
X67643999Y-138357000D01*
X67529713Y-138299857D01*
X67301142Y-138299857D01*
X67186856Y-138357000D01*
X67129713Y-138471286D01*
X67129713Y-138585571D01*
X67701142Y-138699857D01*
D18*
X52101750Y-122809000D03*
X52609750Y-123825000D03*
X51593750Y-123825000D03*
X50577750Y-123825000D03*
X51085750Y-122809000D03*
X51593750Y-121793000D03*
X53117750Y-124841000D03*
X50069750Y-124841000D03*
D19*
X65294000Y-60005000D03*
X67294000Y-60005000D03*
X65294000Y-58105000D03*
D20*
X67294000Y-58305000D03*
D21*
X62230000Y-62418000D03*
X62230000Y-60518000D03*
D22*
X259556250Y-115950000D03*
X259556250Y-112650000D03*
X240506250Y-115950000D03*
X240506250Y-112650000D03*
X221456250Y-115950000D03*
X221456250Y-112650000D03*
X202406250Y-115950000D03*
X202406250Y-112650000D03*
X183356250Y-115950000D03*
X183356250Y-112650000D03*
X164306250Y-115950000D03*
X164306250Y-112650000D03*
X145256250Y-115950000D03*
X145256250Y-112650000D03*
X126206250Y-115950000D03*
X126206250Y-112650000D03*
X107156250Y-115950000D03*
X107156250Y-112650000D03*
X61118750Y-115950000D03*
X61118750Y-112650000D03*
X319087500Y-96900000D03*
X319087500Y-93600000D03*
X288131250Y-96900000D03*
X288131250Y-93600000D03*
X269081250Y-96900000D03*
X269081250Y-93600000D03*
X250031250Y-96900000D03*
X250031250Y-93600000D03*
X230981250Y-96900000D03*
X230981250Y-93600000D03*
X211931250Y-96900000D03*
X211931250Y-93600000D03*
X192881250Y-96900000D03*
X192881250Y-93600000D03*
X158750000Y-96900000D03*
X158750000Y-93600000D03*
X154781250Y-96900000D03*
X154781250Y-93600000D03*
X135731250Y-96900000D03*
X135731250Y-93600000D03*
X116681250Y-96900000D03*
X116681250Y-93600000D03*
X97631250Y-96900000D03*
X97631250Y-93600000D03*
X52387500Y-96900000D03*
X52387500Y-93600000D03*
X326231250Y-77850000D03*
X326231250Y-74550000D03*
X302418750Y-77850000D03*
X302418750Y-74550000D03*
X283368750Y-77850000D03*
X283368750Y-74550000D03*
X264318750Y-77850000D03*
X264318750Y-74550000D03*
X245268750Y-77850000D03*
X245268750Y-74550000D03*
X226218750Y-77850000D03*
X226218750Y-74550000D03*
X207168750Y-77850000D03*
X207168750Y-74550000D03*
X188118750Y-77850000D03*
X188118750Y-74550000D03*
X169068750Y-77850000D03*
X169068750Y-74550000D03*
X150018750Y-77850000D03*
X150018750Y-74550000D03*
X130968750Y-77850000D03*
X130968750Y-74550000D03*
X111918750Y-77850000D03*
X111918750Y-74550000D03*
X92868750Y-77850000D03*
X92868750Y-74550000D03*
X53578125Y-77850000D03*
X53578125Y-74550000D03*
X330993750Y-58800000D03*
X330993750Y-55500000D03*
X296465625Y-58800000D03*
X296465625Y-55500000D03*
X292893750Y-58800000D03*
X292893750Y-55500000D03*
X273843750Y-58800000D03*
X273843750Y-55500000D03*
X254793750Y-58800000D03*
X254793750Y-55500000D03*
X235743750Y-58800000D03*
X235743750Y-55500000D03*
X216693750Y-58800000D03*
X216693750Y-55500000D03*
X197643750Y-58800000D03*
X197643750Y-55500000D03*
X178593750Y-58800000D03*
X178593750Y-55500000D03*
X159543750Y-58800000D03*
X159543750Y-55500000D03*
X140493750Y-58800000D03*
X140493750Y-55500000D03*
X121443750Y-58800000D03*
X121443750Y-55500000D03*
X102393750Y-58800000D03*
X102393750Y-55500000D03*
X83343750Y-58800000D03*
X83343750Y-55500000D03*
X52387500Y-62371875D03*
X52387500Y-59071875D03*
X334962500Y-58800000D03*
X334962500Y-55500000D03*
X334962500Y-77850000D03*
X334962500Y-74550000D03*
X334962500Y-96900000D03*
X334962500Y-93600000D03*
X279400000Y-115950000D03*
X279400000Y-112650000D03*
X304800000Y-115950000D03*
X304800000Y-112650000D03*
X330993750Y-115950000D03*
X330993750Y-112650000D03*
X334962500Y-115950000D03*
X334962500Y-112650000D03*
X296862500Y-135000000D03*
X296862500Y-131700000D03*
X330993750Y-135000000D03*
X330993750Y-131700000D03*
X334962500Y-135000000D03*
X334962500Y-131700000D03*
X51593750Y-135000000D03*
X51593750Y-131700000D03*
X97631250Y-135000000D03*
X97631250Y-131700000D03*
X121443750Y-135000000D03*
X121443750Y-131700000D03*
X157162500Y-135000000D03*
X157162500Y-131700000D03*
X163512500Y-135000000D03*
X163512500Y-131700000D03*
X203993750Y-135000000D03*
X203993750Y-131700000D03*
D23*
X53340000Y-86995000D03*
X54610000Y-86995000D03*
X53340000Y-84455000D03*
X54610000Y-84455000D03*
D24*
X53975000Y-88265000D03*
D25*
X54991000Y-83185000D03*
X52959000Y-83185000D03*
D26*
X51435000Y-86995000D03*
X56515000Y-86995000D03*
D27*
X51435000Y-84455000D03*
D26*
X56515000Y-84455000D03*
D22*
X200025000Y-135000000D03*
X200025000Y-131700000D03*
X292893750Y-135000000D03*
X292893750Y-131700000D03*
X273843750Y-135000000D03*
X273843750Y-131700000D03*
D28*
X72025000Y-71181000D03*
X72025000Y-69281000D03*
X74025000Y-70231000D03*
D29*
X55825000Y-118193750D03*
X52125000Y-111993750D03*
X52125000Y-118193750D03*
X55825000Y-111993750D03*
D30*
X72622500Y-133340000D03*
D31*
X72622500Y-131590000D03*
X73872500Y-131590000D03*
X71372500Y-131590000D03*
X72622500Y-135090000D03*
X73872500Y-135090000D03*
X71372500Y-135090000D03*
D30*
X72622500Y-76200000D03*
D31*
X72622500Y-74200000D03*
X74122500Y-74700000D03*
X71122500Y-74700000D03*
X72622500Y-78200000D03*
X74122500Y-77700000D03*
X71122500Y-77700000D03*
X74622500Y-76200000D03*
X70622500Y-76200000D03*
D30*
X176212500Y-95250000D03*
D31*
X176212500Y-93500000D03*
X177462500Y-93500000D03*
X174962500Y-93500000D03*
X176212500Y-97000000D03*
X177462500Y-97000000D03*
X174962500Y-97000000D03*
D30*
X235602500Y-133350000D03*
D31*
X235602500Y-131600000D03*
X236852500Y-131600000D03*
X234352500Y-131600000D03*
X235602500Y-135100000D03*
X236852500Y-135100000D03*
X234352500Y-135100000D03*
D30*
X314342500Y-133350000D03*
D31*
X314342500Y-131600000D03*
X315592500Y-131600000D03*
X313092500Y-131600000D03*
X314342500Y-135100000D03*
X315592500Y-135100000D03*
X313092500Y-135100000D03*
D30*
X308072500Y-76200000D03*
D31*
X308072500Y-74450000D03*
X309322500Y-74450000D03*
X306822500Y-74450000D03*
X308072500Y-77950000D03*
X309322500Y-77950000D03*
X306822500Y-77950000D03*
D30*
X128587500Y-133350000D03*
D31*
X128587500Y-131350000D03*
X130087500Y-131850000D03*
X127087500Y-131850000D03*
X128587500Y-135350000D03*
X130087500Y-134850000D03*
X127087500Y-134850000D03*
X130587500Y-133350000D03*
X126587500Y-133350000D03*
D30*
X157956250Y-66675000D03*
D31*
X157956250Y-64675000D03*
X159456250Y-65175000D03*
X156456250Y-65175000D03*
X157956250Y-68675000D03*
X159456250Y-68175000D03*
X156456250Y-68175000D03*
X159956250Y-66675000D03*
X155956250Y-66675000D03*
D30*
X253206250Y-66675000D03*
D31*
X253206250Y-64675000D03*
X254706250Y-65175000D03*
X251706250Y-65175000D03*
X253206250Y-68675000D03*
X254706250Y-68175000D03*
X251706250Y-68175000D03*
X255206250Y-66675000D03*
X251206250Y-66675000D03*
D32*
X63347600Y-52250000D03*
X69127600Y-52250000D03*
D33*
X65987600Y-53695000D03*
X66487600Y-53695000D03*
X66987600Y-53695000D03*
X65487600Y-53695000D03*
X67487600Y-53695000D03*
X64987600Y-53695000D03*
X67987600Y-53695000D03*
X64487600Y-53695000D03*
D34*
X63787600Y-53695000D03*
X68687600Y-53695000D03*
X63012600Y-53695000D03*
X69462600Y-53695000D03*
D35*
X83058000Y-87694000D03*
X83058000Y-88494000D03*
X83058000Y-89294000D03*
X83058000Y-90094000D03*
X83058000Y-90894000D03*
X83058000Y-91694000D03*
X83058000Y-92494000D03*
X83058000Y-93294000D03*
X83058000Y-94094000D03*
X83058000Y-94894000D03*
X83058000Y-95694000D03*
D36*
X81358000Y-97394000D03*
X80558000Y-97394000D03*
X79758000Y-97394000D03*
X78958000Y-97394000D03*
X78158000Y-97394000D03*
X77358000Y-97394000D03*
X76558000Y-97394000D03*
X75758000Y-97394000D03*
X74958000Y-97394000D03*
X74158000Y-97394000D03*
X73358000Y-97394000D03*
D35*
X71658000Y-95694000D03*
X71658000Y-94894000D03*
X71658000Y-94094000D03*
X71658000Y-93294000D03*
X71658000Y-92494000D03*
X71658000Y-91694000D03*
X71658000Y-90894000D03*
X71658000Y-90094000D03*
X71658000Y-89294000D03*
X71658000Y-88494000D03*
X71658000Y-87694000D03*
D36*
X73358000Y-85994000D03*
X74158000Y-85994000D03*
X74958000Y-85994000D03*
X75758000Y-85994000D03*
X76558000Y-85994000D03*
X77358000Y-85994000D03*
X78158000Y-85994000D03*
X78958000Y-85994000D03*
X79758000Y-85994000D03*
X80558000Y-85994000D03*
X81358000Y-85994000D03*
D37*
X250150000Y-52650000D02*
X250190000Y-52070000D01*
D38*
X250190000Y-52070000D03*
D37*
X243840000Y-54610000D02*
X245150002Y-53150000D01*
D39*
X247650000Y-57150000D03*
D38*
X245150000Y-53150000D03*
D40*
X242570000Y-57150000D03*
X252730000Y-57150000D03*
D37*
X78700000Y-52650000D02*
X78740000Y-52070000D01*
D38*
X78740000Y-52070000D03*
D37*
X72390000Y-54610000D02*
X73700002Y-53150000D01*
D39*
X76200000Y-57150000D03*
D38*
X73700000Y-53150000D03*
D40*
X71120000Y-57150000D03*
X81280000Y-57150000D03*
D37*
X97750000Y-52650000D02*
X97790000Y-52070000D01*
D38*
X97790000Y-52070000D03*
D37*
X91440000Y-54610000D02*
X92750002Y-53150000D01*
D39*
X95250000Y-57150000D03*
D38*
X92750000Y-53150000D03*
D40*
X90170000Y-57150000D03*
X100330000Y-57150000D03*
D37*
X116800000Y-52650000D02*
X116840000Y-52070000D01*
D38*
X116840000Y-52070000D03*
D37*
X110490000Y-54610000D02*
X111800002Y-53150000D01*
D39*
X114300000Y-57150000D03*
D38*
X111800000Y-53150000D03*
D40*
X109220000Y-57150000D03*
X119380000Y-57150000D03*
D37*
X135850000Y-52650000D02*
X135890000Y-52070000D01*
D38*
X135890000Y-52070000D03*
D37*
X129540000Y-54610000D02*
X130850002Y-53150000D01*
D39*
X133350000Y-57150000D03*
D38*
X130850000Y-53150000D03*
D40*
X128270000Y-57150000D03*
X138430000Y-57150000D03*
D37*
X154900000Y-52650000D02*
X154940000Y-52070000D01*
D38*
X154940000Y-52070000D03*
D37*
X148590000Y-54610000D02*
X149900002Y-53150000D01*
D39*
X152400000Y-57150000D03*
D38*
X149900000Y-53150000D03*
D40*
X147320000Y-57150000D03*
X157480000Y-57150000D03*
D37*
X173950000Y-52650000D02*
X173990000Y-52070000D01*
D38*
X173990000Y-52070000D03*
D37*
X167640000Y-54610000D02*
X168950002Y-53150000D01*
D39*
X171450000Y-57150000D03*
D38*
X168950000Y-53150000D03*
D40*
X166370000Y-57150000D03*
X176530000Y-57150000D03*
D37*
X193000000Y-52650000D02*
X193040000Y-52070000D01*
D38*
X193040000Y-52070000D03*
D37*
X186690000Y-54610000D02*
X188000002Y-53150000D01*
D39*
X190500000Y-57150000D03*
D38*
X188000000Y-53150000D03*
D40*
X185420000Y-57150000D03*
X195580000Y-57150000D03*
D37*
X212050000Y-52650000D02*
X212090000Y-52070000D01*
D38*
X212090000Y-52070000D03*
D37*
X205740000Y-54610000D02*
X207050002Y-53150000D01*
D39*
X209550000Y-57150000D03*
D38*
X207050000Y-53150000D03*
D40*
X204470000Y-57150000D03*
X214630000Y-57150000D03*
D37*
X231100000Y-52650000D02*
X231140000Y-52070000D01*
D38*
X231140000Y-52070000D03*
D37*
X224790000Y-54610000D02*
X226100002Y-53150000D01*
D39*
X228600000Y-57150000D03*
D38*
X226100000Y-53150000D03*
D40*
X223520000Y-57150000D03*
X233680000Y-57150000D03*
D37*
X283487500Y-90750000D02*
X283527500Y-90170000D01*
D38*
X283527500Y-90170000D03*
D37*
X277177500Y-92710000D02*
X278487502Y-91250000D01*
D39*
X280987500Y-95250000D03*
D38*
X278487500Y-91250000D03*
D40*
X275907500Y-95250000D03*
X286067500Y-95250000D03*
D37*
X235862500Y-109800000D02*
X235902500Y-109220000D01*
D38*
X235902500Y-109220000D03*
D37*
X229552500Y-111760000D02*
X230862502Y-110300000D01*
D39*
X233362500Y-114300000D03*
D38*
X230862500Y-110300000D03*
D40*
X228282500Y-114300000D03*
X238442500Y-114300000D03*
D37*
X269200000Y-52650000D02*
X269240000Y-52070000D01*
D38*
X269240000Y-52070000D03*
D37*
X262890000Y-54610000D02*
X264200002Y-53150000D01*
D39*
X266700000Y-57150000D03*
D38*
X264200000Y-53150000D03*
D40*
X261620000Y-57150000D03*
X271780000Y-57150000D03*
D37*
X254912500Y-109800000D02*
X254952500Y-109220000D01*
D38*
X254952500Y-109220000D03*
D37*
X248602500Y-111760000D02*
X249912502Y-110300000D01*
D39*
X252412500Y-114300000D03*
D38*
X249912500Y-110300000D03*
D40*
X247332500Y-114300000D03*
X257492500Y-114300000D03*
D37*
X273962500Y-109800000D02*
X274002500Y-109220000D01*
D38*
X274002500Y-109220000D03*
D37*
X267652500Y-111760000D02*
X268962502Y-110300000D01*
D39*
X271462500Y-114300000D03*
D38*
X268962500Y-110300000D03*
D40*
X266382500Y-114300000D03*
X276542500Y-114300000D03*
D37*
X264437500Y-90750000D02*
X264477500Y-90170000D01*
D38*
X264477500Y-90170000D03*
D37*
X258127500Y-92710000D02*
X259437502Y-91250000D01*
D39*
X261937500Y-95250000D03*
D38*
X259437500Y-91250000D03*
D40*
X256857500Y-95250000D03*
X267017500Y-95250000D03*
D37*
X288250000Y-52650000D02*
X288290000Y-52070000D01*
D38*
X288290000Y-52070000D03*
D37*
X281940000Y-54610000D02*
X283250002Y-53150000D01*
D39*
X285750000Y-57150000D03*
D38*
X283250000Y-53150000D03*
D40*
X280670000Y-57150000D03*
X290830000Y-57150000D03*
D37*
X92987500Y-90750000D02*
X93027500Y-90170000D01*
D38*
X93027500Y-90170000D03*
D37*
X86677500Y-92710000D02*
X87987502Y-91250000D01*
D39*
X90487500Y-95250000D03*
D38*
X87987500Y-91250000D03*
D40*
X85407500Y-95250000D03*
X95567500Y-95250000D03*
D37*
X178712500Y-109800000D02*
X178752500Y-109220000D01*
D38*
X178752500Y-109220000D03*
D37*
X172402500Y-111760000D02*
X173712502Y-110300000D01*
D39*
X176212500Y-114300000D03*
D38*
X173712500Y-110300000D03*
D40*
X171132500Y-114300000D03*
X181292500Y-114300000D03*
D37*
X316825000Y-52650000D02*
X316865000Y-52070000D01*
D38*
X316865000Y-52070000D03*
D37*
X310515000Y-54610000D02*
X311825002Y-53150000D01*
D39*
X314325000Y-57150000D03*
D38*
X311825000Y-53150000D03*
D40*
X309245000Y-57150000D03*
X319405000Y-57150000D03*
D41*
X302387000Y-50165000D03*
X326263000Y-50165000D03*
D39*
X302387000Y-65405000D03*
X326263000Y-65405000D03*
D37*
X326350000Y-52650000D02*
X326390000Y-52070000D01*
D38*
X326390000Y-52070000D03*
D37*
X320040000Y-54610000D02*
X321350002Y-53150000D01*
D39*
X323850000Y-57150000D03*
D38*
X321350000Y-53150000D03*
D40*
X318770000Y-57150000D03*
X328930000Y-57150000D03*
D37*
X140612500Y-109800000D02*
X140652500Y-109220000D01*
D38*
X140652500Y-109220000D03*
D37*
X134302500Y-111760000D02*
X135612502Y-110300000D01*
D39*
X138112500Y-114300000D03*
D38*
X135612500Y-110300000D03*
D40*
X133032500Y-114300000D03*
X143192500Y-114300000D03*
D37*
X66793750Y-90750000D02*
X66833750Y-90170000D01*
D38*
X66833750Y-90170000D03*
D37*
X60483750Y-92710000D02*
X61793752Y-91250000D01*
D39*
X64293750Y-95250000D03*
D38*
X61793750Y-91250000D03*
D40*
X59213750Y-95250000D03*
X69373750Y-95250000D03*
D37*
X62031250Y-90750000D02*
X62071250Y-90170000D01*
D38*
X62071250Y-90170000D03*
D37*
X55721250Y-92710000D02*
X57031252Y-91250000D01*
D39*
X59531250Y-95250000D03*
D38*
X57031250Y-91250000D03*
D40*
X54451250Y-95250000D03*
X64611250Y-95250000D03*
D37*
X131087500Y-90750000D02*
X131127500Y-90170000D01*
D38*
X131127500Y-90170000D03*
D37*
X124777500Y-92710000D02*
X126087502Y-91250000D01*
D39*
X128587500Y-95250000D03*
D38*
X126087500Y-91250000D03*
D40*
X123507500Y-95250000D03*
X133667500Y-95250000D03*
D37*
X307300000Y-52650000D02*
X307340000Y-52070000D01*
D38*
X307340000Y-52070000D03*
D37*
X300990000Y-54610000D02*
X302300002Y-53150000D01*
D39*
X304800000Y-57150000D03*
D38*
X302300000Y-53150000D03*
D40*
X299720000Y-57150000D03*
X309880000Y-57150000D03*
D37*
X326350000Y-128850000D02*
X326390000Y-128270000D01*
D38*
X326390000Y-128270000D03*
D37*
X320040000Y-130810000D02*
X321350002Y-129350000D01*
D39*
X323850000Y-133350000D03*
D38*
X321350000Y-129350000D03*
D40*
X318770000Y-133350000D03*
X328930000Y-133350000D03*
D37*
X126325000Y-71700000D02*
X126365000Y-71120000D01*
D38*
X126365000Y-71120000D03*
D37*
X120015000Y-73660000D02*
X121325002Y-72200000D01*
D39*
X123825000Y-76200000D03*
D38*
X121325000Y-72200000D03*
D40*
X118745000Y-76200000D03*
X128905000Y-76200000D03*
D37*
X314443750Y-90750000D02*
X314483750Y-90170000D01*
D38*
X314483750Y-90170000D03*
D37*
X308133750Y-92710000D02*
X309443752Y-91250000D01*
D39*
X311943750Y-95250000D03*
D38*
X309443750Y-91250000D03*
D40*
X306863750Y-95250000D03*
X317023750Y-95250000D03*
D41*
X300005750Y-88265000D03*
X323881750Y-88265000D03*
D39*
X300005750Y-103505000D03*
X323881750Y-103505000D03*
D37*
X59650000Y-52650000D02*
X59690000Y-52070000D01*
D38*
X59690000Y-52070000D03*
D37*
X53340000Y-54610000D02*
X54650002Y-53150000D01*
D39*
X57150000Y-57150000D03*
D38*
X54650000Y-53150000D03*
D40*
X52070000Y-57150000D03*
X62230000Y-57150000D03*
D37*
X345400000Y-52650000D02*
X345440000Y-52070000D01*
D38*
X345440000Y-52070000D03*
D37*
X339090000Y-54610000D02*
X340400002Y-53150000D01*
D39*
X342900000Y-57150000D03*
D38*
X340400000Y-53150000D03*
D40*
X337820000Y-57150000D03*
X347980000Y-57150000D03*
D37*
X345400000Y-71700000D02*
X345440000Y-71120000D01*
D38*
X345440000Y-71120000D03*
D37*
X339090000Y-73660000D02*
X340400002Y-72200000D01*
D39*
X342900000Y-76200000D03*
D38*
X340400000Y-72200000D03*
D40*
X337820000Y-76200000D03*
X347980000Y-76200000D03*
D37*
X345400000Y-90750000D02*
X345440000Y-90170000D01*
D38*
X345440000Y-90170000D03*
D37*
X339090000Y-92710000D02*
X340400002Y-91250000D01*
D39*
X342900000Y-95250000D03*
D38*
X340400000Y-91250000D03*
D40*
X337820000Y-95250000D03*
X347980000Y-95250000D03*
D37*
X345400000Y-109800000D02*
X345440000Y-109220000D01*
D38*
X345440000Y-109220000D03*
D37*
X339090000Y-111760000D02*
X340400002Y-110300000D01*
D39*
X342900000Y-114300000D03*
D38*
X340400000Y-110300000D03*
D40*
X337820000Y-114300000D03*
X347980000Y-114300000D03*
D37*
X150137500Y-90750000D02*
X150177500Y-90170000D01*
D38*
X150177500Y-90170000D03*
D37*
X143827500Y-92710000D02*
X145137502Y-91250000D01*
D39*
X147637500Y-95250000D03*
D38*
X145137500Y-91250000D03*
D40*
X142557500Y-95250000D03*
X152717500Y-95250000D03*
D37*
X169187500Y-90750000D02*
X169227500Y-90170000D01*
D38*
X169227500Y-90170000D03*
D37*
X162877500Y-92710000D02*
X164187502Y-91250000D01*
D39*
X166687500Y-95250000D03*
D38*
X164187500Y-91250000D03*
D40*
X161607500Y-95250000D03*
X171767500Y-95250000D03*
D37*
X188237500Y-90750000D02*
X188277500Y-90170000D01*
D38*
X188277500Y-90170000D03*
D37*
X181927500Y-92710000D02*
X183237502Y-91250000D01*
D39*
X185737500Y-95250000D03*
D38*
X183237500Y-91250000D03*
D40*
X180657500Y-95250000D03*
X190817500Y-95250000D03*
D37*
X221575000Y-71700000D02*
X221615000Y-71120000D01*
D38*
X221615000Y-71120000D03*
D37*
X215265000Y-73660000D02*
X216575002Y-72200000D01*
D39*
X219075000Y-76200000D03*
D38*
X216575000Y-72200000D03*
D40*
X213995000Y-76200000D03*
X224155000Y-76200000D03*
D37*
X207287500Y-90750000D02*
X207327500Y-90170000D01*
D38*
X207327500Y-90170000D03*
D37*
X200977500Y-92710000D02*
X202287502Y-91250000D01*
D39*
X204787500Y-95250000D03*
D38*
X202287500Y-91250000D03*
D40*
X199707500Y-95250000D03*
X209867500Y-95250000D03*
D37*
X226337500Y-90750000D02*
X226377500Y-90170000D01*
D38*
X226377500Y-90170000D03*
D37*
X220027500Y-92710000D02*
X221337502Y-91250000D01*
D39*
X223837500Y-95250000D03*
D38*
X221337500Y-91250000D03*
D40*
X218757500Y-95250000D03*
X228917500Y-95250000D03*
D37*
X245387500Y-90750000D02*
X245427500Y-90170000D01*
D38*
X245427500Y-90170000D03*
D37*
X239077500Y-92710000D02*
X240387502Y-91250000D01*
D39*
X242887500Y-95250000D03*
D38*
X240387500Y-91250000D03*
D40*
X237807500Y-95250000D03*
X247967500Y-95250000D03*
D37*
X307300000Y-128850000D02*
X307340000Y-128270000D01*
D38*
X307340000Y-128270000D03*
D37*
X300990000Y-130810000D02*
X302300002Y-129350000D01*
D39*
X304800000Y-133350000D03*
D38*
X302300000Y-129350000D03*
D40*
X299720000Y-133350000D03*
X309880000Y-133350000D03*
D37*
X64412500Y-128850000D02*
X64452500Y-128270000D01*
D38*
X64452500Y-128270000D03*
D37*
X58102500Y-130810000D02*
X59412502Y-129350000D01*
D39*
X61912500Y-133350000D03*
D38*
X59412500Y-129350000D03*
D40*
X56832500Y-133350000D03*
X66992500Y-133350000D03*
D37*
X62031250Y-128850000D02*
X62071250Y-128270000D01*
D38*
X62071250Y-128270000D03*
D37*
X55721250Y-130810000D02*
X57031252Y-129350000D01*
D39*
X59531250Y-133350000D03*
D38*
X57031250Y-129350000D03*
D40*
X54451250Y-133350000D03*
X64611250Y-133350000D03*
D37*
X92987500Y-128850000D02*
X93027500Y-128270000D01*
D38*
X93027500Y-128270000D03*
D37*
X86677500Y-130810000D02*
X87987502Y-129350000D01*
D39*
X90487500Y-133350000D03*
D38*
X87987500Y-129350000D03*
D40*
X85407500Y-133350000D03*
X95567500Y-133350000D03*
D37*
X85843750Y-128850000D02*
X85883750Y-128270000D01*
D38*
X85883750Y-128270000D03*
D37*
X79533750Y-130810000D02*
X80843752Y-129350000D01*
D39*
X83343750Y-133350000D03*
D38*
X80843750Y-129350000D03*
D40*
X78263750Y-133350000D03*
X88423750Y-133350000D03*
D37*
X90606250Y-128850000D02*
X90646250Y-128270000D01*
D38*
X90646250Y-128270000D03*
D37*
X84296250Y-130810000D02*
X85606252Y-129350000D01*
D39*
X88106250Y-133350000D03*
D38*
X85606250Y-129350000D03*
D40*
X83026250Y-133350000D03*
X93186250Y-133350000D03*
D37*
X109656250Y-128850000D02*
X109696250Y-128270000D01*
D38*
X109696250Y-128270000D03*
D37*
X103346250Y-130810000D02*
X104656252Y-129350000D01*
D39*
X107156250Y-133350000D03*
D38*
X104656250Y-129350000D03*
D40*
X102076250Y-133350000D03*
X112236250Y-133350000D03*
D37*
X116800000Y-128850000D02*
X116840000Y-128270000D01*
D38*
X116840000Y-128270000D03*
D37*
X110490000Y-130810000D02*
X111800002Y-129350000D01*
D39*
X114300000Y-133350000D03*
D38*
X111800000Y-129350000D03*
D40*
X109220000Y-133350000D03*
X119380000Y-133350000D03*
D37*
X216812500Y-109800000D02*
X216852500Y-109220000D01*
D38*
X216852500Y-109220000D03*
D37*
X210502500Y-111760000D02*
X211812502Y-110300000D01*
D39*
X214312500Y-114300000D03*
D38*
X211812500Y-110300000D03*
D40*
X209232500Y-114300000D03*
X219392500Y-114300000D03*
D37*
X197762500Y-109800000D02*
X197802500Y-109220000D01*
D38*
X197802500Y-109220000D03*
D37*
X191452500Y-111760000D02*
X192762502Y-110300000D01*
D39*
X195262500Y-114300000D03*
D38*
X192762500Y-110300000D03*
D40*
X190182500Y-114300000D03*
X200342500Y-114300000D03*
D37*
X240625000Y-71700000D02*
X240665000Y-71120000D01*
D38*
X240665000Y-71120000D03*
D37*
X234315000Y-73660000D02*
X235625002Y-72200000D01*
D39*
X238125000Y-76200000D03*
D38*
X235625000Y-72200000D03*
D40*
X233045000Y-76200000D03*
X243205000Y-76200000D03*
D37*
X259675000Y-71700000D02*
X259715000Y-71120000D01*
D38*
X259715000Y-71120000D03*
D37*
X253365000Y-73660000D02*
X254675002Y-72200000D01*
D39*
X257175000Y-76200000D03*
D38*
X254675000Y-72200000D03*
D40*
X252095000Y-76200000D03*
X262255000Y-76200000D03*
D37*
X88225000Y-71700000D02*
X88265000Y-71120000D01*
D38*
X88265000Y-71120000D03*
D37*
X81915000Y-73660000D02*
X83225002Y-72200000D01*
D39*
X85725000Y-76200000D03*
D38*
X83225000Y-72200000D03*
D40*
X80645000Y-76200000D03*
X90805000Y-76200000D03*
D37*
X145375000Y-71700000D02*
X145415000Y-71120000D01*
D38*
X145415000Y-71120000D03*
D37*
X139065000Y-73660000D02*
X140375002Y-72200000D01*
D39*
X142875000Y-76200000D03*
D38*
X140375000Y-72200000D03*
D40*
X137795000Y-76200000D03*
X147955000Y-76200000D03*
D37*
X345400000Y-128850000D02*
X345440000Y-128270000D01*
D38*
X345440000Y-128270000D03*
D37*
X339090000Y-130810000D02*
X340400002Y-129350000D01*
D39*
X342900000Y-133350000D03*
D38*
X340400000Y-129350000D03*
D40*
X337820000Y-133350000D03*
X347980000Y-133350000D03*
D37*
X250150000Y-128850000D02*
X250190000Y-128270000D01*
D38*
X250190000Y-128270000D03*
D37*
X243840000Y-130810000D02*
X245150002Y-129350000D01*
D39*
X247650000Y-133350000D03*
D38*
X245150000Y-129350000D03*
D40*
X242570000Y-133350000D03*
X252730000Y-133350000D03*
D37*
X254912500Y-128850000D02*
X254952500Y-128270000D01*
D38*
X254952500Y-128270000D03*
D37*
X248602500Y-130810000D02*
X249912502Y-129350000D01*
D39*
X252412500Y-133350000D03*
D38*
X249912500Y-129350000D03*
D40*
X247332500Y-133350000D03*
X257492500Y-133350000D03*
D37*
X266818750Y-128850000D02*
X266858750Y-128270000D01*
D38*
X266858750Y-128270000D03*
D37*
X260508750Y-130810000D02*
X261818752Y-129350000D01*
D39*
X264318750Y-133350000D03*
D38*
X261818750Y-129350000D03*
D40*
X259238750Y-133350000D03*
X269398750Y-133350000D03*
D37*
X269200000Y-128850000D02*
X269240000Y-128270000D01*
D38*
X269240000Y-128270000D03*
D37*
X262890000Y-130810000D02*
X264200002Y-129350000D01*
D39*
X266700000Y-133350000D03*
D38*
X264200000Y-129350000D03*
D40*
X261620000Y-133350000D03*
X271780000Y-133350000D03*
D37*
X283487500Y-128850000D02*
X283527500Y-128270000D01*
D38*
X283527500Y-128270000D03*
D37*
X277177500Y-130810000D02*
X278487502Y-129350000D01*
D39*
X280987500Y-133350000D03*
D38*
X278487500Y-129350000D03*
D40*
X275907500Y-133350000D03*
X286067500Y-133350000D03*
D37*
X288250000Y-128850000D02*
X288290000Y-128270000D01*
D38*
X288290000Y-128270000D03*
D37*
X281940000Y-130810000D02*
X283250002Y-129350000D01*
D39*
X285750000Y-133350000D03*
D38*
X283250000Y-129350000D03*
D40*
X280670000Y-133350000D03*
X290830000Y-133350000D03*
D37*
X112037500Y-90750000D02*
X112077500Y-90170000D01*
D38*
X112077500Y-90170000D03*
D37*
X105727500Y-92710000D02*
X107037502Y-91250000D01*
D39*
X109537500Y-95250000D03*
D38*
X107037500Y-91250000D03*
D40*
X104457500Y-95250000D03*
X114617500Y-95250000D03*
D37*
X71556250Y-109800000D02*
X71596250Y-109220000D01*
D38*
X71596250Y-109220000D03*
D37*
X65246250Y-111760000D02*
X66556252Y-110300000D01*
D39*
X69056250Y-114300000D03*
D38*
X66556250Y-110300000D03*
D40*
X63976250Y-114300000D03*
X74136250Y-114300000D03*
D41*
X57118250Y-107315000D03*
X80994250Y-107315000D03*
D39*
X57118250Y-122555000D03*
X80994250Y-122555000D03*
D37*
X300156250Y-109800000D02*
X300196250Y-109220000D01*
D38*
X300196250Y-109220000D03*
D37*
X293846250Y-111760000D02*
X295156252Y-110300000D01*
D39*
X297656250Y-114300000D03*
D38*
X295156250Y-110300000D03*
D40*
X292576250Y-114300000D03*
X302736250Y-114300000D03*
D37*
X164425000Y-71700000D02*
X164465000Y-71120000D01*
D38*
X164465000Y-71120000D03*
D37*
X158115000Y-73660000D02*
X159425002Y-72200000D01*
D39*
X161925000Y-76200000D03*
D38*
X159425000Y-72200000D03*
D40*
X156845000Y-76200000D03*
X167005000Y-76200000D03*
D37*
X64412500Y-71700000D02*
X64452500Y-71120000D01*
D38*
X64452500Y-71120000D03*
D37*
X58102500Y-73660000D02*
X59412502Y-72200000D01*
D39*
X61912500Y-76200000D03*
D38*
X59412500Y-72200000D03*
D40*
X56832500Y-76200000D03*
X66992500Y-76200000D03*
D37*
X202525000Y-71700000D02*
X202565000Y-71120000D01*
D38*
X202565000Y-71120000D03*
D37*
X196215000Y-73660000D02*
X197525002Y-72200000D01*
D39*
X200025000Y-76200000D03*
D38*
X197525000Y-72200000D03*
D40*
X194945000Y-76200000D03*
X205105000Y-76200000D03*
D37*
X326350000Y-109800000D02*
X326390000Y-109220000D01*
D38*
X326390000Y-109220000D03*
D37*
X320040000Y-111760000D02*
X321350002Y-110300000D01*
D39*
X323850000Y-114300000D03*
D38*
X321350000Y-110300000D03*
D40*
X318770000Y-114300000D03*
X328930000Y-114300000D03*
D37*
X159662500Y-109800000D02*
X159702500Y-109220000D01*
D38*
X159702500Y-109220000D03*
D37*
X153352500Y-111760000D02*
X154662502Y-110300000D01*
D39*
X157162500Y-114300000D03*
D38*
X154662500Y-110300000D03*
D40*
X152082500Y-114300000D03*
X162242500Y-114300000D03*
D37*
X107275000Y-71700000D02*
X107315000Y-71120000D01*
D38*
X107315000Y-71120000D03*
D37*
X100965000Y-73660000D02*
X102275002Y-72200000D01*
D39*
X104775000Y-76200000D03*
D38*
X102275000Y-72200000D03*
D40*
X99695000Y-76200000D03*
X109855000Y-76200000D03*
D37*
X121562500Y-109800000D02*
X121602500Y-109220000D01*
D38*
X121602500Y-109220000D03*
D37*
X115252500Y-111760000D02*
X116562502Y-110300000D01*
D39*
X119062500Y-114300000D03*
D38*
X116562500Y-110300000D03*
D40*
X113982500Y-114300000D03*
X124142500Y-114300000D03*
D37*
X183475000Y-71700000D02*
X183515000Y-71120000D01*
D38*
X183515000Y-71120000D03*
D37*
X177165000Y-73660000D02*
X178475002Y-72200000D01*
D39*
X180975000Y-76200000D03*
D38*
X178475000Y-72200000D03*
D40*
X175895000Y-76200000D03*
X186055000Y-76200000D03*
D37*
X102512500Y-109800000D02*
X102552500Y-109220000D01*
D38*
X102552500Y-109220000D03*
D37*
X96202500Y-111760000D02*
X97512502Y-110300000D01*
D39*
X100012500Y-114300000D03*
D38*
X97512500Y-110300000D03*
D40*
X94932500Y-114300000D03*
X105092500Y-114300000D03*
D37*
X278725000Y-71700000D02*
X278765000Y-71120000D01*
D38*
X278765000Y-71120000D03*
D37*
X272415000Y-73660000D02*
X273725002Y-72200000D01*
D39*
X276225000Y-76200000D03*
D38*
X273725000Y-72200000D03*
D40*
X271145000Y-76200000D03*
X281305000Y-76200000D03*
D37*
X321587500Y-71700000D02*
X321627500Y-71120000D01*
D38*
X321627500Y-71120000D03*
D37*
X315277500Y-73660000D02*
X316587502Y-72200000D01*
D39*
X319087500Y-76200000D03*
D38*
X316587500Y-72200000D03*
D40*
X314007500Y-76200000D03*
X324167500Y-76200000D03*
D37*
X297775000Y-71700000D02*
X297815000Y-71120000D01*
D38*
X297815000Y-71120000D03*
D37*
X291465000Y-73660000D02*
X292775002Y-72200000D01*
D39*
X295275000Y-76200000D03*
D38*
X292775000Y-72200000D03*
D40*
X290195000Y-76200000D03*
X300355000Y-76200000D03*
D37*
X142993750Y-128850000D02*
X143033750Y-128270000D01*
D38*
X143033750Y-128270000D03*
D37*
X136683750Y-130810000D02*
X137993752Y-129350000D01*
D39*
X140493750Y-133350000D03*
D38*
X137993750Y-129350000D03*
D40*
X135413750Y-133350000D03*
X145573750Y-133350000D03*
D41*
X128555750Y-140335000D03*
X152431750Y-140335000D03*
D39*
X128555750Y-125095000D03*
X152431750Y-125095000D03*
D37*
X173950000Y-128850000D02*
X173990000Y-128270000D01*
D38*
X173990000Y-128270000D03*
D37*
X167640000Y-130810000D02*
X168950002Y-129350000D01*
D39*
X171450000Y-133350000D03*
D38*
X168950000Y-129350000D03*
D40*
X166370000Y-133350000D03*
X176530000Y-133350000D03*
D41*
X114300000Y-140335000D03*
X228600000Y-140335000D03*
D39*
X114300000Y-125095000D03*
X228600000Y-125095000D03*
D37*
X181093750Y-128850000D02*
X181133750Y-128270000D01*
D38*
X181133750Y-128270000D03*
D37*
X174783750Y-130810000D02*
X176093752Y-129350000D01*
D39*
X178593750Y-133350000D03*
D38*
X176093750Y-129350000D03*
D40*
X173513750Y-133350000D03*
X183673750Y-133350000D03*
D41*
X128593850Y-140335000D03*
X228593650Y-140335000D03*
D39*
X128593850Y-125095000D03*
X228593650Y-125095000D03*
D37*
X176331250Y-128850000D02*
X176371250Y-128270000D01*
D38*
X176371250Y-128270000D03*
D37*
X170021250Y-130810000D02*
X171331252Y-129350000D01*
D39*
X173831250Y-133350000D03*
D38*
X171331250Y-129350000D03*
D40*
X168751250Y-133350000D03*
X178911250Y-133350000D03*
D37*
X214431250Y-128850000D02*
X214471250Y-128270000D01*
D38*
X214471250Y-128270000D03*
D37*
X208121250Y-130810000D02*
X209431252Y-129350000D01*
D39*
X211931250Y-133350000D03*
D38*
X209431250Y-129350000D03*
D40*
X206851250Y-133350000D03*
X217011250Y-133350000D03*
D41*
X199993250Y-140335000D03*
X223869250Y-140335000D03*
D39*
X199993250Y-125095000D03*
X223869250Y-125095000D03*
D37*
X193000000Y-128850000D02*
X193040000Y-128270000D01*
D38*
X193040000Y-128270000D03*
D37*
X186690000Y-130810000D02*
X188000002Y-129350000D01*
D39*
X190500000Y-133350000D03*
D38*
X188000000Y-129350000D03*
D40*
X185420000Y-133350000D03*
X195580000Y-133350000D03*
D41*
X140500100Y-140335000D03*
X240499900Y-140335000D03*
D39*
X140500100Y-125095000D03*
X240499900Y-125095000D03*
D37*
X152518750Y-128850000D02*
X152558750Y-128270000D01*
D38*
X152558750Y-128270000D03*
D37*
X146208750Y-130810000D02*
X147518752Y-129350000D01*
D39*
X150018750Y-133350000D03*
D38*
X147518750Y-129350000D03*
D40*
X144938750Y-133350000D03*
X155098750Y-133350000D03*
D41*
X138080750Y-140335000D03*
X161956750Y-140335000D03*
D39*
X138080750Y-125095000D03*
X161956750Y-125095000D03*
D37*
X188237500Y-128850000D02*
X188277500Y-128270000D01*
D38*
X188277500Y-128270000D03*
D37*
X181927500Y-130810000D02*
X183237502Y-129350000D01*
D39*
X185737500Y-133350000D03*
D38*
X183237500Y-129350000D03*
D40*
X180657500Y-133350000D03*
X190817500Y-133350000D03*
D37*
X228718750Y-128850000D02*
X228758750Y-128270000D01*
D38*
X228758750Y-128270000D03*
D37*
X222408750Y-130810000D02*
X223718752Y-129350000D01*
D39*
X226218750Y-133350000D03*
D38*
X223718750Y-129350000D03*
D40*
X221138750Y-133350000D03*
X231298750Y-133350000D03*
D41*
X214280750Y-140335000D03*
X238156750Y-140335000D03*
D39*
X214280750Y-125095000D03*
X238156750Y-125095000D03*
D42*
X68961000Y-69231000D03*
X68961000Y-71231000D03*
D43*
X68945000Y-86995000D03*
X66945000Y-86995000D03*
X84471000Y-97917000D03*
X86471000Y-97917000D03*
X76470000Y-101473000D03*
X78470000Y-101473000D03*
D42*
X76708000Y-80534000D03*
X76708000Y-82534000D03*
D43*
X79772000Y-81661000D03*
X81772000Y-81661000D03*
D44*
X73467000Y-81661000D03*
X71567000Y-81661000D03*
D21*
X60198000Y-56200000D03*
X60198000Y-58100000D03*
X70358000Y-61021000D03*
X70358000Y-59121000D03*
M02*
