M48
INCH,TZ
T1C0.016
T2C0.024
T3C0.030
T4C0.041
T5C0.058
T6C0.087
T7C0.039
T8C0.039
T9C0.069
T10C0.120
T11C0.157
%
G90
G05
T1
X20700Y-43250
X21250Y-32300
X21500Y-25250
X21500Y-38400
X21900Y-30600
X22100Y-27400
X22200Y-32000
X22500Y-21450
X22600Y-32200
X23050Y-33500
X23650Y-49500
X23700Y-21800
X23700Y-23250
X24150Y-40750
X24300Y-25450
X24300Y-26400
X24700Y-23100
X24975Y-21469
X25050Y-22800
X25133Y-21193
X25290Y-21469
X25300Y-23950
X25300Y-24450
X25350Y-22550
X25448Y-21193
X25600Y-26250
X25605Y-21469
X25750Y-24500
X25763Y-21189
X25791Y-25791
X25791Y-26709
X25900Y-22800
X25900Y-41350
X25920Y-21469
X26150Y-24500
X26235Y-21469
X26250Y-25600
X26250Y-26900
X26250Y-32500
X26350Y-42450
X26393Y-21193
X26400Y-22650
X26550Y-21469
X26600Y-38300
X26708Y-21193
X26709Y-25791
X26709Y-26709
X26850Y-24400
X26865Y-21469
X26875Y-39688
X26900Y-26250
X26900Y-38600
X26950Y-22700
X27023Y-21193
X27050Y-36950
X27180Y-21469
X27200Y-41200
X27250Y-38950
X27550Y-36450
X27550Y-36850
X27600Y-42250
X27650Y-31500
X27650Y-32500
X27800Y-33300
X27800Y-34100
X27800Y-41200
X27900Y-26250
X27900Y-27250
X27900Y-28250
X27900Y-29250
X27950Y-30000
X28100Y-52500
X28200Y-41200
X28250Y-20200
X28250Y-37750
X28250Y-38150
X28291Y-52041
X28291Y-52959
X28500Y-38950
X28650Y-37550
X28750Y-30150
X28750Y-51850
X28750Y-53150
X28800Y-34800
X29000Y-25450
X29000Y-33600
X29100Y-26450
X29100Y-34600
X29150Y-32050
X29150Y-38450
X29150Y-39700
X29200Y-46000
X29209Y-52041
X29209Y-52959
X29400Y-52500
X29400Y-43650
X29750Y-40050
X29750Y-44050
X29850Y-29350
X29900Y-46900
X29900Y-53050
X29950Y-26150
X29950Y-34300
X30050Y-32500
X30100Y-40050
X30100Y-53650
X30250Y-31450
X30300Y-47300
X30450Y-40050
X30450Y-41900
X30450Y-42950
X30500Y-44650
X30500Y-47000
X30600Y-39300
X30650Y-29350
X30650Y-50500
X30850Y-38300
X30850Y-43350
X31100Y-32050
X31100Y-33200
X31100Y-33750
X31100Y-46850
X31450Y-43050
X31550Y-24350
X31550Y-26250
X31550Y-41400
X31750Y-38200
X31850Y-43750
X32150Y-23250
X32150Y-38750
X32150Y-39688
X32200Y-38150
X32700Y-46500
X32900Y-41300
X33150Y-36350
X33250Y-25700
X33300Y-38100
X33300Y-38750
X33400Y-46400
X33438Y-39375
X33500Y-24150
X33650Y-47350
X33800Y-46400
X34450Y-24800
X35050Y-45900
X35100Y-41550
X35100Y-41950
X35350Y-24950
X35400Y-47300
X35600Y-44350
X36600Y-45450
X36600Y-46350
X36900Y-48850
X37500Y-32000
X37500Y-49650
X39400Y-39500
X39688Y-36563
X43650Y-49550
X45000Y-32000
X46900Y-39500
X47150Y-50100
X48450Y-54750
X49800Y-47000
X49975Y-52500
X50166Y-52041
X50166Y-52959
X50625Y-51850
X50625Y-53150
X50750Y-27350
X51050Y-48250
X51084Y-52041
X51084Y-52959
X51275Y-52500
X51600Y-47800
X52500Y-32000
X54400Y-39500
X57200Y-54200
X57200Y-54800
X60000Y-32000
X60950Y-26700
X61538Y-26250
X61728Y-25791
X61728Y-26709
X61900Y-39500
X62188Y-25600
X62188Y-26900
X62647Y-25791
X62647Y-26709
X62837Y-26250
X64350Y-47550
X64350Y-48000
X64600Y-54250
X65300Y-50150
X67500Y-32000
X67950Y-48550
X68725Y-37500
X68850Y-25800
X68916Y-37041
X68916Y-37959
X69000Y-47950
X69375Y-36850
X69375Y-38150
X69400Y-39500
X69834Y-37041
X69834Y-37959
X70025Y-37500
X70350Y-50100
X70350Y-51450
X71700Y-53150
X73100Y-47800
X75000Y-32000
X76900Y-35850
X76900Y-39500
X78725Y-52500
X78916Y-52041
X78916Y-52959
X79100Y-24500
X79375Y-51850
X79375Y-53150
X79834Y-52041
X79834Y-52959
X80025Y-52500
X82500Y-32000
X84400Y-39500
X85100Y-48300
X85750Y-51000
X85850Y-47650
X86250Y-54100
X86250Y-54950
X90000Y-32000
X91900Y-39500
X95450Y-46950
X97500Y-32000
X99038Y-26250
X99100Y-48400
X99228Y-25791
X99228Y-26709
X99400Y-39500
X99688Y-25600
X99688Y-26900
X100147Y-25791
X100147Y-26709
X100337Y-26250
X100600Y-48750
X100791Y-48291
X100791Y-49209
X101250Y-48100
X101250Y-49400
X101709Y-48291
X101709Y-49209
X101900Y-48750
X103650Y-47550
X105000Y-32000
X106900Y-39500
X107100Y-48100
X108100Y-50950
X108850Y-47300
X112500Y-32000
X114150Y-26600
X114400Y-39500
X114950Y-33100
X120000Y-32000
X120050Y-41350
X121250Y-41750
X121900Y-23950
X122200Y-26700
X123100Y-49375
X123291Y-48916
X123291Y-49834
X123750Y-48725
X123750Y-50025
X124209Y-48916
X124209Y-49834
X124400Y-49375
X127600Y-26900
X128650Y-48100
X130600Y-26250
X130791Y-25791
X130791Y-26709
X131250Y-25600
X131250Y-26900
X131709Y-25791
X131709Y-26709
X131900Y-26250
T3
X20250Y-33250
X20250Y-34250
X22250Y-33250
X22250Y-34250
T4
X22000Y-24500
X22937Y-39500
X22937Y-54500
X23000Y-24500
X23875Y-32000
X23875Y-54500
X23938Y-39500
X23938Y-54500
X24812Y-39500
X24875Y-32000
X24875Y-54500
X25813Y-39500
X26687Y-47000
X27688Y-47000
X29500Y-24500
X30500Y-24500
X32313Y-54500
X33250Y-32000
X33313Y-54500
X34188Y-54500
X34250Y-32000
X35125Y-39500
X35125Y-54500
X35188Y-54500
X36125Y-39500
X36125Y-54500
X37000Y-24500
X38000Y-24500
X38875Y-47000
X39875Y-47000
X40750Y-32000
X41688Y-54500
X41750Y-32000
X42625Y-39500
X42688Y-54500
X43625Y-39500
X44500Y-24500
X44500Y-54500
X45500Y-24500
X45500Y-54500
X46375Y-47000
X47375Y-47000
X48250Y-32000
X49250Y-32000
X50125Y-39500
X51125Y-39500
X52000Y-24500
X53000Y-24500
X53875Y-47000
X54813Y-54500
X54875Y-47000
X55750Y-32000
X55813Y-54500
X56750Y-32000
X57625Y-39500
X58563Y-54500
X58625Y-39500
X59500Y-24500
X59563Y-54500
X60500Y-24500
X61375Y-47000
X62375Y-47000
X63250Y-32000
X64250Y-32000
X65125Y-39500
X66125Y-39500
X67000Y-24500
X67000Y-54500
X67938Y-54500
X68000Y-24500
X68000Y-54500
X68875Y-47000
X68938Y-54500
X69813Y-54500
X69875Y-47000
X70750Y-32000
X70813Y-54500
X71750Y-32000
X72625Y-39500
X72625Y-54500
X73625Y-39500
X73625Y-54500
X74500Y-24500
X74500Y-54500
X75500Y-24500
X75500Y-54500
X76375Y-47000
X77375Y-47000
X78250Y-32000
X79250Y-32000
X80125Y-39500
X81125Y-39500
X82000Y-24500
X82938Y-54500
X83000Y-24500
X83875Y-47000
X83937Y-54500
X84875Y-47000
X85750Y-32000
X86750Y-32000
X87625Y-39500
X88563Y-54500
X88625Y-39500
X89500Y-24500
X89562Y-54500
X90500Y-24500
X91375Y-47000
X92375Y-47000
X93250Y-32000
X94250Y-32000
X95125Y-39500
X96125Y-39500
X97000Y-24500
X97000Y-54500
X98000Y-24500
X98000Y-54500
X98875Y-47000
X98875Y-54500
X99875Y-47000
X99875Y-54500
X100750Y-32000
X101750Y-32000
X102625Y-39500
X103563Y-54500
X103625Y-39500
X104500Y-24500
X104500Y-54500
X104562Y-54500
X105500Y-24500
X105500Y-54500
X106375Y-47000
X107375Y-47000
X108250Y-32000
X109250Y-32000
X110125Y-39500
X110125Y-54500
X111125Y-39500
X111125Y-54500
X112000Y-24500
X112000Y-54500
X113000Y-24500
X113000Y-54500
X115750Y-32000
X116688Y-47000
X116750Y-32000
X117687Y-47000
X119500Y-24500
X119500Y-54500
X120500Y-24500
X120500Y-54500
X122313Y-39500
X123250Y-24500
X123312Y-39500
X124250Y-24500
X125125Y-32000
X126125Y-32000
X127000Y-24500
X127000Y-47000
X127000Y-54500
X128000Y-24500
X128000Y-47000
X128000Y-54500
X134500Y-24500
X134500Y-32000
X134500Y-39500
X134500Y-47000
X134500Y-54500
X135500Y-24500
X135500Y-32000
X135500Y-39500
X135500Y-47000
X135500Y-54500
T5
X21000Y-21500
X21516Y-20925
X21938Y-36500
X21938Y-51500
X22453Y-35925
X22453Y-50925
X22875Y-29000
X22875Y-51500
X23391Y-28425
X23391Y-50925
X23484Y-20728
X23500Y-20500
X23813Y-36500
X24328Y-35925
X24422Y-35728
X24422Y-50728
X24438Y-35500
X24438Y-50500
X25359Y-28228
X25359Y-50728
X25375Y-28000
X25375Y-50500
X25688Y-44000
X26203Y-43425
X26297Y-35728
X26313Y-35500
X28172Y-43228
X28188Y-43000
X28500Y-21500
X29016Y-20925
X30984Y-20728
X31000Y-20500
X31313Y-51500
X31828Y-50925
X32250Y-29000
X32766Y-28425
X33188Y-51500
X33703Y-50925
X33797Y-50728
X33813Y-50500
X34125Y-36500
X34125Y-51500
X34641Y-35925
X34641Y-50925
X34734Y-28228
X34750Y-28000
X35672Y-50728
X35688Y-50500
X36000Y-21500
X36516Y-20925
X36609Y-35728
X36609Y-50728
X36625Y-35500
X36625Y-50500
X37875Y-44000
X38391Y-43425
X38484Y-20728
X38500Y-20500
X39750Y-29000
X40266Y-28425
X40359Y-43228
X40375Y-43000
X40688Y-51500
X41203Y-50925
X41625Y-36500
X42141Y-35925
X42234Y-28228
X42250Y-28000
X43172Y-50728
X43188Y-50500
X43500Y-21500
X43500Y-51500
X44016Y-20925
X44016Y-50925
X44109Y-35728
X44125Y-35500
X45375Y-44000
X45891Y-43425
X45984Y-20728
X45984Y-50728
X46000Y-20500
X46000Y-50500
X47250Y-29000
X47766Y-28425
X47859Y-43228
X47875Y-43000
X49125Y-36500
X49641Y-35925
X49734Y-28228
X49750Y-28000
X51000Y-21500
X51516Y-20925
X51609Y-35728
X51625Y-35500
X52875Y-44000
X53391Y-43425
X53484Y-20728
X53500Y-20500
X53813Y-51500
X54328Y-50925
X54750Y-29000
X55266Y-28425
X55359Y-43228
X55375Y-43000
X56297Y-50728
X56313Y-50500
X56625Y-36500
X57141Y-35925
X57234Y-28228
X57250Y-28000
X57563Y-51500
X58078Y-50925
X58500Y-21500
X59016Y-20925
X59109Y-35728
X59125Y-35500
X60047Y-50728
X60063Y-50500
X60375Y-44000
X60891Y-43425
X60984Y-20728
X61000Y-20500
X62250Y-29000
X62766Y-28425
X62859Y-43228
X62875Y-43000
X64125Y-36500
X64641Y-35925
X64734Y-28228
X64750Y-28000
X66000Y-21500
X66000Y-51500
X66516Y-20925
X66516Y-50925
X66609Y-35728
X66625Y-35500
X66938Y-51500
X67453Y-50925
X67875Y-44000
X68391Y-43425
X68484Y-20728
X68484Y-50728
X68500Y-20500
X68500Y-50500
X68813Y-51500
X69328Y-50925
X69422Y-50728
X69438Y-50500
X69750Y-29000
X70266Y-28425
X70359Y-43228
X70375Y-43000
X71297Y-50728
X71313Y-50500
X71625Y-36500
X71625Y-51500
X72141Y-35925
X72141Y-50925
X72234Y-28228
X72250Y-28000
X73500Y-21500
X73500Y-51500
X74016Y-20925
X74016Y-50925
X74109Y-35728
X74109Y-50728
X74125Y-35500
X74125Y-50500
X75375Y-44000
X75891Y-43425
X75984Y-20728
X75984Y-50728
X76000Y-20500
X76000Y-50500
X77250Y-29000
X77766Y-28425
X77859Y-43228
X77875Y-43000
X79125Y-36500
X79641Y-35925
X79734Y-28228
X79750Y-28000
X81000Y-21500
X81516Y-20925
X81609Y-35728
X81625Y-35500
X81938Y-51500
X82453Y-50925
X82875Y-44000
X83391Y-43425
X83484Y-20728
X83500Y-20500
X84422Y-50728
X84438Y-50500
X84750Y-29000
X85266Y-28425
X85359Y-43228
X85375Y-43000
X86625Y-36500
X87141Y-35925
X87234Y-28228
X87250Y-28000
X87563Y-51500
X88078Y-50925
X88500Y-21500
X89016Y-20925
X89109Y-35728
X89125Y-35500
X90047Y-50728
X90063Y-50500
X90375Y-44000
X90891Y-43425
X90984Y-20728
X91000Y-20500
X92250Y-29000
X92766Y-28425
X92859Y-43228
X92875Y-43000
X94125Y-36500
X94641Y-35925
X94734Y-28228
X94750Y-28000
X96000Y-21500
X96000Y-51500
X96516Y-20925
X96516Y-50925
X96609Y-35728
X96625Y-35500
X97875Y-44000
X97875Y-51500
X98391Y-43425
X98391Y-50925
X98484Y-20728
X98484Y-50728
X98500Y-20500
X98500Y-50500
X99750Y-29000
X100266Y-28425
X100359Y-43228
X100359Y-50728
X100375Y-43000
X100375Y-50500
X101625Y-36500
X102141Y-35925
X102234Y-28228
X102250Y-28000
X102563Y-51500
X103078Y-50925
X103500Y-21500
X103500Y-51500
X104016Y-20925
X104016Y-50925
X104109Y-35728
X104125Y-35500
X105047Y-50728
X105063Y-50500
X105375Y-44000
X105891Y-43425
X105984Y-20728
X105984Y-50728
X106000Y-20500
X106000Y-50500
X107250Y-29000
X107766Y-28425
X107859Y-43228
X107875Y-43000
X109125Y-36500
X109125Y-51500
X109641Y-35925
X109641Y-50925
X109734Y-28228
X109750Y-28000
X111000Y-21500
X111000Y-51500
X111516Y-20925
X111516Y-50925
X111609Y-35728
X111609Y-50728
X111625Y-35500
X111625Y-50500
X113484Y-20728
X113484Y-50728
X113500Y-20500
X113500Y-50500
X114750Y-29000
X115266Y-28425
X115688Y-44000
X116203Y-43425
X117234Y-28228
X117250Y-28000
X118172Y-43228
X118188Y-43000
X118500Y-21500
X118500Y-51500
X119016Y-20925
X119016Y-50925
X120984Y-20728
X120984Y-50728
X121000Y-20500
X121000Y-50500
X121313Y-36500
X121828Y-35925
X122250Y-21500
X122766Y-20925
X123797Y-35728
X123813Y-35500
X124125Y-29000
X124641Y-28425
X124734Y-20728
X124750Y-20500
X126000Y-21500
X126000Y-44000
X126000Y-51500
X126516Y-20925
X126516Y-43425
X126516Y-50925
X126609Y-28228
X126625Y-28000
X128484Y-20728
X128484Y-43228
X128484Y-50728
X128500Y-20500
X128500Y-43000
X128500Y-50500
X133500Y-21500
X133500Y-29000
X133500Y-36500
X133500Y-44000
X133500Y-51500
X134016Y-20925
X134016Y-28425
X134016Y-35925
X134016Y-43425
X134016Y-50925
X135984Y-20728
X135984Y-28228
X135984Y-35728
X135984Y-43228
X135984Y-50728
X136000Y-20500
X136000Y-28000
X136000Y-35500
X136000Y-43000
X136000Y-50500
T6
X26250Y-26250
X28750Y-52500
X50625Y-52500
X62188Y-26250
X69375Y-37500
X79375Y-52500
X99688Y-26250
X101250Y-48750
X123750Y-49375
X131250Y-26250
T7
X20850Y-32750
X21650Y-32750
T8
X21250Y-34750
T9
X20500Y-22500
X21438Y-37500
X21438Y-52500
X22375Y-30000
X22375Y-52500
X23313Y-37500
X24500Y-22500
X25188Y-45000
X25437Y-37500
X25437Y-52500
X26375Y-30000
X26375Y-52500
X27312Y-37500
X28000Y-22500
X29187Y-45000
X30813Y-52500
X31750Y-30000
X32000Y-22500
X32688Y-52500
X33625Y-37500
X33625Y-52500
X34813Y-52500
X35500Y-22500
X35750Y-30000
X36688Y-52500
X37375Y-45000
X37625Y-37500
X37625Y-52500
X39250Y-30000
X39500Y-22500
X40188Y-52500
X41125Y-37500
X41375Y-45000
X43000Y-22500
X43000Y-52500
X43250Y-30000
X44188Y-52500
X44875Y-45000
X45125Y-37500
X46750Y-30000
X47000Y-22500
X47000Y-52500
X48625Y-37500
X48875Y-45000
X50500Y-22500
X50750Y-30000
X52375Y-45000
X52625Y-37500
X53313Y-52500
X54250Y-30000
X54500Y-22500
X56125Y-37500
X56375Y-45000
X57063Y-52500
X57313Y-52500
X58000Y-22500
X58250Y-30000
X59875Y-45000
X60125Y-37500
X61063Y-52500
X61750Y-30000
X62000Y-22500
X63625Y-37500
X63875Y-45000
X65500Y-22500
X65500Y-52500
X65750Y-30000
X66438Y-52500
X67375Y-45000
X67625Y-37500
X68313Y-52500
X69250Y-30000
X69500Y-22500
X69500Y-52500
X70438Y-52500
X71125Y-37500
X71125Y-52500
X71375Y-45000
X72313Y-52500
X73000Y-22500
X73000Y-52500
X73250Y-30000
X74875Y-45000
X75125Y-37500
X75125Y-52500
X76750Y-30000
X77000Y-22500
X77000Y-52500
X78625Y-37500
X78875Y-45000
X80500Y-22500
X80750Y-30000
X81437Y-52500
X82375Y-45000
X82625Y-37500
X84250Y-30000
X84500Y-22500
X85438Y-52500
X86125Y-37500
X86375Y-45000
X87062Y-52500
X88000Y-22500
X88250Y-30000
X89875Y-45000
X90125Y-37500
X91063Y-52500
X91750Y-30000
X92000Y-22500
X93625Y-37500
X93875Y-45000
X95500Y-22500
X95500Y-52500
X95750Y-30000
X97375Y-45000
X97375Y-52500
X97625Y-37500
X99250Y-30000
X99500Y-22500
X99500Y-52500
X101125Y-37500
X101375Y-45000
X101375Y-52500
X102062Y-52500
X103000Y-22500
X103000Y-52500
X103250Y-30000
X104875Y-45000
X105125Y-37500
X106063Y-52500
X106750Y-30000
X107000Y-22500
X107000Y-52500
X108625Y-37500
X108625Y-52500
X108875Y-45000
X110500Y-22500
X110500Y-52500
X110750Y-30000
X112625Y-37500
X112625Y-52500
X114250Y-30000
X114500Y-22500
X114500Y-52500
X115187Y-45000
X118000Y-22500
X118000Y-52500
X118250Y-30000
X119188Y-45000
X120812Y-37500
X121750Y-22500
X122000Y-22500
X122000Y-52500
X123625Y-30000
X124813Y-37500
X125500Y-22500
X125500Y-45000
X125500Y-52500
X125750Y-22500
X127625Y-30000
X129500Y-22500
X129500Y-45000
X129500Y-52500
X133000Y-22500
X133000Y-30000
X133000Y-37500
X133000Y-45000
X133000Y-52500
X137000Y-22500
X137000Y-30000
X137000Y-37500
X137000Y-45000
X137000Y-52500
T10
X22487Y-42250
X31887Y-42250
X45000Y-55250
X50613Y-55250
X50628Y-55250
X54363Y-55250
X55315Y-55250
X60013Y-55250
X63763Y-55250
X78738Y-55250
X84363Y-55250
X88138Y-55250
X89998Y-55250
X90000Y-55250
X93763Y-55250
X94685Y-55250
X118113Y-34750
X119050Y-19750
X127513Y-34750
X128450Y-19750
T11
X22487Y-48250
X22500Y-22500
X23438Y-37500
X23438Y-52500
X24375Y-30000
X24375Y-52500
X25313Y-37500
X27188Y-45000
X30000Y-22500
X31887Y-48250
X32813Y-52500
X33750Y-30000
X34688Y-52500
X35625Y-37500
X35625Y-52500
X37500Y-22500
X39375Y-45000
X41250Y-30000
X42188Y-52500
X43125Y-37500
X45000Y-22500
X45000Y-49250
X45000Y-52500
X46875Y-45000
X48750Y-30000
X50613Y-49250
X50625Y-37500
X50628Y-49250
X52500Y-22500
X54363Y-49250
X54375Y-45000
X55313Y-52500
X55315Y-49250
X56250Y-30000
X58125Y-37500
X59063Y-52500
X60000Y-22500
X60013Y-49250
X61875Y-45000
X63750Y-30000
X63763Y-49250
X65625Y-37500
X67500Y-22500
X67500Y-52500
X68438Y-52500
X69375Y-45000
X70313Y-52500
X71250Y-30000
X73125Y-37500
X73125Y-52500
X75000Y-22500
X75000Y-52500
X76875Y-45000
X78738Y-49250
X78750Y-30000
X80625Y-37500
X82500Y-22500
X83438Y-52500
X84363Y-49250
X84375Y-45000
X86250Y-30000
X88125Y-37500
X88138Y-49250
X89063Y-52500
X89998Y-49250
X90000Y-22500
X90000Y-49250
X91875Y-45000
X93750Y-30000
X93763Y-49250
X94685Y-49250
X95625Y-37500
X97500Y-22500
X97500Y-52500
X99375Y-45000
X99375Y-52500
X101250Y-30000
X103125Y-37500
X104063Y-52500
X105000Y-22500
X105000Y-52500
X106875Y-45000
X108750Y-30000
X110625Y-37500
X110625Y-52500
X112500Y-22500
X112500Y-52500
X116250Y-30000
X117188Y-45000
X118113Y-40750
X119050Y-25750
X120000Y-22500
X120000Y-52500
X122813Y-37500
X123750Y-22500
X125625Y-30000
X127500Y-22500
X127500Y-45000
X127500Y-52500
X127513Y-40750
X128450Y-25750
X135000Y-22500
X135000Y-30000
X135000Y-37500
X135000Y-45000
X135000Y-52500
T2
X24397Y-19035G85X24397Y-19272
G05
X24397Y-20898G85X24397Y-21134
G05
X27759Y-19035G85X27759Y-19272
G05
X27759Y-20898G85X27759Y-21134
G05
T0
M30
