M48
;DRILL file {KiCad 4.0.7} date 05/29/18 00:46:20
;FORMAT={-:-/ absolute / inch / decimal}
FMAT,2
INCH,TZ
T1C0.026
T2C0.039
T3C0.039
T4C0.069
T5C0.120
T6C0.157
%
G90
G05
M72
T1
X2.494Y-2.0571
X2.7216Y-2.0571
T2
X2.085Y-3.275
X2.165Y-3.275
T3
X2.125Y-3.475
T4
X2.05Y-2.25
X2.1437Y-3.75
X2.1437Y-5.25
X2.2375Y-3.
X2.2375Y-5.25
X2.3312Y-3.75
X2.45Y-2.25
X2.5187Y-4.5
X2.5437Y-3.75
X2.5437Y-5.25
X2.6375Y-3.
X2.6375Y-5.25
X2.7312Y-3.75
X2.8Y-2.25
X2.9187Y-4.5
X3.0812Y-5.25
X3.175Y-3.
X3.2Y-2.25
X3.2687Y-5.25
X3.3625Y-3.75
X3.3625Y-5.25
X3.4812Y-5.25
X3.55Y-2.25
X3.575Y-3.
X3.6687Y-5.25
X3.7375Y-4.5
X3.7625Y-3.75
X3.7625Y-5.25
X3.925Y-3.
X3.95Y-2.25
X4.0187Y-5.25
X4.1125Y-3.75
X4.1375Y-4.5
X4.3Y-2.25
X4.3Y-5.25
X4.325Y-3.
X4.4188Y-5.25
X4.4875Y-4.5
X4.5125Y-3.75
X4.675Y-3.
X4.7Y-2.25
X4.7Y-5.25
X4.8625Y-3.75
X4.8875Y-4.5
X5.05Y-2.25
X5.075Y-3.
X5.2375Y-4.5
X5.2625Y-3.75
X5.3312Y-5.25
X5.425Y-3.
X5.45Y-2.25
X5.6125Y-3.75
X5.6375Y-4.5
X5.7062Y-5.25
X5.7313Y-5.25
X5.8Y-2.25
X5.825Y-3.
X5.9875Y-4.5
X6.0125Y-3.75
X6.1063Y-5.25
X6.175Y-3.
X6.2Y-2.25
X6.3625Y-3.75
X6.3875Y-4.5
X6.55Y-2.25
X6.55Y-5.25
X6.575Y-3.
X6.6437Y-5.25
X6.7375Y-4.5
X6.7625Y-3.75
X6.8312Y-5.25
X6.925Y-3.
X6.95Y-2.25
X6.95Y-5.25
X7.0438Y-5.25
X7.1125Y-3.75
X7.1125Y-5.25
X7.1375Y-4.5
X7.2313Y-5.25
X7.3Y-2.25
X7.3Y-5.25
X7.325Y-3.
X7.4875Y-4.5
X7.5125Y-3.75
X7.5125Y-5.25
X7.675Y-3.
X7.7Y-2.25
X7.7Y-5.25
X7.8625Y-3.75
X7.8875Y-4.5
X8.05Y-2.25
X8.075Y-3.
X8.1437Y-5.25
X8.2375Y-4.5
X8.2625Y-3.75
X8.425Y-3.
X8.45Y-2.25
X8.5437Y-5.25
X8.6125Y-3.75
X8.6375Y-4.5
X8.7062Y-5.25
X8.8Y-2.25
X8.825Y-3.
X8.9875Y-4.5
X9.0125Y-3.75
X9.1062Y-5.25
X9.175Y-3.
X9.2Y-2.25
X9.3625Y-3.75
X9.3875Y-4.5
X9.55Y-2.25
X9.55Y-5.25
X9.575Y-3.
X9.7375Y-4.5
X9.7375Y-5.25
X9.7625Y-3.75
X9.925Y-3.
X9.95Y-2.25
X9.95Y-5.25
X10.1125Y-3.75
X10.1375Y-4.5
X10.1375Y-5.25
X10.2062Y-5.25
X10.3Y-2.25
X10.3Y-5.25
X10.325Y-3.
X10.4875Y-4.5
X10.5125Y-3.75
X10.6062Y-5.25
X10.675Y-3.
X10.7Y-2.25
X10.7Y-5.25
X10.8625Y-3.75
X10.8625Y-5.25
X10.8875Y-4.5
X11.05Y-2.25
X11.05Y-5.25
X11.075Y-3.
X11.2625Y-3.75
X11.2625Y-5.25
X11.425Y-3.
X11.45Y-2.25
X11.45Y-5.25
X11.5187Y-4.5
X11.8Y-2.25
X11.8Y-5.25
X11.825Y-3.
X11.9187Y-4.5
X12.0812Y-3.75
X12.175Y-2.25
X12.2Y-2.25
X12.2Y-5.25
X12.3625Y-3.
X12.4812Y-3.75
X12.55Y-2.25
X12.55Y-4.5
X12.55Y-5.25
X12.575Y-2.25
X12.7625Y-3.
X12.95Y-2.25
X12.95Y-4.5
X12.95Y-5.25
X13.3Y-2.25
X13.3Y-3.
X13.3Y-3.75
X13.3Y-4.5
X13.3Y-5.25
X13.7Y-2.25
X13.7Y-3.
X13.7Y-3.75
X13.7Y-4.5
X13.7Y-5.25
T5
X2.2487Y-4.225
X3.1887Y-4.225
X4.5Y-5.525
X5.0613Y-5.525
X5.0628Y-5.525
X5.4363Y-5.525
X5.5315Y-5.525
X6.0012Y-5.525
X6.3762Y-5.525
X7.8738Y-5.525
X8.4362Y-5.525
X8.8138Y-5.525
X8.9998Y-5.525
X9.Y-5.525
X9.3763Y-5.525
X9.4685Y-5.525
X11.8112Y-3.475
X11.905Y-1.975
X12.7512Y-3.475
X12.845Y-1.975
T6
X2.2487Y-4.825
X2.25Y-2.25
X2.3438Y-3.75
X2.3438Y-5.25
X2.4375Y-3.
X2.4375Y-5.25
X2.5312Y-3.75
X2.7188Y-4.5
X3.Y-2.25
X3.1887Y-4.825
X3.2812Y-5.25
X3.375Y-3.
X3.4688Y-5.25
X3.5625Y-3.75
X3.5625Y-5.25
X3.75Y-2.25
X3.9375Y-4.5
X4.125Y-3.
X4.2188Y-5.25
X4.3125Y-3.75
X4.5Y-2.25
X4.5Y-4.925
X4.5Y-5.25
X4.6875Y-4.5
X4.875Y-3.
X5.0613Y-4.925
X5.0625Y-3.75
X5.0628Y-4.925
X5.25Y-2.25
X5.4363Y-4.925
X5.4375Y-4.5
X5.5312Y-5.25
X5.5315Y-4.925
X5.625Y-3.
X5.8125Y-3.75
X5.9062Y-5.25
X6.Y-2.25
X6.0012Y-4.925
X6.1875Y-4.5
X6.375Y-3.
X6.3762Y-4.925
X6.5625Y-3.75
X6.75Y-2.25
X6.75Y-5.25
X6.8438Y-5.25
X6.9375Y-4.5
X7.0312Y-5.25
X7.125Y-3.
X7.3125Y-3.75
X7.3125Y-5.25
X7.5Y-2.25
X7.5Y-5.25
X7.6875Y-4.5
X7.8738Y-4.925
X7.875Y-3.
X8.0625Y-3.75
X8.25Y-2.25
X8.3438Y-5.25
X8.4362Y-4.925
X8.4375Y-4.5
X8.625Y-3.
X8.8125Y-3.75
X8.8138Y-4.925
X8.9062Y-5.25
X8.9998Y-4.925
X9.Y-2.25
X9.Y-4.925
X9.1875Y-4.5
X9.375Y-3.
X9.3763Y-4.925
X9.4685Y-4.925
X9.5625Y-3.75
X9.75Y-2.25
X9.75Y-5.25
X9.9375Y-4.5
X9.9375Y-5.25
X10.125Y-3.
X10.3125Y-3.75
X10.4062Y-5.25
X10.5Y-2.25
X10.5Y-5.25
X10.6875Y-4.5
X10.875Y-3.
X11.0625Y-3.75
X11.0625Y-5.25
X11.25Y-2.25
X11.25Y-5.25
X11.625Y-3.
X11.7188Y-4.5
X11.8112Y-4.075
X11.905Y-2.575
X12.Y-2.25
X12.Y-5.25
X12.2812Y-3.75
X12.375Y-2.25
X12.5625Y-3.
X12.75Y-2.25
X12.75Y-4.5
X12.75Y-5.25
X12.7512Y-4.075
X12.845Y-2.575
X13.5Y-2.25
X13.5Y-3.
X13.5Y-3.75
X13.5Y-4.5
X13.5Y-5.25
T0
M30
