%TF.GenerationSoftware,KiCad,Pcbnew,4.0.7*%
%TF.CreationDate,2018-01-29T21:38:14-08:00*%
%TF.ProjectId,VoyagerII,566F796167657249492E6B696361645F,rev?*%
%TF.FileFunction,Legend,Top*%
%FSLAX46Y46*%
G04 Gerber Fmt 4.6, Leading zero omitted, Abs format (unit mm)*
G04 Created by KiCad (PCBNEW 4.0.7) date 01/29/18 21:38:14*
%MOMM*%
%LPD*%
G01*
G04 APERTURE LIST*
%ADD10C,0.100000*%
%ADD11C,0.170000*%
%ADD12C,0.500000*%
%ADD13C,0.150000*%
G04 APERTURE END LIST*
D10*
D11*
X147923214Y-103347857D02*
X147923214Y-102147857D01*
X148380357Y-102147857D01*
X148494643Y-102205000D01*
X148551786Y-102262143D01*
X148608929Y-102376429D01*
X148608929Y-102547857D01*
X148551786Y-102662143D01*
X148494643Y-102719286D01*
X148380357Y-102776429D01*
X147923214Y-102776429D01*
X149808929Y-103233571D02*
X149751786Y-103290714D01*
X149580357Y-103347857D01*
X149466071Y-103347857D01*
X149294643Y-103290714D01*
X149180357Y-103176429D01*
X149123214Y-103062143D01*
X149066071Y-102833571D01*
X149066071Y-102662143D01*
X149123214Y-102433571D01*
X149180357Y-102319286D01*
X149294643Y-102205000D01*
X149466071Y-102147857D01*
X149580357Y-102147857D01*
X149751786Y-102205000D01*
X149808929Y-102262143D01*
X150723214Y-102719286D02*
X150894643Y-102776429D01*
X150951786Y-102833571D01*
X151008929Y-102947857D01*
X151008929Y-103119286D01*
X150951786Y-103233571D01*
X150894643Y-103290714D01*
X150780357Y-103347857D01*
X150323214Y-103347857D01*
X150323214Y-102147857D01*
X150723214Y-102147857D01*
X150837500Y-102205000D01*
X150894643Y-102262143D01*
X150951786Y-102376429D01*
X150951786Y-102490714D01*
X150894643Y-102605000D01*
X150837500Y-102662143D01*
X150723214Y-102719286D01*
X150323214Y-102719286D01*
X152437500Y-103347857D02*
X152437500Y-102147857D01*
X152437500Y-102605000D02*
X152551786Y-102547857D01*
X152780357Y-102547857D01*
X152894643Y-102605000D01*
X152951786Y-102662143D01*
X153008929Y-102776429D01*
X153008929Y-103119286D01*
X152951786Y-103233571D01*
X152894643Y-103290714D01*
X152780357Y-103347857D01*
X152551786Y-103347857D01*
X152437500Y-103290714D01*
X153408929Y-102547857D02*
X153694643Y-103347857D01*
X153980357Y-102547857D02*
X153694643Y-103347857D01*
X153580357Y-103633571D01*
X153523214Y-103690714D01*
X153408929Y-103747857D01*
X155866072Y-103347857D02*
X155866072Y-102719286D01*
X155808929Y-102605000D01*
X155694643Y-102547857D01*
X155466072Y-102547857D01*
X155351786Y-102605000D01*
X155866072Y-103290714D02*
X155751786Y-103347857D01*
X155466072Y-103347857D01*
X155351786Y-103290714D01*
X155294643Y-103176429D01*
X155294643Y-103062143D01*
X155351786Y-102947857D01*
X155466072Y-102890714D01*
X155751786Y-102890714D01*
X155866072Y-102833571D01*
X156437500Y-103347857D02*
X156437500Y-102547857D01*
X156437500Y-102147857D02*
X156380357Y-102205000D01*
X156437500Y-102262143D01*
X156494643Y-102205000D01*
X156437500Y-102147857D01*
X156437500Y-102262143D01*
X157237501Y-102147857D02*
X157351786Y-102147857D01*
X157466072Y-102205000D01*
X157523215Y-102262143D01*
X157580358Y-102376429D01*
X157637501Y-102605000D01*
X157637501Y-102890714D01*
X157580358Y-103119286D01*
X157523215Y-103233571D01*
X157466072Y-103290714D01*
X157351786Y-103347857D01*
X157237501Y-103347857D01*
X157123215Y-103290714D01*
X157066072Y-103233571D01*
X157008929Y-103119286D01*
X156951786Y-102890714D01*
X156951786Y-102605000D01*
X157008929Y-102376429D01*
X157066072Y-102262143D01*
X157123215Y-102205000D01*
X157237501Y-102147857D01*
X158037501Y-102147857D02*
X158780358Y-102147857D01*
X158380358Y-102605000D01*
X158551786Y-102605000D01*
X158666072Y-102662143D01*
X158723215Y-102719286D01*
X158780358Y-102833571D01*
X158780358Y-103119286D01*
X158723215Y-103233571D01*
X158666072Y-103290714D01*
X158551786Y-103347857D01*
X158208929Y-103347857D01*
X158094643Y-103290714D01*
X158037501Y-103233571D01*
X148437500Y-104117857D02*
X148208929Y-104117857D01*
X148094643Y-104175000D01*
X148037500Y-104232143D01*
X147923214Y-104403571D01*
X147866071Y-104632143D01*
X147866071Y-105089286D01*
X147923214Y-105203571D01*
X147980357Y-105260714D01*
X148094643Y-105317857D01*
X148323214Y-105317857D01*
X148437500Y-105260714D01*
X148494643Y-105203571D01*
X148551786Y-105089286D01*
X148551786Y-104803571D01*
X148494643Y-104689286D01*
X148437500Y-104632143D01*
X148323214Y-104575000D01*
X148094643Y-104575000D01*
X147980357Y-104632143D01*
X147923214Y-104689286D01*
X147866071Y-104803571D01*
X149294643Y-104117857D02*
X149408928Y-104117857D01*
X149523214Y-104175000D01*
X149580357Y-104232143D01*
X149637500Y-104346429D01*
X149694643Y-104575000D01*
X149694643Y-104860714D01*
X149637500Y-105089286D01*
X149580357Y-105203571D01*
X149523214Y-105260714D01*
X149408928Y-105317857D01*
X149294643Y-105317857D01*
X149180357Y-105260714D01*
X149123214Y-105203571D01*
X149066071Y-105089286D01*
X149008928Y-104860714D01*
X149008928Y-104575000D01*
X149066071Y-104346429D01*
X149123214Y-104232143D01*
X149180357Y-104175000D01*
X149294643Y-104117857D01*
X150151785Y-105317857D02*
X151066071Y-104117857D01*
X150323214Y-104117857D02*
X150437500Y-104175000D01*
X150494643Y-104289286D01*
X150437500Y-104403571D01*
X150323214Y-104460714D01*
X150208928Y-104403571D01*
X150151785Y-104289286D01*
X150208928Y-104175000D01*
X150323214Y-104117857D01*
X151008928Y-105260714D02*
X151066071Y-105146429D01*
X151008928Y-105032143D01*
X150894643Y-104975000D01*
X150780357Y-105032143D01*
X150723214Y-105146429D01*
X150780357Y-105260714D01*
X150894643Y-105317857D01*
X151008928Y-105260714D01*
X152494643Y-105317857D02*
X152494643Y-104117857D01*
X152951786Y-104117857D01*
X153066072Y-104175000D01*
X153123215Y-104232143D01*
X153180358Y-104346429D01*
X153180358Y-104517857D01*
X153123215Y-104632143D01*
X153066072Y-104689286D01*
X152951786Y-104746429D01*
X152494643Y-104746429D01*
X154380358Y-105203571D02*
X154323215Y-105260714D01*
X154151786Y-105317857D01*
X154037500Y-105317857D01*
X153866072Y-105260714D01*
X153751786Y-105146429D01*
X153694643Y-105032143D01*
X153637500Y-104803571D01*
X153637500Y-104632143D01*
X153694643Y-104403571D01*
X153751786Y-104289286D01*
X153866072Y-104175000D01*
X154037500Y-104117857D01*
X154151786Y-104117857D01*
X154323215Y-104175000D01*
X154380358Y-104232143D01*
X155294643Y-104689286D02*
X155466072Y-104746429D01*
X155523215Y-104803571D01*
X155580358Y-104917857D01*
X155580358Y-105089286D01*
X155523215Y-105203571D01*
X155466072Y-105260714D01*
X155351786Y-105317857D01*
X154894643Y-105317857D01*
X154894643Y-104117857D01*
X155294643Y-104117857D01*
X155408929Y-104175000D01*
X155466072Y-104232143D01*
X155523215Y-104346429D01*
X155523215Y-104460714D01*
X155466072Y-104575000D01*
X155408929Y-104632143D01*
X155294643Y-104689286D01*
X154894643Y-104689286D01*
X156837501Y-104517857D02*
X157294644Y-104517857D01*
X157008929Y-105317857D02*
X157008929Y-104289286D01*
X157066072Y-104175000D01*
X157180358Y-104117857D01*
X157294644Y-104117857D01*
X157866072Y-105317857D02*
X157751786Y-105260714D01*
X157694643Y-105203571D01*
X157637500Y-105089286D01*
X157637500Y-104746429D01*
X157694643Y-104632143D01*
X157751786Y-104575000D01*
X157866072Y-104517857D01*
X158037500Y-104517857D01*
X158151786Y-104575000D01*
X158208929Y-104632143D01*
X158266072Y-104746429D01*
X158266072Y-105089286D01*
X158208929Y-105203571D01*
X158151786Y-105260714D01*
X158037500Y-105317857D01*
X157866072Y-105317857D01*
X158951786Y-105317857D02*
X158837500Y-105260714D01*
X158780357Y-105203571D01*
X158723214Y-105089286D01*
X158723214Y-104746429D01*
X158780357Y-104632143D01*
X158837500Y-104575000D01*
X158951786Y-104517857D01*
X159123214Y-104517857D01*
X159237500Y-104575000D01*
X159294643Y-104632143D01*
X159351786Y-104746429D01*
X159351786Y-105089286D01*
X159294643Y-105203571D01*
X159237500Y-105260714D01*
X159123214Y-105317857D01*
X158951786Y-105317857D01*
X159694643Y-104517857D02*
X160151786Y-104517857D01*
X159866071Y-104117857D02*
X159866071Y-105146429D01*
X159923214Y-105260714D01*
X160037500Y-105317857D01*
X160151786Y-105317857D01*
X160551785Y-104517857D02*
X160551785Y-105717857D01*
X160551785Y-104575000D02*
X160666071Y-104517857D01*
X160894642Y-104517857D01*
X161008928Y-104575000D01*
X161066071Y-104632143D01*
X161123214Y-104746429D01*
X161123214Y-105089286D01*
X161066071Y-105203571D01*
X161008928Y-105260714D01*
X160894642Y-105317857D01*
X160666071Y-105317857D01*
X160551785Y-105260714D01*
X161637499Y-105317857D02*
X161637499Y-104517857D01*
X161637499Y-104746429D02*
X161694642Y-104632143D01*
X161751785Y-104575000D01*
X161866071Y-104517857D01*
X161980356Y-104517857D01*
X162380356Y-105317857D02*
X162380356Y-104517857D01*
X162380356Y-104117857D02*
X162323213Y-104175000D01*
X162380356Y-104232143D01*
X162437499Y-104175000D01*
X162380356Y-104117857D01*
X162380356Y-104232143D01*
X162951785Y-104517857D02*
X162951785Y-105317857D01*
X162951785Y-104632143D02*
X163008928Y-104575000D01*
X163123214Y-104517857D01*
X163294642Y-104517857D01*
X163408928Y-104575000D01*
X163466071Y-104689286D01*
X163466071Y-105317857D01*
X163866071Y-104517857D02*
X164323214Y-104517857D01*
X164037499Y-104117857D02*
X164037499Y-105146429D01*
X164094642Y-105260714D01*
X164208928Y-105317857D01*
X164323214Y-105317857D01*
X165637499Y-105317857D02*
X165637499Y-104117857D01*
X165637499Y-104575000D02*
X165751785Y-104517857D01*
X165980356Y-104517857D01*
X166094642Y-104575000D01*
X166151785Y-104632143D01*
X166208928Y-104746429D01*
X166208928Y-105089286D01*
X166151785Y-105203571D01*
X166094642Y-105260714D01*
X165980356Y-105317857D01*
X165751785Y-105317857D01*
X165637499Y-105260714D01*
X166608928Y-104517857D02*
X166894642Y-105317857D01*
X167180356Y-104517857D02*
X166894642Y-105317857D01*
X166780356Y-105603571D01*
X166723213Y-105660714D01*
X166608928Y-105717857D01*
X169066071Y-105317857D02*
X169066071Y-104689286D01*
X169008928Y-104575000D01*
X168894642Y-104517857D01*
X168666071Y-104517857D01*
X168551785Y-104575000D01*
X169066071Y-105260714D02*
X168951785Y-105317857D01*
X168666071Y-105317857D01*
X168551785Y-105260714D01*
X168494642Y-105146429D01*
X168494642Y-105032143D01*
X168551785Y-104917857D01*
X168666071Y-104860714D01*
X168951785Y-104860714D01*
X169066071Y-104803571D01*
X169637499Y-105317857D02*
X169637499Y-104517857D01*
X169637499Y-104632143D02*
X169694642Y-104575000D01*
X169808928Y-104517857D01*
X169980356Y-104517857D01*
X170094642Y-104575000D01*
X170151785Y-104689286D01*
X170151785Y-105317857D01*
X170151785Y-104689286D02*
X170208928Y-104575000D01*
X170323214Y-104517857D01*
X170494642Y-104517857D01*
X170608928Y-104575000D01*
X170666071Y-104689286D01*
X170666071Y-105317857D01*
X171066071Y-104517857D02*
X171523214Y-104517857D01*
X171237499Y-104117857D02*
X171237499Y-105146429D01*
X171294642Y-105260714D01*
X171408928Y-105317857D01*
X171523214Y-105317857D01*
X171923213Y-105317857D02*
X171923213Y-104517857D01*
X171923213Y-104746429D02*
X171980356Y-104632143D01*
X172037499Y-104575000D01*
X172151785Y-104517857D01*
X172266070Y-104517857D01*
X173180356Y-105317857D02*
X173180356Y-104689286D01*
X173123213Y-104575000D01*
X173008927Y-104517857D01*
X172780356Y-104517857D01*
X172666070Y-104575000D01*
X173180356Y-105260714D02*
X173066070Y-105317857D01*
X172780356Y-105317857D01*
X172666070Y-105260714D01*
X172608927Y-105146429D01*
X172608927Y-105032143D01*
X172666070Y-104917857D01*
X172780356Y-104860714D01*
X173066070Y-104860714D01*
X173180356Y-104803571D01*
X174323213Y-104117857D02*
X173751784Y-104117857D01*
X173694641Y-104689286D01*
X173751784Y-104632143D01*
X173866070Y-104575000D01*
X174151784Y-104575000D01*
X174266070Y-104632143D01*
X174323213Y-104689286D01*
X174380356Y-104803571D01*
X174380356Y-105089286D01*
X174323213Y-105203571D01*
X174266070Y-105260714D01*
X174151784Y-105317857D01*
X173866070Y-105317857D01*
X173751784Y-105260714D01*
X173694641Y-105203571D01*
X147923214Y-107287857D02*
X147923214Y-106087857D01*
X148208929Y-106087857D01*
X148380357Y-106145000D01*
X148494643Y-106259286D01*
X148551786Y-106373571D01*
X148608929Y-106602143D01*
X148608929Y-106773571D01*
X148551786Y-107002143D01*
X148494643Y-107116429D01*
X148380357Y-107230714D01*
X148208929Y-107287857D01*
X147923214Y-107287857D01*
X149580357Y-107230714D02*
X149466071Y-107287857D01*
X149237500Y-107287857D01*
X149123214Y-107230714D01*
X149066071Y-107116429D01*
X149066071Y-106659286D01*
X149123214Y-106545000D01*
X149237500Y-106487857D01*
X149466071Y-106487857D01*
X149580357Y-106545000D01*
X149637500Y-106659286D01*
X149637500Y-106773571D01*
X149066071Y-106887857D01*
X150094642Y-107230714D02*
X150208928Y-107287857D01*
X150437500Y-107287857D01*
X150551785Y-107230714D01*
X150608928Y-107116429D01*
X150608928Y-107059286D01*
X150551785Y-106945000D01*
X150437500Y-106887857D01*
X150266071Y-106887857D01*
X150151785Y-106830714D01*
X150094642Y-106716429D01*
X150094642Y-106659286D01*
X150151785Y-106545000D01*
X150266071Y-106487857D01*
X150437500Y-106487857D01*
X150551785Y-106545000D01*
X151123214Y-107287857D02*
X151123214Y-106487857D01*
X151123214Y-106087857D02*
X151066071Y-106145000D01*
X151123214Y-106202143D01*
X151180357Y-106145000D01*
X151123214Y-106087857D01*
X151123214Y-106202143D01*
X152208929Y-106487857D02*
X152208929Y-107459286D01*
X152151786Y-107573571D01*
X152094643Y-107630714D01*
X151980358Y-107687857D01*
X151808929Y-107687857D01*
X151694643Y-107630714D01*
X152208929Y-107230714D02*
X152094643Y-107287857D01*
X151866072Y-107287857D01*
X151751786Y-107230714D01*
X151694643Y-107173571D01*
X151637500Y-107059286D01*
X151637500Y-106716429D01*
X151694643Y-106602143D01*
X151751786Y-106545000D01*
X151866072Y-106487857D01*
X152094643Y-106487857D01*
X152208929Y-106545000D01*
X152780357Y-106487857D02*
X152780357Y-107287857D01*
X152780357Y-106602143D02*
X152837500Y-106545000D01*
X152951786Y-106487857D01*
X153123214Y-106487857D01*
X153237500Y-106545000D01*
X153294643Y-106659286D01*
X153294643Y-107287857D01*
X155294643Y-106487857D02*
X155294643Y-107459286D01*
X155237500Y-107573571D01*
X155180357Y-107630714D01*
X155066072Y-107687857D01*
X154894643Y-107687857D01*
X154780357Y-107630714D01*
X155294643Y-107230714D02*
X155180357Y-107287857D01*
X154951786Y-107287857D01*
X154837500Y-107230714D01*
X154780357Y-107173571D01*
X154723214Y-107059286D01*
X154723214Y-106716429D01*
X154780357Y-106602143D01*
X154837500Y-106545000D01*
X154951786Y-106487857D01*
X155180357Y-106487857D01*
X155294643Y-106545000D01*
X156380357Y-106487857D02*
X156380357Y-107287857D01*
X155866071Y-106487857D02*
X155866071Y-107116429D01*
X155923214Y-107230714D01*
X156037500Y-107287857D01*
X156208928Y-107287857D01*
X156323214Y-107230714D01*
X156380357Y-107173571D01*
X156951785Y-107287857D02*
X156951785Y-106487857D01*
X156951785Y-106087857D02*
X156894642Y-106145000D01*
X156951785Y-106202143D01*
X157008928Y-106145000D01*
X156951785Y-106087857D01*
X156951785Y-106202143D01*
X158037500Y-107287857D02*
X158037500Y-106087857D01*
X158037500Y-107230714D02*
X157923214Y-107287857D01*
X157694643Y-107287857D01*
X157580357Y-107230714D01*
X157523214Y-107173571D01*
X157466071Y-107059286D01*
X157466071Y-106716429D01*
X157523214Y-106602143D01*
X157580357Y-106545000D01*
X157694643Y-106487857D01*
X157923214Y-106487857D01*
X158037500Y-106545000D01*
X159123214Y-107287857D02*
X159123214Y-106659286D01*
X159066071Y-106545000D01*
X158951785Y-106487857D01*
X158723214Y-106487857D01*
X158608928Y-106545000D01*
X159123214Y-107230714D02*
X159008928Y-107287857D01*
X158723214Y-107287857D01*
X158608928Y-107230714D01*
X158551785Y-107116429D01*
X158551785Y-107002143D01*
X158608928Y-106887857D01*
X158723214Y-106830714D01*
X159008928Y-106830714D01*
X159123214Y-106773571D01*
X159694642Y-106487857D02*
X159694642Y-107287857D01*
X159694642Y-106602143D02*
X159751785Y-106545000D01*
X159866071Y-106487857D01*
X160037499Y-106487857D01*
X160151785Y-106545000D01*
X160208928Y-106659286D01*
X160208928Y-107287857D01*
X161294642Y-107230714D02*
X161180356Y-107287857D01*
X160951785Y-107287857D01*
X160837499Y-107230714D01*
X160780356Y-107173571D01*
X160723213Y-107059286D01*
X160723213Y-106716429D01*
X160780356Y-106602143D01*
X160837499Y-106545000D01*
X160951785Y-106487857D01*
X161180356Y-106487857D01*
X161294642Y-106545000D01*
X162266070Y-107230714D02*
X162151784Y-107287857D01*
X161923213Y-107287857D01*
X161808927Y-107230714D01*
X161751784Y-107116429D01*
X161751784Y-106659286D01*
X161808927Y-106545000D01*
X161923213Y-106487857D01*
X162151784Y-106487857D01*
X162266070Y-106545000D01*
X162323213Y-106659286D01*
X162323213Y-106773571D01*
X161751784Y-106887857D01*
X163751784Y-107287857D02*
X163751784Y-106087857D01*
X163751784Y-106545000D02*
X163866070Y-106487857D01*
X164094641Y-106487857D01*
X164208927Y-106545000D01*
X164266070Y-106602143D01*
X164323213Y-106716429D01*
X164323213Y-107059286D01*
X164266070Y-107173571D01*
X164208927Y-107230714D01*
X164094641Y-107287857D01*
X163866070Y-107287857D01*
X163751784Y-107230714D01*
X164723213Y-106487857D02*
X165008927Y-107287857D01*
X165294641Y-106487857D02*
X165008927Y-107287857D01*
X164894641Y-107573571D01*
X164837498Y-107630714D01*
X164723213Y-107687857D01*
X166380356Y-107402143D02*
X167294642Y-107402143D01*
X167523213Y-107230714D02*
X167637499Y-107287857D01*
X167866071Y-107287857D01*
X167980356Y-107230714D01*
X168037499Y-107116429D01*
X168037499Y-107059286D01*
X167980356Y-106945000D01*
X167866071Y-106887857D01*
X167694642Y-106887857D01*
X167580356Y-106830714D01*
X167523213Y-106716429D01*
X167523213Y-106659286D01*
X167580356Y-106545000D01*
X167694642Y-106487857D01*
X167866071Y-106487857D01*
X167980356Y-106545000D01*
X168551785Y-106487857D02*
X168551785Y-107687857D01*
X168551785Y-106545000D02*
X168666071Y-106487857D01*
X168894642Y-106487857D01*
X169008928Y-106545000D01*
X169066071Y-106602143D01*
X169123214Y-106716429D01*
X169123214Y-107059286D01*
X169066071Y-107173571D01*
X169008928Y-107230714D01*
X168894642Y-107287857D01*
X168666071Y-107287857D01*
X168551785Y-107230714D01*
X169637499Y-107287857D02*
X169637499Y-106487857D01*
X169637499Y-106087857D02*
X169580356Y-106145000D01*
X169637499Y-106202143D01*
X169694642Y-106145000D01*
X169637499Y-106087857D01*
X169637499Y-106202143D01*
X170208928Y-106487857D02*
X170208928Y-107287857D01*
X170208928Y-106602143D02*
X170266071Y-106545000D01*
X170380357Y-106487857D01*
X170551785Y-106487857D01*
X170666071Y-106545000D01*
X170723214Y-106659286D01*
X170723214Y-107287857D01*
X171808928Y-107287857D02*
X171808928Y-106087857D01*
X171808928Y-107230714D02*
X171694642Y-107287857D01*
X171466071Y-107287857D01*
X171351785Y-107230714D01*
X171294642Y-107173571D01*
X171237499Y-107059286D01*
X171237499Y-106716429D01*
X171294642Y-106602143D01*
X171351785Y-106545000D01*
X171466071Y-106487857D01*
X171694642Y-106487857D01*
X171808928Y-106545000D01*
X172551785Y-107287857D02*
X172437499Y-107230714D01*
X172380356Y-107116429D01*
X172380356Y-106087857D01*
X173466070Y-107230714D02*
X173351784Y-107287857D01*
X173123213Y-107287857D01*
X173008927Y-107230714D01*
X172951784Y-107116429D01*
X172951784Y-106659286D01*
X173008927Y-106545000D01*
X173123213Y-106487857D01*
X173351784Y-106487857D01*
X173466070Y-106545000D01*
X173523213Y-106659286D01*
X173523213Y-106773571D01*
X172951784Y-106887857D01*
D12*
X84355335Y-102290905D02*
X86688668Y-107290905D01*
X89022001Y-102290905D01*
X92688668Y-102290905D02*
X94022001Y-102290905D01*
X94688668Y-102529000D01*
X95355335Y-103005190D01*
X95688668Y-103957571D01*
X95688668Y-105624238D01*
X95355335Y-106576619D01*
X94688668Y-107052810D01*
X94022001Y-107290905D01*
X92688668Y-107290905D01*
X92022001Y-107052810D01*
X91355335Y-106576619D01*
X91022001Y-105624238D01*
X91022001Y-103957571D01*
X91355335Y-103005190D01*
X92022001Y-102529000D01*
X92688668Y-102290905D01*
X100022001Y-104909952D02*
X100022001Y-107290905D01*
X97688668Y-102290905D02*
X100022001Y-104909952D01*
X102355334Y-102290905D01*
X104355334Y-105862333D02*
X107688668Y-105862333D01*
X103688668Y-107290905D02*
X106022001Y-102290905D01*
X108355334Y-107290905D01*
X114355334Y-102529000D02*
X113688668Y-102290905D01*
X112688668Y-102290905D01*
X111688668Y-102529000D01*
X111022001Y-103005190D01*
X110688668Y-103481381D01*
X110355334Y-104433762D01*
X110355334Y-105148048D01*
X110688668Y-106100429D01*
X111022001Y-106576619D01*
X111688668Y-107052810D01*
X112688668Y-107290905D01*
X113355334Y-107290905D01*
X114355334Y-107052810D01*
X114688668Y-106814714D01*
X114688668Y-105148048D01*
X113355334Y-105148048D01*
X117688668Y-104671857D02*
X120022001Y-104671857D01*
X121022001Y-107290905D02*
X117688668Y-107290905D01*
X117688668Y-102290905D01*
X121022001Y-102290905D01*
X128022001Y-107290905D02*
X125688667Y-104909952D01*
X124022001Y-107290905D02*
X124022001Y-102290905D01*
X126688667Y-102290905D01*
X127355334Y-102529000D01*
X127688667Y-102767095D01*
X128022001Y-103243286D01*
X128022001Y-103957571D01*
X127688667Y-104433762D01*
X127355334Y-104671857D01*
X126688667Y-104909952D01*
X124022001Y-104909952D01*
X136355334Y-107290905D02*
X136355334Y-102290905D01*
X139688667Y-107290905D02*
X139688667Y-102290905D01*
D13*
X245173809Y-60777381D02*
X245173809Y-59777381D01*
X245745238Y-60777381D02*
X245316666Y-60205952D01*
X245745238Y-59777381D02*
X245173809Y-60348810D01*
X245935714Y-60872619D02*
X246697619Y-60872619D01*
X246888095Y-60110714D02*
X247602381Y-60110714D01*
X247173809Y-59682143D02*
X246888095Y-60967857D01*
X247507143Y-60539286D02*
X246792857Y-60539286D01*
X247221429Y-60967857D02*
X247507143Y-59682143D01*
X248126190Y-59777381D02*
X248221429Y-59777381D01*
X248316667Y-59825000D01*
X248364286Y-59872619D01*
X248411905Y-59967857D01*
X248459524Y-60158333D01*
X248459524Y-60396429D01*
X248411905Y-60586905D01*
X248364286Y-60682143D01*
X248316667Y-60729762D01*
X248221429Y-60777381D01*
X248126190Y-60777381D01*
X248030952Y-60729762D01*
X247983333Y-60682143D01*
X247935714Y-60586905D01*
X247888095Y-60396429D01*
X247888095Y-60158333D01*
X247935714Y-59967857D01*
X247983333Y-59872619D01*
X248030952Y-59825000D01*
X248126190Y-59777381D01*
X248650000Y-60872619D02*
X249411905Y-60872619D01*
X250173810Y-60777381D02*
X249602381Y-60777381D01*
X249888095Y-60777381D02*
X249888095Y-59777381D01*
X249792857Y-59920238D01*
X249697619Y-60015476D01*
X249602381Y-60063095D01*
X74580952Y-60777381D02*
X74580952Y-59777381D01*
X75152381Y-60777381D02*
X74723809Y-60205952D01*
X75152381Y-59777381D02*
X74580952Y-60348810D01*
X75342857Y-60872619D02*
X76104762Y-60872619D01*
X76295238Y-60110714D02*
X77009524Y-60110714D01*
X76580952Y-59682143D02*
X76295238Y-60967857D01*
X76914286Y-60539286D02*
X76200000Y-60539286D01*
X76628572Y-60967857D02*
X76914286Y-59682143D01*
X77866667Y-60777381D02*
X77295238Y-60777381D01*
X77580952Y-60777381D02*
X77580952Y-59777381D01*
X77485714Y-59920238D01*
X77390476Y-60015476D01*
X77295238Y-60063095D01*
X93630952Y-60777381D02*
X93630952Y-59777381D01*
X94202381Y-60777381D02*
X93773809Y-60205952D01*
X94202381Y-59777381D02*
X93630952Y-60348810D01*
X94392857Y-60872619D02*
X95154762Y-60872619D01*
X95345238Y-60110714D02*
X96059524Y-60110714D01*
X95630952Y-59682143D02*
X95345238Y-60967857D01*
X95964286Y-60539286D02*
X95250000Y-60539286D01*
X95678572Y-60967857D02*
X95964286Y-59682143D01*
X96345238Y-59872619D02*
X96392857Y-59825000D01*
X96488095Y-59777381D01*
X96726191Y-59777381D01*
X96821429Y-59825000D01*
X96869048Y-59872619D01*
X96916667Y-59967857D01*
X96916667Y-60063095D01*
X96869048Y-60205952D01*
X96297619Y-60777381D01*
X96916667Y-60777381D01*
X112680952Y-60777381D02*
X112680952Y-59777381D01*
X113252381Y-60777381D02*
X112823809Y-60205952D01*
X113252381Y-59777381D02*
X112680952Y-60348810D01*
X113442857Y-60872619D02*
X114204762Y-60872619D01*
X114395238Y-60110714D02*
X115109524Y-60110714D01*
X114680952Y-59682143D02*
X114395238Y-60967857D01*
X115014286Y-60539286D02*
X114300000Y-60539286D01*
X114728572Y-60967857D02*
X115014286Y-59682143D01*
X115347619Y-59777381D02*
X115966667Y-59777381D01*
X115633333Y-60158333D01*
X115776191Y-60158333D01*
X115871429Y-60205952D01*
X115919048Y-60253571D01*
X115966667Y-60348810D01*
X115966667Y-60586905D01*
X115919048Y-60682143D01*
X115871429Y-60729762D01*
X115776191Y-60777381D01*
X115490476Y-60777381D01*
X115395238Y-60729762D01*
X115347619Y-60682143D01*
X131730952Y-60777381D02*
X131730952Y-59777381D01*
X132302381Y-60777381D02*
X131873809Y-60205952D01*
X132302381Y-59777381D02*
X131730952Y-60348810D01*
X132492857Y-60872619D02*
X133254762Y-60872619D01*
X133445238Y-60110714D02*
X134159524Y-60110714D01*
X133730952Y-59682143D02*
X133445238Y-60967857D01*
X134064286Y-60539286D02*
X133350000Y-60539286D01*
X133778572Y-60967857D02*
X134064286Y-59682143D01*
X134921429Y-60110714D02*
X134921429Y-60777381D01*
X134683333Y-59729762D02*
X134445238Y-60444048D01*
X135064286Y-60444048D01*
X150780952Y-60777381D02*
X150780952Y-59777381D01*
X151352381Y-60777381D02*
X150923809Y-60205952D01*
X151352381Y-59777381D02*
X150780952Y-60348810D01*
X151542857Y-60872619D02*
X152304762Y-60872619D01*
X152495238Y-60110714D02*
X153209524Y-60110714D01*
X152780952Y-59682143D02*
X152495238Y-60967857D01*
X153114286Y-60539286D02*
X152400000Y-60539286D01*
X152828572Y-60967857D02*
X153114286Y-59682143D01*
X154019048Y-59777381D02*
X153542857Y-59777381D01*
X153495238Y-60253571D01*
X153542857Y-60205952D01*
X153638095Y-60158333D01*
X153876191Y-60158333D01*
X153971429Y-60205952D01*
X154019048Y-60253571D01*
X154066667Y-60348810D01*
X154066667Y-60586905D01*
X154019048Y-60682143D01*
X153971429Y-60729762D01*
X153876191Y-60777381D01*
X153638095Y-60777381D01*
X153542857Y-60729762D01*
X153495238Y-60682143D01*
X169830952Y-60777381D02*
X169830952Y-59777381D01*
X170402381Y-60777381D02*
X169973809Y-60205952D01*
X170402381Y-59777381D02*
X169830952Y-60348810D01*
X170592857Y-60872619D02*
X171354762Y-60872619D01*
X171545238Y-60110714D02*
X172259524Y-60110714D01*
X171830952Y-59682143D02*
X171545238Y-60967857D01*
X172164286Y-60539286D02*
X171450000Y-60539286D01*
X171878572Y-60967857D02*
X172164286Y-59682143D01*
X173021429Y-59777381D02*
X172830952Y-59777381D01*
X172735714Y-59825000D01*
X172688095Y-59872619D01*
X172592857Y-60015476D01*
X172545238Y-60205952D01*
X172545238Y-60586905D01*
X172592857Y-60682143D01*
X172640476Y-60729762D01*
X172735714Y-60777381D01*
X172926191Y-60777381D01*
X173021429Y-60729762D01*
X173069048Y-60682143D01*
X173116667Y-60586905D01*
X173116667Y-60348810D01*
X173069048Y-60253571D01*
X173021429Y-60205952D01*
X172926191Y-60158333D01*
X172735714Y-60158333D01*
X172640476Y-60205952D01*
X172592857Y-60253571D01*
X172545238Y-60348810D01*
X188880952Y-60777381D02*
X188880952Y-59777381D01*
X189452381Y-60777381D02*
X189023809Y-60205952D01*
X189452381Y-59777381D02*
X188880952Y-60348810D01*
X189642857Y-60872619D02*
X190404762Y-60872619D01*
X190595238Y-60110714D02*
X191309524Y-60110714D01*
X190880952Y-59682143D02*
X190595238Y-60967857D01*
X191214286Y-60539286D02*
X190500000Y-60539286D01*
X190928572Y-60967857D02*
X191214286Y-59682143D01*
X191547619Y-59777381D02*
X192214286Y-59777381D01*
X191785714Y-60777381D01*
X207930952Y-60777381D02*
X207930952Y-59777381D01*
X208502381Y-60777381D02*
X208073809Y-60205952D01*
X208502381Y-59777381D02*
X207930952Y-60348810D01*
X208692857Y-60872619D02*
X209454762Y-60872619D01*
X209645238Y-60110714D02*
X210359524Y-60110714D01*
X209930952Y-59682143D02*
X209645238Y-60967857D01*
X210264286Y-60539286D02*
X209550000Y-60539286D01*
X209978572Y-60967857D02*
X210264286Y-59682143D01*
X210835714Y-60205952D02*
X210740476Y-60158333D01*
X210692857Y-60110714D01*
X210645238Y-60015476D01*
X210645238Y-59967857D01*
X210692857Y-59872619D01*
X210740476Y-59825000D01*
X210835714Y-59777381D01*
X211026191Y-59777381D01*
X211121429Y-59825000D01*
X211169048Y-59872619D01*
X211216667Y-59967857D01*
X211216667Y-60015476D01*
X211169048Y-60110714D01*
X211121429Y-60158333D01*
X211026191Y-60205952D01*
X210835714Y-60205952D01*
X210740476Y-60253571D01*
X210692857Y-60301190D01*
X210645238Y-60396429D01*
X210645238Y-60586905D01*
X210692857Y-60682143D01*
X210740476Y-60729762D01*
X210835714Y-60777381D01*
X211026191Y-60777381D01*
X211121429Y-60729762D01*
X211169048Y-60682143D01*
X211216667Y-60586905D01*
X211216667Y-60396429D01*
X211169048Y-60301190D01*
X211121429Y-60253571D01*
X211026191Y-60205952D01*
X226980952Y-60777381D02*
X226980952Y-59777381D01*
X227552381Y-60777381D02*
X227123809Y-60205952D01*
X227552381Y-59777381D02*
X226980952Y-60348810D01*
X227742857Y-60872619D02*
X228504762Y-60872619D01*
X228695238Y-60110714D02*
X229409524Y-60110714D01*
X228980952Y-59682143D02*
X228695238Y-60967857D01*
X229314286Y-60539286D02*
X228600000Y-60539286D01*
X229028572Y-60967857D02*
X229314286Y-59682143D01*
X229790476Y-60777381D02*
X229980952Y-60777381D01*
X230076191Y-60729762D01*
X230123810Y-60682143D01*
X230219048Y-60539286D01*
X230266667Y-60348810D01*
X230266667Y-59967857D01*
X230219048Y-59872619D01*
X230171429Y-59825000D01*
X230076191Y-59777381D01*
X229885714Y-59777381D01*
X229790476Y-59825000D01*
X229742857Y-59872619D01*
X229695238Y-59967857D01*
X229695238Y-60205952D01*
X229742857Y-60301190D01*
X229790476Y-60348810D01*
X229885714Y-60396429D01*
X230076191Y-60396429D01*
X230171429Y-60348810D01*
X230219048Y-60301190D01*
X230266667Y-60205952D01*
X279630357Y-98877381D02*
X279630357Y-97877381D01*
X280201786Y-98877381D02*
X279773214Y-98305952D01*
X280201786Y-97877381D02*
X279630357Y-98448810D01*
X280392262Y-98972619D02*
X281154167Y-98972619D01*
X281439881Y-97877381D02*
X281344643Y-98067857D01*
X282392262Y-98877381D02*
X281820833Y-98877381D01*
X282106547Y-98877381D02*
X282106547Y-97877381D01*
X282011309Y-98020238D01*
X281916071Y-98115476D01*
X281820833Y-98163095D01*
X232005357Y-117927381D02*
X232005357Y-116927381D01*
X232576786Y-117927381D02*
X232148214Y-117355952D01*
X232576786Y-116927381D02*
X232005357Y-117498810D01*
X232767262Y-118022619D02*
X233529167Y-118022619D01*
X233814881Y-117879762D02*
X233814881Y-117927381D01*
X233767262Y-118022619D01*
X233719643Y-118070238D01*
X234767262Y-117927381D02*
X234195833Y-117927381D01*
X234481547Y-117927381D02*
X234481547Y-116927381D01*
X234386309Y-117070238D01*
X234291071Y-117165476D01*
X234195833Y-117213095D01*
X264961905Y-60777381D02*
X264961905Y-59777381D01*
X265533334Y-60777381D02*
X265104762Y-60205952D01*
X265533334Y-59777381D02*
X264961905Y-60348810D01*
X265723810Y-60872619D02*
X266485715Y-60872619D01*
X266723810Y-60396429D02*
X267485715Y-60396429D01*
X268485715Y-60777381D02*
X267914286Y-60777381D01*
X268200000Y-60777381D02*
X268200000Y-59777381D01*
X268104762Y-59920238D01*
X268009524Y-60015476D01*
X267914286Y-60063095D01*
X251055357Y-117927381D02*
X251055357Y-116927381D01*
X251626786Y-117927381D02*
X251198214Y-117355952D01*
X251626786Y-116927381D02*
X251055357Y-117498810D01*
X251817262Y-118022619D02*
X252579167Y-118022619D01*
X252817262Y-117832143D02*
X252864881Y-117879762D01*
X252817262Y-117927381D01*
X252769643Y-117879762D01*
X252817262Y-117832143D01*
X252817262Y-117927381D01*
X253817262Y-117927381D02*
X253245833Y-117927381D01*
X253531547Y-117927381D02*
X253531547Y-116927381D01*
X253436309Y-117070238D01*
X253341071Y-117165476D01*
X253245833Y-117213095D01*
X260580357Y-98877381D02*
X260580357Y-97877381D01*
X261151786Y-98877381D02*
X260723214Y-98305952D01*
X261151786Y-97877381D02*
X260580357Y-98448810D01*
X261342262Y-98972619D02*
X262104167Y-98972619D01*
X262389881Y-98829762D02*
X262389881Y-98877381D01*
X262342262Y-98972619D01*
X262294643Y-99020238D01*
X262342262Y-98258333D02*
X262389881Y-98305952D01*
X262342262Y-98353571D01*
X262294643Y-98305952D01*
X262342262Y-98258333D01*
X262342262Y-98353571D01*
X263342262Y-98877381D02*
X262770833Y-98877381D01*
X263056547Y-98877381D02*
X263056547Y-97877381D01*
X262961309Y-98020238D01*
X262866071Y-98115476D01*
X262770833Y-98163095D01*
X284011905Y-60777381D02*
X284011905Y-59777381D01*
X284583334Y-60777381D02*
X284154762Y-60205952D01*
X284583334Y-59777381D02*
X284011905Y-60348810D01*
X284773810Y-60872619D02*
X285535715Y-60872619D01*
X285773810Y-60253571D02*
X286535715Y-60253571D01*
X286535715Y-60539286D02*
X285773810Y-60539286D01*
X287535715Y-60777381D02*
X286964286Y-60777381D01*
X287250000Y-60777381D02*
X287250000Y-59777381D01*
X287154762Y-59920238D01*
X287059524Y-60015476D01*
X286964286Y-60063095D01*
X88939881Y-98877381D02*
X88939881Y-97877381D01*
X89511310Y-98877381D02*
X89082738Y-98305952D01*
X89511310Y-97877381D02*
X88939881Y-98448810D01*
X89701786Y-98972619D02*
X90463691Y-98972619D01*
X90654167Y-98591667D02*
X91130358Y-98591667D01*
X90558929Y-98877381D02*
X90892262Y-97877381D01*
X91225596Y-98877381D01*
X92082739Y-98877381D02*
X91511310Y-98877381D01*
X91797024Y-98877381D02*
X91797024Y-97877381D01*
X91701786Y-98020238D01*
X91606548Y-98115476D01*
X91511310Y-98163095D01*
X174593452Y-117927381D02*
X174593452Y-116927381D01*
X175164881Y-117927381D02*
X174736309Y-117355952D01*
X175164881Y-116927381D02*
X174593452Y-117498810D01*
X175355357Y-118022619D02*
X176117262Y-118022619D01*
X176688691Y-117403571D02*
X176831548Y-117451190D01*
X176879167Y-117498810D01*
X176926786Y-117594048D01*
X176926786Y-117736905D01*
X176879167Y-117832143D01*
X176831548Y-117879762D01*
X176736310Y-117927381D01*
X176355357Y-117927381D01*
X176355357Y-116927381D01*
X176688691Y-116927381D01*
X176783929Y-116975000D01*
X176831548Y-117022619D01*
X176879167Y-117117857D01*
X176879167Y-117213095D01*
X176831548Y-117308333D01*
X176783929Y-117355952D01*
X176688691Y-117403571D01*
X176355357Y-117403571D01*
X177879167Y-117927381D02*
X177307738Y-117927381D01*
X177593452Y-117927381D02*
X177593452Y-116927381D01*
X177498214Y-117070238D01*
X177402976Y-117165476D01*
X177307738Y-117213095D01*
X320802381Y-60777381D02*
X320802381Y-59777381D01*
X321373810Y-60777381D02*
X320945238Y-60205952D01*
X321373810Y-59777381D02*
X320802381Y-60348810D01*
X321564286Y-60872619D02*
X322326191Y-60872619D01*
X322897620Y-60253571D02*
X323040477Y-60301190D01*
X323088096Y-60348810D01*
X323135715Y-60444048D01*
X323135715Y-60586905D01*
X323088096Y-60682143D01*
X323040477Y-60729762D01*
X322945239Y-60777381D01*
X322564286Y-60777381D01*
X322564286Y-59777381D01*
X322897620Y-59777381D01*
X322992858Y-59825000D01*
X323040477Y-59872619D01*
X323088096Y-59967857D01*
X323088096Y-60063095D01*
X323040477Y-60158333D01*
X322992858Y-60205952D01*
X322897620Y-60253571D01*
X322564286Y-60253571D01*
X323516667Y-60491667D02*
X323992858Y-60491667D01*
X323421429Y-60777381D02*
X323754762Y-59777381D01*
X324088096Y-60777381D01*
X324992858Y-60682143D02*
X324945239Y-60729762D01*
X324802382Y-60777381D01*
X324707144Y-60777381D01*
X324564286Y-60729762D01*
X324469048Y-60634524D01*
X324421429Y-60539286D01*
X324373810Y-60348810D01*
X324373810Y-60205952D01*
X324421429Y-60015476D01*
X324469048Y-59920238D01*
X324564286Y-59825000D01*
X324707144Y-59777381D01*
X324802382Y-59777381D01*
X324945239Y-59825000D01*
X324992858Y-59872619D01*
X325421429Y-60777381D02*
X325421429Y-59777381D01*
X325992858Y-60777381D02*
X325564286Y-60205952D01*
X325992858Y-59777381D02*
X325421429Y-60348810D01*
X326373810Y-59872619D02*
X326421429Y-59825000D01*
X326516667Y-59777381D01*
X326754763Y-59777381D01*
X326850001Y-59825000D01*
X326897620Y-59872619D01*
X326945239Y-59967857D01*
X326945239Y-60063095D01*
X326897620Y-60205952D01*
X326326191Y-60777381D01*
X326945239Y-60777381D01*
X136493452Y-117927381D02*
X136493452Y-116927381D01*
X137064881Y-117927381D02*
X136636309Y-117355952D01*
X137064881Y-116927381D02*
X136493452Y-117498810D01*
X137255357Y-118022619D02*
X138017262Y-118022619D01*
X138826786Y-117832143D02*
X138779167Y-117879762D01*
X138636310Y-117927381D01*
X138541072Y-117927381D01*
X138398214Y-117879762D01*
X138302976Y-117784524D01*
X138255357Y-117689286D01*
X138207738Y-117498810D01*
X138207738Y-117355952D01*
X138255357Y-117165476D01*
X138302976Y-117070238D01*
X138398214Y-116975000D01*
X138541072Y-116927381D01*
X138636310Y-116927381D01*
X138779167Y-116975000D01*
X138826786Y-117022619D01*
X139779167Y-117927381D02*
X139207738Y-117927381D01*
X139493452Y-117927381D02*
X139493452Y-116927381D01*
X139398214Y-117070238D01*
X139302976Y-117165476D01*
X139207738Y-117213095D01*
X62762190Y-98877381D02*
X62762190Y-97877381D01*
X63333619Y-98877381D02*
X62905047Y-98305952D01*
X63333619Y-97877381D02*
X62762190Y-98448810D01*
X63524095Y-98972619D02*
X64286000Y-98972619D01*
X65095524Y-98782143D02*
X65047905Y-98829762D01*
X64905048Y-98877381D01*
X64809810Y-98877381D01*
X64666952Y-98829762D01*
X64571714Y-98734524D01*
X64524095Y-98639286D01*
X64476476Y-98448810D01*
X64476476Y-98305952D01*
X64524095Y-98115476D01*
X64571714Y-98020238D01*
X64666952Y-97925000D01*
X64809810Y-97877381D01*
X64905048Y-97877381D01*
X65047905Y-97925000D01*
X65095524Y-97972619D01*
X65476476Y-98591667D02*
X65952667Y-98591667D01*
X65381238Y-98877381D02*
X65714571Y-97877381D01*
X66047905Y-98877381D01*
X66381238Y-98877381D02*
X66381238Y-97877381D01*
X66762191Y-97877381D01*
X66857429Y-97925000D01*
X66905048Y-97972619D01*
X66952667Y-98067857D01*
X66952667Y-98210714D01*
X66905048Y-98305952D01*
X66857429Y-98353571D01*
X66762191Y-98401190D01*
X66381238Y-98401190D01*
X67333619Y-98829762D02*
X67476476Y-98877381D01*
X67714572Y-98877381D01*
X67809810Y-98829762D01*
X67857429Y-98782143D01*
X67905048Y-98686905D01*
X67905048Y-98591667D01*
X67857429Y-98496429D01*
X67809810Y-98448810D01*
X67714572Y-98401190D01*
X67524095Y-98353571D01*
X67428857Y-98305952D01*
X67381238Y-98258333D01*
X67333619Y-98163095D01*
X67333619Y-98067857D01*
X67381238Y-97972619D01*
X67428857Y-97925000D01*
X67524095Y-97877381D01*
X67762191Y-97877381D01*
X67905048Y-97925000D01*
X68857429Y-98877381D02*
X68286000Y-98877381D01*
X68571714Y-98877381D02*
X68571714Y-97877381D01*
X68476476Y-98020238D01*
X68381238Y-98115476D01*
X68286000Y-98163095D01*
X55015190Y-98877381D02*
X55015190Y-97877381D01*
X55586619Y-98877381D02*
X55158047Y-98305952D01*
X55586619Y-97877381D02*
X55015190Y-98448810D01*
X55777095Y-98972619D02*
X56539000Y-98972619D01*
X57348524Y-98782143D02*
X57300905Y-98829762D01*
X57158048Y-98877381D01*
X57062810Y-98877381D01*
X56919952Y-98829762D01*
X56824714Y-98734524D01*
X56777095Y-98639286D01*
X56729476Y-98448810D01*
X56729476Y-98305952D01*
X56777095Y-98115476D01*
X56824714Y-98020238D01*
X56919952Y-97925000D01*
X57062810Y-97877381D01*
X57158048Y-97877381D01*
X57300905Y-97925000D01*
X57348524Y-97972619D01*
X57729476Y-98591667D02*
X58205667Y-98591667D01*
X57634238Y-98877381D02*
X57967571Y-97877381D01*
X58300905Y-98877381D01*
X58634238Y-98877381D02*
X58634238Y-97877381D01*
X59015191Y-97877381D01*
X59110429Y-97925000D01*
X59158048Y-97972619D01*
X59205667Y-98067857D01*
X59205667Y-98210714D01*
X59158048Y-98305952D01*
X59110429Y-98353571D01*
X59015191Y-98401190D01*
X58634238Y-98401190D01*
X59586619Y-98829762D02*
X59729476Y-98877381D01*
X59967572Y-98877381D01*
X60062810Y-98829762D01*
X60110429Y-98782143D01*
X60158048Y-98686905D01*
X60158048Y-98591667D01*
X60110429Y-98496429D01*
X60062810Y-98448810D01*
X59967572Y-98401190D01*
X59777095Y-98353571D01*
X59681857Y-98305952D01*
X59634238Y-98258333D01*
X59586619Y-98163095D01*
X59586619Y-98067857D01*
X59634238Y-97972619D01*
X59681857Y-97925000D01*
X59777095Y-97877381D01*
X60015191Y-97877381D01*
X60158048Y-97925000D01*
X60539000Y-97972619D02*
X60586619Y-97925000D01*
X60681857Y-97877381D01*
X60919953Y-97877381D01*
X61015191Y-97925000D01*
X61062810Y-97972619D01*
X61110429Y-98067857D01*
X61110429Y-98163095D01*
X61062810Y-98305952D01*
X60491381Y-98877381D01*
X61110429Y-98877381D01*
X126968452Y-98877381D02*
X126968452Y-97877381D01*
X127539881Y-98877381D02*
X127111309Y-98305952D01*
X127539881Y-97877381D02*
X126968452Y-98448810D01*
X127730357Y-98972619D02*
X128492262Y-98972619D01*
X128730357Y-98877381D02*
X128730357Y-97877381D01*
X128968452Y-97877381D01*
X129111310Y-97925000D01*
X129206548Y-98020238D01*
X129254167Y-98115476D01*
X129301786Y-98305952D01*
X129301786Y-98448810D01*
X129254167Y-98639286D01*
X129206548Y-98734524D01*
X129111310Y-98829762D01*
X128968452Y-98877381D01*
X128730357Y-98877381D01*
X130254167Y-98877381D02*
X129682738Y-98877381D01*
X129968452Y-98877381D02*
X129968452Y-97877381D01*
X129873214Y-98020238D01*
X129777976Y-98115476D01*
X129682738Y-98163095D01*
X302323809Y-60777381D02*
X302323809Y-59777381D01*
X302895238Y-60777381D02*
X302466666Y-60205952D01*
X302895238Y-59777381D02*
X302323809Y-60348810D01*
X303085714Y-60872619D02*
X303847619Y-60872619D01*
X304085714Y-60777381D02*
X304085714Y-59777381D01*
X304323809Y-59777381D01*
X304466667Y-59825000D01*
X304561905Y-59920238D01*
X304609524Y-60015476D01*
X304657143Y-60205952D01*
X304657143Y-60348810D01*
X304609524Y-60539286D01*
X304561905Y-60634524D01*
X304466667Y-60729762D01*
X304323809Y-60777381D01*
X304085714Y-60777381D01*
X305085714Y-60253571D02*
X305419048Y-60253571D01*
X305561905Y-60777381D02*
X305085714Y-60777381D01*
X305085714Y-59777381D01*
X305561905Y-59777381D01*
X306466667Y-60777381D02*
X305990476Y-60777381D01*
X305990476Y-59777381D01*
X307323810Y-60777381D02*
X306752381Y-60777381D01*
X307038095Y-60777381D02*
X307038095Y-59777381D01*
X306942857Y-59920238D01*
X306847619Y-60015476D01*
X306752381Y-60063095D01*
X122253571Y-79827381D02*
X122253571Y-78827381D01*
X122825000Y-79827381D02*
X122396428Y-79255952D01*
X122825000Y-78827381D02*
X122253571Y-79398810D01*
X123015476Y-79922619D02*
X123777381Y-79922619D01*
X124015476Y-79303571D02*
X124348810Y-79303571D01*
X124491667Y-79827381D02*
X124015476Y-79827381D01*
X124015476Y-78827381D01*
X124491667Y-78827381D01*
X125444048Y-79827381D02*
X124872619Y-79827381D01*
X125158333Y-79827381D02*
X125158333Y-78827381D01*
X125063095Y-78970238D01*
X124967857Y-79065476D01*
X124872619Y-79113095D01*
X304038428Y-98877381D02*
X304038428Y-97877381D01*
X304609857Y-98877381D02*
X304181285Y-98305952D01*
X304609857Y-97877381D02*
X304038428Y-98448810D01*
X304800333Y-98972619D02*
X305562238Y-98972619D01*
X305800333Y-98353571D02*
X306133667Y-98353571D01*
X306276524Y-98877381D02*
X305800333Y-98877381D01*
X305800333Y-97877381D01*
X306276524Y-97877381D01*
X306705095Y-98877381D02*
X306705095Y-97877381D01*
X307276524Y-98877381D01*
X307276524Y-97877381D01*
X307609857Y-97877381D02*
X308181286Y-97877381D01*
X307895571Y-98877381D02*
X307895571Y-97877381D01*
X308514619Y-98353571D02*
X308847953Y-98353571D01*
X308990810Y-98877381D02*
X308514619Y-98877381D01*
X308514619Y-97877381D01*
X308990810Y-97877381D01*
X309990810Y-98877381D02*
X309657476Y-98401190D01*
X309419381Y-98877381D02*
X309419381Y-97877381D01*
X309800334Y-97877381D01*
X309895572Y-97925000D01*
X309943191Y-97972619D01*
X309990810Y-98067857D01*
X309990810Y-98210714D01*
X309943191Y-98305952D01*
X309895572Y-98353571D01*
X309800334Y-98401190D01*
X309419381Y-98401190D01*
X310943191Y-98877381D02*
X310371762Y-98877381D01*
X310657476Y-98877381D02*
X310657476Y-97877381D01*
X310562238Y-98020238D01*
X310467000Y-98115476D01*
X310371762Y-98163095D01*
X318008428Y-93162381D02*
X318008428Y-92162381D01*
X318579857Y-93162381D02*
X318151285Y-92590952D01*
X318579857Y-92162381D02*
X318008428Y-92733810D01*
X318770333Y-93257619D02*
X319532238Y-93257619D01*
X319770333Y-92638571D02*
X320103667Y-92638571D01*
X320246524Y-93162381D02*
X319770333Y-93162381D01*
X319770333Y-92162381D01*
X320246524Y-92162381D01*
X320675095Y-93162381D02*
X320675095Y-92162381D01*
X321246524Y-93162381D01*
X321246524Y-92162381D01*
X321579857Y-92162381D02*
X322151286Y-92162381D01*
X321865571Y-93162381D02*
X321865571Y-92162381D01*
X322484619Y-92638571D02*
X322817953Y-92638571D01*
X322960810Y-93162381D02*
X322484619Y-93162381D01*
X322484619Y-92162381D01*
X322960810Y-92162381D01*
X323960810Y-93162381D02*
X323627476Y-92686190D01*
X323389381Y-93162381D02*
X323389381Y-92162381D01*
X323770334Y-92162381D01*
X323865572Y-92210000D01*
X323913191Y-92257619D01*
X323960810Y-92352857D01*
X323960810Y-92495714D01*
X323913191Y-92590952D01*
X323865572Y-92638571D01*
X323770334Y-92686190D01*
X323389381Y-92686190D01*
X324341762Y-92257619D02*
X324389381Y-92210000D01*
X324484619Y-92162381D01*
X324722715Y-92162381D01*
X324817953Y-92210000D01*
X324865572Y-92257619D01*
X324913191Y-92352857D01*
X324913191Y-92448095D01*
X324865572Y-92590952D01*
X324294143Y-93162381D01*
X324913191Y-93162381D01*
X54602381Y-60777381D02*
X54602381Y-59777381D01*
X55173810Y-60777381D02*
X54745238Y-60205952D01*
X55173810Y-59777381D02*
X54602381Y-60348810D01*
X55364286Y-60872619D02*
X56126191Y-60872619D01*
X56364286Y-60253571D02*
X56697620Y-60253571D01*
X56840477Y-60777381D02*
X56364286Y-60777381D01*
X56364286Y-59777381D01*
X56840477Y-59777381D01*
X57221429Y-60729762D02*
X57364286Y-60777381D01*
X57602382Y-60777381D01*
X57697620Y-60729762D01*
X57745239Y-60682143D01*
X57792858Y-60586905D01*
X57792858Y-60491667D01*
X57745239Y-60396429D01*
X57697620Y-60348810D01*
X57602382Y-60301190D01*
X57411905Y-60253571D01*
X57316667Y-60205952D01*
X57269048Y-60158333D01*
X57221429Y-60063095D01*
X57221429Y-59967857D01*
X57269048Y-59872619D01*
X57316667Y-59825000D01*
X57411905Y-59777381D01*
X57650001Y-59777381D01*
X57792858Y-59825000D01*
X58792858Y-60682143D02*
X58745239Y-60729762D01*
X58602382Y-60777381D01*
X58507144Y-60777381D01*
X58364286Y-60729762D01*
X58269048Y-60634524D01*
X58221429Y-60539286D01*
X58173810Y-60348810D01*
X58173810Y-60205952D01*
X58221429Y-60015476D01*
X58269048Y-59920238D01*
X58364286Y-59825000D01*
X58507144Y-59777381D01*
X58602382Y-59777381D01*
X58745239Y-59825000D01*
X58792858Y-59872619D01*
X59745239Y-60777381D02*
X59173810Y-60777381D01*
X59459524Y-60777381D02*
X59459524Y-59777381D01*
X59364286Y-59920238D01*
X59269048Y-60015476D01*
X59173810Y-60063095D01*
X146089881Y-98877381D02*
X146089881Y-97877381D01*
X146661310Y-98877381D02*
X146232738Y-98305952D01*
X146661310Y-97877381D02*
X146089881Y-98448810D01*
X146851786Y-98972619D02*
X147613691Y-98972619D01*
X148185120Y-98353571D02*
X147851786Y-98353571D01*
X147851786Y-98877381D02*
X147851786Y-97877381D01*
X148327977Y-97877381D01*
X149232739Y-98877381D02*
X148661310Y-98877381D01*
X148947024Y-98877381D02*
X148947024Y-97877381D01*
X148851786Y-98020238D01*
X148756548Y-98115476D01*
X148661310Y-98163095D01*
X165068452Y-98877381D02*
X165068452Y-97877381D01*
X165639881Y-98877381D02*
X165211309Y-98305952D01*
X165639881Y-97877381D02*
X165068452Y-98448810D01*
X165830357Y-98972619D02*
X166592262Y-98972619D01*
X167354167Y-97925000D02*
X167258929Y-97877381D01*
X167116072Y-97877381D01*
X166973214Y-97925000D01*
X166877976Y-98020238D01*
X166830357Y-98115476D01*
X166782738Y-98305952D01*
X166782738Y-98448810D01*
X166830357Y-98639286D01*
X166877976Y-98734524D01*
X166973214Y-98829762D01*
X167116072Y-98877381D01*
X167211310Y-98877381D01*
X167354167Y-98829762D01*
X167401786Y-98782143D01*
X167401786Y-98448810D01*
X167211310Y-98448810D01*
X168354167Y-98877381D02*
X167782738Y-98877381D01*
X168068452Y-98877381D02*
X168068452Y-97877381D01*
X167973214Y-98020238D01*
X167877976Y-98115476D01*
X167782738Y-98163095D01*
X184094643Y-98877381D02*
X184094643Y-97877381D01*
X184666072Y-98877381D02*
X184237500Y-98305952D01*
X184666072Y-97877381D02*
X184094643Y-98448810D01*
X184856548Y-98972619D02*
X185618453Y-98972619D01*
X185856548Y-98877381D02*
X185856548Y-97877381D01*
X185856548Y-98353571D02*
X186427977Y-98353571D01*
X186427977Y-98877381D02*
X186427977Y-97877381D01*
X187427977Y-98877381D02*
X186856548Y-98877381D01*
X187142262Y-98877381D02*
X187142262Y-97877381D01*
X187047024Y-98020238D01*
X186951786Y-98115476D01*
X186856548Y-98163095D01*
X217717857Y-79827381D02*
X217717857Y-78827381D01*
X218289286Y-79827381D02*
X217860714Y-79255952D01*
X218289286Y-78827381D02*
X217717857Y-79398810D01*
X218479762Y-79922619D02*
X219241667Y-79922619D01*
X219479762Y-79827381D02*
X219479762Y-78827381D01*
X220479762Y-79827381D02*
X219908333Y-79827381D01*
X220194047Y-79827381D02*
X220194047Y-78827381D01*
X220098809Y-78970238D01*
X220003571Y-79065476D01*
X219908333Y-79113095D01*
X78272024Y-117927381D02*
X78272024Y-116927381D01*
X78843453Y-117927381D02*
X78414881Y-117355952D01*
X78843453Y-116927381D02*
X78272024Y-117498810D01*
X79033929Y-118022619D02*
X79795834Y-118022619D01*
X80033929Y-117927381D02*
X80033929Y-116927381D01*
X80462500Y-117879762D02*
X80605357Y-117927381D01*
X80843453Y-117927381D01*
X80938691Y-117879762D01*
X80986310Y-117832143D01*
X81033929Y-117736905D01*
X81033929Y-117641667D01*
X80986310Y-117546429D01*
X80938691Y-117498810D01*
X80843453Y-117451190D01*
X80652976Y-117403571D01*
X80557738Y-117355952D01*
X80510119Y-117308333D01*
X80462500Y-117213095D01*
X80462500Y-117117857D01*
X80510119Y-117022619D01*
X80557738Y-116975000D01*
X80652976Y-116927381D01*
X80891072Y-116927381D01*
X81033929Y-116975000D01*
X81652976Y-116927381D02*
X81843453Y-116927381D01*
X81938691Y-116975000D01*
X82033929Y-117070238D01*
X82081548Y-117260714D01*
X82081548Y-117594048D01*
X82033929Y-117784524D01*
X81938691Y-117879762D01*
X81843453Y-117927381D01*
X81652976Y-117927381D01*
X81557738Y-117879762D01*
X81462500Y-117784524D01*
X81414881Y-117594048D01*
X81414881Y-117260714D01*
X81462500Y-117070238D01*
X81557738Y-116975000D01*
X81652976Y-116927381D01*
X82176786Y-116832143D02*
X83033929Y-118117857D01*
X83700596Y-117927381D02*
X83129167Y-117927381D01*
X83414881Y-117927381D02*
X83414881Y-116927381D01*
X83319643Y-117070238D01*
X83224405Y-117165476D01*
X83129167Y-117213095D01*
X297489881Y-98877381D02*
X297489881Y-97877381D01*
X298061310Y-98877381D02*
X297632738Y-98305952D01*
X298061310Y-97877381D02*
X297489881Y-98448810D01*
X298251786Y-98972619D02*
X299013691Y-98972619D01*
X299251786Y-98877381D02*
X299251786Y-97877381D01*
X299680357Y-98829762D02*
X299823214Y-98877381D01*
X300061310Y-98877381D01*
X300156548Y-98829762D01*
X300204167Y-98782143D01*
X300251786Y-98686905D01*
X300251786Y-98591667D01*
X300204167Y-98496429D01*
X300156548Y-98448810D01*
X300061310Y-98401190D01*
X299870833Y-98353571D01*
X299775595Y-98305952D01*
X299727976Y-98258333D01*
X299680357Y-98163095D01*
X299680357Y-98067857D01*
X299727976Y-97972619D01*
X299775595Y-97925000D01*
X299870833Y-97877381D01*
X300108929Y-97877381D01*
X300251786Y-97925000D01*
X300870833Y-97877381D02*
X301061310Y-97877381D01*
X301156548Y-97925000D01*
X301251786Y-98020238D01*
X301299405Y-98210714D01*
X301299405Y-98544048D01*
X301251786Y-98734524D01*
X301156548Y-98829762D01*
X301061310Y-98877381D01*
X300870833Y-98877381D01*
X300775595Y-98829762D01*
X300680357Y-98734524D01*
X300632738Y-98544048D01*
X300632738Y-98210714D01*
X300680357Y-98020238D01*
X300775595Y-97925000D01*
X300870833Y-97877381D01*
X301585119Y-97829762D02*
X301727976Y-97972619D01*
X302632738Y-98877381D02*
X302061309Y-98877381D01*
X302347023Y-98877381D02*
X302347023Y-97877381D01*
X302251785Y-98020238D01*
X302156547Y-98115476D01*
X302061309Y-98163095D01*
X203287500Y-98877381D02*
X203287500Y-97877381D01*
X203858929Y-98877381D02*
X203430357Y-98305952D01*
X203858929Y-97877381D02*
X203287500Y-98448810D01*
X204049405Y-98972619D02*
X204811310Y-98972619D01*
X205335120Y-97877381D02*
X205335120Y-98591667D01*
X205287500Y-98734524D01*
X205192262Y-98829762D01*
X205049405Y-98877381D01*
X204954167Y-98877381D01*
X206335120Y-98877381D02*
X205763691Y-98877381D01*
X206049405Y-98877381D02*
X206049405Y-97877381D01*
X205954167Y-98020238D01*
X205858929Y-98115476D01*
X205763691Y-98163095D01*
X222218452Y-98877381D02*
X222218452Y-97877381D01*
X222789881Y-98877381D02*
X222361309Y-98305952D01*
X222789881Y-97877381D02*
X222218452Y-98448810D01*
X222980357Y-98972619D02*
X223742262Y-98972619D01*
X223980357Y-98877381D02*
X223980357Y-97877381D01*
X224551786Y-98877381D02*
X224123214Y-98305952D01*
X224551786Y-97877381D02*
X223980357Y-98448810D01*
X225504167Y-98877381D02*
X224932738Y-98877381D01*
X225218452Y-98877381D02*
X225218452Y-97877381D01*
X225123214Y-98020238D01*
X225027976Y-98115476D01*
X224932738Y-98163095D01*
X241363690Y-98877381D02*
X241363690Y-97877381D01*
X241935119Y-98877381D02*
X241506547Y-98305952D01*
X241935119Y-97877381D02*
X241363690Y-98448810D01*
X242125595Y-98972619D02*
X242887500Y-98972619D01*
X243601786Y-98877381D02*
X243125595Y-98877381D01*
X243125595Y-97877381D01*
X244458929Y-98877381D02*
X243887500Y-98877381D01*
X244173214Y-98877381D02*
X244173214Y-97877381D01*
X244077976Y-98020238D01*
X243982738Y-98115476D01*
X243887500Y-98163095D01*
X212622024Y-117927381D02*
X212622024Y-116927381D01*
X213193453Y-117927381D02*
X212764881Y-117355952D01*
X213193453Y-116927381D02*
X212622024Y-117498810D01*
X213383929Y-118022619D02*
X214145834Y-118022619D01*
X214383929Y-117927381D02*
X214383929Y-116927381D01*
X214717263Y-117641667D01*
X215050596Y-116927381D01*
X215050596Y-117927381D01*
X216050596Y-117927381D02*
X215479167Y-117927381D01*
X215764881Y-117927381D02*
X215764881Y-116927381D01*
X215669643Y-117070238D01*
X215574405Y-117165476D01*
X215479167Y-117213095D01*
X193619643Y-117927381D02*
X193619643Y-116927381D01*
X194191072Y-117927381D02*
X193762500Y-117355952D01*
X194191072Y-116927381D02*
X193619643Y-117498810D01*
X194381548Y-118022619D02*
X195143453Y-118022619D01*
X195381548Y-117927381D02*
X195381548Y-116927381D01*
X195952977Y-117927381D01*
X195952977Y-116927381D01*
X196952977Y-117927381D02*
X196381548Y-117927381D01*
X196667262Y-117927381D02*
X196667262Y-116927381D01*
X196572024Y-117070238D01*
X196476786Y-117165476D01*
X196381548Y-117213095D01*
X236482143Y-79827381D02*
X236482143Y-78827381D01*
X237053572Y-79827381D02*
X236625000Y-79255952D01*
X237053572Y-78827381D02*
X236482143Y-79398810D01*
X237244048Y-79922619D02*
X238005953Y-79922619D01*
X238434524Y-78827381D02*
X238625001Y-78827381D01*
X238720239Y-78875000D01*
X238815477Y-78970238D01*
X238863096Y-79160714D01*
X238863096Y-79494048D01*
X238815477Y-79684524D01*
X238720239Y-79779762D01*
X238625001Y-79827381D01*
X238434524Y-79827381D01*
X238339286Y-79779762D01*
X238244048Y-79684524D01*
X238196429Y-79494048D01*
X238196429Y-79160714D01*
X238244048Y-78970238D01*
X238339286Y-78875000D01*
X238434524Y-78827381D01*
X239815477Y-79827381D02*
X239244048Y-79827381D01*
X239529762Y-79827381D02*
X239529762Y-78827381D01*
X239434524Y-78970238D01*
X239339286Y-79065476D01*
X239244048Y-79113095D01*
X255555952Y-79827381D02*
X255555952Y-78827381D01*
X256127381Y-79827381D02*
X255698809Y-79255952D01*
X256127381Y-78827381D02*
X255555952Y-79398810D01*
X256317857Y-79922619D02*
X257079762Y-79922619D01*
X257317857Y-79827381D02*
X257317857Y-78827381D01*
X257698810Y-78827381D01*
X257794048Y-78875000D01*
X257841667Y-78922619D01*
X257889286Y-79017857D01*
X257889286Y-79160714D01*
X257841667Y-79255952D01*
X257794048Y-79303571D01*
X257698810Y-79351190D01*
X257317857Y-79351190D01*
X258841667Y-79827381D02*
X258270238Y-79827381D01*
X258555952Y-79827381D02*
X258555952Y-78827381D01*
X258460714Y-78970238D01*
X258365476Y-79065476D01*
X258270238Y-79113095D01*
X84082143Y-79827381D02*
X84082143Y-78827381D01*
X84653572Y-79827381D02*
X84225000Y-79255952D01*
X84653572Y-78827381D02*
X84082143Y-79398810D01*
X84844048Y-79922619D02*
X85605953Y-79922619D01*
X86510715Y-79922619D02*
X86415477Y-79875000D01*
X86320239Y-79779762D01*
X86177382Y-79636905D01*
X86082143Y-79589286D01*
X85986905Y-79589286D01*
X86034524Y-79827381D02*
X85939286Y-79779762D01*
X85844048Y-79684524D01*
X85796429Y-79494048D01*
X85796429Y-79160714D01*
X85844048Y-78970238D01*
X85939286Y-78875000D01*
X86034524Y-78827381D01*
X86225001Y-78827381D01*
X86320239Y-78875000D01*
X86415477Y-78970238D01*
X86463096Y-79160714D01*
X86463096Y-79494048D01*
X86415477Y-79684524D01*
X86320239Y-79779762D01*
X86225001Y-79827381D01*
X86034524Y-79827381D01*
X87415477Y-79827381D02*
X86844048Y-79827381D01*
X87129762Y-79827381D02*
X87129762Y-78827381D01*
X87034524Y-78970238D01*
X86939286Y-79065476D01*
X86844048Y-79113095D01*
X141255952Y-79827381D02*
X141255952Y-78827381D01*
X141827381Y-79827381D02*
X141398809Y-79255952D01*
X141827381Y-78827381D02*
X141255952Y-79398810D01*
X142017857Y-79922619D02*
X142779762Y-79922619D01*
X143589286Y-79827381D02*
X143255952Y-79351190D01*
X143017857Y-79827381D02*
X143017857Y-78827381D01*
X143398810Y-78827381D01*
X143494048Y-78875000D01*
X143541667Y-78922619D01*
X143589286Y-79017857D01*
X143589286Y-79160714D01*
X143541667Y-79255952D01*
X143494048Y-79303571D01*
X143398810Y-79351190D01*
X143017857Y-79351190D01*
X144541667Y-79827381D02*
X143970238Y-79827381D01*
X144255952Y-79827381D02*
X144255952Y-78827381D01*
X144160714Y-78970238D01*
X144065476Y-79065476D01*
X143970238Y-79113095D01*
X107942262Y-98877381D02*
X107942262Y-97877381D01*
X108513691Y-98877381D02*
X108085119Y-98305952D01*
X108513691Y-97877381D02*
X107942262Y-98448810D01*
X108704167Y-98972619D02*
X109466072Y-98972619D01*
X109656548Y-98829762D02*
X109799405Y-98877381D01*
X110037501Y-98877381D01*
X110132739Y-98829762D01*
X110180358Y-98782143D01*
X110227977Y-98686905D01*
X110227977Y-98591667D01*
X110180358Y-98496429D01*
X110132739Y-98448810D01*
X110037501Y-98401190D01*
X109847024Y-98353571D01*
X109751786Y-98305952D01*
X109704167Y-98258333D01*
X109656548Y-98163095D01*
X109656548Y-98067857D01*
X109704167Y-97972619D01*
X109751786Y-97925000D01*
X109847024Y-97877381D01*
X110085120Y-97877381D01*
X110227977Y-97925000D01*
X111180358Y-98877381D02*
X110608929Y-98877381D01*
X110894643Y-98877381D02*
X110894643Y-97877381D01*
X110799405Y-98020238D01*
X110704167Y-98115476D01*
X110608929Y-98163095D01*
X65889583Y-117927381D02*
X65889583Y-116927381D01*
X66461012Y-117927381D02*
X66032440Y-117355952D01*
X66461012Y-116927381D02*
X65889583Y-117498810D01*
X66651488Y-118022619D02*
X67413393Y-118022619D01*
X67603869Y-117879762D02*
X67746726Y-117927381D01*
X67984822Y-117927381D01*
X68080060Y-117879762D01*
X68127679Y-117832143D01*
X68175298Y-117736905D01*
X68175298Y-117641667D01*
X68127679Y-117546429D01*
X68080060Y-117498810D01*
X67984822Y-117451190D01*
X67794345Y-117403571D01*
X67699107Y-117355952D01*
X67651488Y-117308333D01*
X67603869Y-117213095D01*
X67603869Y-117117857D01*
X67651488Y-117022619D01*
X67699107Y-116975000D01*
X67794345Y-116927381D01*
X68032441Y-116927381D01*
X68175298Y-116975000D01*
X68603869Y-117927381D02*
X68603869Y-116927381D01*
X68603869Y-117403571D02*
X69175298Y-117403571D01*
X69175298Y-117927381D02*
X69175298Y-116927381D01*
X69651488Y-117927381D02*
X69651488Y-116927381D01*
X70461012Y-117403571D02*
X70127678Y-117403571D01*
X70127678Y-117927381D02*
X70127678Y-116927381D01*
X70603869Y-116927381D01*
X70841964Y-116927381D02*
X71413393Y-116927381D01*
X71127678Y-117927381D02*
X71127678Y-116927381D01*
X72270536Y-117927381D02*
X71699107Y-117927381D01*
X71984821Y-117927381D02*
X71984821Y-116927381D01*
X71889583Y-117070238D01*
X71794345Y-117165476D01*
X71699107Y-117213095D01*
X56364583Y-117927381D02*
X56364583Y-116927381D01*
X56936012Y-117927381D02*
X56507440Y-117355952D01*
X56936012Y-116927381D02*
X56364583Y-117498810D01*
X57126488Y-118022619D02*
X57888393Y-118022619D01*
X58078869Y-117879762D02*
X58221726Y-117927381D01*
X58459822Y-117927381D01*
X58555060Y-117879762D01*
X58602679Y-117832143D01*
X58650298Y-117736905D01*
X58650298Y-117641667D01*
X58602679Y-117546429D01*
X58555060Y-117498810D01*
X58459822Y-117451190D01*
X58269345Y-117403571D01*
X58174107Y-117355952D01*
X58126488Y-117308333D01*
X58078869Y-117213095D01*
X58078869Y-117117857D01*
X58126488Y-117022619D01*
X58174107Y-116975000D01*
X58269345Y-116927381D01*
X58507441Y-116927381D01*
X58650298Y-116975000D01*
X59078869Y-117927381D02*
X59078869Y-116927381D01*
X59078869Y-117403571D02*
X59650298Y-117403571D01*
X59650298Y-117927381D02*
X59650298Y-116927381D01*
X60126488Y-117927381D02*
X60126488Y-116927381D01*
X60936012Y-117403571D02*
X60602678Y-117403571D01*
X60602678Y-117927381D02*
X60602678Y-116927381D01*
X61078869Y-116927381D01*
X61316964Y-116927381D02*
X61888393Y-116927381D01*
X61602678Y-117927381D02*
X61602678Y-116927381D01*
X62174107Y-117022619D02*
X62221726Y-116975000D01*
X62316964Y-116927381D01*
X62555060Y-116927381D01*
X62650298Y-116975000D01*
X62697917Y-117022619D01*
X62745536Y-117117857D01*
X62745536Y-117213095D01*
X62697917Y-117355952D01*
X62126488Y-117927381D01*
X62745536Y-117927381D01*
X160425000Y-79827381D02*
X160425000Y-78827381D01*
X160996429Y-79827381D02*
X160567857Y-79255952D01*
X160996429Y-78827381D02*
X160425000Y-79398810D01*
X161186905Y-79922619D02*
X161948810Y-79922619D01*
X162044048Y-78827381D02*
X162615477Y-78827381D01*
X162329762Y-79827381D02*
X162329762Y-78827381D01*
X163472620Y-79827381D02*
X162901191Y-79827381D01*
X163186905Y-79827381D02*
X163186905Y-78827381D01*
X163091667Y-78970238D01*
X162996429Y-79065476D01*
X162901191Y-79113095D01*
X59483928Y-79827381D02*
X59483928Y-78827381D01*
X60055357Y-79827381D02*
X59626785Y-79255952D01*
X60055357Y-78827381D02*
X59483928Y-79398810D01*
X60245833Y-79922619D02*
X61007738Y-79922619D01*
X61102976Y-78827381D02*
X61674405Y-78827381D01*
X61388690Y-79827381D02*
X61388690Y-78827381D01*
X61960119Y-79541667D02*
X62436310Y-79541667D01*
X61864881Y-79827381D02*
X62198214Y-78827381D01*
X62531548Y-79827381D01*
X63198215Y-79303571D02*
X63341072Y-79351190D01*
X63388691Y-79398810D01*
X63436310Y-79494048D01*
X63436310Y-79636905D01*
X63388691Y-79732143D01*
X63341072Y-79779762D01*
X63245834Y-79827381D01*
X62864881Y-79827381D01*
X62864881Y-78827381D01*
X63198215Y-78827381D01*
X63293453Y-78875000D01*
X63341072Y-78922619D01*
X63388691Y-79017857D01*
X63388691Y-79113095D01*
X63341072Y-79208333D01*
X63293453Y-79255952D01*
X63198215Y-79303571D01*
X62864881Y-79303571D01*
X64388691Y-79827381D02*
X63817262Y-79827381D01*
X64102976Y-79827381D02*
X64102976Y-78827381D01*
X64007738Y-78970238D01*
X63912500Y-79065476D01*
X63817262Y-79113095D01*
X198382143Y-79827381D02*
X198382143Y-78827381D01*
X198953572Y-79827381D02*
X198525000Y-79255952D01*
X198953572Y-78827381D02*
X198382143Y-79398810D01*
X199144048Y-79922619D02*
X199905953Y-79922619D01*
X200144048Y-78827381D02*
X200144048Y-79636905D01*
X200191667Y-79732143D01*
X200239286Y-79779762D01*
X200334524Y-79827381D01*
X200525001Y-79827381D01*
X200620239Y-79779762D01*
X200667858Y-79732143D01*
X200715477Y-79636905D01*
X200715477Y-78827381D01*
X201715477Y-79827381D02*
X201144048Y-79827381D01*
X201429762Y-79827381D02*
X201429762Y-78827381D01*
X201334524Y-78970238D01*
X201239286Y-79065476D01*
X201144048Y-79113095D01*
X155614881Y-117927381D02*
X155614881Y-116927381D01*
X156186310Y-117927381D02*
X155757738Y-117355952D01*
X156186310Y-116927381D02*
X155614881Y-117498810D01*
X156376786Y-118022619D02*
X157138691Y-118022619D01*
X157233929Y-116927381D02*
X157567262Y-117927381D01*
X157900596Y-116927381D01*
X158757739Y-117927381D02*
X158186310Y-117927381D01*
X158472024Y-117927381D02*
X158472024Y-116927381D01*
X158376786Y-117070238D01*
X158281548Y-117165476D01*
X158186310Y-117213095D01*
X103084524Y-79827381D02*
X103084524Y-78827381D01*
X103655953Y-79827381D02*
X103227381Y-79255952D01*
X103655953Y-78827381D02*
X103084524Y-79398810D01*
X103846429Y-79922619D02*
X104608334Y-79922619D01*
X104751191Y-78827381D02*
X104989286Y-79827381D01*
X105179763Y-79113095D01*
X105370239Y-79827381D01*
X105608334Y-78827381D01*
X106513096Y-79827381D02*
X105941667Y-79827381D01*
X106227381Y-79827381D02*
X106227381Y-78827381D01*
X106132143Y-78970238D01*
X106036905Y-79065476D01*
X105941667Y-79113095D01*
X117467262Y-117927381D02*
X117467262Y-116927381D01*
X118038691Y-117927381D02*
X117610119Y-117355952D01*
X118038691Y-116927381D02*
X117467262Y-117498810D01*
X118229167Y-118022619D02*
X118991072Y-118022619D01*
X119133929Y-116927381D02*
X119800596Y-117927381D01*
X119800596Y-116927381D02*
X119133929Y-117927381D01*
X120705358Y-117927381D02*
X120133929Y-117927381D01*
X120419643Y-117927381D02*
X120419643Y-116927381D01*
X120324405Y-117070238D01*
X120229167Y-117165476D01*
X120133929Y-117213095D01*
X179427381Y-79827381D02*
X179427381Y-78827381D01*
X179998810Y-79827381D02*
X179570238Y-79255952D01*
X179998810Y-78827381D02*
X179427381Y-79398810D01*
X180189286Y-79922619D02*
X180951191Y-79922619D01*
X181379762Y-79351190D02*
X181379762Y-79827381D01*
X181046429Y-78827381D02*
X181379762Y-79351190D01*
X181713096Y-78827381D01*
X182570239Y-79827381D02*
X181998810Y-79827381D01*
X182284524Y-79827381D02*
X182284524Y-78827381D01*
X182189286Y-78970238D01*
X182094048Y-79065476D01*
X181998810Y-79113095D01*
X98417262Y-117927381D02*
X98417262Y-116927381D01*
X98988691Y-117927381D02*
X98560119Y-117355952D01*
X98988691Y-116927381D02*
X98417262Y-117498810D01*
X99179167Y-118022619D02*
X99941072Y-118022619D01*
X100083929Y-116927381D02*
X100750596Y-116927381D01*
X100083929Y-117927381D01*
X100750596Y-117927381D01*
X101655358Y-117927381D02*
X101083929Y-117927381D01*
X101369643Y-117927381D02*
X101369643Y-116927381D01*
X101274405Y-117070238D01*
X101179167Y-117165476D01*
X101083929Y-117213095D01*
X274772619Y-79827381D02*
X274772619Y-78827381D01*
X275344048Y-79827381D02*
X274915476Y-79255952D01*
X275344048Y-78827381D02*
X274772619Y-79398810D01*
X275534524Y-79922619D02*
X276296429Y-79922619D01*
X276820239Y-80160714D02*
X276582143Y-80160714D01*
X276582143Y-78732143D01*
X276820239Y-78732143D01*
X277725001Y-79827381D02*
X277153572Y-79827381D01*
X277439286Y-79827381D02*
X277439286Y-78827381D01*
X277344048Y-78970238D01*
X277248810Y-79065476D01*
X277153572Y-79113095D01*
X317635119Y-79827381D02*
X317635119Y-78827381D01*
X318206548Y-79827381D02*
X317777976Y-79255952D01*
X318206548Y-78827381D02*
X317635119Y-79398810D01*
X318397024Y-79922619D02*
X319158929Y-79922619D01*
X319063691Y-78732143D02*
X319920834Y-80017857D01*
X320587501Y-79827381D02*
X320016072Y-79827381D01*
X320301786Y-79827381D02*
X320301786Y-78827381D01*
X320206548Y-78970238D01*
X320111310Y-79065476D01*
X320016072Y-79113095D01*
X293822619Y-79827381D02*
X293822619Y-78827381D01*
X294394048Y-79827381D02*
X293965476Y-79255952D01*
X294394048Y-78827381D02*
X293822619Y-79398810D01*
X294584524Y-79922619D02*
X295346429Y-79922619D01*
X295489286Y-80160714D02*
X295727381Y-80160714D01*
X295727381Y-78732143D01*
X295489286Y-78732143D01*
X296775001Y-79827381D02*
X296203572Y-79827381D01*
X296489286Y-79827381D02*
X296489286Y-78827381D01*
X296394048Y-78970238D01*
X296298810Y-79065476D01*
X296203572Y-79113095D01*
X57808905Y-136977381D02*
X57332714Y-136977381D01*
X57332714Y-135977381D01*
X58142238Y-136977381D02*
X58142238Y-135977381D01*
X58475572Y-136691667D01*
X58808905Y-135977381D01*
X58808905Y-136977381D01*
X59808905Y-136977381D02*
X59237476Y-136977381D01*
X59523190Y-136977381D02*
X59523190Y-135977381D01*
X59427952Y-136120238D01*
X59332714Y-136215476D01*
X59237476Y-136263095D01*
X62126905Y-136977381D02*
X61650714Y-136977381D01*
X61650714Y-135977381D01*
X62460238Y-136977381D02*
X62460238Y-135977381D01*
X62793572Y-136691667D01*
X63126905Y-135977381D01*
X63126905Y-136977381D01*
X63555476Y-136072619D02*
X63603095Y-136025000D01*
X63698333Y-135977381D01*
X63936429Y-135977381D01*
X64031667Y-136025000D01*
X64079286Y-136072619D01*
X64126905Y-136167857D01*
X64126905Y-136263095D01*
X64079286Y-136405952D01*
X63507857Y-136977381D01*
X64126905Y-136977381D01*
X81430905Y-136977381D02*
X80954714Y-136977381D01*
X80954714Y-135977381D01*
X81764238Y-136977381D02*
X81764238Y-135977381D01*
X82097572Y-136691667D01*
X82430905Y-135977381D01*
X82430905Y-136977381D01*
X82811857Y-135977381D02*
X83430905Y-135977381D01*
X83097571Y-136358333D01*
X83240429Y-136358333D01*
X83335667Y-136405952D01*
X83383286Y-136453571D01*
X83430905Y-136548810D01*
X83430905Y-136786905D01*
X83383286Y-136882143D01*
X83335667Y-136929762D01*
X83240429Y-136977381D01*
X82954714Y-136977381D01*
X82859476Y-136929762D01*
X82811857Y-136882143D01*
X86002905Y-136977381D02*
X85526714Y-136977381D01*
X85526714Y-135977381D01*
X86336238Y-136977381D02*
X86336238Y-135977381D01*
X86669572Y-136691667D01*
X87002905Y-135977381D01*
X87002905Y-136977381D01*
X87907667Y-136310714D02*
X87907667Y-136977381D01*
X87669571Y-135929762D02*
X87431476Y-136644048D01*
X88050524Y-136644048D01*
X105306905Y-136977381D02*
X104830714Y-136977381D01*
X104830714Y-135977381D01*
X105640238Y-136977381D02*
X105640238Y-135977381D01*
X105973572Y-136691667D01*
X106306905Y-135977381D01*
X106306905Y-136977381D01*
X107259286Y-135977381D02*
X106783095Y-135977381D01*
X106735476Y-136453571D01*
X106783095Y-136405952D01*
X106878333Y-136358333D01*
X107116429Y-136358333D01*
X107211667Y-136405952D01*
X107259286Y-136453571D01*
X107306905Y-136548810D01*
X107306905Y-136786905D01*
X107259286Y-136882143D01*
X107211667Y-136929762D01*
X107116429Y-136977381D01*
X106878333Y-136977381D01*
X106783095Y-136929762D01*
X106735476Y-136882143D01*
X109751905Y-136977381D02*
X109275714Y-136977381D01*
X109275714Y-135977381D01*
X110085238Y-136977381D02*
X110085238Y-135977381D01*
X110418572Y-136691667D01*
X110751905Y-135977381D01*
X110751905Y-136977381D01*
X111656667Y-135977381D02*
X111466190Y-135977381D01*
X111370952Y-136025000D01*
X111323333Y-136072619D01*
X111228095Y-136215476D01*
X111180476Y-136405952D01*
X111180476Y-136786905D01*
X111228095Y-136882143D01*
X111275714Y-136929762D01*
X111370952Y-136977381D01*
X111561429Y-136977381D01*
X111656667Y-136929762D01*
X111704286Y-136882143D01*
X111751905Y-136786905D01*
X111751905Y-136548810D01*
X111704286Y-136453571D01*
X111656667Y-136405952D01*
X111561429Y-136358333D01*
X111370952Y-136358333D01*
X111275714Y-136405952D01*
X111228095Y-136453571D01*
X111180476Y-136548810D01*
X246911905Y-136977381D02*
X246578571Y-136501190D01*
X246340476Y-136977381D02*
X246340476Y-135977381D01*
X246721429Y-135977381D01*
X246816667Y-136025000D01*
X246864286Y-136072619D01*
X246911905Y-136167857D01*
X246911905Y-136310714D01*
X246864286Y-136405952D01*
X246816667Y-136453571D01*
X246721429Y-136501190D01*
X246340476Y-136501190D01*
X247340476Y-136977381D02*
X247340476Y-135977381D01*
X247673810Y-136691667D01*
X248007143Y-135977381D01*
X248007143Y-136977381D01*
X249007143Y-136977381D02*
X248435714Y-136977381D01*
X248721428Y-136977381D02*
X248721428Y-135977381D01*
X248626190Y-136120238D01*
X248530952Y-136215476D01*
X248435714Y-136263095D01*
X265961905Y-136977381D02*
X265628571Y-136501190D01*
X265390476Y-136977381D02*
X265390476Y-135977381D01*
X265771429Y-135977381D01*
X265866667Y-136025000D01*
X265914286Y-136072619D01*
X265961905Y-136167857D01*
X265961905Y-136310714D01*
X265914286Y-136405952D01*
X265866667Y-136453571D01*
X265771429Y-136501190D01*
X265390476Y-136501190D01*
X266390476Y-136977381D02*
X266390476Y-135977381D01*
X266723810Y-136691667D01*
X267057143Y-135977381D01*
X267057143Y-136977381D01*
X267485714Y-136072619D02*
X267533333Y-136025000D01*
X267628571Y-135977381D01*
X267866667Y-135977381D01*
X267961905Y-136025000D01*
X268009524Y-136072619D01*
X268057143Y-136167857D01*
X268057143Y-136263095D01*
X268009524Y-136405952D01*
X267438095Y-136977381D01*
X268057143Y-136977381D01*
X270724405Y-136977381D02*
X270391071Y-136501190D01*
X270152976Y-136977381D02*
X270152976Y-135977381D01*
X270533929Y-135977381D01*
X270629167Y-136025000D01*
X270676786Y-136072619D01*
X270724405Y-136167857D01*
X270724405Y-136310714D01*
X270676786Y-136405952D01*
X270629167Y-136453571D01*
X270533929Y-136501190D01*
X270152976Y-136501190D01*
X271152976Y-136977381D02*
X271152976Y-135977381D01*
X271486310Y-136691667D01*
X271819643Y-135977381D01*
X271819643Y-136977381D01*
X272200595Y-135977381D02*
X272819643Y-135977381D01*
X272486309Y-136358333D01*
X272629167Y-136358333D01*
X272724405Y-136405952D01*
X272772024Y-136453571D01*
X272819643Y-136548810D01*
X272819643Y-136786905D01*
X272772024Y-136882143D01*
X272724405Y-136929762D01*
X272629167Y-136977381D01*
X272343452Y-136977381D01*
X272248214Y-136929762D01*
X272200595Y-136882143D01*
X285011905Y-136977381D02*
X284678571Y-136501190D01*
X284440476Y-136977381D02*
X284440476Y-135977381D01*
X284821429Y-135977381D01*
X284916667Y-136025000D01*
X284964286Y-136072619D01*
X285011905Y-136167857D01*
X285011905Y-136310714D01*
X284964286Y-136405952D01*
X284916667Y-136453571D01*
X284821429Y-136501190D01*
X284440476Y-136501190D01*
X285440476Y-136977381D02*
X285440476Y-135977381D01*
X285773810Y-136691667D01*
X286107143Y-135977381D01*
X286107143Y-136977381D01*
X287011905Y-136310714D02*
X287011905Y-136977381D01*
X286773809Y-135929762D02*
X286535714Y-136644048D01*
X287154762Y-136644048D01*
X294536905Y-136977381D02*
X294203571Y-136501190D01*
X293965476Y-136977381D02*
X293965476Y-135977381D01*
X294346429Y-135977381D01*
X294441667Y-136025000D01*
X294489286Y-136072619D01*
X294536905Y-136167857D01*
X294536905Y-136310714D01*
X294489286Y-136405952D01*
X294441667Y-136453571D01*
X294346429Y-136501190D01*
X293965476Y-136501190D01*
X294965476Y-136977381D02*
X294965476Y-135977381D01*
X295298810Y-136691667D01*
X295632143Y-135977381D01*
X295632143Y-136977381D01*
X296584524Y-135977381D02*
X296108333Y-135977381D01*
X296060714Y-136453571D01*
X296108333Y-136405952D01*
X296203571Y-136358333D01*
X296441667Y-136358333D01*
X296536905Y-136405952D01*
X296584524Y-136453571D01*
X296632143Y-136548810D01*
X296632143Y-136786905D01*
X296584524Y-136882143D01*
X296536905Y-136929762D01*
X296441667Y-136977381D01*
X296203571Y-136977381D01*
X296108333Y-136929762D01*
X296060714Y-136882143D01*
X304061905Y-136977381D02*
X303728571Y-136501190D01*
X303490476Y-136977381D02*
X303490476Y-135977381D01*
X303871429Y-135977381D01*
X303966667Y-136025000D01*
X304014286Y-136072619D01*
X304061905Y-136167857D01*
X304061905Y-136310714D01*
X304014286Y-136405952D01*
X303966667Y-136453571D01*
X303871429Y-136501190D01*
X303490476Y-136501190D01*
X304490476Y-136977381D02*
X304490476Y-135977381D01*
X304823810Y-136691667D01*
X305157143Y-135977381D01*
X305157143Y-136977381D01*
X306061905Y-135977381D02*
X305871428Y-135977381D01*
X305776190Y-136025000D01*
X305728571Y-136072619D01*
X305633333Y-136215476D01*
X305585714Y-136405952D01*
X305585714Y-136786905D01*
X305633333Y-136882143D01*
X305680952Y-136929762D01*
X305776190Y-136977381D01*
X305966667Y-136977381D01*
X306061905Y-136929762D01*
X306109524Y-136882143D01*
X306157143Y-136786905D01*
X306157143Y-136548810D01*
X306109524Y-136453571D01*
X306061905Y-136405952D01*
X305966667Y-136358333D01*
X305776190Y-136358333D01*
X305680952Y-136405952D01*
X305633333Y-136453571D01*
X305585714Y-136548810D01*
X318349405Y-136977381D02*
X318016071Y-136501190D01*
X317777976Y-136977381D02*
X317777976Y-135977381D01*
X318158929Y-135977381D01*
X318254167Y-136025000D01*
X318301786Y-136072619D01*
X318349405Y-136167857D01*
X318349405Y-136310714D01*
X318301786Y-136405952D01*
X318254167Y-136453571D01*
X318158929Y-136501190D01*
X317777976Y-136501190D01*
X318777976Y-136977381D02*
X318777976Y-135977381D01*
X319111310Y-136691667D01*
X319444643Y-135977381D01*
X319444643Y-136977381D01*
X319825595Y-135977381D02*
X320492262Y-135977381D01*
X320063690Y-136977381D01*
X323111905Y-136977381D02*
X322778571Y-136501190D01*
X322540476Y-136977381D02*
X322540476Y-135977381D01*
X322921429Y-135977381D01*
X323016667Y-136025000D01*
X323064286Y-136072619D01*
X323111905Y-136167857D01*
X323111905Y-136310714D01*
X323064286Y-136405952D01*
X323016667Y-136453571D01*
X322921429Y-136501190D01*
X322540476Y-136501190D01*
X323540476Y-136977381D02*
X323540476Y-135977381D01*
X323873810Y-136691667D01*
X324207143Y-135977381D01*
X324207143Y-136977381D01*
X324826190Y-136405952D02*
X324730952Y-136358333D01*
X324683333Y-136310714D01*
X324635714Y-136215476D01*
X324635714Y-136167857D01*
X324683333Y-136072619D01*
X324730952Y-136025000D01*
X324826190Y-135977381D01*
X325016667Y-135977381D01*
X325111905Y-136025000D01*
X325159524Y-136072619D01*
X325207143Y-136167857D01*
X325207143Y-136215476D01*
X325159524Y-136310714D01*
X325111905Y-136358333D01*
X325016667Y-136405952D01*
X324826190Y-136405952D01*
X324730952Y-136453571D01*
X324683333Y-136501190D01*
X324635714Y-136596429D01*
X324635714Y-136786905D01*
X324683333Y-136882143D01*
X324730952Y-136929762D01*
X324826190Y-136977381D01*
X325016667Y-136977381D01*
X325111905Y-136929762D01*
X325159524Y-136882143D01*
X325207143Y-136786905D01*
X325207143Y-136596429D01*
X325159524Y-136501190D01*
X325111905Y-136453571D01*
X325016667Y-136405952D01*
X270819643Y-117927381D02*
X270486309Y-117451190D01*
X270248214Y-117927381D02*
X270248214Y-116927381D01*
X270629167Y-116927381D01*
X270724405Y-116975000D01*
X270772024Y-117022619D01*
X270819643Y-117117857D01*
X270819643Y-117260714D01*
X270772024Y-117355952D01*
X270724405Y-117403571D01*
X270629167Y-117451190D01*
X270248214Y-117451190D01*
X271200595Y-117879762D02*
X271343452Y-117927381D01*
X271581548Y-117927381D01*
X271676786Y-117879762D01*
X271724405Y-117832143D01*
X271772024Y-117736905D01*
X271772024Y-117641667D01*
X271724405Y-117546429D01*
X271676786Y-117498810D01*
X271581548Y-117451190D01*
X271391071Y-117403571D01*
X271295833Y-117355952D01*
X271248214Y-117308333D01*
X271200595Y-117213095D01*
X271200595Y-117117857D01*
X271248214Y-117022619D01*
X271295833Y-116975000D01*
X271391071Y-116927381D01*
X271629167Y-116927381D01*
X271772024Y-116975000D01*
X272724405Y-117927381D02*
X272152976Y-117927381D01*
X272438690Y-117927381D02*
X272438690Y-116927381D01*
X272343452Y-117070238D01*
X272248214Y-117165476D01*
X272152976Y-117213095D01*
X307332143Y-117927381D02*
X306998809Y-117451190D01*
X306760714Y-117927381D02*
X306760714Y-116927381D01*
X307141667Y-116927381D01*
X307236905Y-116975000D01*
X307284524Y-117022619D01*
X307332143Y-117117857D01*
X307332143Y-117260714D01*
X307284524Y-117355952D01*
X307236905Y-117403571D01*
X307141667Y-117451190D01*
X306760714Y-117451190D01*
X307713095Y-117879762D02*
X307855952Y-117927381D01*
X308094048Y-117927381D01*
X308189286Y-117879762D01*
X308236905Y-117832143D01*
X308284524Y-117736905D01*
X308284524Y-117641667D01*
X308236905Y-117546429D01*
X308189286Y-117498810D01*
X308094048Y-117451190D01*
X307903571Y-117403571D01*
X307808333Y-117355952D01*
X307760714Y-117308333D01*
X307713095Y-117213095D01*
X307713095Y-117117857D01*
X307760714Y-117022619D01*
X307808333Y-116975000D01*
X307903571Y-116927381D01*
X308141667Y-116927381D01*
X308284524Y-116975000D01*
X308665476Y-117022619D02*
X308713095Y-116975000D01*
X308808333Y-116927381D01*
X309046429Y-116927381D01*
X309141667Y-116975000D01*
X309189286Y-117022619D01*
X309236905Y-117117857D01*
X309236905Y-117213095D01*
X309189286Y-117355952D01*
X308617857Y-117927381D01*
X309236905Y-117927381D01*
X277963393Y-117927381D02*
X277630059Y-117451190D01*
X277391964Y-117927381D02*
X277391964Y-116927381D01*
X277772917Y-116927381D01*
X277868155Y-116975000D01*
X277915774Y-117022619D01*
X277963393Y-117117857D01*
X277963393Y-117260714D01*
X277915774Y-117355952D01*
X277868155Y-117403571D01*
X277772917Y-117451190D01*
X277391964Y-117451190D01*
X278344345Y-117879762D02*
X278487202Y-117927381D01*
X278725298Y-117927381D01*
X278820536Y-117879762D01*
X278868155Y-117832143D01*
X278915774Y-117736905D01*
X278915774Y-117641667D01*
X278868155Y-117546429D01*
X278820536Y-117498810D01*
X278725298Y-117451190D01*
X278534821Y-117403571D01*
X278439583Y-117355952D01*
X278391964Y-117308333D01*
X278344345Y-117213095D01*
X278344345Y-117117857D01*
X278391964Y-117022619D01*
X278439583Y-116975000D01*
X278534821Y-116927381D01*
X278772917Y-116927381D01*
X278915774Y-116975000D01*
X279249107Y-116927381D02*
X279868155Y-116927381D01*
X279534821Y-117308333D01*
X279677679Y-117308333D01*
X279772917Y-117355952D01*
X279820536Y-117403571D01*
X279868155Y-117498810D01*
X279868155Y-117736905D01*
X279820536Y-117832143D01*
X279772917Y-117879762D01*
X279677679Y-117927381D01*
X279391964Y-117927381D01*
X279296726Y-117879762D01*
X279249107Y-117832143D01*
X297013393Y-117927381D02*
X296680059Y-117451190D01*
X296441964Y-117927381D02*
X296441964Y-116927381D01*
X296822917Y-116927381D01*
X296918155Y-116975000D01*
X296965774Y-117022619D01*
X297013393Y-117117857D01*
X297013393Y-117260714D01*
X296965774Y-117355952D01*
X296918155Y-117403571D01*
X296822917Y-117451190D01*
X296441964Y-117451190D01*
X297394345Y-117879762D02*
X297537202Y-117927381D01*
X297775298Y-117927381D01*
X297870536Y-117879762D01*
X297918155Y-117832143D01*
X297965774Y-117736905D01*
X297965774Y-117641667D01*
X297918155Y-117546429D01*
X297870536Y-117498810D01*
X297775298Y-117451190D01*
X297584821Y-117403571D01*
X297489583Y-117355952D01*
X297441964Y-117308333D01*
X297394345Y-117213095D01*
X297394345Y-117117857D01*
X297441964Y-117022619D01*
X297489583Y-116975000D01*
X297584821Y-116927381D01*
X297822917Y-116927381D01*
X297965774Y-116975000D01*
X298822917Y-117260714D02*
X298822917Y-117927381D01*
X298584821Y-116879762D02*
X298346726Y-117594048D01*
X298965774Y-117594048D01*
X303395143Y-117927381D02*
X303061809Y-117451190D01*
X302823714Y-117927381D02*
X302823714Y-116927381D01*
X303204667Y-116927381D01*
X303299905Y-116975000D01*
X303347524Y-117022619D01*
X303395143Y-117117857D01*
X303395143Y-117260714D01*
X303347524Y-117355952D01*
X303299905Y-117403571D01*
X303204667Y-117451190D01*
X302823714Y-117451190D01*
X303776095Y-117879762D02*
X303918952Y-117927381D01*
X304157048Y-117927381D01*
X304252286Y-117879762D01*
X304299905Y-117832143D01*
X304347524Y-117736905D01*
X304347524Y-117641667D01*
X304299905Y-117546429D01*
X304252286Y-117498810D01*
X304157048Y-117451190D01*
X303966571Y-117403571D01*
X303871333Y-117355952D01*
X303823714Y-117308333D01*
X303776095Y-117213095D01*
X303776095Y-117117857D01*
X303823714Y-117022619D01*
X303871333Y-116975000D01*
X303966571Y-116927381D01*
X304204667Y-116927381D01*
X304347524Y-116975000D01*
X305252286Y-116927381D02*
X304776095Y-116927381D01*
X304728476Y-117403571D01*
X304776095Y-117355952D01*
X304871333Y-117308333D01*
X305109429Y-117308333D01*
X305204667Y-117355952D01*
X305252286Y-117403571D01*
X305299905Y-117498810D01*
X305299905Y-117736905D01*
X305252286Y-117832143D01*
X305204667Y-117879762D01*
X305109429Y-117927381D01*
X304871333Y-117927381D01*
X304776095Y-117879762D01*
X304728476Y-117832143D01*
X323207143Y-117927381D02*
X322873809Y-117451190D01*
X322635714Y-117927381D02*
X322635714Y-116927381D01*
X323016667Y-116927381D01*
X323111905Y-116975000D01*
X323159524Y-117022619D01*
X323207143Y-117117857D01*
X323207143Y-117260714D01*
X323159524Y-117355952D01*
X323111905Y-117403571D01*
X323016667Y-117451190D01*
X322635714Y-117451190D01*
X323588095Y-117879762D02*
X323730952Y-117927381D01*
X323969048Y-117927381D01*
X324064286Y-117879762D01*
X324111905Y-117832143D01*
X324159524Y-117736905D01*
X324159524Y-117641667D01*
X324111905Y-117546429D01*
X324064286Y-117498810D01*
X323969048Y-117451190D01*
X323778571Y-117403571D01*
X323683333Y-117355952D01*
X323635714Y-117308333D01*
X323588095Y-117213095D01*
X323588095Y-117117857D01*
X323635714Y-117022619D01*
X323683333Y-116975000D01*
X323778571Y-116927381D01*
X324016667Y-116927381D01*
X324159524Y-116975000D01*
X325016667Y-116927381D02*
X324826190Y-116927381D01*
X324730952Y-116975000D01*
X324683333Y-117022619D01*
X324588095Y-117165476D01*
X324540476Y-117355952D01*
X324540476Y-117736905D01*
X324588095Y-117832143D01*
X324635714Y-117879762D01*
X324730952Y-117927381D01*
X324921429Y-117927381D01*
X325016667Y-117879762D01*
X325064286Y-117832143D01*
X325111905Y-117736905D01*
X325111905Y-117498810D01*
X325064286Y-117403571D01*
X325016667Y-117355952D01*
X324921429Y-117308333D01*
X324730952Y-117308333D01*
X324635714Y-117355952D01*
X324588095Y-117403571D01*
X324540476Y-117498810D01*
X177331845Y-136929762D02*
X177474702Y-136977381D01*
X177712798Y-136977381D01*
X177808036Y-136929762D01*
X177855655Y-136882143D01*
X177903274Y-136786905D01*
X177903274Y-136691667D01*
X177855655Y-136596429D01*
X177808036Y-136548810D01*
X177712798Y-136501190D01*
X177522321Y-136453571D01*
X177427083Y-136405952D01*
X177379464Y-136358333D01*
X177331845Y-136263095D01*
X177331845Y-136167857D01*
X177379464Y-136072619D01*
X177427083Y-136025000D01*
X177522321Y-135977381D01*
X177760417Y-135977381D01*
X177903274Y-136025000D01*
X178331845Y-136977381D02*
X178331845Y-135977381D01*
X178712798Y-135977381D01*
X178808036Y-136025000D01*
X178855655Y-136072619D01*
X178903274Y-136167857D01*
X178903274Y-136310714D01*
X178855655Y-136405952D01*
X178808036Y-136453571D01*
X178712798Y-136501190D01*
X178331845Y-136501190D01*
X179855655Y-136977381D02*
X179284226Y-136977381D01*
X179569940Y-136977381D02*
X179569940Y-135977381D01*
X179474702Y-136120238D01*
X179379464Y-136215476D01*
X179284226Y-136263095D01*
X189238095Y-136929762D02*
X189380952Y-136977381D01*
X189619048Y-136977381D01*
X189714286Y-136929762D01*
X189761905Y-136882143D01*
X189809524Y-136786905D01*
X189809524Y-136691667D01*
X189761905Y-136596429D01*
X189714286Y-136548810D01*
X189619048Y-136501190D01*
X189428571Y-136453571D01*
X189333333Y-136405952D01*
X189285714Y-136358333D01*
X189238095Y-136263095D01*
X189238095Y-136167857D01*
X189285714Y-136072619D01*
X189333333Y-136025000D01*
X189428571Y-135977381D01*
X189666667Y-135977381D01*
X189809524Y-136025000D01*
X190238095Y-136977381D02*
X190238095Y-135977381D01*
X190619048Y-135977381D01*
X190714286Y-136025000D01*
X190761905Y-136072619D01*
X190809524Y-136167857D01*
X190809524Y-136310714D01*
X190761905Y-136405952D01*
X190714286Y-136453571D01*
X190619048Y-136501190D01*
X190238095Y-136501190D01*
X191190476Y-136072619D02*
X191238095Y-136025000D01*
X191333333Y-135977381D01*
X191571429Y-135977381D01*
X191666667Y-136025000D01*
X191714286Y-136072619D01*
X191761905Y-136167857D01*
X191761905Y-136263095D01*
X191714286Y-136405952D01*
X191142857Y-136977381D01*
X191761905Y-136977381D01*
X311277381Y-60777381D02*
X311277381Y-59777381D01*
X311848810Y-60777381D02*
X311420238Y-60205952D01*
X311848810Y-59777381D02*
X311277381Y-60348810D01*
X312039286Y-60872619D02*
X312801191Y-60872619D01*
X313372620Y-60253571D02*
X313515477Y-60301190D01*
X313563096Y-60348810D01*
X313610715Y-60444048D01*
X313610715Y-60586905D01*
X313563096Y-60682143D01*
X313515477Y-60729762D01*
X313420239Y-60777381D01*
X313039286Y-60777381D01*
X313039286Y-59777381D01*
X313372620Y-59777381D01*
X313467858Y-59825000D01*
X313515477Y-59872619D01*
X313563096Y-59967857D01*
X313563096Y-60063095D01*
X313515477Y-60158333D01*
X313467858Y-60205952D01*
X313372620Y-60253571D01*
X313039286Y-60253571D01*
X313991667Y-60491667D02*
X314467858Y-60491667D01*
X313896429Y-60777381D02*
X314229762Y-59777381D01*
X314563096Y-60777381D01*
X315467858Y-60682143D02*
X315420239Y-60729762D01*
X315277382Y-60777381D01*
X315182144Y-60777381D01*
X315039286Y-60729762D01*
X314944048Y-60634524D01*
X314896429Y-60539286D01*
X314848810Y-60348810D01*
X314848810Y-60205952D01*
X314896429Y-60015476D01*
X314944048Y-59920238D01*
X315039286Y-59825000D01*
X315182144Y-59777381D01*
X315277382Y-59777381D01*
X315420239Y-59825000D01*
X315467858Y-59872619D01*
X315896429Y-60777381D02*
X315896429Y-59777381D01*
X316467858Y-60777381D02*
X316039286Y-60205952D01*
X316467858Y-59777381D02*
X315896429Y-60348810D01*
X317420239Y-60777381D02*
X316848810Y-60777381D01*
X317134524Y-60777381D02*
X317134524Y-59777381D01*
X317039286Y-59920238D01*
X316944048Y-60015476D01*
X316848810Y-60063095D01*
M02*
