%TF.GenerationSoftware,KiCad,Pcbnew,4.0.7*%
%TF.CreationDate,2018-04-05T00:20:22-07:00*%
%TF.ProjectId,VoyagerII,566F796167657249492E6B696361645F,rev?*%
%TF.FileFunction,Soldermask,Bot*%
%FSLAX46Y46*%
G04 Gerber Fmt 4.6, Leading zero omitted, Abs format (unit mm)*
G04 Created by KiCad (PCBNEW 4.0.7) date 04/05/18 00:20:22*
%MOMM*%
%LPD*%
G01*
G04 APERTURE LIST*
%ADD10C,0.100000*%
%ADD11C,0.228600*%
%ADD12C,2.501900*%
%ADD13C,2.650000*%
%ADD14C,2.650000*%
%ADD15C,4.387800*%
%ADD16C,2.305000*%
%ADD17R,2.305000X2.305000*%
%ADD18C,2.150000*%
%ADD19C,3.448000*%
%ADD20R,0.900000X1.300000*%
%ADD21R,1.300000X0.900000*%
%ADD22R,1.150000X1.200000*%
%ADD23R,1.200000X1.150000*%
%ADD24R,0.650000X1.080000*%
%ADD25R,1.080000X0.650000*%
%ADD26R,5.060000X5.060000*%
%ADD27C,7.401300*%
%ADD28C,7.400240*%
%ADD29C,1.400000*%
%ADD30R,0.908000X0.908000*%
%ADD31C,1.050000*%
%ADD32R,0.700000X2.850000*%
%ADD33R,1.000000X2.850000*%
%ADD34R,1.300000X1.600000*%
%ADD35R,1.600000X1.300000*%
%ADD36R,1.100000X1.000000*%
%ADD37R,1.100000X1.400000*%
%ADD38R,1.700000X1.100000*%
%ADD39R,1.050000X0.800000*%
%ADD40R,2.200000X1.800000*%
%ADD41C,1.184860*%
%ADD42C,1.388060*%
%ADD43C,1.385520*%
%ADD44C,1.924000*%
%ADD45R,1.924000X1.924000*%
%ADD46R,1.300000X1.200000*%
%ADD47R,0.950000X1.900000*%
%ADD48R,1.900000X0.950000*%
%ADD49C,2.200000*%
G04 APERTURE END LIST*
D10*
D11*
X226928286Y-133028571D02*
X226642572Y-134028571D01*
X226356858Y-133314286D01*
X226071143Y-134028571D01*
X225785429Y-133028571D01*
X225356857Y-133028571D02*
X225071143Y-134028571D01*
X224785429Y-133314286D01*
X224499714Y-134028571D01*
X224214000Y-133028571D01*
X223785428Y-133028571D02*
X223499714Y-134028571D01*
X223214000Y-133314286D01*
X222928285Y-134028571D01*
X222642571Y-133028571D01*
X222071142Y-133885714D02*
X221999714Y-133957143D01*
X222071142Y-134028571D01*
X222142571Y-133957143D01*
X222071142Y-133885714D01*
X222071142Y-134028571D01*
X220713999Y-134028571D02*
X220713999Y-133242857D01*
X220785428Y-133100000D01*
X220928285Y-133028571D01*
X221213999Y-133028571D01*
X221356856Y-133100000D01*
X220713999Y-133957143D02*
X220856856Y-134028571D01*
X221213999Y-134028571D01*
X221356856Y-133957143D01*
X221428285Y-133814286D01*
X221428285Y-133671429D01*
X221356856Y-133528571D01*
X221213999Y-133457143D01*
X220856856Y-133457143D01*
X220713999Y-133385714D01*
X219999713Y-134028571D02*
X219999713Y-133028571D01*
X219999713Y-132528571D02*
X220071142Y-132600000D01*
X219999713Y-132671429D01*
X219928285Y-132600000D01*
X219999713Y-132528571D01*
X219999713Y-132671429D01*
X218999713Y-132528571D02*
X218856856Y-132528571D01*
X218713999Y-132600000D01*
X218642570Y-132671429D01*
X218571141Y-132814286D01*
X218499713Y-133100000D01*
X218499713Y-133457143D01*
X218571141Y-133742857D01*
X218642570Y-133885714D01*
X218713999Y-133957143D01*
X218856856Y-134028571D01*
X218999713Y-134028571D01*
X219142570Y-133957143D01*
X219213999Y-133885714D01*
X219285427Y-133742857D01*
X219356856Y-133457143D01*
X219356856Y-133100000D01*
X219285427Y-132814286D01*
X219213999Y-132671429D01*
X219142570Y-132600000D01*
X218999713Y-132528571D01*
X217999713Y-132528571D02*
X217071142Y-132528571D01*
X217571142Y-133100000D01*
X217356856Y-133100000D01*
X217213999Y-133171429D01*
X217142570Y-133242857D01*
X217071142Y-133385714D01*
X217071142Y-133742857D01*
X217142570Y-133885714D01*
X217213999Y-133957143D01*
X217356856Y-134028571D01*
X217785428Y-134028571D01*
X217928285Y-133957143D01*
X217999713Y-133885714D01*
X216428285Y-133885714D02*
X216356857Y-133957143D01*
X216428285Y-134028571D01*
X216499714Y-133957143D01*
X216428285Y-133885714D01*
X216428285Y-134028571D01*
X215713999Y-134028571D02*
X215713999Y-133028571D01*
X215713999Y-133171429D02*
X215642571Y-133100000D01*
X215499713Y-133028571D01*
X215285428Y-133028571D01*
X215142571Y-133100000D01*
X215071142Y-133242857D01*
X215071142Y-134028571D01*
X215071142Y-133242857D02*
X214999713Y-133100000D01*
X214856856Y-133028571D01*
X214642571Y-133028571D01*
X214499713Y-133100000D01*
X214428285Y-133242857D01*
X214428285Y-134028571D01*
X213142571Y-133957143D02*
X213285428Y-134028571D01*
X213571142Y-134028571D01*
X213713999Y-133957143D01*
X213785428Y-133814286D01*
X213785428Y-133242857D01*
X213713999Y-133100000D01*
X213571142Y-133028571D01*
X213285428Y-133028571D01*
X213142571Y-133100000D01*
X213071142Y-133242857D01*
X213071142Y-133385714D01*
X213785428Y-133528571D01*
D12*
X329200000Y-101799050D02*
X333000000Y-101799050D01*
X326549050Y-104450000D02*
G75*
G02X329200000Y-101799050I2650950J0D01*
G01*
X329200000Y-107100950D02*
G75*
G02X326549050Y-104450000I0J2650950D01*
G01*
X329200000Y-107100950D02*
X333050000Y-107100950D01*
X48000000Y-101799050D02*
X51800000Y-101799050D01*
X54450950Y-104450000D02*
G75*
G03X51800000Y-101799050I-2650950J0D01*
G01*
X51800000Y-107100950D02*
G75*
G03X54450950Y-104450000I0J2650950D01*
G01*
X48000000Y-107100950D02*
X51800000Y-107100950D01*
D13*
X309681250Y-109800000D02*
X309721250Y-109220000D01*
D14*
X309721250Y-109220000D03*
D13*
X303371250Y-111760000D02*
X304681252Y-110300000D01*
D15*
X307181250Y-114300000D03*
D14*
X304681250Y-110300000D03*
D16*
X308451250Y-119380000D03*
D17*
X305911250Y-119380000D03*
D18*
X302101250Y-114300000D03*
X312261250Y-114300000D03*
D19*
X295243250Y-107315000D03*
X319119250Y-107315000D03*
D15*
X295243250Y-122555000D03*
X319119250Y-122555000D03*
D13*
X193000000Y-128850000D02*
X193040000Y-128270000D01*
D14*
X193040000Y-128270000D03*
D13*
X186690000Y-130810000D02*
X188000002Y-129350000D01*
D15*
X190500000Y-133350000D03*
D14*
X188000000Y-129350000D03*
D16*
X189230000Y-138430000D03*
D17*
X191770000Y-138430000D03*
D18*
X185420000Y-133350000D03*
X195580000Y-133350000D03*
D19*
X133350000Y-140335000D03*
X247650000Y-140335000D03*
D15*
X133350000Y-125095000D03*
X247650000Y-125095000D03*
D13*
X266818750Y-128850000D02*
X266858750Y-128270000D01*
D14*
X266858750Y-128270000D03*
D13*
X260508750Y-130810000D02*
X261818752Y-129350000D01*
D15*
X264318750Y-133350000D03*
D14*
X261818750Y-129350000D03*
D16*
X263048750Y-138430000D03*
D17*
X265588750Y-138430000D03*
D18*
X259238750Y-133350000D03*
X269398750Y-133350000D03*
D13*
X269200000Y-128850000D02*
X269240000Y-128270000D01*
D14*
X269240000Y-128270000D03*
D13*
X262890000Y-130810000D02*
X264200002Y-129350000D01*
D15*
X266700000Y-133350000D03*
D14*
X264200000Y-129350000D03*
D16*
X267970000Y-138430000D03*
D17*
X265430000Y-138430000D03*
D18*
X261620000Y-133350000D03*
X271780000Y-133350000D03*
D13*
X273962500Y-128850000D02*
X274002500Y-128270000D01*
D14*
X274002500Y-128270000D03*
D13*
X267652500Y-130810000D02*
X268962502Y-129350000D01*
D15*
X271462500Y-133350000D03*
D14*
X268962500Y-129350000D03*
D16*
X270192500Y-138430000D03*
D17*
X272732500Y-138430000D03*
D18*
X266382500Y-133350000D03*
X276542500Y-133350000D03*
D13*
X321587500Y-128850000D02*
X321627500Y-128270000D01*
D14*
X321627500Y-128270000D03*
D13*
X315277500Y-130810000D02*
X316587502Y-129350000D01*
D15*
X319087500Y-133350000D03*
D14*
X316587500Y-129350000D03*
D16*
X320357500Y-138430000D03*
D17*
X317817500Y-138430000D03*
D18*
X314007500Y-133350000D03*
X324167500Y-133350000D03*
D13*
X297775000Y-128850000D02*
X297815000Y-128270000D01*
D14*
X297815000Y-128270000D03*
D13*
X291465000Y-130810000D02*
X292775002Y-129350000D01*
D15*
X295275000Y-133350000D03*
D14*
X292775000Y-129350000D03*
D16*
X296545000Y-138430000D03*
D17*
X294005000Y-138430000D03*
D18*
X290195000Y-133350000D03*
X300355000Y-133350000D03*
D13*
X116800000Y-128850000D02*
X116840000Y-128270000D01*
D14*
X116840000Y-128270000D03*
D13*
X110490000Y-130810000D02*
X111800002Y-129350000D01*
D15*
X114300000Y-133350000D03*
D14*
X111800000Y-129350000D03*
D16*
X115570000Y-138430000D03*
D17*
X113030000Y-138430000D03*
D18*
X109220000Y-133350000D03*
X119380000Y-133350000D03*
D13*
X90606250Y-128850000D02*
X90646250Y-128270000D01*
D14*
X90646250Y-128270000D03*
D13*
X84296250Y-130810000D02*
X85606252Y-129350000D01*
D15*
X88106250Y-133350000D03*
D14*
X85606250Y-129350000D03*
D16*
X89376250Y-138430000D03*
D17*
X86836250Y-138430000D03*
D18*
X83026250Y-133350000D03*
X93186250Y-133350000D03*
D13*
X62031250Y-90750000D02*
X62071250Y-90170000D01*
D14*
X62071250Y-90170000D03*
D13*
X55721250Y-92710000D02*
X57031252Y-91250000D01*
D15*
X59531250Y-95250000D03*
D14*
X57031250Y-91250000D03*
D16*
X60801250Y-100330000D03*
D17*
X58261250Y-100330000D03*
D18*
X54451250Y-95250000D03*
X64611250Y-95250000D03*
D13*
X326350000Y-109800000D02*
X326390000Y-109220000D01*
D14*
X326390000Y-109220000D03*
D13*
X320040000Y-111760000D02*
X321350002Y-110300000D01*
D15*
X323850000Y-114300000D03*
D14*
X321350000Y-110300000D03*
D16*
X322580000Y-119380000D03*
D17*
X325120000Y-119380000D03*
D18*
X318770000Y-114300000D03*
X328930000Y-114300000D03*
D13*
X307300000Y-109800000D02*
X307340000Y-109220000D01*
D14*
X307340000Y-109220000D03*
D13*
X300990000Y-111760000D02*
X302300002Y-110300000D01*
D15*
X304800000Y-114300000D03*
D14*
X302300000Y-110300000D03*
D16*
X303530000Y-119380000D03*
D17*
X306070000Y-119380000D03*
D18*
X299720000Y-114300000D03*
X309880000Y-114300000D03*
D13*
X300156250Y-109800000D02*
X300196250Y-109220000D01*
D14*
X300196250Y-109220000D03*
D13*
X293846250Y-111760000D02*
X295156252Y-110300000D01*
D15*
X297656250Y-114300000D03*
D14*
X295156250Y-110300000D03*
D16*
X296386250Y-119380000D03*
D17*
X298926250Y-119380000D03*
D18*
X292576250Y-114300000D03*
X302736250Y-114300000D03*
D13*
X281106250Y-109800000D02*
X281146250Y-109220000D01*
D14*
X281146250Y-109220000D03*
D13*
X274796250Y-111760000D02*
X276106252Y-110300000D01*
D15*
X278606250Y-114300000D03*
D14*
X276106250Y-110300000D03*
D16*
X277336250Y-119380000D03*
D17*
X279876250Y-119380000D03*
D18*
X273526250Y-114300000D03*
X283686250Y-114300000D03*
D13*
X273962500Y-109800000D02*
X274002500Y-109220000D01*
D14*
X274002500Y-109220000D03*
D13*
X267652500Y-111760000D02*
X268962502Y-110300000D01*
D15*
X271462500Y-114300000D03*
D14*
X268962500Y-110300000D03*
D16*
X270192500Y-119380000D03*
D17*
X272732500Y-119380000D03*
D18*
X266382500Y-114300000D03*
X276542500Y-114300000D03*
D13*
X326350000Y-128850000D02*
X326390000Y-128270000D01*
D14*
X326390000Y-128270000D03*
D13*
X320040000Y-130810000D02*
X321350002Y-129350000D01*
D15*
X323850000Y-133350000D03*
D14*
X321350000Y-129350000D03*
D16*
X322580000Y-138430000D03*
D17*
X325120000Y-138430000D03*
D18*
X318770000Y-133350000D03*
X328930000Y-133350000D03*
D13*
X307300000Y-128850000D02*
X307340000Y-128270000D01*
D14*
X307340000Y-128270000D03*
D13*
X300990000Y-130810000D02*
X302300002Y-129350000D01*
D15*
X304800000Y-133350000D03*
D14*
X302300000Y-129350000D03*
D16*
X303530000Y-138430000D03*
D17*
X306070000Y-138430000D03*
D18*
X299720000Y-133350000D03*
X309880000Y-133350000D03*
D13*
X295393750Y-128850000D02*
X295433750Y-128270000D01*
D14*
X295433750Y-128270000D03*
D13*
X289083750Y-130810000D02*
X290393752Y-129350000D01*
D15*
X292893750Y-133350000D03*
D14*
X290393750Y-129350000D03*
D16*
X291623750Y-138430000D03*
D17*
X294163750Y-138430000D03*
D18*
X287813750Y-133350000D03*
X297973750Y-133350000D03*
D13*
X288250000Y-128850000D02*
X288290000Y-128270000D01*
D14*
X288290000Y-128270000D03*
D13*
X281940000Y-130810000D02*
X283250002Y-129350000D01*
D15*
X285750000Y-133350000D03*
D14*
X283250000Y-129350000D03*
D16*
X284480000Y-138430000D03*
D17*
X287020000Y-138430000D03*
D18*
X280670000Y-133350000D03*
X290830000Y-133350000D03*
D13*
X112037500Y-128850000D02*
X112077500Y-128270000D01*
D14*
X112077500Y-128270000D03*
D13*
X105727500Y-130810000D02*
X107037502Y-129350000D01*
D15*
X109537500Y-133350000D03*
D14*
X107037500Y-129350000D03*
D16*
X108267500Y-138430000D03*
D17*
X110807500Y-138430000D03*
D18*
X104457500Y-133350000D03*
X114617500Y-133350000D03*
D13*
X88225000Y-128850000D02*
X88265000Y-128270000D01*
D14*
X88265000Y-128270000D03*
D13*
X81915000Y-130810000D02*
X83225002Y-129350000D01*
D15*
X85725000Y-133350000D03*
D14*
X83225000Y-129350000D03*
D16*
X84455000Y-138430000D03*
D17*
X86995000Y-138430000D03*
D18*
X80645000Y-133350000D03*
X90805000Y-133350000D03*
D13*
X64412500Y-128850000D02*
X64452500Y-128270000D01*
D14*
X64452500Y-128270000D03*
D13*
X58102500Y-130810000D02*
X59412502Y-129350000D01*
D15*
X61912500Y-133350000D03*
D14*
X59412500Y-129350000D03*
D16*
X60642500Y-138430000D03*
D17*
X63182500Y-138430000D03*
D18*
X56832500Y-133350000D03*
X66992500Y-133350000D03*
D13*
X297775000Y-71700000D02*
X297815000Y-71120000D01*
D14*
X297815000Y-71120000D03*
D13*
X291465000Y-73660000D02*
X292775002Y-72200000D01*
D15*
X295275000Y-76200000D03*
D14*
X292775000Y-72200000D03*
D16*
X294005000Y-81280000D03*
D17*
X296545000Y-81280000D03*
D18*
X290195000Y-76200000D03*
X300355000Y-76200000D03*
D13*
X321587500Y-71700000D02*
X321627500Y-71120000D01*
D14*
X321627500Y-71120000D03*
D13*
X315277500Y-73660000D02*
X316587502Y-72200000D01*
D15*
X319087500Y-76200000D03*
D14*
X316587500Y-72200000D03*
D16*
X317817500Y-81280000D03*
D17*
X320357500Y-81280000D03*
D18*
X314007500Y-76200000D03*
X324167500Y-76200000D03*
D13*
X278725000Y-71700000D02*
X278765000Y-71120000D01*
D14*
X278765000Y-71120000D03*
D13*
X272415000Y-73660000D02*
X273725002Y-72200000D01*
D15*
X276225000Y-76200000D03*
D14*
X273725000Y-72200000D03*
D16*
X274955000Y-81280000D03*
D17*
X277495000Y-81280000D03*
D18*
X271145000Y-76200000D03*
X281305000Y-76200000D03*
D13*
X102512500Y-109800000D02*
X102552500Y-109220000D01*
D14*
X102552500Y-109220000D03*
D13*
X96202500Y-111760000D02*
X97512502Y-110300000D01*
D15*
X100012500Y-114300000D03*
D14*
X97512500Y-110300000D03*
D16*
X98742500Y-119380000D03*
D17*
X101282500Y-119380000D03*
D18*
X94932500Y-114300000D03*
X105092500Y-114300000D03*
D13*
X183475000Y-71700000D02*
X183515000Y-71120000D01*
D14*
X183515000Y-71120000D03*
D13*
X177165000Y-73660000D02*
X178475002Y-72200000D01*
D15*
X180975000Y-76200000D03*
D14*
X178475000Y-72200000D03*
D16*
X179705000Y-81280000D03*
D17*
X182245000Y-81280000D03*
D18*
X175895000Y-76200000D03*
X186055000Y-76200000D03*
D13*
X121562500Y-109800000D02*
X121602500Y-109220000D01*
D14*
X121602500Y-109220000D03*
D13*
X115252500Y-111760000D02*
X116562502Y-110300000D01*
D15*
X119062500Y-114300000D03*
D14*
X116562500Y-110300000D03*
D16*
X117792500Y-119380000D03*
D17*
X120332500Y-119380000D03*
D18*
X113982500Y-114300000D03*
X124142500Y-114300000D03*
D13*
X107275000Y-71700000D02*
X107315000Y-71120000D01*
D14*
X107315000Y-71120000D03*
D13*
X100965000Y-73660000D02*
X102275002Y-72200000D01*
D15*
X104775000Y-76200000D03*
D14*
X102275000Y-72200000D03*
D16*
X103505000Y-81280000D03*
D17*
X106045000Y-81280000D03*
D18*
X99695000Y-76200000D03*
X109855000Y-76200000D03*
D13*
X159662500Y-109800000D02*
X159702500Y-109220000D01*
D14*
X159702500Y-109220000D03*
D13*
X153352500Y-111760000D02*
X154662502Y-110300000D01*
D15*
X157162500Y-114300000D03*
D14*
X154662500Y-110300000D03*
D16*
X155892500Y-119380000D03*
D17*
X158432500Y-119380000D03*
D18*
X152082500Y-114300000D03*
X162242500Y-114300000D03*
D13*
X202525000Y-71700000D02*
X202565000Y-71120000D01*
D14*
X202565000Y-71120000D03*
D13*
X196215000Y-73660000D02*
X197525002Y-72200000D01*
D15*
X200025000Y-76200000D03*
D14*
X197525000Y-72200000D03*
D16*
X198755000Y-81280000D03*
D17*
X201295000Y-81280000D03*
D18*
X194945000Y-76200000D03*
X205105000Y-76200000D03*
D13*
X64412500Y-71700000D02*
X64452500Y-71120000D01*
D14*
X64452500Y-71120000D03*
D13*
X58102500Y-73660000D02*
X59412502Y-72200000D01*
D15*
X61912500Y-76200000D03*
D14*
X59412500Y-72200000D03*
D16*
X60642500Y-81280000D03*
D17*
X63182500Y-81280000D03*
D18*
X56832500Y-76200000D03*
X66992500Y-76200000D03*
D13*
X164425000Y-71700000D02*
X164465000Y-71120000D01*
D14*
X164465000Y-71120000D03*
D13*
X158115000Y-73660000D02*
X159425002Y-72200000D01*
D15*
X161925000Y-76200000D03*
D14*
X159425000Y-72200000D03*
D16*
X160655000Y-81280000D03*
D17*
X163195000Y-81280000D03*
D18*
X156845000Y-76200000D03*
X167005000Y-76200000D03*
D13*
X71556250Y-109800000D02*
X71596250Y-109220000D01*
D14*
X71596250Y-109220000D03*
D13*
X65246250Y-111760000D02*
X66556252Y-110300000D01*
D15*
X69056250Y-114300000D03*
D14*
X66556250Y-110300000D03*
D16*
X67786250Y-119380000D03*
D17*
X70326250Y-119380000D03*
D18*
X63976250Y-114300000D03*
X74136250Y-114300000D03*
D19*
X57118250Y-107315000D03*
X80994250Y-107315000D03*
D15*
X57118250Y-122555000D03*
X80994250Y-122555000D03*
D13*
X112037500Y-90750000D02*
X112077500Y-90170000D01*
D14*
X112077500Y-90170000D03*
D13*
X105727500Y-92710000D02*
X107037502Y-91250000D01*
D15*
X109537500Y-95250000D03*
D14*
X107037500Y-91250000D03*
D16*
X108267500Y-100330000D03*
D17*
X110807500Y-100330000D03*
D18*
X104457500Y-95250000D03*
X114617500Y-95250000D03*
D13*
X145375000Y-71700000D02*
X145415000Y-71120000D01*
D14*
X145415000Y-71120000D03*
D13*
X139065000Y-73660000D02*
X140375002Y-72200000D01*
D15*
X142875000Y-76200000D03*
D14*
X140375000Y-72200000D03*
D16*
X141605000Y-81280000D03*
D17*
X144145000Y-81280000D03*
D18*
X137795000Y-76200000D03*
X147955000Y-76200000D03*
D13*
X88225000Y-71700000D02*
X88265000Y-71120000D01*
D14*
X88265000Y-71120000D03*
D13*
X81915000Y-73660000D02*
X83225002Y-72200000D01*
D15*
X85725000Y-76200000D03*
D14*
X83225000Y-72200000D03*
D16*
X84455000Y-81280000D03*
D17*
X86995000Y-81280000D03*
D18*
X80645000Y-76200000D03*
X90805000Y-76200000D03*
D13*
X259675000Y-71700000D02*
X259715000Y-71120000D01*
D14*
X259715000Y-71120000D03*
D13*
X253365000Y-73660000D02*
X254675002Y-72200000D01*
D15*
X257175000Y-76200000D03*
D14*
X254675000Y-72200000D03*
D16*
X255905000Y-81280000D03*
D17*
X258445000Y-81280000D03*
D18*
X252095000Y-76200000D03*
X262255000Y-76200000D03*
D13*
X240625000Y-71700000D02*
X240665000Y-71120000D01*
D14*
X240665000Y-71120000D03*
D13*
X234315000Y-73660000D02*
X235625002Y-72200000D01*
D15*
X238125000Y-76200000D03*
D14*
X235625000Y-72200000D03*
D16*
X236855000Y-81280000D03*
D17*
X239395000Y-81280000D03*
D18*
X233045000Y-76200000D03*
X243205000Y-76200000D03*
D13*
X197762500Y-109800000D02*
X197802500Y-109220000D01*
D14*
X197802500Y-109220000D03*
D13*
X191452500Y-111760000D02*
X192762502Y-110300000D01*
D15*
X195262500Y-114300000D03*
D14*
X192762500Y-110300000D03*
D16*
X193992500Y-119380000D03*
D17*
X196532500Y-119380000D03*
D18*
X190182500Y-114300000D03*
X200342500Y-114300000D03*
D13*
X216812500Y-109800000D02*
X216852500Y-109220000D01*
D14*
X216852500Y-109220000D03*
D13*
X210502500Y-111760000D02*
X211812502Y-110300000D01*
D15*
X214312500Y-114300000D03*
D14*
X211812500Y-110300000D03*
D16*
X213042500Y-119380000D03*
D17*
X215582500Y-119380000D03*
D18*
X209232500Y-114300000D03*
X219392500Y-114300000D03*
D13*
X245387500Y-90750000D02*
X245427500Y-90170000D01*
D14*
X245427500Y-90170000D03*
D13*
X239077500Y-92710000D02*
X240387502Y-91250000D01*
D15*
X242887500Y-95250000D03*
D14*
X240387500Y-91250000D03*
D16*
X241617500Y-100330000D03*
D17*
X244157500Y-100330000D03*
D18*
X237807500Y-95250000D03*
X247967500Y-95250000D03*
D13*
X226337500Y-90750000D02*
X226377500Y-90170000D01*
D14*
X226377500Y-90170000D03*
D13*
X220027500Y-92710000D02*
X221337502Y-91250000D01*
D15*
X223837500Y-95250000D03*
D14*
X221337500Y-91250000D03*
D16*
X222567500Y-100330000D03*
D17*
X225107500Y-100330000D03*
D18*
X218757500Y-95250000D03*
X228917500Y-95250000D03*
D13*
X207287500Y-90750000D02*
X207327500Y-90170000D01*
D14*
X207327500Y-90170000D03*
D13*
X200977500Y-92710000D02*
X202287502Y-91250000D01*
D15*
X204787500Y-95250000D03*
D14*
X202287500Y-91250000D03*
D16*
X203517500Y-100330000D03*
D17*
X206057500Y-100330000D03*
D18*
X199707500Y-95250000D03*
X209867500Y-95250000D03*
D13*
X221575000Y-71700000D02*
X221615000Y-71120000D01*
D14*
X221615000Y-71120000D03*
D13*
X215265000Y-73660000D02*
X216575002Y-72200000D01*
D15*
X219075000Y-76200000D03*
D14*
X216575000Y-72200000D03*
D16*
X217805000Y-81280000D03*
D17*
X220345000Y-81280000D03*
D18*
X213995000Y-76200000D03*
X224155000Y-76200000D03*
D13*
X188237500Y-90750000D02*
X188277500Y-90170000D01*
D14*
X188277500Y-90170000D03*
D13*
X181927500Y-92710000D02*
X183237502Y-91250000D01*
D15*
X185737500Y-95250000D03*
D14*
X183237500Y-91250000D03*
D16*
X184467500Y-100330000D03*
D17*
X187007500Y-100330000D03*
D18*
X180657500Y-95250000D03*
X190817500Y-95250000D03*
D13*
X169187500Y-90750000D02*
X169227500Y-90170000D01*
D14*
X169227500Y-90170000D03*
D13*
X162877500Y-92710000D02*
X164187502Y-91250000D01*
D15*
X166687500Y-95250000D03*
D14*
X164187500Y-91250000D03*
D16*
X165417500Y-100330000D03*
D17*
X167957500Y-100330000D03*
D18*
X161607500Y-95250000D03*
X171767500Y-95250000D03*
D13*
X150137500Y-90750000D02*
X150177500Y-90170000D01*
D14*
X150177500Y-90170000D03*
D13*
X143827500Y-92710000D02*
X145137502Y-91250000D01*
D15*
X147637500Y-95250000D03*
D14*
X145137500Y-91250000D03*
D16*
X146367500Y-100330000D03*
D17*
X148907500Y-100330000D03*
D18*
X142557500Y-95250000D03*
X152717500Y-95250000D03*
D13*
X59650000Y-52650000D02*
X59690000Y-52070000D01*
D14*
X59690000Y-52070000D03*
D13*
X53340000Y-54610000D02*
X54650002Y-53150000D01*
D15*
X57150000Y-57150000D03*
D14*
X54650000Y-53150000D03*
D16*
X55880000Y-62230000D03*
D17*
X58420000Y-62230000D03*
D18*
X52070000Y-57150000D03*
X62230000Y-57150000D03*
D13*
X314443750Y-90750000D02*
X314483750Y-90170000D01*
D14*
X314483750Y-90170000D03*
D13*
X308133750Y-92710000D02*
X309443752Y-91250000D01*
D15*
X311943750Y-95250000D03*
D14*
X309443750Y-91250000D03*
D16*
X310673750Y-100330000D03*
D17*
X313213750Y-100330000D03*
D18*
X306863750Y-95250000D03*
X317023750Y-95250000D03*
D19*
X300005750Y-88265000D03*
X323881750Y-88265000D03*
D15*
X300005750Y-103505000D03*
X323881750Y-103505000D03*
D13*
X126325000Y-71700000D02*
X126365000Y-71120000D01*
D14*
X126365000Y-71120000D03*
D13*
X120015000Y-73660000D02*
X121325002Y-72200000D01*
D15*
X123825000Y-76200000D03*
D14*
X121325000Y-72200000D03*
D16*
X122555000Y-81280000D03*
D17*
X125095000Y-81280000D03*
D18*
X118745000Y-76200000D03*
X128905000Y-76200000D03*
D13*
X307300000Y-52650000D02*
X307340000Y-52070000D01*
D14*
X307340000Y-52070000D03*
D13*
X300990000Y-54610000D02*
X302300002Y-53150000D01*
D15*
X304800000Y-57150000D03*
D14*
X302300000Y-53150000D03*
D16*
X303530000Y-62230000D03*
D17*
X306070000Y-62230000D03*
D18*
X299720000Y-57150000D03*
X309880000Y-57150000D03*
D13*
X131087500Y-90750000D02*
X131127500Y-90170000D01*
D14*
X131127500Y-90170000D03*
D13*
X124777500Y-92710000D02*
X126087502Y-91250000D01*
D15*
X128587500Y-95250000D03*
D14*
X126087500Y-91250000D03*
D16*
X127317500Y-100330000D03*
D17*
X129857500Y-100330000D03*
D18*
X123507500Y-95250000D03*
X133667500Y-95250000D03*
D13*
X66793750Y-90750000D02*
X66833750Y-90170000D01*
D14*
X66833750Y-90170000D03*
D13*
X60483750Y-92710000D02*
X61793752Y-91250000D01*
D15*
X64293750Y-95250000D03*
D14*
X61793750Y-91250000D03*
D16*
X63023750Y-100330000D03*
D17*
X65563750Y-100330000D03*
D18*
X59213750Y-95250000D03*
X69373750Y-95250000D03*
D13*
X140612500Y-109800000D02*
X140652500Y-109220000D01*
D14*
X140652500Y-109220000D03*
D13*
X134302500Y-111760000D02*
X135612502Y-110300000D01*
D15*
X138112500Y-114300000D03*
D14*
X135612500Y-110300000D03*
D16*
X136842500Y-119380000D03*
D17*
X139382500Y-119380000D03*
D18*
X133032500Y-114300000D03*
X143192500Y-114300000D03*
D13*
X326350000Y-52650000D02*
X326390000Y-52070000D01*
D14*
X326390000Y-52070000D03*
D13*
X320040000Y-54610000D02*
X321350002Y-53150000D01*
D15*
X323850000Y-57150000D03*
D14*
X321350000Y-53150000D03*
D16*
X322580000Y-62230000D03*
D17*
X325120000Y-62230000D03*
D18*
X318770000Y-57150000D03*
X328930000Y-57150000D03*
D13*
X316825000Y-52650000D02*
X316865000Y-52070000D01*
D14*
X316865000Y-52070000D03*
D13*
X310515000Y-54610000D02*
X311825002Y-53150000D01*
D15*
X314325000Y-57150000D03*
D14*
X311825000Y-53150000D03*
D16*
X313055000Y-62230000D03*
D17*
X315595000Y-62230000D03*
D18*
X309245000Y-57150000D03*
X319405000Y-57150000D03*
D19*
X302387000Y-50165000D03*
X326263000Y-50165000D03*
D15*
X302387000Y-65405000D03*
X326263000Y-65405000D03*
D13*
X178712500Y-109800000D02*
X178752500Y-109220000D01*
D14*
X178752500Y-109220000D03*
D13*
X172402500Y-111760000D02*
X173712502Y-110300000D01*
D15*
X176212500Y-114300000D03*
D14*
X173712500Y-110300000D03*
D16*
X174942500Y-119380000D03*
D17*
X177482500Y-119380000D03*
D18*
X171132500Y-114300000D03*
X181292500Y-114300000D03*
D13*
X92987500Y-90750000D02*
X93027500Y-90170000D01*
D14*
X93027500Y-90170000D03*
D13*
X86677500Y-92710000D02*
X87987502Y-91250000D01*
D15*
X90487500Y-95250000D03*
D14*
X87987500Y-91250000D03*
D16*
X89217500Y-100330000D03*
D17*
X91757500Y-100330000D03*
D18*
X85407500Y-95250000D03*
X95567500Y-95250000D03*
D13*
X288250000Y-52650000D02*
X288290000Y-52070000D01*
D14*
X288290000Y-52070000D03*
D13*
X281940000Y-54610000D02*
X283250002Y-53150000D01*
D15*
X285750000Y-57150000D03*
D14*
X283250000Y-53150000D03*
D16*
X284480000Y-62230000D03*
D17*
X287020000Y-62230000D03*
D18*
X280670000Y-57150000D03*
X290830000Y-57150000D03*
D13*
X264437500Y-90750000D02*
X264477500Y-90170000D01*
D14*
X264477500Y-90170000D03*
D13*
X258127500Y-92710000D02*
X259437502Y-91250000D01*
D15*
X261937500Y-95250000D03*
D14*
X259437500Y-91250000D03*
D16*
X260667500Y-100330000D03*
D17*
X263207500Y-100330000D03*
D18*
X256857500Y-95250000D03*
X267017500Y-95250000D03*
D13*
X254912500Y-109800000D02*
X254952500Y-109220000D01*
D14*
X254952500Y-109220000D03*
D13*
X248602500Y-111760000D02*
X249912502Y-110300000D01*
D15*
X252412500Y-114300000D03*
D14*
X249912500Y-110300000D03*
D16*
X251142500Y-119380000D03*
D17*
X253682500Y-119380000D03*
D18*
X247332500Y-114300000D03*
X257492500Y-114300000D03*
D13*
X269200000Y-52650000D02*
X269240000Y-52070000D01*
D14*
X269240000Y-52070000D03*
D13*
X262890000Y-54610000D02*
X264200002Y-53150000D01*
D15*
X266700000Y-57150000D03*
D14*
X264200000Y-53150000D03*
D16*
X265430000Y-62230000D03*
D17*
X267970000Y-62230000D03*
D18*
X261620000Y-57150000D03*
X271780000Y-57150000D03*
D13*
X235862500Y-109800000D02*
X235902500Y-109220000D01*
D14*
X235902500Y-109220000D03*
D13*
X229552500Y-111760000D02*
X230862502Y-110300000D01*
D15*
X233362500Y-114300000D03*
D14*
X230862500Y-110300000D03*
D16*
X232092500Y-119380000D03*
D17*
X234632500Y-119380000D03*
D18*
X228282500Y-114300000D03*
X238442500Y-114300000D03*
D13*
X231100000Y-52650000D02*
X231140000Y-52070000D01*
D14*
X231140000Y-52070000D03*
D13*
X224790000Y-54610000D02*
X226100002Y-53150000D01*
D15*
X228600000Y-57150000D03*
D14*
X226100000Y-53150000D03*
D16*
X227330000Y-62230000D03*
D17*
X229870000Y-62230000D03*
D18*
X223520000Y-57150000D03*
X233680000Y-57150000D03*
D13*
X212050000Y-52650000D02*
X212090000Y-52070000D01*
D14*
X212090000Y-52070000D03*
D13*
X205740000Y-54610000D02*
X207050002Y-53150000D01*
D15*
X209550000Y-57150000D03*
D14*
X207050000Y-53150000D03*
D16*
X208280000Y-62230000D03*
D17*
X210820000Y-62230000D03*
D18*
X204470000Y-57150000D03*
X214630000Y-57150000D03*
D13*
X193000000Y-52650000D02*
X193040000Y-52070000D01*
D14*
X193040000Y-52070000D03*
D13*
X186690000Y-54610000D02*
X188000002Y-53150000D01*
D15*
X190500000Y-57150000D03*
D14*
X188000000Y-53150000D03*
D16*
X189230000Y-62230000D03*
D17*
X191770000Y-62230000D03*
D18*
X185420000Y-57150000D03*
X195580000Y-57150000D03*
D13*
X173950000Y-52650000D02*
X173990000Y-52070000D01*
D14*
X173990000Y-52070000D03*
D13*
X167640000Y-54610000D02*
X168950002Y-53150000D01*
D15*
X171450000Y-57150000D03*
D14*
X168950000Y-53150000D03*
D16*
X170180000Y-62230000D03*
D17*
X172720000Y-62230000D03*
D18*
X166370000Y-57150000D03*
X176530000Y-57150000D03*
D13*
X154900000Y-52650000D02*
X154940000Y-52070000D01*
D14*
X154940000Y-52070000D03*
D13*
X148590000Y-54610000D02*
X149900002Y-53150000D01*
D15*
X152400000Y-57150000D03*
D14*
X149900000Y-53150000D03*
D16*
X151130000Y-62230000D03*
D17*
X153670000Y-62230000D03*
D18*
X147320000Y-57150000D03*
X157480000Y-57150000D03*
D13*
X135850000Y-52650000D02*
X135890000Y-52070000D01*
D14*
X135890000Y-52070000D03*
D13*
X129540000Y-54610000D02*
X130850002Y-53150000D01*
D15*
X133350000Y-57150000D03*
D14*
X130850000Y-53150000D03*
D16*
X132080000Y-62230000D03*
D17*
X134620000Y-62230000D03*
D18*
X128270000Y-57150000D03*
X138430000Y-57150000D03*
D13*
X116800000Y-52650000D02*
X116840000Y-52070000D01*
D14*
X116840000Y-52070000D03*
D13*
X110490000Y-54610000D02*
X111800002Y-53150000D01*
D15*
X114300000Y-57150000D03*
D14*
X111800000Y-53150000D03*
D16*
X113030000Y-62230000D03*
D17*
X115570000Y-62230000D03*
D18*
X109220000Y-57150000D03*
X119380000Y-57150000D03*
D13*
X97750000Y-52650000D02*
X97790000Y-52070000D01*
D14*
X97790000Y-52070000D03*
D13*
X91440000Y-54610000D02*
X92750002Y-53150000D01*
D15*
X95250000Y-57150000D03*
D14*
X92750000Y-53150000D03*
D16*
X93980000Y-62230000D03*
D17*
X96520000Y-62230000D03*
D18*
X90170000Y-57150000D03*
X100330000Y-57150000D03*
D13*
X78700000Y-52650000D02*
X78740000Y-52070000D01*
D14*
X78740000Y-52070000D03*
D13*
X72390000Y-54610000D02*
X73700002Y-53150000D01*
D15*
X76200000Y-57150000D03*
D14*
X73700000Y-53150000D03*
D16*
X74930000Y-62230000D03*
D17*
X77470000Y-62230000D03*
D18*
X71120000Y-57150000D03*
X81280000Y-57150000D03*
D13*
X250150000Y-52650000D02*
X250190000Y-52070000D01*
D14*
X250190000Y-52070000D03*
D13*
X243840000Y-54610000D02*
X245150002Y-53150000D01*
D15*
X247650000Y-57150000D03*
D14*
X245150000Y-53150000D03*
D16*
X246380000Y-62230000D03*
D17*
X248920000Y-62230000D03*
D18*
X242570000Y-57150000D03*
X252730000Y-57150000D03*
D20*
X287032000Y-103378000D03*
X288532000Y-103378000D03*
D21*
X68580000Y-57670000D03*
X68580000Y-59170000D03*
X65024000Y-59170000D03*
X65024000Y-57670000D03*
D20*
X161786000Y-134747000D03*
X160286000Y-134747000D03*
X170065000Y-131445000D03*
X171565000Y-131445000D03*
X170065000Y-128905000D03*
X171565000Y-128905000D03*
X286079500Y-100838000D03*
X287579500Y-100838000D03*
D21*
X154051000Y-125996000D03*
X154051000Y-127496000D03*
D22*
X113284000Y-124575000D03*
X113284000Y-123075000D03*
X267589000Y-67425000D03*
X267589000Y-65925000D03*
X65659000Y-124575000D03*
X65659000Y-123075000D03*
X315214000Y-67425000D03*
X315214000Y-65925000D03*
X79502000Y-67425000D03*
X79502000Y-65925000D03*
X303784000Y-124575000D03*
X303784000Y-123075000D03*
X124714000Y-67425000D03*
X124714000Y-65925000D03*
X256159000Y-124575000D03*
X256159000Y-123075000D03*
X172339000Y-67425000D03*
X172339000Y-65925000D03*
X220091000Y-124575000D03*
X220091000Y-123075000D03*
X219964000Y-67425000D03*
X219964000Y-65925000D03*
X176530000Y-124575000D03*
X176530000Y-123075000D03*
X290703000Y-102985000D03*
X290703000Y-101485000D03*
X295275000Y-101969000D03*
X295275000Y-100469000D03*
X299085000Y-96000000D03*
X299085000Y-94500000D03*
D23*
X292977000Y-89789000D03*
X291477000Y-89789000D03*
D22*
X296799000Y-96000000D03*
X296799000Y-94500000D03*
D23*
X292977000Y-87630000D03*
X291477000Y-87630000D03*
D22*
X297561000Y-101080000D03*
X297561000Y-99580000D03*
X292989000Y-102985000D03*
X292989000Y-101485000D03*
D23*
X136513000Y-133731000D03*
X135013000Y-133731000D03*
X147586000Y-122809000D03*
X149086000Y-122809000D03*
D22*
X154051000Y-130568000D03*
X154051000Y-132068000D03*
D23*
X137045000Y-137668000D03*
X138545000Y-137668000D03*
D22*
X136525000Y-131306000D03*
X136525000Y-129806000D03*
D23*
X131203000Y-133731000D03*
X132703000Y-133731000D03*
D24*
X288884000Y-98364000D03*
X289284000Y-98364000D03*
X289684000Y-98364000D03*
X290084000Y-98364000D03*
X290484000Y-98364000D03*
X290884000Y-98364000D03*
X291284000Y-98364000D03*
X291684000Y-98364000D03*
X292084000Y-98364000D03*
X292484000Y-98364000D03*
X292884000Y-98364000D03*
X293284000Y-98364000D03*
D25*
X293944000Y-97704000D03*
X293944000Y-97304000D03*
X293944000Y-96904000D03*
X293944000Y-96504000D03*
X293944000Y-96104000D03*
X293944000Y-95704000D03*
X293944000Y-95304000D03*
X293944000Y-94904000D03*
X293944000Y-94504000D03*
X293944000Y-94104000D03*
X293944000Y-93704000D03*
X293944000Y-93304000D03*
D24*
X293284000Y-92644000D03*
X292884000Y-92644000D03*
X292484000Y-92644000D03*
X292084000Y-92644000D03*
X291684000Y-92644000D03*
X291284000Y-92644000D03*
X290884000Y-92644000D03*
X290484000Y-92644000D03*
X290084000Y-92644000D03*
X289684000Y-92644000D03*
X289284000Y-92644000D03*
X288884000Y-92644000D03*
D25*
X288224000Y-93304000D03*
X288224000Y-93704000D03*
X288224000Y-94104000D03*
X288224000Y-94504000D03*
X288224000Y-94904000D03*
X288224000Y-95304000D03*
X288224000Y-95704000D03*
X288224000Y-96104000D03*
X288224000Y-96504000D03*
X288224000Y-96904000D03*
X288224000Y-97304000D03*
X288224000Y-97704000D03*
D26*
X291084000Y-95504000D03*
D27*
X73200000Y-75850000D03*
D28*
X176200000Y-94950000D03*
X238500000Y-133150000D03*
X308050000Y-75850000D03*
D29*
X73200000Y-73550000D03*
X70900000Y-75850000D03*
X75500000Y-75850000D03*
X73200000Y-78150000D03*
X71573654Y-74223654D03*
X74826346Y-74223654D03*
X71573654Y-77476346D03*
X74826346Y-77476346D03*
X308050000Y-73550000D03*
X308050000Y-78150000D03*
X309250000Y-78150000D03*
X306850000Y-78150000D03*
X306850000Y-73550000D03*
X309250000Y-73533000D03*
X238500000Y-130850000D03*
X238500000Y-135450000D03*
X239700000Y-130850000D03*
X237300000Y-130850000D03*
X237300000Y-135450000D03*
X239700000Y-135450000D03*
X176200000Y-92650000D03*
X177400000Y-92650000D03*
X175000000Y-92650000D03*
X176200000Y-97250000D03*
X175000000Y-97250000D03*
X177400000Y-97250000D03*
X54400000Y-104450000D03*
X51800000Y-101850000D03*
X51800000Y-107050000D03*
X53638478Y-102611522D03*
X53638478Y-106288478D03*
X49757965Y-101850000D03*
X49757965Y-107050000D03*
X326600000Y-104450000D03*
X327361522Y-102611522D03*
X329200000Y-101850000D03*
X331242035Y-101850000D03*
X331242035Y-107050000D03*
X329200000Y-107050000D03*
X327361522Y-106288478D03*
D30*
X209677000Y-132842000D03*
X210185000Y-133858000D03*
X209169000Y-133858000D03*
X208153000Y-133858000D03*
X208661000Y-132842000D03*
X209169000Y-131826000D03*
X210693000Y-134874000D03*
X207645000Y-134874000D03*
D31*
X63347600Y-52250000D03*
X69127600Y-52250000D03*
D32*
X65987600Y-54195000D03*
X66487600Y-54195000D03*
X66987600Y-54195000D03*
X65487600Y-54195000D03*
X67487600Y-54195000D03*
X64987600Y-54195000D03*
X67987600Y-54195000D03*
X64487600Y-54195000D03*
D33*
X63787600Y-54195000D03*
X68687600Y-54195000D03*
X63012600Y-54195000D03*
X69462600Y-54195000D03*
D34*
X310293750Y-136921875D03*
X313593750Y-136921875D03*
D35*
X311943750Y-132618750D03*
X311943750Y-129318750D03*
X278606250Y-137381250D03*
X278606250Y-134081250D03*
X257175000Y-135000000D03*
X257175000Y-131700000D03*
D36*
X65421000Y-63307000D03*
X67421000Y-63307000D03*
X65421000Y-61407000D03*
D37*
X67421000Y-61607000D03*
D38*
X62611000Y-63307000D03*
X62611000Y-61407000D03*
D39*
X160086000Y-138826000D03*
X160086000Y-137526000D03*
X160086000Y-138176000D03*
X161986000Y-137526000D03*
X161986000Y-138826000D03*
D40*
X121462500Y-122175000D03*
X121462500Y-125475000D03*
X116662500Y-125475000D03*
X116662500Y-122175000D03*
X264337500Y-65025000D03*
X264337500Y-68325000D03*
X259537500Y-68325000D03*
X259537500Y-65025000D03*
X73837500Y-122175000D03*
X73837500Y-125475000D03*
X69037500Y-125475000D03*
X69037500Y-122175000D03*
X311962500Y-65025000D03*
X311962500Y-68325000D03*
X307162500Y-68325000D03*
X307162500Y-65025000D03*
X76218750Y-65025000D03*
X76218750Y-68325000D03*
X71418750Y-68325000D03*
X71418750Y-65025000D03*
X311962500Y-122175000D03*
X311962500Y-125475000D03*
X307162500Y-125475000D03*
X307162500Y-122175000D03*
X121462500Y-65025000D03*
X121462500Y-68325000D03*
X116662500Y-68325000D03*
X116662500Y-65025000D03*
X264337500Y-122175000D03*
X264337500Y-125475000D03*
X259537500Y-125475000D03*
X259537500Y-122175000D03*
X169087500Y-65025000D03*
X169087500Y-68325000D03*
X164287500Y-68325000D03*
X164287500Y-65025000D03*
X216712500Y-122175000D03*
X216712500Y-125475000D03*
X211912500Y-125475000D03*
X211912500Y-122175000D03*
X216712500Y-65025000D03*
X216712500Y-68325000D03*
X211912500Y-68325000D03*
X211912500Y-65025000D03*
X173215000Y-122175000D03*
X173215000Y-125475000D03*
X168415000Y-125475000D03*
X168415000Y-122175000D03*
D41*
X168148000Y-135509000D03*
X166878000Y-135509000D03*
X168148000Y-138049000D03*
X166878000Y-138049000D03*
D42*
X167513000Y-134239000D03*
D43*
X166497000Y-139319000D03*
X168529000Y-139319000D03*
D44*
X170053000Y-135509000D03*
X164973000Y-135509000D03*
D45*
X170053000Y-138049000D03*
D44*
X164973000Y-138049000D03*
D35*
X121443750Y-135000000D03*
X121443750Y-131700000D03*
X95250000Y-135000000D03*
X95250000Y-131700000D03*
X69056250Y-135000000D03*
X69056250Y-131700000D03*
X314325000Y-115950000D03*
X314325000Y-112650000D03*
X289321875Y-115950000D03*
X289321875Y-112650000D03*
X263128125Y-115950000D03*
X263128125Y-112650000D03*
X197643750Y-135000000D03*
X197643750Y-131700000D03*
X259556250Y-115950000D03*
X259556250Y-112650000D03*
X240506250Y-115950000D03*
X240506250Y-112650000D03*
X221456250Y-115950000D03*
X221456250Y-112650000D03*
X202406250Y-115950000D03*
X202406250Y-112650000D03*
X183356250Y-115950000D03*
X183356250Y-112650000D03*
X164306250Y-115950000D03*
X164306250Y-112650000D03*
X126206250Y-115950000D03*
X126206250Y-112650000D03*
X111125000Y-115950000D03*
X111125000Y-112650000D03*
X92075000Y-115950000D03*
X92075000Y-112650000D03*
X76200000Y-115950000D03*
X76200000Y-112650000D03*
X304006250Y-96900000D03*
X304006250Y-93600000D03*
X273050000Y-96900000D03*
X273050000Y-93600000D03*
X269081250Y-96900000D03*
X269081250Y-93600000D03*
X250031250Y-96900000D03*
X250031250Y-93600000D03*
X230981250Y-96900000D03*
X230981250Y-93600000D03*
X211931250Y-96900000D03*
X211931250Y-93600000D03*
X192881250Y-96900000D03*
X192881250Y-93600000D03*
X158353125Y-96900000D03*
X158353125Y-93600000D03*
X154781250Y-96900000D03*
X154781250Y-93600000D03*
X120253125Y-96900000D03*
X120253125Y-93600000D03*
X116681250Y-96900000D03*
X116681250Y-93600000D03*
X97631250Y-96900000D03*
X97631250Y-93600000D03*
X52387500Y-96900000D03*
X52387500Y-93600000D03*
D34*
X306721875Y-82153125D03*
X310021875Y-82153125D03*
D35*
X302418750Y-77850000D03*
X302418750Y-74550000D03*
X283368750Y-77850000D03*
X283368750Y-74550000D03*
X264318750Y-77850000D03*
X264318750Y-74550000D03*
X245268750Y-77850000D03*
X245268750Y-74550000D03*
X226218750Y-77850000D03*
X226218750Y-74550000D03*
X207168750Y-77850000D03*
X207168750Y-74550000D03*
X188118750Y-77850000D03*
X188118750Y-74550000D03*
X169068750Y-77850000D03*
X169068750Y-74550000D03*
X150018750Y-77850000D03*
X150018750Y-74550000D03*
X130968750Y-77850000D03*
X130968750Y-74550000D03*
X111918750Y-77850000D03*
X111918750Y-74550000D03*
X92868750Y-77850000D03*
X92868750Y-74550000D03*
X53578125Y-77850000D03*
X53578125Y-74550000D03*
D34*
X293625000Y-60721875D03*
X296925000Y-60721875D03*
D35*
X296465625Y-56418750D03*
X296465625Y-53118750D03*
X292893750Y-56418750D03*
X292893750Y-53118750D03*
X273843750Y-58800000D03*
X273843750Y-55500000D03*
X254793750Y-58800000D03*
X254793750Y-55500000D03*
X235743750Y-58800000D03*
X235743750Y-55500000D03*
X216693750Y-58800000D03*
X216693750Y-55500000D03*
X197643750Y-58800000D03*
X197643750Y-55500000D03*
X178593750Y-58800000D03*
X178593750Y-55500000D03*
X159543750Y-58800000D03*
X159543750Y-55500000D03*
X140493750Y-58800000D03*
X140493750Y-55500000D03*
X121443750Y-58800000D03*
X121443750Y-55500000D03*
X102393750Y-58800000D03*
X102393750Y-55500000D03*
X83343750Y-58800000D03*
X83343750Y-55500000D03*
X52387500Y-62371875D03*
X52387500Y-59071875D03*
D46*
X134096000Y-129352000D03*
X134096000Y-131252000D03*
X132096000Y-130302000D03*
D47*
X149478500Y-137399000D03*
X148678500Y-137399000D03*
X147878500Y-137399000D03*
X147078500Y-137399000D03*
X146278500Y-137399000D03*
X145478500Y-137399000D03*
X144678500Y-137399000D03*
X143878500Y-137399000D03*
X143078500Y-137399000D03*
X142278500Y-137399000D03*
X141478500Y-137399000D03*
D48*
X139778500Y-135699000D03*
X139778500Y-134899000D03*
X139778500Y-134099000D03*
X139778500Y-133299000D03*
X139778500Y-132499000D03*
X139778500Y-131699000D03*
X139778500Y-130899000D03*
X139778500Y-130099000D03*
X139778500Y-129299000D03*
X139778500Y-128499000D03*
X139778500Y-127699000D03*
D47*
X141478500Y-125999000D03*
X142278500Y-125999000D03*
X143078500Y-125999000D03*
X143878500Y-125999000D03*
X144678500Y-125999000D03*
X145478500Y-125999000D03*
X146278500Y-125999000D03*
X147078500Y-125999000D03*
X147878500Y-125999000D03*
X148678500Y-125999000D03*
X149478500Y-125999000D03*
D48*
X151178500Y-127699000D03*
X151178500Y-128499000D03*
X151178500Y-129299000D03*
X151178500Y-130099000D03*
X151178500Y-130899000D03*
X151178500Y-131699000D03*
X151178500Y-132499000D03*
X151178500Y-133299000D03*
X151178500Y-134099000D03*
X151178500Y-134899000D03*
X151178500Y-135699000D03*
D49*
X73966000Y-94016000D03*
X80466000Y-98516000D03*
X73966000Y-98516000D03*
X80466000Y-94016000D03*
D13*
X283487500Y-90750000D02*
X283527500Y-90170000D01*
D14*
X283527500Y-90170000D03*
D13*
X277177500Y-92710000D02*
X278487502Y-91250000D01*
D15*
X280987500Y-95250000D03*
D14*
X278487500Y-91250000D03*
D16*
X279717500Y-100330000D03*
D17*
X282257500Y-100330000D03*
D18*
X275907500Y-95250000D03*
X286067500Y-95250000D03*
M02*
