M48
INCH,TZ
T1C0.016
T2C0.024
T3C0.030
T4C0.039
T5C0.041
T6C0.058
T7C0.098
T8C0.098
T9C0.026
T10C0.039
T11C0.039
T12C0.067
T13C0.120
T14C0.157
%
G90
G05
T1
X23050Y-55450
X23650Y-23250
X25200Y-24900
X25300Y-36400
X25350Y-25350
X25600Y-23050
X26050Y-19163
X27350Y-26900
X27500Y-25350
X27700Y-23350
X27900Y-36700
X28300Y-33000
X28481Y-47350
X28550Y-24500
X28900Y-33600
X29050Y-26200
X29250Y-27057
X29550Y-31750
X29800Y-47340
X29893Y-20307
X30040Y-49820
X30150Y-32350
X30550Y-48800
X32150Y-35700
X32350Y-38000
X36828Y-37300
X38100Y-49350
X39100Y-50600
X39150Y-39350
X39420Y-25320
X39420Y-26960
X41250Y-49350
X42142Y-43649
X44328Y-37250
X45100Y-26150
X45700Y-46450
X45700Y-47500
X46450Y-53850
X46500Y-38300
X46950Y-25600
X47050Y-48100
X47200Y-54200
X47650Y-52750
X48150Y-50518
X50250Y-55700
X50820Y-54920
X51150Y-45200
X51150Y-46950
X51250Y-55700
X51550Y-54468
X51828Y-37350
X52250Y-30750
X52250Y-50950
X52350Y-46500
X52700Y-46500
X53450Y-38300
X53450Y-38650
X53550Y-54268
X53700Y-23250
X53750Y-55700
X53760Y-49980
X54750Y-55700
X55050Y-38300
X55050Y-38650
X55465Y-44208
X55500Y-41200
X55600Y-51550
X55700Y-41500
X55720Y-48220
X55750Y-55700
X56000Y-42300
X56500Y-40200
X56650Y-53500
X56750Y-40450
X56750Y-55700
X57000Y-44220
X57095Y-50905
X57100Y-45250
X57100Y-45600
X57750Y-55700
X57900Y-50150
X57905Y-48750
X58600Y-45250
X58600Y-45600
X58750Y-55700
X58950Y-51500
X59328Y-37300
X59680Y-25480
X59680Y-26820
X59750Y-55700
X59800Y-48250
X60194Y-50294
X60450Y-49900
X60550Y-48400
X60565Y-54118
X60600Y-49050
X60750Y-55700
X60950Y-50700
X61200Y-25850
X61273Y-48810
X61400Y-48000
X61510Y-48573
X61750Y-55700
X63200Y-49750
X63732Y-52318
X64000Y-51400
X64250Y-50550
X64700Y-46100
X64700Y-51400
X65150Y-52250
X65200Y-55400
X65400Y-50800
X66300Y-49950
X66828Y-37350
X68000Y-45950
X70557Y-44447
X71300Y-44100
X72650Y-41600
X72882Y-41900
X72882Y-42250
X72882Y-42600
X72882Y-42950
X72882Y-43300
X72882Y-43650
X72882Y-44000
X72882Y-45650
X74000Y-40600
X74100Y-26100
X74100Y-26450
X74100Y-26800
X74250Y-31150
X74328Y-37350
X74400Y-48400
X74400Y-48750
X74400Y-49100
X74618Y-41900
X74618Y-42250
X74618Y-42600
X74618Y-42950
X74618Y-43300
X74618Y-43650
X74850Y-41600
X74900Y-45950
X74950Y-26100
X74950Y-26450
X74950Y-26800
X75700Y-30950
X75950Y-38600
X76050Y-26000
X76850Y-38450
X78100Y-53900
X78360Y-24880
X79500Y-50850
X79550Y-53100
X81350Y-53400
X81500Y-48400
X81500Y-49100
X81700Y-54400
X81828Y-37339
X82050Y-27000
X82400Y-53100
X82650Y-52400
X83430Y-48600
X84750Y-31900
X85300Y-48600
X85350Y-49950
X88050Y-47150
X88800Y-44950
X89328Y-37350
X92300Y-50200
X93050Y-50350
X95200Y-49200
X95950Y-46850
X96828Y-37300
X97624Y-50500
X98550Y-26950
X98750Y-48900
X99550Y-49150
X101400Y-48350
X102900Y-48350
X104100Y-41900
X104328Y-37350
X104850Y-46650
X112500Y-43400
X113300Y-49050
X113600Y-26950
X113850Y-43100
X113950Y-46850
X114350Y-41550
X114950Y-25350
X117750Y-25600
X118500Y-49150
X119060Y-23200
X120000Y-20000
X121650Y-26100
X121950Y-51550
X122550Y-32350
X123650Y-49000
X126350Y-37200
X127150Y-30950
T3
X64950Y-53350
X64950Y-54350
X66950Y-53350
X66950Y-54350
T4
X29120Y-37014
X29120Y-38786
X31680Y-37014
X31680Y-38786
T5
X22000Y-24500
X22937Y-39500
X23000Y-24500
X23875Y-32000
X23875Y-54500
X23938Y-39500
X24812Y-39500
X24875Y-32000
X24875Y-54500
X25813Y-39500
X26687Y-47000
X27688Y-47000
X29500Y-24500
X30500Y-24500
X33250Y-32000
X33250Y-54500
X34188Y-54500
X34250Y-32000
X34250Y-54500
X35125Y-39500
X35188Y-54500
X36125Y-39500
X37000Y-24500
X38000Y-24500
X38875Y-47000
X39875Y-47000
X40750Y-32000
X41750Y-32000
X42625Y-39500
X42625Y-54500
X43625Y-39500
X43625Y-54500
X44500Y-24500
X44500Y-54500
X45500Y-24500
X45500Y-54500
X46375Y-47000
X47375Y-47000
X48250Y-32000
X49250Y-32000
X50125Y-39500
X51125Y-39500
X52000Y-24500
X53000Y-24500
X53875Y-47000
X54875Y-47000
X55750Y-32000
X56750Y-32000
X57625Y-39500
X58625Y-39500
X59500Y-24500
X60500Y-24500
X61375Y-47000
X62375Y-47000
X63250Y-32000
X64250Y-32000
X65125Y-39500
X66125Y-39500
X67000Y-24500
X68000Y-24500
X68875Y-47000
X69875Y-47000
X70750Y-32000
X71750Y-32000
X72625Y-39500
X73625Y-39500
X74500Y-24500
X74500Y-54500
X75500Y-24500
X75500Y-54500
X76375Y-47000
X77375Y-47000
X78250Y-32000
X79250Y-32000
X80125Y-39500
X81125Y-39500
X82000Y-24500
X83000Y-24500
X83875Y-47000
X84875Y-47000
X85750Y-32000
X86750Y-32000
X87625Y-39500
X88625Y-39500
X89500Y-24500
X90500Y-24500
X91375Y-47000
X92375Y-47000
X93250Y-32000
X94250Y-32000
X95125Y-39500
X96125Y-39500
X97000Y-24500
X98000Y-24500
X98875Y-47000
X99875Y-47000
X100750Y-32000
X101750Y-32000
X102625Y-39500
X103563Y-54500
X103625Y-39500
X104500Y-24500
X104500Y-54500
X104562Y-54500
X105500Y-24500
X105500Y-54500
X106375Y-47000
X106375Y-54500
X107375Y-47000
X107375Y-54500
X108250Y-32000
X109188Y-47000
X109250Y-32000
X110125Y-39500
X110187Y-47000
X111125Y-39500
X112000Y-24500
X112000Y-54500
X113000Y-24500
X113000Y-54500
X114813Y-54500
X115750Y-32000
X115750Y-54500
X115812Y-54500
X116688Y-47000
X116750Y-32000
X116750Y-54500
X117687Y-47000
X119500Y-24500
X119500Y-47000
X119500Y-54500
X120438Y-47000
X120500Y-24500
X120500Y-47000
X120500Y-54500
X121437Y-47000
X122313Y-39500
X123250Y-24500
X123312Y-39500
X124250Y-24500
X125125Y-32000
X125125Y-54500
X126125Y-32000
X126125Y-54500
X127000Y-24500
X127000Y-47000
X127000Y-54500
X128000Y-24500
X128000Y-47000
X128000Y-54500
T6
X21000Y-21500
X21516Y-20925
X21938Y-36500
X22453Y-35925
X22875Y-29000
X22875Y-51500
X23391Y-28425
X23391Y-50925
X23484Y-20728
X23500Y-20500
X23813Y-36500
X24328Y-35925
X24422Y-35728
X24438Y-35500
X25359Y-28228
X25359Y-50728
X25375Y-28000
X25375Y-50500
X25688Y-44000
X26203Y-43425
X26297Y-35728
X26313Y-35500
X28172Y-43228
X28188Y-43000
X28500Y-21500
X29016Y-20925
X30984Y-20728
X31000Y-20500
X32250Y-29000
X32250Y-51500
X32766Y-28425
X32766Y-50925
X33188Y-51500
X33703Y-50925
X34125Y-36500
X34641Y-35925
X34734Y-28228
X34734Y-50728
X34750Y-28000
X34750Y-50500
X35672Y-50728
X35688Y-50500
X36000Y-21500
X36516Y-20925
X36609Y-35728
X36625Y-35500
X37875Y-44000
X38391Y-43425
X38484Y-20728
X38500Y-20500
X39750Y-29000
X40266Y-28425
X40359Y-43228
X40375Y-43000
X41625Y-36500
X41625Y-51500
X42141Y-35925
X42141Y-50925
X42234Y-28228
X42250Y-28000
X43500Y-21500
X43500Y-51500
X44016Y-20925
X44016Y-50925
X44109Y-35728
X44109Y-50728
X44125Y-35500
X44125Y-50500
X45375Y-44000
X45891Y-43425
X45984Y-20728
X45984Y-50728
X46000Y-20500
X46000Y-50500
X47250Y-29000
X47766Y-28425
X47859Y-43228
X47875Y-43000
X49125Y-36500
X49641Y-35925
X49734Y-28228
X49750Y-28000
X51000Y-21500
X51516Y-20925
X51609Y-35728
X51625Y-35500
X52875Y-44000
X53391Y-43425
X53484Y-20728
X53500Y-20500
X54750Y-29000
X55266Y-28425
X55359Y-43228
X55375Y-43000
X56625Y-36500
X57141Y-35925
X57234Y-28228
X57250Y-28000
X58500Y-21500
X59016Y-20925
X59109Y-35728
X59125Y-35500
X60375Y-44000
X60891Y-43425
X60984Y-20728
X61000Y-20500
X62250Y-29000
X62766Y-28425
X62859Y-43228
X62875Y-43000
X64125Y-36500
X64641Y-35925
X64734Y-28228
X64750Y-28000
X66000Y-21500
X66516Y-20925
X66609Y-35728
X66625Y-35500
X67875Y-44000
X68391Y-43425
X68484Y-20728
X68500Y-20500
X69750Y-29000
X70266Y-28425
X70359Y-43228
X70375Y-43000
X71625Y-36500
X72141Y-35925
X72234Y-28228
X72250Y-28000
X73500Y-21500
X73500Y-51500
X74016Y-20925
X74016Y-50925
X74109Y-35728
X74125Y-35500
X75375Y-44000
X75891Y-43425
X75984Y-20728
X75984Y-50728
X76000Y-20500
X76000Y-50500
X77250Y-29000
X77766Y-28425
X77859Y-43228
X77875Y-43000
X79125Y-36500
X79641Y-35925
X79734Y-28228
X79750Y-28000
X81000Y-21500
X81516Y-20925
X81609Y-35728
X81625Y-35500
X82875Y-44000
X83391Y-43425
X83484Y-20728
X83500Y-20500
X84750Y-29000
X85266Y-28425
X85359Y-43228
X85375Y-43000
X86625Y-36500
X87141Y-35925
X87234Y-28228
X87250Y-28000
X88500Y-21500
X89016Y-20925
X89109Y-35728
X89125Y-35500
X90375Y-44000
X90891Y-43425
X90984Y-20728
X91000Y-20500
X92250Y-29000
X92766Y-28425
X92859Y-43228
X92875Y-43000
X94125Y-36500
X94641Y-35925
X94734Y-28228
X94750Y-28000
X96000Y-21500
X96516Y-20925
X96609Y-35728
X96625Y-35500
X97875Y-44000
X98391Y-43425
X98484Y-20728
X98500Y-20500
X99750Y-29000
X100266Y-28425
X100359Y-43228
X100375Y-43000
X101625Y-36500
X102141Y-35925
X102234Y-28228
X102250Y-28000
X102563Y-51500
X103078Y-50925
X103500Y-21500
X103500Y-51500
X104016Y-20925
X104016Y-50925
X104109Y-35728
X104125Y-35500
X105047Y-50728
X105063Y-50500
X105375Y-44000
X105375Y-51500
X105891Y-43425
X105891Y-50925
X105984Y-20728
X105984Y-50728
X106000Y-20500
X106000Y-50500
X107250Y-29000
X107766Y-28425
X107859Y-43228
X107859Y-50728
X107875Y-43000
X107875Y-50500
X108188Y-44000
X108703Y-43425
X109125Y-36500
X109641Y-35925
X109734Y-28228
X109750Y-28000
X110672Y-43228
X110688Y-43000
X111000Y-21500
X111000Y-51500
X111516Y-20925
X111516Y-50925
X111609Y-35728
X111625Y-35500
X113484Y-20728
X113484Y-50728
X113500Y-20500
X113500Y-50500
X113813Y-51500
X114328Y-50925
X114750Y-29000
X114750Y-51500
X115266Y-28425
X115266Y-50925
X115688Y-44000
X116203Y-43425
X116297Y-50728
X116313Y-50500
X117234Y-28228
X117234Y-50728
X117250Y-28000
X117250Y-50500
X118172Y-43228
X118188Y-43000
X118500Y-21500
X118500Y-44000
X118500Y-51500
X119016Y-20925
X119016Y-43425
X119016Y-50925
X119438Y-44000
X119953Y-43425
X120984Y-20728
X120984Y-43228
X120984Y-50728
X121000Y-20500
X121000Y-43000
X121000Y-50500
X121313Y-36500
X121828Y-35925
X121922Y-43228
X121938Y-43000
X122250Y-21500
X122766Y-20925
X123797Y-35728
X123813Y-35500
X124125Y-29000
X124125Y-51500
X124641Y-28425
X124641Y-50925
X124734Y-20728
X124750Y-20500
X126000Y-21500
X126000Y-44000
X126000Y-51500
X126516Y-20925
X126516Y-43425
X126516Y-50925
X126609Y-28228
X126609Y-50728
X126625Y-28000
X126625Y-50500
X128484Y-20728
X128484Y-43228
X128484Y-50728
X128500Y-20500
X128500Y-43000
X128500Y-50500
T8
X28819Y-29862
T9
X24940Y-20600
X27216Y-20600
T10
X65550Y-54850
X66350Y-54850
T11
X65950Y-52850
T12
X20500Y-22500
X21438Y-37500
X22375Y-30000
X22375Y-52500
X23313Y-37500
X24500Y-22500
X25188Y-45000
X25437Y-37500
X26375Y-30000
X26375Y-52500
X27312Y-37500
X28000Y-22500
X29187Y-45000
X31750Y-30000
X31750Y-52500
X32000Y-22500
X32688Y-52500
X33625Y-37500
X35500Y-22500
X35750Y-30000
X35750Y-52500
X36688Y-52500
X37375Y-45000
X37625Y-37500
X39250Y-30000
X39500Y-22500
X41125Y-37500
X41125Y-52500
X41375Y-45000
X43000Y-22500
X43000Y-52500
X43250Y-30000
X44875Y-45000
X45125Y-37500
X45125Y-52500
X46750Y-30000
X47000Y-22500
X47000Y-52500
X48625Y-37500
X48875Y-45000
X50500Y-22500
X50750Y-30000
X52375Y-45000
X52625Y-37500
X54250Y-30000
X54500Y-22500
X56125Y-37500
X56375Y-45000
X58000Y-22500
X58250Y-30000
X59875Y-45000
X60125Y-37500
X61750Y-30000
X62000Y-22500
X63625Y-37500
X63875Y-45000
X65500Y-22500
X65750Y-30000
X67375Y-45000
X67625Y-37500
X69250Y-30000
X69500Y-22500
X71125Y-37500
X71375Y-45000
X73000Y-22500
X73000Y-52500
X73250Y-30000
X74875Y-45000
X75125Y-37500
X76750Y-30000
X77000Y-22500
X77000Y-52500
X78625Y-37500
X78875Y-45000
X80500Y-22500
X80750Y-30000
X82375Y-45000
X82625Y-37500
X84250Y-30000
X84500Y-22500
X86125Y-37500
X86375Y-45000
X88000Y-22500
X88250Y-30000
X89875Y-45000
X90125Y-37500
X91750Y-30000
X92000Y-22500
X93625Y-37500
X93875Y-45000
X95500Y-22500
X95750Y-30000
X97375Y-45000
X97625Y-37500
X99250Y-30000
X99500Y-22500
X101125Y-37500
X101375Y-45000
X102062Y-52500
X103000Y-22500
X103000Y-52500
X103250Y-30000
X104875Y-45000
X104875Y-52500
X105125Y-37500
X106063Y-52500
X106750Y-30000
X107000Y-22500
X107000Y-52500
X107687Y-45000
X108625Y-37500
X108875Y-45000
X108875Y-52500
X110500Y-22500
X110500Y-52500
X110750Y-30000
X111688Y-45000
X112625Y-37500
X113312Y-52500
X114250Y-30000
X114250Y-52500
X114500Y-22500
X114500Y-52500
X115187Y-45000
X117313Y-52500
X118000Y-22500
X118000Y-45000
X118000Y-52500
X118250Y-30000
X118250Y-52500
X118937Y-45000
X119188Y-45000
X120812Y-37500
X121750Y-22500
X122000Y-22500
X122000Y-45000
X122000Y-52500
X122938Y-45000
X123625Y-30000
X123625Y-52500
X124813Y-37500
X125500Y-22500
X125500Y-45000
X125500Y-52500
X125750Y-22500
X127625Y-30000
X127625Y-52500
X129500Y-22500
X129500Y-45000
X129500Y-52500
T13
X22500Y-42250
X31875Y-42250
X52500Y-55250
X97500Y-55250
X116250Y-42250
X118125Y-34750
X119063Y-19750
X125625Y-42250
X127500Y-34750
X128438Y-19750
T14
X22500Y-22500
X22500Y-48250
X23438Y-37500
X24375Y-30000
X24375Y-52500
X25313Y-37500
X27188Y-45000
X30000Y-22500
X31875Y-48250
X33750Y-30000
X33750Y-52500
X34688Y-52500
X35625Y-37500
X37500Y-22500
X39375Y-45000
X41250Y-30000
X43125Y-37500
X43125Y-52500
X45000Y-22500
X45000Y-52500
X46875Y-45000
X48750Y-30000
X50625Y-37500
X52500Y-22500
X52500Y-49250
X54375Y-45000
X56250Y-30000
X58125Y-37500
X60000Y-22500
X61875Y-45000
X63750Y-30000
X65625Y-37500
X67500Y-22500
X69375Y-45000
X71250Y-30000
X73125Y-37500
X75000Y-22500
X75000Y-52500
X76875Y-45000
X78750Y-30000
X80625Y-37500
X82500Y-22500
X84375Y-45000
X86250Y-30000
X88125Y-37500
X90000Y-22500
X91875Y-45000
X93750Y-30000
X95625Y-37500
X97500Y-22500
X97500Y-49250
X99375Y-45000
X101250Y-30000
X103125Y-37500
X104063Y-52500
X105000Y-22500
X105000Y-52500
X106875Y-45000
X106875Y-52500
X108750Y-30000
X109688Y-45000
X110625Y-37500
X112500Y-22500
X112500Y-52500
X115313Y-52500
X116250Y-30000
X116250Y-48250
X116250Y-52500
X117188Y-45000
X118125Y-40750
X119063Y-25750
X120000Y-22500
X120000Y-45000
X120000Y-52500
X120938Y-45000
X122813Y-37500
X123750Y-22500
X125625Y-30000
X125625Y-48250
X125625Y-52500
X127500Y-22500
X127500Y-40750
X127500Y-45000
X127500Y-52500
X128438Y-25750
T2
X24377Y-19045G85X24377Y-19281
G05
X24377Y-20592G85X24377Y-21025
G05
X27779Y-19045G85X27779Y-19281
G05
X27779Y-20592G85X27779Y-21025
G05
T7
X68878Y-37382G85X69863Y-37382
G05
X93405Y-52421G85X94390Y-52421
G05
X120787Y-29862G85X121772Y-29862
G05
T0
M30
