0
SECTION
2
HEADER
9
$INSUNITS
70
4
9
$ACADVER
1
AC1014
9
$HANDSEED
5
FFFF
0
ENDSEC
0
SECTION
2
TABLES
0
TABLE
2
VPORT
5
8
100
AcDbSymbolTable
0
ENDTAB
0
TABLE
2
LTYPE
5
5
100
AcDbSymbolTable
0
LTYPE
5
14
100
AcDbSymbolTableRecord
100
AcDbLinetypeTableRecord
2
BYBLOCK
70
0
0
LTYPE
5
15
100
AcDbSymbolTableRecord
100
AcDbLinetypeTableRecord
2
BYLAYER
70
0
0
ENDTAB
0
TABLE
2
LAYER
5
2
100
AcDbSymbolTable
70
2
0
LAYER
5
50
100
AcDbSymbolTableRecord
100
AcDbLayerTableRecord
2
0
70
0
6
CONTINUOUS
0
ENDTAB
0
TABLE
2
STYLE
5
3
100
AcDbSymbolTable
70
1
0
STYLE
5
11
100
AcDbSymbolTableRecord
100
AcDbTextStyleTableRecord
2
STANDARD
70
0
0
ENDTAB
0
TABLE
2
VIEW
5
6
100
AcDbSymbolTable
70
0
0
ENDTAB
0
TABLE
2
UCS
5
7
100
AcDbSymbolTable
70
0
0
ENDTAB
0
TABLE
2
APPID
5
9
100
AcDbSymbolTable
70
2
0
APPID
5
12
100
AcDbSymbolTableRecord
100
AcDbRegAppTableRecord
2
ACAD
70
0
0
ENDTAB
0
TABLE
2
DIMSTYLE
5
A
100
AcDbSymbolTable
70
1
0
ENDTAB
0
TABLE
2
BLOCK_RECORD
5
1
100
AcDbSymbolTable
70
1
0
BLOCK_RECORD
5
1F
100
AcDbSymbolTableRecord
100
AcDbBlockTableRecord
2
*MODEL_SPACE
0
BLOCK_RECORD
5
1B
100
AcDbSymbolTableRecord
100
AcDbBlockTableRecord
2
*PAPER_SPACE
0
ENDTAB
0
ENDSEC
0
SECTION
2
BLOCKS
0
BLOCK
5
20
100
AcDbEntity
100
AcDbBlockBegin
2
*MODEL_SPACE
0
ENDBLK
5
21
100
AcDbEntity
100
AcDbBlockEnd
0
BLOCK
5
1C
100
AcDbEntity
100
AcDbBlockBegin
2
*PAPER_SPACE
0
ENDBLK
5
1D
100
AcDbEntity
100
AcDbBlockEnd
0
ENDSEC
0
SECTION
2
ENTITIES
0
LWPOLYLINE
5
100
100
AcDbEntity
8
0
100
AcDbPolyline
90
32
70
1
43
0.0
10
178.83199999999999
20
22.667300000000004
10
178.83199999999994
20
22.168300000000013
42
0.41421356237312362
10
179.33199999999999
20
21.668300000000009
10
192.33199999999999
20
21.668299999999981
42
0.41421356237310025
10
192.83199999999999
20
22.168299999999999
10
192.83199999999999
20
22.667300000000004
10
193.13200000000001
20
22.667300000000012
42
0.41421356237312623
10
193.63200000000003
20
23.167300000000001
10
193.63200000000006
20
25.267900000000001
42
0.41421356237312101
10
193.13200000000001
20
25.767900000000004
10
192.83199999999999
20
25.767900000000004
10
192.83199999999999
20
31.568100000000001
10
193.13200000000001
20
31.568100000000019
42
0.41421356237312362
10
193.63200000000003
20
32.068100000000001
10
193.63200000000006
20
34.167299999999997
42
0.41421356237312362
10
193.13200000000001
20
34.667299999999997
10
192.83199999999999
20
34.667299999999997
10
192.83199999999999
20
35.167600000000007
42
0.41421356237314189
10
192.33199999999999
20
35.667600000000007
10
179.33199999999999
20
35.6676
42
0.41421356237312623
10
178.83199999999999
20
35.167600000000007
10
178.83199999999999
20
34.667299999999997
10
178.53099999999998
20
34.667299999999983
42
0.41421356237312362
10
178.03099999999998
20
34.167299999999997
10
178.03099999999995
20
32.068100000000001
42
0.41421356237312362
10
178.53099999999998
20
31.568100000000001
10
178.83199999999999
20
31.568100000000001
10
178.83199999999999
20
25.767900000000004
10
178.53099999999998
20
25.767899999999983
42
0.41421356237312101
10
178.03099999999998
20
25.267900000000001
10
178.03099999999995
20
23.167300000000001
42
0.41421356237312101
10
178.53099999999998
20
22.667300000000004
0
LWPOLYLINE
5
101
100
AcDbEntity
8
0
100
AcDbPolyline
90
32
70
1
43
0.0
10
139.93100000000001
20
32.068100000000001
42
0.41421356237310802
10
140.43100000000004
20
31.568100000000001
10
140.732
20
31.568100000000001
10
140.732
20
25.767900000000004
10
140.43100000000004
20
25.767900000000004
42
0.41421356237309243
10
139.93100000000001
20
25.267900000000001
10
139.93100000000001
20
23.167300000000001
42
0.41421356237309243
10
140.43100000000004
20
22.667300000000004
10
140.732
20
22.667300000000004
10
140.732
20
22.168300000000013
42
0.41421356237310802
10
141.232
20
21.668300000000009
10
154.23200000000003
20
21.668300000000002
42
0.41421356237312101
10
154.732
20
22.168299999999999
10
154.732
20
22.667300000000004
10
155.03200000000001
20
22.667300000000008
42
0.41421356237308721
10
155.53200000000001
20
23.167300000000001
10
155.53200000000001
20
25.267900000000001
42
0.41421356237307161
10
155.03200000000001
20
25.767900000000004
10
154.732
20
25.767900000000004
10
154.732
20
31.568100000000001
10
155.03200000000001
20
31.568099999999994
42
0.41421356237307683
10
155.53200000000001
20
32.068100000000001
10
155.53200000000001
20
34.167299999999997
42
0.41421356237307683
10
155.03200000000001
20
34.667299999999997
10
154.732
20
34.667299999999997
10
154.732
20
35.167600000000007
42
0.41421356237305601
10
154.23200000000003
20
35.667600000000007
10
141.232
20
35.667600000000007
42
0.41421356237310802
10
140.732
20
35.167600000000007
10
140.732
20
34.667299999999997
10
140.43100000000004
20
34.66729999999999
42
0.41421356237310802
10
139.93100000000001
20
34.167299999999997
0
LWPOLYLINE
5
102
100
AcDbEntity
8
0
100
AcDbPolyline
90
32
70
1
43
0.0
10
211.38200000000001
20
35.667600000000007
10
198.38200000000001
20
35.667600000000014
42
0.41421356237307422
10
197.88200000000003
20
35.167600000000007
10
197.88200000000003
20
34.667299999999997
10
197.58099999999999
20
34.667300000000004
42
0.41421356237307422
10
197.08100000000002
20
34.167299999999997
10
197.08100000000002
20
32.068100000000001
42
0.41421356237308204
10
197.58099999999999
20
31.568100000000001
10
197.88200000000003
20
31.568100000000001
10
197.88200000000003
20
25.767900000000004
10
197.58099999999999
20
25.767900000000008
42
0.41421356237307422
10
197.08100000000002
20
25.267900000000001
10
197.08100000000005
20
23.167300000000001
42
0.4142135623730846
10
197.58099999999999
20
22.667300000000004
10
197.88200000000003
20
22.667300000000004
10
197.88200000000006
20
22.168299999999999
42
0.4142135623730846
10
198.38200000000001
20
21.668300000000002
10
211.38200000000001
20
21.668299999999981
42
0.41421356237310025
10
211.88200000000001
20
22.168299999999999
10
211.88200000000001
20
22.667300000000004
10
212.1820000000001
20
22.667299999999994
42
0.41421356237307422
10
212.68200000000007
20
23.167300000000001
10
212.68200000000007
20
25.267900000000001
42
0.41421356237312101
10
212.18200000000002
20
25.767900000000004
10
211.88200000000001
20
25.767900000000004
10
211.88200000000001
20
31.568100000000001
10
212.18200000000002
20
31.568100000000019
42
0.41421356237312362
10
212.68200000000004
20
32.068100000000001
10
212.68200000000007
20
34.167299999999997
42
0.41421356237312362
10
212.18200000000002
20
34.667299999999997
10
211.88200000000001
20
34.667299999999997
10
211.88200000000001
20
35.167600000000007
42
0.41421356237314189
0
LWPOLYLINE
5
103
100
AcDbEntity
8
0
100
AcDbPolyline
90
32
70
1
43
0.0
10
159.78200000000001
20
25.767900000000004
10
159.48099999999999
20
25.767900000000004
42
0.41421356237309243
10
158.98099999999999
20
25.267900000000001
10
158.98099999999999
20
23.167300000000001
42
0.41421356237309243
10
159.48099999999999
20
22.667300000000004
10
159.78200000000001
20
22.667300000000004
10
159.78200000000004
20
22.168299999999999
42
0.41421356237314189
10
160.28200000000001
20
21.668300000000002
10
173.28200000000004
20
21.668300000000013
42
0.41421356237312362
10
173.78200000000004
20
22.168299999999999
10
173.78200000000004
20
22.667300000000004
10
174.08199999999999
20
22.667300000000012
42
0.41421356237312623
10
174.58200000000002
20
23.167300000000001
10
174.58200000000005
20
25.267900000000012
42
0.41421356237312101
10
174.08199999999999
20
25.767900000000008
10
173.78200000000004
20
25.767900000000004
10
173.78200000000004
20
31.568100000000001
10
174.08199999999999
20
31.568100000000019
42
0.41421356237312362
10
174.58200000000002
20
32.068100000000001
10
174.58200000000005
20
34.167299999999997
42
0.41421356237312362
10
174.08199999999999
20
34.667299999999997
10
173.78200000000004
20
34.667299999999997
10
173.78200000000007
20
35.167600000000007
42
0.41421356237312101
10
173.28200000000004
20
35.667600000000007
10
160.28200000000004
20
35.6676
42
0.4142135623730846
10
159.78200000000001
20
35.167600000000007
10
159.78200000000001
20
34.667299999999997
10
159.48099999999999
20
34.66729999999999
42
0.41421356237310802
10
158.98099999999999
20
34.167299999999997
10
158.98099999999999
20
32.068100000000001
42
0.41421356237310802
10
159.48099999999999
20
31.568100000000001
10
159.78200000000001
20
31.568100000000001
0
LWPOLYLINE
5
104
100
AcDbEntity
8
0
100
AcDbPolyline
90
32
70
1
43
0.0
10
121.38100000000001
20
25.767900000000004
42
0.41421356237309243
10
120.881
20
25.267900000000001
10
120.881
20
23.167300000000001
42
0.41421356237309243
10
121.38100000000001
20
22.667300000000004
10
121.682
20
22.667300000000004
10
121.682
20
22.168299999999999
42
0.41421356237307161
10
122.18200000000002
20
21.668300000000002
10
135.18200000000002
20
21.668299999999991
42
0.41421356237307422
10
135.68200000000002
20
22.168299999999999
10
135.68200000000002
20
22.667300000000004
10
135.982
20
22.667300000000008
42
0.41421356237308721
10
136.482
20
23.167300000000001
10
136.482
20
25.267900000000012
42
0.41421356237307161
10
135.982
20
25.767900000000008
10
135.68200000000002
20
25.767900000000004
10
135.68200000000002
20
31.568100000000001
10
135.982
20
31.568099999999994
42
0.41421356237307683
10
136.482
20
32.068100000000001
10
136.482
20
34.167299999999997
42
0.41421356237307683
10
135.982
20
34.667299999999997
10
135.68200000000002
20
34.667299999999997
10
135.68200000000002
20
35.167600000000007
42
0.41421356237307161
10
135.18200000000002
20
35.667600000000007
10
122.18200000000002
20
35.667600000000007
42
0.41421356237308721
10
121.682
20
35.167600000000007
10
121.682
20
34.667299999999997
10
121.38100000000001
20
34.66729999999999
42
0.41421356237310802
10
120.881
20
34.167299999999997
10
120.881
20
32.068100000000001
42
0.41421356237310802
10
121.38100000000001
20
31.568100000000001
10
121.682
20
31.568100000000001
10
121.682
20
25.767900000000004
0
LWPOLYLINE
5
105
100
AcDbEntity
8
0
100
AcDbPolyline
90
32
70
1
43
0.0
10
216.93200000000004
20
31.568100000000001
10
216.93200000000004
20
25.767900000000004
10
216.631
20
25.767899999999983
42
0.41421356237312101
10
216.131
20
25.267900000000001
10
216.13099999999997
20
23.167300000000001
42
0.41421356237312101
10
216.631
20
22.667300000000004
10
216.93200000000004
20
22.667300000000004
10
216.93200000000007
20
22.168299999999999
42
0.4142135623730846
10
217.43200000000002
20
21.668300000000002
10
230.43200000000002
20
21.668299999999981
42
0.41421356237310025
10
230.93200000000002
20
22.168299999999999
10
230.93200000000002
20
22.667300000000004
10
231.232
20
22.667299999999987
42
0.41421356237310025
10
231.73200000000003
20
23.167300000000001
10
231.73200000000003
20
25.267900000000001
42
0.41421356237314444
10
231.232
20
25.767900000000004
10
230.93200000000002
20
25.767900000000004
10
230.93200000000002
20
31.568100000000001
10
231.23200000000011
20
31.568099999999998
42
0.41421356237307422
10
231.73200000000008
20
32.068100000000001
10
231.73200000000003
20
34.167299999999997
42
0.41421356237314189
10
231.232
20
34.667299999999997
10
230.93200000000002
20
34.667299999999997
10
230.93200000000002
20
35.167600000000007
42
0.41421356237314189
10
230.43200000000002
20
35.667600000000007
10
217.43200000000002
20
35.667600000000014
42
0.41421356237307422
10
216.93200000000004
20
35.167600000000007
10
216.93200000000004
20
34.667299999999997
10
216.631
20
34.667299999999983
42
0.41421356237312362
10
216.131
20
34.167299999999997
10
216.13099999999997
20
32.068100000000001
42
0.41421356237312362
10
216.631
20
31.568100000000001
0
LWPOLYLINE
5
106
100
AcDbEntity
8
0
100
AcDbPolyline
90
32
70
1
43
0.0
10
257.42599999999999
20
22.667299999999987
42
0.41421356237310025
10
257.92599999999999
20
23.167300000000001
10
257.92599999999999
20
25.267900000000001
42
0.41421356237314444
10
257.42599999999999
20
25.767900000000004
10
257.125
20
25.767900000000004
10
257.125
20
31.568100000000001
10
257.42599999999999
20
31.568099999999987
42
0.41421356237310025
10
257.92599999999999
20
32.068100000000001
10
257.92599999999999
20
34.167299999999997
42
0.41421356237314189
10
257.42599999999999
20
34.667299999999997
10
257.125
20
34.667299999999997
10
257.12500000000006
20
35.167600000000007
42
0.41421356237312101
10
256.625
20
35.667600000000007
10
243.626
20
35.6676
42
0.41421356237312623
10
243.126
20
35.167600000000007
10
243.126
20
34.667299999999997
10
242.82499999999999
20
34.667300000000004
42
0.41421356237307422
10
242.32500000000002
20
34.167299999999997
10
242.32500000000002
20
32.068100000000001
42
0.41421356237308204
10
242.82499999999999
20
31.568100000000001
10
243.126
20
31.568100000000001
10
243.126
20
25.767900000000004
10
242.82499999999999
20
25.767900000000008
42
0.41421356237307422
10
242.32500000000002
20
25.267900000000001
10
242.32500000000005
20
23.167300000000001
42
0.4142135623730846
10
242.82499999999999
20
22.667300000000004
10
243.126
20
22.667300000000004
10
243.12599999999998
20
22.168299999999999
42
0.41421356237312101
10
243.626
20
21.668300000000002
10
256.625
20
21.668300000000013
42
0.41421356237312362
10
257.125
20
22.168299999999999
10
257.125
20
22.667300000000004
0
LWPOLYLINE
5
107
100
AcDbEntity
8
0
100
AcDbPolyline
90
32
70
1
43
0.0
10
288.37
20
34.667299999999997
10
288.07000000000005
20
34.667299999999983
42
0.41421356237312362
10
287.56999999999999
20
34.167299999999997
10
287.56999999999999
20
32.068100000000001
42
0.41421356237312362
10
288.07000000000005
20
31.568100000000001
10
288.37
20
31.568100000000001
10
288.37
20
25.767900000000004
10
288.07000000000005
20
25.767899999999983
42
0.41421356237312101
10
287.56999999999999
20
25.267900000000001
10
287.56999999999999
20
23.167300000000001
42
0.41421356237312101
10
288.07000000000005
20
22.667300000000004
10
288.37
20
22.667300000000004
10
288.37000000000006
20
22.168299999999999
42
0.4142135623730846
10
288.87
20
21.668300000000002
10
301.86900000000003
20
21.668299999999981
42
0.41421356237310025
10
302.36900000000003
20
22.168299999999999
10
302.36900000000003
20
22.667300000000004
10
302.67000000000002
20
22.667300000000012
42
0.41421356237312623
10
303.17000000000002
20
23.167300000000001
10
303.17000000000007
20
25.267900000000001
42
0.41421356237312101
10
302.67000000000002
20
25.767900000000004
10
302.36900000000003
20
25.767900000000004
10
302.36900000000003
20
31.568100000000001
10
302.67000000000002
20
31.568100000000019
42
0.41421356237312362
10
303.17000000000002
20
32.068100000000001
10
303.17000000000007
20
34.167299999999997
42
0.41421356237312362
10
302.67000000000002
20
34.667299999999997
10
302.36900000000003
20
34.667299999999997
10
302.36900000000003
20
35.167600000000007
42
0.41421356237314189
10
301.86900000000003
20
35.667600000000007
10
288.87
20
35.667600000000014
42
0.41421356237307422
10
288.37
20
35.167600000000007
0
LWPOLYLINE
5
108
100
AcDbEntity
8
0
100
AcDbPolyline
90
32
70
1
43
0.0
10
269.82000000000005
20
21.668300000000002
10
282.81900000000013
20
21.668300000000013
42
0.41421356237312362
10
283.31900000000013
20
22.168299999999999
10
283.31900000000013
20
22.667300000000004
10
283.62
20
22.667300000000012
42
0.41421356237312623
10
284.12
20
23.167300000000001
10
284.12000000000006
20
25.267900000000001
42
0.41421356237312101
10
283.62
20
25.767900000000004
10
283.31900000000013
20
25.767900000000004
10
283.31900000000013
20
31.568100000000001
10
283.62
20
31.568100000000019
42
0.41421356237312362
10
284.12
20
32.068100000000001
10
284.12000000000006
20
34.167299999999997
42
0.41421356237312362
10
283.62
20
34.667299999999997
10
283.31900000000013
20
34.667299999999997
10
283.31900000000019
20
35.167600000000007
42
0.41421356237312101
10
282.81900000000013
20
35.667600000000007
10
269.82000000000005
20
35.6676
42
0.41421356237312623
10
269.32000000000005
20
35.167600000000007
10
269.32000000000005
20
34.667299999999997
10
269.01999999999998
20
34.667299999999983
42
0.41421356237312362
10
268.51999999999998
20
34.167299999999997
10
268.51999999999998
20
32.068100000000001
42
0.41421356237312362
10
269.01999999999998
20
31.568100000000001
10
269.32000000000005
20
31.568100000000001
10
269.32000000000005
20
25.767900000000004
10
269.01999999999998
20
25.767899999999983
42
0.41421356237312101
10
268.51999999999998
20
25.267900000000001
10
268.51999999999998
20
23.167300000000001
42
0.41421356237312101
10
269.01999999999998
20
22.667300000000004
10
269.32000000000005
20
22.667300000000004
10
269.32000000000005
20
22.168299999999999
42
0.41421356237312101
0
LWPOLYLINE
5
109
100
AcDbEntity
8
0
100
AcDbPolyline
90
32
70
1
43
0.0
10
29.313400000000005
20
2.6182699999999999
10
49.456500000000013
20
2.6182699999999972
42
0.41421356237309731
10
49.956500000000013
20
3.118269999999999
10
49.956500000000013
20
3.6173500000000001
10
50.257300000000001
20
3.6173499999999987
42
0.41421356237309698
10
50.757300000000001
20
4.1173500000000001
10
50.757300000000001
20
6.217950000000001
42
0.41421356237307422
10
50.257300000000001
20
6.7179500000000001
10
49.956500000000013
20
6.7179500000000001
10
49.956500000000013
20
12.5181
10
50.257300000000001
20
12.518100000000004
42
0.41421356237309503
10
50.757300000000001
20
13.0181
10
50.757300000000001
20
15.1173
42
0.41421356237308204
10
50.257299999999994
20
15.6173
10
49.956500000000013
20
15.6173
10
49.956500000000013
20
16.117799999999999
42
0.41421356237307549
10
49.456500000000013
20
16.617799999999999
10
29.313400000000005
20
16.617799999999999
42
0.41421356237308721
10
28.813400000000001
20
16.117799999999999
10
28.813400000000001
20
15.6173
10
28.512799999999999
20
15.617299999999998
42
0.41421356237309503
10
28.012800000000002
20
15.1173
10
28.012800000000002
20
13.0181
42
0.41421356237309503
10
28.512799999999999
20
12.5181
10
28.813400000000001
20
12.5181
10
28.813400000000001
20
6.7179500000000001
10
28.512799999999999
20
6.7179500000000001
42
0.4142135623730957
10
28.012800000000002
20
6.217950000000001
10
28.012800000000002
20
4.1173500000000001
42
0.41421356237309631
10
28.512799999999999
20
3.6173500000000001
10
28.813400000000001
20
3.6173500000000001
10
28.813400000000009
20
3.1182700000000003
42
0.41421356237310025
0
LWPOLYLINE
5
110
100
AcDbEntity
8
0
100
AcDbPolyline
90
32
70
1
43
0.0
10
5.000910000000002
20
15.6173
10
4.7002800000000011
20
15.617299999999998
42
0.41421356237309276
10
4.2002800000000011
20
15.1173
10
4.2002800000000011
20
13.0181
42
0.4142135623730947
10
4.7002800000000011
20
12.5181
10
5.000910000000002
20
12.5181
10
5.000910000000002
20
6.7179500000000001
10
4.7002800000000011
20
6.7179499999999992
42
0.41421356237309309
10
4.2002800000000011
20
6.217950000000001
10
4.2002800000000011
20
4.1173500000000001
42
0.41421356237309631
10
4.7002800000000011
20
3.6173500000000001
10
5.000910000000002
20
3.6173500000000001
10
5.0009100000000029
20
3.1182700000000003
42
0.4142135623730937
10
5.5009100000000011
20
2.6182699999999999
10
20.881699999999999
20
2.6182700000000003
42
0.41421356237308821
10
21.381700000000002
20
3.1182700000000003
10
21.381700000000002
20
3.6173500000000001
10
21.682300000000005
20
3.6173500000000027
42
0.4142135623730947
10
22.182300000000001
20
4.1173500000000001
10
22.182300000000001
20
6.217950000000001
42
0.4142135623730957
10
21.682300000000005
20
6.7179500000000001
10
21.381700000000002
20
6.7179500000000001
10
21.381700000000002
20
12.5181
10
21.682300000000005
20
12.518100000000004
42
0.41421356237309503
10
22.182300000000001
20
13.0181
10
22.182300000000001
20
15.1173
42
0.41421356237309503
10
21.682300000000005
20
15.6173
10
21.381700000000002
20
15.6173
10
21.381700000000002
20
16.117799999999999
42
0.41421356237309892
10
20.881699999999999
20
16.617799999999999
10
5.5009100000000011
20
16.617800000000003
42
0.4142135623730937
10
5.000910000000002
20
16.117799999999999
0
LWPOLYLINE
5
111
100
AcDbEntity
8
0
100
AcDbPolyline
90
18
70
1
43
0.0
10
79.411999999999978
20
17.587900000000005
10
79.095806781186567
20
17.587900000000001
42
0.19891236737966425
10
78.742253390593291
20
17.441453390593278
10
77.834846609406739
20
16.534046609406726
42
0.19891236737965201
10
77.688400000000001
20
16.180493218813453
10
77.688400000000001
20
11.917299999999999
10
77.688400000000001
20
7.3173900000000014
10
77.688400000000001
20
4.5872500000000009
42
0.41421356237307488
10
78.188400000000001
20
4.08725
10
83.93810000000002
20
4.0872500000000116
42
0.41421356237310514
10
84.43810000000002
20
4.5872500000000009
10
84.43810000000002
20
7.3173900000000014
10
84.43810000000002
20
11.917299999999999
10
84.43810000000002
20
16.180493218813453
42
0.19891236737966589
10
84.291653390593297
20
16.53404660940673
10
83.384246609406745
20
17.441453390593278
42
0.19891236737966128
10
83.030693218813468
20
17.587900000000008
10
82.712599999999981
20
17.587900000000005
0
LWPOLYLINE
5
112
100
AcDbEntity
8
0
100
AcDbPolyline
90
36
70
1
43
0.0
10
70.143500000000003
20
4.5872500000000009
10
70.143500000000003
20
7.3173900000000014
10
70.143500000000003
20
11.917299999999999
10
70.143500000000003
20
16.180493218813453
42
0.19891236737965201
10
69.99705339059328
20
16.534046609406726
10
69.089646609406728
20
17.441453390593274
42
0.19891236737966916
10
68.736093218813451
20
17.587900000000005
10
68.418099999999995
20
17.587900000000005
10
65.119200000000006
20
17.587900000000005
10
64.801606781186564
20
17.587900000000001
42
0.19891236737966425
10
64.448053390593287
20
17.441453390593278
10
63.624400000000001
20
16.617799999999999
10
63.394200000000005
20
16.617799999999999
10
53.126000000000005
20
16.617799999999999
42
0.41421356237309503
10
52.626000000000005
20
16.117799999999999
10
52.626000000000005
20
15.6173
10
52.325200000000009
20
15.617300000000004
42
0.41421356237308204
10
51.825200000000002
20
15.1173
10
51.825200000000002
20
13.0181
42
0.41421356237308204
10
52.325200000000009
20
12.5181
10
52.626000000000005
20
12.5181
10
52.626000000000005
20
6.7179500000000001
10
52.325200000000009
20
6.7179500000000028
42
0.41421356237309698
10
51.825200000000009
20
6.217950000000001
10
51.825200000000002
20
4.1173500000000001
42
0.41421356237308204
10
52.325200000000009
20
3.6173500000000001
10
52.626000000000005
20
3.6173500000000001
10
52.626000000000005
20
3.1182700000000003
42
0.41421356237307488
10
53.126000000000005
20
2.6182699999999999
10
66.12530000000001
20
2.6182699999999981
42
0.41421356237309731
10
66.62530000000001
20
3.1182700000000003
10
66.62530000000001
20
3.6173500000000001
10
66.926100000000005
20
3.6173500000000001
42
0.29445900695164434
10
67.381550493845111
20
3.9110374999999999
42
-0.29445900695165761
10
67.654820790152172
20
4.08725
10
69.643500000000003
20
4.0872499999999983
42
0.41421356237309731
0
LWPOLYLINE
5
113
100
AcDbEntity
8
0
100
AcDbPolyline
90
36
70
1
43
0.0
10
99.962800000000001
20
15.6173
10
99.962800000000001
20
16.117799999999999
42
0.41421356237305601
10
99.462800000000016
20
16.617799999999999
10
86.463499999999996
20
16.617800000000003
42
0.41421356237307161
10
85.963499999999996
20
16.117799999999999
10
85.963499999999996
20
15.6173
10
85.662700000000015
20
15.617300000000004
42
0.41421356237307161
10
85.162700000000001
20
15.1173
10
85.162700000000001
20
13.0181
42
0.41421356237307161
10
85.662700000000015
20
12.5181
10
85.963499999999996
20
12.5181
10
85.963499999999996
20
11.917299999999999
10
85.963499999999996
20
7.3173900000000014
10
85.963499999999996
20
6.7179500000000001
10
85.662700000000015
20
6.717950000000009
42
0.41421356237307488
10
85.162700000000001
20
6.217950000000001
10
85.162700000000001
20
4.1173500000000001
42
0.41421356237307161
10
85.662700000000015
20
3.6173500000000001
10
85.963499999999996
20
3.6173500000000001
10
85.963499999999996
20
3.1182700000000003
42
0.41421356237307194
10
86.463499999999996
20
2.6182699999999999
10
99.462800000000016
20
2.618270000000003
42
0.4142135623731204
10
99.962800000000001
20
3.1182700000000003
10
99.962800000000001
20
3.6173500000000001
10
100.26200000000001
20
3.6173499999999876
42
0.41421356237308787
10
100.762
20
4.1173500000000001
10
100.762
20
6.217950000000001
42
0.4142135623731022
10
100.26200000000001
20
6.7179500000000001
10
99.962800000000001
20
6.7179500000000001
10
99.962800000000001
20
7.3173900000000014
10
99.962800000000001
20
11.917299999999999
10
99.962800000000001
20
12.5181
10
100.26200000000001
20
12.51809999999999
42
0.41421356237308721
10
100.762
20
13.0181
10
100.762
20
15.1173
42
0.41421356237310153
10
100.26200000000001
20
15.6173
0
LWPOLYLINE
5
114
100
AcDbEntity
8
0
100
AcDbPolyline
90
36
70
1
43
0.0
10
138.36199999999999
20
12.518099999999999
42
0.41421356237307161
10
138.86199999999999
20
13.0181
10
138.86199999999999
20
15.1173
42
0.41421356237307161
10
138.36199999999999
20
15.6173
10
138.06299999999999
20
15.6173
10
138.06299999999999
20
16.117799999999999
42
0.41421356237309243
10
137.56299999999999
20
16.617799999999999
10
117.41799999999999
20
16.61780000000001
42
0.41421356237308721
10
116.91800000000001
20
16.117799999999999
10
116.91800000000001
20
15.6173
10
116.61900000000001
20
15.617300000000004
42
0.41421356237307161
10
116.119
20
15.1173
10
116.119
20
13.0181
42
0.41421356237307161
10
116.61900000000001
20
12.5181
10
116.91800000000001
20
12.5181
10
116.91800000000001
20
11.917299999999999
10
116.91800000000001
20
7.3173900000000014
10
116.91800000000001
20
6.7179500000000001
10
116.61900000000001
20
6.717950000000009
42
0.41421356237307488
10
116.119
20
6.217950000000001
10
116.119
20
4.1173500000000001
42
0.41421356237307161
10
116.61900000000001
20
3.6173500000000001
10
116.91800000000001
20
3.6173500000000001
10
116.91800000000001
20
3.1182700000000003
42
0.4142135623731022
10
117.41799999999999
20
2.6182699999999999
10
137.56299999999999
20
2.6182700000000114
42
0.41421356237310514
10
138.06299999999999
20
3.1182700000000003
10
138.06299999999999
20
3.6173500000000001
10
138.36199999999999
20
3.617349999999993
42
0.41421356237307422
10
138.86199999999999
20
4.1173500000000001
10
138.86199999999999
20
6.217950000000001
42
0.41421356237307094
10
138.36199999999999
20
6.7179500000000001
10
138.06299999999999
20
6.7179500000000001
10
138.06299999999999
20
7.3187600000000019
10
138.06299999999999
20
11.918699999999999
10
138.06299999999999
20
12.5181
0
LWPOLYLINE
5
115
100
AcDbEntity
8
0
100
AcDbPolyline
90
18
70
1
43
0.0
10
103.21200000000002
20
17.587900000000005
10
102.89640678118656
20
17.587900000000008
42
0.19891236737963902
10
102.54285339059328
20
17.441453390593281
10
101.63544660940673
20
16.534046609406733
42
0.19891236737965831
10
101.48899999999999
20
16.180493218813453
10
101.48899999999999
20
11.917299999999999
10
101.48899999999999
20
7.3173900000000014
10
101.48899999999999
20
4.5872500000000009
42
0.41421356237307194
10
101.989
20
4.08725
10
107.73800000000001
20
4.0872500000000036
42
0.4142135623731204
10
108.238
20
4.5872500000000009
10
108.238
20
7.3173900000000014
10
108.238
20
11.917299999999999
10
108.238
20
16.180493218813453
42
0.19891236737965831
10
108.09155339059328
20
16.534046609406733
10
107.18414660940672
20
17.441453390593281
42
0.19891236737963902
10
106.83059321881345
20
17.587900000000008
10
106.51299999999999
20
17.587900000000005
0
LWPOLYLINE
5
116
100
AcDbEntity
8
0
100
AcDbPolyline
90
36
70
1
43
0.0
10
157.40100000000001
20
3.1182700000000003
42
0.41421356237309276
10
157.90100000000001
20
2.6182699999999999
10
170.90000000000001
20
2.6182699999999839
42
0.41421356237310053
10
171.40000000000001
20
3.1182700000000003
10
171.40000000000001
20
3.6173500000000001
10
171.70100000000002
20
3.6173500000000298
42
0.41421356237309437
10
172.20099999999999
20
4.1173500000000001
10
172.20099999999999
20
6.217950000000001
42
0.41421356237310414
10
171.70100000000002
20
6.7179500000000001
10
171.40000000000001
20
6.7179500000000001
10
171.40000000000001
20
7.3187600000000019
10
171.40000000000001
20
11.918699999999999
10
171.40000000000001
20
12.5181
10
171.70100000000002
20
12.518100000000032
42
0.4142135623730937
10
172.20099999999999
20
13.0181
10
172.20099999999999
20
15.1173
42
0.41421356237310414
10
171.70100000000002
20
15.6173
10
171.40000000000001
20
15.6173
10
171.40000000000001
20
16.117799999999999
42
0.41421356237314316
10
170.90000000000001
20
16.617799999999999
10
157.90100000000001
20
16.617800000000003
42
0.41421356237309243
10
157.40100000000001
20
16.117799999999999
10
157.40100000000001
20
15.6173
10
157.10000000000002
20
15.617300000000004
42
0.41421356237309243
10
156.59999999999999
20
15.1173
10
156.59999999999999
20
13.0181
42
0.41421356237309243
10
157.10000000000002
20
12.5181
10
157.40100000000001
20
12.5181
10
157.40100000000001
20
11.918699999999999
10
157.40100000000001
20
7.3187600000000019
10
157.40100000000001
20
6.7179500000000001
10
157.10000000000002
20
6.7179499999999912
42
0.41421356237310608
10
156.59999999999999
20
6.217950000000001
10
156.59999999999999
20
4.1173500000000001
42
0.41421356237309243
10
157.10000000000002
20
3.6173500000000001
10
157.40100000000001
20
3.6173500000000001
0
LWPOLYLINE
5
117
100
AcDbEntity
8
0
100
AcDbPolyline
90
14
70
1
43
0.0
10
149.62600000000003
20
4.08725
10
155.376
20
4.0872500000000116
42
0.41421356237310514
10
155.87600000000003
20
4.5872500000000009
10
155.87600000000003
20
7.3187600000000019
10
155.87600000000003
20
11.918699999999999
10
155.87600000000003
20
16.387599999999999
10
154.67570000000001
20
17.587900000000005
10
154.15000000000001
20
17.587900000000005
10
150.851
20
17.587900000000005
10
150.3263
20
17.587900000000005
10
149.126
20
16.387599999999999
10
149.126
20
11.918699999999999
10
149.126
20
7.3187600000000019
10
149.126
20
4.5872500000000009
42
0.41421356237309276
0
LWPOLYLINE
5
118
100
AcDbEntity
8
0
100
AcDbPolyline
90
80
70
1
43
0.0
10
249.47000000000006
20
4.1173500000000001
42
0.41421356237308365
10
249.97
20
3.6173500000000001
10
250.27000000000001
20
3.6173500000000001
10
250.27000000000004
20
3.1182700000000003
42
0.41421356237314411
10
250.77000000000001
20
2.6182699999999999
10
263.76900000000001
20
2.6182699999999839
42
0.41421356237310053
10
264.26900000000001
20
3.1182700000000003
10
264.26900000000001
20
3.6173500000000001
10
264.56999999999999
20
3.6173500000000161
42
0.41421356237312335
10
265.06999999999999
20
4.1173500000000001
10
265.07000000000005
20
6.217950000000001
42
0.4142135623731204
10
264.56999999999999
20
6.7179500000000001
10
264.26900000000001
20
6.7179500000000001
10
264.26900000000001
20
7.8180249999999996
42
-0.41421356237304086
10
264.56900000000007
20
8.118025000000026
10
264.66723894104729
20
8.1180249999999923
42
-0.22167085428714833
10
264.8970347687922
20
8.0108821428571577
42
0.4662524041201605
10
268.72696523120783
20
8.0108821428571613
42
-0.22167085428714764
10
268.95676105895274
20
8.1180249999999994
10
269.02000000000004
20
8.1180249999999905
42
-0.41421356237307549
10
269.32000000000005
20
7.8180249999999996
10
269.32000000000005
20
6.7179500000000001
10
269.01999999999998
20
6.7179499999999859
42
0.41421356237312362
10
268.51999999999998
20
6.217950000000001
10
268.51999999999998
20
4.1173500000000001
42
0.41421356237312074
10
269.01999999999998
20
3.6173500000000001
10
269.32000000000005
20
3.6173500000000001
10
269.32000000000005
20
3.1182700000000003
42
0.41421356237312074
10
269.82000000000005
20
2.6182699999999999
10
282.81900000000013
20
2.6182700000000163
42
0.41421356237312301
10
283.31900000000013
20
3.1182700000000003
10
283.31900000000013
20
3.6173500000000001
10
283.62
20
3.6173500000000161
42
0.41421356237312335
10
284.12
20
4.1173500000000001
10
284.12000000000006
20
6.217950000000001
42
0.4142135623731204
10
283.62
20
6.7179500000000001
10
283.31900000000013
20
6.7179500000000001
10
283.31900000000013
20
12.5181
10
283.62
20
12.518100000000022
42
0.41421356237312101
10
284.12
20
13.0181
10
284.12000000000006
20
15.1173
42
0.41421356237312101
10
283.62
20
15.6173
10
283.31900000000013
20
15.6173
10
283.31900000000019
20
16.117799999999999
42
0.41421356237312101
10
282.81900000000013
20
16.617799999999999
10
269.82000000000005
20
16.617799999999981
42
0.41421356237312101
10
269.32000000000005
20
16.117799999999999
10
269.32000000000005
20
15.6173
10
269.01999999999998
20
15.617299999999981
42
0.41421356237312101
10
268.51999999999998
20
15.1173
10
268.51999999999998
20
13.0181
42
0.41421356237312101
10
269.01999999999998
20
12.5181
10
269.32000000000005
20
12.5181
10
269.32000000000005
20
11.418025
42
-0.41421356237307549
10
269.02000000000004
20
11.118024999999999
10
268.95676105895274
20
11.118025000000012
42
-0.22167085428714017
10
268.72696523120783
20
11.225167857142841
42
0.46625240412016117
10
264.8970347687922
20
11.225167857142836
42
-0.22167085428714017
10
264.66723894104729
20
11.118024999999999
10
264.56900000000007
20
11.11802500000001
42
-0.41421356237304086
10
264.26900000000006
20
11.418025
10
264.26900000000001
20
12.5181
10
264.56999999999999
20
12.518100000000022
42
0.41421356237312101
10
265.06999999999999
20
13.0181
10
265.07000000000005
20
15.1173
42
0.41421356237312101
10
264.56999999999999
20
15.6173
10
264.26900000000001
20
15.6173
10
264.26900000000001
20
16.117799999999999
42
0.41421356237314316
10
263.76900000000001
20
16.617799999999999
10
250.77000000000001
20
16.617800000000017
42
0.41421356237310025
10
250.27000000000001
20
16.117799999999999
10
250.27000000000001
20
15.6173
10
249.97
20
15.617300000000006
42
0.41421356237307294
10
249.47000000000003
20
15.1173
10
249.47000000000006
20
13.0181
42
0.41421356237308332
10
249.97
20
12.5181
10
250.27000000000001
20
12.5181
10
250.27000000000001
20
6.7179500000000001
10
249.97
20
6.7179500000000045
42
0.41421356237307227
10
249.47000000000003
20
6.217950000000001
0
LWPOLYLINE
5
119
100
AcDbEntity
8
0
100
AcDbPolyline
90
40
70
1
43
0.0
10
245.52000000000007
20
6.7179500000000001
10
245.21900000000002
20
6.7179500000000001
10
245.21900000000002
20
12.5181
10
245.52000000000004
20
12.518099999999986
42
0.41421356237310025
10
246.02000000000004
20
13.0181
10
246.02000000000001
20
15.1173
42
0.41421356237308332
10
245.52000000000007
20
15.6173
10
245.21900000000002
20
15.6173
10
245.21899999999999
20
16.117799999999999
42
0.41421356237308332
10
244.71900000000005
20
16.617799999999999
10
226.45700000000002
20
16.617799999999999
10
226.16900000000001
20
16.617799999999999
10
212.16999999999999
20
16.617799999999999
10
211.88200000000001
20
16.617799999999999
10
193.62
20
16.617799999999981
42
0.41421356237312101
10
193.12
20
16.117799999999999
10
193.12
20
15.6173
10
192.81999999999999
20
15.617300000000016
42
0.41421356237310025
10
192.31999999999999
20
15.1173
10
192.31999999999999
20
13.0181
42
0.41421356237314316
10
192.81999999999999
20
12.5181
10
193.12
20
12.5181
10
193.12
20
6.7179500000000001
10
192.81999999999999
20
6.717950000000017
42
0.41421356237310025
10
192.31999999999999
20
6.217950000000001
10
192.32000000000002
20
4.1173500000000001
42
0.41421356237314383
10
192.81999999999999
20
3.6173500000000001
10
193.12
20
3.6173500000000001
10
193.11999999999998
20
3.1182700000000003
42
0.41421356237312074
10
193.62
20
2.6182699999999999
10
211.88200000000001
20
2.6182699999999999
10
212.16999999999999
20
2.6182699999999999
10
226.16900000000001
20
2.6182699999999999
10
226.45700000000002
20
2.6182699999999999
10
244.71900000000005
20
2.6182699999999945
42
0.41421356237307327
10
245.21900000000002
20
3.1182700000000003
10
245.21900000000002
20
3.6173500000000001
10
245.52000000000004
20
3.6173499999999836
42
0.41421356237310053
10
246.02000000000004
20
4.1173500000000001
10
246.02000000000001
20
6.217950000000001
42
0.41421356237308332
0
ARC
5
120
100
AcDbEntity
8
0
100
AcDbCircle
10
183.94499999999999
20
4.5872500000000009
30
0
40
0.49999999999999989
100
AcDbArc
50
-90
51
0
0
LINE
5
121
100
AcDbEntity
8
0
100
AcDbLine
10
174.65100000000001
20
17.587900000000005
30
0
11
174.33340678118654
21
17.587899999999994
31
0
0
ARC
5
122
100
AcDbEntity
8
0
100
AcDbCircle
10
173.42600000000002
20
4.5872500000000009
30
0
40
0.50000000000000711
100
AcDbArc
50
180
51
270
0
LINE
5
123
100
AcDbEntity
8
0
100
AcDbLine
10
182.71900000000002
20
17.589300000000001
30
0
11
183.03759321881347
21
17.589300000000016
31
0
0
LINE
5
124
100
AcDbEntity
8
0
100
AcDbLine
10
172.92599999999999
20
7.3187600000000019
30
0
11
172.92599999999999
21
4.5872500000000009
31
0
0
LINE
5
125
100
AcDbEntity
8
0
100
AcDbLine
10
173.42600000000002
20
4.0872500000000009
30
0
11
183.94499999999999
21
4.0872500000000009
31
0
0
LINE
5
126
100
AcDbEntity
8
0
100
AcDbLine
10
184.44500000000002
20
4.5872500000000009
30
0
11
184.44500000000002
21
7.3187600000000019
31
0
0
LWPOLYLINE
5
127
100
AcDbEntity
8
0
100
AcDbPolyline
90
32
70
1
43
0.0
10
163.75700000000001
20
54.717599999999997
10
150.75700000000001
20
54.717599999999997
42
0.41421356237308982
10
150.25700000000001
20
54.217599999999997
10
150.25700000000001
20
53.717500000000001
10
149.95600000000002
20
53.717500000000001
42
0.41421356237308982
10
149.45600000000002
20
53.217500000000008
10
149.45600000000002
20
51.118000000000016
42
0.41421356237308982
10
149.95600000000002
20
50.618000000000016
10
150.25700000000001
20
50.618000000000016
10
150.25700000000001
20
44.817900000000002
10
149.95600000000002
20
44.817900000000002
42
0.41421356237308982
10
149.45600000000002
20
44.317900000000002
10
149.45600000000002
20
42.217399999999998
42
0.41421356237309503
10
149.95600000000002
20
41.717399999999991
10
150.25700000000001
20
41.717399999999998
10
150.25700000000001
20
41.218299999999999
42
0.41421356237308982
10
150.75700000000001
20
40.718299999999999
10
163.75700000000001
20
40.718300000000021
42
0.41421356237312101
10
164.25700000000003
20
41.218299999999999
10
164.25700000000003
20
41.717399999999998
10
164.55700000000004
20
41.717399999999998
42
0.414213562373069
10
165.05700000000002
20
42.217399999999998
10
165.05700000000002
20
44.317899999999987
42
0.41421356237307422
10
164.55700000000004
20
44.817899999999995
10
164.25700000000003
20
44.817900000000002
10
164.25700000000003
20
50.618000000000016
10
164.55700000000004
20
50.618000000000016
42
0.414213562373069
10
165.05700000000002
20
51.118000000000016
10
165.05700000000002
20
53.217500000000008
42
0.41421356237310542
10
164.55700000000004
20
53.717500000000001
10
164.25700000000003
20
53.717500000000001
10
164.25700000000003
20
54.21759999999999
42
0.41421356237300661
0
LWPOLYLINE
5
128
100
AcDbEntity
8
0
100
AcDbPolyline
90
80
70
1
43
0.0
10
111.85600000000001
20
44.817899999999995
42
0.41421356237311585
10
111.35600000000002
20
44.317900000000002
10
111.35599999999999
20
42.217399999999998
42
0.41421356237305862
10
111.85600000000001
20
41.717399999999991
10
112.15700000000001
20
41.717399999999998
10
112.15700000000001
20
41.218299999999999
42
0.41421356237308982
10
112.65700000000002
20
40.718299999999999
10
125.657
20
40.718299999999999
42
0.414213562373069
10
126.15700000000002
20
41.218299999999999
10
126.15700000000002
20
41.717399999999998
10
126.45700000000002
20
41.717399999999998
42
0.41421356237308982
10
126.95700000000002
20
42.217399999999998
10
126.95700000000002
20
44.317900000000002
42
0.41421356237308982
10
126.45700000000002
20
44.817900000000002
10
126.15700000000002
20
44.817900000000002
10
126.15700000000002
20
45.917950000000005
42
-0.41421356237313839
10
126.45700000000002
20
46.217950000000002
10
126.44593202250023
20
46.217950000000002
42
-0.21342176528337081
10
126.81861001875021
20
46.051283333333345
42
0.44721359549995665
10
130.54538998124983
20
46.051283333333345
42
-0.21342176528337081
10
130.91806797749979
20
46.217950000000002
10
130.90700000000001
20
46.217949999999995
42
-0.41421356237312978
10
131.20699999999999
20
45.917950000000005
10
131.20699999999999
20
44.817900000000002
10
130.90600000000001
20
44.817900000000002
42
0.41421356237308982
10
130.40600000000001
20
44.317900000000002
10
130.40600000000001
20
42.217399999999998
42
0.41421356237309503
10
130.90600000000001
20
41.717399999999991
10
131.20699999999999
20
41.717399999999998
10
131.20699999999999
20
41.218299999999999
42
0.41421356237308982
10
131.70699999999999
20
40.718299999999999
10
144.70699999999999
20
40.718300000000013
42
0.41421356237311585
10
145.20699999999999
20
41.218299999999999
10
145.20699999999999
20
41.717399999999998
10
145.50700000000001
20
41.717399999999998
42
0.414213562373069
10
146.00700000000001
20
42.217399999999998
10
146.00700000000001
20
44.317900000000002
42
0.414213562373069
10
145.50700000000001
20
44.817900000000002
10
145.20699999999999
20
44.817900000000002
10
145.20699999999999
20
50.618000000000016
10
145.50700000000003
20
50.618000000000016
42
0.41421356237305862
10
146.00700000000001
20
51.118000000000016
10
146.00700000000001
20
53.217500000000015
42
0.41421356237307422
10
145.50700000000001
20
53.717500000000015
10
145.20699999999999
20
53.717500000000001
10
145.20699999999999
20
54.217599999999997
42
0.41421356237305862
10
144.70699999999999
20
54.717599999999997
10
131.70699999999999
20
54.717599999999997
42
0.41421356237308982
10
131.20699999999999
20
54.217599999999997
10
131.20699999999999
20
53.717500000000001
10
130.90600000000001
20
53.717500000000001
42
0.41421356237308982
10
130.40600000000001
20
53.217500000000008
10
130.40600000000001
20
51.118000000000016
42
0.41421356237308982
10
130.90600000000001
20
50.618000000000016
10
131.20699999999999
20
50.618000000000016
10
131.20699999999999
20
49.517950000000013
42
-0.41421356237312978
10
130.90700000000001
20
49.217950000000016
10
130.91806797749979
20
49.217950000000016
42
-0.21342176528337081
10
130.54538998124983
20
49.384616666666673
42
0.44721359549995665
10
126.81861001875021
20
49.384616666666673
42
-0.21342176528337081
10
126.44593202250023
20
49.217950000000016
10
126.45700000000002
20
49.217950000000016
42
-0.41421356237313839
10
126.15700000000002
20
49.517950000000013
10
126.15700000000002
20
50.618000000000016
10
126.45700000000002
20
50.618000000000016
42
0.41421356237308982
10
126.95700000000002
20
51.118000000000016
10
126.95700000000002
20
53.217500000000008
42
0.41421356237308982
10
126.45700000000002
20
53.717500000000001
10
126.15700000000002
20
53.717500000000001
10
126.15700000000002
20
54.217599999999997
42
0.414213562373069
10
125.65700000000001
20
54.717599999999997
10
112.65700000000002
20
54.717599999999997
42
0.41421356237308982
10
112.15700000000001
20
54.217599999999997
10
112.15700000000001
20
53.717500000000001
10
111.85600000000001
20
53.717499999999994
42
0.41421356237311585
10
111.35600000000002
20
53.217500000000008
10
111.35600000000002
20
51.118000000000016
42
0.41421356237305862
10
111.85600000000001
20
50.618000000000016
10
112.15700000000001
20
50.618000000000016
10
112.15700000000001
20
44.817900000000002
0
LWPOLYLINE
5
129
100
AcDbEntity
8
0
100
AcDbPolyline
90
32
70
1
43
0.0
10
278.05700000000002
20
59.768300000000004
42
0.41421356237313145
10
278.55700000000002
20
60.268300000000004
10
278.55700000000002
20
60.767400000000009
10
278.85700000000003
20
60.767400000000009
42
0.41421356237313667
10
279.35700000000003
20
61.267400000000016
10
279.35700000000003
20
63.367900000000013
42
0.41421356237313667
10
278.85700000000003
20
63.867900000000013
10
278.55700000000002
20
63.867900000000013
10
278.55700000000002
20
69.668000000000006
10
278.85699999999997
20
69.667999999999978
42
0.41421356237310542
10
279.35700000000003
20
70.168000000000006
10
279.35700000000003
20
72.267499999999998
42
0.41421356237313667
10
278.85700000000003
20
72.767499999999998
10
278.55700000000002
20
72.767499999999998
10
278.55700000000002
20
73.267600000000016
42
0.4142135623730222
10
278.05700000000002
20
73.767600000000016
10
265.05700000000002
20
73.767600000000016
42
0.41421356237313145
10
264.55700000000002
20
73.267600000000016
10
264.55700000000002
20
72.767499999999998
10
264.25599999999997
20
72.767500000000027
42
0.4142135623730846
10
263.75599999999997
20
72.267499999999998
10
263.75599999999997
20
70.168000000000006
42
0.41421356237313667
10
264.25599999999997
20
69.668000000000006
10
264.55700000000002
20
69.668000000000006
10
264.55700000000002
20
63.867900000000013
10
264.25600000000003
20
63.867900000000041
42
0.41421356237310542
10
263.75599999999997
20
63.367900000000013
10
263.75599999999997
20
61.267400000000016
42
0.41421356237313667
10
264.25599999999997
20
60.767400000000009
10
264.55700000000002
20
60.767400000000009
10
264.55700000000007
20
60.268300000000004
42
0.4142135623730222
10
265.05700000000002
20
59.768300000000004
0
LWPOLYLINE
5
130
100
AcDbEntity
8
0
100
AcDbPolyline
90
32
70
1
43
0.0
10
287.56999999999999
20
72.267499999999998
10
287.56999999999999
20
70.168000000000006
42
0.41421356237312101
10
288.07000000000005
20
69.668000000000006
10
288.37
20
69.668000000000006
10
288.37
20
63.867900000000013
10
288.07000000000005
20
63.867899999999992
42
0.41421356237312101
10
287.56999999999999
20
63.367900000000013
10
287.56999999999999
20
61.267400000000016
42
0.41421356237300661
10
288.07000000000005
20
60.767400000000009
10
288.37
20
60.767400000000009
10
288.37000000000006
20
60.268300000000004
42
0.4142135623730846
10
288.87
20
59.768300000000004
10
301.86900000000003
20
59.768299999999989
42
0.41421356237310025
10
302.36900000000003
20
60.268300000000004
10
302.36900000000003
20
60.767400000000009
10
302.67000000000002
20
60.767400000000009
42
0.41421356237313667
10
303.17000000000002
20
61.267400000000016
10
303.17000000000007
20
63.367900000000013
42
0.41421356237312101
10
302.67000000000002
20
63.867900000000013
10
302.36900000000003
20
63.867900000000013
10
302.36900000000003
20
69.668000000000006
10
302.67000000000002
20
69.668000000000035
42
0.41421356237312101
10
303.17000000000002
20
70.168000000000006
10
303.17000000000007
20
72.267499999999998
42
0.41421356237312101
10
302.67000000000002
20
72.767499999999998
10
302.36900000000003
20
72.767499999999998
10
302.36900000000003
20
73.267600000000016
42
0.41421356237314189
10
301.86900000000003
20
73.767600000000016
10
288.87
20
73.76760000000003
42
0.41421356237307422
10
288.37
20
73.267600000000016
10
288.37
20
72.767499999999998
10
288.07000000000005
20
72.767499999999984
42
0.41421356237312101
0
LWPOLYLINE
5
131
100
AcDbEntity
8
0
100
AcDbPolyline
90
32
70
1
43
0.0
10
24.562200000000001
20
42.217399999999998
10
24.562200000000001
20
44.317899999999987
42
0.41421356237308982
10
24.062200000000004
20
44.817899999999995
10
23.762900000000002
20
44.817900000000002
10
23.762900000000002
20
50.618000000000016
10
24.062200000000004
20
50.618000000000016
42
0.41421356237308204
10
24.562200000000001
20
51.118000000000016
10
24.562200000000004
20
53.217500000000015
42
0.41421356237309764
10
24.062200000000004
20
53.717500000000015
10
23.762900000000002
20
53.717500000000001
10
23.762900000000005
20
54.217599999999997
42
0.41421356237310025
10
23.262899999999998
20
54.717599999999997
10
5.5009100000000011
20
54.717599999999997
42
0.41421356237307422
10
5.000910000000002
20
54.217599999999997
10
5.000910000000002
20
53.717500000000001
10
4.7002800000000011
20
53.717500000000001
42
0.41421356237307522
10
4.2002800000000011
20
53.217500000000008
10
4.2002799999999985
20
51.118000000000009
42
0.41421356237309243
10
4.7002800000000011
20
50.618000000000016
10
5.000910000000002
20
50.618000000000016
10
5.000910000000002
20
44.817900000000002
10
4.7002800000000011
20
44.817900000000002
42
0.41421356237307977
10
4.2002800000000011
20
44.317900000000009
10
4.2002799999999985
20
42.217400000000005
42
0.41421356237309764
10
4.7002800000000011
20
41.717399999999998
10
5.000910000000002
20
41.717399999999998
10
5.0009100000000011
20
41.218299999999999
42
0.41421356237309631
10
5.5009100000000011
20
40.718299999999999
10
23.262899999999998
20
40.718299999999999
42
0.41421356237308721
10
23.762900000000002
20
41.218299999999999
10
23.762900000000002
20
41.717399999999998
10
24.062200000000004
20
41.717399999999998
42
0.41421356237308204
0
LWPOLYLINE
5
132
100
AcDbEntity
8
0
100
AcDbPolyline
90
32
70
1
43
0.0
10
49.956500000000013
20
54.217599999999997
42
0.41421356237309503
10
49.456500000000013
20
54.717599999999997
10
36.4572
20
54.717599999999997
42
0.41421356237308721
10
35.9572
20
54.217599999999997
10
35.9572
20
53.717500000000001
10
35.656500000000001
20
53.717500000000001
42
0.41421356237307161
10
35.156500000000001
20
53.217500000000008
10
35.156500000000001
20
51.118000000000016
42
0.41421356237310542
10
35.656500000000001
20
50.618000000000016
10
35.9572
20
50.618000000000016
10
35.9572
20
44.817900000000002
10
35.656500000000001
20
44.817900000000002
42
0.41421356237307161
10
35.156500000000001
20
44.317900000000002
10
35.156500000000001
20
42.217399999999998
42
0.41421356237310542
10
35.656500000000001
20
41.717399999999998
10
35.9572
20
41.717399999999998
10
35.957199999999993
20
41.218299999999999
42
0.41421356237310025
10
36.4572
20
40.718299999999999
10
49.456500000000013
20
40.718299999999999
42
0.41421356237309503
10
49.956500000000013
20
41.218299999999999
10
49.956500000000013
20
41.717399999999998
10
50.257300000000001
20
41.717399999999998
42
0.41421356237309503
10
50.757300000000001
20
42.217399999999998
10
50.757300000000001
20
44.317900000000009
42
0.41421356237308982
10
50.257300000000015
20
44.817900000000009
10
49.956500000000013
20
44.817900000000002
10
49.956500000000013
20
50.618000000000016
10
50.257300000000001
20
50.618000000000016
42
0.41421356237309503
10
50.757300000000001
20
51.118000000000016
10
50.757299999999994
20
53.217500000000008
42
0.4142135623730846
10
50.257300000000015
20
53.717500000000001
10
49.956500000000013
20
53.717500000000001
0
LWPOLYLINE
5
133
100
AcDbEntity
8
0
100
AcDbPolyline
90
32
70
1
43
0.0
10
73.256399999999999
20
53.217500000000008
10
73.256399999999999
20
51.118000000000016
42
0.41421356237307944
10
73.756400000000014
20
50.618000000000016
10
74.057199999999995
20
50.618000000000016
10
74.057199999999995
20
44.817900000000002
10
73.756400000000014
20
44.817900000000002
42
0.41421356237309503
10
73.256399999999999
20
44.317900000000009
10
73.256399999999999
20
42.217399999999998
42
0.41421356237307944
10
73.756400000000014
20
41.717399999999998
10
74.057199999999995
20
41.717399999999998
10
74.057199999999995
20
41.218299999999999
42
0.41421356237309503
10
74.55719999999998
20
40.718299999999999
10
87.556500000000014
20
40.718299999999992
42
0.4142135623730846
10
88.0565
20
41.218299999999999
10
88.0565
20
41.717399999999998
10
88.357300000000038
20
41.717399999999991
42
0.4142135623730846
10
88.857300000000023
20
42.217399999999998
10
88.857300000000023
20
44.317900000000002
42
0.41421356237310025
10
88.357300000000038
20
44.817900000000002
10
88.0565
20
44.817900000000002
10
88.0565
20
50.618000000000016
10
88.357300000000038
20
50.618000000000009
42
0.4142135623730846
10
88.857300000000023
20
51.118000000000016
10
88.857300000000023
20
53.217500000000008
42
0.41421356237310025
10
88.357300000000038
20
53.717500000000001
10
88.0565
20
53.717500000000001
10
88.0565
20
54.217599999999997
42
0.41421356237310025
10
87.556500000000014
20
54.717599999999997
10
74.55719999999998
20
54.717599999999997
42
0.41421356237309503
10
74.057199999999995
20
54.217599999999997
10
74.057199999999995
20
53.717500000000001
10
73.756400000000014
20
53.717500000000001
42
0.41421356237307944
0
LWPOLYLINE
5
134
100
AcDbEntity
8
0
100
AcDbPolyline
90
32
70
1
43
0.0
10
68.506500000000003
20
54.717599999999997
10
55.507199999999997
20
54.717599999999997
42
0.4142135623730846
10
55.007200000000005
20
54.217599999999997
10
55.007200000000005
20
53.717500000000001
10
54.706400000000002
20
53.717500000000001
42
0.41421356237309503
10
54.206400000000002
20
53.217500000000008
10
54.206400000000002
20
51.118000000000016
42
0.41421356237307944
10
54.706400000000016
20
50.618000000000016
10
55.007200000000005
20
50.618000000000016
10
55.007200000000005
20
44.817900000000002
10
54.706400000000002
20
44.817900000000002
42
0.41421356237309503
10
54.206400000000002
20
44.317900000000002
10
54.206400000000002
20
42.217399999999998
42
0.41421356237309503
10
54.706400000000002
20
41.717399999999998
10
55.007200000000005
20
41.717399999999998
10
55.007200000000005
20
41.218299999999999
42
0.41421356237309503
10
55.507199999999997
20
40.718299999999999
10
68.506500000000003
20
40.718299999999999
42
0.41421356237309503
10
69.006500000000003
20
41.218299999999999
10
69.006500000000003
20
41.717399999999998
10
69.307299999999998
20
41.717399999999998
42
0.4142135623730846
10
69.807299999999998
20
42.217399999999998
10
69.807299999999998
20
44.317900000000009
42
0.41421356237310542
10
69.307299999999998
20
44.817900000000009
10
69.006500000000003
20
44.817900000000002
10
69.006500000000003
20
50.618000000000016
10
69.307299999999998
20
50.618000000000016
42
0.4142135623730846
10
69.807299999999998
20
51.118000000000016
10
69.807299999999998
20
53.217500000000008
42
0.41421356237309503
10
69.307299999999998
20
53.717500000000001
10
69.006500000000003
20
53.717500000000001
10
69.006500000000003
20
54.217599999999997
42
0.41421356237309503
0
LWPOLYLINE
5
135
100
AcDbEntity
8
0
100
AcDbPolyline
90
32
70
1
43
0.0
10
92.806399999999982
20
53.717499999999994
42
0.41421356237311585
10
92.306399999999996
20
53.217500000000008
10
92.306399999999996
20
51.118000000000016
42
0.414213562373069
10
92.806399999999996
20
50.618000000000016
10
93.10720000000002
20
50.618000000000016
10
93.10720000000002
20
44.817900000000002
10
92.806399999999982
20
44.817900000000002
42
0.41421356237305862
10
92.306399999999996
20
44.317900000000002
10
92.306399999999996
20
42.217399999999998
42
0.414213562373069
10
92.806399999999996
20
41.717399999999998
10
93.10720000000002
20
41.717399999999998
10
93.10720000000002
20
41.218299999999999
42
0.414213562373069
10
93.60720000000002
20
40.718299999999999
10
106.60700000000003
20
40.718299999999999
42
0.41421356237308982
10
107.10700000000003
20
41.218299999999999
10
107.10700000000003
20
41.717399999999998
10
107.40700000000002
20
41.717399999999991
42
0.4142135623730846
10
107.90700000000001
20
42.217399999999998
10
107.90700000000001
20
44.317899999999987
42
0.41421356237310542
10
107.40700000000002
20
44.817899999999995
10
107.10700000000003
20
44.817900000000002
10
107.10700000000003
20
50.618000000000016
10
107.40700000000002
20
50.618000000000009
42
0.4142135623730846
10
107.90700000000001
20
51.118000000000016
10
107.90700000000001
20
53.217500000000008
42
0.41421356237310025
10
107.40700000000002
20
53.717500000000001
10
107.10700000000003
20
53.717500000000001
10
107.10700000000003
20
54.217599999999997
42
0.41421356237308982
10
106.60700000000003
20
54.717599999999997
10
93.607200000000034
20
54.717599999999997
42
0.414213562373069
10
93.10720000000002
20
54.217599999999997
10
93.10720000000002
20
53.717500000000001
0
LWPOLYLINE
5
136
100
AcDbEntity
8
0
100
AcDbPolyline
90
32
70
1
43
0.0
10
254.74400000000003
20
60.268300000000004
10
254.74400000000003
20
60.767400000000009
10
255.04500000000002
20
60.767400000000009
42
0.41421356237313667
10
255.54500000000002
20
61.267400000000016
10
255.54500000000004
20
63.367900000000013
42
0.41421356237312101
10
255.04500000000002
20
63.867900000000013
10
254.74400000000003
20
63.867900000000013
10
254.74400000000003
20
69.668000000000006
10
255.04500000000002
20
69.668000000000035
42
0.41421356237312101
10
255.54500000000002
20
70.168000000000006
10
255.54500000000004
20
72.267499999999998
42
0.41421356237312101
10
255.04500000000002
20
72.767499999999998
10
254.74400000000003
20
72.767499999999998
10
254.744
20
73.267600000000016
42
0.4142135623730846
10
254.24400000000006
20
73.767600000000016
10
241.245
20
73.76760000000003
42
0.41421356237310025
10
240.745
20
73.267600000000016
10
240.745
20
72.767499999999998
10
240.44499999999999
20
72.767500000000041
42
0.41421356237304818
10
239.94500000000002
20
72.267499999999998
10
239.94500000000005
20
70.168000000000006
42
0.4142135623730846
10
240.44499999999999
20
69.668000000000006
10
240.745
20
69.668000000000006
10
240.745
20
63.867900000000013
10
240.44499999999999
20
63.867900000000049
42
0.41421356237304818
10
239.94500000000002
20
63.367900000000013
10
239.94500000000002
20
61.267400000000016
42
0.41421356237301699
10
240.44500000000011
20
60.767400000000009
10
240.745
20
60.767400000000009
10
240.745
20
60.268300000000004
42
0.41421356237314189
10
241.245
20
59.768300000000004
10
254.24400000000006
20
59.768299999999996
42
0.41421356237307422
0
LWPOLYLINE
5
137
100
AcDbEntity
8
0
100
AcDbPolyline
90
32
70
1
43
0.0
10
39.920299999999997
20
91.317499999999981
10
39.920299999999997
20
89.217999999999975
42
0.41421356237305862
10
40.420299999999997
20
88.717999999999989
10
40.719700000000003
20
88.717999999999989
10
40.719700000000003
20
82.917900000000003
10
40.420299999999997
20
82.917899999999989
42
0.4142135623730534
10
39.920299999999997
20
82.417900000000003
10
39.920299999999997
20
80.317400000000021
42
0.41421356237308982
10
40.420299999999997
20
79.817400000000021
10
40.719700000000003
20
79.817400000000021
10
40.719700000000003
20
79.318299999999979
42
0.4142135623730846
10
41.219700000000003
20
78.818299999999979
10
54.219000000000001
20
78.818299999999979
42
0.41421356237311063
10
54.718999999999987
20
79.318299999999979
10
54.718999999999987
20
79.817400000000021
10
55.019799999999996
20
79.817400000000035
42
0.41421356237308982
10
55.519800000000018
20
80.317400000000021
10
55.519800000000011
20
82.417899999999975
42
0.4142135623730378
10
55.019799999999996
20
82.917900000000003
10
54.718999999999987
20
82.917900000000003
10
54.718999999999987
20
88.717999999999989
10
55.019799999999996
20
88.717999999999961
42
0.4142135623730378
10
55.519800000000004
20
89.217999999999975
10
55.519799999999996
20
91.317499999999995
42
0.41421356237305862
10
55.019799999999996
20
91.817499999999995
10
54.718999999999987
20
91.817499999999995
10
54.718999999999994
20
92.317600000000013
42
0.41421356237305862
10
54.219000000000001
20
92.817599999999999
10
41.219700000000003
20
92.817599999999985
42
0.4142135623730534
10
40.719700000000003
20
92.317599999999999
10
40.719700000000003
20
91.817499999999995
10
40.420299999999997
20
91.817499999999967
42
0.4142135623730846
0
LWPOLYLINE
5
138
100
AcDbEntity
8
0
100
AcDbPolyline
90
32
70
1
43
0.0
10
98.368300000000048
20
92.817599999999999
42
0.4142135623730222
10
97.868300000000019
20
92.317599999999999
10
97.868300000000019
20
91.817499999999995
10
97.570300000000017
20
91.817499999999967
42
0.4142135623730534
10
97.070300000000032
20
91.317499999999981
10
97.070300000000032
20
89.217999999999975
42
0.41421356237307422
10
97.570300000000017
20
88.717999999999989
10
97.868300000000019
20
88.717999999999989
10
97.868300000000019
20
82.917900000000003
10
97.570300000000017
20
82.917899999999989
42
0.4142135623730534
10
97.070300000000032
20
82.417900000000003
10
97.070300000000032
20
80.317400000000021
42
0.41421356237309503
10
97.570300000000017
20
79.817400000000035
10
97.868300000000019
20
79.817400000000021
10
97.868300000000033
20
79.318299999999979
42
0.41421356237310542
10
98.368300000000048
20
78.818300000000022
10
111.369
20
78.818300000000022
42
0.41421356237312623
10
111.86900000000001
20
79.318299999999979
10
111.86900000000001
20
79.817400000000021
10
112.16799999999999
20
79.817400000000006
42
0.41421356237310542
10
112.66800000000001
20
80.317400000000021
10
112.66800000000001
20
82.417900000000003
42
0.41421356237307422
10
112.16799999999999
20
82.917900000000003
10
111.86900000000001
20
82.917900000000003
10
111.86900000000001
20
88.717999999999989
10
112.16799999999999
20
88.717999999999989
42
0.41421356237306384
10
112.66800000000001
20
89.217999999999975
10
112.66800000000001
20
91.317499999999981
42
0.41421356237307422
10
112.16799999999999
20
91.817499999999995
10
111.86900000000001
20
91.817499999999995
10
111.86900000000001
20
92.317599999999999
42
0.41421356237307422
10
111.369
20
92.817599999999999
0
LWPOLYLINE
5
139
100
AcDbEntity
8
0
100
AcDbPolyline
90
32
70
1
43
0.0
10
58.970300000000002
20
80.317400000000021
42
0.41421356237308982
10
59.470300000000016
20
79.817400000000035
10
59.769700000000014
20
79.817400000000021
10
59.769700000000014
20
79.318299999999979
42
0.41421356237311063
10
60.2697
20
78.818299999999979
10
73.268999999999977
20
78.818299999999979
42
0.41421356237310542
10
73.768999999999977
20
79.318299999999979
10
73.768999999999977
20
79.817400000000021
10
74.069800000000015
20
79.817400000000021
42
0.41421356237308982
10
74.569800000000015
20
80.317400000000021
10
74.569800000000029
20
82.417900000000003
42
0.4142135623730534
10
74.069800000000015
20
82.917900000000003
10
73.768999999999977
20
82.917900000000003
10
73.768999999999977
20
88.717999999999989
10
74.069800000000015
20
88.717999999999989
42
0.41421356237307422
10
74.569800000000001
20
89.217999999999975
10
74.569800000000029
20
91.317499999999981
42
0.4142135623730534
10
74.069800000000015
20
91.817499999999995
10
73.768999999999977
20
91.817499999999995
10
73.768999999999977
20
92.317600000000013
42
0.4142135623730378
10
73.268999999999977
20
92.817599999999999
10
60.2697
20
92.817599999999999
42
0.41421356237304818
10
59.769700000000007
20
92.317599999999999
10
59.769700000000014
20
91.817499999999995
10
59.470300000000016
20
91.81750000000001
42
0.4142135623730378
10
58.970300000000009
20
91.317499999999995
10
58.970300000000016
20
89.217999999999975
42
0.4142135623730378
10
59.470300000000016
20
88.717999999999989
10
59.769700000000014
20
88.717999999999989
10
59.769700000000014
20
82.917900000000003
10
59.470300000000016
20
82.917900000000031
42
0.4142135623730378
10
58.970300000000009
20
82.417900000000017
0
LWPOLYLINE
5
140
100
AcDbEntity
8
0
100
AcDbPolyline
90
32
70
1
43
0.0
10
154.22
20
91.317499999999981
10
154.22
20
89.217999999999975
42
0.41421356237306384
10
154.72000000000003
20
88.717999999999989
10
155.02000000000004
20
88.717999999999989
10
155.02000000000004
20
82.917900000000003
10
154.72000000000003
20
82.917900000000003
42
0.41421356237307422
10
154.22
20
82.417900000000003
10
154.22
20
80.317400000000021
42
0.4142135623730846
10
154.72000000000003
20
79.817400000000035
10
155.02000000000004
20
79.817400000000021
10
155.02000000000004
20
79.318299999999979
42
0.41421356237310542
10
155.52000000000001
20
78.818299999999979
10
168.51900000000001
20
78.818299999999994
42
0.41421356237316265
10
169.01900000000009
20
79.318299999999979
10
169.01900000000001
20
79.817400000000021
10
169.31999999999999
20
79.817400000000021
42
0.41421356237309503
10
169.81999999999999
20
80.317400000000021
10
169.81999999999999
20
82.417900000000003
42
0.41421356237309503
10
169.31999999999999
20
82.917900000000003
10
169.01900000000001
20
82.917900000000003
10
169.01900000000001
20
88.717999999999989
10
169.32000000000002
20
88.717999999999989
42
0.4142135623730222
10
169.81999999999999
20
89.217999999999975
10
169.81999999999999
20
91.317499999999981
42
0.41421356237314705
10
169.31999999999999
20
91.817499999999995
10
169.01900000000001
20
91.817499999999995
10
169.01900000000012
20
92.317599999999999
42
0.41421356237314705
10
168.51900000000001
20
92.817600000000041
10
155.52000000000001
20
92.817599999999999
42
0.4142135623730222
10
155.02000000000004
20
92.317599999999999
10
155.02000000000004
20
91.817499999999995
10
154.72000000000003
20
91.817499999999995
42
0.41421356237307422
0
LWPOLYLINE
5
141
100
AcDbEntity
8
0
100
AcDbPolyline
90
32
70
1
43
0.0
10
93.618399999999994
20
91.317499999999981
42
0.4142135623730534
10
93.11839999999998
20
91.817499999999995
10
92.819000000000003
20
91.817499999999995
10
92.819000000000003
20
92.317599999999999
42
0.4142135623730846
10
92.319000000000017
20
92.817599999999999
10
79.319699999999997
20
92.817599999999999
42
0.41421356237310542
10
78.819699999999969
20
92.317599999999999
10
78.819699999999997
20
91.817499999999995
10
78.52030000000002
20
91.817499999999967
42
0.41421356237305862
10
78.02030000000002
20
91.317499999999981
10
78.02030000000002
20
89.217999999999975
42
0.41421356237310542
10
78.52030000000002
20
88.717999999999989
10
78.819699999999997
20
88.717999999999989
10
78.819699999999997
20
82.917900000000003
10
78.52030000000002
20
82.917899999999989
42
0.41421356237305862
10
78.02030000000002
20
82.417900000000003
10
78.02030000000002
20
80.317400000000021
42
0.41421356237311585
10
78.52030000000002
20
79.817400000000021
10
78.819699999999997
20
79.817400000000021
10
78.819699999999997
20
79.318299999999979
42
0.41421356237313667
10
79.319699999999997
20
78.818299999999979
10
92.319000000000017
20
78.818299999999965
42
0.41421356237310542
10
92.819000000000003
20
79.318299999999979
10
92.819000000000003
20
79.817400000000021
10
93.11839999999998
20
79.817400000000021
42
0.41421356237303258
10
93.618399999999994
20
80.317400000000021
10
93.618399999999994
20
82.417900000000003
42
0.4142135623730534
10
93.11839999999998
20
82.917900000000003
10
92.819000000000003
20
82.917900000000003
10
92.819000000000003
20
88.717999999999989
10
93.11839999999998
20
88.717999999999989
42
0.4142135623730222
10
93.618399999999994
20
89.217999999999975
0
LWPOLYLINE
5
142
100
AcDbEntity
8
0
100
AcDbPolyline
90
32
70
1
43
0.0
10
149.96899999999999
20
91.817499999999995
10
149.96899999999999
20
92.317599999999999
42
0.41421356237307422
10
149.46899999999999
20
92.817599999999999
10
136.47
20
92.817599999999999
42
0.4142135623730222
10
135.97000000000003
20
92.317599999999999
10
135.97000000000003
20
91.817499999999995
10
135.67000000000002
20
91.817499999999995
42
0.41421356237307422
10
135.16999999999999
20
91.317499999999981
10
135.16999999999999
20
89.217999999999975
42
0.41421356237306384
10
135.67000000000002
20
88.717999999999989
10
135.97000000000003
20
88.717999999999989
10
135.97000000000003
20
82.917900000000003
10
135.67000000000002
20
82.917900000000003
42
0.41421356237307422
10
135.16999999999999
20
82.417900000000003
10
135.16999999999999
20
80.317400000000021
42
0.4142135623730846
10
135.67000000000002
20
79.817400000000035
10
135.97000000000003
20
79.817400000000021
10
135.97000000000003
20
79.318299999999979
42
0.41421356237310542
10
136.47
20
78.818299999999979
10
149.46899999999999
20
78.818299999999965
42
0.41421356237313667
10
149.96899999999999
20
79.318299999999979
10
149.96899999999999
20
79.817400000000021
10
150.27000000000001
20
79.817400000000049
42
0.41421356237307422
10
150.77000000000001
20
80.317400000000021
10
150.77000000000001
20
82.417900000000003
42
0.41421356237307422
10
150.27000000000001
20
82.917900000000003
10
149.96899999999999
20
82.917900000000003
10
149.96899999999999
20
88.717999999999989
10
150.27000000000001
20
88.717999999999989
42
0.41421356237306384
10
150.77000000000001
20
89.217999999999975
10
150.77000000000001
20
91.317499999999981
42
0.41421356237307422
10
150.27000000000001
20
91.817499999999995
0
LWPOLYLINE
5
143
100
AcDbEntity
8
0
100
AcDbPolyline
90
32
70
1
43
0.0
10
116.91800000000001
20
82.917900000000003
10
116.61900000000001
20
82.917900000000003
42
0.4142135623730534
10
116.119
20
82.417900000000003
10
116.119
20
80.317400000000021
42
0.41421356237303258
10
116.61900000000001
20
79.817400000000021
10
116.91800000000001
20
79.817400000000021
10
116.91800000000001
20
79.318299999999979
42
0.41421356237310542
10
117.41799999999999
20
78.818299999999979
10
130.41899999999998
20
78.818299999999965
42
0.41421356237311585
10
130.91899999999998
20
79.318299999999979
10
130.91899999999998
20
79.817400000000021
10
131.22
20
79.817400000000006
42
0.41421356237310542
10
131.72
20
80.317400000000021
10
131.72
20
82.417900000000003
42
0.41421356237307422
10
131.22
20
82.917900000000003
10
130.91899999999998
20
82.917900000000003
10
130.91899999999998
20
88.717999999999989
10
131.22
20
88.717999999999989
42
0.41421356237306384
10
131.72
20
89.217999999999975
10
131.72
20
91.317499999999981
42
0.41421356237307422
10
131.22
20
91.817499999999995
10
130.91899999999998
20
91.817499999999995
10
130.91899999999998
20
92.317599999999999
42
0.41421356237307422
10
130.41899999999998
20
92.817599999999999
10
117.41799999999999
20
92.817599999999999
42
0.4142135623730846
10
116.91800000000001
20
92.317599999999999
10
116.91800000000001
20
91.817499999999995
10
116.61900000000001
20
91.817499999999995
42
0.4142135623730534
10
116.119
20
91.317499999999981
10
116.119
20
89.217999999999975
42
0.41421356237304302
10
116.61900000000001
20
88.717999999999989
10
116.91800000000001
20
88.717999999999989
0
LWPOLYLINE
5
144
100
AcDbEntity
8
0
100
AcDbPolyline
90
32
70
1
43
0.0
10
188.06900000000002
20
88.717999999999989
10
188.36999999999995
20
88.717999999999989
42
0.41421356237304302
10
188.87
20
89.217999999999975
10
188.87
20
91.317499999999981
42
0.41421356237314705
10
188.37
20
91.817499999999995
10
188.06900000000002
20
91.817499999999995
10
188.06900000000002
20
92.317599999999999
42
0.41421356237304302
10
187.56900000000002
20
92.817599999999985
10
174.56999999999999
20
92.81759999999997
42
0.41421356237311585
10
174.06999999999999
20
92.317599999999999
10
174.06999999999999
20
91.817499999999995
10
173.77000000000004
20
91.817499999999953
42
0.41421356237311585
10
173.27000000000001
20
91.317499999999981
10
173.27000000000004
20
89.217999999999975
42
0.4142135623730222
10
173.77000000000004
20
88.717999999999961
10
174.06999999999999
20
88.717999999999989
10
174.06999999999999
20
82.917900000000003
10
173.77000000000004
20
82.917900000000003
42
0.41421356237313667
10
173.27000000000001
20
82.417900000000003
10
173.26999999999998
20
80.317400000000021
42
0.41421356237310542
10
173.77000000000004
20
79.817399999999992
10
174.06999999999999
20
79.817400000000021
10
174.06999999999999
20
79.318299999999979
42
0.41421356237306384
10
174.56999999999999
20
78.818300000000022
10
187.56900000000002
20
78.818300000000022
42
0.41421356237314705
10
188.06900000000002
20
79.318299999999979
10
188.06900000000002
20
79.817400000000021
10
188.37
20
79.817400000000021
42
0.41421356237309503
10
188.87
20
80.317400000000021
10
188.87
20
82.417900000000003
42
0.41421356237309503
10
188.37
20
82.917900000000003
10
188.06900000000002
20
82.917900000000003
0
LWPOLYLINE
5
145
100
AcDbEntity
8
0
100
AcDbPolyline
90
32
70
1
43
0.0
10
193.62
20
92.817599999999985
42
0.4142135623730846
10
193.12
20
92.317599999999999
10
193.12
20
91.817499999999995
10
192.81999999999999
20
91.817499999999995
42
0.41421356237309503
10
192.31999999999999
20
91.317499999999981
10
192.31999999999999
20
89.217999999999975
42
0.41421356237313667
10
192.81999999999999
20
88.717999999999989
10
193.12
20
88.717999999999989
10
193.12
20
82.917900000000003
10
192.81999999999999
20
82.917900000000003
42
0.41421356237309503
10
192.31999999999999
20
82.417900000000003
10
192.31999999999999
20
80.317400000000021
42
0.41421356237310542
10
192.82000000000011
20
79.817400000000021
10
193.12
20
79.817400000000021
10
193.12
20
79.318299999999979
42
0.41421356237306384
10
193.62
20
78.818300000000022
10
206.61900000000003
20
78.818299999999994
42
0.41421356237316265
10
207.11900000000011
20
79.318299999999979
10
207.11900000000003
20
79.817400000000021
10
207.42000000000004
20
79.817400000000006
42
0.41421356237312623
10
207.92000000000002
20
80.317400000000021
10
207.92000000000002
20
82.417900000000003
42
0.41421356237309503
10
207.42000000000002
20
82.917900000000003
10
207.11900000000003
20
82.917900000000003
10
207.11900000000003
20
88.717999999999989
10
207.42000000000004
20
88.717999999999989
42
0.4142135623730222
10
207.92000000000002
20
89.217999999999975
10
207.92000000000002
20
91.317499999999981
42
0.41421356237314705
10
207.42000000000002
20
91.817499999999995
10
207.11900000000003
20
91.817499999999995
10
207.11900000000003
20
92.317599999999999
42
0.41421356237304302
10
206.61900000000003
20
92.817599999999985
0
LWPOLYLINE
5
146
100
AcDbEntity
8
0
100
AcDbPolyline
90
32
70
1
43
0.0
10
226.97000000000003
20
82.417900000000003
42
0.41421356237309503
10
226.47000000000003
20
82.917900000000003
10
226.16900000000001
20
82.917900000000003
10
226.16900000000001
20
88.717999999999989
10
226.46999999999997
20
88.717999999999989
42
0.41421356237304302
10
226.97000000000003
20
89.217999999999975
10
226.97000000000003
20
91.317499999999981
42
0.41421356237314705
10
226.47000000000003
20
91.817499999999995
10
226.16900000000001
20
91.817499999999995
10
226.16900000000001
20
92.317599999999999
42
0.41421356237307422
10
225.66900000000004
20
92.817599999999999
10
212.66999999999999
20
92.817599999999999
42
0.41421356237309503
10
212.16999999999999
20
92.317599999999999
10
212.16999999999999
20
91.817499999999995
10
211.87
20
91.817499999999995
42
0.41421356237309503
10
211.37
20
91.317499999999981
10
211.37
20
89.217999999999975
42
0.41421356237313667
10
211.87
20
88.717999999999989
10
212.16999999999999
20
88.717999999999989
10
212.16999999999999
20
82.917900000000003
10
211.87
20
82.917900000000003
42
0.41421356237309503
10
211.37
20
82.417900000000003
10
211.37
20
80.317400000000021
42
0.41421356237310542
10
211.87000000000012
20
79.817400000000021
10
212.16999999999999
20
79.817400000000021
10
212.16999999999999
20
79.318299999999979
42
0.41421356237314189
10
212.66999999999999
20
78.818299999999979
10
225.66900000000004
20
78.818299999999965
42
0.41421356237311585
10
226.16900000000001
20
79.318299999999979
10
226.16900000000001
20
79.817400000000021
10
226.47000000000006
20
79.817400000000035
42
0.41421356237312623
10
226.97000000000003
20
80.317400000000021
0
LWPOLYLINE
5
147
100
AcDbEntity
8
0
100
AcDbPolyline
90
32
70
1
43
0.0
10
288.07000000000011
20
91.81750000000001
42
0.4142135623730222
10
287.56999999999999
20
91.317499999999981
10
287.57000000000005
20
89.217999999999975
42
0.41421356237307422
10
288.07000000000011
20
88.717999999999989
10
288.37
20
88.717999999999989
10
288.37
20
82.917900000000003
10
288.07000000000005
20
82.917900000000003
42
0.41421356237313667
10
287.56999999999999
20
82.417900000000003
10
287.57000000000011
20
80.317400000000021
42
0.41421356237313667
10
288.07000000000011
20
79.817400000000021
10
288.37
20
79.817400000000021
10
288.37
20
79.318299999999979
42
0.41421356237313145
10
288.87000000000012
20
78.818299999999979
10
301.86900000000003
20
78.818299999999965
42
0.41421356237314189
10
302.36900000000003
20
79.318299999999979
10
302.36900000000003
20
79.817400000000021
10
302.67000000000002
20
79.817400000000035
42
0.41421356237310542
10
303.17000000000013
20
80.317400000000021
10
303.17000000000013
20
82.417900000000003
42
0.4142135623732407
10
302.67000000000013
20
82.917900000000003
10
302.36900000000003
20
82.917900000000003
10
302.36900000000003
20
88.717999999999989
10
302.67000000000002
20
88.717999999999961
42
0.4142135623730534
10
303.17000000000002
20
89.217999999999975
10
303.17000000000002
20
91.317499999999981
42
0.41421356237301177
10
302.67000000000002
20
91.817499999999967
10
302.36900000000003
20
91.817499999999995
10
302.36900000000003
20
92.317599999999999
42
0.41421356237309503
10
301.86900000000003
20
92.817599999999999
10
288.87000000000012
20
92.817600000000027
42
0.4142135623730846
10
288.36999999999989
20
92.317599999999999
10
288.37
20
91.817499999999995
0
LWPOLYLINE
5
148
100
AcDbEntity
8
0
100
AcDbPolyline
90
32
70
1
43
0.0
10
231.22
20
79.817400000000021
10
231.22
20
79.318299999999979
42
0.41421356237314189
10
231.72
20
78.818299999999979
10
244.71900000000005
20
78.818299999999965
42
0.41421356237311585
10
245.21900000000002
20
79.318299999999979
10
245.21900000000002
20
79.817400000000021
10
245.52000000000007
20
79.817399999999992
42
0.4142135623730534
10
246.02000000000004
20
80.317400000000021
10
246.02000000000004
20
82.417900000000003
42
0.41421356237309503
10
245.52000000000004
20
82.917900000000003
10
245.21900000000002
20
82.917900000000003
10
245.21900000000002
20
88.717999999999989
10
245.51999999999998
20
88.717999999999989
42
0.41421356237304302
10
246.02000000000004
20
89.217999999999975
10
246.02000000000004
20
91.317499999999981
42
0.41421356237314705
10
245.52000000000004
20
91.817499999999995
10
245.21900000000002
20
91.817499999999995
10
245.21900000000002
20
92.317599999999999
42
0.41421356237307422
10
244.71900000000005
20
92.817599999999999
10
231.72
20
92.817599999999999
42
0.41421356237309503
10
231.22
20
92.317599999999999
10
231.22
20
91.817499999999995
10
230.91999999999999
20
91.817499999999995
42
0.41421356237307422
10
230.42000000000002
20
91.317499999999981
10
230.42000000000002
20
89.217999999999975
42
0.41421356237311585
10
230.91999999999999
20
88.717999999999989
10
231.22
20
88.717999999999989
10
231.22
20
82.917900000000003
10
230.91999999999999
20
82.917900000000003
42
0.41421356237307422
10
230.42000000000002
20
82.417900000000003
10
230.42000000000002
20
80.317400000000021
42
0.41421356237304302
10
230.9200000000001
20
79.817400000000021
0
LWPOLYLINE
5
149
100
AcDbEntity
8
0
100
AcDbPolyline
90
48
70
1
43
0.0
10
283.62
20
79.817400000000021
42
0.41421356237313667
10
284.12
20
80.317400000000021
10
284.12000000000012
20
82.417900000000003
42
0.4142135623732407
10
283.62000000000012
20
82.917900000000003
10
283.31900000000013
20
82.917900000000003
10
283.31900000000013
20
88.717999999999989
10
283.62
20
88.718000000000004
42
0.41421356237309503
10
284.12000000000012
20
89.217999999999975
10
284.12
20
91.317499999999981
42
0.41421356237307422
10
283.62000000000012
20
91.817499999999995
10
283.31900000000013
20
91.817499999999995
10
283.31900000000013
20
92.317599999999999
42
0.41421356237309503
10
282.81900000000002
20
92.817599999999999
10
250.77000000000001
20
92.817599999999999
42
0.41421356237309503
10
250.27000000000001
20
92.317599999999999
10
250.27000000000001
20
91.817499999999995
10
249.97
20
91.817499999999995
42
0.41421356237307422
10
249.47000000000003
20
91.317499999999981
10
249.47000000000003
20
89.217999999999975
42
0.41421356237311585
10
249.97
20
88.717999999999989
10
250.27000000000001
20
88.717999999999989
10
250.27000000000001
20
82.917900000000003
10
249.97
20
82.917900000000003
42
0.41421356237307422
10
249.47000000000003
20
82.417900000000003
10
249.47000000000003
20
80.317400000000021
42
0.41421356237304302
10
249.97000000000011
20
79.817400000000021
10
250.27000000000001
20
79.817400000000021
10
250.27000000000001
20
79.318299999999979
42
0.41421356237314189
10
250.77000000000001
20
78.818299999999979
10
252.27290000000005
20
78.818299999999979
10
253.09655339059327
20
77.994646609406729
42
0.19891236737972759
10
253.45010678118655
20
77.84820000000002
10
253.74300000000002
20
77.84820000000002
10
256.04500000000002
20
77.848200000000048
10
256.33789321881358
20
77.848200000000048
42
0.19891236737974718
10
256.6914466094068
20
77.994646609406772
10
257.51510000000002
20
78.818299999999979
10
276.07490000000007
20
78.818299999999979
10
276.89855339059329
20
77.994646609406729
42
0.19891236737972759
10
277.25210678118657
20
77.84820000000002
10
277.54500000000002
20
77.84820000000002
10
279.84500000000003
20
77.84820000000002
10
280.13789321881353
20
77.84820000000002
42
0.19891236737977327
10
280.49144660940675
20
77.994646609406772
10
281.31509999999997
20
78.818299999999979
10
282.81900000000002
20
78.818299999999965
42
0.41421356237319906
10
283.31900000000013
20
79.318299999999979
10
283.31900000000013
20
79.817400000000021
0
LINE
5
150
100
AcDbEntity
8
0
100
AcDbLine
10
179.41900000000001
20
17.589300000000001
30
0
11
179.41900000000001
21
17.587900000000005
31
0
0
LINE
5
151
100
AcDbEntity
8
0
100
AcDbLine
10
179.41900000000001
20
17.587900000000005
30
0
11
179.41200000000003
21
17.587900000000005
31
0
0
LINE
5
152
100
AcDbEntity
8
0
100
AcDbLine
10
172.92599999999999
20
16.180493218813456
30
0
11
172.92599999999999
21
11.918699999999999
31
0
0
LWPOLYLINE
5
153
100
AcDbEntity
8
0
100
AcDbPolyline
90
32
70
1
43
0.0
10
16.919800000000002
20
91.817499999999995
10
16.619199999999999
20
91.817499999999995
10
16.619200000000006
20
92.317599999999999
42
0.4142135623730534
10
16.119199999999999
20
92.817599999999999
10
3.1196500000000005
20
92.817599999999999
42
0.41421356237306672
10
2.6196500000000009
20
92.317599999999999
10
2.61965
20
91.817499999999995
10
2.3203900000000002
20
91.817499999999995
42
0.41421356237306595
10
1.8203900000000024
20
91.317499999999981
10
1.8203900000000064
20
89.217999999999975
42
0.41421356237305601
10
2.3203900000000002
20
88.717999999999989
10
2.61965
20
88.717999999999989
10
2.61965
20
82.917900000000003
10
2.3203900000000002
20
82.917900000000003
42
0.41421356237306595
10
1.8203900000000024
20
82.417900000000003
10
1.8203900000000051
20
80.317400000000021
42
0.41421356237310936
10
2.3203900000000011
20
79.817400000000021
10
2.61965
20
79.817400000000021
10
2.6196499999999956
20
79.318299999999979
42
0.41421356237309764
10
3.1196499999999983
20
78.818299999999979
10
16.119199999999999
20
78.818299999999965
42
0.41421356237312495
10
16.619199999999999
20
79.318299999999979
10
16.619199999999999
20
79.817400000000021
10
16.919800000000002
20
79.817400000000021
42
0.41421356237308982
10
17.419799999999999
20
80.317400000000021
10
17.419800000000002
20
82.417900000000003
42
0.41421356237305079
10
16.919800000000002
20
82.917900000000003
10
16.619199999999999
20
82.917900000000003
10
16.619199999999999
20
88.717999999999989
10
16.919800000000002
20
88.717999999999989
42
0.41421356237305079
10
17.419799999999992
20
89.217999999999975
10
17.419799999999995
20
91.317499999999981
42
0.41421356237306772
0
LWPOLYLINE
5
154
100
AcDbEntity
8
0
100
AcDbPolyline
90
32
70
1
43
0.0
10
21.370400000000004
20
91.817499999999995
42
0.41421356237310025
10
20.8704
20
91.317499999999967
10
20.870399999999997
20
89.217999999999975
42
0.41421356237304302
10
21.370400000000004
20
88.717999999999989
10
21.669699999999999
20
88.717999999999989
10
21.669699999999999
20
82.917900000000003
10
21.370400000000004
20
82.917900000000003
42
0.41421356237304041
10
20.8704
20
82.417900000000017
10
20.870399999999997
20
80.317400000000021
42
0.41421356237309503
10
21.370400000000004
20
79.817400000000021
10
21.669699999999999
20
79.817400000000021
10
21.669700000000006
20
79.318299999999979
42
0.41421356237310802
10
22.169699999999999
20
78.818300000000022
10
35.169000000000004
20
78.818300000000022
42
0.41421356237309243
10
35.66899999999999
20
79.318299999999979
10
35.669000000000004
20
79.817400000000021
10
35.969800000000006
20
79.817400000000021
42
0.41421356237309503
10
36.469800000000006
20
80.317400000000021
10
36.469800000000006
20
82.417900000000017
42
0.41421356237304041
10
35.969800000000006
20
82.917899999999975
10
35.669000000000004
20
82.917900000000003
10
35.669000000000004
20
88.717999999999989
10
35.969800000000006
20
88.717999999999989
42
0.41421356237304041
10
36.469800000000006
20
89.217999999999975
10
36.469800000000014
20
91.317499999999995
42
0.41421356237304302
10
35.969800000000006
20
91.817499999999995
10
35.669000000000004
20
91.817499999999995
10
35.669000000000004
20
92.31759999999997
42
0.414213562373069
10
35.169000000000004
20
92.817599999999999
10
22.169699999999999
20
92.817599999999999
42
0.41421356237307161
10
21.669699999999999
20
92.317599999999956
10
21.669699999999999
20
91.817499999999995
0
LWPOLYLINE
5
155
100
AcDbEntity
8
0
100
AcDbPolyline
90
36
70
1
43
0.0
10
14.5259
20
30.967300000000009
10
14.5259
20
26.3674
10
14.5259
20
25.767900000000004
10
14.225300000000001
20
25.767900000000008
42
0.41421356237309503
10
13.725300000000001
20
25.267900000000012
10
13.725300000000001
20
23.167300000000001
42
0.41421356237309503
10
14.225300000000001
20
22.667300000000004
10
14.5259
20
22.667300000000004
10
14.5259
20
22.168299999999999
42
0.41421356237309503
10
15.0259
20
21.668300000000002
10
28.025400000000005
20
21.668300000000013
42
0.41421356237309503
10
28.525400000000005
20
22.168300000000013
10
28.525400000000005
20
22.667300000000004
10
28.826000000000001
20
22.667300000000004
42
0.41421356237309503
10
29.326000000000001
20
23.167300000000001
10
29.326000000000001
20
25.267900000000001
42
0.41421356237309503
10
28.826000000000001
20
25.767900000000004
10
28.525400000000005
20
25.767900000000004
10
28.525400000000005
20
26.3674
10
28.525400000000005
20
30.967300000000009
10
28.525400000000005
20
31.568100000000001
10
28.826000000000001
20
31.568100000000005
42
0.41421356237309503
10
29.326000000000004
20
32.068100000000001
10
29.326000000000011
20
34.167299999999997
42
0.41421356237309503
10
28.826000000000015
20
34.667299999999997
10
28.525400000000005
20
34.667299999999997
10
28.525400000000005
20
35.167600000000007
42
0.41421356237309503
10
28.025400000000005
20
35.667600000000007
10
15.0259
20
35.667600000000007
42
0.41421356237309503
10
14.5259
20
35.167600000000007
10
14.5259
20
34.667299999999997
10
14.225300000000001
20
34.667299999999997
42
0.41421356237309503
10
13.725300000000002
20
34.167299999999997
10
13.725300000000001
20
32.068100000000001
42
0.41421356237309503
10
14.225300000000001
20
31.568100000000001
10
14.5259
20
31.568100000000001
0
LINE
5
156
100
AcDbEntity
8
0
100
AcDbLine
10
184.43799999999999
20
4.08725
30
0
11
184.43799999999999
21
4.0886199999999997
31
0
0
LINE
5
157
100
AcDbEntity
8
0
100
AcDbLine
10
184.43799999999999
20
4.0886199999999997
30
0
11
184.44500000000002
21
4.0886199999999997
31
0
0
LWPOLYLINE
5
158
100
AcDbEntity
8
0
100
AcDbPolyline
90
31
70
1
43
0.0
10
21.682300000000005
20
60.767400000000009
42
0.41421356237308721
10
22.182300000000001
20
61.267400000000016
10
22.182299999999998
20
63.367900000000006
42
0.41421356237310281
10
21.682300000000005
20
63.867900000000013
10
21.381700000000002
20
63.867900000000013
10
21.381700000000002
20
69.668000000000006
10
21.682300000000005
20
69.668000000000006
42
0.41421356237308204
10
22.182300000000001
20
70.168000000000006
10
22.182299999999998
20
72.267500000000013
42
0.41421356237309764
10
21.682300000000005
20
72.767499999999998
10
21.381700000000002
20
72.767499999999998
10
21.38170000000002
20
73.267600000000016
42
0.41421356237309764
10
20.881700000000016
20
73.767600000000016
10
7.8821600000000025
20
73.767600000000016
42
0.41421356237309764
10
7.3821600000000043
20
73.267600000000016
10
7.3821600000000025
20
72.767499999999998
10
7.0815300000000017
20
72.767500000000013
42
0.41421356237307944
10
6.5815300000000043
20
72.267499999999998
10
6.5815300000000052
20
70.168000000000006
42
0.41421356237309764
10
7.081529999999999
20
69.668000000000006
10
7.3821600000000025
20
69.668000000000006
10
7.3821600000000025
20
63.867900000000013
10
7.081529999999999
20
63.867900000000013
42
0.41421356237308721
10
6.5815299999999954
20
63.367900000000013
10
6.5815300000000008
20
61.267400000000016
42
0.41421356237308982
10
7.081529999999999
20
60.767400000000009
10
7.3821600000000025
20
60.767400000000009
10
7.3821600000000025
20
59.768300000000004
10
20.881699999999999
20
59.768300000000011
42
0.41421356237308982
10
21.381700000000002
20
60.268300000000004
10
21.381700000000002
20
60.767400000000009
0
LINE
5
159
100
AcDbEntity
8
0
100
AcDbLine
10
177.94999999999999
20
17.587900000000005
30
0
11
174.65100000000001
21
17.587900000000005
31
0
0
LINE
5
160
100
AcDbEntity
8
0
100
AcDbLine
10
184.44500000000002
20
10.1189
30
0
11
184.44500000000002
21
16.181893218813446
31
0
0
LINE
5
161
100
AcDbEntity
8
0
100
AcDbLine
10
172.92599999999999
20
7.3187600000000019
30
0
11
172.92599999999999
21
11.918699999999999
31
0
0
LWPOLYLINE
5
162
100
AcDbEntity
8
0
100
AcDbPolyline
90
32
70
1
43
0.0
10
45.194000000000003
20
72.767499999999998
10
45.194000000000003
20
73.267600000000016
42
0.41421356237308982
10
44.693999999999996
20
73.767600000000016
10
31.694700000000005
20
73.767600000000016
42
0.41421356237309764
10
31.194700000000001
20
73.267600000000016
10
31.194700000000001
20
72.767499999999998
10
30.895399999999999
20
72.767499999999998
42
0.41421356237307161
10
30.395400000000002
20
72.267499999999998
10
30.395400000000002
20
70.168000000000006
42
0.41421356237310542
10
30.895399999999999
20
69.668000000000006
10
31.194700000000001
20
69.668000000000006
10
31.194700000000001
20
63.867900000000013
10
30.895399999999999
20
63.867900000000013
42
0.41421356237307161
10
30.395400000000002
20
63.367900000000013
10
30.395400000000006
20
61.267400000000016
42
0.41421356237309764
10
30.895399999999999
20
60.767400000000009
10
31.194700000000001
20
60.767400000000009
10
31.194700000000001
20
60.268300000000004
42
0.41421356237309764
10
31.694700000000005
20
59.768300000000004
10
44.693999999999996
20
59.768300000000004
42
0.41421356237310542
10
45.194000000000003
20
60.268300000000011
10
45.194000000000003
20
60.767400000000009
10
45.494799999999998
20
60.767400000000009
42
0.41421356237307944
10
45.994799999999998
20
61.267400000000016
10
45.994799999999998
20
63.367900000000013
42
0.41421356237309503
10
45.494799999999998
20
63.867900000000013
10
45.194000000000003
20
63.867900000000013
10
45.194000000000003
20
69.668000000000006
10
45.494799999999998
20
69.668000000000006
42
0.41421356237309503
10
45.994799999999998
20
70.168000000000006
10
45.994799999999998
20
72.267499999999998
42
0.41421356237309503
10
45.494799999999998
20
72.767499999999998
0
LWPOLYLINE
5
163
100
AcDbEntity
8
0
100
AcDbPolyline
90
32
70
1
43
0.0
10
65.044799999999995
20
70.168000000000006
10
65.044799999999995
20
72.267499999999998
42
0.41421356237309503
10
64.544800000000009
20
72.767499999999998
10
64.244
20
72.767499999999998
10
64.244
20
73.267600000000016
42
0.4142135623730846
10
63.744000000000007
20
73.767600000000016
10
50.744700000000016
20
73.767600000000016
42
0.41421356237313145
10
50.244700000000009
20
73.267600000000016
10
50.244700000000009
20
72.767499999999998
10
49.94530000000001
20
72.767499999999998
42
0.41421356237307944
10
49.445300000000003
20
72.267499999999998
10
49.445300000000003
20
70.168000000000006
42
0.41421356237307944
10
49.94530000000001
20
69.668000000000006
10
50.244700000000009
20
69.668000000000006
10
50.244700000000009
20
63.867900000000013
10
49.94530000000001
20
63.867900000000013
42
0.41421356237307944
10
49.445300000000003
20
63.367900000000013
10
49.445300000000003
20
61.267400000000016
42
0.41421356237311585
10
49.94530000000001
20
60.767400000000009
10
50.244700000000009
20
60.767400000000009
10
50.244700000000009
20
60.268300000000004
42
0.41421356237308982
10
50.744700000000016
20
59.768300000000004
10
63.744000000000007
20
59.768300000000004
42
0.41421356237309503
10
64.244
20
60.268300000000004
10
64.244
20
60.767400000000009
10
64.544800000000009
20
60.767400000000009
42
0.41421356237308982
10
65.044799999999995
20
61.267400000000016
10
65.044799999999995
20
63.367900000000013
42
0.41421356237309503
10
64.544800000000009
20
63.867900000000013
10
64.244
20
63.867900000000013
10
64.244
20
69.668000000000006
10
64.544800000000009
20
69.668000000000006
42
0.4142135623730846
0
LINE
5
164
100
AcDbEntity
8
0
100
AcDbLine
10
182.71900000000002
20
17.589300000000001
30
0
11
179.41900000000001
21
17.589300000000001
31
0
0
LINE
5
165
100
AcDbEntity
8
0
100
AcDbLine
10
184.44500000000002
20
10.1189
30
0
11
184.44500000000002
21
7.3187600000000019
31
0
0
LINE
5
166
100
AcDbEntity
8
0
100
AcDbLine
10
179.41900000000001
20
17.589300000000001
30
0
11
177.94999999999999
21
17.587900000000005
31
0
0
LWPOLYLINE
5
167
100
AcDbEntity
8
0
100
AcDbPolyline
90
32
70
1
43
0.0
10
102.34400000000001
20
60.767400000000009
10
102.64499999999998
20
60.767400000000002
42
0.41421356237307944
10
103.14500000000001
20
61.267400000000016
10
103.14500000000001
20
63.367900000000013
42
0.414213562373069
10
102.645
20
63.867900000000013
10
102.34400000000001
20
63.867900000000013
10
102.34400000000001
20
69.668000000000006
10
102.64499999999998
20
69.668000000000006
42
0.414213562373069
10
103.14500000000001
20
70.168000000000006
10
103.14500000000001
20
72.267499999999998
42
0.414213562373069
10
102.645
20
72.767499999999998
10
102.34400000000001
20
72.767499999999998
10
102.34400000000001
20
73.267600000000016
42
0.41421356237310542
10
101.84399999999999
20
73.767600000000016
10
88.844700000000017
20
73.76760000000003
42
0.41421356237309503
10
88.344700000000017
20
73.267600000000016
10
88.344700000000017
20
72.767499999999998
10
88.045300000000026
20
72.767499999999998
42
0.41421356237308982
10
87.545300000000026
20
72.267499999999998
10
87.545300000000026
20
70.168000000000006
42
0.41421356237308982
10
88.045300000000026
20
69.668000000000006
10
88.344700000000017
20
69.668000000000006
10
88.344700000000017
20
63.867900000000013
10
88.045300000000026
20
63.867900000000013
42
0.41421356237308982
10
87.545300000000026
20
63.367900000000013
10
87.545300000000026
20
61.267400000000016
42
0.41421356237310025
10
88.045300000000026
20
60.767400000000009
10
88.344700000000017
20
60.767400000000009
10
88.344700000000032
20
60.268300000000004
42
0.41421356237307422
10
88.844700000000017
20
59.768300000000004
10
101.84399999999999
20
59.768299999999996
42
0.41421356237311585
10
102.34400000000001
20
60.268300000000004
0
LWPOLYLINE
5
168
100
AcDbEntity
8
0
100
AcDbPolyline
90
32
70
1
43
0.0
10
68.4953
20
70.168000000000006
42
0.41421356237309503
10
68.9953
20
69.668000000000006
10
69.294700000000006
20
69.668000000000006
10
69.294700000000006
20
63.867900000000013
10
68.9953
20
63.867900000000013
42
0.4142135623730846
10
68.4953
20
63.367900000000013
10
68.4953
20
61.267400000000016
42
0.41421356237313145
10
68.9953
20
60.767400000000009
10
69.294700000000006
20
60.767400000000009
10
69.294700000000006
20
60.268300000000004
42
0.41421356237310542
10
69.794700000000006
20
59.768300000000004
10
82.794000000000011
20
59.768299999999996
42
0.41421356237310542
10
83.293999999999997
20
60.268300000000004
10
83.293999999999997
20
60.767400000000009
10
83.594800000000021
20
60.767400000000002
42
0.41421356237308982
10
84.094800000000021
20
61.267400000000016
10
84.094800000000021
20
63.367900000000013
42
0.41421356237310025
10
83.594800000000035
20
63.867900000000013
10
83.293999999999997
20
63.867900000000013
10
83.293999999999997
20
69.668000000000006
10
83.594800000000035
20
69.668000000000006
42
0.4142135623730846
10
84.094800000000021
20
70.168000000000006
10
84.094800000000021
20
72.267499999999998
42
0.41421356237310025
10
83.594800000000035
20
72.767499999999998
10
83.293999999999997
20
72.767499999999998
10
83.293999999999997
20
73.267600000000016
42
0.41421356237310542
10
82.794000000000011
20
73.767600000000016
10
69.794700000000006
20
73.767600000000016
42
0.41421356237310542
10
69.294700000000006
20
73.267600000000016
10
69.294700000000006
20
72.767499999999998
10
68.9953
20
72.767499999999998
42
0.4142135623730846
10
68.4953
20
72.267499999999998
0
LWPOLYLINE
5
169
100
AcDbEntity
8
0
100
AcDbPolyline
90
32
70
1
43
0.0
10
121.39400000000001
20
63.867900000000013
10
121.39400000000001
20
69.668000000000006
10
121.69499999999999
20
69.668000000000006
42
0.41421356237308982
10
122.19499999999999
20
70.168000000000006
10
122.19499999999999
20
72.267499999999998
42
0.41421356237308982
10
121.69499999999999
20
72.767499999999998
10
121.39400000000001
20
72.767499999999998
10
121.39399999999998
20
73.267600000000016
42
0.41421356237307422
10
120.89399999999999
20
73.767600000000016
10
107.89500000000001
20
73.76760000000003
42
0.41421356237311585
10
107.395
20
73.267600000000016
10
107.395
20
72.767499999999998
10
107.095
20
72.767500000000013
42
0.4142135623730846
10
106.59500000000001
20
72.267499999999998
10
106.59500000000001
20
70.168000000000006
42
0.41421356237310025
10
107.095
20
69.668000000000006
10
107.395
20
69.668000000000006
10
107.395
20
63.867900000000013
10
107.095
20
63.86790000000002
42
0.4142135623730846
10
106.59500000000001
20
63.367900000000013
10
106.59500000000001
20
61.267400000000016
42
0.41421356237311063
10
107.095
20
60.767400000000009
10
107.395
20
60.767400000000009
10
107.395
20
60.268300000000004
42
0.41421356237310542
10
107.89500000000001
20
59.768300000000004
10
120.89399999999999
20
59.768300000000004
42
0.41421356237307422
10
121.39400000000001
20
60.268300000000011
10
121.39400000000001
20
60.767400000000009
10
121.69499999999999
20
60.767400000000002
42
0.41421356237310025
10
122.19499999999999
20
61.267400000000016
10
122.19499999999999
20
63.367900000000013
42
0.41421356237308982
10
121.69499999999999
20
63.867900000000013
0
LWPOLYLINE
5
170
100
AcDbEntity
8
0
100
AcDbPolyline
90
32
70
1
43
0.0
10
140.745
20
60.767400000000002
42
0.41421356237310025
10
141.245
20
61.267400000000016
10
141.245
20
63.367900000000013
42
0.41421356237308982
10
140.745
20
63.867900000000013
10
140.44399999999999
20
63.867900000000013
10
140.44399999999999
20
69.668000000000006
10
140.745
20
69.668000000000006
42
0.41421356237308982
10
141.245
20
70.168000000000006
10
141.245
20
72.267499999999998
42
0.41421356237308982
10
140.745
20
72.767499999999998
10
140.44399999999999
20
72.767499999999998
10
140.44399999999999
20
73.267600000000016
42
0.41421356237310542
10
139.94399999999999
20
73.767600000000016
10
126.94499999999999
20
73.76760000000003
42
0.41421356237310542
10
126.44500000000001
20
73.267600000000016
10
126.44500000000001
20
72.767499999999998
10
126.14400000000001
20
72.767499999999998
42
0.41421356237308982
10
125.64399999999999
20
72.267499999999998
10
125.64399999999999
20
70.168000000000006
42
0.41421356237308982
10
126.14400000000001
20
69.668000000000006
10
126.44500000000001
20
69.668000000000006
10
126.44500000000001
20
63.867900000000013
10
126.14400000000001
20
63.867900000000013
42
0.41421356237308982
10
125.64399999999999
20
63.367900000000013
10
125.64399999999999
20
61.267400000000016
42
0.41421356237310025
10
126.14400000000001
20
60.767400000000009
10
126.44500000000001
20
60.767400000000009
10
126.44500000000001
20
60.268300000000004
42
0.41421356237310542
10
126.94499999999999
20
59.768300000000004
10
139.94399999999999
20
59.768300000000004
42
0.41421356237309503
10
140.44399999999999
20
60.268300000000011
10
140.44399999999999
20
60.767400000000009
0
LWPOLYLINE
5
171
100
AcDbEntity
8
0
100
AcDbPolyline
90
32
70
1
43
0.0
10
164.54499999999999
20
72.767499999999998
10
164.245
20
72.767499999999984
42
0.41421356237312101
10
163.745
20
72.267499999999998
10
163.74499999999998
20
70.168000000000006
42
0.41421356237312101
10
164.245
20
69.668000000000006
10
164.54499999999999
20
69.668000000000006
10
164.54499999999999
20
63.867900000000013
10
164.245
20
63.867899999999992
42
0.41421356237312101
10
163.745
20
63.367900000000013
10
163.745
20
61.267400000000016
42
0.41421356237300661
10
164.245
20
60.767400000000009
10
164.54499999999999
20
60.767400000000009
10
164.54500000000002
20
60.268300000000004
42
0.4142135623730222
10
165.04500000000002
20
59.768300000000004
10
178.04400000000001
20
59.768300000000004
42
0.41421356237313145
10
178.54400000000001
20
60.268300000000004
10
178.54400000000001
20
60.767400000000009
10
178.845
20
60.767400000000009
42
0.41421356237313667
10
179.345
20
61.267400000000016
10
179.345
20
63.367900000000013
42
0.41421356237313667
10
178.845
20
63.867900000000013
10
178.54400000000001
20
63.867900000000013
10
178.54400000000001
20
69.668000000000006
10
178.84500000000003
20
69.667999999999978
42
0.4142135623730846
10
179.345
20
70.168000000000006
10
179.345
20
72.267499999999998
42
0.41421356237313667
10
178.845
20
72.767499999999998
10
178.54400000000001
20
72.767499999999998
10
178.54399999999998
20
73.267600000000016
42
0.4142135623730222
10
178.04400000000001
20
73.767600000000016
10
165.04500000000002
20
73.767600000000016
42
0.41421356237313145
10
164.54499999999999
20
73.267600000000016
0
LWPOLYLINE
5
172
100
AcDbEntity
8
0
100
AcDbPolyline
90
32
70
1
43
0.0
10
145.19499999999999
20
63.867900000000013
42
0.41421356237308982
10
144.69499999999999
20
63.367900000000013
10
144.69499999999999
20
61.267400000000016
42
0.41421356237310025
10
145.19499999999999
20
60.767400000000009
10
145.495
20
60.767400000000009
10
145.495
20
60.268300000000004
42
0.41421356237310542
10
145.995
20
59.768300000000004
10
158.994
20
59.768299999999996
42
0.41421356237311585
10
159.494
20
60.268300000000004
10
159.494
20
60.767400000000009
10
159.79499999999999
20
60.767399999999995
42
0.41421356237309503
10
160.29499999999999
20
61.267400000000016
10
160.29499999999999
20
63.367900000000013
42
0.41421356237310542
10
159.79499999999999
20
63.867900000000013
10
159.494
20
63.867900000000013
10
159.494
20
69.668000000000006
10
159.79499999999999
20
69.667999999999992
42
0.41421356237308982
10
160.29499999999999
20
70.168000000000006
10
160.29499999999999
20
72.267499999999998
42
0.41421356237310542
10
159.79499999999999
20
72.767499999999998
10
159.494
20
72.767499999999998
10
159.494
20
73.267600000000016
42
0.41421356237310542
10
158.994
20
73.767600000000016
10
145.995
20
73.76760000000003
42
0.41421356237307422
10
145.495
20
73.267600000000002
10
145.495
20
72.767499999999998
10
145.19499999999999
20
72.767499999999998
42
0.41421356237308982
10
144.69499999999999
20
72.267499999999998
10
144.69499999999999
20
70.168000000000006
42
0.41421356237308982
10
145.19499999999999
20
69.668000000000006
10
145.495
20
69.668000000000006
10
145.495
20
63.867900000000013
0
LWPOLYLINE
5
173
100
AcDbEntity
8
0
100
AcDbPolyline
90
32
70
1
43
0.0
10
182.79499999999999
20
72.267499999999998
10
182.79499999999999
20
70.168000000000006
42
0.41421356237313667
10
183.29499999999999
20
69.668000000000006
10
183.595
20
69.668000000000006
10
183.595
20
63.867900000000013
10
183.29500000000002
20
63.867900000000041
42
0.41421356237310542
10
182.79499999999999
20
63.367900000000013
10
182.79499999999999
20
61.267400000000016
42
0.41421356237313667
10
183.29499999999999
20
60.767400000000009
10
183.595
20
60.767400000000009
10
183.59500000000003
20
60.268300000000004
42
0.4142135623730222
10
184.09500000000003
20
59.768300000000004
10
197.09400000000002
20
59.768300000000004
42
0.41421356237313145
10
197.59400000000002
20
60.268300000000004
10
197.59400000000002
20
60.767400000000009
10
197.89500000000004
20
60.767399999999981
42
0.41421356237308982
10
198.39500000000001
20
61.267400000000016
10
198.39499999999998
20
63.367900000000013
42
0.4142135623730846
10
197.89500000000004
20
63.867900000000013
10
197.59400000000002
20
63.867900000000013
10
197.59400000000002
20
69.668000000000006
10
197.89500000000004
20
69.667999999999978
42
0.41421356237304818
10
198.39500000000001
20
70.168000000000006
10
198.39499999999998
20
72.267499999999998
42
0.4142135623730846
10
197.89500000000004
20
72.767499999999998
10
197.59400000000002
20
72.767499999999998
10
197.59399999999999
20
73.267600000000016
42
0.4142135623730222
10
197.09400000000002
20
73.767600000000016
10
184.09500000000003
20
73.767600000000016
42
0.41421356237313145
10
183.595
20
73.267600000000016
10
183.595
20
72.767499999999998
10
183.29500000000002
20
72.767500000000027
42
0.41421356237310542
0
LWPOLYLINE
5
174
100
AcDbEntity
8
0
100
AcDbPolyline
90
32
70
1
43
0.0
10
216.64400000000001
20
63.867900000000013
10
216.64400000000001
20
69.668000000000006
10
216.94499999999999
20
69.667999999999978
42
0.41421356237310542
10
217.44500000000002
20
70.168000000000006
10
217.44500000000002
20
72.267499999999998
42
0.41421356237313667
10
216.94500000000002
20
72.767499999999998
10
216.64400000000001
20
72.767499999999998
10
216.64399999999998
20
73.267600000000016
42
0.4142135623730846
10
216.14400000000003
20
73.767600000000016
10
203.14500000000004
20
73.767600000000002
42
0.41421356237313145
10
202.64500000000001
20
73.267600000000002
10
202.64500000000001
20
72.767499999999998
10
202.34499999999997
20
72.767500000000027
42
0.4142135623730846
10
201.845
20
72.267499999999998
10
201.845
20
70.168000000000006
42
0.41421356237313667
10
202.345
20
69.668000000000006
10
202.64500000000001
20
69.668000000000006
10
202.64500000000001
20
63.867900000000013
10
202.34499999999997
20
63.867900000000041
42
0.4142135623730846
10
201.845
20
63.367900000000013
10
201.845
20
61.267400000000016
42
0.41421356237313667
10
202.345
20
60.767400000000009
10
202.64500000000001
20
60.767400000000009
10
202.64500000000004
20
60.268300000000004
42
0.4142135623730222
10
203.14500000000004
20
59.768300000000004
10
216.14400000000003
20
59.768299999999996
42
0.41421356237307422
10
216.64400000000001
20
60.268300000000004
10
216.64400000000001
20
60.767400000000009
10
216.94500000000002
20
60.767400000000009
42
0.41421356237313667
10
217.44500000000002
20
61.267400000000016
10
217.44500000000002
20
63.367900000000013
42
0.41421356237312623
10
216.94500000000008
20
63.867900000000013
0
LWPOLYLINE
5
175
100
AcDbEntity
8
0
100
AcDbPolyline
90
32
70
1
43
0.0
10
235.69400000000002
20
60.767400000000009
10
235.99500000000003
20
60.767400000000009
42
0.41421356237313667
10
236.49500000000003
20
61.267400000000016
10
236.49500000000003
20
63.367900000000013
42
0.41421356237313667
10
235.99500000000003
20
63.867900000000013
10
235.69400000000002
20
63.867900000000013
10
235.69400000000002
20
69.668000000000006
10
235.995
20
69.667999999999978
42
0.41421356237310542
10
236.49500000000003
20
70.168000000000006
10
236.49500000000003
20
72.267499999999998
42
0.41421356237313667
10
235.99500000000003
20
72.767499999999998
10
235.69400000000002
20
72.767499999999998
10
235.69399999999999
20
73.267600000000016
42
0.4142135623730846
10
235.19400000000005
20
73.767600000000016
10
222.19499999999999
20
73.76760000000003
42
0.41421356237310025
10
221.69499999999999
20
73.267600000000016
10
221.69499999999999
20
72.767499999999998
10
221.39499999999998
20
72.767500000000027
42
0.4142135623730846
10
220.89500000000001
20
72.267499999999998
10
220.89500000000001
20
70.168000000000006
42
0.41421356237313667
10
221.39500000000001
20
69.668000000000006
10
221.69499999999999
20
69.668000000000006
10
221.69499999999999
20
63.867900000000013
10
221.39500000000004
20
63.867900000000041
42
0.41421356237310542
10
220.89500000000001
20
63.367900000000013
10
220.89500000000001
20
61.267400000000016
42
0.41421356237313667
10
221.39500000000001
20
60.767400000000009
10
221.69499999999999
20
60.767400000000009
10
221.69499999999999
20
60.268300000000004
42
0.41421356237314189
10
222.19499999999999
20
59.768300000000004
10
235.19400000000005
20
59.768299999999996
42
0.41421356237307422
10
235.69400000000002
20
60.268300000000004
0
LWPOLYLINE
5
176
100
AcDbEntity
8
0
100
AcDbPolyline
90
32
70
1
43
0.0
10
288.07000000000005
20
3.6173500000000001
10
288.37
20
3.6173500000000001
10
288.37000000000006
20
3.1182700000000003
42
0.41421356237308332
10
288.87
20
2.6182699999999999
10
301.86900000000003
20
2.6182699999999839
42
0.41421356237310053
10
302.36900000000003
20
3.1182700000000003
10
302.36900000000003
20
3.6173500000000001
10
302.67000000000002
20
3.6173500000000161
42
0.41421356237312335
10
303.17000000000002
20
4.1173500000000001
10
303.17000000000007
20
6.217950000000001
42
0.4142135623731204
10
302.67000000000002
20
6.7179500000000001
10
302.36900000000003
20
6.7179500000000001
10
302.36900000000003
20
12.5181
10
302.67000000000002
20
12.518100000000022
42
0.41421356237312101
10
303.17000000000002
20
13.0181
10
303.17000000000007
20
15.1173
42
0.41421356237312101
10
302.67000000000002
20
15.6173
10
302.36900000000003
20
15.6173
10
302.36900000000003
20
16.117799999999999
42
0.41421356237314316
10
301.86900000000003
20
16.617799999999999
10
288.87
20
16.617800000000006
42
0.41421356237307294
10
288.37
20
16.117799999999999
10
288.37
20
15.6173
10
288.07000000000005
20
15.617299999999981
42
0.41421356237312101
10
287.56999999999999
20
15.1173
10
287.56999999999999
20
13.0181
42
0.41421356237312101
10
288.07000000000005
20
12.5181
10
288.37
20
12.5181
10
288.37
20
6.7179500000000001
10
288.07000000000005
20
6.7179499999999859
42
0.41421356237312362
10
287.56999999999999
20
6.217950000000001
10
287.56999999999999
20
4.1173500000000001
42
0.41421356237312074
0
LWPOLYLINE
5
177
100
AcDbEntity
8
0
100
AcDbPolyline
90
8
70
1
43
0.0
10
302.89499999999998
20
95.342400000000026
42
-0.41421356237310025
10
304.89499999999998
20
93.342399999999998
10
304.89499999999998
20
2.0923285999999921
42
-0.41421356237307499
10
302.89499999999998
20
0.092328599999991212
10
2.0950845999999936
20
0.092328600000000094
42
-0.41421356237309531
10
0.095084599999992747
20
2.0923286000000019
10
0.095084600000011066
20
93.342399999999998
42
-0.41421356237310331
10
2.0950846000000212
20
95.342399999999998
0
LWPOLYLINE
5
178
100
AcDbEntity
8
0
100
AcDbPolyline
90
32
70
1
43
0.0
10
183.30700000000004
20
41.717399999999998
10
183.60700000000003
20
41.717400000000012
42
0.41421356237312101
10
184.10700000000003
20
42.217399999999998
10
184.10700000000003
20
44.317899999999987
42
0.41421356237301177
10
183.60700000000003
20
44.817899999999995
10
183.30700000000004
20
44.817900000000002
10
183.30700000000004
20
50.618000000000016
10
183.60700000000003
20
50.618000000000038
42
0.41421356237312101
10
184.10700000000003
20
51.118000000000016
10
184.10700000000006
20
53.217500000000008
42
0.41421356237312101
10
183.60700000000003
20
53.717500000000001
10
183.30700000000004
20
53.717500000000001
10
183.30700000000004
20
54.21759999999999
42
0.41421356237300661
10
182.80700000000002
20
54.717599999999997
10
169.80699999999999
20
54.717600000000026
42
0.4142135623730846
10
169.30700000000002
20
54.217599999999997
10
169.30700000000002
20
53.717500000000001
10
169.00599999999997
20
53.717499999999987
42
0.41421356237312101
10
168.50599999999997
20
53.217500000000008
10
168.50599999999991
20
51.118000000000016
42
0.41421356237312101
10
169.00599999999997
20
50.618000000000016
10
169.30700000000002
20
50.618000000000016
10
169.30700000000002
20
44.817900000000002
10
169.00599999999997
20
44.81789999999998
42
0.41421356237312101
10
168.50599999999997
20
44.317900000000002
10
168.50599999999991
20
42.217399999999998
42
0.41421356237312101
10
169.00599999999997
20
41.717399999999998
10
169.30700000000002
20
41.717399999999998
10
169.30700000000002
20
41.218299999999999
42
0.41421356237313667
10
169.80700000000002
20
40.718299999999999
10
182.80700000000002
20
40.718300000000021
42
0.41421356237312101
10
183.30700000000004
20
41.218299999999999
0
LWPOLYLINE
5
179
100
AcDbEntity
8
0
100
AcDbPolyline
90
32
70
1
43
0.0
10
188.05599999999998
20
44.81789999999998
42
0.41421356237312101
10
187.55599999999998
20
44.317900000000002
10
187.55599999999993
20
42.217399999999998
42
0.41421356237312101
10
188.05599999999998
20
41.717399999999998
10
188.357
20
41.717399999999998
10
188.35699999999997
20
41.218299999999999
42
0.41421356237312101
10
188.857
20
40.718299999999999
10
201.85700000000003
20
40.718299999999978
42
0.4142135623730846
10
202.35700000000003
20
41.218299999999999
10
202.35700000000003
20
41.717399999999998
10
202.65700000000004
20
41.717400000000012
42
0.41421356237312101
10
203.15700000000004
20
42.217399999999998
10
203.15700000000007
20
44.317900000000002
42
0.41421356237312101
10
202.65700000000004
20
44.817900000000002
10
202.35700000000003
20
44.817900000000002
10
202.35700000000003
20
50.618000000000016
10
202.6570000000001
20
50.617999999999981
42
0.41421356237304818
10
203.15700000000007
20
51.118000000000016
10
203.15699999999998
20
53.217500000000015
42
0.4142135623730222
10
202.65700000000004
20
53.717500000000015
10
202.35700000000003
20
53.717500000000001
10
202.35700000000003
20
54.21759999999999
42
0.41421356237313667
10
201.857
20
54.717599999999997
10
188.857
20
54.717599999999976
42
0.41421356237312101
10
188.357
20
54.217599999999997
10
188.357
20
53.717500000000001
10
188.05599999999998
20
53.717499999999987
42
0.41421356237312101
10
187.55599999999998
20
53.217500000000008
10
187.55599999999993
20
51.118000000000016
42
0.41421356237312101
10
188.05599999999998
20
50.618000000000016
10
188.357
20
50.618000000000016
10
188.357
20
44.817900000000002
0
LWPOLYLINE
5
180
100
AcDbEntity
8
0
100
AcDbPolyline
90
32
70
1
43
0.0
10
207.10599999999999
20
53.717500000000044
42
0.41421356237304818
10
206.60600000000002
20
53.217500000000008
10
206.60600000000005
20
51.118000000000016
42
0.4142135623730846
10
207.10599999999999
20
50.618000000000016
10
207.40700000000004
20
50.618000000000016
10
207.40700000000004
20
44.817900000000002
10
207.10599999999999
20
44.817900000000037
42
0.41421356237304818
10
206.60600000000002
20
44.317900000000002
10
206.60600000000005
20
42.217399999999998
42
0.4142135623730846
10
207.10599999999999
20
41.717399999999998
10
207.40700000000004
20
41.717399999999998
10
207.40700000000007
20
41.218299999999999
42
0.4142135623730846
10
207.90700000000001
20
40.718299999999999
10
220.90700000000004
20
40.718299999999978
42
0.4142135623730846
10
221.40700000000004
20
41.218299999999999
10
221.40700000000004
20
41.717399999999998
10
221.70700000000005
20
41.717399999999969
42
0.4142135623730846
10
222.20699999999999
20
42.217399999999998
10
222.20699999999999
20
44.317900000000002
42
0.41421356237313667
10
221.70699999999999
20
44.817900000000002
10
221.40700000000004
20
44.817900000000002
10
221.40700000000004
20
50.618000000000016
10
221.70700000000005
20
50.617999999999988
42
0.4142135623730846
10
222.20699999999999
20
51.118000000000016
10
222.20699999999999
20
53.217500000000008
42
0.41421356237313667
10
221.70699999999999
20
53.717500000000001
10
221.40700000000004
20
53.717500000000001
10
221.40700000000004
20
54.217599999999997
42
0.41421356237313667
10
220.90700000000001
20
54.717599999999997
10
207.90700000000001
20
54.717600000000033
42
0.41421356237304818
10
207.40700000000004
20
54.217599999999997
10
207.40700000000004
20
53.717500000000001
0
LWPOLYLINE
5
181
100
AcDbEntity
8
0
100
AcDbPolyline
90
32
70
1
43
0.0
10
240.75700000000006
20
41.717399999999969
42
0.4142135623730846
10
241.25700000000001
20
42.217399999999998
10
241.25700000000001
20
44.317900000000002
42
0.41421356237313667
10
240.75700000000001
20
44.817900000000002
10
240.45699999999999
20
44.817900000000002
10
240.45699999999999
20
50.618000000000016
10
240.75700000000006
20
50.617999999999988
42
0.4142135623730846
10
241.25700000000001
20
51.118000000000016
10
241.25700000000001
20
53.217500000000015
42
0.41421356237314189
10
240.75700000000001
20
53.717500000000015
10
240.45699999999999
20
53.717500000000001
10
240.45700000000005
20
54.217599999999997
42
0.41421356237312101
10
239.95699999999999
20
54.717599999999997
10
226.95700000000002
20
54.717599999999976
42
0.41421356237312101
10
226.45700000000002
20
54.217599999999997
10
226.45700000000002
20
53.717500000000001
10
226.15600000000001
20
53.717499999999987
42
0.41421356237312101
10
225.65600000000001
20
53.217500000000008
10
225.65599999999995
20
51.118000000000016
42
0.41421356237312101
10
226.15600000000001
20
50.618000000000016
10
226.45700000000002
20
50.618000000000016
10
226.45700000000002
20
44.817900000000002
10
226.15600000000001
20
44.81789999999998
42
0.41421356237312101
10
225.65600000000001
20
44.317900000000002
10
225.65599999999995
20
42.217399999999998
42
0.41421356237312101
10
226.15600000000001
20
41.717399999999998
10
226.45700000000002
20
41.717399999999998
10
226.45699999999999
20
41.218299999999999
42
0.41421356237312101
10
226.95700000000002
20
40.718299999999999
10
239.95699999999999
20
40.718300000000021
42
0.41421356237312101
10
240.45699999999999
20
41.218299999999999
10
240.45699999999999
20
41.717399999999998
0
LWPOLYLINE
5
182
100
AcDbEntity
8
0
100
AcDbPolyline
90
18
70
1
43
0.0
10
255.88800000000006
20
52.747600000000013
42
0.41421356237312101
10
255.38800000000003
20
53.247600000000013
10
249.63799999999998
20
53.247600000000041
42
0.4142135623730846
10
249.13800000000003
20
52.747600000000013
10
249.13800000000003
20
50.017200000000003
10
249.13800000000003
20
47.217200000000012
10
249.13800000000003
20
41.155406781186564
42
0.19891236737953541
10
249.28444660940673
20
40.80185339059328
10
250.1916533905933
20
39.894646609406735
42
0.1989123673796977
10
250.54520678118655
20
39.748200000000011
10
250.86200000000002
20
39.748199999999997
10
254.161
20
39.748199999999997
10
254.48079321881349
20
39.748199999999997
42
0.19891236737971563
10
254.83434660940674
20
39.894646609406728
10
255.74155339059331
20
40.80185339059328
42
0.19891236737955964
10
255.88800000000003
20
41.155406781186556
10
255.88800000000003
20
45.417300000000004
10
255.88800000000003
20
50.017200000000003
0
LWPOLYLINE
5
183
100
AcDbEntity
8
0
100
AcDbPolyline
90
36
70
1
43
0.0
10
272.21199999999999
20
51.118000000000016
10
272.21200000000005
20
53.217500000000008
42
0.41421356237312101
10
271.71199999999999
20
53.717500000000001
10
271.41300000000001
20
53.717500000000001
10
271.41299999999995
20
54.217599999999997
42
0.4142135623730846
10
270.91300000000001
20
54.717599999999997
10
257.91300000000001
20
54.717600000000026
42
0.4142135623730846
10
257.41300000000001
20
54.217599999999997
10
257.41300000000001
20
53.717500000000001
10
257.11099999999999
20
53.717500000000001
42
0.41421356237314189
10
256.61099999999999
20
53.217499999999987
10
256.61099999999999
20
51.118000000000016
42
0.41421356237312101
10
257.11099999999999
20
50.618000000000016
10
257.41300000000001
20
50.618000000000016
10
257.41300000000001
20
50.017200000000003
10
257.41300000000001
20
45.417300000000004
10
257.41300000000001
20
44.817900000000002
10
257.11099999999999
20
44.817900000000002
42
0.41421356237314189
10
256.61099999999999
20
44.317899999999987
10
256.61099999999999
20
42.217399999999998
42
0.41421356237312101
10
257.11099999999999
20
41.717399999999998
10
257.41300000000001
20
41.717399999999998
10
257.41300000000001
20
41.218299999999999
42
0.41421356237313667
10
257.91300000000001
20
40.718299999999999
10
270.91300000000001
20
40.718299999999971
42
0.41421356237304818
10
271.41300000000001
20
41.218299999999999
10
271.41300000000001
20
41.717399999999998
10
271.71199999999999
20
41.717400000000012
42
0.41421356237312101
10
272.21199999999999
20
42.217399999999998
10
272.21200000000005
20
44.317900000000002
42
0.41421356237312101
10
271.71199999999999
20
44.817900000000002
10
271.41300000000001
20
44.817900000000002
10
271.41300000000001
20
45.417300000000004
10
271.41300000000001
20
50.017200000000003
10
271.41300000000001
20
50.618000000000016
10
271.71199999999999
20
50.618000000000038
42
0.41421356237312101
0
LWPOLYLINE
5
184
100
AcDbEntity
8
0
100
AcDbPolyline
90
18
70
1
43
0.0
10
274.34620678118659
20
39.74819999999999
10
274.66200000000003
20
39.748199999999997
10
277.96299999999997
20
39.748199999999997
10
278.28079321881347
20
39.748200000000018
42
0.19891236737968954
10
278.63434660940675
20
39.894646609406728
10
279.54155339059332
20
40.80185339059328
42
0.19891236737954524
10
279.68799999999999
20
41.155406781186556
10
279.68799999999999
20
47.217200000000012
10
279.68799999999999
20
50.017200000000003
10
279.68799999999999
20
52.747600000000013
42
0.41421356237313667
10
279.18799999999999
20
53.247600000000013
10
273.43900000000008
20
53.247599999999991
42
0.41421356237312101
10
272.93900000000002
20
52.747600000000013
10
272.93900000000002
20
50.017200000000003
10
272.93900000000002
20
45.417300000000004
10
272.93900000000002
20
41.155406781186556
42
0.19891236737953541
10
273.08544660940674
20
40.801853390593273
10
273.99265339059332
20
39.894646609406735
42
0.19891236737972381
0
LWPOLYLINE
5
185
100
AcDbEntity
8
0
100
AcDbPolyline
90
32
70
1
43
0.0
10
287.56999999999999
20
51.118000000000016
42
0.41421356237312101
10
288.07000000000005
20
50.618000000000016
10
288.37
20
50.618000000000016
10
288.37
20
44.817900000000002
10
288.07000000000005
20
44.81789999999998
42
0.41421356237312101
10
287.56999999999999
20
44.317900000000002
10
287.56999999999999
20
42.217399999999998
42
0.41421356237312101
10
288.07000000000005
20
41.717399999999998
10
288.37
20
41.717399999999998
10
288.37000000000006
20
41.218299999999999
42
0.4142135623730846
10
288.87
20
40.718299999999999
10
301.86900000000009
20
40.718299999999978
42
0.4142135623730846
10
302.36900000000003
20
41.218299999999999
10
302.36900000000003
20
41.717399999999998
10
302.67000000000002
20
41.717400000000012
42
0.41421356237312101
10
303.17000000000002
20
42.217399999999998
10
303.17000000000007
20
44.317900000000002
42
0.41421356237312101
10
302.67000000000002
20
44.817900000000002
10
302.36900000000003
20
44.817900000000002
10
302.36900000000003
20
50.618000000000016
10
302.67000000000002
20
50.618000000000038
42
0.41421356237312101
10
303.17000000000002
20
51.118000000000016
10
303.17000000000007
20
53.217500000000008
42
0.41421356237312101
10
302.67000000000002
20
53.717500000000001
10
302.36900000000003
20
53.717500000000001
10
302.36900000000003
20
54.217599999999997
42
0.41421356237313667
10
301.86900000000003
20
54.717599999999997
10
288.87
20
54.717600000000033
42
0.41421356237304818
10
288.37
20
54.217599999999997
10
288.37
20
53.717500000000001
10
288.07000000000005
20
53.717500000000001
42
0.41421356237312623
10
287.56999999999999
20
53.217500000000015
0
LWPOLYLINE
5
186
100
AcDbEntity
8
0
100
AcDbPolyline
90
18
70
1
43
0.0
10
13.000400000000001
20
30.967300000000009
10
13.000399999999999
20
33.697400000000002
42
0.41421356237309115
10
12.500400000000003
20
34.197400000000002
10
6.7508000000000017
20
34.197400000000002
42
0.41421356237309959
10
6.2508000000000008
20
33.697400000000002
10
6.2508000000000008
20
30.967300000000009
10
6.2508000000000008
20
28.167100000000005
10
6.2508000000000008
20
22.104106781186545
42
0.19891236737965778
10
6.3972466094067295
20
21.750553390593272
10
7.3032533905932739
20
20.844546609406724
42
0.19891236737965634
10
7.656806781186547
20
20.6981
10
7.9760900000000001
20
20.6981
10
11.2751
20
20.6981
10
11.594393218813455
20
20.6981
42
0.19891236737965445
10
11.947946609406728
20
20.844546609406724
10
12.853953390593274
20
21.750553390593272
42
0.19891236737966048
10
13.000400000000001
20
22.104106781186545
10
13.000400000000001
20
26.3674
0
LWPOLYLINE
5
187
100
AcDbEntity
8
0
100
AcDbPolyline
90
18
70
1
43
0.0
10
36.800400000000003
20
30.967300000000009
10
36.800399999999996
20
33.697400000000002
42
0.41421356237308982
10
36.300400000000003
20
34.197400000000002
10
30.550899999999999
20
34.197400000000002
42
0.41421356237309764
10
30.050899999999999
20
33.697400000000002
10
30.050899999999999
20
30.967300000000009
10
30.050899999999999
20
26.3674
10
30.050899999999999
20
22.104106781186545
42
0.1989123673796557
10
30.197346609406729
20
21.750553390593272
10
31.103353390593274
20
20.844546609406724
42
0.19891236737965476
10
31.456906781186547
20
20.698100000000004
10
31.776200000000003
20
20.6981
10
35.075200000000002
20
20.6981
10
35.394393218813455
20
20.6981
42
0.19891236737965415
10
35.747946609406732
20
20.844546609406724
10
36.653953390593273
20
21.750553390593272
42
0.1989123673796557
10
36.800400000000003
20
22.104106781186545
10
36.800400000000003
20
28.167100000000005
0
LWPOLYLINE
5
188
100
AcDbEntity
8
0
100
AcDbPolyline
90
32
70
1
43
0.0
10
59.481499999999997
20
35.167600000000007
42
0.41421356237307161
10
58.981500000000004
20
35.667600000000007
10
45.982200000000013
20
35.667600000000007
42
0.41421356237309764
10
45.482199999999999
20
35.167600000000007
10
45.482199999999999
20
34.667299999999997
10
45.181399999999996
20
34.667300000000004
42
0.41421356237310025
10
44.681399999999996
20
34.167299999999997
10
44.681399999999996
20
32.068100000000001
42
0.41421356237308721
10
45.181399999999996
20
31.568100000000001
10
45.482199999999999
20
31.568100000000001
10
45.482199999999999
20
25.767900000000004
10
45.181399999999996
20
25.767899999999997
42
0.41421356237309503
10
44.681399999999996
20
25.267900000000001
10
44.681399999999996
20
23.167300000000001
42
0.41421356237307161
10
45.181399999999996
20
22.667300000000004
10
45.482199999999999
20
22.667300000000004
10
45.482199999999992
20
22.168299999999999
42
0.41421356237308721
10
45.982200000000006
20
21.668300000000002
10
58.981499999999997
20
21.668300000000006
42
0.41421356237310281
10
59.481499999999997
20
22.168299999999999
10
59.481499999999997
20
22.667300000000004
10
59.782300000000006
20
22.667300000000004
42
0.41421356237310542
10
60.282300000000006
20
23.167300000000001
10
60.282300000000006
20
25.267900000000001
42
0.41421356237308204
10
59.782299999999999
20
25.767900000000004
10
59.481499999999997
20
25.767900000000004
10
59.481499999999997
20
31.568100000000001
10
59.782300000000006
20
31.568099999999998
42
0.41421356237310025
10
60.282300000000006
20
32.068100000000001
10
60.282300000000006
20
34.167299999999997
42
0.41421356237308721
10
59.782300000000006
20
34.667299999999997
10
59.481499999999997
20
34.667299999999997
0
LWPOLYLINE
5
189
100
AcDbEntity
8
0
100
AcDbPolyline
90
32
70
1
43
0.0
10
78.53149999999998
20
22.667300000000004
10
78.832300000000004
20
22.667299999999997
42
0.41421356237309764
10
79.332300000000004
20
23.167300000000001
10
79.332300000000004
20
25.267900000000001
42
0.41421356237308982
10
78.832300000000004
20
25.767900000000004
10
78.53149999999998
20
25.767900000000004
10
78.53149999999998
20
31.568100000000001
10
78.832300000000004
20
31.568100000000005
42
0.41421356237309503
10
79.332300000000004
20
32.068100000000001
10
79.332300000000004
20
34.167299999999997
42
0.41421356237310281
10
78.832300000000004
20
34.667299999999997
10
78.53149999999998
20
34.667299999999997
10
78.53149999999998
20
35.167600000000007
42
0.41421356237309764
10
78.031499999999994
20
35.667600000000007
10
65.032200000000003
20
35.667600000000014
42
0.41421356237309764
10
64.532200000000003
20
35.167600000000007
10
64.532200000000003
20
34.667299999999997
10
64.231400000000008
20
34.667300000000004
42
0.41421356237310025
10
63.731400000000008
20
34.167299999999997
10
63.731400000000001
20
32.068100000000001
42
0.41421356237309243
10
64.231400000000008
20
31.568100000000001
10
64.532200000000003
20
31.568100000000001
10
64.532200000000003
20
25.767900000000004
10
64.231400000000008
20
25.767899999999997
42
0.41421356237309503
10
63.731400000000008
20
25.267900000000001
10
63.731399999999994
20
23.167300000000001
42
0.41421356237308721
10
64.231400000000008
20
22.667300000000004
10
64.532200000000003
20
22.667300000000004
10
64.532200000000017
20
22.168299999999999
42
0.41421356237309764
10
65.032200000000003
20
21.668300000000002
10
78.031499999999994
20
21.668299999999995
42
0.41421356237309764
10
78.53149999999998
20
22.168299999999999
0
LWPOLYLINE
5
190
100
AcDbEntity
8
0
100
AcDbPolyline
90
32
70
1
43
0.0
10
83.281400000000019
20
34.66729999999999
42
0.41421356237310802
10
82.781400000000005
20
34.167299999999997
10
82.781400000000005
20
32.068100000000001
42
0.41421356237310802
10
83.281400000000019
20
31.568100000000001
10
83.582200000000014
20
31.568100000000001
10
83.582200000000014
20
25.767900000000004
10
83.281400000000019
20
25.767900000000004
42
0.41421356237309243
10
82.781400000000005
20
25.267900000000001
10
82.781400000000005
20
23.167300000000001
42
0.41421356237309243
10
83.281400000000019
20
22.667300000000004
10
83.582200000000014
20
22.667300000000004
10
83.582200000000014
20
22.168299999999999
42
0.41421356237307161
10
84.082200000000014
20
21.668300000000002
10
97.081500000000005
20
21.668300000000002
42
0.41421356237310025
10
97.581500000000005
20
22.168299999999999
10
97.581500000000005
20
22.667300000000004
10
97.882300000000001
20
22.667300000000008
42
0.41421356237308721
10
98.382300000000015
20
23.167300000000001
10
98.382300000000015
20
25.267900000000001
42
0.41421356237307161
10
97.882300000000001
20
25.767900000000004
10
97.581500000000005
20
25.767900000000004
10
97.581500000000005
20
31.568100000000001
10
97.882300000000001
20
31.568099999999994
42
0.41421356237307683
10
98.382300000000015
20
32.068100000000001
10
98.382299999999987
20
34.167299999999997
42
0.41421356237307683
10
97.882300000000001
20
34.667299999999997
10
97.581500000000005
20
34.667299999999997
10
97.581500000000005
20
35.167600000000007
42
0.41421356237310281
10
97.08150000000002
20
35.667600000000007
10
84.082200000000014
20
35.667600000000007
42
0.41421356237308721
10
83.582200000000014
20
35.167600000000007
10
83.582200000000014
20
34.667299999999997
0
LWPOLYLINE
5
191
100
AcDbEntity
8
0
100
AcDbPolyline
90
32
70
1
43
0.0
10
116.13200000000001
20
35.667600000000007
10
103.13200000000002
20
35.667600000000007
42
0.41421356237310802
10
102.63200000000001
20
35.167600000000007
10
102.63200000000001
20
34.667299999999997
10
102.331
20
34.667299999999997
42
0.41421356237312101
10
101.83100000000002
20
34.167299999999997
10
101.83099999999999
20
32.068100000000001
42
0.41421356237305601
10
102.331
20
31.568100000000001
10
102.63200000000001
20
31.568100000000001
10
102.63200000000001
20
25.767900000000004
10
102.331
20
25.767899999999994
42
0.41421356237311846
10
101.83100000000002
20
25.267900000000001
10
101.83100000000002
20
23.167300000000001
42
0.41421356237305601
10
102.331
20
22.667300000000004
10
102.63200000000001
20
22.667300000000004
10
102.63200000000001
20
22.168299999999999
42
0.41421356237309243
10
103.13200000000002
20
21.668300000000002
10
116.13200000000001
20
21.668299999999991
42
0.41421356237307422
10
116.63200000000002
20
22.168299999999999
10
116.63200000000002
20
22.667300000000004
10
116.93200000000002
20
22.667300000000008
42
0.41421356237310802
10
117.43200000000002
20
23.167300000000001
10
117.43200000000002
20
25.267900000000012
42
0.41421356237309243
10
116.93200000000002
20
25.767900000000008
10
116.63200000000002
20
25.767900000000004
10
116.63200000000002
20
31.568100000000001
10
116.93200000000002
20
31.568100000000008
42
0.41421356237310802
10
117.43200000000002
20
32.068100000000001
10
117.43200000000002
20
34.167299999999997
42
0.41421356237310802
10
116.93200000000002
20
34.667299999999997
10
116.63200000000002
20
34.667299999999997
10
116.63200000000002
20
35.167600000000007
42
0.41421356237307161
0
CIRCLE
5
192
100
AcDbEntity
8
0
100
AcDbCircle
10
25.091999999999999
20
66.767950000000013
30
0
40
2.4999999999999991
0
CIRCLE
5
193
100
AcDbEntity
8
0
100
AcDbCircle
10
25.091999999999995
20
9.6180250000000012
30
0
40
2.5000000000000004
0
CIRCLE
5
194
100
AcDbEntity
8
0
100
AcDbCircle
10
188.072
20
9.6180250000000012
30
0
40
2.5000000000000067
0
CIRCLE
5
195
100
AcDbEntity
8
0
100
AcDbCircle
10
260.54200000000003
20
66.767950000000013
30
0
40
2.5000000000000044
0
LINE
5
196
100
AcDbEntity
8
0
100
AcDbLine
10
173.07244660940677
20
16.534046609406733
30
0
11
173.97985339059329
21
17.441453390593271
31
0
0
LINE
5
197
100
AcDbEntity
8
0
100
AcDbLine
10
184.2985533905933
20
16.535446609406726
30
0
11
183.39114660940675
21
17.442853390593271
31
0
0
ARC
5
198
100
AcDbEntity
8
0
100
AcDbCircle
10
183.03759321881353
20
17.089300000000193
30
0
40
0.49999999999982314
100
AcDbArc
50
44.999999999988482
51
90.000000000006523
0
ARC
5
199
100
AcDbEntity
8
0
100
AcDbCircle
10
183.94499999999977
20
16.181893218813354
30
0
40
0.5000000000002558
100
AcDbArc
50
0
51
44.999999999987047
0
ARC
5
200
100
AcDbEntity
8
0
100
AcDbCircle
10
174.33340678118651
20
17.087900000000118
30
0
40
0.4999999999998761
100
AcDbArc
50
89.999999999996746
51
135.00000000000549
0
ARC
5
201
100
AcDbEntity
8
0
100
AcDbCircle
10
173.4260000000001
20
16.180493218813382
30
0
40
0.50000000000011524
100
AcDbArc
50
134.99999999999858
51
180
0
ENDSEC
0
SECTION
2
OBJECTS
0
DICTIONARY
5
C
100
AcDbDictionary
3
ACAD_GROUP
350
D
3
ACAD_MLINESTYLE
350
17
0
DICTIONARY
5
D
100
AcDbDictionary
0
DICTIONARY
5
1A
330
C
100
AcDbDictionary
0
DICTIONARY
5
17
100
AcDbDictionary
0
ENDSEC
0
EOF
