0
SECTION
2
HEADER
9
$INSUNITS
70
4
9
$ACADVER
1
AC1014
9
$HANDSEED
5
FFFF
0
ENDSEC
0
SECTION
2
TABLES
0
TABLE
2
VPORT
5
8
100
AcDbSymbolTable
0
ENDTAB
0
TABLE
2
LTYPE
5
5
100
AcDbSymbolTable
0
LTYPE
5
14
100
AcDbSymbolTableRecord
100
AcDbLinetypeTableRecord
2
BYBLOCK
70
0
0
LTYPE
5
15
100
AcDbSymbolTableRecord
100
AcDbLinetypeTableRecord
2
BYLAYER
70
0
0
ENDTAB
0
TABLE
2
LAYER
5
2
100
AcDbSymbolTable
70
2
0
LAYER
5
50
100
AcDbSymbolTableRecord
100
AcDbLayerTableRecord
2
0
70
0
6
CONTINUOUS
0
ENDTAB
0
TABLE
2
STYLE
5
3
100
AcDbSymbolTable
70
1
0
STYLE
5
11
100
AcDbSymbolTableRecord
100
AcDbTextStyleTableRecord
2
STANDARD
70
0
0
ENDTAB
0
TABLE
2
VIEW
5
6
100
AcDbSymbolTable
70
0
0
ENDTAB
0
TABLE
2
UCS
5
7
100
AcDbSymbolTable
70
0
0
ENDTAB
0
TABLE
2
APPID
5
9
100
AcDbSymbolTable
70
2
0
APPID
5
12
100
AcDbSymbolTableRecord
100
AcDbRegAppTableRecord
2
ACAD
70
0
0
ENDTAB
0
TABLE
2
DIMSTYLE
5
A
100
AcDbSymbolTable
70
1
0
ENDTAB
0
TABLE
2
BLOCK_RECORD
5
1
100
AcDbSymbolTable
70
1
0
BLOCK_RECORD
5
1F
100
AcDbSymbolTableRecord
100
AcDbBlockTableRecord
2
*MODEL_SPACE
0
BLOCK_RECORD
5
1B
100
AcDbSymbolTableRecord
100
AcDbBlockTableRecord
2
*PAPER_SPACE
0
ENDTAB
0
ENDSEC
0
SECTION
2
BLOCKS
0
BLOCK
5
20
100
AcDbEntity
100
AcDbBlockBegin
2
*MODEL_SPACE
0
ENDBLK
5
21
100
AcDbEntity
100
AcDbBlockEnd
0
BLOCK
5
1C
100
AcDbEntity
100
AcDbBlockBegin
2
*PAPER_SPACE
0
ENDBLK
5
1D
100
AcDbEntity
100
AcDbBlockEnd
0
ENDSEC
0
SECTION
2
ENTITIES
0
LWPOLYLINE
5
100
100
AcDbEntity
8
0
100
AcDbPolyline
90
8
70
1
43
0.0
10
265.92495769999999
20
84.459211225464372
10
265.92495769999994
20
72.658711225464415
42
-0.4142135623730846
10
265.42495770000005
20
72.15871122546443
10
250.82495770000008
20
72.158711225464444
42
-0.41421356237312101
10
250.3249577
20
72.658711225464415
10
250.32495769999997
20
84.459211225464372
42
-0.4142135623732095
10
250.82495770000008
20
84.959211225464372
10
265.42495770000005
20
84.959211225464401
42
-0.4142135623730846
0
LWPOLYLINE
5
101
100
AcDbEntity
8
0
100
AcDbPolyline
90
8
70
1
43
0.0
10
12.200347700000012
20
103.5092112254644
42
-0.41421356237305473
10
12.700347700000021
20
104.00921122546441
10
27.299757700000022
20
104.00921122546441
42
-0.414213562373069
10
27.799757700000018
20
103.5092112254644
10
27.799757700000018
20
91.70871122546437
42
-0.41421356237305862
10
27.299757700000022
20
91.208711225464384
10
12.700347700000021
20
91.208711225464398
42
-0.41421356237305601
10
12.20034770000002
20
91.708711225464384
0
LWPOLYLINE
5
102
100
AcDbEntity
8
0
100
AcDbPolyline
90
8
70
1
43
0.0
10
313.04995770000005
20
84.959211225464429
42
-0.41421356237310542
10
313.54995770000005
20
84.459211225464372
10
313.54995770000005
20
72.658711225464415
42
-0.41421356237313667
10
313.04995769999999
20
72.15871122546443
10
298.44995770000003
20
72.15871122546443
42
-0.41421356237312623
10
297.94995770000003
20
72.658711225464415
10
297.94995770000014
20
84.459211225464372
42
-0.41421356237307422
10
298.44995770000003
20
84.959211225464372
0
LWPOLYLINE
5
103
100
AcDbEntity
8
0
100
AcDbPolyline
90
8
70
1
43
0.0
10
274.13595770000001
20
72.658711225464415
10
274.13595770000001
20
84.459211225464372
42
-0.41421356237321988
10
274.63595770000001
20
84.959211225464372
10
289.23695770000012
20
84.959211225464372
42
-0.41421356237313667
10
289.73695770000012
20
84.459211225464372
10
289.73695770000012
20
72.658711225464415
42
-0.41421356237318346
10
289.23695770000012
20
72.15871122546443
10
274.63595770000001
20
72.15871122546443
42
-0.41421356237313145
0
LWPOLYLINE
5
104
100
AcDbEntity
8
0
100
AcDbPolyline
90
8
70
1
43
0.0
10
231.77495770000004
20
84.959211225464372
10
246.37495770000001
20
84.959211225464358
42
-0.41421356237316787
10
246.87495770000001
20
84.459211225464372
10
246.87495770000001
20
72.658711225464401
42
-0.41421356237301699
10
246.37495770000001
20
72.158711225464387
10
231.77495770000004
20
72.15871122546443
42
-0.41421356237313145
10
231.27495770000002
20
72.658711225464415
10
231.27495770000002
20
84.459211225464372
42
-0.41421356237321988
0
LWPOLYLINE
5
105
100
AcDbEntity
8
0
100
AcDbPolyline
90
8
70
1
43
0.0
10
263.91195770000002
20
88.52831122546435
10
262.24495770000004
20
88.52831122546435
42
-0.41421356237314705
10
261.74495770000021
20
89.028311225464378
10
261.74495769999999
20
93.236011225464367
42
-0.41421356237314705
10
262.24495769999999
20
93.736011225464381
10
263.91195770000002
20
93.736011225464338
42
-0.41421356237303258
10
264.41195770000002
20
93.236011225464367
10
264.41195770000002
20
89.028311225464378
42
-0.41421356237310542
0
LWPOLYLINE
5
106
100
AcDbEntity
8
0
100
AcDbPolyline
90
8
70
1
43
0.0
10
292.10395770000002
20
93.736011225464381
42
-0.41421356237307422
10
292.60395770000002
20
93.236011225464367
10
292.60395770000002
20
89.028311225464378
42
-0.41421356237319906
10
292.10395770000002
20
88.528311225464364
10
290.43695770000011
20
88.52831122546435
42
-0.4142135623730846
10
289.93695770000016
20
89.028311225464378
10
289.93695770000011
20
93.236011225464367
42
-0.41421356237301177
10
290.43695770000011
20
93.736011225464381
0
LWPOLYLINE
5
107
100
AcDbEntity
8
0
100
AcDbPolyline
90
8
70
1
43
0.0
10
31.25035770000002
20
91.70871122546437
10
31.25035770000002
20
103.5092112254644
42
-0.41421356237305079
10
31.750357700000023
20
104.00921122546441
10
46.349757700000033
20
104.00921122546438
42
-0.4142135623730534
10
46.849757700000026
20
103.5092112254644
10
46.84975770000004
20
91.708711225464384
42
-0.4142135623730534
10
46.349757700000033
20
91.208711225464384
10
31.750357700000023
20
91.208711225464384
42
-0.41421356237304041
0
LWPOLYLINE
5
108
100
AcDbEntity
8
0
100
AcDbPolyline
90
8
70
1
43
0.0
10
203.19995769999997
20
91.208711225464384
42
-0.41421356237313667
10
202.69995769999997
20
91.708711225464384
10
202.69995769999997
20
103.5092112254644
42
-0.41421356237301177
10
203.19995769999997
20
104.00921122546441
10
217.79995769999999
20
104.00921122546438
42
-0.41421356237306384
10
218.29995770000011
20
103.5092112254644
10
218.29995770000011
20
91.708711225464384
42
-0.41421356237311585
10
217.79995769999999
20
91.208711225464384
0
LWPOLYLINE
5
109
100
AcDbEntity
8
0
100
AcDbPolyline
90
8
70
1
43
0.0
10
199.2499577000001
20
103.5092112254644
10
199.24995770000004
20
91.708711225464384
42
-0.4142135623730846
10
198.74995769999998
20
91.208711225464384
10
184.14995770000002
20
91.208711225464384
42
-0.41421356237309503
10
183.64995770000002
20
91.708711225464384
10
183.64995770000002
20
103.5092112254644
42
-0.41421356237314705
10
184.14995770000002
20
104.00921122546441
10
198.74995769999998
20
104.00921122546438
42
-0.41421356237306384
0
LWPOLYLINE
5
110
100
AcDbEntity
8
0
100
AcDbPolyline
90
8
70
1
43
0.0
10
313.04995769999999
20
91.208711225464398
10
298.44995770000003
20
91.208711225464413
42
-0.41421356237311585
10
297.94995770000003
20
91.708711225464384
10
297.94995770000003
20
103.5092112254644
42
-0.41421356237301177
10
298.44995770000003
20
104.00921122546441
10
313.04995770000005
20
104.00921122546443
42
-0.4142135623730222
10
313.54995770000011
20
103.5092112254644
10
313.54995770000005
20
91.708711225464384
42
-0.41421356237312623
0
LWPOLYLINE
5
111
100
AcDbEntity
8
0
100
AcDbPolyline
90
8
70
1
43
0.0
10
284.47495770000012
20
91.208711225464384
10
269.87495769999998
20
91.208711225464384
42
-0.41421356237309503
10
269.37495769999998
20
91.708711225464384
10
269.37495770000004
20
103.5092112254644
42
-0.4142135623732407
10
269.87495769999998
20
104.00921122546441
10
284.47495770000012
20
104.00921122546441
42
-0.41421356237309503
10
284.97495770000012
20
103.5092112254644
10
284.97495770000012
20
91.708711225464384
42
-0.41421356237309503
0
LWPOLYLINE
5
112
100
AcDbEntity
8
0
100
AcDbPolyline
90
8
70
1
43
0.0
10
88.40025770000004
20
91.708711225464384
10
88.40025770000004
20
103.5092112254644
42
-0.41421356237307422
10
88.900257700000054
20
104.00921122546441
10
103.4983577
20
104.00921122546441
42
-0.4142135623730534
10
103.99835770000001
20
103.5092112254644
10
103.99835770000001
20
91.708711225464384
42
-0.4142135623730534
10
103.4983577
20
91.208711225464384
10
88.900257700000054
20
91.208711225464384
42
-0.41421356237307422
0
LWPOLYLINE
5
113
100
AcDbEntity
8
0
100
AcDbPolyline
90
8
70
1
43
0.0
10
107.95025770000002
20
104.00921122546441
10
122.54795770000001
20
104.00921122546438
42
-0.41421356237309503
10
123.0479577
20
103.5092112254644
10
123.0479577
20
91.708711225464384
42
-0.41421356237304302
10
122.54795770000001
20
91.208711225464384
10
107.95025770000002
20
91.208711225464384
42
-0.41421356237307422
10
107.45025770000001
20
91.708711225464384
10
107.45025770000001
20
103.5092112254644
42
-0.41421356237307422
0
LWPOLYLINE
5
114
100
AcDbEntity
8
0
100
AcDbPolyline
90
8
70
1
43
0.0
10
84.949757700000035
20
91.708711225464384
42
-0.41421356237307422
10
84.449757700000021
20
91.208711225464384
10
69.850257700000043
20
91.208711225464398
42
-0.4142135623730378
10
69.350257700000029
20
91.708711225464384
10
69.350257700000014
20
103.50921122546438
42
-0.41421356237307944
10
69.850257700000043
20
104.00921122546441
10
84.449757700000021
20
104.00921122546441
42
-0.41421356237307422
10
84.949757700000035
20
103.5092112254644
0
LWPOLYLINE
5
115
100
AcDbEntity
8
0
100
AcDbPolyline
90
8
70
1
43
0.0
10
145.54995769999999
20
91.708711225464384
10
145.54995769999999
20
103.5092112254644
42
-0.4142135623730534
10
146.04995769999999
20
104.00921122546441
10
160.64995769999999
20
104.0092112254643
42
-0.41421356237311585
10
161.14995770000002
20
103.5092112254644
10
161.14995770000002
20
91.708711225464384
42
-0.41421356237307422
10
160.64995769999999
20
91.208711225464398
10
146.04995769999999
20
91.208711225464384
42
-0.4142135623730534
0
LWPOLYLINE
5
116
100
AcDbEntity
8
0
100
AcDbPolyline
90
8
70
1
43
0.0
10
179.69995769999997
20
104.00921122546438
42
-0.41421356237306384
10
180.19995770000008
20
103.5092112254644
10
180.19995770000008
20
91.708711225464384
42
-0.41421356237311585
10
179.69995769999997
20
91.208711225464384
10
165.0999577
20
91.208711225464384
42
-0.41421356237309503
10
164.5999577
20
91.708711225464384
10
164.5999577
20
103.5092112254644
42
-0.41421356237309503
10
165.0999577
20
104.00921122546441
0
LWPOLYLINE
5
117
100
AcDbEntity
8
0
100
AcDbPolyline
90
8
70
1
43
0.0
10
236.8499577
20
104.00921122546438
42
-0.41421356237306384
10
237.34995770000012
20
103.5092112254644
10
237.34995770000012
20
91.708711225464384
42
-0.41421356237311585
10
236.8499577
20
91.208711225464384
10
222.24995770000004
20
91.208711225464384
42
-0.41421356237309503
10
221.74995770000004
20
91.708711225464384
10
221.74995770000004
20
103.5092112254644
42
-0.41421356237314705
10
222.24995770000004
20
104.00921122546441
0
LWPOLYLINE
5
118
100
AcDbEntity
8
0
100
AcDbPolyline
90
8
70
1
43
0.0
10
84.449757700000021
20
15.008731225464391
10
69.850257700000043
20
15.008731225464409
42
-0.41421356237308204
10
69.350257700000029
20
15.508731225464413
10
69.350257700000029
20
27.309311225464409
42
-0.41421356237310542
10
69.850257700000043
20
27.80931122546442
10
84.449757700000021
20
27.809311225464398
42
-0.41421356237309243
10
84.949757700000035
20
27.309311225464398
10
84.949757700000035
20
15.508731225464391
42
-0.41421356237309503
0
LWPOLYLINE
5
119
100
AcDbEntity
8
0
100
AcDbPolyline
90
8
70
1
43
0.0
10
142.0999577
20
103.5092112254644
10
142.0999577
20
91.708711225464384
42
-0.41421356237307422
10
141.59995769999998
20
91.208711225464384
10
126.99895770000001
20
91.208711225464384
42
-0.41421356237307422
10
126.49895770000001
20
91.708711225464384
10
126.49895770000001
20
103.5092112254644
42
-0.41421356237307422
10
126.99895770000001
20
104.00921122546441
10
141.59995769999998
20
104.00921122546441
42
-0.41421356237307422
0
LWPOLYLINE
5
120
100
AcDbEntity
8
0
100
AcDbPolyline
90
8
70
1
43
0.0
10
197.81595769999998
20
12.329823225464374
42
-0.41421356237310153
10
197.31595769999998
20
12.829823225464391
10
197.31595769999998
20
17.036071225464401
42
-0.41421356237314705
10
197.81595769999998
20
17.536071225464411
10
199.48095769999998
20
17.536071225464394
42
-0.41421356237313406
10
199.98095769999998
20
17.03607122546439
10
199.98095769999998
20
12.829823225464391
42
-0.41421356237314838
10
199.48095769999998
20
12.329823225464381
0
LWPOLYLINE
5
121
100
AcDbEntity
8
0
100
AcDbPolyline
90
8
70
1
43
0.0
10
241.29995769999999
20
15.00873122546443
42
-0.41421356237316265
10
240.79995769999999
20
15.508731225464413
10
240.79995770000005
20
27.309311225464398
42
-0.4142135623730222
10
241.29995769999999
20
27.809311225464395
10
255.89995770000002
20
27.809311225464395
42
-0.41421356237313145
10
256.39995770000007
20
27.309311225464398
10
256.39995770000007
20
15.508731225464413
42
-0.41421356237322249
10
255.89995770000002
20
15.008731225464411
0
LWPOLYLINE
5
122
100
AcDbEntity
8
0
100
AcDbPolyline
90
8
70
1
43
0.0
10
43.655257700000021
20
15.008731225464413
42
-0.41421356237309503
10
43.155257700000021
20
15.508731225464413
10
43.155257700000021
20
27.309311225464398
42
-0.41421356237308204
10
43.655257700000021
20
27.809311225464395
10
58.256057700000028
20
27.809311225464391
42
-0.41421356237308721
10
58.756057700000035
20
27.309311225464398
10
58.756057700000035
20
15.508731225464391
42
-0.41421356237311063
10
58.256057700000028
20
15.008731225464391
0
LWPOLYLINE
5
123
100
AcDbEntity
8
0
100
AcDbPolyline
90
8
70
1
43
0.0
10
108.8824577
20
17.53607122546439
42
-0.41421356237308982
10
109.38245770000002
20
17.03607122546439
10
109.38245770000002
20
12.829823225464391
42
-0.41421356237309503
10
108.8824577
20
12.329823225464391
10
107.2172577
20
12.329823225464382
42
-0.41421356237308593
10
106.71725770000002
20
12.829823225464391
10
106.71725770000002
20
17.03607122546439
42
-0.41421356237310281
10
107.2172577
20
17.53607122546439
0
LWPOLYLINE
5
124
100
AcDbEntity
8
0
100
AcDbPolyline
90
8
70
1
43
0.0
10
219.86795770000001
20
27.809311225464413
10
234.46695770000008
20
27.809311225464416
42
-0.41421356237310281
10
234.96695770000008
20
27.309311225464398
10
234.96695770000008
20
15.508731225464413
42
-0.41421356237314316
10
234.46695770000008
20
15.008731225464411
10
219.86795770000001
20
15.008731225464409
42
-0.41421356237311324
10
219.36795770000003
20
15.508731225464413
10
219.36795770000003
20
27.309311225464409
42
-0.41421356237308204
0
LWPOLYLINE
5
125
100
AcDbEntity
8
0
100
AcDbPolyline
90
24
70
1
43
0.0
10
274.94995770000003
20
27.809311225464427
42
-0.41421356237310802
10
275.44995770000003
20
27.309311225464398
10
275.44995770000003
20
23.809454051019017
42
0.58309809629466614
10
275.90440412857151
20
23.552264819709585
42
-0.27350603595688544
10
278.44904698571429
20
23.569685287380672
42
0.57852049630371027
10
278.89995769999996
20
23.828964974810631
10
278.89995769999996
20
27.309311225464398
42
-0.41421356237312101
10
279.39995770000002
20
27.809311225464395
10
293.99995769999998
20
27.809311225464413
42
-0.41421356237310025
10
294.49995769999998
20
27.309311225464398
10
294.49995769999998
20
15.508731225464391
42
-0.41421356237314705
10
293.99995769999998
20
15.008731225464382
10
279.39995770000002
20
15.008731225464402
42
-0.41421356237313794
10
278.89995770000002
20
15.508731225464413
10
278.89995769999996
20
18.989077476118151
42
0.57852049630371138
10
278.44904698571429
20
19.248357163548096
42
-0.27350603595688555
10
275.90440412857146
20
19.265777631219191
42
0.58309809629468845
10
275.44995770000003
20
19.008588399909762
10
275.44995770000003
20
15.508731225464391
42
-0.41421356237310153
10
274.94995770000003
20
15.008731225464382
10
260.34995770000012
20
15.008731225464402
42
-0.41421356237313794
10
259.84995770000006
20
15.508731225464413
10
259.84995770000006
20
27.309311225464409
42
-0.41421356237313145
10
260.34995770000012
20
27.809311225464413
0
LWPOLYLINE
5
126
100
AcDbEntity
8
0
100
AcDbPolyline
90
8
70
1
43
0.0
10
240.79995769999999
20
91.708711225464384
10
240.79995769999999
20
103.5092112254644
42
-0.41421356237301177
10
241.29995769999999
20
104.00921122546441
10
255.89995770000002
20
104.00921122546438
42
-0.4142135623730846
10
256.39995770000007
20
103.5092112254644
10
256.39995770000007
20
91.708711225464384
42
-0.4142135623731783
10
255.89995770000002
20
91.208711225464384
10
241.29995769999999
20
91.208711225464384
42
-0.41421356237313667
0
LWPOLYLINE
5
127
100
AcDbEntity
8
0
100
AcDbPolyline
90
8
70
1
43
0.0
10
146.36195769999998
20
46.859311225464417
42
-0.41421356237304302
10
146.86195769999998
20
46.35931122546441
10
146.86195769999998
20
34.5587112254644
42
-0.4142135623730846
10
146.36195769999998
20
34.0587112254644
10
131.76095770000001
20
34.058711225464407
42
-0.41421356237305862
10
131.26095770000001
20
34.5587112254644
10
131.26095770000003
20
46.35931122546441
42
-0.4142135623730846
10
131.76095770000001
20
46.859311225464388
0
LWPOLYLINE
5
128
100
AcDbEntity
8
0
100
AcDbPolyline
90
8
70
1
43
0.0
10
313.04995769999999
20
15.008731225464411
10
298.44995770000003
20
15.00873122546443
42
-0.41421356237312101
10
297.94995770000003
20
15.508731225464413
10
297.94995770000003
20
27.309311225464398
42
-0.41421356237312101
10
298.44995770000003
20
27.809311225464395
10
313.04995769999999
20
27.809311225464413
42
-0.41421356237310025
10
313.54995770000005
20
27.309311225464398
10
313.54995770000005
20
15.508731225464413
42
-0.41421356237314316
0
LWPOLYLINE
5
129
100
AcDbEntity
8
0
100
AcDbPolyline
90
14
70
1
43
0.0
10
16.961487700000021
20
27.809311225464413
10
32.062257700000018
20
27.809311225464395
42
-0.41421356237308721
10
32.562257700000011
20
27.309311225464398
10
32.562257700000018
20
23.20902122546439
42
0.41421356237310375
10
32.862257700000015
20
22.909021225464393
10
33.235389722500166
20
22.909021225464393
42
0.21342176528340293
10
33.608067718750128
20
23.075687892131057
42
-2.7974980468622346
10
33.471457699999966
20
19.909021225464393
10
32.862257700000022
20
19.909021225464393
42
0.41421356237307555
10
32.562257700000018
20
19.609021225464392
10
32.562257700000018
20
15.508731225464391
42
-0.41421356237310414
10
32.062257700000018
20
15.008731225464391
10
17.461487700000021
20
15.008731225464411
42
-0.41421356237309243
10
16.961487700000021
20
15.508731225464413
0
LWPOLYLINE
5
130
100
AcDbEntity
8
0
100
AcDbPolyline
90
8
70
1
43
0.0
10
93.161357700000025
20
34.5587112254644
10
93.161357700000025
20
46.35931122546441
42
-0.41421356237310542
10
93.661357700000025
20
46.859311225464388
10
108.26225770000001
20
46.85931122546441
42
-0.41421356237308982
10
108.76225770000002
20
46.35931122546441
10
108.76225770000002
20
34.5587112254644
42
-0.41421356237308982
10
108.26225770000001
20
34.0587112254644
10
93.661357700000025
20
34.058711225464407
42
-0.41421356237308982
0
LWPOLYLINE
5
131
100
AcDbEntity
8
0
100
AcDbPolyline
90
8
70
1
43
0.0
10
145.54995769999999
20
27.309311225464398
42
-0.41421356237307161
10
146.04995769999999
20
27.809311225464395
10
160.64995769999999
20
27.809311225464395
42
-0.41421356237313145
10
161.14995770000002
20
27.309311225464398
10
161.14995770000002
20
15.508731225464391
42
-0.41421356237313273
10
160.64995769999999
20
15.008731225464382
10
146.04995769999999
20
15.008731225464409
42
-0.41421356237307161
10
145.54995769999999
20
15.508731225464413
0
LWPOLYLINE
5
132
100
AcDbEntity
8
0
100
AcDbPolyline
90
8
70
1
43
0.0
10
150.81095769999999
20
46.85931122546441
10
165.41195769999996
20
46.859311225464431
42
-0.4142135623730846
10
165.9119577000001
20
46.35931122546441
10
165.9119577000001
20
34.5587112254644
42
-0.41421356237318868
10
165.41195769999999
20
34.058711225464421
10
150.81095769999999
20
34.0587112254644
42
-0.41421356237308204
10
150.31095770000002
20
34.5587112254644
10
150.31095770000002
20
46.35931122546441
42
-0.41421356237310025
0
LWPOLYLINE
5
133
100
AcDbEntity
8
0
100
AcDbPolyline
90
8
70
1
43
0.0
10
24.605257700000021
20
34.0587112254644
42
-0.41421356237309243
10
24.105257700000024
20
34.5587112254644
10
24.105257700000013
20
46.35931122546441
42
-0.41421356237310025
10
24.605257700000021
20
46.85931122546441
10
39.205957700000042
20
46.85931122546441
42
-0.41421356237308204
10
39.705957700000035
20
46.35931122546441
10
39.705957700000035
20
34.5587112254644
42
-0.41421356237309243
10
39.205957700000042
20
34.058711225464421
0
LWPOLYLINE
5
134
100
AcDbEntity
8
0
100
AcDbPolyline
90
8
70
1
43
0.0
10
55.061357700000016
20
46.35931122546441
42
-0.41421356237309503
10
55.561357700000016
20
46.85931122546441
10
70.162257700000026
20
46.85931122546441
42
-0.41421356237309503
10
70.662257700000026
20
46.35931122546441
10
70.662257700000026
20
34.5587112254644
42
-0.41421356237308721
10
70.162257700000026
20
34.0587112254644
10
55.561357700000016
20
34.058711225464393
42
-0.41421356237310025
10
55.061357700000016
20
34.5587112254644
0
LWPOLYLINE
5
135
100
AcDbEntity
8
0
100
AcDbPolyline
90
8
70
1
43
0.0
10
207.96095770000008
20
34.058711225464371
42
-0.41421356237308721
10
207.46095770000011
20
34.5587112254644
10
207.46095770000014
20
46.35931122546441
42
-0.4142135623730846
10
207.96095770000008
20
46.85931122546441
10
222.56195770000011
20
46.859311225464396
42
-0.41421356237310542
10
223.06195770000011
20
46.35931122546441
10
223.06195770000011
20
34.5587112254644
42
-0.41421356237314183
10
222.56195770000008
20
34.0587112254644
0
LWPOLYLINE
5
136
100
AcDbEntity
8
0
100
AcDbPolyline
90
8
70
1
43
0.0
10
18.642887700000021
20
31.378411225464376
10
16.97641770000002
20
31.37841122546439
42
-0.41421356237310414
10
16.47641770000002
20
31.878411225464376
10
16.476417700000024
20
36.086111225464393
42
-0.41421356237310025
10
16.97641770000002
20
36.586111225464393
10
18.642887700000021
20
36.586111225464393
42
-0.41421356237309631
10
19.142887700000021
20
36.086111225464393
10
19.142887700000021
20
31.878411225464376
42
-0.41421356237309503
0
LWPOLYLINE
5
137
100
AcDbEntity
8
0
100
AcDbPolyline
90
8
70
1
43
0.0
10
273.77695770000003
20
31.878411225464376
42
-0.41421356237311063
10
273.27695770000003
20
31.37841122546439
10
271.60995770000005
20
31.37841122546439
42
-0.41421356237312362
10
271.10995770000005
20
31.878411225464376
10
271.1099577
20
36.086111225464393
42
-0.41421356237312101
10
271.60995770000005
20
36.586111225464393
10
273.27695770000003
20
36.586111225464421
42
-0.41421356237308721
10
273.77695770000003
20
36.086111225464393
0
LWPOLYLINE
5
138
100
AcDbEntity
8
0
100
AcDbPolyline
90
8
70
1
43
0.0
10
46.834857700000036
20
31.378411225464376
10
45.168257700000026
20
31.378411225464383
42
-0.41421356237310281
10
44.668257700000012
20
31.878411225464376
10
44.668257700000012
20
36.086111225464393
42
-0.41421356237308204
10
45.168257700000012
20
36.586111225464393
10
46.834857700000043
20
36.5861112254644
42
-0.41421356237308721
10
47.334857700000008
20
36.086111225464393
10
47.334857700000022
20
31.878411225464376
42
-0.41421356237311063
0
LWPOLYLINE
5
139
100
AcDbEntity
8
0
100
AcDbPolyline
90
8
70
1
43
0.0
10
169.36095769999997
20
34.5587112254644
10
169.36095770000003
20
46.35931122546441
42
-0.4142135623730222
10
169.86095769999997
20
46.85931122546441
10
184.4619577
20
46.859311225464353
42
-0.41421356237312101
10
184.96195769999997
20
46.35931122546441
10
184.96195769999997
20
34.5587112254644
42
-0.41421356237310802
10
184.4619577
20
34.058711225464393
10
169.86095769999997
20
34.058711225464414
42
-0.41421356237312623
0
LWPOLYLINE
5
140
100
AcDbEntity
8
0
100
AcDbPolyline
90
8
70
1
43
0.0
10
247.23395770000002
20
31.878411225464376
10
247.23395770000002
20
36.086111225464393
42
-0.41421356237317308
10
247.73395770000005
20
36.586111225464393
10
249.40095769999999
20
36.5861112254644
42
-0.41421356237313667
10
249.90095769999999
20
36.086111225464393
10
249.90095769999999
20
31.878411225464376
42
-0.41421356237312623
10
249.40095769999999
20
31.37841122546439
10
247.73395770000005
20
31.378411225464369
42
-0.41421356237313667
0
LWPOLYLINE
5
141
100
AcDbEntity
8
0
100
AcDbPolyline
90
8
70
1
43
0.0
10
227.01095770000001
20
34.058711225464421
42
-0.41421356237312362
10
226.51095770000001
20
34.5587112254644
10
226.51095770000006
20
46.35931122546441
42
-0.41421356237312623
10
227.01095770000001
20
46.859311225464381
10
241.61195770000003
20
46.859311225464417
42
-0.41421356237313667
10
242.11195770000003
20
46.35931122546441
10
242.11195770000003
20
34.5587112254644
42
-0.41421356237316787
10
241.61195770000003
20
34.058711225464421
0
LWPOLYLINE
5
142
100
AcDbEntity
8
0
100
AcDbPolyline
90
8
70
1
43
0.0
10
203.51195770000001
20
46.859311225464424
42
-0.41421356237314183
10
204.0119577000001
20
46.35931122546441
10
204.01195770000001
20
34.5587112254644
42
-0.41421356237314444
10
203.51195770000001
20
34.058711225464393
10
188.91095769999998
20
34.058711225464414
42
-0.41421356237312623
10
188.41095769999998
20
34.5587112254644
10
188.41095770000004
20
46.35931122546441
42
-0.4142135623730222
10
188.91095769999998
20
46.85931122546441
0
LWPOLYLINE
5
143
100
AcDbEntity
8
0
100
AcDbPolyline
90
8
70
1
43
0.0
10
34.942157700000024
20
53.60871122546439
42
-0.41421356237310025
10
34.442157700000017
20
53.10871122546439
10
19.842737700000018
20
53.10871122546439
42
-0.41421356237308721
10
19.342737700000018
20
53.60871122546439
10
19.342737700000018
20
65.409211225464389
42
-0.41421356237309631
10
19.842737700000018
20
65.909211225464389
10
34.442157700000017
20
65.909211225464389
42
-0.41421356237310281
10
34.942157700000024
20
65.409211225464389
0
LWPOLYLINE
5
144
100
AcDbEntity
8
0
100
AcDbPolyline
90
8
70
1
43
0.0
10
261.52895769999998
20
55.636011225464379
42
-0.41421356237310025
10
262.02895769999998
20
55.136011225464401
10
262.02895769999998
20
50.928311225464398
42
-0.41421356237318868
10
261.52895769999998
20
50.428311225464398
10
259.86395770000007
20
50.428311225464412
42
-0.41421356237323032
10
259.36395770000001
20
50.928311225464398
10
259.36395770000001
20
55.136011225464401
42
-0.4142135623730534
10
259.86395770000001
20
55.636011225464429
0
LWPOLYLINE
5
145
100
AcDbEntity
8
0
100
AcDbPolyline
90
8
70
1
43
0.0
10
268.30595770000002
20
34.5587112254644
42
-0.41421356237319129
10
267.80595770000002
20
34.0587112254644
10
253.20495770000008
20
34.058711225464414
42
-0.41421356237312623
10
252.70495769999999
20
34.5587112254644
10
252.70495769999999
20
46.35931122546441
42
-0.41421356237321988
10
253.20495770000008
20
46.85931122546441
10
267.80595770000002
20
46.859311225464431
42
-0.4142135623730846
10
268.30595770000002
20
46.35931122546441
0
LWPOLYLINE
5
146
100
AcDbEntity
8
0
100
AcDbPolyline
90
8
70
1
43
0.0
10
74.611357700000013
20
34.0587112254644
42
-0.41421356237310281
10
74.111357700000028
20
34.5587112254644
10
74.111357699999999
20
46.35931122546441
42
-0.41421356237311585
10
74.611357700000013
20
46.85931122546441
10
89.212257700000052
20
46.859311225464396
42
-0.41421356237311585
10
89.712257700000038
20
46.35931122546441
10
89.712257700000038
20
34.5587112254644
42
-0.41421356237310542
10
89.212257700000052
20
34.0587112254644
0
LWPOLYLINE
5
147
100
AcDbEntity
8
0
100
AcDbPolyline
90
8
70
1
43
0.0
10
289.72195770000008
20
55.636011225464387
42
-0.41421356237310542
10
290.22195770000002
20
55.136011225464401
10
290.22195770000002
20
50.928311225464398
42
-0.41421356237313667
10
289.72195770000013
20
50.42831122546437
10
288.05595770000002
20
50.428311225464391
42
-0.41421356237313145
10
287.55595770000002
20
50.928311225464391
10
287.55595770000002
20
55.136011225464401
42
-0.41421356237312623
10
288.05595770000002
20
55.636011225464408
0
LWPOLYLINE
5
148
100
AcDbEntity
8
0
100
AcDbPolyline
90
8
70
1
43
0.0
10
127.81195769999999
20
34.5587112254644
42
-0.41421356237307683
10
127.31195770000001
20
34.0587112254644
10
112.71095770000002
20
34.0587112254644
42
-0.41421356237307161
10
112.21095770000002
20
34.5587112254644
10
112.21095770000008
20
46.35931122546441
42
-0.4142135623730534
10
112.71095770000002
20
46.85931122546441
10
127.31195770000002
20
46.859311225464388
42
-0.41421356237308982
10
127.81195770000002
20
46.35931122546441
0
LWPOLYLINE
5
149
100
AcDbEntity
8
0
100
AcDbPolyline
90
8
70
1
43
0.0
10
45.536457700000028
20
65.409211225464389
42
-0.4142135623730846
10
46.036457700000028
20
65.909211225464389
10
60.637257700000021
20
65.909211225464389
42
-0.41421356237309503
10
61.137257700000021
20
65.409211225464389
10
61.137257700000021
20
53.60871122546439
42
-0.41421356237309503
10
60.637257700000021
20
53.10871122546439
10
46.036457700000028
20
53.10871122546439
42
-0.41421356237309503
10
45.536457700000028
20
53.60871122546439
0
LWPOLYLINE
5
150
100
AcDbEntity
8
0
100
AcDbPolyline
90
8
70
1
43
0.0
10
102.68635770000002
20
53.60871122546439
10
102.6863577
20
65.409211225464389
42
-0.4142135623730534
10
103.1863577
20
65.909211225464389
10
117.7869577
20
65.909211225464404
42
-0.41421356237309503
10
118.28695770000002
20
65.409211225464389
10
118.28695770000002
20
53.60871122546439
42
-0.414213562373069
10
117.7869577
20
53.10871122546439
10
103.1863577
20
53.10871122546439
42
-0.41421356237305862
0
LWPOLYLINE
5
151
100
AcDbEntity
8
0
100
AcDbPolyline
90
8
70
1
43
0.0
10
298.44995770000003
20
34.058711225464421
42
-0.41421356237312362
10
297.94995770000003
20
34.5587112254644
10
297.94995770000008
20
46.35931122546441
42
-0.4142135623730222
10
298.44995770000003
20
46.85931122546441
10
313.04995769999999
20
46.859311225464381
42
-0.41421356237315748
10
313.54995770000005
20
46.35931122546441
10
313.54995770000005
20
34.5587112254644
42
-0.41421356237314444
10
313.04995769999999
20
34.058711225464393
0
LWPOLYLINE
5
152
100
AcDbEntity
8
0
100
AcDbPolyline
90
8
70
1
43
0.0
10
16.537027700000021
20
55.136011225464401
10
16.537027700000024
20
50.928311225464412
42
-0.41421356237308721
10
16.037027700000021
20
50.428311225464398
10
14.371907700000019
20
50.428311225464398
42
-0.41421356237307422
10
13.871907700000019
20
50.928311225464398
10
13.871907700000017
20
55.136011225464401
42
-0.41421356237309764
10
14.371907700000019
20
55.636011225464379
10
16.037027700000021
20
55.636011225464379
42
-0.4142135623730846
0
LWPOLYLINE
5
153
100
AcDbEntity
8
0
100
AcDbPolyline
90
8
70
1
43
0.0
10
160.33595770000011
20
53.10871122546439
42
-0.41421356237308982
10
159.83595770000011
20
53.60871122546439
10
159.83595770000011
20
65.409211225464389
42
-0.41421356237309503
10
160.33595770000011
20
65.909211225464389
10
174.93695769999999
20
65.909211225464418
42
-0.41421356237314183
10
175.43695769999999
20
65.409211225464389
10
175.43695769999999
20
53.60871122546439
42
-0.41421356237315748
10
174.93695769999999
20
53.108711225464418
0
LWPOLYLINE
5
154
100
AcDbEntity
8
0
100
AcDbPolyline
90
24
70
1
43
0.0
10
140.78595769999998
20
65.409211225464389
42
-0.41421356237312623
10
141.28595769999998
20
65.909211225464389
10
155.88695769999998
20
65.909211225464389
42
-0.41421356237307944
10
156.38695769999998
20
65.409211225464389
10
156.38695769999998
20
53.60871122546439
42
-0.4142135623730846
10
155.88695769999998
20
53.10871122546439
10
141.28595769999998
20
53.108711225464383
42
-0.4142135623730846
10
140.78595769999998
20
53.60871122546439
10
140.78595769999998
20
57.098401176430123
42
0.58073303952117561
10
140.3333327
20
57.356675467398084
42
-0.27338711896507972
10
137.78958269999995
20
57.356675467398084
42
0.58073303952111377
10
137.33695769999997
20
57.098401176430151
10
137.33695769999997
20
53.60871122546439
42
-0.41421356237310025
10
136.83695769999997
20
53.10871122546439
10
122.23595770000001
20
53.108711225464383
42
-0.4142135623730534
10
121.7359577
20
53.60871122546439
10
121.7359577
20
65.409211225464389
42
-0.41421356237304818
10
122.23595770000001
20
65.909211225464389
10
136.83695769999997
20
65.909211225464404
42
-0.41421356237310542
10
137.33695769999997
20
65.409211225464389
10
137.33695769999997
20
61.919521274498656
42
0.58073303952117561
10
137.78958269999998
20
61.661246983530695
42
-0.27338711896507972
10
140.33333270000003
20
61.661246983530695
42
0.58073303952111377
10
140.78595769999998
20
61.919521274498628
0
LWPOLYLINE
5
155
100
AcDbEntity
8
0
100
AcDbPolyline
90
8
70
1
43
0.0
10
40.414257700000029
20
55.136011225464401
10
40.414257700000029
20
50.928311225464412
42
-0.41421356237307683
10
39.914257700000022
20
50.428311225464398
10
38.247757700000022
20
50.428311225464398
42
-0.41421356237308204
10
37.747757700000022
20
50.928311225464398
10
37.747757700000022
20
55.136011225464401
42
-0.41421356237309503
10
38.247757700000022
20
55.636011225464379
10
39.914257700000022
20
55.636011225464401
42
-0.41421356237310802
0
LWPOLYLINE
5
156
100
AcDbEntity
8
0
100
AcDbPolyline
90
16
70
1
43
0.0
10
32.562257700000039
20
72.658711225464415
42
-0.41421356237310281
10
32.062257700000018
20
72.15871122546443
10
17.461487700000021
20
72.15871122546443
42
-0.41421356237308332
10
16.96148770000001
20
72.658711225464415
10
16.961487700000021
20
84.459211225464372
42
-0.41421356237309115
10
17.461487700000021
20
84.959211225464372
10
32.062257700000018
20
84.959211225464372
42
-0.41421356237308721
10
32.562257700000011
20
84.459211225464372
10
32.562257700000032
20
80.358961225464384
42
0.41421356237312978
10
32.862257700000022
20
80.058961225464387
10
33.235389722500173
20
80.058961225464387
42
0.21342176528333842
10
33.608067718750149
20
80.225627892131058
42
-2.6180339887498936
10
33.608067718750142
20
76.89229455879773
42
0.21342176528337886
10
33.235389722500173
20
77.058961225464387
10
32.862257700000029
20
77.058961225464387
42
0.41421356237307771
10
32.562257700000025
20
76.75896122546439
0
LWPOLYLINE
5
157
100
AcDbEntity
8
0
100
AcDbPolyline
90
8
70
1
43
0.0
10
278.89995770000007
20
46.35931122546441
42
-0.4142135623730222
10
279.39995770000002
20
46.85931122546441
10
293.99995769999998
20
46.859311225464438
42
-0.41421356237308982
10
294.4999577000001
20
46.35931122546441
10
294.49995769999998
20
34.5587112254644
42
-0.41421356237314183
10
293.99995769999998
20
34.0587112254644
10
279.39995770000002
20
34.058711225464421
42
-0.41421356237312362
10
278.89995770000002
20
34.5587112254644
0
LWPOLYLINE
5
158
100
AcDbEntity
8
0
100
AcDbPolyline
90
8
70
1
43
0.0
10
40.775357700000036
20
72.658711225464415
10
40.775357700000043
20
84.459211225464372
42
-0.41421356237310025
10
41.275357700000022
20
84.959211225464372
10
55.874757700000018
20
84.959211225464372
42
-0.41421356237308982
10
56.374757700000018
20
84.459211225464372
10
56.374757700000018
20
72.658711225464415
42
-0.41421356237309503
10
55.874757700000018
20
72.15871122546443
10
41.275357700000022
20
72.15871122546443
42
-0.41421356237310025
0
LWPOLYLINE
5
159
100
AcDbEntity
8
0
100
AcDbPolyline
90
8
70
1
43
0.0
10
84.136357700000019
20
65.909211225464389
10
98.737257700000001
20
65.909211225464389
42
-0.41421356237310542
10
99.237257700000015
20
65.409211225464389
10
99.237257700000015
20
53.60871122546439
42
-0.4142135623730846
10
98.737257700000001
20
53.10871122546439
10
84.136357700000019
20
53.10871122546439
42
-0.41421356237308982
10
83.636357700000019
20
53.60871122546439
10
83.636357700000019
20
65.409211225464389
42
-0.41421356237311585
0
LWPOLYLINE
5
160
100
AcDbEntity
8
0
100
AcDbPolyline
90
8
70
1
43
0.0
10
178.88595769999992
20
53.60871122546439
10
178.88595769999998
20
65.409211225464389
42
-0.4142135623730378
10
179.38595770000001
20
65.909211225464361
10
193.9869577
20
65.909211225464389
42
-0.41421356237311063
10
194.48695770000012
20
65.409211225464389
10
194.48695770000012
20
53.60871122546439
42
-0.41421356237318868
10
193.9869577
20
53.10871122546439
10
179.38595770000001
20
53.108711225464418
42
-0.41421356237315748
0
LWPOLYLINE
5
161
100
AcDbEntity
8
0
100
AcDbPolyline
90
8
70
1
43
0.0
10
65.086357700000022
20
53.10871122546439
42
-0.41421356237309503
10
64.586357700000022
20
53.60871122546439
10
64.586357700000022
20
65.409211225464389
42
-0.4142135623730846
10
65.086357700000022
20
65.909211225464389
10
79.687257700000032
20
65.909211225464404
42
-0.41421356237313145
10
80.187257700000032
20
65.409211225464389
10
80.187257700000032
20
53.60871122546439
42
-0.41421356237311063
10
79.687257700000032
20
53.10871122546439
0
LWPOLYLINE
5
162
100
AcDbEntity
8
0
100
AcDbPolyline
90
8
70
1
43
0.0
10
217.48595770000009
20
65.909211225464389
10
232.08695770000003
20
65.909211225464418
42
-0.41421356237314183
10
232.58695770000003
20
65.409211225464389
10
232.58695770000003
20
53.60871122546439
42
-0.41421356237313667
10
232.08695770000003
20
53.10871122546439
10
217.48595770000009
20
53.108711225464411
42
-0.41421356237312101
10
216.9859577
20
53.60871122546439
10
216.9859577
20
65.409211225464389
42
-0.41421356237317308
0
LWPOLYLINE
5
163
100
AcDbEntity
8
0
100
AcDbPolyline
90
8
70
1
43
0.0
10
313.54995770000005
20
65.409211225464389
10
313.54995770000005
20
53.60871122546439
42
-0.41421356237318868
10
313.04995769999999
20
53.108711225464418
10
298.44995770000003
20
53.108711225464404
42
-0.41421356237312623
10
297.94995770000003
20
53.60871122546439
10
297.94995770000008
20
65.409211225464389
42
-0.4142135623730222
10
298.44995770000003
20
65.909211225464389
10
313.04995769999999
20
65.909211225464418
42
-0.41421356237310025
0
LWPOLYLINE
5
164
100
AcDbEntity
8
0
100
AcDbPolyline
90
8
70
1
43
0.0
10
170.17495769999999
20
72.15871122546443
10
155.57495769999997
20
72.158711225464415
42
-0.4142135623730846
10
155.07495769999997
20
72.658711225464415
10
155.07495769999997
20
84.459211225464372
42
-0.41421356237310542
10
155.57495769999997
20
84.959211225464372
10
170.17495770000005
20
84.959211225464401
42
-0.41421356237312623
10
170.67495769999999
20
84.459211225464372
10
170.67495769999999
20
72.658711225464415
42
-0.41421356237313667
0
LWPOLYLINE
5
165
100
AcDbEntity
8
0
100
AcDbPolyline
90
8
70
1
43
0.0
10
79.37525770000002
20
84.959211225464372
10
93.974757699999998
20
84.959211225464372
42
-0.41421356237307422
10
94.47475770000004
20
84.459211225464372
10
94.47475770000004
20
72.658711225464401
42
-0.41421356237307944
10
93.974757699999998
20
72.158711225464387
10
79.37525770000002
20
72.15871122546443
42
-0.41421356237309503
10
78.87525770000002
20
72.658711225464415
10
78.87525770000002
20
84.459211225464372
42
-0.41421356237313667
0
LWPOLYLINE
5
166
100
AcDbEntity
8
0
100
AcDbPolyline
90
8
70
1
43
0.0
10
59.825257700000023
20
72.658711225464415
10
59.825257700000023
20
84.459211225464372
42
-0.41421356237308982
10
60.325257700000023
20
84.959211225464372
10
74.924757700000015
20
84.959211225464372
42
-0.41421356237311585
10
75.424757700000015
20
84.459211225464372
10
75.424757700000029
20
72.658711225464415
42
-0.41421356237313145
10
74.924757700000015
20
72.15871122546443
10
60.325257700000023
20
72.15871122546443
42
-0.41421356237309503
0
LWPOLYLINE
5
167
100
AcDbEntity
8
0
100
AcDbPolyline
90
8
70
1
43
0.0
10
174.62495770000001
20
72.158711225464415
42
-0.41421356237313667
10
174.12495769999998
20
72.658711225464415
10
174.12495770000007
20
84.459211225464372
42
-0.41421356237304302
10
174.62495770000001
20
84.959211225464372
10
189.22495769999998
20
84.959211225464358
42
-0.41421356237316787
10
189.72495769999998
20
84.459211225464372
10
189.72495769999995
20
72.658711225464415
42
-0.4142135623730222
10
189.22495769999998
20
72.15871122546443
0
LWPOLYLINE
5
168
100
AcDbEntity
8
0
100
AcDbPolyline
90
8
70
1
43
0.0
10
113.0249577
20
72.158711225464387
10
98.425257700000031
20
72.158711225464373
42
-0.41421356237306384
10
97.925257700000046
20
72.658711225464415
10
97.925257700000046
20
84.459211225464372
42
-0.41421356237310542
10
98.425257700000031
20
84.959211225464372
10
113.0249577
20
84.959211225464372
42
-0.41421356237309503
10
113.52495770000002
20
84.459211225464372
10
113.52495770000002
20
72.658711225464401
42
-0.414213562373069
0
LWPOLYLINE
5
169
100
AcDbEntity
8
0
100
AcDbPolyline
90
8
70
1
43
0.0
10
197.93595770000002
20
65.409211225464389
42
-0.4142135623730222
10
198.43595770000002
20
65.909211225464389
10
213.03695770000004
20
65.909211225464389
42
-0.41421356237310542
10
213.53695770000007
20
65.409211225464389
10
213.53695770000007
20
53.60871122546439
42
-0.41421356237323032
10
213.03695770000004
20
53.10871122546439
10
198.43595770000002
20
53.108711225464418
42
-0.41421356237315748
10
197.93595769999999
20
53.60871122546439
0
LWPOLYLINE
5
170
100
AcDbEntity
8
0
100
AcDbPolyline
90
8
70
1
43
0.0
10
251.63695770000004
20
53.60871122546439
42
-0.41421356237313667
10
251.13695770000004
20
53.10871122546439
10
236.53595770000004
20
53.108711225464418
42
-0.41421356237315748
10
236.03595770000001
20
53.60871122546439
10
236.03595770000001
20
65.409211225464389
42
-0.4142135623730378
10
236.53595770000004
20
65.909211225464361
10
251.13695770000004
20
65.909211225464418
42
-0.41421356237314183
10
251.63695770000004
20
65.409211225464389
0
LWPOLYLINE
5
171
100
AcDbEntity
8
0
100
AcDbPolyline
90
8
70
1
43
0.0
10
208.77495769999999
20
84.459211225464372
10
208.77495769999999
20
72.658711225464401
42
-0.41421356237301699
10
208.27495769999999
20
72.158711225464387
10
193.67495770000002
20
72.15871122546443
42
-0.41421356237313145
10
193.17495769999999
20
72.658711225464415
10
193.17495769999999
20
84.459211225464372
42
-0.41421356237321988
10
193.67495770000002
20
84.959211225464372
10
208.27495769999999
20
84.959211225464358
42
-0.41421356237314705
0
LWPOLYLINE
5
172
100
AcDbEntity
8
0
100
AcDbPolyline
90
8
70
1
43
0.0
10
50.30025770000001
20
103.50921122546441
42
-0.41421356237302737
10
50.800257700000024
20
104.00921122546441
10
65.399757700000023
20
104.00921122546438
42
-0.4142135623730534
10
65.899757700000023
20
103.5092112254644
10
65.899757700000038
20
91.708711225464384
42
-0.4142135623730534
10
65.399757700000023
20
91.208711225464384
10
50.800257700000024
20
91.208711225464356
42
-0.4142135623730378
10
50.300257700000017
20
91.70871122546437
0
LWPOLYLINE
5
173
100
AcDbEntity
8
0
100
AcDbPolyline
90
8
70
1
43
0.0
10
121.82485770000001
20
22.534021225464407
42
-0.41421356237305601
10
122.32485770000002
20
22.034021225464397
10
122.32485770000002
20
20.784021225464393
42
-0.414213562373069
10
121.82485770000001
20
20.284021225464393
10
120.5748577
20
20.284021225464393
42
-0.41421356237308982
10
120.07485770000002
20
20.784021225464393
10
120.07485770000002
20
22.034021225464397
42
-0.41421356237310281
10
120.57485770000001
20
22.534021225464397
0
LWPOLYLINE
5
174
100
AcDbEntity
8
0
100
AcDbPolyline
90
8
70
1
43
0.0
10
108.17485770000002
20
20.784021225464393
10
108.17485770000002
20
22.034021225464397
42
-0.41421356237308721
10
108.67485770000002
20
22.534021225464397
10
109.92485770000002
20
22.534021225464382
42
-0.41421356237313406
10
110.4248577
20
22.034021225464397
10
110.4248577
20
20.784021225464393
42
-0.41421356237305601
10
109.92485770000002
20
20.284021225464393
10
108.67485770000002
20
20.284021225464404
42
-0.4142135623730846
0
LWPOLYLINE
5
175
100
AcDbEntity
8
0
100
AcDbPolyline
90
8
70
1
43
0.0
10
227.3249577
20
84.959211225464358
42
-0.41421356237314705
10
227.8249577
20
84.459211225464372
10
227.8249577
20
72.658711225464401
42
-0.41421356237301699
10
227.3249577
20
72.158711225464387
10
212.72495770000003
20
72.15871122546443
42
-0.41421356237313145
10
212.2249577
20
72.658711225464415
10
212.2249577
20
84.459211225464372
42
-0.41421356237321988
10
212.72495770000003
20
84.959211225464372
0
LWPOLYLINE
5
176
100
AcDbEntity
8
0
100
AcDbPolyline
90
8
70
1
43
0.0
10
132.07495770000003
20
84.959211225464372
42
-0.41421356237312623
10
132.5749577
20
84.459211225464372
10
132.57495770000003
20
72.658711225464401
42
-0.41421356237305862
10
132.07495770000003
20
72.158711225464387
10
117.4749577
20
72.15871122546443
42
-0.41421356237313667
10
116.97495770000002
20
72.658711225464415
10
116.97495770000002
20
84.459211225464372
42
-0.41421356237312623
10
117.4749577
20
84.959211225464372
0
LWPOLYLINE
5
177
100
AcDbEntity
8
0
100
AcDbPolyline
90
8
70
1
43
0.0
10
266.99095770000008
20
65.409211225464389
42
-0.4142135623730222
10
267.49095770000002
20
65.909211225464389
10
282.09195770000002
20
65.909211225464389
42
-0.41421356237311063
10
282.59195770000014
20
65.409211225464389
10
282.59195770000014
20
53.60871122546439
42
-0.4142135623730846
10
282.09195770000002
20
53.10871122546439
10
267.49095770000002
20
53.108711225464418
42
-0.41421356237315748
10
266.99095770000002
20
53.60871122546439
0
LWPOLYLINE
5
178
100
AcDbEntity
8
0
100
AcDbPolyline
90
8
70
1
43
0.0
10
136.52395769999998
20
84.959211225464372
10
151.12495769999998
20
84.959211225464372
42
-0.41421356237309503
10
151.62495769999998
20
84.459211225464372
10
151.62495769999998
20
72.658711225464415
42
-0.41421356237313145
10
151.12495769999998
20
72.15871122546443
10
136.52395769999998
20
72.15871122546443
42
-0.41421356237311585
10
136.02395769999998
20
72.658711225464415
10
136.02395769999998
20
84.459211225464372
42
-0.41421356237312623
0
LWPOLYLINE
5
179
100
AcDbEntity
8
0
100
AcDbPolyline
90
8
70
1
43
0.0
10
12.475042300000041
20
11.883339825464391
42
-0.41421356237309798
10
10.475042300000021
20
13.883339825464382
10
10.475042300000029
20
105.13341122546441
42
-0.41421356237309503
10
12.475042300000005
20
107.1334112254644
10
313.27495770000002
20
107.1334112254644
42
-0.41421356237309503
10
315.27495770000002
20
105.13341122546441
10
315.27495770000002
20
13.883339825464407
42
-0.41421356237309437
10
313.27495770000002
20
11.883339825464411
0
CIRCLE
5
180
100
AcDbEntity
8
0
100
AcDbCircle
10
115.24985770000001
20
21.409021225464393
30
0
40
3.0249999999999915
0
CIRCLE
5
181
100
AcDbEntity
8
0
100
AcDbCircle
10
198.45145769999999
20
21.409021225464407
30
0
40
2.4999999999999907
0
CIRCLE
5
182
100
AcDbEntity
8
0
100
AcDbCircle
10
270.92145769999996
20
78.558961225464401
30
0
40
2.5000000000000018
0
ENDSEC
0
SECTION
2
OBJECTS
0
DICTIONARY
5
C
100
AcDbDictionary
3
ACAD_GROUP
350
D
3
ACAD_MLINESTYLE
350
17
0
DICTIONARY
5
D
100
AcDbDictionary
0
DICTIONARY
5
1A
330
C
100
AcDbDictionary
0
DICTIONARY
5
17
100
AcDbDictionary
0
ENDSEC
0
EOF
